<?xml version="1.0" encoding="UTF-8" standalone="no"?>
<!DOCTYPE svg PUBLIC "-//W3C//DTD SVG 1.1//EN"
 "http://www.w3.org/Graphics/SVG/1.1/DTD/svg11.dtd">
<!-- Generated by graphviz version 2.43.0 (0)
 -->
<!-- Title: DistanceSensorController::config Pages: 1 -->
<svg width="329pt" height="437pt"
 viewBox="0.00 0.00 328.50 437.00" xmlns="http://www.w3.org/2000/svg" xmlns:xlink="http://www.w3.org/1999/xlink">
<g id="graph0" class="graph" transform="scale(1 1) rotate(0) translate(4 433)">
<title>DistanceSensorController::config</title>
<!-- Node1 -->
<g id="node1" class="node">
<title>Node1</title>
<g id="a_node1"><a xlink:title=" ">
<polygon fill="#bfbfbf" stroke="black" points="37,-0.5 37,-68.5 236,-68.5 236,-0.5 37,-0.5"/>
<text text-anchor="start" x="45" y="-56.5" font-family="Helvetica,sans-Serif" font-size="10.00">DistanceSensorController</text>
<text text-anchor="middle" x="136.5" y="-45.5" font-family="Helvetica,sans-Serif" font-size="10.00">::config</text>
<polyline fill="none" stroke="black" points="37,-38.5 236,-38.5 "/>
<text text-anchor="start" x="45" y="-26.5" font-family="Helvetica,sans-Serif" font-size="10.00">+ time_between_adc_measurements</text>
<polyline fill="none" stroke="black" points="37,-19.5 236,-19.5 "/>
<text text-anchor="middle" x="136.5" y="-7.5" font-family="Helvetica,sans-Serif" font-size="10.00"> </text>
</a>
</g>
</g>
<!-- Node2 -->
<g id="node2" class="node">
<title>Node2</title>
<g id="a_node2"><a xlink:href="../../d4/d70/class_a_d_c___a_p_i___e_s_p32.html#d0/d55/struct_a_d_c___a_p_i___e_s_p32_1_1config" target="_top" xlink:title=" ">
<polygon fill="none" stroke="black" points="0,-116.5 0,-195.5 129,-195.5 129,-116.5 0,-116.5"/>
<text text-anchor="middle" x="64.5" y="-183.5" font-family="Helvetica,sans-Serif" font-size="10.00">ADC_API_ESP32::config</text>
<polyline fill="none" stroke="black" points="0,-176.5 129,-176.5 "/>
<text text-anchor="start" x="8" y="-164.5" font-family="Helvetica,sans-Serif" font-size="10.00">+ samples</text>
<text text-anchor="start" x="8" y="-153.5" font-family="Helvetica,sans-Serif" font-size="10.00">+ channel</text>
<text text-anchor="start" x="8" y="-142.5" font-family="Helvetica,sans-Serif" font-size="10.00">+ vRef</text>
<polyline fill="none" stroke="black" points="0,-135.5 129,-135.5 "/>
<text text-anchor="middle" x="64.5" y="-123.5" font-family="Helvetica,sans-Serif" font-size="10.00"> </text>
</a>
</g>
</g>
<!-- Node2&#45;&gt;Node1 -->
<g id="edge1" class="edge">
<title>Node2&#45;&gt;Node1</title>
<path fill="none" stroke="#404040" d="M87.88,-116.2C94.99,-104.39 102.86,-91.34 110.15,-79.23"/>
<polygon fill="none" stroke="#404040" points="110.19,-79.17 109.86,-71.96 116.38,-68.89 116.71,-76.09 110.19,-79.17"/>
<text text-anchor="middle" x="133" y="-90" font-family="Helvetica,sans-Serif" font-size="10.00"> +adc_conf</text>
</g>
<!-- Node3 -->
<g id="node3" class="node">
<title>Node3</title>
<g id="a_node3"><a xlink:title="STL class.">
<polygon fill="none" stroke="#bfbfbf" points="32,-260 32,-317 97,-317 97,-260 32,-260"/>
<text text-anchor="middle" x="64.5" y="-305" font-family="Helvetica,sans-Serif" font-size="10.00">std::string</text>
<polyline fill="none" stroke="#bfbfbf" points="32,-298 97,-298 "/>
<text text-anchor="middle" x="64.5" y="-286" font-family="Helvetica,sans-Serif" font-size="10.00"> </text>
<polyline fill="none" stroke="#bfbfbf" points="32,-279 97,-279 "/>
<text text-anchor="middle" x="64.5" y="-267" font-family="Helvetica,sans-Serif" font-size="10.00"> </text>
</a>
</g>
</g>
<!-- Node3&#45;&gt;Node2 -->
<g id="edge2" class="edge">
<title>Node3&#45;&gt;Node2</title>
<path fill="none" stroke="#404040" d="M64.5,-259.82C64.5,-244.7 64.5,-225.49 64.5,-207.78"/>
<polygon fill="none" stroke="#404040" points="64.5,-207.53 60.5,-201.53 64.5,-195.53 68.5,-201.53 64.5,-207.53"/>
<text text-anchor="middle" x="84.5" y="-222.5" font-family="Helvetica,sans-Serif" font-size="10.00"> +name</text>
</g>
<!-- Node4 -->
<g id="node4" class="node">
<title>Node4</title>
<g id="a_node4"><a xlink:title="STL class.">
<polygon fill="none" stroke="#bfbfbf" points="12.5,-360.5 12.5,-428.5 116.5,-428.5 116.5,-360.5 12.5,-360.5"/>
<text text-anchor="start" x="20.5" y="-416.5" font-family="Helvetica,sans-Serif" font-size="10.00">std::basic_string&lt;</text>
<text text-anchor="middle" x="64.5" y="-405.5" font-family="Helvetica,sans-Serif" font-size="10.00"> char &gt;</text>
<polyline fill="none" stroke="#bfbfbf" points="12.5,-398.5 116.5,-398.5 "/>
<text text-anchor="middle" x="64.5" y="-386.5" font-family="Helvetica,sans-Serif" font-size="10.00"> </text>
<polyline fill="none" stroke="#bfbfbf" points="12.5,-379.5 116.5,-379.5 "/>
<text text-anchor="middle" x="64.5" y="-367.5" font-family="Helvetica,sans-Serif" font-size="10.00"> </text>
</a>
</g>
</g>
<!-- Node4&#45;&gt;Node3 -->
<g id="edge3" class="edge">
<title>Node4&#45;&gt;Node3</title>
<path fill="none" stroke="midnightblue" d="M64.5,-350.25C64.5,-339.05 64.5,-327.3 64.5,-317.15"/>
<polygon fill="none" stroke="midnightblue" points="61,-350.31 64.5,-360.31 68,-350.31 61,-350.31"/>
</g>
<!-- Node5 -->
<g id="node5" class="node">
<title>Node5</title>
<g id="a_node5"><a xlink:href="../../d9/d88/class_sensor_controller_base.html#d1/da2/struct_sensor_controller_base_1_1init__conf" target="_top" xlink:title=" ">
<polygon fill="none" stroke="black" points="147.5,-116.5 147.5,-195.5 269.5,-195.5 269.5,-116.5 147.5,-116.5"/>
<text text-anchor="start" x="155.5" y="-183.5" font-family="Helvetica,sans-Serif" font-size="10.00">SensorControllerBase</text>
<text text-anchor="middle" x="208.5" y="-172.5" font-family="Helvetica,sans-Serif" font-size="10.00">::init_conf</text>
<polyline fill="none" stroke="black" points="147.5,-165.5 269.5,-165.5 "/>
<text text-anchor="start" x="155.5" y="-153.5" font-family="Helvetica,sans-Serif" font-size="10.00">+ task_delay</text>
<text text-anchor="start" x="155.5" y="-142.5" font-family="Helvetica,sans-Serif" font-size="10.00">+ error_code_id</text>
<polyline fill="none" stroke="black" points="147.5,-135.5 269.5,-135.5 "/>
<text text-anchor="middle" x="208.5" y="-123.5" font-family="Helvetica,sans-Serif" font-size="10.00"> </text>
</a>
</g>
</g>
<!-- Node5&#45;&gt;Node1 -->
<g id="edge4" class="edge">
<title>Node5&#45;&gt;Node1</title>
<path fill="none" stroke="#404040" d="M185.12,-116.2C178.01,-104.39 170.14,-91.34 162.85,-79.23"/>
<polygon fill="none" stroke="#404040" points="162.81,-79.17 156.29,-76.09 156.62,-68.89 163.14,-71.96 162.81,-79.17"/>
<text text-anchor="middle" x="199.5" y="-90" font-family="Helvetica,sans-Serif" font-size="10.00"> +init_conf</text>
</g>
<!-- Node6 -->
<g id="node6" class="node">
<title>Node6</title>
<g id="a_node6"><a xlink:href="../../d5/d81/class_m_q_t_t___message.html#dc/d9d/struct_m_q_t_t___message_1_1msg__conf__t" target="_top" xlink:title=" ">
<polygon fill="none" stroke="black" points="130.5,-254.5 130.5,-322.5 286.5,-322.5 286.5,-254.5 130.5,-254.5"/>
<text text-anchor="middle" x="208.5" y="-310.5" font-family="Helvetica,sans-Serif" font-size="10.00">MQTT_Message::msg_conf_t</text>
<polyline fill="none" stroke="black" points="130.5,-303.5 286.5,-303.5 "/>
<text text-anchor="start" x="138.5" y="-291.5" font-family="Helvetica,sans-Serif" font-size="10.00">+ entity_id</text>
<text text-anchor="start" x="138.5" y="-280.5" font-family="Helvetica,sans-Serif" font-size="10.00">+ buffer_size</text>
<polyline fill="none" stroke="black" points="130.5,-273.5 286.5,-273.5 "/>
<text text-anchor="middle" x="208.5" y="-261.5" font-family="Helvetica,sans-Serif" font-size="10.00"> </text>
</a>
</g>
</g>
<!-- Node6&#45;&gt;Node5 -->
<g id="edge5" class="edge">
<title>Node6&#45;&gt;Node5</title>
<path fill="none" stroke="#404040" d="M208.5,-254.23C208.5,-240.17 208.5,-223.47 208.5,-207.92"/>
<polygon fill="none" stroke="#404040" points="208.5,-207.77 204.5,-201.77 208.5,-195.77 212.5,-201.77 208.5,-207.77"/>
<text text-anchor="middle" x="264.5" y="-228" font-family="Helvetica,sans-Serif" font-size="10.00"> +buffer_external_conf</text>
<text text-anchor="middle" x="264.5" y="-217" font-family="Helvetica,sans-Serif" font-size="10.00">+buffer_raw_conf</text>
</g>
</g>
</svg>
