<?xml version="1.0" encoding="UTF-8" standalone="no"?>
<!DOCTYPE svg PUBLIC "-//W3C//DTD SVG 1.1//EN"
 "http://www.w3.org/Graphics/SVG/1.1/DTD/svg11.dtd">
<!-- Generated by graphviz version 2.43.0 (0)
 -->
<!-- Title: ServiceBase&lt; T, ErrorID &gt; Pages: 1 -->
<svg width="365pt" height="568pt"
 viewBox="0.00 0.00 365.00 568.00" xmlns="http://www.w3.org/2000/svg" xmlns:xlink="http://www.w3.org/1999/xlink">
<g id="graph0" class="graph" transform="scale(1 1) rotate(0) translate(4 564)">
<title>ServiceBase&lt; T, ErrorID &gt;</title>
<!-- Node1 -->
<g id="node1" class="node">
<title>Node1</title>
<g id="a_node1"><a xlink:title=" ">
<polygon fill="#bfbfbf" stroke="black" points="113,-0.5 113,-145.5 258,-145.5 258,-0.5 113,-0.5"/>
<text text-anchor="middle" x="185.5" y="-133.5" font-family="Helvetica,sans-Serif" font-size="10.00">ServiceBase&lt; T, ErrorID &gt;</text>
<polyline fill="none" stroke="black" points="113,-126.5 258,-126.5 "/>
<text text-anchor="start" x="121" y="-114.5" font-family="Helvetica,sans-Serif" font-size="10.00">&#45; m_buffer</text>
<polyline fill="none" stroke="black" points="113,-107.5 258,-107.5 "/>
<text text-anchor="start" x="121" y="-95.5" font-family="Helvetica,sans-Serif" font-size="10.00">+ ServiceBase()</text>
<text text-anchor="start" x="121" y="-84.5" font-family="Helvetica,sans-Serif" font-size="10.00">+ ~ServiceBase()</text>
<text text-anchor="start" x="121" y="-73.5" font-family="Helvetica,sans-Serif" font-size="10.00">+ isActive()</text>
<text text-anchor="start" x="121" y="-62.5" font-family="Helvetica,sans-Serif" font-size="10.00">+ getQueue()</text>
<text text-anchor="start" x="121" y="-51.5" font-family="Helvetica,sans-Serif" font-size="10.00">+ setBuffer()</text>
<text text-anchor="start" x="121" y="-40.5" font-family="Helvetica,sans-Serif" font-size="10.00"># mainFunction()</text>
<text text-anchor="start" x="121" y="-29.5" font-family="Helvetica,sans-Serif" font-size="10.00"># setIsActive()</text>
<text text-anchor="start" x="121" y="-18.5" font-family="Helvetica,sans-Serif" font-size="10.00"># postData()</text>
<text text-anchor="start" x="121" y="-7.5" font-family="Helvetica,sans-Serif" font-size="10.00"># run()</text>
</a>
</g>
</g>
<!-- Node2 -->
<g id="node2" class="node">
<title>Node2</title>
<g id="a_node2"><a xlink:title=" ">
<polygon fill="none" stroke="#bfbfbf" points="0,-237.5 0,-294.5 115,-294.5 115,-237.5 0,-237.5"/>
<text text-anchor="middle" x="57.5" y="-282.5" font-family="Helvetica,sans-Serif" font-size="10.00">std::atomic&lt; bool &gt;</text>
<polyline fill="none" stroke="#bfbfbf" points="0,-275.5 115,-275.5 "/>
<text text-anchor="start" x="8" y="-263.5" font-family="Helvetica,sans-Serif" font-size="10.00">+ ptr</text>
<polyline fill="none" stroke="#bfbfbf" points="0,-256.5 115,-256.5 "/>
<text text-anchor="middle" x="57.5" y="-244.5" font-family="Helvetica,sans-Serif" font-size="10.00"> </text>
</a>
</g>
</g>
<!-- Node2&#45;&gt;Node1 -->
<g id="edge1" class="edge">
<title>Node2&#45;&gt;Node1</title>
<path fill="none" stroke="#404040" d="M72.01,-237.37C83.18,-216.71 99.38,-188.01 115.5,-164 117.41,-161.15 119.39,-158.27 121.41,-155.38"/>
<polygon fill="none" stroke="#404040" points="121.45,-155.32 121.68,-148.11 128.43,-145.55 128.2,-152.76 121.45,-155.32"/>
<text text-anchor="middle" x="148.5" y="-167" font-family="Helvetica,sans-Serif" font-size="10.00"> #m_isActive</text>
</g>
<!-- Node3 -->
<g id="node3" class="node">
<title>Node3</title>
<g id="a_node3"><a xlink:title="STL class.">
<polygon fill="none" stroke="#bfbfbf" points="7.5,-386.5 7.5,-443.5 107.5,-443.5 107.5,-386.5 7.5,-386.5"/>
<text text-anchor="middle" x="57.5" y="-431.5" font-family="Helvetica,sans-Serif" font-size="10.00">std::atomic&lt; T &gt;</text>
<polyline fill="none" stroke="#bfbfbf" points="7.5,-424.5 107.5,-424.5 "/>
<text text-anchor="middle" x="57.5" y="-412.5" font-family="Helvetica,sans-Serif" font-size="10.00"> </text>
<polyline fill="none" stroke="#bfbfbf" points="7.5,-405.5 107.5,-405.5 "/>
<text text-anchor="middle" x="57.5" y="-393.5" font-family="Helvetica,sans-Serif" font-size="10.00"> </text>
</a>
</g>
</g>
<!-- Node3&#45;&gt;Node2 -->
<g id="edge2" class="edge">
<title>Node3&#45;&gt;Node2</title>
<path fill="none" stroke="orange" d="M57.5,-376.28C57.5,-350.74 57.5,-317.59 57.5,-294.53"/>
<polygon fill="orange" stroke="orange" points="54,-376.35 57.5,-386.35 61,-376.35 54,-376.35"/>
<text text-anchor="middle" x="81" y="-360" font-family="Helvetica,sans-Serif" font-size="10.00"> &lt; bool &gt;</text>
</g>
<!-- Node4 -->
<g id="node4" class="node">
<title>Node4</title>
<g id="a_node4"><a xlink:title=" ">
<polygon fill="none" stroke="#bfbfbf" points="43,-497 43,-554 72,-554 72,-497 43,-497"/>
<text text-anchor="middle" x="57.5" y="-542" font-family="Helvetica,sans-Serif" font-size="10.00">T</text>
<polyline fill="none" stroke="#bfbfbf" points="43,-535 72,-535 "/>
<text text-anchor="middle" x="57.5" y="-523" font-family="Helvetica,sans-Serif" font-size="10.00"> </text>
<polyline fill="none" stroke="#bfbfbf" points="43,-516 72,-516 "/>
<text text-anchor="middle" x="57.5" y="-504" font-family="Helvetica,sans-Serif" font-size="10.00"> </text>
</a>
</g>
</g>
<!-- Node4&#45;&gt;Node3 -->
<g id="edge3" class="edge">
<title>Node4&#45;&gt;Node3</title>
<path fill="none" stroke="#404040" d="M57.5,-496.84C57.5,-484.34 57.5,-469.34 57.5,-455.68"/>
<polygon fill="none" stroke="#404040" points="57.5,-455.61 53.5,-449.61 57.5,-443.61 61.5,-449.61 57.5,-455.61"/>
<text text-anchor="middle" x="70" y="-465" font-family="Helvetica,sans-Serif" font-size="10.00"> +ptr</text>
</g>
<!-- Node5 -->
<g id="node5" class="node">
<title>Node5</title>
<g id="a_node5"><a xlink:href="../../d5/de7/classmqtt__api__v2.html" target="_top" xlink:title=" ">
<polygon fill="none" stroke="black" points="133.5,-193.5 133.5,-338.5 237.5,-338.5 237.5,-193.5 133.5,-193.5"/>
<text text-anchor="middle" x="185.5" y="-326.5" font-family="Helvetica,sans-Serif" font-size="10.00">mqtt_api_v2</text>
<polyline fill="none" stroke="black" points="133.5,-319.5 237.5,-319.5 "/>
<text text-anchor="middle" x="185.5" y="-307.5" font-family="Helvetica,sans-Serif" font-size="10.00"> </text>
<polyline fill="none" stroke="black" points="133.5,-300.5 237.5,-300.5 "/>
<text text-anchor="start" x="141.5" y="-288.5" font-family="Helvetica,sans-Serif" font-size="10.00">+ mqtt_api_v2()</text>
<text text-anchor="start" x="141.5" y="-277.5" font-family="Helvetica,sans-Serif" font-size="10.00">+ ~mqtt_api_v2()</text>
<text text-anchor="start" x="141.5" y="-266.5" font-family="Helvetica,sans-Serif" font-size="10.00">+ publish()</text>
<text text-anchor="start" x="141.5" y="-255.5" font-family="Helvetica,sans-Serif" font-size="10.00">+ subscribe()</text>
<text text-anchor="start" x="141.5" y="-244.5" font-family="Helvetica,sans-Serif" font-size="10.00">+ subscribe()</text>
<text text-anchor="start" x="141.5" y="-233.5" font-family="Helvetica,sans-Serif" font-size="10.00">+ getData()</text>
<text text-anchor="start" x="141.5" y="-222.5" font-family="Helvetica,sans-Serif" font-size="10.00">&#45; connect()</text>
<text text-anchor="start" x="141.5" y="-211.5" font-family="Helvetica,sans-Serif" font-size="10.00">&#45; disconnect()</text>
<text text-anchor="start" x="141.5" y="-200.5" font-family="Helvetica,sans-Serif" font-size="10.00">&#45; handle_event()</text>
</a>
</g>
</g>
<!-- Node5&#45;&gt;Node1 -->
<g id="edge4" class="edge">
<title>Node5&#45;&gt;Node1</title>
<path fill="none" stroke="#404040" d="M185.5,-193.34C185.5,-181.79 185.5,-169.74 185.5,-157.93"/>
<polygon fill="none" stroke="#404040" points="185.5,-157.75 181.5,-151.75 185.5,-145.75 189.5,-151.75 185.5,-157.75"/>
<text text-anchor="middle" x="208.5" y="-167" font-family="Helvetica,sans-Serif" font-size="10.00"> &#45;m_mqtt</text>
</g>
<!-- Node6 -->
<g id="node6" class="node">
<title>Node6</title>
<g id="a_node6"><a xlink:title="STL class.">
<polygon fill="none" stroke="#bfbfbf" points="153,-386.5 153,-443.5 218,-443.5 218,-386.5 153,-386.5"/>
<text text-anchor="middle" x="185.5" y="-431.5" font-family="Helvetica,sans-Serif" font-size="10.00">std::string</text>
<polyline fill="none" stroke="#bfbfbf" points="153,-424.5 218,-424.5 "/>
<text text-anchor="middle" x="185.5" y="-412.5" font-family="Helvetica,sans-Serif" font-size="10.00"> </text>
<polyline fill="none" stroke="#bfbfbf" points="153,-405.5 218,-405.5 "/>
<text text-anchor="middle" x="185.5" y="-393.5" font-family="Helvetica,sans-Serif" font-size="10.00"> </text>
</a>
</g>
</g>
<!-- Node6&#45;&gt;Node5 -->
<g id="edge5" class="edge">
<title>Node6&#45;&gt;Node5</title>
<path fill="none" stroke="#404040" d="M185.5,-386.35C185.5,-376.01 185.5,-363.66 185.5,-350.89"/>
<polygon fill="none" stroke="#404040" points="185.5,-350.56 181.5,-344.56 185.5,-338.56 189.5,-344.56 185.5,-350.56"/>
<text text-anchor="middle" x="203" y="-360" font-family="Helvetica,sans-Serif" font-size="10.00"> &#45;m_uri</text>
</g>
<!-- Node7 -->
<g id="node7" class="node">
<title>Node7</title>
<g id="a_node7"><a xlink:title="STL class.">
<polygon fill="none" stroke="#bfbfbf" points="133.5,-491.5 133.5,-559.5 237.5,-559.5 237.5,-491.5 133.5,-491.5"/>
<text text-anchor="start" x="141.5" y="-547.5" font-family="Helvetica,sans-Serif" font-size="10.00">std::basic_string&lt;</text>
<text text-anchor="middle" x="185.5" y="-536.5" font-family="Helvetica,sans-Serif" font-size="10.00"> char &gt;</text>
<polyline fill="none" stroke="#bfbfbf" points="133.5,-529.5 237.5,-529.5 "/>
<text text-anchor="middle" x="185.5" y="-517.5" font-family="Helvetica,sans-Serif" font-size="10.00"> </text>
<polyline fill="none" stroke="#bfbfbf" points="133.5,-510.5 237.5,-510.5 "/>
<text text-anchor="middle" x="185.5" y="-498.5" font-family="Helvetica,sans-Serif" font-size="10.00"> </text>
</a>
</g>
</g>
<!-- Node7&#45;&gt;Node6 -->
<g id="edge6" class="edge">
<title>Node7&#45;&gt;Node6</title>
<path fill="none" stroke="midnightblue" d="M185.5,-481.06C185.5,-468.51 185.5,-455.15 185.5,-443.83"/>
<polygon fill="none" stroke="midnightblue" points="182,-481.36 185.5,-491.36 189,-481.36 182,-481.36"/>
</g>
<!-- Node8 -->
<g id="node8" class="node">
<title>Node8</title>
<g id="a_node8"><a xlink:href="../../dd/d1c/class_free_r_t_o_s_1_1_queue.html" target="_top" xlink:title=" ">
<polygon fill="none" stroke="black" points="256,-221 256,-311 357,-311 357,-221 256,-221"/>
<text text-anchor="middle" x="306.5" y="-299" font-family="Helvetica,sans-Serif" font-size="10.00">FreeRTOS::Queue</text>
<polyline fill="none" stroke="black" points="256,-292 357,-292 "/>
<text text-anchor="start" x="264" y="-280" font-family="Helvetica,sans-Serif" font-size="10.00">&#45; m_handle</text>
<polyline fill="none" stroke="black" points="256,-273 357,-273 "/>
<text text-anchor="start" x="264" y="-261" font-family="Helvetica,sans-Serif" font-size="10.00">+ Queue()</text>
<text text-anchor="start" x="264" y="-250" font-family="Helvetica,sans-Serif" font-size="10.00">+ ~Queue()</text>
<text text-anchor="start" x="264" y="-239" font-family="Helvetica,sans-Serif" font-size="10.00">+ send()</text>
<text text-anchor="start" x="264" y="-228" font-family="Helvetica,sans-Serif" font-size="10.00">+ recieve()</text>
</a>
</g>
</g>
<!-- Node8&#45;&gt;Node1 -->
<g id="edge7" class="edge">
<title>Node8&#45;&gt;Node1</title>
<path fill="none" stroke="#404040" d="M278.44,-220.7C266.21,-201.4 251.47,-178.13 237.37,-155.87"/>
<polygon fill="none" stroke="#404040" points="237.37,-155.87 230.78,-152.94 230.94,-145.73 237.53,-148.66 237.37,-155.87"/>
<text text-anchor="middle" x="271.5" y="-167" font-family="Helvetica,sans-Serif" font-size="10.00"> &#45;m_queue</text>
</g>
</g>
</svg>
