<?xml version="1.0" encoding="UTF-8" standalone="no"?>
<!DOCTYPE svg PUBLIC "-//W3C//DTD SVG 1.1//EN"
 "http://www.w3.org/Graphics/SVG/1.1/DTD/svg11.dtd">
<!-- Generated by graphviz version 2.43.0 (0)
 -->
<!-- Title: ServiceBase&lt; BUFFER_TYPE &gt; Pages: 1 -->
<svg width="507pt" height="711pt"
 viewBox="0.00 0.00 506.50 711.00" xmlns="http://www.w3.org/2000/svg" xmlns:xlink="http://www.w3.org/1999/xlink">
<g id="graph0" class="graph" transform="scale(1 1) rotate(0) translate(4 707)">
<title>ServiceBase&lt; BUFFER_TYPE &gt;</title>
<!-- Node1 -->
<g id="node1" class="node">
<title>Node1</title>
<g id="a_node1"><a xlink:title=" ">
<polygon fill="#bfbfbf" stroke="black" points="168.5,-0.5 168.5,-145.5 295.5,-145.5 295.5,-0.5 168.5,-0.5"/>
<text text-anchor="start" x="176.5" y="-133.5" font-family="Helvetica,sans-Serif" font-size="10.00">ServiceBase&lt; BUFFER</text>
<text text-anchor="middle" x="232" y="-122.5" font-family="Helvetica,sans-Serif" font-size="10.00">_TYPE &gt;</text>
<polyline fill="none" stroke="black" points="168.5,-115.5 295.5,-115.5 "/>
<text text-anchor="start" x="176.5" y="-103.5" font-family="Helvetica,sans-Serif" font-size="10.00"># m_buffer</text>
<text text-anchor="start" x="176.5" y="-92.5" font-family="Helvetica,sans-Serif" font-size="10.00"># m_error_id</text>
<polyline fill="none" stroke="black" points="168.5,-85.5 295.5,-85.5 "/>
<text text-anchor="start" x="176.5" y="-73.5" font-family="Helvetica,sans-Serif" font-size="10.00">+ ServiceBase()</text>
<text text-anchor="start" x="176.5" y="-62.5" font-family="Helvetica,sans-Serif" font-size="10.00">+ ~ServiceBase()</text>
<text text-anchor="start" x="176.5" y="-51.5" font-family="Helvetica,sans-Serif" font-size="10.00">+ isActive()</text>
<text text-anchor="start" x="176.5" y="-40.5" font-family="Helvetica,sans-Serif" font-size="10.00"># mainFunction()</text>
<text text-anchor="start" x="176.5" y="-29.5" font-family="Helvetica,sans-Serif" font-size="10.00"># setIsActive()</text>
<text text-anchor="start" x="176.5" y="-18.5" font-family="Helvetica,sans-Serif" font-size="10.00"># postData()</text>
<text text-anchor="start" x="176.5" y="-7.5" font-family="Helvetica,sans-Serif" font-size="10.00"># postError()</text>
</a>
</g>
</g>
<!-- Node2 -->
<g id="node2" class="node">
<title>Node2</title>
<g id="a_node2"><a xlink:href="../../d7/d6d/class_task.html" target="_top" xlink:title="Encapsulate a runnable task.">
<polygon fill="none" stroke="black" points="0,-193.5 0,-404.5 98,-404.5 98,-193.5 0,-193.5"/>
<text text-anchor="middle" x="49" y="-392.5" font-family="Helvetica,sans-Serif" font-size="10.00">Task</text>
<polyline fill="none" stroke="black" points="0,-385.5 98,-385.5 "/>
<text text-anchor="start" x="8" y="-373.5" font-family="Helvetica,sans-Serif" font-size="10.00">&#45; m_handle</text>
<text text-anchor="start" x="8" y="-362.5" font-family="Helvetica,sans-Serif" font-size="10.00">&#45; m_stackSize</text>
<text text-anchor="start" x="8" y="-351.5" font-family="Helvetica,sans-Serif" font-size="10.00">&#45; m_priority</text>
<text text-anchor="start" x="8" y="-340.5" font-family="Helvetica,sans-Serif" font-size="10.00">&#45; m_taskData</text>
<text text-anchor="start" x="8" y="-329.5" font-family="Helvetica,sans-Serif" font-size="10.00">&#45; m_coreId</text>
<polyline fill="none" stroke="black" points="0,-322.5 98,-322.5 "/>
<text text-anchor="start" x="8" y="-310.5" font-family="Helvetica,sans-Serif" font-size="10.00">+ Task()</text>
<text text-anchor="start" x="8" y="-299.5" font-family="Helvetica,sans-Serif" font-size="10.00">+ ~Task()</text>
<text text-anchor="start" x="8" y="-288.5" font-family="Helvetica,sans-Serif" font-size="10.00">+ setStackSize()</text>
<text text-anchor="start" x="8" y="-277.5" font-family="Helvetica,sans-Serif" font-size="10.00">+ setPriority()</text>
<text text-anchor="start" x="8" y="-266.5" font-family="Helvetica,sans-Serif" font-size="10.00">+ setName()</text>
<text text-anchor="start" x="8" y="-255.5" font-family="Helvetica,sans-Serif" font-size="10.00">+ setCore()</text>
<text text-anchor="start" x="8" y="-244.5" font-family="Helvetica,sans-Serif" font-size="10.00">+ start()</text>
<text text-anchor="start" x="8" y="-233.5" font-family="Helvetica,sans-Serif" font-size="10.00">+ stop()</text>
<text text-anchor="start" x="8" y="-222.5" font-family="Helvetica,sans-Serif" font-size="10.00">+ run()</text>
<text text-anchor="start" x="8" y="-211.5" font-family="Helvetica,sans-Serif" font-size="10.00">+ delay()</text>
<text text-anchor="start" x="8" y="-200.5" font-family="Helvetica,sans-Serif" font-size="10.00">&#45; runTask()</text>
</a>
</g>
</g>
<!-- Node2&#45;&gt;Node1 -->
<g id="edge1" class="edge">
<title>Node2&#45;&gt;Node1</title>
<path fill="none" stroke="midnightblue" d="M103.87,-197.14C104.91,-195.74 105.95,-194.36 107,-193 124.94,-169.75 147.46,-146.87 168.43,-127.47"/>
<polygon fill="none" stroke="midnightblue" points="100.98,-195.17 98.04,-205.34 106.69,-199.22 100.98,-195.17"/>
</g>
<!-- Node3 -->
<g id="node3" class="node">
<title>Node3</title>
<g id="a_node3"><a xlink:title="STL class.">
<polygon fill="none" stroke="#bfbfbf" points="73.5,-491 73.5,-548 138.5,-548 138.5,-491 73.5,-491"/>
<text text-anchor="middle" x="106" y="-536" font-family="Helvetica,sans-Serif" font-size="10.00">std::string</text>
<polyline fill="none" stroke="#bfbfbf" points="73.5,-529 138.5,-529 "/>
<text text-anchor="middle" x="106" y="-517" font-family="Helvetica,sans-Serif" font-size="10.00"> </text>
<polyline fill="none" stroke="#bfbfbf" points="73.5,-510 138.5,-510 "/>
<text text-anchor="middle" x="106" y="-498" font-family="Helvetica,sans-Serif" font-size="10.00"> </text>
</a>
</g>
</g>
<!-- Node3&#45;&gt;Node2 -->
<g id="edge2" class="edge">
<title>Node3&#45;&gt;Node2</title>
<path fill="none" stroke="#404040" d="M88.07,-490.72C78.68,-474.76 67.93,-453.98 62,-434 60.34,-428.41 58.88,-422.64 57.6,-416.78"/>
<polygon fill="none" stroke="#404040" points="57.53,-416.41 52.45,-411.29 55.21,-404.63 60.3,-409.75 57.53,-416.41"/>
<text text-anchor="middle" x="98.5" y="-426" font-family="Helvetica,sans-Serif" font-size="10.00"> &#45;m_taskName</text>
</g>
<!-- Node10 -->
<g id="node10" class="node">
<title>Node10</title>
<g id="a_node10"><a xlink:href="../../d5/de7/classmqtt__api__v2.html" target="_top" xlink:title=" ">
<polygon fill="none" stroke="black" points="116,-226.5 116,-371.5 220,-371.5 220,-226.5 116,-226.5"/>
<text text-anchor="middle" x="168" y="-359.5" font-family="Helvetica,sans-Serif" font-size="10.00">mqtt_api_v2</text>
<polyline fill="none" stroke="black" points="116,-352.5 220,-352.5 "/>
<text text-anchor="middle" x="168" y="-340.5" font-family="Helvetica,sans-Serif" font-size="10.00"> </text>
<polyline fill="none" stroke="black" points="116,-333.5 220,-333.5 "/>
<text text-anchor="start" x="124" y="-321.5" font-family="Helvetica,sans-Serif" font-size="10.00">+ mqtt_api_v2()</text>
<text text-anchor="start" x="124" y="-310.5" font-family="Helvetica,sans-Serif" font-size="10.00">+ ~mqtt_api_v2()</text>
<text text-anchor="start" x="124" y="-299.5" font-family="Helvetica,sans-Serif" font-size="10.00">+ publish()</text>
<text text-anchor="start" x="124" y="-288.5" font-family="Helvetica,sans-Serif" font-size="10.00">+ subscribe()</text>
<text text-anchor="start" x="124" y="-277.5" font-family="Helvetica,sans-Serif" font-size="10.00">+ subscribe()</text>
<text text-anchor="start" x="124" y="-266.5" font-family="Helvetica,sans-Serif" font-size="10.00">+ getData()</text>
<text text-anchor="start" x="124" y="-255.5" font-family="Helvetica,sans-Serif" font-size="10.00">&#45; connect()</text>
<text text-anchor="start" x="124" y="-244.5" font-family="Helvetica,sans-Serif" font-size="10.00">&#45; disconnect()</text>
<text text-anchor="start" x="124" y="-233.5" font-family="Helvetica,sans-Serif" font-size="10.00">&#45; handle_event()</text>
</a>
</g>
</g>
<!-- Node3&#45;&gt;Node10 -->
<g id="edge10" class="edge">
<title>Node3&#45;&gt;Node10</title>
<path fill="none" stroke="#404040" d="M116.16,-490.92C122.04,-474.5 129.35,-453.2 135,-434 139.76,-417.82 144.4,-400.4 148.62,-383.65"/>
<polygon fill="none" stroke="#404040" points="148.72,-383.24 146.29,-376.45 151.62,-371.6 154.05,-378.39 148.72,-383.24"/>
<text text-anchor="middle" x="156.5" y="-426" font-family="Helvetica,sans-Serif" font-size="10.00"> &#45;m_uri</text>
</g>
<!-- Node4 -->
<g id="node4" class="node">
<title>Node4</title>
<g id="a_node4"><a xlink:title="STL class.">
<polygon fill="none" stroke="#bfbfbf" points="54,-634.5 54,-702.5 158,-702.5 158,-634.5 54,-634.5"/>
<text text-anchor="start" x="62" y="-690.5" font-family="Helvetica,sans-Serif" font-size="10.00">std::basic_string&lt;</text>
<text text-anchor="middle" x="106" y="-679.5" font-family="Helvetica,sans-Serif" font-size="10.00"> char &gt;</text>
<polyline fill="none" stroke="#bfbfbf" points="54,-672.5 158,-672.5 "/>
<text text-anchor="middle" x="106" y="-660.5" font-family="Helvetica,sans-Serif" font-size="10.00"> </text>
<polyline fill="none" stroke="#bfbfbf" points="54,-653.5 158,-653.5 "/>
<text text-anchor="middle" x="106" y="-641.5" font-family="Helvetica,sans-Serif" font-size="10.00"> </text>
</a>
</g>
</g>
<!-- Node4&#45;&gt;Node3 -->
<g id="edge3" class="edge">
<title>Node4&#45;&gt;Node3</title>
<path fill="none" stroke="midnightblue" d="M106,-624.01C106,-599.51 106,-569.64 106,-548.3"/>
<polygon fill="none" stroke="midnightblue" points="102.5,-624.14 106,-634.14 109.5,-624.14 102.5,-624.14"/>
</g>
<!-- Node5 -->
<g id="node5" class="node">
<title>Node5</title>
<g id="a_node5"><a xlink:title=" ">
<polygon fill="none" stroke="#bfbfbf" points="238.5,-270.5 238.5,-327.5 353.5,-327.5 353.5,-270.5 238.5,-270.5"/>
<text text-anchor="middle" x="296" y="-315.5" font-family="Helvetica,sans-Serif" font-size="10.00">std::atomic&lt; bool &gt;</text>
<polyline fill="none" stroke="#bfbfbf" points="238.5,-308.5 353.5,-308.5 "/>
<text text-anchor="start" x="246.5" y="-296.5" font-family="Helvetica,sans-Serif" font-size="10.00">+ ptr</text>
<polyline fill="none" stroke="#bfbfbf" points="238.5,-289.5 353.5,-289.5 "/>
<text text-anchor="middle" x="296" y="-277.5" font-family="Helvetica,sans-Serif" font-size="10.00"> </text>
</a>
</g>
</g>
<!-- Node5&#45;&gt;Node1 -->
<g id="edge4" class="edge">
<title>Node5&#45;&gt;Node1</title>
<path fill="none" stroke="#404040" d="M288.02,-270.08C279.97,-241.9 267.14,-196.99 255.79,-157.25"/>
<polygon fill="none" stroke="#404040" points="255.77,-157.19 250.28,-152.52 252.47,-145.65 257.97,-150.32 255.77,-157.19"/>
<text text-anchor="middle" x="291.5" y="-167" font-family="Helvetica,sans-Serif" font-size="10.00"> &#45;m_isActive</text>
</g>
<!-- Node6 -->
<g id="node6" class="node">
<title>Node6</title>
<g id="a_node6"><a xlink:title="STL class.">
<polygon fill="none" stroke="#bfbfbf" points="243,-491 243,-548 343,-548 343,-491 243,-491"/>
<text text-anchor="middle" x="293" y="-536" font-family="Helvetica,sans-Serif" font-size="10.00">std::atomic&lt; T &gt;</text>
<polyline fill="none" stroke="#bfbfbf" points="243,-529 343,-529 "/>
<text text-anchor="middle" x="293" y="-517" font-family="Helvetica,sans-Serif" font-size="10.00"> </text>
<polyline fill="none" stroke="#bfbfbf" points="243,-510 343,-510 "/>
<text text-anchor="middle" x="293" y="-498" font-family="Helvetica,sans-Serif" font-size="10.00"> </text>
</a>
</g>
</g>
<!-- Node6&#45;&gt;Node5 -->
<g id="edge5" class="edge">
<title>Node6&#45;&gt;Node5</title>
<path fill="none" stroke="orange" d="M293.52,-480.63C294.12,-437.07 295.09,-366.58 295.62,-327.79"/>
<polygon fill="orange" stroke="orange" points="290.02,-480.78 293.38,-490.83 297.02,-480.88 290.02,-480.78"/>
<text text-anchor="middle" x="318.5" y="-426" font-family="Helvetica,sans-Serif" font-size="10.00"> &lt; bool &gt;</text>
</g>
<!-- Node7 -->
<g id="node7" class="node">
<title>Node7</title>
<g id="a_node7"><a xlink:title=" ">
<polygon fill="none" stroke="#bfbfbf" points="278.5,-640 278.5,-697 307.5,-697 307.5,-640 278.5,-640"/>
<text text-anchor="middle" x="293" y="-685" font-family="Helvetica,sans-Serif" font-size="10.00">T</text>
<polyline fill="none" stroke="#bfbfbf" points="278.5,-678 307.5,-678 "/>
<text text-anchor="middle" x="293" y="-666" font-family="Helvetica,sans-Serif" font-size="10.00"> </text>
<polyline fill="none" stroke="#bfbfbf" points="278.5,-659 307.5,-659 "/>
<text text-anchor="middle" x="293" y="-647" font-family="Helvetica,sans-Serif" font-size="10.00"> </text>
</a>
</g>
</g>
<!-- Node7&#45;&gt;Node6 -->
<g id="edge6" class="edge">
<title>Node7&#45;&gt;Node6</title>
<path fill="none" stroke="#404040" d="M293,-639.85C293,-617.37 293,-585.35 293,-560.14"/>
<polygon fill="none" stroke="#404040" points="293,-560.03 289,-554.03 293,-548.03 297,-554.03 293,-560.03"/>
<text text-anchor="middle" x="305.5" y="-608" font-family="Helvetica,sans-Serif" font-size="10.00"> +ptr</text>
</g>
<!-- Node8 -->
<g id="node8" class="node">
<title>Node8</title>
<g id="a_node8"><a xlink:href="../../d1/d2c/class_g_p_i_o___a_p_i.html" target="_top" xlink:title=" ">
<polygon fill="none" stroke="black" points="372.5,-193.5 372.5,-404.5 485.5,-404.5 485.5,-193.5 372.5,-193.5"/>
<text text-anchor="middle" x="429" y="-392.5" font-family="Helvetica,sans-Serif" font-size="10.00">GPIO_API</text>
<polyline fill="none" stroke="black" points="372.5,-385.5 485.5,-385.5 "/>
<text text-anchor="start" x="380.5" y="-373.5" font-family="Helvetica,sans-Serif" font-size="10.00">&#45; m_pin</text>
<text text-anchor="start" x="380.5" y="-362.5" font-family="Helvetica,sans-Serif" font-size="10.00">&#45; is_Output</text>
<text text-anchor="start" x="380.5" y="-351.5" font-family="Helvetica,sans-Serif" font-size="10.00">&#45; is_high</text>
<polyline fill="none" stroke="black" points="372.5,-344.5 485.5,-344.5 "/>
<text text-anchor="start" x="380.5" y="-332.5" font-family="Helvetica,sans-Serif" font-size="10.00">+ GPIO_API()</text>
<text text-anchor="start" x="380.5" y="-321.5" font-family="Helvetica,sans-Serif" font-size="10.00">+ GPIO_API()</text>
<text text-anchor="start" x="380.5" y="-310.5" font-family="Helvetica,sans-Serif" font-size="10.00">+ ~GPIO_API()</text>
<text text-anchor="start" x="380.5" y="-299.5" font-family="Helvetica,sans-Serif" font-size="10.00">+ toggle()</text>
<text text-anchor="start" x="380.5" y="-288.5" font-family="Helvetica,sans-Serif" font-size="10.00">+ setToInput()</text>
<text text-anchor="start" x="380.5" y="-277.5" font-family="Helvetica,sans-Serif" font-size="10.00">+ setToOutput()</text>
<text text-anchor="start" x="380.5" y="-266.5" font-family="Helvetica,sans-Serif" font-size="10.00">+ setHigh()</text>
<text text-anchor="start" x="380.5" y="-255.5" font-family="Helvetica,sans-Serif" font-size="10.00">+ setLow()</text>
<text text-anchor="start" x="380.5" y="-244.5" font-family="Helvetica,sans-Serif" font-size="10.00">+ isHigh()</text>
<text text-anchor="start" x="380.5" y="-233.5" font-family="Helvetica,sans-Serif" font-size="10.00">+ isLow()</text>
<text text-anchor="start" x="380.5" y="-222.5" font-family="Helvetica,sans-Serif" font-size="10.00">+ installInterrupt()</text>
<text text-anchor="start" x="380.5" y="-211.5" font-family="Helvetica,sans-Serif" font-size="10.00">+ enableInterrupt()</text>
<text text-anchor="start" x="380.5" y="-200.5" font-family="Helvetica,sans-Serif" font-size="10.00">+ disableInterrupt()</text>
</a>
</g>
</g>
<!-- Node8&#45;&gt;Node1 -->
<g id="edge7" class="edge">
<title>Node8&#45;&gt;Node1</title>
<path fill="none" stroke="#404040" d="M372.49,-206.19C369.05,-201.64 365.55,-197.22 362,-193 344.85,-172.58 324.31,-152.28 304.67,-134.37"/>
<polygon fill="none" stroke="#404040" points="304.65,-134.35 297.51,-133.31 295.73,-126.32 302.87,-127.36 304.65,-134.35"/>
<text text-anchor="middle" x="376" y="-167" font-family="Helvetica,sans-Serif" font-size="10.00"> #m_test_pin</text>
</g>
<!-- Node9 -->
<g id="node9" class="node">
<title>Node9</title>
<g id="a_node9"><a xlink:href="../../d4/d57/class_g_p_i_o___h_a_l.html" target="_top" xlink:title=" ">
<polygon fill="none" stroke="black" points="361.5,-452.5 361.5,-586.5 498.5,-586.5 498.5,-452.5 361.5,-452.5"/>
<text text-anchor="middle" x="430" y="-574.5" font-family="Helvetica,sans-Serif" font-size="10.00">GPIO_HAL</text>
<polyline fill="none" stroke="black" points="361.5,-567.5 498.5,-567.5 "/>
<text text-anchor="middle" x="430" y="-555.5" font-family="Helvetica,sans-Serif" font-size="10.00"> </text>
<polyline fill="none" stroke="black" points="361.5,-548.5 498.5,-548.5 "/>
<text text-anchor="start" x="369.5" y="-536.5" font-family="Helvetica,sans-Serif" font-size="10.00">+ GPIO_HAL()</text>
<text text-anchor="start" x="369.5" y="-525.5" font-family="Helvetica,sans-Serif" font-size="10.00">+ ~GPIO_HAL()</text>
<text text-anchor="start" x="369.5" y="-514.5" font-family="Helvetica,sans-Serif" font-size="10.00">+ setDirection()</text>
<text text-anchor="start" x="369.5" y="-503.5" font-family="Helvetica,sans-Serif" font-size="10.00">+ setValue()</text>
<text text-anchor="start" x="369.5" y="-492.5" font-family="Helvetica,sans-Serif" font-size="10.00">+ getValue()</text>
<text text-anchor="start" x="369.5" y="-481.5" font-family="Helvetica,sans-Serif" font-size="10.00">+ installInterruptDriver()</text>
<text text-anchor="start" x="369.5" y="-470.5" font-family="Helvetica,sans-Serif" font-size="10.00">+ enableInterrupt()</text>
<text text-anchor="start" x="369.5" y="-459.5" font-family="Helvetica,sans-Serif" font-size="10.00">+ disableInterrupt()</text>
</a>
</g>
</g>
<!-- Node9&#45;&gt;Node8 -->
<g id="edge8" class="edge">
<title>Node9&#45;&gt;Node8</title>
<path fill="none" stroke="#404040" d="M429.7,-452.35C429.65,-441.05 429.59,-429.01 429.53,-416.84"/>
<polygon fill="none" stroke="#404040" points="429.53,-416.66 425.51,-410.68 429.48,-404.66 433.51,-410.64 429.53,-416.66"/>
<text text-anchor="middle" x="447.5" y="-426" font-family="Helvetica,sans-Serif" font-size="10.00"> &#45;m_hal</text>
</g>
<!-- Node10&#45;&gt;Node1 -->
<g id="edge9" class="edge">
<title>Node10&#45;&gt;Node1</title>
<path fill="none" stroke="#404040" d="M188.51,-226.2C194.77,-204.3 201.71,-180.03 208.16,-157.42"/>
<polygon fill="none" stroke="#404040" points="208.2,-157.32 206,-150.45 211.49,-145.78 213.69,-152.65 208.2,-157.32"/>
<text text-anchor="middle" x="229" y="-167" font-family="Helvetica,sans-Serif" font-size="10.00"> &#45;m_mqtt</text>
</g>
</g>
</svg>
