<?xml version="1.0" encoding="UTF-8" standalone="no"?>
<!DOCTYPE svg PUBLIC "-//W3C//DTD SVG 1.1//EN"
 "http://www.w3.org/Graphics/SVG/1.1/DTD/svg11.dtd">
<!-- Generated by graphviz version 2.43.0 (0)
 -->
<!-- Title: OnlineDetector_service Pages: 1 -->
<!--zoomable 1109 -->
<svg id="main" version="1.1" xmlns="http://www.w3.org/2000/svg" xmlns:xlink="http://www.w3.org/1999/xlink" xml:space="preserve" onload="init(evt)">
<style type="text/css"><![CDATA[
.edge:hover path { stroke: red; }
.edge:hover polygon { stroke: red; fill: red; }
]]></style>
<script type="text/javascript"><![CDATA[
var edges = document.getElementsByTagName('g');
if (edges && edges.length) {
  for (var i=0;i<edges.length;i++) {
    if (edges[i].id.substr(0,4)=='edge') {
      edges[i].setAttribute('class','edge');
    }
  }
}
]]></script>
        <defs>
                <circle id="rim" cx="0" cy="0" r="7"/>
                <circle id="rim2" cx="0" cy="0" r="3.5"/>
                <g id="zoomPlus">
                        <use xlink:href="#rim" fill="#404040">
                                <set attributeName="fill" to="#808080" begin="zoomplus.mouseover" end="zoomplus.mouseout"/>
                        </use>
                        <path d="M-4,0h8M0,-4v8" fill="none" stroke="white" stroke-width="1.5" pointer-events="none"/>
                </g>
                <g id="zoomMin">
                        <use xlink:href="#rim" fill="#404040">
                                <set attributeName="fill" to="#808080" begin="zoomminus.mouseover" end="zoomminus.mouseout"/>
                        </use>
                        <path d="M-4,0h8" fill="none" stroke="white" stroke-width="1.5" pointer-events="none"/>
                </g>
                <g id="dirArrow">
                        <path fill="none" stroke="white" stroke-width="1.5" d="M0,-3.0v7 M-2.5,-0.5L0,-3.0L2.5,-0.5"/>
                </g>
               <g id="resetDef">
                       <use xlink:href="#rim2" fill="#404040">
                               <set attributeName="fill" to="#808080" begin="reset.mouseover" end="reset.mouseout"/>
                       </use>
               </g>
        </defs>

<script type="text/javascript">
var viewWidth = 928;
var viewHeight = 1109;
var sectionId = 'dynsection-1';
</script>
<script xlink:href="../../svgpan.js"/>
<svg id="graph" class="graph">
<g id="viewport">
<title>OnlineDetector_service</title>
<!-- Node1 -->
<g id="node1" class="node">
<title>Node1</title>
<g id="a_node1"><a xlink:title=" ">
<polygon fill="#bfbfbf" stroke="black" points="113,-0.5 113,-79.5 271,-79.5 271,-0.5 113,-0.5"/>
<text text-anchor="middle" x="192" y="-67.5" font-family="Helvetica,sans-Serif" font-size="10.00">OnlineDetector_service</text>
<polyline fill="none" stroke="black" points="113,-60.5 271,-60.5 "/>
<text text-anchor="middle" x="192" y="-48.5" font-family="Helvetica,sans-Serif" font-size="10.00"> </text>
<polyline fill="none" stroke="black" points="113,-41.5 271,-41.5 "/>
<text text-anchor="start" x="121" y="-29.5" font-family="Helvetica,sans-Serif" font-size="10.00">+ OnlineDetector_service()</text>
<text text-anchor="start" x="121" y="-18.5" font-family="Helvetica,sans-Serif" font-size="10.00">+ ~OnlineDetector_service()</text>
<text text-anchor="start" x="121" y="-7.5" font-family="Helvetica,sans-Serif" font-size="10.00">&#45; mainFunction()</text>
</a>
</g>
</g>
<!-- Node2 -->
<g id="node2" class="node">
<title>Node2</title>
<g id="a_node2"><a xlink:href="../../d4/d82/class_service_base.html" target="_top" xlink:title=" ">
<polygon fill="none" stroke="black" points="306,-117.5 306,-251.5 482,-251.5 482,-117.5 306,-117.5"/>
<text text-anchor="middle" x="394" y="-239.5" font-family="Helvetica,sans-Serif" font-size="10.00">ServiceBase&lt; MQTT_Message &gt;</text>
<polyline fill="none" stroke="black" points="306,-232.5 482,-232.5 "/>
<text text-anchor="start" x="314" y="-220.5" font-family="Helvetica,sans-Serif" font-size="10.00">&#45; m_error_id</text>
<polyline fill="none" stroke="black" points="306,-213.5 482,-213.5 "/>
<text text-anchor="start" x="314" y="-201.5" font-family="Helvetica,sans-Serif" font-size="10.00">+ ServiceBase()</text>
<text text-anchor="start" x="314" y="-190.5" font-family="Helvetica,sans-Serif" font-size="10.00">+ ~ServiceBase()</text>
<text text-anchor="start" x="314" y="-179.5" font-family="Helvetica,sans-Serif" font-size="10.00">+ isActive()</text>
<text text-anchor="start" x="314" y="-168.5" font-family="Helvetica,sans-Serif" font-size="10.00">+ getQueue()</text>
<text text-anchor="start" x="314" y="-157.5" font-family="Helvetica,sans-Serif" font-size="10.00"># mainFunction()</text>
<text text-anchor="start" x="314" y="-146.5" font-family="Helvetica,sans-Serif" font-size="10.00"># setIsActive()</text>
<text text-anchor="start" x="314" y="-135.5" font-family="Helvetica,sans-Serif" font-size="10.00"># postData()</text>
<text text-anchor="start" x="314" y="-124.5" font-family="Helvetica,sans-Serif" font-size="10.00"># run()</text>
</a>
</g>
</g>
<!-- Node2&#45;&gt;Node1 -->
<g id="edge1" class="edge">
<title>Node2&#45;&gt;Node1</title>
<path fill="none" stroke="midnightblue" d="M297.43,-115.38C279.96,-103.05 262.31,-90.6 246.58,-79.5"/>
<polygon fill="none" stroke="midnightblue" points="295.8,-118.51 305.99,-121.41 299.83,-112.79 295.8,-118.51"/>
</g>
<!-- Node3 -->
<g id="node3" class="node">
<title>Node3</title>
<g id="a_node3"><a xlink:href="../../d7/d6d/class_task.html" target="_top" xlink:title="Encapsulate a runnable task.">
<polygon fill="none" stroke="black" points="393,-580.5 393,-791.5 491,-791.5 491,-580.5 393,-580.5"/>
<text text-anchor="middle" x="442" y="-779.5" font-family="Helvetica,sans-Serif" font-size="10.00">Task</text>
<polyline fill="none" stroke="black" points="393,-772.5 491,-772.5 "/>
<text text-anchor="start" x="401" y="-760.5" font-family="Helvetica,sans-Serif" font-size="10.00">&#45; m_handle</text>
<text text-anchor="start" x="401" y="-749.5" font-family="Helvetica,sans-Serif" font-size="10.00">&#45; m_stackSize</text>
<text text-anchor="start" x="401" y="-738.5" font-family="Helvetica,sans-Serif" font-size="10.00">&#45; m_priority</text>
<text text-anchor="start" x="401" y="-727.5" font-family="Helvetica,sans-Serif" font-size="10.00">&#45; m_taskData</text>
<text text-anchor="start" x="401" y="-716.5" font-family="Helvetica,sans-Serif" font-size="10.00">&#45; m_coreId</text>
<polyline fill="none" stroke="black" points="393,-709.5 491,-709.5 "/>
<text text-anchor="start" x="401" y="-697.5" font-family="Helvetica,sans-Serif" font-size="10.00">+ Task()</text>
<text text-anchor="start" x="401" y="-686.5" font-family="Helvetica,sans-Serif" font-size="10.00">+ ~Task()</text>
<text text-anchor="start" x="401" y="-675.5" font-family="Helvetica,sans-Serif" font-size="10.00">+ setStackSize()</text>
<text text-anchor="start" x="401" y="-664.5" font-family="Helvetica,sans-Serif" font-size="10.00">+ setPriority()</text>
<text text-anchor="start" x="401" y="-653.5" font-family="Helvetica,sans-Serif" font-size="10.00">+ setName()</text>
<text text-anchor="start" x="401" y="-642.5" font-family="Helvetica,sans-Serif" font-size="10.00">+ setCore()</text>
<text text-anchor="start" x="401" y="-631.5" font-family="Helvetica,sans-Serif" font-size="10.00">+ start()</text>
<text text-anchor="start" x="401" y="-620.5" font-family="Helvetica,sans-Serif" font-size="10.00">+ stop()</text>
<text text-anchor="start" x="401" y="-609.5" font-family="Helvetica,sans-Serif" font-size="10.00">+ run()</text>
<text text-anchor="start" x="401" y="-598.5" font-family="Helvetica,sans-Serif" font-size="10.00">+ delay()</text>
<text text-anchor="start" x="401" y="-587.5" font-family="Helvetica,sans-Serif" font-size="10.00">&#45; runTask()</text>
</a>
</g>
</g>
<!-- Node3&#45;&gt;Node2 -->
<g id="edge2" class="edge">
<title>Node3&#45;&gt;Node2</title>
<path fill="none" stroke="midnightblue" d="M389.57,-582.06C387.38,-575.38 385.49,-568.66 384,-562 360.14,-455.44 371.66,-327.69 382.56,-251.74"/>
<polygon fill="none" stroke="midnightblue" points="386.37,-583.53 392.97,-591.82 392.98,-581.22 386.37,-583.53"/>
</g>
<!-- Node16 -->
<g id="node16" class="node">
<title>Node16</title>
<g id="a_node16"><a xlink:href="../../d4/d82/class_service_base.html" target="_top" xlink:title=" ">
<polygon fill="none" stroke="black" points="396.5,-338 396.5,-494 523.5,-494 523.5,-338 396.5,-338"/>
<text text-anchor="start" x="404.5" y="-482" font-family="Helvetica,sans-Serif" font-size="10.00">ServiceBase&lt; BUFFER</text>
<text text-anchor="middle" x="460" y="-471" font-family="Helvetica,sans-Serif" font-size="10.00">_TYPE, QUEUE_TYPE &gt;</text>
<polyline fill="none" stroke="black" points="396.5,-464 523.5,-464 "/>
<text text-anchor="start" x="404.5" y="-452" font-family="Helvetica,sans-Serif" font-size="10.00"># m_buffer</text>
<text text-anchor="start" x="404.5" y="-441" font-family="Helvetica,sans-Serif" font-size="10.00">&#45; m_error_id</text>
<polyline fill="none" stroke="black" points="396.5,-434 523.5,-434 "/>
<text text-anchor="start" x="404.5" y="-422" font-family="Helvetica,sans-Serif" font-size="10.00">+ ServiceBase()</text>
<text text-anchor="start" x="404.5" y="-411" font-family="Helvetica,sans-Serif" font-size="10.00">+ ~ServiceBase()</text>
<text text-anchor="start" x="404.5" y="-400" font-family="Helvetica,sans-Serif" font-size="10.00">+ isActive()</text>
<text text-anchor="start" x="404.5" y="-389" font-family="Helvetica,sans-Serif" font-size="10.00">+ getQueue()</text>
<text text-anchor="start" x="404.5" y="-378" font-family="Helvetica,sans-Serif" font-size="10.00"># mainFunction()</text>
<text text-anchor="start" x="404.5" y="-367" font-family="Helvetica,sans-Serif" font-size="10.00"># setIsActive()</text>
<text text-anchor="start" x="404.5" y="-356" font-family="Helvetica,sans-Serif" font-size="10.00"># postData()</text>
<text text-anchor="start" x="404.5" y="-345" font-family="Helvetica,sans-Serif" font-size="10.00"># run()</text>
</a>
</g>
</g>
<!-- Node3&#45;&gt;Node16 -->
<g id="edge19" class="edge">
<title>Node3&#45;&gt;Node16</title>
<path fill="none" stroke="midnightblue" d="M449.72,-570.1C451.44,-544.51 453.22,-517.97 454.81,-494.31"/>
<polygon fill="none" stroke="midnightblue" points="446.21,-570.02 449.04,-580.23 453.2,-570.49 446.21,-570.02"/>
</g>
<!-- Node4 -->
<g id="node4" class="node">
<title>Node4</title>
<g id="a_node4"><a xlink:title="STL class.">
<polygon fill="none" stroke="#bfbfbf" points="290.5,-889 290.5,-946 355.5,-946 355.5,-889 290.5,-889"/>
<text text-anchor="middle" x="323" y="-934" font-family="Helvetica,sans-Serif" font-size="10.00">std::string</text>
<polyline fill="none" stroke="#bfbfbf" points="290.5,-927 355.5,-927 "/>
<text text-anchor="middle" x="323" y="-915" font-family="Helvetica,sans-Serif" font-size="10.00"> </text>
<polyline fill="none" stroke="#bfbfbf" points="290.5,-908 355.5,-908 "/>
<text text-anchor="middle" x="323" y="-896" font-family="Helvetica,sans-Serif" font-size="10.00"> </text>
</a>
</g>
</g>
<!-- Node4&#45;&gt;Node3 -->
<g id="edge3" class="edge">
<title>Node4&#45;&gt;Node3</title>
<path fill="none" stroke="#404040" d="M337.35,-888.82C349.88,-864.67 368.87,-828.04 387.25,-792.59"/>
<polygon fill="none" stroke="#404040" points="387.4,-792.29 386.61,-785.13 392.93,-781.64 393.72,-788.81 387.4,-792.29"/>
<text text-anchor="middle" x="412.5" y="-818.5" font-family="Helvetica,sans-Serif" font-size="10.00"> &#45;m_taskName</text>
</g>
<!-- Node11 -->
<g id="node11" class="node">
<title>Node11</title>
<g id="a_node11"><a xlink:href="../../d5/d81/class_m_q_t_t___message.html" target="_top" xlink:title=" ">
<polygon fill="none" stroke="black" points="95.5,-299.5 95.5,-532.5 256.5,-532.5 256.5,-299.5 95.5,-299.5"/>
<text text-anchor="middle" x="176" y="-520.5" font-family="Helvetica,sans-Serif" font-size="10.00">MQTT_Message</text>
<polyline fill="none" stroke="black" points="95.5,-513.5 256.5,-513.5 "/>
<text text-anchor="start" x="103.5" y="-501.5" font-family="Helvetica,sans-Serif" font-size="10.00">&#45; m_entity_id</text>
<text text-anchor="start" x="103.5" y="-490.5" font-family="Helvetica,sans-Serif" font-size="10.00">&#45; m_buffer_size</text>
<polyline fill="none" stroke="black" points="95.5,-483.5 256.5,-483.5 "/>
<text text-anchor="start" x="103.5" y="-471.5" font-family="Helvetica,sans-Serif" font-size="10.00">+ MQTT_Message()</text>
<text text-anchor="start" x="103.5" y="-460.5" font-family="Helvetica,sans-Serif" font-size="10.00">+ MQTT_Message()</text>
<text text-anchor="start" x="103.5" y="-449.5" font-family="Helvetica,sans-Serif" font-size="10.00">+ ~MQTT_Message()</text>
<text text-anchor="start" x="103.5" y="-438.5" font-family="Helvetica,sans-Serif" font-size="10.00">+ addData()</text>
<text text-anchor="start" x="103.5" y="-427.5" font-family="Helvetica,sans-Serif" font-size="10.00">+ addData()</text>
<text text-anchor="start" x="103.5" y="-416.5" font-family="Helvetica,sans-Serif" font-size="10.00">+ addData_f()</text>
<text text-anchor="start" x="103.5" y="-405.5" font-family="Helvetica,sans-Serif" font-size="10.00">+ isEmpty()</text>
<text text-anchor="start" x="103.5" y="-394.5" font-family="Helvetica,sans-Serif" font-size="10.00">+ toString()</text>
<text text-anchor="start" x="103.5" y="-383.5" font-family="Helvetica,sans-Serif" font-size="10.00">+ clear()</text>
<text text-anchor="start" x="103.5" y="-372.5" font-family="Helvetica,sans-Serif" font-size="10.00">+ getBufferSize()</text>
<text text-anchor="start" x="103.5" y="-361.5" font-family="Helvetica,sans-Serif" font-size="10.00">+ append()</text>
<text text-anchor="start" x="103.5" y="-350.5" font-family="Helvetica,sans-Serif" font-size="10.00">+ getData()</text>
<text text-anchor="start" x="103.5" y="-339.5" font-family="Helvetica,sans-Serif" font-size="10.00">+ getMaxAllowedBufferSize()</text>
<text text-anchor="start" x="103.5" y="-328.5" font-family="Helvetica,sans-Serif" font-size="10.00">+ getEntityId()</text>
<text text-anchor="start" x="103.5" y="-317.5" font-family="Helvetica,sans-Serif" font-size="10.00">+ copyTo()</text>
<text text-anchor="start" x="103.5" y="-306.5" font-family="Helvetica,sans-Serif" font-size="10.00">+ construct()</text>
</a>
</g>
</g>
<!-- Node4&#45;&gt;Node11 -->
<g id="edge11" class="edge">
<title>Node4&#45;&gt;Node11</title>
<path fill="none" stroke="#404040" d="M290.28,-898.07C256.89,-877.2 206.94,-839.8 185,-792 165.43,-749.38 165.03,-636.01 168.43,-545"/>
<polygon fill="none" stroke="#404040" points="168.43,-544.87 164.67,-538.72 168.91,-532.88 172.67,-539.03 168.43,-544.87"/>
<text text-anchor="middle" x="223.5" y="-683.5" font-family="Helvetica,sans-Serif" font-size="10.00"> &#45;m_semaphore</text>
</g>
<!-- Node14 -->
<g id="node14" class="node">
<title>Node14</title>
<g id="a_node14"><a xlink:href="../../d5/de7/classmqtt__api__v2.html" target="_top" xlink:title=" ">
<polygon fill="none" stroke="black" points="271,-613.5 271,-758.5 375,-758.5 375,-613.5 271,-613.5"/>
<text text-anchor="middle" x="323" y="-746.5" font-family="Helvetica,sans-Serif" font-size="10.00">mqtt_api_v2</text>
<polyline fill="none" stroke="black" points="271,-739.5 375,-739.5 "/>
<text text-anchor="middle" x="323" y="-727.5" font-family="Helvetica,sans-Serif" font-size="10.00"> </text>
<polyline fill="none" stroke="black" points="271,-720.5 375,-720.5 "/>
<text text-anchor="start" x="279" y="-708.5" font-family="Helvetica,sans-Serif" font-size="10.00">+ mqtt_api_v2()</text>
<text text-anchor="start" x="279" y="-697.5" font-family="Helvetica,sans-Serif" font-size="10.00">+ ~mqtt_api_v2()</text>
<text text-anchor="start" x="279" y="-686.5" font-family="Helvetica,sans-Serif" font-size="10.00">+ publish()</text>
<text text-anchor="start" x="279" y="-675.5" font-family="Helvetica,sans-Serif" font-size="10.00">+ subscribe()</text>
<text text-anchor="start" x="279" y="-664.5" font-family="Helvetica,sans-Serif" font-size="10.00">+ subscribe()</text>
<text text-anchor="start" x="279" y="-653.5" font-family="Helvetica,sans-Serif" font-size="10.00">+ getData()</text>
<text text-anchor="start" x="279" y="-642.5" font-family="Helvetica,sans-Serif" font-size="10.00">&#45; connect()</text>
<text text-anchor="start" x="279" y="-631.5" font-family="Helvetica,sans-Serif" font-size="10.00">&#45; disconnect()</text>
<text text-anchor="start" x="279" y="-620.5" font-family="Helvetica,sans-Serif" font-size="10.00">&#45; handle_event()</text>
</a>
</g>
</g>
<!-- Node4&#45;&gt;Node14 -->
<g id="edge16" class="edge">
<title>Node4&#45;&gt;Node14</title>
<path fill="none" stroke="#404040" d="M323,-888.82C323,-859.63 323,-812.21 323,-770.66"/>
<polygon fill="none" stroke="#404040" points="323,-770.56 319,-764.56 323,-758.56 327,-764.56 323,-770.56"/>
<text text-anchor="middle" x="340.5" y="-818.5" font-family="Helvetica,sans-Serif" font-size="10.00"> &#45;m_uri</text>
</g>
<!-- Node5 -->
<g id="node5" class="node">
<title>Node5</title>
<g id="a_node5"><a xlink:title="STL class.">
<polygon fill="none" stroke="#bfbfbf" points="271,-1032.5 271,-1100.5 375,-1100.5 375,-1032.5 271,-1032.5"/>
<text text-anchor="start" x="279" y="-1088.5" font-family="Helvetica,sans-Serif" font-size="10.00">std::basic_string&lt;</text>
<text text-anchor="middle" x="323" y="-1077.5" font-family="Helvetica,sans-Serif" font-size="10.00"> char &gt;</text>
<polyline fill="none" stroke="#bfbfbf" points="271,-1070.5 375,-1070.5 "/>
<text text-anchor="middle" x="323" y="-1058.5" font-family="Helvetica,sans-Serif" font-size="10.00"> </text>
<polyline fill="none" stroke="#bfbfbf" points="271,-1051.5 375,-1051.5 "/>
<text text-anchor="middle" x="323" y="-1039.5" font-family="Helvetica,sans-Serif" font-size="10.00"> </text>
</a>
</g>
</g>
<!-- Node5&#45;&gt;Node4 -->
<g id="edge4" class="edge">
<title>Node5&#45;&gt;Node4</title>
<path fill="none" stroke="midnightblue" d="M323,-1022.01C323,-997.51 323,-967.64 323,-946.3"/>
<polygon fill="none" stroke="midnightblue" points="319.5,-1022.14 323,-1032.14 326.5,-1022.14 319.5,-1022.14"/>
</g>
<!-- Node6 -->
<g id="node6" class="node">
<title>Node6</title>
<g id="a_node6"><a xlink:title=" ">
<polygon fill="none" stroke="#bfbfbf" points="762.5,-657.5 762.5,-714.5 877.5,-714.5 877.5,-657.5 762.5,-657.5"/>
<text text-anchor="middle" x="820" y="-702.5" font-family="Helvetica,sans-Serif" font-size="10.00">std::atomic&lt; bool &gt;</text>
<polyline fill="none" stroke="#bfbfbf" points="762.5,-695.5 877.5,-695.5 "/>
<text text-anchor="start" x="770.5" y="-683.5" font-family="Helvetica,sans-Serif" font-size="10.00">+ ptr</text>
<polyline fill="none" stroke="#bfbfbf" points="762.5,-676.5 877.5,-676.5 "/>
<text text-anchor="middle" x="820" y="-664.5" font-family="Helvetica,sans-Serif" font-size="10.00"> </text>
</a>
</g>
</g>
<!-- Node6&#45;&gt;Node2 -->
<g id="edge5" class="edge">
<title>Node6&#45;&gt;Node2</title>
<path fill="none" stroke="#404040" d="M829.21,-657.25C850.21,-588.24 893.62,-406.66 809,-299 770.29,-249.76 604.19,-216.32 494.22,-199.12"/>
<polygon fill="none" stroke="#404040" points="493.96,-199.08 487.42,-202.12 482.1,-197.25 488.64,-194.21 493.96,-199.08"/>
<text text-anchor="middle" x="889.5" y="-413.5" font-family="Helvetica,sans-Serif" font-size="10.00"> &#45;m_isActive</text>
</g>
<!-- Node6&#45;&gt;Node16 -->
<g id="edge20" class="edge">
<title>Node6&#45;&gt;Node16</title>
<path fill="none" stroke="#404040" d="M808.39,-657.48C797.04,-633.74 777.59,-600.17 751,-580 717.18,-554.35 701.35,-560.57 660,-551 606.6,-538.64 584.36,-562.24 538,-533 525.89,-525.36 515.22,-515.09 505.97,-503.8"/>
<polygon fill="none" stroke="#404040" points="505.84,-503.63 499.01,-501.3 498.53,-494.11 505.36,-496.43 505.84,-503.63"/>
<text text-anchor="middle" x="747.5" y="-554" font-family="Helvetica,sans-Serif" font-size="10.00"> &#45;m_isActive</text>
</g>
<!-- Node7 -->
<g id="node7" class="node">
<title>Node7</title>
<g id="a_node7"><a xlink:title="STL class.">
<polygon fill="none" stroke="#bfbfbf" points="770,-889 770,-946 870,-946 870,-889 770,-889"/>
<text text-anchor="middle" x="820" y="-934" font-family="Helvetica,sans-Serif" font-size="10.00">std::atomic&lt; T &gt;</text>
<polyline fill="none" stroke="#bfbfbf" points="770,-927 870,-927 "/>
<text text-anchor="middle" x="820" y="-915" font-family="Helvetica,sans-Serif" font-size="10.00"> </text>
<polyline fill="none" stroke="#bfbfbf" points="770,-908 870,-908 "/>
<text text-anchor="middle" x="820" y="-896" font-family="Helvetica,sans-Serif" font-size="10.00"> </text>
</a>
</g>
</g>
<!-- Node7&#45;&gt;Node6 -->
<g id="edge6" class="edge">
<title>Node7&#45;&gt;Node6</title>
<path fill="none" stroke="orange" d="M820,-878.63C820,-832.53 820,-755.76 820,-714.78"/>
<polygon fill="orange" stroke="orange" points="816.5,-878.82 820,-888.82 823.5,-878.82 816.5,-878.82"/>
<text text-anchor="middle" x="843.5" y="-818.5" font-family="Helvetica,sans-Serif" font-size="10.00"> &lt; bool &gt;</text>
</g>
<!-- Node8 -->
<g id="node8" class="node">
<title>Node8</title>
<g id="a_node8"><a xlink:title=" ">
<polygon fill="none" stroke="#bfbfbf" points="220.5,-1038 220.5,-1095 249.5,-1095 249.5,-1038 220.5,-1038"/>
<text text-anchor="middle" x="235" y="-1083" font-family="Helvetica,sans-Serif" font-size="10.00">T</text>
<polyline fill="none" stroke="#bfbfbf" points="220.5,-1076 249.5,-1076 "/>
<text text-anchor="middle" x="235" y="-1064" font-family="Helvetica,sans-Serif" font-size="10.00"> </text>
<polyline fill="none" stroke="#bfbfbf" points="220.5,-1057 249.5,-1057 "/>
<text text-anchor="middle" x="235" y="-1045" font-family="Helvetica,sans-Serif" font-size="10.00"> </text>
</a>
</g>
</g>
<!-- Node8&#45;&gt;Node7 -->
<g id="edge7" class="edge">
<title>Node8&#45;&gt;Node7</title>
<path fill="none" stroke="#404040" d="M249.75,-1042.06C253.29,-1038.1 257.39,-1034.48 262,-1032 458.21,-926.54 562.34,-1085.79 761,-985 774.31,-978.25 785.98,-967.11 795.35,-955.87"/>
<polygon fill="none" stroke="#404040" points="795.61,-955.53 796.14,-948.34 802.98,-946.06 802.45,-953.25 795.61,-955.53"/>
<text text-anchor="middle" x="727.5" y="-1006" font-family="Helvetica,sans-Serif" font-size="10.00"> +ptr</text>
</g>
<!-- Node13 -->
<g id="node13" class="node">
<title>Node13</title>
<g id="a_node13"><a xlink:title="STL class.">
<polygon fill="none" stroke="#bfbfbf" points="95.5,-889 95.5,-946 192.5,-946 192.5,-889 95.5,-889"/>
<text text-anchor="middle" x="144" y="-934" font-family="Helvetica,sans-Serif" font-size="10.00">std::vector&lt; T &gt;</text>
<polyline fill="none" stroke="#bfbfbf" points="95.5,-927 192.5,-927 "/>
<text text-anchor="middle" x="144" y="-915" font-family="Helvetica,sans-Serif" font-size="10.00"> </text>
<polyline fill="none" stroke="#bfbfbf" points="95.5,-908 192.5,-908 "/>
<text text-anchor="middle" x="144" y="-896" font-family="Helvetica,sans-Serif" font-size="10.00"> </text>
</a>
</g>
</g>
<!-- Node8&#45;&gt;Node13 -->
<g id="edge14" class="edge">
<title>Node8&#45;&gt;Node13</title>
<path fill="none" stroke="#404040" d="M220.38,-1041.88C206.1,-1018.81 184.13,-983.33 167.41,-956.32"/>
<polygon fill="none" stroke="#404040" points="167.38,-956.27 160.82,-953.27 161.06,-946.07 167.62,-949.06 167.38,-956.27"/>
<text text-anchor="middle" x="232" y="-1006" font-family="Helvetica,sans-Serif" font-size="10.00"> +elements</text>
</g>
<!-- Node9 -->
<g id="node9" class="node">
<title>Node9</title>
<g id="a_node9"><a xlink:href="../../d1/d2c/class_g_p_i_o___a_p_i.html" target="_top" xlink:title=" ">
<polygon fill="none" stroke="black" points="628.5,-580.5 628.5,-791.5 741.5,-791.5 741.5,-580.5 628.5,-580.5"/>
<text text-anchor="middle" x="685" y="-779.5" font-family="Helvetica,sans-Serif" font-size="10.00">GPIO_API</text>
<polyline fill="none" stroke="black" points="628.5,-772.5 741.5,-772.5 "/>
<text text-anchor="start" x="636.5" y="-760.5" font-family="Helvetica,sans-Serif" font-size="10.00">&#45; m_pin</text>
<text text-anchor="start" x="636.5" y="-749.5" font-family="Helvetica,sans-Serif" font-size="10.00">&#45; is_Output</text>
<text text-anchor="start" x="636.5" y="-738.5" font-family="Helvetica,sans-Serif" font-size="10.00">&#45; is_high</text>
<polyline fill="none" stroke="black" points="628.5,-731.5 741.5,-731.5 "/>
<text text-anchor="start" x="636.5" y="-719.5" font-family="Helvetica,sans-Serif" font-size="10.00">+ GPIO_API()</text>
<text text-anchor="start" x="636.5" y="-708.5" font-family="Helvetica,sans-Serif" font-size="10.00">+ GPIO_API()</text>
<text text-anchor="start" x="636.5" y="-697.5" font-family="Helvetica,sans-Serif" font-size="10.00">+ ~GPIO_API()</text>
<text text-anchor="start" x="636.5" y="-686.5" font-family="Helvetica,sans-Serif" font-size="10.00">+ toggle()</text>
<text text-anchor="start" x="636.5" y="-675.5" font-family="Helvetica,sans-Serif" font-size="10.00">+ setToInput()</text>
<text text-anchor="start" x="636.5" y="-664.5" font-family="Helvetica,sans-Serif" font-size="10.00">+ setToOutput()</text>
<text text-anchor="start" x="636.5" y="-653.5" font-family="Helvetica,sans-Serif" font-size="10.00">+ setHigh()</text>
<text text-anchor="start" x="636.5" y="-642.5" font-family="Helvetica,sans-Serif" font-size="10.00">+ setLow()</text>
<text text-anchor="start" x="636.5" y="-631.5" font-family="Helvetica,sans-Serif" font-size="10.00">+ isHigh()</text>
<text text-anchor="start" x="636.5" y="-620.5" font-family="Helvetica,sans-Serif" font-size="10.00">+ isLow()</text>
<text text-anchor="start" x="636.5" y="-609.5" font-family="Helvetica,sans-Serif" font-size="10.00">+ installInterrupt()</text>
<text text-anchor="start" x="636.5" y="-598.5" font-family="Helvetica,sans-Serif" font-size="10.00">+ enableInterrupt()</text>
<text text-anchor="start" x="636.5" y="-587.5" font-family="Helvetica,sans-Serif" font-size="10.00">+ disableInterrupt()</text>
</a>
</g>
</g>
<!-- Node9&#45;&gt;Node2 -->
<g id="edge8" class="edge">
<title>Node9&#45;&gt;Node2</title>
<path fill="none" stroke="#404040" d="M741.6,-596.16C745.88,-581.39 747.39,-566 744,-551 716.66,-430 711.1,-387.33 624,-299 587.9,-262.39 537.58,-235.72 493.2,-217.46"/>
<polygon fill="none" stroke="#404040" points="493.2,-217.46 486.14,-218.95 482.06,-213 489.12,-211.52 493.2,-217.46"/>
<text text-anchor="middle" x="772" y="-413.5" font-family="Helvetica,sans-Serif" font-size="10.00"> #m_test_pin</text>
</g>
<!-- Node9&#45;&gt;Node16 -->
<g id="edge21" class="edge">
<title>Node9&#45;&gt;Node16</title>
<path fill="none" stroke="#404040" d="M628.11,-588.44C625.48,-585.51 622.77,-582.68 620,-580 589.8,-550.8 568.75,-561.62 538,-533 528.68,-524.33 519.91,-514.34 511.85,-503.94"/>
<polygon fill="none" stroke="#404040" points="511.83,-503.92 505.04,-501.5 504.65,-494.3 511.45,-496.71 511.83,-503.92"/>
<text text-anchor="middle" x="626" y="-554" font-family="Helvetica,sans-Serif" font-size="10.00"> #m_test_pin</text>
</g>
<!-- Node10 -->
<g id="node10" class="node">
<title>Node10</title>
<g id="a_node10"><a xlink:href="../../d4/d57/class_g_p_i_o___h_a_l.html" target="_top" xlink:title=" ">
<polygon fill="none" stroke="black" points="614.5,-850.5 614.5,-984.5 751.5,-984.5 751.5,-850.5 614.5,-850.5"/>
<text text-anchor="middle" x="683" y="-972.5" font-family="Helvetica,sans-Serif" font-size="10.00">GPIO_HAL</text>
<polyline fill="none" stroke="black" points="614.5,-965.5 751.5,-965.5 "/>
<text text-anchor="middle" x="683" y="-953.5" font-family="Helvetica,sans-Serif" font-size="10.00"> </text>
<polyline fill="none" stroke="black" points="614.5,-946.5 751.5,-946.5 "/>
<text text-anchor="start" x="622.5" y="-934.5" font-family="Helvetica,sans-Serif" font-size="10.00">+ GPIO_HAL()</text>
<text text-anchor="start" x="622.5" y="-923.5" font-family="Helvetica,sans-Serif" font-size="10.00">+ ~GPIO_HAL()</text>
<text text-anchor="start" x="622.5" y="-912.5" font-family="Helvetica,sans-Serif" font-size="10.00">+ setDirection()</text>
<text text-anchor="start" x="622.5" y="-901.5" font-family="Helvetica,sans-Serif" font-size="10.00">+ setValue()</text>
<text text-anchor="start" x="622.5" y="-890.5" font-family="Helvetica,sans-Serif" font-size="10.00">+ getValue()</text>
<text text-anchor="start" x="622.5" y="-879.5" font-family="Helvetica,sans-Serif" font-size="10.00">+ installInterruptDriver()</text>
<text text-anchor="start" x="622.5" y="-868.5" font-family="Helvetica,sans-Serif" font-size="10.00">+ enableInterrupt()</text>
<text text-anchor="start" x="622.5" y="-857.5" font-family="Helvetica,sans-Serif" font-size="10.00">+ disableInterrupt()</text>
</a>
</g>
</g>
<!-- Node10&#45;&gt;Node9 -->
<g id="edge9" class="edge">
<title>Node10&#45;&gt;Node9</title>
<path fill="none" stroke="#404040" d="M683.58,-850.43C683.7,-835.76 683.84,-819.79 683.98,-803.77"/>
<polygon fill="none" stroke="#404040" points="683.98,-803.52 680.04,-797.49 684.09,-791.52 688.04,-797.56 683.98,-803.52"/>
<text text-anchor="middle" x="701.5" y="-818.5" font-family="Helvetica,sans-Serif" font-size="10.00"> &#45;m_hal</text>
</g>
<!-- Node11&#45;&gt;Node1 -->
<g id="edge24" class="edge">
<title>Node11&#45;&gt;Node1</title>
<path fill="none" stroke="#404040" d="M180.94,-299.48C183.92,-229.95 187.55,-144.9 189.83,-91.82"/>
<polygon fill="none" stroke="#404040" points="189.83,-91.69 186.09,-85.52 190.34,-79.7 194.08,-85.87 189.83,-91.69"/>
<text text-anchor="middle" x="222.5" y="-187.5" font-family="Helvetica,sans-Serif" font-size="10.00"> &#45;msg_sucess</text>
<text text-anchor="middle" x="222.5" y="-176.5" font-family="Helvetica,sans-Serif" font-size="10.00">&#45;msg_fail</text>
</g>
<!-- Node11&#45;&gt;Node2 -->
<g id="edge10" class="edge">
<title>Node11&#45;&gt;Node2</title>
<path fill="none" stroke="#404040" d="M204.69,-299.15C210.07,-288.65 216.44,-278.71 224,-270 229.8,-263.32 260.64,-247.37 294.5,-231.11"/>
<polygon fill="none" stroke="#404040" points="294.74,-231 298.43,-224.81 305.57,-225.84 301.88,-232.03 294.74,-231"/>
<text text-anchor="middle" x="251.5" y="-273" font-family="Helvetica,sans-Serif" font-size="10.00"> #m_buffer</text>
</g>
<!-- Node12 -->
<g id="node12" class="node">
<title>Node12</title>
<g id="a_node12"><a xlink:title=" ">
<polygon fill="none" stroke="#bfbfbf" points="0,-652 0,-720 136,-720 136,-652 0,-652"/>
<text text-anchor="start" x="8" y="-708" font-family="Helvetica,sans-Serif" font-size="10.00">std::vector&lt; std::pair</text>
<text text-anchor="middle" x="68" y="-697" font-family="Helvetica,sans-Serif" font-size="10.00">&lt; uint64_t, uint64_t &gt; &gt;</text>
<polyline fill="none" stroke="#bfbfbf" points="0,-690 136,-690 "/>
<text text-anchor="start" x="8" y="-678" font-family="Helvetica,sans-Serif" font-size="10.00">+ elements</text>
<polyline fill="none" stroke="#bfbfbf" points="0,-671 136,-671 "/>
<text text-anchor="middle" x="68" y="-659" font-family="Helvetica,sans-Serif" font-size="10.00"> </text>
</a>
</g>
</g>
<!-- Node12&#45;&gt;Node11 -->
<g id="edge12" class="edge">
<title>Node12&#45;&gt;Node11</title>
<path fill="none" stroke="#404040" d="M79.86,-651.78C89.71,-624.55 104.27,-585.09 118,-551 118.94,-548.66 119.9,-546.29 120.87,-543.92"/>
<polygon fill="none" stroke="#404040" points="120.92,-543.79 119.5,-536.72 125.48,-532.69 126.9,-539.76 120.92,-543.79"/>
<text text-anchor="middle" x="140" y="-554" font-family="Helvetica,sans-Serif" font-size="10.00"> &#45;m_data</text>
</g>
<!-- Node13&#45;&gt;Node12 -->
<g id="edge13" class="edge">
<title>Node13&#45;&gt;Node12</title>
<path fill="none" stroke="orange" d="M100.52,-881.97C86.41,-868.11 72.47,-850.93 65,-832 50.72,-795.81 54.77,-750.49 60.22,-720.24"/>
<polygon fill="orange" stroke="orange" points="98.2,-884.59 107.88,-888.9 103,-879.5 98.2,-884.59"/>
<text text-anchor="start" x="65" y="-824" font-family="Helvetica,sans-Serif" font-size="10.00"> &lt; std::pair&lt; uint64</text>
<text text-anchor="middle" x="113.5" y="-813" font-family="Helvetica,sans-Serif" font-size="10.00">_t, uint64_t &gt; &gt;</text>
</g>
<!-- Node14&#45;&gt;Node2 -->
<g id="edge15" class="edge">
<title>Node14&#45;&gt;Node2</title>
<path fill="none" stroke="#404040" d="M310.14,-613.17C298.82,-534.31 288.55,-404.83 320,-299 323.72,-286.48 329.31,-274.06 335.77,-262.28"/>
<polygon fill="none" stroke="#404040" points="335.91,-262.03 335.46,-254.83 341.93,-251.65 342.38,-258.85 335.91,-262.03"/>
<text text-anchor="middle" x="343" y="-413.5" font-family="Helvetica,sans-Serif" font-size="10.00"> &#45;m_mqtt</text>
</g>
<!-- Node14&#45;&gt;Node16 -->
<g id="edge22" class="edge">
<title>Node14&#45;&gt;Node16</title>
<path fill="none" stroke="#404040" d="M359.71,-613.18C376.74,-579.88 397.13,-539.99 415.06,-504.91"/>
<polygon fill="none" stroke="#404040" points="415.08,-504.87 414.25,-497.71 420.54,-494.19 421.37,-501.35 415.08,-504.87"/>
<text text-anchor="middle" x="415" y="-554" font-family="Helvetica,sans-Serif" font-size="10.00"> &#45;m_mqtt</text>
</g>
<!-- Node15 -->
<g id="node15" class="node">
<title>Node15</title>
<g id="a_node15"><a xlink:href="../../dd/d1c/class_free_r_t_o_s_1_1_queue.html" target="_top" xlink:title=" ">
<polygon fill="none" stroke="black" points="509.5,-641 509.5,-731 610.5,-731 610.5,-641 509.5,-641"/>
<text text-anchor="middle" x="560" y="-719" font-family="Helvetica,sans-Serif" font-size="10.00">FreeRTOS::Queue</text>
<polyline fill="none" stroke="black" points="509.5,-712 610.5,-712 "/>
<text text-anchor="start" x="517.5" y="-700" font-family="Helvetica,sans-Serif" font-size="10.00">&#45; m_handle</text>
<polyline fill="none" stroke="black" points="509.5,-693 610.5,-693 "/>
<text text-anchor="start" x="517.5" y="-681" font-family="Helvetica,sans-Serif" font-size="10.00">+ Queue()</text>
<text text-anchor="start" x="517.5" y="-670" font-family="Helvetica,sans-Serif" font-size="10.00">+ ~Queue()</text>
<text text-anchor="start" x="517.5" y="-659" font-family="Helvetica,sans-Serif" font-size="10.00">+ send()</text>
<text text-anchor="start" x="517.5" y="-648" font-family="Helvetica,sans-Serif" font-size="10.00">+ recieve()</text>
</a>
</g>
</g>
<!-- Node15&#45;&gt;Node2 -->
<g id="edge17" class="edge">
<title>Node15&#45;&gt;Node2</title>
<path fill="none" stroke="#404040" d="M561.91,-640.71C565.14,-546.56 567.95,-330.2 529,-270 519.48,-255.29 506.4,-242.68 492.11,-232.04"/>
<polygon fill="none" stroke="#404040" points="491.87,-231.87 484.66,-231.7 482.05,-224.98 489.26,-225.15 491.87,-231.87"/>
<text text-anchor="middle" x="591.5" y="-413.5" font-family="Helvetica,sans-Serif" font-size="10.00"> #m_queue</text>
</g>
<!-- Node15&#45;&gt;Node16 -->
<g id="edge23" class="edge">
<title>Node15&#45;&gt;Node16</title>
<path fill="none" stroke="#404040" d="M535.18,-640.9C524.48,-622.06 511.75,-599.88 500,-580 495.23,-571.93 492.42,-570.73 489,-562 482.1,-544.36 476.77,-524.85 472.67,-506.01"/>
<polygon fill="none" stroke="#404040" points="472.64,-505.82 467.51,-500.75 470.22,-494.07 475.35,-499.14 472.64,-505.82"/>
<text text-anchor="middle" x="517.5" y="-554" font-family="Helvetica,sans-Serif" font-size="10.00"> #m_queue</text>
</g>
<!-- Node16&#45;&gt;Node2 -->
<g id="edge18" class="edge">
<title>Node16&#45;&gt;Node2</title>
<path fill="none" stroke="orange" d="M435.07,-328.31C427.76,-302.89 419.89,-275.52 413.01,-251.61"/>
<polygon fill="orange" stroke="orange" points="431.71,-329.3 437.84,-337.94 438.44,-327.36 431.71,-329.3"/>
<text text-anchor="middle" x="473.5" y="-273" font-family="Helvetica,sans-Serif" font-size="10.00"> &lt; MQTT_Message &gt;</text>
</g>
</g>
</svg>
        <g id="navigator" transform="translate(0 0)" fill="#404254">
                <rect fill="#f2f5e9" fill-opacity="0.5" stroke="#606060" stroke-width=".5" x="0" y="0" width="60" height="60"/>
                <use id="zoomplus" xlink:href="#zoomPlus" x="17" y="9" onmousedown="handleZoom(evt,'in')"/>
                <use id="zoomminus" xlink:href="#zoomMin" x="42" y="9" onmousedown="handleZoom(evt,'out')"/>
                <use id="reset" xlink:href="#resetDef" x="30" y="36" onmousedown="handleReset()"/>
                <g id="arrowUp" xlink:href="#dirArrow" transform="translate(30 24)" onmousedown="handlePan(0,-1)">
                  <use xlink:href="#rim" fill="#404040">
                        <set attributeName="fill" to="#808080" begin="arrowUp.mouseover" end="arrowUp.mouseout"/>
                  </use>
                  <path fill="none" stroke="white" stroke-width="1.5" d="M0,-3.0v7 M-2.5,-0.5L0,-3.0L2.5,-0.5"/>
                </g>
                <g id="arrowRight" xlink:href="#dirArrow" transform="rotate(90) translate(36 -43)" onmousedown="handlePan(1,0)">
                  <use xlink:href="#rim" fill="#404040">
                        <set attributeName="fill" to="#808080" begin="arrowRight.mouseover" end="arrowRight.mouseout"/>
                  </use>
                  <path fill="none" stroke="white" stroke-width="1.5" d="M0,-3.0v7 M-2.5,-0.5L0,-3.0L2.5,-0.5"/>
                </g>
                <g id="arrowDown" xlink:href="#dirArrow" transform="rotate(180) translate(-30 -48)" onmousedown="handlePan(0,1)">
                  <use xlink:href="#rim" fill="#404040">
                        <set attributeName="fill" to="#808080" begin="arrowDown.mouseover" end="arrowDown.mouseout"/>
                  </use>
                  <path fill="none" stroke="white" stroke-width="1.5" d="M0,-3.0v7 M-2.5,-0.5L0,-3.0L2.5,-0.5"/>
                </g>
                <g id="arrowLeft" xlink:href="#dirArrow" transform="rotate(270) translate(-36 17)" onmousedown="handlePan(-1,0)">
                  <use xlink:href="#rim" fill="#404040">
                        <set attributeName="fill" to="#808080" begin="arrowLeft.mouseover" end="arrowLeft.mouseout"/>
                  </use>
                  <path fill="none" stroke="white" stroke-width="1.5" d="M0,-3.0v7 M-2.5,-0.5L0,-3.0L2.5,-0.5"/>
                </g>
        </g>
        <svg viewBox="0 0 15 15" width="100%" height="30px" preserveAspectRatio="xMaxYMin meet">
         <g id="arrow_out" transform="scale(0.3 0.3)">
          <a xlink:href="class_online_detector__service__coll__graph_org.svg" target="_base">
           <rect id="button" ry="5" rx="5" y="6" x="6" height="38" width="38"
                fill="#f2f5e9" fill-opacity="0.5" stroke="#606060" stroke-width="1.0"/>
           <path id="arrow"
             d="M 11.500037,31.436501 C 11.940474,20.09759 22.043105,11.32322 32.158766,21.979434 L 37.068811,17.246167 C 37.068811,17.246167 37.088388,32 37.088388,32 L 22.160133,31.978069 C 22.160133,31.978069 26.997745,27.140456 26.997745,27.140456 C 18.528582,18.264221 13.291696,25.230495 11.500037,31.436501 z"
             style="fill:#404040;"/>
          </a>
         </g>
        </svg>
</svg>
