<?xml version="1.0" encoding="UTF-8" standalone="no"?>
<!DOCTYPE svg PUBLIC "-//W3C//DTD SVG 1.1//EN"
 "http://www.w3.org/Graphics/SVG/1.1/DTD/svg11.dtd">
<!-- Generated by graphviz version 2.43.0 (0)
 -->
<!-- Title: Components/Interfaces/ServiceBase/include/ServiceTimeBase.hpp Pages: 1 -->
<svg width="585pt" height="206pt"
 viewBox="0.00 0.00 585.00 206.00" xmlns="http://www.w3.org/2000/svg" xmlns:xlink="http://www.w3.org/1999/xlink">
<g id="graph0" class="graph" transform="scale(1 1) rotate(0) translate(4 202)">
<title>Components/Interfaces/ServiceBase/include/ServiceTimeBase.hpp</title>
<!-- Node1 -->
<g id="node1" class="node">
<title>Node1</title>
<g id="a_node1"><a xlink:title=" ">
<polygon fill="#bfbfbf" stroke="black" points="152,-156.5 152,-197.5 282,-197.5 282,-156.5 152,-156.5"/>
<text text-anchor="start" x="160" y="-185.5" font-family="Helvetica,sans-Serif" font-size="10.00">Components/Interfaces</text>
<text text-anchor="start" x="160" y="-174.5" font-family="Helvetica,sans-Serif" font-size="10.00">/ServiceBase/include</text>
<text text-anchor="middle" x="217" y="-163.5" font-family="Helvetica,sans-Serif" font-size="10.00">/ServiceTimeBase.hpp</text>
</a>
</g>
</g>
<!-- Node2 -->
<g id="node2" class="node">
<title>Node2</title>
<g id="a_node2"><a xlink:href="../../dc/d1d/_service__test_8cpp.html" target="_top" xlink:title=" ">
<polygon fill="none" stroke="black" points="0,-78.5 0,-119.5 130,-119.5 130,-78.5 0,-78.5"/>
<text text-anchor="start" x="8" y="-107.5" font-family="Helvetica,sans-Serif" font-size="10.00">Components/Interfaces</text>
<text text-anchor="start" x="8" y="-96.5" font-family="Helvetica,sans-Serif" font-size="10.00">/ServiceBase/test/test</text>
<text text-anchor="middle" x="65" y="-85.5" font-family="Helvetica,sans-Serif" font-size="10.00">/Service_test.cpp</text>
</a>
</g>
</g>
<!-- Node1&#45;&gt;Node2 -->
<g id="edge1" class="edge">
<title>Node1&#45;&gt;Node2</title>
<path fill="none" stroke="midnightblue" d="M168.82,-151.91C147.92,-141.46 123.76,-129.38 104.01,-119.51"/>
<polygon fill="midnightblue" stroke="midnightblue" points="167.35,-155.09 177.86,-156.43 170.48,-148.83 167.35,-155.09"/>
</g>
<!-- Node3 -->
<g id="node3" class="node">
<title>Node3</title>
<g id="a_node3"><a xlink:href="../../d6/d72/_env_sensing__service_8hpp.html" target="_top" xlink:title=" ">
<polygon fill="none" stroke="black" points="148.5,-78.5 148.5,-119.5 285.5,-119.5 285.5,-78.5 148.5,-78.5"/>
<text text-anchor="start" x="156.5" y="-107.5" font-family="Helvetica,sans-Serif" font-size="10.00">Components/Service</text>
<text text-anchor="start" x="156.5" y="-96.5" font-family="Helvetica,sans-Serif" font-size="10.00">/EnvSensing/include</text>
<text text-anchor="middle" x="217" y="-85.5" font-family="Helvetica,sans-Serif" font-size="10.00">/EnvSensing_service.hpp</text>
</a>
</g>
</g>
<!-- Node1&#45;&gt;Node3 -->
<g id="edge2" class="edge">
<title>Node1&#45;&gt;Node3</title>
<path fill="none" stroke="midnightblue" d="M217,-146.3C217,-137.3 217,-127.65 217,-119.51"/>
<polygon fill="midnightblue" stroke="midnightblue" points="213.5,-146.43 217,-156.43 220.5,-146.43 213.5,-146.43"/>
</g>
<!-- Node5 -->
<g id="node5" class="node">
<title>Node5</title>
<g id="a_node5"><a xlink:href="../../df/d40/is_alive__service_8hpp.html" target="_top" xlink:title=" ">
<polygon fill="none" stroke="black" points="304.5,-78.5 304.5,-119.5 431.5,-119.5 431.5,-78.5 304.5,-78.5"/>
<text text-anchor="start" x="312.5" y="-107.5" font-family="Helvetica,sans-Serif" font-size="10.00">Components/Service</text>
<text text-anchor="start" x="312.5" y="-96.5" font-family="Helvetica,sans-Serif" font-size="10.00">/isAlive/include/isAlive</text>
<text text-anchor="middle" x="368" y="-85.5" font-family="Helvetica,sans-Serif" font-size="10.00">_service.hpp</text>
</a>
</g>
</g>
<!-- Node1&#45;&gt;Node5 -->
<g id="edge4" class="edge">
<title>Node1&#45;&gt;Node5</title>
<path fill="none" stroke="midnightblue" d="M264.87,-151.91C285.63,-141.46 309.63,-129.38 329.25,-119.51"/>
<polygon fill="midnightblue" stroke="midnightblue" points="263.25,-148.81 255.89,-156.43 266.39,-155.06 263.25,-148.81"/>
</g>
<!-- Node4 -->
<g id="node4" class="node">
<title>Node4</title>
<g id="a_node4"><a xlink:href="../../d8/d34/_env_sensing__service_8cpp.html" target="_top" xlink:title=" ">
<polygon fill="none" stroke="black" points="139,-0.5 139,-41.5 291,-41.5 291,-0.5 139,-0.5"/>
<text text-anchor="start" x="147" y="-29.5" font-family="Helvetica,sans-Serif" font-size="10.00">Components/Service</text>
<text text-anchor="start" x="147" y="-18.5" font-family="Helvetica,sans-Serif" font-size="10.00">/EnvSensing/src/EnvSensing</text>
<text text-anchor="middle" x="215" y="-7.5" font-family="Helvetica,sans-Serif" font-size="10.00">_service.cpp</text>
</a>
</g>
</g>
<!-- Node3&#45;&gt;Node4 -->
<g id="edge3" class="edge">
<title>Node3&#45;&gt;Node4</title>
<path fill="none" stroke="midnightblue" d="M216.22,-68.3C215.98,-59.3 215.73,-49.65 215.51,-41.51"/>
<polygon fill="midnightblue" stroke="midnightblue" points="212.72,-68.52 216.48,-78.43 219.72,-68.34 212.72,-68.52"/>
</g>
<!-- Node6 -->
<g id="node6" class="node">
<title>Node6</title>
<g id="a_node6"><a xlink:href="../../de/da1/is_alive__service_8cpp.html" target="_top" xlink:title=" ">
<polygon fill="none" stroke="black" points="309.5,-0.5 309.5,-41.5 426.5,-41.5 426.5,-0.5 309.5,-0.5"/>
<text text-anchor="start" x="317.5" y="-29.5" font-family="Helvetica,sans-Serif" font-size="10.00">Components/Service</text>
<text text-anchor="start" x="317.5" y="-18.5" font-family="Helvetica,sans-Serif" font-size="10.00">/isAlive/src/isAlive</text>
<text text-anchor="middle" x="368" y="-7.5" font-family="Helvetica,sans-Serif" font-size="10.00">_service.cpp</text>
</a>
</g>
</g>
<!-- Node5&#45;&gt;Node6 -->
<g id="edge5" class="edge">
<title>Node5&#45;&gt;Node6</title>
<path fill="none" stroke="midnightblue" d="M368,-68.3C368,-59.3 368,-49.65 368,-41.51"/>
<polygon fill="midnightblue" stroke="midnightblue" points="364.5,-68.43 368,-78.43 371.5,-68.43 364.5,-68.43"/>
</g>
<!-- Node7 -->
<g id="node7" class="node">
<title>Node7</title>
<g id="a_node7"><a xlink:href="../../d4/d60/_service_2is_alive_2test_2test_2simple__test_8cpp.html" target="_top" xlink:title=" ">
<polygon fill="none" stroke="black" points="445,-0.5 445,-41.5 577,-41.5 577,-0.5 445,-0.5"/>
<text text-anchor="start" x="453" y="-29.5" font-family="Helvetica,sans-Serif" font-size="10.00">Components/Service</text>
<text text-anchor="start" x="453" y="-18.5" font-family="Helvetica,sans-Serif" font-size="10.00">/isAlive/test/test/simple</text>
<text text-anchor="middle" x="511" y="-7.5" font-family="Helvetica,sans-Serif" font-size="10.00">_test.cpp</text>
</a>
</g>
</g>
<!-- Node5&#45;&gt;Node7 -->
<g id="edge6" class="edge">
<title>Node5&#45;&gt;Node7</title>
<path fill="none" stroke="midnightblue" d="M413.86,-73.63C433.4,-63.24 455.89,-51.29 474.3,-41.51"/>
<polygon fill="midnightblue" stroke="midnightblue" points="412.01,-70.64 404.83,-78.43 415.3,-76.83 412.01,-70.64"/>
</g>
</g>
</svg>
