<?xml version="1.0" encoding="UTF-8" standalone="no"?>
<!DOCTYPE svg PUBLIC "-//W3C//DTD SVG 1.1//EN"
 "http://www.w3.org/Graphics/SVG/1.1/DTD/svg11.dtd">
<!-- Generated by graphviz version 2.43.0 (0)
 -->
<!-- Title: Components/Connector/WiFi_v2/src/WiFi_SAL_esp32.cpp Pages: 1 -->
<!--zoomable 385 -->
<svg id="main" version="1.1" xmlns="http://www.w3.org/2000/svg" xmlns:xlink="http://www.w3.org/1999/xlink" xml:space="preserve" onload="init(evt)">
<style type="text/css"><![CDATA[
.edge:hover path { stroke: red; }
.edge:hover polygon { stroke: red; fill: red; }
]]></style>
<script type="text/javascript"><![CDATA[
var edges = document.getElementsByTagName('g');
if (edges && edges.length) {
  for (var i=0;i<edges.length;i++) {
    if (edges[i].id.substr(0,4)=='edge') {
      edges[i].setAttribute('class','edge');
    }
  }
}
]]></script>
        <defs>
                <circle id="rim" cx="0" cy="0" r="7"/>
                <circle id="rim2" cx="0" cy="0" r="3.5"/>
                <g id="zoomPlus">
                        <use xlink:href="#rim" fill="#404040">
                                <set attributeName="fill" to="#808080" begin="zoomplus.mouseover" end="zoomplus.mouseout"/>
                        </use>
                        <path d="M-4,0h8M0,-4v8" fill="none" stroke="white" stroke-width="1.5" pointer-events="none"/>
                </g>
                <g id="zoomMin">
                        <use xlink:href="#rim" fill="#404040">
                                <set attributeName="fill" to="#808080" begin="zoomminus.mouseover" end="zoomminus.mouseout"/>
                        </use>
                        <path d="M-4,0h8" fill="none" stroke="white" stroke-width="1.5" pointer-events="none"/>
                </g>
                <g id="dirArrow">
                        <path fill="none" stroke="white" stroke-width="1.5" d="M0,-3.0v7 M-2.5,-0.5L0,-3.0L2.5,-0.5"/>
                </g>
               <g id="resetDef">
                       <use xlink:href="#rim2" fill="#404040">
                               <set attributeName="fill" to="#808080" begin="reset.mouseover" end="reset.mouseout"/>
                       </use>
               </g>
        </defs>

<script type="text/javascript">
var viewWidth = 680;
var viewHeight = 385;
var sectionId = 'dynsection-0';
</script>
<script xlink:href="../../svgpan.js"/>
<svg id="graph" class="graph">
<g id="viewport">
<title>Components/Connector/WiFi_v2/src/WiFi_SAL_esp32.cpp</title>
<!-- Node1 -->
<g id="node1" class="node">
<title>Node1</title>
<g id="a_node1"><a xlink:title=" ">
<polygon fill="#bfbfbf" stroke="black" points="158.5,-335.5 158.5,-376.5 289.5,-376.5 289.5,-335.5 158.5,-335.5"/>
<text text-anchor="start" x="166.5" y="-364.5" font-family="Helvetica,sans-Serif" font-size="10.00">Components/Connector</text>
<text text-anchor="start" x="166.5" y="-353.5" font-family="Helvetica,sans-Serif" font-size="10.00">/WiFi_v2/src/WiFi_SAL</text>
<text text-anchor="middle" x="224" y="-342.5" font-family="Helvetica,sans-Serif" font-size="10.00">_esp32.cpp</text>
</a>
</g>
</g>
<!-- Node2 -->
<g id="node2" class="node">
<title>Node2</title>
<g id="a_node2"><a xlink:href="../../db/def/_wi_fi___s_a_l__esp32_8hpp.html" target="_top" xlink:title=" ">
<polygon fill="none" stroke="black" points="169.5,-268.5 169.5,-298.5 278.5,-298.5 278.5,-268.5 169.5,-268.5"/>
<text text-anchor="start" x="177.5" y="-286.5" font-family="Helvetica,sans-Serif" font-size="10.00">../include/WiFi_SAL</text>
<text text-anchor="middle" x="224" y="-275.5" font-family="Helvetica,sans-Serif" font-size="10.00">_esp32.hpp</text>
</a>
</g>
</g>
<!-- Node1&#45;&gt;Node2 -->
<g id="edge1" class="edge">
<title>Node1&#45;&gt;Node2</title>
<path fill="none" stroke="midnightblue" d="M224,-335.36C224,-327.23 224,-317.7 224,-309.11"/>
<polygon fill="midnightblue" stroke="midnightblue" points="227.5,-308.89 224,-298.89 220.5,-308.89 227.5,-308.89"/>
</g>
<!-- Node3 -->
<g id="node3" class="node">
<title>Node3</title>
<g id="a_node3"><a xlink:href="../../da/d5f/_b_a_s_i_c_8hpp.html" target="_top" xlink:title=" ">
<polygon fill="none" stroke="black" points="355,-56.5 355,-86.5 471,-86.5 471,-56.5 355,-56.5"/>
<text text-anchor="start" x="363" y="-74.5" font-family="Helvetica,sans-Serif" font-size="10.00">../../../Global_Include</text>
<text text-anchor="middle" x="413" y="-63.5" font-family="Helvetica,sans-Serif" font-size="10.00">/BASIC.hpp</text>
</a>
</g>
</g>
<!-- Node2&#45;&gt;Node3 -->
<g id="edge2" class="edge">
<title>Node2&#45;&gt;Node3</title>
<path fill="none" stroke="midnightblue" d="M278.58,-276.84C386.7,-264.3 621.31,-230 663,-165 707.4,-95.77 569.68,-78.08 481.3,-73.74"/>
<polygon fill="midnightblue" stroke="midnightblue" points="481.19,-70.23 471.04,-73.28 480.88,-77.22 481.19,-70.23"/>
</g>
<!-- Node4 -->
<g id="node4" class="node">
<title>Node4</title>
<g id="a_node4"><a xlink:href="../../d3/deb/_general___error_8hpp.html" target="_top" xlink:title=" ">
<polygon fill="none" stroke="black" points="101.5,-56.5 101.5,-86.5 246.5,-86.5 246.5,-56.5 101.5,-56.5"/>
<text text-anchor="start" x="109.5" y="-74.5" font-family="Helvetica,sans-Serif" font-size="10.00">../../../Objects/ErrorHandler</text>
<text text-anchor="middle" x="174" y="-63.5" font-family="Helvetica,sans-Serif" font-size="10.00">/include/General_Error.hpp</text>
</a>
</g>
</g>
<!-- Node2&#45;&gt;Node4 -->
<g id="edge3" class="edge">
<title>Node2&#45;&gt;Node4</title>
<path fill="none" stroke="midnightblue" d="M224.32,-268.4C224.53,-240.02 222.86,-174.36 205,-123 201.63,-113.3 196.17,-103.48 190.76,-95.11"/>
<polygon fill="midnightblue" stroke="midnightblue" points="193.54,-92.97 185.02,-86.67 187.75,-96.91 193.54,-92.97"/>
</g>
<!-- Node6 -->
<g id="node6" class="node">
<title>Node6</title>
<g id="a_node6"><a xlink:title=" ">
<polygon fill="none" stroke="#bfbfbf" points="0,-0.5 0,-19.5 60,-19.5 60,-0.5 0,-0.5"/>
<text text-anchor="middle" x="30" y="-7.5" font-family="Helvetica,sans-Serif" font-size="10.00">iostream</text>
</a>
</g>
</g>
<!-- Node2&#45;&gt;Node6 -->
<g id="edge24" class="edge">
<title>Node2&#45;&gt;Node6</title>
<path fill="none" stroke="midnightblue" d="M169.37,-271.06C140.69,-263.26 106,-250.84 79,-232 47.41,-209.95 37.91,-200.93 24,-165 6.19,-118.98 17.16,-59.33 24.68,-29.59"/>
<polygon fill="midnightblue" stroke="midnightblue" points="28.11,-30.3 27.33,-19.74 21.35,-28.49 28.11,-30.3"/>
</g>
<!-- Node7 -->
<g id="node7" class="node">
<title>Node7</title>
<g id="a_node7"><a xlink:href="../../d9/de4/_wi_fi_base_8hpp.html" target="_top" xlink:title=" ">
<polygon fill="none" stroke="black" points="88.5,-207 88.5,-226 171.5,-226 171.5,-207 88.5,-207"/>
<text text-anchor="middle" x="130" y="-214" font-family="Helvetica,sans-Serif" font-size="10.00">WiFiBase.hpp</text>
</a>
</g>
</g>
<!-- Node2&#45;&gt;Node7 -->
<g id="edge6" class="edge">
<title>Node2&#45;&gt;Node7</title>
<path fill="none" stroke="midnightblue" d="M203.6,-268.4C187.99,-257.6 166.52,-242.76 150.81,-231.89"/>
<polygon fill="midnightblue" stroke="midnightblue" points="152.52,-228.82 142.3,-226.01 148.54,-234.57 152.52,-228.82"/>
</g>
<!-- Node9 -->
<g id="node9" class="node">
<title>Node9</title>
<g id="a_node9"><a xlink:href="../../d7/d60/_timeservice_8hpp.html" target="_top" xlink:title=" ">
<polygon fill="none" stroke="black" points="364.5,-201.5 364.5,-231.5 507.5,-231.5 507.5,-201.5 364.5,-201.5"/>
<text text-anchor="start" x="372.5" y="-219.5" font-family="Helvetica,sans-Serif" font-size="10.00">../../../Objects/Timeservice</text>
<text text-anchor="middle" x="436" y="-208.5" font-family="Helvetica,sans-Serif" font-size="10.00">/include/Timeservice.hpp</text>
</a>
</g>
</g>
<!-- Node2&#45;&gt;Node9 -->
<g id="edge14" class="edge">
<title>Node2&#45;&gt;Node9</title>
<path fill="none" stroke="midnightblue" d="M269.74,-268.48C302.09,-258.56 345.65,-245.2 380.07,-234.65"/>
<polygon fill="midnightblue" stroke="midnightblue" points="381.44,-237.89 389.98,-231.61 379.39,-231.2 381.44,-237.89"/>
</g>
<!-- Node5 -->
<g id="node5" class="node">
<title>Node5</title>
<g id="a_node5"><a xlink:title=" ">
<polygon fill="none" stroke="#bfbfbf" points="152,-0.5 152,-19.5 196,-19.5 196,-0.5 152,-0.5"/>
<text text-anchor="middle" x="174" y="-7.5" font-family="Helvetica,sans-Serif" font-size="10.00">string</text>
</a>
</g>
</g>
<!-- Node4&#45;&gt;Node5 -->
<g id="edge4" class="edge">
<title>Node4&#45;&gt;Node5</title>
<path fill="none" stroke="midnightblue" d="M174,-56.4C174,-48.47 174,-38.46 174,-29.86"/>
<polygon fill="midnightblue" stroke="midnightblue" points="177.5,-29.66 174,-19.66 170.5,-29.66 177.5,-29.66"/>
</g>
<!-- Node4&#45;&gt;Node6 -->
<g id="edge5" class="edge">
<title>Node4&#45;&gt;Node6</title>
<path fill="none" stroke="midnightblue" d="M139.87,-56.4C115.71,-46.42 83.6,-33.15 60.33,-23.53"/>
<polygon fill="midnightblue" stroke="midnightblue" points="61.53,-20.24 50.95,-19.66 58.86,-26.71 61.53,-20.24"/>
</g>
<!-- Node7&#45;&gt;Node3 -->
<g id="edge7" class="edge">
<title>Node7&#45;&gt;Node3</title>
<path fill="none" stroke="midnightblue" d="M171.72,-211.94C234.29,-205.8 348.37,-191.29 379,-165 398.9,-147.92 407.16,-118.13 410.58,-96.98"/>
<polygon fill="midnightblue" stroke="midnightblue" points="414.09,-97.19 411.97,-86.81 407.15,-96.25 414.09,-97.19"/>
</g>
<!-- Node7&#45;&gt;Node4 -->
<g id="edge8" class="edge">
<title>Node7&#45;&gt;Node4</title>
<path fill="none" stroke="midnightblue" d="M106.68,-206.91C88.96,-199 65.84,-185.37 55,-165 46.23,-148.52 44.7,-138.57 55,-123 64.68,-108.37 79.55,-97.97 95.52,-90.58"/>
<polygon fill="midnightblue" stroke="midnightblue" points="97.18,-93.68 105.03,-86.56 94.45,-87.23 97.18,-93.68"/>
</g>
<!-- Node7&#45;&gt;Node6 -->
<g id="edge13" class="edge">
<title>Node7&#45;&gt;Node6</title>
<path fill="none" stroke="midnightblue" d="M102.28,-206.89C82.54,-199.22 57.26,-185.91 44,-165 17.22,-122.78 21.99,-60.5 26.58,-29.68"/>
<polygon fill="midnightblue" stroke="midnightblue" points="30.09,-29.96 28.27,-19.52 23.18,-28.81 30.09,-29.96"/>
</g>
<!-- Node8 -->
<g id="node8" class="node">
<title>Node8</title>
<g id="a_node8"><a xlink:href="../../d5/d6f/_connector_base_8hpp.html" target="_top" xlink:title=" ">
<polygon fill="none" stroke="black" points="64.5,-123.5 64.5,-164.5 195.5,-164.5 195.5,-123.5 64.5,-123.5"/>
<text text-anchor="start" x="72.5" y="-152.5" font-family="Helvetica,sans-Serif" font-size="10.00">../../../Interfaces</text>
<text text-anchor="start" x="72.5" y="-141.5" font-family="Helvetica,sans-Serif" font-size="10.00">/ConnectorBase/include</text>
<text text-anchor="middle" x="130" y="-130.5" font-family="Helvetica,sans-Serif" font-size="10.00">/ConnectorBase.hpp</text>
</a>
</g>
</g>
<!-- Node7&#45;&gt;Node8 -->
<g id="edge9" class="edge">
<title>Node7&#45;&gt;Node8</title>
<path fill="none" stroke="midnightblue" d="M130,-206.86C130,-198.86 130,-186.5 130,-174.92"/>
<polygon fill="midnightblue" stroke="midnightblue" points="133.5,-174.66 130,-164.66 126.5,-174.66 133.5,-174.66"/>
</g>
<!-- Node8&#45;&gt;Node3 -->
<g id="edge10" class="edge">
<title>Node8&#45;&gt;Node3</title>
<path fill="none" stroke="midnightblue" d="M195.64,-126.65C241.12,-115.32 301.45,-100.29 347.01,-88.94"/>
<polygon fill="midnightblue" stroke="midnightblue" points="347.93,-92.32 356.79,-86.5 346.24,-85.52 347.93,-92.32"/>
</g>
<!-- Node8&#45;&gt;Node4 -->
<g id="edge11" class="edge">
<title>Node8&#45;&gt;Node4</title>
<path fill="none" stroke="midnightblue" d="M142.26,-123.36C147.67,-114.68 154.08,-104.42 159.71,-95.4"/>
<polygon fill="midnightblue" stroke="midnightblue" points="162.69,-97.23 165.02,-86.89 156.75,-93.52 162.69,-97.23"/>
</g>
<!-- Node8&#45;&gt;Node6 -->
<g id="edge12" class="edge">
<title>Node8&#45;&gt;Node6</title>
<path fill="none" stroke="midnightblue" d="M115.03,-123.24C95.41,-97.35 61.34,-52.37 42.85,-27.96"/>
<polygon fill="midnightblue" stroke="midnightblue" points="45.41,-25.54 36.58,-19.69 39.83,-29.77 45.41,-25.54"/>
</g>
<!-- Node9&#45;&gt;Node3 -->
<g id="edge15" class="edge">
<title>Node9&#45;&gt;Node3</title>
<path fill="none" stroke="midnightblue" d="M433.71,-201.27C429.78,-176.85 421.72,-126.74 416.9,-96.74"/>
<polygon fill="midnightblue" stroke="midnightblue" points="420.32,-95.99 415.28,-86.68 413.41,-97.11 420.32,-95.99"/>
</g>
<!-- Node9&#45;&gt;Node4 -->
<g id="edge16" class="edge">
<title>Node9&#45;&gt;Node4</title>
<path fill="none" stroke="midnightblue" d="M370.93,-201.44C342.06,-193.44 308.48,-181.63 281,-165 258.15,-151.17 258.07,-140.63 238,-123 226.19,-112.63 212.59,-101.75 200.96,-92.76"/>
<polygon fill="midnightblue" stroke="midnightblue" points="202.97,-89.89 192.9,-86.58 198.71,-95.44 202.97,-89.89"/>
</g>
<!-- Node10 -->
<g id="node10" class="node">
<title>Node10</title>
<g id="a_node10"><a xlink:href="../../d6/d4b/_r_t_c___h_a_l_8hpp.html" target="_top" xlink:title=" ">
<polygon fill="none" stroke="black" points="290,-134.5 290,-153.5 370,-153.5 370,-134.5 290,-134.5"/>
<text text-anchor="middle" x="330" y="-141.5" font-family="Helvetica,sans-Serif" font-size="10.00">RTC_HAL.hpp</text>
</a>
</g>
</g>
<!-- Node9&#45;&gt;Node10 -->
<g id="edge17" class="edge">
<title>Node9&#45;&gt;Node10</title>
<path fill="none" stroke="midnightblue" d="M414.8,-201.4C396.32,-189.11 369.65,-171.37 351.17,-159.08"/>
<polygon fill="midnightblue" stroke="midnightblue" points="353.1,-156.16 342.83,-153.53 349.22,-161.99 353.1,-156.16"/>
</g>
<!-- Node12 -->
<g id="node12" class="node">
<title>Node12</title>
<g id="a_node12"><a xlink:title=" ">
<polygon fill="none" stroke="#bfbfbf" points="464,-134.5 464,-153.5 514,-153.5 514,-134.5 464,-134.5"/>
<text text-anchor="middle" x="489" y="-141.5" font-family="Helvetica,sans-Serif" font-size="10.00">chrono</text>
</a>
</g>
</g>
<!-- Node9&#45;&gt;Node12 -->
<g id="edge21" class="edge">
<title>Node9&#45;&gt;Node12</title>
<path fill="none" stroke="midnightblue" d="M446.73,-201.23C455.21,-189.95 467.09,-174.15 476.09,-162.17"/>
<polygon fill="midnightblue" stroke="midnightblue" points="479.1,-163.99 482.31,-153.89 473.51,-159.78 479.1,-163.99"/>
</g>
<!-- Node13 -->
<g id="node13" class="node">
<title>Node13</title>
<g id="a_node13"><a xlink:title=" ">
<polygon fill="none" stroke="#bfbfbf" points="532,-134.5 532,-153.5 588,-153.5 588,-134.5 532,-134.5"/>
<text text-anchor="middle" x="560" y="-141.5" font-family="Helvetica,sans-Serif" font-size="10.00">iomanip</text>
</a>
</g>
</g>
<!-- Node9&#45;&gt;Node13 -->
<g id="edge22" class="edge">
<title>Node9&#45;&gt;Node13</title>
<path fill="none" stroke="midnightblue" d="M460.8,-201.4C482.71,-188.94 514.47,-170.88 536.11,-158.58"/>
<polygon fill="midnightblue" stroke="midnightblue" points="538.03,-161.52 544.99,-153.53 534.57,-155.43 538.03,-161.52"/>
</g>
<!-- Node14 -->
<g id="node14" class="node">
<title>Node14</title>
<g id="a_node14"><a xlink:title=" ">
<polygon fill="none" stroke="#bfbfbf" points="606,-134.5 606,-153.5 654,-153.5 654,-134.5 606,-134.5"/>
<text text-anchor="middle" x="630" y="-141.5" font-family="Helvetica,sans-Serif" font-size="10.00">thread</text>
</a>
</g>
</g>
<!-- Node9&#45;&gt;Node14 -->
<g id="edge23" class="edge">
<title>Node9&#45;&gt;Node14</title>
<path fill="none" stroke="midnightblue" d="M492.37,-201.42C523.84,-192.67 563.36,-180.2 597,-165 600.98,-163.2 605.08,-161.02 608.97,-158.77"/>
<polygon fill="midnightblue" stroke="midnightblue" points="610.83,-161.73 617.54,-153.53 607.18,-155.76 610.83,-161.73"/>
</g>
<!-- Node10&#45;&gt;Node3 -->
<g id="edge18" class="edge">
<title>Node10&#45;&gt;Node3</title>
<path fill="none" stroke="midnightblue" d="M340.18,-134.36C352.12,-124.21 372.34,-107.04 388.45,-93.36"/>
<polygon fill="midnightblue" stroke="midnightblue" points="391.07,-95.72 396.43,-86.58 386.54,-90.38 391.07,-95.72"/>
</g>
<!-- Node10&#45;&gt;Node4 -->
<g id="edge19" class="edge">
<title>Node10&#45;&gt;Node4</title>
<path fill="none" stroke="midnightblue" d="M311.18,-134.5C287.31,-123.71 245.51,-104.82 214.3,-90.71"/>
<polygon fill="midnightblue" stroke="midnightblue" points="215.55,-87.43 204.99,-86.51 212.66,-93.81 215.55,-87.43"/>
</g>
<!-- Node11 -->
<g id="node11" class="node">
<title>Node11</title>
<g id="a_node11"><a xlink:title=" ">
<polygon fill="none" stroke="#bfbfbf" points="293,-62 293,-81 337,-81 337,-62 293,-62"/>
<text text-anchor="middle" x="315" y="-69" font-family="Helvetica,sans-Serif" font-size="10.00">ctime</text>
</a>
</g>
</g>
<!-- Node10&#45;&gt;Node11 -->
<g id="edge20" class="edge">
<title>Node10&#45;&gt;Node11</title>
<path fill="none" stroke="midnightblue" d="M328.16,-134.36C325.89,-123.68 321.96,-105.22 318.99,-91.23"/>
<polygon fill="midnightblue" stroke="midnightblue" points="322.36,-90.27 316.85,-81.22 315.51,-91.72 322.36,-90.27"/>
</g>
</g>
</svg>
        <g id="navigator" transform="translate(0 0)" fill="#404254">
                <rect fill="#f2f5e9" fill-opacity="0.5" stroke="#606060" stroke-width=".5" x="0" y="0" width="60" height="60"/>
                <use id="zoomplus" xlink:href="#zoomPlus" x="17" y="9" onmousedown="handleZoom(evt,'in')"/>
                <use id="zoomminus" xlink:href="#zoomMin" x="42" y="9" onmousedown="handleZoom(evt,'out')"/>
                <use id="reset" xlink:href="#resetDef" x="30" y="36" onmousedown="handleReset()"/>
                <g id="arrowUp" xlink:href="#dirArrow" transform="translate(30 24)" onmousedown="handlePan(0,-1)">
                  <use xlink:href="#rim" fill="#404040">
                        <set attributeName="fill" to="#808080" begin="arrowUp.mouseover" end="arrowUp.mouseout"/>
                  </use>
                  <path fill="none" stroke="white" stroke-width="1.5" d="M0,-3.0v7 M-2.5,-0.5L0,-3.0L2.5,-0.5"/>
                </g>
                <g id="arrowRight" xlink:href="#dirArrow" transform="rotate(90) translate(36 -43)" onmousedown="handlePan(1,0)">
                  <use xlink:href="#rim" fill="#404040">
                        <set attributeName="fill" to="#808080" begin="arrowRight.mouseover" end="arrowRight.mouseout"/>
                  </use>
                  <path fill="none" stroke="white" stroke-width="1.5" d="M0,-3.0v7 M-2.5,-0.5L0,-3.0L2.5,-0.5"/>
                </g>
                <g id="arrowDown" xlink:href="#dirArrow" transform="rotate(180) translate(-30 -48)" onmousedown="handlePan(0,1)">
                  <use xlink:href="#rim" fill="#404040">
                        <set attributeName="fill" to="#808080" begin="arrowDown.mouseover" end="arrowDown.mouseout"/>
                  </use>
                  <path fill="none" stroke="white" stroke-width="1.5" d="M0,-3.0v7 M-2.5,-0.5L0,-3.0L2.5,-0.5"/>
                </g>
                <g id="arrowLeft" xlink:href="#dirArrow" transform="rotate(270) translate(-36 17)" onmousedown="handlePan(-1,0)">
                  <use xlink:href="#rim" fill="#404040">
                        <set attributeName="fill" to="#808080" begin="arrowLeft.mouseover" end="arrowLeft.mouseout"/>
                  </use>
                  <path fill="none" stroke="white" stroke-width="1.5" d="M0,-3.0v7 M-2.5,-0.5L0,-3.0L2.5,-0.5"/>
                </g>
        </g>
        <svg viewBox="0 0 15 15" width="100%" height="30px" preserveAspectRatio="xMaxYMin meet">
         <g id="arrow_out" transform="scale(0.3 0.3)">
          <a xlink:href="_wi_fi___s_a_l__esp32_8cpp__incl_org.svg" target="_base">
           <rect id="button" ry="5" rx="5" y="6" x="6" height="38" width="38"
                fill="#f2f5e9" fill-opacity="0.5" stroke="#606060" stroke-width="1.0"/>
           <path id="arrow"
             d="M 11.500037,31.436501 C 11.940474,20.09759 22.043105,11.32322 32.158766,21.979434 L 37.068811,17.246167 C 37.068811,17.246167 37.088388,32 37.088388,32 L 22.160133,31.978069 C 22.160133,31.978069 26.997745,27.140456 26.997745,27.140456 C 18.528582,18.264221 13.291696,25.230495 11.500037,31.436501 z"
             style="fill:#404040;"/>
          </a>
         </g>
        </svg>
</svg>
