<?xml version="1.0" encoding="UTF-8" standalone="no"?>
<!DOCTYPE svg PUBLIC "-//W3C//DTD SVG 1.1//EN"
 "http://www.w3.org/Graphics/SVG/1.1/DTD/svg11.dtd">
<!-- Generated by graphviz version 2.43.0 (0)
 -->
<!-- Title: WaterEstimator_Service Pages: 1 -->
<svg width="1123pt" height="1196pt"
 viewBox="0.00 0.00 1122.50 1196.00" xmlns="http://www.w3.org/2000/svg" xmlns:xlink="http://www.w3.org/1999/xlink">
<g id="graph0" class="graph" transform="scale(1 1) rotate(0) translate(4 1192)">
<title>WaterEstimator_Service</title>
<!-- Node1 -->
<g id="node1" class="node">
<title>Node1</title>
<g id="a_node1"><a xlink:title=" ">
<polygon fill="#bfbfbf" stroke="black" points="387.5,-0.5 387.5,-79.5 548.5,-79.5 548.5,-0.5 387.5,-0.5"/>
<text text-anchor="middle" x="468" y="-67.5" font-family="Helvetica,sans-Serif" font-size="10.00">WaterEstimator_Service</text>
<polyline fill="none" stroke="black" points="387.5,-60.5 548.5,-60.5 "/>
<text text-anchor="middle" x="468" y="-48.5" font-family="Helvetica,sans-Serif" font-size="10.00"> </text>
<polyline fill="none" stroke="black" points="387.5,-41.5 548.5,-41.5 "/>
<text text-anchor="start" x="395.5" y="-29.5" font-family="Helvetica,sans-Serif" font-size="10.00">+ WaterEstimator_Service()</text>
<text text-anchor="start" x="395.5" y="-18.5" font-family="Helvetica,sans-Serif" font-size="10.00">+ ~WaterEstimator_Service()</text>
<text text-anchor="start" x="395.5" y="-7.5" font-family="Helvetica,sans-Serif" font-size="10.00">&#45; mainFunction()</text>
</a>
</g>
</g>
<!-- Node2 -->
<g id="node2" class="node">
<title>Node2</title>
<g id="a_node2"><a xlink:href="../../d4/d82/class_service_base.html" target="_top" xlink:title=" ">
<polygon fill="none" stroke="black" points="380,-166 380,-300 556,-300 556,-166 380,-166"/>
<text text-anchor="middle" x="468" y="-288" font-family="Helvetica,sans-Serif" font-size="10.00">ServiceBase&lt; MQTT_Message &gt;</text>
<polyline fill="none" stroke="black" points="380,-281 556,-281 "/>
<text text-anchor="start" x="388" y="-269" font-family="Helvetica,sans-Serif" font-size="10.00">&#45; m_error_id</text>
<polyline fill="none" stroke="black" points="380,-262 556,-262 "/>
<text text-anchor="start" x="388" y="-250" font-family="Helvetica,sans-Serif" font-size="10.00">+ ServiceBase()</text>
<text text-anchor="start" x="388" y="-239" font-family="Helvetica,sans-Serif" font-size="10.00">+ ~ServiceBase()</text>
<text text-anchor="start" x="388" y="-228" font-family="Helvetica,sans-Serif" font-size="10.00">+ isActive()</text>
<text text-anchor="start" x="388" y="-217" font-family="Helvetica,sans-Serif" font-size="10.00">+ getQueue()</text>
<text text-anchor="start" x="388" y="-206" font-family="Helvetica,sans-Serif" font-size="10.00"># mainFunction()</text>
<text text-anchor="start" x="388" y="-195" font-family="Helvetica,sans-Serif" font-size="10.00"># setIsActive()</text>
<text text-anchor="start" x="388" y="-184" font-family="Helvetica,sans-Serif" font-size="10.00"># postData()</text>
<text text-anchor="start" x="388" y="-173" font-family="Helvetica,sans-Serif" font-size="10.00"># run()</text>
</a>
</g>
</g>
<!-- Node2&#45;&gt;Node1 -->
<g id="edge1" class="edge">
<title>Node2&#45;&gt;Node1</title>
<path fill="none" stroke="midnightblue" d="M468,-155.48C468,-129.41 468,-101.39 468,-79.59"/>
<polygon fill="none" stroke="midnightblue" points="464.5,-155.73 468,-165.73 471.5,-155.73 464.5,-155.73"/>
</g>
<!-- Node3 -->
<g id="node3" class="node">
<title>Node3</title>
<g id="a_node3"><a xlink:href="../../d7/d6d/class_task.html" target="_top" xlink:title="Encapsulate a runnable task.">
<polygon fill="none" stroke="black" points="271,-667.5 271,-878.5 369,-878.5 369,-667.5 271,-667.5"/>
<text text-anchor="middle" x="320" y="-866.5" font-family="Helvetica,sans-Serif" font-size="10.00">Task</text>
<polyline fill="none" stroke="black" points="271,-859.5 369,-859.5 "/>
<text text-anchor="start" x="279" y="-847.5" font-family="Helvetica,sans-Serif" font-size="10.00">&#45; m_handle</text>
<text text-anchor="start" x="279" y="-836.5" font-family="Helvetica,sans-Serif" font-size="10.00">&#45; m_stackSize</text>
<text text-anchor="start" x="279" y="-825.5" font-family="Helvetica,sans-Serif" font-size="10.00">&#45; m_priority</text>
<text text-anchor="start" x="279" y="-814.5" font-family="Helvetica,sans-Serif" font-size="10.00">&#45; m_taskData</text>
<text text-anchor="start" x="279" y="-803.5" font-family="Helvetica,sans-Serif" font-size="10.00">&#45; m_coreId</text>
<polyline fill="none" stroke="black" points="271,-796.5 369,-796.5 "/>
<text text-anchor="start" x="279" y="-784.5" font-family="Helvetica,sans-Serif" font-size="10.00">+ Task()</text>
<text text-anchor="start" x="279" y="-773.5" font-family="Helvetica,sans-Serif" font-size="10.00">+ ~Task()</text>
<text text-anchor="start" x="279" y="-762.5" font-family="Helvetica,sans-Serif" font-size="10.00">+ setStackSize()</text>
<text text-anchor="start" x="279" y="-751.5" font-family="Helvetica,sans-Serif" font-size="10.00">+ setPriority()</text>
<text text-anchor="start" x="279" y="-740.5" font-family="Helvetica,sans-Serif" font-size="10.00">+ setName()</text>
<text text-anchor="start" x="279" y="-729.5" font-family="Helvetica,sans-Serif" font-size="10.00">+ setCore()</text>
<text text-anchor="start" x="279" y="-718.5" font-family="Helvetica,sans-Serif" font-size="10.00">+ start()</text>
<text text-anchor="start" x="279" y="-707.5" font-family="Helvetica,sans-Serif" font-size="10.00">+ stop()</text>
<text text-anchor="start" x="279" y="-696.5" font-family="Helvetica,sans-Serif" font-size="10.00">+ run()</text>
<text text-anchor="start" x="279" y="-685.5" font-family="Helvetica,sans-Serif" font-size="10.00">+ delay()</text>
<text text-anchor="start" x="279" y="-674.5" font-family="Helvetica,sans-Serif" font-size="10.00">&#45; runTask()</text>
</a>
</g>
</g>
<!-- Node3&#45;&gt;Node2 -->
<g id="edge2" class="edge">
<title>Node3&#45;&gt;Node2</title>
<path fill="none" stroke="midnightblue" d="M309.07,-656.65C305.88,-577.79 310.2,-472.31 344,-386 356.23,-354.76 377.41,-325.06 398.83,-300.34"/>
<polygon fill="none" stroke="midnightblue" points="305.59,-657.28 309.54,-667.11 312.59,-656.96 305.59,-657.28"/>
</g>
<!-- Node16 -->
<g id="node16" class="node">
<title>Node16</title>
<g id="a_node16"><a xlink:href="../../d4/d82/class_service_base.html" target="_top" xlink:title=" ">
<polygon fill="none" stroke="black" points="422.5,-425 422.5,-581 549.5,-581 549.5,-425 422.5,-425"/>
<text text-anchor="start" x="430.5" y="-569" font-family="Helvetica,sans-Serif" font-size="10.00">ServiceBase&lt; BUFFER</text>
<text text-anchor="middle" x="486" y="-558" font-family="Helvetica,sans-Serif" font-size="10.00">_TYPE, QUEUE_TYPE &gt;</text>
<polyline fill="none" stroke="black" points="422.5,-551 549.5,-551 "/>
<text text-anchor="start" x="430.5" y="-539" font-family="Helvetica,sans-Serif" font-size="10.00"># m_buffer</text>
<text text-anchor="start" x="430.5" y="-528" font-family="Helvetica,sans-Serif" font-size="10.00">&#45; m_error_id</text>
<polyline fill="none" stroke="black" points="422.5,-521 549.5,-521 "/>
<text text-anchor="start" x="430.5" y="-509" font-family="Helvetica,sans-Serif" font-size="10.00">+ ServiceBase()</text>
<text text-anchor="start" x="430.5" y="-498" font-family="Helvetica,sans-Serif" font-size="10.00">+ ~ServiceBase()</text>
<text text-anchor="start" x="430.5" y="-487" font-family="Helvetica,sans-Serif" font-size="10.00">+ isActive()</text>
<text text-anchor="start" x="430.5" y="-476" font-family="Helvetica,sans-Serif" font-size="10.00">+ getQueue()</text>
<text text-anchor="start" x="430.5" y="-465" font-family="Helvetica,sans-Serif" font-size="10.00"># mainFunction()</text>
<text text-anchor="start" x="430.5" y="-454" font-family="Helvetica,sans-Serif" font-size="10.00"># setIsActive()</text>
<text text-anchor="start" x="430.5" y="-443" font-family="Helvetica,sans-Serif" font-size="10.00"># postData()</text>
<text text-anchor="start" x="430.5" y="-432" font-family="Helvetica,sans-Serif" font-size="10.00"># run()</text>
</a>
</g>
</g>
<!-- Node3&#45;&gt;Node16 -->
<g id="edge19" class="edge">
<title>Node3&#45;&gt;Node16</title>
<path fill="none" stroke="midnightblue" d="M374.37,-673.04C375.58,-671.01 376.79,-668.99 378,-667 388.25,-650.09 411.54,-614.81 433.87,-581.39"/>
<polygon fill="none" stroke="midnightblue" points="371.1,-671.69 369.04,-682.08 377.13,-675.24 371.1,-671.69"/>
</g>
<!-- Node4 -->
<g id="node4" class="node">
<title>Node4</title>
<g id="a_node4"><a xlink:title="STL class.">
<polygon fill="none" stroke="#bfbfbf" points="287.5,-976 287.5,-1033 352.5,-1033 352.5,-976 287.5,-976"/>
<text text-anchor="middle" x="320" y="-1021" font-family="Helvetica,sans-Serif" font-size="10.00">std::string</text>
<polyline fill="none" stroke="#bfbfbf" points="287.5,-1014 352.5,-1014 "/>
<text text-anchor="middle" x="320" y="-1002" font-family="Helvetica,sans-Serif" font-size="10.00"> </text>
<polyline fill="none" stroke="#bfbfbf" points="287.5,-995 352.5,-995 "/>
<text text-anchor="middle" x="320" y="-983" font-family="Helvetica,sans-Serif" font-size="10.00"> </text>
</a>
</g>
</g>
<!-- Node4&#45;&gt;Node3 -->
<g id="edge3" class="edge">
<title>Node4&#45;&gt;Node3</title>
<path fill="none" stroke="#404040" d="M320,-975.82C320,-954.2 320,-922.58 320,-890.75"/>
<polygon fill="none" stroke="#404040" points="320,-890.57 316,-884.57 320,-878.57 324,-884.57 320,-890.57"/>
<text text-anchor="middle" x="356.5" y="-905.5" font-family="Helvetica,sans-Serif" font-size="10.00"> &#45;m_taskName</text>
</g>
<!-- Node11 -->
<g id="node11" class="node">
<title>Node11</title>
<g id="a_node11"><a xlink:href="../../d5/d81/class_m_q_t_t___message.html" target="_top" xlink:title=" ">
<polygon fill="none" stroke="black" points="112.5,-386.5 112.5,-619.5 273.5,-619.5 273.5,-386.5 112.5,-386.5"/>
<text text-anchor="middle" x="193" y="-607.5" font-family="Helvetica,sans-Serif" font-size="10.00">MQTT_Message</text>
<polyline fill="none" stroke="black" points="112.5,-600.5 273.5,-600.5 "/>
<text text-anchor="start" x="120.5" y="-588.5" font-family="Helvetica,sans-Serif" font-size="10.00">&#45; m_entity_id</text>
<text text-anchor="start" x="120.5" y="-577.5" font-family="Helvetica,sans-Serif" font-size="10.00">&#45; m_buffer_size</text>
<polyline fill="none" stroke="black" points="112.5,-570.5 273.5,-570.5 "/>
<text text-anchor="start" x="120.5" y="-558.5" font-family="Helvetica,sans-Serif" font-size="10.00">+ MQTT_Message()</text>
<text text-anchor="start" x="120.5" y="-547.5" font-family="Helvetica,sans-Serif" font-size="10.00">+ MQTT_Message()</text>
<text text-anchor="start" x="120.5" y="-536.5" font-family="Helvetica,sans-Serif" font-size="10.00">+ ~MQTT_Message()</text>
<text text-anchor="start" x="120.5" y="-525.5" font-family="Helvetica,sans-Serif" font-size="10.00">+ addData()</text>
<text text-anchor="start" x="120.5" y="-514.5" font-family="Helvetica,sans-Serif" font-size="10.00">+ addData()</text>
<text text-anchor="start" x="120.5" y="-503.5" font-family="Helvetica,sans-Serif" font-size="10.00">+ addData_f()</text>
<text text-anchor="start" x="120.5" y="-492.5" font-family="Helvetica,sans-Serif" font-size="10.00">+ isEmpty()</text>
<text text-anchor="start" x="120.5" y="-481.5" font-family="Helvetica,sans-Serif" font-size="10.00">+ toString()</text>
<text text-anchor="start" x="120.5" y="-470.5" font-family="Helvetica,sans-Serif" font-size="10.00">+ clear()</text>
<text text-anchor="start" x="120.5" y="-459.5" font-family="Helvetica,sans-Serif" font-size="10.00">+ getBufferSize()</text>
<text text-anchor="start" x="120.5" y="-448.5" font-family="Helvetica,sans-Serif" font-size="10.00">+ append()</text>
<text text-anchor="start" x="120.5" y="-437.5" font-family="Helvetica,sans-Serif" font-size="10.00">+ getData()</text>
<text text-anchor="start" x="120.5" y="-426.5" font-family="Helvetica,sans-Serif" font-size="10.00">+ getMaxAllowedBufferSize()</text>
<text text-anchor="start" x="120.5" y="-415.5" font-family="Helvetica,sans-Serif" font-size="10.00">+ getEntityId()</text>
<text text-anchor="start" x="120.5" y="-404.5" font-family="Helvetica,sans-Serif" font-size="10.00">+ copyTo()</text>
<text text-anchor="start" x="120.5" y="-393.5" font-family="Helvetica,sans-Serif" font-size="10.00">+ construct()</text>
</a>
</g>
</g>
<!-- Node4&#45;&gt;Node11 -->
<g id="edge11" class="edge">
<title>Node4&#45;&gt;Node11</title>
<path fill="none" stroke="#404040" d="M287.45,-984.8C254.58,-963.83 205.79,-926.45 185,-879 151.14,-801.72 153.61,-706.6 164.3,-631.5"/>
<polygon fill="none" stroke="#404040" points="164.3,-631.5 161.23,-624.97 166.08,-619.63 169.15,-626.16 164.3,-631.5"/>
<text text-anchor="middle" x="223.5" y="-770.5" font-family="Helvetica,sans-Serif" font-size="10.00"> &#45;m_semaphore</text>
</g>
<!-- Node14 -->
<g id="node14" class="node">
<title>Node14</title>
<g id="a_node14"><a xlink:href="../../d5/de7/classmqtt__api__v2.html" target="_top" xlink:title=" ">
<polygon fill="none" stroke="black" points="387,-700.5 387,-845.5 491,-845.5 491,-700.5 387,-700.5"/>
<text text-anchor="middle" x="439" y="-833.5" font-family="Helvetica,sans-Serif" font-size="10.00">mqtt_api_v2</text>
<polyline fill="none" stroke="black" points="387,-826.5 491,-826.5 "/>
<text text-anchor="middle" x="439" y="-814.5" font-family="Helvetica,sans-Serif" font-size="10.00"> </text>
<polyline fill="none" stroke="black" points="387,-807.5 491,-807.5 "/>
<text text-anchor="start" x="395" y="-795.5" font-family="Helvetica,sans-Serif" font-size="10.00">+ mqtt_api_v2()</text>
<text text-anchor="start" x="395" y="-784.5" font-family="Helvetica,sans-Serif" font-size="10.00">+ ~mqtt_api_v2()</text>
<text text-anchor="start" x="395" y="-773.5" font-family="Helvetica,sans-Serif" font-size="10.00">+ publish()</text>
<text text-anchor="start" x="395" y="-762.5" font-family="Helvetica,sans-Serif" font-size="10.00">+ subscribe()</text>
<text text-anchor="start" x="395" y="-751.5" font-family="Helvetica,sans-Serif" font-size="10.00">+ subscribe()</text>
<text text-anchor="start" x="395" y="-740.5" font-family="Helvetica,sans-Serif" font-size="10.00">+ getData()</text>
<text text-anchor="start" x="395" y="-729.5" font-family="Helvetica,sans-Serif" font-size="10.00">&#45; connect()</text>
<text text-anchor="start" x="395" y="-718.5" font-family="Helvetica,sans-Serif" font-size="10.00">&#45; disconnect()</text>
<text text-anchor="start" x="395" y="-707.5" font-family="Helvetica,sans-Serif" font-size="10.00">&#45; handle_event()</text>
</a>
</g>
</g>
<!-- Node4&#45;&gt;Node14 -->
<g id="edge16" class="edge">
<title>Node4&#45;&gt;Node14</title>
<path fill="none" stroke="#404040" d="M351.48,-975.65C367.13,-960.31 385.17,-940.13 397,-919 407.59,-900.08 415.73,-878.25 421.88,-857.36"/>
<polygon fill="none" stroke="#404040" points="421.96,-857.1 419.72,-850.24 425.19,-845.54 427.43,-852.4 421.96,-857.1"/>
<text text-anchor="middle" x="424.5" y="-905.5" font-family="Helvetica,sans-Serif" font-size="10.00"> &#45;m_uri</text>
</g>
<!-- Node5 -->
<g id="node5" class="node">
<title>Node5</title>
<g id="a_node5"><a xlink:title="STL class.">
<polygon fill="none" stroke="#bfbfbf" points="268,-1119.5 268,-1187.5 372,-1187.5 372,-1119.5 268,-1119.5"/>
<text text-anchor="start" x="276" y="-1175.5" font-family="Helvetica,sans-Serif" font-size="10.00">std::basic_string&lt;</text>
<text text-anchor="middle" x="320" y="-1164.5" font-family="Helvetica,sans-Serif" font-size="10.00"> char &gt;</text>
<polyline fill="none" stroke="#bfbfbf" points="268,-1157.5 372,-1157.5 "/>
<text text-anchor="middle" x="320" y="-1145.5" font-family="Helvetica,sans-Serif" font-size="10.00"> </text>
<polyline fill="none" stroke="#bfbfbf" points="268,-1138.5 372,-1138.5 "/>
<text text-anchor="middle" x="320" y="-1126.5" font-family="Helvetica,sans-Serif" font-size="10.00"> </text>
</a>
</g>
</g>
<!-- Node5&#45;&gt;Node4 -->
<g id="edge4" class="edge">
<title>Node5&#45;&gt;Node4</title>
<path fill="none" stroke="midnightblue" d="M320,-1109.01C320,-1084.51 320,-1054.64 320,-1033.3"/>
<polygon fill="none" stroke="midnightblue" points="316.5,-1109.14 320,-1119.14 323.5,-1109.14 316.5,-1109.14"/>
</g>
<!-- Node6 -->
<g id="node6" class="node">
<title>Node6</title>
<g id="a_node6"><a xlink:title=" ">
<polygon fill="none" stroke="#bfbfbf" points="509.5,-744.5 509.5,-801.5 624.5,-801.5 624.5,-744.5 509.5,-744.5"/>
<text text-anchor="middle" x="567" y="-789.5" font-family="Helvetica,sans-Serif" font-size="10.00">std::atomic&lt; bool &gt;</text>
<polyline fill="none" stroke="#bfbfbf" points="509.5,-782.5 624.5,-782.5 "/>
<text text-anchor="start" x="517.5" y="-770.5" font-family="Helvetica,sans-Serif" font-size="10.00">+ ptr</text>
<polyline fill="none" stroke="#bfbfbf" points="509.5,-763.5 624.5,-763.5 "/>
<text text-anchor="middle" x="567" y="-751.5" font-family="Helvetica,sans-Serif" font-size="10.00"> </text>
</a>
</g>
</g>
<!-- Node6&#45;&gt;Node2 -->
<g id="edge5" class="edge">
<title>Node6&#45;&gt;Node2</title>
<path fill="none" stroke="#404040" d="M569.86,-744.37C577.84,-663.46 598.1,-428.3 572,-357 565.95,-340.46 556.58,-324.62 545.89,-310.13"/>
<polygon fill="none" stroke="#404040" points="545.65,-309.82 538.82,-307.52 538.31,-300.32 545.14,-302.62 545.65,-309.82"/>
<text text-anchor="middle" x="615.5" y="-500.5" font-family="Helvetica,sans-Serif" font-size="10.00"> &#45;m_isActive</text>
</g>
<!-- Node6&#45;&gt;Node16 -->
<g id="edge20" class="edge">
<title>Node6&#45;&gt;Node16</title>
<path fill="none" stroke="#404040" d="M547.19,-744.2C531.22,-720.21 509.72,-684 499,-649 493.6,-631.36 490.22,-611.98 488.15,-593.3"/>
<polygon fill="none" stroke="#404040" points="488.13,-593.09 483.57,-587.51 486.97,-581.15 491.53,-586.74 488.13,-593.09"/>
<text text-anchor="middle" x="529.5" y="-641" font-family="Helvetica,sans-Serif" font-size="10.00"> &#45;m_isActive</text>
</g>
<!-- Node7 -->
<g id="node7" class="node">
<title>Node7</title>
<g id="a_node7"><a xlink:title="STL class.">
<polygon fill="none" stroke="#bfbfbf" points="474,-976 474,-1033 574,-1033 574,-976 474,-976"/>
<text text-anchor="middle" x="524" y="-1021" font-family="Helvetica,sans-Serif" font-size="10.00">std::atomic&lt; T &gt;</text>
<polyline fill="none" stroke="#bfbfbf" points="474,-1014 574,-1014 "/>
<text text-anchor="middle" x="524" y="-1002" font-family="Helvetica,sans-Serif" font-size="10.00"> </text>
<polyline fill="none" stroke="#bfbfbf" points="474,-995 574,-995 "/>
<text text-anchor="middle" x="524" y="-983" font-family="Helvetica,sans-Serif" font-size="10.00"> </text>
</a>
</g>
</g>
<!-- Node7&#45;&gt;Node6 -->
<g id="edge6" class="edge">
<title>Node7&#45;&gt;Node6</title>
<path fill="none" stroke="orange" d="M531.04,-965.92C539.67,-919.85 554.1,-842.85 561.79,-801.78"/>
<polygon fill="orange" stroke="orange" points="527.59,-965.34 529.19,-975.82 534.47,-966.63 527.59,-965.34"/>
<text text-anchor="middle" x="566.5" y="-905.5" font-family="Helvetica,sans-Serif" font-size="10.00"> &lt; bool &gt;</text>
</g>
<!-- Node8 -->
<g id="node8" class="node">
<title>Node8</title>
<g id="a_node8"><a xlink:title=" ">
<polygon fill="none" stroke="#bfbfbf" points="217.5,-1125 217.5,-1182 246.5,-1182 246.5,-1125 217.5,-1125"/>
<text text-anchor="middle" x="232" y="-1170" font-family="Helvetica,sans-Serif" font-size="10.00">T</text>
<polyline fill="none" stroke="#bfbfbf" points="217.5,-1163 246.5,-1163 "/>
<text text-anchor="middle" x="232" y="-1151" font-family="Helvetica,sans-Serif" font-size="10.00"> </text>
<polyline fill="none" stroke="#bfbfbf" points="217.5,-1144 246.5,-1144 "/>
<text text-anchor="middle" x="232" y="-1132" font-family="Helvetica,sans-Serif" font-size="10.00"> </text>
</a>
</g>
</g>
<!-- Node8&#45;&gt;Node7 -->
<g id="edge7" class="edge">
<title>Node8&#45;&gt;Node7</title>
<path fill="none" stroke="#404040" d="M246.56,-1131.19C250.26,-1126.77 254.48,-1122.43 259,-1119 267.68,-1112.42 387.07,-1062.32 462.61,-1030.92"/>
<polygon fill="none" stroke="#404040" points="462.79,-1030.84 466.79,-1024.84 473.87,-1026.24 469.86,-1032.23 462.79,-1030.84"/>
<text text-anchor="middle" x="334.5" y="-1093" font-family="Helvetica,sans-Serif" font-size="10.00"> +ptr</text>
</g>
<!-- Node13 -->
<g id="node13" class="node">
<title>Node13</title>
<g id="a_node13"><a xlink:title="STL class.">
<polygon fill="none" stroke="#bfbfbf" points="94.5,-976 94.5,-1033 191.5,-1033 191.5,-976 94.5,-976"/>
<text text-anchor="middle" x="143" y="-1021" font-family="Helvetica,sans-Serif" font-size="10.00">std::vector&lt; T &gt;</text>
<polyline fill="none" stroke="#bfbfbf" points="94.5,-1014 191.5,-1014 "/>
<text text-anchor="middle" x="143" y="-1002" font-family="Helvetica,sans-Serif" font-size="10.00"> </text>
<polyline fill="none" stroke="#bfbfbf" points="94.5,-995 191.5,-995 "/>
<text text-anchor="middle" x="143" y="-983" font-family="Helvetica,sans-Serif" font-size="10.00"> </text>
</a>
</g>
</g>
<!-- Node8&#45;&gt;Node13 -->
<g id="edge14" class="edge">
<title>Node8&#45;&gt;Node13</title>
<path fill="none" stroke="#404040" d="M217.3,-1128.23C203.37,-1105.22 182.23,-1070.3 166.06,-1043.59"/>
<polygon fill="none" stroke="#404040" points="165.9,-1043.33 159.38,-1040.27 159.69,-1033.07 166.22,-1036.13 165.9,-1043.33"/>
<text text-anchor="middle" x="230" y="-1093" font-family="Helvetica,sans-Serif" font-size="10.00"> +elements</text>
</g>
<!-- Node9 -->
<g id="node9" class="node">
<title>Node9</title>
<g id="a_node9"><a xlink:href="../../d1/d2c/class_g_p_i_o___a_p_i.html" target="_top" xlink:title=" ">
<polygon fill="none" stroke="black" points="656.5,-667.5 656.5,-878.5 769.5,-878.5 769.5,-667.5 656.5,-667.5"/>
<text text-anchor="middle" x="713" y="-866.5" font-family="Helvetica,sans-Serif" font-size="10.00">GPIO_API</text>
<polyline fill="none" stroke="black" points="656.5,-859.5 769.5,-859.5 "/>
<text text-anchor="start" x="664.5" y="-847.5" font-family="Helvetica,sans-Serif" font-size="10.00">&#45; m_pin</text>
<text text-anchor="start" x="664.5" y="-836.5" font-family="Helvetica,sans-Serif" font-size="10.00">&#45; is_Output</text>
<text text-anchor="start" x="664.5" y="-825.5" font-family="Helvetica,sans-Serif" font-size="10.00">&#45; is_high</text>
<polyline fill="none" stroke="black" points="656.5,-818.5 769.5,-818.5 "/>
<text text-anchor="start" x="664.5" y="-806.5" font-family="Helvetica,sans-Serif" font-size="10.00">+ GPIO_API()</text>
<text text-anchor="start" x="664.5" y="-795.5" font-family="Helvetica,sans-Serif" font-size="10.00">+ GPIO_API()</text>
<text text-anchor="start" x="664.5" y="-784.5" font-family="Helvetica,sans-Serif" font-size="10.00">+ ~GPIO_API()</text>
<text text-anchor="start" x="664.5" y="-773.5" font-family="Helvetica,sans-Serif" font-size="10.00">+ toggle()</text>
<text text-anchor="start" x="664.5" y="-762.5" font-family="Helvetica,sans-Serif" font-size="10.00">+ setToInput()</text>
<text text-anchor="start" x="664.5" y="-751.5" font-family="Helvetica,sans-Serif" font-size="10.00">+ setToOutput()</text>
<text text-anchor="start" x="664.5" y="-740.5" font-family="Helvetica,sans-Serif" font-size="10.00">+ setHigh()</text>
<text text-anchor="start" x="664.5" y="-729.5" font-family="Helvetica,sans-Serif" font-size="10.00">+ setLow()</text>
<text text-anchor="start" x="664.5" y="-718.5" font-family="Helvetica,sans-Serif" font-size="10.00">+ isHigh()</text>
<text text-anchor="start" x="664.5" y="-707.5" font-family="Helvetica,sans-Serif" font-size="10.00">+ isLow()</text>
<text text-anchor="start" x="664.5" y="-696.5" font-family="Helvetica,sans-Serif" font-size="10.00">+ installInterrupt()</text>
<text text-anchor="start" x="664.5" y="-685.5" font-family="Helvetica,sans-Serif" font-size="10.00">+ enableInterrupt()</text>
<text text-anchor="start" x="664.5" y="-674.5" font-family="Helvetica,sans-Serif" font-size="10.00">+ disableInterrupt()</text>
</a>
</g>
</g>
<!-- Node9&#45;&gt;Node2 -->
<g id="edge8" class="edge">
<title>Node9&#45;&gt;Node2</title>
<path fill="none" stroke="#404040" d="M755.35,-667.18C756.19,-657.38 755.89,-647.55 754,-638 730.44,-519.15 721.69,-483.67 650,-386 626.81,-354.41 595.7,-325.29 565.77,-301.18"/>
<polygon fill="none" stroke="#404040" points="565.51,-300.98 558.32,-300.39 556.1,-293.53 563.29,-294.12 565.51,-300.98"/>
<text text-anchor="middle" x="784" y="-500.5" font-family="Helvetica,sans-Serif" font-size="10.00"> #m_test_pin</text>
</g>
<!-- Node9&#45;&gt;Node16 -->
<g id="edge21" class="edge">
<title>Node9&#45;&gt;Node16</title>
<path fill="none" stroke="#404040" d="M656.42,-691.95C648.95,-683.17 641.07,-674.65 633,-667 619.54,-654.23 577.08,-633.16 564,-620 555.25,-611.2 546.88,-601.28 539.09,-591.04"/>
<polygon fill="none" stroke="#404040" points="538.93,-590.82 532.15,-588.37 531.81,-581.16 538.59,-583.62 538.93,-590.82"/>
<text text-anchor="middle" x="640" y="-641" font-family="Helvetica,sans-Serif" font-size="10.00"> #m_test_pin</text>
</g>
<!-- Node10 -->
<g id="node10" class="node">
<title>Node10</title>
<g id="a_node10"><a xlink:href="../../d4/d57/class_g_p_i_o___h_a_l.html" target="_top" xlink:title=" ">
<polygon fill="none" stroke="black" points="644.5,-937.5 644.5,-1071.5 781.5,-1071.5 781.5,-937.5 644.5,-937.5"/>
<text text-anchor="middle" x="713" y="-1059.5" font-family="Helvetica,sans-Serif" font-size="10.00">GPIO_HAL</text>
<polyline fill="none" stroke="black" points="644.5,-1052.5 781.5,-1052.5 "/>
<text text-anchor="middle" x="713" y="-1040.5" font-family="Helvetica,sans-Serif" font-size="10.00"> </text>
<polyline fill="none" stroke="black" points="644.5,-1033.5 781.5,-1033.5 "/>
<text text-anchor="start" x="652.5" y="-1021.5" font-family="Helvetica,sans-Serif" font-size="10.00">+ GPIO_HAL()</text>
<text text-anchor="start" x="652.5" y="-1010.5" font-family="Helvetica,sans-Serif" font-size="10.00">+ ~GPIO_HAL()</text>
<text text-anchor="start" x="652.5" y="-999.5" font-family="Helvetica,sans-Serif" font-size="10.00">+ setDirection()</text>
<text text-anchor="start" x="652.5" y="-988.5" font-family="Helvetica,sans-Serif" font-size="10.00">+ setValue()</text>
<text text-anchor="start" x="652.5" y="-977.5" font-family="Helvetica,sans-Serif" font-size="10.00">+ getValue()</text>
<text text-anchor="start" x="652.5" y="-966.5" font-family="Helvetica,sans-Serif" font-size="10.00">+ installInterruptDriver()</text>
<text text-anchor="start" x="652.5" y="-955.5" font-family="Helvetica,sans-Serif" font-size="10.00">+ enableInterrupt()</text>
<text text-anchor="start" x="652.5" y="-944.5" font-family="Helvetica,sans-Serif" font-size="10.00">+ disableInterrupt()</text>
</a>
</g>
</g>
<!-- Node10&#45;&gt;Node9 -->
<g id="edge9" class="edge">
<title>Node10&#45;&gt;Node9</title>
<path fill="none" stroke="#404040" d="M713,-937.43C713,-922.76 713,-906.79 713,-890.77"/>
<polygon fill="none" stroke="#404040" points="713,-890.52 709,-884.52 713,-878.52 717,-884.52 713,-890.52"/>
<text text-anchor="middle" x="731.5" y="-905.5" font-family="Helvetica,sans-Serif" font-size="10.00"> &#45;m_hal</text>
</g>
<!-- Node11&#45;&gt;Node1 -->
<g id="edge26" class="edge">
<title>Node11&#45;&gt;Node1</title>
<path fill="none" stroke="#404040" d="M206.38,-386.18C220.91,-305.67 250.99,-200.12 313,-127 330.17,-106.75 353.38,-90.38 376.6,-77.57"/>
<polygon fill="none" stroke="#404040" points="376.64,-77.55 380.07,-71.21 387.25,-71.94 383.82,-78.28 376.64,-77.55"/>
<text text-anchor="middle" x="342" y="-241.5" font-family="Helvetica,sans-Serif" font-size="10.00"> &#45;msg_min</text>
<text text-anchor="middle" x="342" y="-230.5" font-family="Helvetica,sans-Serif" font-size="10.00">&#45;msg_count</text>
<text text-anchor="middle" x="342" y="-219.5" font-family="Helvetica,sans-Serif" font-size="10.00">&#45;msg_max</text>
</g>
<!-- Node11&#45;&gt;Node2 -->
<g id="edge10" class="edge">
<title>Node11&#45;&gt;Node2</title>
<path fill="none" stroke="#404040" d="M222.86,-386.43C228.24,-375.87 234.56,-365.85 242,-357 260.42,-335.09 317.02,-304.3 368.96,-279.01"/>
<polygon fill="none" stroke="#404040" points="369.16,-278.92 372.82,-272.7 379.96,-273.7 376.3,-279.91 369.16,-278.92"/>
<text text-anchor="middle" x="270" y="-360" font-family="Helvetica,sans-Serif" font-size="10.00"> #m_buffer</text>
</g>
<!-- Node12 -->
<g id="node12" class="node">
<title>Node12</title>
<g id="a_node12"><a xlink:title=" ">
<polygon fill="none" stroke="#bfbfbf" points="0,-739 0,-807 136,-807 136,-739 0,-739"/>
<text text-anchor="start" x="8" y="-795" font-family="Helvetica,sans-Serif" font-size="10.00">std::vector&lt; std::pair</text>
<text text-anchor="middle" x="68" y="-784" font-family="Helvetica,sans-Serif" font-size="10.00">&lt; uint64_t, uint64_t &gt; &gt;</text>
<polyline fill="none" stroke="#bfbfbf" points="0,-777 136,-777 "/>
<text text-anchor="start" x="8" y="-765" font-family="Helvetica,sans-Serif" font-size="10.00">+ elements</text>
<polyline fill="none" stroke="#bfbfbf" points="0,-758 136,-758 "/>
<text text-anchor="middle" x="68" y="-746" font-family="Helvetica,sans-Serif" font-size="10.00"> </text>
</a>
</g>
</g>
<!-- Node12&#45;&gt;Node11 -->
<g id="edge12" class="edge">
<title>Node12&#45;&gt;Node11</title>
<path fill="none" stroke="#404040" d="M78.75,-738.94C88.07,-711.46 102.45,-671.57 118,-638 119.14,-635.54 120.3,-633.07 121.49,-630.59"/>
<polygon fill="none" stroke="#404040" points="121.57,-630.42 120.62,-623.27 126.85,-619.64 127.8,-626.79 121.57,-630.42"/>
<text text-anchor="middle" x="140" y="-641" font-family="Helvetica,sans-Serif" font-size="10.00"> &#45;m_data</text>
</g>
<!-- Node13&#45;&gt;Node12 -->
<g id="edge13" class="edge">
<title>Node13&#45;&gt;Node12</title>
<path fill="none" stroke="orange" d="M100.06,-968.87C86.12,-955.01 72.37,-937.84 65,-919 50.83,-882.77 54.86,-837.46 60.28,-807.22"/>
<polygon fill="orange" stroke="orange" points="97.68,-971.44 107.33,-975.81 102.51,-966.38 97.68,-971.44"/>
<text text-anchor="start" x="65" y="-911" font-family="Helvetica,sans-Serif" font-size="10.00"> &lt; std::pair&lt; uint64</text>
<text text-anchor="middle" x="113.5" y="-900" font-family="Helvetica,sans-Serif" font-size="10.00">_t, uint64_t &gt; &gt;</text>
</g>
<!-- Node14&#45;&gt;Node2 -->
<g id="edge15" class="edge">
<title>Node14&#45;&gt;Node2</title>
<path fill="none" stroke="#404040" d="M396.99,-700.14C384.81,-675.56 373.15,-647.35 367,-620 344.18,-518.53 336.94,-485.56 367,-386 375.02,-359.45 389.36,-333.28 404.77,-310.34"/>
<polygon fill="none" stroke="#404040" points="404.84,-310.24 404.96,-303.03 411.66,-300.37 411.54,-307.58 404.84,-310.24"/>
<text text-anchor="middle" x="390" y="-500.5" font-family="Helvetica,sans-Serif" font-size="10.00"> &#45;m_mqtt</text>
</g>
<!-- Node14&#45;&gt;Node16 -->
<g id="edge22" class="edge">
<title>Node14&#45;&gt;Node16</title>
<path fill="none" stroke="#404040" d="M427.22,-700.26C425.77,-679.99 425.99,-658 430,-638 433.04,-622.83 437.84,-607.24 443.39,-592.29"/>
<polygon fill="none" stroke="#404040" points="443.42,-592.2 441.86,-585.16 447.75,-581 449.32,-588.04 443.42,-592.2"/>
<text text-anchor="middle" x="453" y="-641" font-family="Helvetica,sans-Serif" font-size="10.00"> &#45;m_mqtt</text>
</g>
<!-- Node15 -->
<g id="node15" class="node">
<title>Node15</title>
<g id="a_node15"><a xlink:href="../../dd/d1c/class_free_r_t_o_s_1_1_queue.html" target="_top" xlink:title=" ">
<polygon fill="none" stroke="black" points="799.5,-728 799.5,-818 900.5,-818 900.5,-728 799.5,-728"/>
<text text-anchor="middle" x="850" y="-806" font-family="Helvetica,sans-Serif" font-size="10.00">FreeRTOS::Queue</text>
<polyline fill="none" stroke="black" points="799.5,-799 900.5,-799 "/>
<text text-anchor="start" x="807.5" y="-787" font-family="Helvetica,sans-Serif" font-size="10.00">&#45; m_handle</text>
<polyline fill="none" stroke="black" points="799.5,-780 900.5,-780 "/>
<text text-anchor="start" x="807.5" y="-768" font-family="Helvetica,sans-Serif" font-size="10.00">+ Queue()</text>
<text text-anchor="start" x="807.5" y="-757" font-family="Helvetica,sans-Serif" font-size="10.00">+ ~Queue()</text>
<text text-anchor="start" x="807.5" y="-746" font-family="Helvetica,sans-Serif" font-size="10.00">+ send()</text>
<text text-anchor="start" x="807.5" y="-735" font-family="Helvetica,sans-Serif" font-size="10.00">+ recieve()</text>
</a>
</g>
</g>
<!-- Node15&#45;&gt;Node2 -->
<g id="edge17" class="edge">
<title>Node15&#45;&gt;Node2</title>
<path fill="none" stroke="#404040" d="M852.24,-727.85C855.91,-638.41 859.34,-439.75 821,-386 805.19,-363.84 666.06,-308.15 567.28,-270.7"/>
<polygon fill="none" stroke="#404040" points="567.27,-270.69 560.24,-272.31 556.05,-266.45 563.07,-264.83 567.27,-270.69"/>
<text text-anchor="middle" x="883.5" y="-500.5" font-family="Helvetica,sans-Serif" font-size="10.00"> #m_queue</text>
</g>
<!-- Node15&#45;&gt;Node16 -->
<g id="edge23" class="edge">
<title>Node15&#45;&gt;Node16</title>
<path fill="none" stroke="#404040" d="M829.05,-727.91C816.89,-706.67 799.66,-682.49 778,-667 738.97,-639.09 720.86,-648.33 674,-638 625.62,-627.33 605.69,-646.75 564,-620 552.03,-612.32 541.46,-602.08 532.26,-590.85"/>
<polygon fill="none" stroke="#404040" points="532.18,-590.74 525.35,-588.42 524.87,-581.22 531.69,-583.54 532.18,-590.74"/>
<text text-anchor="middle" x="770.5" y="-641" font-family="Helvetica,sans-Serif" font-size="10.00"> #m_queue</text>
</g>
<!-- Node16&#45;&gt;Node2 -->
<g id="edge18" class="edge">
<title>Node16&#45;&gt;Node2</title>
<path fill="none" stroke="orange" d="M473.41,-414.79C471.61,-399.24 470.01,-383.16 469,-368 467.52,-345.95 467.01,-321.81 466.94,-300.17"/>
<polygon fill="orange" stroke="orange" points="469.96,-415.4 474.63,-424.92 476.91,-414.57 469.96,-415.4"/>
<text text-anchor="middle" x="520.5" y="-360" font-family="Helvetica,sans-Serif" font-size="10.00"> &lt; MQTT_Message &gt;</text>
</g>
<!-- Node17 -->
<g id="node17" class="node">
<title>Node17</title>
<g id="a_node17"><a xlink:href="../../da/d0a/class_periode_estimator.html" target="_top" xlink:title=" ">
<polygon fill="none" stroke="black" points="763.5,-127.5 763.5,-338.5 902.5,-338.5 902.5,-127.5 763.5,-127.5"/>
<text text-anchor="start" x="771.5" y="-326.5" font-family="Helvetica,sans-Serif" font-size="10.00">PeriodeEstimator&lt; 1900,</text>
<text text-anchor="middle" x="833" y="-315.5" font-family="Helvetica,sans-Serif" font-size="10.00"> 1800, NVS_MOCK &gt;</text>
<polyline fill="none" stroke="black" points="763.5,-308.5 902.5,-308.5 "/>
<text text-anchor="start" x="771.5" y="-296.5" font-family="Helvetica,sans-Serif" font-size="10.00">&#45; m_high_threshold</text>
<text text-anchor="start" x="771.5" y="-285.5" font-family="Helvetica,sans-Serif" font-size="10.00">&#45; m_low_threshold</text>
<text text-anchor="start" x="771.5" y="-274.5" font-family="Helvetica,sans-Serif" font-size="10.00">&#45; m_current_state</text>
<text text-anchor="start" x="771.5" y="-263.5" font-family="Helvetica,sans-Serif" font-size="10.00">&#45; m_last_state</text>
<text text-anchor="start" x="771.5" y="-252.5" font-family="Helvetica,sans-Serif" font-size="10.00">&#45; m_next_expected</text>
<text text-anchor="start" x="771.5" y="-241.5" font-family="Helvetica,sans-Serif" font-size="10.00">&#45; m_counter</text>
<text text-anchor="start" x="771.5" y="-230.5" font-family="Helvetica,sans-Serif" font-size="10.00">&#45; PERIODE_SCALER</text>
<polyline fill="none" stroke="black" points="763.5,-223.5 902.5,-223.5 "/>
<text text-anchor="start" x="771.5" y="-211.5" font-family="Helvetica,sans-Serif" font-size="10.00">+ PeriodeEstimator()</text>
<text text-anchor="start" x="771.5" y="-200.5" font-family="Helvetica,sans-Serif" font-size="10.00">+ ~PeriodeEstimator()</text>
<text text-anchor="start" x="771.5" y="-189.5" font-family="Helvetica,sans-Serif" font-size="10.00">+ addData()</text>
<text text-anchor="start" x="771.5" y="-178.5" font-family="Helvetica,sans-Serif" font-size="10.00">+ getPeriodCounter()</text>
<text text-anchor="start" x="771.5" y="-167.5" font-family="Helvetica,sans-Serif" font-size="10.00">&#45; decideStateChange()</text>
<text text-anchor="start" x="771.5" y="-156.5" font-family="Helvetica,sans-Serif" font-size="10.00">&#45; setInitialState()</text>
<text text-anchor="start" x="771.5" y="-145.5" font-family="Helvetica,sans-Serif" font-size="10.00">&#45; setNextState()</text>
<text text-anchor="start" x="771.5" y="-134.5" font-family="Helvetica,sans-Serif" font-size="10.00">&#45; isExpectedState()</text>
</a>
</g>
</g>
<!-- Node17&#45;&gt;Node1 -->
<g id="edge24" class="edge">
<title>Node17&#45;&gt;Node1</title>
<path fill="none" stroke="#404040" d="M763.49,-195.62C703.46,-164.21 616.55,-118.73 552.51,-85.22"/>
<polygon fill="none" stroke="#404040" points="552.27,-85.1 545.1,-85.86 541.64,-79.53 548.81,-78.77 552.27,-85.1"/>
<text text-anchor="middle" x="632" y="-101" font-family="Helvetica,sans-Serif" font-size="10.00"> &#45;m_estimator</text>
</g>
<!-- Node18 -->
<g id="node18" class="node">
<title>Node18</title>
<g id="a_node18"><a xlink:href="../../da/d0a/class_periode_estimator.html" target="_top" xlink:title=" ">
<polygon fill="none" stroke="black" points="935.5,-392 935.5,-614 1114.5,-614 1114.5,-392 935.5,-392"/>
<text text-anchor="start" x="943.5" y="-602" font-family="Helvetica,sans-Serif" font-size="10.00">PeriodeEstimator&lt; HIGH</text>
<text text-anchor="start" x="943.5" y="-591" font-family="Helvetica,sans-Serif" font-size="10.00">_THRESHOLD, LOW_THRESHOLD,</text>
<text text-anchor="middle" x="1025" y="-580" font-family="Helvetica,sans-Serif" font-size="10.00"> NVS_TYPE &gt;</text>
<polyline fill="none" stroke="black" points="935.5,-573 1114.5,-573 "/>
<text text-anchor="start" x="943.5" y="-561" font-family="Helvetica,sans-Serif" font-size="10.00">&#45; m_high_threshold</text>
<text text-anchor="start" x="943.5" y="-550" font-family="Helvetica,sans-Serif" font-size="10.00">&#45; m_low_threshold</text>
<text text-anchor="start" x="943.5" y="-539" font-family="Helvetica,sans-Serif" font-size="10.00">&#45; m_current_state</text>
<text text-anchor="start" x="943.5" y="-528" font-family="Helvetica,sans-Serif" font-size="10.00">&#45; m_last_state</text>
<text text-anchor="start" x="943.5" y="-517" font-family="Helvetica,sans-Serif" font-size="10.00">&#45; m_next_expected</text>
<text text-anchor="start" x="943.5" y="-506" font-family="Helvetica,sans-Serif" font-size="10.00">&#45; m_counter</text>
<text text-anchor="start" x="943.5" y="-495" font-family="Helvetica,sans-Serif" font-size="10.00">&#45; PERIODE_SCALER</text>
<polyline fill="none" stroke="black" points="935.5,-488 1114.5,-488 "/>
<text text-anchor="start" x="943.5" y="-476" font-family="Helvetica,sans-Serif" font-size="10.00">+ PeriodeEstimator()</text>
<text text-anchor="start" x="943.5" y="-465" font-family="Helvetica,sans-Serif" font-size="10.00">+ ~PeriodeEstimator()</text>
<text text-anchor="start" x="943.5" y="-454" font-family="Helvetica,sans-Serif" font-size="10.00">+ addData()</text>
<text text-anchor="start" x="943.5" y="-443" font-family="Helvetica,sans-Serif" font-size="10.00">+ getPeriodCounter()</text>
<text text-anchor="start" x="943.5" y="-432" font-family="Helvetica,sans-Serif" font-size="10.00">&#45; decideStateChange()</text>
<text text-anchor="start" x="943.5" y="-421" font-family="Helvetica,sans-Serif" font-size="10.00">&#45; setInitialState()</text>
<text text-anchor="start" x="943.5" y="-410" font-family="Helvetica,sans-Serif" font-size="10.00">&#45; setNextState()</text>
<text text-anchor="start" x="943.5" y="-399" font-family="Helvetica,sans-Serif" font-size="10.00">&#45; isExpectedState()</text>
</a>
</g>
</g>
<!-- Node18&#45;&gt;Node17 -->
<g id="edge25" class="edge">
<title>Node18&#45;&gt;Node17</title>
<path fill="none" stroke="orange" d="M939.98,-383.33C927.52,-365.94 914.81,-348.2 902.71,-331.3"/>
<polygon fill="orange" stroke="orange" points="937.41,-385.74 946.08,-391.83 943.1,-381.67 937.41,-385.74"/>
<text text-anchor="middle" x="1000" y="-360" font-family="Helvetica,sans-Serif" font-size="10.00"> &lt; 1900, 1800, NVS_MOCK &gt;</text>
</g>
</g>
</svg>
