<?xml version="1.0" encoding="UTF-8" standalone="no"?>
<!DOCTYPE svg PUBLIC "-//W3C//DTD SVG 1.1//EN"
 "http://www.w3.org/Graphics/SVG/1.1/DTD/svg11.dtd">
<!-- Generated by graphviz version 2.43.0 (0)
 -->
<!-- Title: Components/Protocols/HTTP/src/Curl_SAL.cpp Pages: 1 -->
<svg width="330pt" height="296pt"
 viewBox="0.00 0.00 330.00 296.00" xmlns="http://www.w3.org/2000/svg" xmlns:xlink="http://www.w3.org/1999/xlink">
<g id="graph0" class="graph" transform="scale(1 1) rotate(0) translate(4 292)">
<title>Components/Protocols/HTTP/src/Curl_SAL.cpp</title>
<!-- Node1 -->
<g id="node1" class="node">
<title>Node1</title>
<g id="a_node1"><a xlink:title=" ">
<polygon fill="#bfbfbf" stroke="black" points="126.5,-257.5 126.5,-287.5 255.5,-287.5 255.5,-257.5 126.5,-257.5"/>
<text text-anchor="start" x="134.5" y="-275.5" font-family="Helvetica,sans-Serif" font-size="10.00">Components/Protocols</text>
<text text-anchor="middle" x="191" y="-264.5" font-family="Helvetica,sans-Serif" font-size="10.00">/HTTP/src/Curl_SAL.cpp</text>
</a>
</g>
</g>
<!-- Node2 -->
<g id="node2" class="node">
<title>Node2</title>
<g id="a_node2"><a xlink:href="../../d2/d3c/_curl___s_a_l_8hpp.html" target="_top" xlink:title=" ">
<polygon fill="none" stroke="black" points="127,-201.5 127,-220.5 255,-220.5 255,-201.5 127,-201.5"/>
<text text-anchor="middle" x="191" y="-208.5" font-family="Helvetica,sans-Serif" font-size="10.00">../include/Curl_SAL.hpp</text>
</a>
</g>
</g>
<!-- Node1&#45;&gt;Node2 -->
<g id="edge1" class="edge">
<title>Node1&#45;&gt;Node2</title>
<path fill="none" stroke="midnightblue" d="M191,-257.4C191,-249.47 191,-239.46 191,-230.86"/>
<polygon fill="midnightblue" stroke="midnightblue" points="194.5,-230.66 191,-220.66 187.5,-230.66 194.5,-230.66"/>
</g>
<!-- Node3 -->
<g id="node3" class="node">
<title>Node3</title>
<g id="a_node3"><a xlink:href="../../da/d5f/_b_a_s_i_c_8hpp.html" target="_top" xlink:title=" ">
<polygon fill="none" stroke="black" points="0,-56.5 0,-86.5 116,-86.5 116,-56.5 0,-56.5"/>
<text text-anchor="start" x="8" y="-74.5" font-family="Helvetica,sans-Serif" font-size="10.00">../../../Global_Include</text>
<text text-anchor="middle" x="58" y="-63.5" font-family="Helvetica,sans-Serif" font-size="10.00">/BASIC.hpp</text>
</a>
</g>
</g>
<!-- Node2&#45;&gt;Node3 -->
<g id="edge2" class="edge">
<title>Node2&#45;&gt;Node3</title>
<path fill="none" stroke="midnightblue" d="M140.83,-201.47C118.2,-195.1 93.01,-184.06 77,-165 61.09,-146.06 57.33,-117.31 56.93,-96.9"/>
<polygon fill="midnightblue" stroke="midnightblue" points="60.43,-96.83 56.99,-86.81 53.43,-96.79 60.43,-96.83"/>
</g>
<!-- Node4 -->
<g id="node4" class="node">
<title>Node4</title>
<g id="a_node4"><a xlink:href="../../d3/deb/_general___error_8hpp.html" target="_top" xlink:title=" ">
<polygon fill="none" stroke="black" points="134.5,-56.5 134.5,-86.5 279.5,-86.5 279.5,-56.5 134.5,-56.5"/>
<text text-anchor="start" x="142.5" y="-74.5" font-family="Helvetica,sans-Serif" font-size="10.00">../../../Objects/ErrorHandler</text>
<text text-anchor="middle" x="207" y="-63.5" font-family="Helvetica,sans-Serif" font-size="10.00">/include/General_Error.hpp</text>
</a>
</g>
</g>
<!-- Node2&#45;&gt;Node4 -->
<g id="edge3" class="edge">
<title>Node2&#45;&gt;Node4</title>
<path fill="none" stroke="midnightblue" d="M197.89,-201.32C204.27,-192.68 213.31,-178.77 217,-165 223.11,-142.2 218.99,-115.29 214.32,-96.39"/>
<polygon fill="midnightblue" stroke="midnightblue" points="217.65,-95.28 211.66,-86.54 210.89,-97.1 217.65,-95.28"/>
</g>
<!-- Node6 -->
<g id="node6" class="node">
<title>Node6</title>
<g id="a_node6"><a xlink:title=" ">
<polygon fill="none" stroke="#bfbfbf" points="262,-0.5 262,-19.5 322,-19.5 322,-0.5 262,-0.5"/>
<text text-anchor="middle" x="292" y="-7.5" font-family="Helvetica,sans-Serif" font-size="10.00">iostream</text>
</a>
</g>
</g>
<!-- Node2&#45;&gt;Node6 -->
<g id="edge9" class="edge">
<title>Node2&#45;&gt;Node6</title>
<path fill="none" stroke="midnightblue" d="M201.76,-201.24C223.4,-182.82 271.61,-137.61 289,-87 295.42,-68.31 295.36,-45.5 294.2,-29.77"/>
<polygon fill="midnightblue" stroke="midnightblue" points="297.68,-29.35 293.24,-19.73 290.71,-30.02 297.68,-29.35"/>
</g>
<!-- Node7 -->
<g id="node7" class="node">
<title>Node7</title>
<g id="a_node7"><a xlink:href="../../d2/dfa/_protocol_base_8hpp.html" target="_top" xlink:title=" ">
<polygon fill="none" stroke="black" points="86,-123.5 86,-164.5 208,-164.5 208,-123.5 86,-123.5"/>
<text text-anchor="start" x="94" y="-152.5" font-family="Helvetica,sans-Serif" font-size="10.00">../../../Interfaces</text>
<text text-anchor="start" x="94" y="-141.5" font-family="Helvetica,sans-Serif" font-size="10.00">/ProtocolBase/include</text>
<text text-anchor="middle" x="147" y="-130.5" font-family="Helvetica,sans-Serif" font-size="10.00">/ProtocolBase.hpp</text>
</a>
</g>
</g>
<!-- Node2&#45;&gt;Node7 -->
<g id="edge6" class="edge">
<title>Node2&#45;&gt;Node7</title>
<path fill="none" stroke="midnightblue" d="M185.07,-201.23C180.12,-193.92 172.79,-183.09 165.87,-172.88"/>
<polygon fill="midnightblue" stroke="midnightblue" points="168.73,-170.86 160.23,-164.54 162.94,-174.79 168.73,-170.86"/>
</g>
<!-- Node5 -->
<g id="node5" class="node">
<title>Node5</title>
<g id="a_node5"><a xlink:title=" ">
<polygon fill="none" stroke="#bfbfbf" points="185,-0.5 185,-19.5 229,-19.5 229,-0.5 185,-0.5"/>
<text text-anchor="middle" x="207" y="-7.5" font-family="Helvetica,sans-Serif" font-size="10.00">string</text>
</a>
</g>
</g>
<!-- Node4&#45;&gt;Node5 -->
<g id="edge4" class="edge">
<title>Node4&#45;&gt;Node5</title>
<path fill="none" stroke="midnightblue" d="M207,-56.4C207,-48.47 207,-38.46 207,-29.86"/>
<polygon fill="midnightblue" stroke="midnightblue" points="210.5,-29.66 207,-19.66 203.5,-29.66 210.5,-29.66"/>
</g>
<!-- Node4&#45;&gt;Node6 -->
<g id="edge5" class="edge">
<title>Node4&#45;&gt;Node6</title>
<path fill="none" stroke="midnightblue" d="M227.14,-56.4C240.39,-47.13 257.68,-35.03 271.08,-25.65"/>
<polygon fill="midnightblue" stroke="midnightblue" points="273.45,-28.26 279.63,-19.66 269.43,-22.53 273.45,-28.26"/>
</g>
<!-- Node7&#45;&gt;Node3 -->
<g id="edge7" class="edge">
<title>Node7&#45;&gt;Node3</title>
<path fill="none" stroke="midnightblue" d="M122.21,-123.36C110.26,-113.89 95.93,-102.54 83.84,-92.97"/>
<polygon fill="midnightblue" stroke="midnightblue" points="85.9,-90.14 75.89,-86.67 81.55,-95.62 85.9,-90.14"/>
</g>
<!-- Node7&#45;&gt;Node4 -->
<g id="edge8" class="edge">
<title>Node7&#45;&gt;Node4</title>
<path fill="none" stroke="midnightblue" d="M163.71,-123.36C171.33,-114.41 180.38,-103.78 188.23,-94.56"/>
<polygon fill="midnightblue" stroke="midnightblue" points="190.94,-96.78 194.75,-86.89 185.61,-92.24 190.94,-96.78"/>
</g>
</g>
</svg>
