<?xml version="1.0" encoding="UTF-8" standalone="no"?>
<!DOCTYPE svg PUBLIC "-//W3C//DTD SVG 1.1//EN"
 "http://www.w3.org/Graphics/SVG/1.1/DTD/svg11.dtd">
<!-- Generated by graphviz version 2.43.0 (0)
 -->
<!-- Title: Components/RTOS/FreeRTOS/include/FreeRTOS.h Pages: 1 -->
<!--zoomable 451 -->
<svg id="main" version="1.1" xmlns="http://www.w3.org/2000/svg" xmlns:xlink="http://www.w3.org/1999/xlink" xml:space="preserve" onload="init(evt)">
<style type="text/css"><![CDATA[
.edge:hover path { stroke: red; }
.edge:hover polygon { stroke: red; fill: red; }
]]></style>
<script type="text/javascript"><![CDATA[
var edges = document.getElementsByTagName('g');
if (edges && edges.length) {
  for (var i=0;i<edges.length;i++) {
    if (edges[i].id.substr(0,4)=='edge') {
      edges[i].setAttribute('class','edge');
    }
  }
}
]]></script>
        <defs>
                <circle id="rim" cx="0" cy="0" r="7"/>
                <circle id="rim2" cx="0" cy="0" r="3.5"/>
                <g id="zoomPlus">
                        <use xlink:href="#rim" fill="#404040">
                                <set attributeName="fill" to="#808080" begin="zoomplus.mouseover" end="zoomplus.mouseout"/>
                        </use>
                        <path d="M-4,0h8M0,-4v8" fill="none" stroke="white" stroke-width="1.5" pointer-events="none"/>
                </g>
                <g id="zoomMin">
                        <use xlink:href="#rim" fill="#404040">
                                <set attributeName="fill" to="#808080" begin="zoomminus.mouseover" end="zoomminus.mouseout"/>
                        </use>
                        <path d="M-4,0h8" fill="none" stroke="white" stroke-width="1.5" pointer-events="none"/>
                </g>
                <g id="dirArrow">
                        <path fill="none" stroke="white" stroke-width="1.5" d="M0,-3.0v7 M-2.5,-0.5L0,-3.0L2.5,-0.5"/>
                </g>
               <g id="resetDef">
                       <use xlink:href="#rim2" fill="#404040">
                               <set attributeName="fill" to="#808080" begin="reset.mouseover" end="reset.mouseout"/>
                       </use>
               </g>
        </defs>

<script type="text/javascript">
var viewWidth = 1633;
var viewHeight = 451;
var sectionId = 'dynsection-1';
</script>
<script xlink:href="../../svgpan.js"/>
<svg id="graph" class="graph">
<g id="viewport">
<title>Components/RTOS/FreeRTOS/include/FreeRTOS.h</title>
<!-- Node1 -->
<g id="node1" class="node">
<title>Node1</title>
<g id="a_node1"><a xlink:title=" ">
<polygon fill="#bfbfbf" stroke="black" points="1042,-412.5 1042,-442.5 1200,-442.5 1200,-412.5 1042,-412.5"/>
<text text-anchor="start" x="1050" y="-430.5" font-family="Helvetica,sans-Serif" font-size="10.00">Components/RTOS/FreeRTOS</text>
<text text-anchor="middle" x="1121" y="-419.5" font-family="Helvetica,sans-Serif" font-size="10.00">/include/FreeRTOS.h</text>
</a>
</g>
</g>
<!-- Node2 -->
<g id="node2" class="node">
<title>Node2</title>
<g id="a_node2"><a xlink:href="../../d4/d63/mqtt__api__v2_8hpp.html" target="_top" xlink:title=" ">
<polygon fill="none" stroke="black" points="654.5,-334.5 654.5,-375.5 787.5,-375.5 787.5,-334.5 654.5,-334.5"/>
<text text-anchor="start" x="662.5" y="-363.5" font-family="Helvetica,sans-Serif" font-size="10.00">Components/Protocols</text>
<text text-anchor="start" x="662.5" y="-352.5" font-family="Helvetica,sans-Serif" font-size="10.00">/MQTT/include/mqtt_api</text>
<text text-anchor="middle" x="721" y="-341.5" font-family="Helvetica,sans-Serif" font-size="10.00">_v2.hpp</text>
</a>
</g>
</g>
<!-- Node1&#45;&gt;Node2 -->
<g id="edge1" class="edge">
<title>Node1&#45;&gt;Node2</title>
<path fill="none" stroke="midnightblue" d="M1031.75,-410.77C957.83,-397.74 854.44,-379.52 787.59,-367.74"/>
<polygon fill="midnightblue" stroke="midnightblue" points="1031.52,-414.28 1041.97,-412.57 1032.73,-407.39 1031.52,-414.28"/>
</g>
<!-- Node4 -->
<g id="node4" class="node">
<title>Node4</title>
<g id="a_node4"><a xlink:href="../../d9/d1c/_sensor_controller_base_8hpp.html" target="_top" xlink:title=" ">
<polygon fill="none" stroke="black" points="337,-178.5 337,-219.5 521,-219.5 521,-178.5 337,-178.5"/>
<text text-anchor="start" x="345" y="-207.5" font-family="Helvetica,sans-Serif" font-size="10.00">Components/Interfaces</text>
<text text-anchor="start" x="345" y="-196.5" font-family="Helvetica,sans-Serif" font-size="10.00">/SensorControllerBase</text>
<text text-anchor="middle" x="429" y="-185.5" font-family="Helvetica,sans-Serif" font-size="10.00">/include/SensorControllerBase.hpp</text>
</a>
</g>
</g>
<!-- Node1&#45;&gt;Node4 -->
<g id="edge34" class="edge">
<title>Node1&#45;&gt;Node4</title>
<path fill="none" stroke="midnightblue" d="M1031.76,-423.17C935.36,-418.16 777.73,-405.83 645,-376 542.56,-352.97 482.77,-383.63 422,-298 405.71,-275.05 413.33,-240.97 420.8,-219.64"/>
<polygon fill="midnightblue" stroke="midnightblue" points="1031.6,-426.67 1041.76,-423.68 1031.95,-419.68 1031.6,-426.67"/>
</g>
<!-- Node13 -->
<g id="node13" class="node">
<title>Node13</title>
<g id="a_node13"><a xlink:href="../../d0/dc1/_data_broker_8hpp.html" target="_top" xlink:title=" ">
<polygon fill="none" stroke="black" points="849,-95 849,-136 967,-136 967,-95 849,-95"/>
<text text-anchor="start" x="857" y="-124" font-family="Helvetica,sans-Serif" font-size="10.00">Components/Objects</text>
<text text-anchor="start" x="857" y="-113" font-family="Helvetica,sans-Serif" font-size="10.00">/DataBroker/include</text>
<text text-anchor="middle" x="908" y="-102" font-family="Helvetica,sans-Serif" font-size="10.00">/DataBroker.hpp</text>
</a>
</g>
</g>
<!-- Node1&#45;&gt;Node13 -->
<g id="edge35" class="edge">
<title>Node1&#45;&gt;Node13</title>
<path fill="none" stroke="midnightblue" d="M1113.39,-402.89C1097.39,-355.95 1056.58,-249.3 995,-178 980.61,-161.34 960.8,-146.88 943.72,-136.18"/>
<polygon fill="midnightblue" stroke="midnightblue" points="1110.11,-404.1 1116.59,-412.47 1116.74,-401.88 1110.11,-404.1"/>
</g>
<!-- Node22 -->
<g id="node22" class="node">
<title>Node22</title>
<g id="a_node22"><a xlink:href="../../dd/d82/_active_current_sensor_8hpp.html" target="_top" xlink:title=" ">
<polygon fill="none" stroke="black" points="1047,-178.5 1047,-219.5 1195,-219.5 1195,-178.5 1047,-178.5"/>
<text text-anchor="start" x="1055" y="-207.5" font-family="Helvetica,sans-Serif" font-size="10.00">Components/Sensor/Active</text>
<text text-anchor="start" x="1055" y="-196.5" font-family="Helvetica,sans-Serif" font-size="10.00">CurrentSensor/include</text>
<text text-anchor="middle" x="1121" y="-185.5" font-family="Helvetica,sans-Serif" font-size="10.00">/ActiveCurrentSensor.hpp</text>
</a>
</g>
</g>
<!-- Node1&#45;&gt;Node22 -->
<g id="edge40" class="edge">
<title>Node1&#45;&gt;Node22</title>
<path fill="none" stroke="midnightblue" d="M1121,-402.28C1121,-357.21 1121,-261.29 1121,-219.8"/>
<polygon fill="midnightblue" stroke="midnightblue" points="1117.5,-402.33 1121,-412.33 1124.5,-402.33 1117.5,-402.33"/>
</g>
<!-- Node26 -->
<g id="node26" class="node">
<title>Node26</title>
<g id="a_node26"><a xlink:href="../../d1/da7/_m_q_t_t___message_8hpp.html" target="_top" xlink:title=" ">
<polygon fill="none" stroke="black" points="1149,-262 1149,-292 1337,-292 1337,-262 1149,-262"/>
<text text-anchor="start" x="1157" y="-280" font-family="Helvetica,sans-Serif" font-size="10.00">Components/Protocols</text>
<text text-anchor="middle" x="1243" y="-269" font-family="Helvetica,sans-Serif" font-size="10.00">/MQTT/include/MQTT_Message.hpp</text>
</a>
</g>
</g>
<!-- Node1&#45;&gt;Node26 -->
<g id="edge29" class="edge">
<title>Node1&#45;&gt;Node26</title>
<path fill="none" stroke="midnightblue" d="M1139.29,-404.24C1164.65,-373.36 1209.79,-318.42 1231.16,-292.41"/>
<polygon fill="midnightblue" stroke="midnightblue" points="1136.34,-402.31 1132.7,-412.26 1141.75,-406.76 1136.34,-402.31"/>
</g>
<!-- Node29 -->
<g id="node29" class="node">
<title>Node29</title>
<g id="a_node29"><a xlink:href="../../de/d45/esp32__http__sal_8hpp.html" target="_top" xlink:title=" ">
<polygon fill="none" stroke="black" points="1288,-334.5 1288,-375.5 1428,-375.5 1428,-334.5 1288,-334.5"/>
<text text-anchor="start" x="1296" y="-363.5" font-family="Helvetica,sans-Serif" font-size="10.00">Components/Protocols</text>
<text text-anchor="start" x="1296" y="-352.5" font-family="Helvetica,sans-Serif" font-size="10.00">/HTTP/include/esp32_http</text>
<text text-anchor="middle" x="1358" y="-341.5" font-family="Helvetica,sans-Serif" font-size="10.00">_sal.hpp</text>
</a>
</g>
</g>
<!-- Node1&#45;&gt;Node29 -->
<g id="edge36" class="edge">
<title>Node1&#45;&gt;Node29</title>
<path fill="none" stroke="midnightblue" d="M1177.99,-409.55C1212.36,-399.32 1256.28,-386.26 1292.14,-375.59"/>
<polygon fill="midnightblue" stroke="midnightblue" points="1176.69,-406.28 1168.11,-412.49 1178.69,-412.99 1176.69,-406.28"/>
</g>
<!-- Node32 -->
<g id="node32" class="node">
<title>Node32</title>
<g id="a_node32"><a xlink:href="../../da/d25/_free_r_t_o_s_8cpp.html" target="_top" xlink:title=" ">
<polygon fill="none" stroke="black" points="1446,-340 1446,-370 1604,-370 1604,-340 1446,-340"/>
<text text-anchor="start" x="1454" y="-358" font-family="Helvetica,sans-Serif" font-size="10.00">Components/RTOS/FreeRTOS</text>
<text text-anchor="middle" x="1525" y="-347" font-family="Helvetica,sans-Serif" font-size="10.00">/src/FreeRTOS.cpp</text>
</a>
</g>
</g>
<!-- Node1&#45;&gt;Node32 -->
<g id="edge39" class="edge">
<title>Node1&#45;&gt;Node32</title>
<path fill="none" stroke="midnightblue" d="M1210.12,-413.84C1273.57,-404.44 1360.76,-390.74 1437,-376 1446.23,-374.22 1455.97,-372.17 1465.47,-370.08"/>
<polygon fill="midnightblue" stroke="midnightblue" points="1209.52,-410.39 1200.14,-415.31 1210.55,-417.31 1209.52,-410.39"/>
</g>
<!-- Node3 -->
<g id="node3" class="node">
<title>Node3</title>
<g id="a_node3"><a xlink:href="../../d3/d0d/_error_code_parser_8hpp.html" target="_top" xlink:title=" ">
<polygon fill="none" stroke="black" points="213.5,-256.5 213.5,-297.5 332.5,-297.5 332.5,-256.5 213.5,-256.5"/>
<text text-anchor="start" x="221.5" y="-285.5" font-family="Helvetica,sans-Serif" font-size="10.00">Components/Objects</text>
<text text-anchor="start" x="221.5" y="-274.5" font-family="Helvetica,sans-Serif" font-size="10.00">/ErrorHandler/include</text>
<text text-anchor="middle" x="273" y="-263.5" font-family="Helvetica,sans-Serif" font-size="10.00">/ErrorCodeParser.hpp</text>
</a>
</g>
</g>
<!-- Node2&#45;&gt;Node3 -->
<g id="edge2" class="edge">
<title>Node2&#45;&gt;Node3</title>
<path fill="none" stroke="midnightblue" d="M644.47,-341.02C556.27,-326.06 413.19,-301.78 332.78,-288.14"/>
<polygon fill="midnightblue" stroke="midnightblue" points="643.97,-344.48 654.41,-342.7 645.14,-337.58 643.97,-344.48"/>
</g>
<!-- Node2&#45;&gt;Node4 -->
<g id="edge18" class="edge">
<title>Node2&#45;&gt;Node4</title>
<path fill="none" stroke="midnightblue" d="M644.42,-348.36C571.85,-341.34 470.04,-326.63 443,-298 423.29,-277.14 423.34,-241.79 425.75,-219.73"/>
<polygon fill="midnightblue" stroke="midnightblue" points="644.17,-351.85 654.45,-349.3 644.82,-344.88 644.17,-351.85"/>
</g>
<!-- Node17 -->
<g id="node17" class="node">
<title>Node17</title>
<g id="a_node17"><a xlink:href="../../d7/d44/hal__mqtt__log_8hpp.html" target="_top" xlink:title=" ">
<polygon fill="none" stroke="black" points="452,-256.5 452,-297.5 570,-297.5 570,-256.5 452,-256.5"/>
<text text-anchor="start" x="460" y="-285.5" font-family="Helvetica,sans-Serif" font-size="10.00">Components/Objects</text>
<text text-anchor="start" x="460" y="-274.5" font-family="Helvetica,sans-Serif" font-size="10.00">/Logger/include/hal</text>
<text text-anchor="middle" x="511" y="-263.5" font-family="Helvetica,sans-Serif" font-size="10.00">_mqtt_log.hpp</text>
</a>
</g>
</g>
<!-- Node2&#45;&gt;Node17 -->
<g id="edge19" class="edge">
<title>Node2&#45;&gt;Node17</title>
<path fill="none" stroke="midnightblue" d="M657.14,-330.89C627.66,-320.22 593.04,-307.69 564.9,-297.51"/>
<polygon fill="midnightblue" stroke="midnightblue" points="656.33,-334.32 666.92,-334.43 658.71,-327.73 656.33,-334.32"/>
</g>
<!-- Node19 -->
<g id="node19" class="node">
<title>Node19</title>
<g id="a_node19"><a xlink:href="../../d0/d6a/_maintainer_8hpp.html" target="_top" xlink:title=" ">
<polygon fill="none" stroke="black" points="732,-256.5 732,-297.5 850,-297.5 850,-256.5 732,-256.5"/>
<text text-anchor="start" x="740" y="-285.5" font-family="Helvetica,sans-Serif" font-size="10.00">Components/Objects</text>
<text text-anchor="start" x="740" y="-274.5" font-family="Helvetica,sans-Serif" font-size="10.00">/Maintainer/include</text>
<text text-anchor="middle" x="791" y="-263.5" font-family="Helvetica,sans-Serif" font-size="10.00">/Maintainer.hpp</text>
</a>
</g>
</g>
<!-- Node2&#45;&gt;Node19 -->
<g id="edge21" class="edge">
<title>Node2&#45;&gt;Node19</title>
<path fill="none" stroke="midnightblue" d="M745.95,-326.92C754.89,-317.2 764.8,-306.45 773.03,-297.51"/>
<polygon fill="midnightblue" stroke="midnightblue" points="743.23,-324.7 739.03,-334.43 748.38,-329.44 743.23,-324.7"/>
</g>
<!-- Node2&#45;&gt;Node22 -->
<g id="edge28" class="edge">
<title>Node2&#45;&gt;Node22</title>
<path fill="none" stroke="midnightblue" d="M797.67,-352.76C862.06,-348.81 954.69,-336.15 1026,-298 1061.31,-279.11 1091.4,-242.45 1107.78,-219.72"/>
<polygon fill="midnightblue" stroke="midnightblue" points="797.38,-349.27 787.59,-353.32 797.77,-356.26 797.38,-349.27"/>
</g>
<!-- Node24 -->
<g id="node24" class="node">
<title>Node24</title>
<g id="a_node24"><a xlink:href="../../d3/dc1/mqtt__api__v2_8cpp.html" target="_top" xlink:title=" ">
<polygon fill="none" stroke="black" points="868.5,-262 868.5,-292 1017.5,-292 1017.5,-262 868.5,-262"/>
<text text-anchor="start" x="876.5" y="-280" font-family="Helvetica,sans-Serif" font-size="10.00">Components/Protocols</text>
<text text-anchor="middle" x="943" y="-269" font-family="Helvetica,sans-Serif" font-size="10.00">/MQTT/src/mqtt_api_v2.cpp</text>
</a>
</g>
</g>
<!-- Node2&#45;&gt;Node24 -->
<g id="edge26" class="edge">
<title>Node2&#45;&gt;Node24</title>
<path fill="none" stroke="midnightblue" d="M787.9,-331.1C824.97,-318.41 869.86,-303.04 901.79,-292.11"/>
<polygon fill="midnightblue" stroke="midnightblue" points="786.5,-327.88 778.17,-334.43 788.77,-334.5 786.5,-327.88"/>
</g>
<!-- Node25 -->
<g id="node25" class="node">
<title>Node25</title>
<g id="a_node25"><a xlink:href="../../df/df3/mqtt__v2__test_8cpp.html" target="_top" xlink:title=" ">
<polygon fill="none" stroke="black" points="588,-256.5 588,-297.5 714,-297.5 714,-256.5 588,-256.5"/>
<text text-anchor="start" x="596" y="-285.5" font-family="Helvetica,sans-Serif" font-size="10.00">Components/Protocols</text>
<text text-anchor="start" x="596" y="-274.5" font-family="Helvetica,sans-Serif" font-size="10.00">/MQTT/test/test/mqtt</text>
<text text-anchor="middle" x="651" y="-263.5" font-family="Helvetica,sans-Serif" font-size="10.00">_v2_test.cpp</text>
</a>
</g>
</g>
<!-- Node2&#45;&gt;Node25 -->
<g id="edge27" class="edge">
<title>Node2&#45;&gt;Node25</title>
<path fill="none" stroke="midnightblue" d="M696.05,-326.92C687.11,-317.2 677.2,-306.45 668.97,-297.51"/>
<polygon fill="midnightblue" stroke="midnightblue" points="693.62,-329.44 702.97,-334.43 698.77,-324.7 693.62,-329.44"/>
</g>
<!-- Node3&#45;&gt;Node4 -->
<g id="edge3" class="edge">
<title>Node3&#45;&gt;Node4</title>
<path fill="none" stroke="midnightblue" d="M322.45,-251.91C343.9,-241.46 368.69,-229.38 388.96,-219.51"/>
<polygon fill="midnightblue" stroke="midnightblue" points="320.63,-248.9 313.17,-256.43 323.7,-255.19 320.63,-248.9"/>
</g>
<!-- Node15 -->
<g id="node15" class="node">
<title>Node15</title>
<g id="a_node15"><a xlink:href="../../d2/df5/_error_code_parser_8cpp.html" target="_top" xlink:title=" ">
<polygon fill="none" stroke="black" points="8.5,-178.5 8.5,-219.5 157.5,-219.5 157.5,-178.5 8.5,-178.5"/>
<text text-anchor="start" x="16.5" y="-207.5" font-family="Helvetica,sans-Serif" font-size="10.00">Components/Objects</text>
<text text-anchor="start" x="16.5" y="-196.5" font-family="Helvetica,sans-Serif" font-size="10.00">/ErrorHandler/src/ErrorCode</text>
<text text-anchor="middle" x="83" y="-185.5" font-family="Helvetica,sans-Serif" font-size="10.00">Parser.cpp</text>
</a>
</g>
</g>
<!-- Node3&#45;&gt;Node15 -->
<g id="edge16" class="edge">
<title>Node3&#45;&gt;Node15</title>
<path fill="none" stroke="midnightblue" d="M214.52,-252.61C188,-242 157,-229.6 131.76,-219.51"/>
<polygon fill="midnightblue" stroke="midnightblue" points="213.49,-255.96 224.07,-256.43 216.09,-249.46 213.49,-255.96"/>
</g>
<!-- Node16 -->
<g id="node16" class="node">
<title>Node16</title>
<g id="a_node16"><a xlink:href="../../d9/db8/_error_code_parser__test_8cpp.html" target="_top" xlink:title=" ">
<polygon fill="none" stroke="black" points="175.5,-178.5 175.5,-219.5 318.5,-219.5 318.5,-178.5 175.5,-178.5"/>
<text text-anchor="start" x="183.5" y="-207.5" font-family="Helvetica,sans-Serif" font-size="10.00">Components/Objects</text>
<text text-anchor="start" x="183.5" y="-196.5" font-family="Helvetica,sans-Serif" font-size="10.00">/ErrorHandler/test/test</text>
<text text-anchor="middle" x="247" y="-185.5" font-family="Helvetica,sans-Serif" font-size="10.00">/ErrorCodeParser_test.cpp</text>
</a>
</g>
</g>
<!-- Node3&#45;&gt;Node16 -->
<g id="edge17" class="edge">
<title>Node3&#45;&gt;Node16</title>
<path fill="none" stroke="midnightblue" d="M263.04,-246.88C259.9,-237.72 256.52,-227.83 253.67,-219.51"/>
<polygon fill="midnightblue" stroke="midnightblue" points="259.76,-248.1 266.3,-256.43 266.38,-245.83 259.76,-248.1"/>
</g>
<!-- Node5 -->
<g id="node5" class="node">
<title>Node5</title>
<g id="a_node5"><a xlink:href="../../db/d12/_distance_sensor_controller_8hpp.html" target="_top" xlink:title=" ">
<polygon fill="none" stroke="black" points="392.5,-95 392.5,-136 595.5,-136 595.5,-95 392.5,-95"/>
<text text-anchor="start" x="400.5" y="-124" font-family="Helvetica,sans-Serif" font-size="10.00">Components/Controller</text>
<text text-anchor="start" x="400.5" y="-113" font-family="Helvetica,sans-Serif" font-size="10.00">/DistanceSensorController</text>
<text text-anchor="middle" x="494" y="-102" font-family="Helvetica,sans-Serif" font-size="10.00">/include/DistanceSensorController.hpp</text>
</a>
</g>
</g>
<!-- Node4&#45;&gt;Node5 -->
<g id="edge4" class="edge">
<title>Node4&#45;&gt;Node5</title>
<path fill="none" stroke="midnightblue" d="M451.03,-170.38C460.02,-159.11 470.21,-146.33 478.41,-136.05"/>
<polygon fill="midnightblue" stroke="midnightblue" points="448.23,-168.27 444.73,-178.27 453.71,-172.64 448.23,-168.27"/>
</g>
<!-- Node9 -->
<g id="node9" class="node">
<title>Node9</title>
<g id="a_node9"><a xlink:href="../../d2/d8d/_sensor_controller_base_8cpp.html" target="_top" xlink:title=" ">
<polygon fill="none" stroke="black" points="614,-95 614,-136 776,-136 776,-95 614,-95"/>
<text text-anchor="start" x="622" y="-124" font-family="Helvetica,sans-Serif" font-size="10.00">Components/Interfaces</text>
<text text-anchor="start" x="622" y="-113" font-family="Helvetica,sans-Serif" font-size="10.00">/SensorControllerBase</text>
<text text-anchor="middle" x="695" y="-102" font-family="Helvetica,sans-Serif" font-size="10.00">/src/SensorControllerBase.cpp</text>
</a>
</g>
</g>
<!-- Node4&#45;&gt;Node9 -->
<g id="edge8" class="edge">
<title>Node4&#45;&gt;Node9</title>
<path fill="none" stroke="midnightblue" d="M502.51,-175.48C542.94,-163.09 592.59,-147.88 631.35,-136"/>
<polygon fill="midnightblue" stroke="midnightblue" points="501.25,-172.2 492.71,-178.48 503.3,-178.9 501.25,-172.2"/>
</g>
<!-- Node10 -->
<g id="node10" class="node">
<title>Node10</title>
<g id="a_node10"><a xlink:href="../../db/dc2/_sensor_controller_base___m_o_c_k_8hpp.html" target="_top" xlink:title=" ">
<polygon fill="none" stroke="black" points="160,-89.5 160,-141.5 336,-141.5 336,-89.5 160,-89.5"/>
<text text-anchor="start" x="168" y="-129.5" font-family="Helvetica,sans-Serif" font-size="10.00">Components/Interfaces</text>
<text text-anchor="start" x="168" y="-118.5" font-family="Helvetica,sans-Serif" font-size="10.00">/SensorControllerBase</text>
<text text-anchor="start" x="168" y="-107.5" font-family="Helvetica,sans-Serif" font-size="10.00">/test/mock/SensorControllerBase</text>
<text text-anchor="middle" x="248" y="-96.5" font-family="Helvetica,sans-Serif" font-size="10.00">_MOCK.hpp</text>
</a>
</g>
</g>
<!-- Node4&#45;&gt;Node10 -->
<g id="edge9" class="edge">
<title>Node4&#45;&gt;Node10</title>
<path fill="none" stroke="midnightblue" d="M376.45,-174.34C353.63,-164.06 326.86,-152.01 303.69,-141.58"/>
<polygon fill="midnightblue" stroke="midnightblue" points="375.09,-177.56 385.65,-178.48 377.96,-171.18 375.09,-177.56"/>
</g>
<!-- Node12 -->
<g id="node12" class="node">
<title>Node12</title>
<g id="a_node12"><a xlink:href="../../d8/d19/_sensor_controller_test_8cpp.html" target="_top" xlink:title=" ">
<polygon fill="none" stroke="black" points="194,-6 194,-47 378,-47 378,-6 194,-6"/>
<text text-anchor="start" x="202" y="-35" font-family="Helvetica,sans-Serif" font-size="10.00">Components/Interfaces</text>
<text text-anchor="start" x="202" y="-24" font-family="Helvetica,sans-Serif" font-size="10.00">/SensorControllerBase</text>
<text text-anchor="middle" x="286" y="-13" font-family="Helvetica,sans-Serif" font-size="10.00">/test/test/SensorControllerTest.cpp</text>
</a>
</g>
</g>
<!-- Node4&#45;&gt;Node12 -->
<g id="edge12" class="edge">
<title>Node4&#45;&gt;Node12</title>
<path fill="none" stroke="midnightblue" d="M405.75,-170.42C398.35,-161.46 390.22,-151.4 383,-142 365.35,-119.01 363.52,-111.29 345,-89 332.8,-74.32 317.92,-58.82 306.15,-47.05"/>
<polygon fill="midnightblue" stroke="midnightblue" points="403.2,-172.84 412.28,-178.3 408.59,-168.37 403.2,-172.84"/>
</g>
<!-- Node4&#45;&gt;Node13 -->
<g id="edge13" class="edge">
<title>Node4&#45;&gt;Node13</title>
<path fill="none" stroke="midnightblue" d="M531.28,-177.83C644.58,-159.01 675.43,-161.07 785,-142 805.84,-138.37 828.55,-133.83 848.71,-129.59"/>
<polygon fill="midnightblue" stroke="midnightblue" points="530.44,-174.42 521.16,-179.53 531.6,-181.33 530.44,-174.42"/>
</g>
<!-- Node6 -->
<g id="node6" class="node">
<title>Node6</title>
<g id="a_node6"><a xlink:href="../../dd/dde/_distance_sensor_controller_8cpp.html" target="_top" xlink:title=" ">
<polygon fill="none" stroke="black" points="396.5,-6 396.5,-47 577.5,-47 577.5,-6 396.5,-6"/>
<text text-anchor="start" x="404.5" y="-35" font-family="Helvetica,sans-Serif" font-size="10.00">Components/Controller</text>
<text text-anchor="start" x="404.5" y="-24" font-family="Helvetica,sans-Serif" font-size="10.00">/DistanceSensorController</text>
<text text-anchor="middle" x="487" y="-13" font-family="Helvetica,sans-Serif" font-size="10.00">/src/DistanceSensorController.cpp</text>
</a>
</g>
</g>
<!-- Node5&#45;&gt;Node6 -->
<g id="edge5" class="edge">
<title>Node5&#45;&gt;Node6</title>
<path fill="none" stroke="midnightblue" d="M491.58,-84.44C490.59,-72.1 489.47,-58.16 488.58,-47.16"/>
<polygon fill="midnightblue" stroke="midnightblue" points="488.12,-85.07 492.41,-94.76 495.1,-84.51 488.12,-85.07"/>
</g>
<!-- Node7 -->
<g id="node7" class="node">
<title>Node7</title>
<g id="a_node7"><a xlink:href="../../d7/d91/_distance_sensor_controller__test_8cpp.html" target="_top" xlink:title=" ">
<polygon fill="none" stroke="black" points="595.5,-0.5 595.5,-52.5 782.5,-52.5 782.5,-0.5 595.5,-0.5"/>
<text text-anchor="start" x="603.5" y="-40.5" font-family="Helvetica,sans-Serif" font-size="10.00">Components/Controller</text>
<text text-anchor="start" x="603.5" y="-29.5" font-family="Helvetica,sans-Serif" font-size="10.00">/DistanceSensorController</text>
<text text-anchor="start" x="603.5" y="-18.5" font-family="Helvetica,sans-Serif" font-size="10.00">/test/test/DistanceSensorController</text>
<text text-anchor="middle" x="689" y="-7.5" font-family="Helvetica,sans-Serif" font-size="10.00">_test.cpp</text>
</a>
</g>
</g>
<!-- Node5&#45;&gt;Node7 -->
<g id="edge6" class="edge">
<title>Node5&#45;&gt;Node7</title>
<path fill="none" stroke="midnightblue" d="M546.91,-90.89C573.51,-79.03 605.74,-64.65 632.78,-52.58"/>
<polygon fill="midnightblue" stroke="midnightblue" points="545.47,-87.7 537.76,-94.98 548.32,-94.1 545.47,-87.7"/>
</g>
<!-- Node8 -->
<g id="node8" class="node">
<title>Node8</title>
<g id="a_node8"><a xlink:href="../../da/d75/_data_broker__test_8cpp.html" target="_top" xlink:title=" ">
<polygon fill="none" stroke="black" points="800.5,-6 800.5,-47 919.5,-47 919.5,-6 800.5,-6"/>
<text text-anchor="start" x="808.5" y="-35" font-family="Helvetica,sans-Serif" font-size="10.00">Components/Objects</text>
<text text-anchor="start" x="808.5" y="-24" font-family="Helvetica,sans-Serif" font-size="10.00">/DataBroker/test/test</text>
<text text-anchor="middle" x="860" y="-13" font-family="Helvetica,sans-Serif" font-size="10.00">/DataBroker_test.cpp</text>
</a>
</g>
</g>
<!-- Node5&#45;&gt;Node8 -->
<g id="edge7" class="edge">
<title>Node5&#45;&gt;Node8</title>
<path fill="none" stroke="midnightblue" d="M587.53,-92.77C593.44,-91.47 599.3,-90.21 605,-89 687.38,-71.57 709.91,-75.67 791,-53 797.15,-51.28 803.53,-49.26 809.81,-47.12"/>
<polygon fill="midnightblue" stroke="midnightblue" points="586.58,-89.4 577.57,-94.97 588.09,-96.23 586.58,-89.4"/>
</g>
<!-- Node11 -->
<g id="node11" class="node">
<title>Node11</title>
<g id="a_node11"><a xlink:href="../../dc/d0f/_sensor_controller_base___m_o_c_k_8cpp.html" target="_top" xlink:title=" ">
<polygon fill="none" stroke="black" points="0,-0.5 0,-52.5 176,-52.5 176,-0.5 0,-0.5"/>
<text text-anchor="start" x="8" y="-40.5" font-family="Helvetica,sans-Serif" font-size="10.00">Components/Interfaces</text>
<text text-anchor="start" x="8" y="-29.5" font-family="Helvetica,sans-Serif" font-size="10.00">/SensorControllerBase</text>
<text text-anchor="start" x="8" y="-18.5" font-family="Helvetica,sans-Serif" font-size="10.00">/test/mock/SensorControllerBase</text>
<text text-anchor="middle" x="88" y="-7.5" font-family="Helvetica,sans-Serif" font-size="10.00">_MOCK.cpp</text>
</a>
</g>
</g>
<!-- Node10&#45;&gt;Node11 -->
<g id="edge10" class="edge">
<title>Node10&#45;&gt;Node11</title>
<path fill="none" stroke="midnightblue" d="M192.82,-84.49C173.7,-74.1 152.49,-62.57 134.17,-52.61"/>
<polygon fill="midnightblue" stroke="midnightblue" points="191.26,-87.63 201.72,-89.34 194.61,-81.48 191.26,-87.63"/>
</g>
<!-- Node10&#45;&gt;Node12 -->
<g id="edge11" class="edge">
<title>Node10&#45;&gt;Node12</title>
<path fill="none" stroke="midnightblue" d="M263,-80.17C267.9,-68.93 273.18,-56.84 277.45,-47.08"/>
<polygon fill="midnightblue" stroke="midnightblue" points="259.79,-78.77 258.99,-89.34 266.2,-81.57 259.79,-78.77"/>
</g>
<!-- Node13&#45;&gt;Node8 -->
<g id="edge15" class="edge">
<title>Node13&#45;&gt;Node8</title>
<path fill="none" stroke="midnightblue" d="M892.24,-85.93C885.23,-73.23 877.16,-58.61 870.85,-47.16"/>
<polygon fill="midnightblue" stroke="midnightblue" points="889.21,-87.69 897.11,-94.76 895.34,-84.31 889.21,-87.69"/>
</g>
<!-- Node14 -->
<g id="node14" class="node">
<title>Node14</title>
<g id="a_node14"><a xlink:href="../../d4/ddc/_data_broker_8cpp.html" target="_top" xlink:title=" ">
<polygon fill="none" stroke="black" points="938,-11.5 938,-41.5 1108,-41.5 1108,-11.5 938,-11.5"/>
<text text-anchor="start" x="946" y="-29.5" font-family="Helvetica,sans-Serif" font-size="10.00">Components/Objects</text>
<text text-anchor="middle" x="1023" y="-18.5" font-family="Helvetica,sans-Serif" font-size="10.00">/DataBroker/src/DataBroker.cpp</text>
</a>
</g>
</g>
<!-- Node13&#45;&gt;Node14 -->
<g id="edge14" class="edge">
<title>Node13&#45;&gt;Node14</title>
<path fill="none" stroke="midnightblue" d="M941.94,-88.82C962.37,-73.36 987.6,-54.28 1004.43,-41.55"/>
<polygon fill="midnightblue" stroke="midnightblue" points="939.67,-86.15 933.81,-94.98 943.89,-91.73 939.67,-86.15"/>
</g>
<!-- Node18 -->
<g id="node18" class="node">
<title>Node18</title>
<g id="a_node18"><a xlink:href="../../d0/db0/hal__mqtt__log_8cpp.html" target="_top" xlink:title=" ">
<polygon fill="none" stroke="black" points="539,-178.5 539,-219.5 657,-219.5 657,-178.5 539,-178.5"/>
<text text-anchor="start" x="547" y="-207.5" font-family="Helvetica,sans-Serif" font-size="10.00">Components/Objects</text>
<text text-anchor="start" x="547" y="-196.5" font-family="Helvetica,sans-Serif" font-size="10.00">/Logger/src/hal_mqtt</text>
<text text-anchor="middle" x="598" y="-185.5" font-family="Helvetica,sans-Serif" font-size="10.00">_log.cpp</text>
</a>
</g>
</g>
<!-- Node17&#45;&gt;Node18 -->
<g id="edge20" class="edge">
<title>Node17&#45;&gt;Node18</title>
<path fill="none" stroke="midnightblue" d="M541.02,-249.78C552.39,-239.84 565.13,-228.72 575.67,-219.51"/>
<polygon fill="midnightblue" stroke="midnightblue" points="538.63,-247.21 533.4,-256.43 543.24,-252.49 538.63,-247.21"/>
</g>
<!-- Node20 -->
<g id="node20" class="node">
<title>Node20</title>
<g id="a_node20"><a xlink:href="../../dd/ddd/_maintainer_8cpp.html" target="_top" xlink:title=" ">
<polygon fill="none" stroke="black" points="684.5,-184 684.5,-214 849.5,-214 849.5,-184 684.5,-184"/>
<text text-anchor="start" x="692.5" y="-202" font-family="Helvetica,sans-Serif" font-size="10.00">Components/Objects</text>
<text text-anchor="middle" x="767" y="-191" font-family="Helvetica,sans-Serif" font-size="10.00">/Maintainer/src/Maintainer.cpp</text>
</a>
</g>
</g>
<!-- Node19&#45;&gt;Node20 -->
<g id="edge22" class="edge">
<title>Node19&#45;&gt;Node20</title>
<path fill="none" stroke="midnightblue" d="M781.72,-246.62C778.21,-235.5 774.37,-223.34 771.49,-214.23"/>
<polygon fill="midnightblue" stroke="midnightblue" points="778.47,-247.95 784.82,-256.43 785.15,-245.84 778.47,-247.95"/>
</g>
<!-- Node21 -->
<g id="node21" class="node">
<title>Node21</title>
<g id="a_node21"><a xlink:href="../../d8/d4a/maintainer__test_8cpp.html" target="_top" xlink:title=" ">
<polygon fill="none" stroke="black" points="868,-178.5 868,-219.5 986,-219.5 986,-178.5 868,-178.5"/>
<text text-anchor="start" x="876" y="-207.5" font-family="Helvetica,sans-Serif" font-size="10.00">Components/Objects</text>
<text text-anchor="start" x="876" y="-196.5" font-family="Helvetica,sans-Serif" font-size="10.00">/Maintainer/test/test</text>
<text text-anchor="middle" x="927" y="-185.5" font-family="Helvetica,sans-Serif" font-size="10.00">/maintainer_test.cpp</text>
</a>
</g>
</g>
<!-- Node19&#45;&gt;Node21 -->
<g id="edge23" class="edge">
<title>Node19&#45;&gt;Node21</title>
<path fill="none" stroke="midnightblue" d="M834.87,-251.49C853.39,-241.13 874.66,-229.25 892.1,-219.51"/>
<polygon fill="midnightblue" stroke="midnightblue" points="833.05,-248.49 826.02,-256.43 836.46,-254.61 833.05,-248.49"/>
</g>
<!-- Node19&#45;&gt;Node22 -->
<g id="edge24" class="edge">
<title>Node19&#45;&gt;Node22</title>
<path fill="none" stroke="midnightblue" d="M860.36,-255.74C928.74,-238.61 996.77,-224.31 1046.97,-214.27"/>
<polygon fill="midnightblue" stroke="midnightblue" points="859.1,-252.44 850.27,-258.28 860.82,-259.23 859.1,-252.44"/>
</g>
<!-- Node23 -->
<g id="node23" class="node">
<title>Node23</title>
<g id="a_node23"><a xlink:href="../../d2/d77/_active_current_sensor_8cpp.html" target="_top" xlink:title=" ">
<polygon fill="none" stroke="black" points="1034.5,-95 1034.5,-136 1207.5,-136 1207.5,-95 1034.5,-95"/>
<text text-anchor="start" x="1042.5" y="-124" font-family="Helvetica,sans-Serif" font-size="10.00">Components/Sensor/Active</text>
<text text-anchor="start" x="1042.5" y="-113" font-family="Helvetica,sans-Serif" font-size="10.00">CurrentSensor/src/ActiveCurrent</text>
<text text-anchor="middle" x="1121" y="-102" font-family="Helvetica,sans-Serif" font-size="10.00">Sensor.cpp</text>
</a>
</g>
</g>
<!-- Node22&#45;&gt;Node23 -->
<g id="edge25" class="edge">
<title>Node22&#45;&gt;Node23</title>
<path fill="none" stroke="midnightblue" d="M1121,-168.06C1121,-157.38 1121,-145.63 1121,-136.05"/>
<polygon fill="midnightblue" stroke="midnightblue" points="1117.5,-168.27 1121,-178.27 1124.5,-168.27 1117.5,-168.27"/>
</g>
<!-- Node26&#45;&gt;Node4 -->
<g id="edge30" class="edge">
<title>Node26&#45;&gt;Node4</title>
<path fill="none" stroke="midnightblue" d="M1138.82,-265.98C1103.06,-262.66 1062.79,-259.03 1026,-256 805.72,-237.86 749.04,-249.52 530,-220 527.08,-219.61 524.11,-219.18 521.12,-218.73"/>
<polygon fill="midnightblue" stroke="midnightblue" points="1138.49,-269.47 1148.77,-266.91 1139.14,-262.5 1138.49,-269.47"/>
</g>
<!-- Node26&#45;&gt;Node22 -->
<g id="edge33" class="edge">
<title>Node26&#45;&gt;Node22</title>
<path fill="none" stroke="midnightblue" d="M1211.36,-256.29C1193.33,-245.06 1170.79,-231.02 1152.74,-219.77"/>
<polygon fill="midnightblue" stroke="midnightblue" points="1210,-259.57 1220.34,-261.88 1213.7,-253.62 1210,-259.57"/>
</g>
<!-- Node27 -->
<g id="node27" class="node">
<title>Node27</title>
<g id="a_node27"><a xlink:href="../../d2/d93/_m_q_t_t___message_8cpp.html" target="_top" xlink:title=" ">
<polygon fill="none" stroke="black" points="1213,-184 1213,-214 1379,-214 1379,-184 1213,-184"/>
<text text-anchor="start" x="1221" y="-202" font-family="Helvetica,sans-Serif" font-size="10.00">Components/Protocols</text>
<text text-anchor="middle" x="1296" y="-191" font-family="Helvetica,sans-Serif" font-size="10.00">/MQTT/src/MQTT_Message.cpp</text>
</a>
</g>
</g>
<!-- Node26&#45;&gt;Node27 -->
<g id="edge31" class="edge">
<title>Node26&#45;&gt;Node27</title>
<path fill="none" stroke="midnightblue" d="M1258.73,-253.44C1267.59,-240.73 1278.39,-225.25 1286.08,-214.23"/>
<polygon fill="midnightblue" stroke="midnightblue" points="1255.82,-251.5 1252.97,-261.7 1261.56,-255.5 1255.82,-251.5"/>
</g>
<!-- Node28 -->
<g id="node28" class="node">
<title>Node28</title>
<g id="a_node28"><a xlink:href="../../d2/d40/msg__test_8cpp.html" target="_top" xlink:title=" ">
<polygon fill="none" stroke="black" points="1397,-184 1397,-214 1557,-214 1557,-184 1397,-184"/>
<text text-anchor="start" x="1405" y="-202" font-family="Helvetica,sans-Serif" font-size="10.00">Components/Protocols</text>
<text text-anchor="middle" x="1477" y="-191" font-family="Helvetica,sans-Serif" font-size="10.00">/MQTT/test/test/msg_test.cpp</text>
</a>
</g>
</g>
<!-- Node26&#45;&gt;Node28 -->
<g id="edge32" class="edge">
<title>Node26&#45;&gt;Node28</title>
<path fill="none" stroke="midnightblue" d="M1295.88,-258.83C1337.48,-245.31 1394.74,-226.72 1433.66,-214.07"/>
<polygon fill="midnightblue" stroke="midnightblue" points="1294.62,-255.55 1286.19,-261.97 1296.78,-262.21 1294.62,-255.55"/>
</g>
<!-- Node30 -->
<g id="node30" class="node">
<title>Node30</title>
<g id="a_node30"><a xlink:href="../../de/d8f/esp32__http__sal_8cpp.html" target="_top" xlink:title=" ">
<polygon fill="none" stroke="black" points="1499,-256.5 1499,-297.5 1625,-297.5 1625,-256.5 1499,-256.5"/>
<text text-anchor="start" x="1507" y="-285.5" font-family="Helvetica,sans-Serif" font-size="10.00">Components/Protocols</text>
<text text-anchor="start" x="1507" y="-274.5" font-family="Helvetica,sans-Serif" font-size="10.00">/HTTP/src/esp32_http</text>
<text text-anchor="middle" x="1562" y="-263.5" font-family="Helvetica,sans-Serif" font-size="10.00">_sal.cpp</text>
</a>
</g>
</g>
<!-- Node29&#45;&gt;Node30 -->
<g id="edge37" class="edge">
<title>Node29&#45;&gt;Node30</title>
<path fill="none" stroke="midnightblue" d="M1420.04,-330.89C1448.68,-320.22 1482.31,-307.69 1509.64,-297.51"/>
<polygon fill="midnightblue" stroke="midnightblue" points="1418.68,-327.66 1410.54,-334.43 1421.13,-334.22 1418.68,-327.66"/>
</g>
<!-- Node31 -->
<g id="node31" class="node">
<title>Node31</title>
<g id="a_node31"><a xlink:href="../../df/d5e/esp32__http__sal__test_8cpp.html" target="_top" xlink:title=" ">
<polygon fill="none" stroke="black" points="1355,-256.5 1355,-297.5 1481,-297.5 1481,-256.5 1355,-256.5"/>
<text text-anchor="start" x="1363" y="-285.5" font-family="Helvetica,sans-Serif" font-size="10.00">Components/Protocols</text>
<text text-anchor="start" x="1363" y="-274.5" font-family="Helvetica,sans-Serif" font-size="10.00">/HTTP/test/test/esp32</text>
<text text-anchor="middle" x="1418" y="-263.5" font-family="Helvetica,sans-Serif" font-size="10.00">_http_sal_test.cpp</text>
</a>
</g>
</g>
<!-- Node29&#45;&gt;Node31 -->
<g id="edge38" class="edge">
<title>Node29&#45;&gt;Node31</title>
<path fill="none" stroke="midnightblue" d="M1379.84,-326.34C1387.39,-316.78 1395.68,-306.27 1402.6,-297.51"/>
<polygon fill="midnightblue" stroke="midnightblue" points="1376.9,-324.41 1373.45,-334.43 1382.4,-328.75 1376.9,-324.41"/>
</g>
</g>
</svg>
        <g id="navigator" transform="translate(0 0)" fill="#404254">
                <rect fill="#f2f5e9" fill-opacity="0.5" stroke="#606060" stroke-width=".5" x="0" y="0" width="60" height="60"/>
                <use id="zoomplus" xlink:href="#zoomPlus" x="17" y="9" onmousedown="handleZoom(evt,'in')"/>
                <use id="zoomminus" xlink:href="#zoomMin" x="42" y="9" onmousedown="handleZoom(evt,'out')"/>
                <use id="reset" xlink:href="#resetDef" x="30" y="36" onmousedown="handleReset()"/>
                <g id="arrowUp" xlink:href="#dirArrow" transform="translate(30 24)" onmousedown="handlePan(0,-1)">
                  <use xlink:href="#rim" fill="#404040">
                        <set attributeName="fill" to="#808080" begin="arrowUp.mouseover" end="arrowUp.mouseout"/>
                  </use>
                  <path fill="none" stroke="white" stroke-width="1.5" d="M0,-3.0v7 M-2.5,-0.5L0,-3.0L2.5,-0.5"/>
                </g>
                <g id="arrowRight" xlink:href="#dirArrow" transform="rotate(90) translate(36 -43)" onmousedown="handlePan(1,0)">
                  <use xlink:href="#rim" fill="#404040">
                        <set attributeName="fill" to="#808080" begin="arrowRight.mouseover" end="arrowRight.mouseout"/>
                  </use>
                  <path fill="none" stroke="white" stroke-width="1.5" d="M0,-3.0v7 M-2.5,-0.5L0,-3.0L2.5,-0.5"/>
                </g>
                <g id="arrowDown" xlink:href="#dirArrow" transform="rotate(180) translate(-30 -48)" onmousedown="handlePan(0,1)">
                  <use xlink:href="#rim" fill="#404040">
                        <set attributeName="fill" to="#808080" begin="arrowDown.mouseover" end="arrowDown.mouseout"/>
                  </use>
                  <path fill="none" stroke="white" stroke-width="1.5" d="M0,-3.0v7 M-2.5,-0.5L0,-3.0L2.5,-0.5"/>
                </g>
                <g id="arrowLeft" xlink:href="#dirArrow" transform="rotate(270) translate(-36 17)" onmousedown="handlePan(-1,0)">
                  <use xlink:href="#rim" fill="#404040">
                        <set attributeName="fill" to="#808080" begin="arrowLeft.mouseover" end="arrowLeft.mouseout"/>
                  </use>
                  <path fill="none" stroke="white" stroke-width="1.5" d="M0,-3.0v7 M-2.5,-0.5L0,-3.0L2.5,-0.5"/>
                </g>
        </g>
        <svg viewBox="0 0 15 15" width="100%" height="30px" preserveAspectRatio="xMaxYMin meet">
         <g id="arrow_out" transform="scale(0.3 0.3)">
          <a xlink:href="_free_r_t_o_s_8h__dep__incl_org.svg" target="_base">
           <rect id="button" ry="5" rx="5" y="6" x="6" height="38" width="38"
                fill="#f2f5e9" fill-opacity="0.5" stroke="#606060" stroke-width="1.0"/>
           <path id="arrow"
             d="M 11.500037,31.436501 C 11.940474,20.09759 22.043105,11.32322 32.158766,21.979434 L 37.068811,17.246167 C 37.068811,17.246167 37.088388,32 37.088388,32 L 22.160133,31.978069 C 22.160133,31.978069 26.997745,27.140456 26.997745,27.140456 C 18.528582,18.264221 13.291696,25.230495 11.500037,31.436501 z"
             style="fill:#404040;"/>
          </a>
         </g>
        </svg>
</svg>
