<?xml version="1.0" encoding="UTF-8" standalone="no"?>
<!DOCTYPE svg PUBLIC "-//W3C//DTD SVG 1.1//EN"
 "http://www.w3.org/Graphics/SVG/1.1/DTD/svg11.dtd">
<!-- Generated by graphviz version 2.43.0 (0)
 -->
<!-- Title: Components/RTOS/FreeRTOS/include/FreeRTOS.h Pages: 1 -->
<svg width="2097pt" height="529pt"
 viewBox="0.00 0.00 2097.02 529.00" xmlns="http://www.w3.org/2000/svg" xmlns:xlink="http://www.w3.org/1999/xlink">
<g id="graph0" class="graph" transform="scale(1 1) rotate(0) translate(4 525)">
<title>Components/RTOS/FreeRTOS/include/FreeRTOS.h</title>
<!-- Node1 -->
<g id="node1" class="node">
<title>Node1</title>
<g id="a_node1"><a xlink:title=" ">
<polygon fill="#bfbfbf" stroke="black" points="1005,-490.5 1005,-520.5 1161,-520.5 1161,-490.5 1005,-490.5"/>
<text text-anchor="start" x="1013" y="-508.5" font-family="Helvetica,sans-Serif" font-size="10.00">Components/RTOS/FreeRTOS</text>
<text text-anchor="middle" x="1083" y="-497.5" font-family="Helvetica,sans-Serif" font-size="10.00">/include/FreeRTOS.h</text>
</a>
</g>
</g>
<!-- Node2 -->
<g id="node2" class="node">
<title>Node2</title>
<g id="a_node2"><a xlink:href="../../d4/d63/mqtt__api__v2_8hpp.html" target="_top" xlink:title=" ">
<polygon fill="none" stroke="black" points="805.5,-412.5 805.5,-453.5 938.5,-453.5 938.5,-412.5 805.5,-412.5"/>
<text text-anchor="start" x="813.5" y="-441.5" font-family="Helvetica,sans-Serif" font-size="10.00">Components/Protocols</text>
<text text-anchor="start" x="813.5" y="-430.5" font-family="Helvetica,sans-Serif" font-size="10.00">/MQTT/include/mqtt_api</text>
<text text-anchor="middle" x="872" y="-419.5" font-family="Helvetica,sans-Serif" font-size="10.00">_v2.hpp</text>
</a>
</g>
</g>
<!-- Node1&#45;&gt;Node2 -->
<g id="edge1" class="edge">
<title>Node1&#45;&gt;Node2</title>
<path fill="none" stroke="midnightblue" d="M1031.47,-487.28C1000.99,-477.1 962.28,-464.17 930.64,-453.59"/>
<polygon fill="midnightblue" stroke="midnightblue" points="1030.47,-490.64 1041.06,-490.49 1032.69,-484 1030.47,-490.64"/>
</g>
<!-- Node4 -->
<g id="node4" class="node">
<title>Node4</title>
<g id="a_node4"><a xlink:href="../../d9/d1c/_sensor_controller_base_8hpp.html" target="_top" xlink:title=" ">
<polygon fill="none" stroke="black" points="1224,-256.5 1224,-297.5 1408,-297.5 1408,-256.5 1224,-256.5"/>
<text text-anchor="start" x="1232" y="-285.5" font-family="Helvetica,sans-Serif" font-size="10.00">Components/Interfaces</text>
<text text-anchor="start" x="1232" y="-274.5" font-family="Helvetica,sans-Serif" font-size="10.00">/SensorControllerBase</text>
<text text-anchor="middle" x="1316" y="-263.5" font-family="Helvetica,sans-Serif" font-size="10.00">/include/SensorControllerBase.hpp</text>
</a>
</g>
</g>
<!-- Node1&#45;&gt;Node4 -->
<g id="edge51" class="edge">
<title>Node1&#45;&gt;Node4</title>
<path fill="none" stroke="midnightblue" d="M1123.73,-485.87C1166.25,-464.62 1232.41,-426.22 1274,-376 1293.36,-352.62 1305.15,-318.98 1311.13,-297.81"/>
<polygon fill="midnightblue" stroke="midnightblue" points="1121.94,-482.85 1114.51,-490.4 1125.03,-489.13 1121.94,-482.85"/>
</g>
<!-- Node13 -->
<g id="node13" class="node">
<title>Node13</title>
<g id="a_node13"><a xlink:href="../../d0/dc1/_data_broker_8hpp.html" target="_top" xlink:title=" ">
<polygon fill="none" stroke="black" points="1151,-84 1151,-125 1269,-125 1269,-84 1151,-84"/>
<text text-anchor="start" x="1159" y="-113" font-family="Helvetica,sans-Serif" font-size="10.00">Components/Objects</text>
<text text-anchor="start" x="1159" y="-102" font-family="Helvetica,sans-Serif" font-size="10.00">/DataBroker/include</text>
<text text-anchor="middle" x="1210" y="-91" font-family="Helvetica,sans-Serif" font-size="10.00">/DataBroker.hpp</text>
</a>
</g>
</g>
<!-- Node1&#45;&gt;Node13 -->
<g id="edge53" class="edge">
<title>Node1&#45;&gt;Node13</title>
<path fill="none" stroke="midnightblue" d="M1147.88,-487.53C1229.69,-462.08 1365.83,-405.15 1417,-298 1428.59,-273.73 1421.32,-181.74 1409,-167 1370.28,-120.67 1335.44,-149.62 1278,-131 1272.36,-129.17 1266.5,-127.16 1260.69,-125.08"/>
<polygon fill="midnightblue" stroke="midnightblue" points="1146.73,-484.23 1138.18,-490.48 1148.77,-490.92 1146.73,-484.23"/>
</g>
<!-- Node15 -->
<g id="node15" class="node">
<title>Node15</title>
<g id="a_node15"><a xlink:href="../../d2/dc5/_service_base_8hpp.html" target="_top" xlink:title=" ">
<polygon fill="none" stroke="black" points="438,-256.5 438,-297.5 568,-297.5 568,-256.5 438,-256.5"/>
<text text-anchor="start" x="446" y="-285.5" font-family="Helvetica,sans-Serif" font-size="10.00">Components/Interfaces</text>
<text text-anchor="start" x="446" y="-274.5" font-family="Helvetica,sans-Serif" font-size="10.00">/ServiceBase/include</text>
<text text-anchor="middle" x="503" y="-263.5" font-family="Helvetica,sans-Serif" font-size="10.00">/ServiceBase.hpp</text>
</a>
</g>
</g>
<!-- Node1&#45;&gt;Node15 -->
<g id="edge52" class="edge">
<title>Node1&#45;&gt;Node15</title>
<path fill="none" stroke="midnightblue" d="M994.63,-494.98C856.51,-478.32 598.57,-439.48 534,-376 512.75,-355.11 506.03,-319.77 503.93,-297.72"/>
<polygon fill="midnightblue" stroke="midnightblue" points="994.42,-498.48 1004.77,-496.19 995.25,-491.53 994.42,-498.48"/>
</g>
<!-- Node32 -->
<g id="node32" class="node">
<title>Node32</title>
<g id="a_node32"><a xlink:href="../../dd/d82/_active_current_sensor_8hpp.html" target="_top" xlink:title=" ">
<polygon fill="none" stroke="black" points="571,-173 571,-214 719,-214 719,-173 571,-173"/>
<text text-anchor="start" x="579" y="-202" font-family="Helvetica,sans-Serif" font-size="10.00">Components/Sensor/Active</text>
<text text-anchor="start" x="579" y="-191" font-family="Helvetica,sans-Serif" font-size="10.00">CurrentSensor/include</text>
<text text-anchor="middle" x="645" y="-180" font-family="Helvetica,sans-Serif" font-size="10.00">/ActiveCurrentSensor.hpp</text>
</a>
</g>
</g>
<!-- Node1&#45;&gt;Node32 -->
<g id="edge58" class="edge">
<title>Node1&#45;&gt;Node32</title>
<path fill="none" stroke="midnightblue" d="M994.51,-505.29C870.1,-504.64 637.08,-497.02 444,-454 251.67,-411.15 141.17,-460 29,-298 18.37,-282.65 16.25,-269.64 29,-256 69.53,-212.64 503.63,-230.79 562,-220 570.3,-218.47 578.94,-216.38 587.38,-214.06"/>
<polygon fill="midnightblue" stroke="midnightblue" points="994.73,-508.79 1004.75,-505.32 994.76,-501.79 994.73,-508.79"/>
</g>
<!-- Node38 -->
<g id="node38" class="node">
<title>Node38</title>
<g id="a_node38"><a xlink:href="../../d1/da7/_m_q_t_t___message_8hpp.html" target="_top" xlink:title=" ">
<polygon fill="none" stroke="black" points="304,-340 304,-370 492,-370 492,-340 304,-340"/>
<text text-anchor="start" x="312" y="-358" font-family="Helvetica,sans-Serif" font-size="10.00">Components/Protocols</text>
<text text-anchor="middle" x="398" y="-347" font-family="Helvetica,sans-Serif" font-size="10.00">/MQTT/include/MQTT_Message.hpp</text>
</a>
</g>
</g>
<!-- Node1&#45;&gt;Node38 -->
<g id="edge45" class="edge">
<title>Node1&#45;&gt;Node38</title>
<path fill="none" stroke="midnightblue" d="M994.68,-503.61C855.28,-501.06 591.34,-491.3 506,-454 463.08,-435.24 425.79,-392.41 408.41,-370.1"/>
<polygon fill="midnightblue" stroke="midnightblue" points="994.85,-507.11 1004.91,-503.79 994.97,-500.11 994.85,-507.11"/>
</g>
<!-- Node41 -->
<g id="node41" class="node">
<title>Node41</title>
<g id="a_node41"><a xlink:href="../../de/d45/esp32__http__sal_8hpp.html" target="_top" xlink:title=" ">
<polygon fill="none" stroke="black" points="1464,-412.5 1464,-453.5 1604,-453.5 1604,-412.5 1464,-412.5"/>
<text text-anchor="start" x="1472" y="-441.5" font-family="Helvetica,sans-Serif" font-size="10.00">Components/Protocols</text>
<text text-anchor="start" x="1472" y="-430.5" font-family="Helvetica,sans-Serif" font-size="10.00">/HTTP/include/esp32_http</text>
<text text-anchor="middle" x="1534" y="-419.5" font-family="Helvetica,sans-Serif" font-size="10.00">_sal.hpp</text>
</a>
</g>
</g>
<!-- Node1&#45;&gt;Node41 -->
<g id="edge54" class="edge">
<title>Node1&#45;&gt;Node41</title>
<path fill="none" stroke="midnightblue" d="M1171.32,-494.78C1245.9,-486 1355.36,-471.73 1450,-454 1454.57,-453.14 1459.26,-452.2 1463.98,-451.21"/>
<polygon fill="midnightblue" stroke="midnightblue" points="1170.56,-491.35 1161.03,-495.99 1171.37,-498.3 1170.56,-491.35"/>
</g>
<!-- Node44 -->
<g id="node44" class="node">
<title>Node44</title>
<g id="a_node44"><a xlink:href="../../da/d25/_free_r_t_o_s_8cpp.html" target="_top" xlink:title=" ">
<polygon fill="none" stroke="black" points="1622,-418 1622,-448 1778,-448 1778,-418 1622,-418"/>
<text text-anchor="start" x="1630" y="-436" font-family="Helvetica,sans-Serif" font-size="10.00">Components/RTOS/FreeRTOS</text>
<text text-anchor="middle" x="1700" y="-425" font-family="Helvetica,sans-Serif" font-size="10.00">/src/FreeRTOS.cpp</text>
</a>
</g>
</g>
<!-- Node1&#45;&gt;Node44 -->
<g id="edge57" class="edge">
<title>Node1&#45;&gt;Node44</title>
<path fill="none" stroke="midnightblue" d="M1171.38,-499.63C1276.96,-492.99 1458.69,-478.98 1613,-454 1622.94,-452.39 1633.45,-450.31 1643.58,-448.1"/>
<polygon fill="midnightblue" stroke="midnightblue" points="1170.85,-496.16 1161.09,-500.27 1171.29,-503.14 1170.85,-496.16"/>
</g>
<!-- Node3 -->
<g id="node3" class="node">
<title>Node3</title>
<g id="a_node3"><a xlink:href="../../d3/d0d/_error_code_parser_8hpp.html" target="_top" xlink:title=" ">
<polygon fill="none" stroke="black" points="1109.5,-334.5 1109.5,-375.5 1228.5,-375.5 1228.5,-334.5 1109.5,-334.5"/>
<text text-anchor="start" x="1117.5" y="-363.5" font-family="Helvetica,sans-Serif" font-size="10.00">Components/Objects</text>
<text text-anchor="start" x="1117.5" y="-352.5" font-family="Helvetica,sans-Serif" font-size="10.00">/ErrorHandler/include</text>
<text text-anchor="middle" x="1169" y="-341.5" font-family="Helvetica,sans-Serif" font-size="10.00">/ErrorCodeParser.hpp</text>
</a>
</g>
</g>
<!-- Node2&#45;&gt;Node3 -->
<g id="edge2" class="edge">
<title>Node2&#45;&gt;Node3</title>
<path fill="none" stroke="midnightblue" d="M948.38,-414.07C992.75,-403.45 1049.67,-389.47 1100,-376 1103.01,-375.19 1106.09,-374.35 1109.2,-373.5"/>
<polygon fill="midnightblue" stroke="midnightblue" points="947.44,-410.7 938.53,-416.42 949.07,-417.51 947.44,-410.7"/>
</g>
<!-- Node2&#45;&gt;Node4 -->
<g id="edge37" class="edge">
<title>Node2&#45;&gt;Node4</title>
<path fill="none" stroke="midnightblue" d="M948.98,-426.73C1041.2,-419.29 1189.27,-403.47 1237,-376 1269.01,-357.58 1293.18,-320.77 1305.92,-297.88"/>
<polygon fill="midnightblue" stroke="midnightblue" points="948.54,-423.25 938.85,-427.53 949.09,-430.23 948.54,-423.25"/>
</g>
<!-- Node2&#45;&gt;Node15 -->
<g id="edge38" class="edge">
<title>Node2&#45;&gt;Node15</title>
<path fill="none" stroke="midnightblue" d="M795.44,-431.4C733.81,-427.72 647.04,-415.12 582,-376 550.35,-356.96 526.06,-320.35 513.21,-297.67"/>
<polygon fill="midnightblue" stroke="midnightblue" points="795.32,-434.9 805.5,-431.93 795.69,-427.9 795.32,-434.9"/>
</g>
<!-- Node29 -->
<g id="node29" class="node">
<title>Node29</title>
<g id="a_node29"><a xlink:href="../../d0/d6a/_maintainer_8hpp.html" target="_top" xlink:title=" ">
<polygon fill="none" stroke="black" points="760,-256.5 760,-297.5 878,-297.5 878,-256.5 760,-256.5"/>
<text text-anchor="start" x="768" y="-285.5" font-family="Helvetica,sans-Serif" font-size="10.00">Components/Objects</text>
<text text-anchor="start" x="768" y="-274.5" font-family="Helvetica,sans-Serif" font-size="10.00">/Maintainer/include</text>
<text text-anchor="middle" x="819" y="-263.5" font-family="Helvetica,sans-Serif" font-size="10.00">/Maintainer.hpp</text>
</a>
</g>
</g>
<!-- Node2&#45;&gt;Node29 -->
<g id="edge41" class="edge">
<title>Node2&#45;&gt;Node29</title>
<path fill="none" stroke="midnightblue" d="M817.42,-406.9C805.64,-398.79 794.72,-388.56 788,-376 774.36,-350.51 790.4,-318.04 804.01,-297.63"/>
<polygon fill="midnightblue" stroke="midnightblue" points="815.78,-410.01 826.09,-412.44 819.55,-404.11 815.78,-410.01"/>
</g>
<!-- Node2&#45;&gt;Node32 -->
<g id="edge44" class="edge">
<title>Node2&#45;&gt;Node32</title>
<path fill="none" stroke="midnightblue" d="M795.21,-425.74C727.88,-418.46 637.34,-403.74 615,-376 576.63,-328.37 612.45,-250.44 632.94,-214.19"/>
<polygon fill="midnightblue" stroke="midnightblue" points="795.07,-429.24 805.38,-426.8 795.8,-422.28 795.07,-429.24"/>
</g>
<!-- Node34 -->
<g id="node34" class="node">
<title>Node34</title>
<g id="a_node34"><a xlink:href="../../d7/d44/hal__mqtt__log_8hpp.html" target="_top" xlink:title=" ">
<polygon fill="none" stroke="black" points="624,-334.5 624,-375.5 742,-375.5 742,-334.5 624,-334.5"/>
<text text-anchor="start" x="632" y="-363.5" font-family="Helvetica,sans-Serif" font-size="10.00">Components/Objects</text>
<text text-anchor="start" x="632" y="-352.5" font-family="Helvetica,sans-Serif" font-size="10.00">/Logger/include/hal</text>
<text text-anchor="middle" x="683" y="-341.5" font-family="Helvetica,sans-Serif" font-size="10.00">_mqtt_log.hpp</text>
</a>
</g>
</g>
<!-- Node2&#45;&gt;Node34 -->
<g id="edge39" class="edge">
<title>Node2&#45;&gt;Node34</title>
<path fill="none" stroke="midnightblue" d="M813.83,-408.61C787.45,-398 756.61,-385.6 731.51,-375.51"/>
<polygon fill="midnightblue" stroke="midnightblue" points="812.74,-411.94 823.33,-412.43 815.36,-405.45 812.74,-411.94"/>
</g>
<!-- Node36 -->
<g id="node36" class="node">
<title>Node36</title>
<g id="a_node36"><a xlink:href="../../d3/dc1/mqtt__api__v2_8cpp.html" target="_top" xlink:title=" ">
<polygon fill="none" stroke="black" points="797.5,-340 797.5,-370 946.5,-370 946.5,-340 797.5,-340"/>
<text text-anchor="start" x="805.5" y="-358" font-family="Helvetica,sans-Serif" font-size="10.00">Components/Protocols</text>
<text text-anchor="middle" x="872" y="-347" font-family="Helvetica,sans-Serif" font-size="10.00">/MQTT/src/mqtt_api_v2.cpp</text>
</a>
</g>
</g>
<!-- Node2&#45;&gt;Node36 -->
<g id="edge42" class="edge">
<title>Node2&#45;&gt;Node36</title>
<path fill="none" stroke="midnightblue" d="M872,-402.28C872,-391.25 872,-379.25 872,-370.23"/>
<polygon fill="midnightblue" stroke="midnightblue" points="868.5,-402.43 872,-412.43 875.5,-402.43 868.5,-402.43"/>
</g>
<!-- Node37 -->
<g id="node37" class="node">
<title>Node37</title>
<g id="a_node37"><a xlink:href="../../df/df3/mqtt__v2__test_8cpp.html" target="_top" xlink:title=" ">
<polygon fill="none" stroke="black" points="965,-334.5 965,-375.5 1091,-375.5 1091,-334.5 965,-334.5"/>
<text text-anchor="start" x="973" y="-363.5" font-family="Helvetica,sans-Serif" font-size="10.00">Components/Protocols</text>
<text text-anchor="start" x="973" y="-352.5" font-family="Helvetica,sans-Serif" font-size="10.00">/MQTT/test/test/mqtt</text>
<text text-anchor="middle" x="1028" y="-341.5" font-family="Helvetica,sans-Serif" font-size="10.00">_v2_test.cpp</text>
</a>
</g>
</g>
<!-- Node2&#45;&gt;Node37 -->
<g id="edge43" class="edge">
<title>Node2&#45;&gt;Node37</title>
<path fill="none" stroke="midnightblue" d="M921.45,-407.91C942.9,-397.46 967.69,-385.38 987.96,-375.51"/>
<polygon fill="midnightblue" stroke="midnightblue" points="919.63,-404.9 912.17,-412.43 922.7,-411.19 919.63,-404.9"/>
</g>
<!-- Node3&#45;&gt;Node4 -->
<g id="edge3" class="edge">
<title>Node3&#45;&gt;Node4</title>
<path fill="none" stroke="midnightblue" d="M1215.87,-329.77C1236.02,-319.35 1259.26,-307.34 1278.27,-297.51"/>
<polygon fill="midnightblue" stroke="midnightblue" points="1214.13,-326.73 1206.86,-334.43 1217.35,-332.94 1214.13,-326.73"/>
</g>
<!-- Node3&#45;&gt;Node15 -->
<g id="edge16" class="edge">
<title>Node3&#45;&gt;Node15</title>
<path fill="none" stroke="midnightblue" d="M1099.37,-334.11C885.48,-296.58 826.21,-324.62 615,-298 599.81,-296.09 583.56,-293.5 568.27,-290.82"/>
<polygon fill="midnightblue" stroke="midnightblue" points="1098.88,-337.58 1109.34,-335.88 1100.11,-330.68 1098.88,-337.58"/>
</g>
<!-- Node27 -->
<g id="node27" class="node">
<title>Node27</title>
<g id="a_node27"><a xlink:href="../../d2/df5/_error_code_parser_8cpp.html" target="_top" xlink:title=" ">
<polygon fill="none" stroke="black" points="896.5,-256.5 896.5,-297.5 1045.5,-297.5 1045.5,-256.5 896.5,-256.5"/>
<text text-anchor="start" x="904.5" y="-285.5" font-family="Helvetica,sans-Serif" font-size="10.00">Components/Objects</text>
<text text-anchor="start" x="904.5" y="-274.5" font-family="Helvetica,sans-Serif" font-size="10.00">/ErrorHandler/src/ErrorCode</text>
<text text-anchor="middle" x="971" y="-263.5" font-family="Helvetica,sans-Serif" font-size="10.00">Parser.cpp</text>
</a>
</g>
</g>
<!-- Node3&#45;&gt;Node27 -->
<g id="edge30" class="edge">
<title>Node3&#45;&gt;Node27</title>
<path fill="none" stroke="midnightblue" d="M1108.42,-330.75C1080.71,-320.11 1048.24,-307.65 1021.82,-297.51"/>
<polygon fill="midnightblue" stroke="midnightblue" points="1107.42,-334.11 1118.01,-334.43 1109.93,-327.58 1107.42,-334.11"/>
</g>
<!-- Node28 -->
<g id="node28" class="node">
<title>Node28</title>
<g id="a_node28"><a xlink:href="../../d9/db8/_error_code_parser__test_8cpp.html" target="_top" xlink:title=" ">
<polygon fill="none" stroke="black" points="1064,-256.5 1064,-297.5 1206,-297.5 1206,-256.5 1064,-256.5"/>
<text text-anchor="start" x="1072" y="-285.5" font-family="Helvetica,sans-Serif" font-size="10.00">Components/Objects</text>
<text text-anchor="start" x="1072" y="-274.5" font-family="Helvetica,sans-Serif" font-size="10.00">/ErrorHandler/test/test</text>
<text text-anchor="middle" x="1135" y="-263.5" font-family="Helvetica,sans-Serif" font-size="10.00">/ErrorCodeParser_test.cpp</text>
</a>
</g>
</g>
<!-- Node3&#45;&gt;Node28 -->
<g id="edge31" class="edge">
<title>Node3&#45;&gt;Node28</title>
<path fill="none" stroke="midnightblue" d="M1156.1,-325.17C1151.97,-315.93 1147.49,-305.92 1143.73,-297.51"/>
<polygon fill="midnightblue" stroke="midnightblue" points="1152.97,-326.73 1160.24,-334.43 1159.36,-323.87 1152.97,-326.73"/>
</g>
<!-- Node3&#45;&gt;Node29 -->
<g id="edge32" class="edge">
<title>Node3&#45;&gt;Node29</title>
<path fill="none" stroke="midnightblue" d="M1099.27,-333.98C1004.61,-313.03 977.45,-318.87 887,-298 884.12,-297.34 881.19,-296.62 878.23,-295.87"/>
<polygon fill="midnightblue" stroke="midnightblue" points="1098.75,-337.45 1109.27,-336.23 1100.29,-330.62 1098.75,-337.45"/>
</g>
<!-- Node5 -->
<g id="node5" class="node">
<title>Node5</title>
<g id="a_node5"><a xlink:href="../../db/d12/_distance_sensor_controller_8hpp.html" target="_top" xlink:title=" ">
<polygon fill="none" stroke="black" points="1783,-173 1783,-214 1985,-214 1985,-173 1783,-173"/>
<text text-anchor="start" x="1791" y="-202" font-family="Helvetica,sans-Serif" font-size="10.00">Components/Controller</text>
<text text-anchor="start" x="1791" y="-191" font-family="Helvetica,sans-Serif" font-size="10.00">/DistanceSensorController</text>
<text text-anchor="middle" x="1884" y="-180" font-family="Helvetica,sans-Serif" font-size="10.00">/include/DistanceSensorController.hpp</text>
</a>
</g>
</g>
<!-- Node4&#45;&gt;Node5 -->
<g id="edge4" class="edge">
<title>Node4&#45;&gt;Node5</title>
<path fill="none" stroke="midnightblue" d="M1418.33,-261.32C1521.55,-246.51 1679.95,-223.78 1782.77,-209.02"/>
<polygon fill="midnightblue" stroke="midnightblue" points="1417.61,-257.88 1408.21,-262.77 1418.6,-264.81 1417.61,-257.88"/>
</g>
<!-- Node9 -->
<g id="node9" class="node">
<title>Node9</title>
<g id="a_node9"><a xlink:href="../../d2/d8d/_sensor_controller_base_8cpp.html" target="_top" xlink:title=" ">
<polygon fill="none" stroke="black" points="1238,-173 1238,-214 1400,-214 1400,-173 1238,-173"/>
<text text-anchor="start" x="1246" y="-202" font-family="Helvetica,sans-Serif" font-size="10.00">Components/Interfaces</text>
<text text-anchor="start" x="1246" y="-191" font-family="Helvetica,sans-Serif" font-size="10.00">/SensorControllerBase</text>
<text text-anchor="middle" x="1319" y="-180" font-family="Helvetica,sans-Serif" font-size="10.00">/src/SensorControllerBase.cpp</text>
</a>
</g>
</g>
<!-- Node4&#45;&gt;Node9 -->
<g id="edge8" class="edge">
<title>Node4&#45;&gt;Node9</title>
<path fill="none" stroke="midnightblue" d="M1317.1,-246.06C1317.5,-235.38 1317.93,-223.63 1318.28,-214.05"/>
<polygon fill="midnightblue" stroke="midnightblue" points="1313.6,-246.15 1316.73,-256.27 1320.59,-246.41 1313.6,-246.15"/>
</g>
<!-- Node10 -->
<g id="node10" class="node">
<title>Node10</title>
<g id="a_node10"><a xlink:href="../../db/dc2/_sensor_controller_base___m_o_c_k_8hpp.html" target="_top" xlink:title=" ">
<polygon fill="none" stroke="black" points="1461,-167.5 1461,-219.5 1637,-219.5 1637,-167.5 1461,-167.5"/>
<text text-anchor="start" x="1469" y="-207.5" font-family="Helvetica,sans-Serif" font-size="10.00">Components/Interfaces</text>
<text text-anchor="start" x="1469" y="-196.5" font-family="Helvetica,sans-Serif" font-size="10.00">/SensorControllerBase</text>
<text text-anchor="start" x="1469" y="-185.5" font-family="Helvetica,sans-Serif" font-size="10.00">/test/mock/SensorControllerBase</text>
<text text-anchor="middle" x="1549" y="-174.5" font-family="Helvetica,sans-Serif" font-size="10.00">_MOCK.hpp</text>
</a>
</g>
</g>
<!-- Node4&#45;&gt;Node10 -->
<g id="edge9" class="edge">
<title>Node4&#45;&gt;Node10</title>
<path fill="none" stroke="midnightblue" d="M1381.3,-253.16C1411.19,-242.7 1446.69,-230.29 1477.31,-219.58"/>
<polygon fill="midnightblue" stroke="midnightblue" points="1380.09,-249.87 1371.81,-256.48 1382.4,-256.48 1380.09,-249.87"/>
</g>
<!-- Node12 -->
<g id="node12" class="node">
<title>Node12</title>
<g id="a_node12"><a xlink:href="../../d8/d19/_sensor_controller_test_8cpp.html" target="_top" xlink:title=" ">
<polygon fill="none" stroke="black" points="1481,-84 1481,-125 1665,-125 1665,-84 1481,-84"/>
<text text-anchor="start" x="1489" y="-113" font-family="Helvetica,sans-Serif" font-size="10.00">Components/Interfaces</text>
<text text-anchor="start" x="1489" y="-102" font-family="Helvetica,sans-Serif" font-size="10.00">/SensorControllerBase</text>
<text text-anchor="middle" x="1573" y="-91" font-family="Helvetica,sans-Serif" font-size="10.00">/test/test/SensorControllerTest.cpp</text>
</a>
</g>
</g>
<!-- Node4&#45;&gt;Node12 -->
<g id="edge12" class="edge">
<title>Node4&#45;&gt;Node12</title>
<path fill="none" stroke="midnightblue" d="M1418.23,-272.66C1504.07,-267.45 1617.19,-254.11 1646,-220 1661.2,-202 1655.93,-188.36 1646,-167 1637.96,-149.72 1622.42,-135.55 1607.73,-125.19"/>
<polygon fill="midnightblue" stroke="midnightblue" points="1417.95,-269.17 1408.17,-273.24 1418.35,-276.16 1417.95,-269.17"/>
</g>
<!-- Node4&#45;&gt;Node13 -->
<g id="edge13" class="edge">
<title>Node4&#45;&gt;Node13</title>
<path fill="none" stroke="midnightblue" d="M1262.04,-251.11C1249.42,-242.89 1237.26,-232.56 1229,-220 1209.96,-191.04 1207.93,-149.31 1208.64,-125.04"/>
<polygon fill="midnightblue" stroke="midnightblue" points="1260.45,-254.24 1270.81,-256.47 1264.1,-248.27 1260.45,-254.24"/>
</g>
<!-- Node6 -->
<g id="node6" class="node">
<title>Node6</title>
<g id="a_node6"><a xlink:href="../../dd/dde/_distance_sensor_controller_8cpp.html" target="_top" xlink:title=" ">
<polygon fill="none" stroke="black" points="1683,-84 1683,-125 1863,-125 1863,-84 1683,-84"/>
<text text-anchor="start" x="1691" y="-113" font-family="Helvetica,sans-Serif" font-size="10.00">Components/Controller</text>
<text text-anchor="start" x="1691" y="-102" font-family="Helvetica,sans-Serif" font-size="10.00">/DistanceSensorController</text>
<text text-anchor="middle" x="1773" y="-91" font-family="Helvetica,sans-Serif" font-size="10.00">/src/DistanceSensorController.cpp</text>
</a>
</g>
</g>
<!-- Node5&#45;&gt;Node6 -->
<g id="edge5" class="edge">
<title>Node5&#45;&gt;Node6</title>
<path fill="none" stroke="midnightblue" d="M1851.09,-166.71C1834.17,-153.44 1813.87,-137.53 1798.21,-125.26"/>
<polygon fill="midnightblue" stroke="midnightblue" points="1849.06,-169.56 1859.09,-172.98 1853.38,-164.05 1849.06,-169.56"/>
</g>
<!-- Node7 -->
<g id="node7" class="node">
<title>Node7</title>
<g id="a_node7"><a xlink:href="../../d7/d91/_distance_sensor_controller__test_8cpp.html" target="_top" xlink:title=" ">
<polygon fill="none" stroke="black" points="1881.5,-78.5 1881.5,-130.5 2068.5,-130.5 2068.5,-78.5 1881.5,-78.5"/>
<text text-anchor="start" x="1889.5" y="-118.5" font-family="Helvetica,sans-Serif" font-size="10.00">Components/Controller</text>
<text text-anchor="start" x="1889.5" y="-107.5" font-family="Helvetica,sans-Serif" font-size="10.00">/DistanceSensorController</text>
<text text-anchor="start" x="1889.5" y="-96.5" font-family="Helvetica,sans-Serif" font-size="10.00">/test/test/DistanceSensorController</text>
<text text-anchor="middle" x="1975" y="-85.5" font-family="Helvetica,sans-Serif" font-size="10.00">_test.cpp</text>
</a>
</g>
</g>
<!-- Node5&#45;&gt;Node7 -->
<g id="edge6" class="edge">
<title>Node5&#45;&gt;Node7</title>
<path fill="none" stroke="midnightblue" d="M1912,-165.73C1923.64,-154.6 1937.08,-141.75 1948.55,-130.79"/>
<polygon fill="midnightblue" stroke="midnightblue" points="1909.46,-163.32 1904.65,-172.76 1914.3,-168.38 1909.46,-163.32"/>
</g>
<!-- Node8 -->
<g id="node8" class="node">
<title>Node8</title>
<g id="a_node8"><a xlink:href="../../da/d75/_data_broker__test_8cpp.html" target="_top" xlink:title=" ">
<polygon fill="none" stroke="black" points="1674.5,-0.5 1674.5,-41.5 1793.5,-41.5 1793.5,-0.5 1674.5,-0.5"/>
<text text-anchor="start" x="1682.5" y="-29.5" font-family="Helvetica,sans-Serif" font-size="10.00">Components/Objects</text>
<text text-anchor="start" x="1682.5" y="-18.5" font-family="Helvetica,sans-Serif" font-size="10.00">/DataBroker/test/test</text>
<text text-anchor="middle" x="1734" y="-7.5" font-family="Helvetica,sans-Serif" font-size="10.00">/DataBroker_test.cpp</text>
</a>
</g>
</g>
<!-- Node5&#45;&gt;Node8 -->
<g id="edge7" class="edge">
<title>Node5&#45;&gt;Node8</title>
<path fill="none" stroke="midnightblue" d="M1994.92,-182.05C2026.85,-173.29 2058.33,-157.87 2078,-131 2091.91,-111.99 2093.26,-95.94 2078,-78 2042.18,-35.88 1882.2,-25.36 1793.58,-22.79"/>
<polygon fill="midnightblue" stroke="midnightblue" points="1993.84,-178.71 1985.01,-184.56 1995.56,-185.5 1993.84,-178.71"/>
</g>
<!-- Node11 -->
<g id="node11" class="node">
<title>Node11</title>
<g id="a_node11"><a xlink:href="../../dc/d0f/_sensor_controller_base___m_o_c_k_8cpp.html" target="_top" xlink:title=" ">
<polygon fill="none" stroke="black" points="1287,-78.5 1287,-130.5 1463,-130.5 1463,-78.5 1287,-78.5"/>
<text text-anchor="start" x="1295" y="-118.5" font-family="Helvetica,sans-Serif" font-size="10.00">Components/Interfaces</text>
<text text-anchor="start" x="1295" y="-107.5" font-family="Helvetica,sans-Serif" font-size="10.00">/SensorControllerBase</text>
<text text-anchor="start" x="1295" y="-96.5" font-family="Helvetica,sans-Serif" font-size="10.00">/test/mock/SensorControllerBase</text>
<text text-anchor="middle" x="1375" y="-85.5" font-family="Helvetica,sans-Serif" font-size="10.00">_MOCK.cpp</text>
</a>
</g>
</g>
<!-- Node10&#45;&gt;Node11 -->
<g id="edge10" class="edge">
<title>Node10&#45;&gt;Node11</title>
<path fill="none" stroke="midnightblue" d="M1489.55,-162.78C1468.62,-152.31 1445.31,-140.66 1425.21,-130.61"/>
<polygon fill="midnightblue" stroke="midnightblue" points="1488.16,-165.99 1498.67,-167.34 1491.29,-159.73 1488.16,-165.99"/>
</g>
<!-- Node10&#45;&gt;Node12 -->
<g id="edge11" class="edge">
<title>Node10&#45;&gt;Node12</title>
<path fill="none" stroke="midnightblue" d="M1558.66,-157.49C1561.7,-146.45 1564.96,-134.65 1567.6,-125.08"/>
<polygon fill="midnightblue" stroke="midnightblue" points="1555.23,-156.77 1555.94,-167.34 1561.98,-158.63 1555.23,-156.77"/>
</g>
<!-- Node13&#45;&gt;Node8 -->
<g id="edge15" class="edge">
<title>Node13&#45;&gt;Node8</title>
<path fill="none" stroke="midnightblue" d="M1267.64,-80.83C1271.12,-79.79 1274.59,-78.84 1278,-78 1417.44,-43.81 1586.23,-30.01 1674.16,-24.84"/>
<polygon fill="midnightblue" stroke="midnightblue" points="1266.31,-77.58 1257.85,-83.95 1268.44,-84.25 1266.31,-77.58"/>
</g>
<!-- Node14 -->
<g id="node14" class="node">
<title>Node14</title>
<g id="a_node14"><a xlink:href="../../d4/ddc/_data_broker_8cpp.html" target="_top" xlink:title=" ">
<polygon fill="none" stroke="black" points="1125.5,-6 1125.5,-36 1294.5,-36 1294.5,-6 1125.5,-6"/>
<text text-anchor="start" x="1133.5" y="-24" font-family="Helvetica,sans-Serif" font-size="10.00">Components/Objects</text>
<text text-anchor="middle" x="1210" y="-13" font-family="Helvetica,sans-Serif" font-size="10.00">/DataBroker/src/DataBroker.cpp</text>
</a>
</g>
</g>
<!-- Node13&#45;&gt;Node14 -->
<g id="edge14" class="edge">
<title>Node13&#45;&gt;Node14</title>
<path fill="none" stroke="midnightblue" d="M1210,-73.53C1210,-60.76 1210,-46.47 1210,-36.18"/>
<polygon fill="midnightblue" stroke="midnightblue" points="1206.5,-73.77 1210,-83.77 1213.5,-73.77 1206.5,-73.77"/>
</g>
<!-- Node16 -->
<g id="node16" class="node">
<title>Node16</title>
<g id="a_node16"><a xlink:href="../../d2/dd8/_service_queue_base_8hpp.html" target="_top" xlink:title=" ">
<polygon fill="none" stroke="black" points="273,-173 273,-214 405,-214 405,-173 273,-173"/>
<text text-anchor="start" x="281" y="-202" font-family="Helvetica,sans-Serif" font-size="10.00">Components/Interfaces</text>
<text text-anchor="start" x="281" y="-191" font-family="Helvetica,sans-Serif" font-size="10.00">/ServiceBase/include</text>
<text text-anchor="middle" x="339" y="-180" font-family="Helvetica,sans-Serif" font-size="10.00">/ServiceQueueBase.hpp</text>
</a>
</g>
</g>
<!-- Node15&#45;&gt;Node16 -->
<g id="edge17" class="edge">
<title>Node15&#45;&gt;Node16</title>
<path fill="none" stroke="midnightblue" d="M454.65,-251.97C430.3,-239.87 401.18,-225.4 378.25,-214"/>
<polygon fill="midnightblue" stroke="midnightblue" points="453.21,-255.16 463.72,-256.48 456.32,-248.89 453.21,-255.16"/>
</g>
<!-- Node23 -->
<g id="node23" class="node">
<title>Node23</title>
<g id="a_node23"><a xlink:href="../../d8/deb/_service_time_base_8hpp.html" target="_top" xlink:title=" ">
<polygon fill="none" stroke="black" points="423,-173 423,-214 553,-214 553,-173 423,-173"/>
<text text-anchor="start" x="431" y="-202" font-family="Helvetica,sans-Serif" font-size="10.00">Components/Interfaces</text>
<text text-anchor="start" x="431" y="-191" font-family="Helvetica,sans-Serif" font-size="10.00">/ServiceBase/include</text>
<text text-anchor="middle" x="488" y="-180" font-family="Helvetica,sans-Serif" font-size="10.00">/ServiceTimeBase.hpp</text>
</a>
</g>
</g>
<!-- Node15&#45;&gt;Node23 -->
<g id="edge25" class="edge">
<title>Node15&#45;&gt;Node23</title>
<path fill="none" stroke="midnightblue" d="M497.55,-246.4C495.57,-235.63 493.38,-223.73 491.6,-214.05"/>
<polygon fill="midnightblue" stroke="midnightblue" points="494.12,-247.07 499.37,-256.27 501,-245.8 494.12,-247.07"/>
</g>
<!-- Node16&#45;&gt;Node13 -->
<g id="edge19" class="edge">
<title>Node16&#45;&gt;Node13</title>
<path fill="none" stroke="midnightblue" d="M400.72,-170.17C405.18,-168.97 409.64,-167.9 414,-167 449.98,-159.62 972.26,-122.29 1150.73,-109.67"/>
<polygon fill="midnightblue" stroke="midnightblue" points="399.64,-166.84 390.99,-172.96 401.57,-173.57 399.64,-166.84"/>
</g>
<!-- Node17 -->
<g id="node17" class="node">
<title>Node17</title>
<g id="a_node17"><a xlink:href="../../dc/d1d/_service__test_8cpp.html" target="_top" xlink:title=" ">
<polygon fill="none" stroke="black" points="350,-84 350,-125 480,-125 480,-84 350,-84"/>
<text text-anchor="start" x="358" y="-113" font-family="Helvetica,sans-Serif" font-size="10.00">Components/Interfaces</text>
<text text-anchor="start" x="358" y="-102" font-family="Helvetica,sans-Serif" font-size="10.00">/ServiceBase/test/test</text>
<text text-anchor="middle" x="415" y="-91" font-family="Helvetica,sans-Serif" font-size="10.00">/Service_test.cpp</text>
</a>
</g>
</g>
<!-- Node16&#45;&gt;Node17 -->
<g id="edge18" class="edge">
<title>Node16&#45;&gt;Node17</title>
<path fill="none" stroke="midnightblue" d="M362.99,-165.03C374.3,-152.09 387.54,-136.94 397.82,-125.16"/>
<polygon fill="midnightblue" stroke="midnightblue" points="360.19,-162.92 356.25,-172.76 365.46,-167.53 360.19,-162.92"/>
</g>
<!-- Node18 -->
<g id="node18" class="node">
<title>Node18</title>
<g id="a_node18"><a xlink:href="../../d2/d1e/_online_detector__service_8hpp.html" target="_top" xlink:title=" ">
<polygon fill="none" stroke="black" points="176.5,-84 176.5,-125 331.5,-125 331.5,-84 176.5,-84"/>
<text text-anchor="start" x="184.5" y="-113" font-family="Helvetica,sans-Serif" font-size="10.00">Components/Service</text>
<text text-anchor="start" x="184.5" y="-102" font-family="Helvetica,sans-Serif" font-size="10.00">/OnlineDetector/include</text>
<text text-anchor="middle" x="254" y="-91" font-family="Helvetica,sans-Serif" font-size="10.00">/OnlineDetector_service.hpp</text>
</a>
</g>
</g>
<!-- Node16&#45;&gt;Node18 -->
<g id="edge20" class="edge">
<title>Node16&#45;&gt;Node18</title>
<path fill="none" stroke="midnightblue" d="M312.52,-165.4C299.8,-152.37 284.83,-137.05 273.21,-125.16"/>
<polygon fill="midnightblue" stroke="midnightblue" points="310.22,-168.05 319.71,-172.76 315.23,-163.16 310.22,-168.05"/>
</g>
<!-- Node21 -->
<g id="node21" class="node">
<title>Node21</title>
<g id="a_node21"><a xlink:href="../../dd/d22/_water_estimator___service_8hpp.html" target="_top" xlink:title=" ">
<polygon fill="none" stroke="black" points="0,-84 0,-125 158,-125 158,-84 0,-84"/>
<text text-anchor="start" x="8" y="-113" font-family="Helvetica,sans-Serif" font-size="10.00">Components/Service</text>
<text text-anchor="start" x="8" y="-102" font-family="Helvetica,sans-Serif" font-size="10.00">/WaterEstimator/include</text>
<text text-anchor="middle" x="79" y="-91" font-family="Helvetica,sans-Serif" font-size="10.00">/WaterEstimator_Service.hpp</text>
</a>
</g>
</g>
<!-- Node16&#45;&gt;Node21 -->
<g id="edge23" class="edge">
<title>Node16&#45;&gt;Node21</title>
<path fill="none" stroke="midnightblue" d="M270.91,-169.72C229.51,-155.86 177.16,-138.35 137.6,-125.11"/>
<polygon fill="midnightblue" stroke="midnightblue" points="270.06,-173.12 280.65,-172.98 272.28,-166.48 270.06,-173.12"/>
</g>
<!-- Node19 -->
<g id="node19" class="node">
<title>Node19</title>
<g id="a_node19"><a xlink:href="../../d7/d24/_online_detector__service_8cpp.html" target="_top" xlink:title=" ">
<polygon fill="none" stroke="black" points="177,-0.5 177,-41.5 331,-41.5 331,-0.5 177,-0.5"/>
<text text-anchor="start" x="185" y="-29.5" font-family="Helvetica,sans-Serif" font-size="10.00">Components/Service</text>
<text text-anchor="start" x="185" y="-18.5" font-family="Helvetica,sans-Serif" font-size="10.00">/OnlineDetector/src</text>
<text text-anchor="middle" x="254" y="-7.5" font-family="Helvetica,sans-Serif" font-size="10.00">/OnlineDetector_service.cpp</text>
</a>
</g>
</g>
<!-- Node18&#45;&gt;Node19 -->
<g id="edge21" class="edge">
<title>Node18&#45;&gt;Node19</title>
<path fill="none" stroke="midnightblue" d="M254,-73.56C254,-62.88 254,-51.13 254,-41.55"/>
<polygon fill="midnightblue" stroke="midnightblue" points="250.5,-73.77 254,-83.77 257.5,-73.77 250.5,-73.77"/>
</g>
<!-- Node20 -->
<g id="node20" class="node">
<title>Node20</title>
<g id="a_node20"><a xlink:href="../../db/df8/_service_2_online_detector_2test_2test_2simple__test_8cpp.html" target="_top" xlink:title=" ">
<polygon fill="none" stroke="black" points="349.5,-0.5 349.5,-41.5 468.5,-41.5 468.5,-0.5 349.5,-0.5"/>
<text text-anchor="start" x="357.5" y="-29.5" font-family="Helvetica,sans-Serif" font-size="10.00">Components/Service</text>
<text text-anchor="start" x="357.5" y="-18.5" font-family="Helvetica,sans-Serif" font-size="10.00">/OnlineDetector/test</text>
<text text-anchor="middle" x="409" y="-7.5" font-family="Helvetica,sans-Serif" font-size="10.00">/test/simple_test.cpp</text>
</a>
</g>
</g>
<!-- Node18&#45;&gt;Node20 -->
<g id="edge22" class="edge">
<title>Node18&#45;&gt;Node20</title>
<path fill="none" stroke="midnightblue" d="M300,-79.31C322.95,-67.25 350.33,-52.85 371.91,-41.5"/>
<polygon fill="midnightblue" stroke="midnightblue" points="298.35,-76.23 291.13,-83.98 301.61,-82.42 298.35,-76.23"/>
</g>
<!-- Node22 -->
<g id="node22" class="node">
<title>Node22</title>
<g id="a_node22"><a xlink:href="../../dd/dd3/_water_estimator___service_8cpp.html" target="_top" xlink:title=" ">
<polygon fill="none" stroke="black" points="0.5,-0.5 0.5,-41.5 157.5,-41.5 157.5,-0.5 0.5,-0.5"/>
<text text-anchor="start" x="8.5" y="-29.5" font-family="Helvetica,sans-Serif" font-size="10.00">Components/Service</text>
<text text-anchor="start" x="8.5" y="-18.5" font-family="Helvetica,sans-Serif" font-size="10.00">/WaterEstimator/src</text>
<text text-anchor="middle" x="79" y="-7.5" font-family="Helvetica,sans-Serif" font-size="10.00">/WaterEstimator_Service.cpp</text>
</a>
</g>
</g>
<!-- Node21&#45;&gt;Node22 -->
<g id="edge24" class="edge">
<title>Node21&#45;&gt;Node22</title>
<path fill="none" stroke="midnightblue" d="M79,-73.56C79,-62.88 79,-51.13 79,-41.55"/>
<polygon fill="midnightblue" stroke="midnightblue" points="75.5,-73.77 79,-83.77 82.5,-73.77 75.5,-73.77"/>
</g>
<!-- Node23&#45;&gt;Node17 -->
<g id="edge26" class="edge">
<title>Node23&#45;&gt;Node17</title>
<path fill="none" stroke="midnightblue" d="M464.95,-165.03C454.09,-152.09 441.38,-136.94 431.5,-125.16"/>
<polygon fill="midnightblue" stroke="midnightblue" points="462.33,-167.35 471.44,-172.76 467.69,-162.85 462.33,-167.35"/>
</g>
<!-- Node24 -->
<g id="node24" class="node">
<title>Node24</title>
<g id="a_node24"><a xlink:href="../../df/d40/is_alive__service_8hpp.html" target="_top" xlink:title=" ">
<polygon fill="none" stroke="black" points="498.5,-84 498.5,-125 625.5,-125 625.5,-84 498.5,-84"/>
<text text-anchor="start" x="506.5" y="-113" font-family="Helvetica,sans-Serif" font-size="10.00">Components/Service</text>
<text text-anchor="start" x="506.5" y="-102" font-family="Helvetica,sans-Serif" font-size="10.00">/isAlive/include/isAlive</text>
<text text-anchor="middle" x="562" y="-91" font-family="Helvetica,sans-Serif" font-size="10.00">_service.hpp</text>
</a>
</g>
</g>
<!-- Node23&#45;&gt;Node24 -->
<g id="edge27" class="edge">
<title>Node23&#45;&gt;Node24</title>
<path fill="none" stroke="midnightblue" d="M511.36,-165.03C522.37,-152.09 535.26,-136.94 545.27,-125.16"/>
<polygon fill="midnightblue" stroke="midnightblue" points="508.6,-162.87 504.79,-172.76 513.94,-167.41 508.6,-162.87"/>
</g>
<!-- Node25 -->
<g id="node25" class="node">
<title>Node25</title>
<g id="a_node25"><a xlink:href="../../de/da1/is_alive__service_8cpp.html" target="_top" xlink:title=" ">
<polygon fill="none" stroke="black" points="642.5,-0.5 642.5,-41.5 759.5,-41.5 759.5,-0.5 642.5,-0.5"/>
<text text-anchor="start" x="650.5" y="-29.5" font-family="Helvetica,sans-Serif" font-size="10.00">Components/Service</text>
<text text-anchor="start" x="650.5" y="-18.5" font-family="Helvetica,sans-Serif" font-size="10.00">/isAlive/src/isAlive</text>
<text text-anchor="middle" x="701" y="-7.5" font-family="Helvetica,sans-Serif" font-size="10.00">_service.cpp</text>
</a>
</g>
</g>
<!-- Node24&#45;&gt;Node25 -->
<g id="edge28" class="edge">
<title>Node24&#45;&gt;Node25</title>
<path fill="none" stroke="midnightblue" d="M604.04,-78.85C624.37,-66.93 648.43,-52.82 667.5,-41.64"/>
<polygon fill="midnightblue" stroke="midnightblue" points="602.15,-75.9 595.29,-83.98 605.69,-81.94 602.15,-75.9"/>
</g>
<!-- Node26 -->
<g id="node26" class="node">
<title>Node26</title>
<g id="a_node26"><a xlink:href="../../d4/d60/_service_2is_alive_2test_2test_2simple__test_8cpp.html" target="_top" xlink:title=" ">
<polygon fill="none" stroke="black" points="492,-0.5 492,-41.5 624,-41.5 624,-0.5 492,-0.5"/>
<text text-anchor="start" x="500" y="-29.5" font-family="Helvetica,sans-Serif" font-size="10.00">Components/Service</text>
<text text-anchor="start" x="500" y="-18.5" font-family="Helvetica,sans-Serif" font-size="10.00">/isAlive/test/test/simple</text>
<text text-anchor="middle" x="558" y="-7.5" font-family="Helvetica,sans-Serif" font-size="10.00">_test.cpp</text>
</a>
</g>
</g>
<!-- Node24&#45;&gt;Node26 -->
<g id="edge29" class="edge">
<title>Node24&#45;&gt;Node26</title>
<path fill="none" stroke="midnightblue" d="M560.53,-73.56C560.01,-62.88 559.43,-51.13 558.96,-41.55"/>
<polygon fill="midnightblue" stroke="midnightblue" points="557.05,-73.95 561.03,-83.77 564.04,-73.61 557.05,-73.95"/>
</g>
<!-- Node30 -->
<g id="node30" class="node">
<title>Node30</title>
<g id="a_node30"><a xlink:href="../../dd/ddd/_maintainer_8cpp.html" target="_top" xlink:title=" ">
<polygon fill="none" stroke="black" points="737,-178.5 737,-208.5 901,-208.5 901,-178.5 737,-178.5"/>
<text text-anchor="start" x="745" y="-196.5" font-family="Helvetica,sans-Serif" font-size="10.00">Components/Objects</text>
<text text-anchor="middle" x="819" y="-185.5" font-family="Helvetica,sans-Serif" font-size="10.00">/Maintainer/src/Maintainer.cpp</text>
</a>
</g>
</g>
<!-- Node29&#45;&gt;Node30 -->
<g id="edge33" class="edge">
<title>Node29&#45;&gt;Node30</title>
<path fill="none" stroke="midnightblue" d="M819,-246.03C819,-233.26 819,-218.97 819,-208.68"/>
<polygon fill="midnightblue" stroke="midnightblue" points="815.5,-246.27 819,-256.27 822.5,-246.27 815.5,-246.27"/>
</g>
<!-- Node31 -->
<g id="node31" class="node">
<title>Node31</title>
<g id="a_node31"><a xlink:href="../../d8/d4a/maintainer__test_8cpp.html" target="_top" xlink:title=" ">
<polygon fill="none" stroke="black" points="919,-173 919,-214 1037,-214 1037,-173 919,-173"/>
<text text-anchor="start" x="927" y="-202" font-family="Helvetica,sans-Serif" font-size="10.00">Components/Objects</text>
<text text-anchor="start" x="927" y="-191" font-family="Helvetica,sans-Serif" font-size="10.00">/Maintainer/test/test</text>
<text text-anchor="middle" x="978" y="-180" font-family="Helvetica,sans-Serif" font-size="10.00">/maintainer_test.cpp</text>
</a>
</g>
</g>
<!-- Node29&#45;&gt;Node31 -->
<g id="edge34" class="edge">
<title>Node29&#45;&gt;Node31</title>
<path fill="none" stroke="midnightblue" d="M866.19,-251.81C889.73,-239.75 917.82,-225.35 939.95,-214"/>
<polygon fill="midnightblue" stroke="midnightblue" points="864.39,-248.8 857.08,-256.48 867.58,-255.03 864.39,-248.8"/>
</g>
<!-- Node29&#45;&gt;Node32 -->
<g id="edge35" class="edge">
<title>Node29&#45;&gt;Node32</title>
<path fill="none" stroke="midnightblue" d="M768.04,-252.13C742.14,-240 711.08,-225.45 686.64,-214"/>
<polygon fill="midnightblue" stroke="midnightblue" points="766.78,-255.41 777.32,-256.48 769.75,-249.07 766.78,-255.41"/>
</g>
<!-- Node33 -->
<g id="node33" class="node">
<title>Node33</title>
<g id="a_node33"><a xlink:href="../../d2/d77/_active_current_sensor_8cpp.html" target="_top" xlink:title=" ">
<polygon fill="none" stroke="black" points="643.5,-84 643.5,-125 816.5,-125 816.5,-84 643.5,-84"/>
<text text-anchor="start" x="651.5" y="-113" font-family="Helvetica,sans-Serif" font-size="10.00">Components/Sensor/Active</text>
<text text-anchor="start" x="651.5" y="-102" font-family="Helvetica,sans-Serif" font-size="10.00">CurrentSensor/src/ActiveCurrent</text>
<text text-anchor="middle" x="730" y="-91" font-family="Helvetica,sans-Serif" font-size="10.00">Sensor.cpp</text>
</a>
</g>
</g>
<!-- Node32&#45;&gt;Node33 -->
<g id="edge36" class="edge">
<title>Node32&#45;&gt;Node33</title>
<path fill="none" stroke="midnightblue" d="M671.48,-165.4C684.2,-152.37 699.17,-137.05 710.79,-125.16"/>
<polygon fill="midnightblue" stroke="midnightblue" points="668.77,-163.16 664.29,-172.76 673.78,-168.05 668.77,-163.16"/>
</g>
<!-- Node35 -->
<g id="node35" class="node">
<title>Node35</title>
<g id="a_node35"><a xlink:href="../../d0/db0/hal__mqtt__log_8cpp.html" target="_top" xlink:title=" ">
<polygon fill="none" stroke="black" points="624,-256.5 624,-297.5 742,-297.5 742,-256.5 624,-256.5"/>
<text text-anchor="start" x="632" y="-285.5" font-family="Helvetica,sans-Serif" font-size="10.00">Components/Objects</text>
<text text-anchor="start" x="632" y="-274.5" font-family="Helvetica,sans-Serif" font-size="10.00">/Logger/src/hal_mqtt</text>
<text text-anchor="middle" x="683" y="-263.5" font-family="Helvetica,sans-Serif" font-size="10.00">_log.cpp</text>
</a>
</g>
</g>
<!-- Node34&#45;&gt;Node35 -->
<g id="edge40" class="edge">
<title>Node34&#45;&gt;Node35</title>
<path fill="none" stroke="midnightblue" d="M683,-324.3C683,-315.3 683,-305.65 683,-297.51"/>
<polygon fill="midnightblue" stroke="midnightblue" points="679.5,-324.43 683,-334.43 686.5,-324.43 679.5,-324.43"/>
</g>
<!-- Node38&#45;&gt;Node4 -->
<g id="edge46" class="edge">
<title>Node38&#45;&gt;Node4</title>
<path fill="none" stroke="midnightblue" d="M502.16,-343.72C537.91,-340.37 578.19,-336.8 615,-334 881.38,-313.74 950.03,-332.02 1215,-298 1217.93,-297.62 1220.89,-297.21 1223.89,-296.78"/>
<polygon fill="midnightblue" stroke="midnightblue" points="501.83,-340.23 492.21,-344.66 502.49,-347.2 501.83,-340.23"/>
</g>
<!-- Node38&#45;&gt;Node15 -->
<g id="edge47" class="edge">
<title>Node38&#45;&gt;Node15</title>
<path fill="none" stroke="midnightblue" d="M425.91,-333.8C441.36,-322.62 460.48,-308.78 475.81,-297.68"/>
<polygon fill="midnightblue" stroke="midnightblue" points="423.8,-331.01 417.75,-339.7 427.9,-336.68 423.8,-331.01"/>
</g>
<!-- Node38&#45;&gt;Node32 -->
<g id="edge50" class="edge">
<title>Node38&#45;&gt;Node32</title>
<path fill="none" stroke="midnightblue" d="M399.28,-329.81C401.75,-307.61 408.85,-275.32 429,-256 473.2,-213.62 503.17,-236.99 562,-220 568.52,-218.12 575.31,-216.11 582.07,-214.08"/>
<polygon fill="midnightblue" stroke="midnightblue" points="395.79,-329.53 398.4,-339.8 402.76,-330.15 395.79,-329.53"/>
</g>
<!-- Node39 -->
<g id="node39" class="node">
<title>Node39</title>
<g id="a_node39"><a xlink:href="../../d2/d93/_m_q_t_t___message_8cpp.html" target="_top" xlink:title=" ">
<polygon fill="none" stroke="black" points="38,-262 38,-292 204,-292 204,-262 38,-262"/>
<text text-anchor="start" x="46" y="-280" font-family="Helvetica,sans-Serif" font-size="10.00">Components/Protocols</text>
<text text-anchor="middle" x="121" y="-269" font-family="Helvetica,sans-Serif" font-size="10.00">/MQTT/src/MQTT_Message.cpp</text>
</a>
</g>
</g>
<!-- Node38&#45;&gt;Node39 -->
<g id="edge48" class="edge">
<title>Node38&#45;&gt;Node39</title>
<path fill="none" stroke="midnightblue" d="M336.96,-337.25C287.59,-323.71 218.86,-304.85 172.3,-292.07"/>
<polygon fill="midnightblue" stroke="midnightblue" points="336.3,-340.7 346.87,-339.97 338.15,-333.95 336.3,-340.7"/>
</g>
<!-- Node40 -->
<g id="node40" class="node">
<title>Node40</title>
<g id="a_node40"><a xlink:href="../../d2/d40/msg__test_8cpp.html" target="_top" xlink:title=" ">
<polygon fill="none" stroke="black" points="222,-262 222,-292 382,-292 382,-262 222,-262"/>
<text text-anchor="start" x="230" y="-280" font-family="Helvetica,sans-Serif" font-size="10.00">Components/Protocols</text>
<text text-anchor="middle" x="302" y="-269" font-family="Helvetica,sans-Serif" font-size="10.00">/MQTT/test/test/msg_test.cpp</text>
</a>
</g>
</g>
<!-- Node38&#45;&gt;Node40 -->
<g id="edge49" class="edge">
<title>Node38&#45;&gt;Node40</title>
<path fill="none" stroke="midnightblue" d="M371.79,-333.25C355.35,-320.23 334.57,-303.78 319.98,-292.23"/>
<polygon fill="midnightblue" stroke="midnightblue" points="369.93,-336.24 379.94,-339.7 374.28,-330.75 369.93,-336.24"/>
</g>
<!-- Node42 -->
<g id="node42" class="node">
<title>Node42</title>
<g id="a_node42"><a xlink:href="../../de/d8f/esp32__http__sal_8cpp.html" target="_top" xlink:title=" ">
<polygon fill="none" stroke="black" points="1612,-334.5 1612,-375.5 1738,-375.5 1738,-334.5 1612,-334.5"/>
<text text-anchor="start" x="1620" y="-363.5" font-family="Helvetica,sans-Serif" font-size="10.00">Components/Protocols</text>
<text text-anchor="start" x="1620" y="-352.5" font-family="Helvetica,sans-Serif" font-size="10.00">/HTTP/src/esp32_http</text>
<text text-anchor="middle" x="1675" y="-341.5" font-family="Helvetica,sans-Serif" font-size="10.00">_sal.cpp</text>
</a>
</g>
</g>
<!-- Node41&#45;&gt;Node42 -->
<g id="edge55" class="edge">
<title>Node41&#45;&gt;Node42</title>
<path fill="none" stroke="midnightblue" d="M1579.22,-407.63C1598.49,-397.24 1620.66,-385.29 1638.81,-375.51"/>
<polygon fill="midnightblue" stroke="midnightblue" points="1577.45,-404.6 1570.31,-412.43 1580.77,-410.76 1577.45,-404.6"/>
</g>
<!-- Node43 -->
<g id="node43" class="node">
<title>Node43</title>
<g id="a_node43"><a xlink:href="../../df/d5e/esp32__http__sal__test_8cpp.html" target="_top" xlink:title=" ">
<polygon fill="none" stroke="black" points="1468,-334.5 1468,-375.5 1594,-375.5 1594,-334.5 1468,-334.5"/>
<text text-anchor="start" x="1476" y="-363.5" font-family="Helvetica,sans-Serif" font-size="10.00">Components/Protocols</text>
<text text-anchor="start" x="1476" y="-352.5" font-family="Helvetica,sans-Serif" font-size="10.00">/HTTP/test/test/esp32</text>
<text text-anchor="middle" x="1531" y="-341.5" font-family="Helvetica,sans-Serif" font-size="10.00">_http_sal_test.cpp</text>
</a>
</g>
</g>
<!-- Node41&#45;&gt;Node43 -->
<g id="edge56" class="edge">
<title>Node41&#45;&gt;Node43</title>
<path fill="none" stroke="midnightblue" d="M1532.83,-402.3C1532.47,-393.3 1532.09,-383.65 1531.77,-375.51"/>
<polygon fill="midnightblue" stroke="midnightblue" points="1529.34,-402.57 1533.23,-412.43 1536.33,-402.3 1529.34,-402.57"/>
</g>
</g>
</svg>
