<?xml version="1.0" encoding="UTF-8" standalone="no"?>
<!DOCTYPE svg PUBLIC "-//W3C//DTD SVG 1.1//EN"
 "http://www.w3.org/Graphics/SVG/1.1/DTD/svg11.dtd">
<!-- Generated by graphviz version 2.43.0 (0)
 -->
<!-- Title: Components/RTOS/FreeRTOS/include/FreeRTOS.h Pages: 1 -->
<svg width="1968pt" height="451pt"
 viewBox="0.00 0.00 1968.00 451.00" xmlns="http://www.w3.org/2000/svg" xmlns:xlink="http://www.w3.org/1999/xlink">
<g id="graph0" class="graph" transform="scale(1 1) rotate(0) translate(4 447)">
<title>Components/RTOS/FreeRTOS/include/FreeRTOS.h</title>
<!-- Node1 -->
<g id="node1" class="node">
<title>Node1</title>
<g id="a_node1"><a xlink:title=" ">
<polygon fill="#bfbfbf" stroke="black" points="860,-412.5 860,-442.5 1018,-442.5 1018,-412.5 860,-412.5"/>
<text text-anchor="start" x="868" y="-430.5" font-family="Helvetica,sans-Serif" font-size="10.00">Components/RTOS/FreeRTOS</text>
<text text-anchor="middle" x="939" y="-419.5" font-family="Helvetica,sans-Serif" font-size="10.00">/include/FreeRTOS.h</text>
</a>
</g>
</g>
<!-- Node2 -->
<g id="node2" class="node">
<title>Node2</title>
<g id="a_node2"><a xlink:href="../../d4/d63/mqtt__api__v2_8hpp.html" target="_top" xlink:title=" ">
<polygon fill="none" stroke="black" points="1023.5,-334.5 1023.5,-375.5 1156.5,-375.5 1156.5,-334.5 1023.5,-334.5"/>
<text text-anchor="start" x="1031.5" y="-363.5" font-family="Helvetica,sans-Serif" font-size="10.00">Components/Protocols</text>
<text text-anchor="start" x="1031.5" y="-352.5" font-family="Helvetica,sans-Serif" font-size="10.00">/MQTT/include/mqtt_api</text>
<text text-anchor="middle" x="1090" y="-341.5" font-family="Helvetica,sans-Serif" font-size="10.00">_v2.hpp</text>
</a>
</g>
</g>
<!-- Node1&#45;&gt;Node2 -->
<g id="edge1" class="edge">
<title>Node1&#45;&gt;Node2</title>
<path fill="none" stroke="midnightblue" d="M978.35,-408.13C999.78,-398.12 1026.32,-385.73 1048.13,-375.55"/>
<polygon fill="midnightblue" stroke="midnightblue" points="976.77,-405 969.19,-412.4 979.74,-411.34 976.77,-405"/>
</g>
<!-- Node4 -->
<g id="node4" class="node">
<title>Node4</title>
<g id="a_node4"><a xlink:href="../../d9/d1c/_sensor_controller_base_8hpp.html" target="_top" xlink:title=" ">
<polygon fill="none" stroke="black" points="574,-178.5 574,-219.5 758,-219.5 758,-178.5 574,-178.5"/>
<text text-anchor="start" x="582" y="-207.5" font-family="Helvetica,sans-Serif" font-size="10.00">Components/Interfaces</text>
<text text-anchor="start" x="582" y="-196.5" font-family="Helvetica,sans-Serif" font-size="10.00">/SensorControllerBase</text>
<text text-anchor="middle" x="666" y="-185.5" font-family="Helvetica,sans-Serif" font-size="10.00">/include/SensorControllerBase.hpp</text>
</a>
</g>
</g>
<!-- Node1&#45;&gt;Node4 -->
<g id="edge37" class="edge">
<title>Node1&#45;&gt;Node4</title>
<path fill="none" stroke="midnightblue" d="M854.42,-410.37C753.66,-389.11 594.99,-348.43 564,-298 554.23,-282.1 554.49,-272.06 564,-256 573.57,-239.83 589.65,-228.02 606.24,-219.53"/>
<polygon fill="midnightblue" stroke="midnightblue" points="853.78,-413.81 864.28,-412.43 855.21,-406.96 853.78,-413.81"/>
</g>
<!-- Node13 -->
<g id="node13" class="node">
<title>Node13</title>
<g id="a_node13"><a xlink:href="../../d0/dc1/_data_broker_8hpp.html" target="_top" xlink:title=" ">
<polygon fill="none" stroke="black" points="169,-95 169,-136 287,-136 287,-95 169,-95"/>
<text text-anchor="start" x="177" y="-124" font-family="Helvetica,sans-Serif" font-size="10.00">Components/Objects</text>
<text text-anchor="start" x="177" y="-113" font-family="Helvetica,sans-Serif" font-size="10.00">/DataBroker/include</text>
<text text-anchor="middle" x="228" y="-102" font-family="Helvetica,sans-Serif" font-size="10.00">/DataBroker.hpp</text>
</a>
</g>
</g>
<!-- Node1&#45;&gt;Node13 -->
<g id="edge39" class="edge">
<title>Node1&#45;&gt;Node13</title>
<path fill="none" stroke="midnightblue" d="M849.76,-418.33C782.07,-410.84 687.16,-397.58 606,-376 420.39,-326.64 311.56,-378.44 203,-220 185.55,-194.53 201.51,-158.25 214.71,-136.1"/>
<polygon fill="midnightblue" stroke="midnightblue" points="849.64,-421.84 859.96,-419.43 850.39,-414.88 849.64,-421.84"/>
</g>
<!-- Node15 -->
<g id="node15" class="node">
<title>Node15</title>
<g id="a_node15"><a xlink:href="../../d2/dc5/_service_base_8hpp.html" target="_top" xlink:title=" ">
<polygon fill="none" stroke="black" points="776,-178.5 776,-219.5 906,-219.5 906,-178.5 776,-178.5"/>
<text text-anchor="start" x="784" y="-207.5" font-family="Helvetica,sans-Serif" font-size="10.00">Components/Interfaces</text>
<text text-anchor="start" x="784" y="-196.5" font-family="Helvetica,sans-Serif" font-size="10.00">/ServiceBase/include</text>
<text text-anchor="middle" x="841" y="-185.5" font-family="Helvetica,sans-Serif" font-size="10.00">/ServiceBase.hpp</text>
</a>
</g>
</g>
<!-- Node1&#45;&gt;Node15 -->
<g id="edge38" class="edge">
<title>Node1&#45;&gt;Node15</title>
<path fill="none" stroke="midnightblue" d="M919.49,-404.5C899.2,-380.25 868.31,-339.19 853,-298 843.39,-272.13 841.12,-240.04 840.76,-219.78"/>
<polygon fill="midnightblue" stroke="midnightblue" points="917.03,-407.01 926.18,-412.35 922.36,-402.46 917.03,-407.01"/>
</g>
<!-- Node23 -->
<g id="node23" class="node">
<title>Node23</title>
<g id="a_node23"><a xlink:href="../../dd/d82/_active_current_sensor_8hpp.html" target="_top" xlink:title=" ">
<polygon fill="none" stroke="black" points="1389,-178.5 1389,-219.5 1537,-219.5 1537,-178.5 1389,-178.5"/>
<text text-anchor="start" x="1397" y="-207.5" font-family="Helvetica,sans-Serif" font-size="10.00">Components/Sensor/Active</text>
<text text-anchor="start" x="1397" y="-196.5" font-family="Helvetica,sans-Serif" font-size="10.00">CurrentSensor/include</text>
<text text-anchor="middle" x="1463" y="-185.5" font-family="Helvetica,sans-Serif" font-size="10.00">/ActiveCurrentSensor.hpp</text>
</a>
</g>
</g>
<!-- Node1&#45;&gt;Node23 -->
<g id="edge44" class="edge">
<title>Node1&#45;&gt;Node23</title>
<path fill="none" stroke="midnightblue" d="M1028.24,-419.58C1172.83,-406.32 1448.13,-371.81 1507,-298 1526.07,-274.09 1502.65,-240.59 1483.35,-219.61"/>
<polygon fill="midnightblue" stroke="midnightblue" points="1027.7,-416.12 1018.06,-420.5 1028.33,-423.09 1027.7,-416.12"/>
</g>
<!-- Node27 -->
<g id="node27" class="node">
<title>Node27</title>
<g id="a_node27"><a xlink:href="../../d1/da7/_m_q_t_t___message_8hpp.html" target="_top" xlink:title=" ">
<polygon fill="none" stroke="black" points="573,-262 573,-292 761,-292 761,-262 573,-262"/>
<text text-anchor="start" x="581" y="-280" font-family="Helvetica,sans-Serif" font-size="10.00">Components/Protocols</text>
<text text-anchor="middle" x="667" y="-269" font-family="Helvetica,sans-Serif" font-size="10.00">/MQTT/include/MQTT_Message.hpp</text>
</a>
</g>
</g>
<!-- Node1&#45;&gt;Node27 -->
<g id="edge31" class="edge">
<title>Node1&#45;&gt;Node27</title>
<path fill="none" stroke="midnightblue" d="M860.26,-409.78C832.24,-401.91 801.17,-390.91 775,-376 734.96,-353.19 697.27,-313.28 678.82,-292.11"/>
<polygon fill="midnightblue" stroke="midnightblue" points="859.47,-413.19 870.03,-412.43 861.3,-406.43 859.47,-413.19"/>
</g>
<!-- Node30 -->
<g id="node30" class="node">
<title>Node30</title>
<g id="a_node30"><a xlink:href="../../de/d45/esp32__http__sal_8hpp.html" target="_top" xlink:title=" ">
<polygon fill="none" stroke="black" points="1618,-334.5 1618,-375.5 1758,-375.5 1758,-334.5 1618,-334.5"/>
<text text-anchor="start" x="1626" y="-363.5" font-family="Helvetica,sans-Serif" font-size="10.00">Components/Protocols</text>
<text text-anchor="start" x="1626" y="-352.5" font-family="Helvetica,sans-Serif" font-size="10.00">/HTTP/include/esp32_http</text>
<text text-anchor="middle" x="1688" y="-341.5" font-family="Helvetica,sans-Serif" font-size="10.00">_sal.hpp</text>
</a>
</g>
</g>
<!-- Node1&#45;&gt;Node30 -->
<g id="edge40" class="edge">
<title>Node1&#45;&gt;Node30</title>
<path fill="none" stroke="midnightblue" d="M1028.39,-420.41C1145.91,-412.07 1358.71,-395.85 1540,-376 1565.39,-373.22 1593.15,-369.62 1617.7,-366.24"/>
<polygon fill="midnightblue" stroke="midnightblue" points="1028.09,-416.92 1018.36,-421.11 1028.58,-423.9 1028.09,-416.92"/>
</g>
<!-- Node33 -->
<g id="node33" class="node">
<title>Node33</title>
<g id="a_node33"><a xlink:href="../../da/d25/_free_r_t_o_s_8cpp.html" target="_top" xlink:title=" ">
<polygon fill="none" stroke="black" points="1776,-340 1776,-370 1934,-370 1934,-340 1776,-340"/>
<text text-anchor="start" x="1784" y="-358" font-family="Helvetica,sans-Serif" font-size="10.00">Components/RTOS/FreeRTOS</text>
<text text-anchor="middle" x="1855" y="-347" font-family="Helvetica,sans-Serif" font-size="10.00">/src/FreeRTOS.cpp</text>
</a>
</g>
</g>
<!-- Node1&#45;&gt;Node33 -->
<g id="edge43" class="edge">
<title>Node1&#45;&gt;Node33</title>
<path fill="none" stroke="midnightblue" d="M1028.44,-425.8C1180.8,-423.54 1500.12,-414.21 1767,-376 1777.55,-374.49 1788.7,-372.37 1799.39,-370.07"/>
<polygon fill="midnightblue" stroke="midnightblue" points="1028.16,-422.3 1018.21,-425.94 1028.26,-429.3 1028.16,-422.3"/>
</g>
<!-- Node3 -->
<g id="node3" class="node">
<title>Node3</title>
<g id="a_node3"><a xlink:href="../../d3/d0d/_error_code_parser_8hpp.html" target="_top" xlink:title=" ">
<polygon fill="none" stroke="black" points="893.5,-256.5 893.5,-297.5 1012.5,-297.5 1012.5,-256.5 893.5,-256.5"/>
<text text-anchor="start" x="901.5" y="-285.5" font-family="Helvetica,sans-Serif" font-size="10.00">Components/Objects</text>
<text text-anchor="start" x="901.5" y="-274.5" font-family="Helvetica,sans-Serif" font-size="10.00">/ErrorHandler/include</text>
<text text-anchor="middle" x="953" y="-263.5" font-family="Helvetica,sans-Serif" font-size="10.00">/ErrorCodeParser.hpp</text>
</a>
</g>
</g>
<!-- Node2&#45;&gt;Node3 -->
<g id="edge2" class="edge">
<title>Node2&#45;&gt;Node3</title>
<path fill="none" stroke="midnightblue" d="M1045.81,-329.49C1027.15,-319.13 1005.72,-307.25 988.16,-297.51"/>
<polygon fill="midnightblue" stroke="midnightblue" points="1044.28,-332.64 1054.72,-334.43 1047.67,-326.52 1044.28,-332.64"/>
</g>
<!-- Node2&#45;&gt;Node4 -->
<g id="edge19" class="edge">
<title>Node2&#45;&gt;Node4</title>
<path fill="none" stroke="midnightblue" d="M1013.46,-340.98C966.32,-331.72 905.14,-317.47 853,-298 837.63,-292.26 752.33,-246.64 702.41,-219.71"/>
<polygon fill="midnightblue" stroke="midnightblue" points="1012.82,-344.42 1023.3,-342.88 1014.14,-337.54 1012.82,-344.42"/>
</g>
<!-- Node2&#45;&gt;Node15 -->
<g id="edge20" class="edge">
<title>Node2&#45;&gt;Node15</title>
<path fill="none" stroke="midnightblue" d="M1013.25,-349.12C970.87,-342.82 919.74,-328.8 884,-298 860.36,-277.62 849.23,-241.78 844.37,-219.55"/>
<polygon fill="midnightblue" stroke="midnightblue" points="1012.88,-352.61 1023.26,-350.5 1013.83,-345.67 1012.88,-352.61"/>
</g>
<!-- Node18 -->
<g id="node18" class="node">
<title>Node18</title>
<g id="a_node18"><a xlink:href="../../d7/d44/hal__mqtt__log_8hpp.html" target="_top" xlink:title=" ">
<polygon fill="none" stroke="black" points="1031,-256.5 1031,-297.5 1149,-297.5 1149,-256.5 1031,-256.5"/>
<text text-anchor="start" x="1039" y="-285.5" font-family="Helvetica,sans-Serif" font-size="10.00">Components/Objects</text>
<text text-anchor="start" x="1039" y="-274.5" font-family="Helvetica,sans-Serif" font-size="10.00">/Logger/include/hal</text>
<text text-anchor="middle" x="1090" y="-263.5" font-family="Helvetica,sans-Serif" font-size="10.00">_mqtt_log.hpp</text>
</a>
</g>
</g>
<!-- Node2&#45;&gt;Node18 -->
<g id="edge21" class="edge">
<title>Node2&#45;&gt;Node18</title>
<path fill="none" stroke="midnightblue" d="M1090,-324.3C1090,-315.3 1090,-305.65 1090,-297.51"/>
<polygon fill="midnightblue" stroke="midnightblue" points="1086.5,-324.43 1090,-334.43 1093.5,-324.43 1086.5,-324.43"/>
</g>
<!-- Node20 -->
<g id="node20" class="node">
<title>Node20</title>
<g id="a_node20"><a xlink:href="../../d0/d6a/_maintainer_8hpp.html" target="_top" xlink:title=" ">
<polygon fill="none" stroke="black" points="1554,-256.5 1554,-297.5 1672,-297.5 1672,-256.5 1554,-256.5"/>
<text text-anchor="start" x="1562" y="-285.5" font-family="Helvetica,sans-Serif" font-size="10.00">Components/Objects</text>
<text text-anchor="start" x="1562" y="-274.5" font-family="Helvetica,sans-Serif" font-size="10.00">/Maintainer/include</text>
<text text-anchor="middle" x="1613" y="-263.5" font-family="Helvetica,sans-Serif" font-size="10.00">/Maintainer.hpp</text>
</a>
</g>
</g>
<!-- Node2&#45;&gt;Node20 -->
<g id="edge23" class="edge">
<title>Node2&#45;&gt;Node20</title>
<path fill="none" stroke="midnightblue" d="M1166.55,-344.95C1250.32,-334.77 1388.5,-317.12 1507,-298 1522.25,-295.54 1538.68,-292.59 1553.95,-289.72"/>
<polygon fill="midnightblue" stroke="midnightblue" points="1166.11,-341.48 1156.6,-346.16 1166.95,-348.43 1166.11,-341.48"/>
</g>
<!-- Node2&#45;&gt;Node23 -->
<g id="edge30" class="edge">
<title>Node2&#45;&gt;Node23</title>
<path fill="none" stroke="midnightblue" d="M1123.64,-328.07C1134.9,-318.93 1147.3,-308.35 1158,-298 1175.88,-280.7 1173.42,-268.37 1195,-256 1267.68,-214.35 1298.15,-237.82 1380,-220 1382.9,-219.37 1385.85,-218.72 1388.83,-218.05"/>
<polygon fill="midnightblue" stroke="midnightblue" points="1121.31,-325.45 1115.69,-334.44 1125.68,-330.92 1121.31,-325.45"/>
</g>
<!-- Node25 -->
<g id="node25" class="node">
<title>Node25</title>
<g id="a_node25"><a xlink:href="../../d3/dc1/mqtt__api__v2_8cpp.html" target="_top" xlink:title=" ">
<polygon fill="none" stroke="black" points="1204.5,-262 1204.5,-292 1353.5,-292 1353.5,-262 1204.5,-262"/>
<text text-anchor="start" x="1212.5" y="-280" font-family="Helvetica,sans-Serif" font-size="10.00">Components/Protocols</text>
<text text-anchor="middle" x="1279" y="-269" font-family="Helvetica,sans-Serif" font-size="10.00">/MQTT/src/mqtt_api_v2.cpp</text>
</a>
</g>
</g>
<!-- Node2&#45;&gt;Node25 -->
<g id="edge28" class="edge">
<title>Node2&#45;&gt;Node25</title>
<path fill="none" stroke="midnightblue" d="M1148.17,-330.61C1179.49,-318.02 1217.08,-302.9 1243.92,-292.11"/>
<polygon fill="midnightblue" stroke="midnightblue" points="1146.64,-327.45 1138.67,-334.43 1149.26,-333.94 1146.64,-327.45"/>
</g>
<!-- Node26 -->
<g id="node26" class="node">
<title>Node26</title>
<g id="a_node26"><a xlink:href="../../df/df3/mqtt__v2__test_8cpp.html" target="_top" xlink:title=" ">
<polygon fill="none" stroke="black" points="1372,-256.5 1372,-297.5 1498,-297.5 1498,-256.5 1372,-256.5"/>
<text text-anchor="start" x="1380" y="-285.5" font-family="Helvetica,sans-Serif" font-size="10.00">Components/Protocols</text>
<text text-anchor="start" x="1380" y="-274.5" font-family="Helvetica,sans-Serif" font-size="10.00">/MQTT/test/test/mqtt</text>
<text text-anchor="middle" x="1435" y="-263.5" font-family="Helvetica,sans-Serif" font-size="10.00">_v2_test.cpp</text>
</a>
</g>
</g>
<!-- Node2&#45;&gt;Node26 -->
<g id="edge29" class="edge">
<title>Node2&#45;&gt;Node26</title>
<path fill="none" stroke="midnightblue" d="M1166.74,-339.57C1221.38,-328.96 1296.46,-313.71 1362,-298 1365.19,-297.23 1368.46,-296.43 1371.76,-295.59"/>
<polygon fill="midnightblue" stroke="midnightblue" points="1165.93,-336.16 1156.78,-341.5 1167.26,-343.03 1165.93,-336.16"/>
</g>
<!-- Node3&#45;&gt;Node4 -->
<g id="edge3" class="edge">
<title>Node3&#45;&gt;Node4</title>
<path fill="none" stroke="midnightblue" d="M883.27,-257.53C839.81,-246.03 783.96,-231.24 739.77,-219.53"/>
<polygon fill="midnightblue" stroke="midnightblue" points="882.62,-260.98 893.18,-260.16 884.41,-254.22 882.62,-260.98"/>
</g>
<!-- Node3&#45;&gt;Node15 -->
<g id="edge16" class="edge">
<title>Node3&#45;&gt;Node15</title>
<path fill="none" stroke="midnightblue" d="M915.62,-250.64C900.66,-240.49 883.71,-228.98 869.75,-219.51"/>
<polygon fill="midnightblue" stroke="midnightblue" points="913.92,-253.71 924.16,-256.43 917.85,-247.92 913.92,-253.71"/>
</g>
<!-- Node16 -->
<g id="node16" class="node">
<title>Node16</title>
<g id="a_node16"><a xlink:href="../../d2/df5/_error_code_parser_8cpp.html" target="_top" xlink:title=" ">
<polygon fill="none" stroke="black" points="924.5,-178.5 924.5,-219.5 1073.5,-219.5 1073.5,-178.5 924.5,-178.5"/>
<text text-anchor="start" x="932.5" y="-207.5" font-family="Helvetica,sans-Serif" font-size="10.00">Components/Objects</text>
<text text-anchor="start" x="932.5" y="-196.5" font-family="Helvetica,sans-Serif" font-size="10.00">/ErrorHandler/src/ErrorCode</text>
<text text-anchor="middle" x="999" y="-185.5" font-family="Helvetica,sans-Serif" font-size="10.00">Parser.cpp</text>
</a>
</g>
</g>
<!-- Node3&#45;&gt;Node16 -->
<g id="edge17" class="edge">
<title>Node3&#45;&gt;Node16</title>
<path fill="none" stroke="midnightblue" d="M970.09,-247.76C975.79,-238.35 981.99,-228.1 987.19,-219.51"/>
<polygon fill="midnightblue" stroke="midnightblue" points="967.03,-246.06 964.85,-256.43 973.02,-249.69 967.03,-246.06"/>
</g>
<!-- Node17 -->
<g id="node17" class="node">
<title>Node17</title>
<g id="a_node17"><a xlink:href="../../d9/db8/_error_code_parser__test_8cpp.html" target="_top" xlink:title=" ">
<polygon fill="none" stroke="black" points="1091.5,-178.5 1091.5,-219.5 1234.5,-219.5 1234.5,-178.5 1091.5,-178.5"/>
<text text-anchor="start" x="1099.5" y="-207.5" font-family="Helvetica,sans-Serif" font-size="10.00">Components/Objects</text>
<text text-anchor="start" x="1099.5" y="-196.5" font-family="Helvetica,sans-Serif" font-size="10.00">/ErrorHandler/test/test</text>
<text text-anchor="middle" x="1163" y="-185.5" font-family="Helvetica,sans-Serif" font-size="10.00">/ErrorCodeParser_test.cpp</text>
</a>
</g>
</g>
<!-- Node3&#45;&gt;Node17 -->
<g id="edge18" class="edge">
<title>Node3&#45;&gt;Node17</title>
<path fill="none" stroke="midnightblue" d="M1016.86,-252.89C1046.34,-242.22 1080.96,-229.69 1109.1,-219.51"/>
<polygon fill="midnightblue" stroke="midnightblue" points="1015.29,-249.73 1007.08,-256.43 1017.67,-256.32 1015.29,-249.73"/>
</g>
<!-- Node5 -->
<g id="node5" class="node">
<title>Node5</title>
<g id="a_node5"><a xlink:href="../../db/d12/_distance_sensor_controller_8hpp.html" target="_top" xlink:title=" ">
<polygon fill="none" stroke="black" points="320.5,-95 320.5,-136 523.5,-136 523.5,-95 320.5,-95"/>
<text text-anchor="start" x="328.5" y="-124" font-family="Helvetica,sans-Serif" font-size="10.00">Components/Controller</text>
<text text-anchor="start" x="328.5" y="-113" font-family="Helvetica,sans-Serif" font-size="10.00">/DistanceSensorController</text>
<text text-anchor="middle" x="422" y="-102" font-family="Helvetica,sans-Serif" font-size="10.00">/include/DistanceSensorController.hpp</text>
</a>
</g>
</g>
<!-- Node4&#45;&gt;Node5 -->
<g id="edge4" class="edge">
<title>Node4&#45;&gt;Node5</title>
<path fill="none" stroke="midnightblue" d="M597.86,-175.24C560.91,-162.9 515.71,-147.8 480.39,-136"/>
<polygon fill="midnightblue" stroke="midnightblue" points="596.96,-178.63 607.56,-178.48 599.18,-171.99 596.96,-178.63"/>
</g>
<!-- Node9 -->
<g id="node9" class="node">
<title>Node9</title>
<g id="a_node9"><a xlink:href="../../d2/d8d/_sensor_controller_base_8cpp.html" target="_top" xlink:title=" ">
<polygon fill="none" stroke="black" points="563,-95 563,-136 725,-136 725,-95 563,-95"/>
<text text-anchor="start" x="571" y="-124" font-family="Helvetica,sans-Serif" font-size="10.00">Components/Interfaces</text>
<text text-anchor="start" x="571" y="-113" font-family="Helvetica,sans-Serif" font-size="10.00">/SensorControllerBase</text>
<text text-anchor="middle" x="644" y="-102" font-family="Helvetica,sans-Serif" font-size="10.00">/src/SensorControllerBase.cpp</text>
</a>
</g>
</g>
<!-- Node4&#45;&gt;Node9 -->
<g id="edge8" class="edge">
<title>Node4&#45;&gt;Node9</title>
<path fill="none" stroke="midnightblue" d="M658.01,-168.4C655.1,-157.63 651.89,-145.73 649.28,-136.05"/>
<polygon fill="midnightblue" stroke="midnightblue" points="654.69,-169.53 660.67,-178.27 661.45,-167.7 654.69,-169.53"/>
</g>
<!-- Node10 -->
<g id="node10" class="node">
<title>Node10</title>
<g id="a_node10"><a xlink:href="../../db/dc2/_sensor_controller_base___m_o_c_k_8hpp.html" target="_top" xlink:title=" ">
<polygon fill="none" stroke="black" points="743,-89.5 743,-141.5 919,-141.5 919,-89.5 743,-89.5"/>
<text text-anchor="start" x="751" y="-129.5" font-family="Helvetica,sans-Serif" font-size="10.00">Components/Interfaces</text>
<text text-anchor="start" x="751" y="-118.5" font-family="Helvetica,sans-Serif" font-size="10.00">/SensorControllerBase</text>
<text text-anchor="start" x="751" y="-107.5" font-family="Helvetica,sans-Serif" font-size="10.00">/test/mock/SensorControllerBase</text>
<text text-anchor="middle" x="831" y="-96.5" font-family="Helvetica,sans-Serif" font-size="10.00">_MOCK.hpp</text>
</a>
</g>
</g>
<!-- Node4&#45;&gt;Node10 -->
<g id="edge9" class="edge">
<title>Node4&#45;&gt;Node10</title>
<path fill="none" stroke="midnightblue" d="M714.74,-173.93C735.36,-163.74 759.39,-151.87 780.23,-141.58"/>
<polygon fill="midnightblue" stroke="midnightblue" points="712.94,-170.91 705.52,-178.48 716.04,-177.19 712.94,-170.91"/>
</g>
<!-- Node12 -->
<g id="node12" class="node">
<title>Node12</title>
<g id="a_node12"><a xlink:href="../../d8/d19/_sensor_controller_test_8cpp.html" target="_top" xlink:title=" ">
<polygon fill="none" stroke="black" points="923,-6 923,-47 1107,-47 1107,-6 923,-6"/>
<text text-anchor="start" x="931" y="-35" font-family="Helvetica,sans-Serif" font-size="10.00">Components/Interfaces</text>
<text text-anchor="start" x="931" y="-24" font-family="Helvetica,sans-Serif" font-size="10.00">/SensorControllerBase</text>
<text text-anchor="middle" x="1015" y="-13" font-family="Helvetica,sans-Serif" font-size="10.00">/test/test/SensorControllerTest.cpp</text>
</a>
</g>
</g>
<!-- Node4&#45;&gt;Node12 -->
<g id="edge12" class="edge">
<title>Node4&#45;&gt;Node12</title>
<path fill="none" stroke="midnightblue" d="M768.08,-177.02C840.11,-162.08 924.43,-144.27 928,-142 965.09,-118.44 992.3,-73.16 1005.69,-47.16"/>
<polygon fill="midnightblue" stroke="midnightblue" points="767.09,-173.65 758.01,-179.11 768.51,-180.5 767.09,-173.65"/>
</g>
<!-- Node4&#45;&gt;Node13 -->
<g id="edge13" class="edge">
<title>Node4&#45;&gt;Node13</title>
<path fill="none" stroke="midnightblue" d="M563.75,-177.85C450.81,-159.34 419.13,-166.12 311,-142 303.2,-140.26 295.08,-138.15 287.09,-135.89"/>
<polygon fill="midnightblue" stroke="midnightblue" points="563.4,-181.34 573.84,-179.53 564.55,-174.44 563.4,-181.34"/>
</g>
<!-- Node6 -->
<g id="node6" class="node">
<title>Node6</title>
<g id="a_node6"><a xlink:href="../../dd/dde/_distance_sensor_controller_8cpp.html" target="_top" xlink:title=" ">
<polygon fill="none" stroke="black" points="325.5,-6 325.5,-47 506.5,-47 506.5,-6 325.5,-6"/>
<text text-anchor="start" x="333.5" y="-35" font-family="Helvetica,sans-Serif" font-size="10.00">Components/Controller</text>
<text text-anchor="start" x="333.5" y="-24" font-family="Helvetica,sans-Serif" font-size="10.00">/DistanceSensorController</text>
<text text-anchor="middle" x="416" y="-13" font-family="Helvetica,sans-Serif" font-size="10.00">/src/DistanceSensorController.cpp</text>
</a>
</g>
</g>
<!-- Node5&#45;&gt;Node6 -->
<g id="edge5" class="edge">
<title>Node5&#45;&gt;Node6</title>
<path fill="none" stroke="midnightblue" d="M419.93,-84.44C419.08,-72.1 418.11,-58.16 417.36,-47.16"/>
<polygon fill="midnightblue" stroke="midnightblue" points="416.46,-85.02 420.64,-94.76 423.44,-84.54 416.46,-85.02"/>
</g>
<!-- Node7 -->
<g id="node7" class="node">
<title>Node7</title>
<g id="a_node7"><a xlink:href="../../d7/d91/_distance_sensor_controller__test_8cpp.html" target="_top" xlink:title=" ">
<polygon fill="none" stroke="black" points="524.5,-0.5 524.5,-52.5 711.5,-52.5 711.5,-0.5 524.5,-0.5"/>
<text text-anchor="start" x="532.5" y="-40.5" font-family="Helvetica,sans-Serif" font-size="10.00">Components/Controller</text>
<text text-anchor="start" x="532.5" y="-29.5" font-family="Helvetica,sans-Serif" font-size="10.00">/DistanceSensorController</text>
<text text-anchor="start" x="532.5" y="-18.5" font-family="Helvetica,sans-Serif" font-size="10.00">/test/test/DistanceSensorController</text>
<text text-anchor="middle" x="618" y="-7.5" font-family="Helvetica,sans-Serif" font-size="10.00">_test.cpp</text>
</a>
</g>
</g>
<!-- Node5&#45;&gt;Node7 -->
<g id="edge6" class="edge">
<title>Node5&#45;&gt;Node7</title>
<path fill="none" stroke="midnightblue" d="M475.19,-90.89C501.91,-79.03 534.31,-64.65 561.49,-52.58"/>
<polygon fill="midnightblue" stroke="midnightblue" points="473.71,-87.72 465.99,-94.98 476.55,-94.12 473.71,-87.72"/>
</g>
<!-- Node8 -->
<g id="node8" class="node">
<title>Node8</title>
<g id="a_node8"><a xlink:href="../../da/d75/_data_broker__test_8cpp.html" target="_top" xlink:title=" ">
<polygon fill="none" stroke="black" points="188.5,-6 188.5,-47 307.5,-47 307.5,-6 188.5,-6"/>
<text text-anchor="start" x="196.5" y="-35" font-family="Helvetica,sans-Serif" font-size="10.00">Components/Objects</text>
<text text-anchor="start" x="196.5" y="-24" font-family="Helvetica,sans-Serif" font-size="10.00">/DataBroker/test/test</text>
<text text-anchor="middle" x="248" y="-13" font-family="Helvetica,sans-Serif" font-size="10.00">/DataBroker_test.cpp</text>
</a>
</g>
</g>
<!-- Node5&#45;&gt;Node8 -->
<g id="edge7" class="edge">
<title>Node5&#45;&gt;Node8</title>
<path fill="none" stroke="midnightblue" d="M373.96,-90.48C346.66,-76.83 312.91,-59.96 287.22,-47.11"/>
<polygon fill="midnightblue" stroke="midnightblue" points="372.44,-93.63 382.95,-94.98 375.57,-87.37 372.44,-93.63"/>
</g>
<!-- Node11 -->
<g id="node11" class="node">
<title>Node11</title>
<g id="a_node11"><a xlink:href="../../dc/d0f/_sensor_controller_base___m_o_c_k_8cpp.html" target="_top" xlink:title=" ">
<polygon fill="none" stroke="black" points="729,-0.5 729,-52.5 905,-52.5 905,-0.5 729,-0.5"/>
<text text-anchor="start" x="737" y="-40.5" font-family="Helvetica,sans-Serif" font-size="10.00">Components/Interfaces</text>
<text text-anchor="start" x="737" y="-29.5" font-family="Helvetica,sans-Serif" font-size="10.00">/SensorControllerBase</text>
<text text-anchor="start" x="737" y="-18.5" font-family="Helvetica,sans-Serif" font-size="10.00">/test/mock/SensorControllerBase</text>
<text text-anchor="middle" x="817" y="-7.5" font-family="Helvetica,sans-Serif" font-size="10.00">_MOCK.cpp</text>
</a>
</g>
</g>
<!-- Node10&#45;&gt;Node11 -->
<g id="edge10" class="edge">
<title>Node10&#45;&gt;Node11</title>
<path fill="none" stroke="midnightblue" d="M825.32,-79.19C823.88,-70.28 822.37,-60.9 821.04,-52.61"/>
<polygon fill="midnightblue" stroke="midnightblue" points="821.91,-80.02 826.95,-89.34 828.82,-78.91 821.91,-80.02"/>
</g>
<!-- Node10&#45;&gt;Node12 -->
<g id="edge11" class="edge">
<title>Node10&#45;&gt;Node12</title>
<path fill="none" stroke="midnightblue" d="M893.41,-84.99C919.85,-72.49 949.95,-58.26 973.58,-47.08"/>
<polygon fill="midnightblue" stroke="midnightblue" points="891.76,-81.9 884.22,-89.34 894.76,-88.23 891.76,-81.9"/>
</g>
<!-- Node13&#45;&gt;Node8 -->
<g id="edge15" class="edge">
<title>Node13&#45;&gt;Node8</title>
<path fill="none" stroke="midnightblue" d="M234.82,-84.81C237.68,-72.38 240.93,-58.27 243.48,-47.16"/>
<polygon fill="midnightblue" stroke="midnightblue" points="231.37,-84.23 232.54,-94.76 238.19,-85.8 231.37,-84.23"/>
</g>
<!-- Node14 -->
<g id="node14" class="node">
<title>Node14</title>
<g id="a_node14"><a xlink:href="../../d4/ddc/_data_broker_8cpp.html" target="_top" xlink:title=" ">
<polygon fill="none" stroke="black" points="0,-11.5 0,-41.5 170,-41.5 170,-11.5 0,-11.5"/>
<text text-anchor="start" x="8" y="-29.5" font-family="Helvetica,sans-Serif" font-size="10.00">Components/Objects</text>
<text text-anchor="middle" x="85" y="-18.5" font-family="Helvetica,sans-Serif" font-size="10.00">/DataBroker/src/DataBroker.cpp</text>
</a>
</g>
</g>
<!-- Node13&#45;&gt;Node14 -->
<g id="edge14" class="edge">
<title>Node13&#45;&gt;Node14</title>
<path fill="none" stroke="midnightblue" d="M187.14,-89.64C161.5,-74.04 129.39,-54.51 108.09,-41.55"/>
<polygon fill="midnightblue" stroke="midnightblue" points="185.55,-92.77 195.91,-94.98 189.18,-86.79 185.55,-92.77"/>
</g>
<!-- Node19 -->
<g id="node19" class="node">
<title>Node19</title>
<g id="a_node19"><a xlink:href="../../d0/db0/hal__mqtt__log_8cpp.html" target="_top" xlink:title=" ">
<polygon fill="none" stroke="black" points="1253,-178.5 1253,-219.5 1371,-219.5 1371,-178.5 1253,-178.5"/>
<text text-anchor="start" x="1261" y="-207.5" font-family="Helvetica,sans-Serif" font-size="10.00">Components/Objects</text>
<text text-anchor="start" x="1261" y="-196.5" font-family="Helvetica,sans-Serif" font-size="10.00">/Logger/src/hal_mqtt</text>
<text text-anchor="middle" x="1312" y="-185.5" font-family="Helvetica,sans-Serif" font-size="10.00">_log.cpp</text>
</a>
</g>
</g>
<!-- Node18&#45;&gt;Node19 -->
<g id="edge22" class="edge">
<title>Node18&#45;&gt;Node19</title>
<path fill="none" stroke="midnightblue" d="M1156.7,-253.17C1188.04,-242.44 1225.02,-229.78 1255.02,-219.51"/>
<polygon fill="midnightblue" stroke="midnightblue" points="1155.5,-249.88 1147.17,-256.43 1157.77,-256.5 1155.5,-249.88"/>
</g>
<!-- Node21 -->
<g id="node21" class="node">
<title>Node21</title>
<g id="a_node21"><a xlink:href="../../dd/ddd/_maintainer_8cpp.html" target="_top" xlink:title=" ">
<polygon fill="none" stroke="black" points="1691.5,-184 1691.5,-214 1856.5,-214 1856.5,-184 1691.5,-184"/>
<text text-anchor="start" x="1699.5" y="-202" font-family="Helvetica,sans-Serif" font-size="10.00">Components/Objects</text>
<text text-anchor="middle" x="1774" y="-191" font-family="Helvetica,sans-Serif" font-size="10.00">/Maintainer/src/Maintainer.cpp</text>
</a>
</g>
</g>
<!-- Node20&#45;&gt;Node21 -->
<g id="edge24" class="edge">
<title>Node20&#45;&gt;Node21</title>
<path fill="none" stroke="midnightblue" d="M1663.59,-252.12C1690.06,-239.63 1721.55,-224.76 1744.12,-214.11"/>
<polygon fill="midnightblue" stroke="midnightblue" points="1662.01,-248.99 1654.46,-256.43 1665,-255.32 1662.01,-248.99"/>
</g>
<!-- Node22 -->
<g id="node22" class="node">
<title>Node22</title>
<g id="a_node22"><a xlink:href="../../d8/d4a/maintainer__test_8cpp.html" target="_top" xlink:title=" ">
<polygon fill="none" stroke="black" points="1555,-178.5 1555,-219.5 1673,-219.5 1673,-178.5 1555,-178.5"/>
<text text-anchor="start" x="1563" y="-207.5" font-family="Helvetica,sans-Serif" font-size="10.00">Components/Objects</text>
<text text-anchor="start" x="1563" y="-196.5" font-family="Helvetica,sans-Serif" font-size="10.00">/Maintainer/test/test</text>
<text text-anchor="middle" x="1614" y="-185.5" font-family="Helvetica,sans-Serif" font-size="10.00">/maintainer_test.cpp</text>
</a>
</g>
</g>
<!-- Node20&#45;&gt;Node22 -->
<g id="edge25" class="edge">
<title>Node20&#45;&gt;Node22</title>
<path fill="none" stroke="midnightblue" d="M1613.39,-246.3C1613.51,-237.3 1613.64,-227.65 1613.74,-219.51"/>
<polygon fill="midnightblue" stroke="midnightblue" points="1609.89,-246.38 1613.26,-256.43 1616.89,-246.48 1609.89,-246.38"/>
</g>
<!-- Node20&#45;&gt;Node23 -->
<g id="edge26" class="edge">
<title>Node20&#45;&gt;Node23</title>
<path fill="none" stroke="midnightblue" d="M1565.45,-251.91C1544.83,-241.46 1520.99,-229.38 1501.5,-219.51"/>
<polygon fill="midnightblue" stroke="midnightblue" points="1563.87,-255.03 1574.37,-256.43 1567.03,-248.79 1563.87,-255.03"/>
</g>
<!-- Node24 -->
<g id="node24" class="node">
<title>Node24</title>
<g id="a_node24"><a xlink:href="../../d2/d77/_active_current_sensor_8cpp.html" target="_top" xlink:title=" ">
<polygon fill="none" stroke="black" points="1376.5,-95 1376.5,-136 1549.5,-136 1549.5,-95 1376.5,-95"/>
<text text-anchor="start" x="1384.5" y="-124" font-family="Helvetica,sans-Serif" font-size="10.00">Components/Sensor/Active</text>
<text text-anchor="start" x="1384.5" y="-113" font-family="Helvetica,sans-Serif" font-size="10.00">CurrentSensor/src/ActiveCurrent</text>
<text text-anchor="middle" x="1463" y="-102" font-family="Helvetica,sans-Serif" font-size="10.00">Sensor.cpp</text>
</a>
</g>
</g>
<!-- Node23&#45;&gt;Node24 -->
<g id="edge27" class="edge">
<title>Node23&#45;&gt;Node24</title>
<path fill="none" stroke="midnightblue" d="M1463,-168.06C1463,-157.38 1463,-145.63 1463,-136.05"/>
<polygon fill="midnightblue" stroke="midnightblue" points="1459.5,-168.27 1463,-178.27 1466.5,-168.27 1459.5,-168.27"/>
</g>
<!-- Node27&#45;&gt;Node4 -->
<g id="edge32" class="edge">
<title>Node27&#45;&gt;Node4</title>
<path fill="none" stroke="midnightblue" d="M666.68,-251.66C666.54,-241.33 666.39,-229.44 666.26,-219.68"/>
<polygon fill="midnightblue" stroke="midnightblue" points="663.18,-251.75 666.81,-261.7 670.18,-251.66 663.18,-251.75"/>
</g>
<!-- Node27&#45;&gt;Node15 -->
<g id="edge33" class="edge">
<title>Node27&#45;&gt;Node15</title>
<path fill="none" stroke="midnightblue" d="M708.66,-257.81C735.02,-246.29 769.09,-231.41 796.06,-219.63"/>
<polygon fill="midnightblue" stroke="midnightblue" points="707.08,-254.67 699.32,-261.88 709.89,-261.09 707.08,-254.67"/>
</g>
<!-- Node27&#45;&gt;Node23 -->
<g id="edge36" class="edge">
<title>Node27&#45;&gt;Node23</title>
<path fill="none" stroke="midnightblue" d="M771.18,-265.98C806.94,-262.66 847.21,-259.03 884,-256 1104.28,-237.86 1161.61,-254 1380,-220 1382.93,-219.54 1385.91,-219.04 1388.91,-218.49"/>
<polygon fill="midnightblue" stroke="midnightblue" points="770.86,-262.5 761.23,-266.91 771.51,-269.47 770.86,-262.5"/>
</g>
<!-- Node28 -->
<g id="node28" class="node">
<title>Node28</title>
<g id="a_node28"><a xlink:href="../../d2/d93/_m_q_t_t___message_8cpp.html" target="_top" xlink:title=" ">
<polygon fill="none" stroke="black" points="212,-184 212,-214 378,-214 378,-184 212,-184"/>
<text text-anchor="start" x="220" y="-202" font-family="Helvetica,sans-Serif" font-size="10.00">Components/Protocols</text>
<text text-anchor="middle" x="295" y="-191" font-family="Helvetica,sans-Serif" font-size="10.00">/MQTT/src/MQTT_Message.cpp</text>
</a>
</g>
</g>
<!-- Node27&#45;&gt;Node28 -->
<g id="edge34" class="edge">
<title>Node27&#45;&gt;Node28</title>
<path fill="none" stroke="midnightblue" d="M585.44,-260.06C529.54,-249.05 453.72,-233.92 387,-220 377.88,-218.1 368.26,-216.05 358.81,-214.02"/>
<polygon fill="midnightblue" stroke="midnightblue" points="584.8,-263.5 595.29,-262 586.15,-256.63 584.8,-263.5"/>
</g>
<!-- Node29 -->
<g id="node29" class="node">
<title>Node29</title>
<g id="a_node29"><a xlink:href="../../d2/d40/msg__test_8cpp.html" target="_top" xlink:title=" ">
<polygon fill="none" stroke="black" points="396,-184 396,-214 556,-214 556,-184 396,-184"/>
<text text-anchor="start" x="404" y="-202" font-family="Helvetica,sans-Serif" font-size="10.00">Components/Protocols</text>
<text text-anchor="middle" x="476" y="-191" font-family="Helvetica,sans-Serif" font-size="10.00">/MQTT/test/test/msg_test.cpp</text>
</a>
</g>
</g>
<!-- Node27&#45;&gt;Node29 -->
<g id="edge35" class="edge">
<title>Node27&#45;&gt;Node29</title>
<path fill="none" stroke="midnightblue" d="M621.88,-258.05C588.07,-244.59 542.45,-226.44 511.29,-214.04"/>
<polygon fill="midnightblue" stroke="midnightblue" points="620.94,-261.44 631.52,-261.88 623.52,-254.93 620.94,-261.44"/>
</g>
<!-- Node31 -->
<g id="node31" class="node">
<title>Node31</title>
<g id="a_node31"><a xlink:href="../../de/d8f/esp32__http__sal_8cpp.html" target="_top" xlink:title=" ">
<polygon fill="none" stroke="black" points="1690,-256.5 1690,-297.5 1816,-297.5 1816,-256.5 1690,-256.5"/>
<text text-anchor="start" x="1698" y="-285.5" font-family="Helvetica,sans-Serif" font-size="10.00">Components/Protocols</text>
<text text-anchor="start" x="1698" y="-274.5" font-family="Helvetica,sans-Serif" font-size="10.00">/HTTP/src/esp32_http</text>
<text text-anchor="middle" x="1753" y="-263.5" font-family="Helvetica,sans-Serif" font-size="10.00">_sal.cpp</text>
</a>
</g>
</g>
<!-- Node30&#45;&gt;Node31 -->
<g id="edge41" class="edge">
<title>Node30&#45;&gt;Node31</title>
<path fill="none" stroke="midnightblue" d="M1711.41,-326.63C1719.65,-316.99 1728.74,-306.36 1736.32,-297.51"/>
<polygon fill="midnightblue" stroke="midnightblue" points="1708.58,-324.55 1704.74,-334.43 1713.9,-329.1 1708.58,-324.55"/>
</g>
<!-- Node32 -->
<g id="node32" class="node">
<title>Node32</title>
<g id="a_node32"><a xlink:href="../../df/d5e/esp32__http__sal__test_8cpp.html" target="_top" xlink:title=" ">
<polygon fill="none" stroke="black" points="1834,-256.5 1834,-297.5 1960,-297.5 1960,-256.5 1834,-256.5"/>
<text text-anchor="start" x="1842" y="-285.5" font-family="Helvetica,sans-Serif" font-size="10.00">Components/Protocols</text>
<text text-anchor="start" x="1842" y="-274.5" font-family="Helvetica,sans-Serif" font-size="10.00">/HTTP/test/test/esp32</text>
<text text-anchor="middle" x="1897" y="-263.5" font-family="Helvetica,sans-Serif" font-size="10.00">_http_sal_test.cpp</text>
</a>
</g>
</g>
<!-- Node30&#45;&gt;Node32 -->
<g id="edge42" class="edge">
<title>Node30&#45;&gt;Node32</title>
<path fill="none" stroke="midnightblue" d="M1751.56,-330.89C1780.9,-320.22 1815.35,-307.69 1843.36,-297.51"/>
<polygon fill="midnightblue" stroke="midnightblue" points="1750.02,-327.72 1741.82,-334.43 1752.42,-334.3 1750.02,-327.72"/>
</g>
</g>
</svg>
