<?xml version="1.0" encoding="UTF-8" standalone="no"?>
<!DOCTYPE svg PUBLIC "-//W3C//DTD SVG 1.1//EN"
 "http://www.w3.org/Graphics/SVG/1.1/DTD/svg11.dtd">
<!-- Generated by graphviz version 2.43.0 (0)
 -->
<!-- Title: Components/RTOS/FreeRTOS/include/FreeRTOS.h Pages: 1 -->
<svg width="1921pt" height="451pt"
 viewBox="0.00 0.00 1921.00 451.00" xmlns="http://www.w3.org/2000/svg" xmlns:xlink="http://www.w3.org/1999/xlink">
<g id="graph0" class="graph" transform="scale(1 1) rotate(0) translate(4 447)">
<title>Components/RTOS/FreeRTOS/include/FreeRTOS.h</title>
<!-- Node1 -->
<g id="node1" class="node">
<title>Node1</title>
<g id="a_node1"><a xlink:title=" ">
<polygon fill="#bfbfbf" stroke="black" points="818,-412.5 818,-442.5 974,-442.5 974,-412.5 818,-412.5"/>
<text text-anchor="start" x="826" y="-430.5" font-family="Helvetica,sans-Serif" font-size="10.00">Components/RTOS/FreeRTOS</text>
<text text-anchor="middle" x="896" y="-419.5" font-family="Helvetica,sans-Serif" font-size="10.00">/include/FreeRTOS.h</text>
</a>
</g>
</g>
<!-- Node2 -->
<g id="node2" class="node">
<title>Node2</title>
<g id="a_node2"><a xlink:href="../../d4/d63/mqtt__api__v2_8hpp.html" target="_top" xlink:title=" ">
<polygon fill="none" stroke="black" points="1068.5,-334.5 1068.5,-375.5 1201.5,-375.5 1201.5,-334.5 1068.5,-334.5"/>
<text text-anchor="start" x="1076.5" y="-363.5" font-family="Helvetica,sans-Serif" font-size="10.00">Components/Protocols</text>
<text text-anchor="start" x="1076.5" y="-352.5" font-family="Helvetica,sans-Serif" font-size="10.00">/MQTT/include/mqtt_api</text>
<text text-anchor="middle" x="1135" y="-341.5" font-family="Helvetica,sans-Serif" font-size="10.00">_v2.hpp</text>
</a>
</g>
</g>
<!-- Node1&#45;&gt;Node2 -->
<g id="edge1" class="edge">
<title>Node1&#45;&gt;Node2</title>
<path fill="none" stroke="midnightblue" d="M953.47,-409.55C988.13,-399.32 1032.43,-386.26 1068.58,-375.59"/>
<polygon fill="midnightblue" stroke="midnightblue" points="952.11,-406.3 943.5,-412.49 954.09,-413.01 952.11,-406.3"/>
</g>
<!-- Node4 -->
<g id="node4" class="node">
<title>Node4</title>
<g id="a_node4"><a xlink:href="../../d9/d1c/_sensor_controller_base_8hpp.html" target="_top" xlink:title=" ">
<polygon fill="none" stroke="black" points="980,-178.5 980,-219.5 1164,-219.5 1164,-178.5 980,-178.5"/>
<text text-anchor="start" x="988" y="-207.5" font-family="Helvetica,sans-Serif" font-size="10.00">Components/Interfaces</text>
<text text-anchor="start" x="988" y="-196.5" font-family="Helvetica,sans-Serif" font-size="10.00">/SensorControllerBase</text>
<text text-anchor="middle" x="1072" y="-185.5" font-family="Helvetica,sans-Serif" font-size="10.00">/include/SensorControllerBase.hpp</text>
</a>
</g>
</g>
<!-- Node1&#45;&gt;Node4 -->
<g id="edge45" class="edge">
<title>Node1&#45;&gt;Node4</title>
<path fill="none" stroke="midnightblue" d="M901.53,-402.48C910.78,-366.8 932.4,-299.39 972,-256 985.95,-240.72 1005.07,-228.61 1022.86,-219.62"/>
<polygon fill="midnightblue" stroke="midnightblue" points="898.06,-401.92 899.05,-412.47 904.85,-403.6 898.06,-401.92"/>
</g>
<!-- Node13 -->
<g id="node13" class="node">
<title>Node13</title>
<g id="a_node13"><a xlink:href="../../d0/dc1/_data_broker_8hpp.html" target="_top" xlink:title=" ">
<polygon fill="none" stroke="black" points="668,-95 668,-136 786,-136 786,-95 668,-95"/>
<text text-anchor="start" x="676" y="-124" font-family="Helvetica,sans-Serif" font-size="10.00">Components/Objects</text>
<text text-anchor="start" x="676" y="-113" font-family="Helvetica,sans-Serif" font-size="10.00">/DataBroker/include</text>
<text text-anchor="middle" x="727" y="-102" font-family="Helvetica,sans-Serif" font-size="10.00">/DataBroker.hpp</text>
</a>
</g>
</g>
<!-- Node1&#45;&gt;Node13 -->
<g id="edge47" class="edge">
<title>Node1&#45;&gt;Node13</title>
<path fill="none" stroke="midnightblue" d="M887.8,-402.66C871.49,-356.93 832.19,-254.62 782,-178 772.03,-162.78 758.42,-147.53 747.23,-136.02"/>
<polygon fill="midnightblue" stroke="midnightblue" points="884.56,-404.01 891.18,-412.28 891.16,-401.68 884.56,-404.01"/>
</g>
<!-- Node15 -->
<g id="node15" class="node">
<title>Node15</title>
<g id="a_node15"><a xlink:href="../../d2/dc5/_service_base_8hpp.html" target="_top" xlink:title=" ">
<polygon fill="none" stroke="black" points="643,-178.5 643,-219.5 773,-219.5 773,-178.5 643,-178.5"/>
<text text-anchor="start" x="651" y="-207.5" font-family="Helvetica,sans-Serif" font-size="10.00">Components/Interfaces</text>
<text text-anchor="start" x="651" y="-196.5" font-family="Helvetica,sans-Serif" font-size="10.00">/ServiceBase/include</text>
<text text-anchor="middle" x="708" y="-185.5" font-family="Helvetica,sans-Serif" font-size="10.00">/ServiceBase.hpp</text>
</a>
</g>
</g>
<!-- Node1&#45;&gt;Node15 -->
<g id="edge46" class="edge">
<title>Node1&#45;&gt;Node15</title>
<path fill="none" stroke="midnightblue" d="M835.51,-408.52C817.98,-400.85 800.06,-390.29 787,-376 748.78,-334.18 769.04,-306.82 744,-256 737.77,-243.35 729.3,-230.04 722.14,-219.57"/>
<polygon fill="midnightblue" stroke="midnightblue" points="834.6,-411.93 845.18,-412.48 837.26,-405.45 834.6,-411.93"/>
</g>
<!-- Node27 -->
<g id="node27" class="node">
<title>Node27</title>
<g id="a_node27"><a xlink:href="../../dd/d82/_active_current_sensor_8hpp.html" target="_top" xlink:title=" ">
<polygon fill="none" stroke="black" points="804,-95 804,-136 952,-136 952,-95 804,-95"/>
<text text-anchor="start" x="812" y="-124" font-family="Helvetica,sans-Serif" font-size="10.00">Components/Sensor/Active</text>
<text text-anchor="start" x="812" y="-113" font-family="Helvetica,sans-Serif" font-size="10.00">CurrentSensor/include</text>
<text text-anchor="middle" x="878" y="-102" font-family="Helvetica,sans-Serif" font-size="10.00">/ActiveCurrentSensor.hpp</text>
</a>
</g>
</g>
<!-- Node1&#45;&gt;Node27 -->
<g id="edge52" class="edge">
<title>Node1&#45;&gt;Node27</title>
<path fill="none" stroke="midnightblue" d="M894.58,-402.04C891.12,-342.38 882.29,-190.31 879.14,-136.08"/>
<polygon fill="midnightblue" stroke="midnightblue" points="891.11,-402.59 895.18,-412.37 898.09,-402.19 891.11,-402.59"/>
</g>
<!-- Node33 -->
<g id="node33" class="node">
<title>Node33</title>
<g id="a_node33"><a xlink:href="../../d1/da7/_m_q_t_t___message_8hpp.html" target="_top" xlink:title=" ">
<polygon fill="none" stroke="black" points="547,-262 547,-292 735,-292 735,-262 547,-262"/>
<text text-anchor="start" x="555" y="-280" font-family="Helvetica,sans-Serif" font-size="10.00">Components/Protocols</text>
<text text-anchor="middle" x="641" y="-269" font-family="Helvetica,sans-Serif" font-size="10.00">/MQTT/include/MQTT_Message.hpp</text>
</a>
</g>
</g>
<!-- Node1&#45;&gt;Node33 -->
<g id="edge39" class="edge">
<title>Node1&#45;&gt;Node33</title>
<path fill="none" stroke="midnightblue" d="M828.09,-409.48C802.3,-401.43 773.31,-390.37 749,-376 709.55,-352.68 671.9,-313.35 653.22,-292.3"/>
<polygon fill="midnightblue" stroke="midnightblue" points="827.21,-412.87 837.8,-412.42 829.24,-406.18 827.21,-412.87"/>
</g>
<!-- Node36 -->
<g id="node36" class="node">
<title>Node36</title>
<g id="a_node36"><a xlink:href="../../de/d45/esp32__http__sal_8hpp.html" target="_top" xlink:title=" ">
<polygon fill="none" stroke="black" points="1428,-334.5 1428,-375.5 1568,-375.5 1568,-334.5 1428,-334.5"/>
<text text-anchor="start" x="1436" y="-363.5" font-family="Helvetica,sans-Serif" font-size="10.00">Components/Protocols</text>
<text text-anchor="start" x="1436" y="-352.5" font-family="Helvetica,sans-Serif" font-size="10.00">/HTTP/include/esp32_http</text>
<text text-anchor="middle" x="1498" y="-341.5" font-family="Helvetica,sans-Serif" font-size="10.00">_sal.hpp</text>
</a>
</g>
</g>
<!-- Node1&#45;&gt;Node36 -->
<g id="edge48" class="edge">
<title>Node1&#45;&gt;Node36</title>
<path fill="none" stroke="midnightblue" d="M984.37,-416.15C1104.79,-402.05 1317.98,-377.08 1427.99,-364.2"/>
<polygon fill="midnightblue" stroke="midnightblue" points="983.61,-412.72 974.08,-417.36 984.42,-419.67 983.61,-412.72"/>
</g>
<!-- Node39 -->
<g id="node39" class="node">
<title>Node39</title>
<g id="a_node39"><a xlink:href="../../da/d25/_free_r_t_o_s_8cpp.html" target="_top" xlink:title=" ">
<polygon fill="none" stroke="black" points="1586,-340 1586,-370 1742,-370 1742,-340 1586,-340"/>
<text text-anchor="start" x="1594" y="-358" font-family="Helvetica,sans-Serif" font-size="10.00">Components/RTOS/FreeRTOS</text>
<text text-anchor="middle" x="1664" y="-347" font-family="Helvetica,sans-Serif" font-size="10.00">/src/FreeRTOS.cpp</text>
</a>
</g>
</g>
<!-- Node1&#45;&gt;Node39 -->
<g id="edge51" class="edge">
<title>Node1&#45;&gt;Node39</title>
<path fill="none" stroke="midnightblue" d="M984.37,-424.23C1114.7,-419.92 1365.86,-407.91 1577,-376 1587.27,-374.45 1598.12,-372.34 1608.55,-370.07"/>
<polygon fill="midnightblue" stroke="midnightblue" points="983.93,-420.74 974.05,-424.56 984.16,-427.74 983.93,-420.74"/>
</g>
<!-- Node3 -->
<g id="node3" class="node">
<title>Node3</title>
<g id="a_node3"><a xlink:href="../../d3/d0d/_error_code_parser_8hpp.html" target="_top" xlink:title=" ">
<polygon fill="none" stroke="black" points="1163.5,-256.5 1163.5,-297.5 1282.5,-297.5 1282.5,-256.5 1163.5,-256.5"/>
<text text-anchor="start" x="1171.5" y="-285.5" font-family="Helvetica,sans-Serif" font-size="10.00">Components/Objects</text>
<text text-anchor="start" x="1171.5" y="-274.5" font-family="Helvetica,sans-Serif" font-size="10.00">/ErrorHandler/include</text>
<text text-anchor="middle" x="1223" y="-263.5" font-family="Helvetica,sans-Serif" font-size="10.00">/ErrorCodeParser.hpp</text>
</a>
</g>
</g>
<!-- Node2&#45;&gt;Node3 -->
<g id="edge2" class="edge">
<title>Node2&#45;&gt;Node3</title>
<path fill="none" stroke="midnightblue" d="M1165.36,-327.78C1176.87,-317.84 1189.75,-306.72 1200.41,-297.51"/>
<polygon fill="midnightblue" stroke="midnightblue" points="1162.94,-325.24 1157.66,-334.43 1167.52,-330.54 1162.94,-325.24"/>
</g>
<!-- Node2&#45;&gt;Node4 -->
<g id="edge31" class="edge">
<title>Node2&#45;&gt;Node4</title>
<path fill="none" stroke="midnightblue" d="M1132.91,-324.3C1130.64,-304.27 1125.89,-277.64 1116,-256 1109.93,-242.73 1100.11,-229.8 1091.29,-219.71"/>
<polygon fill="midnightblue" stroke="midnightblue" points="1129.45,-324.79 1133.92,-334.39 1136.41,-324.1 1129.45,-324.79"/>
</g>
<!-- Node2&#45;&gt;Node15 -->
<g id="edge32" class="edge">
<title>Node2&#45;&gt;Node15</title>
<path fill="none" stroke="midnightblue" d="M1058.07,-334.37C1021.64,-324.48 977.73,-311.69 939,-298 871.64,-274.19 795.78,-240.67 749.96,-219.65"/>
<polygon fill="midnightblue" stroke="midnightblue" points="1057.57,-337.86 1068.13,-337.08 1059.39,-331.1 1057.57,-337.86"/>
</g>
<!-- Node24 -->
<g id="node24" class="node">
<title>Node24</title>
<g id="a_node24"><a xlink:href="../../d0/d6a/_maintainer_8hpp.html" target="_top" xlink:title=" ">
<polygon fill="none" stroke="black" points="1510,-178.5 1510,-219.5 1628,-219.5 1628,-178.5 1510,-178.5"/>
<text text-anchor="start" x="1518" y="-207.5" font-family="Helvetica,sans-Serif" font-size="10.00">Components/Objects</text>
<text text-anchor="start" x="1518" y="-196.5" font-family="Helvetica,sans-Serif" font-size="10.00">/Maintainer/include</text>
<text text-anchor="middle" x="1569" y="-185.5" font-family="Helvetica,sans-Serif" font-size="10.00">/Maintainer.hpp</text>
</a>
</g>
</g>
<!-- Node2&#45;&gt;Node24 -->
<g id="edge35" class="edge">
<title>Node2&#45;&gt;Node24</title>
<path fill="none" stroke="midnightblue" d="M1211.28,-334.67C1237.82,-325.91 1266.94,-313.89 1291,-298 1312.26,-283.96 1307.83,-268.55 1330,-256 1397.59,-217.75 1425.69,-238.97 1501,-220 1503.86,-219.28 1506.79,-218.52 1509.74,-217.73"/>
<polygon fill="midnightblue" stroke="midnightblue" points="1210.09,-331.38 1201.63,-337.75 1212.22,-338.04 1210.09,-331.38"/>
</g>
<!-- Node2&#45;&gt;Node27 -->
<g id="edge38" class="edge">
<title>Node2&#45;&gt;Node27</title>
<path fill="none" stroke="midnightblue" d="M1058.56,-340.51C1028.91,-332.22 996.32,-318.99 972,-298 920.28,-253.37 893.19,-173.23 882.94,-136.22"/>
<polygon fill="midnightblue" stroke="midnightblue" points="1057.92,-343.96 1068.48,-343.14 1059.71,-337.2 1057.92,-343.96"/>
</g>
<!-- Node29 -->
<g id="node29" class="node">
<title>Node29</title>
<g id="a_node29"><a xlink:href="../../d7/d44/hal__mqtt__log_8hpp.html" target="_top" xlink:title=" ">
<polygon fill="none" stroke="black" points="1339,-256.5 1339,-297.5 1457,-297.5 1457,-256.5 1339,-256.5"/>
<text text-anchor="start" x="1347" y="-285.5" font-family="Helvetica,sans-Serif" font-size="10.00">Components/Objects</text>
<text text-anchor="start" x="1347" y="-274.5" font-family="Helvetica,sans-Serif" font-size="10.00">/Logger/include/hal</text>
<text text-anchor="middle" x="1398" y="-263.5" font-family="Helvetica,sans-Serif" font-size="10.00">_mqtt_log.hpp</text>
</a>
</g>
</g>
<!-- Node2&#45;&gt;Node29 -->
<g id="edge33" class="edge">
<title>Node2&#45;&gt;Node29</title>
<path fill="none" stroke="midnightblue" d="M1211.57,-331.87C1252.2,-320.13 1301.35,-305.93 1338.98,-295.05"/>
<polygon fill="midnightblue" stroke="midnightblue" points="1210.34,-328.59 1201.71,-334.72 1212.28,-335.31 1210.34,-328.59"/>
</g>
<!-- Node31 -->
<g id="node31" class="node">
<title>Node31</title>
<g id="a_node31"><a xlink:href="../../d3/dc1/mqtt__api__v2_8cpp.html" target="_top" xlink:title=" ">
<polygon fill="none" stroke="black" points="1475.5,-262 1475.5,-292 1624.5,-292 1624.5,-262 1475.5,-262"/>
<text text-anchor="start" x="1483.5" y="-280" font-family="Helvetica,sans-Serif" font-size="10.00">Components/Protocols</text>
<text text-anchor="middle" x="1550" y="-269" font-family="Helvetica,sans-Serif" font-size="10.00">/MQTT/src/mqtt_api_v2.cpp</text>
</a>
</g>
</g>
<!-- Node2&#45;&gt;Node31 -->
<g id="edge36" class="edge">
<title>Node2&#45;&gt;Node31</title>
<path fill="none" stroke="midnightblue" d="M1211.9,-342.47C1279.16,-332.03 1379.35,-315.62 1466,-298 1474.81,-296.21 1484.11,-294.16 1493.18,-292.07"/>
<polygon fill="midnightblue" stroke="midnightblue" points="1211.16,-339.04 1201.81,-344.03 1212.23,-345.96 1211.16,-339.04"/>
</g>
<!-- Node32 -->
<g id="node32" class="node">
<title>Node32</title>
<g id="a_node32"><a xlink:href="../../df/df3/mqtt__v2__test_8cpp.html" target="_top" xlink:title=" ">
<polygon fill="none" stroke="black" points="981,-256.5 981,-297.5 1107,-297.5 1107,-256.5 981,-256.5"/>
<text text-anchor="start" x="989" y="-285.5" font-family="Helvetica,sans-Serif" font-size="10.00">Components/Protocols</text>
<text text-anchor="start" x="989" y="-274.5" font-family="Helvetica,sans-Serif" font-size="10.00">/MQTT/test/test/mqtt</text>
<text text-anchor="middle" x="1044" y="-263.5" font-family="Helvetica,sans-Serif" font-size="10.00">_v2_test.cpp</text>
</a>
</g>
</g>
<!-- Node2&#45;&gt;Node32 -->
<g id="edge37" class="edge">
<title>Node2&#45;&gt;Node32</title>
<path fill="none" stroke="midnightblue" d="M1103.6,-327.78C1091.71,-317.84 1078.38,-306.72 1067.36,-297.51"/>
<polygon fill="midnightblue" stroke="midnightblue" points="1101.65,-330.7 1111.57,-334.43 1106.13,-325.33 1101.65,-330.7"/>
</g>
<!-- Node3&#45;&gt;Node4 -->
<g id="edge3" class="edge">
<title>Node3&#45;&gt;Node4</title>
<path fill="none" stroke="midnightblue" d="M1175.13,-251.91C1154.37,-241.46 1130.37,-229.38 1110.75,-219.51"/>
<polygon fill="midnightblue" stroke="midnightblue" points="1173.61,-255.06 1184.11,-256.43 1176.75,-248.81 1173.61,-255.06"/>
</g>
<!-- Node3&#45;&gt;Node15 -->
<g id="edge16" class="edge">
<title>Node3&#45;&gt;Node15</title>
<path fill="none" stroke="midnightblue" d="M1153.5,-262.5C1141.03,-260.23 1128.14,-257.97 1116,-256 995.31,-236.45 853.81,-218.03 773.15,-207.96"/>
<polygon fill="midnightblue" stroke="midnightblue" points="1152.91,-265.96 1163.38,-264.33 1154.18,-259.07 1152.91,-265.96"/>
</g>
<!-- Node22 -->
<g id="node22" class="node">
<title>Node22</title>
<g id="a_node22"><a xlink:href="../../d2/df5/_error_code_parser_8cpp.html" target="_top" xlink:title=" ">
<polygon fill="none" stroke="black" points="1182.5,-178.5 1182.5,-219.5 1331.5,-219.5 1331.5,-178.5 1182.5,-178.5"/>
<text text-anchor="start" x="1190.5" y="-207.5" font-family="Helvetica,sans-Serif" font-size="10.00">Components/Objects</text>
<text text-anchor="start" x="1190.5" y="-196.5" font-family="Helvetica,sans-Serif" font-size="10.00">/ErrorHandler/src/ErrorCode</text>
<text text-anchor="middle" x="1257" y="-185.5" font-family="Helvetica,sans-Serif" font-size="10.00">Parser.cpp</text>
</a>
</g>
</g>
<!-- Node3&#45;&gt;Node22 -->
<g id="edge24" class="edge">
<title>Node3&#45;&gt;Node22</title>
<path fill="none" stroke="midnightblue" d="M1235.9,-247.17C1240.03,-237.93 1244.51,-227.92 1248.27,-219.51"/>
<polygon fill="midnightblue" stroke="midnightblue" points="1232.64,-245.87 1231.76,-256.43 1239.03,-248.73 1232.64,-245.87"/>
</g>
<!-- Node23 -->
<g id="node23" class="node">
<title>Node23</title>
<g id="a_node23"><a xlink:href="../../d9/db8/_error_code_parser__test_8cpp.html" target="_top" xlink:title=" ">
<polygon fill="none" stroke="black" points="1350,-178.5 1350,-219.5 1492,-219.5 1492,-178.5 1350,-178.5"/>
<text text-anchor="start" x="1358" y="-207.5" font-family="Helvetica,sans-Serif" font-size="10.00">Components/Objects</text>
<text text-anchor="start" x="1358" y="-196.5" font-family="Helvetica,sans-Serif" font-size="10.00">/ErrorHandler/test/test</text>
<text text-anchor="middle" x="1421" y="-185.5" font-family="Helvetica,sans-Serif" font-size="10.00">/ErrorCodeParser_test.cpp</text>
</a>
</g>
</g>
<!-- Node3&#45;&gt;Node23 -->
<g id="edge25" class="edge">
<title>Node3&#45;&gt;Node23</title>
<path fill="none" stroke="midnightblue" d="M1283.58,-252.75C1311.29,-242.11 1343.76,-229.65 1370.18,-219.51"/>
<polygon fill="midnightblue" stroke="midnightblue" points="1282.07,-249.58 1273.99,-256.43 1284.58,-256.11 1282.07,-249.58"/>
</g>
<!-- Node3&#45;&gt;Node24 -->
<g id="edge26" class="edge">
<title>Node3&#45;&gt;Node24</title>
<path fill="none" stroke="midnightblue" d="M1292.58,-257.01C1294.06,-256.66 1295.54,-256.33 1297,-256 1386.86,-235.97 1411.36,-241.02 1501,-220 1503.88,-219.33 1506.81,-218.6 1509.77,-217.84"/>
<polygon fill="midnightblue" stroke="midnightblue" points="1291.57,-253.65 1282.66,-259.38 1293.2,-260.46 1291.57,-253.65"/>
</g>
<!-- Node5 -->
<g id="node5" class="node">
<title>Node5</title>
<g id="a_node5"><a xlink:href="../../db/d12/_distance_sensor_controller_8hpp.html" target="_top" xlink:title=" ">
<polygon fill="none" stroke="black" points="970,-95 970,-136 1172,-136 1172,-95 970,-95"/>
<text text-anchor="start" x="978" y="-124" font-family="Helvetica,sans-Serif" font-size="10.00">Components/Controller</text>
<text text-anchor="start" x="978" y="-113" font-family="Helvetica,sans-Serif" font-size="10.00">/DistanceSensorController</text>
<text text-anchor="middle" x="1071" y="-102" font-family="Helvetica,sans-Serif" font-size="10.00">/include/DistanceSensorController.hpp</text>
</a>
</g>
</g>
<!-- Node4&#45;&gt;Node5 -->
<g id="edge4" class="edge">
<title>Node4&#45;&gt;Node5</title>
<path fill="none" stroke="midnightblue" d="M1071.63,-168.06C1071.5,-157.38 1071.36,-145.63 1071.24,-136.05"/>
<polygon fill="midnightblue" stroke="midnightblue" points="1068.14,-168.31 1071.76,-178.27 1075.13,-168.23 1068.14,-168.31"/>
</g>
<!-- Node9 -->
<g id="node9" class="node">
<title>Node9</title>
<g id="a_node9"><a xlink:href="../../d2/d8d/_sensor_controller_base_8cpp.html" target="_top" xlink:title=" ">
<polygon fill="none" stroke="black" points="1228,-95 1228,-136 1390,-136 1390,-95 1228,-95"/>
<text text-anchor="start" x="1236" y="-124" font-family="Helvetica,sans-Serif" font-size="10.00">Components/Interfaces</text>
<text text-anchor="start" x="1236" y="-113" font-family="Helvetica,sans-Serif" font-size="10.00">/SensorControllerBase</text>
<text text-anchor="middle" x="1309" y="-102" font-family="Helvetica,sans-Serif" font-size="10.00">/src/SensorControllerBase.cpp</text>
</a>
</g>
</g>
<!-- Node4&#45;&gt;Node9 -->
<g id="edge8" class="edge">
<title>Node4&#45;&gt;Node9</title>
<path fill="none" stroke="midnightblue" d="M1138.64,-175.08C1174.45,-162.77 1218.12,-147.75 1252.29,-136"/>
<polygon fill="midnightblue" stroke="midnightblue" points="1137.09,-171.92 1128.77,-178.48 1139.36,-178.54 1137.09,-171.92"/>
</g>
<!-- Node10 -->
<g id="node10" class="node">
<title>Node10</title>
<g id="a_node10"><a xlink:href="../../db/dc2/_sensor_controller_base___m_o_c_k_8hpp.html" target="_top" xlink:title=" ">
<polygon fill="none" stroke="black" points="1408,-89.5 1408,-141.5 1584,-141.5 1584,-89.5 1408,-89.5"/>
<text text-anchor="start" x="1416" y="-129.5" font-family="Helvetica,sans-Serif" font-size="10.00">Components/Interfaces</text>
<text text-anchor="start" x="1416" y="-118.5" font-family="Helvetica,sans-Serif" font-size="10.00">/SensorControllerBase</text>
<text text-anchor="start" x="1416" y="-107.5" font-family="Helvetica,sans-Serif" font-size="10.00">/test/mock/SensorControllerBase</text>
<text text-anchor="middle" x="1496" y="-96.5" font-family="Helvetica,sans-Serif" font-size="10.00">_MOCK.hpp</text>
</a>
</g>
</g>
<!-- Node4&#45;&gt;Node10 -->
<g id="edge9" class="edge">
<title>Node4&#45;&gt;Node10</title>
<path fill="none" stroke="midnightblue" d="M1174.15,-177.84C1274.84,-160.27 1302.58,-162.3 1399,-142 1401.9,-141.39 1404.84,-140.75 1407.8,-140.08"/>
<polygon fill="midnightblue" stroke="midnightblue" points="1173.41,-174.41 1164.17,-179.6 1174.63,-181.31 1173.41,-174.41"/>
</g>
<!-- Node12 -->
<g id="node12" class="node">
<title>Node12</title>
<g id="a_node12"><a xlink:href="../../d8/d19/_sensor_controller_test_8cpp.html" target="_top" xlink:title=" ">
<polygon fill="none" stroke="black" points="1404,-6 1404,-47 1588,-47 1588,-6 1404,-6"/>
<text text-anchor="start" x="1412" y="-35" font-family="Helvetica,sans-Serif" font-size="10.00">Components/Interfaces</text>
<text text-anchor="start" x="1412" y="-24" font-family="Helvetica,sans-Serif" font-size="10.00">/SensorControllerBase</text>
<text text-anchor="middle" x="1496" y="-13" font-family="Helvetica,sans-Serif" font-size="10.00">/test/test/SensorControllerTest.cpp</text>
</a>
</g>
</g>
<!-- Node4&#45;&gt;Node12 -->
<g id="edge12" class="edge">
<title>Node4&#45;&gt;Node12</title>
<path fill="none" stroke="midnightblue" d="M1131.37,-173.87C1148.45,-165.31 1166.39,-154.6 1181,-142 1202.95,-123.07 1194.69,-104.78 1219,-89 1285.6,-45.76 1316.58,-70.63 1394,-53 1402.19,-51.14 1410.72,-49.12 1419.22,-47.06"/>
<polygon fill="midnightblue" stroke="midnightblue" points="1129.47,-170.9 1122,-178.41 1132.52,-177.2 1129.47,-170.9"/>
</g>
<!-- Node4&#45;&gt;Node13 -->
<g id="edge13" class="edge">
<title>Node4&#45;&gt;Node13</title>
<path fill="none" stroke="midnightblue" d="M969.7,-181.34C917.02,-171.75 852.05,-158.35 795,-142 788.94,-140.26 782.65,-138.23 776.46,-136.09"/>
<polygon fill="midnightblue" stroke="midnightblue" points="969.27,-184.82 979.73,-183.15 970.51,-177.93 969.27,-184.82"/>
</g>
<!-- Node6 -->
<g id="node6" class="node">
<title>Node6</title>
<g id="a_node6"><a xlink:href="../../dd/dde/_distance_sensor_controller_8cpp.html" target="_top" xlink:title=" ">
<polygon fill="none" stroke="black" points="1000,-6 1000,-47 1180,-47 1180,-6 1000,-6"/>
<text text-anchor="start" x="1008" y="-35" font-family="Helvetica,sans-Serif" font-size="10.00">Components/Controller</text>
<text text-anchor="start" x="1008" y="-24" font-family="Helvetica,sans-Serif" font-size="10.00">/DistanceSensorController</text>
<text text-anchor="middle" x="1090" y="-13" font-family="Helvetica,sans-Serif" font-size="10.00">/src/DistanceSensorController.cpp</text>
</a>
</g>
</g>
<!-- Node5&#45;&gt;Node6 -->
<g id="edge5" class="edge">
<title>Node5&#45;&gt;Node6</title>
<path fill="none" stroke="midnightblue" d="M1077.48,-84.81C1080.2,-72.38 1083.28,-58.27 1085.71,-47.16"/>
<polygon fill="midnightblue" stroke="midnightblue" points="1074.03,-84.24 1075.31,-94.76 1080.86,-85.74 1074.03,-84.24"/>
</g>
<!-- Node7 -->
<g id="node7" class="node">
<title>Node7</title>
<g id="a_node7"><a xlink:href="../../d7/d91/_distance_sensor_controller__test_8cpp.html" target="_top" xlink:title=" ">
<polygon fill="none" stroke="black" points="1198.5,-0.5 1198.5,-52.5 1385.5,-52.5 1385.5,-0.5 1198.5,-0.5"/>
<text text-anchor="start" x="1206.5" y="-40.5" font-family="Helvetica,sans-Serif" font-size="10.00">Components/Controller</text>
<text text-anchor="start" x="1206.5" y="-29.5" font-family="Helvetica,sans-Serif" font-size="10.00">/DistanceSensorController</text>
<text text-anchor="start" x="1206.5" y="-18.5" font-family="Helvetica,sans-Serif" font-size="10.00">/test/test/DistanceSensorController</text>
<text text-anchor="middle" x="1292" y="-7.5" font-family="Helvetica,sans-Serif" font-size="10.00">_test.cpp</text>
</a>
</g>
</g>
<!-- Node5&#45;&gt;Node7 -->
<g id="edge6" class="edge">
<title>Node5&#45;&gt;Node7</title>
<path fill="none" stroke="midnightblue" d="M1130.18,-91.2C1160.47,-79.28 1197.37,-64.75 1228.28,-52.58"/>
<polygon fill="midnightblue" stroke="midnightblue" points="1128.62,-88.06 1120.6,-94.98 1131.18,-94.57 1128.62,-88.06"/>
</g>
<!-- Node8 -->
<g id="node8" class="node">
<title>Node8</title>
<g id="a_node8"><a xlink:href="../../da/d75/_data_broker__test_8cpp.html" target="_top" xlink:title=" ">
<polygon fill="none" stroke="black" points="862.5,-6 862.5,-47 981.5,-47 981.5,-6 862.5,-6"/>
<text text-anchor="start" x="870.5" y="-35" font-family="Helvetica,sans-Serif" font-size="10.00">Components/Objects</text>
<text text-anchor="start" x="870.5" y="-24" font-family="Helvetica,sans-Serif" font-size="10.00">/DataBroker/test/test</text>
<text text-anchor="middle" x="922" y="-13" font-family="Helvetica,sans-Serif" font-size="10.00">/DataBroker_test.cpp</text>
</a>
</g>
</g>
<!-- Node5&#45;&gt;Node8 -->
<g id="edge7" class="edge">
<title>Node5&#45;&gt;Node8</title>
<path fill="none" stroke="midnightblue" d="M1028.64,-89.77C1005.48,-76.24 977.2,-59.73 955.58,-47.11"/>
<polygon fill="midnightblue" stroke="midnightblue" points="1027.16,-92.96 1037.56,-94.98 1030.69,-86.91 1027.16,-92.96"/>
</g>
<!-- Node11 -->
<g id="node11" class="node">
<title>Node11</title>
<g id="a_node11"><a xlink:href="../../dc/d0f/_sensor_controller_base___m_o_c_k_8cpp.html" target="_top" xlink:title=" ">
<polygon fill="none" stroke="black" points="1606,-0.5 1606,-52.5 1782,-52.5 1782,-0.5 1606,-0.5"/>
<text text-anchor="start" x="1614" y="-40.5" font-family="Helvetica,sans-Serif" font-size="10.00">Components/Interfaces</text>
<text text-anchor="start" x="1614" y="-29.5" font-family="Helvetica,sans-Serif" font-size="10.00">/SensorControllerBase</text>
<text text-anchor="start" x="1614" y="-18.5" font-family="Helvetica,sans-Serif" font-size="10.00">/test/mock/SensorControllerBase</text>
<text text-anchor="middle" x="1694" y="-7.5" font-family="Helvetica,sans-Serif" font-size="10.00">_MOCK.cpp</text>
</a>
</g>
</g>
<!-- Node10&#45;&gt;Node11 -->
<g id="edge10" class="edge">
<title>Node10&#45;&gt;Node11</title>
<path fill="none" stroke="midnightblue" d="M1562.47,-85.29C1586.66,-74.67 1613.76,-62.76 1637.06,-52.52"/>
<polygon fill="midnightblue" stroke="midnightblue" points="1560.75,-82.23 1553,-89.45 1563.57,-88.63 1560.75,-82.23"/>
</g>
<!-- Node10&#45;&gt;Node12 -->
<g id="edge11" class="edge">
<title>Node10&#45;&gt;Node12</title>
<path fill="none" stroke="midnightblue" d="M1496,-79.16C1496,-68.21 1496,-56.55 1496,-47.08"/>
<polygon fill="midnightblue" stroke="midnightblue" points="1492.5,-79.34 1496,-89.34 1499.5,-79.34 1492.5,-79.34"/>
</g>
<!-- Node13&#45;&gt;Node8 -->
<g id="edge15" class="edge">
<title>Node13&#45;&gt;Node8</title>
<path fill="none" stroke="midnightblue" d="M780.04,-90.84C810.77,-77.12 849,-60.07 878.05,-47.11"/>
<polygon fill="midnightblue" stroke="midnightblue" points="778.47,-87.7 770.76,-94.98 781.32,-94.1 778.47,-87.7"/>
</g>
<!-- Node14 -->
<g id="node14" class="node">
<title>Node14</title>
<g id="a_node14"><a xlink:href="../../d4/ddc/_data_broker_8cpp.html" target="_top" xlink:title=" ">
<polygon fill="none" stroke="black" points="484.5,-11.5 484.5,-41.5 653.5,-41.5 653.5,-11.5 484.5,-11.5"/>
<text text-anchor="start" x="492.5" y="-29.5" font-family="Helvetica,sans-Serif" font-size="10.00">Components/Objects</text>
<text text-anchor="middle" x="569" y="-18.5" font-family="Helvetica,sans-Serif" font-size="10.00">/DataBroker/src/DataBroker.cpp</text>
</a>
</g>
</g>
<!-- Node13&#45;&gt;Node14 -->
<g id="edge14" class="edge">
<title>Node13&#45;&gt;Node14</title>
<path fill="none" stroke="midnightblue" d="M682.59,-90.05C654.15,-74.39 618.25,-54.62 594.51,-41.55"/>
<polygon fill="midnightblue" stroke="midnightblue" points="681.09,-93.22 691.54,-94.98 684.47,-87.09 681.09,-93.22"/>
</g>
<!-- Node15&#45;&gt;Node13 -->
<g id="edge18" class="edge">
<title>Node15&#45;&gt;Node13</title>
<path fill="none" stroke="midnightblue" d="M714.9,-168.4C717.41,-157.63 720.19,-145.73 722.44,-136.05"/>
<polygon fill="midnightblue" stroke="midnightblue" points="711.46,-167.74 712.6,-178.27 718.28,-169.33 711.46,-167.74"/>
</g>
<!-- Node16 -->
<g id="node16" class="node">
<title>Node16</title>
<g id="a_node16"><a xlink:href="../../dc/d1d/_service__test_8cpp.html" target="_top" xlink:title=" ">
<polygon fill="none" stroke="black" points="520,-95 520,-136 650,-136 650,-95 520,-95"/>
<text text-anchor="start" x="528" y="-124" font-family="Helvetica,sans-Serif" font-size="10.00">Components/Interfaces</text>
<text text-anchor="start" x="528" y="-113" font-family="Helvetica,sans-Serif" font-size="10.00">/ServiceBase/test/test</text>
<text text-anchor="middle" x="585" y="-102" font-family="Helvetica,sans-Serif" font-size="10.00">/Service_test.cpp</text>
</a>
</g>
</g>
<!-- Node15&#45;&gt;Node16 -->
<g id="edge17" class="edge">
<title>Node15&#45;&gt;Node16</title>
<path fill="none" stroke="midnightblue" d="M670.07,-172.87C652.24,-161.05 631.29,-147.17 614.65,-136.14"/>
<polygon fill="midnightblue" stroke="midnightblue" points="668.27,-175.87 678.54,-178.48 672.14,-170.04 668.27,-175.87"/>
</g>
<!-- Node17 -->
<g id="node17" class="node">
<title>Node17</title>
<g id="a_node17"><a xlink:href="../../d2/d1e/_online_detector__service_8hpp.html" target="_top" xlink:title=" ">
<polygon fill="none" stroke="black" points="154.5,-95 154.5,-136 309.5,-136 309.5,-95 154.5,-95"/>
<text text-anchor="start" x="162.5" y="-124" font-family="Helvetica,sans-Serif" font-size="10.00">Components/Service</text>
<text text-anchor="start" x="162.5" y="-113" font-family="Helvetica,sans-Serif" font-size="10.00">/OnlineDetector/include</text>
<text text-anchor="middle" x="232" y="-102" font-family="Helvetica,sans-Serif" font-size="10.00">/OnlineDetector_service.hpp</text>
</a>
</g>
</g>
<!-- Node15&#45;&gt;Node17 -->
<g id="edge19" class="edge">
<title>Node15&#45;&gt;Node17</title>
<path fill="none" stroke="midnightblue" d="M632.82,-177.92C497.31,-152.73 458.76,-167.27 327,-142 318.2,-140.31 309.01,-138.24 299.96,-136.02"/>
<polygon fill="midnightblue" stroke="midnightblue" points="632.27,-181.38 642.75,-179.81 633.58,-174.5 632.27,-181.38"/>
</g>
<!-- Node20 -->
<g id="node20" class="node">
<title>Node20</title>
<g id="a_node20"><a xlink:href="../../dd/d22/_water_estimator___service_8hpp.html" target="_top" xlink:title=" ">
<polygon fill="none" stroke="black" points="336,-95 336,-136 494,-136 494,-95 336,-95"/>
<text text-anchor="start" x="344" y="-124" font-family="Helvetica,sans-Serif" font-size="10.00">Components/Service</text>
<text text-anchor="start" x="344" y="-113" font-family="Helvetica,sans-Serif" font-size="10.00">/WaterEstimator/include</text>
<text text-anchor="middle" x="415" y="-102" font-family="Helvetica,sans-Serif" font-size="10.00">/WaterEstimator_Service.hpp</text>
</a>
</g>
</g>
<!-- Node15&#45;&gt;Node20 -->
<g id="edge22" class="edge">
<title>Node15&#45;&gt;Node20</title>
<path fill="none" stroke="midnightblue" d="M633.16,-177.18C587.64,-164.52 529.87,-148.45 485.22,-136.03"/>
<polygon fill="midnightblue" stroke="midnightblue" points="632.4,-180.6 642.97,-179.91 634.28,-173.86 632.4,-180.6"/>
</g>
<!-- Node18 -->
<g id="node18" class="node">
<title>Node18</title>
<g id="a_node18"><a xlink:href="../../d7/d24/_online_detector__service_8cpp.html" target="_top" xlink:title=" ">
<polygon fill="none" stroke="black" points="0,-6 0,-47 154,-47 154,-6 0,-6"/>
<text text-anchor="start" x="8" y="-35" font-family="Helvetica,sans-Serif" font-size="10.00">Components/Service</text>
<text text-anchor="start" x="8" y="-24" font-family="Helvetica,sans-Serif" font-size="10.00">/OnlineDetector/src</text>
<text text-anchor="middle" x="77" y="-13" font-family="Helvetica,sans-Serif" font-size="10.00">/OnlineDetector_service.cpp</text>
</a>
</g>
</g>
<!-- Node17&#45;&gt;Node18 -->
<g id="edge20" class="edge">
<title>Node17&#45;&gt;Node18</title>
<path fill="none" stroke="midnightblue" d="M188.25,-89.94C164.1,-76.39 134.52,-59.79 111.94,-47.11"/>
<polygon fill="midnightblue" stroke="midnightblue" points="186.78,-93.13 197.21,-94.98 190.21,-87.03 186.78,-93.13"/>
</g>
<!-- Node19 -->
<g id="node19" class="node">
<title>Node19</title>
<g id="a_node19"><a xlink:href="../../db/df8/_service_2_online_detector_2test_2test_2simple__test_8cpp.html" target="_top" xlink:title=" ">
<polygon fill="none" stroke="black" points="172.5,-6 172.5,-47 291.5,-47 291.5,-6 172.5,-6"/>
<text text-anchor="start" x="180.5" y="-35" font-family="Helvetica,sans-Serif" font-size="10.00">Components/Service</text>
<text text-anchor="start" x="180.5" y="-24" font-family="Helvetica,sans-Serif" font-size="10.00">/OnlineDetector/test</text>
<text text-anchor="middle" x="232" y="-13" font-family="Helvetica,sans-Serif" font-size="10.00">/test/simple_test.cpp</text>
</a>
</g>
</g>
<!-- Node17&#45;&gt;Node19 -->
<g id="edge21" class="edge">
<title>Node17&#45;&gt;Node19</title>
<path fill="none" stroke="midnightblue" d="M232,-84.44C232,-72.1 232,-58.16 232,-47.16"/>
<polygon fill="midnightblue" stroke="midnightblue" points="228.5,-84.76 232,-94.76 235.5,-84.76 228.5,-84.76"/>
</g>
<!-- Node21 -->
<g id="node21" class="node">
<title>Node21</title>
<g id="a_node21"><a xlink:href="../../dd/dd3/_water_estimator___service_8cpp.html" target="_top" xlink:title=" ">
<polygon fill="none" stroke="black" points="309.5,-6 309.5,-47 466.5,-47 466.5,-6 309.5,-6"/>
<text text-anchor="start" x="317.5" y="-35" font-family="Helvetica,sans-Serif" font-size="10.00">Components/Service</text>
<text text-anchor="start" x="317.5" y="-24" font-family="Helvetica,sans-Serif" font-size="10.00">/WaterEstimator/src</text>
<text text-anchor="middle" x="388" y="-13" font-family="Helvetica,sans-Serif" font-size="10.00">/WaterEstimator_Service.cpp</text>
</a>
</g>
</g>
<!-- Node20&#45;&gt;Node21 -->
<g id="edge23" class="edge">
<title>Node20&#45;&gt;Node21</title>
<path fill="none" stroke="midnightblue" d="M405.9,-85.19C402.02,-72.67 397.58,-58.38 394.1,-47.16"/>
<polygon fill="midnightblue" stroke="midnightblue" points="402.57,-86.25 408.87,-94.76 409.25,-84.17 402.57,-86.25"/>
</g>
<!-- Node25 -->
<g id="node25" class="node">
<title>Node25</title>
<g id="a_node25"><a xlink:href="../../dd/ddd/_maintainer_8cpp.html" target="_top" xlink:title=" ">
<polygon fill="none" stroke="black" points="1738,-100.5 1738,-130.5 1902,-130.5 1902,-100.5 1738,-100.5"/>
<text text-anchor="start" x="1746" y="-118.5" font-family="Helvetica,sans-Serif" font-size="10.00">Components/Objects</text>
<text text-anchor="middle" x="1820" y="-107.5" font-family="Helvetica,sans-Serif" font-size="10.00">/Maintainer/src/Maintainer.cpp</text>
</a>
</g>
</g>
<!-- Node24&#45;&gt;Node25 -->
<g id="edge27" class="edge">
<title>Node24&#45;&gt;Node25</title>
<path fill="none" stroke="midnightblue" d="M1637.72,-175.69C1682.03,-161.3 1738.32,-143.02 1776.54,-130.61"/>
<polygon fill="midnightblue" stroke="midnightblue" points="1636.6,-172.37 1628.17,-178.79 1638.76,-179.03 1636.6,-172.37"/>
</g>
<!-- Node26 -->
<g id="node26" class="node">
<title>Node26</title>
<g id="a_node26"><a xlink:href="../../d8/d4a/maintainer__test_8cpp.html" target="_top" xlink:title=" ">
<polygon fill="none" stroke="black" points="1602,-95 1602,-136 1720,-136 1720,-95 1602,-95"/>
<text text-anchor="start" x="1610" y="-124" font-family="Helvetica,sans-Serif" font-size="10.00">Components/Objects</text>
<text text-anchor="start" x="1610" y="-113" font-family="Helvetica,sans-Serif" font-size="10.00">/Maintainer/test/test</text>
<text text-anchor="middle" x="1661" y="-102" font-family="Helvetica,sans-Serif" font-size="10.00">/maintainer_test.cpp</text>
</a>
</g>
</g>
<!-- Node24&#45;&gt;Node26 -->
<g id="edge28" class="edge">
<title>Node24&#45;&gt;Node26</title>
<path fill="none" stroke="midnightblue" d="M1599.07,-171.36C1612.06,-159.85 1626.99,-146.63 1638.93,-136.05"/>
<polygon fill="midnightblue" stroke="midnightblue" points="1596.44,-169.02 1591.27,-178.27 1601.08,-174.26 1596.44,-169.02"/>
</g>
<!-- Node24&#45;&gt;Node27 -->
<g id="edge29" class="edge">
<title>Node24&#45;&gt;Node27</title>
<path fill="none" stroke="midnightblue" d="M1499.87,-178.02C1262.34,-137.16 1194.31,-185.02 961,-142 952.7,-140.47 944.06,-138.39 935.62,-136.07"/>
<polygon fill="midnightblue" stroke="midnightblue" points="1499.39,-181.49 1509.84,-179.77 1500.6,-174.59 1499.39,-181.49"/>
</g>
<!-- Node28 -->
<g id="node28" class="node">
<title>Node28</title>
<g id="a_node28"><a xlink:href="../../d2/d77/_active_current_sensor_8cpp.html" target="_top" xlink:title=" ">
<polygon fill="none" stroke="black" points="671.5,-6 671.5,-47 844.5,-47 844.5,-6 671.5,-6"/>
<text text-anchor="start" x="679.5" y="-35" font-family="Helvetica,sans-Serif" font-size="10.00">Components/Sensor/Active</text>
<text text-anchor="start" x="679.5" y="-24" font-family="Helvetica,sans-Serif" font-size="10.00">CurrentSensor/src/ActiveCurrent</text>
<text text-anchor="middle" x="758" y="-13" font-family="Helvetica,sans-Serif" font-size="10.00">Sensor.cpp</text>
</a>
</g>
</g>
<!-- Node27&#45;&gt;Node28 -->
<g id="edge30" class="edge">
<title>Node27&#45;&gt;Node28</title>
<path fill="none" stroke="midnightblue" d="M842.92,-89.07C824.53,-75.73 802.34,-59.65 785.26,-47.26"/>
<polygon fill="midnightblue" stroke="midnightblue" points="840.92,-91.94 851.07,-94.98 845.03,-86.27 840.92,-91.94"/>
</g>
<!-- Node30 -->
<g id="node30" class="node">
<title>Node30</title>
<g id="a_node30"><a xlink:href="../../d0/db0/hal__mqtt__log_8cpp.html" target="_top" xlink:title=" ">
<polygon fill="none" stroke="black" points="1646,-178.5 1646,-219.5 1764,-219.5 1764,-178.5 1646,-178.5"/>
<text text-anchor="start" x="1654" y="-207.5" font-family="Helvetica,sans-Serif" font-size="10.00">Components/Objects</text>
<text text-anchor="start" x="1654" y="-196.5" font-family="Helvetica,sans-Serif" font-size="10.00">/Logger/src/hal_mqtt</text>
<text text-anchor="middle" x="1705" y="-185.5" font-family="Helvetica,sans-Serif" font-size="10.00">_log.cpp</text>
</a>
</g>
</g>
<!-- Node29&#45;&gt;Node30 -->
<g id="edge34" class="edge">
<title>Node29&#45;&gt;Node30</title>
<path fill="none" stroke="midnightblue" d="M1466.69,-256.08C1466.8,-256.05 1466.9,-256.03 1467,-256 1541.92,-237.24 1562.12,-238.91 1637,-220 1639.86,-219.28 1642.79,-218.51 1645.74,-217.72"/>
<polygon fill="midnightblue" stroke="midnightblue" points="1465.82,-252.69 1457.02,-258.58 1467.58,-259.46 1465.82,-252.69"/>
</g>
<!-- Node33&#45;&gt;Node4 -->
<g id="edge40" class="edge">
<title>Node33&#45;&gt;Node4</title>
<path fill="none" stroke="midnightblue" d="M730.65,-260.19C803.6,-247.33 906.19,-229.24 979.82,-216.25"/>
<polygon fill="midnightblue" stroke="midnightblue" points="729.79,-256.79 720.55,-261.97 731.01,-263.68 729.79,-256.79"/>
</g>
<!-- Node33&#45;&gt;Node15 -->
<g id="edge41" class="edge">
<title>Node33&#45;&gt;Node15</title>
<path fill="none" stroke="midnightblue" d="M660.47,-253.91C670.01,-243.09 681.41,-230.16 690.65,-219.68"/>
<polygon fill="midnightblue" stroke="midnightblue" points="657.59,-251.89 653.6,-261.7 662.84,-256.52 657.59,-251.89"/>
</g>
<!-- Node33&#45;&gt;Node27 -->
<g id="edge44" class="edge">
<title>Node33&#45;&gt;Node27</title>
<path fill="none" stroke="midnightblue" d="M701.43,-258.64C727.54,-249.51 757.62,-236.69 782,-220 816.17,-196.6 847.06,-158.99 864.11,-136.13"/>
<polygon fill="midnightblue" stroke="midnightblue" points="699.98,-255.44 691.64,-261.96 702.23,-262.07 699.98,-255.44"/>
</g>
<!-- Node34 -->
<g id="node34" class="node">
<title>Node34</title>
<g id="a_node34"><a xlink:href="../../d2/d93/_m_q_t_t___message_8cpp.html" target="_top" xlink:title=" ">
<polygon fill="none" stroke="black" points="281,-184 281,-214 447,-214 447,-184 281,-184"/>
<text text-anchor="start" x="289" y="-202" font-family="Helvetica,sans-Serif" font-size="10.00">Components/Protocols</text>
<text text-anchor="middle" x="364" y="-191" font-family="Helvetica,sans-Serif" font-size="10.00">/MQTT/src/MQTT_Message.cpp</text>
</a>
</g>
</g>
<!-- Node33&#45;&gt;Node34 -->
<g id="edge42" class="edge">
<title>Node33&#45;&gt;Node34</title>
<path fill="none" stroke="midnightblue" d="M579.96,-259.25C530.59,-245.71 461.86,-226.85 415.3,-214.07"/>
<polygon fill="midnightblue" stroke="midnightblue" points="579.3,-262.7 589.87,-261.97 581.15,-255.95 579.3,-262.7"/>
</g>
<!-- Node35 -->
<g id="node35" class="node">
<title>Node35</title>
<g id="a_node35"><a xlink:href="../../d2/d40/msg__test_8cpp.html" target="_top" xlink:title=" ">
<polygon fill="none" stroke="black" points="465,-184 465,-214 625,-214 625,-184 465,-184"/>
<text text-anchor="start" x="473" y="-202" font-family="Helvetica,sans-Serif" font-size="10.00">Components/Protocols</text>
<text text-anchor="middle" x="545" y="-191" font-family="Helvetica,sans-Serif" font-size="10.00">/MQTT/test/test/msg_test.cpp</text>
</a>
</g>
</g>
<!-- Node33&#45;&gt;Node35 -->
<g id="edge43" class="edge">
<title>Node33&#45;&gt;Node35</title>
<path fill="none" stroke="midnightblue" d="M614.79,-255.25C598.35,-242.23 577.57,-225.78 562.98,-214.23"/>
<polygon fill="midnightblue" stroke="midnightblue" points="612.93,-258.24 622.94,-261.7 617.28,-252.75 612.93,-258.24"/>
</g>
<!-- Node37 -->
<g id="node37" class="node">
<title>Node37</title>
<g id="a_node37"><a xlink:href="../../de/d8f/esp32__http__sal_8cpp.html" target="_top" xlink:title=" ">
<polygon fill="none" stroke="black" points="1787,-256.5 1787,-297.5 1913,-297.5 1913,-256.5 1787,-256.5"/>
<text text-anchor="start" x="1795" y="-285.5" font-family="Helvetica,sans-Serif" font-size="10.00">Components/Protocols</text>
<text text-anchor="start" x="1795" y="-274.5" font-family="Helvetica,sans-Serif" font-size="10.00">/HTTP/src/esp32_http</text>
<text text-anchor="middle" x="1850" y="-263.5" font-family="Helvetica,sans-Serif" font-size="10.00">_sal.cpp</text>
</a>
</g>
</g>
<!-- Node36&#45;&gt;Node37 -->
<g id="edge49" class="edge">
<title>Node36&#45;&gt;Node37</title>
<path fill="none" stroke="midnightblue" d="M1578.17,-333.83C1667.47,-315.06 1692.63,-317.46 1778,-298 1780.91,-297.34 1783.88,-296.63 1786.87,-295.9"/>
<polygon fill="midnightblue" stroke="midnightblue" points="1577.2,-330.46 1568.15,-335.97 1578.66,-337.3 1577.2,-330.46"/>
</g>
<!-- Node38 -->
<g id="node38" class="node">
<title>Node38</title>
<g id="a_node38"><a xlink:href="../../df/d5e/esp32__http__sal__test_8cpp.html" target="_top" xlink:title=" ">
<polygon fill="none" stroke="black" points="1643,-256.5 1643,-297.5 1769,-297.5 1769,-256.5 1643,-256.5"/>
<text text-anchor="start" x="1651" y="-285.5" font-family="Helvetica,sans-Serif" font-size="10.00">Components/Protocols</text>
<text text-anchor="start" x="1651" y="-274.5" font-family="Helvetica,sans-Serif" font-size="10.00">/HTTP/test/test/esp32</text>
<text text-anchor="middle" x="1706" y="-263.5" font-family="Helvetica,sans-Serif" font-size="10.00">_http_sal_test.cpp</text>
</a>
</g>
</g>
<!-- Node36&#45;&gt;Node38 -->
<g id="edge50" class="edge">
<title>Node36&#45;&gt;Node38</title>
<path fill="none" stroke="midnightblue" d="M1561.26,-330.89C1590.45,-320.22 1624.74,-307.69 1652.62,-297.51"/>
<polygon fill="midnightblue" stroke="midnightblue" points="1559.76,-327.71 1551.57,-334.43 1562.16,-334.28 1559.76,-327.71"/>
</g>
</g>
</svg>
