<?xml version="1.0" encoding="UTF-8" standalone="no"?>
<!DOCTYPE svg PUBLIC "-//W3C//DTD SVG 1.1//EN"
 "http://www.w3.org/Graphics/SVG/1.1/DTD/svg11.dtd">
<!-- Generated by graphviz version 2.43.0 (0)
 -->
<!-- Title: AM2320_Base Pages: 1 -->
<svg width="352pt" height="799pt"
 viewBox="0.00 0.00 351.50 799.00" xmlns="http://www.w3.org/2000/svg" xmlns:xlink="http://www.w3.org/1999/xlink">
<g id="graph0" class="graph" transform="scale(1 1) rotate(0) translate(4 795)">
<title>AM2320_Base</title>
<!-- Node1 -->
<g id="node1" class="node">
<title>Node1</title>
<g id="a_node1"><a xlink:title=" ">
<polygon fill="#bfbfbf" stroke="black" points="41,-0.5 41,-134.5 231,-134.5 231,-0.5 41,-0.5"/>
<text text-anchor="middle" x="136" y="-122.5" font-family="Helvetica,sans-Serif" font-size="10.00">AM2320_Base</text>
<polyline fill="none" stroke="black" points="41,-115.5 231,-115.5 "/>
<text text-anchor="start" x="49" y="-103.5" font-family="Helvetica,sans-Serif" font-size="10.00"># m_address</text>
<text text-anchor="start" x="49" y="-92.5" font-family="Helvetica,sans-Serif" font-size="10.00"># FUNCTION_CODE_TEMPERATURE</text>
<text text-anchor="start" x="49" y="-81.5" font-family="Helvetica,sans-Serif" font-size="10.00"># FUNCTION_CODE_HUMIDITY</text>
<polyline fill="none" stroke="black" points="41,-74.5 231,-74.5 "/>
<text text-anchor="start" x="49" y="-62.5" font-family="Helvetica,sans-Serif" font-size="10.00">+ AM2320_Base()</text>
<text text-anchor="start" x="49" y="-51.5" font-family="Helvetica,sans-Serif" font-size="10.00">+ ~AM2320_Base()</text>
<text text-anchor="start" x="49" y="-40.5" font-family="Helvetica,sans-Serif" font-size="10.00">+ getMeasurement()</text>
<text text-anchor="start" x="49" y="-29.5" font-family="Helvetica,sans-Serif" font-size="10.00"># getRaw()</text>
<text text-anchor="start" x="49" y="-18.5" font-family="Helvetica,sans-Serif" font-size="10.00"># getSensorValue()</text>
<text text-anchor="start" x="49" y="-7.5" font-family="Helvetica,sans-Serif" font-size="10.00">&#45; wakeUp()</text>
</a>
</g>
</g>
<!-- Node2 -->
<g id="node2" class="node">
<title>Node2</title>
<g id="a_node2"><a xlink:href="../../da/d55/classi2c.html" target="_top" xlink:title=" ">
<polygon fill="none" stroke="black" points="79.5,-182.5 79.5,-393.5 192.5,-393.5 192.5,-182.5 79.5,-182.5"/>
<text text-anchor="middle" x="136" y="-381.5" font-family="Helvetica,sans-Serif" font-size="10.00">i2c&lt; i2c_esp32 &gt;</text>
<polyline fill="none" stroke="black" points="79.5,-374.5 192.5,-374.5 "/>
<text text-anchor="middle" x="136" y="-362.5" font-family="Helvetica,sans-Serif" font-size="10.00"> </text>
<polyline fill="none" stroke="black" points="79.5,-355.5 192.5,-355.5 "/>
<text text-anchor="start" x="87.5" y="-343.5" font-family="Helvetica,sans-Serif" font-size="10.00">+ ~i2c()</text>
<text text-anchor="start" x="87.5" y="-332.5" font-family="Helvetica,sans-Serif" font-size="10.00">+ writeByte()</text>
<text text-anchor="start" x="87.5" y="-321.5" font-family="Helvetica,sans-Serif" font-size="10.00">+ writeMultiBytes()</text>
<text text-anchor="start" x="87.5" y="-310.5" font-family="Helvetica,sans-Serif" font-size="10.00">+ readMultiBytes()</text>
<text text-anchor="start" x="87.5" y="-299.5" font-family="Helvetica,sans-Serif" font-size="10.00">+ readMultiBytes()</text>
<text text-anchor="start" x="87.5" y="-288.5" font-family="Helvetica,sans-Serif" font-size="10.00">+ writeWord()</text>
<text text-anchor="start" x="87.5" y="-277.5" font-family="Helvetica,sans-Serif" font-size="10.00">+ readByte()</text>
<text text-anchor="start" x="87.5" y="-266.5" font-family="Helvetica,sans-Serif" font-size="10.00">+ readWord()</text>
<text text-anchor="start" x="87.5" y="-255.5" font-family="Helvetica,sans-Serif" font-size="10.00">+ readWord()</text>
<text text-anchor="start" x="87.5" y="-244.5" font-family="Helvetica,sans-Serif" font-size="10.00">+ scan()</text>
<text text-anchor="start" x="87.5" y="-233.5" font-family="Helvetica,sans-Serif" font-size="10.00">+ slavePresent()</text>
<text text-anchor="start" x="87.5" y="-222.5" font-family="Helvetica,sans-Serif" font-size="10.00">+ getInstance()</text>
<text text-anchor="start" x="87.5" y="-211.5" font-family="Helvetica,sans-Serif" font-size="10.00">&#45; i2c()</text>
<text text-anchor="start" x="87.5" y="-200.5" font-family="Helvetica,sans-Serif" font-size="10.00">&#45; word2bytes()</text>
<text text-anchor="start" x="87.5" y="-189.5" font-family="Helvetica,sans-Serif" font-size="10.00">&#45; bytes2word()</text>
</a>
</g>
</g>
<!-- Node2&#45;&gt;Node1 -->
<g id="edge1" class="edge">
<title>Node2&#45;&gt;Node1</title>
<path fill="none" stroke="#404040" d="M136,-182.23C136,-170.33 136,-158.35 136,-146.87"/>
<polygon fill="none" stroke="#404040" points="136,-146.64 132,-140.64 136,-134.64 140,-140.64 136,-146.64"/>
<text text-anchor="middle" x="156.5" y="-156" font-family="Helvetica,sans-Serif" font-size="10.00"> #m_i2c</text>
</g>
<!-- Node3 -->
<g id="node3" class="node">
<title>Node3</title>
<g id="a_node3"><a xlink:href="../../d9/ddd/i2c__common_8hpp.html#db/dd0/structi2c__conf__t" target="_top" xlink:title=" ">
<polygon fill="none" stroke="black" points="0,-711.5 0,-790.5 68,-790.5 68,-711.5 0,-711.5"/>
<text text-anchor="middle" x="34" y="-778.5" font-family="Helvetica,sans-Serif" font-size="10.00">i2c_conf_t</text>
<polyline fill="none" stroke="black" points="0,-771.5 68,-771.5 "/>
<text text-anchor="start" x="8" y="-759.5" font-family="Helvetica,sans-Serif" font-size="10.00">+ speed</text>
<text text-anchor="start" x="8" y="-748.5" font-family="Helvetica,sans-Serif" font-size="10.00">+ pin_sda</text>
<text text-anchor="start" x="8" y="-737.5" font-family="Helvetica,sans-Serif" font-size="10.00">+ pin_sclk</text>
<polyline fill="none" stroke="black" points="0,-730.5 68,-730.5 "/>
<text text-anchor="middle" x="34" y="-718.5" font-family="Helvetica,sans-Serif" font-size="10.00"> </text>
</a>
</g>
</g>
<!-- Node3&#45;&gt;Node2 -->
<g id="edge2" class="edge">
<title>Node3&#45;&gt;Node2</title>
<path fill="none" stroke="#404040" d="M25.19,-711.27C13.35,-651.57 -2.97,-534.23 27,-441 36.39,-411.79 53.7,-383.44 71.8,-359.29"/>
<polygon fill="none" stroke="#404040" points="71.98,-359.06 72.47,-351.86 79.3,-349.55 78.81,-356.75 71.98,-359.06"/>
<text text-anchor="middle" x="48.5" y="-550" font-family="Helvetica,sans-Serif" font-size="10.00"> &#45;m_conf</text>
</g>
<!-- Node5 -->
<g id="node5" class="node">
<title>Node5</title>
<g id="a_node5"><a xlink:href="../../da/d55/classi2c.html" target="_top" xlink:title=" ">
<polygon fill="none" stroke="black" points="79.5,-447 79.5,-658 192.5,-658 192.5,-447 79.5,-447"/>
<text text-anchor="middle" x="136" y="-646" font-family="Helvetica,sans-Serif" font-size="10.00">i2c&lt; i2c_class &gt;</text>
<polyline fill="none" stroke="black" points="79.5,-639 192.5,-639 "/>
<text text-anchor="start" x="87.5" y="-627" font-family="Helvetica,sans-Serif" font-size="10.00">&#45; m_hal</text>
<polyline fill="none" stroke="black" points="79.5,-620 192.5,-620 "/>
<text text-anchor="start" x="87.5" y="-608" font-family="Helvetica,sans-Serif" font-size="10.00">+ ~i2c()</text>
<text text-anchor="start" x="87.5" y="-597" font-family="Helvetica,sans-Serif" font-size="10.00">+ writeByte()</text>
<text text-anchor="start" x="87.5" y="-586" font-family="Helvetica,sans-Serif" font-size="10.00">+ writeMultiBytes()</text>
<text text-anchor="start" x="87.5" y="-575" font-family="Helvetica,sans-Serif" font-size="10.00">+ readMultiBytes()</text>
<text text-anchor="start" x="87.5" y="-564" font-family="Helvetica,sans-Serif" font-size="10.00">+ readMultiBytes()</text>
<text text-anchor="start" x="87.5" y="-553" font-family="Helvetica,sans-Serif" font-size="10.00">+ writeWord()</text>
<text text-anchor="start" x="87.5" y="-542" font-family="Helvetica,sans-Serif" font-size="10.00">+ readByte()</text>
<text text-anchor="start" x="87.5" y="-531" font-family="Helvetica,sans-Serif" font-size="10.00">+ readWord()</text>
<text text-anchor="start" x="87.5" y="-520" font-family="Helvetica,sans-Serif" font-size="10.00">+ readWord()</text>
<text text-anchor="start" x="87.5" y="-509" font-family="Helvetica,sans-Serif" font-size="10.00">+ scan()</text>
<text text-anchor="start" x="87.5" y="-498" font-family="Helvetica,sans-Serif" font-size="10.00">+ slavePresent()</text>
<text text-anchor="start" x="87.5" y="-487" font-family="Helvetica,sans-Serif" font-size="10.00">+ getInstance()</text>
<text text-anchor="start" x="87.5" y="-476" font-family="Helvetica,sans-Serif" font-size="10.00">&#45; i2c()</text>
<text text-anchor="start" x="87.5" y="-465" font-family="Helvetica,sans-Serif" font-size="10.00">&#45; word2bytes()</text>
<text text-anchor="start" x="87.5" y="-454" font-family="Helvetica,sans-Serif" font-size="10.00">&#45; bytes2word()</text>
</a>
</g>
</g>
<!-- Node3&#45;&gt;Node5 -->
<g id="edge5" class="edge">
<title>Node3&#45;&gt;Node5</title>
<path fill="none" stroke="#404040" d="M54.15,-711.18C60.6,-698.76 68.1,-684.31 75.89,-669.29"/>
<polygon fill="none" stroke="#404040" points="76.08,-668.93 75.3,-661.76 81.61,-658.28 82.4,-665.45 76.08,-668.93"/>
<text text-anchor="middle" x="88.5" y="-685" font-family="Helvetica,sans-Serif" font-size="10.00"> &#45;m_conf</text>
</g>
<!-- Node4 -->
<g id="node4" class="node">
<title>Node4</title>
<g id="a_node4"><a xlink:href="../../d3/d68/classi2c__esp32.html" target="_top" xlink:title=" ">
<polygon fill="none" stroke="black" points="210.5,-441.5 210.5,-663.5 343.5,-663.5 343.5,-441.5 210.5,-441.5"/>
<text text-anchor="middle" x="277" y="-651.5" font-family="Helvetica,sans-Serif" font-size="10.00">i2c_esp32</text>
<polyline fill="none" stroke="black" points="210.5,-644.5 343.5,-644.5 "/>
<text text-anchor="middle" x="277" y="-632.5" font-family="Helvetica,sans-Serif" font-size="10.00"> </text>
<polyline fill="none" stroke="black" points="210.5,-625.5 343.5,-625.5 "/>
<text text-anchor="start" x="218.5" y="-613.5" font-family="Helvetica,sans-Serif" font-size="10.00">+ i2c_esp32()</text>
<text text-anchor="start" x="218.5" y="-602.5" font-family="Helvetica,sans-Serif" font-size="10.00">+ ~i2c_esp32()</text>
<text text-anchor="start" x="218.5" y="-591.5" font-family="Helvetica,sans-Serif" font-size="10.00">+ slavePresent()</text>
<text text-anchor="start" x="218.5" y="-580.5" font-family="Helvetica,sans-Serif" font-size="10.00">+ writeByte()</text>
<text text-anchor="start" x="218.5" y="-569.5" font-family="Helvetica,sans-Serif" font-size="10.00">+ writeMultiBytes()</text>
<text text-anchor="start" x="218.5" y="-558.5" font-family="Helvetica,sans-Serif" font-size="10.00">+ readByte()</text>
<text text-anchor="start" x="218.5" y="-547.5" font-family="Helvetica,sans-Serif" font-size="10.00">+ readMultiBytes()</text>
<text text-anchor="start" x="218.5" y="-536.5" font-family="Helvetica,sans-Serif" font-size="10.00">+ readMultiBytes()</text>
<text text-anchor="start" x="218.5" y="-525.5" font-family="Helvetica,sans-Serif" font-size="10.00">&#45; initialize_transaction()</text>
<text text-anchor="start" x="218.5" y="-514.5" font-family="Helvetica,sans-Serif" font-size="10.00">&#45; insert_start_bit()</text>
<text text-anchor="start" x="218.5" y="-503.5" font-family="Helvetica,sans-Serif" font-size="10.00">&#45; insert_write_byte()</text>
<text text-anchor="start" x="218.5" y="-492.5" font-family="Helvetica,sans-Serif" font-size="10.00">&#45; insert_write_bytes()</text>
<text text-anchor="start" x="218.5" y="-481.5" font-family="Helvetica,sans-Serif" font-size="10.00">&#45; insert_read_byte()</text>
<text text-anchor="start" x="218.5" y="-470.5" font-family="Helvetica,sans-Serif" font-size="10.00">&#45; insert_read_bytes()</text>
<text text-anchor="start" x="218.5" y="-459.5" font-family="Helvetica,sans-Serif" font-size="10.00">&#45; insert_stop_bit()</text>
<text text-anchor="start" x="218.5" y="-448.5" font-family="Helvetica,sans-Serif" font-size="10.00">&#45; execute_transaction()</text>
</a>
</g>
</g>
<!-- Node4&#45;&gt;Node2 -->
<g id="edge3" class="edge">
<title>Node4&#45;&gt;Node2</title>
<path fill="none" stroke="#404040" d="M230,-441.45C225.13,-431.4 220.09,-421.45 215,-412 210.01,-402.75 204.57,-393.27 198.95,-383.88"/>
<polygon fill="none" stroke="#404040" points="198.78,-383.6 192.24,-380.54 192.55,-373.34 199.08,-376.39 198.78,-383.6"/>
<text text-anchor="middle" x="238.5" y="-415" font-family="Helvetica,sans-Serif" font-size="10.00"> &#45;m_hal</text>
</g>
<!-- Node5&#45;&gt;Node2 -->
<g id="edge4" class="edge">
<title>Node5&#45;&gt;Node2</title>
<path fill="none" stroke="orange" d="M136,-436.63C136,-422.31 136,-407.72 136,-393.57"/>
<polygon fill="orange" stroke="orange" points="132.5,-437 136,-447 139.5,-437 132.5,-437"/>
<text text-anchor="middle" x="173.5" y="-415" font-family="Helvetica,sans-Serif" font-size="10.00"> &lt; i2c_esp32 &gt;</text>
</g>
</g>
</svg>
