<?xml version="1.0" encoding="UTF-8" standalone="no"?>
<!DOCTYPE svg PUBLIC "-//W3C//DTD SVG 1.1//EN"
 "http://www.w3.org/Graphics/SVG/1.1/DTD/svg11.dtd">
<!-- Generated by graphviz version 2.43.0 (0)
 -->
<!-- Title: AM2320_Base Pages: 1 -->
<!--zoomable 744 -->
<svg id="main" version="1.1" xmlns="http://www.w3.org/2000/svg" xmlns:xlink="http://www.w3.org/1999/xlink" xml:space="preserve" onload="init(evt)">
<style type="text/css"><![CDATA[
.edge:hover path { stroke: red; }
.edge:hover polygon { stroke: red; fill: red; }
]]></style>
<script type="text/javascript"><![CDATA[
var edges = document.getElementsByTagName('g');
if (edges && edges.length) {
  for (var i=0;i<edges.length;i++) {
    if (edges[i].id.substr(0,4)=='edge') {
      edges[i].setAttribute('class','edge');
    }
  }
}
]]></script>
        <defs>
                <circle id="rim" cx="0" cy="0" r="7"/>
                <circle id="rim2" cx="0" cy="0" r="3.5"/>
                <g id="zoomPlus">
                        <use xlink:href="#rim" fill="#404040">
                                <set attributeName="fill" to="#808080" begin="zoomplus.mouseover" end="zoomplus.mouseout"/>
                        </use>
                        <path d="M-4,0h8M0,-4v8" fill="none" stroke="white" stroke-width="1.5" pointer-events="none"/>
                </g>
                <g id="zoomMin">
                        <use xlink:href="#rim" fill="#404040">
                                <set attributeName="fill" to="#808080" begin="zoomminus.mouseover" end="zoomminus.mouseout"/>
                        </use>
                        <path d="M-4,0h8" fill="none" stroke="white" stroke-width="1.5" pointer-events="none"/>
                </g>
                <g id="dirArrow">
                        <path fill="none" stroke="white" stroke-width="1.5" d="M0,-3.0v7 M-2.5,-0.5L0,-3.0L2.5,-0.5"/>
                </g>
               <g id="resetDef">
                       <use xlink:href="#rim2" fill="#404040">
                               <set attributeName="fill" to="#808080" begin="reset.mouseover" end="reset.mouseout"/>
                       </use>
               </g>
        </defs>

<script type="text/javascript">
var viewWidth = 352;
var viewHeight = 744;
var sectionId = 'dynsection-1';
</script>
<script xlink:href="../../svgpan.js"/>
<svg id="graph" class="graph">
<g id="viewport">
<title>AM2320_Base</title>
<!-- Node1 -->
<g id="node1" class="node">
<title>Node1</title>
<g id="a_node1"><a xlink:title=" ">
<polygon fill="#bfbfbf" stroke="black" points="76.5,-0.5 76.5,-112.5 195.5,-112.5 195.5,-0.5 76.5,-0.5"/>
<text text-anchor="middle" x="136" y="-100.5" font-family="Helvetica,sans-Serif" font-size="10.00">AM2320_Base</text>
<polyline fill="none" stroke="black" points="76.5,-93.5 195.5,-93.5 "/>
<text text-anchor="start" x="84.5" y="-81.5" font-family="Helvetica,sans-Serif" font-size="10.00"># m_address</text>
<polyline fill="none" stroke="black" points="76.5,-74.5 195.5,-74.5 "/>
<text text-anchor="start" x="84.5" y="-62.5" font-family="Helvetica,sans-Serif" font-size="10.00">+ AM2320_Base()</text>
<text text-anchor="start" x="84.5" y="-51.5" font-family="Helvetica,sans-Serif" font-size="10.00">+ ~AM2320_Base()</text>
<text text-anchor="start" x="84.5" y="-40.5" font-family="Helvetica,sans-Serif" font-size="10.00">+ getMeasurement()</text>
<text text-anchor="start" x="84.5" y="-29.5" font-family="Helvetica,sans-Serif" font-size="10.00"># getRaw()</text>
<text text-anchor="start" x="84.5" y="-18.5" font-family="Helvetica,sans-Serif" font-size="10.00"># convert2SI()</text>
<text text-anchor="start" x="84.5" y="-7.5" font-family="Helvetica,sans-Serif" font-size="10.00">&#45; wakeUp()</text>
</a>
</g>
</g>
<!-- Node2 -->
<g id="node2" class="node">
<title>Node2</title>
<g id="a_node2"><a xlink:href="../../da/d55/classi2c.html" target="_top" xlink:title=" ">
<polygon fill="none" stroke="black" points="79.5,-160.5 79.5,-349.5 192.5,-349.5 192.5,-160.5 79.5,-160.5"/>
<text text-anchor="middle" x="136" y="-337.5" font-family="Helvetica,sans-Serif" font-size="10.00">i2c&lt; i2c_esp32 &gt;</text>
<polyline fill="none" stroke="black" points="79.5,-330.5 192.5,-330.5 "/>
<text text-anchor="middle" x="136" y="-318.5" font-family="Helvetica,sans-Serif" font-size="10.00"> </text>
<polyline fill="none" stroke="black" points="79.5,-311.5 192.5,-311.5 "/>
<text text-anchor="start" x="87.5" y="-299.5" font-family="Helvetica,sans-Serif" font-size="10.00">+ ~i2c()</text>
<text text-anchor="start" x="87.5" y="-288.5" font-family="Helvetica,sans-Serif" font-size="10.00">+ writeByte()</text>
<text text-anchor="start" x="87.5" y="-277.5" font-family="Helvetica,sans-Serif" font-size="10.00">+ writeMultiBytes()</text>
<text text-anchor="start" x="87.5" y="-266.5" font-family="Helvetica,sans-Serif" font-size="10.00">+ readMultiBytes()</text>
<text text-anchor="start" x="87.5" y="-255.5" font-family="Helvetica,sans-Serif" font-size="10.00">+ writeWord()</text>
<text text-anchor="start" x="87.5" y="-244.5" font-family="Helvetica,sans-Serif" font-size="10.00">+ readByte()</text>
<text text-anchor="start" x="87.5" y="-233.5" font-family="Helvetica,sans-Serif" font-size="10.00">+ readWord()</text>
<text text-anchor="start" x="87.5" y="-222.5" font-family="Helvetica,sans-Serif" font-size="10.00">+ scan()</text>
<text text-anchor="start" x="87.5" y="-211.5" font-family="Helvetica,sans-Serif" font-size="10.00">+ slavePresent()</text>
<text text-anchor="start" x="87.5" y="-200.5" font-family="Helvetica,sans-Serif" font-size="10.00">+ getInstance()</text>
<text text-anchor="start" x="87.5" y="-189.5" font-family="Helvetica,sans-Serif" font-size="10.00">&#45; i2c()</text>
<text text-anchor="start" x="87.5" y="-178.5" font-family="Helvetica,sans-Serif" font-size="10.00">&#45; word2bytes()</text>
<text text-anchor="start" x="87.5" y="-167.5" font-family="Helvetica,sans-Serif" font-size="10.00">&#45; bytes2word()</text>
</a>
</g>
</g>
<!-- Node2&#45;&gt;Node1 -->
<g id="edge1" class="edge">
<title>Node2&#45;&gt;Node1</title>
<path fill="none" stroke="#404040" d="M136,-160.35C136,-148.38 136,-136.31 136,-124.86"/>
<polygon fill="none" stroke="#404040" points="136,-124.72 132,-118.72 136,-112.72 140,-118.72 136,-124.72"/>
<text text-anchor="middle" x="156.5" y="-134" font-family="Helvetica,sans-Serif" font-size="10.00"> #m_i2c</text>
</g>
<!-- Node3 -->
<g id="node3" class="node">
<title>Node3</title>
<g id="a_node3"><a xlink:href="../../d9/ddd/i2c__common_8hpp.html#db/dd0/structi2c__conf__t" target="_top" xlink:title=" ">
<polygon fill="none" stroke="black" points="0,-656.5 0,-735.5 68,-735.5 68,-656.5 0,-656.5"/>
<text text-anchor="middle" x="34" y="-723.5" font-family="Helvetica,sans-Serif" font-size="10.00">i2c_conf_t</text>
<polyline fill="none" stroke="black" points="0,-716.5 68,-716.5 "/>
<text text-anchor="start" x="8" y="-704.5" font-family="Helvetica,sans-Serif" font-size="10.00">+ speed</text>
<text text-anchor="start" x="8" y="-693.5" font-family="Helvetica,sans-Serif" font-size="10.00">+ pin_sda</text>
<text text-anchor="start" x="8" y="-682.5" font-family="Helvetica,sans-Serif" font-size="10.00">+ pin_sclk</text>
<polyline fill="none" stroke="black" points="0,-675.5 68,-675.5 "/>
<text text-anchor="middle" x="34" y="-663.5" font-family="Helvetica,sans-Serif" font-size="10.00"> </text>
</a>
</g>
</g>
<!-- Node3&#45;&gt;Node2 -->
<g id="edge2" class="edge">
<title>Node3&#45;&gt;Node2</title>
<path fill="none" stroke="#404040" d="M24.76,-656.08C12.76,-597.91 -3.27,-485.64 27,-397 36.4,-369.46 53.61,-343.12 71.62,-320.82"/>
<polygon fill="none" stroke="#404040" points="71.69,-320.74 72.46,-313.57 79.37,-311.52 78.6,-318.69 71.69,-320.74"/>
<text text-anchor="middle" x="48.5" y="-500.5" font-family="Helvetica,sans-Serif" font-size="10.00"> &#45;m_conf</text>
</g>
<!-- Node5 -->
<g id="node5" class="node">
<title>Node5</title>
<g id="a_node5"><a xlink:href="../../da/d55/classi2c.html" target="_top" xlink:title=" ">
<polygon fill="none" stroke="black" points="79.5,-408.5 79.5,-597.5 192.5,-597.5 192.5,-408.5 79.5,-408.5"/>
<text text-anchor="middle" x="136" y="-585.5" font-family="Helvetica,sans-Serif" font-size="10.00">i2c&lt; i2c_class &gt;</text>
<polyline fill="none" stroke="black" points="79.5,-578.5 192.5,-578.5 "/>
<text text-anchor="start" x="87.5" y="-566.5" font-family="Helvetica,sans-Serif" font-size="10.00">&#45; m_hal</text>
<polyline fill="none" stroke="black" points="79.5,-559.5 192.5,-559.5 "/>
<text text-anchor="start" x="87.5" y="-547.5" font-family="Helvetica,sans-Serif" font-size="10.00">+ ~i2c()</text>
<text text-anchor="start" x="87.5" y="-536.5" font-family="Helvetica,sans-Serif" font-size="10.00">+ writeByte()</text>
<text text-anchor="start" x="87.5" y="-525.5" font-family="Helvetica,sans-Serif" font-size="10.00">+ writeMultiBytes()</text>
<text text-anchor="start" x="87.5" y="-514.5" font-family="Helvetica,sans-Serif" font-size="10.00">+ readMultiBytes()</text>
<text text-anchor="start" x="87.5" y="-503.5" font-family="Helvetica,sans-Serif" font-size="10.00">+ writeWord()</text>
<text text-anchor="start" x="87.5" y="-492.5" font-family="Helvetica,sans-Serif" font-size="10.00">+ readByte()</text>
<text text-anchor="start" x="87.5" y="-481.5" font-family="Helvetica,sans-Serif" font-size="10.00">+ readWord()</text>
<text text-anchor="start" x="87.5" y="-470.5" font-family="Helvetica,sans-Serif" font-size="10.00">+ scan()</text>
<text text-anchor="start" x="87.5" y="-459.5" font-family="Helvetica,sans-Serif" font-size="10.00">+ slavePresent()</text>
<text text-anchor="start" x="87.5" y="-448.5" font-family="Helvetica,sans-Serif" font-size="10.00">+ getInstance()</text>
<text text-anchor="start" x="87.5" y="-437.5" font-family="Helvetica,sans-Serif" font-size="10.00">&#45; i2c()</text>
<text text-anchor="start" x="87.5" y="-426.5" font-family="Helvetica,sans-Serif" font-size="10.00">&#45; word2bytes()</text>
<text text-anchor="start" x="87.5" y="-415.5" font-family="Helvetica,sans-Serif" font-size="10.00">&#45; bytes2word()</text>
</a>
</g>
</g>
<!-- Node3&#45;&gt;Node5 -->
<g id="edge5" class="edge">
<title>Node3&#45;&gt;Node5</title>
<path fill="none" stroke="#404040" d="M54.64,-656.35C62.16,-642.27 71.07,-625.59 80.18,-608.53"/>
<polygon fill="none" stroke="#404040" points="80.22,-608.46 79.51,-601.28 85.87,-597.87 86.57,-605.05 80.22,-608.46"/>
<text text-anchor="middle" x="91.5" y="-630" font-family="Helvetica,sans-Serif" font-size="10.00"> &#45;m_conf</text>
</g>
<!-- Node4 -->
<g id="node4" class="node">
<title>Node4</title>
<g id="a_node4"><a xlink:href="../../d3/d68/classi2c__esp32.html" target="_top" xlink:title=" ">
<polygon fill="none" stroke="black" points="210.5,-397.5 210.5,-608.5 343.5,-608.5 343.5,-397.5 210.5,-397.5"/>
<text text-anchor="middle" x="277" y="-596.5" font-family="Helvetica,sans-Serif" font-size="10.00">i2c_esp32</text>
<polyline fill="none" stroke="black" points="210.5,-589.5 343.5,-589.5 "/>
<text text-anchor="middle" x="277" y="-577.5" font-family="Helvetica,sans-Serif" font-size="10.00"> </text>
<polyline fill="none" stroke="black" points="210.5,-570.5 343.5,-570.5 "/>
<text text-anchor="start" x="218.5" y="-558.5" font-family="Helvetica,sans-Serif" font-size="10.00">+ i2c_esp32()</text>
<text text-anchor="start" x="218.5" y="-547.5" font-family="Helvetica,sans-Serif" font-size="10.00">+ ~i2c_esp32()</text>
<text text-anchor="start" x="218.5" y="-536.5" font-family="Helvetica,sans-Serif" font-size="10.00">+ slavePresent()</text>
<text text-anchor="start" x="218.5" y="-525.5" font-family="Helvetica,sans-Serif" font-size="10.00">+ writeByte()</text>
<text text-anchor="start" x="218.5" y="-514.5" font-family="Helvetica,sans-Serif" font-size="10.00">+ writeMultiBytes()</text>
<text text-anchor="start" x="218.5" y="-503.5" font-family="Helvetica,sans-Serif" font-size="10.00">+ readByte()</text>
<text text-anchor="start" x="218.5" y="-492.5" font-family="Helvetica,sans-Serif" font-size="10.00">+ readMultiBytes()</text>
<text text-anchor="start" x="218.5" y="-481.5" font-family="Helvetica,sans-Serif" font-size="10.00">&#45; initialize_transaction()</text>
<text text-anchor="start" x="218.5" y="-470.5" font-family="Helvetica,sans-Serif" font-size="10.00">&#45; insert_start_bit()</text>
<text text-anchor="start" x="218.5" y="-459.5" font-family="Helvetica,sans-Serif" font-size="10.00">&#45; insert_write_byte()</text>
<text text-anchor="start" x="218.5" y="-448.5" font-family="Helvetica,sans-Serif" font-size="10.00">&#45; insert_write_bytes()</text>
<text text-anchor="start" x="218.5" y="-437.5" font-family="Helvetica,sans-Serif" font-size="10.00">&#45; insert_read_byte()</text>
<text text-anchor="start" x="218.5" y="-426.5" font-family="Helvetica,sans-Serif" font-size="10.00">&#45; insert_read_bytes()</text>
<text text-anchor="start" x="218.5" y="-415.5" font-family="Helvetica,sans-Serif" font-size="10.00">&#45; insert_stop_bit()</text>
<text text-anchor="start" x="218.5" y="-404.5" font-family="Helvetica,sans-Serif" font-size="10.00">&#45; execute_transaction()</text>
</a>
</g>
</g>
<!-- Node4&#45;&gt;Node2 -->
<g id="edge3" class="edge">
<title>Node4&#45;&gt;Node2</title>
<path fill="none" stroke="#404040" d="M230.75,-397.18C225.67,-387.19 220.39,-377.32 215,-368 210.18,-359.65 204.9,-351.14 199.44,-342.72"/>
<polygon fill="none" stroke="#404040" points="199.31,-342.54 192.67,-339.74 192.7,-332.53 199.34,-335.32 199.31,-342.54"/>
<text text-anchor="middle" x="238.5" y="-371" font-family="Helvetica,sans-Serif" font-size="10.00"> &#45;m_hal</text>
</g>
<!-- Node5&#45;&gt;Node2 -->
<g id="edge4" class="edge">
<title>Node5&#45;&gt;Node2</title>
<path fill="none" stroke="orange" d="M136,-397.89C136,-381.94 136,-365.56 136,-349.85"/>
<polygon fill="orange" stroke="orange" points="132.5,-398.3 136,-408.3 139.5,-398.3 132.5,-398.3"/>
<text text-anchor="middle" x="173.5" y="-371" font-family="Helvetica,sans-Serif" font-size="10.00"> &lt; i2c_esp32 &gt;</text>
</g>
</g>
</svg>
        <g id="navigator" transform="translate(0 0)" fill="#404254">
                <rect fill="#f2f5e9" fill-opacity="0.5" stroke="#606060" stroke-width=".5" x="0" y="0" width="60" height="60"/>
                <use id="zoomplus" xlink:href="#zoomPlus" x="17" y="9" onmousedown="handleZoom(evt,'in')"/>
                <use id="zoomminus" xlink:href="#zoomMin" x="42" y="9" onmousedown="handleZoom(evt,'out')"/>
                <use id="reset" xlink:href="#resetDef" x="30" y="36" onmousedown="handleReset()"/>
                <g id="arrowUp" xlink:href="#dirArrow" transform="translate(30 24)" onmousedown="handlePan(0,-1)">
                  <use xlink:href="#rim" fill="#404040">
                        <set attributeName="fill" to="#808080" begin="arrowUp.mouseover" end="arrowUp.mouseout"/>
                  </use>
                  <path fill="none" stroke="white" stroke-width="1.5" d="M0,-3.0v7 M-2.5,-0.5L0,-3.0L2.5,-0.5"/>
                </g>
                <g id="arrowRight" xlink:href="#dirArrow" transform="rotate(90) translate(36 -43)" onmousedown="handlePan(1,0)">
                  <use xlink:href="#rim" fill="#404040">
                        <set attributeName="fill" to="#808080" begin="arrowRight.mouseover" end="arrowRight.mouseout"/>
                  </use>
                  <path fill="none" stroke="white" stroke-width="1.5" d="M0,-3.0v7 M-2.5,-0.5L0,-3.0L2.5,-0.5"/>
                </g>
                <g id="arrowDown" xlink:href="#dirArrow" transform="rotate(180) translate(-30 -48)" onmousedown="handlePan(0,1)">
                  <use xlink:href="#rim" fill="#404040">
                        <set attributeName="fill" to="#808080" begin="arrowDown.mouseover" end="arrowDown.mouseout"/>
                  </use>
                  <path fill="none" stroke="white" stroke-width="1.5" d="M0,-3.0v7 M-2.5,-0.5L0,-3.0L2.5,-0.5"/>
                </g>
                <g id="arrowLeft" xlink:href="#dirArrow" transform="rotate(270) translate(-36 17)" onmousedown="handlePan(-1,0)">
                  <use xlink:href="#rim" fill="#404040">
                        <set attributeName="fill" to="#808080" begin="arrowLeft.mouseover" end="arrowLeft.mouseout"/>
                  </use>
                  <path fill="none" stroke="white" stroke-width="1.5" d="M0,-3.0v7 M-2.5,-0.5L0,-3.0L2.5,-0.5"/>
                </g>
        </g>
        <svg viewBox="0 0 15 15" width="100%" height="30px" preserveAspectRatio="xMaxYMin meet">
         <g id="arrow_out" transform="scale(0.3 0.3)">
          <a xlink:href="class_a_m2320___base__coll__graph_org.svg" target="_base">
           <rect id="button" ry="5" rx="5" y="6" x="6" height="38" width="38"
                fill="#f2f5e9" fill-opacity="0.5" stroke="#606060" stroke-width="1.0"/>
           <path id="arrow"
             d="M 11.500037,31.436501 C 11.940474,20.09759 22.043105,11.32322 32.158766,21.979434 L 37.068811,17.246167 C 37.068811,17.246167 37.088388,32 37.088388,32 L 22.160133,31.978069 C 22.160133,31.978069 26.997745,27.140456 26.997745,27.140456 C 18.528582,18.264221 13.291696,25.230495 11.500037,31.436501 z"
             style="fill:#404040;"/>
          </a>
         </g>
        </svg>
</svg>
