<?xml version="1.0" encoding="UTF-8" standalone="no"?>
<!DOCTYPE svg PUBLIC "-//W3C//DTD SVG 1.1//EN"
 "http://www.w3.org/Graphics/SVG/1.1/DTD/svg11.dtd">
<!-- Generated by graphviz version 2.43.0 (0)
 -->
<!-- Title: AM2320_Temperature Pages: 1 -->
<!--zoomable 916 -->
<svg id="main" version="1.1" xmlns="http://www.w3.org/2000/svg" xmlns:xlink="http://www.w3.org/1999/xlink" xml:space="preserve" onload="init(evt)">
<style type="text/css"><![CDATA[
.edge:hover path { stroke: red; }
.edge:hover polygon { stroke: red; fill: red; }
]]></style>
<script type="text/javascript"><![CDATA[
var edges = document.getElementsByTagName('g');
if (edges && edges.length) {
  for (var i=0;i<edges.length;i++) {
    if (edges[i].id.substr(0,4)=='edge') {
      edges[i].setAttribute('class','edge');
    }
  }
}
]]></script>
        <defs>
                <circle id="rim" cx="0" cy="0" r="7"/>
                <circle id="rim2" cx="0" cy="0" r="3.5"/>
                <g id="zoomPlus">
                        <use xlink:href="#rim" fill="#404040">
                                <set attributeName="fill" to="#808080" begin="zoomplus.mouseover" end="zoomplus.mouseout"/>
                        </use>
                        <path d="M-4,0h8M0,-4v8" fill="none" stroke="white" stroke-width="1.5" pointer-events="none"/>
                </g>
                <g id="zoomMin">
                        <use xlink:href="#rim" fill="#404040">
                                <set attributeName="fill" to="#808080" begin="zoomminus.mouseover" end="zoomminus.mouseout"/>
                        </use>
                        <path d="M-4,0h8" fill="none" stroke="white" stroke-width="1.5" pointer-events="none"/>
                </g>
                <g id="dirArrow">
                        <path fill="none" stroke="white" stroke-width="1.5" d="M0,-3.0v7 M-2.5,-0.5L0,-3.0L2.5,-0.5"/>
                </g>
               <g id="resetDef">
                       <use xlink:href="#rim2" fill="#404040">
                               <set attributeName="fill" to="#808080" begin="reset.mouseover" end="reset.mouseout"/>
                       </use>
               </g>
        </defs>

<script type="text/javascript">
var viewWidth = 352;
var viewHeight = 916;
var sectionId = 'dynsection-1';
</script>
<script xlink:href="../../svgpan.js"/>
<svg id="graph" class="graph">
<g id="viewport">
<title>AM2320_Temperature</title>
<!-- Node1 -->
<g id="node1" class="node">
<title>Node1</title>
<g id="a_node1"><a xlink:title=" ">
<polygon fill="#bfbfbf" stroke="black" points="61,-0.5 61,-79.5 211,-79.5 211,-0.5 61,-0.5"/>
<text text-anchor="middle" x="136" y="-67.5" font-family="Helvetica,sans-Serif" font-size="10.00">AM2320_Temperature</text>
<polyline fill="none" stroke="black" points="61,-60.5 211,-60.5 "/>
<text text-anchor="middle" x="136" y="-48.5" font-family="Helvetica,sans-Serif" font-size="10.00"> </text>
<polyline fill="none" stroke="black" points="61,-41.5 211,-41.5 "/>
<text text-anchor="start" x="69" y="-29.5" font-family="Helvetica,sans-Serif" font-size="10.00">+ AM2320_Temperature()</text>
<text text-anchor="start" x="69" y="-18.5" font-family="Helvetica,sans-Serif" font-size="10.00">+ ~AM2320_Temperature()</text>
<text text-anchor="start" x="69" y="-7.5" font-family="Helvetica,sans-Serif" font-size="10.00">&#45; getRaw()</text>
</a>
</g>
</g>
<!-- Node2 -->
<g id="node2" class="node">
<title>Node2</title>
<g id="a_node2"><a xlink:href="../../d6/db1/class_a_m2320___base.html" target="_top" xlink:title=" ">
<polygon fill="none" stroke="black" points="41,-117.5 41,-251.5 231,-251.5 231,-117.5 41,-117.5"/>
<text text-anchor="middle" x="136" y="-239.5" font-family="Helvetica,sans-Serif" font-size="10.00">AM2320_Base</text>
<polyline fill="none" stroke="black" points="41,-232.5 231,-232.5 "/>
<text text-anchor="start" x="49" y="-220.5" font-family="Helvetica,sans-Serif" font-size="10.00"># m_address</text>
<text text-anchor="start" x="49" y="-209.5" font-family="Helvetica,sans-Serif" font-size="10.00"># FUNCTION_CODE_TEMPERATURE</text>
<text text-anchor="start" x="49" y="-198.5" font-family="Helvetica,sans-Serif" font-size="10.00"># FUNCTION_CODE_HUMIDITY</text>
<polyline fill="none" stroke="black" points="41,-191.5 231,-191.5 "/>
<text text-anchor="start" x="49" y="-179.5" font-family="Helvetica,sans-Serif" font-size="10.00">+ AM2320_Base()</text>
<text text-anchor="start" x="49" y="-168.5" font-family="Helvetica,sans-Serif" font-size="10.00">+ ~AM2320_Base()</text>
<text text-anchor="start" x="49" y="-157.5" font-family="Helvetica,sans-Serif" font-size="10.00">+ getMeasurement()</text>
<text text-anchor="start" x="49" y="-146.5" font-family="Helvetica,sans-Serif" font-size="10.00"># getRaw()</text>
<text text-anchor="start" x="49" y="-135.5" font-family="Helvetica,sans-Serif" font-size="10.00"># getSensorValue()</text>
<text text-anchor="start" x="49" y="-124.5" font-family="Helvetica,sans-Serif" font-size="10.00">&#45; wakeUp()</text>
</a>
</g>
</g>
<!-- Node2&#45;&gt;Node1 -->
<g id="edge1" class="edge">
<title>Node2&#45;&gt;Node1</title>
<path fill="none" stroke="midnightblue" d="M136,-107.05C136,-97.66 136,-88.38 136,-79.89"/>
<polygon fill="none" stroke="midnightblue" points="132.5,-107.26 136,-117.26 139.5,-107.26 132.5,-107.26"/>
</g>
<!-- Node3 -->
<g id="node3" class="node">
<title>Node3</title>
<g id="a_node3"><a xlink:href="../../da/d55/classi2c.html" target="_top" xlink:title=" ">
<polygon fill="none" stroke="black" points="79.5,-299.5 79.5,-510.5 192.5,-510.5 192.5,-299.5 79.5,-299.5"/>
<text text-anchor="middle" x="136" y="-498.5" font-family="Helvetica,sans-Serif" font-size="10.00">i2c&lt; i2c_esp32 &gt;</text>
<polyline fill="none" stroke="black" points="79.5,-491.5 192.5,-491.5 "/>
<text text-anchor="middle" x="136" y="-479.5" font-family="Helvetica,sans-Serif" font-size="10.00"> </text>
<polyline fill="none" stroke="black" points="79.5,-472.5 192.5,-472.5 "/>
<text text-anchor="start" x="87.5" y="-460.5" font-family="Helvetica,sans-Serif" font-size="10.00">+ ~i2c()</text>
<text text-anchor="start" x="87.5" y="-449.5" font-family="Helvetica,sans-Serif" font-size="10.00">+ writeByte()</text>
<text text-anchor="start" x="87.5" y="-438.5" font-family="Helvetica,sans-Serif" font-size="10.00">+ writeMultiBytes()</text>
<text text-anchor="start" x="87.5" y="-427.5" font-family="Helvetica,sans-Serif" font-size="10.00">+ readMultiBytes()</text>
<text text-anchor="start" x="87.5" y="-416.5" font-family="Helvetica,sans-Serif" font-size="10.00">+ readMultiBytes()</text>
<text text-anchor="start" x="87.5" y="-405.5" font-family="Helvetica,sans-Serif" font-size="10.00">+ writeWord()</text>
<text text-anchor="start" x="87.5" y="-394.5" font-family="Helvetica,sans-Serif" font-size="10.00">+ readByte()</text>
<text text-anchor="start" x="87.5" y="-383.5" font-family="Helvetica,sans-Serif" font-size="10.00">+ readWord()</text>
<text text-anchor="start" x="87.5" y="-372.5" font-family="Helvetica,sans-Serif" font-size="10.00">+ readWord()</text>
<text text-anchor="start" x="87.5" y="-361.5" font-family="Helvetica,sans-Serif" font-size="10.00">+ scan()</text>
<text text-anchor="start" x="87.5" y="-350.5" font-family="Helvetica,sans-Serif" font-size="10.00">+ slavePresent()</text>
<text text-anchor="start" x="87.5" y="-339.5" font-family="Helvetica,sans-Serif" font-size="10.00">+ getInstance()</text>
<text text-anchor="start" x="87.5" y="-328.5" font-family="Helvetica,sans-Serif" font-size="10.00">&#45; i2c()</text>
<text text-anchor="start" x="87.5" y="-317.5" font-family="Helvetica,sans-Serif" font-size="10.00">&#45; word2bytes()</text>
<text text-anchor="start" x="87.5" y="-306.5" font-family="Helvetica,sans-Serif" font-size="10.00">&#45; bytes2word()</text>
</a>
</g>
</g>
<!-- Node3&#45;&gt;Node2 -->
<g id="edge2" class="edge">
<title>Node3&#45;&gt;Node2</title>
<path fill="none" stroke="#404040" d="M136,-299.23C136,-287.33 136,-275.35 136,-263.87"/>
<polygon fill="none" stroke="#404040" points="136,-263.64 132,-257.64 136,-251.64 140,-257.64 136,-263.64"/>
<text text-anchor="middle" x="156.5" y="-273" font-family="Helvetica,sans-Serif" font-size="10.00"> #m_i2c</text>
</g>
<!-- Node4 -->
<g id="node4" class="node">
<title>Node4</title>
<g id="a_node4"><a xlink:href="../../d9/ddd/i2c__common_8hpp.html#db/dd0/structi2c__conf__t" target="_top" xlink:title=" ">
<polygon fill="none" stroke="black" points="0,-828.5 0,-907.5 68,-907.5 68,-828.5 0,-828.5"/>
<text text-anchor="middle" x="34" y="-895.5" font-family="Helvetica,sans-Serif" font-size="10.00">i2c_conf_t</text>
<polyline fill="none" stroke="black" points="0,-888.5 68,-888.5 "/>
<text text-anchor="start" x="8" y="-876.5" font-family="Helvetica,sans-Serif" font-size="10.00">+ speed</text>
<text text-anchor="start" x="8" y="-865.5" font-family="Helvetica,sans-Serif" font-size="10.00">+ pin_sda</text>
<text text-anchor="start" x="8" y="-854.5" font-family="Helvetica,sans-Serif" font-size="10.00">+ pin_sclk</text>
<polyline fill="none" stroke="black" points="0,-847.5 68,-847.5 "/>
<text text-anchor="middle" x="34" y="-835.5" font-family="Helvetica,sans-Serif" font-size="10.00"> </text>
</a>
</g>
</g>
<!-- Node4&#45;&gt;Node3 -->
<g id="edge3" class="edge">
<title>Node4&#45;&gt;Node3</title>
<path fill="none" stroke="#404040" d="M25.19,-828.27C13.35,-768.57 -2.97,-651.23 27,-558 36.39,-528.79 53.7,-500.44 71.8,-476.29"/>
<polygon fill="none" stroke="#404040" points="71.98,-476.06 72.47,-468.86 79.3,-466.55 78.81,-473.75 71.98,-476.06"/>
<text text-anchor="middle" x="48.5" y="-667" font-family="Helvetica,sans-Serif" font-size="10.00"> &#45;m_conf</text>
</g>
<!-- Node6 -->
<g id="node6" class="node">
<title>Node6</title>
<g id="a_node6"><a xlink:href="../../da/d55/classi2c.html" target="_top" xlink:title=" ">
<polygon fill="none" stroke="black" points="79.5,-564 79.5,-775 192.5,-775 192.5,-564 79.5,-564"/>
<text text-anchor="middle" x="136" y="-763" font-family="Helvetica,sans-Serif" font-size="10.00">i2c&lt; i2c_class &gt;</text>
<polyline fill="none" stroke="black" points="79.5,-756 192.5,-756 "/>
<text text-anchor="start" x="87.5" y="-744" font-family="Helvetica,sans-Serif" font-size="10.00">&#45; m_hal</text>
<polyline fill="none" stroke="black" points="79.5,-737 192.5,-737 "/>
<text text-anchor="start" x="87.5" y="-725" font-family="Helvetica,sans-Serif" font-size="10.00">+ ~i2c()</text>
<text text-anchor="start" x="87.5" y="-714" font-family="Helvetica,sans-Serif" font-size="10.00">+ writeByte()</text>
<text text-anchor="start" x="87.5" y="-703" font-family="Helvetica,sans-Serif" font-size="10.00">+ writeMultiBytes()</text>
<text text-anchor="start" x="87.5" y="-692" font-family="Helvetica,sans-Serif" font-size="10.00">+ readMultiBytes()</text>
<text text-anchor="start" x="87.5" y="-681" font-family="Helvetica,sans-Serif" font-size="10.00">+ readMultiBytes()</text>
<text text-anchor="start" x="87.5" y="-670" font-family="Helvetica,sans-Serif" font-size="10.00">+ writeWord()</text>
<text text-anchor="start" x="87.5" y="-659" font-family="Helvetica,sans-Serif" font-size="10.00">+ readByte()</text>
<text text-anchor="start" x="87.5" y="-648" font-family="Helvetica,sans-Serif" font-size="10.00">+ readWord()</text>
<text text-anchor="start" x="87.5" y="-637" font-family="Helvetica,sans-Serif" font-size="10.00">+ readWord()</text>
<text text-anchor="start" x="87.5" y="-626" font-family="Helvetica,sans-Serif" font-size="10.00">+ scan()</text>
<text text-anchor="start" x="87.5" y="-615" font-family="Helvetica,sans-Serif" font-size="10.00">+ slavePresent()</text>
<text text-anchor="start" x="87.5" y="-604" font-family="Helvetica,sans-Serif" font-size="10.00">+ getInstance()</text>
<text text-anchor="start" x="87.5" y="-593" font-family="Helvetica,sans-Serif" font-size="10.00">&#45; i2c()</text>
<text text-anchor="start" x="87.5" y="-582" font-family="Helvetica,sans-Serif" font-size="10.00">&#45; word2bytes()</text>
<text text-anchor="start" x="87.5" y="-571" font-family="Helvetica,sans-Serif" font-size="10.00">&#45; bytes2word()</text>
</a>
</g>
</g>
<!-- Node4&#45;&gt;Node6 -->
<g id="edge6" class="edge">
<title>Node4&#45;&gt;Node6</title>
<path fill="none" stroke="#404040" d="M54.15,-828.18C60.6,-815.76 68.1,-801.31 75.89,-786.29"/>
<polygon fill="none" stroke="#404040" points="76.08,-785.93 75.3,-778.76 81.61,-775.28 82.4,-782.45 76.08,-785.93"/>
<text text-anchor="middle" x="88.5" y="-802" font-family="Helvetica,sans-Serif" font-size="10.00"> &#45;m_conf</text>
</g>
<!-- Node5 -->
<g id="node5" class="node">
<title>Node5</title>
<g id="a_node5"><a xlink:href="../../d3/d68/classi2c__esp32.html" target="_top" xlink:title=" ">
<polygon fill="none" stroke="black" points="210.5,-558.5 210.5,-780.5 343.5,-780.5 343.5,-558.5 210.5,-558.5"/>
<text text-anchor="middle" x="277" y="-768.5" font-family="Helvetica,sans-Serif" font-size="10.00">i2c_esp32</text>
<polyline fill="none" stroke="black" points="210.5,-761.5 343.5,-761.5 "/>
<text text-anchor="middle" x="277" y="-749.5" font-family="Helvetica,sans-Serif" font-size="10.00"> </text>
<polyline fill="none" stroke="black" points="210.5,-742.5 343.5,-742.5 "/>
<text text-anchor="start" x="218.5" y="-730.5" font-family="Helvetica,sans-Serif" font-size="10.00">+ i2c_esp32()</text>
<text text-anchor="start" x="218.5" y="-719.5" font-family="Helvetica,sans-Serif" font-size="10.00">+ ~i2c_esp32()</text>
<text text-anchor="start" x="218.5" y="-708.5" font-family="Helvetica,sans-Serif" font-size="10.00">+ slavePresent()</text>
<text text-anchor="start" x="218.5" y="-697.5" font-family="Helvetica,sans-Serif" font-size="10.00">+ writeByte()</text>
<text text-anchor="start" x="218.5" y="-686.5" font-family="Helvetica,sans-Serif" font-size="10.00">+ writeMultiBytes()</text>
<text text-anchor="start" x="218.5" y="-675.5" font-family="Helvetica,sans-Serif" font-size="10.00">+ readByte()</text>
<text text-anchor="start" x="218.5" y="-664.5" font-family="Helvetica,sans-Serif" font-size="10.00">+ readMultiBytes()</text>
<text text-anchor="start" x="218.5" y="-653.5" font-family="Helvetica,sans-Serif" font-size="10.00">+ readMultiBytes()</text>
<text text-anchor="start" x="218.5" y="-642.5" font-family="Helvetica,sans-Serif" font-size="10.00">&#45; initialize_transaction()</text>
<text text-anchor="start" x="218.5" y="-631.5" font-family="Helvetica,sans-Serif" font-size="10.00">&#45; insert_start_bit()</text>
<text text-anchor="start" x="218.5" y="-620.5" font-family="Helvetica,sans-Serif" font-size="10.00">&#45; insert_write_byte()</text>
<text text-anchor="start" x="218.5" y="-609.5" font-family="Helvetica,sans-Serif" font-size="10.00">&#45; insert_write_bytes()</text>
<text text-anchor="start" x="218.5" y="-598.5" font-family="Helvetica,sans-Serif" font-size="10.00">&#45; insert_read_byte()</text>
<text text-anchor="start" x="218.5" y="-587.5" font-family="Helvetica,sans-Serif" font-size="10.00">&#45; insert_read_bytes()</text>
<text text-anchor="start" x="218.5" y="-576.5" font-family="Helvetica,sans-Serif" font-size="10.00">&#45; insert_stop_bit()</text>
<text text-anchor="start" x="218.5" y="-565.5" font-family="Helvetica,sans-Serif" font-size="10.00">&#45; execute_transaction()</text>
</a>
</g>
</g>
<!-- Node5&#45;&gt;Node3 -->
<g id="edge4" class="edge">
<title>Node5&#45;&gt;Node3</title>
<path fill="none" stroke="#404040" d="M230,-558.45C225.13,-548.4 220.09,-538.45 215,-529 210.01,-519.75 204.57,-510.27 198.95,-500.88"/>
<polygon fill="none" stroke="#404040" points="198.78,-500.6 192.24,-497.54 192.55,-490.34 199.08,-493.39 198.78,-500.6"/>
<text text-anchor="middle" x="238.5" y="-532" font-family="Helvetica,sans-Serif" font-size="10.00"> &#45;m_hal</text>
</g>
<!-- Node6&#45;&gt;Node3 -->
<g id="edge5" class="edge">
<title>Node6&#45;&gt;Node3</title>
<path fill="none" stroke="orange" d="M136,-553.63C136,-539.31 136,-524.72 136,-510.57"/>
<polygon fill="orange" stroke="orange" points="132.5,-554 136,-564 139.5,-554 132.5,-554"/>
<text text-anchor="middle" x="173.5" y="-532" font-family="Helvetica,sans-Serif" font-size="10.00"> &lt; i2c_esp32 &gt;</text>
</g>
</g>
</svg>
        <g id="navigator" transform="translate(0 0)" fill="#404254">
                <rect fill="#f2f5e9" fill-opacity="0.5" stroke="#606060" stroke-width=".5" x="0" y="0" width="60" height="60"/>
                <use id="zoomplus" xlink:href="#zoomPlus" x="17" y="9" onmousedown="handleZoom(evt,'in')"/>
                <use id="zoomminus" xlink:href="#zoomMin" x="42" y="9" onmousedown="handleZoom(evt,'out')"/>
                <use id="reset" xlink:href="#resetDef" x="30" y="36" onmousedown="handleReset()"/>
                <g id="arrowUp" xlink:href="#dirArrow" transform="translate(30 24)" onmousedown="handlePan(0,-1)">
                  <use xlink:href="#rim" fill="#404040">
                        <set attributeName="fill" to="#808080" begin="arrowUp.mouseover" end="arrowUp.mouseout"/>
                  </use>
                  <path fill="none" stroke="white" stroke-width="1.5" d="M0,-3.0v7 M-2.5,-0.5L0,-3.0L2.5,-0.5"/>
                </g>
                <g id="arrowRight" xlink:href="#dirArrow" transform="rotate(90) translate(36 -43)" onmousedown="handlePan(1,0)">
                  <use xlink:href="#rim" fill="#404040">
                        <set attributeName="fill" to="#808080" begin="arrowRight.mouseover" end="arrowRight.mouseout"/>
                  </use>
                  <path fill="none" stroke="white" stroke-width="1.5" d="M0,-3.0v7 M-2.5,-0.5L0,-3.0L2.5,-0.5"/>
                </g>
                <g id="arrowDown" xlink:href="#dirArrow" transform="rotate(180) translate(-30 -48)" onmousedown="handlePan(0,1)">
                  <use xlink:href="#rim" fill="#404040">
                        <set attributeName="fill" to="#808080" begin="arrowDown.mouseover" end="arrowDown.mouseout"/>
                  </use>
                  <path fill="none" stroke="white" stroke-width="1.5" d="M0,-3.0v7 M-2.5,-0.5L0,-3.0L2.5,-0.5"/>
                </g>
                <g id="arrowLeft" xlink:href="#dirArrow" transform="rotate(270) translate(-36 17)" onmousedown="handlePan(-1,0)">
                  <use xlink:href="#rim" fill="#404040">
                        <set attributeName="fill" to="#808080" begin="arrowLeft.mouseover" end="arrowLeft.mouseout"/>
                  </use>
                  <path fill="none" stroke="white" stroke-width="1.5" d="M0,-3.0v7 M-2.5,-0.5L0,-3.0L2.5,-0.5"/>
                </g>
        </g>
        <svg viewBox="0 0 15 15" width="100%" height="30px" preserveAspectRatio="xMaxYMin meet">
         <g id="arrow_out" transform="scale(0.3 0.3)">
          <a xlink:href="class_a_m2320___temperature__coll__graph_org.svg" target="_base">
           <rect id="button" ry="5" rx="5" y="6" x="6" height="38" width="38"
                fill="#f2f5e9" fill-opacity="0.5" stroke="#606060" stroke-width="1.0"/>
           <path id="arrow"
             d="M 11.500037,31.436501 C 11.940474,20.09759 22.043105,11.32322 32.158766,21.979434 L 37.068811,17.246167 C 37.068811,17.246167 37.088388,32 37.088388,32 L 22.160133,31.978069 C 22.160133,31.978069 26.997745,27.140456 26.997745,27.140456 C 18.528582,18.264221 13.291696,25.230495 11.500037,31.436501 z"
             style="fill:#404040;"/>
          </a>
         </g>
        </svg>
</svg>
