<?xml version="1.0" encoding="UTF-8" standalone="no"?>
<!DOCTYPE svg PUBLIC "-//W3C//DTD SVG 1.1//EN"
 "http://www.w3.org/Graphics/SVG/1.1/DTD/svg11.dtd">
<!-- Generated by graphviz version 2.43.0 (0)
 -->
<!-- Title: ADC_API_ESP32 Pages: 1 -->
<svg width="400pt" height="915pt"
 viewBox="0.00 0.00 400.00 915.00" xmlns="http://www.w3.org/2000/svg" xmlns:xlink="http://www.w3.org/1999/xlink">
<g id="graph0" class="graph" transform="scale(1 1) rotate(0) translate(4 911)">
<title>ADC_API_ESP32</title>
<!-- Node1 -->
<g id="node1" class="node">
<title>Node1</title>
<g id="a_node1"><a xlink:title=" ">
<polygon fill="#bfbfbf" stroke="black" points="16.5,-0.5 16.5,-79.5 137.5,-79.5 137.5,-0.5 16.5,-0.5"/>
<text text-anchor="middle" x="77" y="-67.5" font-family="Helvetica,sans-Serif" font-size="10.00">ADC_API_ESP32</text>
<polyline fill="none" stroke="black" points="16.5,-60.5 137.5,-60.5 "/>
<text text-anchor="middle" x="77" y="-48.5" font-family="Helvetica,sans-Serif" font-size="10.00"> </text>
<polyline fill="none" stroke="black" points="16.5,-41.5 137.5,-41.5 "/>
<text text-anchor="start" x="24.5" y="-29.5" font-family="Helvetica,sans-Serif" font-size="10.00">+ ADC_API_ESP32()</text>
<text text-anchor="start" x="24.5" y="-18.5" font-family="Helvetica,sans-Serif" font-size="10.00">+ ~ADC_API_ESP32()</text>
<text text-anchor="start" x="24.5" y="-7.5" font-family="Helvetica,sans-Serif" font-size="10.00">+ measureValue()</text>
</a>
</g>
</g>
<!-- Node2 -->
<g id="node2" class="node">
<title>Node2</title>
<g id="a_node2"><a xlink:href="../../dc/d23/class_a_d_c_base.html" target="_top" xlink:title=" ">
<polygon fill="none" stroke="black" points="93,-117.5 93,-240.5 271,-240.5 271,-117.5 93,-117.5"/>
<text text-anchor="middle" x="182" y="-228.5" font-family="Helvetica,sans-Serif" font-size="10.00">ADCBase&lt; uint32_t &gt;</text>
<polyline fill="none" stroke="black" points="93,-221.5 271,-221.5 "/>
<text text-anchor="start" x="101" y="-209.5" font-family="Helvetica,sans-Serif" font-size="10.00"># m_number_of_samples</text>
<text text-anchor="start" x="101" y="-198.5" font-family="Helvetica,sans-Serif" font-size="10.00">&#45; minimum_number_of_samples</text>
<text text-anchor="start" x="101" y="-187.5" font-family="Helvetica,sans-Serif" font-size="10.00">&#45; maximum_number_of_samples</text>
<polyline fill="none" stroke="black" points="93,-180.5 271,-180.5 "/>
<text text-anchor="start" x="101" y="-168.5" font-family="Helvetica,sans-Serif" font-size="10.00">+ ADCBase()</text>
<text text-anchor="start" x="101" y="-157.5" font-family="Helvetica,sans-Serif" font-size="10.00">+ ~ADCBase()</text>
<text text-anchor="start" x="101" y="-146.5" font-family="Helvetica,sans-Serif" font-size="10.00">+ measureValue()</text>
<text text-anchor="start" x="101" y="-135.5" font-family="Helvetica,sans-Serif" font-size="10.00">+ setSampleNumber()</text>
<text text-anchor="start" x="101" y="-124.5" font-family="Helvetica,sans-Serif" font-size="10.00">+ getSampleNumber()</text>
</a>
</g>
</g>
<!-- Node2&#45;&gt;Node1 -->
<g id="edge1" class="edge">
<title>Node2&#45;&gt;Node1</title>
<path fill="none" stroke="midnightblue" d="M129.14,-109.03C121.41,-98.94 113.68,-88.86 106.64,-79.67"/>
<polygon fill="none" stroke="midnightblue" points="126.47,-111.3 135.33,-117.11 132.03,-107.05 126.47,-111.3"/>
</g>
<!-- Node3 -->
<g id="node3" class="node">
<title>Node3</title>
<g id="a_node3"><a xlink:href="../../dd/d84/class_fault___handler.html" target="_top" xlink:title=" ">
<polygon fill="none" stroke="black" points="135,-528.5 135,-673.5 257,-673.5 257,-528.5 135,-528.5"/>
<text text-anchor="middle" x="196" y="-661.5" font-family="Helvetica,sans-Serif" font-size="10.00">Fault_Handler</text>
<polyline fill="none" stroke="black" points="135,-654.5 257,-654.5 "/>
<text text-anchor="middle" x="196" y="-642.5" font-family="Helvetica,sans-Serif" font-size="10.00"> </text>
<polyline fill="none" stroke="black" points="135,-635.5 257,-635.5 "/>
<text text-anchor="start" x="143" y="-623.5" font-family="Helvetica,sans-Serif" font-size="10.00">+ Fault_Handler()</text>
<text text-anchor="start" x="143" y="-612.5" font-family="Helvetica,sans-Serif" font-size="10.00">+ ~Fault_Handler()</text>
<text text-anchor="start" x="143" y="-601.5" font-family="Helvetica,sans-Serif" font-size="10.00">+ handleFault()</text>
<text text-anchor="start" x="143" y="-590.5" font-family="Helvetica,sans-Serif" font-size="10.00">+ resetFaultCounter()</text>
<text text-anchor="start" x="143" y="-579.5" font-family="Helvetica,sans-Serif" font-size="10.00">&#45; countUp()</text>
<text text-anchor="start" x="143" y="-568.5" font-family="Helvetica,sans-Serif" font-size="10.00">&#45; handle()</text>
<text text-anchor="start" x="143" y="-557.5" font-family="Helvetica,sans-Serif" font-size="10.00">&#45; toString()</text>
<text text-anchor="start" x="143" y="-546.5" font-family="Helvetica,sans-Serif" font-size="10.00">&#45; severity2string()</text>
<text text-anchor="start" x="143" y="-535.5" font-family="Helvetica,sans-Serif" font-size="10.00">&#45; check_value()</text>
</a>
</g>
</g>
<!-- Node3&#45;&gt;Node2 -->
<g id="edge2" class="edge">
<title>Node3&#45;&gt;Node2</title>
<path fill="none" stroke="#404040" d="M257.16,-547.05C266.49,-535.84 274.75,-523.32 280,-510 316.18,-418.21 315.54,-380.04 280,-288 274.83,-274.62 267.16,-261.88 258.33,-250.14"/>
<polygon fill="none" stroke="#404040" points="258.15,-249.91 251.29,-247.71 250.68,-240.53 257.55,-242.73 258.15,-249.91"/>
<text text-anchor="middle" x="349" y="-347.5" font-family="Helvetica,sans-Serif" font-size="10.00"> #m_faulthanlder</text>
</g>
<!-- Node7 -->
<g id="node7" class="node">
<title>Node7</title>
<g id="a_node7"><a xlink:href="../../dc/d23/class_a_d_c_base.html" target="_top" xlink:title=" ">
<polygon fill="none" stroke="black" points="93,-288.5 93,-411.5 271,-411.5 271,-288.5 93,-288.5"/>
<text text-anchor="middle" x="182" y="-399.5" font-family="Helvetica,sans-Serif" font-size="10.00">ADCBase&lt; T &gt;</text>
<polyline fill="none" stroke="black" points="93,-392.5 271,-392.5 "/>
<text text-anchor="start" x="101" y="-380.5" font-family="Helvetica,sans-Serif" font-size="10.00"># m_number_of_samples</text>
<text text-anchor="start" x="101" y="-369.5" font-family="Helvetica,sans-Serif" font-size="10.00">&#45; minimum_number_of_samples</text>
<text text-anchor="start" x="101" y="-358.5" font-family="Helvetica,sans-Serif" font-size="10.00">&#45; maximum_number_of_samples</text>
<polyline fill="none" stroke="black" points="93,-351.5 271,-351.5 "/>
<text text-anchor="start" x="101" y="-339.5" font-family="Helvetica,sans-Serif" font-size="10.00">+ ADCBase()</text>
<text text-anchor="start" x="101" y="-328.5" font-family="Helvetica,sans-Serif" font-size="10.00">+ ~ADCBase()</text>
<text text-anchor="start" x="101" y="-317.5" font-family="Helvetica,sans-Serif" font-size="10.00">+ measureValue()</text>
<text text-anchor="start" x="101" y="-306.5" font-family="Helvetica,sans-Serif" font-size="10.00">+ setSampleNumber()</text>
<text text-anchor="start" x="101" y="-295.5" font-family="Helvetica,sans-Serif" font-size="10.00">+ getSampleNumber()</text>
</a>
</g>
</g>
<!-- Node3&#45;&gt;Node7 -->
<g id="edge7" class="edge">
<title>Node3&#45;&gt;Node7</title>
<path fill="none" stroke="#404040" d="M191.97,-528.31C190.13,-495.57 187.95,-456.85 186.1,-423.96"/>
<polygon fill="none" stroke="#404040" points="186.08,-423.64 181.75,-417.88 185.41,-411.66 189.74,-417.43 186.08,-423.64"/>
<text text-anchor="middle" x="233" y="-467.5" font-family="Helvetica,sans-Serif" font-size="10.00"> #m_faulthanlder</text>
</g>
<!-- Node4 -->
<g id="node4" class="node">
<title>Node4</title>
<g id="a_node4"><a xlink:title="STL class.">
<polygon fill="none" stroke="#bfbfbf" points="40.5,-732.5 40.5,-789.5 105.5,-789.5 105.5,-732.5 40.5,-732.5"/>
<text text-anchor="middle" x="73" y="-777.5" font-family="Helvetica,sans-Serif" font-size="10.00">std::string</text>
<polyline fill="none" stroke="#bfbfbf" points="40.5,-770.5 105.5,-770.5 "/>
<text text-anchor="middle" x="73" y="-758.5" font-family="Helvetica,sans-Serif" font-size="10.00"> </text>
<polyline fill="none" stroke="#bfbfbf" points="40.5,-751.5 105.5,-751.5 "/>
<text text-anchor="middle" x="73" y="-739.5" font-family="Helvetica,sans-Serif" font-size="10.00"> </text>
</a>
</g>
</g>
<!-- Node4&#45;&gt;Node3 -->
<g id="edge3" class="edge">
<title>Node4&#45;&gt;Node3</title>
<path fill="none" stroke="#404040" d="M94.42,-732.48C105.17,-718.68 118.8,-701.16 132.57,-683.48"/>
<polygon fill="none" stroke="#404040" points="132.84,-683.14 133.37,-675.95 140.21,-673.67 139.68,-680.86 132.84,-683.14"/>
<text text-anchor="middle" x="149" y="-695" font-family="Helvetica,sans-Serif" font-size="10.00"> &#45;m_name</text>
</g>
<!-- Node8 -->
<g id="node8" class="node">
<title>Node8</title>
<g id="a_node8"><a xlink:href="../../d4/d70/class_a_d_c___a_p_i___e_s_p32.html#d0/d55/struct_a_d_c___a_p_i___e_s_p32_1_1config" target="_top" xlink:title=" ">
<polygon fill="none" stroke="black" points="0,-430.5 0,-509.5 130,-509.5 130,-430.5 0,-430.5"/>
<text text-anchor="middle" x="65" y="-497.5" font-family="Helvetica,sans-Serif" font-size="10.00">ADC_API_ESP32::config</text>
<polyline fill="none" stroke="black" points="0,-490.5 130,-490.5 "/>
<text text-anchor="start" x="8" y="-478.5" font-family="Helvetica,sans-Serif" font-size="10.00">+ samples</text>
<text text-anchor="start" x="8" y="-467.5" font-family="Helvetica,sans-Serif" font-size="10.00">+ channel</text>
<text text-anchor="start" x="8" y="-456.5" font-family="Helvetica,sans-Serif" font-size="10.00">+ vRef</text>
<polyline fill="none" stroke="black" points="0,-449.5 130,-449.5 "/>
<text text-anchor="middle" x="65" y="-437.5" font-family="Helvetica,sans-Serif" font-size="10.00"> </text>
</a>
</g>
</g>
<!-- Node4&#45;&gt;Node8 -->
<g id="edge9" class="edge">
<title>Node4&#45;&gt;Node8</title>
<path fill="none" stroke="#404040" d="M72.23,-732.29C70.89,-683.78 68.1,-582.83 66.4,-521.59"/>
<polygon fill="none" stroke="#404040" points="66.4,-521.52 62.23,-515.63 66.07,-509.52 70.23,-515.41 66.4,-521.52"/>
<text text-anchor="middle" x="92" y="-695" font-family="Helvetica,sans-Serif" font-size="10.00"> +name</text>
</g>
<!-- Node5 -->
<g id="node5" class="node">
<title>Node5</title>
<g id="a_node5"><a xlink:title="STL class.">
<polygon fill="none" stroke="#bfbfbf" points="21,-838.5 21,-906.5 125,-906.5 125,-838.5 21,-838.5"/>
<text text-anchor="start" x="29" y="-894.5" font-family="Helvetica,sans-Serif" font-size="10.00">std::basic_string&lt;</text>
<text text-anchor="middle" x="73" y="-883.5" font-family="Helvetica,sans-Serif" font-size="10.00"> char &gt;</text>
<polyline fill="none" stroke="#bfbfbf" points="21,-876.5 125,-876.5 "/>
<text text-anchor="middle" x="73" y="-864.5" font-family="Helvetica,sans-Serif" font-size="10.00"> </text>
<polyline fill="none" stroke="#bfbfbf" points="21,-857.5 125,-857.5 "/>
<text text-anchor="middle" x="73" y="-845.5" font-family="Helvetica,sans-Serif" font-size="10.00"> </text>
</a>
</g>
</g>
<!-- Node5&#45;&gt;Node4 -->
<g id="edge4" class="edge">
<title>Node5&#45;&gt;Node4</title>
<path fill="none" stroke="midnightblue" d="M73,-828.16C73,-815.13 73,-801.21 73,-789.51"/>
<polygon fill="none" stroke="midnightblue" points="69.5,-828.35 73,-838.35 76.5,-828.35 69.5,-828.35"/>
</g>
<!-- Node6 -->
<g id="node6" class="node">
<title>Node6</title>
<g id="a_node6"><a xlink:href="../../dd/d84/class_fault___handler.html#da/dec/struct_fault___handler_1_1counters__t" target="_top" xlink:title=" ">
<polygon fill="none" stroke="black" points="130.5,-721.5 130.5,-800.5 271.5,-800.5 271.5,-721.5 130.5,-721.5"/>
<text text-anchor="middle" x="201" y="-788.5" font-family="Helvetica,sans-Serif" font-size="10.00">Fault_Handler::counters_t</text>
<polyline fill="none" stroke="black" points="130.5,-781.5 271.5,-781.5 "/>
<text text-anchor="start" x="138.5" y="-769.5" font-family="Helvetica,sans-Serif" font-size="10.00">+ low</text>
<text text-anchor="start" x="138.5" y="-758.5" font-family="Helvetica,sans-Serif" font-size="10.00">+ medium</text>
<text text-anchor="start" x="138.5" y="-747.5" font-family="Helvetica,sans-Serif" font-size="10.00">+ high</text>
<polyline fill="none" stroke="black" points="130.5,-740.5 271.5,-740.5 "/>
<text text-anchor="middle" x="201" y="-728.5" font-family="Helvetica,sans-Serif" font-size="10.00"> </text>
</a>
</g>
</g>
<!-- Node6&#45;&gt;Node3 -->
<g id="edge5" class="edge">
<title>Node6&#45;&gt;Node3</title>
<path fill="none" stroke="#404040" d="M199.78,-721.35C199.43,-710.52 199.05,-698.31 198.66,-685.94"/>
<polygon fill="none" stroke="#404040" points="198.64,-685.56 194.46,-679.69 198.26,-673.57 202.45,-679.44 198.64,-685.56"/>
<text text-anchor="middle" x="231" y="-695" font-family="Helvetica,sans-Serif" font-size="10.00"> &#45;m_counters</text>
</g>
<!-- Node7&#45;&gt;Node2 -->
<g id="edge6" class="edge">
<title>Node7&#45;&gt;Node2</title>
<path fill="none" stroke="orange" d="M182,-278.13C182,-265.68 182,-252.82 182,-240.68"/>
<polygon fill="orange" stroke="orange" points="178.5,-278.46 182,-288.46 185.5,-278.46 178.5,-278.46"/>
<text text-anchor="middle" x="215" y="-262" font-family="Helvetica,sans-Serif" font-size="10.00"> &lt; uint32_t &gt;</text>
</g>
<!-- Node8&#45;&gt;Node1 -->
<g id="edge8" class="edge">
<title>Node8&#45;&gt;Node1</title>
<path fill="none" stroke="#404040" d="M66.09,-430.26C68.26,-352.69 73.15,-178.34 75.58,-91.76"/>
<polygon fill="none" stroke="#404040" points="75.58,-91.64 71.75,-85.53 75.92,-79.65 79.75,-85.76 75.58,-91.64"/>
<text text-anchor="middle" x="92.5" y="-262" font-family="Helvetica,sans-Serif" font-size="10.00"> &#45;m_conf</text>
</g>
</g>
</svg>
