<?xml version="1.0" encoding="UTF-8" standalone="no"?>
<!DOCTYPE svg PUBLIC "-//W3C//DTD SVG 1.1//EN"
 "http://www.w3.org/Graphics/SVG/1.1/DTD/svg11.dtd">
<!-- Generated by graphviz version 2.43.0 (0)
 -->
<!-- Title: Components/Interfaces/SensorControllerBase/include/SensorControllerBase.hpp Pages: 1 -->
<!--zoomable 452 -->
<svg id="main" version="1.1" xmlns="http://www.w3.org/2000/svg" xmlns:xlink="http://www.w3.org/1999/xlink" xml:space="preserve" onload="init(evt)">
<style type="text/css"><![CDATA[
.edge:hover path { stroke: red; }
.edge:hover polygon { stroke: red; fill: red; }
]]></style>
<script type="text/javascript"><![CDATA[
var edges = document.getElementsByTagName('g');
if (edges && edges.length) {
  for (var i=0;i<edges.length;i++) {
    if (edges[i].id.substr(0,4)=='edge') {
      edges[i].setAttribute('class','edge');
    }
  }
}
]]></script>
        <defs>
                <circle id="rim" cx="0" cy="0" r="7"/>
                <circle id="rim2" cx="0" cy="0" r="3.5"/>
                <g id="zoomPlus">
                        <use xlink:href="#rim" fill="#404040">
                                <set attributeName="fill" to="#808080" begin="zoomplus.mouseover" end="zoomplus.mouseout"/>
                        </use>
                        <path d="M-4,0h8M0,-4v8" fill="none" stroke="white" stroke-width="1.5" pointer-events="none"/>
                </g>
                <g id="zoomMin">
                        <use xlink:href="#rim" fill="#404040">
                                <set attributeName="fill" to="#808080" begin="zoomminus.mouseover" end="zoomminus.mouseout"/>
                        </use>
                        <path d="M-4,0h8" fill="none" stroke="white" stroke-width="1.5" pointer-events="none"/>
                </g>
                <g id="dirArrow">
                        <path fill="none" stroke="white" stroke-width="1.5" d="M0,-3.0v7 M-2.5,-0.5L0,-3.0L2.5,-0.5"/>
                </g>
               <g id="resetDef">
                       <use xlink:href="#rim2" fill="#404040">
                               <set attributeName="fill" to="#808080" begin="reset.mouseover" end="reset.mouseout"/>
                       </use>
               </g>
        </defs>

<script type="text/javascript">
var viewWidth = 1364;
var viewHeight = 452;
var sectionId = 'dynsection-0';
</script>
<script xlink:href="../../svgpan.js"/>
<svg id="graph" class="graph">
<g id="viewport">
<title>Components/Interfaces/SensorControllerBase/include/SensorControllerBase.hpp</title>
<!-- Node1 -->
<g id="node1" class="node">
<title>Node1</title>
<g id="a_node1"><a xlink:title=" ">
<polygon fill="#bfbfbf" stroke="black" points="400,-402.5 400,-443.5 584,-443.5 584,-402.5 400,-402.5"/>
<text text-anchor="start" x="408" y="-431.5" font-family="Helvetica,sans-Serif" font-size="10.00">Components/Interfaces</text>
<text text-anchor="start" x="408" y="-420.5" font-family="Helvetica,sans-Serif" font-size="10.00">/SensorControllerBase</text>
<text text-anchor="middle" x="492" y="-409.5" font-family="Helvetica,sans-Serif" font-size="10.00">/include/SensorControllerBase.hpp</text>
</a>
</g>
</g>
<!-- Node2 -->
<g id="node2" class="node">
<title>Node2</title>
<g id="a_node2"><a xlink:href="../../da/d5f/_b_a_s_i_c_8hpp.html" target="_top" xlink:title=" ">
<polygon fill="none" stroke="black" points="232,-56.5 232,-86.5 348,-86.5 348,-56.5 232,-56.5"/>
<text text-anchor="start" x="240" y="-74.5" font-family="Helvetica,sans-Serif" font-size="10.00">../../../Global_Include</text>
<text text-anchor="middle" x="290" y="-63.5" font-family="Helvetica,sans-Serif" font-size="10.00">/BASIC.hpp</text>
</a>
</g>
</g>
<!-- Node1&#45;&gt;Node2 -->
<g id="edge1" class="edge">
<title>Node1&#45;&gt;Node2</title>
<path fill="none" stroke="midnightblue" d="M399.75,-414.12C257.29,-399.37 0,-361.34 0,-279 0,-279 0,-279 0,-204.5 0,-107.62 135.72,-81.52 221.47,-74.69"/>
<polygon fill="midnightblue" stroke="midnightblue" points="221.94,-78.17 231.66,-73.95 221.44,-71.19 221.94,-78.17"/>
</g>
<!-- Node3 -->
<g id="node3" class="node">
<title>Node3</title>
<g id="a_node3"><a xlink:href="../../d3/deb/_general___error_8hpp.html" target="_top" xlink:title=" ">
<polygon fill="none" stroke="black" points="483.5,-56.5 483.5,-86.5 628.5,-86.5 628.5,-56.5 483.5,-56.5"/>
<text text-anchor="start" x="491.5" y="-74.5" font-family="Helvetica,sans-Serif" font-size="10.00">../../../Objects/ErrorHandler</text>
<text text-anchor="middle" x="556" y="-63.5" font-family="Helvetica,sans-Serif" font-size="10.00">/include/General_Error.hpp</text>
</a>
</g>
</g>
<!-- Node1&#45;&gt;Node3 -->
<g id="edge2" class="edge">
<title>Node1&#45;&gt;Node3</title>
<path fill="none" stroke="midnightblue" d="M495.58,-402.46C506.53,-342.68 539.55,-162.34 551.57,-96.71"/>
<polygon fill="midnightblue" stroke="midnightblue" points="555.01,-97.33 553.37,-86.86 548.13,-96.07 555.01,-97.33"/>
</g>
<!-- Node5 -->
<g id="node5" class="node">
<title>Node5</title>
<g id="a_node5"><a xlink:title=" ">
<polygon fill="none" stroke="#bfbfbf" points="858,-0.5 858,-19.5 918,-19.5 918,-0.5 858,-0.5"/>
<text text-anchor="middle" x="888" y="-7.5" font-family="Helvetica,sans-Serif" font-size="10.00">iostream</text>
</a>
</g>
</g>
<!-- Node1&#45;&gt;Node5 -->
<g id="edge63" class="edge">
<title>Node1&#45;&gt;Node5</title>
<path fill="none" stroke="midnightblue" d="M584.25,-416.27C806.62,-401.24 1354,-356.37 1354,-279 1354,-279 1354,-279 1354,-137.5 1354,-100.31 1362.94,-80.55 1335,-56 1304.77,-29.43 1032.69,-16.45 928.42,-12.42"/>
<polygon fill="midnightblue" stroke="midnightblue" points="928.41,-8.92 918.28,-12.04 928.14,-15.91 928.41,-8.92"/>
</g>
<!-- Node6 -->
<g id="node6" class="node">
<title>Node6</title>
<g id="a_node6"><a xlink:href="../../d3/d0d/_error_code_parser_8hpp.html" target="_top" xlink:title=" ">
<polygon fill="none" stroke="black" points="169,-335.5 169,-365.5 325,-365.5 325,-335.5 169,-335.5"/>
<text text-anchor="start" x="177" y="-353.5" font-family="Helvetica,sans-Serif" font-size="10.00">../../../Objects/ErrorHandler</text>
<text text-anchor="middle" x="247" y="-342.5" font-family="Helvetica,sans-Serif" font-size="10.00">/include/ErrorCodeParser.hpp</text>
</a>
</g>
</g>
<!-- Node1&#45;&gt;Node6 -->
<g id="edge5" class="edge">
<title>Node1&#45;&gt;Node6</title>
<path fill="none" stroke="midnightblue" d="M424.08,-402.46C386.93,-391.77 341.36,-378.65 305.75,-368.41"/>
<polygon fill="midnightblue" stroke="midnightblue" points="306.57,-365 295.99,-365.6 304.63,-371.73 306.57,-365"/>
</g>
<!-- Node15 -->
<g id="node15" class="node">
<title>Node15</title>
<g id="a_node15"><a xlink:href="../../d4/d63/mqtt__api__v2_8hpp.html" target="_top" xlink:title=" ">
<polygon fill="none" stroke="black" points="180.5,-257.5 180.5,-298.5 313.5,-298.5 313.5,-257.5 180.5,-257.5"/>
<text text-anchor="start" x="188.5" y="-286.5" font-family="Helvetica,sans-Serif" font-size="10.00">../../../Protocols</text>
<text text-anchor="start" x="188.5" y="-275.5" font-family="Helvetica,sans-Serif" font-size="10.00">/MQTT/include/mqtt_api</text>
<text text-anchor="middle" x="247" y="-264.5" font-family="Helvetica,sans-Serif" font-size="10.00">_v2.hpp</text>
</a>
</g>
</g>
<!-- Node1&#45;&gt;Node15 -->
<g id="edge59" class="edge">
<title>Node1&#45;&gt;Node15</title>
<path fill="none" stroke="midnightblue" d="M458.45,-402.42C414.49,-376.76 337.39,-331.76 289.43,-303.77"/>
<polygon fill="midnightblue" stroke="midnightblue" points="290.94,-300.59 280.54,-298.58 287.41,-306.64 290.94,-300.59"/>
</g>
<!-- Node17 -->
<g id="node17" class="node">
<title>Node17</title>
<g id="a_node17"><a xlink:href="../../d5/dc5/_task_8h.html" target="_top" xlink:title=" ">
<polygon fill="none" stroke="black" points="104.5,-123.5 104.5,-153.5 223.5,-153.5 223.5,-123.5 104.5,-123.5"/>
<text text-anchor="start" x="112.5" y="-141.5" font-family="Helvetica,sans-Serif" font-size="10.00">../../../RTOS/FreeRTOS</text>
<text text-anchor="middle" x="164" y="-130.5" font-family="Helvetica,sans-Serif" font-size="10.00">/include/Task.h</text>
</a>
</g>
</g>
<!-- Node1&#45;&gt;Node17 -->
<g id="edge61" class="edge">
<title>Node1&#45;&gt;Node17</title>
<path fill="none" stroke="midnightblue" d="M399.69,-419.35C312.33,-414.66 190.19,-401.71 160,-366 110.88,-307.91 138.28,-208.29 154.6,-163.06"/>
<polygon fill="midnightblue" stroke="midnightblue" points="157.94,-164.12 158.17,-153.53 151.38,-161.67 157.94,-164.12"/>
</g>
<!-- Node18 -->
<g id="node18" class="node">
<title>Node18</title>
<g id="a_node18"><a xlink:href="../../d3/d1c/_free_r_t_o_s_8h.html" target="_top" xlink:title=" ">
<polygon fill="none" stroke="black" points="891.5,-190.5 891.5,-220.5 1010.5,-220.5 1010.5,-190.5 891.5,-190.5"/>
<text text-anchor="start" x="899.5" y="-208.5" font-family="Helvetica,sans-Serif" font-size="10.00">../../../RTOS/FreeRTOS</text>
<text text-anchor="middle" x="951" y="-197.5" font-family="Helvetica,sans-Serif" font-size="10.00">/include/FreeRTOS.h</text>
</a>
</g>
</g>
<!-- Node1&#45;&gt;Node18 -->
<g id="edge60" class="edge">
<title>Node1&#45;&gt;Node18</title>
<path fill="none" stroke="midnightblue" d="M584.33,-421.08C691.73,-418.07 860.32,-406.77 907,-366 946.05,-331.9 951.91,-266.61 951.97,-231.06"/>
<polygon fill="midnightblue" stroke="midnightblue" points="955.46,-230.58 951.82,-220.63 948.46,-230.68 955.46,-230.58"/>
</g>
<!-- Node19 -->
<g id="node19" class="node">
<title>Node19</title>
<g id="a_node19"><a xlink:title=" ">
<polygon fill="none" stroke="#bfbfbf" points="440,-196 440,-215 490,-215 490,-196 440,-196"/>
<text text-anchor="middle" x="465" y="-203" font-family="Helvetica,sans-Serif" font-size="10.00">atomic</text>
</a>
</g>
</g>
<!-- Node1&#45;&gt;Node19 -->
<g id="edge62" class="edge">
<title>Node1&#45;&gt;Node19</title>
<path fill="none" stroke="midnightblue" d="M490.02,-402.41C486.82,-371.47 480.17,-309.42 473,-257 471.55,-246.38 469.69,-234.54 468.12,-225"/>
<polygon fill="midnightblue" stroke="midnightblue" points="471.56,-224.35 466.47,-215.06 464.66,-225.5 471.56,-224.35"/>
</g>
<!-- Node20 -->
<g id="node20" class="node">
<title>Node20</title>
<g id="a_node20"><a xlink:href="../../d1/da7/_m_q_t_t___message_8hpp.html" target="_top" xlink:title=" ">
<polygon fill="none" stroke="black" points="710,-335.5 710,-365.5 898,-365.5 898,-335.5 710,-335.5"/>
<text text-anchor="start" x="718" y="-353.5" font-family="Helvetica,sans-Serif" font-size="10.00">../../../Protocols</text>
<text text-anchor="middle" x="804" y="-342.5" font-family="Helvetica,sans-Serif" font-size="10.00">/MQTT/include/MQTT_Message.hpp</text>
</a>
</g>
</g>
<!-- Node1&#45;&gt;Node20 -->
<g id="edge37" class="edge">
<title>Node1&#45;&gt;Node20</title>
<path fill="none" stroke="midnightblue" d="M578.5,-402.46C626.71,-391.56 686.07,-378.15 731.78,-367.82"/>
<polygon fill="midnightblue" stroke="midnightblue" points="732.63,-371.21 741.61,-365.6 731.09,-364.39 732.63,-371.21"/>
</g>
<!-- Node4 -->
<g id="node4" class="node">
<title>Node4</title>
<g id="a_node4"><a xlink:title=" ">
<polygon fill="none" stroke="#bfbfbf" points="534,-0.5 534,-19.5 578,-19.5 578,-0.5 534,-0.5"/>
<text text-anchor="middle" x="556" y="-7.5" font-family="Helvetica,sans-Serif" font-size="10.00">string</text>
</a>
</g>
</g>
<!-- Node3&#45;&gt;Node4 -->
<g id="edge3" class="edge">
<title>Node3&#45;&gt;Node4</title>
<path fill="none" stroke="midnightblue" d="M556,-56.4C556,-48.47 556,-38.46 556,-29.86"/>
<polygon fill="midnightblue" stroke="midnightblue" points="559.5,-29.66 556,-19.66 552.5,-29.66 559.5,-29.66"/>
</g>
<!-- Node3&#45;&gt;Node5 -->
<g id="edge4" class="edge">
<title>Node3&#45;&gt;Node5</title>
<path fill="none" stroke="midnightblue" d="M628.86,-57.44C696.1,-45.39 793.5,-27.94 847.72,-18.22"/>
<polygon fill="midnightblue" stroke="midnightblue" points="848.42,-21.65 857.64,-16.44 847.18,-14.76 848.42,-21.65"/>
</g>
<!-- Node6&#45;&gt;Node2 -->
<g id="edge6" class="edge">
<title>Node6&#45;&gt;Node2</title>
<path fill="none" stroke="midnightblue" d="M198.91,-335.47C178.14,-327.48 154.81,-315.66 138,-299 79.6,-241.12 30.14,-187.61 81,-123 98.38,-100.92 167.6,-87.35 221.67,-79.91"/>
<polygon fill="midnightblue" stroke="midnightblue" points="222.47,-83.33 231.92,-78.55 221.55,-76.39 222.47,-83.33"/>
</g>
<!-- Node6&#45;&gt;Node3 -->
<g id="edge7" class="edge">
<title>Node6&#45;&gt;Node3</title>
<path fill="none" stroke="midnightblue" d="M211.86,-335.45C196.39,-327.29 179.76,-315.34 171,-299 162.18,-282.55 159.74,-271.89 171,-257 206.38,-210.2 246.73,-249.53 298,-221 315.87,-211.06 315.08,-201.48 332,-190 362.27,-169.47 373.97,-171.66 406,-154 428.9,-141.38 433.2,-135.79 456,-123 475.88,-111.85 498.52,-100.32 517.22,-91.1"/>
<polygon fill="midnightblue" stroke="midnightblue" points="518.89,-94.18 526.33,-86.64 515.81,-87.89 518.89,-94.18"/>
</g>
<!-- Node6&#45;&gt;Node5 -->
<g id="edge36" class="edge">
<title>Node6&#45;&gt;Node5</title>
<path fill="none" stroke="midnightblue" d="M216.05,-335.36C198.49,-326.44 176.74,-313.82 160,-299 95.8,-242.17 35.1,-195.42 81,-123 118.36,-64.06 155.46,-73.55 223,-56 342.03,-25.07 721.84,-14.48 847.33,-11.78"/>
<polygon fill="midnightblue" stroke="midnightblue" points="847.71,-15.27 857.64,-11.56 847.57,-8.27 847.71,-15.27"/>
</g>
<!-- Node7 -->
<g id="node7" class="node">
<title>Node7</title>
<g id="a_node7"><a xlink:href="../../d5/d40/_database___i_d___base_8hpp.html" target="_top" xlink:title=" ">
<polygon fill="none" stroke="black" points="332,-263 332,-293 464,-293 464,-263 332,-263"/>
<text text-anchor="start" x="340" y="-281" font-family="Helvetica,sans-Serif" font-size="10.00">../../../Global_Include</text>
<text text-anchor="middle" x="398" y="-270" font-family="Helvetica,sans-Serif" font-size="10.00">/Database_ID_Base.hpp</text>
</a>
</g>
</g>
<!-- Node6&#45;&gt;Node7 -->
<g id="edge8" class="edge">
<title>Node6&#45;&gt;Node7</title>
<path fill="none" stroke="midnightblue" d="M277.19,-335.4C300.55,-324.5 333.08,-309.31 358.5,-297.44"/>
<polygon fill="midnightblue" stroke="midnightblue" points="360.28,-300.47 367.86,-293.07 357.32,-294.13 360.28,-300.47"/>
</g>
<!-- Node9 -->
<g id="node9" class="node">
<title>Node9</title>
<g id="a_node9"><a xlink:href="../../d7/d60/_timeservice_8hpp.html" target="_top" xlink:title=" ">
<polygon fill="none" stroke="black" points="668.5,-190.5 668.5,-220.5 811.5,-220.5 811.5,-190.5 668.5,-190.5"/>
<text text-anchor="start" x="676.5" y="-208.5" font-family="Helvetica,sans-Serif" font-size="10.00">../../../Objects/Timeservice</text>
<text text-anchor="middle" x="740" y="-197.5" font-family="Helvetica,sans-Serif" font-size="10.00">/include/Timeservice.hpp</text>
</a>
</g>
</g>
<!-- Node6&#45;&gt;Node9 -->
<g id="edge10" class="edge">
<title>Node6&#45;&gt;Node9</title>
<path fill="none" stroke="midnightblue" d="M325.24,-346.15C452.32,-339.99 692.34,-325.02 721,-299 739.71,-282.01 742.78,-251.95 742.26,-230.71"/>
<polygon fill="midnightblue" stroke="midnightblue" points="745.74,-230.33 741.72,-220.53 738.75,-230.7 745.74,-230.33"/>
</g>
<!-- Node6&#45;&gt;Node15 -->
<g id="edge20" class="edge">
<title>Node6&#45;&gt;Node15</title>
<path fill="none" stroke="midnightblue" d="M247,-335.23C247,-327.57 247,-317.84 247,-308.63"/>
<polygon fill="midnightblue" stroke="midnightblue" points="250.5,-308.59 247,-298.59 243.5,-308.59 250.5,-308.59"/>
</g>
<!-- Node8 -->
<g id="node8" class="node">
<title>Node8</title>
<g id="a_node8"><a xlink:title=" ">
<polygon fill="none" stroke="#bfbfbf" points="384,-196 384,-215 422,-215 422,-196 384,-196"/>
<text text-anchor="middle" x="403" y="-203" font-family="Helvetica,sans-Serif" font-size="10.00">map</text>
</a>
</g>
</g>
<!-- Node7&#45;&gt;Node8 -->
<g id="edge9" class="edge">
<title>Node7&#45;&gt;Node8</title>
<path fill="none" stroke="midnightblue" d="M399.01,-262.73C399.77,-252 400.82,-237.19 401.66,-225.46"/>
<polygon fill="midnightblue" stroke="midnightblue" points="405.15,-225.62 402.37,-215.39 398.17,-225.12 405.15,-225.62"/>
</g>
<!-- Node9&#45;&gt;Node2 -->
<g id="edge11" class="edge">
<title>Node9&#45;&gt;Node2</title>
<path fill="none" stroke="midnightblue" d="M692.27,-190.5C608.98,-166.07 437.45,-115.75 347.66,-89.41"/>
<polygon fill="midnightblue" stroke="midnightblue" points="348.5,-86.01 337.92,-86.56 346.53,-92.73 348.5,-86.01"/>
</g>
<!-- Node9&#45;&gt;Node3 -->
<g id="edge12" class="edge">
<title>Node9&#45;&gt;Node3</title>
<path fill="none" stroke="midnightblue" d="M685.07,-190.41C661.23,-182.43 634.02,-170.64 613,-154 593.24,-138.36 577.48,-114.06 567.59,-96.06"/>
<polygon fill="midnightblue" stroke="midnightblue" points="570.46,-94.01 562.7,-86.8 564.27,-97.28 570.46,-94.01"/>
</g>
<!-- Node10 -->
<g id="node10" class="node">
<title>Node10</title>
<g id="a_node10"><a xlink:href="../../d6/d4b/_r_t_c___h_a_l_8hpp.html" target="_top" xlink:title=" ">
<polygon fill="none" stroke="black" points="622,-129 622,-148 702,-148 702,-129 622,-129"/>
<text text-anchor="middle" x="662" y="-136" font-family="Helvetica,sans-Serif" font-size="10.00">RTC_HAL.hpp</text>
</a>
</g>
</g>
<!-- Node9&#45;&gt;Node10 -->
<g id="edge13" class="edge">
<title>Node9&#45;&gt;Node10</title>
<path fill="none" stroke="midnightblue" d="M723.08,-190.4C710.43,-179.86 693.17,-165.48 680.23,-154.69"/>
<polygon fill="midnightblue" stroke="midnightblue" points="682.36,-151.91 672.43,-148.19 677.88,-157.29 682.36,-151.91"/>
</g>
<!-- Node12 -->
<g id="node12" class="node">
<title>Node12</title>
<g id="a_node12"><a xlink:title=" ">
<polygon fill="none" stroke="#bfbfbf" points="720,-129 720,-148 770,-148 770,-129 720,-129"/>
<text text-anchor="middle" x="745" y="-136" font-family="Helvetica,sans-Serif" font-size="10.00">chrono</text>
</a>
</g>
</g>
<!-- Node9&#45;&gt;Node12 -->
<g id="edge17" class="edge">
<title>Node9&#45;&gt;Node12</title>
<path fill="none" stroke="midnightblue" d="M741.08,-190.4C741.81,-180.96 742.77,-168.45 743.56,-158.19"/>
<polygon fill="midnightblue" stroke="midnightblue" points="747.05,-158.43 744.33,-148.19 740.07,-157.9 747.05,-158.43"/>
</g>
<!-- Node13 -->
<g id="node13" class="node">
<title>Node13</title>
<g id="a_node13"><a xlink:title=" ">
<polygon fill="none" stroke="#bfbfbf" points="788,-129 788,-148 844,-148 844,-129 788,-129"/>
<text text-anchor="middle" x="816" y="-136" font-family="Helvetica,sans-Serif" font-size="10.00">iomanip</text>
</a>
</g>
</g>
<!-- Node9&#45;&gt;Node13 -->
<g id="edge18" class="edge">
<title>Node9&#45;&gt;Node13</title>
<path fill="none" stroke="midnightblue" d="M756.49,-190.4C768.69,-179.96 785.31,-165.75 797.88,-155"/>
<polygon fill="midnightblue" stroke="midnightblue" points="800.51,-157.35 805.83,-148.19 795.96,-152.03 800.51,-157.35"/>
</g>
<!-- Node14 -->
<g id="node14" class="node">
<title>Node14</title>
<g id="a_node14"><a xlink:title=" ">
<polygon fill="none" stroke="#bfbfbf" points="862,-129 862,-148 910,-148 910,-129 862,-129"/>
<text text-anchor="middle" x="886" y="-136" font-family="Helvetica,sans-Serif" font-size="10.00">thread</text>
</a>
</g>
</g>
<!-- Node9&#45;&gt;Node14 -->
<g id="edge19" class="edge">
<title>Node9&#45;&gt;Node14</title>
<path fill="none" stroke="midnightblue" d="M771.68,-190.4C797.3,-178.99 833.04,-163.08 857.7,-152.1"/>
<polygon fill="midnightblue" stroke="midnightblue" points="859.18,-155.27 866.89,-148.01 856.33,-148.88 859.18,-155.27"/>
</g>
<!-- Node10&#45;&gt;Node2 -->
<g id="edge14" class="edge">
<title>Node10&#45;&gt;Node2</title>
<path fill="none" stroke="midnightblue" d="M621.84,-130.48C558.73,-119.45 435.59,-97.94 358.35,-84.44"/>
<polygon fill="midnightblue" stroke="midnightblue" points="358.69,-80.95 348.24,-82.68 357.49,-87.85 358.69,-80.95"/>
</g>
<!-- Node10&#45;&gt;Node3 -->
<g id="edge15" class="edge">
<title>Node10&#45;&gt;Node3</title>
<path fill="none" stroke="midnightblue" d="M647.7,-128.73C632.41,-119.36 607.68,-104.19 587.74,-91.97"/>
<polygon fill="midnightblue" stroke="midnightblue" points="589.33,-88.83 578.98,-86.59 585.67,-94.8 589.33,-88.83"/>
</g>
<!-- Node11 -->
<g id="node11" class="node">
<title>Node11</title>
<g id="a_node11"><a xlink:title=" ">
<polygon fill="none" stroke="#bfbfbf" points="647,-62 647,-81 691,-81 691,-62 647,-62"/>
<text text-anchor="middle" x="669" y="-69" font-family="Helvetica,sans-Serif" font-size="10.00">ctime</text>
</a>
</g>
</g>
<!-- Node10&#45;&gt;Node11 -->
<g id="edge16" class="edge">
<title>Node10&#45;&gt;Node11</title>
<path fill="none" stroke="midnightblue" d="M662.94,-128.73C663.97,-119.18 665.65,-103.62 666.98,-91.28"/>
<polygon fill="midnightblue" stroke="midnightblue" points="670.48,-91.44 668.07,-81.13 663.52,-90.7 670.48,-91.44"/>
</g>
<!-- Node15&#45;&gt;Node2 -->
<g id="edge21" class="edge">
<title>Node15&#45;&gt;Node2</title>
<path fill="none" stroke="midnightblue" d="M201.38,-257.31C143.04,-229.37 54.19,-175.73 95,-123 110.62,-102.82 171.81,-89.24 221.53,-81.29"/>
<polygon fill="midnightblue" stroke="midnightblue" points="222.28,-84.71 231.62,-79.72 221.21,-77.79 222.28,-84.71"/>
</g>
<!-- Node15&#45;&gt;Node3 -->
<g id="edge22" class="edge">
<title>Node15&#45;&gt;Node3</title>
<path fill="none" stroke="midnightblue" d="M277.5,-257.35C293.78,-246.75 314.1,-233.34 332,-221 351.4,-207.63 354.57,-201.74 375,-190 409.16,-170.38 422.44,-174.63 456,-154 484.85,-136.27 514.49,-111.06 533.94,-93.39"/>
<polygon fill="midnightblue" stroke="midnightblue" points="536.38,-95.9 541.37,-86.55 531.64,-90.75 536.38,-95.9"/>
</g>
<!-- Node15&#45;&gt;Node8 -->
<g id="edge35" class="edge">
<title>Node15&#45;&gt;Node8</title>
<path fill="none" stroke="midnightblue" d="M290.45,-257.36C317.28,-245.24 350.93,-230.03 374.41,-219.42"/>
<polygon fill="midnightblue" stroke="midnightblue" points="376.14,-222.48 383.81,-215.17 373.25,-216.1 376.14,-222.48"/>
</g>
<!-- Node16 -->
<g id="node16" class="node">
<title>Node16</title>
<g id="a_node16"><a xlink:href="../../de/dd1/_o_t_a_8hpp.html" target="_top" xlink:title=" ">
<polygon fill="none" stroke="black" points="186.5,-190.5 186.5,-220.5 289.5,-220.5 289.5,-190.5 186.5,-190.5"/>
<text text-anchor="start" x="194.5" y="-208.5" font-family="Helvetica,sans-Serif" font-size="10.00">../../../Objects/OTA</text>
<text text-anchor="middle" x="238" y="-197.5" font-family="Helvetica,sans-Serif" font-size="10.00">/include/OTA.hpp</text>
</a>
</g>
</g>
<!-- Node15&#45;&gt;Node16 -->
<g id="edge23" class="edge">
<title>Node15&#45;&gt;Node16</title>
<path fill="none" stroke="midnightblue" d="M244.49,-257.36C243.44,-249.14 242.21,-239.49 241.1,-230.82"/>
<polygon fill="midnightblue" stroke="midnightblue" points="244.58,-230.37 239.84,-220.89 237.63,-231.25 244.58,-230.37"/>
</g>
<!-- Node15&#45;&gt;Node18 -->
<g id="edge30" class="edge">
<title>Node15&#45;&gt;Node18</title>
<path fill="none" stroke="midnightblue" d="M313.58,-258.73C316.75,-258.1 319.9,-257.51 323,-257 541.91,-220.61 600.02,-241.3 821,-221 840.55,-219.2 861.71,-216.97 881.18,-214.79"/>
<polygon fill="midnightblue" stroke="midnightblue" points="881.64,-218.26 891.18,-213.66 880.85,-211.31 881.64,-218.26"/>
</g>
<!-- Node15&#45;&gt;Node19 -->
<g id="edge34" class="edge">
<title>Node15&#45;&gt;Node19</title>
<path fill="none" stroke="midnightblue" d="M313.57,-258.62C348.78,-248.42 392.57,-235 431,-221 432.66,-220.4 434.35,-219.75 436.06,-219.09"/>
<polygon fill="midnightblue" stroke="midnightblue" points="437.79,-222.16 445.73,-215.15 435.14,-215.68 437.79,-222.16"/>
</g>
<!-- Node16&#45;&gt;Node2 -->
<g id="edge24" class="edge">
<title>Node16&#45;&gt;Node2</title>
<path fill="none" stroke="midnightblue" d="M243.56,-190.37C252.44,-167.85 269.9,-123.53 280.69,-96.12"/>
<polygon fill="midnightblue" stroke="midnightblue" points="284.07,-97.11 284.48,-86.52 277.55,-94.55 284.07,-97.11"/>
</g>
<!-- Node16&#45;&gt;Node3 -->
<g id="edge25" class="edge">
<title>Node16&#45;&gt;Node3</title>
<path fill="none" stroke="midnightblue" d="M270.15,-190.37C307.84,-173.88 372.24,-145.95 428,-123 455.11,-111.84 485.64,-99.78 510.08,-90.24"/>
<polygon fill="midnightblue" stroke="midnightblue" points="511.42,-93.47 519.47,-86.58 508.88,-86.95 511.42,-93.47"/>
</g>
<!-- Node16&#45;&gt;Node17 -->
<g id="edge26" class="edge">
<title>Node16&#45;&gt;Node17</title>
<path fill="none" stroke="midnightblue" d="M221.94,-190.4C211.96,-181.62 198.93,-170.18 187.76,-160.37"/>
<polygon fill="midnightblue" stroke="midnightblue" points="189.85,-157.55 180.03,-153.58 185.23,-162.81 189.85,-157.55"/>
</g>
<!-- Node17&#45;&gt;Node2 -->
<g id="edge27" class="edge">
<title>Node17&#45;&gt;Node2</title>
<path fill="none" stroke="midnightblue" d="M191.34,-123.4C209.59,-113.98 233.78,-101.5 253.64,-91.26"/>
<polygon fill="midnightblue" stroke="midnightblue" points="255.43,-94.27 262.71,-86.58 252.22,-88.05 255.43,-94.27"/>
</g>
<!-- Node17&#45;&gt;Node3 -->
<g id="edge28" class="edge">
<title>Node17&#45;&gt;Node3</title>
<path fill="none" stroke="midnightblue" d="M223.54,-127.63C290.15,-116.58 398.53,-98.61 473.34,-86.21"/>
<polygon fill="midnightblue" stroke="midnightblue" points="473.91,-89.66 483.2,-84.57 472.77,-82.75 473.91,-89.66"/>
</g>
<!-- Node17&#45;&gt;Node4 -->
<g id="edge29" class="edge">
<title>Node17&#45;&gt;Node4</title>
<path fill="none" stroke="midnightblue" d="M169.96,-123.22C178.63,-104.39 196.62,-71.79 223,-56 273.34,-25.88 450.09,-15.31 523.58,-12.16"/>
<polygon fill="midnightblue" stroke="midnightblue" points="523.8,-15.66 533.64,-11.75 523.51,-8.66 523.8,-15.66"/>
</g>
<!-- Node18&#45;&gt;Node2 -->
<g id="edge31" class="edge">
<title>Node18&#45;&gt;Node2</title>
<path fill="none" stroke="midnightblue" d="M949.87,-190.27C947.55,-171.49 940.48,-138.94 919,-123 918.3,-122.48 521.6,-90.9 358.64,-77.95"/>
<polygon fill="midnightblue" stroke="midnightblue" points="358.5,-74.43 348.25,-77.13 357.94,-81.41 358.5,-74.43"/>
</g>
<!-- Node18&#45;&gt;Node3 -->
<g id="edge32" class="edge">
<title>Node18&#45;&gt;Node3</title>
<path fill="none" stroke="midnightblue" d="M956.29,-190.43C962.04,-172.42 968.39,-141.37 952,-123 907.12,-72.68 723.1,-95.12 638.84,-86.82"/>
<polygon fill="midnightblue" stroke="midnightblue" points="639.19,-83.34 628.84,-85.62 638.35,-90.29 639.19,-83.34"/>
</g>
<!-- Node18&#45;&gt;Node5 -->
<g id="edge33" class="edge">
<title>Node18&#45;&gt;Node5</title>
<path fill="none" stroke="midnightblue" d="M959.61,-190.32C968.49,-173.78 979.87,-145.81 971,-123 963.13,-102.77 951.34,-104.12 938,-87 923.05,-67.81 907.99,-44.2 898.36,-28.43"/>
<polygon fill="midnightblue" stroke="midnightblue" points="901.28,-26.5 893.12,-19.74 895.29,-30.11 901.28,-26.5"/>
</g>
<!-- Node20&#45;&gt;Node2 -->
<g id="edge38" class="edge">
<title>Node20&#45;&gt;Node2</title>
<path fill="none" stroke="midnightblue" d="M709.83,-341.34C669.62,-334.5 623.62,-321.97 587,-299 534.25,-265.92 549.89,-225.87 499,-190 459.36,-162.06 438.65,-177.07 396,-154 364.82,-137.13 333.11,-111.38 312.61,-93.35"/>
<polygon fill="midnightblue" stroke="midnightblue" points="314.85,-90.67 305.06,-86.62 310.19,-95.89 314.85,-90.67"/>
</g>
<!-- Node20&#45;&gt;Node3 -->
<g id="edge39" class="edge">
<title>Node20&#45;&gt;Node3</title>
<path fill="none" stroke="midnightblue" d="M861.25,-335.45C933.51,-314.26 1045.51,-268.1 1020,-190 1008.54,-154.93 1002.95,-141.44 971,-123 908.99,-87.21 726.34,-96.67 638.78,-86.9"/>
<polygon fill="midnightblue" stroke="midnightblue" points="639.2,-83.42 628.84,-85.64 638.32,-90.37 639.2,-83.42"/>
</g>
<!-- Node20&#45;&gt;Node7 -->
<g id="edge40" class="edge">
<title>Node20&#45;&gt;Node7</title>
<path fill="none" stroke="midnightblue" d="M723.3,-335.49C650.9,-322.91 545.4,-304.59 474.35,-292.26"/>
<polygon fill="midnightblue" stroke="midnightblue" points="474.58,-288.75 464.13,-290.48 473.38,-295.64 474.58,-288.75"/>
</g>
<!-- Node20&#45;&gt;Node9 -->
<g id="edge41" class="edge">
<title>Node20&#45;&gt;Node9</title>
<path fill="none" stroke="midnightblue" d="M827.88,-335.41C840.25,-326.66 854.16,-314.19 861,-299 868.66,-281.98 871.35,-272.53 861,-257 851.24,-242.35 836.34,-231.95 820.29,-224.55"/>
<polygon fill="midnightblue" stroke="midnightblue" points="821.31,-221.19 810.74,-220.54 818.6,-227.64 821.31,-221.19"/>
</g>
<!-- Node20&#45;&gt;Node18 -->
<g id="edge42" class="edge">
<title>Node20&#45;&gt;Node18</title>
<path fill="none" stroke="midnightblue" d="M797.99,-335.44C790.67,-315.87 781.22,-280.21 798,-257 817.15,-230.51 850.7,-217.68 881.51,-211.56"/>
<polygon fill="midnightblue" stroke="midnightblue" points="882.16,-215 891.39,-209.8 880.93,-208.11 882.16,-215"/>
</g>
<!-- Node21 -->
<g id="node21" class="node">
<title>Node21</title>
<g id="a_node21"><a xlink:href="../../d5/d60/utils_8h.html" target="_top" xlink:title=" ">
<polygon fill="none" stroke="black" points="1080,-123.5 1080,-153.5 1178,-153.5 1178,-123.5 1080,-123.5"/>
<text text-anchor="start" x="1088" y="-141.5" font-family="Helvetica,sans-Serif" font-size="10.00">../../../Utility/utils</text>
<text text-anchor="middle" x="1129" y="-130.5" font-family="Helvetica,sans-Serif" font-size="10.00">/include/utils.h</text>
</a>
</g>
</g>
<!-- Node20&#45;&gt;Node21 -->
<g id="edge43" class="edge">
<title>Node20&#45;&gt;Node21</title>
<path fill="none" stroke="midnightblue" d="M898.19,-340.91C962.57,-333.29 1040.64,-320.04 1066,-299 1107.53,-264.55 1121.83,-198.93 1126.65,-163.54"/>
<polygon fill="midnightblue" stroke="midnightblue" points="1130.12,-163.95 1127.85,-153.6 1123.17,-163.1 1130.12,-163.95"/>
</g>
<!-- Node22 -->
<g id="node22" class="node">
<title>Node22</title>
<g id="a_node22"><a xlink:title=" ">
<polygon fill="none" stroke="#bfbfbf" points="1278.5,-62 1278.5,-81 1325.5,-81 1325.5,-62 1278.5,-62"/>
<text text-anchor="middle" x="1302" y="-69" font-family="Helvetica,sans-Serif" font-size="10.00">vector</text>
</a>
</g>
</g>
<!-- Node20&#45;&gt;Node22 -->
<g id="edge58" class="edge">
<title>Node20&#45;&gt;Node22</title>
<path fill="none" stroke="midnightblue" d="M898.24,-339.9C970.25,-331.34 1062.63,-317.32 1096,-299 1191.1,-246.8 1265.5,-133.86 1291.76,-90.22"/>
<polygon fill="midnightblue" stroke="midnightblue" points="1294.93,-91.73 1297.01,-81.34 1288.9,-88.17 1294.93,-91.73"/>
</g>
<!-- Node27 -->
<g id="node27" class="node">
<title>Node27</title>
<g id="a_node27"><a xlink:href="../../d3/de3/_logger_8hpp.html" target="_top" xlink:title=" ">
<polygon fill="none" stroke="black" points="596,-263 596,-293 712,-293 712,-263 596,-263"/>
<text text-anchor="start" x="604" y="-281" font-family="Helvetica,sans-Serif" font-size="10.00">../../../Objects/Logger</text>
<text text-anchor="middle" x="654" y="-270" font-family="Helvetica,sans-Serif" font-size="10.00">/include/Logger.hpp</text>
</a>
</g>
</g>
<!-- Node20&#45;&gt;Node27 -->
<g id="edge53" class="edge">
<title>Node20&#45;&gt;Node27</title>
<path fill="none" stroke="midnightblue" d="M774.01,-335.4C750.81,-324.5 718.49,-309.31 693.24,-297.44"/>
<polygon fill="midnightblue" stroke="midnightblue" points="694.48,-294.16 683.94,-293.07 691.5,-300.49 694.48,-294.16"/>
</g>
<!-- Node28 -->
<g id="node28" class="node">
<title>Node28</title>
<g id="a_node28"><a xlink:title=" ">
<polygon fill="none" stroke="#bfbfbf" points="806.5,-268.5 806.5,-287.5 851.5,-287.5 851.5,-268.5 806.5,-268.5"/>
<text text-anchor="middle" x="829" y="-275.5" font-family="Helvetica,sans-Serif" font-size="10.00">utility</text>
</a>
</g>
</g>
<!-- Node20&#45;&gt;Node28 -->
<g id="edge57" class="edge">
<title>Node20&#45;&gt;Node28</title>
<path fill="none" stroke="midnightblue" d="M809.06,-335.23C812.9,-324.39 818.23,-309.38 822.41,-297.6"/>
<polygon fill="midnightblue" stroke="midnightblue" points="825.8,-298.49 825.85,-287.89 819.21,-296.15 825.8,-298.49"/>
</g>
<!-- Node21&#45;&gt;Node2 -->
<g id="edge46" class="edge">
<title>Node21&#45;&gt;Node2</title>
<path fill="none" stroke="midnightblue" d="M1079.79,-133.38C1044.28,-130.43 995.19,-126.4 952,-123 739.61,-106.3 686.42,-103.37 474,-87 435.62,-84.04 392.74,-80.67 358.03,-77.92"/>
<polygon fill="midnightblue" stroke="midnightblue" points="358.25,-74.42 348.01,-77.12 357.7,-81.4 358.25,-74.42"/>
</g>
<!-- Node21&#45;&gt;Node3 -->
<g id="edge47" class="edge">
<title>Node21&#45;&gt;Node3</title>
<path fill="none" stroke="midnightblue" d="M1079.95,-125.5C1075.25,-124.57 1070.55,-123.71 1066,-123 880.62,-94.02 829.05,-111.04 638.87,-87.02"/>
<polygon fill="midnightblue" stroke="midnightblue" points="639.19,-83.53 628.82,-85.73 638.3,-90.48 639.19,-83.53"/>
</g>
<!-- Node21&#45;&gt;Node4 -->
<g id="edge44" class="edge">
<title>Node21&#45;&gt;Node4</title>
<path fill="none" stroke="midnightblue" d="M1079.83,-126.13C1075.16,-125.07 1070.49,-124.01 1066,-123 885.71,-82.46 669.17,-35.47 588.43,-18"/>
<polygon fill="midnightblue" stroke="midnightblue" points="588.9,-14.52 578.39,-15.83 587.42,-21.37 588.9,-14.52"/>
</g>
<!-- Node21&#45;&gt;Node5 -->
<g id="edge51" class="edge">
<title>Node21&#45;&gt;Node5</title>
<path fill="none" stroke="midnightblue" d="M1079.94,-124.87C1051,-116.35 1014.25,-103.62 984,-87 967.66,-78.02 928.62,-45.65 905.68,-26.17"/>
<polygon fill="midnightblue" stroke="midnightblue" points="907.9,-23.47 898.02,-19.64 903.36,-28.79 907.9,-23.47"/>
</g>
<!-- Node21&#45;&gt;Node22 -->
<g id="edge45" class="edge">
<title>Node21&#45;&gt;Node22</title>
<path fill="none" stroke="midnightblue" d="M1170.32,-123.42C1198.34,-113.67 1236.13,-100.13 1269,-87 1270.6,-86.36 1272.23,-85.69 1273.88,-85.01"/>
<polygon fill="midnightblue" stroke="midnightblue" points="1275.43,-88.15 1283.25,-81 1272.68,-81.72 1275.43,-88.15"/>
</g>
<!-- Node23 -->
<g id="node23" class="node">
<title>Node23</title>
<g id="a_node23"><a xlink:title=" ">
<polygon fill="none" stroke="#bfbfbf" points="1138.5,-62 1138.5,-81 1191.5,-81 1191.5,-62 1138.5,-62"/>
<text text-anchor="middle" x="1165" y="-69" font-family="Helvetica,sans-Serif" font-size="10.00">stdint.h</text>
</a>
</g>
</g>
<!-- Node21&#45;&gt;Node23 -->
<g id="edge48" class="edge">
<title>Node21&#45;&gt;Node23</title>
<path fill="none" stroke="midnightblue" d="M1136.81,-123.4C1142.2,-113.66 1149.41,-100.65 1155.19,-90.21"/>
<polygon fill="midnightblue" stroke="midnightblue" points="1158.4,-91.64 1160.18,-81.19 1152.28,-88.25 1158.4,-91.64"/>
</g>
<!-- Node24 -->
<g id="node24" class="node">
<title>Node24</title>
<g id="a_node24"><a xlink:title=" ">
<polygon fill="none" stroke="#bfbfbf" points="1210,-62 1210,-81 1260,-81 1260,-62 1210,-62"/>
<text text-anchor="middle" x="1235" y="-69" font-family="Helvetica,sans-Serif" font-size="10.00">stdio.h</text>
</a>
</g>
</g>
<!-- Node21&#45;&gt;Node24 -->
<g id="edge49" class="edge">
<title>Node21&#45;&gt;Node24</title>
<path fill="none" stroke="midnightblue" d="M1152,-123.4C1169.94,-112.39 1194.72,-97.2 1212.52,-86.28"/>
<polygon fill="midnightblue" stroke="midnightblue" points="1214.43,-89.22 1221.13,-81.01 1210.77,-83.25 1214.43,-89.22"/>
</g>
<!-- Node25 -->
<g id="node25" class="node">
<title>Node25</title>
<g id="a_node25"><a xlink:title=" ">
<polygon fill="none" stroke="#bfbfbf" points="992.5,-62 992.5,-81 1045.5,-81 1045.5,-62 992.5,-62"/>
<text text-anchor="middle" x="1019" y="-69" font-family="Helvetica,sans-Serif" font-size="10.00">stdlib.h</text>
</a>
</g>
</g>
<!-- Node21&#45;&gt;Node25 -->
<g id="edge50" class="edge">
<title>Node21&#45;&gt;Node25</title>
<path fill="none" stroke="midnightblue" d="M1105.13,-123.4C1086.43,-112.34 1060.56,-97.06 1042.07,-86.13"/>
<polygon fill="midnightblue" stroke="midnightblue" points="1043.79,-83.08 1033.4,-81.01 1040.23,-89.11 1043.79,-83.08"/>
</g>
<!-- Node26 -->
<g id="node26" class="node">
<title>Node26</title>
<g id="a_node26"><a xlink:title=" ">
<polygon fill="none" stroke="#bfbfbf" points="1064,-62 1064,-81 1120,-81 1120,-62 1064,-62"/>
<text text-anchor="middle" x="1092" y="-69" font-family="Helvetica,sans-Serif" font-size="10.00">sstream</text>
</a>
</g>
</g>
<!-- Node21&#45;&gt;Node26 -->
<g id="edge52" class="edge">
<title>Node21&#45;&gt;Node26</title>
<path fill="none" stroke="midnightblue" d="M1120.97,-123.4C1115.37,-113.56 1107.87,-100.38 1101.9,-89.89"/>
<polygon fill="midnightblue" stroke="midnightblue" points="1104.94,-88.15 1096.95,-81.19 1098.85,-91.62 1104.94,-88.15"/>
</g>
<!-- Node27&#45;&gt;Node2 -->
<g id="edge54" class="edge">
<title>Node27&#45;&gt;Node2</title>
<path fill="none" stroke="midnightblue" d="M643.6,-262.72C629.07,-243.7 600.99,-210.12 570,-190 530.73,-164.5 514.38,-171.62 471,-154 421.32,-133.82 365.17,-108.06 328.76,-90.96"/>
<polygon fill="midnightblue" stroke="midnightblue" points="330.03,-87.69 319.49,-86.6 327.05,-94.02 330.03,-87.69"/>
</g>
<!-- Node27&#45;&gt;Node3 -->
<g id="edge55" class="edge">
<title>Node27&#45;&gt;Node3</title>
<path fill="none" stroke="midnightblue" d="M647.25,-262.8C638.76,-245.3 623.42,-214.82 608,-190 597.58,-173.24 590.89,-171.62 582,-154 572.73,-135.62 565.87,-113.24 561.54,-96.59"/>
<polygon fill="midnightblue" stroke="midnightblue" points="564.86,-95.44 559.05,-86.58 558.06,-97.12 564.86,-95.44"/>
</g>
<!-- Node27&#45;&gt;Node9 -->
<g id="edge56" class="edge">
<title>Node27&#45;&gt;Node9</title>
<path fill="none" stroke="midnightblue" d="M671.4,-262.73C683.96,-252.44 701.09,-238.4 715.09,-226.92"/>
<polygon fill="midnightblue" stroke="midnightblue" points="717.4,-229.55 722.92,-220.5 712.96,-224.14 717.4,-229.55"/>
</g>
</g>
</svg>
        <g id="navigator" transform="translate(0 0)" fill="#404254">
                <rect fill="#f2f5e9" fill-opacity="0.5" stroke="#606060" stroke-width=".5" x="0" y="0" width="60" height="60"/>
                <use id="zoomplus" xlink:href="#zoomPlus" x="17" y="9" onmousedown="handleZoom(evt,'in')"/>
                <use id="zoomminus" xlink:href="#zoomMin" x="42" y="9" onmousedown="handleZoom(evt,'out')"/>
                <use id="reset" xlink:href="#resetDef" x="30" y="36" onmousedown="handleReset()"/>
                <g id="arrowUp" xlink:href="#dirArrow" transform="translate(30 24)" onmousedown="handlePan(0,-1)">
                  <use xlink:href="#rim" fill="#404040">
                        <set attributeName="fill" to="#808080" begin="arrowUp.mouseover" end="arrowUp.mouseout"/>
                  </use>
                  <path fill="none" stroke="white" stroke-width="1.5" d="M0,-3.0v7 M-2.5,-0.5L0,-3.0L2.5,-0.5"/>
                </g>
                <g id="arrowRight" xlink:href="#dirArrow" transform="rotate(90) translate(36 -43)" onmousedown="handlePan(1,0)">
                  <use xlink:href="#rim" fill="#404040">
                        <set attributeName="fill" to="#808080" begin="arrowRight.mouseover" end="arrowRight.mouseout"/>
                  </use>
                  <path fill="none" stroke="white" stroke-width="1.5" d="M0,-3.0v7 M-2.5,-0.5L0,-3.0L2.5,-0.5"/>
                </g>
                <g id="arrowDown" xlink:href="#dirArrow" transform="rotate(180) translate(-30 -48)" onmousedown="handlePan(0,1)">
                  <use xlink:href="#rim" fill="#404040">
                        <set attributeName="fill" to="#808080" begin="arrowDown.mouseover" end="arrowDown.mouseout"/>
                  </use>
                  <path fill="none" stroke="white" stroke-width="1.5" d="M0,-3.0v7 M-2.5,-0.5L0,-3.0L2.5,-0.5"/>
                </g>
                <g id="arrowLeft" xlink:href="#dirArrow" transform="rotate(270) translate(-36 17)" onmousedown="handlePan(-1,0)">
                  <use xlink:href="#rim" fill="#404040">
                        <set attributeName="fill" to="#808080" begin="arrowLeft.mouseover" end="arrowLeft.mouseout"/>
                  </use>
                  <path fill="none" stroke="white" stroke-width="1.5" d="M0,-3.0v7 M-2.5,-0.5L0,-3.0L2.5,-0.5"/>
                </g>
        </g>
        <svg viewBox="0 0 15 15" width="100%" height="30px" preserveAspectRatio="xMaxYMin meet">
         <g id="arrow_out" transform="scale(0.3 0.3)">
          <a xlink:href="_sensor_controller_base_8hpp__incl_org.svg" target="_base">
           <rect id="button" ry="5" rx="5" y="6" x="6" height="38" width="38"
                fill="#f2f5e9" fill-opacity="0.5" stroke="#606060" stroke-width="1.0"/>
           <path id="arrow"
             d="M 11.500037,31.436501 C 11.940474,20.09759 22.043105,11.32322 32.158766,21.979434 L 37.068811,17.246167 C 37.068811,17.246167 37.088388,32 37.088388,32 L 22.160133,31.978069 C 22.160133,31.978069 26.997745,27.140456 26.997745,27.140456 C 18.528582,18.264221 13.291696,25.230495 11.500037,31.436501 z"
             style="fill:#404040;"/>
          </a>
         </g>
        </svg>
</svg>
