<?xml version="1.0" encoding="UTF-8" standalone="no"?>
<!DOCTYPE svg PUBLIC "-//W3C//DTD SVG 1.1//EN"
 "http://www.w3.org/Graphics/SVG/1.1/DTD/svg11.dtd">
<!-- Generated by graphviz version 2.43.0 (0)
 -->
<!-- Title: Components/ThirdpartAPI/OneWire/include/owb.h Pages: 1 -->
<!--zoomable 240 -->
<svg id="main" version="1.1" xmlns="http://www.w3.org/2000/svg" xmlns:xlink="http://www.w3.org/1999/xlink" xml:space="preserve" onload="init(evt)">
<style type="text/css"><![CDATA[
.edge:hover path { stroke: red; }
.edge:hover polygon { stroke: red; fill: red; }
]]></style>
<script type="text/javascript"><![CDATA[
var edges = document.getElementsByTagName('g');
if (edges && edges.length) {
  for (var i=0;i<edges.length;i++) {
    if (edges[i].id.substr(0,4)=='edge') {
      edges[i].setAttribute('class','edge');
    }
  }
}
]]></script>
        <defs>
                <circle id="rim" cx="0" cy="0" r="7"/>
                <circle id="rim2" cx="0" cy="0" r="3.5"/>
                <g id="zoomPlus">
                        <use xlink:href="#rim" fill="#404040">
                                <set attributeName="fill" to="#808080" begin="zoomplus.mouseover" end="zoomplus.mouseout"/>
                        </use>
                        <path d="M-4,0h8M0,-4v8" fill="none" stroke="white" stroke-width="1.5" pointer-events="none"/>
                </g>
                <g id="zoomMin">
                        <use xlink:href="#rim" fill="#404040">
                                <set attributeName="fill" to="#808080" begin="zoomminus.mouseover" end="zoomminus.mouseout"/>
                        </use>
                        <path d="M-4,0h8" fill="none" stroke="white" stroke-width="1.5" pointer-events="none"/>
                </g>
                <g id="dirArrow">
                        <path fill="none" stroke="white" stroke-width="1.5" d="M0,-3.0v7 M-2.5,-0.5L0,-3.0L2.5,-0.5"/>
                </g>
               <g id="resetDef">
                       <use xlink:href="#rim2" fill="#404040">
                               <set attributeName="fill" to="#808080" begin="reset.mouseover" end="reset.mouseout"/>
                       </use>
               </g>
        </defs>

<script type="text/javascript">
var viewWidth = 687;
var viewHeight = 240;
var sectionId = 'dynsection-0';
</script>
<script xlink:href="../../svgpan.js"/>
<svg id="graph" class="graph">
<g id="viewport">
<title>Components/ThirdpartAPI/OneWire/include/owb.h</title>
<!-- Node1 -->
<g id="node1" class="node">
<title>Node1</title>
<g id="a_node1"><a xlink:title="Interface definitions for the 1&#45;Wire bus component.">
<polygon fill="#bfbfbf" stroke="black" points="277.5,-201.5 277.5,-231.5 418.5,-231.5 418.5,-201.5 277.5,-201.5"/>
<text text-anchor="start" x="285.5" y="-219.5" font-family="Helvetica,sans-Serif" font-size="10.00">Components/ThirdpartAPI</text>
<text text-anchor="middle" x="348" y="-208.5" font-family="Helvetica,sans-Serif" font-size="10.00">/OneWire/include/owb.h</text>
</a>
</g>
</g>
<!-- Node2 -->
<g id="node2" class="node">
<title>Node2</title>
<g id="a_node2"><a xlink:href="../../dc/d6e/ds18b20_8h.html" target="_top" xlink:title="Interface definitions for the Maxim Integrated DS18B20 Programmable Resolution 1&#45;Wire Digital Thermom...">
<polygon fill="none" stroke="black" points="77,-134.5 77,-164.5 229,-164.5 229,-134.5 77,-134.5"/>
<text text-anchor="start" x="85" y="-152.5" font-family="Helvetica,sans-Serif" font-size="10.00">Components/ThirdpartAPI</text>
<text text-anchor="middle" x="153" y="-141.5" font-family="Helvetica,sans-Serif" font-size="10.00">/ds18b20/include/ds18b20.h</text>
</a>
</g>
</g>
<!-- Node1&#45;&gt;Node2 -->
<g id="edge1" class="edge">
<title>Node1&#45;&gt;Node2</title>
<path fill="none" stroke="midnightblue" d="M296.18,-198.23C264.64,-187.71 224.85,-174.45 195.23,-164.58"/>
<polygon fill="midnightblue" stroke="midnightblue" points="295.09,-201.55 305.69,-201.4 297.31,-194.91 295.09,-201.55"/>
</g>
<!-- Node3 -->
<g id="node3" class="node">
<title>Node3</title>
<g id="a_node3"><a xlink:href="../../d9/daf/ds18b20_8hpp.html" target="_top" xlink:title=" ">
<polygon fill="none" stroke="black" points="88,-67.5 88,-97.5 246,-97.5 246,-67.5 88,-67.5"/>
<text text-anchor="start" x="96" y="-85.5" font-family="Helvetica,sans-Serif" font-size="10.00">Components/Sensor/ds18b20</text>
<text text-anchor="middle" x="167" y="-74.5" font-family="Helvetica,sans-Serif" font-size="10.00">/include/ds18b20.hpp</text>
</a>
</g>
</g>
<!-- Node1&#45;&gt;Node3 -->
<g id="edge5" class="edge">
<title>Node1&#45;&gt;Node3</title>
<path fill="none" stroke="midnightblue" d="M320.73,-195.07C298.53,-178.49 266.36,-154.59 238,-134 220.86,-121.56 201.24,-107.62 186.97,-97.55"/>
<polygon fill="midnightblue" stroke="midnightblue" points="318.9,-198.07 329.01,-201.25 323.09,-192.46 318.9,-198.07"/>
</g>
<!-- Node6 -->
<g id="node6" class="node">
<title>Node6</title>
<g id="a_node6"><a xlink:href="../../dd/dc8/owb__gpio_8h.html" target="_top" xlink:title="Interface definitions for the ESP32 GPIO driver used to communicate with devices on the One Wire Bus.">
<polygon fill="none" stroke="black" points="323,-134.5 323,-164.5 481,-164.5 481,-134.5 323,-134.5"/>
<text text-anchor="start" x="331" y="-152.5" font-family="Helvetica,sans-Serif" font-size="10.00">Components/ThirdpartAPI</text>
<text text-anchor="middle" x="402" y="-141.5" font-family="Helvetica,sans-Serif" font-size="10.00">/OneWire/include/owb_gpio.h</text>
</a>
</g>
</g>
<!-- Node1&#45;&gt;Node6 -->
<g id="edge6" class="edge">
<title>Node1&#45;&gt;Node6</title>
<path fill="none" stroke="midnightblue" d="M366.32,-193.45C374.25,-183.9 383.3,-173 390.31,-164.58"/>
<polygon fill="midnightblue" stroke="midnightblue" points="363.42,-191.47 359.72,-201.4 368.8,-195.94 363.42,-191.47"/>
</g>
<!-- Node7 -->
<g id="node7" class="node">
<title>Node7</title>
<g id="a_node7"><a xlink:href="../../d0/d3b/owb_8c.html" target="_top" xlink:title=" ">
<polygon fill="none" stroke="black" points="271.5,-67.5 271.5,-97.5 412.5,-97.5 412.5,-67.5 271.5,-67.5"/>
<text text-anchor="start" x="279.5" y="-85.5" font-family="Helvetica,sans-Serif" font-size="10.00">Components/ThirdpartAPI</text>
<text text-anchor="middle" x="342" y="-74.5" font-family="Helvetica,sans-Serif" font-size="10.00">/OneWire/src/owb.c</text>
</a>
</g>
</g>
<!-- Node1&#45;&gt;Node7 -->
<g id="edge9" class="edge">
<title>Node1&#45;&gt;Node7</title>
<path fill="none" stroke="midnightblue" d="M328.85,-193.22C322.88,-184.92 317.07,-175.05 314,-165 309.98,-151.82 310.55,-147.34 314,-134 317.41,-120.8 325.1,-107.37 331.56,-97.69"/>
<polygon fill="midnightblue" stroke="midnightblue" points="326.15,-195.45 335.01,-201.25 331.7,-191.19 326.15,-195.45"/>
</g>
<!-- Node8 -->
<g id="node8" class="node">
<title>Node8</title>
<g id="a_node8"><a xlink:href="../../de/dea/owb__gpio_8c.html" target="_top" xlink:title=" ">
<polygon fill="none" stroke="black" points="434.5,-67.5 434.5,-97.5 575.5,-97.5 575.5,-67.5 434.5,-67.5"/>
<text text-anchor="start" x="442.5" y="-85.5" font-family="Helvetica,sans-Serif" font-size="10.00">Components/ThirdpartAPI</text>
<text text-anchor="middle" x="505" y="-74.5" font-family="Helvetica,sans-Serif" font-size="10.00">/OneWire/src/owb_gpio.c</text>
</a>
</g>
</g>
<!-- Node1&#45;&gt;Node8 -->
<g id="edge10" class="edge">
<title>Node1&#45;&gt;Node8</title>
<path fill="none" stroke="midnightblue" d="M428.39,-202.62C451.29,-195.19 474.26,-183.47 490,-165 506.14,-146.05 507.32,-115.49 506.38,-97.67"/>
<polygon fill="midnightblue" stroke="midnightblue" points="427.18,-199.33 418.6,-205.55 429.18,-206.04 427.18,-199.33"/>
</g>
<!-- Node9 -->
<g id="node9" class="node">
<title>Node9</title>
<g id="a_node9"><a xlink:href="../../d3/d47/owb__rmt_8c.html" target="_top" xlink:title=" ">
<polygon fill="none" stroke="black" points="537.5,-134.5 537.5,-164.5 678.5,-164.5 678.5,-134.5 537.5,-134.5"/>
<text text-anchor="start" x="545.5" y="-152.5" font-family="Helvetica,sans-Serif" font-size="10.00">Components/ThirdpartAPI</text>
<text text-anchor="middle" x="608" y="-141.5" font-family="Helvetica,sans-Serif" font-size="10.00">/OneWire/src/owb_rmt.c</text>
</a>
</g>
</g>
<!-- Node1&#45;&gt;Node9 -->
<g id="edge11" class="edge">
<title>Node1&#45;&gt;Node9</title>
<path fill="none" stroke="midnightblue" d="M414.06,-198.98C456.53,-188.37 511.12,-174.72 551.56,-164.61"/>
<polygon fill="midnightblue" stroke="midnightblue" points="412.95,-195.66 404.1,-201.48 414.65,-202.45 412.95,-195.66"/>
</g>
<!-- Node2&#45;&gt;Node3 -->
<g id="edge2" class="edge">
<title>Node2&#45;&gt;Node3</title>
<path fill="none" stroke="midnightblue" d="M158.19,-124.4C160.14,-115.37 162.28,-105.41 163.97,-97.58"/>
<polygon fill="midnightblue" stroke="midnightblue" points="154.72,-123.88 156.04,-134.4 161.56,-125.36 154.72,-123.88"/>
</g>
<!-- Node4 -->
<g id="node4" class="node">
<title>Node4</title>
<g id="a_node4"><a xlink:href="../../d7/d56/ds18b20_8cpp.html" target="_top" xlink:title=" ">
<polygon fill="none" stroke="black" points="0,-0.5 0,-30.5 158,-30.5 158,-0.5 0,-0.5"/>
<text text-anchor="start" x="8" y="-18.5" font-family="Helvetica,sans-Serif" font-size="10.00">Components/Sensor/ds18b20</text>
<text text-anchor="middle" x="79" y="-7.5" font-family="Helvetica,sans-Serif" font-size="10.00">/src/ds18b20.cpp</text>
</a>
</g>
</g>
<!-- Node3&#45;&gt;Node4 -->
<g id="edge3" class="edge">
<title>Node3&#45;&gt;Node4</title>
<path fill="none" stroke="midnightblue" d="M139.86,-61.45C126.32,-51.45 110.27,-39.6 98.06,-30.58"/>
<polygon fill="midnightblue" stroke="midnightblue" points="137.78,-64.27 147.91,-67.4 141.94,-58.64 137.78,-64.27"/>
</g>
<!-- Node5 -->
<g id="node5" class="node">
<title>Node5</title>
<g id="a_node5"><a xlink:href="../../da/d1d/_sensor_2ds18b20_2test_2test_2simple__test_8cpp.html" target="_top" xlink:title=" ">
<polygon fill="none" stroke="black" points="176,-0.5 176,-30.5 334,-30.5 334,-0.5 176,-0.5"/>
<text text-anchor="start" x="184" y="-18.5" font-family="Helvetica,sans-Serif" font-size="10.00">Components/Sensor/ds18b20</text>
<text text-anchor="middle" x="255" y="-7.5" font-family="Helvetica,sans-Serif" font-size="10.00">/test/test/simple_test.cpp</text>
</a>
</g>
</g>
<!-- Node3&#45;&gt;Node5 -->
<g id="edge4" class="edge">
<title>Node3&#45;&gt;Node5</title>
<path fill="none" stroke="midnightblue" d="M194.14,-61.45C207.68,-51.45 223.73,-39.6 235.94,-30.58"/>
<polygon fill="midnightblue" stroke="midnightblue" points="192.06,-58.64 186.09,-67.4 196.22,-64.27 192.06,-58.64"/>
</g>
<!-- Node6&#45;&gt;Node7 -->
<g id="edge7" class="edge">
<title>Node6&#45;&gt;Node7</title>
<path fill="none" stroke="midnightblue" d="M382.18,-127.02C373.24,-117.34 362.93,-106.17 354.99,-97.58"/>
<polygon fill="midnightblue" stroke="midnightblue" points="379.63,-129.42 388.98,-134.4 384.77,-124.67 379.63,-129.42"/>
</g>
<!-- Node6&#45;&gt;Node8 -->
<g id="edge8" class="edge">
<title>Node6&#45;&gt;Node8</title>
<path fill="none" stroke="midnightblue" d="M432.88,-129.02C448.9,-118.9 468.13,-106.77 482.69,-97.58"/>
<polygon fill="midnightblue" stroke="midnightblue" points="430.94,-126.1 424.35,-134.4 434.67,-132.02 430.94,-126.1"/>
</g>
</g>
</svg>
        <g id="navigator" transform="translate(0 0)" fill="#404254">
                <rect fill="#f2f5e9" fill-opacity="0.5" stroke="#606060" stroke-width=".5" x="0" y="0" width="60" height="60"/>
                <use id="zoomplus" xlink:href="#zoomPlus" x="17" y="9" onmousedown="handleZoom(evt,'in')"/>
                <use id="zoomminus" xlink:href="#zoomMin" x="42" y="9" onmousedown="handleZoom(evt,'out')"/>
                <use id="reset" xlink:href="#resetDef" x="30" y="36" onmousedown="handleReset()"/>
                <g id="arrowUp" xlink:href="#dirArrow" transform="translate(30 24)" onmousedown="handlePan(0,-1)">
                  <use xlink:href="#rim" fill="#404040">
                        <set attributeName="fill" to="#808080" begin="arrowUp.mouseover" end="arrowUp.mouseout"/>
                  </use>
                  <path fill="none" stroke="white" stroke-width="1.5" d="M0,-3.0v7 M-2.5,-0.5L0,-3.0L2.5,-0.5"/>
                </g>
                <g id="arrowRight" xlink:href="#dirArrow" transform="rotate(90) translate(36 -43)" onmousedown="handlePan(1,0)">
                  <use xlink:href="#rim" fill="#404040">
                        <set attributeName="fill" to="#808080" begin="arrowRight.mouseover" end="arrowRight.mouseout"/>
                  </use>
                  <path fill="none" stroke="white" stroke-width="1.5" d="M0,-3.0v7 M-2.5,-0.5L0,-3.0L2.5,-0.5"/>
                </g>
                <g id="arrowDown" xlink:href="#dirArrow" transform="rotate(180) translate(-30 -48)" onmousedown="handlePan(0,1)">
                  <use xlink:href="#rim" fill="#404040">
                        <set attributeName="fill" to="#808080" begin="arrowDown.mouseover" end="arrowDown.mouseout"/>
                  </use>
                  <path fill="none" stroke="white" stroke-width="1.5" d="M0,-3.0v7 M-2.5,-0.5L0,-3.0L2.5,-0.5"/>
                </g>
                <g id="arrowLeft" xlink:href="#dirArrow" transform="rotate(270) translate(-36 17)" onmousedown="handlePan(-1,0)">
                  <use xlink:href="#rim" fill="#404040">
                        <set attributeName="fill" to="#808080" begin="arrowLeft.mouseover" end="arrowLeft.mouseout"/>
                  </use>
                  <path fill="none" stroke="white" stroke-width="1.5" d="M0,-3.0v7 M-2.5,-0.5L0,-3.0L2.5,-0.5"/>
                </g>
        </g>
        <svg viewBox="0 0 15 15" width="100%" height="30px" preserveAspectRatio="xMaxYMin meet">
         <g id="arrow_out" transform="scale(0.3 0.3)">
          <a xlink:href="owb_8h__dep__incl_org.svg" target="_base">
           <rect id="button" ry="5" rx="5" y="6" x="6" height="38" width="38"
                fill="#f2f5e9" fill-opacity="0.5" stroke="#606060" stroke-width="1.0"/>
           <path id="arrow"
             d="M 11.500037,31.436501 C 11.940474,20.09759 22.043105,11.32322 32.158766,21.979434 L 37.068811,17.246167 C 37.068811,17.246167 37.088388,32 37.088388,32 L 22.160133,31.978069 C 22.160133,31.978069 26.997745,27.140456 26.997745,27.140456 C 18.528582,18.264221 13.291696,25.230495 11.500037,31.436501 z"
             style="fill:#404040;"/>
          </a>
         </g>
        </svg>
</svg>
