<?xml version="1.0" encoding="UTF-8" standalone="no"?>
<!DOCTYPE svg PUBLIC "-//W3C//DTD SVG 1.1//EN"
 "http://www.w3.org/Graphics/SVG/1.1/DTD/svg11.dtd">
<!-- Generated by graphviz version 2.43.0 (0)
 -->
<!-- Title: Components/Objects/ErrorHandler/include/ErrorCodeParser.hpp Pages: 1 -->
<!--zoomable 385 -->
<svg id="main" version="1.1" xmlns="http://www.w3.org/2000/svg" xmlns:xlink="http://www.w3.org/1999/xlink" xml:space="preserve" onload="init(evt)">
<style type="text/css"><![CDATA[
.edge:hover path { stroke: red; }
.edge:hover polygon { stroke: red; fill: red; }
]]></style>
<script type="text/javascript"><![CDATA[
var edges = document.getElementsByTagName('g');
if (edges && edges.length) {
  for (var i=0;i<edges.length;i++) {
    if (edges[i].id.substr(0,4)=='edge') {
      edges[i].setAttribute('class','edge');
    }
  }
}
]]></script>
        <defs>
                <circle id="rim" cx="0" cy="0" r="7"/>
                <circle id="rim2" cx="0" cy="0" r="3.5"/>
                <g id="zoomPlus">
                        <use xlink:href="#rim" fill="#404040">
                                <set attributeName="fill" to="#808080" begin="zoomplus.mouseover" end="zoomplus.mouseout"/>
                        </use>
                        <path d="M-4,0h8M0,-4v8" fill="none" stroke="white" stroke-width="1.5" pointer-events="none"/>
                </g>
                <g id="zoomMin">
                        <use xlink:href="#rim" fill="#404040">
                                <set attributeName="fill" to="#808080" begin="zoomminus.mouseover" end="zoomminus.mouseout"/>
                        </use>
                        <path d="M-4,0h8" fill="none" stroke="white" stroke-width="1.5" pointer-events="none"/>
                </g>
                <g id="dirArrow">
                        <path fill="none" stroke="white" stroke-width="1.5" d="M0,-3.0v7 M-2.5,-0.5L0,-3.0L2.5,-0.5"/>
                </g>
               <g id="resetDef">
                       <use xlink:href="#rim2" fill="#404040">
                               <set attributeName="fill" to="#808080" begin="reset.mouseover" end="reset.mouseout"/>
                       </use>
               </g>
        </defs>

<script type="text/javascript">
var viewWidth = 906;
var viewHeight = 385;
var sectionId = 'dynsection-0';
</script>
<script xlink:href="../../svgpan.js"/>
<svg id="graph" class="graph">
<g id="viewport">
<title>Components/Objects/ErrorHandler/include/ErrorCodeParser.hpp</title>
<!-- Node1 -->
<g id="node1" class="node">
<title>Node1</title>
<g id="a_node1"><a xlink:title=" ">
<polygon fill="#bfbfbf" stroke="black" points="630.5,-335.5 630.5,-376.5 749.5,-376.5 749.5,-335.5 630.5,-335.5"/>
<text text-anchor="start" x="638.5" y="-364.5" font-family="Helvetica,sans-Serif" font-size="10.00">Components/Objects</text>
<text text-anchor="start" x="638.5" y="-353.5" font-family="Helvetica,sans-Serif" font-size="10.00">/ErrorHandler/include</text>
<text text-anchor="middle" x="690" y="-342.5" font-family="Helvetica,sans-Serif" font-size="10.00">/ErrorCodeParser.hpp</text>
</a>
</g>
</g>
<!-- Node2 -->
<g id="node2" class="node">
<title>Node2</title>
<g id="a_node2"><a xlink:href="../../da/d5f/_b_a_s_i_c_8hpp.html" target="_top" xlink:title=" ">
<polygon fill="none" stroke="black" points="336,-56.5 336,-86.5 452,-86.5 452,-56.5 336,-56.5"/>
<text text-anchor="start" x="344" y="-74.5" font-family="Helvetica,sans-Serif" font-size="10.00">../../../Global_Include</text>
<text text-anchor="middle" x="394" y="-63.5" font-family="Helvetica,sans-Serif" font-size="10.00">/BASIC.hpp</text>
</a>
</g>
</g>
<!-- Node1&#45;&gt;Node2 -->
<g id="edge1" class="edge">
<title>Node1&#45;&gt;Node2</title>
<path fill="none" stroke="midnightblue" d="M630.32,-337.69C601.98,-328.24 568.23,-315.15 540,-299 492.29,-271.69 480.86,-261.79 444,-221 420.12,-194.57 411.45,-187.73 400,-154 393.77,-135.66 392.48,-113.71 392.63,-97.21"/>
<polygon fill="midnightblue" stroke="midnightblue" points="396.14,-96.86 392.92,-86.77 389.15,-96.67 396.14,-96.86"/>
</g>
<!-- Node3 -->
<g id="node3" class="node">
<title>Node3</title>
<g id="a_node3"><a xlink:href="../../d3/deb/_general___error_8hpp.html" target="_top" xlink:title=" ">
<polygon fill="none" stroke="black" points="566,-56.5 566,-86.5 712,-86.5 712,-56.5 566,-56.5"/>
<text text-anchor="start" x="574" y="-74.5" font-family="Helvetica,sans-Serif" font-size="10.00">../../../Objects/ErrorHandler</text>
<text text-anchor="middle" x="639" y="-63.5" font-family="Helvetica,sans-Serif" font-size="10.00">/include/General_Error.hpp</text>
</a>
</g>
</g>
<!-- Node1&#45;&gt;Node3 -->
<g id="edge2" class="edge">
<title>Node1&#45;&gt;Node3</title>
<path fill="none" stroke="midnightblue" d="M749.79,-349.11C782.52,-342.49 820.48,-328.49 841,-299 868.67,-259.23 848.65,-237.84 841,-190 836.05,-159.05 841.64,-144.67 819,-123 793.07,-98.18 755.96,-85.38 722.16,-78.85"/>
<polygon fill="midnightblue" stroke="midnightblue" points="722.72,-75.39 712.26,-77.09 721.49,-82.28 722.72,-75.39"/>
</g>
<!-- Node5 -->
<g id="node5" class="node">
<title>Node5</title>
<g id="a_node5"><a xlink:title=" ">
<polygon fill="none" stroke="#bfbfbf" points="710,-0.5 710,-19.5 770,-19.5 770,-0.5 710,-0.5"/>
<text text-anchor="middle" x="740" y="-7.5" font-family="Helvetica,sans-Serif" font-size="10.00">iostream</text>
</a>
</g>
</g>
<!-- Node1&#45;&gt;Node5 -->
<g id="edge33" class="edge">
<title>Node1&#45;&gt;Node5</title>
<path fill="none" stroke="midnightblue" d="M749.53,-348.59C786.07,-341.79 831.53,-327.8 862,-299 894.06,-268.7 898,-250.61 898,-206.5 898,-206.5 898,-206.5 898,-137.5 898,-76.48 825.3,-40.04 778.53,-22.91"/>
<polygon fill="midnightblue" stroke="midnightblue" points="779.57,-19.56 768.98,-19.54 777.25,-26.17 779.57,-19.56"/>
</g>
<!-- Node6 -->
<g id="node6" class="node">
<title>Node6</title>
<g id="a_node6"><a xlink:href="../../d5/d40/_database___i_d___base_8hpp.html" target="_top" xlink:title=" ">
<polygon fill="none" stroke="black" points="700,-263 700,-293 832,-293 832,-263 700,-263"/>
<text text-anchor="start" x="708" y="-281" font-family="Helvetica,sans-Serif" font-size="10.00">../../../Global_Include</text>
<text text-anchor="middle" x="766" y="-270" font-family="Helvetica,sans-Serif" font-size="10.00">/Database_ID_Base.hpp</text>
</a>
</g>
</g>
<!-- Node1&#45;&gt;Node6 -->
<g id="edge5" class="edge">
<title>Node1&#45;&gt;Node6</title>
<path fill="none" stroke="midnightblue" d="M709.57,-335.43C720.29,-324.71 733.59,-311.41 744.59,-300.41"/>
<polygon fill="midnightblue" stroke="midnightblue" points="747.18,-302.77 751.77,-293.23 742.23,-297.82 747.18,-302.77"/>
</g>
<!-- Node8 -->
<g id="node8" class="node">
<title>Node8</title>
<g id="a_node8"><a xlink:href="../../d7/d60/_timeservice_8hpp.html" target="_top" xlink:title=" ">
<polygon fill="none" stroke="black" points="157.5,-190.5 157.5,-220.5 300.5,-220.5 300.5,-190.5 157.5,-190.5"/>
<text text-anchor="start" x="165.5" y="-208.5" font-family="Helvetica,sans-Serif" font-size="10.00">../../../Objects/Timeservice</text>
<text text-anchor="middle" x="229" y="-197.5" font-family="Helvetica,sans-Serif" font-size="10.00">/include/Timeservice.hpp</text>
</a>
</g>
</g>
<!-- Node1&#45;&gt;Node8 -->
<g id="edge7" class="edge">
<title>Node1&#45;&gt;Node8</title>
<path fill="none" stroke="midnightblue" d="M630.37,-354.73C558.84,-352.34 436.73,-341.62 342,-299 304.73,-282.23 269.59,-249.9 248.68,-228.26"/>
<polygon fill="midnightblue" stroke="midnightblue" points="251.05,-225.68 241.64,-220.82 245.97,-230.49 251.05,-225.68"/>
</g>
<!-- Node14 -->
<g id="node14" class="node">
<title>Node14</title>
<g id="a_node14"><a xlink:href="../../d4/d63/mqtt__api__v2_8hpp.html" target="_top" xlink:title=" ">
<polygon fill="none" stroke="black" points="548.5,-257.5 548.5,-298.5 681.5,-298.5 681.5,-257.5 548.5,-257.5"/>
<text text-anchor="start" x="556.5" y="-286.5" font-family="Helvetica,sans-Serif" font-size="10.00">../../../Protocols</text>
<text text-anchor="start" x="556.5" y="-275.5" font-family="Helvetica,sans-Serif" font-size="10.00">/MQTT/include/mqtt_api</text>
<text text-anchor="middle" x="615" y="-264.5" font-family="Helvetica,sans-Serif" font-size="10.00">_v2.hpp</text>
</a>
</g>
</g>
<!-- Node1&#45;&gt;Node14 -->
<g id="edge17" class="edge">
<title>Node1&#45;&gt;Node14</title>
<path fill="none" stroke="midnightblue" d="M670.69,-335.43C661.76,-326.39 651.03,-315.51 641.37,-305.72"/>
<polygon fill="midnightblue" stroke="midnightblue" points="643.76,-303.16 634.25,-298.51 638.78,-308.08 643.76,-303.16"/>
</g>
<!-- Node4 -->
<g id="node4" class="node">
<title>Node4</title>
<g id="a_node4"><a xlink:title=" ">
<polygon fill="none" stroke="#bfbfbf" points="564,-0.5 564,-19.5 608,-19.5 608,-0.5 564,-0.5"/>
<text text-anchor="middle" x="586" y="-7.5" font-family="Helvetica,sans-Serif" font-size="10.00">string</text>
</a>
</g>
</g>
<!-- Node3&#45;&gt;Node4 -->
<g id="edge3" class="edge">
<title>Node3&#45;&gt;Node4</title>
<path fill="none" stroke="midnightblue" d="M626.44,-56.4C618.66,-47.66 608.64,-36.41 600.52,-27.3"/>
<polygon fill="midnightblue" stroke="midnightblue" points="602.98,-24.8 593.71,-19.66 597.75,-29.45 602.98,-24.8"/>
</g>
<!-- Node3&#45;&gt;Node5 -->
<g id="edge4" class="edge">
<title>Node3&#45;&gt;Node5</title>
<path fill="none" stroke="midnightblue" d="M662.94,-56.4C679.13,-46.86 700.41,-34.32 716.5,-24.84"/>
<polygon fill="midnightblue" stroke="midnightblue" points="718.46,-27.75 725.3,-19.66 714.91,-21.72 718.46,-27.75"/>
</g>
<!-- Node7 -->
<g id="node7" class="node">
<title>Node7</title>
<g id="a_node7"><a xlink:title=" ">
<polygon fill="none" stroke="#bfbfbf" points="794,-196 794,-215 832,-215 832,-196 794,-196"/>
<text text-anchor="middle" x="813" y="-203" font-family="Helvetica,sans-Serif" font-size="10.00">map</text>
</a>
</g>
</g>
<!-- Node6&#45;&gt;Node7 -->
<g id="edge6" class="edge">
<title>Node6&#45;&gt;Node7</title>
<path fill="none" stroke="midnightblue" d="M775.51,-262.73C782.96,-251.56 793.36,-235.96 801.32,-224.02"/>
<polygon fill="midnightblue" stroke="midnightblue" points="804.44,-225.66 807.07,-215.39 798.61,-221.77 804.44,-225.66"/>
</g>
<!-- Node8&#45;&gt;Node2 -->
<g id="edge8" class="edge">
<title>Node8&#45;&gt;Node2</title>
<path fill="none" stroke="midnightblue" d="M166.47,-190.46C119.85,-177.11 68.46,-154.4 95,-123 123.91,-88.8 246.42,-77.75 325.38,-74.19"/>
<polygon fill="midnightblue" stroke="midnightblue" points="325.89,-77.67 335.74,-73.75 325.6,-70.68 325.89,-77.67"/>
</g>
<!-- Node8&#45;&gt;Node3 -->
<g id="edge9" class="edge">
<title>Node8&#45;&gt;Node3</title>
<path fill="none" stroke="midnightblue" d="M300.83,-201.6C391.97,-196.71 542.87,-184.22 589,-154 609.72,-140.43 623.27,-115 630.97,-96.14"/>
<polygon fill="midnightblue" stroke="midnightblue" points="634.27,-97.3 634.56,-86.71 627.73,-94.81 634.27,-97.3"/>
</g>
<!-- Node9 -->
<g id="node9" class="node">
<title>Node9</title>
<g id="a_node9"><a xlink:href="../../d6/d4b/_r_t_c___h_a_l_8hpp.html" target="_top" xlink:title=" ">
<polygon fill="none" stroke="black" points="104.5,-129 104.5,-148 185.5,-148 185.5,-129 104.5,-129"/>
<text text-anchor="middle" x="145" y="-136" font-family="Helvetica,sans-Serif" font-size="10.00">RTC_HAL.hpp</text>
</a>
</g>
</g>
<!-- Node8&#45;&gt;Node9 -->
<g id="edge10" class="edge">
<title>Node8&#45;&gt;Node9</title>
<path fill="none" stroke="midnightblue" d="M210.77,-190.4C197.03,-179.76 178.22,-165.2 164.23,-154.38"/>
<polygon fill="midnightblue" stroke="midnightblue" points="166.29,-151.55 156.24,-148.19 162,-157.08 166.29,-151.55"/>
</g>
<!-- Node11 -->
<g id="node11" class="node">
<title>Node11</title>
<g id="a_node11"><a xlink:title=" ">
<polygon fill="none" stroke="#bfbfbf" points="204,-129 204,-148 254,-148 254,-129 204,-129"/>
<text text-anchor="middle" x="229" y="-136" font-family="Helvetica,sans-Serif" font-size="10.00">chrono</text>
</a>
</g>
</g>
<!-- Node8&#45;&gt;Node11 -->
<g id="edge14" class="edge">
<title>Node8&#45;&gt;Node11</title>
<path fill="none" stroke="midnightblue" d="M229,-190.4C229,-181.06 229,-168.71 229,-158.52"/>
<polygon fill="midnightblue" stroke="midnightblue" points="232.5,-158.19 229,-148.19 225.5,-158.19 232.5,-158.19"/>
</g>
<!-- Node12 -->
<g id="node12" class="node">
<title>Node12</title>
<g id="a_node12"><a xlink:title=" ">
<polygon fill="none" stroke="#bfbfbf" points="272,-129 272,-148 328,-148 328,-129 272,-129"/>
<text text-anchor="middle" x="300" y="-136" font-family="Helvetica,sans-Serif" font-size="10.00">iomanip</text>
</a>
</g>
</g>
<!-- Node8&#45;&gt;Node12 -->
<g id="edge15" class="edge">
<title>Node8&#45;&gt;Node12</title>
<path fill="none" stroke="midnightblue" d="M244.41,-190.4C255.81,-179.96 271.33,-165.75 283.07,-155"/>
<polygon fill="midnightblue" stroke="midnightblue" points="285.49,-157.53 290.5,-148.19 280.76,-152.37 285.49,-157.53"/>
</g>
<!-- Node13 -->
<g id="node13" class="node">
<title>Node13</title>
<g id="a_node13"><a xlink:title=" ">
<polygon fill="none" stroke="#bfbfbf" points="0,-129 0,-148 48,-148 48,-129 0,-129"/>
<text text-anchor="middle" x="24" y="-136" font-family="Helvetica,sans-Serif" font-size="10.00">thread</text>
</a>
</g>
</g>
<!-- Node8&#45;&gt;Node13 -->
<g id="edge16" class="edge">
<title>Node8&#45;&gt;Node13</title>
<path fill="none" stroke="midnightblue" d="M179.38,-190.5C146.01,-180.83 101.13,-167.36 62,-154 59.74,-153.23 57.42,-152.41 55.09,-151.57"/>
<polygon fill="midnightblue" stroke="midnightblue" points="56.2,-148.25 45.61,-148.05 53.76,-154.81 56.2,-148.25"/>
</g>
<!-- Node9&#45;&gt;Node2 -->
<g id="edge11" class="edge">
<title>Node9&#45;&gt;Node2</title>
<path fill="none" stroke="midnightblue" d="M173.77,-128.98C180.71,-126.97 188.11,-124.87 195,-123 238.57,-111.16 287.75,-98.67 326.32,-89.07"/>
<polygon fill="midnightblue" stroke="midnightblue" points="327.53,-92.38 336.39,-86.57 325.84,-85.59 327.53,-92.38"/>
</g>
<!-- Node9&#45;&gt;Node3 -->
<g id="edge12" class="edge">
<title>Node9&#45;&gt;Node3</title>
<path fill="none" stroke="midnightblue" d="M171.26,-128.98C178.86,-126.76 187.2,-124.56 195,-123 261.94,-109.59 446.71,-90.75 555.64,-80.28"/>
<polygon fill="midnightblue" stroke="midnightblue" points="556,-83.76 565.62,-79.33 555.33,-76.8 556,-83.76"/>
</g>
<!-- Node10 -->
<g id="node10" class="node">
<title>Node10</title>
<g id="a_node10"><a xlink:title=" ">
<polygon fill="none" stroke="#bfbfbf" points="123,-62 123,-81 167,-81 167,-62 123,-62"/>
<text text-anchor="middle" x="145" y="-69" font-family="Helvetica,sans-Serif" font-size="10.00">ctime</text>
</a>
</g>
</g>
<!-- Node9&#45;&gt;Node10 -->
<g id="edge13" class="edge">
<title>Node9&#45;&gt;Node10</title>
<path fill="none" stroke="midnightblue" d="M145,-128.73C145,-119.18 145,-103.62 145,-91.28"/>
<polygon fill="midnightblue" stroke="midnightblue" points="148.5,-91.13 145,-81.13 141.5,-91.13 148.5,-91.13"/>
</g>
<!-- Node14&#45;&gt;Node2 -->
<g id="edge18" class="edge">
<title>Node14&#45;&gt;Node2</title>
<path fill="none" stroke="midnightblue" d="M556.23,-257.32C510.13,-238.53 448.76,-205.37 418,-154 407.43,-136.35 401.26,-113.75 397.82,-96.82"/>
<polygon fill="midnightblue" stroke="midnightblue" points="401.2,-95.83 395.94,-86.63 394.31,-97.1 401.2,-95.83"/>
</g>
<!-- Node14&#45;&gt;Node3 -->
<g id="edge19" class="edge">
<title>Node14&#45;&gt;Node3</title>
<path fill="none" stroke="midnightblue" d="M671.16,-257.49C715.85,-238.64 775.31,-205.32 803,-154 824.16,-114.78 772.99,-94.08 722.35,-83.37"/>
<polygon fill="midnightblue" stroke="midnightblue" points="722.74,-79.88 712.25,-81.36 721.38,-86.75 722.74,-79.88"/>
</g>
<!-- Node14&#45;&gt;Node7 -->
<g id="edge32" class="edge">
<title>Node14&#45;&gt;Node7</title>
<path fill="none" stroke="midnightblue" d="M676.97,-257.38C708.11,-247.16 746.3,-234.09 780,-221 781.6,-220.38 783.24,-219.72 784.89,-219.04"/>
<polygon fill="midnightblue" stroke="midnightblue" points="786.43,-222.19 794.27,-215.07 783.7,-215.75 786.43,-222.19"/>
</g>
<!-- Node15 -->
<g id="node15" class="node">
<title>Node15</title>
<g id="a_node15"><a xlink:href="../../de/dd1/_o_t_a_8hpp.html" target="_top" xlink:title=" ">
<polygon fill="none" stroke="black" points="563,-190.5 563,-220.5 667,-220.5 667,-190.5 563,-190.5"/>
<text text-anchor="start" x="571" y="-208.5" font-family="Helvetica,sans-Serif" font-size="10.00">../../../Objects/OTA</text>
<text text-anchor="middle" x="615" y="-197.5" font-family="Helvetica,sans-Serif" font-size="10.00">/include/OTA.hpp</text>
</a>
</g>
</g>
<!-- Node14&#45;&gt;Node15 -->
<g id="edge20" class="edge">
<title>Node14&#45;&gt;Node15</title>
<path fill="none" stroke="midnightblue" d="M615,-257.36C615,-249.23 615,-239.7 615,-231.11"/>
<polygon fill="midnightblue" stroke="midnightblue" points="618.5,-230.89 615,-220.89 611.5,-230.89 618.5,-230.89"/>
</g>
<!-- Node17 -->
<g id="node17" class="node">
<title>Node17</title>
<g id="a_node17"><a xlink:href="../../d3/d1c/_free_r_t_o_s_8h.html" target="_top" xlink:title=" ">
<polygon fill="none" stroke="black" points="674,-123.5 674,-153.5 794,-153.5 794,-123.5 674,-123.5"/>
<text text-anchor="start" x="682" y="-141.5" font-family="Helvetica,sans-Serif" font-size="10.00">../../../RTOS/FreeRTOS</text>
<text text-anchor="middle" x="734" y="-130.5" font-family="Helvetica,sans-Serif" font-size="10.00">/include/FreeRTOS.h</text>
</a>
</g>
</g>
<!-- Node14&#45;&gt;Node17 -->
<g id="edge27" class="edge">
<title>Node14&#45;&gt;Node17</title>
<path fill="none" stroke="midnightblue" d="M638.69,-257.33C650.46,-247.05 664.58,-233.93 676,-221 692.39,-202.44 708.52,-179.27 719.59,-162.38"/>
<polygon fill="midnightblue" stroke="midnightblue" points="722.7,-164.02 725.19,-153.72 716.82,-160.22 722.7,-164.02"/>
</g>
<!-- Node18 -->
<g id="node18" class="node">
<title>Node18</title>
<g id="a_node18"><a xlink:title=" ">
<polygon fill="none" stroke="#bfbfbf" points="495,-196 495,-215 545,-215 545,-196 495,-196"/>
<text text-anchor="middle" x="520" y="-203" font-family="Helvetica,sans-Serif" font-size="10.00">atomic</text>
</a>
</g>
</g>
<!-- Node14&#45;&gt;Node18 -->
<g id="edge31" class="edge">
<title>Node14&#45;&gt;Node18</title>
<path fill="none" stroke="midnightblue" d="M588.54,-257.36C573.08,-245.89 553.9,-231.65 539.76,-221.16"/>
<polygon fill="midnightblue" stroke="midnightblue" points="541.8,-218.32 531.69,-215.17 537.63,-223.94 541.8,-218.32"/>
</g>
<!-- Node15&#45;&gt;Node2 -->
<g id="edge21" class="edge">
<title>Node15&#45;&gt;Node2</title>
<path fill="none" stroke="midnightblue" d="M563.35,-190.41C518.86,-177.99 460.36,-160.82 451,-154 430.42,-139 414.63,-114.24 404.95,-95.93"/>
<polygon fill="midnightblue" stroke="midnightblue" points="407.96,-94.13 400.32,-86.78 401.71,-97.29 407.96,-94.13"/>
</g>
<!-- Node15&#45;&gt;Node3 -->
<g id="edge22" class="edge">
<title>Node15&#45;&gt;Node3</title>
<path fill="none" stroke="midnightblue" d="M617.57,-190.37C621.65,-167.94 629.65,-123.92 634.64,-96.49"/>
<polygon fill="midnightblue" stroke="midnightblue" points="638.1,-96.99 636.45,-86.52 631.22,-95.74 638.1,-96.99"/>
</g>
<!-- Node16 -->
<g id="node16" class="node">
<title>Node16</title>
<g id="a_node16"><a xlink:href="../../d5/dc5/_task_8h.html" target="_top" xlink:title=" ">
<polygon fill="none" stroke="black" points="460,-123.5 460,-153.5 580,-153.5 580,-123.5 460,-123.5"/>
<text text-anchor="start" x="468" y="-141.5" font-family="Helvetica,sans-Serif" font-size="10.00">../../../RTOS/FreeRTOS</text>
<text text-anchor="middle" x="520" y="-130.5" font-family="Helvetica,sans-Serif" font-size="10.00">/include/Task.h</text>
</a>
</g>
</g>
<!-- Node15&#45;&gt;Node16 -->
<g id="edge23" class="edge">
<title>Node15&#45;&gt;Node16</title>
<path fill="none" stroke="midnightblue" d="M594.39,-190.4C581.07,-181.28 563.54,-169.29 548.84,-159.24"/>
<polygon fill="midnightblue" stroke="midnightblue" points="550.8,-156.33 540.57,-153.58 546.85,-162.11 550.8,-156.33"/>
</g>
<!-- Node16&#45;&gt;Node2 -->
<g id="edge24" class="edge">
<title>Node16&#45;&gt;Node2</title>
<path fill="none" stroke="midnightblue" d="M492.66,-123.4C474.41,-113.98 450.22,-101.5 430.36,-91.26"/>
<polygon fill="midnightblue" stroke="midnightblue" points="431.78,-88.05 421.29,-86.58 428.57,-94.27 431.78,-88.05"/>
</g>
<!-- Node16&#45;&gt;Node3 -->
<g id="edge25" class="edge">
<title>Node16&#45;&gt;Node3</title>
<path fill="none" stroke="midnightblue" d="M545.82,-123.4C562.97,-114.03 585.7,-101.62 604.41,-91.39"/>
<polygon fill="midnightblue" stroke="midnightblue" points="606.13,-94.44 613.23,-86.58 602.78,-88.3 606.13,-94.44"/>
</g>
<!-- Node16&#45;&gt;Node4 -->
<g id="edge26" class="edge">
<title>Node16&#45;&gt;Node4</title>
<path fill="none" stroke="midnightblue" d="M525.68,-123.35C532.47,-106.86 544.5,-78.92 557,-56 562.17,-46.51 568.63,-36.36 574.13,-28.11"/>
<polygon fill="midnightblue" stroke="midnightblue" points="577.1,-29.97 579.83,-19.73 571.31,-26.03 577.1,-29.97"/>
</g>
<!-- Node17&#45;&gt;Node2 -->
<g id="edge28" class="edge">
<title>Node17&#45;&gt;Node2</title>
<path fill="none" stroke="midnightblue" d="M674,-126.03C614.77,-114.71 524.31,-97.41 462.34,-85.57"/>
<polygon fill="midnightblue" stroke="midnightblue" points="462.75,-82.08 452.27,-83.64 461.43,-88.95 462.75,-82.08"/>
</g>
<!-- Node17&#45;&gt;Node3 -->
<g id="edge29" class="edge">
<title>Node17&#45;&gt;Node3</title>
<path fill="none" stroke="midnightblue" d="M713.39,-123.4C700.07,-114.28 682.54,-102.29 667.84,-92.24"/>
<polygon fill="midnightblue" stroke="midnightblue" points="669.8,-89.33 659.57,-86.58 665.85,-95.11 669.8,-89.33"/>
</g>
<!-- Node17&#45;&gt;Node5 -->
<g id="edge30" class="edge">
<title>Node17&#45;&gt;Node5</title>
<path fill="none" stroke="midnightblue" d="M734.67,-123.48C735.74,-100.72 737.88,-55.7 739.1,-30.06"/>
<polygon fill="midnightblue" stroke="midnightblue" points="742.61,-29.94 739.58,-19.79 735.61,-29.61 742.61,-29.94"/>
</g>
</g>
</svg>
        <g id="navigator" transform="translate(0 0)" fill="#404254">
                <rect fill="#f2f5e9" fill-opacity="0.5" stroke="#606060" stroke-width=".5" x="0" y="0" width="60" height="60"/>
                <use id="zoomplus" xlink:href="#zoomPlus" x="17" y="9" onmousedown="handleZoom(evt,'in')"/>
                <use id="zoomminus" xlink:href="#zoomMin" x="42" y="9" onmousedown="handleZoom(evt,'out')"/>
                <use id="reset" xlink:href="#resetDef" x="30" y="36" onmousedown="handleReset()"/>
                <g id="arrowUp" xlink:href="#dirArrow" transform="translate(30 24)" onmousedown="handlePan(0,-1)">
                  <use xlink:href="#rim" fill="#404040">
                        <set attributeName="fill" to="#808080" begin="arrowUp.mouseover" end="arrowUp.mouseout"/>
                  </use>
                  <path fill="none" stroke="white" stroke-width="1.5" d="M0,-3.0v7 M-2.5,-0.5L0,-3.0L2.5,-0.5"/>
                </g>
                <g id="arrowRight" xlink:href="#dirArrow" transform="rotate(90) translate(36 -43)" onmousedown="handlePan(1,0)">
                  <use xlink:href="#rim" fill="#404040">
                        <set attributeName="fill" to="#808080" begin="arrowRight.mouseover" end="arrowRight.mouseout"/>
                  </use>
                  <path fill="none" stroke="white" stroke-width="1.5" d="M0,-3.0v7 M-2.5,-0.5L0,-3.0L2.5,-0.5"/>
                </g>
                <g id="arrowDown" xlink:href="#dirArrow" transform="rotate(180) translate(-30 -48)" onmousedown="handlePan(0,1)">
                  <use xlink:href="#rim" fill="#404040">
                        <set attributeName="fill" to="#808080" begin="arrowDown.mouseover" end="arrowDown.mouseout"/>
                  </use>
                  <path fill="none" stroke="white" stroke-width="1.5" d="M0,-3.0v7 M-2.5,-0.5L0,-3.0L2.5,-0.5"/>
                </g>
                <g id="arrowLeft" xlink:href="#dirArrow" transform="rotate(270) translate(-36 17)" onmousedown="handlePan(-1,0)">
                  <use xlink:href="#rim" fill="#404040">
                        <set attributeName="fill" to="#808080" begin="arrowLeft.mouseover" end="arrowLeft.mouseout"/>
                  </use>
                  <path fill="none" stroke="white" stroke-width="1.5" d="M0,-3.0v7 M-2.5,-0.5L0,-3.0L2.5,-0.5"/>
                </g>
        </g>
        <svg viewBox="0 0 15 15" width="100%" height="30px" preserveAspectRatio="xMaxYMin meet">
         <g id="arrow_out" transform="scale(0.3 0.3)">
          <a xlink:href="_error_code_parser_8hpp__incl_org.svg" target="_base">
           <rect id="button" ry="5" rx="5" y="6" x="6" height="38" width="38"
                fill="#f2f5e9" fill-opacity="0.5" stroke="#606060" stroke-width="1.0"/>
           <path id="arrow"
             d="M 11.500037,31.436501 C 11.940474,20.09759 22.043105,11.32322 32.158766,21.979434 L 37.068811,17.246167 C 37.068811,17.246167 37.088388,32 37.088388,32 L 22.160133,31.978069 C 22.160133,31.978069 26.997745,27.140456 26.997745,27.140456 C 18.528582,18.264221 13.291696,25.230495 11.500037,31.436501 z"
             style="fill:#404040;"/>
          </a>
         </g>
        </svg>
</svg>
