<?xml version="1.0" encoding="UTF-8" standalone="no"?>
<!DOCTYPE svg PUBLIC "-//W3C//DTD SVG 1.1//EN"
 "http://www.w3.org/Graphics/SVG/1.1/DTD/svg11.dtd">
<!-- Generated by graphviz version 2.43.0 (0)
 -->
<!-- Title: Components/Objects/ErrorHandler/include/ErrorCodeParser.hpp Pages: 1 -->
<svg width="886pt" height="385pt"
 viewBox="0.00 0.00 885.93 385.00" xmlns="http://www.w3.org/2000/svg" xmlns:xlink="http://www.w3.org/1999/xlink">
<g id="graph0" class="graph" transform="scale(1 1) rotate(0) translate(4 381)">
<title>Components/Objects/ErrorHandler/include/ErrorCodeParser.hpp</title>
<!-- Node1 -->
<g id="node1" class="node">
<title>Node1</title>
<g id="a_node1"><a xlink:title=" ">
<polygon fill="#bfbfbf" stroke="black" points="610.43,-335.5 610.43,-376.5 729.43,-376.5 729.43,-335.5 610.43,-335.5"/>
<text text-anchor="start" x="618.43" y="-364.5" font-family="Helvetica,sans-Serif" font-size="10.00">Components/Objects</text>
<text text-anchor="start" x="618.43" y="-353.5" font-family="Helvetica,sans-Serif" font-size="10.00">/ErrorHandler/include</text>
<text text-anchor="middle" x="669.93" y="-342.5" font-family="Helvetica,sans-Serif" font-size="10.00">/ErrorCodeParser.hpp</text>
</a>
</g>
</g>
<!-- Node2 -->
<g id="node2" class="node">
<title>Node2</title>
<g id="a_node2"><a xlink:href="../../da/d5f/_b_a_s_i_c_8hpp.html" target="_top" xlink:title=" ">
<polygon fill="none" stroke="black" points="315.93,-56.5 315.93,-86.5 431.93,-86.5 431.93,-56.5 315.93,-56.5"/>
<text text-anchor="start" x="323.93" y="-74.5" font-family="Helvetica,sans-Serif" font-size="10.00">../../../Global_Include</text>
<text text-anchor="middle" x="373.93" y="-63.5" font-family="Helvetica,sans-Serif" font-size="10.00">/BASIC.hpp</text>
</a>
</g>
</g>
<!-- Node1&#45;&gt;Node2 -->
<g id="edge1" class="edge">
<title>Node1&#45;&gt;Node2</title>
<path fill="none" stroke="midnightblue" d="M610.36,-337.5C582.04,-328.01 548.28,-314.94 519.93,-299 471.1,-271.54 457.9,-263.08 420.93,-221 398.04,-194.95 391.57,-187.01 380.93,-154 374.98,-135.55 373.38,-113.6 373.19,-97.14"/>
<polygon fill="midnightblue" stroke="midnightblue" points="376.69,-96.74 373.25,-86.72 369.69,-96.7 376.69,-96.74"/>
</g>
<!-- Node3 -->
<g id="node3" class="node">
<title>Node3</title>
<g id="a_node3"><a xlink:href="../../d3/deb/_general___error_8hpp.html" target="_top" xlink:title=" ">
<polygon fill="none" stroke="black" points="546.43,-56.5 546.43,-86.5 691.43,-86.5 691.43,-56.5 546.43,-56.5"/>
<text text-anchor="start" x="554.43" y="-74.5" font-family="Helvetica,sans-Serif" font-size="10.00">../../../Objects/ErrorHandler</text>
<text text-anchor="middle" x="618.93" y="-63.5" font-family="Helvetica,sans-Serif" font-size="10.00">/include/General_Error.hpp</text>
</a>
</g>
</g>
<!-- Node1&#45;&gt;Node3 -->
<g id="edge2" class="edge">
<title>Node1&#45;&gt;Node3</title>
<path fill="none" stroke="midnightblue" d="M729.72,-349.11C762.45,-342.49 800.41,-328.49 820.93,-299 848.59,-259.23 828.58,-237.84 820.93,-190 815.98,-159.05 821.57,-144.67 798.93,-123 772.89,-98.08 735.58,-85.28 701.67,-78.77"/>
<polygon fill="midnightblue" stroke="midnightblue" points="702.2,-75.31 691.74,-77.02 700.98,-82.2 702.2,-75.31"/>
</g>
<!-- Node5 -->
<g id="node5" class="node">
<title>Node5</title>
<g id="a_node5"><a xlink:title=" ">
<polygon fill="none" stroke="#bfbfbf" points="689.93,-0.5 689.93,-19.5 749.93,-19.5 749.93,-0.5 689.93,-0.5"/>
<text text-anchor="middle" x="719.93" y="-7.5" font-family="Helvetica,sans-Serif" font-size="10.00">iostream</text>
</a>
</g>
</g>
<!-- Node1&#45;&gt;Node5 -->
<g id="edge34" class="edge">
<title>Node1&#45;&gt;Node5</title>
<path fill="none" stroke="midnightblue" d="M729.46,-348.59C765.99,-341.79 811.46,-327.8 841.93,-299 873.99,-268.7 877.93,-250.61 877.93,-206.5 877.93,-206.5 877.93,-206.5 877.93,-137.5 877.93,-76.48 805.23,-40.04 758.46,-22.91"/>
<polygon fill="midnightblue" stroke="midnightblue" points="759.5,-19.56 748.91,-19.54 757.18,-26.17 759.5,-19.56"/>
</g>
<!-- Node6 -->
<g id="node6" class="node">
<title>Node6</title>
<g id="a_node6"><a xlink:href="../../d5/d40/_database___i_d___base_8hpp.html" target="_top" xlink:title=" ">
<polygon fill="none" stroke="black" points="679.93,-263 679.93,-293 811.93,-293 811.93,-263 679.93,-263"/>
<text text-anchor="start" x="687.93" y="-281" font-family="Helvetica,sans-Serif" font-size="10.00">../../../Global_Include</text>
<text text-anchor="middle" x="745.93" y="-270" font-family="Helvetica,sans-Serif" font-size="10.00">/Database_ID_Base.hpp</text>
</a>
</g>
</g>
<!-- Node1&#45;&gt;Node6 -->
<g id="edge5" class="edge">
<title>Node1&#45;&gt;Node6</title>
<path fill="none" stroke="midnightblue" d="M689.5,-335.43C700.22,-324.71 713.52,-311.41 724.52,-300.41"/>
<polygon fill="midnightblue" stroke="midnightblue" points="727.11,-302.77 731.7,-293.23 722.16,-297.82 727.11,-302.77"/>
</g>
<!-- Node8 -->
<g id="node8" class="node">
<title>Node8</title>
<g id="a_node8"><a xlink:href="../../d7/d60/_timeservice_8hpp.html" target="_top" xlink:title=" ">
<polygon fill="none" stroke="black" points="153.43,-190.5 153.43,-220.5 296.43,-220.5 296.43,-190.5 153.43,-190.5"/>
<text text-anchor="start" x="161.43" y="-208.5" font-family="Helvetica,sans-Serif" font-size="10.00">../../../Objects/Timeservice</text>
<text text-anchor="middle" x="224.93" y="-197.5" font-family="Helvetica,sans-Serif" font-size="10.00">/include/Timeservice.hpp</text>
</a>
</g>
</g>
<!-- Node1&#45;&gt;Node8 -->
<g id="edge7" class="edge">
<title>Node1&#45;&gt;Node8</title>
<path fill="none" stroke="midnightblue" d="M610.24,-349.7C524.54,-341.37 371.47,-323.58 321.93,-299 288.62,-282.47 259.1,-250.54 241.62,-228.87"/>
<polygon fill="midnightblue" stroke="midnightblue" points="244.24,-226.55 235.31,-220.85 238.74,-230.87 244.24,-226.55"/>
</g>
<!-- Node14 -->
<g id="node14" class="node">
<title>Node14</title>
<g id="a_node14"><a xlink:href="../../d4/d63/mqtt__api__v2_8hpp.html" target="_top" xlink:title=" ">
<polygon fill="none" stroke="black" points="528.43,-257.5 528.43,-298.5 661.43,-298.5 661.43,-257.5 528.43,-257.5"/>
<text text-anchor="start" x="536.43" y="-286.5" font-family="Helvetica,sans-Serif" font-size="10.00">../../../Protocols</text>
<text text-anchor="start" x="536.43" y="-275.5" font-family="Helvetica,sans-Serif" font-size="10.00">/MQTT/include/mqtt_api</text>
<text text-anchor="middle" x="594.93" y="-264.5" font-family="Helvetica,sans-Serif" font-size="10.00">_v2.hpp</text>
</a>
</g>
</g>
<!-- Node1&#45;&gt;Node14 -->
<g id="edge17" class="edge">
<title>Node1&#45;&gt;Node14</title>
<path fill="none" stroke="midnightblue" d="M650.61,-335.43C641.69,-326.39 630.96,-315.51 621.3,-305.72"/>
<polygon fill="midnightblue" stroke="midnightblue" points="623.69,-303.16 614.18,-298.51 618.71,-308.08 623.69,-303.16"/>
</g>
<!-- Node4 -->
<g id="node4" class="node">
<title>Node4</title>
<g id="a_node4"><a xlink:title=" ">
<polygon fill="none" stroke="#bfbfbf" points="543.93,-0.5 543.93,-19.5 587.93,-19.5 587.93,-0.5 543.93,-0.5"/>
<text text-anchor="middle" x="565.93" y="-7.5" font-family="Helvetica,sans-Serif" font-size="10.00">string</text>
</a>
</g>
</g>
<!-- Node3&#45;&gt;Node4 -->
<g id="edge3" class="edge">
<title>Node3&#45;&gt;Node4</title>
<path fill="none" stroke="midnightblue" d="M606.37,-56.4C598.59,-47.66 588.57,-36.41 580.44,-27.3"/>
<polygon fill="midnightblue" stroke="midnightblue" points="582.91,-24.8 573.64,-19.66 577.68,-29.45 582.91,-24.8"/>
</g>
<!-- Node3&#45;&gt;Node5 -->
<g id="edge4" class="edge">
<title>Node3&#45;&gt;Node5</title>
<path fill="none" stroke="midnightblue" d="M642.86,-56.4C659.05,-46.86 680.34,-34.32 696.43,-24.84"/>
<polygon fill="midnightblue" stroke="midnightblue" points="698.39,-27.75 705.23,-19.66 694.84,-21.72 698.39,-27.75"/>
</g>
<!-- Node7 -->
<g id="node7" class="node">
<title>Node7</title>
<g id="a_node7"><a xlink:title=" ">
<polygon fill="none" stroke="#bfbfbf" points="773.93,-196 773.93,-215 811.93,-215 811.93,-196 773.93,-196"/>
<text text-anchor="middle" x="792.93" y="-203" font-family="Helvetica,sans-Serif" font-size="10.00">map</text>
</a>
</g>
</g>
<!-- Node6&#45;&gt;Node7 -->
<g id="edge6" class="edge">
<title>Node6&#45;&gt;Node7</title>
<path fill="none" stroke="midnightblue" d="M755.44,-262.73C762.89,-251.56 773.29,-235.96 781.25,-224.02"/>
<polygon fill="midnightblue" stroke="midnightblue" points="784.37,-225.66 787,-215.39 778.54,-221.77 784.37,-225.66"/>
</g>
<!-- Node8&#45;&gt;Node2 -->
<g id="edge8" class="edge">
<title>Node8&#45;&gt;Node2</title>
<path fill="none" stroke="midnightblue" d="M153.33,-200.31C75.16,-193.13 -33.38,-173.9 10.93,-123 29.96,-101.13 205.86,-84.81 305.63,-77.22"/>
<polygon fill="midnightblue" stroke="midnightblue" points="305.92,-80.7 315.63,-76.46 305.4,-73.72 305.92,-80.7"/>
</g>
<!-- Node8&#45;&gt;Node3 -->
<g id="edge9" class="edge">
<title>Node8&#45;&gt;Node3</title>
<path fill="none" stroke="midnightblue" d="M296.6,-201.06C383.98,-195.67 525.41,-182.71 568.93,-154 589.6,-140.36 603.16,-114.94 610.88,-96.1"/>
<polygon fill="midnightblue" stroke="midnightblue" points="614.17,-97.28 614.48,-86.69 607.63,-94.78 614.17,-97.28"/>
</g>
<!-- Node9 -->
<g id="node9" class="node">
<title>Node9</title>
<g id="a_node9"><a xlink:href="../../d6/d4b/_r_t_c___h_a_l_8hpp.html" target="_top" xlink:title=" ">
<polygon fill="none" stroke="black" points="87.93,-129 87.93,-148 167.93,-148 167.93,-129 87.93,-129"/>
<text text-anchor="middle" x="127.93" y="-136" font-family="Helvetica,sans-Serif" font-size="10.00">RTC_HAL.hpp</text>
</a>
</g>
</g>
<!-- Node8&#45;&gt;Node9 -->
<g id="edge10" class="edge">
<title>Node8&#45;&gt;Node9</title>
<path fill="none" stroke="midnightblue" d="M203.88,-190.4C187.61,-179.5 165.2,-164.48 148.95,-153.58"/>
<polygon fill="midnightblue" stroke="midnightblue" points="150.88,-150.67 140.62,-148.01 146.98,-156.48 150.88,-150.67"/>
</g>
<!-- Node11 -->
<g id="node11" class="node">
<title>Node11</title>
<g id="a_node11"><a xlink:title=" ">
<polygon fill="none" stroke="#bfbfbf" points="19.93,-129 19.93,-148 69.93,-148 69.93,-129 19.93,-129"/>
<text text-anchor="middle" x="44.93" y="-136" font-family="Helvetica,sans-Serif" font-size="10.00">chrono</text>
</a>
</g>
</g>
<!-- Node8&#45;&gt;Node11 -->
<g id="edge14" class="edge">
<title>Node8&#45;&gt;Node11</title>
<path fill="none" stroke="midnightblue" d="M181.84,-190.48C152.62,-180.75 113.21,-167.22 78.93,-154 77.28,-153.37 75.6,-152.7 73.9,-152.02"/>
<polygon fill="midnightblue" stroke="midnightblue" points="74.83,-148.61 64.25,-148.02 72.15,-155.08 74.83,-148.61"/>
</g>
<!-- Node12 -->
<g id="node12" class="node">
<title>Node12</title>
<g id="a_node12"><a xlink:title=" ">
<polygon fill="none" stroke="#bfbfbf" points="185.93,-129 185.93,-148 241.93,-148 241.93,-129 185.93,-129"/>
<text text-anchor="middle" x="213.93" y="-136" font-family="Helvetica,sans-Serif" font-size="10.00">iomanip</text>
</a>
</g>
</g>
<!-- Node8&#45;&gt;Node12 -->
<g id="edge15" class="edge">
<title>Node8&#45;&gt;Node12</title>
<path fill="none" stroke="midnightblue" d="M222.54,-190.4C220.95,-180.96 218.83,-168.45 217.09,-158.19"/>
<polygon fill="midnightblue" stroke="midnightblue" points="220.52,-157.47 215.4,-148.19 213.62,-158.64 220.52,-157.47"/>
</g>
<!-- Node13 -->
<g id="node13" class="node">
<title>Node13</title>
<g id="a_node13"><a xlink:title=" ">
<polygon fill="none" stroke="#bfbfbf" points="259.93,-129 259.93,-148 307.93,-148 307.93,-129 259.93,-129"/>
<text text-anchor="middle" x="283.93" y="-136" font-family="Helvetica,sans-Serif" font-size="10.00">thread</text>
</a>
</g>
</g>
<!-- Node8&#45;&gt;Node13 -->
<g id="edge16" class="edge">
<title>Node8&#45;&gt;Node13</title>
<path fill="none" stroke="midnightblue" d="M237.73,-190.4C247.02,-180.16 259.61,-166.3 269.3,-155.62"/>
<polygon fill="midnightblue" stroke="midnightblue" points="271.91,-157.95 276.04,-148.19 266.72,-153.25 271.91,-157.95"/>
</g>
<!-- Node9&#45;&gt;Node2 -->
<g id="edge11" class="edge">
<title>Node9&#45;&gt;Node2</title>
<path fill="none" stroke="midnightblue" d="M156.12,-128.96C162.92,-126.96 170.17,-124.86 176.93,-123 220.04,-111.1 268.73,-98.61 306.91,-89.03"/>
<polygon fill="midnightblue" stroke="midnightblue" points="308.03,-92.36 316.89,-86.53 306.33,-85.57 308.03,-92.36"/>
</g>
<!-- Node9&#45;&gt;Node3 -->
<g id="edge12" class="edge">
<title>Node9&#45;&gt;Node3</title>
<path fill="none" stroke="midnightblue" d="M153.66,-128.97C161.1,-126.76 169.28,-124.56 176.93,-123 243.56,-109.44 427.62,-90.65 536.06,-80.23"/>
<polygon fill="midnightblue" stroke="midnightblue" points="536.69,-83.69 546.31,-79.25 536.02,-76.72 536.69,-83.69"/>
</g>
<!-- Node10 -->
<g id="node10" class="node">
<title>Node10</title>
<g id="a_node10"><a xlink:title=" ">
<polygon fill="none" stroke="#bfbfbf" points="105.93,-62 105.93,-81 149.93,-81 149.93,-62 105.93,-62"/>
<text text-anchor="middle" x="127.93" y="-69" font-family="Helvetica,sans-Serif" font-size="10.00">ctime</text>
</a>
</g>
</g>
<!-- Node9&#45;&gt;Node10 -->
<g id="edge13" class="edge">
<title>Node9&#45;&gt;Node10</title>
<path fill="none" stroke="midnightblue" d="M127.93,-128.73C127.93,-119.18 127.93,-103.62 127.93,-91.28"/>
<polygon fill="midnightblue" stroke="midnightblue" points="131.43,-91.13 127.93,-81.13 124.43,-91.13 131.43,-91.13"/>
</g>
<!-- Node14&#45;&gt;Node2 -->
<g id="edge18" class="edge">
<title>Node14&#45;&gt;Node2</title>
<path fill="none" stroke="midnightblue" d="M537.62,-257.49C514.34,-248.23 487.83,-235.9 465.93,-221 431.11,-197.31 420.64,-190.09 398.93,-154 388.29,-136.31 381.82,-113.71 378.14,-96.8"/>
<polygon fill="midnightblue" stroke="midnightblue" points="381.5,-95.73 376.11,-86.61 374.63,-97.11 381.5,-95.73"/>
</g>
<!-- Node14&#45;&gt;Node3 -->
<g id="edge19" class="edge">
<title>Node14&#45;&gt;Node3</title>
<path fill="none" stroke="midnightblue" d="M651.09,-257.49C695.78,-238.64 755.24,-205.32 782.93,-154 804.2,-114.57 752.36,-93.85 701.46,-83.2"/>
<polygon fill="midnightblue" stroke="midnightblue" points="702.13,-79.76 691.64,-81.26 700.78,-86.63 702.13,-79.76"/>
</g>
<!-- Node14&#45;&gt;Node7 -->
<g id="edge33" class="edge">
<title>Node14&#45;&gt;Node7</title>
<path fill="none" stroke="midnightblue" d="M656.9,-257.38C688.04,-247.16 726.23,-234.09 759.93,-221 761.53,-220.38 763.17,-219.72 764.82,-219.04"/>
<polygon fill="midnightblue" stroke="midnightblue" points="766.36,-222.19 774.2,-215.07 763.63,-215.75 766.36,-222.19"/>
</g>
<!-- Node14&#45;&gt;Node8 -->
<g id="edge31" class="edge">
<title>Node14&#45;&gt;Node8</title>
<path fill="none" stroke="midnightblue" d="M528.35,-264.31C466.21,-252.47 373.32,-234.77 306.7,-222.08"/>
<polygon fill="midnightblue" stroke="midnightblue" points="307.13,-218.6 296.65,-220.17 305.82,-225.48 307.13,-218.6"/>
</g>
<!-- Node15 -->
<g id="node15" class="node">
<title>Node15</title>
<g id="a_node15"><a xlink:href="../../de/dd1/_o_t_a_8hpp.html" target="_top" xlink:title=" ">
<polygon fill="none" stroke="black" points="543.43,-190.5 543.43,-220.5 646.43,-220.5 646.43,-190.5 543.43,-190.5"/>
<text text-anchor="start" x="551.43" y="-208.5" font-family="Helvetica,sans-Serif" font-size="10.00">../../../Objects/OTA</text>
<text text-anchor="middle" x="594.93" y="-197.5" font-family="Helvetica,sans-Serif" font-size="10.00">/include/OTA.hpp</text>
</a>
</g>
</g>
<!-- Node14&#45;&gt;Node15 -->
<g id="edge20" class="edge">
<title>Node14&#45;&gt;Node15</title>
<path fill="none" stroke="midnightblue" d="M594.93,-257.36C594.93,-249.23 594.93,-239.7 594.93,-231.11"/>
<polygon fill="midnightblue" stroke="midnightblue" points="598.43,-230.89 594.93,-220.89 591.43,-230.89 598.43,-230.89"/>
</g>
<!-- Node17 -->
<g id="node17" class="node">
<title>Node17</title>
<g id="a_node17"><a xlink:href="../../d3/d1c/_free_r_t_o_s_8h.html" target="_top" xlink:title=" ">
<polygon fill="none" stroke="black" points="654.43,-123.5 654.43,-153.5 773.43,-153.5 773.43,-123.5 654.43,-123.5"/>
<text text-anchor="start" x="662.43" y="-141.5" font-family="Helvetica,sans-Serif" font-size="10.00">../../../RTOS/FreeRTOS</text>
<text text-anchor="middle" x="713.93" y="-130.5" font-family="Helvetica,sans-Serif" font-size="10.00">/include/FreeRTOS.h</text>
</a>
</g>
</g>
<!-- Node14&#45;&gt;Node17 -->
<g id="edge27" class="edge">
<title>Node14&#45;&gt;Node17</title>
<path fill="none" stroke="midnightblue" d="M618.62,-257.33C630.39,-247.05 644.51,-233.93 655.93,-221 672.32,-202.44 688.45,-179.27 699.52,-162.38"/>
<polygon fill="midnightblue" stroke="midnightblue" points="702.63,-164.02 705.12,-153.72 696.75,-160.22 702.63,-164.02"/>
</g>
<!-- Node18 -->
<g id="node18" class="node">
<title>Node18</title>
<g id="a_node18"><a xlink:title=" ">
<polygon fill="none" stroke="#bfbfbf" points="474.93,-196 474.93,-215 524.93,-215 524.93,-196 474.93,-196"/>
<text text-anchor="middle" x="499.93" y="-203" font-family="Helvetica,sans-Serif" font-size="10.00">atomic</text>
</a>
</g>
</g>
<!-- Node14&#45;&gt;Node18 -->
<g id="edge32" class="edge">
<title>Node14&#45;&gt;Node18</title>
<path fill="none" stroke="midnightblue" d="M568.47,-257.36C553.01,-245.89 533.82,-231.65 519.69,-221.16"/>
<polygon fill="midnightblue" stroke="midnightblue" points="521.73,-218.32 511.62,-215.17 517.56,-223.94 521.73,-218.32"/>
</g>
<!-- Node15&#45;&gt;Node2 -->
<g id="edge21" class="edge">
<title>Node15&#45;&gt;Node2</title>
<path fill="none" stroke="midnightblue" d="M543.09,-192.29C502.45,-182.02 449.87,-166.98 431.93,-154 411.08,-138.92 394.94,-113.99 385.03,-95.67"/>
<polygon fill="midnightblue" stroke="midnightblue" points="388.14,-94.05 380.43,-86.78 381.92,-97.27 388.14,-94.05"/>
</g>
<!-- Node15&#45;&gt;Node3 -->
<g id="edge22" class="edge">
<title>Node15&#45;&gt;Node3</title>
<path fill="none" stroke="midnightblue" d="M597.5,-190.37C601.58,-167.94 609.58,-123.92 614.57,-96.49"/>
<polygon fill="midnightblue" stroke="midnightblue" points="618.03,-96.99 616.38,-86.52 611.15,-95.74 618.03,-96.99"/>
</g>
<!-- Node16 -->
<g id="node16" class="node">
<title>Node16</title>
<g id="a_node16"><a xlink:href="../../d5/dc5/_task_8h.html" target="_top" xlink:title=" ">
<polygon fill="none" stroke="black" points="440.43,-123.5 440.43,-153.5 559.43,-153.5 559.43,-123.5 440.43,-123.5"/>
<text text-anchor="start" x="448.43" y="-141.5" font-family="Helvetica,sans-Serif" font-size="10.00">../../../RTOS/FreeRTOS</text>
<text text-anchor="middle" x="499.93" y="-130.5" font-family="Helvetica,sans-Serif" font-size="10.00">/include/Task.h</text>
</a>
</g>
</g>
<!-- Node15&#45;&gt;Node16 -->
<g id="edge23" class="edge">
<title>Node15&#45;&gt;Node16</title>
<path fill="none" stroke="midnightblue" d="M574.32,-190.4C561,-181.28 543.47,-169.29 528.77,-159.24"/>
<polygon fill="midnightblue" stroke="midnightblue" points="530.73,-156.33 520.5,-153.58 526.78,-162.11 530.73,-156.33"/>
</g>
<!-- Node16&#45;&gt;Node2 -->
<g id="edge24" class="edge">
<title>Node16&#45;&gt;Node2</title>
<path fill="none" stroke="midnightblue" d="M472.59,-123.4C454.34,-113.98 430.15,-101.5 410.29,-91.26"/>
<polygon fill="midnightblue" stroke="midnightblue" points="411.71,-88.05 401.22,-86.58 408.5,-94.27 411.71,-88.05"/>
</g>
<!-- Node16&#45;&gt;Node3 -->
<g id="edge25" class="edge">
<title>Node16&#45;&gt;Node3</title>
<path fill="none" stroke="midnightblue" d="M525.75,-123.4C542.9,-114.03 565.63,-101.62 584.34,-91.39"/>
<polygon fill="midnightblue" stroke="midnightblue" points="586.06,-94.44 593.16,-86.58 582.7,-88.3 586.06,-94.44"/>
</g>
<!-- Node16&#45;&gt;Node4 -->
<g id="edge26" class="edge">
<title>Node16&#45;&gt;Node4</title>
<path fill="none" stroke="midnightblue" d="M505.88,-123.4C512.98,-106.95 525.44,-79.06 537.93,-56 543.02,-46.59 549.27,-36.45 554.56,-28.18"/>
<polygon fill="midnightblue" stroke="midnightblue" points="557.51,-30.07 560.03,-19.78 551.64,-26.25 557.51,-30.07"/>
</g>
<!-- Node17&#45;&gt;Node2 -->
<g id="edge28" class="edge">
<title>Node17&#45;&gt;Node2</title>
<path fill="none" stroke="midnightblue" d="M654.32,-126.1C595.05,-114.77 504.26,-97.42 442.15,-85.54"/>
<polygon fill="midnightblue" stroke="midnightblue" points="442.53,-82.05 432.05,-83.61 441.22,-88.93 442.53,-82.05"/>
</g>
<!-- Node17&#45;&gt;Node3 -->
<g id="edge29" class="edge">
<title>Node17&#45;&gt;Node3</title>
<path fill="none" stroke="midnightblue" d="M693.32,-123.4C680,-114.28 662.47,-102.29 647.77,-92.24"/>
<polygon fill="midnightblue" stroke="midnightblue" points="649.73,-89.33 639.5,-86.58 645.78,-95.11 649.73,-89.33"/>
</g>
<!-- Node17&#45;&gt;Node5 -->
<g id="edge30" class="edge">
<title>Node17&#45;&gt;Node5</title>
<path fill="none" stroke="midnightblue" d="M714.59,-123.48C715.67,-100.72 717.81,-55.7 719.03,-30.06"/>
<polygon fill="midnightblue" stroke="midnightblue" points="722.53,-29.94 719.51,-19.79 715.54,-29.61 722.53,-29.94"/>
</g>
</g>
</svg>
