<?xml version="1.0" encoding="UTF-8" standalone="no"?>
<!DOCTYPE svg PUBLIC "-//W3C//DTD SVG 1.1//EN"
 "http://www.w3.org/Graphics/SVG/1.1/DTD/svg11.dtd">
<!-- Generated by graphviz version 2.43.0 (0)
 -->
<!-- Title: Components/Objects/ErrorHandler/include/ErrorCodeParser.hpp Pages: 1 -->
<svg width="904pt" height="385pt"
 viewBox="0.00 0.00 904.00 385.00" xmlns="http://www.w3.org/2000/svg" xmlns:xlink="http://www.w3.org/1999/xlink">
<g id="graph0" class="graph" transform="scale(1 1) rotate(0) translate(4 381)">
<title>Components/Objects/ErrorHandler/include/ErrorCodeParser.hpp</title>
<!-- Node1 -->
<g id="node1" class="node">
<title>Node1</title>
<g id="a_node1"><a xlink:title=" ">
<polygon fill="#bfbfbf" stroke="black" points="628.5,-335.5 628.5,-376.5 747.5,-376.5 747.5,-335.5 628.5,-335.5"/>
<text text-anchor="start" x="636.5" y="-364.5" font-family="Helvetica,sans-Serif" font-size="10.00">Components/Objects</text>
<text text-anchor="start" x="636.5" y="-353.5" font-family="Helvetica,sans-Serif" font-size="10.00">/ErrorHandler/include</text>
<text text-anchor="middle" x="688" y="-342.5" font-family="Helvetica,sans-Serif" font-size="10.00">/ErrorCodeParser.hpp</text>
</a>
</g>
</g>
<!-- Node2 -->
<g id="node2" class="node">
<title>Node2</title>
<g id="a_node2"><a xlink:href="../../da/d5f/_b_a_s_i_c_8hpp.html" target="_top" xlink:title=" ">
<polygon fill="none" stroke="black" points="334,-56.5 334,-86.5 450,-86.5 450,-56.5 334,-56.5"/>
<text text-anchor="start" x="342" y="-74.5" font-family="Helvetica,sans-Serif" font-size="10.00">../../../Global_Include</text>
<text text-anchor="middle" x="392" y="-63.5" font-family="Helvetica,sans-Serif" font-size="10.00">/BASIC.hpp</text>
</a>
</g>
</g>
<!-- Node1&#45;&gt;Node2 -->
<g id="edge1" class="edge">
<title>Node1&#45;&gt;Node2</title>
<path fill="none" stroke="midnightblue" d="M628.43,-337.5C600.12,-328.01 566.35,-314.94 538,-299 489.18,-271.54 475.97,-263.08 439,-221 416.11,-194.95 409.64,-187.01 399,-154 393.05,-135.55 391.46,-113.6 391.26,-97.14"/>
<polygon fill="midnightblue" stroke="midnightblue" points="394.76,-96.74 391.32,-86.72 387.76,-96.7 394.76,-96.74"/>
</g>
<!-- Node3 -->
<g id="node3" class="node">
<title>Node3</title>
<g id="a_node3"><a xlink:href="../../d3/deb/_general___error_8hpp.html" target="_top" xlink:title=" ">
<polygon fill="none" stroke="black" points="564.5,-56.5 564.5,-86.5 709.5,-86.5 709.5,-56.5 564.5,-56.5"/>
<text text-anchor="start" x="572.5" y="-74.5" font-family="Helvetica,sans-Serif" font-size="10.00">../../../Objects/ErrorHandler</text>
<text text-anchor="middle" x="637" y="-63.5" font-family="Helvetica,sans-Serif" font-size="10.00">/include/General_Error.hpp</text>
</a>
</g>
</g>
<!-- Node1&#45;&gt;Node3 -->
<g id="edge2" class="edge">
<title>Node1&#45;&gt;Node3</title>
<path fill="none" stroke="midnightblue" d="M747.79,-349.11C780.52,-342.49 818.48,-328.49 839,-299 866.67,-259.23 846.65,-237.84 839,-190 834.05,-159.05 839.64,-144.67 817,-123 790.97,-98.08 753.65,-85.28 719.74,-78.77"/>
<polygon fill="midnightblue" stroke="midnightblue" points="720.27,-75.31 709.81,-77.02 719.05,-82.2 720.27,-75.31"/>
</g>
<!-- Node5 -->
<g id="node5" class="node">
<title>Node5</title>
<g id="a_node5"><a xlink:title=" ">
<polygon fill="none" stroke="#bfbfbf" points="708,-0.5 708,-19.5 768,-19.5 768,-0.5 708,-0.5"/>
<text text-anchor="middle" x="738" y="-7.5" font-family="Helvetica,sans-Serif" font-size="10.00">iostream</text>
</a>
</g>
</g>
<!-- Node1&#45;&gt;Node5 -->
<g id="edge33" class="edge">
<title>Node1&#45;&gt;Node5</title>
<path fill="none" stroke="midnightblue" d="M747.53,-348.59C784.07,-341.79 829.53,-327.8 860,-299 892.06,-268.7 896,-250.61 896,-206.5 896,-206.5 896,-206.5 896,-137.5 896,-76.48 823.3,-40.04 776.53,-22.91"/>
<polygon fill="midnightblue" stroke="midnightblue" points="777.57,-19.56 766.98,-19.54 775.25,-26.17 777.57,-19.56"/>
</g>
<!-- Node6 -->
<g id="node6" class="node">
<title>Node6</title>
<g id="a_node6"><a xlink:href="../../d5/d40/_database___i_d___base_8hpp.html" target="_top" xlink:title=" ">
<polygon fill="none" stroke="black" points="698,-263 698,-293 830,-293 830,-263 698,-263"/>
<text text-anchor="start" x="706" y="-281" font-family="Helvetica,sans-Serif" font-size="10.00">../../../Global_Include</text>
<text text-anchor="middle" x="764" y="-270" font-family="Helvetica,sans-Serif" font-size="10.00">/Database_ID_Base.hpp</text>
</a>
</g>
</g>
<!-- Node1&#45;&gt;Node6 -->
<g id="edge5" class="edge">
<title>Node1&#45;&gt;Node6</title>
<path fill="none" stroke="midnightblue" d="M707.57,-335.43C718.29,-324.71 731.59,-311.41 742.59,-300.41"/>
<polygon fill="midnightblue" stroke="midnightblue" points="745.18,-302.77 749.77,-293.23 740.23,-297.82 745.18,-302.77"/>
</g>
<!-- Node8 -->
<g id="node8" class="node">
<title>Node8</title>
<g id="a_node8"><a xlink:href="../../d7/d60/_timeservice_8hpp.html" target="_top" xlink:title=" ">
<polygon fill="none" stroke="black" points="155.5,-190.5 155.5,-220.5 298.5,-220.5 298.5,-190.5 155.5,-190.5"/>
<text text-anchor="start" x="163.5" y="-208.5" font-family="Helvetica,sans-Serif" font-size="10.00">../../../Objects/Timeservice</text>
<text text-anchor="middle" x="227" y="-197.5" font-family="Helvetica,sans-Serif" font-size="10.00">/include/Timeservice.hpp</text>
</a>
</g>
</g>
<!-- Node1&#45;&gt;Node8 -->
<g id="edge7" class="edge">
<title>Node1&#45;&gt;Node8</title>
<path fill="none" stroke="midnightblue" d="M628.37,-354.73C556.84,-352.34 434.73,-341.62 340,-299 302.73,-282.23 267.59,-249.9 246.68,-228.26"/>
<polygon fill="midnightblue" stroke="midnightblue" points="249.05,-225.68 239.64,-220.82 243.97,-230.49 249.05,-225.68"/>
</g>
<!-- Node14 -->
<g id="node14" class="node">
<title>Node14</title>
<g id="a_node14"><a xlink:href="../../d4/d63/mqtt__api__v2_8hpp.html" target="_top" xlink:title=" ">
<polygon fill="none" stroke="black" points="546.5,-257.5 546.5,-298.5 679.5,-298.5 679.5,-257.5 546.5,-257.5"/>
<text text-anchor="start" x="554.5" y="-286.5" font-family="Helvetica,sans-Serif" font-size="10.00">../../../Protocols</text>
<text text-anchor="start" x="554.5" y="-275.5" font-family="Helvetica,sans-Serif" font-size="10.00">/MQTT/include/mqtt_api</text>
<text text-anchor="middle" x="613" y="-264.5" font-family="Helvetica,sans-Serif" font-size="10.00">_v2.hpp</text>
</a>
</g>
</g>
<!-- Node1&#45;&gt;Node14 -->
<g id="edge17" class="edge">
<title>Node1&#45;&gt;Node14</title>
<path fill="none" stroke="midnightblue" d="M668.69,-335.43C659.76,-326.39 649.03,-315.51 639.37,-305.72"/>
<polygon fill="midnightblue" stroke="midnightblue" points="641.76,-303.16 632.25,-298.51 636.78,-308.08 641.76,-303.16"/>
</g>
<!-- Node4 -->
<g id="node4" class="node">
<title>Node4</title>
<g id="a_node4"><a xlink:title=" ">
<polygon fill="none" stroke="#bfbfbf" points="562,-0.5 562,-19.5 606,-19.5 606,-0.5 562,-0.5"/>
<text text-anchor="middle" x="584" y="-7.5" font-family="Helvetica,sans-Serif" font-size="10.00">string</text>
</a>
</g>
</g>
<!-- Node3&#45;&gt;Node4 -->
<g id="edge3" class="edge">
<title>Node3&#45;&gt;Node4</title>
<path fill="none" stroke="midnightblue" d="M624.44,-56.4C616.66,-47.66 606.64,-36.41 598.52,-27.3"/>
<polygon fill="midnightblue" stroke="midnightblue" points="600.98,-24.8 591.71,-19.66 595.75,-29.45 600.98,-24.8"/>
</g>
<!-- Node3&#45;&gt;Node5 -->
<g id="edge4" class="edge">
<title>Node3&#45;&gt;Node5</title>
<path fill="none" stroke="midnightblue" d="M660.94,-56.4C677.13,-46.86 698.41,-34.32 714.5,-24.84"/>
<polygon fill="midnightblue" stroke="midnightblue" points="716.46,-27.75 723.3,-19.66 712.91,-21.72 716.46,-27.75"/>
</g>
<!-- Node7 -->
<g id="node7" class="node">
<title>Node7</title>
<g id="a_node7"><a xlink:title=" ">
<polygon fill="none" stroke="#bfbfbf" points="792,-196 792,-215 830,-215 830,-196 792,-196"/>
<text text-anchor="middle" x="811" y="-203" font-family="Helvetica,sans-Serif" font-size="10.00">map</text>
</a>
</g>
</g>
<!-- Node6&#45;&gt;Node7 -->
<g id="edge6" class="edge">
<title>Node6&#45;&gt;Node7</title>
<path fill="none" stroke="midnightblue" d="M773.51,-262.73C780.96,-251.56 791.36,-235.96 799.32,-224.02"/>
<polygon fill="midnightblue" stroke="midnightblue" points="802.44,-225.66 805.07,-215.39 796.61,-221.77 802.44,-225.66"/>
</g>
<!-- Node8&#45;&gt;Node2 -->
<g id="edge8" class="edge">
<title>Node8&#45;&gt;Node2</title>
<path fill="none" stroke="midnightblue" d="M165.81,-190.43C119.74,-177 68.68,-154.18 95,-123 123.66,-89.06 245.06,-77.92 323.5,-74.28"/>
<polygon fill="midnightblue" stroke="midnightblue" points="323.96,-77.76 333.79,-73.83 323.65,-70.77 323.96,-77.76"/>
</g>
<!-- Node8&#45;&gt;Node3 -->
<g id="edge9" class="edge">
<title>Node8&#45;&gt;Node3</title>
<path fill="none" stroke="midnightblue" d="M298.83,-201.6C389.97,-196.71 540.87,-184.22 587,-154 607.72,-140.43 621.27,-115 628.97,-96.14"/>
<polygon fill="midnightblue" stroke="midnightblue" points="632.27,-97.3 632.56,-86.71 625.73,-94.81 632.27,-97.3"/>
</g>
<!-- Node9 -->
<g id="node9" class="node">
<title>Node9</title>
<g id="a_node9"><a xlink:href="../../d6/d4b/_r_t_c___h_a_l_8hpp.html" target="_top" xlink:title=" ">
<polygon fill="none" stroke="black" points="104,-129 104,-148 184,-148 184,-129 104,-129"/>
<text text-anchor="middle" x="144" y="-136" font-family="Helvetica,sans-Serif" font-size="10.00">RTC_HAL.hpp</text>
</a>
</g>
</g>
<!-- Node8&#45;&gt;Node9 -->
<g id="edge10" class="edge">
<title>Node8&#45;&gt;Node9</title>
<path fill="none" stroke="midnightblue" d="M208.99,-190.4C195.41,-179.76 176.82,-165.2 163,-154.38"/>
<polygon fill="midnightblue" stroke="midnightblue" points="165.13,-151.6 155.1,-148.19 160.82,-157.12 165.13,-151.6"/>
</g>
<!-- Node11 -->
<g id="node11" class="node">
<title>Node11</title>
<g id="a_node11"><a xlink:title=" ">
<polygon fill="none" stroke="#bfbfbf" points="202,-129 202,-148 252,-148 252,-129 202,-129"/>
<text text-anchor="middle" x="227" y="-136" font-family="Helvetica,sans-Serif" font-size="10.00">chrono</text>
</a>
</g>
</g>
<!-- Node8&#45;&gt;Node11 -->
<g id="edge14" class="edge">
<title>Node8&#45;&gt;Node11</title>
<path fill="none" stroke="midnightblue" d="M227,-190.4C227,-181.06 227,-168.71 227,-158.52"/>
<polygon fill="midnightblue" stroke="midnightblue" points="230.5,-158.19 227,-148.19 223.5,-158.19 230.5,-158.19"/>
</g>
<!-- Node12 -->
<g id="node12" class="node">
<title>Node12</title>
<g id="a_node12"><a xlink:title=" ">
<polygon fill="none" stroke="#bfbfbf" points="270,-129 270,-148 326,-148 326,-129 270,-129"/>
<text text-anchor="middle" x="298" y="-136" font-family="Helvetica,sans-Serif" font-size="10.00">iomanip</text>
</a>
</g>
</g>
<!-- Node8&#45;&gt;Node12 -->
<g id="edge15" class="edge">
<title>Node8&#45;&gt;Node12</title>
<path fill="none" stroke="midnightblue" d="M242.41,-190.4C253.81,-179.96 269.33,-165.75 281.07,-155"/>
<polygon fill="midnightblue" stroke="midnightblue" points="283.49,-157.53 288.5,-148.19 278.76,-152.37 283.49,-157.53"/>
</g>
<!-- Node13 -->
<g id="node13" class="node">
<title>Node13</title>
<g id="a_node13"><a xlink:title=" ">
<polygon fill="none" stroke="#bfbfbf" points="0,-129 0,-148 48,-148 48,-129 0,-129"/>
<text text-anchor="middle" x="24" y="-136" font-family="Helvetica,sans-Serif" font-size="10.00">thread</text>
</a>
</g>
</g>
<!-- Node8&#45;&gt;Node13 -->
<g id="edge16" class="edge">
<title>Node8&#45;&gt;Node13</title>
<path fill="none" stroke="midnightblue" d="M177.99,-190.44C145.02,-180.76 100.68,-167.28 62,-154 59.75,-153.23 57.43,-152.4 55.1,-151.56"/>
<polygon fill="midnightblue" stroke="midnightblue" points="56.2,-148.24 45.61,-148.04 53.77,-154.8 56.2,-148.24"/>
</g>
<!-- Node9&#45;&gt;Node2 -->
<g id="edge11" class="edge">
<title>Node9&#45;&gt;Node2</title>
<path fill="none" stroke="midnightblue" d="M172.19,-128.95C178.99,-126.95 186.24,-124.86 193,-123 236.38,-111.08 285.36,-98.64 323.87,-89.09"/>
<polygon fill="midnightblue" stroke="midnightblue" points="325.07,-92.4 333.94,-86.6 323.39,-85.6 325.07,-92.4"/>
</g>
<!-- Node9&#45;&gt;Node3 -->
<g id="edge12" class="edge">
<title>Node9&#45;&gt;Node3</title>
<path fill="none" stroke="midnightblue" d="M169.73,-128.97C177.17,-126.75 185.35,-124.55 193,-123 260.09,-109.37 445.7,-90.53 554.53,-80.14"/>
<polygon fill="midnightblue" stroke="midnightblue" points="554.87,-83.63 564.49,-79.2 554.21,-76.66 554.87,-83.63"/>
</g>
<!-- Node10 -->
<g id="node10" class="node">
<title>Node10</title>
<g id="a_node10"><a xlink:title=" ">
<polygon fill="none" stroke="#bfbfbf" points="122,-62 122,-81 166,-81 166,-62 122,-62"/>
<text text-anchor="middle" x="144" y="-69" font-family="Helvetica,sans-Serif" font-size="10.00">ctime</text>
</a>
</g>
</g>
<!-- Node9&#45;&gt;Node10 -->
<g id="edge13" class="edge">
<title>Node9&#45;&gt;Node10</title>
<path fill="none" stroke="midnightblue" d="M144,-128.73C144,-119.18 144,-103.62 144,-91.28"/>
<polygon fill="midnightblue" stroke="midnightblue" points="147.5,-91.13 144,-81.13 140.5,-91.13 147.5,-91.13"/>
</g>
<!-- Node14&#45;&gt;Node2 -->
<g id="edge18" class="edge">
<title>Node14&#45;&gt;Node2</title>
<path fill="none" stroke="midnightblue" d="M555.69,-257.49C532.41,-248.23 505.9,-235.9 484,-221 449.18,-197.31 438.71,-190.09 417,-154 406.36,-136.31 399.9,-113.71 396.21,-96.8"/>
<polygon fill="midnightblue" stroke="midnightblue" points="399.57,-95.73 394.18,-86.61 392.7,-97.11 399.57,-95.73"/>
</g>
<!-- Node14&#45;&gt;Node3 -->
<g id="edge19" class="edge">
<title>Node14&#45;&gt;Node3</title>
<path fill="none" stroke="midnightblue" d="M669.16,-257.49C713.85,-238.64 773.31,-205.32 801,-154 822.28,-114.57 770.44,-93.85 719.53,-83.2"/>
<polygon fill="midnightblue" stroke="midnightblue" points="720.2,-79.76 709.72,-81.26 718.85,-86.63 720.2,-79.76"/>
</g>
<!-- Node14&#45;&gt;Node7 -->
<g id="edge32" class="edge">
<title>Node14&#45;&gt;Node7</title>
<path fill="none" stroke="midnightblue" d="M674.97,-257.38C706.11,-247.16 744.3,-234.09 778,-221 779.6,-220.38 781.24,-219.72 782.89,-219.04"/>
<polygon fill="midnightblue" stroke="midnightblue" points="784.43,-222.19 792.27,-215.07 781.7,-215.75 784.43,-222.19"/>
</g>
<!-- Node15 -->
<g id="node15" class="node">
<title>Node15</title>
<g id="a_node15"><a xlink:href="../../de/dd1/_o_t_a_8hpp.html" target="_top" xlink:title=" ">
<polygon fill="none" stroke="black" points="561.5,-190.5 561.5,-220.5 664.5,-220.5 664.5,-190.5 561.5,-190.5"/>
<text text-anchor="start" x="569.5" y="-208.5" font-family="Helvetica,sans-Serif" font-size="10.00">../../../Objects/OTA</text>
<text text-anchor="middle" x="613" y="-197.5" font-family="Helvetica,sans-Serif" font-size="10.00">/include/OTA.hpp</text>
</a>
</g>
</g>
<!-- Node14&#45;&gt;Node15 -->
<g id="edge20" class="edge">
<title>Node14&#45;&gt;Node15</title>
<path fill="none" stroke="midnightblue" d="M613,-257.36C613,-249.23 613,-239.7 613,-231.11"/>
<polygon fill="midnightblue" stroke="midnightblue" points="616.5,-230.89 613,-220.89 609.5,-230.89 616.5,-230.89"/>
</g>
<!-- Node17 -->
<g id="node17" class="node">
<title>Node17</title>
<g id="a_node17"><a xlink:href="../../d3/d1c/_free_r_t_o_s_8h.html" target="_top" xlink:title=" ">
<polygon fill="none" stroke="black" points="672.5,-123.5 672.5,-153.5 791.5,-153.5 791.5,-123.5 672.5,-123.5"/>
<text text-anchor="start" x="680.5" y="-141.5" font-family="Helvetica,sans-Serif" font-size="10.00">../../../RTOS/FreeRTOS</text>
<text text-anchor="middle" x="732" y="-130.5" font-family="Helvetica,sans-Serif" font-size="10.00">/include/FreeRTOS.h</text>
</a>
</g>
</g>
<!-- Node14&#45;&gt;Node17 -->
<g id="edge27" class="edge">
<title>Node14&#45;&gt;Node17</title>
<path fill="none" stroke="midnightblue" d="M636.69,-257.33C648.46,-247.05 662.58,-233.93 674,-221 690.39,-202.44 706.52,-179.27 717.59,-162.38"/>
<polygon fill="midnightblue" stroke="midnightblue" points="720.7,-164.02 723.19,-153.72 714.82,-160.22 720.7,-164.02"/>
</g>
<!-- Node18 -->
<g id="node18" class="node">
<title>Node18</title>
<g id="a_node18"><a xlink:title=" ">
<polygon fill="none" stroke="#bfbfbf" points="493,-196 493,-215 543,-215 543,-196 493,-196"/>
<text text-anchor="middle" x="518" y="-203" font-family="Helvetica,sans-Serif" font-size="10.00">atomic</text>
</a>
</g>
</g>
<!-- Node14&#45;&gt;Node18 -->
<g id="edge31" class="edge">
<title>Node14&#45;&gt;Node18</title>
<path fill="none" stroke="midnightblue" d="M586.54,-257.36C571.08,-245.89 551.9,-231.65 537.76,-221.16"/>
<polygon fill="midnightblue" stroke="midnightblue" points="539.8,-218.32 529.69,-215.17 535.63,-223.94 539.8,-218.32"/>
</g>
<!-- Node15&#45;&gt;Node2 -->
<g id="edge21" class="edge">
<title>Node15&#45;&gt;Node2</title>
<path fill="none" stroke="midnightblue" d="M561.16,-192.29C520.52,-182.02 467.94,-166.98 450,-154 429.15,-138.92 413.01,-113.99 403.11,-95.67"/>
<polygon fill="midnightblue" stroke="midnightblue" points="406.21,-94.05 398.5,-86.78 399.99,-97.27 406.21,-94.05"/>
</g>
<!-- Node15&#45;&gt;Node3 -->
<g id="edge22" class="edge">
<title>Node15&#45;&gt;Node3</title>
<path fill="none" stroke="midnightblue" d="M615.57,-190.37C619.65,-167.94 627.65,-123.92 632.64,-96.49"/>
<polygon fill="midnightblue" stroke="midnightblue" points="636.1,-96.99 634.45,-86.52 629.22,-95.74 636.1,-96.99"/>
</g>
<!-- Node16 -->
<g id="node16" class="node">
<title>Node16</title>
<g id="a_node16"><a xlink:href="../../d5/dc5/_task_8h.html" target="_top" xlink:title=" ">
<polygon fill="none" stroke="black" points="458.5,-123.5 458.5,-153.5 577.5,-153.5 577.5,-123.5 458.5,-123.5"/>
<text text-anchor="start" x="466.5" y="-141.5" font-family="Helvetica,sans-Serif" font-size="10.00">../../../RTOS/FreeRTOS</text>
<text text-anchor="middle" x="518" y="-130.5" font-family="Helvetica,sans-Serif" font-size="10.00">/include/Task.h</text>
</a>
</g>
</g>
<!-- Node15&#45;&gt;Node16 -->
<g id="edge23" class="edge">
<title>Node15&#45;&gt;Node16</title>
<path fill="none" stroke="midnightblue" d="M592.39,-190.4C579.07,-181.28 561.54,-169.29 546.84,-159.24"/>
<polygon fill="midnightblue" stroke="midnightblue" points="548.8,-156.33 538.57,-153.58 544.85,-162.11 548.8,-156.33"/>
</g>
<!-- Node16&#45;&gt;Node2 -->
<g id="edge24" class="edge">
<title>Node16&#45;&gt;Node2</title>
<path fill="none" stroke="midnightblue" d="M490.66,-123.4C472.41,-113.98 448.22,-101.5 428.36,-91.26"/>
<polygon fill="midnightblue" stroke="midnightblue" points="429.78,-88.05 419.29,-86.58 426.57,-94.27 429.78,-88.05"/>
</g>
<!-- Node16&#45;&gt;Node3 -->
<g id="edge25" class="edge">
<title>Node16&#45;&gt;Node3</title>
<path fill="none" stroke="midnightblue" d="M543.82,-123.4C560.97,-114.03 583.7,-101.62 602.41,-91.39"/>
<polygon fill="midnightblue" stroke="midnightblue" points="604.13,-94.44 611.23,-86.58 600.78,-88.3 604.13,-94.44"/>
</g>
<!-- Node16&#45;&gt;Node4 -->
<g id="edge26" class="edge">
<title>Node16&#45;&gt;Node4</title>
<path fill="none" stroke="midnightblue" d="M523.96,-123.4C531.05,-106.95 543.51,-79.06 556,-56 561.09,-46.59 567.34,-36.45 572.63,-28.18"/>
<polygon fill="midnightblue" stroke="midnightblue" points="575.58,-30.07 578.1,-19.78 569.71,-26.25 575.58,-30.07"/>
</g>
<!-- Node17&#45;&gt;Node2 -->
<g id="edge28" class="edge">
<title>Node17&#45;&gt;Node2</title>
<path fill="none" stroke="midnightblue" d="M672.39,-126.1C613.12,-114.77 522.33,-97.42 460.22,-85.54"/>
<polygon fill="midnightblue" stroke="midnightblue" points="460.6,-82.05 450.12,-83.61 459.29,-88.93 460.6,-82.05"/>
</g>
<!-- Node17&#45;&gt;Node3 -->
<g id="edge29" class="edge">
<title>Node17&#45;&gt;Node3</title>
<path fill="none" stroke="midnightblue" d="M711.39,-123.4C698.07,-114.28 680.54,-102.29 665.84,-92.24"/>
<polygon fill="midnightblue" stroke="midnightblue" points="667.8,-89.33 657.57,-86.58 663.85,-95.11 667.8,-89.33"/>
</g>
<!-- Node17&#45;&gt;Node5 -->
<g id="edge30" class="edge">
<title>Node17&#45;&gt;Node5</title>
<path fill="none" stroke="midnightblue" d="M732.67,-123.48C733.74,-100.72 735.88,-55.7 737.1,-30.06"/>
<polygon fill="midnightblue" stroke="midnightblue" points="740.61,-29.94 737.58,-19.79 733.61,-29.61 740.61,-29.94"/>
</g>
</g>
</svg>
