<?xml version="1.0" encoding="UTF-8" standalone="no"?>
<!DOCTYPE svg PUBLIC "-//W3C//DTD SVG 1.1//EN"
 "http://www.w3.org/Graphics/SVG/1.1/DTD/svg11.dtd">
<!-- Generated by graphviz version 2.43.0 (0)
 -->
<!-- Title: Components/Connector/WiFi/include/WiFi_API.hpp Pages: 1 -->
<svg width="487pt" height="273pt"
 viewBox="0.00 0.00 486.50 273.00" xmlns="http://www.w3.org/2000/svg" xmlns:xlink="http://www.w3.org/1999/xlink">
<g id="graph0" class="graph" transform="scale(1 1) rotate(0) translate(4 269)">
<title>Components/Connector/WiFi/include/WiFi_API.hpp</title>
<!-- Node1 -->
<g id="node1" class="node">
<title>Node1</title>
<g id="a_node1"><a xlink:title=" ">
<polygon fill="#bfbfbf" stroke="black" points="96.5,-234.5 96.5,-264.5 241.5,-264.5 241.5,-234.5 96.5,-234.5"/>
<text text-anchor="start" x="104.5" y="-252.5" font-family="Helvetica,sans-Serif" font-size="10.00">Components/Connector</text>
<text text-anchor="middle" x="169" y="-241.5" font-family="Helvetica,sans-Serif" font-size="10.00">/WiFi/include/WiFi_API.hpp</text>
</a>
</g>
</g>
<!-- Node2 -->
<g id="node2" class="node">
<title>Node2</title>
<g id="a_node2"><a xlink:href="../../dc/d64/_wi_fi___a_p_i_8cpp.html" target="_top" xlink:title=" ">
<polygon fill="none" stroke="black" points="32.5,-162 32.5,-192 163.5,-192 163.5,-162 32.5,-162"/>
<text text-anchor="start" x="40.5" y="-180" font-family="Helvetica,sans-Serif" font-size="10.00">Components/Connector</text>
<text text-anchor="middle" x="98" y="-169" font-family="Helvetica,sans-Serif" font-size="10.00">/WiFi/src/WiFi_API.cpp</text>
</a>
</g>
</g>
<!-- Node1&#45;&gt;Node2 -->
<g id="edge1" class="edge">
<title>Node1&#45;&gt;Node2</title>
<path fill="none" stroke="midnightblue" d="M147.21,-226.86C135.88,-215.61 122.35,-202.18 112.35,-192.25"/>
<polygon fill="midnightblue" stroke="midnightblue" points="145.07,-229.67 154.63,-234.23 150,-224.7 145.07,-229.67"/>
</g>
<!-- Node3 -->
<g id="node3" class="node">
<title>Node3</title>
<g id="a_node3"><a xlink:href="../../d0/d6a/_maintainer_8hpp.html" target="_top" xlink:title=" ">
<polygon fill="none" stroke="black" points="182,-156.5 182,-197.5 300,-197.5 300,-156.5 182,-156.5"/>
<text text-anchor="start" x="190" y="-185.5" font-family="Helvetica,sans-Serif" font-size="10.00">Components/Objects</text>
<text text-anchor="start" x="190" y="-174.5" font-family="Helvetica,sans-Serif" font-size="10.00">/Maintainer/include</text>
<text text-anchor="middle" x="241" y="-163.5" font-family="Helvetica,sans-Serif" font-size="10.00">/Maintainer.hpp</text>
</a>
</g>
</g>
<!-- Node1&#45;&gt;Node3 -->
<g id="edge2" class="edge">
<title>Node1&#45;&gt;Node3</title>
<path fill="none" stroke="midnightblue" d="M190.85,-227.1C200.44,-217.71 211.63,-206.76 220.99,-197.59"/>
<polygon fill="midnightblue" stroke="midnightblue" points="188.27,-224.74 183.57,-234.23 193.16,-229.74 188.27,-224.74"/>
</g>
<!-- Node4 -->
<g id="node4" class="node">
<title>Node4</title>
<g id="a_node4"><a xlink:href="../../dd/ddd/_maintainer_8cpp.html" target="_top" xlink:title=" ">
<polygon fill="none" stroke="black" points="0,-84 0,-114 164,-114 164,-84 0,-84"/>
<text text-anchor="start" x="8" y="-102" font-family="Helvetica,sans-Serif" font-size="10.00">Components/Objects</text>
<text text-anchor="middle" x="82" y="-91" font-family="Helvetica,sans-Serif" font-size="10.00">/Maintainer/src/Maintainer.cpp</text>
</a>
</g>
</g>
<!-- Node3&#45;&gt;Node4 -->
<g id="edge3" class="edge">
<title>Node3&#45;&gt;Node4</title>
<path fill="none" stroke="midnightblue" d="M190.73,-151.97C164.75,-139.55 133.94,-124.83 111.76,-114.23"/>
<polygon fill="midnightblue" stroke="midnightblue" points="189.52,-155.27 200.05,-156.43 192.54,-148.96 189.52,-155.27"/>
</g>
<!-- Node5 -->
<g id="node5" class="node">
<title>Node5</title>
<g id="a_node5"><a xlink:href="../../d8/d4a/maintainer__test_8cpp.html" target="_top" xlink:title=" ">
<polygon fill="none" stroke="black" points="182,-78.5 182,-119.5 300,-119.5 300,-78.5 182,-78.5"/>
<text text-anchor="start" x="190" y="-107.5" font-family="Helvetica,sans-Serif" font-size="10.00">Components/Objects</text>
<text text-anchor="start" x="190" y="-96.5" font-family="Helvetica,sans-Serif" font-size="10.00">/Maintainer/test/test</text>
<text text-anchor="middle" x="241" y="-85.5" font-family="Helvetica,sans-Serif" font-size="10.00">/maintainer_test.cpp</text>
</a>
</g>
</g>
<!-- Node3&#45;&gt;Node5 -->
<g id="edge4" class="edge">
<title>Node3&#45;&gt;Node5</title>
<path fill="none" stroke="midnightblue" d="M241,-146.3C241,-137.3 241,-127.65 241,-119.51"/>
<polygon fill="midnightblue" stroke="midnightblue" points="237.5,-146.43 241,-156.43 244.5,-146.43 237.5,-146.43"/>
</g>
<!-- Node6 -->
<g id="node6" class="node">
<title>Node6</title>
<g id="a_node6"><a xlink:href="../../dd/d82/_active_current_sensor_8hpp.html" target="_top" xlink:title=" ">
<polygon fill="none" stroke="black" points="318,-78.5 318,-119.5 466,-119.5 466,-78.5 318,-78.5"/>
<text text-anchor="start" x="326" y="-107.5" font-family="Helvetica,sans-Serif" font-size="10.00">Components/Sensor/Active</text>
<text text-anchor="start" x="326" y="-96.5" font-family="Helvetica,sans-Serif" font-size="10.00">CurrentSensor/include</text>
<text text-anchor="middle" x="392" y="-85.5" font-family="Helvetica,sans-Serif" font-size="10.00">/ActiveCurrentSensor.hpp</text>
</a>
</g>
</g>
<!-- Node3&#45;&gt;Node6 -->
<g id="edge5" class="edge">
<title>Node3&#45;&gt;Node6</title>
<path fill="none" stroke="midnightblue" d="M288.87,-151.91C309.63,-141.46 333.63,-129.38 353.25,-119.51"/>
<polygon fill="midnightblue" stroke="midnightblue" points="287.25,-148.81 279.89,-156.43 290.39,-155.06 287.25,-148.81"/>
</g>
<!-- Node7 -->
<g id="node7" class="node">
<title>Node7</title>
<g id="a_node7"><a xlink:href="../../d2/d77/_active_current_sensor_8cpp.html" target="_top" xlink:title=" ">
<polygon fill="none" stroke="black" points="305.5,-0.5 305.5,-41.5 478.5,-41.5 478.5,-0.5 305.5,-0.5"/>
<text text-anchor="start" x="313.5" y="-29.5" font-family="Helvetica,sans-Serif" font-size="10.00">Components/Sensor/Active</text>
<text text-anchor="start" x="313.5" y="-18.5" font-family="Helvetica,sans-Serif" font-size="10.00">CurrentSensor/src/ActiveCurrent</text>
<text text-anchor="middle" x="392" y="-7.5" font-family="Helvetica,sans-Serif" font-size="10.00">Sensor.cpp</text>
</a>
</g>
</g>
<!-- Node6&#45;&gt;Node7 -->
<g id="edge6" class="edge">
<title>Node6&#45;&gt;Node7</title>
<path fill="none" stroke="midnightblue" d="M392,-68.3C392,-59.3 392,-49.65 392,-41.51"/>
<polygon fill="midnightblue" stroke="midnightblue" points="388.5,-68.43 392,-78.43 395.5,-68.43 388.5,-68.43"/>
</g>
</g>
</svg>
