<?xml version="1.0" encoding="UTF-8" standalone="no"?>
<!DOCTYPE svg PUBLIC "-//W3C//DTD SVG 1.1//EN"
 "http://www.w3.org/Graphics/SVG/1.1/DTD/svg11.dtd">
<!-- Generated by graphviz version 2.43.0 (0)
 -->
<!-- Title: Components/Objects/ADC/src/ADC_API_ESP32.cpp Pages: 1 -->
<!--zoomable 553 -->
<svg id="main" version="1.1" xmlns="http://www.w3.org/2000/svg" xmlns:xlink="http://www.w3.org/1999/xlink" xml:space="preserve" onload="init(evt)">
<style type="text/css"><![CDATA[
.edge:hover path { stroke: red; }
.edge:hover polygon { stroke: red; fill: red; }
]]></style>
<script type="text/javascript"><![CDATA[
var edges = document.getElementsByTagName('g');
if (edges && edges.length) {
  for (var i=0;i<edges.length;i++) {
    if (edges[i].id.substr(0,4)=='edge') {
      edges[i].setAttribute('class','edge');
    }
  }
}
]]></script>
        <defs>
                <circle id="rim" cx="0" cy="0" r="7"/>
                <circle id="rim2" cx="0" cy="0" r="3.5"/>
                <g id="zoomPlus">
                        <use xlink:href="#rim" fill="#404040">
                                <set attributeName="fill" to="#808080" begin="zoomplus.mouseover" end="zoomplus.mouseout"/>
                        </use>
                        <path d="M-4,0h8M0,-4v8" fill="none" stroke="white" stroke-width="1.5" pointer-events="none"/>
                </g>
                <g id="zoomMin">
                        <use xlink:href="#rim" fill="#404040">
                                <set attributeName="fill" to="#808080" begin="zoomminus.mouseover" end="zoomminus.mouseout"/>
                        </use>
                        <path d="M-4,0h8" fill="none" stroke="white" stroke-width="1.5" pointer-events="none"/>
                </g>
                <g id="dirArrow">
                        <path fill="none" stroke="white" stroke-width="1.5" d="M0,-3.0v7 M-2.5,-0.5L0,-3.0L2.5,-0.5"/>
                </g>
               <g id="resetDef">
                       <use xlink:href="#rim2" fill="#404040">
                               <set attributeName="fill" to="#808080" begin="reset.mouseover" end="reset.mouseout"/>
                       </use>
               </g>
        </defs>

<script type="text/javascript">
var viewWidth = 658;
var viewHeight = 553;
var sectionId = 'dynsection-0';
</script>
<script xlink:href="../../svgpan.js"/>
<svg id="graph" class="graph">
<g id="viewport">
<title>Components/Objects/ADC/src/ADC_API_ESP32.cpp</title>
<!-- Node1 -->
<g id="node1" class="node">
<title>Node1</title>
<g id="a_node1"><a xlink:title=" ">
<polygon fill="#bfbfbf" stroke="black" points="264,-514.5 264,-544.5 422,-544.5 422,-514.5 264,-514.5"/>
<text text-anchor="start" x="272" y="-532.5" font-family="Helvetica,sans-Serif" font-size="10.00">Components/Objects</text>
<text text-anchor="middle" x="343" y="-521.5" font-family="Helvetica,sans-Serif" font-size="10.00">/ADC/src/ADC_API_ESP32.cpp</text>
</a>
</g>
</g>
<!-- Node2 -->
<g id="node2" class="node">
<title>Node2</title>
<g id="a_node2"><a xlink:href="../../d0/dd5/_a_d_c___a_p_i___e_s_p32_8hpp.html" target="_top" xlink:title=" ">
<polygon fill="none" stroke="black" points="290,-447.5 290,-477.5 396,-477.5 396,-447.5 290,-447.5"/>
<text text-anchor="start" x="298" y="-465.5" font-family="Helvetica,sans-Serif" font-size="10.00">../include/ADC_API</text>
<text text-anchor="middle" x="343" y="-454.5" font-family="Helvetica,sans-Serif" font-size="10.00">_ESP32.hpp</text>
</a>
</g>
</g>
<!-- Node1&#45;&gt;Node2 -->
<g id="edge1" class="edge">
<title>Node1&#45;&gt;Node2</title>
<path fill="none" stroke="midnightblue" d="M343,-514.4C343,-506.64 343,-496.81 343,-487.86"/>
<polygon fill="midnightblue" stroke="midnightblue" points="346.5,-487.58 343,-477.58 339.5,-487.58 346.5,-487.58"/>
</g>
<!-- Node3 -->
<g id="node3" class="node">
<title>Node3</title>
<g id="a_node3"><a xlink:href="../../da/d5f/_b_a_s_i_c_8hpp.html" target="_top" xlink:title=" ">
<polygon fill="none" stroke="black" points="37,-56.5 37,-86.5 153,-86.5 153,-56.5 37,-56.5"/>
<text text-anchor="start" x="45" y="-74.5" font-family="Helvetica,sans-Serif" font-size="10.00">../../../Global_Include</text>
<text text-anchor="middle" x="95" y="-63.5" font-family="Helvetica,sans-Serif" font-size="10.00">/BASIC.hpp</text>
</a>
</g>
</g>
<!-- Node2&#45;&gt;Node3 -->
<g id="edge2" class="edge">
<title>Node2&#45;&gt;Node3</title>
<path fill="none" stroke="midnightblue" d="M289.78,-452.43C193.44,-434.49 0,-390.83 0,-329.5 0,-329.5 0,-329.5 0,-193.5 0,-150.9 36.88,-114.41 64.68,-92.96"/>
<polygon fill="midnightblue" stroke="midnightblue" points="67.03,-95.57 72.97,-86.79 62.85,-89.95 67.03,-95.57"/>
</g>
<!-- Node4 -->
<g id="node4" class="node">
<title>Node4</title>
<g id="a_node4"><a xlink:href="../../d3/deb/_general___error_8hpp.html" target="_top" xlink:title=" ">
<polygon fill="none" stroke="black" points="482,-56.5 482,-86.5 628,-86.5 628,-56.5 482,-56.5"/>
<text text-anchor="start" x="490" y="-74.5" font-family="Helvetica,sans-Serif" font-size="10.00">../../../Objects/ErrorHandler</text>
<text text-anchor="middle" x="555" y="-63.5" font-family="Helvetica,sans-Serif" font-size="10.00">/include/General_Error.hpp</text>
</a>
</g>
</g>
<!-- Node2&#45;&gt;Node4 -->
<g id="edge3" class="edge">
<title>Node2&#45;&gt;Node4</title>
<path fill="none" stroke="midnightblue" d="M396.12,-461.61C483.99,-458.69 650,-438.72 650,-329.5 650,-329.5 650,-329.5 650,-193.5 650,-150.9 613.12,-114.41 585.32,-92.96"/>
<polygon fill="midnightblue" stroke="midnightblue" points="587.15,-89.95 577.03,-86.79 582.97,-95.57 587.15,-89.95"/>
</g>
<!-- Node7 -->
<g id="node7" class="node">
<title>Node7</title>
<g id="a_node7"><a xlink:href="../../d8/da0/_a_d_c_base_8hpp.html" target="_top" xlink:title=" ">
<polygon fill="none" stroke="black" points="257,-380.5 257,-410.5 429,-410.5 429,-380.5 257,-380.5"/>
<text text-anchor="start" x="265" y="-398.5" font-family="Helvetica,sans-Serif" font-size="10.00">../../../Interfaces</text>
<text text-anchor="middle" x="343" y="-387.5" font-family="Helvetica,sans-Serif" font-size="10.00">/ADCBase/include/ADCBase.hpp</text>
</a>
</g>
</g>
<!-- Node2&#45;&gt;Node7 -->
<g id="edge6" class="edge">
<title>Node2&#45;&gt;Node7</title>
<path fill="none" stroke="midnightblue" d="M343,-447.4C343,-439.64 343,-429.81 343,-420.86"/>
<polygon fill="midnightblue" stroke="midnightblue" points="346.5,-420.58 343,-410.58 339.5,-420.58 346.5,-420.58"/>
</g>
<!-- Node5 -->
<g id="node5" class="node">
<title>Node5</title>
<g id="a_node5"><a xlink:title=" ">
<polygon fill="none" stroke="#bfbfbf" points="498,-0.5 498,-19.5 542,-19.5 542,-0.5 498,-0.5"/>
<text text-anchor="middle" x="520" y="-7.5" font-family="Helvetica,sans-Serif" font-size="10.00">string</text>
</a>
</g>
</g>
<!-- Node4&#45;&gt;Node5 -->
<g id="edge4" class="edge">
<title>Node4&#45;&gt;Node5</title>
<path fill="none" stroke="midnightblue" d="M546.71,-56.4C541.78,-48.02 535.49,-37.33 530.25,-28.42"/>
<polygon fill="midnightblue" stroke="midnightblue" points="533.18,-26.5 525.09,-19.66 527.15,-30.05 533.18,-26.5"/>
</g>
<!-- Node6 -->
<g id="node6" class="node">
<title>Node6</title>
<g id="a_node6"><a xlink:title=" ">
<polygon fill="none" stroke="#bfbfbf" points="560,-0.5 560,-19.5 620,-19.5 620,-0.5 560,-0.5"/>
<text text-anchor="middle" x="590" y="-7.5" font-family="Helvetica,sans-Serif" font-size="10.00">iostream</text>
</a>
</g>
</g>
<!-- Node4&#45;&gt;Node6 -->
<g id="edge5" class="edge">
<title>Node4&#45;&gt;Node6</title>
<path fill="none" stroke="midnightblue" d="M563.29,-56.4C568.22,-48.02 574.51,-37.33 579.75,-28.42"/>
<polygon fill="midnightblue" stroke="midnightblue" points="582.85,-30.05 584.91,-19.66 576.82,-26.5 582.85,-30.05"/>
</g>
<!-- Node7&#45;&gt;Node3 -->
<g id="edge7" class="edge">
<title>Node7&#45;&gt;Node3</title>
<path fill="none" stroke="midnightblue" d="M256.82,-392.57C166.63,-385.43 38,-358.42 38,-262.5 38,-262.5 38,-262.5 38,-193.5 38,-156.23 60.4,-118.13 77.12,-94.9"/>
<polygon fill="midnightblue" stroke="midnightblue" points="80.02,-96.86 83.19,-86.75 74.41,-92.68 80.02,-96.86"/>
</g>
<!-- Node7&#45;&gt;Node4 -->
<g id="edge8" class="edge">
<title>Node7&#45;&gt;Node4</title>
<path fill="none" stroke="midnightblue" d="M429.22,-387.69C507.9,-376.2 612,-345.34 612,-262.5 612,-262.5 612,-262.5 612,-193.5 612,-156.23 589.6,-118.13 572.88,-94.9"/>
<polygon fill="midnightblue" stroke="midnightblue" points="575.59,-92.68 566.81,-86.75 569.98,-96.86 575.59,-92.68"/>
</g>
<!-- Node8 -->
<g id="node8" class="node">
<title>Node8</title>
<g id="a_node8"><a xlink:href="../../da/d81/_fault___handler_8hpp.html" target="_top" xlink:title=" ">
<polygon fill="none" stroke="black" points="270,-313.5 270,-343.5 416,-343.5 416,-313.5 270,-313.5"/>
<text text-anchor="start" x="278" y="-331.5" font-family="Helvetica,sans-Serif" font-size="10.00">../../../Objects/FaultHandler</text>
<text text-anchor="middle" x="343" y="-320.5" font-family="Helvetica,sans-Serif" font-size="10.00">/include/Fault_Handler.hpp</text>
</a>
</g>
</g>
<!-- Node7&#45;&gt;Node8 -->
<g id="edge9" class="edge">
<title>Node7&#45;&gt;Node8</title>
<path fill="none" stroke="midnightblue" d="M343,-380.4C343,-372.64 343,-362.81 343,-353.86"/>
<polygon fill="midnightblue" stroke="midnightblue" points="346.5,-353.58 343,-343.58 339.5,-353.58 346.5,-353.58"/>
</g>
<!-- Node8&#45;&gt;Node3 -->
<g id="edge10" class="edge">
<title>Node8&#45;&gt;Node3</title>
<path fill="none" stroke="midnightblue" d="M316.46,-313.5C268.99,-286.98 169.85,-224.72 120,-143 111.27,-128.69 104.99,-110.88 100.9,-96.75"/>
<polygon fill="midnightblue" stroke="midnightblue" points="104.2,-95.51 98.21,-86.77 97.44,-97.34 104.2,-95.51"/>
</g>
<!-- Node8&#45;&gt;Node4 -->
<g id="edge11" class="edge">
<title>Node8&#45;&gt;Node4</title>
<path fill="none" stroke="midnightblue" d="M364.11,-313.3C377.76,-303.71 395.6,-290.4 410,-277 467.88,-223.14 485.82,-210.49 527,-143 535.94,-128.35 543.04,-110.33 547.85,-96.19"/>
<polygon fill="midnightblue" stroke="midnightblue" points="551.18,-97.26 550.94,-86.67 544.52,-95.1 551.18,-97.26"/>
</g>
<!-- Node9 -->
<g id="node9" class="node">
<title>Node9</title>
<g id="a_node9"><a xlink:href="../../d3/de3/_logger_8hpp.html" target="_top" xlink:title=" ">
<polygon fill="none" stroke="black" points="285,-246.5 285,-276.5 401,-276.5 401,-246.5 285,-246.5"/>
<text text-anchor="start" x="293" y="-264.5" font-family="Helvetica,sans-Serif" font-size="10.00">../../../Objects/Logger</text>
<text text-anchor="middle" x="343" y="-253.5" font-family="Helvetica,sans-Serif" font-size="10.00">/include/Logger.hpp</text>
</a>
</g>
</g>
<!-- Node8&#45;&gt;Node9 -->
<g id="edge12" class="edge">
<title>Node8&#45;&gt;Node9</title>
<path fill="none" stroke="midnightblue" d="M343,-313.4C343,-305.64 343,-295.81 343,-286.86"/>
<polygon fill="midnightblue" stroke="midnightblue" points="346.5,-286.58 343,-276.58 339.5,-286.58 346.5,-286.58"/>
</g>
<!-- Node9&#45;&gt;Node3 -->
<g id="edge13" class="edge">
<title>Node9&#45;&gt;Node3</title>
<path fill="none" stroke="midnightblue" d="M308.11,-246.5C264.84,-227.83 190.59,-191.44 140,-143 125.8,-129.41 114.04,-110.48 106.1,-95.66"/>
<polygon fill="midnightblue" stroke="midnightblue" points="109.14,-93.91 101.46,-86.61 102.91,-97.1 109.14,-93.91"/>
</g>
<!-- Node9&#45;&gt;Node4 -->
<g id="edge14" class="edge">
<title>Node9&#45;&gt;Node4</title>
<path fill="none" stroke="midnightblue" d="M368.38,-246.38C402.43,-226.55 463.39,-187.81 505,-143 518.65,-128.3 531.68,-109.72 541.02,-95.33"/>
<polygon fill="midnightblue" stroke="midnightblue" points="544.18,-96.87 546.59,-86.56 538.27,-93.12 544.18,-96.87"/>
</g>
<!-- Node10 -->
<g id="node10" class="node">
<title>Node10</title>
<g id="a_node10"><a xlink:href="../../d7/d60/_timeservice_8hpp.html" target="_top" xlink:title=" ">
<polygon fill="none" stroke="black" points="271.5,-179.5 271.5,-209.5 414.5,-209.5 414.5,-179.5 271.5,-179.5"/>
<text text-anchor="start" x="279.5" y="-197.5" font-family="Helvetica,sans-Serif" font-size="10.00">../../../Objects/Timeservice</text>
<text text-anchor="middle" x="343" y="-186.5" font-family="Helvetica,sans-Serif" font-size="10.00">/include/Timeservice.hpp</text>
</a>
</g>
</g>
<!-- Node9&#45;&gt;Node10 -->
<g id="edge15" class="edge">
<title>Node9&#45;&gt;Node10</title>
<path fill="none" stroke="midnightblue" d="M343,-246.4C343,-238.64 343,-228.81 343,-219.86"/>
<polygon fill="midnightblue" stroke="midnightblue" points="346.5,-219.58 343,-209.58 339.5,-219.58 346.5,-219.58"/>
</g>
<!-- Node10&#45;&gt;Node3 -->
<g id="edge16" class="edge">
<title>Node10&#45;&gt;Node3</title>
<path fill="none" stroke="midnightblue" d="M271.42,-180.3C239.33,-172.46 201.85,-160.53 171,-143 148.75,-130.36 127.76,-110 113.51,-94.41"/>
<polygon fill="midnightblue" stroke="midnightblue" points="115.96,-91.9 106.7,-86.75 110.73,-96.55 115.96,-91.9"/>
</g>
<!-- Node10&#45;&gt;Node4 -->
<g id="edge17" class="edge">
<title>Node10&#45;&gt;Node4</title>
<path fill="none" stroke="midnightblue" d="M395.25,-179.4C421.51,-171.03 453.15,-158.91 479,-143 500.67,-129.67 521.58,-109.56 535.96,-94.23"/>
<polygon fill="midnightblue" stroke="midnightblue" points="538.68,-96.44 542.86,-86.71 533.52,-91.71 538.68,-96.44"/>
</g>
<!-- Node11 -->
<g id="node11" class="node">
<title>Node11</title>
<g id="a_node11"><a xlink:href="../../d6/d4b/_r_t_c___h_a_l_8hpp.html" target="_top" xlink:title=" ">
<polygon fill="none" stroke="black" points="180.5,-123.5 180.5,-142.5 261.5,-142.5 261.5,-123.5 180.5,-123.5"/>
<text text-anchor="middle" x="221" y="-130.5" font-family="Helvetica,sans-Serif" font-size="10.00">RTC_HAL.hpp</text>
</a>
</g>
</g>
<!-- Node10&#45;&gt;Node11 -->
<g id="edge18" class="edge">
<title>Node10&#45;&gt;Node11</title>
<path fill="none" stroke="midnightblue" d="M314.09,-179.4C293.98,-169.59 267.38,-156.62 247.76,-147.05"/>
<polygon fill="midnightblue" stroke="midnightblue" points="249.27,-143.9 238.75,-142.66 246.21,-150.19 249.27,-143.9"/>
</g>
<!-- Node13 -->
<g id="node13" class="node">
<title>Node13</title>
<g id="a_node13"><a xlink:title=" ">
<polygon fill="none" stroke="#bfbfbf" points="420,-123.5 420,-142.5 470,-142.5 470,-123.5 420,-123.5"/>
<text text-anchor="middle" x="445" y="-130.5" font-family="Helvetica,sans-Serif" font-size="10.00">chrono</text>
</a>
</g>
</g>
<!-- Node10&#45;&gt;Node13 -->
<g id="edge22" class="edge">
<title>Node10&#45;&gt;Node13</title>
<path fill="none" stroke="midnightblue" d="M367.17,-179.4C383.52,-169.86 405.01,-157.32 421.27,-147.84"/>
<polygon fill="midnightblue" stroke="midnightblue" points="423.28,-150.72 430.16,-142.66 419.76,-144.67 423.28,-150.72"/>
</g>
<!-- Node14 -->
<g id="node14" class="node">
<title>Node14</title>
<g id="a_node14"><a xlink:title=" ">
<polygon fill="none" stroke="#bfbfbf" points="280,-123.5 280,-142.5 336,-142.5 336,-123.5 280,-123.5"/>
<text text-anchor="middle" x="308" y="-130.5" font-family="Helvetica,sans-Serif" font-size="10.00">iomanip</text>
</a>
</g>
</g>
<!-- Node10&#45;&gt;Node14 -->
<g id="edge23" class="edge">
<title>Node10&#45;&gt;Node14</title>
<path fill="none" stroke="midnightblue" d="M334.71,-179.4C329.78,-171.02 323.49,-160.33 318.25,-151.42"/>
<polygon fill="midnightblue" stroke="midnightblue" points="321.18,-149.5 313.09,-142.66 315.15,-153.05 321.18,-149.5"/>
</g>
<!-- Node15 -->
<g id="node15" class="node">
<title>Node15</title>
<g id="a_node15"><a xlink:title=" ">
<polygon fill="none" stroke="#bfbfbf" points="354,-123.5 354,-142.5 402,-142.5 402,-123.5 354,-123.5"/>
<text text-anchor="middle" x="378" y="-130.5" font-family="Helvetica,sans-Serif" font-size="10.00">thread</text>
</a>
</g>
</g>
<!-- Node10&#45;&gt;Node15 -->
<g id="edge24" class="edge">
<title>Node10&#45;&gt;Node15</title>
<path fill="none" stroke="midnightblue" d="M351.29,-179.4C356.22,-171.02 362.51,-160.33 367.75,-151.42"/>
<polygon fill="midnightblue" stroke="midnightblue" points="370.85,-153.05 372.91,-142.66 364.82,-149.5 370.85,-153.05"/>
</g>
<!-- Node11&#45;&gt;Node3 -->
<g id="edge19" class="edge">
<title>Node11&#45;&gt;Node3</title>
<path fill="none" stroke="midnightblue" d="M202.95,-123.48C185.01,-115 156.91,-101.74 133.89,-90.86"/>
<polygon fill="midnightblue" stroke="midnightblue" points="135.23,-87.63 124.7,-86.52 132.24,-93.96 135.23,-87.63"/>
</g>
<!-- Node11&#45;&gt;Node4 -->
<g id="edge20" class="edge">
<title>Node11&#45;&gt;Node4</title>
<path fill="none" stroke="midnightblue" d="M261.66,-124.67C264.82,-124.11 267.96,-123.54 271,-123 338.55,-110.92 415.15,-97.3 471.76,-87.25"/>
<polygon fill="midnightblue" stroke="midnightblue" points="472.5,-90.68 481.73,-85.48 471.28,-83.78 472.5,-90.68"/>
</g>
<!-- Node12 -->
<g id="node12" class="node">
<title>Node12</title>
<g id="a_node12"><a xlink:title=" ">
<polygon fill="none" stroke="#bfbfbf" points="199,-62 199,-81 243,-81 243,-62 199,-62"/>
<text text-anchor="middle" x="221" y="-69" font-family="Helvetica,sans-Serif" font-size="10.00">ctime</text>
</a>
</g>
</g>
<!-- Node11&#45;&gt;Node12 -->
<g id="edge21" class="edge">
<title>Node11&#45;&gt;Node12</title>
<path fill="none" stroke="midnightblue" d="M221,-123.48C221,-115.08 221,-101.98 221,-91.16"/>
<polygon fill="midnightblue" stroke="midnightblue" points="224.5,-91.01 221,-81.01 217.5,-91.01 224.5,-91.01"/>
</g>
</g>
</svg>
        <g id="navigator" transform="translate(0 0)" fill="#404254">
                <rect fill="#f2f5e9" fill-opacity="0.5" stroke="#606060" stroke-width=".5" x="0" y="0" width="60" height="60"/>
                <use id="zoomplus" xlink:href="#zoomPlus" x="17" y="9" onmousedown="handleZoom(evt,'in')"/>
                <use id="zoomminus" xlink:href="#zoomMin" x="42" y="9" onmousedown="handleZoom(evt,'out')"/>
                <use id="reset" xlink:href="#resetDef" x="30" y="36" onmousedown="handleReset()"/>
                <g id="arrowUp" xlink:href="#dirArrow" transform="translate(30 24)" onmousedown="handlePan(0,-1)">
                  <use xlink:href="#rim" fill="#404040">
                        <set attributeName="fill" to="#808080" begin="arrowUp.mouseover" end="arrowUp.mouseout"/>
                  </use>
                  <path fill="none" stroke="white" stroke-width="1.5" d="M0,-3.0v7 M-2.5,-0.5L0,-3.0L2.5,-0.5"/>
                </g>
                <g id="arrowRight" xlink:href="#dirArrow" transform="rotate(90) translate(36 -43)" onmousedown="handlePan(1,0)">
                  <use xlink:href="#rim" fill="#404040">
                        <set attributeName="fill" to="#808080" begin="arrowRight.mouseover" end="arrowRight.mouseout"/>
                  </use>
                  <path fill="none" stroke="white" stroke-width="1.5" d="M0,-3.0v7 M-2.5,-0.5L0,-3.0L2.5,-0.5"/>
                </g>
                <g id="arrowDown" xlink:href="#dirArrow" transform="rotate(180) translate(-30 -48)" onmousedown="handlePan(0,1)">
                  <use xlink:href="#rim" fill="#404040">
                        <set attributeName="fill" to="#808080" begin="arrowDown.mouseover" end="arrowDown.mouseout"/>
                  </use>
                  <path fill="none" stroke="white" stroke-width="1.5" d="M0,-3.0v7 M-2.5,-0.5L0,-3.0L2.5,-0.5"/>
                </g>
                <g id="arrowLeft" xlink:href="#dirArrow" transform="rotate(270) translate(-36 17)" onmousedown="handlePan(-1,0)">
                  <use xlink:href="#rim" fill="#404040">
                        <set attributeName="fill" to="#808080" begin="arrowLeft.mouseover" end="arrowLeft.mouseout"/>
                  </use>
                  <path fill="none" stroke="white" stroke-width="1.5" d="M0,-3.0v7 M-2.5,-0.5L0,-3.0L2.5,-0.5"/>
                </g>
        </g>
        <svg viewBox="0 0 15 15" width="100%" height="30px" preserveAspectRatio="xMaxYMin meet">
         <g id="arrow_out" transform="scale(0.3 0.3)">
          <a xlink:href="_a_d_c___a_p_i___e_s_p32_8cpp__incl_org.svg" target="_base">
           <rect id="button" ry="5" rx="5" y="6" x="6" height="38" width="38"
                fill="#f2f5e9" fill-opacity="0.5" stroke="#606060" stroke-width="1.0"/>
           <path id="arrow"
             d="M 11.500037,31.436501 C 11.940474,20.09759 22.043105,11.32322 32.158766,21.979434 L 37.068811,17.246167 C 37.068811,17.246167 37.088388,32 37.088388,32 L 22.160133,31.978069 C 22.160133,31.978069 26.997745,27.140456 26.997745,27.140456 C 18.528582,18.264221 13.291696,25.230495 11.500037,31.436501 z"
             style="fill:#404040;"/>
          </a>
         </g>
        </svg>
</svg>
