<?xml version="1.0" encoding="UTF-8" standalone="no"?>
<!DOCTYPE svg PUBLIC "-//W3C//DTD SVG 1.1//EN"
 "http://www.w3.org/Graphics/SVG/1.1/DTD/svg11.dtd">
<!-- Generated by graphviz version 2.43.0 (0)
 -->
<!-- Title: Components/Objects/ADC/src/ADC_API_ESP32.cpp Pages: 1 -->
<!--zoomable 553 -->
<svg id="main" version="1.1" xmlns="http://www.w3.org/2000/svg" xmlns:xlink="http://www.w3.org/1999/xlink" xml:space="preserve" onload="init(evt)">
<style type="text/css"><![CDATA[
.edge:hover path { stroke: red; }
.edge:hover polygon { stroke: red; fill: red; }
]]></style>
<script type="text/javascript"><![CDATA[
var edges = document.getElementsByTagName('g');
if (edges && edges.length) {
  for (var i=0;i<edges.length;i++) {
    if (edges[i].id.substr(0,4)=='edge') {
      edges[i].setAttribute('class','edge');
    }
  }
}
]]></script>
        <defs>
                <circle id="rim" cx="0" cy="0" r="7"/>
                <circle id="rim2" cx="0" cy="0" r="3.5"/>
                <g id="zoomPlus">
                        <use xlink:href="#rim" fill="#404040">
                                <set attributeName="fill" to="#808080" begin="zoomplus.mouseover" end="zoomplus.mouseout"/>
                        </use>
                        <path d="M-4,0h8M0,-4v8" fill="none" stroke="white" stroke-width="1.5" pointer-events="none"/>
                </g>
                <g id="zoomMin">
                        <use xlink:href="#rim" fill="#404040">
                                <set attributeName="fill" to="#808080" begin="zoomminus.mouseover" end="zoomminus.mouseout"/>
                        </use>
                        <path d="M-4,0h8" fill="none" stroke="white" stroke-width="1.5" pointer-events="none"/>
                </g>
                <g id="dirArrow">
                        <path fill="none" stroke="white" stroke-width="1.5" d="M0,-3.0v7 M-2.5,-0.5L0,-3.0L2.5,-0.5"/>
                </g>
               <g id="resetDef">
                       <use xlink:href="#rim2" fill="#404040">
                               <set attributeName="fill" to="#808080" begin="reset.mouseover" end="reset.mouseout"/>
                       </use>
               </g>
        </defs>

<script type="text/javascript">
var viewWidth = 656;
var viewHeight = 553;
var sectionId = 'dynsection-0';
</script>
<script xlink:href="../../svgpan.js"/>
<svg id="graph" class="graph">
<g id="viewport">
<title>Components/Objects/ADC/src/ADC_API_ESP32.cpp</title>
<!-- Node1 -->
<g id="node1" class="node">
<title>Node1</title>
<g id="a_node1"><a xlink:title=" ">
<polygon fill="#bfbfbf" stroke="black" points="262,-514.5 262,-544.5 420,-544.5 420,-514.5 262,-514.5"/>
<text text-anchor="start" x="270" y="-532.5" font-family="Helvetica,sans-Serif" font-size="10.00">Components/Objects</text>
<text text-anchor="middle" x="341" y="-521.5" font-family="Helvetica,sans-Serif" font-size="10.00">/ADC/src/ADC_API_ESP32.cpp</text>
</a>
</g>
</g>
<!-- Node2 -->
<g id="node2" class="node">
<title>Node2</title>
<g id="a_node2"><a xlink:href="../../d0/dd5/_a_d_c___a_p_i___e_s_p32_8hpp.html" target="_top" xlink:title=" ">
<polygon fill="none" stroke="black" points="288,-447.5 288,-477.5 394,-477.5 394,-447.5 288,-447.5"/>
<text text-anchor="start" x="296" y="-465.5" font-family="Helvetica,sans-Serif" font-size="10.00">../include/ADC_API</text>
<text text-anchor="middle" x="341" y="-454.5" font-family="Helvetica,sans-Serif" font-size="10.00">_ESP32.hpp</text>
</a>
</g>
</g>
<!-- Node1&#45;&gt;Node2 -->
<g id="edge1" class="edge">
<title>Node1&#45;&gt;Node2</title>
<path fill="none" stroke="midnightblue" d="M341,-514.4C341,-506.64 341,-496.81 341,-487.86"/>
<polygon fill="midnightblue" stroke="midnightblue" points="344.5,-487.58 341,-477.58 337.5,-487.58 344.5,-487.58"/>
</g>
<!-- Node3 -->
<g id="node3" class="node">
<title>Node3</title>
<g id="a_node3"><a xlink:href="../../da/d5f/_b_a_s_i_c_8hpp.html" target="_top" xlink:title=" ">
<polygon fill="none" stroke="black" points="37,-56.5 37,-86.5 153,-86.5 153,-56.5 37,-56.5"/>
<text text-anchor="start" x="45" y="-74.5" font-family="Helvetica,sans-Serif" font-size="10.00">../../../Global_Include</text>
<text text-anchor="middle" x="95" y="-63.5" font-family="Helvetica,sans-Serif" font-size="10.00">/BASIC.hpp</text>
</a>
</g>
</g>
<!-- Node2&#45;&gt;Node3 -->
<g id="edge2" class="edge">
<title>Node2&#45;&gt;Node3</title>
<path fill="none" stroke="midnightblue" d="M287.72,-452.3C191.81,-434.22 0,-390.44 0,-329.5 0,-329.5 0,-329.5 0,-193.5 0,-150.9 36.88,-114.41 64.68,-92.96"/>
<polygon fill="midnightblue" stroke="midnightblue" points="67.03,-95.57 72.97,-86.79 62.85,-89.95 67.03,-95.57"/>
</g>
<!-- Node4 -->
<g id="node4" class="node">
<title>Node4</title>
<g id="a_node4"><a xlink:href="../../d3/deb/_general___error_8hpp.html" target="_top" xlink:title=" ">
<polygon fill="none" stroke="black" points="480.5,-56.5 480.5,-86.5 625.5,-86.5 625.5,-56.5 480.5,-56.5"/>
<text text-anchor="start" x="488.5" y="-74.5" font-family="Helvetica,sans-Serif" font-size="10.00">../../../Objects/ErrorHandler</text>
<text text-anchor="middle" x="553" y="-63.5" font-family="Helvetica,sans-Serif" font-size="10.00">/include/General_Error.hpp</text>
</a>
</g>
</g>
<!-- Node2&#45;&gt;Node4 -->
<g id="edge3" class="edge">
<title>Node2&#45;&gt;Node4</title>
<path fill="none" stroke="midnightblue" d="M394.12,-461.61C481.99,-458.69 648,-438.72 648,-329.5 648,-329.5 648,-329.5 648,-193.5 648,-150.9 611.12,-114.41 583.32,-92.96"/>
<polygon fill="midnightblue" stroke="midnightblue" points="585.15,-89.95 575.03,-86.79 580.97,-95.57 585.15,-89.95"/>
</g>
<!-- Node7 -->
<g id="node7" class="node">
<title>Node7</title>
<g id="a_node7"><a xlink:href="../../d8/da0/_a_d_c_base_8hpp.html" target="_top" xlink:title=" ">
<polygon fill="none" stroke="black" points="255,-380.5 255,-410.5 427,-410.5 427,-380.5 255,-380.5"/>
<text text-anchor="start" x="263" y="-398.5" font-family="Helvetica,sans-Serif" font-size="10.00">../../../Interfaces</text>
<text text-anchor="middle" x="341" y="-387.5" font-family="Helvetica,sans-Serif" font-size="10.00">/ADCBase/include/ADCBase.hpp</text>
</a>
</g>
</g>
<!-- Node2&#45;&gt;Node7 -->
<g id="edge6" class="edge">
<title>Node2&#45;&gt;Node7</title>
<path fill="none" stroke="midnightblue" d="M341,-447.4C341,-439.64 341,-429.81 341,-420.86"/>
<polygon fill="midnightblue" stroke="midnightblue" points="344.5,-420.58 341,-410.58 337.5,-420.58 344.5,-420.58"/>
</g>
<!-- Node5 -->
<g id="node5" class="node">
<title>Node5</title>
<g id="a_node5"><a xlink:title=" ">
<polygon fill="none" stroke="#bfbfbf" points="496,-0.5 496,-19.5 540,-19.5 540,-0.5 496,-0.5"/>
<text text-anchor="middle" x="518" y="-7.5" font-family="Helvetica,sans-Serif" font-size="10.00">string</text>
</a>
</g>
</g>
<!-- Node4&#45;&gt;Node5 -->
<g id="edge4" class="edge">
<title>Node4&#45;&gt;Node5</title>
<path fill="none" stroke="midnightblue" d="M544.71,-56.4C539.78,-48.02 533.49,-37.33 528.25,-28.42"/>
<polygon fill="midnightblue" stroke="midnightblue" points="531.18,-26.5 523.09,-19.66 525.15,-30.05 531.18,-26.5"/>
</g>
<!-- Node6 -->
<g id="node6" class="node">
<title>Node6</title>
<g id="a_node6"><a xlink:title=" ">
<polygon fill="none" stroke="#bfbfbf" points="558,-0.5 558,-19.5 618,-19.5 618,-0.5 558,-0.5"/>
<text text-anchor="middle" x="588" y="-7.5" font-family="Helvetica,sans-Serif" font-size="10.00">iostream</text>
</a>
</g>
</g>
<!-- Node4&#45;&gt;Node6 -->
<g id="edge5" class="edge">
<title>Node4&#45;&gt;Node6</title>
<path fill="none" stroke="midnightblue" d="M561.29,-56.4C566.22,-48.02 572.51,-37.33 577.75,-28.42"/>
<polygon fill="midnightblue" stroke="midnightblue" points="580.85,-30.05 582.91,-19.66 574.82,-26.5 580.85,-30.05"/>
</g>
<!-- Node7&#45;&gt;Node3 -->
<g id="edge7" class="edge">
<title>Node7&#45;&gt;Node3</title>
<path fill="none" stroke="midnightblue" d="M254.98,-392.34C165.4,-384.97 38,-357.75 38,-262.5 38,-262.5 38,-262.5 38,-193.5 38,-156.23 60.4,-118.13 77.12,-94.9"/>
<polygon fill="midnightblue" stroke="midnightblue" points="80.02,-96.86 83.19,-86.75 74.41,-92.68 80.02,-96.86"/>
</g>
<!-- Node7&#45;&gt;Node4 -->
<g id="edge8" class="edge">
<title>Node7&#45;&gt;Node4</title>
<path fill="none" stroke="midnightblue" d="M427.22,-387.69C505.9,-376.2 610,-345.34 610,-262.5 610,-262.5 610,-262.5 610,-193.5 610,-156.23 587.6,-118.13 570.88,-94.9"/>
<polygon fill="midnightblue" stroke="midnightblue" points="573.59,-92.68 564.81,-86.75 567.98,-96.86 573.59,-92.68"/>
</g>
<!-- Node8 -->
<g id="node8" class="node">
<title>Node8</title>
<g id="a_node8"><a xlink:href="../../da/d81/_fault___handler_8hpp.html" target="_top" xlink:title=" ">
<polygon fill="none" stroke="black" points="268.5,-313.5 268.5,-343.5 413.5,-343.5 413.5,-313.5 268.5,-313.5"/>
<text text-anchor="start" x="276.5" y="-331.5" font-family="Helvetica,sans-Serif" font-size="10.00">../../../Objects/FaultHandler</text>
<text text-anchor="middle" x="341" y="-320.5" font-family="Helvetica,sans-Serif" font-size="10.00">/include/Fault_Handler.hpp</text>
</a>
</g>
</g>
<!-- Node7&#45;&gt;Node8 -->
<g id="edge9" class="edge">
<title>Node7&#45;&gt;Node8</title>
<path fill="none" stroke="midnightblue" d="M341,-380.4C341,-372.64 341,-362.81 341,-353.86"/>
<polygon fill="midnightblue" stroke="midnightblue" points="344.5,-353.58 341,-343.58 337.5,-353.58 344.5,-353.58"/>
</g>
<!-- Node8&#45;&gt;Node3 -->
<g id="edge10" class="edge">
<title>Node8&#45;&gt;Node3</title>
<path fill="none" stroke="midnightblue" d="M314.67,-313.45C267.58,-286.86 169.26,-224.48 120,-143 111.33,-128.65 105.04,-110.85 100.95,-96.72"/>
<polygon fill="midnightblue" stroke="midnightblue" points="104.24,-95.48 98.23,-86.75 97.48,-97.32 104.24,-95.48"/>
</g>
<!-- Node8&#45;&gt;Node4 -->
<g id="edge11" class="edge">
<title>Node8&#45;&gt;Node4</title>
<path fill="none" stroke="midnightblue" d="M362.11,-313.3C375.76,-303.71 393.6,-290.4 408,-277 465.88,-223.14 483.82,-210.49 525,-143 533.94,-128.35 541.04,-110.33 545.85,-96.19"/>
<polygon fill="midnightblue" stroke="midnightblue" points="549.18,-97.26 548.94,-86.67 542.52,-95.1 549.18,-97.26"/>
</g>
<!-- Node9 -->
<g id="node9" class="node">
<title>Node9</title>
<g id="a_node9"><a xlink:href="../../d3/de3/_logger_8hpp.html" target="_top" xlink:title=" ">
<polygon fill="none" stroke="black" points="283,-246.5 283,-276.5 399,-276.5 399,-246.5 283,-246.5"/>
<text text-anchor="start" x="291" y="-264.5" font-family="Helvetica,sans-Serif" font-size="10.00">../../../Objects/Logger</text>
<text text-anchor="middle" x="341" y="-253.5" font-family="Helvetica,sans-Serif" font-size="10.00">/include/Logger.hpp</text>
</a>
</g>
</g>
<!-- Node8&#45;&gt;Node9 -->
<g id="edge12" class="edge">
<title>Node8&#45;&gt;Node9</title>
<path fill="none" stroke="midnightblue" d="M341,-313.4C341,-305.64 341,-295.81 341,-286.86"/>
<polygon fill="midnightblue" stroke="midnightblue" points="344.5,-286.58 341,-276.58 337.5,-286.58 344.5,-286.58"/>
</g>
<!-- Node9&#45;&gt;Node3 -->
<g id="edge13" class="edge">
<title>Node9&#45;&gt;Node3</title>
<path fill="none" stroke="midnightblue" d="M306.47,-246.42C263.62,-227.67 190.11,-191.19 140,-143 125.83,-129.38 114.07,-110.45 106.12,-95.64"/>
<polygon fill="midnightblue" stroke="midnightblue" points="109.16,-93.89 101.47,-86.6 102.93,-97.09 109.16,-93.89"/>
</g>
<!-- Node9&#45;&gt;Node4 -->
<g id="edge14" class="edge">
<title>Node9&#45;&gt;Node4</title>
<path fill="none" stroke="midnightblue" d="M366.38,-246.38C400.43,-226.55 461.39,-187.81 503,-143 516.65,-128.3 529.68,-109.72 539.02,-95.33"/>
<polygon fill="midnightblue" stroke="midnightblue" points="542.18,-96.87 544.59,-86.56 536.27,-93.12 542.18,-96.87"/>
</g>
<!-- Node10 -->
<g id="node10" class="node">
<title>Node10</title>
<g id="a_node10"><a xlink:href="../../d7/d60/_timeservice_8hpp.html" target="_top" xlink:title=" ">
<polygon fill="none" stroke="black" points="269.5,-179.5 269.5,-209.5 412.5,-209.5 412.5,-179.5 269.5,-179.5"/>
<text text-anchor="start" x="277.5" y="-197.5" font-family="Helvetica,sans-Serif" font-size="10.00">../../../Objects/Timeservice</text>
<text text-anchor="middle" x="341" y="-186.5" font-family="Helvetica,sans-Serif" font-size="10.00">/include/Timeservice.hpp</text>
</a>
</g>
</g>
<!-- Node9&#45;&gt;Node10 -->
<g id="edge15" class="edge">
<title>Node9&#45;&gt;Node10</title>
<path fill="none" stroke="midnightblue" d="M341,-246.4C341,-238.64 341,-228.81 341,-219.86"/>
<polygon fill="midnightblue" stroke="midnightblue" points="344.5,-219.58 341,-209.58 337.5,-219.58 344.5,-219.58"/>
</g>
<!-- Node10&#45;&gt;Node3 -->
<g id="edge16" class="edge">
<title>Node10&#45;&gt;Node3</title>
<path fill="none" stroke="midnightblue" d="M269.42,-179.97C237.89,-172.1 201.22,-160.24 171,-143 148.77,-130.32 127.78,-109.97 113.52,-94.39"/>
<polygon fill="midnightblue" stroke="midnightblue" points="115.97,-91.88 106.7,-86.74 110.74,-96.53 115.97,-91.88"/>
</g>
<!-- Node10&#45;&gt;Node4 -->
<g id="edge17" class="edge">
<title>Node10&#45;&gt;Node4</title>
<path fill="none" stroke="midnightblue" d="M393.25,-179.4C419.51,-171.03 451.15,-158.91 477,-143 498.67,-129.67 519.58,-109.56 533.96,-94.23"/>
<polygon fill="midnightblue" stroke="midnightblue" points="536.68,-96.44 540.86,-86.71 531.52,-91.71 536.68,-96.44"/>
</g>
<!-- Node11 -->
<g id="node11" class="node">
<title>Node11</title>
<g id="a_node11"><a xlink:href="../../d6/d4b/_r_t_c___h_a_l_8hpp.html" target="_top" xlink:title=" ">
<polygon fill="none" stroke="black" points="180,-123.5 180,-142.5 260,-142.5 260,-123.5 180,-123.5"/>
<text text-anchor="middle" x="220" y="-130.5" font-family="Helvetica,sans-Serif" font-size="10.00">RTC_HAL.hpp</text>
</a>
</g>
</g>
<!-- Node10&#45;&gt;Node11 -->
<g id="edge18" class="edge">
<title>Node10&#45;&gt;Node11</title>
<path fill="none" stroke="midnightblue" d="M312.32,-179.4C292.48,-169.64 266.24,-156.74 246.81,-147.18"/>
<polygon fill="midnightblue" stroke="midnightblue" points="248.12,-143.93 237.61,-142.66 245.04,-150.21 248.12,-143.93"/>
</g>
<!-- Node13 -->
<g id="node13" class="node">
<title>Node13</title>
<g id="a_node13"><a xlink:title=" ">
<polygon fill="none" stroke="#bfbfbf" points="418,-123.5 418,-142.5 468,-142.5 468,-123.5 418,-123.5"/>
<text text-anchor="middle" x="443" y="-130.5" font-family="Helvetica,sans-Serif" font-size="10.00">chrono</text>
</a>
</g>
</g>
<!-- Node10&#45;&gt;Node13 -->
<g id="edge22" class="edge">
<title>Node10&#45;&gt;Node13</title>
<path fill="none" stroke="midnightblue" d="M365.17,-179.4C381.52,-169.86 403.01,-157.32 419.27,-147.84"/>
<polygon fill="midnightblue" stroke="midnightblue" points="421.28,-150.72 428.16,-142.66 417.76,-144.67 421.28,-150.72"/>
</g>
<!-- Node14 -->
<g id="node14" class="node">
<title>Node14</title>
<g id="a_node14"><a xlink:title=" ">
<polygon fill="none" stroke="#bfbfbf" points="278,-123.5 278,-142.5 334,-142.5 334,-123.5 278,-123.5"/>
<text text-anchor="middle" x="306" y="-130.5" font-family="Helvetica,sans-Serif" font-size="10.00">iomanip</text>
</a>
</g>
</g>
<!-- Node10&#45;&gt;Node14 -->
<g id="edge23" class="edge">
<title>Node10&#45;&gt;Node14</title>
<path fill="none" stroke="midnightblue" d="M332.71,-179.4C327.78,-171.02 321.49,-160.33 316.25,-151.42"/>
<polygon fill="midnightblue" stroke="midnightblue" points="319.18,-149.5 311.09,-142.66 313.15,-153.05 319.18,-149.5"/>
</g>
<!-- Node15 -->
<g id="node15" class="node">
<title>Node15</title>
<g id="a_node15"><a xlink:title=" ">
<polygon fill="none" stroke="#bfbfbf" points="352,-123.5 352,-142.5 400,-142.5 400,-123.5 352,-123.5"/>
<text text-anchor="middle" x="376" y="-130.5" font-family="Helvetica,sans-Serif" font-size="10.00">thread</text>
</a>
</g>
</g>
<!-- Node10&#45;&gt;Node15 -->
<g id="edge24" class="edge">
<title>Node10&#45;&gt;Node15</title>
<path fill="none" stroke="midnightblue" d="M349.29,-179.4C354.22,-171.02 360.51,-160.33 365.75,-151.42"/>
<polygon fill="midnightblue" stroke="midnightblue" points="368.85,-153.05 370.91,-142.66 362.82,-149.5 368.85,-153.05"/>
</g>
<!-- Node11&#45;&gt;Node3 -->
<g id="edge19" class="edge">
<title>Node11&#45;&gt;Node3</title>
<path fill="none" stroke="midnightblue" d="M202.09,-123.48C184.29,-115 156.42,-101.74 133.58,-90.86"/>
<polygon fill="midnightblue" stroke="midnightblue" points="134.99,-87.66 124.46,-86.52 131.99,-93.98 134.99,-87.66"/>
</g>
<!-- Node11&#45;&gt;Node4 -->
<g id="edge20" class="edge">
<title>Node11&#45;&gt;Node4</title>
<path fill="none" stroke="midnightblue" d="M260.11,-124.61C263.12,-124.07 266.11,-123.52 269,-123 336.76,-110.75 413.66,-97.09 470.33,-87.07"/>
<polygon fill="midnightblue" stroke="midnightblue" points="471.07,-90.5 480.31,-85.31 469.86,-83.6 471.07,-90.5"/>
</g>
<!-- Node12 -->
<g id="node12" class="node">
<title>Node12</title>
<g id="a_node12"><a xlink:title=" ">
<polygon fill="none" stroke="#bfbfbf" points="198,-62 198,-81 242,-81 242,-62 198,-62"/>
<text text-anchor="middle" x="220" y="-69" font-family="Helvetica,sans-Serif" font-size="10.00">ctime</text>
</a>
</g>
</g>
<!-- Node11&#45;&gt;Node12 -->
<g id="edge21" class="edge">
<title>Node11&#45;&gt;Node12</title>
<path fill="none" stroke="midnightblue" d="M220,-123.48C220,-115.08 220,-101.98 220,-91.16"/>
<polygon fill="midnightblue" stroke="midnightblue" points="223.5,-91.01 220,-81.01 216.5,-91.01 223.5,-91.01"/>
</g>
</g>
</svg>
        <g id="navigator" transform="translate(0 0)" fill="#404254">
                <rect fill="#f2f5e9" fill-opacity="0.5" stroke="#606060" stroke-width=".5" x="0" y="0" width="60" height="60"/>
                <use id="zoomplus" xlink:href="#zoomPlus" x="17" y="9" onmousedown="handleZoom(evt,'in')"/>
                <use id="zoomminus" xlink:href="#zoomMin" x="42" y="9" onmousedown="handleZoom(evt,'out')"/>
                <use id="reset" xlink:href="#resetDef" x="30" y="36" onmousedown="handleReset()"/>
                <g id="arrowUp" xlink:href="#dirArrow" transform="translate(30 24)" onmousedown="handlePan(0,-1)">
                  <use xlink:href="#rim" fill="#404040">
                        <set attributeName="fill" to="#808080" begin="arrowUp.mouseover" end="arrowUp.mouseout"/>
                  </use>
                  <path fill="none" stroke="white" stroke-width="1.5" d="M0,-3.0v7 M-2.5,-0.5L0,-3.0L2.5,-0.5"/>
                </g>
                <g id="arrowRight" xlink:href="#dirArrow" transform="rotate(90) translate(36 -43)" onmousedown="handlePan(1,0)">
                  <use xlink:href="#rim" fill="#404040">
                        <set attributeName="fill" to="#808080" begin="arrowRight.mouseover" end="arrowRight.mouseout"/>
                  </use>
                  <path fill="none" stroke="white" stroke-width="1.5" d="M0,-3.0v7 M-2.5,-0.5L0,-3.0L2.5,-0.5"/>
                </g>
                <g id="arrowDown" xlink:href="#dirArrow" transform="rotate(180) translate(-30 -48)" onmousedown="handlePan(0,1)">
                  <use xlink:href="#rim" fill="#404040">
                        <set attributeName="fill" to="#808080" begin="arrowDown.mouseover" end="arrowDown.mouseout"/>
                  </use>
                  <path fill="none" stroke="white" stroke-width="1.5" d="M0,-3.0v7 M-2.5,-0.5L0,-3.0L2.5,-0.5"/>
                </g>
                <g id="arrowLeft" xlink:href="#dirArrow" transform="rotate(270) translate(-36 17)" onmousedown="handlePan(-1,0)">
                  <use xlink:href="#rim" fill="#404040">
                        <set attributeName="fill" to="#808080" begin="arrowLeft.mouseover" end="arrowLeft.mouseout"/>
                  </use>
                  <path fill="none" stroke="white" stroke-width="1.5" d="M0,-3.0v7 M-2.5,-0.5L0,-3.0L2.5,-0.5"/>
                </g>
        </g>
        <svg viewBox="0 0 15 15" width="100%" height="30px" preserveAspectRatio="xMaxYMin meet">
         <g id="arrow_out" transform="scale(0.3 0.3)">
          <a xlink:href="_a_d_c___a_p_i___e_s_p32_8cpp__incl_org.svg" target="_base">
           <rect id="button" ry="5" rx="5" y="6" x="6" height="38" width="38"
                fill="#f2f5e9" fill-opacity="0.5" stroke="#606060" stroke-width="1.0"/>
           <path id="arrow"
             d="M 11.500037,31.436501 C 11.940474,20.09759 22.043105,11.32322 32.158766,21.979434 L 37.068811,17.246167 C 37.068811,17.246167 37.088388,32 37.088388,32 L 22.160133,31.978069 C 22.160133,31.978069 26.997745,27.140456 26.997745,27.140456 C 18.528582,18.264221 13.291696,25.230495 11.500037,31.436501 z"
             style="fill:#404040;"/>
          </a>
         </g>
        </svg>
</svg>
