<?xml version="1.0" encoding="UTF-8" standalone="no"?>
<!DOCTYPE svg PUBLIC "-//W3C//DTD SVG 1.1//EN"
 "http://www.w3.org/Graphics/SVG/1.1/DTD/svg11.dtd">
<!-- Generated by graphviz version 2.43.0 (0)
 -->
<!-- Title: WiFiBase Pages: 1 -->
<!--zoomable 474 -->
<svg id="main" version="1.1" xmlns="http://www.w3.org/2000/svg" xmlns:xlink="http://www.w3.org/1999/xlink" xml:space="preserve" onload="init(evt)">
<style type="text/css"><![CDATA[
.edge:hover path { stroke: red; }
.edge:hover polygon { stroke: red; fill: red; }
]]></style>
<script type="text/javascript"><![CDATA[
var edges = document.getElementsByTagName('g');
if (edges && edges.length) {
  for (var i=0;i<edges.length;i++) {
    if (edges[i].id.substr(0,4)=='edge') {
      edges[i].setAttribute('class','edge');
    }
  }
}
]]></script>
        <defs>
                <circle id="rim" cx="0" cy="0" r="7"/>
                <circle id="rim2" cx="0" cy="0" r="3.5"/>
                <g id="zoomPlus">
                        <use xlink:href="#rim" fill="#404040">
                                <set attributeName="fill" to="#808080" begin="zoomplus.mouseover" end="zoomplus.mouseout"/>
                        </use>
                        <path d="M-4,0h8M0,-4v8" fill="none" stroke="white" stroke-width="1.5" pointer-events="none"/>
                </g>
                <g id="zoomMin">
                        <use xlink:href="#rim" fill="#404040">
                                <set attributeName="fill" to="#808080" begin="zoomminus.mouseover" end="zoomminus.mouseout"/>
                        </use>
                        <path d="M-4,0h8" fill="none" stroke="white" stroke-width="1.5" pointer-events="none"/>
                </g>
                <g id="dirArrow">
                        <path fill="none" stroke="white" stroke-width="1.5" d="M0,-3.0v7 M-2.5,-0.5L0,-3.0L2.5,-0.5"/>
                </g>
               <g id="resetDef">
                       <use xlink:href="#rim2" fill="#404040">
                               <set attributeName="fill" to="#808080" begin="reset.mouseover" end="reset.mouseout"/>
                       </use>
               </g>
        </defs>

<script type="text/javascript">
var viewWidth = 258;
var viewHeight = 474;
var sectionId = 'dynsection-0';
</script>
<script xlink:href="../../svgpan.js"/>
<svg id="graph" class="graph">
<g id="viewport">
<title>WiFiBase</title>
<!-- Node1 -->
<g id="node1" class="node">
<title>Node1</title>
<g id="a_node1"><a xlink:title=" ">
<polygon fill="#bfbfbf" stroke="black" points="73,-215.5 73,-316.5 162,-316.5 162,-215.5 73,-215.5"/>
<text text-anchor="middle" x="117.5" y="-304.5" font-family="Helvetica,sans-Serif" font-size="10.00">WiFiBase</text>
<polyline fill="none" stroke="black" points="73,-297.5 162,-297.5 "/>
<text text-anchor="start" x="81" y="-285.5" font-family="Helvetica,sans-Serif" font-size="10.00"># m_ssid</text>
<text text-anchor="start" x="81" y="-274.5" font-family="Helvetica,sans-Serif" font-size="10.00"># m_pwd</text>
<polyline fill="none" stroke="black" points="73,-267.5 162,-267.5 "/>
<text text-anchor="start" x="81" y="-255.5" font-family="Helvetica,sans-Serif" font-size="10.00">+ WiFiBase()</text>
<text text-anchor="start" x="81" y="-244.5" font-family="Helvetica,sans-Serif" font-size="10.00">+ ~WiFiBase()</text>
<text text-anchor="start" x="81" y="-233.5" font-family="Helvetica,sans-Serif" font-size="10.00">&#45; WiFiBase()</text>
<text text-anchor="start" x="81" y="-222.5" font-family="Helvetica,sans-Serif" font-size="10.00">&#45; operator=()</text>
</a>
</g>
</g>
<!-- Node3 -->
<g id="node3" class="node">
<title>Node3</title>
<g id="a_node3"><a xlink:href="../../d6/db5/class_m_o_c_k___w_i_f_i.html" target="_top" xlink:title=" ">
<polygon fill="none" stroke="black" points="0,-44.5 0,-134.5 101,-134.5 101,-44.5 0,-44.5"/>
<text text-anchor="middle" x="50.5" y="-122.5" font-family="Helvetica,sans-Serif" font-size="10.00">MOCK_WIFI</text>
<polyline fill="none" stroke="black" points="0,-115.5 101,-115.5 "/>
<text text-anchor="middle" x="50.5" y="-103.5" font-family="Helvetica,sans-Serif" font-size="10.00"> </text>
<polyline fill="none" stroke="black" points="0,-96.5 101,-96.5 "/>
<text text-anchor="start" x="8" y="-84.5" font-family="Helvetica,sans-Serif" font-size="10.00">+ MOCK_WIFI()</text>
<text text-anchor="start" x="8" y="-73.5" font-family="Helvetica,sans-Serif" font-size="10.00">+ ~MOCK_WIFI()</text>
<text text-anchor="start" x="8" y="-62.5" font-family="Helvetica,sans-Serif" font-size="10.00">+ connect()</text>
<text text-anchor="start" x="8" y="-51.5" font-family="Helvetica,sans-Serif" font-size="10.00">+ disconnect()</text>
</a>
</g>
</g>
<!-- Node1&#45;&gt;Node3 -->
<g id="edge2" class="edge">
<title>Node1&#45;&gt;Node3</title>
<path fill="none" stroke="midnightblue" d="M94.84,-205.99C85.86,-182.6 75.72,-156.17 67.4,-134.51"/>
<polygon fill="none" stroke="midnightblue" points="91.63,-207.38 98.48,-215.46 98.16,-204.87 91.63,-207.38"/>
</g>
<!-- Node4 -->
<g id="node4" class="node">
<title>Node4</title>
<g id="a_node4"><a xlink:href="../../d5/db4/class_wi_fi___s_a_l__esp32.html" target="_top" xlink:title=" ">
<polygon fill="none" stroke="black" points="119,-0.5 119,-178.5 250,-178.5 250,-0.5 119,-0.5"/>
<text text-anchor="middle" x="184.5" y="-166.5" font-family="Helvetica,sans-Serif" font-size="10.00">WiFi_SAL_esp32</text>
<polyline fill="none" stroke="black" points="119,-159.5 250,-159.5 "/>
<text text-anchor="start" x="127" y="-147.5" font-family="Helvetica,sans-Serif" font-size="10.00">&#45; instance_any_id</text>
<text text-anchor="start" x="127" y="-136.5" font-family="Helvetica,sans-Serif" font-size="10.00">&#45; instance_got_ip</text>
<text text-anchor="start" x="127" y="-125.5" font-family="Helvetica,sans-Serif" font-size="10.00">&#45; m_cfg</text>
<text text-anchor="start" x="127" y="-114.5" font-family="Helvetica,sans-Serif" font-size="10.00">&#45; m_wifi_power</text>
<polyline fill="none" stroke="black" points="119,-107.5 250,-107.5 "/>
<text text-anchor="start" x="127" y="-95.5" font-family="Helvetica,sans-Serif" font-size="10.00">+ WiFi_SAL_esp32()</text>
<text text-anchor="start" x="127" y="-84.5" font-family="Helvetica,sans-Serif" font-size="10.00">+ WiFi_SAL_esp32()</text>
<text text-anchor="start" x="127" y="-73.5" font-family="Helvetica,sans-Serif" font-size="10.00">+ ~WiFi_SAL_esp32()</text>
<text text-anchor="start" x="127" y="-62.5" font-family="Helvetica,sans-Serif" font-size="10.00">+ connect()</text>
<text text-anchor="start" x="127" y="-51.5" font-family="Helvetica,sans-Serif" font-size="10.00">+ disconnect()</text>
<text text-anchor="start" x="127" y="-40.5" font-family="Helvetica,sans-Serif" font-size="10.00">&#45; wifi_enum_to_power()</text>
<text text-anchor="start" x="127" y="-29.5" font-family="Helvetica,sans-Serif" font-size="10.00">&#45; operator=()</text>
<text text-anchor="start" x="127" y="-18.5" font-family="Helvetica,sans-Serif" font-size="10.00">&#45; WiFi_SAL_esp32()</text>
<text text-anchor="start" x="127" y="-7.5" font-family="Helvetica,sans-Serif" font-size="10.00">&#45; event_handler()</text>
</a>
</g>
</g>
<!-- Node1&#45;&gt;Node4 -->
<g id="edge3" class="edge">
<title>Node1&#45;&gt;Node4</title>
<path fill="none" stroke="midnightblue" d="M140.12,-206.1C143.49,-197.3 147.04,-188.06 150.59,-178.81"/>
<polygon fill="none" stroke="midnightblue" points="136.84,-204.87 136.52,-215.46 143.37,-207.38 136.84,-204.87"/>
</g>
<!-- Node2 -->
<g id="node2" class="node">
<title>Node2</title>
<g id="a_node2"><a xlink:href="../../d0/d74/class_connector_base.html" target="_top" xlink:title=" ">
<polygon fill="none" stroke="black" points="59,-353.5 59,-465.5 176,-465.5 176,-353.5 59,-353.5"/>
<text text-anchor="middle" x="117.5" y="-453.5" font-family="Helvetica,sans-Serif" font-size="10.00">ConnectorBase</text>
<polyline fill="none" stroke="black" points="59,-446.5 176,-446.5 "/>
<text text-anchor="middle" x="117.5" y="-434.5" font-family="Helvetica,sans-Serif" font-size="10.00"> </text>
<polyline fill="none" stroke="black" points="59,-427.5 176,-427.5 "/>
<text text-anchor="start" x="67" y="-415.5" font-family="Helvetica,sans-Serif" font-size="10.00">+ ConnectorBase()</text>
<text text-anchor="start" x="67" y="-404.5" font-family="Helvetica,sans-Serif" font-size="10.00">+ ~ConnectorBase()</text>
<text text-anchor="start" x="67" y="-393.5" font-family="Helvetica,sans-Serif" font-size="10.00">+ connect()</text>
<text text-anchor="start" x="67" y="-382.5" font-family="Helvetica,sans-Serif" font-size="10.00">+ disconnect()</text>
<text text-anchor="start" x="67" y="-371.5" font-family="Helvetica,sans-Serif" font-size="10.00">&#45; ConnectorBase()</text>
<text text-anchor="start" x="67" y="-360.5" font-family="Helvetica,sans-Serif" font-size="10.00">&#45; operator=()</text>
</a>
</g>
</g>
<!-- Node2&#45;&gt;Node1 -->
<g id="edge1" class="edge">
<title>Node2&#45;&gt;Node1</title>
<path fill="none" stroke="midnightblue" d="M117.5,-343.34C117.5,-334.38 117.5,-325.29 117.5,-316.66"/>
<polygon fill="none" stroke="midnightblue" points="114,-343.39 117.5,-353.39 121,-343.39 114,-343.39"/>
</g>
</g>
</svg>
        <g id="navigator" transform="translate(0 0)" fill="#404254">
                <rect fill="#f2f5e9" fill-opacity="0.5" stroke="#606060" stroke-width=".5" x="0" y="0" width="60" height="60"/>
                <use id="zoomplus" xlink:href="#zoomPlus" x="17" y="9" onmousedown="handleZoom(evt,'in')"/>
                <use id="zoomminus" xlink:href="#zoomMin" x="42" y="9" onmousedown="handleZoom(evt,'out')"/>
                <use id="reset" xlink:href="#resetDef" x="30" y="36" onmousedown="handleReset()"/>
                <g id="arrowUp" xlink:href="#dirArrow" transform="translate(30 24)" onmousedown="handlePan(0,-1)">
                  <use xlink:href="#rim" fill="#404040">
                        <set attributeName="fill" to="#808080" begin="arrowUp.mouseover" end="arrowUp.mouseout"/>
                  </use>
                  <path fill="none" stroke="white" stroke-width="1.5" d="M0,-3.0v7 M-2.5,-0.5L0,-3.0L2.5,-0.5"/>
                </g>
                <g id="arrowRight" xlink:href="#dirArrow" transform="rotate(90) translate(36 -43)" onmousedown="handlePan(1,0)">
                  <use xlink:href="#rim" fill="#404040">
                        <set attributeName="fill" to="#808080" begin="arrowRight.mouseover" end="arrowRight.mouseout"/>
                  </use>
                  <path fill="none" stroke="white" stroke-width="1.5" d="M0,-3.0v7 M-2.5,-0.5L0,-3.0L2.5,-0.5"/>
                </g>
                <g id="arrowDown" xlink:href="#dirArrow" transform="rotate(180) translate(-30 -48)" onmousedown="handlePan(0,1)">
                  <use xlink:href="#rim" fill="#404040">
                        <set attributeName="fill" to="#808080" begin="arrowDown.mouseover" end="arrowDown.mouseout"/>
                  </use>
                  <path fill="none" stroke="white" stroke-width="1.5" d="M0,-3.0v7 M-2.5,-0.5L0,-3.0L2.5,-0.5"/>
                </g>
                <g id="arrowLeft" xlink:href="#dirArrow" transform="rotate(270) translate(-36 17)" onmousedown="handlePan(-1,0)">
                  <use xlink:href="#rim" fill="#404040">
                        <set attributeName="fill" to="#808080" begin="arrowLeft.mouseover" end="arrowLeft.mouseout"/>
                  </use>
                  <path fill="none" stroke="white" stroke-width="1.5" d="M0,-3.0v7 M-2.5,-0.5L0,-3.0L2.5,-0.5"/>
                </g>
        </g>
        <svg viewBox="0 0 15 15" width="100%" height="30px" preserveAspectRatio="xMaxYMin meet">
         <g id="arrow_out" transform="scale(0.3 0.3)">
          <a xlink:href="class_wi_fi_base__inherit__graph_org.svg" target="_base">
           <rect id="button" ry="5" rx="5" y="6" x="6" height="38" width="38"
                fill="#f2f5e9" fill-opacity="0.5" stroke="#606060" stroke-width="1.0"/>
           <path id="arrow"
             d="M 11.500037,31.436501 C 11.940474,20.09759 22.043105,11.32322 32.158766,21.979434 L 37.068811,17.246167 C 37.068811,17.246167 37.088388,32 37.088388,32 L 22.160133,31.978069 C 22.160133,31.978069 26.997745,27.140456 26.997745,27.140456 C 18.528582,18.264221 13.291696,25.230495 11.500037,31.436501 z"
             style="fill:#404040;"/>
          </a>
         </g>
        </svg>
</svg>
