<?xml version="1.0" encoding="UTF-8" standalone="no"?>
<!DOCTYPE svg PUBLIC "-//W3C//DTD SVG 1.1//EN"
 "http://www.w3.org/Graphics/SVG/1.1/DTD/svg11.dtd">
<!-- Generated by graphviz version 2.43.0 (0)
 -->
<!-- Title: WiFiBase Pages: 1 -->
<svg width="250pt" height="452pt"
 viewBox="0.00 0.00 250.00 452.00" xmlns="http://www.w3.org/2000/svg" xmlns:xlink="http://www.w3.org/1999/xlink">
<g id="graph0" class="graph" transform="scale(1 1) rotate(0) translate(4 448)">
<title>WiFiBase</title>
<!-- Node1 -->
<g id="node1" class="node">
<title>Node1</title>
<g id="a_node1"><a xlink:title=" ">
<polygon fill="#bfbfbf" stroke="black" points="71,-193.5 71,-294.5 160,-294.5 160,-193.5 71,-193.5"/>
<text text-anchor="middle" x="115.5" y="-282.5" font-family="Helvetica,sans-Serif" font-size="10.00">WiFiBase</text>
<polyline fill="none" stroke="black" points="71,-275.5 160,-275.5 "/>
<text text-anchor="start" x="79" y="-263.5" font-family="Helvetica,sans-Serif" font-size="10.00"># m_ssid</text>
<text text-anchor="start" x="79" y="-252.5" font-family="Helvetica,sans-Serif" font-size="10.00"># m_pwd</text>
<polyline fill="none" stroke="black" points="71,-245.5 160,-245.5 "/>
<text text-anchor="start" x="79" y="-233.5" font-family="Helvetica,sans-Serif" font-size="10.00">+ WiFiBase()</text>
<text text-anchor="start" x="79" y="-222.5" font-family="Helvetica,sans-Serif" font-size="10.00">+ ~WiFiBase()</text>
<text text-anchor="start" x="79" y="-211.5" font-family="Helvetica,sans-Serif" font-size="10.00">&#45; WiFiBase()</text>
<text text-anchor="start" x="79" y="-200.5" font-family="Helvetica,sans-Serif" font-size="10.00">&#45; operator=()</text>
</a>
</g>
</g>
<!-- Node3 -->
<g id="node3" class="node">
<title>Node3</title>
<g id="a_node3"><a xlink:href="../../d6/db5/class_m_o_c_k___w_i_f_i.html" target="_top" xlink:title=" ">
<polygon fill="none" stroke="black" points="0,-33.5 0,-123.5 101,-123.5 101,-33.5 0,-33.5"/>
<text text-anchor="middle" x="50.5" y="-111.5" font-family="Helvetica,sans-Serif" font-size="10.00">MOCK_WIFI</text>
<polyline fill="none" stroke="black" points="0,-104.5 101,-104.5 "/>
<text text-anchor="middle" x="50.5" y="-92.5" font-family="Helvetica,sans-Serif" font-size="10.00"> </text>
<polyline fill="none" stroke="black" points="0,-85.5 101,-85.5 "/>
<text text-anchor="start" x="8" y="-73.5" font-family="Helvetica,sans-Serif" font-size="10.00">+ MOCK_WIFI()</text>
<text text-anchor="start" x="8" y="-62.5" font-family="Helvetica,sans-Serif" font-size="10.00">+ ~MOCK_WIFI()</text>
<text text-anchor="start" x="8" y="-51.5" font-family="Helvetica,sans-Serif" font-size="10.00">+ connect()</text>
<text text-anchor="start" x="8" y="-40.5" font-family="Helvetica,sans-Serif" font-size="10.00">+ disconnect()</text>
</a>
</g>
</g>
<!-- Node1&#45;&gt;Node3 -->
<g id="edge2" class="edge">
<title>Node1&#45;&gt;Node3</title>
<path fill="none" stroke="midnightblue" d="M91.85,-183.51C83.98,-163.71 75.36,-142.02 68.03,-123.6"/>
<polygon fill="none" stroke="midnightblue" points="88.7,-185.06 95.64,-193.06 95.2,-182.47 88.7,-185.06"/>
</g>
<!-- Node4 -->
<g id="node4" class="node">
<title>Node4</title>
<g id="a_node4"><a xlink:href="../../d5/db4/class_wi_fi___s_a_l__esp32.html" target="_top" xlink:title=" ">
<polygon fill="none" stroke="black" points="119,-0.5 119,-156.5 242,-156.5 242,-0.5 119,-0.5"/>
<text text-anchor="middle" x="180.5" y="-144.5" font-family="Helvetica,sans-Serif" font-size="10.00">WiFi_SAL_esp32</text>
<polyline fill="none" stroke="black" points="119,-137.5 242,-137.5 "/>
<text text-anchor="start" x="127" y="-125.5" font-family="Helvetica,sans-Serif" font-size="10.00">&#45; instance_any_id</text>
<text text-anchor="start" x="127" y="-114.5" font-family="Helvetica,sans-Serif" font-size="10.00">&#45; instance_got_ip</text>
<text text-anchor="start" x="127" y="-103.5" font-family="Helvetica,sans-Serif" font-size="10.00">&#45; m_cfg</text>
<polyline fill="none" stroke="black" points="119,-96.5 242,-96.5 "/>
<text text-anchor="start" x="127" y="-84.5" font-family="Helvetica,sans-Serif" font-size="10.00">+ WiFi_SAL_esp32()</text>
<text text-anchor="start" x="127" y="-73.5" font-family="Helvetica,sans-Serif" font-size="10.00">+ WiFi_SAL_esp32()</text>
<text text-anchor="start" x="127" y="-62.5" font-family="Helvetica,sans-Serif" font-size="10.00">+ ~WiFi_SAL_esp32()</text>
<text text-anchor="start" x="127" y="-51.5" font-family="Helvetica,sans-Serif" font-size="10.00">+ connect()</text>
<text text-anchor="start" x="127" y="-40.5" font-family="Helvetica,sans-Serif" font-size="10.00">+ disconnect()</text>
<text text-anchor="start" x="127" y="-29.5" font-family="Helvetica,sans-Serif" font-size="10.00">&#45; operator=()</text>
<text text-anchor="start" x="127" y="-18.5" font-family="Helvetica,sans-Serif" font-size="10.00">&#45; WiFi_SAL_esp32()</text>
<text text-anchor="start" x="127" y="-7.5" font-family="Helvetica,sans-Serif" font-size="10.00">&#45; event_handler()</text>
</a>
</g>
</g>
<!-- Node1&#45;&gt;Node4 -->
<g id="edge3" class="edge">
<title>Node1&#45;&gt;Node4</title>
<path fill="none" stroke="midnightblue" d="M139.09,-183.66C142.59,-174.85 146.25,-165.65 149.87,-156.54"/>
<polygon fill="none" stroke="midnightblue" points="135.8,-182.47 135.36,-193.06 142.3,-185.06 135.8,-182.47"/>
</g>
<!-- Node2 -->
<g id="node2" class="node">
<title>Node2</title>
<g id="a_node2"><a xlink:href="../../d0/d74/class_connector_base.html" target="_top" xlink:title=" ">
<polygon fill="none" stroke="black" points="57,-331.5 57,-443.5 174,-443.5 174,-331.5 57,-331.5"/>
<text text-anchor="middle" x="115.5" y="-431.5" font-family="Helvetica,sans-Serif" font-size="10.00">ConnectorBase</text>
<polyline fill="none" stroke="black" points="57,-424.5 174,-424.5 "/>
<text text-anchor="middle" x="115.5" y="-412.5" font-family="Helvetica,sans-Serif" font-size="10.00"> </text>
<polyline fill="none" stroke="black" points="57,-405.5 174,-405.5 "/>
<text text-anchor="start" x="65" y="-393.5" font-family="Helvetica,sans-Serif" font-size="10.00">+ ConnectorBase()</text>
<text text-anchor="start" x="65" y="-382.5" font-family="Helvetica,sans-Serif" font-size="10.00">+ ~ConnectorBase()</text>
<text text-anchor="start" x="65" y="-371.5" font-family="Helvetica,sans-Serif" font-size="10.00">+ connect()</text>
<text text-anchor="start" x="65" y="-360.5" font-family="Helvetica,sans-Serif" font-size="10.00">+ disconnect()</text>
<text text-anchor="start" x="65" y="-349.5" font-family="Helvetica,sans-Serif" font-size="10.00">&#45; ConnectorBase()</text>
<text text-anchor="start" x="65" y="-338.5" font-family="Helvetica,sans-Serif" font-size="10.00">&#45; operator=()</text>
</a>
</g>
</g>
<!-- Node2&#45;&gt;Node1 -->
<g id="edge1" class="edge">
<title>Node2&#45;&gt;Node1</title>
<path fill="none" stroke="midnightblue" d="M115.5,-321.34C115.5,-312.38 115.5,-303.29 115.5,-294.66"/>
<polygon fill="none" stroke="midnightblue" points="112,-321.39 115.5,-331.39 119,-321.39 112,-321.39"/>
</g>
</g>
</svg>
