<?xml version="1.0" encoding="UTF-8" standalone="no"?>
<!DOCTYPE svg PUBLIC "-//W3C//DTD SVG 1.1//EN"
 "http://www.w3.org/Graphics/SVG/1.1/DTD/svg11.dtd">
<!-- Generated by graphviz version 2.43.0 (0)
 -->
<!-- Title: Components/Objects/Timeservice/include/Timeservice.hpp Pages: 1 -->
<svg width="450pt" height="229pt"
 viewBox="0.00 0.00 450.00 229.00" xmlns="http://www.w3.org/2000/svg" xmlns:xlink="http://www.w3.org/1999/xlink">
<g id="graph0" class="graph" transform="scale(1 1) rotate(0) translate(4 225)">
<title>Components/Objects/Timeservice/include/Timeservice.hpp</title>
<!-- Node1 -->
<g id="node1" class="node">
<title>Node1</title>
<g id="a_node1"><a xlink:title=" ">
<polygon fill="#bfbfbf" stroke="black" points="191,-179.5 191,-220.5 309,-220.5 309,-179.5 191,-179.5"/>
<text text-anchor="start" x="199" y="-208.5" font-family="Helvetica,sans-Serif" font-size="10.00">Components/Objects</text>
<text text-anchor="start" x="199" y="-197.5" font-family="Helvetica,sans-Serif" font-size="10.00">/Timeservice/include</text>
<text text-anchor="middle" x="250" y="-186.5" font-family="Helvetica,sans-Serif" font-size="10.00">/Timeservice.hpp</text>
</a>
</g>
</g>
<!-- Node2 -->
<g id="node2" class="node">
<title>Node2</title>
<g id="a_node2"><a xlink:href="../../da/d5f/_b_a_s_i_c_8hpp.html" target="_top" xlink:title=" ">
<polygon fill="none" stroke="black" points="0,-56.5 0,-86.5 116,-86.5 116,-56.5 0,-56.5"/>
<text text-anchor="start" x="8" y="-74.5" font-family="Helvetica,sans-Serif" font-size="10.00">../../../Global_Include</text>
<text text-anchor="middle" x="58" y="-63.5" font-family="Helvetica,sans-Serif" font-size="10.00">/BASIC.hpp</text>
</a>
</g>
</g>
<!-- Node1&#45;&gt;Node2 -->
<g id="edge1" class="edge">
<title>Node1&#45;&gt;Node2</title>
<path fill="none" stroke="midnightblue" d="M190.96,-184.5C163.46,-175.69 131.48,-162.33 107,-143 90.82,-130.23 77.82,-110.68 69.29,-95.4"/>
<polygon fill="midnightblue" stroke="midnightblue" points="72.36,-93.72 64.57,-86.55 66.18,-97.02 72.36,-93.72"/>
</g>
<!-- Node3 -->
<g id="node3" class="node">
<title>Node3</title>
<g id="a_node3"><a xlink:href="../../d3/deb/_general___error_8hpp.html" target="_top" xlink:title=" ">
<polygon fill="none" stroke="black" points="196.5,-56.5 196.5,-86.5 341.5,-86.5 341.5,-56.5 196.5,-56.5"/>
<text text-anchor="start" x="204.5" y="-74.5" font-family="Helvetica,sans-Serif" font-size="10.00">../../../Objects/ErrorHandler</text>
<text text-anchor="middle" x="269" y="-63.5" font-family="Helvetica,sans-Serif" font-size="10.00">/include/General_Error.hpp</text>
</a>
</g>
</g>
<!-- Node1&#45;&gt;Node3 -->
<g id="edge2" class="edge">
<title>Node1&#45;&gt;Node3</title>
<path fill="none" stroke="midnightblue" d="M244.71,-179.38C241.36,-163.88 238.44,-141.8 243,-123 245.29,-113.53 249.69,-103.85 254.23,-95.53"/>
<polygon fill="midnightblue" stroke="midnightblue" points="257.3,-97.2 259.3,-86.79 251.25,-93.68 257.3,-97.2"/>
</g>
<!-- Node6 -->
<g id="node6" class="node">
<title>Node6</title>
<g id="a_node6"><a xlink:href="../../d6/d4b/_r_t_c___h_a_l_8hpp.html" target="_top" xlink:title=" ">
<polygon fill="none" stroke="black" points="116,-123.5 116,-142.5 196,-142.5 196,-123.5 116,-123.5"/>
<text text-anchor="middle" x="156" y="-130.5" font-family="Helvetica,sans-Serif" font-size="10.00">RTC_HAL.hpp</text>
</a>
</g>
</g>
<!-- Node1&#45;&gt;Node6 -->
<g id="edge5" class="edge">
<title>Node1&#45;&gt;Node6</title>
<path fill="none" stroke="midnightblue" d="M221.8,-179.5C207.38,-169.53 190.15,-157.61 176.94,-148.48"/>
<polygon fill="midnightblue" stroke="midnightblue" points="178.73,-145.46 168.51,-142.65 174.75,-151.22 178.73,-145.46"/>
</g>
<!-- Node8 -->
<g id="node8" class="node">
<title>Node8</title>
<g id="a_node8"><a xlink:title=" ">
<polygon fill="none" stroke="#bfbfbf" points="252,-123.5 252,-142.5 302,-142.5 302,-123.5 252,-123.5"/>
<text text-anchor="middle" x="277" y="-130.5" font-family="Helvetica,sans-Serif" font-size="10.00">chrono</text>
</a>
</g>
</g>
<!-- Node1&#45;&gt;Node8 -->
<g id="edge9" class="edge">
<title>Node1&#45;&gt;Node8</title>
<path fill="none" stroke="midnightblue" d="M258.1,-179.5C261.72,-170.78 265.97,-160.56 269.51,-152.02"/>
<polygon fill="midnightblue" stroke="midnightblue" points="272.8,-153.23 273.41,-142.65 266.34,-150.54 272.8,-153.23"/>
</g>
<!-- Node9 -->
<g id="node9" class="node">
<title>Node9</title>
<g id="a_node9"><a xlink:title=" ">
<polygon fill="none" stroke="#bfbfbf" points="320,-123.5 320,-142.5 376,-142.5 376,-123.5 320,-123.5"/>
<text text-anchor="middle" x="348" y="-130.5" font-family="Helvetica,sans-Serif" font-size="10.00">iomanip</text>
</a>
</g>
</g>
<!-- Node1&#45;&gt;Node9 -->
<g id="edge10" class="edge">
<title>Node1&#45;&gt;Node9</title>
<path fill="none" stroke="midnightblue" d="M279.4,-179.5C294.57,-169.44 312.74,-157.38 326.57,-148.21"/>
<polygon fill="midnightblue" stroke="midnightblue" points="328.56,-151.1 334.95,-142.65 324.69,-145.26 328.56,-151.1"/>
</g>
<!-- Node10 -->
<g id="node10" class="node">
<title>Node10</title>
<g id="a_node10"><a xlink:title=" ">
<polygon fill="none" stroke="#bfbfbf" points="394,-123.5 394,-142.5 442,-142.5 442,-123.5 394,-123.5"/>
<text text-anchor="middle" x="418" y="-130.5" font-family="Helvetica,sans-Serif" font-size="10.00">thread</text>
</a>
</g>
</g>
<!-- Node1&#45;&gt;Node10 -->
<g id="edge11" class="edge">
<title>Node1&#45;&gt;Node10</title>
<path fill="none" stroke="midnightblue" d="M300.41,-179.5C328.27,-168.72 362.04,-155.65 386.22,-146.29"/>
<polygon fill="midnightblue" stroke="midnightblue" points="387.57,-149.53 395.64,-142.65 385.05,-143 387.57,-149.53"/>
</g>
<!-- Node4 -->
<g id="node4" class="node">
<title>Node4</title>
<g id="a_node4"><a xlink:title=" ">
<polygon fill="none" stroke="#bfbfbf" points="212,-0.5 212,-19.5 256,-19.5 256,-0.5 212,-0.5"/>
<text text-anchor="middle" x="234" y="-7.5" font-family="Helvetica,sans-Serif" font-size="10.00">string</text>
</a>
</g>
</g>
<!-- Node3&#45;&gt;Node4 -->
<g id="edge3" class="edge">
<title>Node3&#45;&gt;Node4</title>
<path fill="none" stroke="midnightblue" d="M260.71,-56.4C255.78,-48.02 249.49,-37.33 244.25,-28.42"/>
<polygon fill="midnightblue" stroke="midnightblue" points="247.18,-26.5 239.09,-19.66 241.15,-30.05 247.18,-26.5"/>
</g>
<!-- Node5 -->
<g id="node5" class="node">
<title>Node5</title>
<g id="a_node5"><a xlink:title=" ">
<polygon fill="none" stroke="#bfbfbf" points="274,-0.5 274,-19.5 334,-19.5 334,-0.5 274,-0.5"/>
<text text-anchor="middle" x="304" y="-7.5" font-family="Helvetica,sans-Serif" font-size="10.00">iostream</text>
</a>
</g>
</g>
<!-- Node3&#45;&gt;Node5 -->
<g id="edge4" class="edge">
<title>Node3&#45;&gt;Node5</title>
<path fill="none" stroke="midnightblue" d="M277.29,-56.4C282.22,-48.02 288.51,-37.33 293.75,-28.42"/>
<polygon fill="midnightblue" stroke="midnightblue" points="296.85,-30.05 298.91,-19.66 290.82,-26.5 296.85,-30.05"/>
</g>
<!-- Node6&#45;&gt;Node2 -->
<g id="edge6" class="edge">
<title>Node6&#45;&gt;Node2</title>
<path fill="none" stroke="midnightblue" d="M141.96,-123.48C128.44,-115.27 107.51,-102.56 89.93,-91.88"/>
<polygon fill="midnightblue" stroke="midnightblue" points="91.46,-88.72 81.1,-86.52 87.83,-94.7 91.46,-88.72"/>
</g>
<!-- Node6&#45;&gt;Node3 -->
<g id="edge7" class="edge">
<title>Node6&#45;&gt;Node3</title>
<path fill="none" stroke="midnightblue" d="M172.19,-123.48C188.07,-115.12 212.8,-102.09 233.3,-91.3"/>
<polygon fill="midnightblue" stroke="midnightblue" points="235.15,-94.28 242.37,-86.52 231.89,-88.09 235.15,-94.28"/>
</g>
<!-- Node7 -->
<g id="node7" class="node">
<title>Node7</title>
<g id="a_node7"><a xlink:title=" ">
<polygon fill="none" stroke="#bfbfbf" points="134,-62 134,-81 178,-81 178,-62 134,-62"/>
<text text-anchor="middle" x="156" y="-69" font-family="Helvetica,sans-Serif" font-size="10.00">ctime</text>
</a>
</g>
</g>
<!-- Node6&#45;&gt;Node7 -->
<g id="edge8" class="edge">
<title>Node6&#45;&gt;Node7</title>
<path fill="none" stroke="midnightblue" d="M156,-123.48C156,-115.08 156,-101.98 156,-91.16"/>
<polygon fill="midnightblue" stroke="midnightblue" points="159.5,-91.01 156,-81.01 152.5,-91.01 159.5,-91.01"/>
</g>
</g>
</svg>
