<?xml version="1.0" encoding="UTF-8" standalone="no"?>
<!DOCTYPE svg PUBLIC "-//W3C//DTD SVG 1.1//EN"
 "http://www.w3.org/Graphics/SVG/1.1/DTD/svg11.dtd">
<!-- Generated by graphviz version 2.43.0 (0)
 -->
<!-- Title: Components/Protocols/I2C/include/i2c_common.hpp Pages: 1 -->
<svg width="694pt" height="396pt"
 viewBox="0.00 0.00 694.00 396.00" xmlns="http://www.w3.org/2000/svg" xmlns:xlink="http://www.w3.org/1999/xlink">
<g id="graph0" class="graph" transform="scale(1 1) rotate(0) translate(4 392)">
<title>Components/Protocols/I2C/include/i2c_common.hpp</title>
<!-- Node1 -->
<g id="node1" class="node">
<title>Node1</title>
<g id="a_node1"><a xlink:title=" ">
<polygon fill="#bfbfbf" stroke="black" points="271.5,-357.5 271.5,-387.5 431.5,-387.5 431.5,-357.5 271.5,-357.5"/>
<text text-anchor="start" x="279.5" y="-375.5" font-family="Helvetica,sans-Serif" font-size="10.00">Components/Protocols</text>
<text text-anchor="middle" x="351.5" y="-364.5" font-family="Helvetica,sans-Serif" font-size="10.00">/I2C/include/i2c_common.hpp</text>
</a>
</g>
</g>
<!-- Node2 -->
<g id="node2" class="node">
<title>Node2</title>
<g id="a_node2"><a xlink:href="../../db/d1c/i2c_8hpp.html" target="_top" xlink:title=" ">
<polygon fill="none" stroke="black" points="288.5,-290.5 288.5,-320.5 414.5,-320.5 414.5,-290.5 288.5,-290.5"/>
<text text-anchor="start" x="296.5" y="-308.5" font-family="Helvetica,sans-Serif" font-size="10.00">Components/Protocols</text>
<text text-anchor="middle" x="351.5" y="-297.5" font-family="Helvetica,sans-Serif" font-size="10.00">/I2C/include/i2c.hpp</text>
</a>
</g>
</g>
<!-- Node1&#45;&gt;Node2 -->
<g id="edge1" class="edge">
<title>Node1&#45;&gt;Node2</title>
<path fill="none" stroke="midnightblue" d="M351.5,-347.11C351.5,-338.15 351.5,-328.32 351.5,-320.58"/>
<polygon fill="midnightblue" stroke="midnightblue" points="348,-347.4 351.5,-357.4 355,-347.4 348,-347.4"/>
</g>
<!-- Node13 -->
<g id="node13" class="node">
<title>Node13</title>
<g id="a_node13"><a xlink:href="../../dd/d52/i2c__esp32_8hpp.html" target="_top" xlink:title=" ">
<polygon fill="none" stroke="black" points="432.5,-290.5 432.5,-320.5 578.5,-320.5 578.5,-290.5 432.5,-290.5"/>
<text text-anchor="start" x="440.5" y="-308.5" font-family="Helvetica,sans-Serif" font-size="10.00">Components/Protocols</text>
<text text-anchor="middle" x="505.5" y="-297.5" font-family="Helvetica,sans-Serif" font-size="10.00">/I2C/include/i2c_esp32.hpp</text>
</a>
</g>
</g>
<!-- Node1&#45;&gt;Node13 -->
<g id="edge15" class="edge">
<title>Node1&#45;&gt;Node13</title>
<path fill="none" stroke="midnightblue" d="M394.37,-353.41C418.95,-343.03 449.36,-330.2 472.15,-320.58"/>
<polygon fill="midnightblue" stroke="midnightblue" points="392.77,-350.28 384.92,-357.4 395.49,-356.73 392.77,-350.28"/>
</g>
<!-- Node15 -->
<g id="node15" class="node">
<title>Node15</title>
<g id="a_node15"><a xlink:href="../../d2/d31/i2c__mock_8hpp.html" target="_top" xlink:title=" ">
<polygon fill="none" stroke="black" points="112.5,-290.5 112.5,-320.5 270.5,-320.5 270.5,-290.5 112.5,-290.5"/>
<text text-anchor="start" x="120.5" y="-308.5" font-family="Helvetica,sans-Serif" font-size="10.00">Components/Protocols</text>
<text text-anchor="middle" x="191.5" y="-297.5" font-family="Helvetica,sans-Serif" font-size="10.00">/I2C/test/mock/i2c_mock.hpp</text>
</a>
</g>
</g>
<!-- Node1&#45;&gt;Node15 -->
<g id="edge18" class="edge">
<title>Node1&#45;&gt;Node15</title>
<path fill="none" stroke="midnightblue" d="M307.3,-353.54C281.7,-343.14 249.93,-330.24 226.15,-320.58"/>
<polygon fill="midnightblue" stroke="midnightblue" points="306.2,-356.87 316.78,-357.4 308.84,-350.39 306.2,-356.87"/>
</g>
<!-- Node3 -->
<g id="node3" class="node">
<title>Node3</title>
<g id="a_node3"><a xlink:href="../../d0/d30/i2c__test_8cpp.html" target="_top" xlink:title=" ">
<polygon fill="none" stroke="black" points="121.5,-223.5 121.5,-253.5 261.5,-253.5 261.5,-223.5 121.5,-223.5"/>
<text text-anchor="start" x="129.5" y="-241.5" font-family="Helvetica,sans-Serif" font-size="10.00">Components/Protocols</text>
<text text-anchor="middle" x="191.5" y="-230.5" font-family="Helvetica,sans-Serif" font-size="10.00">/I2C/test/test/i2c_test.cpp</text>
</a>
</g>
</g>
<!-- Node2&#45;&gt;Node3 -->
<g id="edge2" class="edge">
<title>Node2&#45;&gt;Node3</title>
<path fill="none" stroke="midnightblue" d="M307.3,-286.54C281.7,-276.14 249.93,-263.24 226.15,-253.58"/>
<polygon fill="midnightblue" stroke="midnightblue" points="306.2,-289.87 316.78,-290.4 308.84,-283.39 306.2,-289.87"/>
</g>
<!-- Node4 -->
<g id="node4" class="node">
<title>Node4</title>
<g id="a_node4"><a xlink:href="../../db/d89/_a_m2320___base_8hpp.html" target="_top" xlink:title=" ">
<polygon fill="none" stroke="black" points="280,-223.5 280,-253.5 437,-253.5 437,-223.5 280,-223.5"/>
<text text-anchor="start" x="288" y="-241.5" font-family="Helvetica,sans-Serif" font-size="10.00">Components/Sensor/AM2320</text>
<text text-anchor="middle" x="358.5" y="-230.5" font-family="Helvetica,sans-Serif" font-size="10.00">/include/AM2320_Base.hpp</text>
</a>
</g>
</g>
<!-- Node2&#45;&gt;Node4 -->
<g id="edge3" class="edge">
<title>Node2&#45;&gt;Node4</title>
<path fill="none" stroke="midnightblue" d="M354.1,-280.4C355.07,-271.37 356.14,-261.41 356.98,-253.58"/>
<polygon fill="midnightblue" stroke="midnightblue" points="350.61,-280.08 353.02,-290.4 357.57,-280.83 350.61,-280.08"/>
</g>
<!-- Node5 -->
<g id="node5" class="node">
<title>Node5</title>
<g id="a_node5"><a xlink:href="../../d4/de2/_a_m2320___humidity_8hpp.html" target="_top" xlink:title=" ">
<polygon fill="none" stroke="black" points="104,-156.5 104,-186.5 271,-186.5 271,-156.5 104,-156.5"/>
<text text-anchor="start" x="112" y="-174.5" font-family="Helvetica,sans-Serif" font-size="10.00">Components/Sensor/AM2320</text>
<text text-anchor="middle" x="187.5" y="-163.5" font-family="Helvetica,sans-Serif" font-size="10.00">/include/AM2320_Humidity.hpp</text>
</a>
</g>
</g>
<!-- Node4&#45;&gt;Node5 -->
<g id="edge4" class="edge">
<title>Node4&#45;&gt;Node5</title>
<path fill="none" stroke="midnightblue" d="M311.98,-219.82C284.5,-209.37 250.17,-196.32 224.53,-186.58"/>
<polygon fill="midnightblue" stroke="midnightblue" points="310.8,-223.11 321.4,-223.4 313.29,-216.57 310.8,-223.11"/>
</g>
<!-- Node7 -->
<g id="node7" class="node">
<title>Node7</title>
<g id="a_node7"><a xlink:href="../../d6/d80/_sensor_2_a_m2320_2test_2test_2simple__test_8cpp.html" target="_top" xlink:title=" ">
<polygon fill="none" stroke="black" points="175,-84 175,-114 332,-114 332,-84 175,-84"/>
<text text-anchor="start" x="183" y="-102" font-family="Helvetica,sans-Serif" font-size="10.00">Components/Sensor/AM2320</text>
<text text-anchor="middle" x="253.5" y="-91" font-family="Helvetica,sans-Serif" font-size="10.00">/test/test/simple_test.cpp</text>
</a>
</g>
</g>
<!-- Node4&#45;&gt;Node7 -->
<g id="edge14" class="edge">
<title>Node4&#45;&gt;Node7</title>
<path fill="none" stroke="midnightblue" d="M340.33,-215.58C333.12,-206.77 324.83,-196.48 317.5,-187 297.89,-161.63 275.92,-131.34 263.5,-114.01"/>
<polygon fill="midnightblue" stroke="midnightblue" points="337.78,-217.99 346.83,-223.5 343.18,-213.55 337.78,-217.99"/>
</g>
<!-- Node10 -->
<g id="node10" class="node">
<title>Node10</title>
<g id="a_node10"><a xlink:href="../../df/d33/_a_m2320___temperature_8hpp.html" target="_top" xlink:title=" ">
<polygon fill="none" stroke="black" points="326,-156.5 326,-186.5 511,-186.5 511,-156.5 326,-156.5"/>
<text text-anchor="start" x="334" y="-174.5" font-family="Helvetica,sans-Serif" font-size="10.00">Components/Sensor/AM2320</text>
<text text-anchor="middle" x="418.5" y="-163.5" font-family="Helvetica,sans-Serif" font-size="10.00">/include/AM2320_Temperature.hpp</text>
</a>
</g>
</g>
<!-- Node4&#45;&gt;Node10 -->
<g id="edge9" class="edge">
<title>Node4&#45;&gt;Node10</title>
<path fill="none" stroke="midnightblue" d="M378.32,-216.02C387.26,-206.34 397.57,-195.17 405.51,-186.58"/>
<polygon fill="midnightblue" stroke="midnightblue" points="375.73,-213.67 371.52,-223.4 380.87,-218.42 375.73,-213.67"/>
</g>
<!-- Node12 -->
<g id="node12" class="node">
<title>Node12</title>
<g id="a_node12"><a xlink:href="../../db/ddd/_a_m2320___base_8cpp.html" target="_top" xlink:title=" ">
<polygon fill="none" stroke="black" points="529,-156.5 529,-186.5 686,-186.5 686,-156.5 529,-156.5"/>
<text text-anchor="start" x="537" y="-174.5" font-family="Helvetica,sans-Serif" font-size="10.00">Components/Sensor/AM2320</text>
<text text-anchor="middle" x="607.5" y="-163.5" font-family="Helvetica,sans-Serif" font-size="10.00">/src/AM2320_Base.cpp</text>
</a>
</g>
</g>
<!-- Node4&#45;&gt;Node12 -->
<g id="edge13" class="edge">
<title>Node4&#45;&gt;Node12</title>
<path fill="none" stroke="midnightblue" d="M422.03,-220.92C462.66,-210.31 514.8,-196.7 553.44,-186.61"/>
<polygon fill="midnightblue" stroke="midnightblue" points="421.01,-217.56 412.22,-223.48 422.78,-224.34 421.01,-217.56"/>
</g>
<!-- Node6 -->
<g id="node6" class="node">
<title>Node6</title>
<g id="a_node6"><a xlink:href="../../dd/d78/_a_m2320___humidity_8cpp.html" target="_top" xlink:title=" ">
<polygon fill="none" stroke="black" points="0,-84 0,-114 157,-114 157,-84 0,-84"/>
<text text-anchor="start" x="8" y="-102" font-family="Helvetica,sans-Serif" font-size="10.00">Components/Sensor/AM2320</text>
<text text-anchor="middle" x="78.5" y="-91" font-family="Helvetica,sans-Serif" font-size="10.00">/src/AM2320_Humidity.cpp</text>
</a>
</g>
</g>
<!-- Node5&#45;&gt;Node6 -->
<g id="edge5" class="edge">
<title>Node5&#45;&gt;Node6</title>
<path fill="none" stroke="midnightblue" d="M157.23,-150.92C139.14,-139.22 116.59,-124.63 100.26,-114.07"/>
<polygon fill="midnightblue" stroke="midnightblue" points="155.41,-153.91 165.7,-156.4 159.21,-148.03 155.41,-153.91"/>
</g>
<!-- Node5&#45;&gt;Node7 -->
<g id="edge6" class="edge">
<title>Node5&#45;&gt;Node7</title>
<path fill="none" stroke="midnightblue" d="M207.75,-148.86C218.29,-137.61 230.86,-124.18 240.16,-114.25"/>
<polygon fill="midnightblue" stroke="midnightblue" points="205.14,-146.54 200.86,-156.23 210.25,-151.33 205.14,-146.54"/>
</g>
<!-- Node8 -->
<g id="node8" class="node">
<title>Node8</title>
<g id="a_node8"><a xlink:href="../../d6/d72/_env_sensing__service_8hpp.html" target="_top" xlink:title=" ">
<polygon fill="none" stroke="black" points="350,-78.5 350,-119.5 487,-119.5 487,-78.5 350,-78.5"/>
<text text-anchor="start" x="358" y="-107.5" font-family="Helvetica,sans-Serif" font-size="10.00">Components/Service</text>
<text text-anchor="start" x="358" y="-96.5" font-family="Helvetica,sans-Serif" font-size="10.00">/EnvSensing/include</text>
<text text-anchor="middle" x="418.5" y="-85.5" font-family="Helvetica,sans-Serif" font-size="10.00">/EnvSensing_service.hpp</text>
</a>
</g>
</g>
<!-- Node5&#45;&gt;Node8 -->
<g id="edge7" class="edge">
<title>Node5&#45;&gt;Node8</title>
<path fill="none" stroke="midnightblue" d="M243.05,-153.55C276.55,-143.32 319.36,-130.26 354.31,-119.59"/>
<polygon fill="midnightblue" stroke="midnightblue" points="241.96,-150.22 233.41,-156.49 244,-156.92 241.96,-150.22"/>
</g>
<!-- Node9 -->
<g id="node9" class="node">
<title>Node9</title>
<g id="a_node9"><a xlink:href="../../d8/d34/_env_sensing__service_8cpp.html" target="_top" xlink:title=" ">
<polygon fill="none" stroke="black" points="342.5,-0.5 342.5,-41.5 494.5,-41.5 494.5,-0.5 342.5,-0.5"/>
<text text-anchor="start" x="350.5" y="-29.5" font-family="Helvetica,sans-Serif" font-size="10.00">Components/Service</text>
<text text-anchor="start" x="350.5" y="-18.5" font-family="Helvetica,sans-Serif" font-size="10.00">/EnvSensing/src/EnvSensing</text>
<text text-anchor="middle" x="418.5" y="-7.5" font-family="Helvetica,sans-Serif" font-size="10.00">_service.cpp</text>
</a>
</g>
</g>
<!-- Node8&#45;&gt;Node9 -->
<g id="edge8" class="edge">
<title>Node8&#45;&gt;Node9</title>
<path fill="none" stroke="midnightblue" d="M418.5,-68.3C418.5,-59.3 418.5,-49.65 418.5,-41.51"/>
<polygon fill="midnightblue" stroke="midnightblue" points="415,-68.43 418.5,-78.43 422,-68.43 415,-68.43"/>
</g>
<!-- Node10&#45;&gt;Node7 -->
<g id="edge11" class="edge">
<title>Node10&#45;&gt;Node7</title>
<path fill="none" stroke="midnightblue" d="M376.01,-152.34C348.11,-140.42 312.16,-125.07 286.44,-114.07"/>
<polygon fill="midnightblue" stroke="midnightblue" points="374.94,-155.69 385.51,-156.4 377.69,-149.26 374.94,-155.69"/>
</g>
<!-- Node10&#45;&gt;Node8 -->
<g id="edge12" class="edge">
<title>Node10&#45;&gt;Node8</title>
<path fill="none" stroke="midnightblue" d="M418.5,-145.98C418.5,-137.35 418.5,-127.76 418.5,-119.59"/>
<polygon fill="midnightblue" stroke="midnightblue" points="415,-146.23 418.5,-156.23 422,-146.23 415,-146.23"/>
</g>
<!-- Node11 -->
<g id="node11" class="node">
<title>Node11</title>
<g id="a_node11"><a xlink:href="../../d0/dc8/_a_m2320___temperature_8cpp.html" target="_top" xlink:title=" ">
<polygon fill="none" stroke="black" points="505.5,-84 505.5,-114 669.5,-114 669.5,-84 505.5,-84"/>
<text text-anchor="start" x="513.5" y="-102" font-family="Helvetica,sans-Serif" font-size="10.00">Components/Sensor/AM2320</text>
<text text-anchor="middle" x="587.5" y="-91" font-family="Helvetica,sans-Serif" font-size="10.00">/src/AM2320_Temperature.cpp</text>
</a>
</g>
</g>
<!-- Node10&#45;&gt;Node11 -->
<g id="edge10" class="edge">
<title>Node10&#45;&gt;Node11</title>
<path fill="none" stroke="midnightblue" d="M461.65,-152.5C490.27,-140.56 527.3,-125.11 553.77,-114.07"/>
<polygon fill="midnightblue" stroke="midnightblue" points="460.18,-149.32 452.29,-156.4 462.87,-155.78 460.18,-149.32"/>
</g>
<!-- Node13&#45;&gt;Node4 -->
<g id="edge17" class="edge">
<title>Node13&#45;&gt;Node4</title>
<path fill="none" stroke="midnightblue" d="M464.27,-286.27C440.86,-275.92 411.99,-263.15 390.33,-253.58"/>
<polygon fill="midnightblue" stroke="midnightblue" points="463.04,-289.55 473.6,-290.4 465.87,-283.15 463.04,-289.55"/>
</g>
<!-- Node14 -->
<g id="node14" class="node">
<title>Node14</title>
<g id="a_node14"><a xlink:href="../../de/deb/i2c__esp32_8cpp.html" target="_top" xlink:title=" ">
<polygon fill="none" stroke="black" points="455.5,-223.5 455.5,-253.5 581.5,-253.5 581.5,-223.5 455.5,-223.5"/>
<text text-anchor="start" x="463.5" y="-241.5" font-family="Helvetica,sans-Serif" font-size="10.00">Components/Protocols</text>
<text text-anchor="middle" x="518.5" y="-230.5" font-family="Helvetica,sans-Serif" font-size="10.00">/I2C/src/i2c_esp32.cpp</text>
</a>
</g>
</g>
<!-- Node13&#45;&gt;Node14 -->
<g id="edge16" class="edge">
<title>Node13&#45;&gt;Node14</title>
<path fill="none" stroke="midnightblue" d="M510.32,-280.4C512.13,-271.37 514.12,-261.41 515.68,-253.58"/>
<polygon fill="midnightblue" stroke="midnightblue" points="506.85,-279.9 508.32,-290.4 513.71,-281.28 506.85,-279.9"/>
</g>
<!-- Node15&#45;&gt;Node3 -->
<g id="edge19" class="edge">
<title>Node15&#45;&gt;Node3</title>
<path fill="none" stroke="midnightblue" d="M191.5,-280.11C191.5,-271.15 191.5,-261.32 191.5,-253.58"/>
<polygon fill="midnightblue" stroke="midnightblue" points="188,-280.4 191.5,-290.4 195,-280.4 188,-280.4"/>
</g>
</g>
</svg>
