<?xml version="1.0" encoding="UTF-8" standalone="no"?>
<!DOCTYPE svg PUBLIC "-//W3C//DTD SVG 1.1//EN"
 "http://www.w3.org/Graphics/SVG/1.1/DTD/svg11.dtd">
<!-- Generated by graphviz version 2.43.0 (0)
 -->
<!-- Title: Components/Protocols/I2C/include/i2c_common.hpp Pages: 1 -->
<!--zoomable 307 -->
<svg id="main" version="1.1" xmlns="http://www.w3.org/2000/svg" xmlns:xlink="http://www.w3.org/1999/xlink" xml:space="preserve" onload="init(evt)">
<style type="text/css"><![CDATA[
.edge:hover path { stroke: red; }
.edge:hover polygon { stroke: red; fill: red; }
]]></style>
<script type="text/javascript"><![CDATA[
var edges = document.getElementsByTagName('g');
if (edges && edges.length) {
  for (var i=0;i<edges.length;i++) {
    if (edges[i].id.substr(0,4)=='edge') {
      edges[i].setAttribute('class','edge');
    }
  }
}
]]></script>
        <defs>
                <circle id="rim" cx="0" cy="0" r="7"/>
                <circle id="rim2" cx="0" cy="0" r="3.5"/>
                <g id="zoomPlus">
                        <use xlink:href="#rim" fill="#404040">
                                <set attributeName="fill" to="#808080" begin="zoomplus.mouseover" end="zoomplus.mouseout"/>
                        </use>
                        <path d="M-4,0h8M0,-4v8" fill="none" stroke="white" stroke-width="1.5" pointer-events="none"/>
                </g>
                <g id="zoomMin">
                        <use xlink:href="#rim" fill="#404040">
                                <set attributeName="fill" to="#808080" begin="zoomminus.mouseover" end="zoomminus.mouseout"/>
                        </use>
                        <path d="M-4,0h8" fill="none" stroke="white" stroke-width="1.5" pointer-events="none"/>
                </g>
                <g id="dirArrow">
                        <path fill="none" stroke="white" stroke-width="1.5" d="M0,-3.0v7 M-2.5,-0.5L0,-3.0L2.5,-0.5"/>
                </g>
               <g id="resetDef">
                       <use xlink:href="#rim2" fill="#404040">
                               <set attributeName="fill" to="#808080" begin="reset.mouseover" end="reset.mouseout"/>
                       </use>
               </g>
        </defs>

<script type="text/javascript">
var viewWidth = 649;
var viewHeight = 307;
var sectionId = 'dynsection-1';
</script>
<script xlink:href="../../svgpan.js"/>
<svg id="graph" class="graph">
<g id="viewport">
<title>Components/Protocols/I2C/include/i2c_common.hpp</title>
<!-- Node1 -->
<g id="node1" class="node">
<title>Node1</title>
<g id="a_node1"><a xlink:title=" ">
<polygon fill="#bfbfbf" stroke="black" points="226.5,-268.5 226.5,-298.5 386.5,-298.5 386.5,-268.5 226.5,-268.5"/>
<text text-anchor="start" x="234.5" y="-286.5" font-family="Helvetica,sans-Serif" font-size="10.00">Components/Protocols</text>
<text text-anchor="middle" x="306.5" y="-275.5" font-family="Helvetica,sans-Serif" font-size="10.00">/I2C/include/i2c_common.hpp</text>
</a>
</g>
</g>
<!-- Node2 -->
<g id="node2" class="node">
<title>Node2</title>
<g id="a_node2"><a xlink:href="../../db/d1c/i2c_8hpp.html" target="_top" xlink:title=" ">
<polygon fill="none" stroke="black" points="243.5,-201.5 243.5,-231.5 369.5,-231.5 369.5,-201.5 243.5,-201.5"/>
<text text-anchor="start" x="251.5" y="-219.5" font-family="Helvetica,sans-Serif" font-size="10.00">Components/Protocols</text>
<text text-anchor="middle" x="306.5" y="-208.5" font-family="Helvetica,sans-Serif" font-size="10.00">/I2C/include/i2c.hpp</text>
</a>
</g>
</g>
<!-- Node1&#45;&gt;Node2 -->
<g id="edge1" class="edge">
<title>Node1&#45;&gt;Node2</title>
<path fill="none" stroke="midnightblue" d="M306.5,-258.11C306.5,-249.15 306.5,-239.32 306.5,-231.58"/>
<polygon fill="midnightblue" stroke="midnightblue" points="303,-258.4 306.5,-268.4 310,-258.4 303,-258.4"/>
</g>
<!-- Node11 -->
<g id="node11" class="node">
<title>Node11</title>
<g id="a_node11"><a xlink:href="../../dd/d52/i2c__esp32_8hpp.html" target="_top" xlink:title=" ">
<polygon fill="none" stroke="black" points="387.5,-201.5 387.5,-231.5 533.5,-231.5 533.5,-201.5 387.5,-201.5"/>
<text text-anchor="start" x="395.5" y="-219.5" font-family="Helvetica,sans-Serif" font-size="10.00">Components/Protocols</text>
<text text-anchor="middle" x="460.5" y="-208.5" font-family="Helvetica,sans-Serif" font-size="10.00">/I2C/include/i2c_esp32.hpp</text>
</a>
</g>
</g>
<!-- Node1&#45;&gt;Node11 -->
<g id="edge12" class="edge">
<title>Node1&#45;&gt;Node11</title>
<path fill="none" stroke="midnightblue" d="M349.37,-264.41C373.95,-254.03 404.36,-241.2 427.15,-231.58"/>
<polygon fill="midnightblue" stroke="midnightblue" points="347.77,-261.28 339.92,-268.4 350.49,-267.73 347.77,-261.28"/>
</g>
<!-- Node13 -->
<g id="node13" class="node">
<title>Node13</title>
<g id="a_node13"><a xlink:href="../../d2/d31/i2c__mock_8hpp.html" target="_top" xlink:title=" ">
<polygon fill="none" stroke="black" points="67.5,-201.5 67.5,-231.5 225.5,-231.5 225.5,-201.5 67.5,-201.5"/>
<text text-anchor="start" x="75.5" y="-219.5" font-family="Helvetica,sans-Serif" font-size="10.00">Components/Protocols</text>
<text text-anchor="middle" x="146.5" y="-208.5" font-family="Helvetica,sans-Serif" font-size="10.00">/I2C/test/mock/i2c_mock.hpp</text>
</a>
</g>
</g>
<!-- Node1&#45;&gt;Node13 -->
<g id="edge15" class="edge">
<title>Node1&#45;&gt;Node13</title>
<path fill="none" stroke="midnightblue" d="M262.3,-264.54C236.7,-254.14 204.93,-241.24 181.15,-231.58"/>
<polygon fill="midnightblue" stroke="midnightblue" points="261.2,-267.87 271.78,-268.4 263.84,-261.39 261.2,-267.87"/>
</g>
<!-- Node3 -->
<g id="node3" class="node">
<title>Node3</title>
<g id="a_node3"><a xlink:href="../../d0/d30/i2c__test_8cpp.html" target="_top" xlink:title=" ">
<polygon fill="none" stroke="black" points="76.5,-134.5 76.5,-164.5 216.5,-164.5 216.5,-134.5 76.5,-134.5"/>
<text text-anchor="start" x="84.5" y="-152.5" font-family="Helvetica,sans-Serif" font-size="10.00">Components/Protocols</text>
<text text-anchor="middle" x="146.5" y="-141.5" font-family="Helvetica,sans-Serif" font-size="10.00">/I2C/test/test/i2c_test.cpp</text>
</a>
</g>
</g>
<!-- Node2&#45;&gt;Node3 -->
<g id="edge2" class="edge">
<title>Node2&#45;&gt;Node3</title>
<path fill="none" stroke="midnightblue" d="M262.3,-197.54C236.7,-187.14 204.93,-174.24 181.15,-164.58"/>
<polygon fill="midnightblue" stroke="midnightblue" points="261.2,-200.87 271.78,-201.4 263.84,-194.39 261.2,-200.87"/>
</g>
<!-- Node4 -->
<g id="node4" class="node">
<title>Node4</title>
<g id="a_node4"><a xlink:href="../../db/d89/_a_m2320___base_8hpp.html" target="_top" xlink:title=" ">
<polygon fill="none" stroke="black" points="235,-134.5 235,-164.5 392,-164.5 392,-134.5 235,-134.5"/>
<text text-anchor="start" x="243" y="-152.5" font-family="Helvetica,sans-Serif" font-size="10.00">Components/Sensor/AM2320</text>
<text text-anchor="middle" x="313.5" y="-141.5" font-family="Helvetica,sans-Serif" font-size="10.00">/include/AM2320_Base.hpp</text>
</a>
</g>
</g>
<!-- Node2&#45;&gt;Node4 -->
<g id="edge3" class="edge">
<title>Node2&#45;&gt;Node4</title>
<path fill="none" stroke="midnightblue" d="M309.1,-191.4C310.07,-182.37 311.14,-172.41 311.98,-164.58"/>
<polygon fill="midnightblue" stroke="midnightblue" points="305.61,-191.08 308.02,-201.4 312.57,-191.83 305.61,-191.08"/>
</g>
<!-- Node5 -->
<g id="node5" class="node">
<title>Node5</title>
<g id="a_node5"><a xlink:href="../../d4/de2/_a_m2320___humidity_8hpp.html" target="_top" xlink:title=" ">
<polygon fill="none" stroke="black" points="59,-67.5 59,-97.5 226,-97.5 226,-67.5 59,-67.5"/>
<text text-anchor="start" x="67" y="-85.5" font-family="Helvetica,sans-Serif" font-size="10.00">Components/Sensor/AM2320</text>
<text text-anchor="middle" x="142.5" y="-74.5" font-family="Helvetica,sans-Serif" font-size="10.00">/include/AM2320_Humidity.hpp</text>
</a>
</g>
</g>
<!-- Node4&#45;&gt;Node5 -->
<g id="edge4" class="edge">
<title>Node4&#45;&gt;Node5</title>
<path fill="none" stroke="midnightblue" d="M266.98,-130.82C239.5,-120.37 205.17,-107.32 179.53,-97.58"/>
<polygon fill="midnightblue" stroke="midnightblue" points="265.8,-134.11 276.4,-134.4 268.29,-127.57 265.8,-134.11"/>
</g>
<!-- Node7 -->
<g id="node7" class="node">
<title>Node7</title>
<g id="a_node7"><a xlink:href="../../d6/d80/_sensor_2_a_m2320_2test_2test_2simple__test_8cpp.html" target="_top" xlink:title=" ">
<polygon fill="none" stroke="black" points="175,-0.5 175,-30.5 332,-30.5 332,-0.5 175,-0.5"/>
<text text-anchor="start" x="183" y="-18.5" font-family="Helvetica,sans-Serif" font-size="10.00">Components/Sensor/AM2320</text>
<text text-anchor="middle" x="253.5" y="-7.5" font-family="Helvetica,sans-Serif" font-size="10.00">/test/test/simple_test.cpp</text>
</a>
</g>
</g>
<!-- Node4&#45;&gt;Node7 -->
<g id="edge11" class="edge">
<title>Node4&#45;&gt;Node7</title>
<path fill="none" stroke="midnightblue" d="M292.24,-126.78C285.04,-118.37 277.54,-108.3 272.5,-98 261.7,-75.95 256.88,-47.49 254.85,-30.7"/>
<polygon fill="midnightblue" stroke="midnightblue" points="289.69,-129.18 298.98,-134.28 294.9,-124.5 289.69,-129.18"/>
</g>
<!-- Node8 -->
<g id="node8" class="node">
<title>Node8</title>
<g id="a_node8"><a xlink:href="../../df/d33/_a_m2320___temperature_8hpp.html" target="_top" xlink:title=" ">
<polygon fill="none" stroke="black" points="281,-67.5 281,-97.5 466,-97.5 466,-67.5 281,-67.5"/>
<text text-anchor="start" x="289" y="-85.5" font-family="Helvetica,sans-Serif" font-size="10.00">Components/Sensor/AM2320</text>
<text text-anchor="middle" x="373.5" y="-74.5" font-family="Helvetica,sans-Serif" font-size="10.00">/include/AM2320_Temperature.hpp</text>
</a>
</g>
</g>
<!-- Node4&#45;&gt;Node8 -->
<g id="edge7" class="edge">
<title>Node4&#45;&gt;Node8</title>
<path fill="none" stroke="midnightblue" d="M333.32,-127.02C342.26,-117.34 352.57,-106.17 360.51,-97.58"/>
<polygon fill="midnightblue" stroke="midnightblue" points="330.73,-124.67 326.52,-134.4 335.87,-129.42 330.73,-124.67"/>
</g>
<!-- Node10 -->
<g id="node10" class="node">
<title>Node10</title>
<g id="a_node10"><a xlink:href="../../db/ddd/_a_m2320___base_8cpp.html" target="_top" xlink:title=" ">
<polygon fill="none" stroke="black" points="484,-67.5 484,-97.5 641,-97.5 641,-67.5 484,-67.5"/>
<text text-anchor="start" x="492" y="-85.5" font-family="Helvetica,sans-Serif" font-size="10.00">Components/Sensor/AM2320</text>
<text text-anchor="middle" x="562.5" y="-74.5" font-family="Helvetica,sans-Serif" font-size="10.00">/src/AM2320_Base.cpp</text>
</a>
</g>
</g>
<!-- Node4&#45;&gt;Node10 -->
<g id="edge10" class="edge">
<title>Node4&#45;&gt;Node10</title>
<path fill="none" stroke="midnightblue" d="M377.03,-131.92C417.66,-121.31 469.8,-107.7 508.44,-97.61"/>
<polygon fill="midnightblue" stroke="midnightblue" points="376.01,-128.56 367.22,-134.48 377.78,-135.34 376.01,-128.56"/>
</g>
<!-- Node6 -->
<g id="node6" class="node">
<title>Node6</title>
<g id="a_node6"><a xlink:href="../../dd/d78/_a_m2320___humidity_8cpp.html" target="_top" xlink:title=" ">
<polygon fill="none" stroke="black" points="0,-0.5 0,-30.5 157,-30.5 157,-0.5 0,-0.5"/>
<text text-anchor="start" x="8" y="-18.5" font-family="Helvetica,sans-Serif" font-size="10.00">Components/Sensor/AM2320</text>
<text text-anchor="middle" x="78.5" y="-7.5" font-family="Helvetica,sans-Serif" font-size="10.00">/src/AM2320_Humidity.cpp</text>
</a>
</g>
</g>
<!-- Node5&#45;&gt;Node6 -->
<g id="edge5" class="edge">
<title>Node5&#45;&gt;Node6</title>
<path fill="none" stroke="midnightblue" d="M121.35,-60.02C111.82,-50.34 100.83,-39.17 92.36,-30.58"/>
<polygon fill="midnightblue" stroke="midnightblue" points="119.1,-62.73 128.61,-67.4 124.09,-57.81 119.1,-62.73"/>
</g>
<!-- Node5&#45;&gt;Node7 -->
<g id="edge6" class="edge">
<title>Node5&#45;&gt;Node7</title>
<path fill="none" stroke="midnightblue" d="M175.3,-62.3C192.66,-52.12 213.62,-39.85 229.46,-30.58"/>
<polygon fill="midnightblue" stroke="midnightblue" points="173.45,-59.32 166.59,-67.4 176.98,-65.36 173.45,-59.32"/>
</g>
<!-- Node8&#45;&gt;Node7 -->
<g id="edge9" class="edge">
<title>Node8&#45;&gt;Node7</title>
<path fill="none" stroke="midnightblue" d="M338.56,-62.57C319.68,-52.35 296.77,-39.94 279.49,-30.58"/>
<polygon fill="midnightblue" stroke="midnightblue" points="337,-65.71 347.46,-67.4 340.34,-59.56 337,-65.71"/>
</g>
<!-- Node9 -->
<g id="node9" class="node">
<title>Node9</title>
<g id="a_node9"><a xlink:href="../../d0/dc8/_a_m2320___temperature_8cpp.html" target="_top" xlink:title=" ">
<polygon fill="none" stroke="black" points="350.5,-0.5 350.5,-30.5 514.5,-30.5 514.5,-0.5 350.5,-0.5"/>
<text text-anchor="start" x="358.5" y="-18.5" font-family="Helvetica,sans-Serif" font-size="10.00">Components/Sensor/AM2320</text>
<text text-anchor="middle" x="432.5" y="-7.5" font-family="Helvetica,sans-Serif" font-size="10.00">/src/AM2320_Temperature.cpp</text>
</a>
</g>
</g>
<!-- Node8&#45;&gt;Node9 -->
<g id="edge8" class="edge">
<title>Node8&#45;&gt;Node9</title>
<path fill="none" stroke="midnightblue" d="M393.25,-59.74C401.98,-50.12 412,-39.09 419.72,-30.58"/>
<polygon fill="midnightblue" stroke="midnightblue" points="390.43,-57.64 386.3,-67.4 395.61,-62.34 390.43,-57.64"/>
</g>
<!-- Node11&#45;&gt;Node4 -->
<g id="edge14" class="edge">
<title>Node11&#45;&gt;Node4</title>
<path fill="none" stroke="midnightblue" d="M419.27,-197.27C395.86,-186.92 366.99,-174.15 345.33,-164.58"/>
<polygon fill="midnightblue" stroke="midnightblue" points="418.04,-200.55 428.6,-201.4 420.87,-194.15 418.04,-200.55"/>
</g>
<!-- Node12 -->
<g id="node12" class="node">
<title>Node12</title>
<g id="a_node12"><a xlink:href="../../de/deb/i2c__esp32_8cpp.html" target="_top" xlink:title=" ">
<polygon fill="none" stroke="black" points="410.5,-134.5 410.5,-164.5 536.5,-164.5 536.5,-134.5 410.5,-134.5"/>
<text text-anchor="start" x="418.5" y="-152.5" font-family="Helvetica,sans-Serif" font-size="10.00">Components/Protocols</text>
<text text-anchor="middle" x="473.5" y="-141.5" font-family="Helvetica,sans-Serif" font-size="10.00">/I2C/src/i2c_esp32.cpp</text>
</a>
</g>
</g>
<!-- Node11&#45;&gt;Node12 -->
<g id="edge13" class="edge">
<title>Node11&#45;&gt;Node12</title>
<path fill="none" stroke="midnightblue" d="M465.32,-191.4C467.13,-182.37 469.12,-172.41 470.68,-164.58"/>
<polygon fill="midnightblue" stroke="midnightblue" points="461.85,-190.9 463.32,-201.4 468.71,-192.28 461.85,-190.9"/>
</g>
<!-- Node13&#45;&gt;Node3 -->
<g id="edge16" class="edge">
<title>Node13&#45;&gt;Node3</title>
<path fill="none" stroke="midnightblue" d="M146.5,-191.11C146.5,-182.15 146.5,-172.32 146.5,-164.58"/>
<polygon fill="midnightblue" stroke="midnightblue" points="143,-191.4 146.5,-201.4 150,-191.4 143,-191.4"/>
</g>
</g>
</svg>
        <g id="navigator" transform="translate(0 0)" fill="#404254">
                <rect fill="#f2f5e9" fill-opacity="0.5" stroke="#606060" stroke-width=".5" x="0" y="0" width="60" height="60"/>
                <use id="zoomplus" xlink:href="#zoomPlus" x="17" y="9" onmousedown="handleZoom(evt,'in')"/>
                <use id="zoomminus" xlink:href="#zoomMin" x="42" y="9" onmousedown="handleZoom(evt,'out')"/>
                <use id="reset" xlink:href="#resetDef" x="30" y="36" onmousedown="handleReset()"/>
                <g id="arrowUp" xlink:href="#dirArrow" transform="translate(30 24)" onmousedown="handlePan(0,-1)">
                  <use xlink:href="#rim" fill="#404040">
                        <set attributeName="fill" to="#808080" begin="arrowUp.mouseover" end="arrowUp.mouseout"/>
                  </use>
                  <path fill="none" stroke="white" stroke-width="1.5" d="M0,-3.0v7 M-2.5,-0.5L0,-3.0L2.5,-0.5"/>
                </g>
                <g id="arrowRight" xlink:href="#dirArrow" transform="rotate(90) translate(36 -43)" onmousedown="handlePan(1,0)">
                  <use xlink:href="#rim" fill="#404040">
                        <set attributeName="fill" to="#808080" begin="arrowRight.mouseover" end="arrowRight.mouseout"/>
                  </use>
                  <path fill="none" stroke="white" stroke-width="1.5" d="M0,-3.0v7 M-2.5,-0.5L0,-3.0L2.5,-0.5"/>
                </g>
                <g id="arrowDown" xlink:href="#dirArrow" transform="rotate(180) translate(-30 -48)" onmousedown="handlePan(0,1)">
                  <use xlink:href="#rim" fill="#404040">
                        <set attributeName="fill" to="#808080" begin="arrowDown.mouseover" end="arrowDown.mouseout"/>
                  </use>
                  <path fill="none" stroke="white" stroke-width="1.5" d="M0,-3.0v7 M-2.5,-0.5L0,-3.0L2.5,-0.5"/>
                </g>
                <g id="arrowLeft" xlink:href="#dirArrow" transform="rotate(270) translate(-36 17)" onmousedown="handlePan(-1,0)">
                  <use xlink:href="#rim" fill="#404040">
                        <set attributeName="fill" to="#808080" begin="arrowLeft.mouseover" end="arrowLeft.mouseout"/>
                  </use>
                  <path fill="none" stroke="white" stroke-width="1.5" d="M0,-3.0v7 M-2.5,-0.5L0,-3.0L2.5,-0.5"/>
                </g>
        </g>
        <svg viewBox="0 0 15 15" width="100%" height="30px" preserveAspectRatio="xMaxYMin meet">
         <g id="arrow_out" transform="scale(0.3 0.3)">
          <a xlink:href="i2c__common_8hpp__dep__incl_org.svg" target="_base">
           <rect id="button" ry="5" rx="5" y="6" x="6" height="38" width="38"
                fill="#f2f5e9" fill-opacity="0.5" stroke="#606060" stroke-width="1.0"/>
           <path id="arrow"
             d="M 11.500037,31.436501 C 11.940474,20.09759 22.043105,11.32322 32.158766,21.979434 L 37.068811,17.246167 C 37.068811,17.246167 37.088388,32 37.088388,32 L 22.160133,31.978069 C 22.160133,31.978069 26.997745,27.140456 26.997745,27.140456 C 18.528582,18.264221 13.291696,25.230495 11.500037,31.436501 z"
             style="fill:#404040;"/>
          </a>
         </g>
        </svg>
</svg>
