<?xml version="1.0" encoding="UTF-8" standalone="no"?>
<!DOCTYPE svg PUBLIC "-//W3C//DTD SVG 1.1//EN"
 "http://www.w3.org/Graphics/SVG/1.1/DTD/svg11.dtd">
<!-- Generated by graphviz version 2.43.0 (0)
 -->
<!-- Title: DistanceSensorController Pages: 1 -->
<!--zoomable 1391 -->
<svg id="main" version="1.1" xmlns="http://www.w3.org/2000/svg" xmlns:xlink="http://www.w3.org/1999/xlink" xml:space="preserve" onload="init(evt)">
<style type="text/css"><![CDATA[
.edge:hover path { stroke: red; }
.edge:hover polygon { stroke: red; fill: red; }
]]></style>
<script type="text/javascript"><![CDATA[
var edges = document.getElementsByTagName('g');
if (edges && edges.length) {
  for (var i=0;i<edges.length;i++) {
    if (edges[i].id.substr(0,4)=='edge') {
      edges[i].setAttribute('class','edge');
    }
  }
}
]]></script>
        <defs>
                <circle id="rim" cx="0" cy="0" r="7"/>
                <circle id="rim2" cx="0" cy="0" r="3.5"/>
                <g id="zoomPlus">
                        <use xlink:href="#rim" fill="#404040">
                                <set attributeName="fill" to="#808080" begin="zoomplus.mouseover" end="zoomplus.mouseout"/>
                        </use>
                        <path d="M-4,0h8M0,-4v8" fill="none" stroke="white" stroke-width="1.5" pointer-events="none"/>
                </g>
                <g id="zoomMin">
                        <use xlink:href="#rim" fill="#404040">
                                <set attributeName="fill" to="#808080" begin="zoomminus.mouseover" end="zoomminus.mouseout"/>
                        </use>
                        <path d="M-4,0h8" fill="none" stroke="white" stroke-width="1.5" pointer-events="none"/>
                </g>
                <g id="dirArrow">
                        <path fill="none" stroke="white" stroke-width="1.5" d="M0,-3.0v7 M-2.5,-0.5L0,-3.0L2.5,-0.5"/>
                </g>
               <g id="resetDef">
                       <use xlink:href="#rim2" fill="#404040">
                               <set attributeName="fill" to="#808080" begin="reset.mouseover" end="reset.mouseout"/>
                       </use>
               </g>
        </defs>

<script type="text/javascript">
var viewWidth = 820;
var viewHeight = 1391;
var sectionId = 'dynsection-1';
</script>
<script xlink:href="../../svgpan.js"/>
<svg id="graph" class="graph">
<g id="viewport">
<title>DistanceSensorController</title>
<!-- Node1 -->
<g id="node1" class="node">
<title>Node1</title>
<g id="a_node1"><a xlink:title=" ">
<polygon fill="#bfbfbf" stroke="black" points="295.5,-0.5 295.5,-101.5 462.5,-101.5 462.5,-0.5 295.5,-0.5"/>
<text text-anchor="middle" x="379" y="-89.5" font-family="Helvetica,sans-Serif" font-size="10.00">DistanceSensorController</text>
<polyline fill="none" stroke="black" points="295.5,-82.5 462.5,-82.5 "/>
<text text-anchor="start" x="303.5" y="-70.5" font-family="Helvetica,sans-Serif" font-size="10.00">&#45; m_time_between_adc</text>
<text text-anchor="start" x="303.5" y="-59.5" font-family="Helvetica,sans-Serif" font-size="10.00">_measurements</text>
<polyline fill="none" stroke="black" points="295.5,-52.5 462.5,-52.5 "/>
<text text-anchor="start" x="303.5" y="-40.5" font-family="Helvetica,sans-Serif" font-size="10.00">+ DistanceSensorController()</text>
<text text-anchor="start" x="303.5" y="-29.5" font-family="Helvetica,sans-Serif" font-size="10.00">+ ~DistanceSensorController()</text>
<text text-anchor="start" x="303.5" y="-18.5" font-family="Helvetica,sans-Serif" font-size="10.00"># main_function()</text>
<text text-anchor="start" x="303.5" y="-7.5" font-family="Helvetica,sans-Serif" font-size="10.00">&#45; updateInternalBuffer()</text>
</a>
</g>
</g>
<!-- Node2 -->
<g id="node2" class="node">
<title>Node2</title>
<g id="a_node2"><a xlink:href="../../d9/d88/class_sensor_controller_base.html" target="_top" xlink:title=" ">
<polygon fill="none" stroke="black" points="361.5,-437.5 361.5,-626.5 510.5,-626.5 510.5,-437.5 361.5,-437.5"/>
<text text-anchor="middle" x="436" y="-614.5" font-family="Helvetica,sans-Serif" font-size="10.00">SensorControllerBase</text>
<polyline fill="none" stroke="black" points="361.5,-607.5 510.5,-607.5 "/>
<text text-anchor="start" x="369.5" y="-595.5" font-family="Helvetica,sans-Serif" font-size="10.00"># m_delay</text>
<text text-anchor="start" x="369.5" y="-584.5" font-family="Helvetica,sans-Serif" font-size="10.00"># m_error_id</text>
<polyline fill="none" stroke="black" points="361.5,-577.5 510.5,-577.5 "/>
<text text-anchor="start" x="369.5" y="-565.5" font-family="Helvetica,sans-Serif" font-size="10.00">+ SensorControllerBase()</text>
<text text-anchor="start" x="369.5" y="-554.5" font-family="Helvetica,sans-Serif" font-size="10.00">+ ~SensorControllerBase()</text>
<text text-anchor="start" x="369.5" y="-543.5" font-family="Helvetica,sans-Serif" font-size="10.00">+ setWantDataTrue()</text>
<text text-anchor="start" x="369.5" y="-532.5" font-family="Helvetica,sans-Serif" font-size="10.00">+ getSafeBuffer()</text>
<text text-anchor="start" x="369.5" y="-521.5" font-family="Helvetica,sans-Serif" font-size="10.00">+ isDataReady()</text>
<text text-anchor="start" x="369.5" y="-510.5" font-family="Helvetica,sans-Serif" font-size="10.00">+ setDataReady()</text>
<text text-anchor="start" x="369.5" y="-499.5" font-family="Helvetica,sans-Serif" font-size="10.00"># setDataReadyTrue()</text>
<text text-anchor="start" x="369.5" y="-488.5" font-family="Helvetica,sans-Serif" font-size="10.00"># postData()</text>
<text text-anchor="start" x="369.5" y="-477.5" font-family="Helvetica,sans-Serif" font-size="10.00"># postError()</text>
<text text-anchor="start" x="369.5" y="-466.5" font-family="Helvetica,sans-Serif" font-size="10.00"># main_function()</text>
<text text-anchor="start" x="369.5" y="-455.5" font-family="Helvetica,sans-Serif" font-size="10.00">&#45; setWantData()</text>
<text text-anchor="start" x="369.5" y="-444.5" font-family="Helvetica,sans-Serif" font-size="10.00">&#45; run()</text>
</a>
</g>
</g>
<!-- Node2&#45;&gt;Node1 -->
<g id="edge1" class="edge">
<title>Node2&#45;&gt;Node1</title>
<path fill="none" stroke="midnightblue" d="M431.59,-427.3C426.8,-343.77 417.1,-223.61 398,-120 396.89,-113.97 395.49,-107.71 393.95,-101.52"/>
<polygon fill="none" stroke="midnightblue" points="428.1,-427.51 432.15,-437.3 435.08,-427.12 428.1,-427.51"/>
</g>
<!-- Node3 -->
<g id="node3" class="node">
<title>Node3</title>
<g id="a_node3"><a xlink:href="../../d7/d6d/class_task.html" target="_top" xlink:title="Encapsulate a runnable task.">
<polygon fill="none" stroke="black" points="268,-754.5 268,-965.5 366,-965.5 366,-754.5 268,-754.5"/>
<text text-anchor="middle" x="317" y="-953.5" font-family="Helvetica,sans-Serif" font-size="10.00">Task</text>
<polyline fill="none" stroke="black" points="268,-946.5 366,-946.5 "/>
<text text-anchor="start" x="276" y="-934.5" font-family="Helvetica,sans-Serif" font-size="10.00">&#45; m_handle</text>
<text text-anchor="start" x="276" y="-923.5" font-family="Helvetica,sans-Serif" font-size="10.00">&#45; m_stackSize</text>
<text text-anchor="start" x="276" y="-912.5" font-family="Helvetica,sans-Serif" font-size="10.00">&#45; m_priority</text>
<text text-anchor="start" x="276" y="-901.5" font-family="Helvetica,sans-Serif" font-size="10.00">&#45; m_taskData</text>
<text text-anchor="start" x="276" y="-890.5" font-family="Helvetica,sans-Serif" font-size="10.00">&#45; m_coreId</text>
<polyline fill="none" stroke="black" points="268,-883.5 366,-883.5 "/>
<text text-anchor="start" x="276" y="-871.5" font-family="Helvetica,sans-Serif" font-size="10.00">+ Task()</text>
<text text-anchor="start" x="276" y="-860.5" font-family="Helvetica,sans-Serif" font-size="10.00">+ ~Task()</text>
<text text-anchor="start" x="276" y="-849.5" font-family="Helvetica,sans-Serif" font-size="10.00">+ setStackSize()</text>
<text text-anchor="start" x="276" y="-838.5" font-family="Helvetica,sans-Serif" font-size="10.00">+ setPriority()</text>
<text text-anchor="start" x="276" y="-827.5" font-family="Helvetica,sans-Serif" font-size="10.00">+ setName()</text>
<text text-anchor="start" x="276" y="-816.5" font-family="Helvetica,sans-Serif" font-size="10.00">+ setCore()</text>
<text text-anchor="start" x="276" y="-805.5" font-family="Helvetica,sans-Serif" font-size="10.00">+ start()</text>
<text text-anchor="start" x="276" y="-794.5" font-family="Helvetica,sans-Serif" font-size="10.00">+ stop()</text>
<text text-anchor="start" x="276" y="-783.5" font-family="Helvetica,sans-Serif" font-size="10.00">+ run()</text>
<text text-anchor="start" x="276" y="-772.5" font-family="Helvetica,sans-Serif" font-size="10.00">+ delay()</text>
<text text-anchor="start" x="276" y="-761.5" font-family="Helvetica,sans-Serif" font-size="10.00">&#45; runTask()</text>
</a>
</g>
</g>
<!-- Node3&#45;&gt;Node2 -->
<g id="edge2" class="edge">
<title>Node3&#45;&gt;Node2</title>
<path fill="none" stroke="midnightblue" d="M368.14,-745.2C370.87,-738.4 373.51,-731.63 376,-725 387.83,-693.45 399.27,-658.4 408.93,-626.98"/>
<polygon fill="none" stroke="midnightblue" points="364.88,-743.91 364.35,-754.49 371.37,-746.55 364.88,-743.91"/>
</g>
<!-- Node4 -->
<g id="node4" class="node">
<title>Node4</title>
<g id="a_node4"><a xlink:title="STL class.">
<polygon fill="none" stroke="#bfbfbf" points="284.5,-1082.5 284.5,-1139.5 349.5,-1139.5 349.5,-1082.5 284.5,-1082.5"/>
<text text-anchor="middle" x="317" y="-1127.5" font-family="Helvetica,sans-Serif" font-size="10.00">std::string</text>
<polyline fill="none" stroke="#bfbfbf" points="284.5,-1120.5 349.5,-1120.5 "/>
<text text-anchor="middle" x="317" y="-1108.5" font-family="Helvetica,sans-Serif" font-size="10.00"> </text>
<polyline fill="none" stroke="#bfbfbf" points="284.5,-1101.5 349.5,-1101.5 "/>
<text text-anchor="middle" x="317" y="-1089.5" font-family="Helvetica,sans-Serif" font-size="10.00"> </text>
</a>
</g>
</g>
<!-- Node4&#45;&gt;Node3 -->
<g id="edge3" class="edge">
<title>Node4&#45;&gt;Node3</title>
<path fill="none" stroke="#404040" d="M317,-1082.4C317,-1056.75 317,-1016.75 317,-977.76"/>
<polygon fill="none" stroke="#404040" points="317,-977.71 313,-971.71 317,-965.71 321,-971.71 317,-977.71"/>
<text text-anchor="middle" x="353.5" y="-1021.5" font-family="Helvetica,sans-Serif" font-size="10.00"> &#45;m_taskName</text>
</g>
<!-- Node9 -->
<g id="node9" class="node">
<title>Node9</title>
<g id="a_node9"><a xlink:href="../../d5/d81/class_m_q_t_t___message.html" target="_top" xlink:title=" ">
<polygon fill="none" stroke="black" points="506.5,-743.5 506.5,-976.5 667.5,-976.5 667.5,-743.5 506.5,-743.5"/>
<text text-anchor="middle" x="587" y="-964.5" font-family="Helvetica,sans-Serif" font-size="10.00">MQTT_Message</text>
<polyline fill="none" stroke="black" points="506.5,-957.5 667.5,-957.5 "/>
<text text-anchor="start" x="514.5" y="-945.5" font-family="Helvetica,sans-Serif" font-size="10.00">&#45; m_entity_id</text>
<text text-anchor="start" x="514.5" y="-934.5" font-family="Helvetica,sans-Serif" font-size="10.00">&#45; m_buffer_size</text>
<polyline fill="none" stroke="black" points="506.5,-927.5 667.5,-927.5 "/>
<text text-anchor="start" x="514.5" y="-915.5" font-family="Helvetica,sans-Serif" font-size="10.00">+ MQTT_Message()</text>
<text text-anchor="start" x="514.5" y="-904.5" font-family="Helvetica,sans-Serif" font-size="10.00">+ MQTT_Message()</text>
<text text-anchor="start" x="514.5" y="-893.5" font-family="Helvetica,sans-Serif" font-size="10.00">+ ~MQTT_Message()</text>
<text text-anchor="start" x="514.5" y="-882.5" font-family="Helvetica,sans-Serif" font-size="10.00">+ addData()</text>
<text text-anchor="start" x="514.5" y="-871.5" font-family="Helvetica,sans-Serif" font-size="10.00">+ addData()</text>
<text text-anchor="start" x="514.5" y="-860.5" font-family="Helvetica,sans-Serif" font-size="10.00">+ addData_f()</text>
<text text-anchor="start" x="514.5" y="-849.5" font-family="Helvetica,sans-Serif" font-size="10.00">+ isEmpty()</text>
<text text-anchor="start" x="514.5" y="-838.5" font-family="Helvetica,sans-Serif" font-size="10.00">+ toString()</text>
<text text-anchor="start" x="514.5" y="-827.5" font-family="Helvetica,sans-Serif" font-size="10.00">+ clear()</text>
<text text-anchor="start" x="514.5" y="-816.5" font-family="Helvetica,sans-Serif" font-size="10.00">+ getBufferSize()</text>
<text text-anchor="start" x="514.5" y="-805.5" font-family="Helvetica,sans-Serif" font-size="10.00">+ append()</text>
<text text-anchor="start" x="514.5" y="-794.5" font-family="Helvetica,sans-Serif" font-size="10.00">+ getData()</text>
<text text-anchor="start" x="514.5" y="-783.5" font-family="Helvetica,sans-Serif" font-size="10.00">+ getMaxAllowedBufferSize()</text>
<text text-anchor="start" x="514.5" y="-772.5" font-family="Helvetica,sans-Serif" font-size="10.00">+ getEntityId()</text>
<text text-anchor="start" x="514.5" y="-761.5" font-family="Helvetica,sans-Serif" font-size="10.00">+ copyTo()</text>
<text text-anchor="start" x="514.5" y="-750.5" font-family="Helvetica,sans-Serif" font-size="10.00">+ construct()</text>
</a>
</g>
</g>
<!-- Node4&#45;&gt;Node9 -->
<g id="edge9" class="edge">
<title>Node4&#45;&gt;Node9</title>
<path fill="none" stroke="#404040" d="M349.55,-1102.58C379.88,-1094.4 425.09,-1078.86 457,-1053 470.66,-1041.93 490.14,-1016.05 509.88,-986.76"/>
<polygon fill="none" stroke="#404040" points="509.92,-986.7 509.91,-979.48 516.57,-976.71 516.57,-983.92 509.92,-986.7"/>
<text text-anchor="middle" x="540.5" y="-1021.5" font-family="Helvetica,sans-Serif" font-size="10.00"> &#45;m_semaphore</text>
</g>
<!-- Node12 -->
<g id="node12" class="node">
<title>Node12</title>
<g id="a_node12"><a xlink:href="../../d5/de7/classmqtt__api__v2.html" target="_top" xlink:title=" ">
<polygon fill="none" stroke="black" points="384,-787.5 384,-932.5 488,-932.5 488,-787.5 384,-787.5"/>
<text text-anchor="middle" x="436" y="-920.5" font-family="Helvetica,sans-Serif" font-size="10.00">mqtt_api_v2</text>
<polyline fill="none" stroke="black" points="384,-913.5 488,-913.5 "/>
<text text-anchor="middle" x="436" y="-901.5" font-family="Helvetica,sans-Serif" font-size="10.00"> </text>
<polyline fill="none" stroke="black" points="384,-894.5 488,-894.5 "/>
<text text-anchor="start" x="392" y="-882.5" font-family="Helvetica,sans-Serif" font-size="10.00">+ mqtt_api_v2()</text>
<text text-anchor="start" x="392" y="-871.5" font-family="Helvetica,sans-Serif" font-size="10.00">+ ~mqtt_api_v2()</text>
<text text-anchor="start" x="392" y="-860.5" font-family="Helvetica,sans-Serif" font-size="10.00">+ publish()</text>
<text text-anchor="start" x="392" y="-849.5" font-family="Helvetica,sans-Serif" font-size="10.00">+ subscribe()</text>
<text text-anchor="start" x="392" y="-838.5" font-family="Helvetica,sans-Serif" font-size="10.00">+ subscribe()</text>
<text text-anchor="start" x="392" y="-827.5" font-family="Helvetica,sans-Serif" font-size="10.00">+ getData()</text>
<text text-anchor="start" x="392" y="-816.5" font-family="Helvetica,sans-Serif" font-size="10.00">&#45; connect()</text>
<text text-anchor="start" x="392" y="-805.5" font-family="Helvetica,sans-Serif" font-size="10.00">&#45; disconnect()</text>
<text text-anchor="start" x="392" y="-794.5" font-family="Helvetica,sans-Serif" font-size="10.00">&#45; handle_event()</text>
</a>
</g>
</g>
<!-- Node4&#45;&gt;Node12 -->
<g id="edge14" class="edge">
<title>Node4&#45;&gt;Node12</title>
<path fill="none" stroke="#404040" d="M349.53,-1093.26C365.26,-1083.55 383.06,-1069.89 394,-1053 414.65,-1021.1 425.28,-980.62 430.7,-945.06"/>
<polygon fill="none" stroke="#404040" points="430.77,-944.59 427.63,-938.1 432.41,-932.71 435.55,-939.2 430.77,-944.59"/>
<text text-anchor="middle" x="435.5" y="-1021.5" font-family="Helvetica,sans-Serif" font-size="10.00"> &#45;m_uri</text>
</g>
<!-- Node15 -->
<g id="node15" class="node">
<title>Node15</title>
<g id="a_node15"><a xlink:href="../../dd/d84/class_fault___handler.html" target="_top" xlink:title=" ">
<polygon fill="none" stroke="black" points="65,-787.5 65,-932.5 187,-932.5 187,-787.5 65,-787.5"/>
<text text-anchor="middle" x="126" y="-920.5" font-family="Helvetica,sans-Serif" font-size="10.00">Fault_Handler</text>
<polyline fill="none" stroke="black" points="65,-913.5 187,-913.5 "/>
<text text-anchor="middle" x="126" y="-901.5" font-family="Helvetica,sans-Serif" font-size="10.00"> </text>
<polyline fill="none" stroke="black" points="65,-894.5 187,-894.5 "/>
<text text-anchor="start" x="73" y="-882.5" font-family="Helvetica,sans-Serif" font-size="10.00">+ Fault_Handler()</text>
<text text-anchor="start" x="73" y="-871.5" font-family="Helvetica,sans-Serif" font-size="10.00">+ ~Fault_Handler()</text>
<text text-anchor="start" x="73" y="-860.5" font-family="Helvetica,sans-Serif" font-size="10.00">+ handleFault()</text>
<text text-anchor="start" x="73" y="-849.5" font-family="Helvetica,sans-Serif" font-size="10.00">+ resetFaultCounter()</text>
<text text-anchor="start" x="73" y="-838.5" font-family="Helvetica,sans-Serif" font-size="10.00">&#45; countUp()</text>
<text text-anchor="start" x="73" y="-827.5" font-family="Helvetica,sans-Serif" font-size="10.00">&#45; handle()</text>
<text text-anchor="start" x="73" y="-816.5" font-family="Helvetica,sans-Serif" font-size="10.00">&#45; toString()</text>
<text text-anchor="start" x="73" y="-805.5" font-family="Helvetica,sans-Serif" font-size="10.00">&#45; severity2string()</text>
<text text-anchor="start" x="73" y="-794.5" font-family="Helvetica,sans-Serif" font-size="10.00">&#45; check_value()</text>
</a>
</g>
</g>
<!-- Node4&#45;&gt;Node15 -->
<g id="edge18" class="edge">
<title>Node4&#45;&gt;Node15</title>
<path fill="none" stroke="#404040" d="M284.26,-1106.5C250.12,-1101.06 197.53,-1087.33 168,-1053 153.76,-1036.44 143.26,-988.43 136.32,-944.57"/>
<polygon fill="none" stroke="#404040" points="136.31,-944.5 131.45,-939.17 134.5,-932.64 139.36,-937.97 136.31,-944.5"/>
<text text-anchor="middle" x="193" y="-1021.5" font-family="Helvetica,sans-Serif" font-size="10.00"> &#45;m_name</text>
</g>
<!-- Node18 -->
<g id="node18" class="node">
<title>Node18</title>
<g id="a_node18"><a xlink:href="../../d4/d70/class_a_d_c___a_p_i___e_s_p32.html#d0/d55/struct_a_d_c___a_p_i___e_s_p32_1_1config" target="_top" xlink:title=" ">
<polygon fill="none" stroke="black" points="237.5,-645.5 237.5,-724.5 366.5,-724.5 366.5,-645.5 237.5,-645.5"/>
<text text-anchor="middle" x="302" y="-712.5" font-family="Helvetica,sans-Serif" font-size="10.00">ADC_API_ESP32::config</text>
<polyline fill="none" stroke="black" points="237.5,-705.5 366.5,-705.5 "/>
<text text-anchor="start" x="245.5" y="-693.5" font-family="Helvetica,sans-Serif" font-size="10.00">+ samples</text>
<text text-anchor="start" x="245.5" y="-682.5" font-family="Helvetica,sans-Serif" font-size="10.00">+ channel</text>
<text text-anchor="start" x="245.5" y="-671.5" font-family="Helvetica,sans-Serif" font-size="10.00">+ vRef</text>
<polyline fill="none" stroke="black" points="237.5,-664.5 366.5,-664.5 "/>
<text text-anchor="middle" x="302" y="-652.5" font-family="Helvetica,sans-Serif" font-size="10.00"> </text>
</a>
</g>
</g>
<!-- Node4&#45;&gt;Node18 -->
<g id="edge23" class="edge">
<title>Node4&#45;&gt;Node18</title>
<path fill="none" stroke="#404040" d="M291.5,-1082.43C284.54,-1073.59 277.64,-1063.39 273,-1053 259,-1021.64 262.12,-1011.2 259,-977 249.54,-873.43 225.97,-841.62 259,-743 259.86,-740.42 260.89,-737.87 262.06,-735.35"/>
<polygon fill="none" stroke="#404040" points="262.17,-735.15 261.52,-727.96 267.9,-724.61 268.55,-731.79 262.17,-735.15"/>
<text text-anchor="middle" x="293" y="-1021.5" font-family="Helvetica,sans-Serif" font-size="10.00"> +name</text>
</g>
<!-- Node5 -->
<g id="node5" class="node">
<title>Node5</title>
<g id="a_node5"><a xlink:title="STL class.">
<polygon fill="none" stroke="#bfbfbf" points="265,-1209.5 265,-1277.5 369,-1277.5 369,-1209.5 265,-1209.5"/>
<text text-anchor="start" x="273" y="-1265.5" font-family="Helvetica,sans-Serif" font-size="10.00">std::basic_string&lt;</text>
<text text-anchor="middle" x="317" y="-1254.5" font-family="Helvetica,sans-Serif" font-size="10.00"> char &gt;</text>
<polyline fill="none" stroke="#bfbfbf" points="265,-1247.5 369,-1247.5 "/>
<text text-anchor="middle" x="317" y="-1235.5" font-family="Helvetica,sans-Serif" font-size="10.00"> </text>
<polyline fill="none" stroke="#bfbfbf" points="265,-1228.5 369,-1228.5 "/>
<text text-anchor="middle" x="317" y="-1216.5" font-family="Helvetica,sans-Serif" font-size="10.00"> </text>
</a>
</g>
</g>
<!-- Node5&#45;&gt;Node4 -->
<g id="edge4" class="edge">
<title>Node5&#45;&gt;Node4</title>
<path fill="none" stroke="midnightblue" d="M317,-1199.05C317,-1179.55 317,-1157.12 317,-1139.91"/>
<polygon fill="none" stroke="midnightblue" points="313.5,-1199.23 317,-1209.23 320.5,-1199.23 313.5,-1199.23"/>
</g>
<!-- Node6 -->
<g id="node6" class="node">
<title>Node6</title>
<g id="a_node6"><a xlink:title=" ">
<polygon fill="none" stroke="#bfbfbf" points="647.5,-995.5 647.5,-1052.5 762.5,-1052.5 762.5,-995.5 647.5,-995.5"/>
<text text-anchor="middle" x="705" y="-1040.5" font-family="Helvetica,sans-Serif" font-size="10.00">std::atomic&lt; bool &gt;</text>
<polyline fill="none" stroke="#bfbfbf" points="647.5,-1033.5 762.5,-1033.5 "/>
<text text-anchor="start" x="655.5" y="-1021.5" font-family="Helvetica,sans-Serif" font-size="10.00">+ ptr</text>
<polyline fill="none" stroke="#bfbfbf" points="647.5,-1014.5 762.5,-1014.5 "/>
<text text-anchor="middle" x="705" y="-1002.5" font-family="Helvetica,sans-Serif" font-size="10.00"> </text>
</a>
</g>
</g>
<!-- Node6&#45;&gt;Node2 -->
<g id="edge5" class="edge">
<title>Node6&#45;&gt;Node2</title>
<path fill="none" stroke="#404040" d="M708.09,-995.31C714.15,-926.15 719.69,-744.26 625,-645 595.89,-614.49 556.67,-589.44 521.51,-570.83"/>
<polygon fill="none" stroke="#404040" points="521.4,-570.77 514.23,-571.57 510.74,-565.26 517.91,-564.46 521.4,-570.77"/>
<text text-anchor="middle" x="761" y="-863" font-family="Helvetica,sans-Serif" font-size="10.00"> #m_want_data_flag</text>
<text text-anchor="middle" x="761" y="-852" font-family="Helvetica,sans-Serif" font-size="10.00">#m_data_ready_flag</text>
</g>
<!-- Node7 -->
<g id="node7" class="node">
<title>Node7</title>
<g id="a_node7"><a xlink:title="STL class.">
<polygon fill="none" stroke="#bfbfbf" points="654,-1215 654,-1272 754,-1272 754,-1215 654,-1215"/>
<text text-anchor="middle" x="704" y="-1260" font-family="Helvetica,sans-Serif" font-size="10.00">std::atomic&lt; T &gt;</text>
<polyline fill="none" stroke="#bfbfbf" points="654,-1253 754,-1253 "/>
<text text-anchor="middle" x="704" y="-1241" font-family="Helvetica,sans-Serif" font-size="10.00"> </text>
<polyline fill="none" stroke="#bfbfbf" points="654,-1234 754,-1234 "/>
<text text-anchor="middle" x="704" y="-1222" font-family="Helvetica,sans-Serif" font-size="10.00"> </text>
</a>
</g>
</g>
<!-- Node7&#45;&gt;Node6 -->
<g id="edge6" class="edge">
<title>Node7&#45;&gt;Node6</title>
<path fill="none" stroke="orange" d="M704.17,-1204.81C704.37,-1161.44 704.7,-1091.28 704.87,-1052.67"/>
<polygon fill="orange" stroke="orange" points="700.67,-1204.94 704.13,-1214.95 707.67,-1204.97 700.67,-1204.94"/>
<text text-anchor="middle" x="727.5" y="-1177.5" font-family="Helvetica,sans-Serif" font-size="10.00"> &lt; bool &gt;</text>
</g>
<!-- Node8 -->
<g id="node8" class="node">
<title>Node8</title>
<g id="a_node8"><a xlink:title=" ">
<polygon fill="none" stroke="#bfbfbf" points="629.5,-1325.5 629.5,-1382.5 658.5,-1382.5 658.5,-1325.5 629.5,-1325.5"/>
<text text-anchor="middle" x="644" y="-1370.5" font-family="Helvetica,sans-Serif" font-size="10.00">T</text>
<polyline fill="none" stroke="#bfbfbf" points="629.5,-1363.5 658.5,-1363.5 "/>
<text text-anchor="middle" x="644" y="-1351.5" font-family="Helvetica,sans-Serif" font-size="10.00"> </text>
<polyline fill="none" stroke="#bfbfbf" points="629.5,-1344.5 658.5,-1344.5 "/>
<text text-anchor="middle" x="644" y="-1332.5" font-family="Helvetica,sans-Serif" font-size="10.00"> </text>
</a>
</g>
</g>
<!-- Node8&#45;&gt;Node7 -->
<g id="edge7" class="edge">
<title>Node8&#45;&gt;Node7</title>
<path fill="none" stroke="#404040" d="M658.58,-1329.8C663,-1322.56 667.8,-1314.51 672,-1307 676.29,-1299.33 680.7,-1291.03 684.82,-1283.06"/>
<polygon fill="none" stroke="#404040" points="684.95,-1282.8 684.12,-1275.64 690.41,-1272.11 691.24,-1279.27 684.95,-1282.8"/>
<text text-anchor="middle" x="689.5" y="-1299" font-family="Helvetica,sans-Serif" font-size="10.00"> +ptr</text>
</g>
<!-- Node11 -->
<g id="node11" class="node">
<title>Node11</title>
<g id="a_node11"><a xlink:title="STL class.">
<polygon fill="none" stroke="#bfbfbf" points="537.5,-1215 537.5,-1272 634.5,-1272 634.5,-1215 537.5,-1215"/>
<text text-anchor="middle" x="586" y="-1260" font-family="Helvetica,sans-Serif" font-size="10.00">std::vector&lt; T &gt;</text>
<polyline fill="none" stroke="#bfbfbf" points="537.5,-1253 634.5,-1253 "/>
<text text-anchor="middle" x="586" y="-1241" font-family="Helvetica,sans-Serif" font-size="10.00"> </text>
<polyline fill="none" stroke="#bfbfbf" points="537.5,-1234 634.5,-1234 "/>
<text text-anchor="middle" x="586" y="-1222" font-family="Helvetica,sans-Serif" font-size="10.00"> </text>
</a>
</g>
</g>
<!-- Node8&#45;&gt;Node11 -->
<g id="edge12" class="edge">
<title>Node8&#45;&gt;Node11</title>
<path fill="none" stroke="#404040" d="M629.24,-1331.9C624.14,-1324.22 618.57,-1315.37 614,-1307 609.86,-1299.41 605.81,-1291.09 602.14,-1283.06"/>
<polygon fill="none" stroke="#404040" points="602.1,-1282.98 596.01,-1279.13 597.22,-1272.02 603.32,-1275.88 602.1,-1282.98"/>
<text text-anchor="middle" x="643" y="-1299" font-family="Helvetica,sans-Serif" font-size="10.00"> +elements</text>
</g>
<!-- Node9&#45;&gt;Node2 -->
<g id="edge8" class="edge">
<title>Node9&#45;&gt;Node2</title>
<path fill="none" stroke="#404040" d="M533.34,-743.15C517.46,-708.86 500.17,-671.54 484.63,-637.98"/>
<polygon fill="none" stroke="#404040" points="484.47,-637.65 478.32,-633.88 479.43,-626.76 485.58,-630.52 484.47,-637.65"/>
<text text-anchor="middle" x="570.5" y="-688" font-family="Helvetica,sans-Serif" font-size="10.00"> #m_buffer_external</text>
<text text-anchor="middle" x="570.5" y="-677" font-family="Helvetica,sans-Serif" font-size="10.00">#m_buffer_raw</text>
</g>
<!-- Node10 -->
<g id="node10" class="node">
<title>Node10</title>
<g id="a_node10"><a xlink:title=" ">
<polygon fill="none" stroke="#bfbfbf" points="518,-1077 518,-1145 654,-1145 654,-1077 518,-1077"/>
<text text-anchor="start" x="526" y="-1133" font-family="Helvetica,sans-Serif" font-size="10.00">std::vector&lt; std::pair</text>
<text text-anchor="middle" x="586" y="-1122" font-family="Helvetica,sans-Serif" font-size="10.00">&lt; uint64_t, uint64_t &gt; &gt;</text>
<polyline fill="none" stroke="#bfbfbf" points="518,-1115 654,-1115 "/>
<text text-anchor="start" x="526" y="-1103" font-family="Helvetica,sans-Serif" font-size="10.00">+ elements</text>
<polyline fill="none" stroke="#bfbfbf" points="518,-1096 654,-1096 "/>
<text text-anchor="middle" x="586" y="-1084" font-family="Helvetica,sans-Serif" font-size="10.00"> </text>
</a>
</g>
</g>
<!-- Node10&#45;&gt;Node9 -->
<g id="edge10" class="edge">
<title>Node10&#45;&gt;Node9</title>
<path fill="none" stroke="#404040" d="M586.13,-1076.93C586.23,-1053.84 586.36,-1021.39 586.49,-988.66"/>
<polygon fill="none" stroke="#404040" points="586.49,-988.6 582.51,-982.58 586.54,-976.6 590.51,-982.62 586.49,-988.6"/>
<text text-anchor="middle" x="608" y="-1021.5" font-family="Helvetica,sans-Serif" font-size="10.00"> &#45;m_data</text>
</g>
<!-- Node11&#45;&gt;Node10 -->
<g id="edge11" class="edge">
<title>Node11&#45;&gt;Node10</title>
<path fill="none" stroke="orange" d="M586,-1204.8C586,-1185.95 586,-1163.36 586,-1145.18"/>
<polygon fill="orange" stroke="orange" points="582.5,-1204.82 586,-1214.82 589.5,-1204.82 582.5,-1204.82"/>
<text text-anchor="start" x="586" y="-1183" font-family="Helvetica,sans-Serif" font-size="10.00"> &lt; std::pair&lt; uint64</text>
<text text-anchor="middle" x="634.5" y="-1172" font-family="Helvetica,sans-Serif" font-size="10.00">_t, uint64_t &gt; &gt;</text>
</g>
<!-- Node12&#45;&gt;Node2 -->
<g id="edge13" class="edge">
<title>Node12&#45;&gt;Node2</title>
<path fill="none" stroke="#404040" d="M436,-787.46C436,-743.92 436,-687.5 436,-638.86"/>
<polygon fill="none" stroke="#404040" points="436,-638.67 432,-632.67 436,-626.67 440,-632.67 436,-638.67"/>
<text text-anchor="middle" x="459" y="-682.5" font-family="Helvetica,sans-Serif" font-size="10.00"> &#45;m_mqtt</text>
</g>
<!-- Node13 -->
<g id="node13" class="node">
<title>Node13</title>
<g id="a_node13"><a xlink:href="../../d4/d70/class_a_d_c___a_p_i___e_s_p32.html" target="_top" xlink:title=" ">
<polygon fill="none" stroke="black" points="268.5,-149.5 268.5,-228.5 389.5,-228.5 389.5,-149.5 268.5,-149.5"/>
<text text-anchor="middle" x="329" y="-216.5" font-family="Helvetica,sans-Serif" font-size="10.00">ADC_API_ESP32</text>
<polyline fill="none" stroke="black" points="268.5,-209.5 389.5,-209.5 "/>
<text text-anchor="middle" x="329" y="-197.5" font-family="Helvetica,sans-Serif" font-size="10.00"> </text>
<polyline fill="none" stroke="black" points="268.5,-190.5 389.5,-190.5 "/>
<text text-anchor="start" x="276.5" y="-178.5" font-family="Helvetica,sans-Serif" font-size="10.00">+ ADC_API_ESP32()</text>
<text text-anchor="start" x="276.5" y="-167.5" font-family="Helvetica,sans-Serif" font-size="10.00">+ ~ADC_API_ESP32()</text>
<text text-anchor="start" x="276.5" y="-156.5" font-family="Helvetica,sans-Serif" font-size="10.00">+ measureValue()</text>
</a>
</g>
</g>
<!-- Node13&#45;&gt;Node1 -->
<g id="edge15" class="edge">
<title>Node13&#45;&gt;Node1</title>
<path fill="none" stroke="#404040" d="M343.19,-149.39C347.31,-138.2 351.9,-125.7 356.4,-113.48"/>
<polygon fill="none" stroke="#404040" points="356.51,-113.17 354.83,-106.16 360.65,-101.91 362.34,-108.92 356.51,-113.17"/>
<text text-anchor="middle" x="374" y="-123" font-family="Helvetica,sans-Serif" font-size="10.00"> &#45;m_adc</text>
</g>
<!-- Node14 -->
<g id="node14" class="node">
<title>Node14</title>
<g id="a_node14"><a xlink:href="../../dc/d23/class_a_d_c_base.html" target="_top" xlink:title=" ">
<polygon fill="none" stroke="black" points="123,-266.5 123,-389.5 301,-389.5 301,-266.5 123,-266.5"/>
<text text-anchor="middle" x="212" y="-377.5" font-family="Helvetica,sans-Serif" font-size="10.00">ADCBase&lt; uint32_t &gt;</text>
<polyline fill="none" stroke="black" points="123,-370.5 301,-370.5 "/>
<text text-anchor="start" x="131" y="-358.5" font-family="Helvetica,sans-Serif" font-size="10.00"># m_number_of_samples</text>
<text text-anchor="start" x="131" y="-347.5" font-family="Helvetica,sans-Serif" font-size="10.00">&#45; minimum_number_of_samples</text>
<text text-anchor="start" x="131" y="-336.5" font-family="Helvetica,sans-Serif" font-size="10.00">&#45; maximum_number_of_samples</text>
<polyline fill="none" stroke="black" points="123,-329.5 301,-329.5 "/>
<text text-anchor="start" x="131" y="-317.5" font-family="Helvetica,sans-Serif" font-size="10.00">+ ADCBase()</text>
<text text-anchor="start" x="131" y="-306.5" font-family="Helvetica,sans-Serif" font-size="10.00">+ ~ADCBase()</text>
<text text-anchor="start" x="131" y="-295.5" font-family="Helvetica,sans-Serif" font-size="10.00">+ measureValue()</text>
<text text-anchor="start" x="131" y="-284.5" font-family="Helvetica,sans-Serif" font-size="10.00">+ setSampleNumber()</text>
<text text-anchor="start" x="131" y="-273.5" font-family="Helvetica,sans-Serif" font-size="10.00">+ getSampleNumber()</text>
</a>
</g>
</g>
<!-- Node14&#45;&gt;Node13 -->
<g id="edge16" class="edge">
<title>Node14&#45;&gt;Node13</title>
<path fill="none" stroke="midnightblue" d="M270.64,-258.33C279.35,-248.14 288.05,-237.95 295.97,-228.67"/>
<polygon fill="none" stroke="midnightblue" points="267.83,-256.23 264,-266.11 273.16,-260.78 267.83,-256.23"/>
</g>
<!-- Node15&#45;&gt;Node14 -->
<g id="edge17" class="edge">
<title>Node15&#45;&gt;Node14</title>
<path fill="none" stroke="#404040" d="M173.72,-787.27C184.34,-767.84 194.17,-746.27 200,-725 230.04,-615.37 226.29,-482.25 219.87,-401.66"/>
<polygon fill="none" stroke="#404040" points="219.86,-401.63 215.38,-395.99 218.86,-389.67 223.35,-395.32 219.86,-401.63"/>
<text text-anchor="middle" x="267" y="-529.5" font-family="Helvetica,sans-Serif" font-size="10.00"> #m_faulthanlder</text>
</g>
<!-- Node17 -->
<g id="node17" class="node">
<title>Node17</title>
<g id="a_node17"><a xlink:href="../../dc/d23/class_a_d_c_base.html" target="_top" xlink:title=" ">
<polygon fill="none" stroke="black" points="0,-470.5 0,-593.5 178,-593.5 178,-470.5 0,-470.5"/>
<text text-anchor="middle" x="89" y="-581.5" font-family="Helvetica,sans-Serif" font-size="10.00">ADCBase&lt; T &gt;</text>
<polyline fill="none" stroke="black" points="0,-574.5 178,-574.5 "/>
<text text-anchor="start" x="8" y="-562.5" font-family="Helvetica,sans-Serif" font-size="10.00"># m_number_of_samples</text>
<text text-anchor="start" x="8" y="-551.5" font-family="Helvetica,sans-Serif" font-size="10.00">&#45; minimum_number_of_samples</text>
<text text-anchor="start" x="8" y="-540.5" font-family="Helvetica,sans-Serif" font-size="10.00">&#45; maximum_number_of_samples</text>
<polyline fill="none" stroke="black" points="0,-533.5 178,-533.5 "/>
<text text-anchor="start" x="8" y="-521.5" font-family="Helvetica,sans-Serif" font-size="10.00">+ ADCBase()</text>
<text text-anchor="start" x="8" y="-510.5" font-family="Helvetica,sans-Serif" font-size="10.00">+ ~ADCBase()</text>
<text text-anchor="start" x="8" y="-499.5" font-family="Helvetica,sans-Serif" font-size="10.00">+ measureValue()</text>
<text text-anchor="start" x="8" y="-488.5" font-family="Helvetica,sans-Serif" font-size="10.00">+ setSampleNumber()</text>
<text text-anchor="start" x="8" y="-477.5" font-family="Helvetica,sans-Serif" font-size="10.00">+ getSampleNumber()</text>
</a>
</g>
</g>
<!-- Node15&#45;&gt;Node17 -->
<g id="edge21" class="edge">
<title>Node15&#45;&gt;Node17</title>
<path fill="none" stroke="#404040" d="M117.88,-787.46C111.76,-733.53 103.4,-659.85 97.25,-605.65"/>
<polygon fill="none" stroke="#404040" points="97.24,-605.63 92.59,-600.12 95.89,-593.7 100.54,-599.21 97.24,-605.63"/>
<text text-anchor="middle" x="153" y="-682.5" font-family="Helvetica,sans-Serif" font-size="10.00"> #m_faulthanlder</text>
</g>
<!-- Node16 -->
<g id="node16" class="node">
<title>Node16</title>
<g id="a_node16"><a xlink:href="../../dd/d84/class_fault___handler.html#da/dec/struct_fault___handler_1_1counters__t" target="_top" xlink:title=" ">
<polygon fill="none" stroke="black" points="10,-1071.5 10,-1150.5 150,-1150.5 150,-1071.5 10,-1071.5"/>
<text text-anchor="middle" x="80" y="-1138.5" font-family="Helvetica,sans-Serif" font-size="10.00">Fault_Handler::counters_t</text>
<polyline fill="none" stroke="black" points="10,-1131.5 150,-1131.5 "/>
<text text-anchor="start" x="18" y="-1119.5" font-family="Helvetica,sans-Serif" font-size="10.00">+ low</text>
<text text-anchor="start" x="18" y="-1108.5" font-family="Helvetica,sans-Serif" font-size="10.00">+ medium</text>
<text text-anchor="start" x="18" y="-1097.5" font-family="Helvetica,sans-Serif" font-size="10.00">+ high</text>
<polyline fill="none" stroke="black" points="10,-1090.5 150,-1090.5 "/>
<text text-anchor="middle" x="80" y="-1078.5" font-family="Helvetica,sans-Serif" font-size="10.00"> </text>
</a>
</g>
</g>
<!-- Node16&#45;&gt;Node15 -->
<g id="edge19" class="edge">
<title>Node16&#45;&gt;Node15</title>
<path fill="none" stroke="#404040" d="M77.33,-1071.4C76.52,-1048.95 76.77,-1020.2 81,-995 83.8,-978.35 88.34,-960.97 93.49,-944.46"/>
<polygon fill="none" stroke="#404040" points="93.63,-944.02 91.67,-937.08 97.33,-932.61 99.28,-939.55 93.63,-944.02"/>
<text text-anchor="middle" x="113" y="-1021.5" font-family="Helvetica,sans-Serif" font-size="10.00"> &#45;m_counters</text>
</g>
<!-- Node17&#45;&gt;Node14 -->
<g id="edge20" class="edge">
<title>Node17&#45;&gt;Node14</title>
<path fill="none" stroke="orange" d="M108.91,-460.59C115.51,-442.71 123.83,-424.04 134,-408 137.92,-401.81 142.4,-395.72 147.18,-389.84"/>
<polygon fill="orange" stroke="orange" points="105.47,-459.82 105.42,-470.41 112.06,-462.16 105.47,-459.82"/>
<text text-anchor="middle" x="167" y="-411" font-family="Helvetica,sans-Serif" font-size="10.00"> &lt; uint32_t &gt;</text>
</g>
<!-- Node18&#45;&gt;Node13 -->
<g id="edge22" class="edge">
<title>Node18&#45;&gt;Node13</title>
<path fill="none" stroke="#404040" d="M311.1,-645.21C312.26,-639.14 313.28,-632.92 314,-627 330.88,-488.09 331.23,-322.64 330.1,-240.9"/>
<polygon fill="none" stroke="#404040" points="330.1,-240.75 326.01,-234.82 329.91,-228.76 334,-234.69 330.1,-240.75"/>
<text text-anchor="middle" x="349.5" y="-411" font-family="Helvetica,sans-Serif" font-size="10.00"> &#45;m_conf</text>
</g>
</g>
</svg>
        <g id="navigator" transform="translate(0 0)" fill="#404254">
                <rect fill="#f2f5e9" fill-opacity="0.5" stroke="#606060" stroke-width=".5" x="0" y="0" width="60" height="60"/>
                <use id="zoomplus" xlink:href="#zoomPlus" x="17" y="9" onmousedown="handleZoom(evt,'in')"/>
                <use id="zoomminus" xlink:href="#zoomMin" x="42" y="9" onmousedown="handleZoom(evt,'out')"/>
                <use id="reset" xlink:href="#resetDef" x="30" y="36" onmousedown="handleReset()"/>
                <g id="arrowUp" xlink:href="#dirArrow" transform="translate(30 24)" onmousedown="handlePan(0,-1)">
                  <use xlink:href="#rim" fill="#404040">
                        <set attributeName="fill" to="#808080" begin="arrowUp.mouseover" end="arrowUp.mouseout"/>
                  </use>
                  <path fill="none" stroke="white" stroke-width="1.5" d="M0,-3.0v7 M-2.5,-0.5L0,-3.0L2.5,-0.5"/>
                </g>
                <g id="arrowRight" xlink:href="#dirArrow" transform="rotate(90) translate(36 -43)" onmousedown="handlePan(1,0)">
                  <use xlink:href="#rim" fill="#404040">
                        <set attributeName="fill" to="#808080" begin="arrowRight.mouseover" end="arrowRight.mouseout"/>
                  </use>
                  <path fill="none" stroke="white" stroke-width="1.5" d="M0,-3.0v7 M-2.5,-0.5L0,-3.0L2.5,-0.5"/>
                </g>
                <g id="arrowDown" xlink:href="#dirArrow" transform="rotate(180) translate(-30 -48)" onmousedown="handlePan(0,1)">
                  <use xlink:href="#rim" fill="#404040">
                        <set attributeName="fill" to="#808080" begin="arrowDown.mouseover" end="arrowDown.mouseout"/>
                  </use>
                  <path fill="none" stroke="white" stroke-width="1.5" d="M0,-3.0v7 M-2.5,-0.5L0,-3.0L2.5,-0.5"/>
                </g>
                <g id="arrowLeft" xlink:href="#dirArrow" transform="rotate(270) translate(-36 17)" onmousedown="handlePan(-1,0)">
                  <use xlink:href="#rim" fill="#404040">
                        <set attributeName="fill" to="#808080" begin="arrowLeft.mouseover" end="arrowLeft.mouseout"/>
                  </use>
                  <path fill="none" stroke="white" stroke-width="1.5" d="M0,-3.0v7 M-2.5,-0.5L0,-3.0L2.5,-0.5"/>
                </g>
        </g>
        <svg viewBox="0 0 15 15" width="100%" height="30px" preserveAspectRatio="xMaxYMin meet">
         <g id="arrow_out" transform="scale(0.3 0.3)">
          <a xlink:href="class_distance_sensor_controller__coll__graph_org.svg" target="_base">
           <rect id="button" ry="5" rx="5" y="6" x="6" height="38" width="38"
                fill="#f2f5e9" fill-opacity="0.5" stroke="#606060" stroke-width="1.0"/>
           <path id="arrow"
             d="M 11.500037,31.436501 C 11.940474,20.09759 22.043105,11.32322 32.158766,21.979434 L 37.068811,17.246167 C 37.068811,17.246167 37.088388,32 37.088388,32 L 22.160133,31.978069 C 22.160133,31.978069 26.997745,27.140456 26.997745,27.140456 C 18.528582,18.264221 13.291696,25.230495 11.500037,31.436501 z"
             style="fill:#404040;"/>
          </a>
         </g>
        </svg>
</svg>
