<?xml version="1.0" encoding="UTF-8" standalone="no"?>
<!DOCTYPE svg PUBLIC "-//W3C//DTD SVG 1.1//EN"
 "http://www.w3.org/Graphics/SVG/1.1/DTD/svg11.dtd">
<!-- Generated by graphviz version 2.43.0 (0)
 -->
<!-- Title: Components/Objects/FaultHandler/include/Fault_Handler.hpp Pages: 1 -->
<svg width="540pt" height="363pt"
 viewBox="0.00 0.00 539.50 363.00" xmlns="http://www.w3.org/2000/svg" xmlns:xlink="http://www.w3.org/1999/xlink">
<g id="graph0" class="graph" transform="scale(1 1) rotate(0) translate(4 359)">
<title>Components/Objects/FaultHandler/include/Fault_Handler.hpp</title>
<!-- Node1 -->
<g id="node1" class="node">
<title>Node1</title>
<g id="a_node1"><a xlink:title=" ">
<polygon fill="#bfbfbf" stroke="black" points="176.5,-313.5 176.5,-354.5 295.5,-354.5 295.5,-313.5 176.5,-313.5"/>
<text text-anchor="start" x="184.5" y="-342.5" font-family="Helvetica,sans-Serif" font-size="10.00">Components/Objects</text>
<text text-anchor="start" x="184.5" y="-331.5" font-family="Helvetica,sans-Serif" font-size="10.00">/FaultHandler/include</text>
<text text-anchor="middle" x="236" y="-320.5" font-family="Helvetica,sans-Serif" font-size="10.00">/Fault_Handler.hpp</text>
</a>
</g>
</g>
<!-- Node2 -->
<g id="node2" class="node">
<title>Node2</title>
<g id="a_node2"><a xlink:href="../../da/d5f/_b_a_s_i_c_8hpp.html" target="_top" xlink:title=" ">
<polygon fill="none" stroke="black" points="0,-56.5 0,-86.5 116,-86.5 116,-56.5 0,-56.5"/>
<text text-anchor="start" x="8" y="-74.5" font-family="Helvetica,sans-Serif" font-size="10.00">../../../Global_Include</text>
<text text-anchor="middle" x="58" y="-63.5" font-family="Helvetica,sans-Serif" font-size="10.00">/BASIC.hpp</text>
</a>
</g>
</g>
<!-- Node1&#45;&gt;Node2 -->
<g id="edge1" class="edge">
<title>Node1&#45;&gt;Node2</title>
<path fill="none" stroke="midnightblue" d="M206.72,-313.37C164.45,-282.9 88.69,-219.66 64,-143 59.22,-128.15 57.7,-110.67 57.39,-96.84"/>
<polygon fill="midnightblue" stroke="midnightblue" points="60.89,-96.63 57.36,-86.64 53.89,-96.65 60.89,-96.63"/>
</g>
<!-- Node3 -->
<g id="node3" class="node">
<title>Node3</title>
<g id="a_node3"><a xlink:href="../../d3/deb/_general___error_8hpp.html" target="_top" xlink:title=" ">
<polygon fill="none" stroke="black" points="386.5,-56.5 386.5,-86.5 531.5,-86.5 531.5,-56.5 386.5,-56.5"/>
<text text-anchor="start" x="394.5" y="-74.5" font-family="Helvetica,sans-Serif" font-size="10.00">../../../Objects/ErrorHandler</text>
<text text-anchor="middle" x="459" y="-63.5" font-family="Helvetica,sans-Serif" font-size="10.00">/include/General_Error.hpp</text>
</a>
</g>
</g>
<!-- Node1&#45;&gt;Node3 -->
<g id="edge2" class="edge">
<title>Node1&#45;&gt;Node3</title>
<path fill="none" stroke="midnightblue" d="M271.38,-313.27C320.85,-283.54 409.08,-222.21 449,-143 456.23,-128.66 458.69,-110.72 459.37,-96.53"/>
<polygon fill="midnightblue" stroke="midnightblue" points="462.87,-96.6 459.59,-86.53 455.87,-96.45 462.87,-96.6"/>
</g>
<!-- Node6 -->
<g id="node6" class="node">
<title>Node6</title>
<g id="a_node6"><a xlink:href="../../d3/de3/_logger_8hpp.html" target="_top" xlink:title=" ">
<polygon fill="none" stroke="black" points="178,-246.5 178,-276.5 294,-276.5 294,-246.5 178,-246.5"/>
<text text-anchor="start" x="186" y="-264.5" font-family="Helvetica,sans-Serif" font-size="10.00">../../../Objects/Logger</text>
<text text-anchor="middle" x="236" y="-253.5" font-family="Helvetica,sans-Serif" font-size="10.00">/include/Logger.hpp</text>
</a>
</g>
</g>
<!-- Node1&#45;&gt;Node6 -->
<g id="edge5" class="edge">
<title>Node1&#45;&gt;Node6</title>
<path fill="none" stroke="midnightblue" d="M236,-313.36C236,-305.23 236,-295.7 236,-287.11"/>
<polygon fill="midnightblue" stroke="midnightblue" points="239.5,-286.89 236,-276.89 232.5,-286.89 239.5,-286.89"/>
</g>
<!-- Node4 -->
<g id="node4" class="node">
<title>Node4</title>
<g id="a_node4"><a xlink:title=" ">
<polygon fill="none" stroke="#bfbfbf" points="402,-0.5 402,-19.5 446,-19.5 446,-0.5 402,-0.5"/>
<text text-anchor="middle" x="424" y="-7.5" font-family="Helvetica,sans-Serif" font-size="10.00">string</text>
</a>
</g>
</g>
<!-- Node3&#45;&gt;Node4 -->
<g id="edge3" class="edge">
<title>Node3&#45;&gt;Node4</title>
<path fill="none" stroke="midnightblue" d="M450.71,-56.4C445.78,-48.02 439.49,-37.33 434.25,-28.42"/>
<polygon fill="midnightblue" stroke="midnightblue" points="437.18,-26.5 429.09,-19.66 431.15,-30.05 437.18,-26.5"/>
</g>
<!-- Node5 -->
<g id="node5" class="node">
<title>Node5</title>
<g id="a_node5"><a xlink:title=" ">
<polygon fill="none" stroke="#bfbfbf" points="464,-0.5 464,-19.5 524,-19.5 524,-0.5 464,-0.5"/>
<text text-anchor="middle" x="494" y="-7.5" font-family="Helvetica,sans-Serif" font-size="10.00">iostream</text>
</a>
</g>
</g>
<!-- Node3&#45;&gt;Node5 -->
<g id="edge4" class="edge">
<title>Node3&#45;&gt;Node5</title>
<path fill="none" stroke="midnightblue" d="M467.29,-56.4C472.22,-48.02 478.51,-37.33 483.75,-28.42"/>
<polygon fill="midnightblue" stroke="midnightblue" points="486.85,-30.05 488.91,-19.66 480.82,-26.5 486.85,-30.05"/>
</g>
<!-- Node6&#45;&gt;Node2 -->
<g id="edge6" class="edge">
<title>Node6&#45;&gt;Node2</title>
<path fill="none" stroke="midnightblue" d="M204.48,-246.45C167.42,-228.19 107.06,-192.68 76,-143 67.3,-129.09 62.8,-111.14 60.47,-96.84"/>
<polygon fill="midnightblue" stroke="midnightblue" points="63.91,-96.17 59.08,-86.74 56.97,-97.12 63.91,-96.17"/>
</g>
<!-- Node6&#45;&gt;Node3 -->
<g id="edge7" class="edge">
<title>Node6&#45;&gt;Node3</title>
<path fill="none" stroke="midnightblue" d="M272.02,-246.41C314.38,-228.23 384.42,-192.89 428,-143 439.68,-129.63 447.58,-111.16 452.48,-96.49"/>
<polygon fill="midnightblue" stroke="midnightblue" points="455.93,-97.18 455.53,-86.59 449.24,-95.12 455.93,-97.18"/>
</g>
<!-- Node7 -->
<g id="node7" class="node">
<title>Node7</title>
<g id="a_node7"><a xlink:href="../../d7/d60/_timeservice_8hpp.html" target="_top" xlink:title=" ">
<polygon fill="none" stroke="black" points="164.5,-179.5 164.5,-209.5 307.5,-209.5 307.5,-179.5 164.5,-179.5"/>
<text text-anchor="start" x="172.5" y="-197.5" font-family="Helvetica,sans-Serif" font-size="10.00">../../../Objects/Timeservice</text>
<text text-anchor="middle" x="236" y="-186.5" font-family="Helvetica,sans-Serif" font-size="10.00">/include/Timeservice.hpp</text>
</a>
</g>
</g>
<!-- Node6&#45;&gt;Node7 -->
<g id="edge8" class="edge">
<title>Node6&#45;&gt;Node7</title>
<path fill="none" stroke="midnightblue" d="M236,-246.4C236,-238.64 236,-228.81 236,-219.86"/>
<polygon fill="midnightblue" stroke="midnightblue" points="239.5,-219.58 236,-209.58 232.5,-219.58 239.5,-219.58"/>
</g>
<!-- Node7&#45;&gt;Node2 -->
<g id="edge9" class="edge">
<title>Node7&#45;&gt;Node2</title>
<path fill="none" stroke="midnightblue" d="M167,-179.45C142.5,-171.83 116.06,-160.29 96,-143 81.71,-130.68 71.89,-111.62 65.82,-96.42"/>
<polygon fill="midnightblue" stroke="midnightblue" points="68.96,-94.81 62.21,-86.64 62.39,-97.23 68.96,-94.81"/>
</g>
<!-- Node7&#45;&gt;Node3 -->
<g id="edge10" class="edge">
<title>Node7&#45;&gt;Node3</title>
<path fill="none" stroke="midnightblue" d="M307.51,-181.54C338.44,-173.99 373.9,-161.94 402,-143 420.33,-130.65 435.7,-110.63 445.85,-95.08"/>
<polygon fill="midnightblue" stroke="midnightblue" points="448.86,-96.86 451.2,-86.53 442.93,-93.15 448.86,-96.86"/>
</g>
<!-- Node8 -->
<g id="node8" class="node">
<title>Node8</title>
<g id="a_node8"><a xlink:href="../../d6/d4b/_r_t_c___h_a_l_8hpp.html" target="_top" xlink:title=" ">
<polygon fill="none" stroke="black" points="313,-123.5 313,-142.5 393,-142.5 393,-123.5 313,-123.5"/>
<text text-anchor="middle" x="353" y="-130.5" font-family="Helvetica,sans-Serif" font-size="10.00">RTC_HAL.hpp</text>
</a>
</g>
</g>
<!-- Node7&#45;&gt;Node8 -->
<g id="edge11" class="edge">
<title>Node7&#45;&gt;Node8</title>
<path fill="none" stroke="midnightblue" d="M263.73,-179.4C282.83,-169.68 308.06,-156.86 326.82,-147.31"/>
<polygon fill="midnightblue" stroke="midnightblue" points="328.65,-150.31 335.98,-142.66 325.48,-144.07 328.65,-150.31"/>
</g>
<!-- Node10 -->
<g id="node10" class="node">
<title>Node10</title>
<g id="a_node10"><a xlink:title=" ">
<polygon fill="none" stroke="#bfbfbf" points="105,-123.5 105,-142.5 155,-142.5 155,-123.5 105,-123.5"/>
<text text-anchor="middle" x="130" y="-130.5" font-family="Helvetica,sans-Serif" font-size="10.00">chrono</text>
</a>
</g>
</g>
<!-- Node7&#45;&gt;Node10 -->
<g id="edge15" class="edge">
<title>Node7&#45;&gt;Node10</title>
<path fill="none" stroke="midnightblue" d="M210.88,-179.4C193.73,-169.77 171.14,-157.09 154.19,-147.58"/>
<polygon fill="midnightblue" stroke="midnightblue" points="155.86,-144.5 145.42,-142.66 152.43,-150.6 155.86,-144.5"/>
</g>
<!-- Node11 -->
<g id="node11" class="node">
<title>Node11</title>
<g id="a_node11"><a xlink:title=" ">
<polygon fill="none" stroke="#bfbfbf" points="173,-123.5 173,-142.5 229,-142.5 229,-123.5 173,-123.5"/>
<text text-anchor="middle" x="201" y="-130.5" font-family="Helvetica,sans-Serif" font-size="10.00">iomanip</text>
</a>
</g>
</g>
<!-- Node7&#45;&gt;Node11 -->
<g id="edge16" class="edge">
<title>Node7&#45;&gt;Node11</title>
<path fill="none" stroke="midnightblue" d="M227.71,-179.4C222.78,-171.02 216.49,-160.33 211.25,-151.42"/>
<polygon fill="midnightblue" stroke="midnightblue" points="214.18,-149.5 206.09,-142.66 208.15,-153.05 214.18,-149.5"/>
</g>
<!-- Node12 -->
<g id="node12" class="node">
<title>Node12</title>
<g id="a_node12"><a xlink:title=" ">
<polygon fill="none" stroke="#bfbfbf" points="247,-123.5 247,-142.5 295,-142.5 295,-123.5 247,-123.5"/>
<text text-anchor="middle" x="271" y="-130.5" font-family="Helvetica,sans-Serif" font-size="10.00">thread</text>
</a>
</g>
</g>
<!-- Node7&#45;&gt;Node12 -->
<g id="edge17" class="edge">
<title>Node7&#45;&gt;Node12</title>
<path fill="none" stroke="midnightblue" d="M244.29,-179.4C249.22,-171.02 255.51,-160.33 260.75,-151.42"/>
<polygon fill="midnightblue" stroke="midnightblue" points="263.85,-153.05 265.91,-142.66 257.82,-149.5 263.85,-153.05"/>
</g>
<!-- Node8&#45;&gt;Node2 -->
<g id="edge12" class="edge">
<title>Node8&#45;&gt;Node2</title>
<path fill="none" stroke="midnightblue" d="M312.91,-123.91C264.98,-114.25 184.01,-97.92 126.18,-86.25"/>
<polygon fill="midnightblue" stroke="midnightblue" points="126.52,-82.75 116.03,-84.2 125.14,-89.61 126.52,-82.75"/>
</g>
<!-- Node8&#45;&gt;Node3 -->
<g id="edge13" class="edge">
<title>Node8&#45;&gt;Node3</title>
<path fill="none" stroke="midnightblue" d="M368.19,-123.48C383.01,-115.15 406.08,-102.21 425.25,-91.45"/>
<polygon fill="midnightblue" stroke="midnightblue" points="427.01,-94.47 434.02,-86.52 423.58,-88.37 427.01,-94.47"/>
</g>
<!-- Node9 -->
<g id="node9" class="node">
<title>Node9</title>
<g id="a_node9"><a xlink:title=" ">
<polygon fill="none" stroke="#bfbfbf" points="324,-62 324,-81 368,-81 368,-62 324,-62"/>
<text text-anchor="middle" x="346" y="-69" font-family="Helvetica,sans-Serif" font-size="10.00">ctime</text>
</a>
</g>
</g>
<!-- Node8&#45;&gt;Node9 -->
<g id="edge14" class="edge">
<title>Node8&#45;&gt;Node9</title>
<path fill="none" stroke="midnightblue" d="M352,-123.48C351.01,-115.08 349.47,-101.98 348.2,-91.16"/>
<polygon fill="midnightblue" stroke="midnightblue" points="351.65,-90.53 347,-81.01 344.69,-91.35 351.65,-90.53"/>
</g>
</g>
</svg>
