<?xml version="1.0" encoding="UTF-8" standalone="no"?>
<!DOCTYPE svg PUBLIC "-//W3C//DTD SVG 1.1//EN"
 "http://www.w3.org/Graphics/SVG/1.1/DTD/svg11.dtd">
<!-- Generated by graphviz version 2.43.0 (0)
 -->
<!-- Title: ServiceTimeBase&lt; DELAY_FUNCTION, BUFFER_TYPE &gt; Pages: 1 -->
<svg width="801pt" height="1120pt"
 viewBox="0.00 0.00 801.00 1120.00" xmlns="http://www.w3.org/2000/svg" xmlns:xlink="http://www.w3.org/1999/xlink">
<g id="graph0" class="graph" transform="scale(1 1) rotate(0) translate(4 1116)">
<title>ServiceTimeBase&lt; DELAY_FUNCTION, BUFFER_TYPE &gt;</title>
<!-- Node1 -->
<g id="node1" class="node">
<title>Node1</title>
<g id="a_node1"><a xlink:title=" ">
<polygon fill="#bfbfbf" stroke="black" points="372.5,-0.5 372.5,-101.5 531.5,-101.5 531.5,-0.5 372.5,-0.5"/>
<text text-anchor="start" x="380.5" y="-89.5" font-family="Helvetica,sans-Serif" font-size="10.00">ServiceTimeBase&lt; DELAY</text>
<text text-anchor="middle" x="452" y="-78.5" font-family="Helvetica,sans-Serif" font-size="10.00">_FUNCTION, BUFFER_TYPE &gt;</text>
<polyline fill="none" stroke="black" points="372.5,-71.5 531.5,-71.5 "/>
<text text-anchor="start" x="380.5" y="-59.5" font-family="Helvetica,sans-Serif" font-size="10.00">&#45; m_delay</text>
<polyline fill="none" stroke="black" points="372.5,-52.5 531.5,-52.5 "/>
<text text-anchor="start" x="380.5" y="-40.5" font-family="Helvetica,sans-Serif" font-size="10.00">+ ServiceTimeBase()</text>
<text text-anchor="start" x="380.5" y="-29.5" font-family="Helvetica,sans-Serif" font-size="10.00">+ ~ServiceTimeBase()</text>
<text text-anchor="start" x="380.5" y="-18.5" font-family="Helvetica,sans-Serif" font-size="10.00"># mainFunction()</text>
<text text-anchor="start" x="380.5" y="-7.5" font-family="Helvetica,sans-Serif" font-size="10.00"># run()</text>
</a>
</g>
</g>
<!-- Node2 -->
<g id="node2" class="node">
<title>Node2</title>
<g id="a_node2"><a xlink:href="../../d4/d82/class_service_base.html" target="_top" xlink:title=" ">
<polygon fill="none" stroke="black" points="364,-139.5 364,-262.5 540,-262.5 540,-139.5 364,-139.5"/>
<text text-anchor="middle" x="452" y="-250.5" font-family="Helvetica,sans-Serif" font-size="10.00">ServiceBase&lt; MQTT_Message &gt;</text>
<polyline fill="none" stroke="black" points="364,-243.5 540,-243.5 "/>
<text text-anchor="start" x="372" y="-231.5" font-family="Helvetica,sans-Serif" font-size="10.00"># m_error_id</text>
<polyline fill="none" stroke="black" points="364,-224.5 540,-224.5 "/>
<text text-anchor="start" x="372" y="-212.5" font-family="Helvetica,sans-Serif" font-size="10.00">+ ServiceBase()</text>
<text text-anchor="start" x="372" y="-201.5" font-family="Helvetica,sans-Serif" font-size="10.00">+ ~ServiceBase()</text>
<text text-anchor="start" x="372" y="-190.5" font-family="Helvetica,sans-Serif" font-size="10.00">+ isActive()</text>
<text text-anchor="start" x="372" y="-179.5" font-family="Helvetica,sans-Serif" font-size="10.00"># mainFunction()</text>
<text text-anchor="start" x="372" y="-168.5" font-family="Helvetica,sans-Serif" font-size="10.00"># setIsActive()</text>
<text text-anchor="start" x="372" y="-157.5" font-family="Helvetica,sans-Serif" font-size="10.00"># postData()</text>
<text text-anchor="start" x="372" y="-146.5" font-family="Helvetica,sans-Serif" font-size="10.00"># postError()</text>
</a>
</g>
</g>
<!-- Node2&#45;&gt;Node1 -->
<g id="edge1" class="edge">
<title>Node2&#45;&gt;Node1</title>
<path fill="none" stroke="midnightblue" d="M452,-129.37C452,-120.1 452,-110.75 452,-101.92"/>
<polygon fill="none" stroke="midnightblue" points="448.5,-129.38 452,-139.38 455.5,-129.38 448.5,-129.38"/>
</g>
<!-- Node3 -->
<g id="node3" class="node">
<title>Node3</title>
<g id="a_node3"><a xlink:href="../../d7/d6d/class_task.html" target="_top" xlink:title="Encapsulate a runnable task.">
<polygon fill="none" stroke="black" points="401,-591.5 401,-802.5 499,-802.5 499,-591.5 401,-591.5"/>
<text text-anchor="middle" x="450" y="-790.5" font-family="Helvetica,sans-Serif" font-size="10.00">Task</text>
<polyline fill="none" stroke="black" points="401,-783.5 499,-783.5 "/>
<text text-anchor="start" x="409" y="-771.5" font-family="Helvetica,sans-Serif" font-size="10.00">&#45; m_handle</text>
<text text-anchor="start" x="409" y="-760.5" font-family="Helvetica,sans-Serif" font-size="10.00">&#45; m_stackSize</text>
<text text-anchor="start" x="409" y="-749.5" font-family="Helvetica,sans-Serif" font-size="10.00">&#45; m_priority</text>
<text text-anchor="start" x="409" y="-738.5" font-family="Helvetica,sans-Serif" font-size="10.00">&#45; m_taskData</text>
<text text-anchor="start" x="409" y="-727.5" font-family="Helvetica,sans-Serif" font-size="10.00">&#45; m_coreId</text>
<polyline fill="none" stroke="black" points="401,-720.5 499,-720.5 "/>
<text text-anchor="start" x="409" y="-708.5" font-family="Helvetica,sans-Serif" font-size="10.00">+ Task()</text>
<text text-anchor="start" x="409" y="-697.5" font-family="Helvetica,sans-Serif" font-size="10.00">+ ~Task()</text>
<text text-anchor="start" x="409" y="-686.5" font-family="Helvetica,sans-Serif" font-size="10.00">+ setStackSize()</text>
<text text-anchor="start" x="409" y="-675.5" font-family="Helvetica,sans-Serif" font-size="10.00">+ setPriority()</text>
<text text-anchor="start" x="409" y="-664.5" font-family="Helvetica,sans-Serif" font-size="10.00">+ setName()</text>
<text text-anchor="start" x="409" y="-653.5" font-family="Helvetica,sans-Serif" font-size="10.00">+ setCore()</text>
<text text-anchor="start" x="409" y="-642.5" font-family="Helvetica,sans-Serif" font-size="10.00">+ start()</text>
<text text-anchor="start" x="409" y="-631.5" font-family="Helvetica,sans-Serif" font-size="10.00">+ stop()</text>
<text text-anchor="start" x="409" y="-620.5" font-family="Helvetica,sans-Serif" font-size="10.00">+ run()</text>
<text text-anchor="start" x="409" y="-609.5" font-family="Helvetica,sans-Serif" font-size="10.00">+ delay()</text>
<text text-anchor="start" x="409" y="-598.5" font-family="Helvetica,sans-Serif" font-size="10.00">&#45; runTask()</text>
</a>
</g>
</g>
<!-- Node3&#45;&gt;Node2 -->
<g id="edge2" class="edge">
<title>Node3&#45;&gt;Node2</title>
<path fill="none" stroke="midnightblue" d="M436.64,-581.37C435.56,-568.78 434.64,-556.13 434,-544 428.55,-440.14 425.42,-413.65 434,-310 435.28,-294.56 437.57,-278.01 440.09,-262.61"/>
<polygon fill="none" stroke="midnightblue" points="433.16,-581.8 437.54,-591.45 440.14,-581.18 433.16,-581.8"/>
</g>
<!-- Node15 -->
<g id="node15" class="node">
<title>Node15</title>
<g id="a_node15"><a xlink:href="../../d4/d82/class_service_base.html" target="_top" xlink:title=" ">
<polygon fill="none" stroke="black" points="443.5,-354.5 443.5,-499.5 570.5,-499.5 570.5,-354.5 443.5,-354.5"/>
<text text-anchor="start" x="451.5" y="-487.5" font-family="Helvetica,sans-Serif" font-size="10.00">ServiceBase&lt; BUFFER</text>
<text text-anchor="middle" x="507" y="-476.5" font-family="Helvetica,sans-Serif" font-size="10.00">_TYPE &gt;</text>
<polyline fill="none" stroke="black" points="443.5,-469.5 570.5,-469.5 "/>
<text text-anchor="start" x="451.5" y="-457.5" font-family="Helvetica,sans-Serif" font-size="10.00"># m_buffer</text>
<text text-anchor="start" x="451.5" y="-446.5" font-family="Helvetica,sans-Serif" font-size="10.00"># m_error_id</text>
<polyline fill="none" stroke="black" points="443.5,-439.5 570.5,-439.5 "/>
<text text-anchor="start" x="451.5" y="-427.5" font-family="Helvetica,sans-Serif" font-size="10.00">+ ServiceBase()</text>
<text text-anchor="start" x="451.5" y="-416.5" font-family="Helvetica,sans-Serif" font-size="10.00">+ ~ServiceBase()</text>
<text text-anchor="start" x="451.5" y="-405.5" font-family="Helvetica,sans-Serif" font-size="10.00">+ isActive()</text>
<text text-anchor="start" x="451.5" y="-394.5" font-family="Helvetica,sans-Serif" font-size="10.00"># mainFunction()</text>
<text text-anchor="start" x="451.5" y="-383.5" font-family="Helvetica,sans-Serif" font-size="10.00"># setIsActive()</text>
<text text-anchor="start" x="451.5" y="-372.5" font-family="Helvetica,sans-Serif" font-size="10.00"># postData()</text>
<text text-anchor="start" x="451.5" y="-361.5" font-family="Helvetica,sans-Serif" font-size="10.00"># postError()</text>
</a>
</g>
</g>
<!-- Node3&#45;&gt;Node15 -->
<g id="edge18" class="edge">
<title>Node3&#45;&gt;Node15</title>
<path fill="none" stroke="midnightblue" d="M474.44,-581.1C480.32,-553.42 486.45,-524.64 491.77,-499.6"/>
<polygon fill="none" stroke="midnightblue" points="470.94,-580.72 472.28,-591.23 477.79,-582.18 470.94,-580.72"/>
</g>
<!-- Node4 -->
<g id="node4" class="node">
<title>Node4</title>
<g id="a_node4"><a xlink:title="STL class.">
<polygon fill="none" stroke="#bfbfbf" points="417.5,-900 417.5,-957 482.5,-957 482.5,-900 417.5,-900"/>
<text text-anchor="middle" x="450" y="-945" font-family="Helvetica,sans-Serif" font-size="10.00">std::string</text>
<polyline fill="none" stroke="#bfbfbf" points="417.5,-938 482.5,-938 "/>
<text text-anchor="middle" x="450" y="-926" font-family="Helvetica,sans-Serif" font-size="10.00"> </text>
<polyline fill="none" stroke="#bfbfbf" points="417.5,-919 482.5,-919 "/>
<text text-anchor="middle" x="450" y="-907" font-family="Helvetica,sans-Serif" font-size="10.00"> </text>
</a>
</g>
</g>
<!-- Node4&#45;&gt;Node3 -->
<g id="edge3" class="edge">
<title>Node4&#45;&gt;Node3</title>
<path fill="none" stroke="#404040" d="M450,-899.82C450,-878.2 450,-846.58 450,-814.75"/>
<polygon fill="none" stroke="#404040" points="450,-814.57 446,-808.57 450,-802.57 454,-808.57 450,-814.57"/>
<text text-anchor="middle" x="486.5" y="-829.5" font-family="Helvetica,sans-Serif" font-size="10.00"> &#45;m_taskName</text>
</g>
<!-- Node11 -->
<g id="node11" class="node">
<title>Node11</title>
<g id="a_node11"><a xlink:href="../../d5/d81/class_m_q_t_t___message.html" target="_top" xlink:title=" ">
<polygon fill="none" stroke="black" points="225.5,-310.5 225.5,-543.5 386.5,-543.5 386.5,-310.5 225.5,-310.5"/>
<text text-anchor="middle" x="306" y="-531.5" font-family="Helvetica,sans-Serif" font-size="10.00">MQTT_Message</text>
<polyline fill="none" stroke="black" points="225.5,-524.5 386.5,-524.5 "/>
<text text-anchor="start" x="233.5" y="-512.5" font-family="Helvetica,sans-Serif" font-size="10.00">&#45; m_entity_id</text>
<text text-anchor="start" x="233.5" y="-501.5" font-family="Helvetica,sans-Serif" font-size="10.00">&#45; m_buffer_size</text>
<polyline fill="none" stroke="black" points="225.5,-494.5 386.5,-494.5 "/>
<text text-anchor="start" x="233.5" y="-482.5" font-family="Helvetica,sans-Serif" font-size="10.00">+ MQTT_Message()</text>
<text text-anchor="start" x="233.5" y="-471.5" font-family="Helvetica,sans-Serif" font-size="10.00">+ MQTT_Message()</text>
<text text-anchor="start" x="233.5" y="-460.5" font-family="Helvetica,sans-Serif" font-size="10.00">+ ~MQTT_Message()</text>
<text text-anchor="start" x="233.5" y="-449.5" font-family="Helvetica,sans-Serif" font-size="10.00">+ addData()</text>
<text text-anchor="start" x="233.5" y="-438.5" font-family="Helvetica,sans-Serif" font-size="10.00">+ addData()</text>
<text text-anchor="start" x="233.5" y="-427.5" font-family="Helvetica,sans-Serif" font-size="10.00">+ addData_f()</text>
<text text-anchor="start" x="233.5" y="-416.5" font-family="Helvetica,sans-Serif" font-size="10.00">+ isEmpty()</text>
<text text-anchor="start" x="233.5" y="-405.5" font-family="Helvetica,sans-Serif" font-size="10.00">+ toString()</text>
<text text-anchor="start" x="233.5" y="-394.5" font-family="Helvetica,sans-Serif" font-size="10.00">+ clear()</text>
<text text-anchor="start" x="233.5" y="-383.5" font-family="Helvetica,sans-Serif" font-size="10.00">+ getBufferSize()</text>
<text text-anchor="start" x="233.5" y="-372.5" font-family="Helvetica,sans-Serif" font-size="10.00">+ append()</text>
<text text-anchor="start" x="233.5" y="-361.5" font-family="Helvetica,sans-Serif" font-size="10.00">+ getData()</text>
<text text-anchor="start" x="233.5" y="-350.5" font-family="Helvetica,sans-Serif" font-size="10.00">+ getMaxAllowedBufferSize()</text>
<text text-anchor="start" x="233.5" y="-339.5" font-family="Helvetica,sans-Serif" font-size="10.00">+ getEntityId()</text>
<text text-anchor="start" x="233.5" y="-328.5" font-family="Helvetica,sans-Serif" font-size="10.00">+ copyTo()</text>
<text text-anchor="start" x="233.5" y="-317.5" font-family="Helvetica,sans-Serif" font-size="10.00">+ construct()</text>
</a>
</g>
</g>
<!-- Node4&#45;&gt;Node11 -->
<g id="edge11" class="edge">
<title>Node4&#45;&gt;Node11</title>
<path fill="none" stroke="#404040" d="M417.37,-908.5C384.7,-887.41 336.29,-850.06 315,-803 280.29,-726.28 278.34,-631.4 284.92,-556.27"/>
<polygon fill="none" stroke="#404040" points="284.96,-555.86 281.55,-549.5 286.1,-543.91 289.51,-550.26 284.96,-555.86"/>
<text text-anchor="middle" x="353.5" y="-694.5" font-family="Helvetica,sans-Serif" font-size="10.00"> &#45;m_semaphore</text>
</g>
<!-- Node14 -->
<g id="node14" class="node">
<title>Node14</title>
<g id="a_node14"><a xlink:href="../../d5/de7/classmqtt__api__v2.html" target="_top" xlink:title=" ">
<polygon fill="none" stroke="black" points="517,-624.5 517,-769.5 621,-769.5 621,-624.5 517,-624.5"/>
<text text-anchor="middle" x="569" y="-757.5" font-family="Helvetica,sans-Serif" font-size="10.00">mqtt_api_v2</text>
<polyline fill="none" stroke="black" points="517,-750.5 621,-750.5 "/>
<text text-anchor="middle" x="569" y="-738.5" font-family="Helvetica,sans-Serif" font-size="10.00"> </text>
<polyline fill="none" stroke="black" points="517,-731.5 621,-731.5 "/>
<text text-anchor="start" x="525" y="-719.5" font-family="Helvetica,sans-Serif" font-size="10.00">+ mqtt_api_v2()</text>
<text text-anchor="start" x="525" y="-708.5" font-family="Helvetica,sans-Serif" font-size="10.00">+ ~mqtt_api_v2()</text>
<text text-anchor="start" x="525" y="-697.5" font-family="Helvetica,sans-Serif" font-size="10.00">+ publish()</text>
<text text-anchor="start" x="525" y="-686.5" font-family="Helvetica,sans-Serif" font-size="10.00">+ subscribe()</text>
<text text-anchor="start" x="525" y="-675.5" font-family="Helvetica,sans-Serif" font-size="10.00">+ subscribe()</text>
<text text-anchor="start" x="525" y="-664.5" font-family="Helvetica,sans-Serif" font-size="10.00">+ getData()</text>
<text text-anchor="start" x="525" y="-653.5" font-family="Helvetica,sans-Serif" font-size="10.00">&#45; connect()</text>
<text text-anchor="start" x="525" y="-642.5" font-family="Helvetica,sans-Serif" font-size="10.00">&#45; disconnect()</text>
<text text-anchor="start" x="525" y="-631.5" font-family="Helvetica,sans-Serif" font-size="10.00">&#45; handle_event()</text>
</a>
</g>
</g>
<!-- Node4&#45;&gt;Node14 -->
<g id="edge16" class="edge">
<title>Node4&#45;&gt;Node14</title>
<path fill="none" stroke="#404040" d="M481.48,-899.65C497.13,-884.31 515.17,-864.13 527,-843 537.59,-824.08 545.73,-802.25 551.88,-781.36"/>
<polygon fill="none" stroke="#404040" points="551.96,-781.1 549.72,-774.24 555.19,-769.54 557.43,-776.4 551.96,-781.1"/>
<text text-anchor="middle" x="554.5" y="-829.5" font-family="Helvetica,sans-Serif" font-size="10.00"> &#45;m_uri</text>
</g>
<!-- Node5 -->
<g id="node5" class="node">
<title>Node5</title>
<g id="a_node5"><a xlink:title="STL class.">
<polygon fill="none" stroke="#bfbfbf" points="398,-1043.5 398,-1111.5 502,-1111.5 502,-1043.5 398,-1043.5"/>
<text text-anchor="start" x="406" y="-1099.5" font-family="Helvetica,sans-Serif" font-size="10.00">std::basic_string&lt;</text>
<text text-anchor="middle" x="450" y="-1088.5" font-family="Helvetica,sans-Serif" font-size="10.00"> char &gt;</text>
<polyline fill="none" stroke="#bfbfbf" points="398,-1081.5 502,-1081.5 "/>
<text text-anchor="middle" x="450" y="-1069.5" font-family="Helvetica,sans-Serif" font-size="10.00"> </text>
<polyline fill="none" stroke="#bfbfbf" points="398,-1062.5 502,-1062.5 "/>
<text text-anchor="middle" x="450" y="-1050.5" font-family="Helvetica,sans-Serif" font-size="10.00"> </text>
</a>
</g>
</g>
<!-- Node5&#45;&gt;Node4 -->
<g id="edge4" class="edge">
<title>Node5&#45;&gt;Node4</title>
<path fill="none" stroke="midnightblue" d="M450,-1033.01C450,-1008.51 450,-978.64 450,-957.3"/>
<polygon fill="none" stroke="midnightblue" points="446.5,-1033.14 450,-1043.14 453.5,-1033.14 446.5,-1033.14"/>
</g>
<!-- Node6 -->
<g id="node6" class="node">
<title>Node6</title>
<g id="a_node6"><a xlink:title=" ">
<polygon fill="none" stroke="#bfbfbf" points="154.5,-668.5 154.5,-725.5 269.5,-725.5 269.5,-668.5 154.5,-668.5"/>
<text text-anchor="middle" x="212" y="-713.5" font-family="Helvetica,sans-Serif" font-size="10.00">std::atomic&lt; bool &gt;</text>
<polyline fill="none" stroke="#bfbfbf" points="154.5,-706.5 269.5,-706.5 "/>
<text text-anchor="start" x="162.5" y="-694.5" font-family="Helvetica,sans-Serif" font-size="10.00">+ ptr</text>
<polyline fill="none" stroke="#bfbfbf" points="154.5,-687.5 269.5,-687.5 "/>
<text text-anchor="middle" x="212" y="-675.5" font-family="Helvetica,sans-Serif" font-size="10.00"> </text>
</a>
</g>
</g>
<!-- Node6&#45;&gt;Node2 -->
<g id="edge5" class="edge">
<title>Node6&#45;&gt;Node2</title>
<path fill="none" stroke="#404040" d="M195.95,-668.45C158.78,-600.66 75.82,-423.05 155,-310 199.17,-246.94 284.15,-220.56 351.94,-209.6"/>
<polygon fill="none" stroke="#404040" points="352.08,-209.58 357.42,-204.73 363.95,-207.79 358.61,-212.64 352.08,-209.58"/>
<text text-anchor="middle" x="185.5" y="-424.5" font-family="Helvetica,sans-Serif" font-size="10.00"> &#45;m_isActive</text>
</g>
<!-- Node6&#45;&gt;Node15 -->
<g id="edge19" class="edge">
<title>Node6&#45;&gt;Node15</title>
<path fill="none" stroke="#404040" d="M225.36,-668.16C237.75,-644.86 258.16,-612.12 284,-591 325.48,-557.1 350.84,-574.33 395,-544 409.95,-533.73 424.52,-521.23 437.92,-508.28"/>
<polygon fill="none" stroke="#404040" points="438.03,-508.17 439.48,-501.1 446.56,-499.72 445.11,-506.79 438.03,-508.17"/>
<text text-anchor="middle" x="386.5" y="-565" font-family="Helvetica,sans-Serif" font-size="10.00"> &#45;m_isActive</text>
</g>
<!-- Node7 -->
<g id="node7" class="node">
<title>Node7</title>
<g id="a_node7"><a xlink:title="STL class.">
<polygon fill="none" stroke="#bfbfbf" points="149,-900 149,-957 249,-957 249,-900 149,-900"/>
<text text-anchor="middle" x="199" y="-945" font-family="Helvetica,sans-Serif" font-size="10.00">std::atomic&lt; T &gt;</text>
<polyline fill="none" stroke="#bfbfbf" points="149,-938 249,-938 "/>
<text text-anchor="middle" x="199" y="-926" font-family="Helvetica,sans-Serif" font-size="10.00"> </text>
<polyline fill="none" stroke="#bfbfbf" points="149,-919 249,-919 "/>
<text text-anchor="middle" x="199" y="-907" font-family="Helvetica,sans-Serif" font-size="10.00"> </text>
</a>
</g>
</g>
<!-- Node7&#45;&gt;Node6 -->
<g id="edge6" class="edge">
<title>Node7&#45;&gt;Node6</title>
<path fill="none" stroke="orange" d="M201.14,-889.63C203.76,-843.53 208.11,-766.76 210.43,-725.78"/>
<polygon fill="orange" stroke="orange" points="197.64,-889.63 200.57,-899.82 204.63,-890.03 197.64,-889.63"/>
<text text-anchor="middle" x="228.5" y="-829.5" font-family="Helvetica,sans-Serif" font-size="10.00"> &lt; bool &gt;</text>
</g>
<!-- Node8 -->
<g id="node8" class="node">
<title>Node8</title>
<g id="a_node8"><a xlink:title=" ">
<polygon fill="none" stroke="#bfbfbf" points="121.5,-1049 121.5,-1106 150.5,-1106 150.5,-1049 121.5,-1049"/>
<text text-anchor="middle" x="136" y="-1094" font-family="Helvetica,sans-Serif" font-size="10.00">T</text>
<polyline fill="none" stroke="#bfbfbf" points="121.5,-1087 150.5,-1087 "/>
<text text-anchor="middle" x="136" y="-1075" font-family="Helvetica,sans-Serif" font-size="10.00"> </text>
<polyline fill="none" stroke="#bfbfbf" points="121.5,-1068 150.5,-1068 "/>
<text text-anchor="middle" x="136" y="-1056" font-family="Helvetica,sans-Serif" font-size="10.00"> </text>
</a>
</g>
</g>
<!-- Node8&#45;&gt;Node7 -->
<g id="edge7" class="edge">
<title>Node8&#45;&gt;Node7</title>
<path fill="none" stroke="#404040" d="M148.53,-1048.76C151.96,-1041.08 155.66,-1032.73 159,-1025 167,-1006.5 175.67,-985.89 182.88,-968.56"/>
<polygon fill="none" stroke="#404040" points="183.02,-968.24 181.62,-961.16 187.62,-957.15 189.01,-964.23 183.02,-968.24"/>
<text text-anchor="middle" x="176.5" y="-1017" font-family="Helvetica,sans-Serif" font-size="10.00"> +ptr</text>
</g>
<!-- Node13 -->
<g id="node13" class="node">
<title>Node13</title>
<g id="a_node13"><a xlink:title="STL class.">
<polygon fill="none" stroke="#bfbfbf" points="32.5,-900 32.5,-957 129.5,-957 129.5,-900 32.5,-900"/>
<text text-anchor="middle" x="81" y="-945" font-family="Helvetica,sans-Serif" font-size="10.00">std::vector&lt; T &gt;</text>
<polyline fill="none" stroke="#bfbfbf" points="32.5,-938 129.5,-938 "/>
<text text-anchor="middle" x="81" y="-926" font-family="Helvetica,sans-Serif" font-size="10.00"> </text>
<polyline fill="none" stroke="#bfbfbf" points="32.5,-919 129.5,-919 "/>
<text text-anchor="middle" x="81" y="-907" font-family="Helvetica,sans-Serif" font-size="10.00"> </text>
</a>
</g>
</g>
<!-- Node8&#45;&gt;Node13 -->
<g id="edge14" class="edge">
<title>Node8&#45;&gt;Node13</title>
<path fill="none" stroke="#404040" d="M121.16,-1058.45C114.08,-1049 106.07,-1036.94 101,-1025 93.5,-1007.35 88.73,-986.64 85.73,-969.02"/>
<polygon fill="none" stroke="#404040" points="85.72,-968.97 80.85,-963.65 83.89,-957.11 88.76,-962.43 85.72,-968.97"/>
<text text-anchor="middle" x="130" y="-1017" font-family="Helvetica,sans-Serif" font-size="10.00"> +elements</text>
</g>
<!-- Node9 -->
<g id="node9" class="node">
<title>Node9</title>
<g id="a_node9"><a xlink:href="../../d1/d2c/class_g_p_i_o___a_p_i.html" target="_top" xlink:title=" ">
<polygon fill="none" stroke="black" points="652.5,-591.5 652.5,-802.5 765.5,-802.5 765.5,-591.5 652.5,-591.5"/>
<text text-anchor="middle" x="709" y="-790.5" font-family="Helvetica,sans-Serif" font-size="10.00">GPIO_API</text>
<polyline fill="none" stroke="black" points="652.5,-783.5 765.5,-783.5 "/>
<text text-anchor="start" x="660.5" y="-771.5" font-family="Helvetica,sans-Serif" font-size="10.00">&#45; m_pin</text>
<text text-anchor="start" x="660.5" y="-760.5" font-family="Helvetica,sans-Serif" font-size="10.00">&#45; is_Output</text>
<text text-anchor="start" x="660.5" y="-749.5" font-family="Helvetica,sans-Serif" font-size="10.00">&#45; is_high</text>
<polyline fill="none" stroke="black" points="652.5,-742.5 765.5,-742.5 "/>
<text text-anchor="start" x="660.5" y="-730.5" font-family="Helvetica,sans-Serif" font-size="10.00">+ GPIO_API()</text>
<text text-anchor="start" x="660.5" y="-719.5" font-family="Helvetica,sans-Serif" font-size="10.00">+ GPIO_API()</text>
<text text-anchor="start" x="660.5" y="-708.5" font-family="Helvetica,sans-Serif" font-size="10.00">+ ~GPIO_API()</text>
<text text-anchor="start" x="660.5" y="-697.5" font-family="Helvetica,sans-Serif" font-size="10.00">+ toggle()</text>
<text text-anchor="start" x="660.5" y="-686.5" font-family="Helvetica,sans-Serif" font-size="10.00">+ setToInput()</text>
<text text-anchor="start" x="660.5" y="-675.5" font-family="Helvetica,sans-Serif" font-size="10.00">+ setToOutput()</text>
<text text-anchor="start" x="660.5" y="-664.5" font-family="Helvetica,sans-Serif" font-size="10.00">+ setHigh()</text>
<text text-anchor="start" x="660.5" y="-653.5" font-family="Helvetica,sans-Serif" font-size="10.00">+ setLow()</text>
<text text-anchor="start" x="660.5" y="-642.5" font-family="Helvetica,sans-Serif" font-size="10.00">+ isHigh()</text>
<text text-anchor="start" x="660.5" y="-631.5" font-family="Helvetica,sans-Serif" font-size="10.00">+ isLow()</text>
<text text-anchor="start" x="660.5" y="-620.5" font-family="Helvetica,sans-Serif" font-size="10.00">+ installInterrupt()</text>
<text text-anchor="start" x="660.5" y="-609.5" font-family="Helvetica,sans-Serif" font-size="10.00">+ enableInterrupt()</text>
<text text-anchor="start" x="660.5" y="-598.5" font-family="Helvetica,sans-Serif" font-size="10.00">+ disableInterrupt()</text>
</a>
</g>
</g>
<!-- Node9&#45;&gt;Node2 -->
<g id="edge8" class="edge">
<title>Node9&#45;&gt;Node2</title>
<path fill="none" stroke="#404040" d="M724.01,-591.2C730.28,-507.76 725.71,-391.81 669,-310 641.38,-270.16 594.67,-244.3 551.65,-227.91"/>
<polygon fill="none" stroke="#404040" points="551.5,-227.86 544.49,-229.56 540.22,-223.74 547.23,-222.04 551.5,-227.86"/>
<text text-anchor="middle" x="760" y="-424.5" font-family="Helvetica,sans-Serif" font-size="10.00"> #m_test_pin</text>
</g>
<!-- Node9&#45;&gt;Node15 -->
<g id="edge20" class="edge">
<title>Node9&#45;&gt;Node15</title>
<path fill="none" stroke="#404040" d="M652.43,-618.62C645.05,-609.18 637.46,-599.78 630,-591 611.27,-568.96 603.14,-566.53 585,-544 576.26,-533.15 567.52,-521.32 559.21,-509.52"/>
<polygon fill="none" stroke="#404040" points="559.19,-509.48 552.48,-506.83 552.35,-499.62 559.06,-502.27 559.19,-509.48"/>
<text text-anchor="middle" x="646" y="-565" font-family="Helvetica,sans-Serif" font-size="10.00"> #m_test_pin</text>
</g>
<!-- Node10 -->
<g id="node10" class="node">
<title>Node10</title>
<g id="a_node10"><a xlink:href="../../d4/d57/class_g_p_i_o___h_a_l.html" target="_top" xlink:title=" ">
<polygon fill="none" stroke="black" points="640.5,-861.5 640.5,-995.5 777.5,-995.5 777.5,-861.5 640.5,-861.5"/>
<text text-anchor="middle" x="709" y="-983.5" font-family="Helvetica,sans-Serif" font-size="10.00">GPIO_HAL</text>
<polyline fill="none" stroke="black" points="640.5,-976.5 777.5,-976.5 "/>
<text text-anchor="middle" x="709" y="-964.5" font-family="Helvetica,sans-Serif" font-size="10.00"> </text>
<polyline fill="none" stroke="black" points="640.5,-957.5 777.5,-957.5 "/>
<text text-anchor="start" x="648.5" y="-945.5" font-family="Helvetica,sans-Serif" font-size="10.00">+ GPIO_HAL()</text>
<text text-anchor="start" x="648.5" y="-934.5" font-family="Helvetica,sans-Serif" font-size="10.00">+ ~GPIO_HAL()</text>
<text text-anchor="start" x="648.5" y="-923.5" font-family="Helvetica,sans-Serif" font-size="10.00">+ setDirection()</text>
<text text-anchor="start" x="648.5" y="-912.5" font-family="Helvetica,sans-Serif" font-size="10.00">+ setValue()</text>
<text text-anchor="start" x="648.5" y="-901.5" font-family="Helvetica,sans-Serif" font-size="10.00">+ getValue()</text>
<text text-anchor="start" x="648.5" y="-890.5" font-family="Helvetica,sans-Serif" font-size="10.00">+ installInterruptDriver()</text>
<text text-anchor="start" x="648.5" y="-879.5" font-family="Helvetica,sans-Serif" font-size="10.00">+ enableInterrupt()</text>
<text text-anchor="start" x="648.5" y="-868.5" font-family="Helvetica,sans-Serif" font-size="10.00">+ disableInterrupt()</text>
</a>
</g>
</g>
<!-- Node10&#45;&gt;Node9 -->
<g id="edge9" class="edge">
<title>Node10&#45;&gt;Node9</title>
<path fill="none" stroke="#404040" d="M709,-861.43C709,-846.76 709,-830.79 709,-814.77"/>
<polygon fill="none" stroke="#404040" points="709,-814.52 705,-808.52 709,-802.52 713,-808.52 709,-814.52"/>
<text text-anchor="middle" x="727.5" y="-829.5" font-family="Helvetica,sans-Serif" font-size="10.00"> &#45;m_hal</text>
</g>
<!-- Node11&#45;&gt;Node2 -->
<g id="edge10" class="edge">
<title>Node11&#45;&gt;Node2</title>
<path fill="none" stroke="#404040" d="M330.15,-310.41C334.57,-300.04 339.81,-290.05 346,-281 348.88,-276.79 352.06,-272.72 355.46,-268.79"/>
<polygon fill="none" stroke="#404040" points="355.58,-268.65 356.75,-261.54 363.77,-259.88 362.6,-267 355.58,-268.65"/>
<text text-anchor="middle" x="373.5" y="-284" font-family="Helvetica,sans-Serif" font-size="10.00"> #m_buffer</text>
</g>
<!-- Node12 -->
<g id="node12" class="node">
<title>Node12</title>
<g id="a_node12"><a xlink:title=" ">
<polygon fill="none" stroke="#bfbfbf" points="0,-663 0,-731 136,-731 136,-663 0,-663"/>
<text text-anchor="start" x="8" y="-719" font-family="Helvetica,sans-Serif" font-size="10.00">std::vector&lt; std::pair</text>
<text text-anchor="middle" x="68" y="-708" font-family="Helvetica,sans-Serif" font-size="10.00">&lt; uint64_t, uint64_t &gt; &gt;</text>
<polyline fill="none" stroke="#bfbfbf" points="0,-701 136,-701 "/>
<text text-anchor="start" x="8" y="-689" font-family="Helvetica,sans-Serif" font-size="10.00">+ elements</text>
<polyline fill="none" stroke="#bfbfbf" points="0,-682 136,-682 "/>
<text text-anchor="middle" x="68" y="-670" font-family="Helvetica,sans-Serif" font-size="10.00"> </text>
</a>
</g>
</g>
<!-- Node12&#45;&gt;Node11 -->
<g id="edge12" class="edge">
<title>Node12&#45;&gt;Node11</title>
<path fill="none" stroke="#404040" d="M88.47,-662.65C102.75,-640.87 123.11,-612.59 145,-591 170.64,-565.71 184.69,-568.59 211,-544 212.97,-542.16 214.94,-540.28 216.9,-538.36"/>
<polygon fill="none" stroke="#404040" points="216.98,-538.27 218.37,-531.19 225.43,-529.75 224.05,-536.83 216.98,-538.27"/>
<text text-anchor="middle" x="209" y="-565" font-family="Helvetica,sans-Serif" font-size="10.00"> &#45;m_data</text>
</g>
<!-- Node13&#45;&gt;Node12 -->
<g id="edge13" class="edge">
<title>Node13&#45;&gt;Node12</title>
<path fill="none" stroke="orange" d="M78.86,-889.79C76.37,-845.72 72.27,-773.46 69.89,-731.35"/>
<polygon fill="orange" stroke="orange" points="75.37,-890.03 79.43,-899.82 82.36,-889.63 75.37,-890.03"/>
<text text-anchor="start" x="77" y="-835" font-family="Helvetica,sans-Serif" font-size="10.00"> &lt; std::pair&lt; uint64</text>
<text text-anchor="middle" x="125.5" y="-824" font-family="Helvetica,sans-Serif" font-size="10.00">_t, uint64_t &gt; &gt;</text>
</g>
<!-- Node14&#45;&gt;Node2 -->
<g id="edge15" class="edge">
<title>Node14&#45;&gt;Node2</title>
<path fill="none" stroke="#404040" d="M592.32,-624.36C616.23,-536.92 641.95,-387.54 580,-281 572.44,-268 561.8,-256.85 549.85,-247.37"/>
<polygon fill="none" stroke="#404040" points="549.68,-247.25 542.48,-246.91 540.02,-240.13 547.22,-240.47 549.68,-247.25"/>
<text text-anchor="middle" x="642" y="-424.5" font-family="Helvetica,sans-Serif" font-size="10.00"> &#45;m_mqtt</text>
</g>
<!-- Node14&#45;&gt;Node15 -->
<g id="edge21" class="edge">
<title>Node14&#45;&gt;Node15</title>
<path fill="none" stroke="#404040" d="M552.39,-624.18C544.36,-589.49 534.68,-547.67 526.33,-511.56"/>
<polygon fill="none" stroke="#404040" points="526.26,-511.24 521.01,-506.3 523.55,-499.55 528.8,-504.5 526.26,-511.24"/>
<text text-anchor="middle" x="563" y="-565" font-family="Helvetica,sans-Serif" font-size="10.00"> &#45;m_mqtt</text>
</g>
<!-- Node15&#45;&gt;Node2 -->
<g id="edge17" class="edge">
<title>Node15&#45;&gt;Node2</title>
<path fill="none" stroke="orange" d="M486.95,-344.36C480.31,-317.3 473.04,-287.68 466.86,-262.5"/>
<polygon fill="orange" stroke="orange" points="483.59,-345.32 489.37,-354.2 490.39,-343.65 483.59,-345.32"/>
<text text-anchor="middle" x="524.5" y="-284" font-family="Helvetica,sans-Serif" font-size="10.00"> &lt; MQTT_Message &gt;</text>
</g>
</g>
</svg>
