<?xml version="1.0" encoding="UTF-8" standalone="no"?>
<!DOCTYPE svg PUBLIC "-//W3C//DTD SVG 1.1//EN"
 "http://www.w3.org/Graphics/SVG/1.1/DTD/svg11.dtd">
<!-- Generated by graphviz version 2.43.0 (0)
 -->
<!-- Title: Maintainer Pages: 1 -->
<!--zoomable 1062 -->
<svg id="main" version="1.1" xmlns="http://www.w3.org/2000/svg" xmlns:xlink="http://www.w3.org/1999/xlink" xml:space="preserve" onload="init(evt)">
<style type="text/css"><![CDATA[
.edge:hover path { stroke: red; }
.edge:hover polygon { stroke: red; fill: red; }
]]></style>
<script type="text/javascript"><![CDATA[
var edges = document.getElementsByTagName('g');
if (edges && edges.length) {
  for (var i=0;i<edges.length;i++) {
    if (edges[i].id.substr(0,4)=='edge') {
      edges[i].setAttribute('class','edge');
    }
  }
}
]]></script>
        <defs>
                <circle id="rim" cx="0" cy="0" r="7"/>
                <circle id="rim2" cx="0" cy="0" r="3.5"/>
                <g id="zoomPlus">
                        <use xlink:href="#rim" fill="#404040">
                                <set attributeName="fill" to="#808080" begin="zoomplus.mouseover" end="zoomplus.mouseout"/>
                        </use>
                        <path d="M-4,0h8M0,-4v8" fill="none" stroke="white" stroke-width="1.5" pointer-events="none"/>
                </g>
                <g id="zoomMin">
                        <use xlink:href="#rim" fill="#404040">
                                <set attributeName="fill" to="#808080" begin="zoomminus.mouseover" end="zoomminus.mouseout"/>
                        </use>
                        <path d="M-4,0h8" fill="none" stroke="white" stroke-width="1.5" pointer-events="none"/>
                </g>
                <g id="dirArrow">
                        <path fill="none" stroke="white" stroke-width="1.5" d="M0,-3.0v7 M-2.5,-0.5L0,-3.0L2.5,-0.5"/>
                </g>
               <g id="resetDef">
                       <use xlink:href="#rim2" fill="#404040">
                               <set attributeName="fill" to="#808080" begin="reset.mouseover" end="reset.mouseout"/>
                       </use>
               </g>
        </defs>

<script type="text/javascript">
var viewWidth = 454;
var viewHeight = 1062;
var sectionId = 'dynsection-1';
</script>
<script xlink:href="../../svgpan.js"/>
<svg id="graph" class="graph">
<g id="viewport">
<title>Maintainer</title>
<!-- Node1 -->
<g id="node1" class="node">
<title>Node1</title>
<g id="a_node1"><a xlink:title=" ">
<polygon fill="#bfbfbf" stroke="black" points="156.5,-0.5 156.5,-178.5 307.5,-178.5 307.5,-0.5 156.5,-0.5"/>
<text text-anchor="middle" x="232" y="-166.5" font-family="Helvetica,sans-Serif" font-size="10.00">Maintainer</text>
<polyline fill="none" stroke="black" points="156.5,-159.5 307.5,-159.5 "/>
<text text-anchor="start" x="164.5" y="-147.5" font-family="Helvetica,sans-Serif" font-size="10.00">&#45; start_time</text>
<text text-anchor="start" x="164.5" y="-136.5" font-family="Helvetica,sans-Serif" font-size="10.00">&#45; m_delay_sec</text>
<text text-anchor="start" x="164.5" y="-125.5" font-family="Helvetica,sans-Serif" font-size="10.00">&#45; m_error_id</text>
<text text-anchor="start" x="164.5" y="-114.5" font-family="Helvetica,sans-Serif" font-size="10.00">&#45; m_withPeriodicReboot</text>
<polyline fill="none" stroke="black" points="156.5,-107.5 307.5,-107.5 "/>
<text text-anchor="start" x="164.5" y="-95.5" font-family="Helvetica,sans-Serif" font-size="10.00">+ Maintainer()</text>
<text text-anchor="start" x="164.5" y="-84.5" font-family="Helvetica,sans-Serif" font-size="10.00">+ ~Maintainer()</text>
<text text-anchor="start" x="164.5" y="-73.5" font-family="Helvetica,sans-Serif" font-size="10.00">+ run()</text>
<text text-anchor="start" x="164.5" y="-62.5" font-family="Helvetica,sans-Serif" font-size="10.00">+ install_system_test</text>
<text text-anchor="start" x="164.5" y="-51.5" font-family="Helvetica,sans-Serif" font-size="10.00">_fuction()</text>
<text text-anchor="start" x="164.5" y="-40.5" font-family="Helvetica,sans-Serif" font-size="10.00">+ checkOTAUpdate()</text>
<text text-anchor="start" x="164.5" y="-29.5" font-family="Helvetica,sans-Serif" font-size="10.00">+ isOTAUpdateStarted()</text>
<text text-anchor="start" x="164.5" y="-18.5" font-family="Helvetica,sans-Serif" font-size="10.00">&#45; periodic_restart()</text>
<text text-anchor="start" x="164.5" y="-7.5" font-family="Helvetica,sans-Serif" font-size="10.00">&#45; check_system_functions()</text>
</a>
</g>
</g>
<!-- Node2 -->
<g id="node2" class="node">
<title>Node2</title>
<g id="a_node2"><a xlink:href="../../d7/d6d/class_task.html" target="_top" xlink:title="Encapsulate a runnable task.">
<polygon fill="none" stroke="black" points="182,-401.5 182,-612.5 280,-612.5 280,-401.5 182,-401.5"/>
<text text-anchor="middle" x="231" y="-600.5" font-family="Helvetica,sans-Serif" font-size="10.00">Task</text>
<polyline fill="none" stroke="black" points="182,-593.5 280,-593.5 "/>
<text text-anchor="start" x="190" y="-581.5" font-family="Helvetica,sans-Serif" font-size="10.00">&#45; m_handle</text>
<text text-anchor="start" x="190" y="-570.5" font-family="Helvetica,sans-Serif" font-size="10.00">&#45; m_stackSize</text>
<text text-anchor="start" x="190" y="-559.5" font-family="Helvetica,sans-Serif" font-size="10.00">&#45; m_priority</text>
<text text-anchor="start" x="190" y="-548.5" font-family="Helvetica,sans-Serif" font-size="10.00">&#45; m_taskData</text>
<text text-anchor="start" x="190" y="-537.5" font-family="Helvetica,sans-Serif" font-size="10.00">&#45; m_coreId</text>
<polyline fill="none" stroke="black" points="182,-530.5 280,-530.5 "/>
<text text-anchor="start" x="190" y="-518.5" font-family="Helvetica,sans-Serif" font-size="10.00">+ Task()</text>
<text text-anchor="start" x="190" y="-507.5" font-family="Helvetica,sans-Serif" font-size="10.00">+ ~Task()</text>
<text text-anchor="start" x="190" y="-496.5" font-family="Helvetica,sans-Serif" font-size="10.00">+ setStackSize()</text>
<text text-anchor="start" x="190" y="-485.5" font-family="Helvetica,sans-Serif" font-size="10.00">+ setPriority()</text>
<text text-anchor="start" x="190" y="-474.5" font-family="Helvetica,sans-Serif" font-size="10.00">+ setName()</text>
<text text-anchor="start" x="190" y="-463.5" font-family="Helvetica,sans-Serif" font-size="10.00">+ setCore()</text>
<text text-anchor="start" x="190" y="-452.5" font-family="Helvetica,sans-Serif" font-size="10.00">+ start()</text>
<text text-anchor="start" x="190" y="-441.5" font-family="Helvetica,sans-Serif" font-size="10.00">+ stop()</text>
<text text-anchor="start" x="190" y="-430.5" font-family="Helvetica,sans-Serif" font-size="10.00">+ run()</text>
<text text-anchor="start" x="190" y="-419.5" font-family="Helvetica,sans-Serif" font-size="10.00">+ delay()</text>
<text text-anchor="start" x="190" y="-408.5" font-family="Helvetica,sans-Serif" font-size="10.00">&#45; runTask()</text>
</a>
</g>
</g>
<!-- Node2&#45;&gt;Node1 -->
<g id="edge1" class="edge">
<title>Node2&#45;&gt;Node1</title>
<path fill="none" stroke="midnightblue" d="M231.28,-391.21C231.44,-324.04 231.64,-240.53 231.79,-178.57"/>
<polygon fill="none" stroke="midnightblue" points="227.78,-391.41 231.25,-401.42 234.78,-391.43 227.78,-391.41"/>
</g>
<!-- Node3 -->
<g id="node3" class="node">
<title>Node3</title>
<g id="a_node3"><a xlink:title="STL class.">
<polygon fill="none" stroke="#bfbfbf" points="197.5,-863 197.5,-920 262.5,-920 262.5,-863 197.5,-863"/>
<text text-anchor="middle" x="230" y="-908" font-family="Helvetica,sans-Serif" font-size="10.00">std::string</text>
<polyline fill="none" stroke="#bfbfbf" points="197.5,-901 262.5,-901 "/>
<text text-anchor="middle" x="230" y="-889" font-family="Helvetica,sans-Serif" font-size="10.00"> </text>
<polyline fill="none" stroke="#bfbfbf" points="197.5,-882 262.5,-882 "/>
<text text-anchor="middle" x="230" y="-870" font-family="Helvetica,sans-Serif" font-size="10.00"> </text>
</a>
</g>
</g>
<!-- Node3&#45;&gt;Node2 -->
<g id="edge2" class="edge">
<title>Node3&#45;&gt;Node2</title>
<path fill="none" stroke="#404040" d="M228.61,-862.94C227.98,-849.14 227.31,-832.19 227,-817 225.71,-753.53 226.46,-682.71 227.65,-624.9"/>
<polygon fill="none" stroke="#404040" points="227.65,-624.77 223.78,-618.68 227.91,-612.77 231.78,-618.86 227.65,-624.77"/>
<text text-anchor="middle" x="263.5" y="-803.5" font-family="Helvetica,sans-Serif" font-size="10.00"> &#45;m_taskName</text>
</g>
<!-- Node5 -->
<g id="node5" class="node">
<title>Node5</title>
<g id="a_node5"><a xlink:href="../../dd/d84/class_fault___handler.html" target="_top" xlink:title=" ">
<polygon fill="none" stroke="black" points="61,-631.5 61,-776.5 183,-776.5 183,-631.5 61,-631.5"/>
<text text-anchor="middle" x="122" y="-764.5" font-family="Helvetica,sans-Serif" font-size="10.00">Fault_Handler</text>
<polyline fill="none" stroke="black" points="61,-757.5 183,-757.5 "/>
<text text-anchor="middle" x="122" y="-745.5" font-family="Helvetica,sans-Serif" font-size="10.00"> </text>
<polyline fill="none" stroke="black" points="61,-738.5 183,-738.5 "/>
<text text-anchor="start" x="69" y="-726.5" font-family="Helvetica,sans-Serif" font-size="10.00">+ Fault_Handler()</text>
<text text-anchor="start" x="69" y="-715.5" font-family="Helvetica,sans-Serif" font-size="10.00">+ ~Fault_Handler()</text>
<text text-anchor="start" x="69" y="-704.5" font-family="Helvetica,sans-Serif" font-size="10.00">+ handleFault()</text>
<text text-anchor="start" x="69" y="-693.5" font-family="Helvetica,sans-Serif" font-size="10.00">+ resetFaultCounter()</text>
<text text-anchor="start" x="69" y="-682.5" font-family="Helvetica,sans-Serif" font-size="10.00">&#45; countUp()</text>
<text text-anchor="start" x="69" y="-671.5" font-family="Helvetica,sans-Serif" font-size="10.00">&#45; handle()</text>
<text text-anchor="start" x="69" y="-660.5" font-family="Helvetica,sans-Serif" font-size="10.00">&#45; toString()</text>
<text text-anchor="start" x="69" y="-649.5" font-family="Helvetica,sans-Serif" font-size="10.00">&#45; severity2string()</text>
<text text-anchor="start" x="69" y="-638.5" font-family="Helvetica,sans-Serif" font-size="10.00">&#45; check_value()</text>
</a>
</g>
</g>
<!-- Node3&#45;&gt;Node5 -->
<g id="edge5" class="edge">
<title>Node3&#45;&gt;Node5</title>
<path fill="none" stroke="#404040" d="M197.46,-863.5C183.68,-850.63 168.43,-834.28 158,-817 152.59,-808.04 147.91,-798.19 143.88,-788.15"/>
<polygon fill="none" stroke="#404040" points="143.82,-788.01 137.96,-783.8 139.59,-776.78 145.45,-780.98 143.82,-788.01"/>
<text text-anchor="middle" x="183" y="-803.5" font-family="Helvetica,sans-Serif" font-size="10.00"> &#45;m_name</text>
</g>
<!-- Node8 -->
<g id="node8" class="node">
<title>Node8</title>
<g id="a_node8"><a xlink:href="../../db/d7f/class_wi_fi_base.html" target="_top" xlink:title=" ">
<polygon fill="none" stroke="black" points="281.5,-659 281.5,-749 370.5,-749 370.5,-659 281.5,-659"/>
<text text-anchor="middle" x="326" y="-737" font-family="Helvetica,sans-Serif" font-size="10.00">WiFiBase</text>
<polyline fill="none" stroke="black" points="281.5,-730 370.5,-730 "/>
<text text-anchor="middle" x="326" y="-718" font-family="Helvetica,sans-Serif" font-size="10.00"> </text>
<polyline fill="none" stroke="black" points="281.5,-711 370.5,-711 "/>
<text text-anchor="start" x="289.5" y="-699" font-family="Helvetica,sans-Serif" font-size="10.00">+ WiFiBase()</text>
<text text-anchor="start" x="289.5" y="-688" font-family="Helvetica,sans-Serif" font-size="10.00">+ ~WiFiBase()</text>
<text text-anchor="start" x="289.5" y="-677" font-family="Helvetica,sans-Serif" font-size="10.00">&#45; WiFiBase()</text>
<text text-anchor="start" x="289.5" y="-666" font-family="Helvetica,sans-Serif" font-size="10.00">&#45; operator=()</text>
</a>
</g>
</g>
<!-- Node3&#45;&gt;Node8 -->
<g id="edge10" class="edge">
<title>Node3&#45;&gt;Node8</title>
<path fill="none" stroke="#404040" d="M262.54,-865.88C277.41,-852.93 293.92,-835.84 304,-817 313.13,-799.94 318.49,-779.61 321.64,-760.98"/>
<polygon fill="none" stroke="#404040" points="321.65,-760.9 318.57,-754.38 323.4,-749.03 326.48,-755.55 321.65,-760.9"/>
<text text-anchor="middle" x="336" y="-809" font-family="Helvetica,sans-Serif" font-size="10.00"> #m_ssid</text>
<text text-anchor="middle" x="336" y="-798" font-family="Helvetica,sans-Serif" font-size="10.00">#m_pwd</text>
</g>
<!-- Node4 -->
<g id="node4" class="node">
<title>Node4</title>
<g id="a_node4"><a xlink:title="STL class.">
<polygon fill="none" stroke="#bfbfbf" points="178,-985.5 178,-1053.5 282,-1053.5 282,-985.5 178,-985.5"/>
<text text-anchor="start" x="186" y="-1041.5" font-family="Helvetica,sans-Serif" font-size="10.00">std::basic_string&lt;</text>
<text text-anchor="middle" x="230" y="-1030.5" font-family="Helvetica,sans-Serif" font-size="10.00"> char &gt;</text>
<polyline fill="none" stroke="#bfbfbf" points="178,-1023.5 282,-1023.5 "/>
<text text-anchor="middle" x="230" y="-1011.5" font-family="Helvetica,sans-Serif" font-size="10.00"> </text>
<polyline fill="none" stroke="#bfbfbf" points="178,-1004.5 282,-1004.5 "/>
<text text-anchor="middle" x="230" y="-992.5" font-family="Helvetica,sans-Serif" font-size="10.00"> </text>
</a>
</g>
</g>
<!-- Node4&#45;&gt;Node3 -->
<g id="edge3" class="edge">
<title>Node4&#45;&gt;Node3</title>
<path fill="none" stroke="midnightblue" d="M230,-975.29C230,-957.08 230,-936.4 230,-920.27"/>
<polygon fill="none" stroke="midnightblue" points="226.5,-975.39 230,-985.39 233.5,-975.4 226.5,-975.39"/>
</g>
<!-- Node5&#45;&gt;Node1 -->
<g id="edge4" class="edge">
<title>Node5&#45;&gt;Node1</title>
<path fill="none" stroke="#404040" d="M114.48,-631.49C106.96,-536.41 102.02,-364.28 146,-226 149.91,-213.7 155.22,-201.42 161.3,-189.54"/>
<polygon fill="none" stroke="#404040" points="161.41,-189.34 160.72,-182.17 167.08,-178.77 167.77,-185.95 161.41,-189.34"/>
<text text-anchor="middle" x="187" y="-302" font-family="Helvetica,sans-Serif" font-size="10.00"> &#45;m_faulthandler</text>
</g>
<!-- Node6 -->
<g id="node6" class="node">
<title>Node6</title>
<g id="a_node6"><a xlink:href="../../dd/d84/class_fault___handler.html#da/dec/struct_fault___handler_1_1counters__t" target="_top" xlink:title=" ">
<polygon fill="none" stroke="black" points="0,-852 0,-931 140,-931 140,-852 0,-852"/>
<text text-anchor="middle" x="70" y="-919" font-family="Helvetica,sans-Serif" font-size="10.00">Fault_Handler::counters_t</text>
<polyline fill="none" stroke="black" points="0,-912 140,-912 "/>
<text text-anchor="start" x="8" y="-900" font-family="Helvetica,sans-Serif" font-size="10.00">+ low</text>
<text text-anchor="start" x="8" y="-889" font-family="Helvetica,sans-Serif" font-size="10.00">+ medium</text>
<text text-anchor="start" x="8" y="-878" font-family="Helvetica,sans-Serif" font-size="10.00">+ high</text>
<polyline fill="none" stroke="black" points="0,-871 140,-871 "/>
<text text-anchor="middle" x="70" y="-859" font-family="Helvetica,sans-Serif" font-size="10.00"> </text>
</a>
</g>
</g>
<!-- Node6&#45;&gt;Node5 -->
<g id="edge6" class="edge">
<title>Node6&#45;&gt;Node5</title>
<path fill="none" stroke="#404040" d="M66.05,-851.79C65.35,-834.19 66.09,-813.25 71,-795 71.62,-792.69 72.32,-790.38 73.08,-788.07"/>
<polygon fill="none" stroke="#404040" points="73.17,-787.83 71.51,-780.81 77.36,-776.59 79.01,-783.61 73.17,-787.83"/>
<text text-anchor="middle" x="103" y="-803.5" font-family="Helvetica,sans-Serif" font-size="10.00"> &#45;m_counters</text>
</g>
<!-- Node7 -->
<g id="node7" class="node">
<title>Node7</title>
<g id="a_node7"><a xlink:href="../../d5/db4/class_wi_fi___s_a_l__esp32.html" target="_top" xlink:title=" ">
<polygon fill="none" stroke="black" points="261.5,-226.5 261.5,-382.5 384.5,-382.5 384.5,-226.5 261.5,-226.5"/>
<text text-anchor="middle" x="323" y="-370.5" font-family="Helvetica,sans-Serif" font-size="10.00">WiFi_SAL_esp32</text>
<polyline fill="none" stroke="black" points="261.5,-363.5 384.5,-363.5 "/>
<text text-anchor="start" x="269.5" y="-351.5" font-family="Helvetica,sans-Serif" font-size="10.00">&#45; instance_any_id</text>
<text text-anchor="start" x="269.5" y="-340.5" font-family="Helvetica,sans-Serif" font-size="10.00">&#45; instance_got_ip</text>
<text text-anchor="start" x="269.5" y="-329.5" font-family="Helvetica,sans-Serif" font-size="10.00">&#45; m_cfg</text>
<polyline fill="none" stroke="black" points="261.5,-322.5 384.5,-322.5 "/>
<text text-anchor="start" x="269.5" y="-310.5" font-family="Helvetica,sans-Serif" font-size="10.00">+ WiFi_SAL_esp32()</text>
<text text-anchor="start" x="269.5" y="-299.5" font-family="Helvetica,sans-Serif" font-size="10.00">+ WiFi_SAL_esp32()</text>
<text text-anchor="start" x="269.5" y="-288.5" font-family="Helvetica,sans-Serif" font-size="10.00">+ ~WiFi_SAL_esp32()</text>
<text text-anchor="start" x="269.5" y="-277.5" font-family="Helvetica,sans-Serif" font-size="10.00">+ connect()</text>
<text text-anchor="start" x="269.5" y="-266.5" font-family="Helvetica,sans-Serif" font-size="10.00">+ disconnect()</text>
<text text-anchor="start" x="269.5" y="-255.5" font-family="Helvetica,sans-Serif" font-size="10.00">&#45; operator=()</text>
<text text-anchor="start" x="269.5" y="-244.5" font-family="Helvetica,sans-Serif" font-size="10.00">&#45; WiFi_SAL_esp32()</text>
<text text-anchor="start" x="269.5" y="-233.5" font-family="Helvetica,sans-Serif" font-size="10.00">&#45; event_handler()</text>
</a>
</g>
</g>
<!-- Node7&#45;&gt;Node1 -->
<g id="edge7" class="edge">
<title>Node7&#45;&gt;Node1</title>
<path fill="none" stroke="#404040" d="M290.02,-226.3C284.96,-214.45 279.67,-202.08 274.44,-189.83"/>
<polygon fill="none" stroke="#404040" points="274.37,-189.67 268.33,-185.72 269.65,-178.64 275.69,-182.58 274.37,-189.67"/>
<text text-anchor="middle" x="301" y="-200" font-family="Helvetica,sans-Serif" font-size="10.00"> &#45;m_wifi</text>
</g>
<!-- Node8&#45;&gt;Node7 -->
<g id="edge8" class="edge">
<title>Node8&#45;&gt;Node7</title>
<path fill="none" stroke="midnightblue" d="M325.59,-648.76C325.07,-580.02 324.17,-461.06 323.58,-382.82"/>
<polygon fill="none" stroke="midnightblue" points="322.09,-648.97 325.67,-658.94 329.09,-648.92 322.09,-648.97"/>
</g>
<!-- Node9 -->
<g id="node9" class="node">
<title>Node9</title>
<g id="a_node9"><a xlink:href="../../d0/d74/class_connector_base.html" target="_top" xlink:title=" ">
<polygon fill="none" stroke="black" points="328.5,-835.5 328.5,-947.5 445.5,-947.5 445.5,-835.5 328.5,-835.5"/>
<text text-anchor="middle" x="387" y="-935.5" font-family="Helvetica,sans-Serif" font-size="10.00">ConnectorBase</text>
<polyline fill="none" stroke="black" points="328.5,-928.5 445.5,-928.5 "/>
<text text-anchor="middle" x="387" y="-916.5" font-family="Helvetica,sans-Serif" font-size="10.00"> </text>
<polyline fill="none" stroke="black" points="328.5,-909.5 445.5,-909.5 "/>
<text text-anchor="start" x="336.5" y="-897.5" font-family="Helvetica,sans-Serif" font-size="10.00">+ ConnectorBase()</text>
<text text-anchor="start" x="336.5" y="-886.5" font-family="Helvetica,sans-Serif" font-size="10.00">+ ~ConnectorBase()</text>
<text text-anchor="start" x="336.5" y="-875.5" font-family="Helvetica,sans-Serif" font-size="10.00">+ connect()</text>
<text text-anchor="start" x="336.5" y="-864.5" font-family="Helvetica,sans-Serif" font-size="10.00">+ disconnect()</text>
<text text-anchor="start" x="336.5" y="-853.5" font-family="Helvetica,sans-Serif" font-size="10.00">&#45; ConnectorBase()</text>
<text text-anchor="start" x="336.5" y="-842.5" font-family="Helvetica,sans-Serif" font-size="10.00">&#45; operator=()</text>
</a>
</g>
</g>
<!-- Node9&#45;&gt;Node8 -->
<g id="edge9" class="edge">
<title>Node9&#45;&gt;Node8</title>
<path fill="none" stroke="midnightblue" d="M380.49,-825.61C378.6,-815.24 376.15,-804.72 373,-795 367.95,-779.41 360.36,-763.26 352.75,-749.03"/>
<polygon fill="none" stroke="midnightblue" points="377.04,-826.2 382.15,-835.48 383.95,-825.04 377.04,-826.2"/>
</g>
</g>
</svg>
        <g id="navigator" transform="translate(0 0)" fill="#404254">
                <rect fill="#f2f5e9" fill-opacity="0.5" stroke="#606060" stroke-width=".5" x="0" y="0" width="60" height="60"/>
                <use id="zoomplus" xlink:href="#zoomPlus" x="17" y="9" onmousedown="handleZoom(evt,'in')"/>
                <use id="zoomminus" xlink:href="#zoomMin" x="42" y="9" onmousedown="handleZoom(evt,'out')"/>
                <use id="reset" xlink:href="#resetDef" x="30" y="36" onmousedown="handleReset()"/>
                <g id="arrowUp" xlink:href="#dirArrow" transform="translate(30 24)" onmousedown="handlePan(0,-1)">
                  <use xlink:href="#rim" fill="#404040">
                        <set attributeName="fill" to="#808080" begin="arrowUp.mouseover" end="arrowUp.mouseout"/>
                  </use>
                  <path fill="none" stroke="white" stroke-width="1.5" d="M0,-3.0v7 M-2.5,-0.5L0,-3.0L2.5,-0.5"/>
                </g>
                <g id="arrowRight" xlink:href="#dirArrow" transform="rotate(90) translate(36 -43)" onmousedown="handlePan(1,0)">
                  <use xlink:href="#rim" fill="#404040">
                        <set attributeName="fill" to="#808080" begin="arrowRight.mouseover" end="arrowRight.mouseout"/>
                  </use>
                  <path fill="none" stroke="white" stroke-width="1.5" d="M0,-3.0v7 M-2.5,-0.5L0,-3.0L2.5,-0.5"/>
                </g>
                <g id="arrowDown" xlink:href="#dirArrow" transform="rotate(180) translate(-30 -48)" onmousedown="handlePan(0,1)">
                  <use xlink:href="#rim" fill="#404040">
                        <set attributeName="fill" to="#808080" begin="arrowDown.mouseover" end="arrowDown.mouseout"/>
                  </use>
                  <path fill="none" stroke="white" stroke-width="1.5" d="M0,-3.0v7 M-2.5,-0.5L0,-3.0L2.5,-0.5"/>
                </g>
                <g id="arrowLeft" xlink:href="#dirArrow" transform="rotate(270) translate(-36 17)" onmousedown="handlePan(-1,0)">
                  <use xlink:href="#rim" fill="#404040">
                        <set attributeName="fill" to="#808080" begin="arrowLeft.mouseover" end="arrowLeft.mouseout"/>
                  </use>
                  <path fill="none" stroke="white" stroke-width="1.5" d="M0,-3.0v7 M-2.5,-0.5L0,-3.0L2.5,-0.5"/>
                </g>
        </g>
        <svg viewBox="0 0 15 15" width="100%" height="30px" preserveAspectRatio="xMaxYMin meet">
         <g id="arrow_out" transform="scale(0.3 0.3)">
          <a xlink:href="class_maintainer__coll__graph_org.svg" target="_base">
           <rect id="button" ry="5" rx="5" y="6" x="6" height="38" width="38"
                fill="#f2f5e9" fill-opacity="0.5" stroke="#606060" stroke-width="1.0"/>
           <path id="arrow"
             d="M 11.500037,31.436501 C 11.940474,20.09759 22.043105,11.32322 32.158766,21.979434 L 37.068811,17.246167 C 37.068811,17.246167 37.088388,32 37.088388,32 L 22.160133,31.978069 C 22.160133,31.978069 26.997745,27.140456 26.997745,27.140456 C 18.528582,18.264221 13.291696,25.230495 11.500037,31.436501 z"
             style="fill:#404040;"/>
          </a>
         </g>
        </svg>
</svg>
