<?xml version="1.0" encoding="UTF-8" standalone="no"?>
<!DOCTYPE svg PUBLIC "-//W3C//DTD SVG 1.1//EN"
 "http://www.w3.org/Graphics/SVG/1.1/DTD/svg11.dtd">
<!-- Generated by graphviz version 2.43.0 (0)
 -->
<!-- Title: Maintainer Pages: 1 -->
<svg width="380pt" height="952pt"
 viewBox="0.00 0.00 379.50 952.00" xmlns="http://www.w3.org/2000/svg" xmlns:xlink="http://www.w3.org/1999/xlink">
<g id="graph0" class="graph" transform="scale(1 1) rotate(0) translate(4 948)">
<title>Maintainer</title>
<!-- Node1 -->
<g id="node1" class="node">
<title>Node1</title>
<g id="a_node1"><a xlink:title=" ">
<polygon fill="#bfbfbf" stroke="black" points="167,-0.5 167,-156.5 318,-156.5 318,-0.5 167,-0.5"/>
<text text-anchor="middle" x="242.5" y="-144.5" font-family="Helvetica,sans-Serif" font-size="10.00">Maintainer</text>
<polyline fill="none" stroke="black" points="167,-137.5 318,-137.5 "/>
<text text-anchor="start" x="175" y="-125.5" font-family="Helvetica,sans-Serif" font-size="10.00">&#45; start_time</text>
<text text-anchor="start" x="175" y="-114.5" font-family="Helvetica,sans-Serif" font-size="10.00">&#45; m_delay_sec</text>
<polyline fill="none" stroke="black" points="167,-107.5 318,-107.5 "/>
<text text-anchor="start" x="175" y="-95.5" font-family="Helvetica,sans-Serif" font-size="10.00">+ Maintainer()</text>
<text text-anchor="start" x="175" y="-84.5" font-family="Helvetica,sans-Serif" font-size="10.00">+ ~Maintainer()</text>
<text text-anchor="start" x="175" y="-73.5" font-family="Helvetica,sans-Serif" font-size="10.00">+ run()</text>
<text text-anchor="start" x="175" y="-62.5" font-family="Helvetica,sans-Serif" font-size="10.00">+ install_system_test</text>
<text text-anchor="start" x="175" y="-51.5" font-family="Helvetica,sans-Serif" font-size="10.00">_fuction()</text>
<text text-anchor="start" x="175" y="-40.5" font-family="Helvetica,sans-Serif" font-size="10.00">+ checkOTAUpdate()</text>
<text text-anchor="start" x="175" y="-29.5" font-family="Helvetica,sans-Serif" font-size="10.00">+ isOTAUpdateStarted()</text>
<text text-anchor="start" x="175" y="-18.5" font-family="Helvetica,sans-Serif" font-size="10.00">&#45; periodic_restart()</text>
<text text-anchor="start" x="175" y="-7.5" font-family="Helvetica,sans-Serif" font-size="10.00">&#45; check_system_functions()</text>
</a>
</g>
</g>
<!-- Node2 -->
<g id="node2" class="node">
<title>Node2</title>
<g id="a_node2"><a xlink:href="../../d7/d6d/class_task.html" target="_top" xlink:title="Encapsulate a runnable task.">
<polygon fill="none" stroke="black" points="183.5,-324.5 183.5,-535.5 281.5,-535.5 281.5,-324.5 183.5,-324.5"/>
<text text-anchor="middle" x="232.5" y="-523.5" font-family="Helvetica,sans-Serif" font-size="10.00">Task</text>
<polyline fill="none" stroke="black" points="183.5,-516.5 281.5,-516.5 "/>
<text text-anchor="start" x="191.5" y="-504.5" font-family="Helvetica,sans-Serif" font-size="10.00">&#45; m_handle</text>
<text text-anchor="start" x="191.5" y="-493.5" font-family="Helvetica,sans-Serif" font-size="10.00">&#45; m_stackSize</text>
<text text-anchor="start" x="191.5" y="-482.5" font-family="Helvetica,sans-Serif" font-size="10.00">&#45; m_priority</text>
<text text-anchor="start" x="191.5" y="-471.5" font-family="Helvetica,sans-Serif" font-size="10.00">&#45; m_taskData</text>
<text text-anchor="start" x="191.5" y="-460.5" font-family="Helvetica,sans-Serif" font-size="10.00">&#45; m_coreId</text>
<polyline fill="none" stroke="black" points="183.5,-453.5 281.5,-453.5 "/>
<text text-anchor="start" x="191.5" y="-441.5" font-family="Helvetica,sans-Serif" font-size="10.00">+ Task()</text>
<text text-anchor="start" x="191.5" y="-430.5" font-family="Helvetica,sans-Serif" font-size="10.00">+ ~Task()</text>
<text text-anchor="start" x="191.5" y="-419.5" font-family="Helvetica,sans-Serif" font-size="10.00">+ setStackSize()</text>
<text text-anchor="start" x="191.5" y="-408.5" font-family="Helvetica,sans-Serif" font-size="10.00">+ setPriority()</text>
<text text-anchor="start" x="191.5" y="-397.5" font-family="Helvetica,sans-Serif" font-size="10.00">+ setName()</text>
<text text-anchor="start" x="191.5" y="-386.5" font-family="Helvetica,sans-Serif" font-size="10.00">+ setCore()</text>
<text text-anchor="start" x="191.5" y="-375.5" font-family="Helvetica,sans-Serif" font-size="10.00">+ start()</text>
<text text-anchor="start" x="191.5" y="-364.5" font-family="Helvetica,sans-Serif" font-size="10.00">+ stop()</text>
<text text-anchor="start" x="191.5" y="-353.5" font-family="Helvetica,sans-Serif" font-size="10.00">+ run()</text>
<text text-anchor="start" x="191.5" y="-342.5" font-family="Helvetica,sans-Serif" font-size="10.00">+ delay()</text>
<text text-anchor="start" x="191.5" y="-331.5" font-family="Helvetica,sans-Serif" font-size="10.00">&#45; runTask()</text>
</a>
</g>
</g>
<!-- Node2&#45;&gt;Node1 -->
<g id="edge1" class="edge">
<title>Node2&#45;&gt;Node1</title>
<path fill="none" stroke="midnightblue" d="M235.79,-313.92C237.27,-262.25 238.98,-202.67 240.3,-156.51"/>
<polygon fill="none" stroke="midnightblue" points="232.29,-314.04 235.5,-324.14 239.28,-314.24 232.29,-314.04"/>
</g>
<!-- Node3 -->
<g id="node3" class="node">
<title>Node3</title>
<g id="a_node3"><a xlink:title="STL class.">
<polygon fill="none" stroke="#bfbfbf" points="198,-769.5 198,-826.5 263,-826.5 263,-769.5 198,-769.5"/>
<text text-anchor="middle" x="230.5" y="-814.5" font-family="Helvetica,sans-Serif" font-size="10.00">std::string</text>
<polyline fill="none" stroke="#bfbfbf" points="198,-807.5 263,-807.5 "/>
<text text-anchor="middle" x="230.5" y="-795.5" font-family="Helvetica,sans-Serif" font-size="10.00"> </text>
<polyline fill="none" stroke="#bfbfbf" points="198,-788.5 263,-788.5 "/>
<text text-anchor="middle" x="230.5" y="-776.5" font-family="Helvetica,sans-Serif" font-size="10.00"> </text>
</a>
</g>
</g>
<!-- Node3&#45;&gt;Node2 -->
<g id="edge2" class="edge">
<title>Node3&#45;&gt;Node2</title>
<path fill="none" stroke="#404040" d="M228.76,-769.47C228.24,-760.12 227.75,-749.61 227.5,-740 227.24,-730.23 227.41,-727.78 227.5,-718 227.99,-662.06 229.01,-600 230,-547.94"/>
<polygon fill="none" stroke="#404040" points="230.01,-547.62 226.12,-541.54 230.24,-535.62 234.12,-541.7 230.01,-547.62"/>
<text text-anchor="middle" x="264" y="-726.5" font-family="Helvetica,sans-Serif" font-size="10.00"> &#45;m_taskName</text>
</g>
<!-- Node5 -->
<g id="node5" class="node">
<title>Node5</title>
<g id="a_node5"><a xlink:href="../../dd/d84/class_fault___handler.html" target="_top" xlink:title=" ">
<polygon fill="none" stroke="black" points="71.5,-554.5 71.5,-699.5 193.5,-699.5 193.5,-554.5 71.5,-554.5"/>
<text text-anchor="middle" x="132.5" y="-687.5" font-family="Helvetica,sans-Serif" font-size="10.00">Fault_Handler</text>
<polyline fill="none" stroke="black" points="71.5,-680.5 193.5,-680.5 "/>
<text text-anchor="middle" x="132.5" y="-668.5" font-family="Helvetica,sans-Serif" font-size="10.00"> </text>
<polyline fill="none" stroke="black" points="71.5,-661.5 193.5,-661.5 "/>
<text text-anchor="start" x="79.5" y="-649.5" font-family="Helvetica,sans-Serif" font-size="10.00">+ Fault_Handler()</text>
<text text-anchor="start" x="79.5" y="-638.5" font-family="Helvetica,sans-Serif" font-size="10.00">+ ~Fault_Handler()</text>
<text text-anchor="start" x="79.5" y="-627.5" font-family="Helvetica,sans-Serif" font-size="10.00">+ handleFault()</text>
<text text-anchor="start" x="79.5" y="-616.5" font-family="Helvetica,sans-Serif" font-size="10.00">+ resetFaultCounter()</text>
<text text-anchor="start" x="79.5" y="-605.5" font-family="Helvetica,sans-Serif" font-size="10.00">&#45; countUp()</text>
<text text-anchor="start" x="79.5" y="-594.5" font-family="Helvetica,sans-Serif" font-size="10.00">&#45; handle()</text>
<text text-anchor="start" x="79.5" y="-583.5" font-family="Helvetica,sans-Serif" font-size="10.00">&#45; toString()</text>
<text text-anchor="start" x="79.5" y="-572.5" font-family="Helvetica,sans-Serif" font-size="10.00">&#45; severity2string()</text>
<text text-anchor="start" x="79.5" y="-561.5" font-family="Helvetica,sans-Serif" font-size="10.00">&#45; check_value()</text>
</a>
</g>
</g>
<!-- Node3&#45;&gt;Node5 -->
<g id="edge5" class="edge">
<title>Node3&#45;&gt;Node5</title>
<path fill="none" stroke="#404040" d="M197.96,-778.27C183.84,-768.56 168.31,-755.49 158.5,-740 152.91,-731.18 148.52,-721.29 145.07,-711.13"/>
<polygon fill="none" stroke="#404040" points="145.06,-711.07 139.49,-706.49 141.57,-699.59 147.14,-704.17 145.06,-711.07"/>
<text text-anchor="middle" x="183.5" y="-726.5" font-family="Helvetica,sans-Serif" font-size="10.00"> &#45;m_name</text>
</g>
<!-- Node8 -->
<g id="node8" class="node">
<title>Node8</title>
<g id="a_node8"><a xlink:href="../../de/d7c/_wi_fi___a_p_i_8hpp.html#db/d38/structwifi__conf__t" target="_top" xlink:title=" ">
<polygon fill="none" stroke="black" points="290.5,-598.5 290.5,-655.5 360.5,-655.5 360.5,-598.5 290.5,-598.5"/>
<text text-anchor="middle" x="325.5" y="-643.5" font-family="Helvetica,sans-Serif" font-size="10.00">wifi_conf_t</text>
<polyline fill="none" stroke="black" points="290.5,-636.5 360.5,-636.5 "/>
<text text-anchor="middle" x="325.5" y="-624.5" font-family="Helvetica,sans-Serif" font-size="10.00"> </text>
<polyline fill="none" stroke="black" points="290.5,-617.5 360.5,-617.5 "/>
<text text-anchor="middle" x="325.5" y="-605.5" font-family="Helvetica,sans-Serif" font-size="10.00"> </text>
</a>
</g>
</g>
<!-- Node3&#45;&gt;Node8 -->
<g id="edge9" class="edge">
<title>Node3&#45;&gt;Node8</title>
<path fill="none" stroke="#404040" d="M263.11,-779.39C278,-769.7 294.5,-756.31 304.5,-740 317.7,-718.47 322.96,-690.56 324.91,-667.99"/>
<polygon fill="none" stroke="#404040" points="324.93,-667.72 321.32,-661.47 325.7,-655.74 329.3,-661.99 324.93,-667.72"/>
<text text-anchor="middle" x="342.5" y="-732" font-family="Helvetica,sans-Serif" font-size="10.00"> +password</text>
<text text-anchor="middle" x="342.5" y="-721" font-family="Helvetica,sans-Serif" font-size="10.00">+ssid</text>
</g>
<!-- Node4 -->
<g id="node4" class="node">
<title>Node4</title>
<g id="a_node4"><a xlink:title="STL class.">
<polygon fill="none" stroke="#bfbfbf" points="178.5,-875.5 178.5,-943.5 282.5,-943.5 282.5,-875.5 178.5,-875.5"/>
<text text-anchor="start" x="186.5" y="-931.5" font-family="Helvetica,sans-Serif" font-size="10.00">std::basic_string&lt;</text>
<text text-anchor="middle" x="230.5" y="-920.5" font-family="Helvetica,sans-Serif" font-size="10.00"> char &gt;</text>
<polyline fill="none" stroke="#bfbfbf" points="178.5,-913.5 282.5,-913.5 "/>
<text text-anchor="middle" x="230.5" y="-901.5" font-family="Helvetica,sans-Serif" font-size="10.00"> </text>
<polyline fill="none" stroke="#bfbfbf" points="178.5,-894.5 282.5,-894.5 "/>
<text text-anchor="middle" x="230.5" y="-882.5" font-family="Helvetica,sans-Serif" font-size="10.00"> </text>
</a>
</g>
</g>
<!-- Node4&#45;&gt;Node3 -->
<g id="edge3" class="edge">
<title>Node4&#45;&gt;Node3</title>
<path fill="none" stroke="midnightblue" d="M230.5,-865.16C230.5,-852.13 230.5,-838.21 230.5,-826.51"/>
<polygon fill="none" stroke="midnightblue" points="227,-865.35 230.5,-875.35 234,-865.35 227,-865.35"/>
</g>
<!-- Node5&#45;&gt;Node1 -->
<g id="edge4" class="edge">
<title>Node5&#45;&gt;Node1</title>
<path fill="none" stroke="#404040" d="M122.78,-554.14C113.97,-468.15 107.95,-321.13 149.5,-204 154,-191.32 160.28,-178.85 167.47,-166.99"/>
<polygon fill="none" stroke="#404040" points="167.55,-166.86 167.41,-159.65 174,-156.74 174.15,-163.95 167.55,-166.86"/>
<text text-anchor="middle" x="190.5" y="-252.5" font-family="Helvetica,sans-Serif" font-size="10.00"> &#45;m_faulthandler</text>
</g>
<!-- Node6 -->
<g id="node6" class="node">
<title>Node6</title>
<g id="a_node6"><a xlink:href="../../dd/d84/class_fault___handler.html#da/dec/struct_fault___handler_1_1counters__t" target="_top" xlink:title=" ">
<polygon fill="none" stroke="black" points="0,-758.5 0,-837.5 141,-837.5 141,-758.5 0,-758.5"/>
<text text-anchor="middle" x="70.5" y="-825.5" font-family="Helvetica,sans-Serif" font-size="10.00">Fault_Handler::counters_t</text>
<polyline fill="none" stroke="black" points="0,-818.5 141,-818.5 "/>
<text text-anchor="start" x="8" y="-806.5" font-family="Helvetica,sans-Serif" font-size="10.00">+ low</text>
<text text-anchor="start" x="8" y="-795.5" font-family="Helvetica,sans-Serif" font-size="10.00">+ medium</text>
<text text-anchor="start" x="8" y="-784.5" font-family="Helvetica,sans-Serif" font-size="10.00">+ high</text>
<polyline fill="none" stroke="black" points="0,-777.5 141,-777.5 "/>
<text text-anchor="middle" x="70.5" y="-765.5" font-family="Helvetica,sans-Serif" font-size="10.00"> </text>
</a>
</g>
</g>
<!-- Node6&#45;&gt;Node5 -->
<g id="edge6" class="edge">
<title>Node6&#45;&gt;Node5</title>
<path fill="none" stroke="#404040" d="M66.57,-758.12C66.41,-745.11 67.52,-730.69 71.5,-718 72.26,-715.57 73.11,-713.15 74.04,-710.74"/>
<polygon fill="none" stroke="#404040" points="74.11,-710.58 72.84,-703.48 78.91,-699.58 80.17,-706.68 74.11,-710.58"/>
<text text-anchor="middle" x="103.5" y="-726.5" font-family="Helvetica,sans-Serif" font-size="10.00"> &#45;m_counters</text>
</g>
<!-- Node7 -->
<g id="node7" class="node">
<title>Node7</title>
<g id="a_node7"><a xlink:href="../../d0/de8/class_wi_fi___a_p_i.html" target="_top" xlink:title=" ">
<polygon fill="none" stroke="black" points="273.5,-204.5 273.5,-305.5 361.5,-305.5 361.5,-204.5 273.5,-204.5"/>
<text text-anchor="middle" x="317.5" y="-293.5" font-family="Helvetica,sans-Serif" font-size="10.00">WiFi_API</text>
<polyline fill="none" stroke="black" points="273.5,-286.5 361.5,-286.5 "/>
<text text-anchor="middle" x="317.5" y="-274.5" font-family="Helvetica,sans-Serif" font-size="10.00"> </text>
<polyline fill="none" stroke="black" points="273.5,-267.5 361.5,-267.5 "/>
<text text-anchor="start" x="281.5" y="-255.5" font-family="Helvetica,sans-Serif" font-size="10.00">+ WiFi_API()</text>
<text text-anchor="start" x="281.5" y="-244.5" font-family="Helvetica,sans-Serif" font-size="10.00">+ WiFi_API()</text>
<text text-anchor="start" x="281.5" y="-233.5" font-family="Helvetica,sans-Serif" font-size="10.00">+ ~WiFi_API()</text>
<text text-anchor="start" x="281.5" y="-222.5" font-family="Helvetica,sans-Serif" font-size="10.00">+ connect()</text>
<text text-anchor="start" x="281.5" y="-211.5" font-family="Helvetica,sans-Serif" font-size="10.00">+ disconnect()</text>
</a>
</g>
</g>
<!-- Node7&#45;&gt;Node1 -->
<g id="edge7" class="edge">
<title>Node7&#45;&gt;Node1</title>
<path fill="none" stroke="#404040" d="M296.21,-204.46C291.25,-192.93 285.83,-180.31 280.39,-167.66"/>
<polygon fill="none" stroke="#404040" points="280.36,-167.59 274.32,-163.65 275.62,-156.56 281.67,-160.49 280.36,-167.59"/>
<text text-anchor="middle" x="306.5" y="-178" font-family="Helvetica,sans-Serif" font-size="10.00"> &#45;m_wifi</text>
</g>
<!-- Node8&#45;&gt;Node7 -->
<g id="edge8" class="edge">
<title>Node8&#45;&gt;Node7</title>
<path fill="none" stroke="#404040" d="M324.91,-598.49C323.63,-539.47 320.6,-399.44 318.84,-317.88"/>
<polygon fill="none" stroke="#404040" points="318.84,-317.8 314.71,-311.89 318.58,-305.8 322.71,-311.71 318.84,-317.8"/>
<text text-anchor="middle" x="344" y="-427.5" font-family="Helvetica,sans-Serif" font-size="10.00"> &#45;m_conf</text>
</g>
</g>
</svg>
