<?xml version="1.0" encoding="UTF-8" standalone="no"?>
<!DOCTYPE svg PUBLIC "-//W3C//DTD SVG 1.1//EN"
 "http://www.w3.org/Graphics/SVG/1.1/DTD/svg11.dtd">
<!-- Generated by graphviz version 2.43.0 (0)
 -->
<!-- Title: Components/Objects/OTA/include/OTA.hpp Pages: 1 -->
<!--zoomable 451 -->
<svg id="main" version="1.1" xmlns="http://www.w3.org/2000/svg" xmlns:xlink="http://www.w3.org/1999/xlink" xml:space="preserve" onload="init(evt)">
<style type="text/css"><![CDATA[
.edge:hover path { stroke: red; }
.edge:hover polygon { stroke: red; fill: red; }
]]></style>
<script type="text/javascript"><![CDATA[
var edges = document.getElementsByTagName('g');
if (edges && edges.length) {
  for (var i=0;i<edges.length;i++) {
    if (edges[i].id.substr(0,4)=='edge') {
      edges[i].setAttribute('class','edge');
    }
  }
}
]]></script>
        <defs>
                <circle id="rim" cx="0" cy="0" r="7"/>
                <circle id="rim2" cx="0" cy="0" r="3.5"/>
                <g id="zoomPlus">
                        <use xlink:href="#rim" fill="#404040">
                                <set attributeName="fill" to="#808080" begin="zoomplus.mouseover" end="zoomplus.mouseout"/>
                        </use>
                        <path d="M-4,0h8M0,-4v8" fill="none" stroke="white" stroke-width="1.5" pointer-events="none"/>
                </g>
                <g id="zoomMin">
                        <use xlink:href="#rim" fill="#404040">
                                <set attributeName="fill" to="#808080" begin="zoomminus.mouseover" end="zoomminus.mouseout"/>
                        </use>
                        <path d="M-4,0h8" fill="none" stroke="white" stroke-width="1.5" pointer-events="none"/>
                </g>
                <g id="dirArrow">
                        <path fill="none" stroke="white" stroke-width="1.5" d="M0,-3.0v7 M-2.5,-0.5L0,-3.0L2.5,-0.5"/>
                </g>
               <g id="resetDef">
                       <use xlink:href="#rim2" fill="#404040">
                               <set attributeName="fill" to="#808080" begin="reset.mouseover" end="reset.mouseout"/>
                       </use>
               </g>
        </defs>

<script type="text/javascript">
var viewWidth = 1911;
var viewHeight = 451;
var sectionId = 'dynsection-1';
</script>
<script xlink:href="../../svgpan.js"/>
<svg id="graph" class="graph">
<g id="viewport">
<title>Components/Objects/OTA/include/OTA.hpp</title>
<!-- Node1 -->
<g id="node1" class="node">
<title>Node1</title>
<g id="a_node1"><a xlink:title=" ">
<polygon fill="#bfbfbf" stroke="black" points="746.5,-412.5 746.5,-442.5 867.5,-442.5 867.5,-412.5 746.5,-412.5"/>
<text text-anchor="start" x="754.5" y="-430.5" font-family="Helvetica,sans-Serif" font-size="10.00">Components/Objects</text>
<text text-anchor="middle" x="807" y="-419.5" font-family="Helvetica,sans-Serif" font-size="10.00">/OTA/include/OTA.hpp</text>
</a>
</g>
</g>
<!-- Node2 -->
<g id="node2" class="node">
<title>Node2</title>
<g id="a_node2"><a xlink:href="../../d4/d63/mqtt__api__v2_8hpp.html" target="_top" xlink:title=" ">
<polygon fill="none" stroke="black" points="668.5,-334.5 668.5,-375.5 801.5,-375.5 801.5,-334.5 668.5,-334.5"/>
<text text-anchor="start" x="676.5" y="-363.5" font-family="Helvetica,sans-Serif" font-size="10.00">Components/Protocols</text>
<text text-anchor="start" x="676.5" y="-352.5" font-family="Helvetica,sans-Serif" font-size="10.00">/MQTT/include/mqtt_api</text>
<text text-anchor="middle" x="735" y="-341.5" font-family="Helvetica,sans-Serif" font-size="10.00">_v2.hpp</text>
</a>
</g>
</g>
<!-- Node1&#45;&gt;Node2 -->
<g id="edge1" class="edge">
<title>Node1&#45;&gt;Node2</title>
<path fill="none" stroke="midnightblue" d="M785.15,-405.1C775.56,-395.71 764.37,-384.76 755.01,-375.59"/>
<polygon fill="midnightblue" stroke="midnightblue" points="782.84,-407.74 792.43,-412.23 787.73,-402.74 782.84,-407.74"/>
</g>
<!-- Node24 -->
<g id="node24" class="node">
<title>Node24</title>
<g id="a_node24"><a xlink:href="../../d0/d6a/_maintainer_8hpp.html" target="_top" xlink:title=" ">
<polygon fill="none" stroke="black" points="220,-178.5 220,-219.5 338,-219.5 338,-178.5 220,-178.5"/>
<text text-anchor="start" x="228" y="-207.5" font-family="Helvetica,sans-Serif" font-size="10.00">Components/Objects</text>
<text text-anchor="start" x="228" y="-196.5" font-family="Helvetica,sans-Serif" font-size="10.00">/Maintainer/include</text>
<text text-anchor="middle" x="279" y="-185.5" font-family="Helvetica,sans-Serif" font-size="10.00">/Maintainer.hpp</text>
</a>
</g>
</g>
<!-- Node1&#45;&gt;Node24 -->
<g id="edge39" class="edge">
<title>Node1&#45;&gt;Node24</title>
<path fill="none" stroke="midnightblue" d="M736.07,-416.73C613.97,-398.56 371.26,-356.07 310,-298 288.37,-277.5 281.77,-242.04 279.79,-219.86"/>
<polygon fill="midnightblue" stroke="midnightblue" points="735.67,-420.21 746.08,-418.21 736.7,-413.28 735.67,-420.21"/>
</g>
<!-- Node33 -->
<g id="node33" class="node">
<title>Node33</title>
<g id="a_node33"><a xlink:href="../../d9/d42/_o_t_a_8cpp.html" target="_top" xlink:title=" ">
<polygon fill="none" stroke="black" points="820,-340 820,-370 938,-370 938,-340 820,-340"/>
<text text-anchor="start" x="828" y="-358" font-family="Helvetica,sans-Serif" font-size="10.00">Components/Objects</text>
<text text-anchor="middle" x="879" y="-347" font-family="Helvetica,sans-Serif" font-size="10.00">/OTA/src/OTA.cpp</text>
</a>
</g>
</g>
<!-- Node1&#45;&gt;Node33 -->
<g id="edge40" class="edge">
<title>Node1&#45;&gt;Node33</title>
<path fill="none" stroke="midnightblue" d="M828.77,-405.19C840.32,-393.87 854.21,-380.27 864.45,-370.25"/>
<polygon fill="midnightblue" stroke="midnightblue" points="826.27,-402.74 821.57,-412.23 831.16,-407.74 826.27,-402.74"/>
</g>
<!-- Node34 -->
<g id="node34" class="node">
<title>Node34</title>
<g id="a_node34"><a xlink:href="../../d8/d80/_o_t_a__test_8cpp.html" target="_top" xlink:title=" ">
<polygon fill="none" stroke="black" points="956.5,-340 956.5,-370 1105.5,-370 1105.5,-340 956.5,-340"/>
<text text-anchor="start" x="964.5" y="-358" font-family="Helvetica,sans-Serif" font-size="10.00">Components/Objects</text>
<text text-anchor="middle" x="1031" y="-347" font-family="Helvetica,sans-Serif" font-size="10.00">/OTA/test/test/OTA_test.cpp</text>
</a>
</g>
</g>
<!-- Node1&#45;&gt;Node34 -->
<g id="edge41" class="edge">
<title>Node1&#45;&gt;Node34</title>
<path fill="none" stroke="midnightblue" d="M861.46,-409.36C899.71,-397.32 950.26,-381.41 986.18,-370.11"/>
<polygon fill="midnightblue" stroke="midnightblue" points="860.01,-406.15 851.52,-412.49 862.11,-412.82 860.01,-406.15"/>
</g>
<!-- Node3 -->
<g id="node3" class="node">
<title>Node3</title>
<g id="a_node3"><a xlink:href="../../d3/d0d/_error_code_parser_8hpp.html" target="_top" xlink:title=" ">
<polygon fill="none" stroke="black" points="367.5,-256.5 367.5,-297.5 486.5,-297.5 486.5,-256.5 367.5,-256.5"/>
<text text-anchor="start" x="375.5" y="-285.5" font-family="Helvetica,sans-Serif" font-size="10.00">Components/Objects</text>
<text text-anchor="start" x="375.5" y="-274.5" font-family="Helvetica,sans-Serif" font-size="10.00">/ErrorHandler/include</text>
<text text-anchor="middle" x="427" y="-263.5" font-family="Helvetica,sans-Serif" font-size="10.00">/ErrorCodeParser.hpp</text>
</a>
</g>
</g>
<!-- Node2&#45;&gt;Node3 -->
<g id="edge2" class="edge">
<title>Node2&#45;&gt;Node3</title>
<path fill="none" stroke="midnightblue" d="M658.51,-337.14C611.48,-326.51 550.08,-312.16 496,-298 492.98,-297.21 489.9,-296.38 486.79,-295.54"/>
<polygon fill="midnightblue" stroke="midnightblue" points="657.8,-340.57 668.32,-339.35 659.33,-333.74 657.8,-340.57"/>
</g>
<!-- Node4 -->
<g id="node4" class="node">
<title>Node4</title>
<g id="a_node4"><a xlink:href="../../d9/d1c/_sensor_controller_base_8hpp.html" target="_top" xlink:title=" ">
<polygon fill="none" stroke="black" points="823,-178.5 823,-219.5 1007,-219.5 1007,-178.5 823,-178.5"/>
<text text-anchor="start" x="831" y="-207.5" font-family="Helvetica,sans-Serif" font-size="10.00">Components/Interfaces</text>
<text text-anchor="start" x="831" y="-196.5" font-family="Helvetica,sans-Serif" font-size="10.00">/SensorControllerBase</text>
<text text-anchor="middle" x="915" y="-185.5" font-family="Helvetica,sans-Serif" font-size="10.00">/include/SensorControllerBase.hpp</text>
</a>
</g>
</g>
<!-- Node2&#45;&gt;Node4 -->
<g id="edge31" class="edge">
<title>Node2&#45;&gt;Node4</title>
<path fill="none" stroke="midnightblue" d="M790.78,-329.87C807.56,-321.18 825.38,-310.41 840,-298 866.95,-275.12 890.32,-241.03 903.52,-219.67"/>
<polygon fill="midnightblue" stroke="midnightblue" points="788.96,-326.87 781.59,-334.48 792.1,-333.12 788.96,-326.87"/>
</g>
<!-- Node15 -->
<g id="node15" class="node">
<title>Node15</title>
<g id="a_node15"><a xlink:href="../../d2/dc5/_service_base_8hpp.html" target="_top" xlink:title=" ">
<polygon fill="none" stroke="black" points="1110,-178.5 1110,-219.5 1240,-219.5 1240,-178.5 1110,-178.5"/>
<text text-anchor="start" x="1118" y="-207.5" font-family="Helvetica,sans-Serif" font-size="10.00">Components/Interfaces</text>
<text text-anchor="start" x="1118" y="-196.5" font-family="Helvetica,sans-Serif" font-size="10.00">/ServiceBase/include</text>
<text text-anchor="middle" x="1175" y="-185.5" font-family="Helvetica,sans-Serif" font-size="10.00">/ServiceBase.hpp</text>
</a>
</g>
</g>
<!-- Node2&#45;&gt;Node15 -->
<g id="edge32" class="edge">
<title>Node2&#45;&gt;Node15</title>
<path fill="none" stroke="midnightblue" d="M800.42,-331.1C886.86,-300.85 1037.62,-248.08 1119.03,-219.59"/>
<polygon fill="midnightblue" stroke="midnightblue" points="799.01,-327.89 790.73,-334.5 801.32,-334.5 799.01,-327.89"/>
</g>
<!-- Node2&#45;&gt;Node24 -->
<g id="edge35" class="edge">
<title>Node2&#45;&gt;Node24</title>
<path fill="none" stroke="midnightblue" d="M658.18,-349.18C563.15,-342.09 407.8,-326.51 358,-298 325.95,-279.65 301.79,-242.82 289.06,-219.91"/>
<polygon fill="midnightblue" stroke="midnightblue" points="658.09,-352.68 668.32,-349.92 658.6,-345.7 658.09,-352.68"/>
</g>
<!-- Node27 -->
<g id="node27" class="node">
<title>Node27</title>
<g id="a_node27"><a xlink:href="../../dd/d82/_active_current_sensor_8hpp.html" target="_top" xlink:title=" ">
<polygon fill="none" stroke="black" points="318,-95 318,-136 466,-136 466,-95 318,-95"/>
<text text-anchor="start" x="326" y="-124" font-family="Helvetica,sans-Serif" font-size="10.00">Components/Sensor/Active</text>
<text text-anchor="start" x="326" y="-113" font-family="Helvetica,sans-Serif" font-size="10.00">CurrentSensor/include</text>
<text text-anchor="middle" x="392" y="-102" font-family="Helvetica,sans-Serif" font-size="10.00">/ActiveCurrentSensor.hpp</text>
</a>
</g>
</g>
<!-- Node2&#45;&gt;Node27 -->
<g id="edge38" class="edge">
<title>Node2&#45;&gt;Node27</title>
<path fill="none" stroke="midnightblue" d="M780.74,-328.45C791.29,-320.2 801.12,-310.02 807,-298 815.2,-281.23 816.25,-272.21 807,-256 729.68,-120.5 626.61,-178.79 475,-142 467.68,-140.22 460.05,-138.17 452.51,-136.01"/>
<polygon fill="midnightblue" stroke="midnightblue" points="778.62,-325.67 772.59,-334.38 782.74,-331.33 778.62,-325.67"/>
</g>
<!-- Node29 -->
<g id="node29" class="node">
<title>Node29</title>
<g id="a_node29"><a xlink:href="../../d7/d44/hal__mqtt__log_8hpp.html" target="_top" xlink:title=" ">
<polygon fill="none" stroke="black" points="1180,-256.5 1180,-297.5 1298,-297.5 1298,-256.5 1180,-256.5"/>
<text text-anchor="start" x="1188" y="-285.5" font-family="Helvetica,sans-Serif" font-size="10.00">Components/Objects</text>
<text text-anchor="start" x="1188" y="-274.5" font-family="Helvetica,sans-Serif" font-size="10.00">/Logger/include/hal</text>
<text text-anchor="middle" x="1239" y="-263.5" font-family="Helvetica,sans-Serif" font-size="10.00">_mqtt_log.hpp</text>
</a>
</g>
</g>
<!-- Node2&#45;&gt;Node29 -->
<g id="edge33" class="edge">
<title>Node2&#45;&gt;Node29</title>
<path fill="none" stroke="midnightblue" d="M811.66,-334.14C873.11,-323.7 1077.16,-298.07 1179.6,-285.35"/>
<polygon fill="midnightblue" stroke="midnightblue" points="810.83,-330.73 801.62,-335.96 812.08,-337.62 810.83,-330.73"/>
</g>
<!-- Node31 -->
<g id="node31" class="node">
<title>Node31</title>
<g id="a_node31"><a xlink:href="../../d3/dc1/mqtt__api__v2_8cpp.html" target="_top" xlink:title=" ">
<polygon fill="none" stroke="black" points="504.5,-262 504.5,-292 653.5,-292 653.5,-262 504.5,-262"/>
<text text-anchor="start" x="512.5" y="-280" font-family="Helvetica,sans-Serif" font-size="10.00">Components/Protocols</text>
<text text-anchor="middle" x="579" y="-269" font-family="Helvetica,sans-Serif" font-size="10.00">/MQTT/src/mqtt_api_v2.cpp</text>
</a>
</g>
</g>
<!-- Node2&#45;&gt;Node31 -->
<g id="edge36" class="edge">
<title>Node2&#45;&gt;Node31</title>
<path fill="none" stroke="midnightblue" d="M685.68,-329.97C660.19,-317.55 629.96,-302.83 608.2,-292.23"/>
<polygon fill="midnightblue" stroke="midnightblue" points="684.3,-333.19 694.83,-334.43 687.37,-326.9 684.3,-333.19"/>
</g>
<!-- Node32 -->
<g id="node32" class="node">
<title>Node32</title>
<g id="a_node32"><a xlink:href="../../df/df3/mqtt__v2__test_8cpp.html" target="_top" xlink:title=" ">
<polygon fill="none" stroke="black" points="672,-256.5 672,-297.5 798,-297.5 798,-256.5 672,-256.5"/>
<text text-anchor="start" x="680" y="-285.5" font-family="Helvetica,sans-Serif" font-size="10.00">Components/Protocols</text>
<text text-anchor="start" x="680" y="-274.5" font-family="Helvetica,sans-Serif" font-size="10.00">/MQTT/test/test/mqtt</text>
<text text-anchor="middle" x="735" y="-263.5" font-family="Helvetica,sans-Serif" font-size="10.00">_v2_test.cpp</text>
</a>
</g>
</g>
<!-- Node2&#45;&gt;Node32 -->
<g id="edge37" class="edge">
<title>Node2&#45;&gt;Node32</title>
<path fill="none" stroke="midnightblue" d="M735,-324.3C735,-315.3 735,-305.65 735,-297.51"/>
<polygon fill="midnightblue" stroke="midnightblue" points="731.5,-324.43 735,-334.43 738.5,-324.43 731.5,-324.43"/>
</g>
<!-- Node3&#45;&gt;Node4 -->
<g id="edge3" class="edge">
<title>Node3&#45;&gt;Node4</title>
<path fill="none" stroke="midnightblue" d="M496.62,-256.03C614.4,-231.72 739.77,-216.74 822.78,-208.33"/>
<polygon fill="midnightblue" stroke="midnightblue" points="495.77,-252.63 486.7,-258.1 497.21,-259.48 495.77,-252.63"/>
</g>
<!-- Node3&#45;&gt;Node15 -->
<g id="edge16" class="edge">
<title>Node3&#45;&gt;Node15</title>
<path fill="none" stroke="midnightblue" d="M496.64,-256.11C725.87,-216.28 788.69,-242.15 1016,-220 1046.87,-216.99 1081.02,-212.81 1109.72,-209.05"/>
<polygon fill="midnightblue" stroke="midnightblue" points="495.9,-252.68 486.66,-257.87 497.11,-259.58 495.9,-252.68"/>
</g>
<!-- Node22 -->
<g id="node22" class="node">
<title>Node22</title>
<g id="a_node22"><a xlink:href="../../d2/df5/_error_code_parser_8cpp.html" target="_top" xlink:title=" ">
<polygon fill="none" stroke="black" points="356.5,-178.5 356.5,-219.5 505.5,-219.5 505.5,-178.5 356.5,-178.5"/>
<text text-anchor="start" x="364.5" y="-207.5" font-family="Helvetica,sans-Serif" font-size="10.00">Components/Objects</text>
<text text-anchor="start" x="364.5" y="-196.5" font-family="Helvetica,sans-Serif" font-size="10.00">/ErrorHandler/src/ErrorCode</text>
<text text-anchor="middle" x="431" y="-185.5" font-family="Helvetica,sans-Serif" font-size="10.00">Parser.cpp</text>
</a>
</g>
</g>
<!-- Node3&#45;&gt;Node22 -->
<g id="edge24" class="edge">
<title>Node3&#45;&gt;Node22</title>
<path fill="none" stroke="midnightblue" d="M428.56,-246.3C429.04,-237.3 429.54,-227.65 429.97,-219.51"/>
<polygon fill="midnightblue" stroke="midnightblue" points="425.06,-246.26 428.03,-256.43 432.05,-246.63 425.06,-246.26"/>
</g>
<!-- Node23 -->
<g id="node23" class="node">
<title>Node23</title>
<g id="a_node23"><a xlink:href="../../d9/db8/_error_code_parser__test_8cpp.html" target="_top" xlink:title=" ">
<polygon fill="none" stroke="black" points="524,-178.5 524,-219.5 666,-219.5 666,-178.5 524,-178.5"/>
<text text-anchor="start" x="532" y="-207.5" font-family="Helvetica,sans-Serif" font-size="10.00">Components/Objects</text>
<text text-anchor="start" x="532" y="-196.5" font-family="Helvetica,sans-Serif" font-size="10.00">/ErrorHandler/test/test</text>
<text text-anchor="middle" x="595" y="-185.5" font-family="Helvetica,sans-Serif" font-size="10.00">/ErrorCodeParser_test.cpp</text>
</a>
</g>
</g>
<!-- Node3&#45;&gt;Node23 -->
<g id="edge25" class="edge">
<title>Node3&#45;&gt;Node23</title>
<path fill="none" stroke="midnightblue" d="M479.63,-252.19C502.88,-241.67 529.86,-229.47 551.88,-219.51"/>
<polygon fill="midnightblue" stroke="midnightblue" points="477.93,-249.12 470.26,-256.43 480.82,-255.5 477.93,-249.12"/>
</g>
<!-- Node3&#45;&gt;Node24 -->
<g id="edge26" class="edge">
<title>Node3&#45;&gt;Node24</title>
<path fill="none" stroke="midnightblue" d="M379.81,-251.77C359.52,-241.35 336.13,-229.34 316.98,-219.51"/>
<polygon fill="midnightblue" stroke="midnightblue" points="378.39,-254.97 388.89,-256.43 381.59,-248.75 378.39,-254.97"/>
</g>
<!-- Node5 -->
<g id="node5" class="node">
<title>Node5</title>
<g id="a_node5"><a xlink:href="../../db/d12/_distance_sensor_controller_8hpp.html" target="_top" xlink:title=" ">
<polygon fill="none" stroke="black" points="896,-95 896,-136 1098,-136 1098,-95 896,-95"/>
<text text-anchor="start" x="904" y="-124" font-family="Helvetica,sans-Serif" font-size="10.00">Components/Controller</text>
<text text-anchor="start" x="904" y="-113" font-family="Helvetica,sans-Serif" font-size="10.00">/DistanceSensorController</text>
<text text-anchor="middle" x="997" y="-102" font-family="Helvetica,sans-Serif" font-size="10.00">/include/DistanceSensorController.hpp</text>
</a>
</g>
</g>
<!-- Node4&#45;&gt;Node5 -->
<g id="edge4" class="edge">
<title>Node4&#45;&gt;Node5</title>
<path fill="none" stroke="midnightblue" d="M942.13,-171.04C953.63,-159.6 966.79,-146.53 977.33,-136.05"/>
<polygon fill="midnightblue" stroke="midnightblue" points="939.48,-168.74 934.85,-178.27 944.41,-173.7 939.48,-168.74"/>
</g>
<!-- Node9 -->
<g id="node9" class="node">
<title>Node9</title>
<g id="a_node9"><a xlink:href="../../d2/d8d/_sensor_controller_base_8cpp.html" target="_top" xlink:title=" ">
<polygon fill="none" stroke="black" points="484,-95 484,-136 646,-136 646,-95 484,-95"/>
<text text-anchor="start" x="492" y="-124" font-family="Helvetica,sans-Serif" font-size="10.00">Components/Interfaces</text>
<text text-anchor="start" x="492" y="-113" font-family="Helvetica,sans-Serif" font-size="10.00">/SensorControllerBase</text>
<text text-anchor="middle" x="565" y="-102" font-family="Helvetica,sans-Serif" font-size="10.00">/src/SensorControllerBase.cpp</text>
</a>
</g>
</g>
<!-- Node4&#45;&gt;Node9 -->
<g id="edge8" class="edge">
<title>Node4&#45;&gt;Node9</title>
<path fill="none" stroke="midnightblue" d="M813.12,-177.63C765,-167.61 706.87,-154.92 655,-142 647.59,-140.16 639.87,-138.13 632.2,-136.05"/>
<polygon fill="midnightblue" stroke="midnightblue" points="812.42,-181.06 822.92,-179.66 813.84,-174.2 812.42,-181.06"/>
</g>
<!-- Node10 -->
<g id="node10" class="node">
<title>Node10</title>
<g id="a_node10"><a xlink:href="../../db/dc2/_sensor_controller_base___m_o_c_k_8hpp.html" target="_top" xlink:title=" ">
<polygon fill="none" stroke="black" points="664,-89.5 664,-141.5 840,-141.5 840,-89.5 664,-89.5"/>
<text text-anchor="start" x="672" y="-129.5" font-family="Helvetica,sans-Serif" font-size="10.00">Components/Interfaces</text>
<text text-anchor="start" x="672" y="-118.5" font-family="Helvetica,sans-Serif" font-size="10.00">/SensorControllerBase</text>
<text text-anchor="start" x="672" y="-107.5" font-family="Helvetica,sans-Serif" font-size="10.00">/test/mock/SensorControllerBase</text>
<text text-anchor="middle" x="752" y="-96.5" font-family="Helvetica,sans-Serif" font-size="10.00">_MOCK.hpp</text>
</a>
</g>
</g>
<!-- Node4&#45;&gt;Node10 -->
<g id="edge9" class="edge">
<title>Node4&#45;&gt;Node10</title>
<path fill="none" stroke="midnightblue" d="M866.86,-173.93C846.48,-163.74 822.74,-151.87 802.15,-141.58"/>
<polygon fill="midnightblue" stroke="midnightblue" points="865.45,-177.14 875.96,-178.48 868.58,-170.88 865.45,-177.14"/>
</g>
<!-- Node12 -->
<g id="node12" class="node">
<title>Node12</title>
<g id="a_node12"><a xlink:href="../../d8/d19/_sensor_controller_test_8cpp.html" target="_top" xlink:title=" ">
<polygon fill="none" stroke="black" points="506,-6 506,-47 690,-47 690,-6 506,-6"/>
<text text-anchor="start" x="514" y="-35" font-family="Helvetica,sans-Serif" font-size="10.00">Components/Interfaces</text>
<text text-anchor="start" x="514" y="-24" font-family="Helvetica,sans-Serif" font-size="10.00">/SensorControllerBase</text>
<text text-anchor="middle" x="598" y="-13" font-family="Helvetica,sans-Serif" font-size="10.00">/test/test/SensorControllerTest.cpp</text>
</a>
</g>
</g>
<!-- Node4&#45;&gt;Node12 -->
<g id="edge12" class="edge">
<title>Node4&#45;&gt;Node12</title>
<path fill="none" stroke="midnightblue" d="M900.86,-169.31C886.23,-140.72 863.52,-99.61 849,-89 793.64,-48.56 765.57,-69.39 699,-53 691.19,-51.08 683.04,-49.05 674.9,-47.02"/>
<polygon fill="midnightblue" stroke="midnightblue" points="897.85,-171.11 905.49,-178.46 904.1,-167.95 897.85,-171.11"/>
</g>
<!-- Node13 -->
<g id="node13" class="node">
<title>Node13</title>
<g id="a_node13"><a xlink:href="../../d0/dc1/_data_broker_8hpp.html" target="_top" xlink:title=" ">
<polygon fill="none" stroke="black" points="1116,-95 1116,-136 1234,-136 1234,-95 1116,-95"/>
<text text-anchor="start" x="1124" y="-124" font-family="Helvetica,sans-Serif" font-size="10.00">Components/Objects</text>
<text text-anchor="start" x="1124" y="-113" font-family="Helvetica,sans-Serif" font-size="10.00">/DataBroker/include</text>
<text text-anchor="middle" x="1175" y="-102" font-family="Helvetica,sans-Serif" font-size="10.00">/DataBroker.hpp</text>
</a>
</g>
</g>
<!-- Node4&#45;&gt;Node13 -->
<g id="edge13" class="edge">
<title>Node4&#45;&gt;Node13</title>
<path fill="none" stroke="midnightblue" d="M996.92,-175.57C1031.13,-165.83 1071.17,-153.93 1107,-142 1112.5,-140.17 1118.22,-138.17 1123.91,-136.13"/>
<polygon fill="midnightblue" stroke="midnightblue" points="995.64,-172.3 986.97,-178.39 997.54,-179.03 995.64,-172.3"/>
</g>
<!-- Node6 -->
<g id="node6" class="node">
<title>Node6</title>
<g id="a_node6"><a xlink:href="../../dd/dde/_distance_sensor_controller_8cpp.html" target="_top" xlink:title=" ">
<polygon fill="none" stroke="black" points="708,-6 708,-47 888,-47 888,-6 708,-6"/>
<text text-anchor="start" x="716" y="-35" font-family="Helvetica,sans-Serif" font-size="10.00">Components/Controller</text>
<text text-anchor="start" x="716" y="-24" font-family="Helvetica,sans-Serif" font-size="10.00">/DistanceSensorController</text>
<text text-anchor="middle" x="798" y="-13" font-family="Helvetica,sans-Serif" font-size="10.00">/src/DistanceSensorController.cpp</text>
</a>
</g>
</g>
<!-- Node5&#45;&gt;Node6 -->
<g id="edge5" class="edge">
<title>Node5&#45;&gt;Node6</title>
<path fill="none" stroke="midnightblue" d="M942.87,-90.84C911.51,-77.12 872.49,-60.07 842.85,-47.11"/>
<polygon fill="midnightblue" stroke="midnightblue" points="941.78,-94.18 952.34,-94.98 944.58,-87.76 941.78,-94.18"/>
</g>
<!-- Node7 -->
<g id="node7" class="node">
<title>Node7</title>
<g id="a_node7"><a xlink:href="../../d7/d91/_distance_sensor_controller__test_8cpp.html" target="_top" xlink:title=" ">
<polygon fill="none" stroke="black" points="906.5,-0.5 906.5,-52.5 1093.5,-52.5 1093.5,-0.5 906.5,-0.5"/>
<text text-anchor="start" x="914.5" y="-40.5" font-family="Helvetica,sans-Serif" font-size="10.00">Components/Controller</text>
<text text-anchor="start" x="914.5" y="-29.5" font-family="Helvetica,sans-Serif" font-size="10.00">/DistanceSensorController</text>
<text text-anchor="start" x="914.5" y="-18.5" font-family="Helvetica,sans-Serif" font-size="10.00">/test/test/DistanceSensorController</text>
<text text-anchor="middle" x="1000" y="-7.5" font-family="Helvetica,sans-Serif" font-size="10.00">_test.cpp</text>
</a>
</g>
</g>
<!-- Node5&#45;&gt;Node7 -->
<g id="edge6" class="edge">
<title>Node5&#45;&gt;Node7</title>
<path fill="none" stroke="midnightblue" d="M998.03,-84.51C998.39,-74.17 998.79,-62.71 999.13,-52.79"/>
<polygon fill="midnightblue" stroke="midnightblue" points="994.53,-84.64 997.68,-94.76 1001.52,-84.88 994.53,-84.64"/>
</g>
<!-- Node8 -->
<g id="node8" class="node">
<title>Node8</title>
<g id="a_node8"><a xlink:href="../../da/d75/_data_broker__test_8cpp.html" target="_top" xlink:title=" ">
<polygon fill="none" stroke="black" points="1111.5,-6 1111.5,-47 1230.5,-47 1230.5,-6 1111.5,-6"/>
<text text-anchor="start" x="1119.5" y="-35" font-family="Helvetica,sans-Serif" font-size="10.00">Components/Objects</text>
<text text-anchor="start" x="1119.5" y="-24" font-family="Helvetica,sans-Serif" font-size="10.00">/DataBroker/test/test</text>
<text text-anchor="middle" x="1171" y="-13" font-family="Helvetica,sans-Serif" font-size="10.00">/DataBroker_test.cpp</text>
</a>
</g>
</g>
<!-- Node5&#45;&gt;Node8 -->
<g id="edge7" class="edge">
<title>Node5&#45;&gt;Node8</title>
<path fill="none" stroke="midnightblue" d="M1045.04,-90.48C1072.34,-76.83 1106.09,-59.96 1131.78,-47.11"/>
<polygon fill="midnightblue" stroke="midnightblue" points="1043.43,-87.37 1036.05,-94.98 1046.56,-93.63 1043.43,-87.37"/>
</g>
<!-- Node11 -->
<g id="node11" class="node">
<title>Node11</title>
<g id="a_node11"><a xlink:href="../../dc/d0f/_sensor_controller_base___m_o_c_k_8cpp.html" target="_top" xlink:title=" ">
<polygon fill="none" stroke="black" points="312,-0.5 312,-52.5 488,-52.5 488,-0.5 312,-0.5"/>
<text text-anchor="start" x="320" y="-40.5" font-family="Helvetica,sans-Serif" font-size="10.00">Components/Interfaces</text>
<text text-anchor="start" x="320" y="-29.5" font-family="Helvetica,sans-Serif" font-size="10.00">/SensorControllerBase</text>
<text text-anchor="start" x="320" y="-18.5" font-family="Helvetica,sans-Serif" font-size="10.00">/test/mock/SensorControllerBase</text>
<text text-anchor="middle" x="400" y="-7.5" font-family="Helvetica,sans-Serif" font-size="10.00">_MOCK.cpp</text>
</a>
</g>
</g>
<!-- Node10&#45;&gt;Node11 -->
<g id="edge10" class="edge">
<title>Node10&#45;&gt;Node11</title>
<path fill="none" stroke="midnightblue" d="M653.93,-88.77C583.4,-71.67 563.94,-69.42 497,-53 494.13,-52.29 491.2,-51.57 488.26,-50.83"/>
<polygon fill="midnightblue" stroke="midnightblue" points="653.2,-92.2 663.74,-91.17 654.86,-85.4 653.2,-92.2"/>
</g>
<!-- Node10&#45;&gt;Node12 -->
<g id="edge11" class="edge">
<title>Node10&#45;&gt;Node12</title>
<path fill="none" stroke="midnightblue" d="M698.61,-84.34C676.76,-71.99 652.1,-58.06 632.66,-47.08"/>
<polygon fill="midnightblue" stroke="midnightblue" points="697.03,-87.46 707.46,-89.34 700.47,-81.37 697.03,-87.46"/>
</g>
<!-- Node13&#45;&gt;Node8 -->
<g id="edge15" class="edge">
<title>Node13&#45;&gt;Node8</title>
<path fill="none" stroke="midnightblue" d="M1173.62,-84.44C1173.05,-72.1 1172.41,-58.16 1171.9,-47.16"/>
<polygon fill="midnightblue" stroke="midnightblue" points="1170.14,-84.93 1174.09,-94.76 1177.13,-84.61 1170.14,-84.93"/>
</g>
<!-- Node14 -->
<g id="node14" class="node">
<title>Node14</title>
<g id="a_node14"><a xlink:href="../../d4/ddc/_data_broker_8cpp.html" target="_top" xlink:title=" ">
<polygon fill="none" stroke="black" points="1248.5,-11.5 1248.5,-41.5 1417.5,-41.5 1417.5,-11.5 1248.5,-11.5"/>
<text text-anchor="start" x="1256.5" y="-29.5" font-family="Helvetica,sans-Serif" font-size="10.00">Components/Objects</text>
<text text-anchor="middle" x="1333" y="-18.5" font-family="Helvetica,sans-Serif" font-size="10.00">/DataBroker/src/DataBroker.cpp</text>
</a>
</g>
</g>
<!-- Node13&#45;&gt;Node14 -->
<g id="edge14" class="edge">
<title>Node13&#45;&gt;Node14</title>
<path fill="none" stroke="midnightblue" d="M1219.41,-90.05C1247.85,-74.39 1283.75,-54.62 1307.49,-41.55"/>
<polygon fill="midnightblue" stroke="midnightblue" points="1217.53,-87.09 1210.46,-94.98 1220.91,-93.22 1217.53,-87.09"/>
</g>
<!-- Node15&#45;&gt;Node13 -->
<g id="edge18" class="edge">
<title>Node15&#45;&gt;Node13</title>
<path fill="none" stroke="midnightblue" d="M1175,-168.06C1175,-157.38 1175,-145.63 1175,-136.05"/>
<polygon fill="midnightblue" stroke="midnightblue" points="1171.5,-168.27 1175,-178.27 1178.5,-168.27 1171.5,-168.27"/>
</g>
<!-- Node16 -->
<g id="node16" class="node">
<title>Node16</title>
<g id="a_node16"><a xlink:href="../../dc/d1d/_service__test_8cpp.html" target="_top" xlink:title=" ">
<polygon fill="none" stroke="black" points="1683,-95 1683,-136 1813,-136 1813,-95 1683,-95"/>
<text text-anchor="start" x="1691" y="-124" font-family="Helvetica,sans-Serif" font-size="10.00">Components/Interfaces</text>
<text text-anchor="start" x="1691" y="-113" font-family="Helvetica,sans-Serif" font-size="10.00">/ServiceBase/test/test</text>
<text text-anchor="middle" x="1748" y="-102" font-family="Helvetica,sans-Serif" font-size="10.00">/Service_test.cpp</text>
</a>
</g>
</g>
<!-- Node15&#45;&gt;Node16 -->
<g id="edge17" class="edge">
<title>Node15&#45;&gt;Node16</title>
<path fill="none" stroke="midnightblue" d="M1250.12,-177.98C1437.54,-146.35 1491.7,-180.51 1674,-142 1681.31,-140.46 1688.9,-138.4 1696.3,-136.12"/>
<polygon fill="midnightblue" stroke="midnightblue" points="1249.48,-174.54 1240.23,-179.69 1250.68,-181.44 1249.48,-174.54"/>
</g>
<!-- Node17 -->
<g id="node17" class="node">
<title>Node17</title>
<g id="a_node17"><a xlink:href="../../d2/d1e/_online_detector__service_8hpp.html" target="_top" xlink:title=" ">
<polygon fill="none" stroke="black" points="1333.5,-95 1333.5,-136 1488.5,-136 1488.5,-95 1333.5,-95"/>
<text text-anchor="start" x="1341.5" y="-124" font-family="Helvetica,sans-Serif" font-size="10.00">Components/Service</text>
<text text-anchor="start" x="1341.5" y="-113" font-family="Helvetica,sans-Serif" font-size="10.00">/OnlineDetector/include</text>
<text text-anchor="middle" x="1411" y="-102" font-family="Helvetica,sans-Serif" font-size="10.00">/OnlineDetector_service.hpp</text>
</a>
</g>
</g>
<!-- Node15&#45;&gt;Node17 -->
<g id="edge19" class="edge">
<title>Node15&#45;&gt;Node17</title>
<path fill="none" stroke="midnightblue" d="M1241.36,-175.08C1277.02,-162.77 1320.51,-147.75 1354.52,-136"/>
<polygon fill="midnightblue" stroke="midnightblue" points="1239.84,-171.91 1231.53,-178.48 1242.12,-178.52 1239.84,-171.91"/>
</g>
<!-- Node20 -->
<g id="node20" class="node">
<title>Node20</title>
<g id="a_node20"><a xlink:href="../../dd/d22/_water_estimator___service_8hpp.html" target="_top" xlink:title=" ">
<polygon fill="none" stroke="black" points="1507,-95 1507,-136 1665,-136 1665,-95 1507,-95"/>
<text text-anchor="start" x="1515" y="-124" font-family="Helvetica,sans-Serif" font-size="10.00">Components/Service</text>
<text text-anchor="start" x="1515" y="-113" font-family="Helvetica,sans-Serif" font-size="10.00">/WaterEstimator/include</text>
<text text-anchor="middle" x="1586" y="-102" font-family="Helvetica,sans-Serif" font-size="10.00">/WaterEstimator_Service.hpp</text>
</a>
</g>
</g>
<!-- Node15&#45;&gt;Node20 -->
<g id="edge22" class="edge">
<title>Node15&#45;&gt;Node20</title>
<path fill="none" stroke="midnightblue" d="M1250.11,-177.9C1360.28,-155.93 1391.8,-164.95 1498,-142 1505.93,-140.29 1514.19,-138.24 1522.34,-136.07"/>
<polygon fill="midnightblue" stroke="midnightblue" points="1249.37,-174.48 1240.27,-179.9 1250.76,-181.34 1249.37,-174.48"/>
</g>
<!-- Node18 -->
<g id="node18" class="node">
<title>Node18</title>
<g id="a_node18"><a xlink:href="../../d7/d24/_online_detector__service_8cpp.html" target="_top" xlink:title=" ">
<polygon fill="none" stroke="black" points="1573,-6 1573,-47 1727,-47 1727,-6 1573,-6"/>
<text text-anchor="start" x="1581" y="-35" font-family="Helvetica,sans-Serif" font-size="10.00">Components/Service</text>
<text text-anchor="start" x="1581" y="-24" font-family="Helvetica,sans-Serif" font-size="10.00">/OnlineDetector/src</text>
<text text-anchor="middle" x="1650" y="-13" font-family="Helvetica,sans-Serif" font-size="10.00">/OnlineDetector_service.cpp</text>
</a>
</g>
</g>
<!-- Node17&#45;&gt;Node18 -->
<g id="edge20" class="edge">
<title>Node17&#45;&gt;Node18</title>
<path fill="none" stroke="midnightblue" d="M1474.07,-91.54C1512.06,-77.71 1559.92,-60.29 1596.13,-47.11"/>
<polygon fill="midnightblue" stroke="midnightblue" points="1472.84,-88.27 1464.64,-94.98 1475.23,-94.84 1472.84,-88.27"/>
</g>
<!-- Node19 -->
<g id="node19" class="node">
<title>Node19</title>
<g id="a_node19"><a xlink:href="../../db/df8/_service_2_online_detector_2test_2test_2simple__test_8cpp.html" target="_top" xlink:title=" ">
<polygon fill="none" stroke="black" points="1435.5,-6 1435.5,-47 1554.5,-47 1554.5,-6 1435.5,-6"/>
<text text-anchor="start" x="1443.5" y="-35" font-family="Helvetica,sans-Serif" font-size="10.00">Components/Service</text>
<text text-anchor="start" x="1443.5" y="-24" font-family="Helvetica,sans-Serif" font-size="10.00">/OnlineDetector/test</text>
<text text-anchor="middle" x="1495" y="-13" font-family="Helvetica,sans-Serif" font-size="10.00">/test/simple_test.cpp</text>
</a>
</g>
</g>
<!-- Node17&#45;&gt;Node19 -->
<g id="edge21" class="edge">
<title>Node17&#45;&gt;Node19</title>
<path fill="none" stroke="midnightblue" d="M1437.17,-87.4C1449.74,-74.37 1464.54,-59.05 1476.01,-47.16"/>
<polygon fill="midnightblue" stroke="midnightblue" points="1434.49,-85.13 1430.06,-94.76 1439.52,-90 1434.49,-85.13"/>
</g>
<!-- Node21 -->
<g id="node21" class="node">
<title>Node21</title>
<g id="a_node21"><a xlink:href="../../dd/dd3/_water_estimator___service_8cpp.html" target="_top" xlink:title=" ">
<polygon fill="none" stroke="black" points="1745.5,-6 1745.5,-47 1902.5,-47 1902.5,-6 1745.5,-6"/>
<text text-anchor="start" x="1753.5" y="-35" font-family="Helvetica,sans-Serif" font-size="10.00">Components/Service</text>
<text text-anchor="start" x="1753.5" y="-24" font-family="Helvetica,sans-Serif" font-size="10.00">/WaterEstimator/src</text>
<text text-anchor="middle" x="1824" y="-13" font-family="Helvetica,sans-Serif" font-size="10.00">/WaterEstimator_Service.cpp</text>
</a>
</g>
</g>
<!-- Node20&#45;&gt;Node21 -->
<g id="edge23" class="edge">
<title>Node20&#45;&gt;Node21</title>
<path fill="none" stroke="midnightblue" d="M1648.8,-91.54C1686.63,-77.71 1734.3,-60.29 1770.36,-47.11"/>
<polygon fill="midnightblue" stroke="midnightblue" points="1647.6,-88.25 1639.41,-94.98 1650.01,-94.83 1647.6,-88.25"/>
</g>
<!-- Node25 -->
<g id="node25" class="node">
<title>Node25</title>
<g id="a_node25"><a xlink:href="../../dd/ddd/_maintainer_8cpp.html" target="_top" xlink:title=" ">
<polygon fill="none" stroke="black" points="0,-100.5 0,-130.5 164,-130.5 164,-100.5 0,-100.5"/>
<text text-anchor="start" x="8" y="-118.5" font-family="Helvetica,sans-Serif" font-size="10.00">Components/Objects</text>
<text text-anchor="middle" x="82" y="-107.5" font-family="Helvetica,sans-Serif" font-size="10.00">/Maintainer/src/Maintainer.cpp</text>
</a>
</g>
</g>
<!-- Node24&#45;&gt;Node25 -->
<g id="edge27" class="edge">
<title>Node24&#45;&gt;Node25</title>
<path fill="none" stroke="midnightblue" d="M222.34,-174.56C187.9,-160.31 145.07,-142.59 115.85,-130.5"/>
<polygon fill="midnightblue" stroke="midnightblue" points="221.24,-177.89 231.81,-178.48 223.91,-171.42 221.24,-177.89"/>
</g>
<!-- Node26 -->
<g id="node26" class="node">
<title>Node26</title>
<g id="a_node26"><a xlink:href="../../d8/d4a/maintainer__test_8cpp.html" target="_top" xlink:title=" ">
<polygon fill="none" stroke="black" points="182,-95 182,-136 300,-136 300,-95 182,-95"/>
<text text-anchor="start" x="190" y="-124" font-family="Helvetica,sans-Serif" font-size="10.00">Components/Objects</text>
<text text-anchor="start" x="190" y="-113" font-family="Helvetica,sans-Serif" font-size="10.00">/Maintainer/test/test</text>
<text text-anchor="middle" x="241" y="-102" font-family="Helvetica,sans-Serif" font-size="10.00">/maintainer_test.cpp</text>
</a>
</g>
</g>
<!-- Node24&#45;&gt;Node26 -->
<g id="edge28" class="edge">
<title>Node24&#45;&gt;Node26</title>
<path fill="none" stroke="midnightblue" d="M265.51,-169.06C260.4,-158.12 254.72,-145.93 250.11,-136.05"/>
<polygon fill="midnightblue" stroke="midnightblue" points="262.4,-170.69 269.8,-178.27 268.75,-167.73 262.4,-170.69"/>
</g>
<!-- Node24&#45;&gt;Node27 -->
<g id="edge29" class="edge">
<title>Node24&#45;&gt;Node27</title>
<path fill="none" stroke="midnightblue" d="M314.3,-172.54C330.58,-160.8 349.61,-147.07 364.76,-136.14"/>
<polygon fill="midnightblue" stroke="midnightblue" points="312.13,-169.79 306.07,-178.48 316.22,-175.47 312.13,-169.79"/>
</g>
<!-- Node28 -->
<g id="node28" class="node">
<title>Node28</title>
<g id="a_node28"><a xlink:href="../../d2/d77/_active_current_sensor_8cpp.html" target="_top" xlink:title=" ">
<polygon fill="none" stroke="black" points="120.5,-6 120.5,-47 293.5,-47 293.5,-6 120.5,-6"/>
<text text-anchor="start" x="128.5" y="-35" font-family="Helvetica,sans-Serif" font-size="10.00">Components/Sensor/Active</text>
<text text-anchor="start" x="128.5" y="-24" font-family="Helvetica,sans-Serif" font-size="10.00">CurrentSensor/src/ActiveCurrent</text>
<text text-anchor="middle" x="207" y="-13" font-family="Helvetica,sans-Serif" font-size="10.00">Sensor.cpp</text>
</a>
</g>
</g>
<!-- Node27&#45;&gt;Node28 -->
<g id="edge30" class="edge">
<title>Node27&#45;&gt;Node28</title>
<path fill="none" stroke="midnightblue" d="M341.3,-90.66C312.21,-76.98 276.13,-60.01 248.7,-47.11"/>
<polygon fill="midnightblue" stroke="midnightblue" points="339.94,-93.89 350.48,-94.98 342.92,-87.55 339.94,-93.89"/>
</g>
<!-- Node30 -->
<g id="node30" class="node">
<title>Node30</title>
<g id="a_node30"><a xlink:href="../../d0/db0/hal__mqtt__log_8cpp.html" target="_top" xlink:title=" ">
<polygon fill="none" stroke="black" points="1258,-178.5 1258,-219.5 1376,-219.5 1376,-178.5 1258,-178.5"/>
<text text-anchor="start" x="1266" y="-207.5" font-family="Helvetica,sans-Serif" font-size="10.00">Components/Objects</text>
<text text-anchor="start" x="1266" y="-196.5" font-family="Helvetica,sans-Serif" font-size="10.00">/Logger/src/hal_mqtt</text>
<text text-anchor="middle" x="1317" y="-185.5" font-family="Helvetica,sans-Serif" font-size="10.00">_log.cpp</text>
</a>
</g>
</g>
<!-- Node29&#45;&gt;Node30 -->
<g id="edge34" class="edge">
<title>Node29&#45;&gt;Node30</title>
<path fill="none" stroke="midnightblue" d="M1266.5,-249.2C1276.55,-239.42 1287.71,-228.54 1296.98,-219.51"/>
<polygon fill="midnightblue" stroke="midnightblue" points="1263.81,-246.94 1259.09,-256.43 1268.69,-251.96 1263.81,-246.94"/>
</g>
</g>
</svg>
        <g id="navigator" transform="translate(0 0)" fill="#404254">
                <rect fill="#f2f5e9" fill-opacity="0.5" stroke="#606060" stroke-width=".5" x="0" y="0" width="60" height="60"/>
                <use id="zoomplus" xlink:href="#zoomPlus" x="17" y="9" onmousedown="handleZoom(evt,'in')"/>
                <use id="zoomminus" xlink:href="#zoomMin" x="42" y="9" onmousedown="handleZoom(evt,'out')"/>
                <use id="reset" xlink:href="#resetDef" x="30" y="36" onmousedown="handleReset()"/>
                <g id="arrowUp" xlink:href="#dirArrow" transform="translate(30 24)" onmousedown="handlePan(0,-1)">
                  <use xlink:href="#rim" fill="#404040">
                        <set attributeName="fill" to="#808080" begin="arrowUp.mouseover" end="arrowUp.mouseout"/>
                  </use>
                  <path fill="none" stroke="white" stroke-width="1.5" d="M0,-3.0v7 M-2.5,-0.5L0,-3.0L2.5,-0.5"/>
                </g>
                <g id="arrowRight" xlink:href="#dirArrow" transform="rotate(90) translate(36 -43)" onmousedown="handlePan(1,0)">
                  <use xlink:href="#rim" fill="#404040">
                        <set attributeName="fill" to="#808080" begin="arrowRight.mouseover" end="arrowRight.mouseout"/>
                  </use>
                  <path fill="none" stroke="white" stroke-width="1.5" d="M0,-3.0v7 M-2.5,-0.5L0,-3.0L2.5,-0.5"/>
                </g>
                <g id="arrowDown" xlink:href="#dirArrow" transform="rotate(180) translate(-30 -48)" onmousedown="handlePan(0,1)">
                  <use xlink:href="#rim" fill="#404040">
                        <set attributeName="fill" to="#808080" begin="arrowDown.mouseover" end="arrowDown.mouseout"/>
                  </use>
                  <path fill="none" stroke="white" stroke-width="1.5" d="M0,-3.0v7 M-2.5,-0.5L0,-3.0L2.5,-0.5"/>
                </g>
                <g id="arrowLeft" xlink:href="#dirArrow" transform="rotate(270) translate(-36 17)" onmousedown="handlePan(-1,0)">
                  <use xlink:href="#rim" fill="#404040">
                        <set attributeName="fill" to="#808080" begin="arrowLeft.mouseover" end="arrowLeft.mouseout"/>
                  </use>
                  <path fill="none" stroke="white" stroke-width="1.5" d="M0,-3.0v7 M-2.5,-0.5L0,-3.0L2.5,-0.5"/>
                </g>
        </g>
        <svg viewBox="0 0 15 15" width="100%" height="30px" preserveAspectRatio="xMaxYMin meet">
         <g id="arrow_out" transform="scale(0.3 0.3)">
          <a xlink:href="_o_t_a_8hpp__dep__incl_org.svg" target="_base">
           <rect id="button" ry="5" rx="5" y="6" x="6" height="38" width="38"
                fill="#f2f5e9" fill-opacity="0.5" stroke="#606060" stroke-width="1.0"/>
           <path id="arrow"
             d="M 11.500037,31.436501 C 11.940474,20.09759 22.043105,11.32322 32.158766,21.979434 L 37.068811,17.246167 C 37.068811,17.246167 37.088388,32 37.088388,32 L 22.160133,31.978069 C 22.160133,31.978069 26.997745,27.140456 26.997745,27.140456 C 18.528582,18.264221 13.291696,25.230495 11.500037,31.436501 z"
             style="fill:#404040;"/>
          </a>
         </g>
        </svg>
</svg>
