<?xml version="1.0" encoding="UTF-8" standalone="no"?>
<!DOCTYPE svg PUBLIC "-//W3C//DTD SVG 1.1//EN"
 "http://www.w3.org/Graphics/SVG/1.1/DTD/svg11.dtd">
<!-- Generated by graphviz version 2.43.0 (0)
 -->
<!-- Title: Components/Objects/OTA/include/OTA.hpp Pages: 1 -->
<svg width="1685pt" height="451pt"
 viewBox="0.00 0.00 1685.00 451.00" xmlns="http://www.w3.org/2000/svg" xmlns:xlink="http://www.w3.org/1999/xlink">
<g id="graph0" class="graph" transform="scale(1 1) rotate(0) translate(4 447)">
<title>Components/Objects/OTA/include/OTA.hpp</title>
<!-- Node1 -->
<g id="node1" class="node">
<title>Node1</title>
<g id="a_node1"><a xlink:title=" ">
<polygon fill="#bfbfbf" stroke="black" points="868,-412.5 868,-442.5 990,-442.5 990,-412.5 868,-412.5"/>
<text text-anchor="start" x="876" y="-430.5" font-family="Helvetica,sans-Serif" font-size="10.00">Components/Objects</text>
<text text-anchor="middle" x="929" y="-419.5" font-family="Helvetica,sans-Serif" font-size="10.00">/OTA/include/OTA.hpp</text>
</a>
</g>
</g>
<!-- Node2 -->
<g id="node2" class="node">
<title>Node2</title>
<g id="a_node2"><a xlink:href="../../d4/d63/mqtt__api__v2_8hpp.html" target="_top" xlink:title=" ">
<polygon fill="none" stroke="black" points="790.5,-334.5 790.5,-375.5 923.5,-375.5 923.5,-334.5 790.5,-334.5"/>
<text text-anchor="start" x="798.5" y="-363.5" font-family="Helvetica,sans-Serif" font-size="10.00">Components/Protocols</text>
<text text-anchor="start" x="798.5" y="-352.5" font-family="Helvetica,sans-Serif" font-size="10.00">/MQTT/include/mqtt_api</text>
<text text-anchor="middle" x="857" y="-341.5" font-family="Helvetica,sans-Serif" font-size="10.00">_v2.hpp</text>
</a>
</g>
</g>
<!-- Node1&#45;&gt;Node2 -->
<g id="edge1" class="edge">
<title>Node1&#45;&gt;Node2</title>
<path fill="none" stroke="midnightblue" d="M907.15,-405.1C897.56,-395.71 886.37,-384.76 877.01,-375.59"/>
<polygon fill="midnightblue" stroke="midnightblue" points="904.84,-407.74 914.43,-412.23 909.73,-402.74 904.84,-407.74"/>
</g>
<!-- Node21 -->
<g id="node21" class="node">
<title>Node21</title>
<g id="a_node21"><a xlink:href="../../d0/d6a/_maintainer_8hpp.html" target="_top" xlink:title=" ">
<polygon fill="none" stroke="black" points="280,-178.5 280,-219.5 398,-219.5 398,-178.5 280,-178.5"/>
<text text-anchor="start" x="288" y="-207.5" font-family="Helvetica,sans-Serif" font-size="10.00">Components/Objects</text>
<text text-anchor="start" x="288" y="-196.5" font-family="Helvetica,sans-Serif" font-size="10.00">/Maintainer/include</text>
<text text-anchor="middle" x="339" y="-185.5" font-family="Helvetica,sans-Serif" font-size="10.00">/Maintainer.hpp</text>
</a>
</g>
</g>
<!-- Node1&#45;&gt;Node21 -->
<g id="edge36" class="edge">
<title>Node1&#45;&gt;Node21</title>
<path fill="none" stroke="midnightblue" d="M857.89,-415.02C765.09,-398.18 599.29,-361.67 470,-298 427.45,-277.04 384.67,-241.72 360.06,-219.7"/>
<polygon fill="midnightblue" stroke="midnightblue" points="857.28,-418.47 867.74,-416.78 858.52,-411.58 857.28,-418.47"/>
</g>
<!-- Node30 -->
<g id="node30" class="node">
<title>Node30</title>
<g id="a_node30"><a xlink:href="../../d9/d42/_o_t_a_8cpp.html" target="_top" xlink:title=" ">
<polygon fill="none" stroke="black" points="942,-340 942,-370 1060,-370 1060,-340 942,-340"/>
<text text-anchor="start" x="950" y="-358" font-family="Helvetica,sans-Serif" font-size="10.00">Components/Objects</text>
<text text-anchor="middle" x="1001" y="-347" font-family="Helvetica,sans-Serif" font-size="10.00">/OTA/src/OTA.cpp</text>
</a>
</g>
</g>
<!-- Node1&#45;&gt;Node30 -->
<g id="edge37" class="edge">
<title>Node1&#45;&gt;Node30</title>
<path fill="none" stroke="midnightblue" d="M950.77,-405.19C962.32,-393.87 976.21,-380.27 986.45,-370.25"/>
<polygon fill="midnightblue" stroke="midnightblue" points="948.27,-402.74 943.57,-412.23 953.16,-407.74 948.27,-402.74"/>
</g>
<!-- Node31 -->
<g id="node31" class="node">
<title>Node31</title>
<g id="a_node31"><a xlink:href="../../d8/d80/_o_t_a__test_8cpp.html" target="_top" xlink:title=" ">
<polygon fill="none" stroke="black" points="1078.5,-340 1078.5,-370 1229.5,-370 1229.5,-340 1078.5,-340"/>
<text text-anchor="start" x="1086.5" y="-358" font-family="Helvetica,sans-Serif" font-size="10.00">Components/Objects</text>
<text text-anchor="middle" x="1154" y="-347" font-family="Helvetica,sans-Serif" font-size="10.00">/OTA/test/test/OTA_test.cpp</text>
</a>
</g>
</g>
<!-- Node1&#45;&gt;Node31 -->
<g id="edge38" class="edge">
<title>Node1&#45;&gt;Node31</title>
<path fill="none" stroke="midnightblue" d="M983.71,-409.36C1022.13,-397.32 1072.9,-381.41 1108.98,-370.11"/>
<polygon fill="midnightblue" stroke="midnightblue" points="982.22,-406.16 973.72,-412.49 984.31,-412.84 982.22,-406.16"/>
</g>
<!-- Node3 -->
<g id="node3" class="node">
<title>Node3</title>
<g id="a_node3"><a xlink:href="../../d3/d0d/_error_code_parser_8hpp.html" target="_top" xlink:title=" ">
<polygon fill="none" stroke="black" points="601.5,-256.5 601.5,-297.5 720.5,-297.5 720.5,-256.5 601.5,-256.5"/>
<text text-anchor="start" x="609.5" y="-285.5" font-family="Helvetica,sans-Serif" font-size="10.00">Components/Objects</text>
<text text-anchor="start" x="609.5" y="-274.5" font-family="Helvetica,sans-Serif" font-size="10.00">/ErrorHandler/include</text>
<text text-anchor="middle" x="661" y="-263.5" font-family="Helvetica,sans-Serif" font-size="10.00">/ErrorCodeParser.hpp</text>
</a>
</g>
</g>
<!-- Node2&#45;&gt;Node3 -->
<g id="edge2" class="edge">
<title>Node2&#45;&gt;Node3</title>
<path fill="none" stroke="midnightblue" d="M797.03,-330.75C769.6,-320.11 737.45,-307.65 711.3,-297.51"/>
<polygon fill="midnightblue" stroke="midnightblue" points="795.94,-334.08 806.53,-334.43 798.47,-327.55 795.94,-334.08"/>
</g>
<!-- Node4 -->
<g id="node4" class="node">
<title>Node4</title>
<g id="a_node4"><a xlink:href="../../d9/d1c/_sensor_controller_base_8hpp.html" target="_top" xlink:title=" ">
<polygon fill="none" stroke="black" points="783,-178.5 783,-219.5 967,-219.5 967,-178.5 783,-178.5"/>
<text text-anchor="start" x="791" y="-207.5" font-family="Helvetica,sans-Serif" font-size="10.00">Components/Interfaces</text>
<text text-anchor="start" x="791" y="-196.5" font-family="Helvetica,sans-Serif" font-size="10.00">/SensorControllerBase</text>
<text text-anchor="middle" x="875" y="-185.5" font-family="Helvetica,sans-Serif" font-size="10.00">/include/SensorControllerBase.hpp</text>
</a>
</g>
</g>
<!-- Node2&#45;&gt;Node4 -->
<g id="edge28" class="edge">
<title>Node2&#45;&gt;Node4</title>
<path fill="none" stroke="midnightblue" d="M933.82,-334.08C1004.09,-320.15 1043.87,-350.01 1085,-298 1123.37,-249.48 1039.9,-223.89 967.11,-211.19"/>
<polygon fill="midnightblue" stroke="midnightblue" points="932.7,-330.74 923.7,-336.35 934.23,-337.57 932.7,-330.74"/>
</g>
<!-- Node15 -->
<g id="node15" class="node">
<title>Node15</title>
<g id="a_node15"><a xlink:href="../../d2/dc5/_service_base_8hpp.html" target="_top" xlink:title=" ">
<polygon fill="none" stroke="black" points="1108,-178.5 1108,-219.5 1238,-219.5 1238,-178.5 1108,-178.5"/>
<text text-anchor="start" x="1116" y="-207.5" font-family="Helvetica,sans-Serif" font-size="10.00">Components/Interfaces</text>
<text text-anchor="start" x="1116" y="-196.5" font-family="Helvetica,sans-Serif" font-size="10.00">/ServiceBase/include</text>
<text text-anchor="middle" x="1173" y="-185.5" font-family="Helvetica,sans-Serif" font-size="10.00">/ServiceBase.hpp</text>
</a>
</g>
</g>
<!-- Node2&#45;&gt;Node15 -->
<g id="edge29" class="edge">
<title>Node2&#45;&gt;Node15</title>
<path fill="none" stroke="midnightblue" d="M933.81,-334C1010.68,-318.04 1041.03,-338.56 1103,-298 1132.56,-278.65 1153.6,-242.14 1164.48,-219.56"/>
<polygon fill="midnightblue" stroke="midnightblue" points="932.68,-330.66 923.68,-336.26 934.2,-337.5 932.68,-330.66"/>
</g>
<!-- Node2&#45;&gt;Node21 -->
<g id="edge32" class="edge">
<title>Node2&#45;&gt;Node21</title>
<path fill="none" stroke="midnightblue" d="M780.33,-341.08C727.2,-331.31 655.13,-316.45 593,-298 517.78,-275.67 433.31,-241.09 383.22,-219.54"/>
<polygon fill="midnightblue" stroke="midnightblue" points="779.89,-344.55 790.36,-342.9 781.15,-337.67 779.89,-344.55"/>
</g>
<!-- Node24 -->
<g id="node24" class="node">
<title>Node24</title>
<g id="a_node24"><a xlink:href="../../dd/d82/_active_current_sensor_8hpp.html" target="_top" xlink:title=" ">
<polygon fill="none" stroke="black" points="320,-95 320,-136 468,-136 468,-95 320,-95"/>
<text text-anchor="start" x="328" y="-124" font-family="Helvetica,sans-Serif" font-size="10.00">Components/Sensor/Active</text>
<text text-anchor="start" x="328" y="-113" font-family="Helvetica,sans-Serif" font-size="10.00">CurrentSensor/include</text>
<text text-anchor="middle" x="394" y="-102" font-family="Helvetica,sans-Serif" font-size="10.00">/ActiveCurrentSensor.hpp</text>
</a>
</g>
</g>
<!-- Node2&#45;&gt;Node24 -->
<g id="edge35" class="edge">
<title>Node2&#45;&gt;Node24</title>
<path fill="none" stroke="midnightblue" d="M808.05,-328.82C795.52,-320.44 783.05,-310.1 774,-298 740.5,-253.19 778.75,-214.09 736,-178 691.6,-140.52 533.73,-154.57 477,-142 469.35,-140.3 461.38,-138.24 453.54,-136.04"/>
<polygon fill="midnightblue" stroke="midnightblue" points="806.38,-331.91 816.7,-334.31 810.13,-326 806.38,-331.91"/>
</g>
<!-- Node26 -->
<g id="node26" class="node">
<title>Node26</title>
<g id="a_node26"><a xlink:href="../../d7/d44/hal__mqtt__log_8hpp.html" target="_top" xlink:title=" ">
<polygon fill="none" stroke="black" points="1218,-256.5 1218,-297.5 1336,-297.5 1336,-256.5 1218,-256.5"/>
<text text-anchor="start" x="1226" y="-285.5" font-family="Helvetica,sans-Serif" font-size="10.00">Components/Objects</text>
<text text-anchor="start" x="1226" y="-274.5" font-family="Helvetica,sans-Serif" font-size="10.00">/Logger/include/hal</text>
<text text-anchor="middle" x="1277" y="-263.5" font-family="Helvetica,sans-Serif" font-size="10.00">_mqtt_log.hpp</text>
</a>
</g>
</g>
<!-- Node2&#45;&gt;Node26 -->
<g id="edge30" class="edge">
<title>Node2&#45;&gt;Node26</title>
<path fill="none" stroke="midnightblue" d="M933.67,-333.98C1042.14,-312.28 1072.16,-316.21 1177,-298 1190.26,-295.7 1204.46,-293 1217.87,-290.34"/>
<polygon fill="midnightblue" stroke="midnightblue" points="932.73,-330.6 923.63,-336.02 934.13,-337.46 932.73,-330.6"/>
</g>
<!-- Node28 -->
<g id="node28" class="node">
<title>Node28</title>
<g id="a_node28"><a xlink:href="../../d3/dc1/mqtt__api__v2_8cpp.html" target="_top" xlink:title=" ">
<polygon fill="none" stroke="black" points="782.5,-262 782.5,-292 931.5,-292 931.5,-262 782.5,-262"/>
<text text-anchor="start" x="790.5" y="-280" font-family="Helvetica,sans-Serif" font-size="10.00">Components/Protocols</text>
<text text-anchor="middle" x="857" y="-269" font-family="Helvetica,sans-Serif" font-size="10.00">/MQTT/src/mqtt_api_v2.cpp</text>
</a>
</g>
</g>
<!-- Node2&#45;&gt;Node28 -->
<g id="edge33" class="edge">
<title>Node2&#45;&gt;Node28</title>
<path fill="none" stroke="midnightblue" d="M857,-324.28C857,-313.25 857,-301.25 857,-292.23"/>
<polygon fill="midnightblue" stroke="midnightblue" points="853.5,-324.43 857,-334.43 860.5,-324.43 853.5,-324.43"/>
</g>
<!-- Node29 -->
<g id="node29" class="node">
<title>Node29</title>
<g id="a_node29"><a xlink:href="../../df/df3/mqtt__v2__test_8cpp.html" target="_top" xlink:title=" ">
<polygon fill="none" stroke="black" points="950,-256.5 950,-297.5 1076,-297.5 1076,-256.5 950,-256.5"/>
<text text-anchor="start" x="958" y="-285.5" font-family="Helvetica,sans-Serif" font-size="10.00">Components/Protocols</text>
<text text-anchor="start" x="958" y="-274.5" font-family="Helvetica,sans-Serif" font-size="10.00">/MQTT/test/test/mqtt</text>
<text text-anchor="middle" x="1013" y="-263.5" font-family="Helvetica,sans-Serif" font-size="10.00">_v2_test.cpp</text>
</a>
</g>
</g>
<!-- Node2&#45;&gt;Node29 -->
<g id="edge34" class="edge">
<title>Node2&#45;&gt;Node29</title>
<path fill="none" stroke="midnightblue" d="M906.45,-329.91C927.9,-319.46 952.69,-307.38 972.96,-297.51"/>
<polygon fill="midnightblue" stroke="midnightblue" points="904.63,-326.9 897.17,-334.43 907.7,-333.19 904.63,-326.9"/>
</g>
<!-- Node3&#45;&gt;Node4 -->
<g id="edge3" class="edge">
<title>Node3&#45;&gt;Node4</title>
<path fill="none" stroke="midnightblue" d="M725.69,-253.03C755.81,-242.33 791.27,-229.73 820.08,-219.51"/>
<polygon fill="midnightblue" stroke="midnightblue" points="724.36,-249.78 716.11,-256.43 726.71,-256.38 724.36,-249.78"/>
</g>
<!-- Node3&#45;&gt;Node15 -->
<g id="edge16" class="edge">
<title>Node3&#45;&gt;Node15</title>
<path fill="none" stroke="midnightblue" d="M730.97,-263.21C745.19,-260.73 760.07,-258.21 774,-256 891.45,-237.37 1028.86,-218.79 1107.93,-208.41"/>
<polygon fill="midnightblue" stroke="midnightblue" points="729.99,-259.83 720.75,-265.01 731.21,-266.73 729.99,-259.83"/>
</g>
<!-- Node19 -->
<g id="node19" class="node">
<title>Node19</title>
<g id="a_node19"><a xlink:href="../../d2/df5/_error_code_parser_8cpp.html" target="_top" xlink:title=" ">
<polygon fill="none" stroke="black" points="416.5,-178.5 416.5,-219.5 565.5,-219.5 565.5,-178.5 416.5,-178.5"/>
<text text-anchor="start" x="424.5" y="-207.5" font-family="Helvetica,sans-Serif" font-size="10.00">Components/Objects</text>
<text text-anchor="start" x="424.5" y="-196.5" font-family="Helvetica,sans-Serif" font-size="10.00">/ErrorHandler/src/ErrorCode</text>
<text text-anchor="middle" x="491" y="-185.5" font-family="Helvetica,sans-Serif" font-size="10.00">Parser.cpp</text>
</a>
</g>
</g>
<!-- Node3&#45;&gt;Node19 -->
<g id="edge21" class="edge">
<title>Node3&#45;&gt;Node19</title>
<path fill="none" stroke="midnightblue" d="M608.05,-252.33C584.46,-241.78 557.02,-229.51 534.63,-219.51"/>
<polygon fill="midnightblue" stroke="midnightblue" points="606.66,-255.54 617.22,-256.43 609.52,-249.15 606.66,-255.54"/>
</g>
<!-- Node20 -->
<g id="node20" class="node">
<title>Node20</title>
<g id="a_node20"><a xlink:href="../../d9/db8/_error_code_parser__test_8cpp.html" target="_top" xlink:title=" ">
<polygon fill="none" stroke="black" points="583.5,-178.5 583.5,-219.5 726.5,-219.5 726.5,-178.5 583.5,-178.5"/>
<text text-anchor="start" x="591.5" y="-207.5" font-family="Helvetica,sans-Serif" font-size="10.00">Components/Objects</text>
<text text-anchor="start" x="591.5" y="-196.5" font-family="Helvetica,sans-Serif" font-size="10.00">/ErrorHandler/test/test</text>
<text text-anchor="middle" x="655" y="-185.5" font-family="Helvetica,sans-Serif" font-size="10.00">/ErrorCodeParser_test.cpp</text>
</a>
</g>
</g>
<!-- Node3&#45;&gt;Node20 -->
<g id="edge22" class="edge">
<title>Node3&#45;&gt;Node20</title>
<path fill="none" stroke="midnightblue" d="M658.65,-246.3C657.94,-237.3 657.18,-227.65 656.54,-219.51"/>
<polygon fill="midnightblue" stroke="midnightblue" points="655.18,-246.73 659.45,-256.43 662.16,-246.18 655.18,-246.73"/>
</g>
<!-- Node3&#45;&gt;Node21 -->
<g id="edge23" class="edge">
<title>Node3&#45;&gt;Node21</title>
<path fill="none" stroke="midnightblue" d="M591.48,-262.02C540.26,-251.4 469.02,-235.94 407,-220 404.14,-219.26 401.22,-218.49 398.27,-217.69"/>
<polygon fill="midnightblue" stroke="midnightblue" points="590.95,-265.49 601.45,-264.08 592.36,-258.63 590.95,-265.49"/>
</g>
<!-- Node5 -->
<g id="node5" class="node">
<title>Node5</title>
<g id="a_node5"><a xlink:href="../../db/d12/_distance_sensor_controller_8hpp.html" target="_top" xlink:title=" ">
<polygon fill="none" stroke="black" points="898.5,-95 898.5,-136 1101.5,-136 1101.5,-95 898.5,-95"/>
<text text-anchor="start" x="906.5" y="-124" font-family="Helvetica,sans-Serif" font-size="10.00">Components/Controller</text>
<text text-anchor="start" x="906.5" y="-113" font-family="Helvetica,sans-Serif" font-size="10.00">/DistanceSensorController</text>
<text text-anchor="middle" x="1000" y="-102" font-family="Helvetica,sans-Serif" font-size="10.00">/include/DistanceSensorController.hpp</text>
</a>
</g>
</g>
<!-- Node4&#45;&gt;Node5 -->
<g id="edge4" class="edge">
<title>Node4&#45;&gt;Node5</title>
<path fill="none" stroke="midnightblue" d="M913.55,-172.87C931.67,-161.05 952.95,-147.17 969.87,-136.14"/>
<polygon fill="midnightblue" stroke="midnightblue" points="911.41,-170.09 904.94,-178.48 915.23,-175.95 911.41,-170.09"/>
</g>
<!-- Node9 -->
<g id="node9" class="node">
<title>Node9</title>
<g id="a_node9"><a xlink:href="../../d2/d8d/_sensor_controller_base_8cpp.html" target="_top" xlink:title=" ">
<polygon fill="none" stroke="black" points="486,-95 486,-136 648,-136 648,-95 486,-95"/>
<text text-anchor="start" x="494" y="-124" font-family="Helvetica,sans-Serif" font-size="10.00">Components/Interfaces</text>
<text text-anchor="start" x="494" y="-113" font-family="Helvetica,sans-Serif" font-size="10.00">/SensorControllerBase</text>
<text text-anchor="middle" x="567" y="-102" font-family="Helvetica,sans-Serif" font-size="10.00">/src/SensorControllerBase.cpp</text>
</a>
</g>
</g>
<!-- Node4&#45;&gt;Node9 -->
<g id="edge8" class="edge">
<title>Node4&#45;&gt;Node9</title>
<path fill="none" stroke="midnightblue" d="M787,-175.92C747.23,-165.81 699.69,-153.53 657,-142 649.94,-140.09 642.59,-138.07 635.26,-136.03"/>
<polygon fill="midnightblue" stroke="midnightblue" points="786.38,-179.37 796.94,-178.44 788.1,-172.59 786.38,-179.37"/>
</g>
<!-- Node10 -->
<g id="node10" class="node">
<title>Node10</title>
<g id="a_node10"><a xlink:href="../../db/dc2/_sensor_controller_base___m_o_c_k_8hpp.html" target="_top" xlink:title=" ">
<polygon fill="none" stroke="black" points="666,-89.5 666,-141.5 842,-141.5 842,-89.5 666,-89.5"/>
<text text-anchor="start" x="674" y="-129.5" font-family="Helvetica,sans-Serif" font-size="10.00">Components/Interfaces</text>
<text text-anchor="start" x="674" y="-118.5" font-family="Helvetica,sans-Serif" font-size="10.00">/SensorControllerBase</text>
<text text-anchor="start" x="674" y="-107.5" font-family="Helvetica,sans-Serif" font-size="10.00">/test/mock/SensorControllerBase</text>
<text text-anchor="middle" x="754" y="-96.5" font-family="Helvetica,sans-Serif" font-size="10.00">_MOCK.hpp</text>
</a>
</g>
</g>
<!-- Node4&#45;&gt;Node10 -->
<g id="edge9" class="edge">
<title>Node4&#45;&gt;Node10</title>
<path fill="none" stroke="midnightblue" d="M837.65,-172.84C822.97,-162.96 806.15,-151.62 791.46,-141.73"/>
<polygon fill="midnightblue" stroke="midnightblue" points="835.77,-175.8 846.02,-178.48 839.68,-169.99 835.77,-175.8"/>
</g>
<!-- Node12 -->
<g id="node12" class="node">
<title>Node12</title>
<g id="a_node12"><a xlink:href="../../d8/d19/_sensor_controller_test_8cpp.html" target="_top" xlink:title=" ">
<polygon fill="none" stroke="black" points="587,-6 587,-47 771,-47 771,-6 587,-6"/>
<text text-anchor="start" x="595" y="-35" font-family="Helvetica,sans-Serif" font-size="10.00">Components/Interfaces</text>
<text text-anchor="start" x="595" y="-24" font-family="Helvetica,sans-Serif" font-size="10.00">/SensorControllerBase</text>
<text text-anchor="middle" x="679" y="-13" font-family="Helvetica,sans-Serif" font-size="10.00">/test/test/SensorControllerTest.cpp</text>
</a>
</g>
</g>
<!-- Node4&#45;&gt;Node12 -->
<g id="edge12" class="edge">
<title>Node4&#45;&gt;Node12</title>
<path fill="none" stroke="midnightblue" d="M875.93,-168.13C875.08,-144.02 870.08,-110.66 851,-89 837.69,-73.89 795.26,-58.63 755.87,-47.1"/>
<polygon fill="midnightblue" stroke="midnightblue" points="872.43,-168.2 876.06,-178.15 879.43,-168.11 872.43,-168.2"/>
</g>
<!-- Node13 -->
<g id="node13" class="node">
<title>Node13</title>
<g id="a_node13"><a xlink:href="../../d0/dc1/_data_broker_8hpp.html" target="_top" xlink:title=" ">
<polygon fill="none" stroke="black" points="1120,-95 1120,-136 1238,-136 1238,-95 1120,-95"/>
<text text-anchor="start" x="1128" y="-124" font-family="Helvetica,sans-Serif" font-size="10.00">Components/Objects</text>
<text text-anchor="start" x="1128" y="-113" font-family="Helvetica,sans-Serif" font-size="10.00">/DataBroker/include</text>
<text text-anchor="middle" x="1179" y="-102" font-family="Helvetica,sans-Serif" font-size="10.00">/DataBroker.hpp</text>
</a>
</g>
</g>
<!-- Node4&#45;&gt;Node13 -->
<g id="edge13" class="edge">
<title>Node4&#45;&gt;Node13</title>
<path fill="none" stroke="midnightblue" d="M976.98,-176.75C1018.83,-167.27 1067.56,-155.24 1111,-142 1116.91,-140.2 1123.05,-138.15 1129.11,-136.02"/>
<polygon fill="midnightblue" stroke="midnightblue" points="976.05,-173.37 967.06,-178.98 977.58,-180.2 976.05,-173.37"/>
</g>
<!-- Node6 -->
<g id="node6" class="node">
<title>Node6</title>
<g id="a_node6"><a xlink:href="../../dd/dde/_distance_sensor_controller_8cpp.html" target="_top" xlink:title=" ">
<polygon fill="none" stroke="black" points="994.5,-6 994.5,-47 1175.5,-47 1175.5,-6 994.5,-6"/>
<text text-anchor="start" x="1002.5" y="-35" font-family="Helvetica,sans-Serif" font-size="10.00">Components/Controller</text>
<text text-anchor="start" x="1002.5" y="-24" font-family="Helvetica,sans-Serif" font-size="10.00">/DistanceSensorController</text>
<text text-anchor="middle" x="1085" y="-13" font-family="Helvetica,sans-Serif" font-size="10.00">/src/DistanceSensorController.cpp</text>
</a>
</g>
</g>
<!-- Node5&#45;&gt;Node6 -->
<g id="edge5" class="edge">
<title>Node5&#45;&gt;Node6</title>
<path fill="none" stroke="midnightblue" d="M1026.48,-87.4C1039.2,-74.37 1054.17,-59.05 1065.79,-47.16"/>
<polygon fill="midnightblue" stroke="midnightblue" points="1023.77,-85.16 1019.29,-94.76 1028.78,-90.05 1023.77,-85.16"/>
</g>
<!-- Node7 -->
<g id="node7" class="node">
<title>Node7</title>
<g id="a_node7"><a xlink:href="../../d7/d91/_distance_sensor_controller__test_8cpp.html" target="_top" xlink:title=" ">
<polygon fill="none" stroke="black" points="789.5,-0.5 789.5,-52.5 976.5,-52.5 976.5,-0.5 789.5,-0.5"/>
<text text-anchor="start" x="797.5" y="-40.5" font-family="Helvetica,sans-Serif" font-size="10.00">Components/Controller</text>
<text text-anchor="start" x="797.5" y="-29.5" font-family="Helvetica,sans-Serif" font-size="10.00">/DistanceSensorController</text>
<text text-anchor="start" x="797.5" y="-18.5" font-family="Helvetica,sans-Serif" font-size="10.00">/test/test/DistanceSensorController</text>
<text text-anchor="middle" x="883" y="-7.5" font-family="Helvetica,sans-Serif" font-size="10.00">_test.cpp</text>
</a>
</g>
</g>
<!-- Node5&#45;&gt;Node7 -->
<g id="edge6" class="edge">
<title>Node5&#45;&gt;Node7</title>
<path fill="none" stroke="midnightblue" d="M965.5,-88.85C950.11,-77.4 932.04,-63.96 916.73,-52.58"/>
<polygon fill="midnightblue" stroke="midnightblue" points="963.63,-91.82 973.74,-94.98 967.81,-86.2 963.63,-91.82"/>
</g>
<!-- Node8 -->
<g id="node8" class="node">
<title>Node8</title>
<g id="a_node8"><a xlink:href="../../da/d75/_data_broker__test_8cpp.html" target="_top" xlink:title=" ">
<polygon fill="none" stroke="black" points="1193.5,-6 1193.5,-47 1312.5,-47 1312.5,-6 1193.5,-6"/>
<text text-anchor="start" x="1201.5" y="-35" font-family="Helvetica,sans-Serif" font-size="10.00">Components/Objects</text>
<text text-anchor="start" x="1201.5" y="-24" font-family="Helvetica,sans-Serif" font-size="10.00">/DataBroker/test/test</text>
<text text-anchor="middle" x="1253" y="-13" font-family="Helvetica,sans-Serif" font-size="10.00">/DataBroker_test.cpp</text>
</a>
</g>
</g>
<!-- Node5&#45;&gt;Node8 -->
<g id="edge7" class="edge">
<title>Node5&#45;&gt;Node8</title>
<path fill="none" stroke="midnightblue" d="M1070.17,-91.87C1104.83,-80.51 1147.23,-66.36 1185,-53 1190.35,-51.11 1195.92,-49.09 1201.47,-47.06"/>
<polygon fill="midnightblue" stroke="midnightblue" points="1069.02,-88.56 1060.6,-94.99 1071.2,-95.21 1069.02,-88.56"/>
</g>
<!-- Node11 -->
<g id="node11" class="node">
<title>Node11</title>
<g id="a_node11"><a xlink:href="../../dc/d0f/_sensor_controller_base___m_o_c_k_8cpp.html" target="_top" xlink:title=" ">
<polygon fill="none" stroke="black" points="393,-0.5 393,-52.5 569,-52.5 569,-0.5 393,-0.5"/>
<text text-anchor="start" x="401" y="-40.5" font-family="Helvetica,sans-Serif" font-size="10.00">Components/Interfaces</text>
<text text-anchor="start" x="401" y="-29.5" font-family="Helvetica,sans-Serif" font-size="10.00">/SensorControllerBase</text>
<text text-anchor="start" x="401" y="-18.5" font-family="Helvetica,sans-Serif" font-size="10.00">/test/mock/SensorControllerBase</text>
<text text-anchor="middle" x="481" y="-7.5" font-family="Helvetica,sans-Serif" font-size="10.00">_MOCK.cpp</text>
</a>
</g>
</g>
<!-- Node10&#45;&gt;Node11 -->
<g id="edge10" class="edge">
<title>Node10&#45;&gt;Node11</title>
<path fill="none" stroke="midnightblue" d="M665.44,-86.28C631.32,-75.4 592.62,-63.07 559.51,-52.52"/>
<polygon fill="midnightblue" stroke="midnightblue" points="664.81,-89.75 675.4,-89.45 666.94,-83.08 664.81,-89.75"/>
</g>
<!-- Node10&#45;&gt;Node12 -->
<g id="edge11" class="edge">
<title>Node10&#45;&gt;Node12</title>
<path fill="none" stroke="midnightblue" d="M725.56,-81.51C715.56,-69.9 704.63,-57.23 695.88,-47.08"/>
<polygon fill="midnightblue" stroke="midnightblue" points="723.13,-84.05 732.31,-89.34 728.43,-79.48 723.13,-84.05"/>
</g>
<!-- Node13&#45;&gt;Node8 -->
<g id="edge15" class="edge">
<title>Node13&#45;&gt;Node8</title>
<path fill="none" stroke="midnightblue" d="M1202.36,-87.03C1213.37,-74.09 1226.26,-58.94 1236.27,-47.16"/>
<polygon fill="midnightblue" stroke="midnightblue" points="1199.6,-84.87 1195.79,-94.76 1204.94,-89.41 1199.6,-84.87"/>
</g>
<!-- Node14 -->
<g id="node14" class="node">
<title>Node14</title>
<g id="a_node14"><a xlink:href="../../d4/ddc/_data_broker_8cpp.html" target="_top" xlink:title=" ">
<polygon fill="none" stroke="black" points="1331,-11.5 1331,-41.5 1501,-41.5 1501,-11.5 1331,-11.5"/>
<text text-anchor="start" x="1339" y="-29.5" font-family="Helvetica,sans-Serif" font-size="10.00">Components/Objects</text>
<text text-anchor="middle" x="1416" y="-18.5" font-family="Helvetica,sans-Serif" font-size="10.00">/DataBroker/src/DataBroker.cpp</text>
</a>
</g>
</g>
<!-- Node13&#45;&gt;Node14 -->
<g id="edge14" class="edge">
<title>Node13&#45;&gt;Node14</title>
<path fill="none" stroke="midnightblue" d="M1240.56,-91.38C1242.74,-90.58 1244.89,-89.78 1247,-89 1291.52,-72.55 1342.75,-53.96 1377.03,-41.56"/>
<polygon fill="midnightblue" stroke="midnightblue" points="1239.11,-88.19 1230.96,-94.96 1241.55,-94.75 1239.11,-88.19"/>
</g>
<!-- Node15&#45;&gt;Node13 -->
<g id="edge18" class="edge">
<title>Node15&#45;&gt;Node13</title>
<path fill="none" stroke="midnightblue" d="M1175.2,-168.06C1175.99,-157.38 1176.86,-145.63 1177.56,-136.05"/>
<polygon fill="midnightblue" stroke="midnightblue" points="1171.7,-168.04 1174.45,-178.27 1178.68,-168.56 1171.7,-168.04"/>
</g>
<!-- Node16 -->
<g id="node16" class="node">
<title>Node16</title>
<g id="a_node16"><a xlink:href="../../dc/d1d/_service__test_8cpp.html" target="_top" xlink:title=" ">
<polygon fill="none" stroke="black" points="1432,-95 1432,-136 1562,-136 1562,-95 1432,-95"/>
<text text-anchor="start" x="1440" y="-124" font-family="Helvetica,sans-Serif" font-size="10.00">Components/Interfaces</text>
<text text-anchor="start" x="1440" y="-113" font-family="Helvetica,sans-Serif" font-size="10.00">/ServiceBase/test/test</text>
<text text-anchor="middle" x="1497" y="-102" font-family="Helvetica,sans-Serif" font-size="10.00">/Service_test.cpp</text>
</a>
</g>
</g>
<!-- Node15&#45;&gt;Node16 -->
<g id="edge17" class="edge">
<title>Node15&#45;&gt;Node16</title>
<path fill="none" stroke="midnightblue" d="M1248.14,-177.81C1326.44,-159.81 1348.99,-162.23 1423,-142 1429.42,-140.24 1436.1,-138.23 1442.69,-136.11"/>
<polygon fill="midnightblue" stroke="midnightblue" points="1247.25,-174.43 1238.31,-180.11 1248.85,-181.24 1247.25,-174.43"/>
</g>
<!-- Node17 -->
<g id="node17" class="node">
<title>Node17</title>
<g id="a_node17"><a xlink:href="../../dd/d22/_water_estimator___service_8hpp.html" target="_top" xlink:title=" ">
<polygon fill="none" stroke="black" points="1256,-95 1256,-136 1414,-136 1414,-95 1256,-95"/>
<text text-anchor="start" x="1264" y="-124" font-family="Helvetica,sans-Serif" font-size="10.00">Components/Service</text>
<text text-anchor="start" x="1264" y="-113" font-family="Helvetica,sans-Serif" font-size="10.00">/WaterEstimator/include</text>
<text text-anchor="middle" x="1335" y="-102" font-family="Helvetica,sans-Serif" font-size="10.00">/WaterEstimator_Service.hpp</text>
</a>
</g>
</g>
<!-- Node15&#45;&gt;Node17 -->
<g id="edge19" class="edge">
<title>Node15&#45;&gt;Node17</title>
<path fill="none" stroke="midnightblue" d="M1220.76,-173.97C1244.81,-161.87 1273.58,-147.4 1296.23,-136"/>
<polygon fill="midnightblue" stroke="midnightblue" points="1219.16,-170.86 1211.8,-178.48 1222.31,-177.11 1219.16,-170.86"/>
</g>
<!-- Node18 -->
<g id="node18" class="node">
<title>Node18</title>
<g id="a_node18"><a xlink:href="../../dd/dd3/_water_estimator___service_8cpp.html" target="_top" xlink:title=" ">
<polygon fill="none" stroke="black" points="1519,-6 1519,-47 1677,-47 1677,-6 1519,-6"/>
<text text-anchor="start" x="1527" y="-35" font-family="Helvetica,sans-Serif" font-size="10.00">Components/Service</text>
<text text-anchor="start" x="1527" y="-24" font-family="Helvetica,sans-Serif" font-size="10.00">/WaterEstimator/src</text>
<text text-anchor="middle" x="1598" y="-13" font-family="Helvetica,sans-Serif" font-size="10.00">/WaterEstimator_Service.cpp</text>
</a>
</g>
</g>
<!-- Node17&#45;&gt;Node18 -->
<g id="edge20" class="edge">
<title>Node17&#45;&gt;Node18</title>
<path fill="none" stroke="midnightblue" d="M1403.61,-91.81C1445.53,-77.94 1498.62,-60.37 1538.72,-47.11"/>
<polygon fill="midnightblue" stroke="midnightblue" points="1402.42,-88.51 1394.02,-94.98 1404.62,-95.16 1402.42,-88.51"/>
</g>
<!-- Node22 -->
<g id="node22" class="node">
<title>Node22</title>
<g id="a_node22"><a xlink:href="../../dd/ddd/_maintainer_8cpp.html" target="_top" xlink:title=" ">
<polygon fill="none" stroke="black" points="136.5,-100.5 136.5,-130.5 301.5,-130.5 301.5,-100.5 136.5,-100.5"/>
<text text-anchor="start" x="144.5" y="-118.5" font-family="Helvetica,sans-Serif" font-size="10.00">Components/Objects</text>
<text text-anchor="middle" x="219" y="-107.5" font-family="Helvetica,sans-Serif" font-size="10.00">/Maintainer/src/Maintainer.cpp</text>
</a>
</g>
</g>
<!-- Node21&#45;&gt;Node22 -->
<g id="edge24" class="edge">
<title>Node21&#45;&gt;Node22</title>
<path fill="none" stroke="midnightblue" d="M301.77,-172.71C281.29,-158.81 256.66,-142.08 239.62,-130.5"/>
<polygon fill="midnightblue" stroke="midnightblue" points="300.02,-175.76 310.26,-178.48 303.95,-169.96 300.02,-175.76"/>
</g>
<!-- Node23 -->
<g id="node23" class="node">
<title>Node23</title>
<g id="a_node23"><a xlink:href="../../d8/d4a/maintainer__test_8cpp.html" target="_top" xlink:title=" ">
<polygon fill="none" stroke="black" points="0,-95 0,-136 118,-136 118,-95 0,-95"/>
<text text-anchor="start" x="8" y="-124" font-family="Helvetica,sans-Serif" font-size="10.00">Components/Objects</text>
<text text-anchor="start" x="8" y="-113" font-family="Helvetica,sans-Serif" font-size="10.00">/Maintainer/test/test</text>
<text text-anchor="middle" x="59" y="-102" font-family="Helvetica,sans-Serif" font-size="10.00">/maintainer_test.cpp</text>
</a>
</g>
</g>
<!-- Node21&#45;&gt;Node23 -->
<g id="edge25" class="edge">
<title>Node21&#45;&gt;Node23</title>
<path fill="none" stroke="midnightblue" d="M269.82,-181.59C228.14,-171.25 174.18,-157.04 127,-142 121.23,-140.16 115.24,-138.12 109.3,-136.01"/>
<polygon fill="midnightblue" stroke="midnightblue" points="269.05,-185.01 279.6,-184.01 270.73,-178.21 269.05,-185.01"/>
</g>
<!-- Node21&#45;&gt;Node24 -->
<g id="edge26" class="edge">
<title>Node21&#45;&gt;Node24</title>
<path fill="none" stroke="midnightblue" d="M358.08,-169.72C365.58,-158.61 374,-146.13 380.81,-136.05"/>
<polygon fill="midnightblue" stroke="midnightblue" points="355.01,-168.02 352.31,-178.27 360.81,-171.94 355.01,-168.02"/>
</g>
<!-- Node25 -->
<g id="node25" class="node">
<title>Node25</title>
<g id="a_node25"><a xlink:href="../../d2/d77/_active_current_sensor_8cpp.html" target="_top" xlink:title=" ">
<polygon fill="none" stroke="black" points="201.5,-6 201.5,-47 374.5,-47 374.5,-6 201.5,-6"/>
<text text-anchor="start" x="209.5" y="-35" font-family="Helvetica,sans-Serif" font-size="10.00">Components/Sensor/Active</text>
<text text-anchor="start" x="209.5" y="-24" font-family="Helvetica,sans-Serif" font-size="10.00">CurrentSensor/src/ActiveCurrent</text>
<text text-anchor="middle" x="288" y="-13" font-family="Helvetica,sans-Serif" font-size="10.00">Sensor.cpp</text>
</a>
</g>
</g>
<!-- Node24&#45;&gt;Node25 -->
<g id="edge27" class="edge">
<title>Node24&#45;&gt;Node25</title>
<path fill="none" stroke="midnightblue" d="M362.13,-88.34C346.06,-75.15 326.89,-59.42 312.08,-47.26"/>
<polygon fill="midnightblue" stroke="midnightblue" points="360.26,-91.34 370.21,-94.98 364.7,-85.93 360.26,-91.34"/>
</g>
<!-- Node27 -->
<g id="node27" class="node">
<title>Node27</title>
<g id="a_node27"><a xlink:href="../../d0/db0/hal__mqtt__log_8cpp.html" target="_top" xlink:title=" ">
<polygon fill="none" stroke="black" points="1256,-178.5 1256,-219.5 1374,-219.5 1374,-178.5 1256,-178.5"/>
<text text-anchor="start" x="1264" y="-207.5" font-family="Helvetica,sans-Serif" font-size="10.00">Components/Objects</text>
<text text-anchor="start" x="1264" y="-196.5" font-family="Helvetica,sans-Serif" font-size="10.00">/Logger/src/hal_mqtt</text>
<text text-anchor="middle" x="1315" y="-185.5" font-family="Helvetica,sans-Serif" font-size="10.00">_log.cpp</text>
</a>
</g>
</g>
<!-- Node26&#45;&gt;Node27 -->
<g id="edge31" class="edge">
<title>Node26&#45;&gt;Node27</title>
<path fill="none" stroke="midnightblue" d="M1291.27,-247.47C1295.93,-238.14 1301,-228.01 1305.25,-219.51"/>
<polygon fill="midnightblue" stroke="midnightblue" points="1288.13,-245.92 1286.79,-256.43 1294.39,-249.05 1288.13,-245.92"/>
</g>
</g>
</svg>
