<?xml version="1.0" encoding="UTF-8" standalone="no"?>
<!DOCTYPE svg PUBLIC "-//W3C//DTD SVG 1.1//EN"
 "http://www.w3.org/Graphics/SVG/1.1/DTD/svg11.dtd">
<!-- Generated by graphviz version 2.43.0 (0)
 -->
<!-- Title: Components/Objects/OTA/include/OTA.hpp Pages: 1 -->
<svg width="2505pt" height="529pt"
 viewBox="0.00 0.00 2504.50 529.00" xmlns="http://www.w3.org/2000/svg" xmlns:xlink="http://www.w3.org/1999/xlink">
<g id="graph0" class="graph" transform="scale(1 1) rotate(0) translate(4 525)">
<title>Components/Objects/OTA/include/OTA.hpp</title>
<!-- Node1 -->
<g id="node1" class="node">
<title>Node1</title>
<g id="a_node1"><a xlink:title=" ">
<polygon fill="#bfbfbf" stroke="black" points="2165.5,-490.5 2165.5,-520.5 2286.5,-520.5 2286.5,-490.5 2165.5,-490.5"/>
<text text-anchor="start" x="2173.5" y="-508.5" font-family="Helvetica,sans-Serif" font-size="10.00">Components/Objects</text>
<text text-anchor="middle" x="2226" y="-497.5" font-family="Helvetica,sans-Serif" font-size="10.00">/OTA/include/OTA.hpp</text>
</a>
</g>
</g>
<!-- Node2 -->
<g id="node2" class="node">
<title>Node2</title>
<g id="a_node2"><a xlink:href="../../d4/d63/mqtt__api__v2_8hpp.html" target="_top" xlink:title=" ">
<polygon fill="none" stroke="black" points="1630.5,-412.5 1630.5,-453.5 1763.5,-453.5 1763.5,-412.5 1630.5,-412.5"/>
<text text-anchor="start" x="1638.5" y="-441.5" font-family="Helvetica,sans-Serif" font-size="10.00">Components/Protocols</text>
<text text-anchor="start" x="1638.5" y="-430.5" font-family="Helvetica,sans-Serif" font-size="10.00">/MQTT/include/mqtt_api</text>
<text text-anchor="middle" x="1697" y="-419.5" font-family="Helvetica,sans-Serif" font-size="10.00">_v2.hpp</text>
</a>
</g>
</g>
<!-- Node1&#45;&gt;Node2 -->
<g id="edge1" class="edge">
<title>Node1&#45;&gt;Node2</title>
<path fill="none" stroke="midnightblue" d="M2155.36,-495.09C2052.77,-481.41 1863.87,-456.24 1763.6,-442.88"/>
<polygon fill="midnightblue" stroke="midnightblue" points="2154.94,-498.56 2165.32,-496.41 2155.87,-491.62 2154.94,-498.56"/>
</g>
<!-- Node29 -->
<g id="node29" class="node">
<title>Node29</title>
<g id="a_node29"><a xlink:href="../../d0/d6a/_maintainer_8hpp.html" target="_top" xlink:title=" ">
<polygon fill="none" stroke="black" points="1564,-256.5 1564,-297.5 1682,-297.5 1682,-256.5 1564,-256.5"/>
<text text-anchor="start" x="1572" y="-285.5" font-family="Helvetica,sans-Serif" font-size="10.00">Components/Objects</text>
<text text-anchor="start" x="1572" y="-274.5" font-family="Helvetica,sans-Serif" font-size="10.00">/Maintainer/include</text>
<text text-anchor="middle" x="1623" y="-263.5" font-family="Helvetica,sans-Serif" font-size="10.00">/Maintainer.hpp</text>
</a>
</g>
</g>
<!-- Node1&#45;&gt;Node29 -->
<g id="edge45" class="edge">
<title>Node1&#45;&gt;Node29</title>
<path fill="none" stroke="midnightblue" d="M2213.99,-480.95C2209.93,-472.56 2205.53,-462.96 2202,-454 2181.5,-401.95 2207.73,-368.89 2164,-334 2088.17,-273.51 1825.12,-311.01 1729,-298 1713.78,-295.94 1697.44,-293.15 1682.25,-290.3"/>
<polygon fill="midnightblue" stroke="midnightblue" points="2210.96,-482.73 2218.53,-490.15 2217.24,-479.63 2210.96,-482.73"/>
</g>
<!-- Node38 -->
<g id="node38" class="node">
<title>Node38</title>
<g id="a_node38"><a xlink:href="../../d9/d42/_o_t_a_8cpp.html" target="_top" xlink:title=" ">
<polygon fill="none" stroke="black" points="2211,-418 2211,-448 2329,-448 2329,-418 2211,-418"/>
<text text-anchor="start" x="2219" y="-436" font-family="Helvetica,sans-Serif" font-size="10.00">Components/Objects</text>
<text text-anchor="middle" x="2270" y="-425" font-family="Helvetica,sans-Serif" font-size="10.00">/OTA/src/OTA.cpp</text>
</a>
</g>
</g>
<!-- Node1&#45;&gt;Node38 -->
<g id="edge46" class="edge">
<title>Node1&#45;&gt;Node38</title>
<path fill="none" stroke="midnightblue" d="M2240.32,-481.56C2247.17,-470.59 2255.15,-457.8 2261.11,-448.25"/>
<polygon fill="midnightblue" stroke="midnightblue" points="2237.23,-479.9 2234.9,-490.23 2243.17,-483.6 2237.23,-479.9"/>
</g>
<!-- Node39 -->
<g id="node39" class="node">
<title>Node39</title>
<g id="a_node39"><a xlink:href="../../d8/d80/_o_t_a__test_8cpp.html" target="_top" xlink:title=" ">
<polygon fill="none" stroke="black" points="2347.5,-418 2347.5,-448 2496.5,-448 2496.5,-418 2347.5,-418"/>
<text text-anchor="start" x="2355.5" y="-436" font-family="Helvetica,sans-Serif" font-size="10.00">Components/Objects</text>
<text text-anchor="middle" x="2422" y="-425" font-family="Helvetica,sans-Serif" font-size="10.00">/OTA/test/test/OTA_test.cpp</text>
</a>
</g>
</g>
<!-- Node1&#45;&gt;Node39 -->
<g id="edge47" class="edge">
<title>Node1&#45;&gt;Node39</title>
<path fill="none" stroke="midnightblue" d="M2274.75,-486.96C2308.12,-474.96 2351.78,-459.26 2382.88,-448.07"/>
<polygon fill="midnightblue" stroke="midnightblue" points="2273.42,-483.72 2265.19,-490.4 2275.79,-490.31 2273.42,-483.72"/>
</g>
<!-- Node3 -->
<g id="node3" class="node">
<title>Node3</title>
<g id="a_node3"><a xlink:href="../../d3/d0d/_error_code_parser_8hpp.html" target="_top" xlink:title=" ">
<polygon fill="none" stroke="black" points="1333.5,-334.5 1333.5,-375.5 1452.5,-375.5 1452.5,-334.5 1333.5,-334.5"/>
<text text-anchor="start" x="1341.5" y="-363.5" font-family="Helvetica,sans-Serif" font-size="10.00">Components/Objects</text>
<text text-anchor="start" x="1341.5" y="-352.5" font-family="Helvetica,sans-Serif" font-size="10.00">/ErrorHandler/include</text>
<text text-anchor="middle" x="1393" y="-341.5" font-family="Helvetica,sans-Serif" font-size="10.00">/ErrorCodeParser.hpp</text>
</a>
</g>
</g>
<!-- Node2&#45;&gt;Node3 -->
<g id="edge2" class="edge">
<title>Node2&#45;&gt;Node3</title>
<path fill="none" stroke="midnightblue" d="M1620.43,-412.86C1568.42,-399.85 1500.61,-382.9 1452.61,-370.9"/>
<polygon fill="midnightblue" stroke="midnightblue" points="1619.74,-416.29 1630.29,-415.32 1621.43,-409.5 1619.74,-416.29"/>
</g>
<!-- Node4 -->
<g id="node4" class="node">
<title>Node4</title>
<g id="a_node4"><a xlink:href="../../d9/d1c/_sensor_controller_base_8hpp.html" target="_top" xlink:title=" ">
<polygon fill="none" stroke="black" points="751,-256.5 751,-297.5 935,-297.5 935,-256.5 751,-256.5"/>
<text text-anchor="start" x="759" y="-285.5" font-family="Helvetica,sans-Serif" font-size="10.00">Components/Interfaces</text>
<text text-anchor="start" x="759" y="-274.5" font-family="Helvetica,sans-Serif" font-size="10.00">/SensorControllerBase</text>
<text text-anchor="middle" x="843" y="-263.5" font-family="Helvetica,sans-Serif" font-size="10.00">/include/SensorControllerBase.hpp</text>
</a>
</g>
</g>
<!-- Node2&#45;&gt;Node4 -->
<g id="edge37" class="edge">
<title>Node2&#45;&gt;Node4</title>
<path fill="none" stroke="midnightblue" d="M1620.03,-425.7C1527.61,-417.46 1368.15,-401.03 1233,-376 1118.19,-354.73 986.93,-319.43 909.72,-297.5"/>
<polygon fill="midnightblue" stroke="midnightblue" points="1619.87,-429.2 1630.14,-426.6 1620.48,-422.23 1619.87,-429.2"/>
</g>
<!-- Node15 -->
<g id="node15" class="node">
<title>Node15</title>
<g id="a_node15"><a xlink:href="../../d2/dc5/_service_base_8hpp.html" target="_top" xlink:title=" ">
<polygon fill="none" stroke="black" points="1088,-256.5 1088,-297.5 1218,-297.5 1218,-256.5 1088,-256.5"/>
<text text-anchor="start" x="1096" y="-285.5" font-family="Helvetica,sans-Serif" font-size="10.00">Components/Interfaces</text>
<text text-anchor="start" x="1096" y="-274.5" font-family="Helvetica,sans-Serif" font-size="10.00">/ServiceBase/include</text>
<text text-anchor="middle" x="1153" y="-263.5" font-family="Helvetica,sans-Serif" font-size="10.00">/ServiceBase.hpp</text>
</a>
</g>
</g>
<!-- Node2&#45;&gt;Node15 -->
<g id="edge38" class="edge">
<title>Node2&#45;&gt;Node15</title>
<path fill="none" stroke="midnightblue" d="M1620.13,-428.76C1543.29,-423.62 1422.7,-410.33 1324,-376 1269.38,-357 1212.35,-320.38 1179.9,-297.68"/>
<polygon fill="midnightblue" stroke="midnightblue" points="1620.01,-432.26 1630.21,-429.41 1620.45,-425.27 1620.01,-432.26"/>
</g>
<!-- Node2&#45;&gt;Node29 -->
<g id="edge41" class="edge">
<title>Node2&#45;&gt;Node29</title>
<path fill="none" stroke="midnightblue" d="M1683.15,-403.17C1668.38,-372.43 1645.39,-324.59 1632.53,-297.83"/>
<polygon fill="midnightblue" stroke="midnightblue" points="1680.14,-405 1687.63,-412.5 1686.45,-401.97 1680.14,-405"/>
</g>
<!-- Node32 -->
<g id="node32" class="node">
<title>Node32</title>
<g id="a_node32"><a xlink:href="../../dd/d82/_active_current_sensor_8hpp.html" target="_top" xlink:title=" ">
<polygon fill="none" stroke="black" points="1702,-173 1702,-214 1850,-214 1850,-173 1702,-173"/>
<text text-anchor="start" x="1710" y="-202" font-family="Helvetica,sans-Serif" font-size="10.00">Components/Sensor/Active</text>
<text text-anchor="start" x="1710" y="-191" font-family="Helvetica,sans-Serif" font-size="10.00">CurrentSensor/include</text>
<text text-anchor="middle" x="1776" y="-180" font-family="Helvetica,sans-Serif" font-size="10.00">/ActiveCurrentSensor.hpp</text>
</a>
</g>
</g>
<!-- Node2&#45;&gt;Node32 -->
<g id="edge44" class="edge">
<title>Node2&#45;&gt;Node32</title>
<path fill="none" stroke="midnightblue" d="M1698.18,-402.06C1700.55,-366 1707.67,-304.27 1729,-256 1735.79,-240.64 1747.16,-225.61 1757.01,-214.26"/>
<polygon fill="midnightblue" stroke="midnightblue" points="1694.67,-402.2 1697.59,-412.38 1701.66,-402.6 1694.67,-402.2"/>
</g>
<!-- Node34 -->
<g id="node34" class="node">
<title>Node34</title>
<g id="a_node34"><a xlink:href="../../d7/d44/hal__mqtt__log_8hpp.html" target="_top" xlink:title=" ">
<polygon fill="none" stroke="black" points="1725,-334.5 1725,-375.5 1843,-375.5 1843,-334.5 1725,-334.5"/>
<text text-anchor="start" x="1733" y="-363.5" font-family="Helvetica,sans-Serif" font-size="10.00">Components/Objects</text>
<text text-anchor="start" x="1733" y="-352.5" font-family="Helvetica,sans-Serif" font-size="10.00">/Logger/include/hal</text>
<text text-anchor="middle" x="1784" y="-341.5" font-family="Helvetica,sans-Serif" font-size="10.00">_mqtt_log.hpp</text>
</a>
</g>
</g>
<!-- Node2&#45;&gt;Node34 -->
<g id="edge39" class="edge">
<title>Node2&#45;&gt;Node34</title>
<path fill="none" stroke="midnightblue" d="M1727.02,-405.78C1738.39,-395.84 1751.13,-384.72 1761.67,-375.51"/>
<polygon fill="midnightblue" stroke="midnightblue" points="1724.63,-403.21 1719.4,-412.43 1729.24,-408.49 1724.63,-403.21"/>
</g>
<!-- Node36 -->
<g id="node36" class="node">
<title>Node36</title>
<g id="a_node36"><a xlink:href="../../d3/dc1/mqtt__api__v2_8cpp.html" target="_top" xlink:title=" ">
<polygon fill="none" stroke="black" points="1861.5,-340 1861.5,-370 2010.5,-370 2010.5,-340 1861.5,-340"/>
<text text-anchor="start" x="1869.5" y="-358" font-family="Helvetica,sans-Serif" font-size="10.00">Components/Protocols</text>
<text text-anchor="middle" x="1936" y="-347" font-family="Helvetica,sans-Serif" font-size="10.00">/MQTT/src/mqtt_api_v2.cpp</text>
</a>
</g>
</g>
<!-- Node2&#45;&gt;Node36 -->
<g id="edge42" class="edge">
<title>Node2&#45;&gt;Node36</title>
<path fill="none" stroke="midnightblue" d="M1768.26,-409.34C1808.31,-396.6 1857.04,-381.11 1891.64,-370.11"/>
<polygon fill="midnightblue" stroke="midnightblue" points="1767.02,-406.06 1758.55,-412.43 1769.14,-412.73 1767.02,-406.06"/>
</g>
<!-- Node37 -->
<g id="node37" class="node">
<title>Node37</title>
<g id="a_node37"><a xlink:href="../../df/df3/mqtt__v2__test_8cpp.html" target="_top" xlink:title=" ">
<polygon fill="none" stroke="black" points="2029,-334.5 2029,-375.5 2155,-375.5 2155,-334.5 2029,-334.5"/>
<text text-anchor="start" x="2037" y="-363.5" font-family="Helvetica,sans-Serif" font-size="10.00">Components/Protocols</text>
<text text-anchor="start" x="2037" y="-352.5" font-family="Helvetica,sans-Serif" font-size="10.00">/MQTT/test/test/mqtt</text>
<text text-anchor="middle" x="2092" y="-341.5" font-family="Helvetica,sans-Serif" font-size="10.00">_v2_test.cpp</text>
</a>
</g>
</g>
<!-- Node2&#45;&gt;Node37 -->
<g id="edge43" class="edge">
<title>Node2&#45;&gt;Node37</title>
<path fill="none" stroke="midnightblue" d="M1773.84,-420.88C1839.55,-410.84 1936.46,-394.8 2020,-376 2022.91,-375.35 2025.88,-374.65 2028.87,-373.92"/>
<polygon fill="midnightblue" stroke="midnightblue" points="1772.93,-417.47 1763.57,-422.44 1773.98,-424.4 1772.93,-417.47"/>
</g>
<!-- Node3&#45;&gt;Node4 -->
<g id="edge3" class="edge">
<title>Node3&#45;&gt;Node4</title>
<path fill="none" stroke="midnightblue" d="M1323.21,-344.36C1224.73,-330.75 1044.8,-305.89 935.34,-290.76"/>
<polygon fill="midnightblue" stroke="midnightblue" points="1322.97,-347.86 1333.36,-345.76 1323.93,-340.92 1322.97,-347.86"/>
</g>
<!-- Node3&#45;&gt;Node15 -->
<g id="edge16" class="edge">
<title>Node3&#45;&gt;Node15</title>
<path fill="none" stroke="midnightblue" d="M1323.41,-331.96C1289.09,-321.1 1248.05,-308.1 1214.84,-297.58"/>
<polygon fill="midnightblue" stroke="midnightblue" points="1322.78,-335.43 1333.37,-335.12 1324.89,-328.76 1322.78,-335.43"/>
</g>
<!-- Node27 -->
<g id="node27" class="node">
<title>Node27</title>
<g id="a_node27"><a xlink:href="../../d2/df5/_error_code_parser_8cpp.html" target="_top" xlink:title=" ">
<polygon fill="none" stroke="black" points="1236.5,-256.5 1236.5,-297.5 1385.5,-297.5 1385.5,-256.5 1236.5,-256.5"/>
<text text-anchor="start" x="1244.5" y="-285.5" font-family="Helvetica,sans-Serif" font-size="10.00">Components/Objects</text>
<text text-anchor="start" x="1244.5" y="-274.5" font-family="Helvetica,sans-Serif" font-size="10.00">/ErrorHandler/src/ErrorCode</text>
<text text-anchor="middle" x="1311" y="-263.5" font-family="Helvetica,sans-Serif" font-size="10.00">Parser.cpp</text>
</a>
</g>
</g>
<!-- Node3&#45;&gt;Node27 -->
<g id="edge30" class="edge">
<title>Node3&#45;&gt;Node27</title>
<path fill="none" stroke="midnightblue" d="M1364.4,-327.49C1353.76,-317.63 1341.89,-306.63 1332.05,-297.51"/>
<polygon fill="midnightblue" stroke="midnightblue" points="1362.17,-330.2 1371.88,-334.43 1366.93,-325.06 1362.17,-330.2"/>
</g>
<!-- Node28 -->
<g id="node28" class="node">
<title>Node28</title>
<g id="a_node28"><a xlink:href="../../d9/db8/_error_code_parser__test_8cpp.html" target="_top" xlink:title=" ">
<polygon fill="none" stroke="black" points="1404,-256.5 1404,-297.5 1546,-297.5 1546,-256.5 1404,-256.5"/>
<text text-anchor="start" x="1412" y="-285.5" font-family="Helvetica,sans-Serif" font-size="10.00">Components/Objects</text>
<text text-anchor="start" x="1412" y="-274.5" font-family="Helvetica,sans-Serif" font-size="10.00">/ErrorHandler/test/test</text>
<text text-anchor="middle" x="1475" y="-263.5" font-family="Helvetica,sans-Serif" font-size="10.00">/ErrorCodeParser_test.cpp</text>
</a>
</g>
</g>
<!-- Node3&#45;&gt;Node28 -->
<g id="edge31" class="edge">
<title>Node3&#45;&gt;Node28</title>
<path fill="none" stroke="midnightblue" d="M1421.6,-327.49C1432.24,-317.63 1444.11,-306.63 1453.95,-297.51"/>
<polygon fill="midnightblue" stroke="midnightblue" points="1419.07,-325.06 1414.12,-334.43 1423.83,-330.2 1419.07,-325.06"/>
</g>
<!-- Node3&#45;&gt;Node29 -->
<g id="edge32" class="edge">
<title>Node3&#45;&gt;Node29</title>
<path fill="none" stroke="midnightblue" d="M1462.11,-331.17C1494.57,-320.44 1532.88,-307.78 1563.97,-297.51"/>
<polygon fill="midnightblue" stroke="midnightblue" points="1460.63,-327.97 1452.23,-334.43 1462.82,-334.61 1460.63,-327.97"/>
</g>
<!-- Node5 -->
<g id="node5" class="node">
<title>Node5</title>
<g id="a_node5"><a xlink:href="../../db/d12/_distance_sensor_controller_8hpp.html" target="_top" xlink:title=" ">
<polygon fill="none" stroke="black" points="215,-173 215,-214 417,-214 417,-173 215,-173"/>
<text text-anchor="start" x="223" y="-202" font-family="Helvetica,sans-Serif" font-size="10.00">Components/Controller</text>
<text text-anchor="start" x="223" y="-191" font-family="Helvetica,sans-Serif" font-size="10.00">/DistanceSensorController</text>
<text text-anchor="middle" x="316" y="-180" font-family="Helvetica,sans-Serif" font-size="10.00">/include/DistanceSensorController.hpp</text>
</a>
</g>
</g>
<!-- Node4&#45;&gt;Node5 -->
<g id="edge4" class="edge">
<title>Node4&#45;&gt;Node5</title>
<path fill="none" stroke="midnightblue" d="M740.7,-262.75C661.26,-252.14 548.45,-236.37 450,-220 438.9,-218.15 427.31,-216.12 415.79,-214.02"/>
<polygon fill="midnightblue" stroke="midnightblue" points="740.33,-266.23 750.7,-264.08 741.25,-259.29 740.33,-266.23"/>
</g>
<!-- Node9 -->
<g id="node9" class="node">
<title>Node9</title>
<g id="a_node9"><a xlink:href="../../d2/d8d/_sensor_controller_base_8cpp.html" target="_top" xlink:title=" ">
<polygon fill="none" stroke="black" points="459,-173 459,-214 621,-214 621,-173 459,-173"/>
<text text-anchor="start" x="467" y="-202" font-family="Helvetica,sans-Serif" font-size="10.00">Components/Interfaces</text>
<text text-anchor="start" x="467" y="-191" font-family="Helvetica,sans-Serif" font-size="10.00">/SensorControllerBase</text>
<text text-anchor="middle" x="540" y="-180" font-family="Helvetica,sans-Serif" font-size="10.00">/src/SensorControllerBase.cpp</text>
</a>
</g>
</g>
<!-- Node4&#45;&gt;Node9 -->
<g id="edge8" class="edge">
<title>Node4&#45;&gt;Node9</title>
<path fill="none" stroke="midnightblue" d="M757.28,-253.86C718.39,-243.71 671.82,-231.42 630,-220 623.11,-218.12 615.92,-216.13 608.76,-214.13"/>
<polygon fill="midnightblue" stroke="midnightblue" points="756.44,-257.26 767,-256.39 758.21,-250.48 756.44,-257.26"/>
</g>
<!-- Node10 -->
<g id="node10" class="node">
<title>Node10</title>
<g id="a_node10"><a xlink:href="../../db/dc2/_sensor_controller_base___m_o_c_k_8hpp.html" target="_top" xlink:title=" ">
<polygon fill="none" stroke="black" points="639,-167.5 639,-219.5 815,-219.5 815,-167.5 639,-167.5"/>
<text text-anchor="start" x="647" y="-207.5" font-family="Helvetica,sans-Serif" font-size="10.00">Components/Interfaces</text>
<text text-anchor="start" x="647" y="-196.5" font-family="Helvetica,sans-Serif" font-size="10.00">/SensorControllerBase</text>
<text text-anchor="start" x="647" y="-185.5" font-family="Helvetica,sans-Serif" font-size="10.00">/test/mock/SensorControllerBase</text>
<text text-anchor="middle" x="727" y="-174.5" font-family="Helvetica,sans-Serif" font-size="10.00">_MOCK.hpp</text>
</a>
</g>
</g>
<!-- Node4&#45;&gt;Node10 -->
<g id="edge9" class="edge">
<title>Node4&#45;&gt;Node10</title>
<path fill="none" stroke="midnightblue" d="M806.8,-250.57C792.82,-240.74 776.86,-229.53 762.91,-219.73"/>
<polygon fill="midnightblue" stroke="midnightblue" points="805.02,-253.59 815.22,-256.48 809.04,-247.87 805.02,-253.59"/>
</g>
<!-- Node12 -->
<g id="node12" class="node">
<title>Node12</title>
<g id="a_node12"><a xlink:href="../../d8/d19/_sensor_controller_test_8cpp.html" target="_top" xlink:title=" ">
<polygon fill="none" stroke="black" points="635,-84 635,-125 819,-125 819,-84 635,-84"/>
<text text-anchor="start" x="643" y="-113" font-family="Helvetica,sans-Serif" font-size="10.00">Components/Interfaces</text>
<text text-anchor="start" x="643" y="-102" font-family="Helvetica,sans-Serif" font-size="10.00">/SensorControllerBase</text>
<text text-anchor="middle" x="727" y="-91" font-family="Helvetica,sans-Serif" font-size="10.00">/test/test/SensorControllerTest.cpp</text>
</a>
</g>
</g>
<!-- Node4&#45;&gt;Node12 -->
<g id="edge12" class="edge">
<title>Node4&#45;&gt;Node12</title>
<path fill="none" stroke="midnightblue" d="M844.13,-246.1C843.6,-222.74 839.64,-190.41 824,-167 811.87,-148.85 792.37,-134.97 774.02,-125.04"/>
<polygon fill="midnightblue" stroke="midnightblue" points="840.63,-246.15 844.16,-256.14 847.63,-246.13 840.63,-246.15"/>
</g>
<!-- Node13 -->
<g id="node13" class="node">
<title>Node13</title>
<g id="a_node13"><a xlink:href="../../d0/dc1/_data_broker_8hpp.html" target="_top" xlink:title=" ">
<polygon fill="none" stroke="black" points="837,-84 837,-125 955,-125 955,-84 837,-84"/>
<text text-anchor="start" x="845" y="-113" font-family="Helvetica,sans-Serif" font-size="10.00">Components/Objects</text>
<text text-anchor="start" x="845" y="-102" font-family="Helvetica,sans-Serif" font-size="10.00">/DataBroker/include</text>
<text text-anchor="middle" x="896" y="-91" font-family="Helvetica,sans-Serif" font-size="10.00">/DataBroker.hpp</text>
</a>
</g>
</g>
<!-- Node4&#45;&gt;Node13 -->
<g id="edge13" class="edge">
<title>Node4&#45;&gt;Node13</title>
<path fill="none" stroke="midnightblue" d="M852.06,-246.85C862.86,-212.1 880.62,-154.97 889.91,-125.09"/>
<polygon fill="midnightblue" stroke="midnightblue" points="848.71,-245.85 849.08,-256.44 855.39,-247.93 848.71,-245.85"/>
</g>
<!-- Node6 -->
<g id="node6" class="node">
<title>Node6</title>
<g id="a_node6"><a xlink:href="../../dd/dde/_distance_sensor_controller_8cpp.html" target="_top" xlink:title=" ">
<polygon fill="none" stroke="black" points="0,-84 0,-125 180,-125 180,-84 0,-84"/>
<text text-anchor="start" x="8" y="-113" font-family="Helvetica,sans-Serif" font-size="10.00">Components/Controller</text>
<text text-anchor="start" x="8" y="-102" font-family="Helvetica,sans-Serif" font-size="10.00">/DistanceSensorController</text>
<text text-anchor="middle" x="90" y="-91" font-family="Helvetica,sans-Serif" font-size="10.00">/src/DistanceSensorController.cpp</text>
</a>
</g>
</g>
<!-- Node5&#45;&gt;Node6 -->
<g id="edge5" class="edge">
<title>Node5&#45;&gt;Node6</title>
<path fill="none" stroke="midnightblue" d="M255.91,-169.37C220.06,-155.57 175.04,-138.23 140.94,-125.11"/>
<polygon fill="midnightblue" stroke="midnightblue" points="254.69,-172.65 265.28,-172.98 257.21,-166.12 254.69,-172.65"/>
</g>
<!-- Node7 -->
<g id="node7" class="node">
<title>Node7</title>
<g id="a_node7"><a xlink:href="../../d7/d91/_distance_sensor_controller__test_8cpp.html" target="_top" xlink:title=" ">
<polygon fill="none" stroke="black" points="198.5,-78.5 198.5,-130.5 385.5,-130.5 385.5,-78.5 198.5,-78.5"/>
<text text-anchor="start" x="206.5" y="-118.5" font-family="Helvetica,sans-Serif" font-size="10.00">Components/Controller</text>
<text text-anchor="start" x="206.5" y="-107.5" font-family="Helvetica,sans-Serif" font-size="10.00">/DistanceSensorController</text>
<text text-anchor="start" x="206.5" y="-96.5" font-family="Helvetica,sans-Serif" font-size="10.00">/test/test/DistanceSensorController</text>
<text text-anchor="middle" x="292" y="-85.5" font-family="Helvetica,sans-Serif" font-size="10.00">_test.cpp</text>
</a>
</g>
</g>
<!-- Node5&#45;&gt;Node7 -->
<g id="edge6" class="edge">
<title>Node5&#45;&gt;Node7</title>
<path fill="none" stroke="midnightblue" d="M307.82,-162.84C304.94,-152.42 301.74,-140.81 298.98,-130.79"/>
<polygon fill="midnightblue" stroke="midnightblue" points="304.52,-164.05 310.55,-172.76 311.27,-162.19 304.52,-164.05"/>
</g>
<!-- Node8 -->
<g id="node8" class="node">
<title>Node8</title>
<g id="a_node8"><a xlink:href="../../da/d75/_data_broker__test_8cpp.html" target="_top" xlink:title=" ">
<polygon fill="none" stroke="black" points="474.5,-0.5 474.5,-41.5 593.5,-41.5 593.5,-0.5 474.5,-0.5"/>
<text text-anchor="start" x="482.5" y="-29.5" font-family="Helvetica,sans-Serif" font-size="10.00">Components/Objects</text>
<text text-anchor="start" x="482.5" y="-18.5" font-family="Helvetica,sans-Serif" font-size="10.00">/DataBroker/test/test</text>
<text text-anchor="middle" x="534" y="-7.5" font-family="Helvetica,sans-Serif" font-size="10.00">/DataBroker_test.cpp</text>
</a>
</g>
</g>
<!-- Node5&#45;&gt;Node8 -->
<g id="edge7" class="edge">
<title>Node5&#45;&gt;Node8</title>
<path fill="none" stroke="midnightblue" d="M352.93,-166.77C366.56,-156.43 381.67,-143.91 394,-131 414.02,-110.04 410.31,-97.23 432,-78 448.55,-63.32 469.6,-50.96 488.28,-41.61"/>
<polygon fill="midnightblue" stroke="midnightblue" points="350.61,-164.14 344.67,-172.91 354.79,-169.75 350.61,-164.14"/>
</g>
<!-- Node11 -->
<g id="node11" class="node">
<title>Node11</title>
<g id="a_node11"><a xlink:href="../../dc/d0f/_sensor_controller_base___m_o_c_k_8cpp.html" target="_top" xlink:title=" ">
<polygon fill="none" stroke="black" points="441,-78.5 441,-130.5 617,-130.5 617,-78.5 441,-78.5"/>
<text text-anchor="start" x="449" y="-118.5" font-family="Helvetica,sans-Serif" font-size="10.00">Components/Interfaces</text>
<text text-anchor="start" x="449" y="-107.5" font-family="Helvetica,sans-Serif" font-size="10.00">/SensorControllerBase</text>
<text text-anchor="start" x="449" y="-96.5" font-family="Helvetica,sans-Serif" font-size="10.00">/test/mock/SensorControllerBase</text>
<text text-anchor="middle" x="529" y="-85.5" font-family="Helvetica,sans-Serif" font-size="10.00">_MOCK.cpp</text>
</a>
</g>
</g>
<!-- Node10&#45;&gt;Node11 -->
<g id="edge10" class="edge">
<title>Node10&#45;&gt;Node11</title>
<path fill="none" stroke="midnightblue" d="M660.53,-163.29C636.34,-152.67 609.24,-140.76 585.94,-130.52"/>
<polygon fill="midnightblue" stroke="midnightblue" points="659.43,-166.63 670,-167.45 662.25,-160.23 659.43,-166.63"/>
</g>
<!-- Node10&#45;&gt;Node12 -->
<g id="edge11" class="edge">
<title>Node10&#45;&gt;Node12</title>
<path fill="none" stroke="midnightblue" d="M727,-157.16C727,-146.21 727,-134.55 727,-125.08"/>
<polygon fill="midnightblue" stroke="midnightblue" points="723.5,-157.34 727,-167.34 730.5,-157.34 723.5,-157.34"/>
</g>
<!-- Node13&#45;&gt;Node8 -->
<g id="edge15" class="edge">
<title>Node13&#45;&gt;Node8</title>
<path fill="none" stroke="midnightblue" d="M837.42,-80.82C834.25,-79.82 831.1,-78.87 828,-78 748.08,-55.58 653.42,-39.33 593.54,-30.29"/>
<polygon fill="midnightblue" stroke="midnightblue" points="836.34,-84.15 846.93,-83.97 838.54,-77.51 836.34,-84.15"/>
</g>
<!-- Node14 -->
<g id="node14" class="node">
<title>Node14</title>
<g id="a_node14"><a xlink:href="../../d4/ddc/_data_broker_8cpp.html" target="_top" xlink:title=" ">
<polygon fill="none" stroke="black" points="691.5,-6 691.5,-36 860.5,-36 860.5,-6 691.5,-6"/>
<text text-anchor="start" x="699.5" y="-24" font-family="Helvetica,sans-Serif" font-size="10.00">Components/Objects</text>
<text text-anchor="middle" x="776" y="-13" font-family="Helvetica,sans-Serif" font-size="10.00">/DataBroker/src/DataBroker.cpp</text>
</a>
</g>
</g>
<!-- Node13&#45;&gt;Node14 -->
<g id="edge14" class="edge">
<title>Node13&#45;&gt;Node14</title>
<path fill="none" stroke="midnightblue" d="M858.77,-78.21C838.29,-64.31 813.66,-47.58 796.62,-36"/>
<polygon fill="midnightblue" stroke="midnightblue" points="857.02,-81.26 867.26,-83.98 860.95,-75.46 857.02,-81.26"/>
</g>
<!-- Node16 -->
<g id="node16" class="node">
<title>Node16</title>
<g id="a_node16"><a xlink:href="../../d2/dd8/_service_queue_base_8hpp.html" target="_top" xlink:title=" ">
<polygon fill="none" stroke="black" points="1086,-173 1086,-214 1218,-214 1218,-173 1086,-173"/>
<text text-anchor="start" x="1094" y="-202" font-family="Helvetica,sans-Serif" font-size="10.00">Components/Interfaces</text>
<text text-anchor="start" x="1094" y="-191" font-family="Helvetica,sans-Serif" font-size="10.00">/ServiceBase/include</text>
<text text-anchor="middle" x="1152" y="-180" font-family="Helvetica,sans-Serif" font-size="10.00">/ServiceQueueBase.hpp</text>
</a>
</g>
</g>
<!-- Node15&#45;&gt;Node16 -->
<g id="edge17" class="edge">
<title>Node15&#45;&gt;Node16</title>
<path fill="none" stroke="midnightblue" d="M1152.63,-246.06C1152.5,-235.38 1152.36,-223.63 1152.24,-214.05"/>
<polygon fill="midnightblue" stroke="midnightblue" points="1149.14,-246.31 1152.76,-256.27 1156.13,-246.23 1149.14,-246.31"/>
</g>
<!-- Node23 -->
<g id="node23" class="node">
<title>Node23</title>
<g id="a_node23"><a xlink:href="../../d8/deb/_service_time_base_8hpp.html" target="_top" xlink:title=" ">
<polygon fill="none" stroke="black" points="1236,-173 1236,-214 1366,-214 1366,-173 1236,-173"/>
<text text-anchor="start" x="1244" y="-202" font-family="Helvetica,sans-Serif" font-size="10.00">Components/Interfaces</text>
<text text-anchor="start" x="1244" y="-191" font-family="Helvetica,sans-Serif" font-size="10.00">/ServiceBase/include</text>
<text text-anchor="middle" x="1301" y="-180" font-family="Helvetica,sans-Serif" font-size="10.00">/ServiceTimeBase.hpp</text>
</a>
</g>
</g>
<!-- Node15&#45;&gt;Node23 -->
<g id="edge25" class="edge">
<title>Node15&#45;&gt;Node23</title>
<path fill="none" stroke="midnightblue" d="M1197.22,-251.65C1219.07,-239.62 1245.07,-225.3 1265.58,-214"/>
<polygon fill="midnightblue" stroke="midnightblue" points="1195.52,-248.59 1188.45,-256.48 1198.9,-254.72 1195.52,-248.59"/>
</g>
<!-- Node16&#45;&gt;Node13 -->
<g id="edge19" class="edge">
<title>Node16&#45;&gt;Node13</title>
<path fill="none" stroke="midnightblue" d="M1080.26,-169.83C1045.1,-158.51 1002.21,-144.41 964,-131 958.65,-129.12 953.07,-127.12 947.52,-125.08"/>
<polygon fill="midnightblue" stroke="midnightblue" points="1079.37,-173.22 1089.96,-172.94 1081.51,-166.55 1079.37,-173.22"/>
</g>
<!-- Node17 -->
<g id="node17" class="node">
<title>Node17</title>
<g id="a_node17"><a xlink:href="../../dc/d1d/_service__test_8cpp.html" target="_top" xlink:title=" ">
<polygon fill="none" stroke="black" points="1323,-84 1323,-125 1453,-125 1453,-84 1323,-84"/>
<text text-anchor="start" x="1331" y="-113" font-family="Helvetica,sans-Serif" font-size="10.00">Components/Interfaces</text>
<text text-anchor="start" x="1331" y="-102" font-family="Helvetica,sans-Serif" font-size="10.00">/ServiceBase/test/test</text>
<text text-anchor="middle" x="1388" y="-91" font-family="Helvetica,sans-Serif" font-size="10.00">/Service_test.cpp</text>
</a>
</g>
</g>
<!-- Node16&#45;&gt;Node17 -->
<g id="edge18" class="edge">
<title>Node16&#45;&gt;Node17</title>
<path fill="none" stroke="midnightblue" d="M1214.75,-169.37C1252.19,-155.57 1299.2,-138.23 1334.81,-125.11"/>
<polygon fill="midnightblue" stroke="midnightblue" points="1213.14,-166.23 1204.96,-172.98 1215.56,-172.8 1213.14,-166.23"/>
</g>
<!-- Node18 -->
<g id="node18" class="node">
<title>Node18</title>
<g id="a_node18"><a xlink:href="../../d2/d1e/_online_detector__service_8hpp.html" target="_top" xlink:title=" ">
<polygon fill="none" stroke="black" points="973.5,-84 973.5,-125 1128.5,-125 1128.5,-84 973.5,-84"/>
<text text-anchor="start" x="981.5" y="-113" font-family="Helvetica,sans-Serif" font-size="10.00">Components/Service</text>
<text text-anchor="start" x="981.5" y="-102" font-family="Helvetica,sans-Serif" font-size="10.00">/OnlineDetector/include</text>
<text text-anchor="middle" x="1051" y="-91" font-family="Helvetica,sans-Serif" font-size="10.00">/OnlineDetector_service.hpp</text>
</a>
</g>
</g>
<!-- Node16&#45;&gt;Node18 -->
<g id="edge20" class="edge">
<title>Node16&#45;&gt;Node18</title>
<path fill="none" stroke="midnightblue" d="M1121.63,-166.34C1106.32,-153.15 1088.06,-137.42 1073.94,-125.26"/>
<polygon fill="midnightblue" stroke="midnightblue" points="1119.47,-169.1 1129.33,-172.98 1124.04,-163.8 1119.47,-169.1"/>
</g>
<!-- Node21 -->
<g id="node21" class="node">
<title>Node21</title>
<g id="a_node21"><a xlink:href="../../dd/d22/_water_estimator___service_8hpp.html" target="_top" xlink:title=" ">
<polygon fill="none" stroke="black" points="1147,-84 1147,-125 1305,-125 1305,-84 1147,-84"/>
<text text-anchor="start" x="1155" y="-113" font-family="Helvetica,sans-Serif" font-size="10.00">Components/Service</text>
<text text-anchor="start" x="1155" y="-102" font-family="Helvetica,sans-Serif" font-size="10.00">/WaterEstimator/include</text>
<text text-anchor="middle" x="1226" y="-91" font-family="Helvetica,sans-Serif" font-size="10.00">/WaterEstimator_Service.hpp</text>
</a>
</g>
</g>
<!-- Node16&#45;&gt;Node21 -->
<g id="edge23" class="edge">
<title>Node16&#45;&gt;Node21</title>
<path fill="none" stroke="midnightblue" d="M1175.36,-165.03C1186.37,-152.09 1199.26,-136.94 1209.27,-125.16"/>
<polygon fill="midnightblue" stroke="midnightblue" points="1172.6,-162.87 1168.79,-172.76 1177.94,-167.41 1172.6,-162.87"/>
</g>
<!-- Node19 -->
<g id="node19" class="node">
<title>Node19</title>
<g id="a_node19"><a xlink:href="../../d7/d24/_online_detector__service_8cpp.html" target="_top" xlink:title=" ">
<polygon fill="none" stroke="black" points="879,-0.5 879,-41.5 1033,-41.5 1033,-0.5 879,-0.5"/>
<text text-anchor="start" x="887" y="-29.5" font-family="Helvetica,sans-Serif" font-size="10.00">Components/Service</text>
<text text-anchor="start" x="887" y="-18.5" font-family="Helvetica,sans-Serif" font-size="10.00">/OnlineDetector/src</text>
<text text-anchor="middle" x="956" y="-7.5" font-family="Helvetica,sans-Serif" font-size="10.00">/OnlineDetector_service.cpp</text>
</a>
</g>
</g>
<!-- Node18&#45;&gt;Node19 -->
<g id="edge21" class="edge">
<title>Node18&#45;&gt;Node19</title>
<path fill="none" stroke="midnightblue" d="M1020.33,-77.19C1006.83,-65.6 991.24,-52.23 978.79,-41.55"/>
<polygon fill="midnightblue" stroke="midnightblue" points="1018.13,-79.92 1028,-83.77 1022.69,-74.6 1018.13,-79.92"/>
</g>
<!-- Node20 -->
<g id="node20" class="node">
<title>Node20</title>
<g id="a_node20"><a xlink:href="../../db/df8/_service_2_online_detector_2test_2test_2simple__test_8cpp.html" target="_top" xlink:title=" ">
<polygon fill="none" stroke="black" points="1051.5,-0.5 1051.5,-41.5 1170.5,-41.5 1170.5,-0.5 1051.5,-0.5"/>
<text text-anchor="start" x="1059.5" y="-29.5" font-family="Helvetica,sans-Serif" font-size="10.00">Components/Service</text>
<text text-anchor="start" x="1059.5" y="-18.5" font-family="Helvetica,sans-Serif" font-size="10.00">/OnlineDetector/test</text>
<text text-anchor="middle" x="1111" y="-7.5" font-family="Helvetica,sans-Serif" font-size="10.00">/test/simple_test.cpp</text>
</a>
</g>
</g>
<!-- Node18&#45;&gt;Node20 -->
<g id="edge22" class="edge">
<title>Node18&#45;&gt;Node20</title>
<path fill="none" stroke="midnightblue" d="M1071.57,-75.55C1079.82,-64.36 1089.11,-51.73 1096.61,-41.55"/>
<polygon fill="midnightblue" stroke="midnightblue" points="1068.63,-73.64 1065.52,-83.77 1074.27,-77.79 1068.63,-73.64"/>
</g>
<!-- Node22 -->
<g id="node22" class="node">
<title>Node22</title>
<g id="a_node22"><a xlink:href="../../dd/dd3/_water_estimator___service_8cpp.html" target="_top" xlink:title=" ">
<polygon fill="none" stroke="black" points="1188.5,-0.5 1188.5,-41.5 1345.5,-41.5 1345.5,-0.5 1188.5,-0.5"/>
<text text-anchor="start" x="1196.5" y="-29.5" font-family="Helvetica,sans-Serif" font-size="10.00">Components/Service</text>
<text text-anchor="start" x="1196.5" y="-18.5" font-family="Helvetica,sans-Serif" font-size="10.00">/WaterEstimator/src</text>
<text text-anchor="middle" x="1267" y="-7.5" font-family="Helvetica,sans-Serif" font-size="10.00">/WaterEstimator_Service.cpp</text>
</a>
</g>
</g>
<!-- Node21&#45;&gt;Node22 -->
<g id="edge24" class="edge">
<title>Node21&#45;&gt;Node22</title>
<path fill="none" stroke="midnightblue" d="M1240.56,-74.56C1246.06,-63.62 1252.19,-51.43 1257.17,-41.55"/>
<polygon fill="midnightblue" stroke="midnightblue" points="1237.29,-73.26 1235.92,-83.77 1243.55,-76.41 1237.29,-73.26"/>
</g>
<!-- Node23&#45;&gt;Node17 -->
<g id="edge26" class="edge">
<title>Node23&#45;&gt;Node17</title>
<path fill="none" stroke="midnightblue" d="M1328.1,-165.4C1341.13,-152.37 1356.45,-137.05 1368.34,-125.16"/>
<polygon fill="midnightblue" stroke="midnightblue" points="1325.34,-163.21 1320.74,-172.76 1330.29,-168.16 1325.34,-163.21"/>
</g>
<!-- Node24 -->
<g id="node24" class="node">
<title>Node24</title>
<g id="a_node24"><a xlink:href="../../df/d40/is_alive__service_8hpp.html" target="_top" xlink:title=" ">
<polygon fill="none" stroke="black" points="1471.5,-84 1471.5,-125 1598.5,-125 1598.5,-84 1471.5,-84"/>
<text text-anchor="start" x="1479.5" y="-113" font-family="Helvetica,sans-Serif" font-size="10.00">Components/Service</text>
<text text-anchor="start" x="1479.5" y="-102" font-family="Helvetica,sans-Serif" font-size="10.00">/isAlive/include/isAlive</text>
<text text-anchor="middle" x="1535" y="-91" font-family="Helvetica,sans-Serif" font-size="10.00">_service.hpp</text>
</a>
</g>
</g>
<!-- Node23&#45;&gt;Node24 -->
<g id="edge27" class="edge">
<title>Node23&#45;&gt;Node24</title>
<path fill="none" stroke="midnightblue" d="M1363.22,-169.37C1400.34,-155.57 1446.95,-138.23 1482.26,-125.11"/>
<polygon fill="midnightblue" stroke="midnightblue" points="1361.67,-166.21 1353.51,-172.98 1364.11,-172.77 1361.67,-166.21"/>
</g>
<!-- Node25 -->
<g id="node25" class="node">
<title>Node25</title>
<g id="a_node25"><a xlink:href="../../de/da1/is_alive__service_8cpp.html" target="_top" xlink:title=" ">
<polygon fill="none" stroke="black" points="1404.5,-0.5 1404.5,-41.5 1521.5,-41.5 1521.5,-0.5 1404.5,-0.5"/>
<text text-anchor="start" x="1412.5" y="-29.5" font-family="Helvetica,sans-Serif" font-size="10.00">Components/Service</text>
<text text-anchor="start" x="1412.5" y="-18.5" font-family="Helvetica,sans-Serif" font-size="10.00">/isAlive/src/isAlive</text>
<text text-anchor="middle" x="1463" y="-7.5" font-family="Helvetica,sans-Serif" font-size="10.00">_service.cpp</text>
</a>
</g>
</g>
<!-- Node24&#45;&gt;Node25 -->
<g id="edge28" class="edge">
<title>Node24&#45;&gt;Node25</title>
<path fill="none" stroke="midnightblue" d="M1510.89,-76.21C1500.86,-64.86 1489.44,-51.93 1480.27,-41.55"/>
<polygon fill="midnightblue" stroke="midnightblue" points="1508.33,-78.59 1517.57,-83.77 1513.57,-73.96 1508.33,-78.59"/>
</g>
<!-- Node26 -->
<g id="node26" class="node">
<title>Node26</title>
<g id="a_node26"><a xlink:href="../../d4/d60/_service_2is_alive_2test_2test_2simple__test_8cpp.html" target="_top" xlink:title=" ">
<polygon fill="none" stroke="black" points="1540,-0.5 1540,-41.5 1672,-41.5 1672,-0.5 1540,-0.5"/>
<text text-anchor="start" x="1548" y="-29.5" font-family="Helvetica,sans-Serif" font-size="10.00">Components/Service</text>
<text text-anchor="start" x="1548" y="-18.5" font-family="Helvetica,sans-Serif" font-size="10.00">/isAlive/test/test/simple</text>
<text text-anchor="middle" x="1606" y="-7.5" font-family="Helvetica,sans-Serif" font-size="10.00">_test.cpp</text>
</a>
</g>
</g>
<!-- Node24&#45;&gt;Node26 -->
<g id="edge29" class="edge">
<title>Node24&#45;&gt;Node26</title>
<path fill="none" stroke="midnightblue" d="M1558.77,-76.21C1568.67,-64.86 1579.93,-51.93 1588.97,-41.55"/>
<polygon fill="midnightblue" stroke="midnightblue" points="1556.12,-73.93 1552.19,-83.77 1561.39,-78.53 1556.12,-73.93"/>
</g>
<!-- Node30 -->
<g id="node30" class="node">
<title>Node30</title>
<g id="a_node30"><a xlink:href="../../dd/ddd/_maintainer_8cpp.html" target="_top" xlink:title=" ">
<polygon fill="none" stroke="black" points="1384,-178.5 1384,-208.5 1548,-208.5 1548,-178.5 1384,-178.5"/>
<text text-anchor="start" x="1392" y="-196.5" font-family="Helvetica,sans-Serif" font-size="10.00">Components/Objects</text>
<text text-anchor="middle" x="1466" y="-185.5" font-family="Helvetica,sans-Serif" font-size="10.00">/Maintainer/src/Maintainer.cpp</text>
</a>
</g>
</g>
<!-- Node29&#45;&gt;Node30 -->
<g id="edge33" class="edge">
<title>Node29&#45;&gt;Node30</title>
<path fill="none" stroke="midnightblue" d="M1576.43,-251.83C1549.23,-237.71 1515.87,-220.39 1492.98,-208.5"/>
<polygon fill="midnightblue" stroke="midnightblue" points="1574.91,-254.98 1585.39,-256.48 1578.13,-248.76 1574.91,-254.98"/>
</g>
<!-- Node31 -->
<g id="node31" class="node">
<title>Node31</title>
<g id="a_node31"><a xlink:href="../../d8/d4a/maintainer__test_8cpp.html" target="_top" xlink:title=" ">
<polygon fill="none" stroke="black" points="1566,-173 1566,-214 1684,-214 1684,-173 1566,-173"/>
<text text-anchor="start" x="1574" y="-202" font-family="Helvetica,sans-Serif" font-size="10.00">Components/Objects</text>
<text text-anchor="start" x="1574" y="-191" font-family="Helvetica,sans-Serif" font-size="10.00">/Maintainer/test/test</text>
<text text-anchor="middle" x="1625" y="-180" font-family="Helvetica,sans-Serif" font-size="10.00">/maintainer_test.cpp</text>
</a>
</g>
</g>
<!-- Node29&#45;&gt;Node31 -->
<g id="edge34" class="edge">
<title>Node29&#45;&gt;Node31</title>
<path fill="none" stroke="midnightblue" d="M1623.73,-246.06C1624,-235.38 1624.29,-223.63 1624.52,-214.05"/>
<polygon fill="midnightblue" stroke="midnightblue" points="1620.23,-246.19 1623.48,-256.27 1627.23,-246.36 1620.23,-246.19"/>
</g>
<!-- Node29&#45;&gt;Node32 -->
<g id="edge35" class="edge">
<title>Node29&#45;&gt;Node32</title>
<path fill="none" stroke="midnightblue" d="M1668.71,-251.65C1691.3,-239.62 1718.18,-225.3 1739.39,-214"/>
<polygon fill="midnightblue" stroke="midnightblue" points="1666.83,-248.69 1659.65,-256.48 1670.12,-254.87 1666.83,-248.69"/>
</g>
<!-- Node33 -->
<g id="node33" class="node">
<title>Node33</title>
<g id="a_node33"><a xlink:href="../../d2/d77/_active_current_sensor_8cpp.html" target="_top" xlink:title=" ">
<polygon fill="none" stroke="black" points="1689.5,-84 1689.5,-125 1862.5,-125 1862.5,-84 1689.5,-84"/>
<text text-anchor="start" x="1697.5" y="-113" font-family="Helvetica,sans-Serif" font-size="10.00">Components/Sensor/Active</text>
<text text-anchor="start" x="1697.5" y="-102" font-family="Helvetica,sans-Serif" font-size="10.00">CurrentSensor/src/ActiveCurrent</text>
<text text-anchor="middle" x="1776" y="-91" font-family="Helvetica,sans-Serif" font-size="10.00">Sensor.cpp</text>
</a>
</g>
</g>
<!-- Node32&#45;&gt;Node33 -->
<g id="edge36" class="edge">
<title>Node32&#45;&gt;Node33</title>
<path fill="none" stroke="midnightblue" d="M1776,-162.44C1776,-150.1 1776,-136.16 1776,-125.16"/>
<polygon fill="midnightblue" stroke="midnightblue" points="1772.5,-162.76 1776,-172.76 1779.5,-162.76 1772.5,-162.76"/>
</g>
<!-- Node35 -->
<g id="node35" class="node">
<title>Node35</title>
<g id="a_node35"><a xlink:href="../../d0/db0/hal__mqtt__log_8cpp.html" target="_top" xlink:title=" ">
<polygon fill="none" stroke="black" points="1738,-256.5 1738,-297.5 1856,-297.5 1856,-256.5 1738,-256.5"/>
<text text-anchor="start" x="1746" y="-285.5" font-family="Helvetica,sans-Serif" font-size="10.00">Components/Objects</text>
<text text-anchor="start" x="1746" y="-274.5" font-family="Helvetica,sans-Serif" font-size="10.00">/Logger/src/hal_mqtt</text>
<text text-anchor="middle" x="1797" y="-263.5" font-family="Helvetica,sans-Serif" font-size="10.00">_log.cpp</text>
</a>
</g>
</g>
<!-- Node34&#45;&gt;Node35 -->
<g id="edge40" class="edge">
<title>Node34&#45;&gt;Node35</title>
<path fill="none" stroke="midnightblue" d="M1789.08,-324.3C1790.62,-315.3 1792.27,-305.65 1793.66,-297.51"/>
<polygon fill="midnightblue" stroke="midnightblue" points="1785.58,-323.98 1787.35,-334.43 1792.48,-325.16 1785.58,-323.98"/>
</g>
</g>
</svg>
