<?xml version="1.0" encoding="UTF-8" standalone="no"?>
<!DOCTYPE svg PUBLIC "-//W3C//DTD SVG 1.1//EN"
 "http://www.w3.org/Graphics/SVG/1.1/DTD/svg11.dtd">
<!-- Generated by graphviz version 2.43.0 (0)
 -->
<!-- Title: Components/Connector/WiFi/include/WiFi_Event_Handler.hpp Pages: 1 -->
<svg width="297pt" height="229pt"
 viewBox="0.00 0.00 297.00 229.00" xmlns="http://www.w3.org/2000/svg" xmlns:xlink="http://www.w3.org/1999/xlink">
<g id="graph0" class="graph" transform="scale(1 1) rotate(0) translate(4 225)">
<title>Components/Connector/WiFi/include/WiFi_Event_Handler.hpp</title>
<!-- Node1 -->
<g id="node1" class="node">
<title>Node1</title>
<g id="a_node1"><a xlink:title=" ">
<polygon fill="#bfbfbf" stroke="black" points="70,-179.5 70,-220.5 204,-220.5 204,-179.5 70,-179.5"/>
<text text-anchor="start" x="78" y="-208.5" font-family="Helvetica,sans-Serif" font-size="10.00">Components/Connector</text>
<text text-anchor="start" x="78" y="-197.5" font-family="Helvetica,sans-Serif" font-size="10.00">/WiFi/include/WiFi_Event</text>
<text text-anchor="middle" x="137" y="-186.5" font-family="Helvetica,sans-Serif" font-size="10.00">_Handler.hpp</text>
</a>
</g>
</g>
<!-- Node2 -->
<g id="node2" class="node">
<title>Node2</title>
<g id="a_node2"><a xlink:href="../../da/d5f/_b_a_s_i_c_8hpp.html" target="_top" xlink:title=" ">
<polygon fill="none" stroke="black" points="0,-56.5 0,-86.5 116,-86.5 116,-56.5 0,-56.5"/>
<text text-anchor="start" x="8" y="-74.5" font-family="Helvetica,sans-Serif" font-size="10.00">../../../Global_Include</text>
<text text-anchor="middle" x="58" y="-63.5" font-family="Helvetica,sans-Serif" font-size="10.00">/BASIC.hpp</text>
</a>
</g>
</g>
<!-- Node1&#45;&gt;Node2 -->
<g id="edge1" class="edge">
<title>Node1&#45;&gt;Node2</title>
<path fill="none" stroke="midnightblue" d="M106.41,-179.46C93.89,-169.93 80.4,-157.41 72,-143 63.84,-129 60.35,-111.05 58.9,-96.78"/>
<polygon fill="midnightblue" stroke="midnightblue" points="62.38,-96.4 58.14,-86.7 55.4,-96.93 62.38,-96.4"/>
</g>
<!-- Node3 -->
<g id="node3" class="node">
<title>Node3</title>
<g id="a_node3"><a xlink:href="../../d3/deb/_general___error_8hpp.html" target="_top" xlink:title=" ">
<polygon fill="none" stroke="black" points="143,-56.5 143,-86.5 289,-86.5 289,-56.5 143,-56.5"/>
<text text-anchor="start" x="151" y="-74.5" font-family="Helvetica,sans-Serif" font-size="10.00">../../../Objects/ErrorHandler</text>
<text text-anchor="middle" x="216" y="-63.5" font-family="Helvetica,sans-Serif" font-size="10.00">/include/General_Error.hpp</text>
</a>
</g>
</g>
<!-- Node1&#45;&gt;Node3 -->
<g id="edge2" class="edge">
<title>Node1&#45;&gt;Node3</title>
<path fill="none" stroke="midnightblue" d="M167.59,-179.46C180.11,-169.93 193.6,-157.41 202,-143 210.16,-129 213.65,-111.05 215.1,-96.78"/>
<polygon fill="midnightblue" stroke="midnightblue" points="218.6,-96.93 215.86,-86.7 211.62,-96.4 218.6,-96.93"/>
</g>
<!-- Node6 -->
<g id="node6" class="node">
<title>Node6</title>
<g id="a_node6"><a xlink:href="../../d5/dca/_wi_fi_event_handler_8h.html" target="_top" xlink:title=" ">
<polygon fill="none" stroke="black" points="81,-123.5 81,-142.5 193,-142.5 193,-123.5 81,-123.5"/>
<text text-anchor="middle" x="137" y="-130.5" font-family="Helvetica,sans-Serif" font-size="10.00">WiFiEventHandler.h</text>
</a>
</g>
</g>
<!-- Node1&#45;&gt;Node6 -->
<g id="edge5" class="edge">
<title>Node1&#45;&gt;Node6</title>
<path fill="none" stroke="midnightblue" d="M137,-179.5C137,-171.07 137,-161.24 137,-152.87"/>
<polygon fill="midnightblue" stroke="midnightblue" points="140.5,-152.65 137,-142.65 133.5,-152.65 140.5,-152.65"/>
</g>
<!-- Node4 -->
<g id="node4" class="node">
<title>Node4</title>
<g id="a_node4"><a xlink:title=" ">
<polygon fill="none" stroke="#bfbfbf" points="159,-0.5 159,-19.5 203,-19.5 203,-0.5 159,-0.5"/>
<text text-anchor="middle" x="181" y="-7.5" font-family="Helvetica,sans-Serif" font-size="10.00">string</text>
</a>
</g>
</g>
<!-- Node3&#45;&gt;Node4 -->
<g id="edge3" class="edge">
<title>Node3&#45;&gt;Node4</title>
<path fill="none" stroke="midnightblue" d="M207.71,-56.4C202.78,-48.02 196.49,-37.33 191.25,-28.42"/>
<polygon fill="midnightblue" stroke="midnightblue" points="194.18,-26.5 186.09,-19.66 188.15,-30.05 194.18,-26.5"/>
</g>
<!-- Node5 -->
<g id="node5" class="node">
<title>Node5</title>
<g id="a_node5"><a xlink:title=" ">
<polygon fill="none" stroke="#bfbfbf" points="221,-0.5 221,-19.5 281,-19.5 281,-0.5 221,-0.5"/>
<text text-anchor="middle" x="251" y="-7.5" font-family="Helvetica,sans-Serif" font-size="10.00">iostream</text>
</a>
</g>
</g>
<!-- Node3&#45;&gt;Node5 -->
<g id="edge4" class="edge">
<title>Node3&#45;&gt;Node5</title>
<path fill="none" stroke="midnightblue" d="M224.29,-56.4C229.22,-48.02 235.51,-37.33 240.75,-28.42"/>
<polygon fill="midnightblue" stroke="midnightblue" points="243.85,-30.05 245.91,-19.66 237.82,-26.5 243.85,-30.05"/>
</g>
<!-- Node6&#45;&gt;Node2 -->
<g id="edge6" class="edge">
<title>Node6&#45;&gt;Node2</title>
<path fill="none" stroke="midnightblue" d="M125.68,-123.48C115.08,-115.49 98.83,-103.25 84.91,-92.77"/>
<polygon fill="midnightblue" stroke="midnightblue" points="86.71,-89.74 76.62,-86.52 82.5,-95.33 86.71,-89.74"/>
</g>
<!-- Node6&#45;&gt;Node3 -->
<g id="edge7" class="edge">
<title>Node6&#45;&gt;Node3</title>
<path fill="none" stroke="midnightblue" d="M148.32,-123.48C158.92,-115.49 175.17,-103.25 189.09,-92.77"/>
<polygon fill="midnightblue" stroke="midnightblue" points="191.5,-95.33 197.38,-86.52 187.29,-89.74 191.5,-95.33"/>
</g>
</g>
</svg>
