<?xml version="1.0" encoding="UTF-8" standalone="no"?>
<!DOCTYPE svg PUBLIC "-//W3C//DTD SVG 1.1//EN"
 "http://www.w3.org/Graphics/SVG/1.1/DTD/svg11.dtd">
<!-- Generated by graphviz version 2.43.0 (0)
 -->
<!-- Title: Components/Utility/Ping/src/Ping_SAL_esp32.cpp Pages: 1 -->
<svg width="395pt" height="195pt"
 viewBox="0.00 0.00 394.50 195.00" xmlns="http://www.w3.org/2000/svg" xmlns:xlink="http://www.w3.org/1999/xlink">
<g id="graph0" class="graph" transform="scale(1 1) rotate(0) translate(4 191)">
<title>Components/Utility/Ping/src/Ping_SAL_esp32.cpp</title>
<!-- Node1 -->
<g id="node1" class="node">
<title>Node1</title>
<g id="a_node1"><a xlink:title=" ">
<polygon fill="#bfbfbf" stroke="black" points="155,-156.5 155,-186.5 316,-186.5 316,-156.5 155,-156.5"/>
<text text-anchor="start" x="163" y="-174.5" font-family="Helvetica,sans-Serif" font-size="10.00">Components/Utility</text>
<text text-anchor="middle" x="235.5" y="-163.5" font-family="Helvetica,sans-Serif" font-size="10.00">/Ping/src/Ping_SAL_esp32.cpp</text>
</a>
</g>
</g>
<!-- Node2 -->
<g id="node2" class="node">
<title>Node2</title>
<g id="a_node2"><a xlink:href="../../d0/d1d/_ping___s_a_l__esp32_8hpp.html" target="_top" xlink:title=" ">
<polygon fill="none" stroke="black" points="181,-89.5 181,-119.5 290,-119.5 290,-89.5 181,-89.5"/>
<text text-anchor="start" x="189" y="-107.5" font-family="Helvetica,sans-Serif" font-size="10.00">../include/Ping_SAL</text>
<text text-anchor="middle" x="235.5" y="-96.5" font-family="Helvetica,sans-Serif" font-size="10.00">_esp32.hpp</text>
</a>
</g>
</g>
<!-- Node1&#45;&gt;Node2 -->
<g id="edge1" class="edge">
<title>Node1&#45;&gt;Node2</title>
<path fill="none" stroke="midnightblue" d="M235.5,-156.4C235.5,-148.64 235.5,-138.81 235.5,-129.86"/>
<polygon fill="midnightblue" stroke="midnightblue" points="239,-129.58 235.5,-119.58 232,-129.58 239,-129.58"/>
</g>
<!-- Node3 -->
<g id="node3" class="node">
<title>Node3</title>
<g id="a_node3"><a xlink:title=" ">
<polygon fill="none" stroke="#bfbfbf" points="0,-6 0,-47 145,-47 145,-6 0,-6"/>
<text text-anchor="start" x="8" y="-35" font-family="Helvetica,sans-Serif" font-size="10.00">../../Embedded_CPP</text>
<text text-anchor="start" x="8" y="-24" font-family="Helvetica,sans-Serif" font-size="10.00">_Library/Components</text>
<text text-anchor="middle" x="72.5" y="-13" font-family="Helvetica,sans-Serif" font-size="10.00">/Global_Include/BASIC.hpp</text>
</a>
</g>
</g>
<!-- Node2&#45;&gt;Node3 -->
<g id="edge2" class="edge">
<title>Node2&#45;&gt;Node3</title>
<path fill="none" stroke="midnightblue" d="M205.22,-89.38C182.41,-78.75 150.59,-63.91 123.83,-51.43"/>
<polygon fill="midnightblue" stroke="midnightblue" points="125.14,-48.18 114.6,-47.13 122.18,-54.53 125.14,-48.18"/>
</g>
<!-- Node4 -->
<g id="node4" class="node">
<title>Node4</title>
<g id="a_node4"><a xlink:title=" ">
<polygon fill="none" stroke="#bfbfbf" points="163,-0.5 163,-52.5 308,-52.5 308,-0.5 163,-0.5"/>
<text text-anchor="start" x="171" y="-40.5" font-family="Helvetica,sans-Serif" font-size="10.00">../../Embedded_CPP</text>
<text text-anchor="start" x="171" y="-29.5" font-family="Helvetica,sans-Serif" font-size="10.00">_Library/Components</text>
<text text-anchor="start" x="171" y="-18.5" font-family="Helvetica,sans-Serif" font-size="10.00">/Objects/ErrorHandler</text>
<text text-anchor="middle" x="235.5" y="-7.5" font-family="Helvetica,sans-Serif" font-size="10.00">/include/General_Error.hpp</text>
</a>
</g>
</g>
<!-- Node2&#45;&gt;Node4 -->
<g id="edge3" class="edge">
<title>Node2&#45;&gt;Node4</title>
<path fill="none" stroke="midnightblue" d="M235.5,-89.2C235.5,-81.63 235.5,-71.95 235.5,-62.53"/>
<polygon fill="midnightblue" stroke="midnightblue" points="239,-62.5 235.5,-52.5 232,-62.5 239,-62.5"/>
</g>
<!-- Node5 -->
<g id="node5" class="node">
<title>Node5</title>
<g id="a_node5"><a xlink:title=" ">
<polygon fill="none" stroke="#bfbfbf" points="326.5,-17 326.5,-36 386.5,-36 386.5,-17 326.5,-17"/>
<text text-anchor="middle" x="356.5" y="-24" font-family="Helvetica,sans-Serif" font-size="10.00">iostream</text>
</a>
</g>
</g>
<!-- Node2&#45;&gt;Node5 -->
<g id="edge4" class="edge">
<title>Node2&#45;&gt;Node5</title>
<path fill="none" stroke="midnightblue" d="M258.93,-89.3C275.39,-79.27 297.88,-65.45 317.5,-53 323.24,-49.36 329.41,-45.36 335.11,-41.63"/>
<polygon fill="midnightblue" stroke="midnightblue" points="337.12,-44.5 343.56,-36.09 333.28,-38.65 337.12,-44.5"/>
</g>
</g>
</svg>
