<?xml version="1.0" encoding="UTF-8" standalone="no"?>
<!DOCTYPE svg PUBLIC "-//W3C//DTD SVG 1.1//EN"
 "http://www.w3.org/Graphics/SVG/1.1/DTD/svg11.dtd">
<!-- Generated by graphviz version 2.43.0 (0)
 -->
<!-- Title: Components/Objects/NonVolatileStorage/include/NVS_MOCK.hpp Pages: 1 -->
<svg width="387pt" height="362pt"
 viewBox="0.00 0.00 387.00 362.00" xmlns="http://www.w3.org/2000/svg" xmlns:xlink="http://www.w3.org/1999/xlink">
<g id="graph0" class="graph" transform="scale(1 1) rotate(0) translate(4 358)">
<title>Components/Objects/NonVolatileStorage/include/NVS_MOCK.hpp</title>
<!-- Node1 -->
<g id="node1" class="node">
<title>Node1</title>
<g id="a_node1"><a xlink:title=" ">
<polygon fill="#bfbfbf" stroke="black" points="170,-312.5 170,-353.5 304,-353.5 304,-312.5 170,-312.5"/>
<text text-anchor="start" x="178" y="-341.5" font-family="Helvetica,sans-Serif" font-size="10.00">Components/Objects</text>
<text text-anchor="start" x="178" y="-330.5" font-family="Helvetica,sans-Serif" font-size="10.00">/NonVolatileStorage</text>
<text text-anchor="middle" x="237" y="-319.5" font-family="Helvetica,sans-Serif" font-size="10.00">/include/NVS_MOCK.hpp</text>
</a>
</g>
</g>
<!-- Node2 -->
<g id="node2" class="node">
<title>Node2</title>
<g id="a_node2"><a xlink:href="../../d4/d6a/_n_v_s_8hpp.html" target="_top" xlink:title=" ">
<polygon fill="none" stroke="black" points="178,-234.5 178,-275.5 296,-275.5 296,-234.5 178,-234.5"/>
<text text-anchor="start" x="186" y="-263.5" font-family="Helvetica,sans-Serif" font-size="10.00">Components/Objects</text>
<text text-anchor="start" x="186" y="-252.5" font-family="Helvetica,sans-Serif" font-size="10.00">/NonVolatileStorage</text>
<text text-anchor="middle" x="237" y="-241.5" font-family="Helvetica,sans-Serif" font-size="10.00">/include/NVS.hpp</text>
</a>
</g>
</g>
<!-- Node1&#45;&gt;Node2 -->
<g id="edge1" class="edge">
<title>Node1&#45;&gt;Node2</title>
<path fill="none" stroke="midnightblue" d="M237,-302.3C237,-293.3 237,-283.65 237,-275.51"/>
<polygon fill="midnightblue" stroke="midnightblue" points="233.5,-302.43 237,-312.43 240.5,-302.43 233.5,-302.43"/>
</g>
<!-- Node3 -->
<g id="node3" class="node">
<title>Node3</title>
<g id="a_node3"><a xlink:href="../../d4/d59/_periode_estimator_8hpp.html" target="_top" xlink:title=" ">
<polygon fill="none" stroke="black" points="85.5,-156.5 85.5,-197.5 232.5,-197.5 232.5,-156.5 85.5,-156.5"/>
<text text-anchor="start" x="93.5" y="-185.5" font-family="Helvetica,sans-Serif" font-size="10.00">Components/AnalysisTools</text>
<text text-anchor="start" x="93.5" y="-174.5" font-family="Helvetica,sans-Serif" font-size="10.00">/PeriodEstimator/include</text>
<text text-anchor="middle" x="159" y="-163.5" font-family="Helvetica,sans-Serif" font-size="10.00">/PeriodeEstimator.hpp</text>
</a>
</g>
</g>
<!-- Node2&#45;&gt;Node3 -->
<g id="edge2" class="edge">
<title>Node2&#45;&gt;Node3</title>
<path fill="none" stroke="midnightblue" d="M209.5,-227.2C199.45,-217.42 188.29,-206.54 179.02,-197.51"/>
<polygon fill="midnightblue" stroke="midnightblue" points="207.31,-229.96 216.91,-234.43 212.19,-224.94 207.31,-229.96"/>
</g>
<!-- Node7 -->
<g id="node7" class="node">
<title>Node7</title>
<g id="a_node7"><a xlink:href="../../df/d04/_n_v_s__test_8cpp.html" target="_top" xlink:title=" ">
<polygon fill="none" stroke="black" points="251,-156.5 251,-197.5 379,-197.5 379,-156.5 251,-156.5"/>
<text text-anchor="start" x="259" y="-185.5" font-family="Helvetica,sans-Serif" font-size="10.00">Components/Objects</text>
<text text-anchor="start" x="259" y="-174.5" font-family="Helvetica,sans-Serif" font-size="10.00">/NonVolatileStorage</text>
<text text-anchor="middle" x="315" y="-163.5" font-family="Helvetica,sans-Serif" font-size="10.00">/test/test/NVS_test.cpp</text>
</a>
</g>
</g>
<!-- Node2&#45;&gt;Node7 -->
<g id="edge6" class="edge">
<title>Node2&#45;&gt;Node7</title>
<path fill="none" stroke="midnightblue" d="M264.5,-227.2C274.55,-217.42 285.71,-206.54 294.98,-197.51"/>
<polygon fill="midnightblue" stroke="midnightblue" points="261.81,-224.94 257.09,-234.43 266.69,-229.96 261.81,-224.94"/>
</g>
<!-- Node4 -->
<g id="node4" class="node">
<title>Node4</title>
<g id="a_node4"><a xlink:href="../../d1/dc6/_periode_estimator__test_8cpp.html" target="_top" xlink:title=" ">
<polygon fill="none" stroke="black" points="0,-78.5 0,-119.5 148,-119.5 148,-78.5 0,-78.5"/>
<text text-anchor="start" x="8" y="-107.5" font-family="Helvetica,sans-Serif" font-size="10.00">Components/AnalysisTools</text>
<text text-anchor="start" x="8" y="-96.5" font-family="Helvetica,sans-Serif" font-size="10.00">/PeriodEstimator/test/test</text>
<text text-anchor="middle" x="74" y="-85.5" font-family="Helvetica,sans-Serif" font-size="10.00">/PeriodeEstimator_test.cpp</text>
</a>
</g>
</g>
<!-- Node3&#45;&gt;Node4 -->
<g id="edge3" class="edge">
<title>Node3&#45;&gt;Node4</title>
<path fill="none" stroke="midnightblue" d="M129.35,-149.49C118.32,-139.63 106.02,-128.63 95.82,-119.51"/>
<polygon fill="midnightblue" stroke="midnightblue" points="127.32,-152.37 137.11,-156.43 131.99,-147.15 127.32,-152.37"/>
</g>
<!-- Node5 -->
<g id="node5" class="node">
<title>Node5</title>
<g id="a_node5"><a xlink:href="../../dd/d22/_water_estimator___service_8hpp.html" target="_top" xlink:title=" ">
<polygon fill="none" stroke="black" points="166,-78.5 166,-119.5 324,-119.5 324,-78.5 166,-78.5"/>
<text text-anchor="start" x="174" y="-107.5" font-family="Helvetica,sans-Serif" font-size="10.00">Components/Service</text>
<text text-anchor="start" x="174" y="-96.5" font-family="Helvetica,sans-Serif" font-size="10.00">/WaterEstimator/include</text>
<text text-anchor="middle" x="245" y="-85.5" font-family="Helvetica,sans-Serif" font-size="10.00">/WaterEstimator_Service.hpp</text>
</a>
</g>
</g>
<!-- Node3&#45;&gt;Node5 -->
<g id="edge4" class="edge">
<title>Node3&#45;&gt;Node5</title>
<path fill="none" stroke="midnightblue" d="M188.67,-149.78C199.91,-139.84 212.51,-128.72 222.93,-119.51"/>
<polygon fill="midnightblue" stroke="midnightblue" points="186.32,-147.18 181.15,-156.43 190.96,-152.43 186.32,-147.18"/>
</g>
<!-- Node6 -->
<g id="node6" class="node">
<title>Node6</title>
<g id="a_node6"><a xlink:href="../../dd/dd3/_water_estimator___service_8cpp.html" target="_top" xlink:title=" ">
<polygon fill="none" stroke="black" points="166.5,-0.5 166.5,-41.5 323.5,-41.5 323.5,-0.5 166.5,-0.5"/>
<text text-anchor="start" x="174.5" y="-29.5" font-family="Helvetica,sans-Serif" font-size="10.00">Components/Service</text>
<text text-anchor="start" x="174.5" y="-18.5" font-family="Helvetica,sans-Serif" font-size="10.00">/WaterEstimator/src</text>
<text text-anchor="middle" x="245" y="-7.5" font-family="Helvetica,sans-Serif" font-size="10.00">/WaterEstimator_Service.cpp</text>
</a>
</g>
</g>
<!-- Node5&#45;&gt;Node6 -->
<g id="edge5" class="edge">
<title>Node5&#45;&gt;Node6</title>
<path fill="none" stroke="midnightblue" d="M245,-68.3C245,-59.3 245,-49.65 245,-41.51"/>
<polygon fill="midnightblue" stroke="midnightblue" points="241.5,-68.43 245,-78.43 248.5,-68.43 241.5,-68.43"/>
</g>
</g>
</svg>
