<?xml version="1.0" encoding="UTF-8" standalone="no"?>
<!DOCTYPE svg PUBLIC "-//W3C//DTD SVG 1.1//EN"
 "http://www.w3.org/Graphics/SVG/1.1/DTD/svg11.dtd">
<!-- Generated by graphviz version 2.43.0 (0)
 -->
<!-- Title: Components/Objects/PWM/include/HAL.hpp Pages: 1 -->
<svg width="718pt" height="351pt"
 viewBox="0.00 0.00 717.50 351.00" xmlns="http://www.w3.org/2000/svg" xmlns:xlink="http://www.w3.org/1999/xlink">
<g id="graph0" class="graph" transform="scale(1 1) rotate(0) translate(4 347)">
<title>Components/Objects/PWM/include/HAL.hpp</title>
<!-- Node1 -->
<g id="node1" class="node">
<title>Node1</title>
<g id="a_node1"><a xlink:title=" ">
<polygon fill="#bfbfbf" stroke="black" points="481,-312.5 481,-342.5 607,-342.5 607,-312.5 481,-312.5"/>
<text text-anchor="start" x="489" y="-330.5" font-family="Helvetica,sans-Serif" font-size="10.00">Components/Objects</text>
<text text-anchor="middle" x="544" y="-319.5" font-family="Helvetica,sans-Serif" font-size="10.00">/PWM/include/HAL.hpp</text>
</a>
</g>
</g>
<!-- Node2 -->
<g id="node2" class="node">
<title>Node2</title>
<g id="a_node2"><a xlink:href="../../d3/d4e/_p_w_m___a_p_i___e_s_p32_8hpp.html" target="_top" xlink:title=" ">
<polygon fill="none" stroke="black" points="407.5,-234.5 407.5,-275.5 538.5,-275.5 538.5,-234.5 407.5,-234.5"/>
<text text-anchor="start" x="415.5" y="-263.5" font-family="Helvetica,sans-Serif" font-size="10.00">Components/Objects</text>
<text text-anchor="start" x="415.5" y="-252.5" font-family="Helvetica,sans-Serif" font-size="10.00">/PWM/include/PWM_API</text>
<text text-anchor="middle" x="473" y="-241.5" font-family="Helvetica,sans-Serif" font-size="10.00">_ESP32.hpp</text>
</a>
</g>
</g>
<!-- Node1&#45;&gt;Node2 -->
<g id="edge1" class="edge">
<title>Node1&#45;&gt;Node2</title>
<path fill="none" stroke="midnightblue" d="M522.45,-305.1C512.99,-295.71 501.97,-284.76 492.73,-275.59"/>
<polygon fill="midnightblue" stroke="midnightblue" points="520.07,-307.67 529.63,-312.23 525,-302.7 520.07,-307.67"/>
</g>
<!-- Node13 -->
<g id="node13" class="node">
<title>Node13</title>
<g id="a_node13"><a xlink:href="../../dc/d84/_p_w_m_2src_2_h_a_l_8cpp.html" target="_top" xlink:title=" ">
<polygon fill="none" stroke="black" points="557,-240 557,-270 675,-270 675,-240 557,-240"/>
<text text-anchor="start" x="565" y="-258" font-family="Helvetica,sans-Serif" font-size="10.00">Components/Objects</text>
<text text-anchor="middle" x="616" y="-247" font-family="Helvetica,sans-Serif" font-size="10.00">/PWM/src/HAL.cpp</text>
</a>
</g>
</g>
<!-- Node1&#45;&gt;Node13 -->
<g id="edge12" class="edge">
<title>Node1&#45;&gt;Node13</title>
<path fill="none" stroke="midnightblue" d="M565.77,-305.19C577.32,-293.87 591.21,-280.27 601.45,-270.25"/>
<polygon fill="midnightblue" stroke="midnightblue" points="563.27,-302.74 558.57,-312.23 568.16,-307.74 563.27,-302.74"/>
</g>
<!-- Node3 -->
<g id="node3" class="node">
<title>Node3</title>
<g id="a_node3"><a xlink:href="../../dc/d07/_m_g996_r_8hpp.html" target="_top" xlink:title=" ">
<polygon fill="none" stroke="black" points="250,-156.5 250,-197.5 372,-197.5 372,-156.5 250,-156.5"/>
<text text-anchor="start" x="258" y="-185.5" font-family="Helvetica,sans-Serif" font-size="10.00">Components/Actuator</text>
<text text-anchor="start" x="258" y="-174.5" font-family="Helvetica,sans-Serif" font-size="10.00">/ServoMotor/include</text>
<text text-anchor="middle" x="311" y="-163.5" font-family="Helvetica,sans-Serif" font-size="10.00">/MG996R.hpp</text>
</a>
</g>
</g>
<!-- Node2&#45;&gt;Node3 -->
<g id="edge2" class="edge">
<title>Node2&#45;&gt;Node3</title>
<path fill="none" stroke="midnightblue" d="M421.95,-230.05C399.6,-219.57 373.72,-207.42 352.58,-197.51"/>
<polygon fill="midnightblue" stroke="midnightblue" points="420.74,-233.35 431.28,-234.43 423.71,-227.01 420.74,-233.35"/>
</g>
<!-- Node11 -->
<g id="node11" class="node">
<title>Node11</title>
<g id="a_node11"><a xlink:href="../../d1/d3e/_p_w_m___a_p_i___e_s_p32_8cpp.html" target="_top" xlink:title=" ">
<polygon fill="none" stroke="black" points="390,-162 390,-192 556,-192 556,-162 390,-162"/>
<text text-anchor="start" x="398" y="-180" font-family="Helvetica,sans-Serif" font-size="10.00">Components/Objects</text>
<text text-anchor="middle" x="473" y="-169" font-family="Helvetica,sans-Serif" font-size="10.00">/PWM/src/PWM_API_ESP32.cpp</text>
</a>
</g>
</g>
<!-- Node2&#45;&gt;Node11 -->
<g id="edge10" class="edge">
<title>Node2&#45;&gt;Node11</title>
<path fill="none" stroke="midnightblue" d="M473,-224.28C473,-213.25 473,-201.25 473,-192.23"/>
<polygon fill="midnightblue" stroke="midnightblue" points="469.5,-224.43 473,-234.43 476.5,-224.43 469.5,-224.43"/>
</g>
<!-- Node12 -->
<g id="node12" class="node">
<title>Node12</title>
<g id="a_node12"><a xlink:href="../../d1/dc7/pwm__api__esp32__test_8cpp.html" target="_top" xlink:title=" ">
<polygon fill="none" stroke="black" points="574.5,-156.5 574.5,-197.5 709.5,-197.5 709.5,-156.5 574.5,-156.5"/>
<text text-anchor="start" x="582.5" y="-185.5" font-family="Helvetica,sans-Serif" font-size="10.00">Components/Objects</text>
<text text-anchor="start" x="582.5" y="-174.5" font-family="Helvetica,sans-Serif" font-size="10.00">/PWM/test/test/pwm_api</text>
<text text-anchor="middle" x="642" y="-163.5" font-family="Helvetica,sans-Serif" font-size="10.00">_esp32_test.cpp</text>
</a>
</g>
</g>
<!-- Node2&#45;&gt;Node12 -->
<g id="edge11" class="edge">
<title>Node2&#45;&gt;Node12</title>
<path fill="none" stroke="midnightblue" d="M525.95,-230.19C549.33,-219.67 576.47,-207.47 598.63,-197.51"/>
<polygon fill="midnightblue" stroke="midnightblue" points="524.21,-227.13 516.52,-234.43 527.08,-233.52 524.21,-227.13"/>
</g>
<!-- Node4 -->
<g id="node4" class="node">
<title>Node4</title>
<g id="a_node4"><a xlink:href="../../de/da5/_m_g996_r_8cpp.html" target="_top" xlink:title=" ">
<polygon fill="none" stroke="black" points="0,-84 0,-114 158,-114 158,-84 0,-84"/>
<text text-anchor="start" x="8" y="-102" font-family="Helvetica,sans-Serif" font-size="10.00">Components/Actuator</text>
<text text-anchor="middle" x="79" y="-91" font-family="Helvetica,sans-Serif" font-size="10.00">/ServoMotor/src/MG996R.cpp</text>
</a>
</g>
</g>
<!-- Node3&#45;&gt;Node4 -->
<g id="edge3" class="edge">
<title>Node3&#45;&gt;Node4</title>
<path fill="none" stroke="midnightblue" d="M241.58,-153.26C202.75,-140.54 155.57,-125.08 122.06,-114.11"/>
<polygon fill="midnightblue" stroke="midnightblue" points="240.66,-156.64 251.25,-156.43 242.84,-149.99 240.66,-156.64"/>
</g>
<!-- Node5 -->
<g id="node5" class="node">
<title>Node5</title>
<g id="a_node5"><a xlink:href="../../d8/d14/servo__test_8cpp.html" target="_top" xlink:title=" ">
<polygon fill="none" stroke="black" points="176,-78.5 176,-119.5 298,-119.5 298,-78.5 176,-78.5"/>
<text text-anchor="start" x="184" y="-107.5" font-family="Helvetica,sans-Serif" font-size="10.00">Components/Actuator</text>
<text text-anchor="start" x="184" y="-96.5" font-family="Helvetica,sans-Serif" font-size="10.00">/ServoMotor/test/test</text>
<text text-anchor="middle" x="237" y="-85.5" font-family="Helvetica,sans-Serif" font-size="10.00">/servo_test.cpp</text>
</a>
</g>
</g>
<!-- Node3&#45;&gt;Node5 -->
<g id="edge4" class="edge">
<title>Node3&#45;&gt;Node5</title>
<path fill="none" stroke="midnightblue" d="M284.91,-149.2C275.38,-139.42 264.79,-128.54 255.99,-119.51"/>
<polygon fill="midnightblue" stroke="midnightblue" points="282.46,-151.71 291.94,-156.43 287.47,-146.82 282.46,-151.71"/>
</g>
<!-- Node6 -->
<g id="node6" class="node">
<title>Node6</title>
<g id="a_node6"><a xlink:href="../../d4/d65/_aktiv_mus__service_8hpp.html" target="_top" xlink:title=" ">
<polygon fill="none" stroke="black" points="316.5,-78.5 316.5,-119.5 453.5,-119.5 453.5,-78.5 316.5,-78.5"/>
<text text-anchor="start" x="324.5" y="-107.5" font-family="Helvetica,sans-Serif" font-size="10.00">Components/Service</text>
<text text-anchor="start" x="324.5" y="-96.5" font-family="Helvetica,sans-Serif" font-size="10.00">/AktivMusSimple/include</text>
<text text-anchor="middle" x="385" y="-85.5" font-family="Helvetica,sans-Serif" font-size="10.00">/AktivMus_service.hpp</text>
</a>
</g>
</g>
<!-- Node3&#45;&gt;Node6 -->
<g id="edge5" class="edge">
<title>Node3&#45;&gt;Node6</title>
<path fill="none" stroke="midnightblue" d="M337.09,-149.2C346.62,-139.42 357.21,-128.54 366.01,-119.51"/>
<polygon fill="midnightblue" stroke="midnightblue" points="334.53,-146.82 330.06,-156.43 339.54,-151.71 334.53,-146.82"/>
</g>
<!-- Node9 -->
<g id="node9" class="node">
<title>Node9</title>
<g id="a_node9"><a xlink:href="../../de/d0e/_dog_feeder_door_8hpp.html" target="_top" xlink:title=" ">
<polygon fill="none" stroke="black" points="471.5,-84 471.5,-114 648.5,-114 648.5,-84 471.5,-84"/>
<text text-anchor="start" x="479.5" y="-102" font-family="Helvetica,sans-Serif" font-size="10.00">Components/User/DogFeeder</text>
<text text-anchor="middle" x="560" y="-91" font-family="Helvetica,sans-Serif" font-size="10.00">Door/include/DogFeederDoor.hpp</text>
</a>
</g>
</g>
<!-- Node3&#45;&gt;Node9 -->
<g id="edge8" class="edge">
<title>Node3&#45;&gt;Node9</title>
<path fill="none" stroke="midnightblue" d="M381.93,-154.35C424.29,-141.42 476.88,-125.37 513.88,-114.08"/>
<polygon fill="midnightblue" stroke="midnightblue" points="380.77,-151.04 372.23,-157.31 382.82,-157.74 380.77,-151.04"/>
</g>
<!-- Node7 -->
<g id="node7" class="node">
<title>Node7</title>
<g id="a_node7"><a xlink:href="../../d7/db5/_aktiv_mus__service_8cpp.html" target="_top" xlink:title=" ">
<polygon fill="none" stroke="black" points="189,-0.5 189,-41.5 315,-41.5 315,-0.5 189,-0.5"/>
<text text-anchor="start" x="197" y="-29.5" font-family="Helvetica,sans-Serif" font-size="10.00">Components/Service</text>
<text text-anchor="start" x="197" y="-18.5" font-family="Helvetica,sans-Serif" font-size="10.00">/AktivMusSimple/src</text>
<text text-anchor="middle" x="252" y="-7.5" font-family="Helvetica,sans-Serif" font-size="10.00">/AktivMus_service.cpp</text>
</a>
</g>
</g>
<!-- Node6&#45;&gt;Node7 -->
<g id="edge6" class="edge">
<title>Node6&#45;&gt;Node7</title>
<path fill="none" stroke="midnightblue" d="M341.61,-73.2C323.61,-62.92 303.03,-51.16 286.13,-41.51"/>
<polygon fill="midnightblue" stroke="midnightblue" points="340.33,-76.51 350.75,-78.43 343.8,-70.43 340.33,-76.51"/>
</g>
<!-- Node8 -->
<g id="node8" class="node">
<title>Node8</title>
<g id="a_node8"><a xlink:href="../../d9/df0/_service_2_aktiv_mus_simple_2test_2test_2simple__test_8cpp.html" target="_top" xlink:title=" ">
<polygon fill="none" stroke="black" points="333.5,-0.5 333.5,-41.5 454.5,-41.5 454.5,-0.5 333.5,-0.5"/>
<text text-anchor="start" x="341.5" y="-29.5" font-family="Helvetica,sans-Serif" font-size="10.00">Components/Service</text>
<text text-anchor="start" x="341.5" y="-18.5" font-family="Helvetica,sans-Serif" font-size="10.00">/AktivMusSimple/test</text>
<text text-anchor="middle" x="394" y="-7.5" font-family="Helvetica,sans-Serif" font-size="10.00">/test/simple_test.cpp</text>
</a>
</g>
</g>
<!-- Node6&#45;&gt;Node8 -->
<g id="edge7" class="edge">
<title>Node6&#45;&gt;Node8</title>
<path fill="none" stroke="midnightblue" d="M388.52,-68.3C389.58,-59.3 390.73,-49.65 391.69,-41.51"/>
<polygon fill="midnightblue" stroke="midnightblue" points="385.02,-68.09 387.32,-78.43 391.97,-68.91 385.02,-68.09"/>
</g>
<!-- Node10 -->
<g id="node10" class="node">
<title>Node10</title>
<g id="a_node10"><a xlink:href="../../da/da0/_dog_feeder_door_8cpp.html" target="_top" xlink:title=" ">
<polygon fill="none" stroke="black" points="480.5,-6 480.5,-36 639.5,-36 639.5,-6 480.5,-6"/>
<text text-anchor="start" x="488.5" y="-24" font-family="Helvetica,sans-Serif" font-size="10.00">Components/User/DogFeeder</text>
<text text-anchor="middle" x="560" y="-13" font-family="Helvetica,sans-Serif" font-size="10.00">Door/src/DogFeederDoor.cpp</text>
</a>
</g>
</g>
<!-- Node9&#45;&gt;Node10 -->
<g id="edge9" class="edge">
<title>Node9&#45;&gt;Node10</title>
<path fill="none" stroke="midnightblue" d="M560,-73.59C560,-61.26 560,-46.72 560,-36.23"/>
<polygon fill="midnightblue" stroke="midnightblue" points="556.5,-73.7 560,-83.7 563.5,-73.71 556.5,-73.7"/>
</g>
</g>
</svg>
