<?xml version="1.0" encoding="UTF-8" standalone="no"?>
<!DOCTYPE svg PUBLIC "-//W3C//DTD SVG 1.1//EN"
 "http://www.w3.org/Graphics/SVG/1.1/DTD/svg11.dtd">
<!-- Generated by graphviz version 2.43.0 (0)
 -->
<!-- Title: QueryDataMessage Pages: 1 -->
<svg width="338pt" height="790pt"
 viewBox="0.00 0.00 337.50 790.00" xmlns="http://www.w3.org/2000/svg" xmlns:xlink="http://www.w3.org/1999/xlink">
<g id="graph0" class="graph" transform="scale(1 1) rotate(0) translate(4 786)">
<title>QueryDataMessage</title>
<!-- Node1 -->
<g id="node1" class="node">
<title>Node1</title>
<g id="a_node1"><a xlink:title=" ">
<polygon fill="#bfbfbf" stroke="black" points="60.5,-0.5 60.5,-79.5 200.5,-79.5 200.5,-0.5 60.5,-0.5"/>
<text text-anchor="middle" x="130.5" y="-67.5" font-family="Helvetica,sans-Serif" font-size="10.00">QueryDataMessage</text>
<polyline fill="none" stroke="black" points="60.5,-60.5 200.5,-60.5 "/>
<text text-anchor="middle" x="130.5" y="-48.5" font-family="Helvetica,sans-Serif" font-size="10.00"> </text>
<polyline fill="none" stroke="black" points="60.5,-41.5 200.5,-41.5 "/>
<text text-anchor="start" x="68.5" y="-29.5" font-family="Helvetica,sans-Serif" font-size="10.00">+ QueryDataMessage()</text>
<text text-anchor="start" x="68.5" y="-18.5" font-family="Helvetica,sans-Serif" font-size="10.00">+ QueryDataMessage()</text>
<text text-anchor="start" x="68.5" y="-7.5" font-family="Helvetica,sans-Serif" font-size="10.00">+ ~QueryDataMessage()</text>
</a>
</g>
</g>
<!-- Node2 -->
<g id="node2" class="node">
<title>Node2</title>
<g id="a_node2"><a xlink:href="../../d2/d8d/class_query_message_base.html" target="_top" xlink:title=" ">
<polygon fill="none" stroke="black" points="51.5,-117.5 51.5,-251.5 209.5,-251.5 209.5,-117.5 51.5,-117.5"/>
<text text-anchor="middle" x="130.5" y="-239.5" font-family="Helvetica,sans-Serif" font-size="10.00">QueryMessageBase&lt; float &gt;</text>
<polyline fill="none" stroke="black" points="51.5,-232.5 209.5,-232.5 "/>
<text text-anchor="start" x="59.5" y="-220.5" font-family="Helvetica,sans-Serif" font-size="10.00">&#45; m_entity_id</text>
<polyline fill="none" stroke="black" points="51.5,-213.5 209.5,-213.5 "/>
<text text-anchor="start" x="59.5" y="-201.5" font-family="Helvetica,sans-Serif" font-size="10.00">+ QueryMessageBase()</text>
<text text-anchor="start" x="59.5" y="-190.5" font-family="Helvetica,sans-Serif" font-size="10.00">+ QueryMessageBase()</text>
<text text-anchor="start" x="59.5" y="-179.5" font-family="Helvetica,sans-Serif" font-size="10.00">+ ~QueryMessageBase()</text>
<text text-anchor="start" x="59.5" y="-168.5" font-family="Helvetica,sans-Serif" font-size="10.00">+ addData()</text>
<text text-anchor="start" x="59.5" y="-157.5" font-family="Helvetica,sans-Serif" font-size="10.00">+ addData()</text>
<text text-anchor="start" x="59.5" y="-146.5" font-family="Helvetica,sans-Serif" font-size="10.00">+ getBuffer()</text>
<text text-anchor="start" x="59.5" y="-135.5" font-family="Helvetica,sans-Serif" font-size="10.00">+ getId()</text>
<text text-anchor="start" x="59.5" y="-124.5" font-family="Helvetica,sans-Serif" font-size="10.00">+ isEmpty()</text>
</a>
</g>
</g>
<!-- Node2&#45;&gt;Node1 -->
<g id="edge1" class="edge">
<title>Node2&#45;&gt;Node1</title>
<path fill="none" stroke="midnightblue" d="M130.5,-107.05C130.5,-97.66 130.5,-88.38 130.5,-79.89"/>
<polygon fill="none" stroke="midnightblue" points="127,-107.26 130.5,-117.26 134,-107.26 127,-107.26"/>
</g>
<!-- Node3 -->
<g id="node3" class="node">
<title>Node3</title>
<g id="a_node3"><a xlink:title=" ">
<polygon fill="none" stroke="#bfbfbf" points="54.5,-481.5 54.5,-549.5 206.5,-549.5 206.5,-481.5 54.5,-481.5"/>
<text text-anchor="start" x="62.5" y="-537.5" font-family="Helvetica,sans-Serif" font-size="10.00">std::vector&lt; QueryMessage</text>
<text text-anchor="middle" x="130.5" y="-526.5" font-family="Helvetica,sans-Serif" font-size="10.00">Base::msg_data_t &gt;</text>
<polyline fill="none" stroke="#bfbfbf" points="54.5,-519.5 206.5,-519.5 "/>
<text text-anchor="middle" x="130.5" y="-507.5" font-family="Helvetica,sans-Serif" font-size="10.00"> </text>
<polyline fill="none" stroke="#bfbfbf" points="54.5,-500.5 206.5,-500.5 "/>
<text text-anchor="middle" x="130.5" y="-488.5" font-family="Helvetica,sans-Serif" font-size="10.00"> </text>
</a>
</g>
</g>
<!-- Node3&#45;&gt;Node2 -->
<g id="edge2" class="edge">
<title>Node3&#45;&gt;Node2</title>
<path fill="none" stroke="#404040" d="M126.96,-481.25C125.58,-466.76 124.18,-449.56 123.5,-434 120.9,-374.06 121.65,-358.97 123.5,-299 123.85,-287.65 124.4,-275.67 125.03,-263.92"/>
<polygon fill="none" stroke="#404040" points="125.04,-263.77 121.39,-257.55 125.72,-251.79 129.38,-258 125.04,-263.77"/>
<text text-anchor="middle" x="151" y="-364" font-family="Helvetica,sans-Serif" font-size="10.00"> #m_buffer</text>
</g>
<!-- Node7 -->
<g id="node7" class="node">
<title>Node7</title>
<g id="a_node7"><a xlink:href="../../d2/d8d/class_query_message_base.html" target="_top" xlink:title=" ">
<polygon fill="none" stroke="black" points="187.5,-299.5 187.5,-433.5 329.5,-433.5 329.5,-299.5 187.5,-299.5"/>
<text text-anchor="middle" x="258.5" y="-421.5" font-family="Helvetica,sans-Serif" font-size="10.00">QueryMessageBase&lt; T &gt;</text>
<polyline fill="none" stroke="black" points="187.5,-414.5 329.5,-414.5 "/>
<text text-anchor="start" x="195.5" y="-402.5" font-family="Helvetica,sans-Serif" font-size="10.00">&#45; m_entity_id</text>
<polyline fill="none" stroke="black" points="187.5,-395.5 329.5,-395.5 "/>
<text text-anchor="start" x="195.5" y="-383.5" font-family="Helvetica,sans-Serif" font-size="10.00">+ QueryMessageBase()</text>
<text text-anchor="start" x="195.5" y="-372.5" font-family="Helvetica,sans-Serif" font-size="10.00">+ QueryMessageBase()</text>
<text text-anchor="start" x="195.5" y="-361.5" font-family="Helvetica,sans-Serif" font-size="10.00">+ ~QueryMessageBase()</text>
<text text-anchor="start" x="195.5" y="-350.5" font-family="Helvetica,sans-Serif" font-size="10.00">+ addData()</text>
<text text-anchor="start" x="195.5" y="-339.5" font-family="Helvetica,sans-Serif" font-size="10.00">+ addData()</text>
<text text-anchor="start" x="195.5" y="-328.5" font-family="Helvetica,sans-Serif" font-size="10.00">+ getBuffer()</text>
<text text-anchor="start" x="195.5" y="-317.5" font-family="Helvetica,sans-Serif" font-size="10.00">+ getId()</text>
<text text-anchor="start" x="195.5" y="-306.5" font-family="Helvetica,sans-Serif" font-size="10.00">+ isEmpty()</text>
</a>
</g>
</g>
<!-- Node3&#45;&gt;Node7 -->
<g id="edge8" class="edge">
<title>Node3&#45;&gt;Node7</title>
<path fill="none" stroke="#404040" d="M159.55,-481.14C169.49,-469.72 181.07,-456.43 192.72,-443.04"/>
<polygon fill="none" stroke="#404040" points="192.9,-442.84 193.82,-435.68 200.78,-433.79 199.86,-440.94 192.9,-442.84"/>
<text text-anchor="middle" x="210" y="-455" font-family="Helvetica,sans-Serif" font-size="10.00"> #m_buffer</text>
</g>
<!-- Node4 -->
<g id="node4" class="node">
<title>Node4</title>
<g id="a_node4"><a xlink:href="../../d2/d8d/class_query_message_base.html#d4/df2/struct_query_message_base_1_1msg__data__t" target="_top" xlink:title=" ">
<polygon fill="none" stroke="black" points="0,-608.5 0,-676.5 131,-676.5 131,-608.5 0,-608.5"/>
<text text-anchor="start" x="8" y="-664.5" font-family="Helvetica,sans-Serif" font-size="10.00">QueryMessageBase&lt; T</text>
<text text-anchor="middle" x="65.5" y="-653.5" font-family="Helvetica,sans-Serif" font-size="10.00"> &gt;::msg_data_t</text>
<polyline fill="none" stroke="black" points="0,-646.5 131,-646.5 "/>
<text text-anchor="start" x="8" y="-634.5" font-family="Helvetica,sans-Serif" font-size="10.00">+ time_stamp</text>
<polyline fill="none" stroke="black" points="0,-627.5 131,-627.5 "/>
<text text-anchor="middle" x="65.5" y="-615.5" font-family="Helvetica,sans-Serif" font-size="10.00"> </text>
</a>
</g>
</g>
<!-- Node4&#45;&gt;Node3 -->
<g id="edge3" class="edge">
<title>Node4&#45;&gt;Node3</title>
<path fill="none" stroke="#404040" d="M82.75,-608.33C90.31,-593.78 99.31,-576.49 107.44,-560.85"/>
<polygon fill="none" stroke="#404040" points="107.63,-560.47 106.85,-553.3 113.17,-549.82 113.95,-556.99 107.63,-560.47"/>
<text text-anchor="middle" x="131.5" y="-576.5" font-family="Helvetica,sans-Serif" font-size="10.00"> +elements</text>
</g>
<!-- Node5 -->
<g id="node5" class="node">
<title>Node5</title>
<g id="a_node5"><a xlink:title=" ">
<polygon fill="none" stroke="#bfbfbf" points="116,-724.5 116,-781.5 145,-781.5 145,-724.5 116,-724.5"/>
<text text-anchor="middle" x="130.5" y="-769.5" font-family="Helvetica,sans-Serif" font-size="10.00">T</text>
<polyline fill="none" stroke="#bfbfbf" points="116,-762.5 145,-762.5 "/>
<text text-anchor="middle" x="130.5" y="-750.5" font-family="Helvetica,sans-Serif" font-size="10.00"> </text>
<polyline fill="none" stroke="#bfbfbf" points="116,-743.5 145,-743.5 "/>
<text text-anchor="middle" x="130.5" y="-731.5" font-family="Helvetica,sans-Serif" font-size="10.00"> </text>
</a>
</g>
</g>
<!-- Node5&#45;&gt;Node4 -->
<g id="edge4" class="edge">
<title>Node5&#45;&gt;Node4</title>
<path fill="none" stroke="#404040" d="M115.91,-727.65C108.75,-715.7 99.91,-700.94 91.64,-687.13"/>
<polygon fill="none" stroke="#404040" points="91.63,-687.11 85.11,-684.02 85.46,-676.82 91.98,-679.91 91.63,-687.11"/>
<text text-anchor="middle" x="119.5" y="-698" font-family="Helvetica,sans-Serif" font-size="10.00"> +data</text>
</g>
<!-- Node6 -->
<g id="node6" class="node">
<title>Node6</title>
<g id="a_node6"><a xlink:title="STL class.">
<polygon fill="none" stroke="#bfbfbf" points="149,-614 149,-671 246,-671 246,-614 149,-614"/>
<text text-anchor="middle" x="197.5" y="-659" font-family="Helvetica,sans-Serif" font-size="10.00">std::vector&lt; T &gt;</text>
<polyline fill="none" stroke="#bfbfbf" points="149,-652 246,-652 "/>
<text text-anchor="middle" x="197.5" y="-640" font-family="Helvetica,sans-Serif" font-size="10.00"> </text>
<polyline fill="none" stroke="#bfbfbf" points="149,-633 246,-633 "/>
<text text-anchor="middle" x="197.5" y="-621" font-family="Helvetica,sans-Serif" font-size="10.00"> </text>
</a>
</g>
</g>
<!-- Node5&#45;&gt;Node6 -->
<g id="edge6" class="edge">
<title>Node5&#45;&gt;Node6</title>
<path fill="none" stroke="#404040" d="M145.04,-728.46C153.48,-714.78 164.32,-697.23 173.95,-681.63"/>
<polygon fill="none" stroke="#404040" points="174.08,-681.43 173.83,-674.22 180.38,-671.22 180.63,-678.43 174.08,-681.43"/>
<text text-anchor="middle" x="192.5" y="-698" font-family="Helvetica,sans-Serif" font-size="10.00"> +elements</text>
</g>
<!-- Node6&#45;&gt;Node3 -->
<g id="edge5" class="edge">
<title>Node6&#45;&gt;Node3</title>
<path fill="none" stroke="orange" d="M180.97,-604.72C175.38,-592.85 168.92,-579.74 162.5,-568 159.22,-562 155.54,-555.72 151.88,-549.7"/>
<polygon fill="orange" stroke="orange" points="177.85,-606.32 185.25,-613.91 184.2,-603.37 177.85,-606.32"/>
<text text-anchor="start" x="173.5" y="-582" font-family="Helvetica,sans-Serif" font-size="10.00"> &lt; QueryMessageBase</text>
<text text-anchor="middle" x="229.5" y="-571" font-family="Helvetica,sans-Serif" font-size="10.00">::msg_data_t &gt;</text>
</g>
<!-- Node7&#45;&gt;Node2 -->
<g id="edge7" class="edge">
<title>Node7&#45;&gt;Node2</title>
<path fill="none" stroke="orange" d="M205.54,-291.03C196.29,-278.02 186.72,-264.56 177.64,-251.8"/>
<polygon fill="orange" stroke="orange" points="202.92,-293.38 211.56,-299.5 208.62,-289.32 202.92,-293.38"/>
<text text-anchor="middle" x="221.5" y="-273" font-family="Helvetica,sans-Serif" font-size="10.00"> &lt; float &gt;</text>
</g>
</g>
</svg>
