<?xml version="1.0" encoding="UTF-8" standalone="no"?>
<!DOCTYPE svg PUBLIC "-//W3C//DTD SVG 1.1//EN"
 "http://www.w3.org/Graphics/SVG/1.1/DTD/svg11.dtd">
<!-- Generated by graphviz version 2.43.0 (0)
 -->
<!-- Title: FaultHandler_n::msg_t Pages: 1 -->
<svg width="153pt" height="288pt"
 viewBox="0.00 0.00 152.50 288.00" xmlns="http://www.w3.org/2000/svg" xmlns:xlink="http://www.w3.org/1999/xlink">
<g id="graph0" class="graph" transform="scale(1 1) rotate(0) translate(4 284)">
<title>FaultHandler_n::msg_t</title>
<!-- Node1 -->
<g id="node1" class="node">
<title>Node1</title>
<g id="a_node1"><a xlink:title=" ">
<polygon fill="#bfbfbf" stroke="black" points="0,-0.5 0,-57.5 125,-57.5 125,-0.5 0,-0.5"/>
<text text-anchor="middle" x="62.5" y="-45.5" font-family="Helvetica,sans-Serif" font-size="10.00">FaultHandler_n::msg_t</text>
<polyline fill="none" stroke="black" points="0,-38.5 125,-38.5 "/>
<text text-anchor="start" x="8" y="-26.5" font-family="Helvetica,sans-Serif" font-size="10.00">+ level</text>
<polyline fill="none" stroke="black" points="0,-19.5 125,-19.5 "/>
<text text-anchor="middle" x="62.5" y="-7.5" font-family="Helvetica,sans-Serif" font-size="10.00"> </text>
</a>
</g>
</g>
<!-- Node2 -->
<g id="node2" class="node">
<title>Node2</title>
<g id="a_node2"><a xlink:title="STL class.">
<polygon fill="none" stroke="#bfbfbf" points="30,-116.5 30,-173.5 95,-173.5 95,-116.5 30,-116.5"/>
<text text-anchor="middle" x="62.5" y="-161.5" font-family="Helvetica,sans-Serif" font-size="10.00">std::string</text>
<polyline fill="none" stroke="#bfbfbf" points="30,-154.5 95,-154.5 "/>
<text text-anchor="middle" x="62.5" y="-142.5" font-family="Helvetica,sans-Serif" font-size="10.00"> </text>
<polyline fill="none" stroke="#bfbfbf" points="30,-135.5 95,-135.5 "/>
<text text-anchor="middle" x="62.5" y="-123.5" font-family="Helvetica,sans-Serif" font-size="10.00"> </text>
</a>
</g>
</g>
<!-- Node2&#45;&gt;Node1 -->
<g id="edge1" class="edge">
<title>Node2&#45;&gt;Node1</title>
<path fill="none" stroke="#404040" d="M62.5,-116.4C62.5,-102.5 62.5,-85.39 62.5,-70.07"/>
<polygon fill="none" stroke="#404040" points="62.5,-69.74 58.5,-63.74 62.5,-57.74 66.5,-63.74 62.5,-69.74"/>
<text text-anchor="middle" x="103.5" y="-90" font-family="Helvetica,sans-Serif" font-size="10.00"> +describtion</text>
<text text-anchor="middle" x="103.5" y="-79" font-family="Helvetica,sans-Serif" font-size="10.00">+function_name</text>
</g>
<!-- Node3 -->
<g id="node3" class="node">
<title>Node3</title>
<g id="a_node3"><a xlink:title="STL class.">
<polygon fill="none" stroke="#bfbfbf" points="10.5,-211.5 10.5,-279.5 114.5,-279.5 114.5,-211.5 10.5,-211.5"/>
<text text-anchor="start" x="18.5" y="-267.5" font-family="Helvetica,sans-Serif" font-size="10.00">std::basic_string&lt;</text>
<text text-anchor="middle" x="62.5" y="-256.5" font-family="Helvetica,sans-Serif" font-size="10.00"> char &gt;</text>
<polyline fill="none" stroke="#bfbfbf" points="10.5,-249.5 114.5,-249.5 "/>
<text text-anchor="middle" x="62.5" y="-237.5" font-family="Helvetica,sans-Serif" font-size="10.00"> </text>
<polyline fill="none" stroke="#bfbfbf" points="10.5,-230.5 114.5,-230.5 "/>
<text text-anchor="middle" x="62.5" y="-218.5" font-family="Helvetica,sans-Serif" font-size="10.00"> </text>
</a>
</g>
</g>
<!-- Node3&#45;&gt;Node2 -->
<g id="edge2" class="edge">
<title>Node3&#45;&gt;Node2</title>
<path fill="none" stroke="midnightblue" d="M62.5,-201.38C62.5,-191.94 62.5,-182.2 62.5,-173.57"/>
<polygon fill="none" stroke="midnightblue" points="59,-201.43 62.5,-211.43 66,-201.43 59,-201.43"/>
</g>
</g>
</svg>
