<?xml version="1.0" encoding="UTF-8" standalone="no"?>
<!DOCTYPE svg PUBLIC "-//W3C//DTD SVG 1.1//EN"
 "http://www.w3.org/Graphics/SVG/1.1/DTD/svg11.dtd">
<!-- Generated by graphviz version 2.43.0 (0)
 -->
<!-- Title: Components/Connector/WiFi_v2/include/WiFi_SAL_esp32.hpp Pages: 1 -->
<svg width="609pt" height="284pt"
 viewBox="0.00 0.00 609.00 284.00" xmlns="http://www.w3.org/2000/svg" xmlns:xlink="http://www.w3.org/1999/xlink">
<g id="graph0" class="graph" transform="scale(1 1) rotate(0) translate(4 280)">
<title>Components/Connector/WiFi_v2/include/WiFi_SAL_esp32.hpp</title>
<!-- Node1 -->
<g id="node1" class="node">
<title>Node1</title>
<g id="a_node1"><a xlink:title=" ">
<polygon fill="#bfbfbf" stroke="black" points="152,-234.5 152,-275.5 283,-275.5 283,-234.5 152,-234.5"/>
<text text-anchor="start" x="160" y="-263.5" font-family="Helvetica,sans-Serif" font-size="10.00">Components/Connector</text>
<text text-anchor="start" x="160" y="-252.5" font-family="Helvetica,sans-Serif" font-size="10.00">/WiFi_v2/include/WiFi</text>
<text text-anchor="middle" x="217.5" y="-241.5" font-family="Helvetica,sans-Serif" font-size="10.00">_SAL_esp32.hpp</text>
</a>
</g>
</g>
<!-- Node2 -->
<g id="node2" class="node">
<title>Node2</title>
<g id="a_node2"><a xlink:href="../../d7/dc3/_wi_fi___s_a_l__esp32_8cpp.html" target="_top" xlink:title=" ">
<polygon fill="none" stroke="black" points="0,-156.5 0,-197.5 131,-197.5 131,-156.5 0,-156.5"/>
<text text-anchor="start" x="8" y="-185.5" font-family="Helvetica,sans-Serif" font-size="10.00">Components/Connector</text>
<text text-anchor="start" x="8" y="-174.5" font-family="Helvetica,sans-Serif" font-size="10.00">/WiFi_v2/src/WiFi_SAL</text>
<text text-anchor="middle" x="65.5" y="-163.5" font-family="Helvetica,sans-Serif" font-size="10.00">_esp32.cpp</text>
</a>
</g>
</g>
<!-- Node1&#45;&gt;Node2 -->
<g id="edge1" class="edge">
<title>Node1&#45;&gt;Node2</title>
<path fill="none" stroke="midnightblue" d="M169.32,-229.91C148.42,-219.46 124.26,-207.38 104.51,-197.51"/>
<polygon fill="midnightblue" stroke="midnightblue" points="167.85,-233.09 178.36,-234.43 170.98,-226.83 167.85,-233.09"/>
</g>
<!-- Node3 -->
<g id="node3" class="node">
<title>Node3</title>
<g id="a_node3"><a xlink:href="../../d7/d5d/_connector_2_wi_fi__v2_2test_2test_2simple__test_8cpp.html" target="_top" xlink:title=" ">
<polygon fill="none" stroke="black" points="149,-156.5 149,-197.5 286,-197.5 286,-156.5 149,-156.5"/>
<text text-anchor="start" x="157" y="-185.5" font-family="Helvetica,sans-Serif" font-size="10.00">Components/Connector</text>
<text text-anchor="start" x="157" y="-174.5" font-family="Helvetica,sans-Serif" font-size="10.00">/WiFi_v2/test/test/simple</text>
<text text-anchor="middle" x="217.5" y="-163.5" font-family="Helvetica,sans-Serif" font-size="10.00">_test.cpp</text>
</a>
</g>
</g>
<!-- Node1&#45;&gt;Node3 -->
<g id="edge2" class="edge">
<title>Node1&#45;&gt;Node3</title>
<path fill="none" stroke="midnightblue" d="M217.5,-224.3C217.5,-215.3 217.5,-205.65 217.5,-197.51"/>
<polygon fill="midnightblue" stroke="midnightblue" points="214,-224.43 217.5,-234.43 221,-224.43 214,-224.43"/>
</g>
<!-- Node4 -->
<g id="node4" class="node">
<title>Node4</title>
<g id="a_node4"><a xlink:href="../../d0/d6a/_maintainer_8hpp.html" target="_top" xlink:title=" ">
<polygon fill="none" stroke="black" points="304.5,-156.5 304.5,-197.5 422.5,-197.5 422.5,-156.5 304.5,-156.5"/>
<text text-anchor="start" x="312.5" y="-185.5" font-family="Helvetica,sans-Serif" font-size="10.00">Components/Objects</text>
<text text-anchor="start" x="312.5" y="-174.5" font-family="Helvetica,sans-Serif" font-size="10.00">/Maintainer/include</text>
<text text-anchor="middle" x="363.5" y="-163.5" font-family="Helvetica,sans-Serif" font-size="10.00">/Maintainer.hpp</text>
</a>
</g>
</g>
<!-- Node1&#45;&gt;Node4 -->
<g id="edge3" class="edge">
<title>Node1&#45;&gt;Node4</title>
<path fill="none" stroke="midnightblue" d="M264.05,-229.77C284.06,-219.35 307.14,-207.34 326.03,-197.51"/>
<polygon fill="midnightblue" stroke="midnightblue" points="262.35,-226.71 255.1,-234.43 265.58,-232.92 262.35,-226.71"/>
</g>
<!-- Node5 -->
<g id="node5" class="node">
<title>Node5</title>
<g id="a_node5"><a xlink:href="../../dd/ddd/_maintainer_8cpp.html" target="_top" xlink:title=" ">
<polygon fill="none" stroke="black" points="122.5,-84 122.5,-114 286.5,-114 286.5,-84 122.5,-84"/>
<text text-anchor="start" x="130.5" y="-102" font-family="Helvetica,sans-Serif" font-size="10.00">Components/Objects</text>
<text text-anchor="middle" x="204.5" y="-91" font-family="Helvetica,sans-Serif" font-size="10.00">/Maintainer/src/Maintainer.cpp</text>
</a>
</g>
</g>
<!-- Node4&#45;&gt;Node5 -->
<g id="edge4" class="edge">
<title>Node4&#45;&gt;Node5</title>
<path fill="none" stroke="midnightblue" d="M313.23,-151.97C287.25,-139.55 256.44,-124.83 234.26,-114.23"/>
<polygon fill="midnightblue" stroke="midnightblue" points="312.02,-155.27 322.55,-156.43 315.04,-148.96 312.02,-155.27"/>
</g>
<!-- Node6 -->
<g id="node6" class="node">
<title>Node6</title>
<g id="a_node6"><a xlink:href="../../d8/d4a/maintainer__test_8cpp.html" target="_top" xlink:title=" ">
<polygon fill="none" stroke="black" points="304.5,-78.5 304.5,-119.5 422.5,-119.5 422.5,-78.5 304.5,-78.5"/>
<text text-anchor="start" x="312.5" y="-107.5" font-family="Helvetica,sans-Serif" font-size="10.00">Components/Objects</text>
<text text-anchor="start" x="312.5" y="-96.5" font-family="Helvetica,sans-Serif" font-size="10.00">/Maintainer/test/test</text>
<text text-anchor="middle" x="363.5" y="-85.5" font-family="Helvetica,sans-Serif" font-size="10.00">/maintainer_test.cpp</text>
</a>
</g>
</g>
<!-- Node4&#45;&gt;Node6 -->
<g id="edge5" class="edge">
<title>Node4&#45;&gt;Node6</title>
<path fill="none" stroke="midnightblue" d="M363.5,-146.3C363.5,-137.3 363.5,-127.65 363.5,-119.51"/>
<polygon fill="midnightblue" stroke="midnightblue" points="360,-146.43 363.5,-156.43 367,-146.43 360,-146.43"/>
</g>
<!-- Node7 -->
<g id="node7" class="node">
<title>Node7</title>
<g id="a_node7"><a xlink:href="../../dd/d82/_active_current_sensor_8hpp.html" target="_top" xlink:title=" ">
<polygon fill="none" stroke="black" points="440.5,-78.5 440.5,-119.5 588.5,-119.5 588.5,-78.5 440.5,-78.5"/>
<text text-anchor="start" x="448.5" y="-107.5" font-family="Helvetica,sans-Serif" font-size="10.00">Components/Sensor/Active</text>
<text text-anchor="start" x="448.5" y="-96.5" font-family="Helvetica,sans-Serif" font-size="10.00">CurrentSensor/include</text>
<text text-anchor="middle" x="514.5" y="-85.5" font-family="Helvetica,sans-Serif" font-size="10.00">/ActiveCurrentSensor.hpp</text>
</a>
</g>
</g>
<!-- Node4&#45;&gt;Node7 -->
<g id="edge6" class="edge">
<title>Node4&#45;&gt;Node7</title>
<path fill="none" stroke="midnightblue" d="M411.37,-151.91C432.13,-141.46 456.13,-129.38 475.75,-119.51"/>
<polygon fill="midnightblue" stroke="midnightblue" points="409.75,-148.81 402.39,-156.43 412.89,-155.06 409.75,-148.81"/>
</g>
<!-- Node8 -->
<g id="node8" class="node">
<title>Node8</title>
<g id="a_node8"><a xlink:href="../../d2/d77/_active_current_sensor_8cpp.html" target="_top" xlink:title=" ">
<polygon fill="none" stroke="black" points="428,-0.5 428,-41.5 601,-41.5 601,-0.5 428,-0.5"/>
<text text-anchor="start" x="436" y="-29.5" font-family="Helvetica,sans-Serif" font-size="10.00">Components/Sensor/Active</text>
<text text-anchor="start" x="436" y="-18.5" font-family="Helvetica,sans-Serif" font-size="10.00">CurrentSensor/src/ActiveCurrent</text>
<text text-anchor="middle" x="514.5" y="-7.5" font-family="Helvetica,sans-Serif" font-size="10.00">Sensor.cpp</text>
</a>
</g>
</g>
<!-- Node7&#45;&gt;Node8 -->
<g id="edge7" class="edge">
<title>Node7&#45;&gt;Node8</title>
<path fill="none" stroke="midnightblue" d="M514.5,-68.3C514.5,-59.3 514.5,-49.65 514.5,-41.51"/>
<polygon fill="midnightblue" stroke="midnightblue" points="511,-68.43 514.5,-78.43 518,-68.43 511,-68.43"/>
</g>
</g>
</svg>
