<?xml version="1.0" encoding="UTF-8" standalone="no"?>
<!DOCTYPE svg PUBLIC "-//W3C//DTD SVG 1.1//EN"
 "http://www.w3.org/Graphics/SVG/1.1/DTD/svg11.dtd">
<!-- Generated by graphviz version 2.43.0 (0)
 -->
<!-- Title: Components/Connector/WiFi/src/WiFi.cpp Pages: 1 -->
<svg width="556pt" height="218pt"
 viewBox="0.00 0.00 555.50 218.00" xmlns="http://www.w3.org/2000/svg" xmlns:xlink="http://www.w3.org/1999/xlink">
<g id="graph0" class="graph" transform="scale(1 1) rotate(0) translate(4 214)">
<title>Components/Connector/WiFi/src/WiFi.cpp</title>
<!-- Node1 -->
<g id="node1" class="node">
<title>Node1</title>
<g id="a_node1"><a xlink:title=" ">
<polygon fill="#bfbfbf" stroke="black" points="118.5,-179.5 118.5,-209.5 249.5,-209.5 249.5,-179.5 118.5,-179.5"/>
<text text-anchor="start" x="126.5" y="-197.5" font-family="Helvetica,sans-Serif" font-size="10.00">Components/Connector</text>
<text text-anchor="middle" x="184" y="-186.5" font-family="Helvetica,sans-Serif" font-size="10.00">/WiFi/src/WiFi.cpp</text>
</a>
</g>
</g>
<!-- Node2 -->
<g id="node2" class="node">
<title>Node2</title>
<g id="a_node2"><a xlink:title=" ">
<polygon fill="none" stroke="#bfbfbf" points="0,-123.5 0,-142.5 64,-142.5 64,-123.5 0,-123.5"/>
<text text-anchor="middle" x="32" y="-130.5" font-family="Helvetica,sans-Serif" font-size="10.00">algorithm</text>
</a>
</g>
</g>
<!-- Node1&#45;&gt;Node2 -->
<g id="edge1" class="edge">
<title>Node1&#45;&gt;Node2</title>
<path fill="none" stroke="midnightblue" d="M147.98,-179.4C122.36,-169.37 88.27,-156.03 63.69,-146.4"/>
<polygon fill="midnightblue" stroke="midnightblue" points="64.71,-143.04 54.12,-142.66 62.15,-149.56 64.71,-143.04"/>
</g>
<!-- Node3 -->
<g id="node3" class="node">
<title>Node3</title>
<g id="a_node3"><a xlink:title=" ">
<polygon fill="none" stroke="#bfbfbf" points="82,-123.5 82,-142.5 138,-142.5 138,-123.5 82,-123.5"/>
<text text-anchor="middle" x="110" y="-130.5" font-family="Helvetica,sans-Serif" font-size="10.00">iomanip</text>
</a>
</g>
</g>
<!-- Node1&#45;&gt;Node3 -->
<g id="edge2" class="edge">
<title>Node1&#45;&gt;Node3</title>
<path fill="none" stroke="midnightblue" d="M166.46,-179.4C155.16,-170.31 140.46,-158.49 128.89,-149.19"/>
<polygon fill="midnightblue" stroke="midnightblue" points="130.75,-146.2 120.77,-142.66 126.37,-151.65 130.75,-146.2"/>
</g>
<!-- Node4 -->
<g id="node4" class="node">
<title>Node4</title>
<g id="a_node4"><a xlink:title=" ">
<polygon fill="none" stroke="#bfbfbf" points="156,-123.5 156,-142.5 212,-142.5 212,-123.5 156,-123.5"/>
<text text-anchor="middle" x="184" y="-130.5" font-family="Helvetica,sans-Serif" font-size="10.00">sstream</text>
</a>
</g>
</g>
<!-- Node1&#45;&gt;Node4 -->
<g id="edge3" class="edge">
<title>Node1&#45;&gt;Node4</title>
<path fill="none" stroke="midnightblue" d="M184,-179.4C184,-171.47 184,-161.46 184,-152.86"/>
<polygon fill="midnightblue" stroke="midnightblue" points="187.5,-152.66 184,-142.66 180.5,-152.66 187.5,-152.66"/>
</g>
<!-- Node5 -->
<g id="node5" class="node">
<title>Node5</title>
<g id="a_node5"><a xlink:title=" ">
<polygon fill="none" stroke="#bfbfbf" points="301,-0.5 301,-19.5 345,-19.5 345,-0.5 301,-0.5"/>
<text text-anchor="middle" x="323" y="-7.5" font-family="Helvetica,sans-Serif" font-size="10.00">string</text>
</a>
</g>
</g>
<!-- Node1&#45;&gt;Node5 -->
<g id="edge4" class="edge">
<title>Node1&#45;&gt;Node5</title>
<path fill="none" stroke="midnightblue" d="M195.57,-179.49C203.35,-169.66 213.52,-156 221,-143 242.04,-106.43 232.31,-88.68 259,-56 269.37,-43.3 284.19,-32.57 296.96,-24.78"/>
<polygon fill="midnightblue" stroke="midnightblue" points="298.91,-27.69 305.8,-19.64 295.39,-21.64 298.91,-27.69"/>
</g>
<!-- Node6 -->
<g id="node6" class="node">
<title>Node6</title>
<g id="a_node6"><a xlink:href="../../d7/d2f/_wi_fi_8h.html" target="_top" xlink:title=" ">
<polygon fill="none" stroke="black" points="279,-123.5 279,-142.5 373,-142.5 373,-123.5 279,-123.5"/>
<text text-anchor="middle" x="326" y="-130.5" font-family="Helvetica,sans-Serif" font-size="10.00">../include/WiFi.h</text>
</a>
</g>
</g>
<!-- Node1&#45;&gt;Node6 -->
<g id="edge5" class="edge">
<title>Node1&#45;&gt;Node6</title>
<path fill="none" stroke="midnightblue" d="M217.65,-179.4C241.48,-169.42 273.15,-156.15 296.09,-146.53"/>
<polygon fill="midnightblue" stroke="midnightblue" points="297.47,-149.75 305.34,-142.66 294.76,-143.29 297.47,-149.75"/>
</g>
<!-- Node7 -->
<g id="node7" class="node">
<title>Node7</title>
<g id="a_node7"><a xlink:href="../../da/d5f/_b_a_s_i_c_8hpp.html" target="_top" xlink:title=" ">
<polygon fill="none" stroke="black" points="268,-56.5 268,-86.5 384,-86.5 384,-56.5 268,-56.5"/>
<text text-anchor="start" x="276" y="-74.5" font-family="Helvetica,sans-Serif" font-size="10.00">../../../Global_Include</text>
<text text-anchor="middle" x="326" y="-63.5" font-family="Helvetica,sans-Serif" font-size="10.00">/BASIC.hpp</text>
</a>
</g>
</g>
<!-- Node6&#45;&gt;Node7 -->
<g id="edge6" class="edge">
<title>Node6&#45;&gt;Node7</title>
<path fill="none" stroke="midnightblue" d="M326,-123.48C326,-116.47 326,-106.19 326,-96.7"/>
<polygon fill="midnightblue" stroke="midnightblue" points="329.5,-96.52 326,-86.52 322.5,-96.52 329.5,-96.52"/>
</g>
<!-- Node8 -->
<g id="node8" class="node">
<title>Node8</title>
<g id="a_node8"><a xlink:href="../../d3/deb/_general___error_8hpp.html" target="_top" xlink:title=" ">
<polygon fill="none" stroke="black" points="402.5,-56.5 402.5,-86.5 547.5,-86.5 547.5,-56.5 402.5,-56.5"/>
<text text-anchor="start" x="410.5" y="-74.5" font-family="Helvetica,sans-Serif" font-size="10.00">../../../Objects/ErrorHandler</text>
<text text-anchor="middle" x="475" y="-63.5" font-family="Helvetica,sans-Serif" font-size="10.00">/include/General_Error.hpp</text>
</a>
</g>
</g>
<!-- Node6&#45;&gt;Node8 -->
<g id="edge7" class="edge">
<title>Node6&#45;&gt;Node8</title>
<path fill="none" stroke="midnightblue" d="M347.35,-123.48C368.94,-114.85 402.97,-101.26 430.46,-90.29"/>
<polygon fill="midnightblue" stroke="midnightblue" points="431.89,-93.48 439.88,-86.52 429.3,-86.98 431.89,-93.48"/>
</g>
<!-- Node8&#45;&gt;Node5 -->
<g id="edge8" class="edge">
<title>Node8&#45;&gt;Node5</title>
<path fill="none" stroke="midnightblue" d="M438.98,-56.4C413.36,-46.37 379.27,-33.03 354.69,-23.4"/>
<polygon fill="midnightblue" stroke="midnightblue" points="355.71,-20.04 345.12,-19.66 353.15,-26.56 355.71,-20.04"/>
</g>
<!-- Node9 -->
<g id="node9" class="node">
<title>Node9</title>
<g id="a_node9"><a xlink:title=" ">
<polygon fill="none" stroke="#bfbfbf" points="445,-0.5 445,-19.5 505,-19.5 505,-0.5 445,-0.5"/>
<text text-anchor="middle" x="475" y="-7.5" font-family="Helvetica,sans-Serif" font-size="10.00">iostream</text>
</a>
</g>
</g>
<!-- Node8&#45;&gt;Node9 -->
<g id="edge9" class="edge">
<title>Node8&#45;&gt;Node9</title>
<path fill="none" stroke="midnightblue" d="M475,-56.4C475,-48.47 475,-38.46 475,-29.86"/>
<polygon fill="midnightblue" stroke="midnightblue" points="478.5,-29.66 475,-19.66 471.5,-29.66 478.5,-29.66"/>
</g>
</g>
</svg>
