<?xml version="1.0" encoding="UTF-8" standalone="no"?>
<!DOCTYPE svg PUBLIC "-//W3C//DTD SVG 1.1//EN"
 "http://www.w3.org/Graphics/SVG/1.1/DTD/svg11.dtd">
<!-- Generated by graphviz version 2.43.0 (0)
 -->
<!-- Title: QueryMessageBase&lt; T &gt; Pages: 1 -->
<svg width="294pt" height="491pt"
 viewBox="0.00 0.00 293.50 491.00" xmlns="http://www.w3.org/2000/svg" xmlns:xlink="http://www.w3.org/1999/xlink">
<g id="graph0" class="graph" transform="scale(1 1) rotate(0) translate(4 487)">
<title>QueryMessageBase&lt; T &gt;</title>
<!-- Node1 -->
<g id="node1" class="node">
<title>Node1</title>
<g id="a_node1"><a xlink:title=" ">
<polygon fill="#bfbfbf" stroke="black" points="59.5,-0.5 59.5,-134.5 201.5,-134.5 201.5,-0.5 59.5,-0.5"/>
<text text-anchor="middle" x="130.5" y="-122.5" font-family="Helvetica,sans-Serif" font-size="10.00">QueryMessageBase&lt; T &gt;</text>
<polyline fill="none" stroke="black" points="59.5,-115.5 201.5,-115.5 "/>
<text text-anchor="start" x="67.5" y="-103.5" font-family="Helvetica,sans-Serif" font-size="10.00">&#45; m_entity_id</text>
<polyline fill="none" stroke="black" points="59.5,-96.5 201.5,-96.5 "/>
<text text-anchor="start" x="67.5" y="-84.5" font-family="Helvetica,sans-Serif" font-size="10.00">+ QueryMessageBase()</text>
<text text-anchor="start" x="67.5" y="-73.5" font-family="Helvetica,sans-Serif" font-size="10.00">+ QueryMessageBase()</text>
<text text-anchor="start" x="67.5" y="-62.5" font-family="Helvetica,sans-Serif" font-size="10.00">+ ~QueryMessageBase()</text>
<text text-anchor="start" x="67.5" y="-51.5" font-family="Helvetica,sans-Serif" font-size="10.00">+ addData()</text>
<text text-anchor="start" x="67.5" y="-40.5" font-family="Helvetica,sans-Serif" font-size="10.00">+ addData()</text>
<text text-anchor="start" x="67.5" y="-29.5" font-family="Helvetica,sans-Serif" font-size="10.00">+ getBuffer()</text>
<text text-anchor="start" x="67.5" y="-18.5" font-family="Helvetica,sans-Serif" font-size="10.00">+ getId()</text>
<text text-anchor="start" x="67.5" y="-7.5" font-family="Helvetica,sans-Serif" font-size="10.00">+ isEmpty()</text>
</a>
</g>
</g>
<!-- Node2 -->
<g id="node2" class="node">
<title>Node2</title>
<g id="a_node2"><a xlink:title=" ">
<polygon fill="none" stroke="#bfbfbf" points="54.5,-182.5 54.5,-250.5 206.5,-250.5 206.5,-182.5 54.5,-182.5"/>
<text text-anchor="start" x="62.5" y="-238.5" font-family="Helvetica,sans-Serif" font-size="10.00">std::vector&lt; QueryMessage</text>
<text text-anchor="middle" x="130.5" y="-227.5" font-family="Helvetica,sans-Serif" font-size="10.00">Base::msg_data_t &gt;</text>
<polyline fill="none" stroke="#bfbfbf" points="54.5,-220.5 206.5,-220.5 "/>
<text text-anchor="middle" x="130.5" y="-208.5" font-family="Helvetica,sans-Serif" font-size="10.00"> </text>
<polyline fill="none" stroke="#bfbfbf" points="54.5,-201.5 206.5,-201.5 "/>
<text text-anchor="middle" x="130.5" y="-189.5" font-family="Helvetica,sans-Serif" font-size="10.00"> </text>
</a>
</g>
</g>
<!-- Node2&#45;&gt;Node1 -->
<g id="edge1" class="edge">
<title>Node2&#45;&gt;Node1</title>
<path fill="none" stroke="#404040" d="M130.5,-182.14C130.5,-171.6 130.5,-159.46 130.5,-147.13"/>
<polygon fill="none" stroke="#404040" points="130.5,-146.79 126.5,-140.79 130.5,-134.79 134.5,-140.79 130.5,-146.79"/>
<text text-anchor="middle" x="158" y="-156" font-family="Helvetica,sans-Serif" font-size="10.00"> #m_buffer</text>
</g>
<!-- Node3 -->
<g id="node3" class="node">
<title>Node3</title>
<g id="a_node3"><a xlink:href="../../d2/d8d/class_query_message_base.html#d4/df2/struct_query_message_base_1_1msg__data__t" target="_top" xlink:title=" ">
<polygon fill="none" stroke="black" points="0,-309.5 0,-377.5 131,-377.5 131,-309.5 0,-309.5"/>
<text text-anchor="start" x="8" y="-365.5" font-family="Helvetica,sans-Serif" font-size="10.00">QueryMessageBase&lt; T</text>
<text text-anchor="middle" x="65.5" y="-354.5" font-family="Helvetica,sans-Serif" font-size="10.00"> &gt;::msg_data_t</text>
<polyline fill="none" stroke="black" points="0,-347.5 131,-347.5 "/>
<text text-anchor="start" x="8" y="-335.5" font-family="Helvetica,sans-Serif" font-size="10.00">+ time_stamp</text>
<polyline fill="none" stroke="black" points="0,-328.5 131,-328.5 "/>
<text text-anchor="middle" x="65.5" y="-316.5" font-family="Helvetica,sans-Serif" font-size="10.00"> </text>
</a>
</g>
</g>
<!-- Node3&#45;&gt;Node2 -->
<g id="edge2" class="edge">
<title>Node3&#45;&gt;Node2</title>
<path fill="none" stroke="#404040" d="M82.75,-309.33C90.31,-294.78 99.31,-277.49 107.44,-261.85"/>
<polygon fill="none" stroke="#404040" points="107.63,-261.47 106.85,-254.3 113.17,-250.82 113.95,-257.99 107.63,-261.47"/>
<text text-anchor="middle" x="131.5" y="-277.5" font-family="Helvetica,sans-Serif" font-size="10.00"> +elements</text>
</g>
<!-- Node4 -->
<g id="node4" class="node">
<title>Node4</title>
<g id="a_node4"><a xlink:title=" ">
<polygon fill="none" stroke="#bfbfbf" points="116,-425.5 116,-482.5 145,-482.5 145,-425.5 116,-425.5"/>
<text text-anchor="middle" x="130.5" y="-470.5" font-family="Helvetica,sans-Serif" font-size="10.00">T</text>
<polyline fill="none" stroke="#bfbfbf" points="116,-463.5 145,-463.5 "/>
<text text-anchor="middle" x="130.5" y="-451.5" font-family="Helvetica,sans-Serif" font-size="10.00"> </text>
<polyline fill="none" stroke="#bfbfbf" points="116,-444.5 145,-444.5 "/>
<text text-anchor="middle" x="130.5" y="-432.5" font-family="Helvetica,sans-Serif" font-size="10.00"> </text>
</a>
</g>
</g>
<!-- Node4&#45;&gt;Node3 -->
<g id="edge3" class="edge">
<title>Node4&#45;&gt;Node3</title>
<path fill="none" stroke="#404040" d="M115.91,-428.65C108.75,-416.7 99.91,-401.94 91.64,-388.13"/>
<polygon fill="none" stroke="#404040" points="91.63,-388.11 85.11,-385.02 85.46,-377.82 91.98,-380.91 91.63,-388.11"/>
<text text-anchor="middle" x="119.5" y="-399" font-family="Helvetica,sans-Serif" font-size="10.00"> +data</text>
</g>
<!-- Node5 -->
<g id="node5" class="node">
<title>Node5</title>
<g id="a_node5"><a xlink:title="STL class.">
<polygon fill="none" stroke="#bfbfbf" points="149,-315 149,-372 246,-372 246,-315 149,-315"/>
<text text-anchor="middle" x="197.5" y="-360" font-family="Helvetica,sans-Serif" font-size="10.00">std::vector&lt; T &gt;</text>
<polyline fill="none" stroke="#bfbfbf" points="149,-353 246,-353 "/>
<text text-anchor="middle" x="197.5" y="-341" font-family="Helvetica,sans-Serif" font-size="10.00"> </text>
<polyline fill="none" stroke="#bfbfbf" points="149,-334 246,-334 "/>
<text text-anchor="middle" x="197.5" y="-322" font-family="Helvetica,sans-Serif" font-size="10.00"> </text>
</a>
</g>
</g>
<!-- Node4&#45;&gt;Node5 -->
<g id="edge5" class="edge">
<title>Node4&#45;&gt;Node5</title>
<path fill="none" stroke="#404040" d="M145.04,-429.46C153.48,-415.78 164.32,-398.23 173.95,-382.63"/>
<polygon fill="none" stroke="#404040" points="174.08,-382.43 173.83,-375.22 180.38,-372.22 180.63,-379.43 174.08,-382.43"/>
<text text-anchor="middle" x="192.5" y="-399" font-family="Helvetica,sans-Serif" font-size="10.00"> +elements</text>
</g>
<!-- Node5&#45;&gt;Node2 -->
<g id="edge4" class="edge">
<title>Node5&#45;&gt;Node2</title>
<path fill="none" stroke="orange" d="M180.97,-305.72C175.38,-293.85 168.92,-280.74 162.5,-269 159.22,-263 155.54,-256.72 151.88,-250.7"/>
<polygon fill="orange" stroke="orange" points="177.85,-307.32 185.25,-314.91 184.2,-304.37 177.85,-307.32"/>
<text text-anchor="start" x="173.5" y="-283" font-family="Helvetica,sans-Serif" font-size="10.00"> &lt; QueryMessageBase</text>
<text text-anchor="middle" x="229.5" y="-272" font-family="Helvetica,sans-Serif" font-size="10.00">::msg_data_t &gt;</text>
</g>
</g>
</svg>
