<?xml version="1.0" encoding="UTF-8" standalone="no"?>
<!DOCTYPE svg PUBLIC "-//W3C//DTD SVG 1.1//EN"
 "http://www.w3.org/Graphics/SVG/1.1/DTD/svg11.dtd">
<!-- Generated by graphviz version 2.43.0 (0)
 -->
<!-- Title: Components/User/DogFeederDoor/include/DogFeederDoor.hpp Pages: 1 -->
<svg width="960pt" height="631pt"
 viewBox="0.00 0.00 960.00 631.00" xmlns="http://www.w3.org/2000/svg" xmlns:xlink="http://www.w3.org/1999/xlink">
<g id="graph0" class="graph" transform="scale(1 1) rotate(0) translate(4 627)">
<title>Components/User/DogFeederDoor/include/DogFeederDoor.hpp</title>
<!-- Node1 -->
<g id="node1" class="node">
<title>Node1</title>
<g id="a_node1"><a xlink:title=" ">
<polygon fill="#bfbfbf" stroke="black" points="722.5,-592.5 722.5,-622.5 899.5,-622.5 899.5,-592.5 722.5,-592.5"/>
<text text-anchor="start" x="730.5" y="-610.5" font-family="Helvetica,sans-Serif" font-size="10.00">Components/User/DogFeeder</text>
<text text-anchor="middle" x="811" y="-599.5" font-family="Helvetica,sans-Serif" font-size="10.00">Door/include/DogFeederDoor.hpp</text>
</a>
</g>
</g>
<!-- Node2 -->
<g id="node2" class="node">
<title>Node2</title>
<g id="a_node2"><a xlink:href="../../da/d5f/_b_a_s_i_c_8hpp.html" target="_top" xlink:title=" ">
<polygon fill="none" stroke="black" points="113,-56.5 113,-86.5 229,-86.5 229,-56.5 113,-56.5"/>
<text text-anchor="start" x="121" y="-74.5" font-family="Helvetica,sans-Serif" font-size="10.00">../../../Global_Include</text>
<text text-anchor="middle" x="171" y="-63.5" font-family="Helvetica,sans-Serif" font-size="10.00">/BASIC.hpp</text>
</a>
</g>
</g>
<!-- Node1&#45;&gt;Node2 -->
<g id="edge1" class="edge">
<title>Node1&#45;&gt;Node2</title>
<path fill="none" stroke="midnightblue" d="M722.28,-601.25C511.84,-587.63 0,-547.03 0,-474.5 0,-474.5 0,-474.5 0,-193.5 0,-139.29 57.98,-107.18 106.41,-89.82"/>
<polygon fill="midnightblue" stroke="midnightblue" points="107.63,-93.1 115.95,-86.55 105.36,-86.48 107.63,-93.1"/>
</g>
<!-- Node3 -->
<g id="node3" class="node">
<title>Node3</title>
<g id="a_node3"><a xlink:href="../../d3/deb/_general___error_8hpp.html" target="_top" xlink:title=" ">
<polygon fill="none" stroke="black" points="402.5,-56.5 402.5,-86.5 547.5,-86.5 547.5,-56.5 402.5,-56.5"/>
<text text-anchor="start" x="410.5" y="-74.5" font-family="Helvetica,sans-Serif" font-size="10.00">../../../Objects/ErrorHandler</text>
<text text-anchor="middle" x="475" y="-63.5" font-family="Helvetica,sans-Serif" font-size="10.00">/include/General_Error.hpp</text>
</a>
</g>
</g>
<!-- Node1&#45;&gt;Node3 -->
<g id="edge2" class="edge">
<title>Node1&#45;&gt;Node3</title>
<path fill="none" stroke="midnightblue" d="M845.49,-592.34C887.24,-572.63 952,-532.68 952,-474.5 952,-474.5 952,-474.5 952,-193.5 952,-158.52 945.64,-143.09 917,-123 902.51,-112.83 682.06,-91.33 558.09,-79.94"/>
<polygon fill="midnightblue" stroke="midnightblue" points="558.15,-76.43 547.88,-79 557.51,-83.4 558.15,-76.43"/>
</g>
<!-- Node6 -->
<g id="node6" class="node">
<title>Node6</title>
<g id="a_node6"><a xlink:href="../../d7/d60/_timeservice_8hpp.html" target="_top" xlink:title=" ">
<polygon fill="none" stroke="black" points="602.5,-179.5 602.5,-209.5 745.5,-209.5 745.5,-179.5 602.5,-179.5"/>
<text text-anchor="start" x="610.5" y="-197.5" font-family="Helvetica,sans-Serif" font-size="10.00">../../../Objects/Timeservice</text>
<text text-anchor="middle" x="674" y="-186.5" font-family="Helvetica,sans-Serif" font-size="10.00">/include/Timeservice.hpp</text>
</a>
</g>
</g>
<!-- Node1&#45;&gt;Node6 -->
<g id="edge5" class="edge">
<title>Node1&#45;&gt;Node6</title>
<path fill="none" stroke="midnightblue" d="M832.84,-592.34C863.08,-570.83 914,-526.82 914,-474.5 914,-474.5 914,-474.5 914,-327.5 914,-253.51 825.34,-220.7 755.79,-206.34"/>
<polygon fill="midnightblue" stroke="midnightblue" points="756.17,-202.85 745.68,-204.36 754.82,-209.72 756.17,-202.85"/>
</g>
<!-- Node12 -->
<g id="node12" class="node">
<title>Node12</title>
<g id="a_node12"><a xlink:href="../../dc/d07/_m_g996_r_8hpp.html" target="_top" xlink:title=" ">
<polygon fill="none" stroke="black" points="555,-525.5 555,-555.5 699,-555.5 699,-525.5 555,-525.5"/>
<text text-anchor="start" x="563" y="-543.5" font-family="Helvetica,sans-Serif" font-size="10.00">../../../Actuator/ServoMotor</text>
<text text-anchor="middle" x="627" y="-532.5" font-family="Helvetica,sans-Serif" font-size="10.00">/include/MG996R.hpp</text>
</a>
</g>
</g>
<!-- Node1&#45;&gt;Node12 -->
<g id="edge15" class="edge">
<title>Node1&#45;&gt;Node12</title>
<path fill="none" stroke="midnightblue" d="M771.07,-592.4C743.35,-582.6 706.21,-569.48 676.58,-559.02"/>
<polygon fill="midnightblue" stroke="midnightblue" points="677.44,-555.61 666.85,-555.58 675.11,-562.21 677.44,-555.61"/>
</g>
<!-- Node4 -->
<g id="node4" class="node">
<title>Node4</title>
<g id="a_node4"><a xlink:title=" ">
<polygon fill="none" stroke="#bfbfbf" points="418,-0.5 418,-19.5 462,-19.5 462,-0.5 418,-0.5"/>
<text text-anchor="middle" x="440" y="-7.5" font-family="Helvetica,sans-Serif" font-size="10.00">string</text>
</a>
</g>
</g>
<!-- Node3&#45;&gt;Node4 -->
<g id="edge3" class="edge">
<title>Node3&#45;&gt;Node4</title>
<path fill="none" stroke="midnightblue" d="M466.71,-56.4C461.78,-48.02 455.49,-37.33 450.25,-28.42"/>
<polygon fill="midnightblue" stroke="midnightblue" points="453.18,-26.5 445.09,-19.66 447.15,-30.05 453.18,-26.5"/>
</g>
<!-- Node5 -->
<g id="node5" class="node">
<title>Node5</title>
<g id="a_node5"><a xlink:title=" ">
<polygon fill="none" stroke="#bfbfbf" points="480,-0.5 480,-19.5 540,-19.5 540,-0.5 480,-0.5"/>
<text text-anchor="middle" x="510" y="-7.5" font-family="Helvetica,sans-Serif" font-size="10.00">iostream</text>
</a>
</g>
</g>
<!-- Node3&#45;&gt;Node5 -->
<g id="edge4" class="edge">
<title>Node3&#45;&gt;Node5</title>
<path fill="none" stroke="midnightblue" d="M483.29,-56.4C488.22,-48.02 494.51,-37.33 499.75,-28.42"/>
<polygon fill="midnightblue" stroke="midnightblue" points="502.85,-30.05 504.91,-19.66 496.82,-26.5 502.85,-30.05"/>
</g>
<!-- Node6&#45;&gt;Node2 -->
<g id="edge6" class="edge">
<title>Node6&#45;&gt;Node2</title>
<path fill="none" stroke="midnightblue" d="M615.32,-179.38C521.61,-156.84 338.66,-112.83 239.25,-88.92"/>
<polygon fill="midnightblue" stroke="midnightblue" points="239.85,-85.46 229.31,-86.53 238.22,-92.27 239.85,-85.46"/>
</g>
<!-- Node6&#45;&gt;Node3 -->
<g id="edge7" class="edge">
<title>Node6&#45;&gt;Node3</title>
<path fill="none" stroke="midnightblue" d="M733.73,-179.44C772.02,-167.63 810.79,-148.58 789,-123 774.09,-105.5 645.63,-89.39 557.71,-80.27"/>
<polygon fill="midnightblue" stroke="midnightblue" points="558.04,-76.79 547.73,-79.25 557.32,-83.75 558.04,-76.79"/>
</g>
<!-- Node7 -->
<g id="node7" class="node">
<title>Node7</title>
<g id="a_node7"><a xlink:href="../../d6/d4b/_r_t_c___h_a_l_8hpp.html" target="_top" xlink:title=" ">
<polygon fill="none" stroke="black" points="634,-123.5 634,-142.5 714,-142.5 714,-123.5 634,-123.5"/>
<text text-anchor="middle" x="674" y="-130.5" font-family="Helvetica,sans-Serif" font-size="10.00">RTC_HAL.hpp</text>
</a>
</g>
</g>
<!-- Node6&#45;&gt;Node7 -->
<g id="edge8" class="edge">
<title>Node6&#45;&gt;Node7</title>
<path fill="none" stroke="midnightblue" d="M674,-179.4C674,-171.47 674,-161.46 674,-152.86"/>
<polygon fill="midnightblue" stroke="midnightblue" points="677.5,-152.66 674,-142.66 670.5,-152.66 677.5,-152.66"/>
</g>
<!-- Node9 -->
<g id="node9" class="node">
<title>Node9</title>
<g id="a_node9"><a xlink:title=" ">
<polygon fill="none" stroke="#bfbfbf" points="836,-123.5 836,-142.5 886,-142.5 886,-123.5 836,-123.5"/>
<text text-anchor="middle" x="861" y="-130.5" font-family="Helvetica,sans-Serif" font-size="10.00">chrono</text>
</a>
</g>
</g>
<!-- Node6&#45;&gt;Node9 -->
<g id="edge12" class="edge">
<title>Node6&#45;&gt;Node9</title>
<path fill="none" stroke="midnightblue" d="M718.32,-179.4C751.31,-168.9 795.72,-154.77 826.18,-145.08"/>
<polygon fill="midnightblue" stroke="midnightblue" points="827.48,-148.34 835.94,-141.97 825.35,-141.67 827.48,-148.34"/>
</g>
<!-- Node10 -->
<g id="node10" class="node">
<title>Node10</title>
<g id="a_node10"><a xlink:title=" ">
<polygon fill="none" stroke="#bfbfbf" points="560,-123.5 560,-142.5 616,-142.5 616,-123.5 560,-123.5"/>
<text text-anchor="middle" x="588" y="-130.5" font-family="Helvetica,sans-Serif" font-size="10.00">iomanip</text>
</a>
</g>
</g>
<!-- Node6&#45;&gt;Node10 -->
<g id="edge13" class="edge">
<title>Node6&#45;&gt;Node10</title>
<path fill="none" stroke="midnightblue" d="M653.62,-179.4C640.09,-170.04 622.39,-157.79 608.78,-148.38"/>
<polygon fill="midnightblue" stroke="midnightblue" points="610.73,-145.47 600.51,-142.66 606.75,-151.23 610.73,-145.47"/>
</g>
<!-- Node11 -->
<g id="node11" class="node">
<title>Node11</title>
<g id="a_node11"><a xlink:title=" ">
<polygon fill="none" stroke="#bfbfbf" points="732,-123.5 732,-142.5 780,-142.5 780,-123.5 732,-123.5"/>
<text text-anchor="middle" x="756" y="-130.5" font-family="Helvetica,sans-Serif" font-size="10.00">thread</text>
</a>
</g>
</g>
<!-- Node6&#45;&gt;Node11 -->
<g id="edge14" class="edge">
<title>Node6&#45;&gt;Node11</title>
<path fill="none" stroke="midnightblue" d="M693.43,-179.4C706.21,-170.13 722.89,-158.03 735.81,-148.65"/>
<polygon fill="midnightblue" stroke="midnightblue" points="738.03,-151.36 744.07,-142.66 733.92,-145.7 738.03,-151.36"/>
</g>
<!-- Node7&#45;&gt;Node2 -->
<g id="edge9" class="edge">
<title>Node7&#45;&gt;Node2</title>
<path fill="none" stroke="midnightblue" d="M633.93,-124.4C630.91,-123.9 627.91,-123.43 625,-123 488.64,-102.92 328.17,-86.83 239.18,-78.56"/>
<polygon fill="midnightblue" stroke="midnightblue" points="239.5,-75.08 229.22,-77.64 238.86,-82.05 239.5,-75.08"/>
</g>
<!-- Node7&#45;&gt;Node3 -->
<g id="edge10" class="edge">
<title>Node7&#45;&gt;Node3</title>
<path fill="none" stroke="midnightblue" d="M645.49,-123.48C615.89,-114.63 568.81,-100.55 531.62,-89.43"/>
<polygon fill="midnightblue" stroke="midnightblue" points="532.48,-86.03 521.9,-86.52 530.48,-92.74 532.48,-86.03"/>
</g>
<!-- Node8 -->
<g id="node8" class="node">
<title>Node8</title>
<g id="a_node8"><a xlink:title=" ">
<polygon fill="none" stroke="#bfbfbf" points="652,-62 652,-81 696,-81 696,-62 652,-62"/>
<text text-anchor="middle" x="674" y="-69" font-family="Helvetica,sans-Serif" font-size="10.00">ctime</text>
</a>
</g>
</g>
<!-- Node7&#45;&gt;Node8 -->
<g id="edge11" class="edge">
<title>Node7&#45;&gt;Node8</title>
<path fill="none" stroke="midnightblue" d="M674,-123.48C674,-115.08 674,-101.98 674,-91.16"/>
<polygon fill="midnightblue" stroke="midnightblue" points="677.5,-91.01 674,-81.01 670.5,-91.01 677.5,-91.01"/>
</g>
<!-- Node12&#45;&gt;Node2 -->
<g id="edge16" class="edge">
<title>Node12&#45;&gt;Node2</title>
<path fill="none" stroke="midnightblue" d="M554.78,-537.71C397.5,-531.86 38,-507.01 38,-402 38,-402 38,-402 38,-193.5 38,-144.66 87.68,-110.32 126.31,-91"/>
<polygon fill="midnightblue" stroke="midnightblue" points="127.87,-94.14 135.36,-86.65 124.83,-87.83 127.87,-94.14"/>
</g>
<!-- Node12&#45;&gt;Node3 -->
<g id="edge17" class="edge">
<title>Node12&#45;&gt;Node3</title>
<path fill="none" stroke="midnightblue" d="M699.02,-530.62C772.56,-517.05 876,-483.48 876,-402 876,-402 876,-402 876,-327.5 876,-236.22 955.57,-191.29 895,-123 883.93,-110.52 676.98,-90.32 557.8,-79.64"/>
<polygon fill="midnightblue" stroke="midnightblue" points="557.88,-76.13 547.6,-78.73 557.25,-83.1 557.88,-76.13"/>
</g>
<!-- Node12&#45;&gt;Node6 -->
<g id="edge38" class="edge">
<title>Node12&#45;&gt;Node6</title>
<path fill="none" stroke="midnightblue" d="M631.88,-525.24C639.9,-500.49 655,-447.8 655,-402 655,-402 655,-402 655,-327.5 655,-289.45 662.83,-245.85 668.44,-219.51"/>
<polygon fill="midnightblue" stroke="midnightblue" points="671.87,-220.18 670.6,-209.66 665.04,-218.68 671.87,-220.18"/>
</g>
<!-- Node13 -->
<g id="node13" class="node">
<title>Node13</title>
<g id="a_node13"><a xlink:href="../../d7/daf/_actuator___base_8hpp.html" target="_top" xlink:title=" ">
<polygon fill="none" stroke="black" points="484.5,-380.5 484.5,-421.5 607.5,-421.5 607.5,-380.5 484.5,-380.5"/>
<text text-anchor="start" x="492.5" y="-409.5" font-family="Helvetica,sans-Serif" font-size="10.00">../../../Interfaces</text>
<text text-anchor="start" x="492.5" y="-398.5" font-family="Helvetica,sans-Serif" font-size="10.00">/ActuatorBase/include</text>
<text text-anchor="middle" x="546" y="-387.5" font-family="Helvetica,sans-Serif" font-size="10.00">/Actuator_Base.hpp</text>
</a>
</g>
</g>
<!-- Node12&#45;&gt;Node13 -->
<g id="edge18" class="edge">
<title>Node12&#45;&gt;Node13</title>
<path fill="none" stroke="midnightblue" d="M618.64,-525.3C605.51,-503.01 579.8,-459.37 562.76,-430.45"/>
<polygon fill="midnightblue" stroke="midnightblue" points="565.65,-428.46 557.56,-421.62 559.62,-432.01 565.65,-428.46"/>
</g>
<!-- Node16 -->
<g id="node16" class="node">
<title>Node16</title>
<g id="a_node16"><a xlink:href="../../d3/d4e/_p_w_m___a_p_i___e_s_p32_8hpp.html" target="_top" xlink:title=" ">
<polygon fill="none" stroke="black" points="246,-458.5 246,-488.5 406,-488.5 406,-458.5 246,-458.5"/>
<text text-anchor="start" x="254" y="-476.5" font-family="Helvetica,sans-Serif" font-size="10.00">../../../Objects/PWM</text>
<text text-anchor="middle" x="326" y="-465.5" font-family="Helvetica,sans-Serif" font-size="10.00">/include/PWM_API_ESP32.hpp</text>
</a>
</g>
</g>
<!-- Node12&#45;&gt;Node16 -->
<g id="edge28" class="edge">
<title>Node12&#45;&gt;Node16</title>
<path fill="none" stroke="midnightblue" d="M562.06,-525.48C514.77,-515.26 450.59,-501.41 401.1,-490.72"/>
<polygon fill="midnightblue" stroke="midnightblue" points="401.6,-487.24 391.08,-488.55 400.12,-494.09 401.6,-487.24"/>
</g>
<!-- Node13&#45;&gt;Node2 -->
<g id="edge19" class="edge">
<title>Node13&#45;&gt;Node2</title>
<path fill="none" stroke="midnightblue" d="M529.62,-380.17C514.57,-362.22 491.42,-335.25 470,-313 439.92,-281.74 432.85,-273.15 399,-246 335.34,-194.94 310.88,-193.79 247,-143 227.57,-127.55 207.01,-108.28 192.18,-93.79"/>
<polygon fill="midnightblue" stroke="midnightblue" points="194.56,-91.23 184.98,-86.7 189.65,-96.21 194.56,-91.23"/>
</g>
<!-- Node13&#45;&gt;Node3 -->
<g id="edge20" class="edge">
<title>Node13&#45;&gt;Node3</title>
<path fill="none" stroke="midnightblue" d="M543.49,-380.31C538.35,-341.49 525.61,-252.44 508,-179 501.09,-150.21 490.66,-117.8 483.38,-96.37"/>
<polygon fill="midnightblue" stroke="midnightblue" points="486.65,-95.12 480.09,-86.8 480.03,-97.4 486.65,-95.12"/>
</g>
<!-- Node14 -->
<g id="node14" class="node">
<title>Node14</title>
<g id="a_node14"><a xlink:href="../../da/d81/_fault___handler_8hpp.html" target="_top" xlink:title=" ">
<polygon fill="none" stroke="black" points="274.5,-313.5 274.5,-343.5 419.5,-343.5 419.5,-313.5 274.5,-313.5"/>
<text text-anchor="start" x="282.5" y="-331.5" font-family="Helvetica,sans-Serif" font-size="10.00">../../../Objects/FaultHandler</text>
<text text-anchor="middle" x="347" y="-320.5" font-family="Helvetica,sans-Serif" font-size="10.00">/include/Fault_Handler.hpp</text>
</a>
</g>
</g>
<!-- Node13&#45;&gt;Node14 -->
<g id="edge21" class="edge">
<title>Node13&#45;&gt;Node14</title>
<path fill="none" stroke="midnightblue" d="M490.83,-380.46C461.3,-369.99 425.22,-357.21 396.59,-347.07"/>
<polygon fill="midnightblue" stroke="midnightblue" points="397.39,-343.64 386.79,-343.6 395.05,-350.24 397.39,-343.64"/>
</g>
<!-- Node14&#45;&gt;Node2 -->
<g id="edge22" class="edge">
<title>Node14&#45;&gt;Node2</title>
<path fill="none" stroke="midnightblue" d="M315.72,-313.41C299.09,-304.73 279.2,-292.33 265,-277 214.92,-222.94 187.62,-137.55 176.71,-96.33"/>
<polygon fill="midnightblue" stroke="midnightblue" points="180.09,-95.44 174.22,-86.62 173.31,-97.17 180.09,-95.44"/>
</g>
<!-- Node14&#45;&gt;Node3 -->
<g id="edge23" class="edge">
<title>Node14&#45;&gt;Node3</title>
<path fill="none" stroke="midnightblue" d="M365.81,-313.48C376.95,-304.26 390.51,-291.28 399,-277 435.3,-215.91 412.66,-187.72 442,-123 446.36,-113.37 452.42,-103.48 458.15,-95.04"/>
<polygon fill="midnightblue" stroke="midnightblue" points="461.03,-97.03 463.92,-86.83 455.3,-93 461.03,-97.03"/>
</g>
<!-- Node15 -->
<g id="node15" class="node">
<title>Node15</title>
<g id="a_node15"><a xlink:href="../../d3/de3/_logger_8hpp.html" target="_top" xlink:title=" ">
<polygon fill="none" stroke="black" points="274,-246.5 274,-276.5 390,-276.5 390,-246.5 274,-246.5"/>
<text text-anchor="start" x="282" y="-264.5" font-family="Helvetica,sans-Serif" font-size="10.00">../../../Objects/Logger</text>
<text text-anchor="middle" x="332" y="-253.5" font-family="Helvetica,sans-Serif" font-size="10.00">/include/Logger.hpp</text>
</a>
</g>
</g>
<!-- Node14&#45;&gt;Node15 -->
<g id="edge24" class="edge">
<title>Node14&#45;&gt;Node15</title>
<path fill="none" stroke="midnightblue" d="M343.75,-313.4C341.94,-305.56 339.64,-295.6 337.55,-286.57"/>
<polygon fill="midnightblue" stroke="midnightblue" points="340.91,-285.53 335.25,-276.58 334.09,-287.11 340.91,-285.53"/>
</g>
<!-- Node15&#45;&gt;Node2 -->
<g id="edge25" class="edge">
<title>Node15&#45;&gt;Node2</title>
<path fill="none" stroke="midnightblue" d="M315.49,-246.39C291.47,-225.35 246.22,-183.87 214,-143 202.32,-128.18 191.28,-109.96 183.31,-95.76"/>
<polygon fill="midnightblue" stroke="midnightblue" points="186.2,-93.74 178.32,-86.66 180.06,-97.11 186.2,-93.74"/>
</g>
<!-- Node15&#45;&gt;Node3 -->
<g id="edge26" class="edge">
<title>Node15&#45;&gt;Node3</title>
<path fill="none" stroke="midnightblue" d="M336.87,-246.32C346.49,-219.83 369.98,-161.98 404,-123 414.42,-111.05 428.21,-100.42 440.87,-92.04"/>
<polygon fill="midnightblue" stroke="midnightblue" points="442.84,-94.93 449.39,-86.6 439.08,-89.03 442.84,-94.93"/>
</g>
<!-- Node15&#45;&gt;Node6 -->
<g id="edge27" class="edge">
<title>Node15&#45;&gt;Node6</title>
<path fill="none" stroke="midnightblue" d="M390.02,-249.47C445.53,-238.92 529.79,-222.91 592.13,-211.06"/>
<polygon fill="midnightblue" stroke="midnightblue" points="593.15,-214.43 602.32,-209.12 591.85,-207.55 593.15,-214.43"/>
</g>
<!-- Node16&#45;&gt;Node2 -->
<g id="edge29" class="edge">
<title>Node16&#45;&gt;Node2</title>
<path fill="none" stroke="midnightblue" d="M245.87,-460.78C172.74,-445.02 76,-409.13 76,-329.5 76,-329.5 76,-329.5 76,-193.5 76,-150.9 112.88,-114.41 140.68,-92.96"/>
<polygon fill="midnightblue" stroke="midnightblue" points="143.03,-95.57 148.97,-86.79 138.85,-89.95 143.03,-95.57"/>
</g>
<!-- Node16&#45;&gt;Node3 -->
<g id="edge30" class="edge">
<title>Node16&#45;&gt;Node3</title>
<path fill="none" stroke="midnightblue" d="M369.82,-458.34C388.71,-450.31 409.71,-438.49 424,-422 452.49,-389.12 456,-373 456,-329.5 456,-329.5 456,-329.5 456,-193.5 456,-159.42 463.45,-120.58 469.02,-96.3"/>
<polygon fill="midnightblue" stroke="midnightblue" points="472.43,-97.08 471.34,-86.55 465.62,-95.46 472.43,-97.08"/>
</g>
<!-- Node17 -->
<g id="node17" class="node">
<title>Node17</title>
<g id="a_node17"><a xlink:href="../../d3/d2f/_p_w_m_base_8hpp.html" target="_top" xlink:title=" ">
<polygon fill="none" stroke="black" points="236.5,-386 236.5,-416 415.5,-416 415.5,-386 236.5,-386"/>
<text text-anchor="start" x="244.5" y="-404" font-family="Helvetica,sans-Serif" font-size="10.00">../../../Interfaces</text>
<text text-anchor="middle" x="326" y="-393" font-family="Helvetica,sans-Serif" font-size="10.00">/PWMBase/include/PWMBase.hpp</text>
</a>
</g>
</g>
<!-- Node16&#45;&gt;Node17 -->
<g id="edge31" class="edge">
<title>Node16&#45;&gt;Node17</title>
<path fill="none" stroke="midnightblue" d="M326,-458.23C326,-449.16 326,-437.16 326,-426.58"/>
<polygon fill="midnightblue" stroke="midnightblue" points="329.5,-426.25 326,-416.25 322.5,-426.25 329.5,-426.25"/>
</g>
<!-- Node18 -->
<g id="node18" class="node">
<title>Node18</title>
<g id="a_node18"><a xlink:href="../../d1/d9f/_p_w_m_2include_2_h_a_l_8hpp.html" target="_top" xlink:title=" ">
<polygon fill="none" stroke="black" points="256.5,-123.5 256.5,-142.5 313.5,-142.5 313.5,-123.5 256.5,-123.5"/>
<text text-anchor="middle" x="285" y="-130.5" font-family="Helvetica,sans-Serif" font-size="10.00">HAL.hpp</text>
</a>
</g>
</g>
<!-- Node16&#45;&gt;Node18 -->
<g id="edge35" class="edge">
<title>Node16&#45;&gt;Node18</title>
<path fill="none" stroke="midnightblue" d="M274.09,-458.44C255.96,-450.77 237.53,-439.19 227,-422 171.67,-331.67 244.29,-198.35 273.67,-151.25"/>
<polygon fill="midnightblue" stroke="midnightblue" points="276.65,-153.09 279.07,-142.78 270.74,-149.33 276.65,-153.09"/>
</g>
<!-- Node17&#45;&gt;Node2 -->
<g id="edge32" class="edge">
<title>Node17&#45;&gt;Node2</title>
<path fill="none" stroke="midnightblue" d="M258.34,-385.94C196.3,-368.63 114,-332.47 114,-262.5 114,-262.5 114,-262.5 114,-193.5 114,-156.23 136.4,-118.13 153.12,-94.9"/>
<polygon fill="midnightblue" stroke="midnightblue" points="156.02,-96.86 159.19,-86.75 150.41,-92.68 156.02,-96.86"/>
</g>
<!-- Node17&#45;&gt;Node3 -->
<g id="edge33" class="edge">
<title>Node17&#45;&gt;Node3</title>
<path fill="none" stroke="midnightblue" d="M302.92,-385.98C289.1,-376.15 272.75,-361.64 265,-344 247.48,-304.12 248.5,-286.31 265,-246 296.12,-169.98 381.68,-117.25 433.48,-91.2"/>
<polygon fill="midnightblue" stroke="midnightblue" points="435.31,-94.2 442.74,-86.65 432.22,-87.92 435.31,-94.2"/>
</g>
<!-- Node17&#45;&gt;Node14 -->
<g id="edge34" class="edge">
<title>Node17&#45;&gt;Node14</title>
<path fill="none" stroke="midnightblue" d="M330.25,-385.73C333.01,-376.46 336.68,-364.15 339.88,-353.41"/>
<polygon fill="midnightblue" stroke="midnightblue" points="343.26,-354.33 342.76,-343.75 336.55,-352.33 343.26,-354.33"/>
</g>
<!-- Node18&#45;&gt;Node2 -->
<g id="edge36" class="edge">
<title>Node18&#45;&gt;Node2</title>
<path fill="none" stroke="midnightblue" d="M268.67,-123.48C252.58,-115.08 227.47,-101.97 206.74,-91.15"/>
<polygon fill="midnightblue" stroke="midnightblue" points="208.35,-88.05 197.87,-86.52 205.11,-94.25 208.35,-88.05"/>
</g>
<!-- Node18&#45;&gt;Node3 -->
<g id="edge37" class="edge">
<title>Node18&#45;&gt;Node3</title>
<path fill="none" stroke="midnightblue" d="M312.22,-123.48C340.36,-114.66 385.05,-100.67 420.49,-89.57"/>
<polygon fill="midnightblue" stroke="midnightblue" points="421.72,-92.85 430.22,-86.52 419.63,-86.17 421.72,-92.85"/>
</g>
</g>
</svg>
