<?xml version="1.0" encoding="UTF-8" standalone="no"?>
<!DOCTYPE svg PUBLIC "-//W3C//DTD SVG 1.1//EN"
 "http://www.w3.org/Graphics/SVG/1.1/DTD/svg11.dtd">
<!-- Generated by graphviz version 2.43.0 (0)
 -->
<!-- Title: Components/Interfaces/ServiceBase/include/ServiceBase.hpp Pages: 1 -->
<svg width="1737pt" height="452pt"
 viewBox="0.00 0.00 1737.23 452.00" xmlns="http://www.w3.org/2000/svg" xmlns:xlink="http://www.w3.org/1999/xlink">
<g id="graph0" class="graph" transform="scale(1 1) rotate(0) translate(4 448)">
<title>Components/Interfaces/ServiceBase/include/ServiceBase.hpp</title>
<!-- Node1 -->
<g id="node1" class="node">
<title>Node1</title>
<g id="a_node1"><a xlink:title=" ">
<polygon fill="#bfbfbf" stroke="black" points="573,-402.5 573,-443.5 703,-443.5 703,-402.5 573,-402.5"/>
<text text-anchor="start" x="581" y="-431.5" font-family="Helvetica,sans-Serif" font-size="10.00">Components/Interfaces</text>
<text text-anchor="start" x="581" y="-420.5" font-family="Helvetica,sans-Serif" font-size="10.00">/ServiceBase/include</text>
<text text-anchor="middle" x="638" y="-409.5" font-family="Helvetica,sans-Serif" font-size="10.00">/ServiceBase.hpp</text>
</a>
</g>
</g>
<!-- Node2 -->
<g id="node2" class="node">
<title>Node2</title>
<g id="a_node2"><a xlink:href="../../da/d5f/_b_a_s_i_c_8hpp.html" target="_top" xlink:title=" ">
<polygon fill="none" stroke="black" points="1028,-56.5 1028,-86.5 1144,-86.5 1144,-56.5 1028,-56.5"/>
<text text-anchor="start" x="1036" y="-74.5" font-family="Helvetica,sans-Serif" font-size="10.00">../../../Global_Include</text>
<text text-anchor="middle" x="1086" y="-63.5" font-family="Helvetica,sans-Serif" font-size="10.00">/BASIC.hpp</text>
</a>
</g>
</g>
<!-- Node1&#45;&gt;Node2 -->
<g id="edge1" class="edge">
<title>Node1&#45;&gt;Node2</title>
<path fill="none" stroke="midnightblue" d="M703.24,-421.44C845.95,-419.41 1181.4,-409.95 1285,-366 1326.76,-348.28 1343.2,-340.28 1362,-299 1410.2,-193.17 1239.52,-120.81 1144.89,-89.7"/>
<polygon fill="midnightblue" stroke="midnightblue" points="1145.73,-86.29 1135.14,-86.55 1143.58,-92.95 1145.73,-86.29"/>
</g>
<!-- Node3 -->
<g id="node3" class="node">
<title>Node3</title>
<g id="a_node3"><a xlink:href="../../d5/d40/_database___i_d___base_8hpp.html" target="_top" xlink:title=" ">
<polygon fill="none" stroke="black" points="581,-263 581,-293 713,-293 713,-263 581,-263"/>
<text text-anchor="start" x="589" y="-281" font-family="Helvetica,sans-Serif" font-size="10.00">../../../Global_Include</text>
<text text-anchor="middle" x="647" y="-270" font-family="Helvetica,sans-Serif" font-size="10.00">/Database_ID_Base.hpp</text>
</a>
</g>
</g>
<!-- Node1&#45;&gt;Node3 -->
<g id="edge2" class="edge">
<title>Node1&#45;&gt;Node3</title>
<path fill="none" stroke="midnightblue" d="M622.04,-402.49C609.72,-384.98 596.02,-358.49 604,-335 608.31,-322.31 616.79,-310.24 625.08,-300.57"/>
<polygon fill="midnightblue" stroke="midnightblue" points="627.77,-302.82 631.91,-293.07 622.6,-298.11 627.77,-302.82"/>
</g>
<!-- Node5 -->
<g id="node5" class="node">
<title>Node5</title>
<g id="a_node5"><a xlink:href="../../d3/d0d/_error_code_parser_8hpp.html" target="_top" xlink:title=" ">
<polygon fill="none" stroke="black" points="613,-335.5 613,-365.5 769,-365.5 769,-335.5 613,-335.5"/>
<text text-anchor="start" x="621" y="-353.5" font-family="Helvetica,sans-Serif" font-size="10.00">../../../Objects/ErrorHandler</text>
<text text-anchor="middle" x="691" y="-342.5" font-family="Helvetica,sans-Serif" font-size="10.00">/include/ErrorCodeParser.hpp</text>
</a>
</g>
</g>
<!-- Node1&#45;&gt;Node5 -->
<g id="edge4" class="edge">
<title>Node1&#45;&gt;Node5</title>
<path fill="none" stroke="midnightblue" d="M652.76,-402.36C659.36,-393.59 667.16,-383.21 674,-374.12"/>
<polygon fill="midnightblue" stroke="midnightblue" points="676.97,-375.99 680.18,-365.89 671.37,-371.78 676.97,-375.99"/>
</g>
<!-- Node6 -->
<g id="node6" class="node">
<title>Node6</title>
<g id="a_node6"><a xlink:href="../../d3/deb/_general___error_8hpp.html" target="_top" xlink:title=" ">
<polygon fill="none" stroke="black" points="369.5,-56.5 369.5,-86.5 514.5,-86.5 514.5,-56.5 369.5,-56.5"/>
<text text-anchor="start" x="377.5" y="-74.5" font-family="Helvetica,sans-Serif" font-size="10.00">../../../Objects/ErrorHandler</text>
<text text-anchor="middle" x="442" y="-63.5" font-family="Helvetica,sans-Serif" font-size="10.00">/include/General_Error.hpp</text>
</a>
</g>
</g>
<!-- Node1&#45;&gt;Node6 -->
<g id="edge38" class="edge">
<title>Node1&#45;&gt;Node6</title>
<path fill="none" stroke="midnightblue" d="M572.72,-421.1C410.12,-417.11 0,-395.49 0,-279 0,-279 0,-279 0,-204.5 0,-130.43 230.8,-94.48 358.84,-80.24"/>
<polygon fill="midnightblue" stroke="midnightblue" points="359.45,-83.69 369.01,-79.13 358.69,-76.73 359.45,-83.69"/>
</g>
<!-- Node8 -->
<g id="node8" class="node">
<title>Node8</title>
<g id="a_node8"><a xlink:title=" ">
<polygon fill="none" stroke="#bfbfbf" points="1231,-0.5 1231,-19.5 1291,-19.5 1291,-0.5 1231,-0.5"/>
<text text-anchor="middle" x="1261" y="-7.5" font-family="Helvetica,sans-Serif" font-size="10.00">iostream</text>
</a>
</g>
</g>
<!-- Node1&#45;&gt;Node8 -->
<g id="edge72" class="edge">
<title>Node1&#45;&gt;Node8</title>
<path fill="none" stroke="midnightblue" d="M703.26,-420.34C938.21,-413.51 1727,-382.86 1727,-279 1727,-279 1727,-279 1727,-137.5 1727,-100.31 1735.94,-80.55 1708,-56 1677.77,-29.43 1405.69,-16.45 1301.42,-12.42"/>
<polygon fill="midnightblue" stroke="midnightblue" points="1301.41,-8.92 1291.28,-12.04 1301.14,-15.91 1301.41,-8.92"/>
</g>
<!-- Node9 -->
<g id="node9" class="node">
<title>Node9</title>
<g id="a_node9"><a xlink:href="../../d7/d60/_timeservice_8hpp.html" target="_top" xlink:title=" ">
<polygon fill="none" stroke="black" points="736.5,-190.5 736.5,-220.5 879.5,-220.5 879.5,-190.5 736.5,-190.5"/>
<text text-anchor="start" x="744.5" y="-208.5" font-family="Helvetica,sans-Serif" font-size="10.00">../../../Objects/Timeservice</text>
<text text-anchor="middle" x="808" y="-197.5" font-family="Helvetica,sans-Serif" font-size="10.00">/include/Timeservice.hpp</text>
</a>
</g>
</g>
<!-- Node1&#45;&gt;Node9 -->
<g id="edge39" class="edge">
<title>Node1&#45;&gt;Node9</title>
<path fill="none" stroke="midnightblue" d="M703.02,-410.38C730,-402.32 759.3,-388.75 778,-366 809.97,-327.11 811.93,-264.82 810.19,-230.73"/>
<polygon fill="midnightblue" stroke="midnightblue" points="813.68,-230.46 809.53,-220.72 806.7,-230.92 813.68,-230.46"/>
</g>
<!-- Node15 -->
<g id="node15" class="node">
<title>Node15</title>
<g id="a_node15"><a xlink:href="../../d4/d63/mqtt__api__v2_8hpp.html" target="_top" xlink:title=" ">
<polygon fill="none" stroke="black" points="385.5,-257.5 385.5,-298.5 518.5,-298.5 518.5,-257.5 385.5,-257.5"/>
<text text-anchor="start" x="393.5" y="-286.5" font-family="Helvetica,sans-Serif" font-size="10.00">../../../Protocols</text>
<text text-anchor="start" x="393.5" y="-275.5" font-family="Helvetica,sans-Serif" font-size="10.00">/MQTT/include/mqtt_api</text>
<text text-anchor="middle" x="452" y="-264.5" font-family="Helvetica,sans-Serif" font-size="10.00">_v2.hpp</text>
</a>
</g>
</g>
<!-- Node1&#45;&gt;Node15 -->
<g id="edge64" class="edge">
<title>Node1&#45;&gt;Node15</title>
<path fill="none" stroke="midnightblue" d="M593.64,-402.42C574.13,-392.81 551.51,-380.23 533,-366 510.58,-348.76 488.96,-325.06 473.7,-306.74"/>
<polygon fill="midnightblue" stroke="midnightblue" points="476.2,-304.27 467.16,-298.75 470.78,-308.7 476.2,-304.27"/>
</g>
<!-- Node17 -->
<g id="node17" class="node">
<title>Node17</title>
<g id="a_node17"><a xlink:href="../../d5/dc5/_task_8h.html" target="_top" xlink:title=" ">
<polygon fill="none" stroke="black" points="199.5,-123.5 199.5,-153.5 318.5,-153.5 318.5,-123.5 199.5,-123.5"/>
<text text-anchor="start" x="207.5" y="-141.5" font-family="Helvetica,sans-Serif" font-size="10.00">../../../RTOS/FreeRTOS</text>
<text text-anchor="middle" x="259" y="-130.5" font-family="Helvetica,sans-Serif" font-size="10.00">/include/Task.h</text>
</a>
</g>
</g>
<!-- Node1&#45;&gt;Node17 -->
<g id="edge41" class="edge">
<title>Node1&#45;&gt;Node17</title>
<path fill="none" stroke="midnightblue" d="M572.59,-417.48C467.04,-409.55 264.19,-391.52 197,-366 147.68,-347.27 134.28,-338.23 99,-299 64.28,-260.4 25.05,-230.92 57,-190 73.35,-169.06 137.49,-155.52 189.17,-147.79"/>
<polygon fill="midnightblue" stroke="midnightblue" points="189.92,-151.21 199.32,-146.32 188.92,-144.29 189.92,-151.21"/>
</g>
<!-- Node18 -->
<g id="node18" class="node">
<title>Node18</title>
<g id="a_node18"><a xlink:href="../../d3/d1c/_free_r_t_o_s_8h.html" target="_top" xlink:title=" ">
<polygon fill="none" stroke="black" points="1075.5,-190.5 1075.5,-220.5 1194.5,-220.5 1194.5,-190.5 1075.5,-190.5"/>
<text text-anchor="start" x="1083.5" y="-208.5" font-family="Helvetica,sans-Serif" font-size="10.00">../../../RTOS/FreeRTOS</text>
<text text-anchor="middle" x="1135" y="-197.5" font-family="Helvetica,sans-Serif" font-size="10.00">/include/FreeRTOS.h</text>
</a>
</g>
</g>
<!-- Node1&#45;&gt;Node18 -->
<g id="edge40" class="edge">
<title>Node1&#45;&gt;Node18</title>
<path fill="none" stroke="midnightblue" d="M703.25,-422.24C865.2,-421.16 1277.32,-407.62 1344,-299 1353.77,-283.09 1355.55,-271.67 1344,-257 1326.78,-235.13 1258.69,-221.6 1204.85,-214.12"/>
<polygon fill="midnightblue" stroke="midnightblue" points="1205.01,-210.61 1194.63,-212.75 1204.08,-217.55 1205.01,-210.61"/>
</g>
<!-- Node19 -->
<g id="node19" class="node">
<title>Node19</title>
<g id="a_node19"><a xlink:title=" ">
<polygon fill="none" stroke="#bfbfbf" points="66,-196 66,-215 116,-215 116,-196 66,-196"/>
<text text-anchor="middle" x="91" y="-203" font-family="Helvetica,sans-Serif" font-size="10.00">atomic</text>
</a>
</g>
</g>
<!-- Node1&#45;&gt;Node19 -->
<g id="edge71" class="edge">
<title>Node1&#45;&gt;Node19</title>
<path fill="none" stroke="midnightblue" d="M572.97,-413.63C451.57,-396.83 196.71,-355.72 130,-299 107.72,-280.05 97.89,-246.19 93.76,-225.11"/>
<polygon fill="midnightblue" stroke="midnightblue" points="97.19,-224.41 92.05,-215.15 90.29,-225.6 97.19,-224.41"/>
</g>
<!-- Node20 -->
<g id="node20" class="node">
<title>Node20</title>
<g id="a_node20"><a xlink:href="../../d1/da7/_m_q_t_t___message_8hpp.html" target="_top" xlink:title=" ">
<polygon fill="none" stroke="black" points="1015,-335.5 1015,-365.5 1203,-365.5 1203,-335.5 1015,-335.5"/>
<text text-anchor="start" x="1023" y="-353.5" font-family="Helvetica,sans-Serif" font-size="10.00">../../../Protocols</text>
<text text-anchor="middle" x="1109" y="-342.5" font-family="Helvetica,sans-Serif" font-size="10.00">/MQTT/include/MQTT_Message.hpp</text>
</a>
</g>
</g>
<!-- Node1&#45;&gt;Node20 -->
<g id="edge42" class="edge">
<title>Node1&#45;&gt;Node20</title>
<path fill="none" stroke="midnightblue" d="M703.49,-412.2C781.66,-400.5 913.32,-380.79 1005.35,-367.01"/>
<polygon fill="midnightblue" stroke="midnightblue" points="1005.88,-370.47 1015.25,-365.53 1004.84,-363.55 1005.88,-370.47"/>
</g>
<!-- Node29 -->
<g id="node29" class="node">
<title>Node29</title>
<g id="a_node29"><a xlink:href="../../d5/dbf/_g_p_i_o___a_p_i_8hpp.html" target="_top" xlink:title=" ">
<polygon fill="none" stroke="black" points="485,-190.5 485,-220.5 609,-220.5 609,-190.5 485,-190.5"/>
<text text-anchor="start" x="493" y="-208.5" font-family="Helvetica,sans-Serif" font-size="10.00">../../../Objects/Gpio</text>
<text text-anchor="middle" x="547" y="-197.5" font-family="Helvetica,sans-Serif" font-size="10.00">/include/GPIO_API.hpp</text>
</a>
</g>
</g>
<!-- Node1&#45;&gt;Node29 -->
<g id="edge65" class="edge">
<title>Node1&#45;&gt;Node29</title>
<path fill="none" stroke="midnightblue" d="M621.59,-402.41C613.46,-392.05 603.92,-378.83 597,-366 572.87,-321.25 558.35,-263.05 551.59,-230.77"/>
<polygon fill="midnightblue" stroke="midnightblue" points="555,-229.98 549.59,-220.87 548.14,-231.36 555,-229.98"/>
</g>
<!-- Node4 -->
<g id="node4" class="node">
<title>Node4</title>
<g id="a_node4"><a xlink:title=" ">
<polygon fill="none" stroke="#bfbfbf" points="353,-196 353,-215 391,-215 391,-196 353,-196"/>
<text text-anchor="middle" x="372" y="-203" font-family="Helvetica,sans-Serif" font-size="10.00">map</text>
</a>
</g>
</g>
<!-- Node3&#45;&gt;Node4 -->
<g id="edge3" class="edge">
<title>Node3&#45;&gt;Node4</title>
<path fill="none" stroke="midnightblue" d="M580.86,-265.16C531.7,-255.53 463.32,-240.37 405,-221 403.13,-220.38 401.22,-219.69 399.31,-218.96"/>
<polygon fill="midnightblue" stroke="midnightblue" points="400.5,-215.67 389.92,-215.1 397.83,-222.14 400.5,-215.67"/>
</g>
<!-- Node5&#45;&gt;Node2 -->
<g id="edge5" class="edge">
<title>Node5&#45;&gt;Node2</title>
<path fill="none" stroke="midnightblue" d="M769.21,-344.91C850.37,-338.79 970.6,-325.5 1008,-299 1052.95,-267.16 1037.28,-236.38 1067,-190 1077.79,-173.16 1087.68,-172.97 1094,-154 1100.2,-135.41 1097.4,-113.22 1093.5,-96.69"/>
<polygon fill="midnightblue" stroke="midnightblue" points="1096.81,-95.51 1090.86,-86.74 1090.04,-97.3 1096.81,-95.51"/>
</g>
<!-- Node5&#45;&gt;Node3 -->
<g id="edge9" class="edge">
<title>Node5&#45;&gt;Node3</title>
<path fill="none" stroke="midnightblue" d="M682.1,-335.23C676.13,-325.68 668.15,-312.89 661.3,-301.92"/>
<polygon fill="midnightblue" stroke="midnightblue" points="664.15,-299.88 655.89,-293.25 658.22,-303.58 664.15,-299.88"/>
</g>
<!-- Node5&#45;&gt;Node6 -->
<g id="edge6" class="edge">
<title>Node5&#45;&gt;Node6</title>
<path fill="none" stroke="midnightblue" d="M612.79,-340.67C485.37,-324.55 241.76,-285.9 188,-221 159.93,-187.12 145.92,-156.87 174,-123 197.26,-94.95 289.44,-82.37 359.25,-76.8"/>
<polygon fill="midnightblue" stroke="midnightblue" points="359.68,-80.28 369.38,-76.03 359.14,-73.3 359.68,-80.28"/>
</g>
<!-- Node5&#45;&gt;Node8 -->
<g id="edge37" class="edge">
<title>Node5&#45;&gt;Node8</title>
<path fill="none" stroke="midnightblue" d="M769.26,-344.71C840.53,-338.81 948.07,-326.02 1038,-299 1116.07,-275.54 1151.24,-283.14 1204,-221 1252.29,-164.12 1260,-70.01 1261,-29.97"/>
<polygon fill="midnightblue" stroke="midnightblue" points="1264.5,-29.83 1261.13,-19.79 1257.5,-29.74 1264.5,-29.83"/>
</g>
<!-- Node5&#45;&gt;Node9 -->
<g id="edge10" class="edge">
<title>Node5&#45;&gt;Node9</title>
<path fill="none" stroke="midnightblue" d="M702.65,-335.27C723.06,-310.32 765.43,-258.53 789.76,-228.79"/>
<polygon fill="midnightblue" stroke="midnightblue" points="792.78,-230.63 796.4,-220.68 787.36,-226.2 792.78,-230.63"/>
</g>
<!-- Node5&#45;&gt;Node15 -->
<g id="edge20" class="edge">
<title>Node5&#45;&gt;Node15</title>
<path fill="none" stroke="midnightblue" d="M643.5,-335.49C610.63,-325.79 566.18,-312.68 528.38,-301.53"/>
<polygon fill="midnightblue" stroke="midnightblue" points="529,-298.06 518.42,-298.59 527.02,-304.78 529,-298.06"/>
</g>
<!-- Node7 -->
<g id="node7" class="node">
<title>Node7</title>
<g id="a_node7"><a xlink:title=" ">
<polygon fill="none" stroke="#bfbfbf" points="420,-0.5 420,-19.5 464,-19.5 464,-0.5 420,-0.5"/>
<text text-anchor="middle" x="442" y="-7.5" font-family="Helvetica,sans-Serif" font-size="10.00">string</text>
</a>
</g>
</g>
<!-- Node6&#45;&gt;Node7 -->
<g id="edge7" class="edge">
<title>Node6&#45;&gt;Node7</title>
<path fill="none" stroke="midnightblue" d="M442,-56.4C442,-48.47 442,-38.46 442,-29.86"/>
<polygon fill="midnightblue" stroke="midnightblue" points="445.5,-29.66 442,-19.66 438.5,-29.66 445.5,-29.66"/>
</g>
<!-- Node6&#45;&gt;Node8 -->
<g id="edge8" class="edge">
<title>Node6&#45;&gt;Node8</title>
<path fill="none" stroke="midnightblue" d="M514.68,-65.22C682.03,-53.06 1090.19,-23.41 1220.38,-13.95"/>
<polygon fill="midnightblue" stroke="midnightblue" points="1220.97,-17.42 1230.69,-13.2 1220.47,-10.44 1220.97,-17.42"/>
</g>
<!-- Node9&#45;&gt;Node2 -->
<g id="edge11" class="edge">
<title>Node9&#45;&gt;Node2</title>
<path fill="none" stroke="midnightblue" d="M879.59,-197.12C941.88,-189.39 1026.1,-175.37 1052,-154 1069.3,-139.73 1077.93,-115.15 1082.15,-96.71"/>
<polygon fill="midnightblue" stroke="midnightblue" points="1085.63,-97.18 1084.16,-86.69 1078.76,-95.8 1085.63,-97.18"/>
</g>
<!-- Node9&#45;&gt;Node6 -->
<g id="edge12" class="edge">
<title>Node9&#45;&gt;Node6</title>
<path fill="none" stroke="midnightblue" d="M769.18,-190.5C701.92,-166.24 563.9,-116.46 490.46,-89.98"/>
<polygon fill="midnightblue" stroke="midnightblue" points="491.57,-86.66 480.97,-86.56 489.19,-93.24 491.57,-86.66"/>
</g>
<!-- Node10 -->
<g id="node10" class="node">
<title>Node10</title>
<g id="a_node10"><a xlink:href="../../d6/d4b/_r_t_c___h_a_l_8hpp.html" target="_top" xlink:title=" ">
<polygon fill="none" stroke="black" points="963,-129 963,-148 1043,-148 1043,-129 963,-129"/>
<text text-anchor="middle" x="1003" y="-136" font-family="Helvetica,sans-Serif" font-size="10.00">RTC_HAL.hpp</text>
</a>
</g>
</g>
<!-- Node9&#45;&gt;Node10 -->
<g id="edge13" class="edge">
<title>Node9&#45;&gt;Node10</title>
<path fill="none" stroke="midnightblue" d="M850.31,-190.4C885.44,-178.69 934.81,-162.23 967.8,-151.23"/>
<polygon fill="midnightblue" stroke="midnightblue" points="969.1,-154.49 977.48,-148.01 966.89,-147.85 969.1,-154.49"/>
</g>
<!-- Node12 -->
<g id="node12" class="node">
<title>Node12</title>
<g id="a_node12"><a xlink:title=" ">
<polygon fill="none" stroke="#bfbfbf" points="783,-129 783,-148 833,-148 833,-129 783,-129"/>
<text text-anchor="middle" x="808" y="-136" font-family="Helvetica,sans-Serif" font-size="10.00">chrono</text>
</a>
</g>
</g>
<!-- Node9&#45;&gt;Node12 -->
<g id="edge17" class="edge">
<title>Node9&#45;&gt;Node12</title>
<path fill="none" stroke="midnightblue" d="M808,-190.4C808,-181.06 808,-168.71 808,-158.52"/>
<polygon fill="midnightblue" stroke="midnightblue" points="811.5,-158.19 808,-148.19 804.5,-158.19 811.5,-158.19"/>
</g>
<!-- Node13 -->
<g id="node13" class="node">
<title>Node13</title>
<g id="a_node13"><a xlink:title=" ">
<polygon fill="none" stroke="#bfbfbf" points="851,-129 851,-148 907,-148 907,-129 851,-129"/>
<text text-anchor="middle" x="879" y="-136" font-family="Helvetica,sans-Serif" font-size="10.00">iomanip</text>
</a>
</g>
</g>
<!-- Node9&#45;&gt;Node13 -->
<g id="edge18" class="edge">
<title>Node9&#45;&gt;Node13</title>
<path fill="none" stroke="midnightblue" d="M823.41,-190.4C834.81,-179.96 850.33,-165.75 862.07,-155"/>
<polygon fill="midnightblue" stroke="midnightblue" points="864.49,-157.53 869.5,-148.19 859.76,-152.37 864.49,-157.53"/>
</g>
<!-- Node14 -->
<g id="node14" class="node">
<title>Node14</title>
<g id="a_node14"><a xlink:title=" ">
<polygon fill="none" stroke="#bfbfbf" points="717,-129 717,-148 765,-148 765,-129 717,-129"/>
<text text-anchor="middle" x="741" y="-136" font-family="Helvetica,sans-Serif" font-size="10.00">thread</text>
</a>
</g>
</g>
<!-- Node9&#45;&gt;Node14 -->
<g id="edge19" class="edge">
<title>Node9&#45;&gt;Node14</title>
<path fill="none" stroke="midnightblue" d="M793.46,-190.4C782.81,-180.06 768.34,-166.02 757.3,-155.31"/>
<polygon fill="midnightblue" stroke="midnightblue" points="759.58,-152.65 749.96,-148.19 754.7,-157.67 759.58,-152.65"/>
</g>
<!-- Node10&#45;&gt;Node2 -->
<g id="edge14" class="edge">
<title>Node10&#45;&gt;Node2</title>
<path fill="none" stroke="midnightblue" d="M1014.19,-128.73C1025.84,-119.61 1044.5,-105 1059.87,-92.96"/>
<polygon fill="midnightblue" stroke="midnightblue" points="1062.29,-95.51 1068.01,-86.59 1057.98,-90 1062.29,-95.51"/>
</g>
<!-- Node10&#45;&gt;Node6 -->
<g id="edge15" class="edge">
<title>Node10&#45;&gt;Node6</title>
<path fill="none" stroke="midnightblue" d="M974.61,-128.95C966.41,-126.73 957.4,-124.54 949,-123 800.94,-95.93 625.71,-82.54 524.85,-76.6"/>
<polygon fill="midnightblue" stroke="midnightblue" points="524.91,-73.09 514.72,-76.01 524.5,-80.08 524.91,-73.09"/>
</g>
<!-- Node11 -->
<g id="node11" class="node">
<title>Node11</title>
<g id="a_node11"><a xlink:title=" ">
<polygon fill="none" stroke="#bfbfbf" points="966,-62 966,-81 1010,-81 1010,-62 966,-62"/>
<text text-anchor="middle" x="988" y="-69" font-family="Helvetica,sans-Serif" font-size="10.00">ctime</text>
</a>
</g>
</g>
<!-- Node10&#45;&gt;Node11 -->
<g id="edge16" class="edge">
<title>Node10&#45;&gt;Node11</title>
<path fill="none" stroke="midnightblue" d="M1000.98,-128.73C998.75,-119.09 995.11,-103.3 992.25,-90.91"/>
<polygon fill="midnightblue" stroke="midnightblue" points="995.65,-90.08 989.99,-81.13 988.83,-91.66 995.65,-90.08"/>
</g>
<!-- Node15&#45;&gt;Node2 -->
<g id="edge21" class="edge">
<title>Node15&#45;&gt;Node2</title>
<path fill="none" stroke="midnightblue" d="M518.88,-262.67C550.61,-253.88 588.04,-240.48 618,-221 667.57,-188.76 655.32,-149.87 708,-123 829.05,-61.27 879.35,-107.46 1017.84,-87.01"/>
<polygon fill="midnightblue" stroke="midnightblue" points="1018.63,-90.43 1027.96,-85.42 1017.54,-83.52 1018.63,-90.43"/>
</g>
<!-- Node15&#45;&gt;Node4 -->
<g id="edge36" class="edge">
<title>Node15&#45;&gt;Node4</title>
<path fill="none" stroke="midnightblue" d="M429.72,-257.36C417.07,-246.21 401.46,-232.46 389.66,-222.06"/>
<polygon fill="midnightblue" stroke="midnightblue" points="391.66,-219.16 381.84,-215.17 387.03,-224.41 391.66,-219.16"/>
</g>
<!-- Node15&#45;&gt;Node6 -->
<g id="edge22" class="edge">
<title>Node15&#45;&gt;Node6</title>
<path fill="none" stroke="midnightblue" d="M385.35,-275.69C335.44,-271.45 268.1,-258.43 222,-221 186.43,-192.12 160.96,-158.44 190,-123 211.21,-97.12 294.06,-84.23 359.04,-77.99"/>
<polygon fill="midnightblue" stroke="midnightblue" points="359.67,-81.45 369.31,-77.05 359.03,-74.48 359.67,-81.45"/>
</g>
<!-- Node15&#45;&gt;Node9 -->
<g id="edge34" class="edge">
<title>Node15&#45;&gt;Node9</title>
<path fill="none" stroke="midnightblue" d="M518.54,-263.82C577.67,-252.11 664.24,-234.97 727.3,-222.48"/>
<polygon fill="midnightblue" stroke="midnightblue" points="728.08,-225.89 737.21,-220.52 726.72,-219.03 728.08,-225.89"/>
</g>
<!-- Node16 -->
<g id="node16" class="node">
<title>Node16</title>
<g id="a_node16"><a xlink:href="../../de/dd1/_o_t_a_8hpp.html" target="_top" xlink:title=" ">
<polygon fill="none" stroke="black" points="231.5,-190.5 231.5,-220.5 334.5,-220.5 334.5,-190.5 231.5,-190.5"/>
<text text-anchor="start" x="239.5" y="-208.5" font-family="Helvetica,sans-Serif" font-size="10.00">../../../Objects/OTA</text>
<text text-anchor="middle" x="283" y="-197.5" font-family="Helvetica,sans-Serif" font-size="10.00">/include/OTA.hpp</text>
</a>
</g>
</g>
<!-- Node15&#45;&gt;Node16 -->
<g id="edge23" class="edge">
<title>Node15&#45;&gt;Node16</title>
<path fill="none" stroke="midnightblue" d="M404.92,-257.36C380.18,-247.04 350.07,-234.48 325.96,-224.42"/>
<polygon fill="midnightblue" stroke="midnightblue" points="327.28,-221.18 316.7,-220.56 324.58,-227.64 327.28,-221.18"/>
</g>
<!-- Node15&#45;&gt;Node18 -->
<g id="edge30" class="edge">
<title>Node15&#45;&gt;Node18</title>
<path fill="none" stroke="midnightblue" d="M518.51,-264.99C535.88,-262.11 554.61,-259.23 572,-257 749.05,-234.34 958.71,-218.39 1065.27,-211.05"/>
<polygon fill="midnightblue" stroke="midnightblue" points="1065.52,-214.54 1075.26,-210.37 1065.04,-207.56 1065.52,-214.54"/>
</g>
<!-- Node15&#45;&gt;Node19 -->
<g id="edge35" class="edge">
<title>Node15&#45;&gt;Node19</title>
<path fill="none" stroke="midnightblue" d="M385.37,-263.99C308.88,-249.05 186.27,-225.11 126.32,-213.4"/>
<polygon fill="midnightblue" stroke="midnightblue" points="126.71,-209.91 116.22,-211.43 125.37,-216.78 126.71,-209.91"/>
</g>
<!-- Node16&#45;&gt;Node2 -->
<g id="edge24" class="edge">
<title>Node16&#45;&gt;Node2</title>
<path fill="none" stroke="midnightblue" d="M334.53,-192C337.73,-191.3 340.91,-190.63 344,-190 437.65,-170.94 465.92,-185.94 556,-154 582.45,-144.62 584.2,-131.31 611,-123 781.73,-70.07 837.03,-112.7 1017.87,-87.01"/>
<polygon fill="midnightblue" stroke="midnightblue" points="1018.59,-90.44 1027.98,-85.52 1017.57,-83.52 1018.59,-90.44"/>
</g>
<!-- Node16&#45;&gt;Node6 -->
<g id="edge25" class="edge">
<title>Node16&#45;&gt;Node6</title>
<path fill="none" stroke="midnightblue" d="M297.12,-190.35C314.09,-173.61 343.69,-145.2 371,-123 384.06,-112.38 399.19,-101.45 412.12,-92.48"/>
<polygon fill="midnightblue" stroke="midnightblue" points="414.4,-95.16 420.66,-86.62 410.44,-89.39 414.4,-95.16"/>
</g>
<!-- Node16&#45;&gt;Node17 -->
<g id="edge26" class="edge">
<title>Node16&#45;&gt;Node17</title>
<path fill="none" stroke="midnightblue" d="M277.79,-190.4C274.84,-182.39 271.06,-172.16 267.67,-162.98"/>
<polygon fill="midnightblue" stroke="midnightblue" points="270.94,-161.75 264.2,-153.58 264.38,-164.17 270.94,-161.75"/>
</g>
<!-- Node17&#45;&gt;Node2 -->
<g id="edge27" class="edge">
<title>Node17&#45;&gt;Node2</title>
<path fill="none" stroke="midnightblue" d="M318.57,-133.57C484.38,-122.63 943.53,-92.31 1017.99,-86.48"/>
<polygon fill="midnightblue" stroke="midnightblue" points="1018.34,-89.97 1027.99,-85.6 1017.72,-82.99 1018.34,-89.97"/>
</g>
<!-- Node17&#45;&gt;Node6 -->
<g id="edge28" class="edge">
<title>Node17&#45;&gt;Node6</title>
<path fill="none" stroke="midnightblue" d="M298.71,-123.4C326.29,-113.6 363.22,-100.48 392.69,-90.02"/>
<polygon fill="midnightblue" stroke="midnightblue" points="394.12,-93.22 402.37,-86.58 391.77,-86.63 394.12,-93.22"/>
</g>
<!-- Node17&#45;&gt;Node7 -->
<g id="edge29" class="edge">
<title>Node17&#45;&gt;Node7</title>
<path fill="none" stroke="midnightblue" d="M274.76,-123.31C294.08,-106.27 328.18,-77.32 360,-56 377.7,-44.14 398.81,-32.61 415.17,-24.19"/>
<polygon fill="midnightblue" stroke="midnightblue" points="416.86,-27.26 424.2,-19.62 413.7,-21.02 416.86,-27.26"/>
</g>
<!-- Node18&#45;&gt;Node2 -->
<g id="edge31" class="edge">
<title>Node18&#45;&gt;Node2</title>
<path fill="none" stroke="midnightblue" d="M1146.05,-190.34C1157.68,-173.58 1172.79,-145.16 1161,-123 1154.06,-109.95 1142.08,-99.67 1129.7,-91.89"/>
<polygon fill="midnightblue" stroke="midnightblue" points="1131.1,-88.65 1120.69,-86.66 1127.58,-94.7 1131.1,-88.65"/>
</g>
<!-- Node18&#45;&gt;Node6 -->
<g id="edge32" class="edge">
<title>Node18&#45;&gt;Node6</title>
<path fill="none" stroke="midnightblue" d="M1075.24,-194.29C1038.81,-186.53 992.09,-173.74 954,-154 934.65,-143.97 936.12,-131.39 916,-123 847.42,-94.39 641.81,-81.07 525.16,-75.67"/>
<polygon fill="midnightblue" stroke="midnightblue" points="525,-72.15 514.85,-75.2 524.68,-79.15 525,-72.15"/>
</g>
<!-- Node18&#45;&gt;Node8 -->
<g id="edge33" class="edge">
<title>Node18&#45;&gt;Node8</title>
<path fill="none" stroke="midnightblue" d="M1147.78,-190.41C1156.46,-180.55 1167.95,-166.88 1177,-154 1207.23,-110.96 1237.09,-56.54 1251.71,-28.89"/>
<polygon fill="midnightblue" stroke="midnightblue" points="1255,-30.16 1256.54,-19.68 1248.8,-26.91 1255,-30.16"/>
</g>
<!-- Node20&#45;&gt;Node2 -->
<g id="edge43" class="edge">
<title>Node20&#45;&gt;Node2</title>
<path fill="none" stroke="midnightblue" d="M1127.01,-335.15C1157.68,-308.86 1215.66,-250.12 1204,-190 1197.89,-158.48 1198.26,-147.06 1177,-123 1165.1,-109.53 1148.71,-98.9 1133.11,-90.94"/>
<polygon fill="midnightblue" stroke="midnightblue" points="1134.59,-87.77 1124.06,-86.56 1131.54,-94.07 1134.59,-87.77"/>
</g>
<!-- Node20&#45;&gt;Node3 -->
<g id="edge45" class="edge">
<title>Node20&#45;&gt;Node3</title>
<path fill="none" stroke="midnightblue" d="M1017.17,-335.49C931.12,-322.36 803.98,-302.96 723.35,-290.65"/>
<polygon fill="midnightblue" stroke="midnightblue" points="723.68,-287.16 713.26,-289.11 722.62,-294.08 723.68,-287.16"/>
</g>
<!-- Node20&#45;&gt;Node6 -->
<g id="edge44" class="edge">
<title>Node20&#45;&gt;Node6</title>
<path fill="none" stroke="midnightblue" d="M1038.58,-335.48C991.76,-325.88 929.02,-312.5 874,-299 805.93,-282.3 790.68,-270.96 722,-257 662.25,-244.85 494.69,-262.48 450,-221 416.19,-189.62 425.68,-129.71 434.49,-96.38"/>
<polygon fill="midnightblue" stroke="midnightblue" points="437.92,-97.13 437.28,-86.56 431.18,-95.22 437.92,-97.13"/>
</g>
<!-- Node20&#45;&gt;Node9 -->
<g id="edge46" class="edge">
<title>Node20&#45;&gt;Node9</title>
<path fill="none" stroke="midnightblue" d="M1097.54,-335.25C1080.3,-314.79 1045.67,-277.31 1008,-257 971.54,-237.34 927.2,-225.14 889.54,-217.67"/>
<polygon fill="midnightblue" stroke="midnightblue" points="890.09,-214.21 879.62,-215.78 888.78,-221.09 890.09,-214.21"/>
</g>
<!-- Node20&#45;&gt;Node18 -->
<g id="edge47" class="edge">
<title>Node20&#45;&gt;Node18</title>
<path fill="none" stroke="midnightblue" d="M1111.59,-335.27C1116.03,-310.85 1125.14,-260.74 1130.59,-230.74"/>
<polygon fill="midnightblue" stroke="midnightblue" points="1134.08,-231.14 1132.42,-220.68 1127.19,-229.89 1134.08,-231.14"/>
</g>
<!-- Node21 -->
<g id="node21" class="node">
<title>Node21</title>
<g id="a_node21"><a xlink:href="../../d5/d60/utils_8h.html" target="_top" xlink:title=" ">
<polygon fill="none" stroke="black" points="1370,-123.5 1370,-153.5 1468,-153.5 1468,-123.5 1370,-123.5"/>
<text text-anchor="start" x="1378" y="-141.5" font-family="Helvetica,sans-Serif" font-size="10.00">../../../Utility/utils</text>
<text text-anchor="middle" x="1419" y="-130.5" font-family="Helvetica,sans-Serif" font-size="10.00">/include/utils.h</text>
</a>
</g>
</g>
<!-- Node20&#45;&gt;Node21 -->
<g id="edge48" class="edge">
<title>Node20&#45;&gt;Node21</title>
<path fill="none" stroke="midnightblue" d="M1203.02,-337.92C1258.51,-329.46 1322.07,-316.43 1344,-299 1387.42,-264.5 1406.95,-198.9 1414.66,-163.53"/>
<polygon fill="midnightblue" stroke="midnightblue" points="1418.11,-164.09 1416.68,-153.59 1411.26,-162.69 1418.11,-164.09"/>
</g>
<!-- Node22 -->
<g id="node22" class="node">
<title>Node22</title>
<g id="a_node22"><a xlink:title=" ">
<polygon fill="none" stroke="#bfbfbf" points="1651.5,-62 1651.5,-81 1698.5,-81 1698.5,-62 1651.5,-62"/>
<text text-anchor="middle" x="1675" y="-69" font-family="Helvetica,sans-Serif" font-size="10.00">vector</text>
</a>
</g>
</g>
<!-- Node20&#45;&gt;Node22 -->
<g id="edge63" class="edge">
<title>Node20&#45;&gt;Node22</title>
<path fill="none" stroke="midnightblue" d="M1203.23,-342.22C1255.57,-335.6 1320.85,-323 1375,-299 1498.31,-244.35 1618.06,-130.31 1659.62,-88.4"/>
<polygon fill="midnightblue" stroke="midnightblue" points="1662.15,-90.81 1666.66,-81.23 1657.15,-85.91 1662.15,-90.81"/>
</g>
<!-- Node27 -->
<g id="node27" class="node">
<title>Node27</title>
<g id="a_node27"><a xlink:href="../../d3/de3/_logger_8hpp.html" target="_top" xlink:title=" ">
<polygon fill="none" stroke="black" points="883,-263 883,-293 999,-293 999,-263 883,-263"/>
<text text-anchor="start" x="891" y="-281" font-family="Helvetica,sans-Serif" font-size="10.00">../../../Objects/Logger</text>
<text text-anchor="middle" x="941" y="-270" font-family="Helvetica,sans-Serif" font-size="10.00">/include/Logger.hpp</text>
</a>
</g>
</g>
<!-- Node20&#45;&gt;Node27 -->
<g id="edge58" class="edge">
<title>Node20&#45;&gt;Node27</title>
<path fill="none" stroke="midnightblue" d="M1075.41,-335.4C1049.08,-324.36 1012.27,-308.91 983.83,-296.97"/>
<polygon fill="midnightblue" stroke="midnightblue" points="985.11,-293.72 974.54,-293.07 982.4,-300.17 985.11,-293.72"/>
</g>
<!-- Node28 -->
<g id="node28" class="node">
<title>Node28</title>
<g id="a_node28"><a xlink:title=" ">
<polygon fill="none" stroke="#bfbfbf" points="1289.5,-268.5 1289.5,-287.5 1334.5,-287.5 1334.5,-268.5 1289.5,-268.5"/>
<text text-anchor="middle" x="1312" y="-275.5" font-family="Helvetica,sans-Serif" font-size="10.00">utility</text>
</a>
</g>
</g>
<!-- Node20&#45;&gt;Node28 -->
<g id="edge62" class="edge">
<title>Node20&#45;&gt;Node28</title>
<path fill="none" stroke="midnightblue" d="M1164.93,-335.49C1197.59,-326.58 1239.28,-313.91 1275,-299 1279.44,-297.15 1284.05,-294.92 1288.44,-292.64"/>
<polygon fill="midnightblue" stroke="midnightblue" points="1290.46,-295.53 1297.57,-287.67 1287.11,-289.38 1290.46,-295.53"/>
</g>
<!-- Node21&#45;&gt;Node2 -->
<g id="edge51" class="edge">
<title>Node21&#45;&gt;Node2</title>
<path fill="none" stroke="midnightblue" d="M1369.86,-125.98C1365.18,-124.95 1360.5,-123.94 1356,-123 1287.44,-108.7 1208.69,-94.19 1154,-84.42"/>
<polygon fill="midnightblue" stroke="midnightblue" points="1154.53,-80.96 1144.07,-82.65 1153.3,-87.85 1154.53,-80.96"/>
</g>
<!-- Node21&#45;&gt;Node6 -->
<g id="edge52" class="edge">
<title>Node21&#45;&gt;Node6</title>
<path fill="none" stroke="midnightblue" d="M1369.88,-134.23C1212.8,-123.78 721.52,-91.1 524.73,-78"/>
<polygon fill="midnightblue" stroke="midnightblue" points="524.94,-74.51 514.73,-77.34 524.48,-81.5 524.94,-74.51"/>
</g>
<!-- Node21&#45;&gt;Node7 -->
<g id="edge49" class="edge">
<title>Node21&#45;&gt;Node7</title>
<path fill="none" stroke="midnightblue" d="M1382.67,-123.39C1332.07,-104.42 1237.11,-71.33 1153,-56 1019.82,-31.73 594.57,-16.06 474.09,-12.03"/>
<polygon fill="midnightblue" stroke="midnightblue" points="474.14,-8.53 464.03,-11.7 473.91,-15.53 474.14,-8.53"/>
</g>
<!-- Node21&#45;&gt;Node8 -->
<g id="edge56" class="edge">
<title>Node21&#45;&gt;Node8</title>
<path fill="none" stroke="midnightblue" d="M1468.05,-125.67C1521.41,-112.57 1599.76,-92.56 1604,-87 1612.36,-76.05 1613.09,-66.36 1604,-56 1584.28,-33.52 1387.58,-18.78 1301.26,-13.34"/>
<polygon fill="midnightblue" stroke="midnightblue" points="1301.25,-9.84 1291.06,-12.71 1300.82,-16.82 1301.25,-9.84"/>
</g>
<!-- Node21&#45;&gt;Node22 -->
<g id="edge50" class="edge">
<title>Node21&#45;&gt;Node22</title>
<path fill="none" stroke="midnightblue" d="M1468.15,-126.16C1531.81,-111.46 1634.95,-87.63 1637,-87 1639.42,-86.26 1641.91,-85.44 1644.4,-84.59"/>
<polygon fill="midnightblue" stroke="midnightblue" points="1645.67,-87.85 1653.87,-81.15 1643.28,-81.27 1645.67,-87.85"/>
</g>
<!-- Node23 -->
<g id="node23" class="node">
<title>Node23</title>
<g id="a_node23"><a xlink:title=" ">
<polygon fill="none" stroke="#bfbfbf" points="1327.5,-62 1327.5,-81 1380.5,-81 1380.5,-62 1327.5,-62"/>
<text text-anchor="middle" x="1354" y="-69" font-family="Helvetica,sans-Serif" font-size="10.00">stdint.h</text>
</a>
</g>
</g>
<!-- Node21&#45;&gt;Node23 -->
<g id="edge53" class="edge">
<title>Node21&#45;&gt;Node23</title>
<path fill="none" stroke="midnightblue" d="M1404.9,-123.4C1394.56,-113.06 1380.52,-99.02 1369.81,-88.31"/>
<polygon fill="midnightblue" stroke="midnightblue" points="1372.24,-85.79 1362.69,-81.19 1367.29,-90.74 1372.24,-85.79"/>
</g>
<!-- Node24 -->
<g id="node24" class="node">
<title>Node24</title>
<g id="a_node24"><a xlink:title=" ">
<polygon fill="none" stroke="#bfbfbf" points="1399,-62 1399,-81 1449,-81 1449,-62 1399,-62"/>
<text text-anchor="middle" x="1424" y="-69" font-family="Helvetica,sans-Serif" font-size="10.00">stdio.h</text>
</a>
</g>
</g>
<!-- Node21&#45;&gt;Node24 -->
<g id="edge54" class="edge">
<title>Node21&#45;&gt;Node24</title>
<path fill="none" stroke="midnightblue" d="M1420.08,-123.4C1420.81,-113.96 1421.77,-101.45 1422.56,-91.19"/>
<polygon fill="midnightblue" stroke="midnightblue" points="1426.05,-91.43 1423.33,-81.19 1419.07,-90.9 1426.05,-91.43"/>
</g>
<!-- Node25 -->
<g id="node25" class="node">
<title>Node25</title>
<g id="a_node25"><a xlink:title=" ">
<polygon fill="none" stroke="#bfbfbf" points="1467.5,-62 1467.5,-81 1520.5,-81 1520.5,-62 1467.5,-62"/>
<text text-anchor="middle" x="1494" y="-69" font-family="Helvetica,sans-Serif" font-size="10.00">stdlib.h</text>
</a>
</g>
</g>
<!-- Node21&#45;&gt;Node25 -->
<g id="edge55" class="edge">
<title>Node21&#45;&gt;Node25</title>
<path fill="none" stroke="midnightblue" d="M1435.27,-123.4C1447.32,-112.96 1463.71,-98.75 1476.12,-88"/>
<polygon fill="midnightblue" stroke="midnightblue" points="1478.7,-90.39 1483.97,-81.19 1474.12,-85.1 1478.7,-90.39"/>
</g>
<!-- Node26 -->
<g id="node26" class="node">
<title>Node26</title>
<g id="a_node26"><a xlink:title=" ">
<polygon fill="none" stroke="#bfbfbf" points="1539,-62 1539,-81 1595,-81 1595,-62 1539,-62"/>
<text text-anchor="middle" x="1567" y="-69" font-family="Helvetica,sans-Serif" font-size="10.00">sstream</text>
</a>
</g>
</g>
<!-- Node21&#45;&gt;Node26 -->
<g id="edge57" class="edge">
<title>Node21&#45;&gt;Node26</title>
<path fill="none" stroke="midnightblue" d="M1451.11,-123.4C1477.08,-111.99 1513.31,-96.08 1538.32,-85.1"/>
<polygon fill="midnightblue" stroke="midnightblue" points="1539.88,-88.23 1547.63,-81.01 1537.07,-81.82 1539.88,-88.23"/>
</g>
<!-- Node27&#45;&gt;Node2 -->
<g id="edge59" class="edge">
<title>Node27&#45;&gt;Node2</title>
<path fill="none" stroke="midnightblue" d="M955.41,-262.86C973.3,-245.41 1004.92,-214.99 1033,-190 1051.62,-173.43 1064.1,-175.9 1076,-154 1085.49,-136.53 1087.61,-113.91 1087.57,-96.94"/>
<polygon fill="midnightblue" stroke="midnightblue" points="1091.07,-96.6 1087.29,-86.7 1084.07,-96.8 1091.07,-96.6"/>
</g>
<!-- Node27&#45;&gt;Node6 -->
<g id="edge60" class="edge">
<title>Node27&#45;&gt;Node6</title>
<path fill="none" stroke="midnightblue" d="M882.79,-263.26C871.62,-260.93 859.98,-258.72 849,-257 766.73,-244.13 539.57,-274.79 476,-221 440.08,-190.61 437.67,-130.75 439.53,-97.05"/>
<polygon fill="midnightblue" stroke="midnightblue" points="443.05,-96.93 440.29,-86.7 436.07,-96.42 443.05,-96.93"/>
</g>
<!-- Node27&#45;&gt;Node9 -->
<g id="edge61" class="edge">
<title>Node27&#45;&gt;Node9</title>
<path fill="none" stroke="midnightblue" d="M914.41,-262.9C894.02,-252.1 865.69,-237.08 843.39,-225.26"/>
<polygon fill="midnightblue" stroke="midnightblue" points="845.02,-222.16 834.55,-220.57 841.75,-228.35 845.02,-222.16"/>
</g>
<!-- Node29&#45;&gt;Node2 -->
<g id="edge66" class="edge">
<title>Node29&#45;&gt;Node2</title>
<path fill="none" stroke="midnightblue" d="M563.47,-190.39C586.64,-171.44 630.97,-138.36 675,-123 817.03,-73.46 865.14,-109.66 1017.76,-87.04"/>
<polygon fill="midnightblue" stroke="midnightblue" points="1018.62,-90.45 1027.97,-85.46 1017.55,-83.53 1018.62,-90.45"/>
</g>
<!-- Node29&#45;&gt;Node6 -->
<g id="edge67" class="edge">
<title>Node29&#45;&gt;Node6</title>
<path fill="none" stroke="midnightblue" d="M522.62,-190.33C508.74,-181.31 491.82,-168.6 480,-154 466.09,-136.82 455.94,-113.71 449.65,-96.48"/>
<polygon fill="midnightblue" stroke="midnightblue" points="452.81,-94.93 446.23,-86.63 446.2,-97.22 452.81,-94.93"/>
</g>
<!-- Node30 -->
<g id="node30" class="node">
<title>Node30</title>
<g id="a_node30"><a xlink:href="../../de/da6/_gpio_2include_2_h_a_l_8hpp.html" target="_top" xlink:title=" ">
<polygon fill="none" stroke="black" points="489.5,-129 489.5,-148 546.5,-148 546.5,-129 489.5,-129"/>
<text text-anchor="middle" x="518" y="-136" font-family="Helvetica,sans-Serif" font-size="10.00">HAL.hpp</text>
</a>
</g>
</g>
<!-- Node29&#45;&gt;Node30 -->
<g id="edge68" class="edge">
<title>Node29&#45;&gt;Node30</title>
<path fill="none" stroke="midnightblue" d="M540.71,-190.4C536.41,-180.76 530.68,-167.91 526.05,-157.54"/>
<polygon fill="midnightblue" stroke="midnightblue" points="529.15,-155.9 521.88,-148.19 522.76,-158.75 529.15,-155.9"/>
</g>
<!-- Node30&#45;&gt;Node2 -->
<g id="edge69" class="edge">
<title>Node30&#45;&gt;Node2</title>
<path fill="none" stroke="midnightblue" d="M540.03,-128.91C546.68,-126.64 554.05,-124.42 561,-123 757.82,-82.73 815.14,-115.57 1017.9,-87.01"/>
<polygon fill="midnightblue" stroke="midnightblue" points="1018.58,-90.45 1027.98,-85.56 1017.59,-83.52 1018.58,-90.45"/>
</g>
<!-- Node30&#45;&gt;Node6 -->
<g id="edge70" class="edge">
<title>Node30&#45;&gt;Node6</title>
<path fill="none" stroke="midnightblue" d="M507.75,-128.73C497.18,-119.7 480.32,-105.27 466.32,-93.3"/>
<polygon fill="midnightblue" stroke="midnightblue" points="468.35,-90.43 458.47,-86.59 463.8,-95.75 468.35,-90.43"/>
</g>
</g>
</svg>
