<?xml version="1.0" encoding="UTF-8" standalone="no"?>
<!DOCTYPE svg PUBLIC "-//W3C//DTD SVG 1.1//EN"
 "http://www.w3.org/Graphics/SVG/1.1/DTD/svg11.dtd">
<!-- Generated by graphviz version 2.43.0 (0)
 -->
<!-- Title: Watch_Clock Pages: 1 -->
<svg width="164pt" height="409pt"
 viewBox="0.00 0.00 164.00 409.00" xmlns="http://www.w3.org/2000/svg" xmlns:xlink="http://www.w3.org/1999/xlink">
<g id="graph0" class="graph" transform="scale(1 1) rotate(0) translate(4 405)">
<title>Watch_Clock</title>
<!-- Node1 -->
<g id="node1" class="node">
<title>Node1</title>
<g id="a_node1"><a xlink:title=" ">
<polygon fill="#bfbfbf" stroke="black" points="25,-0.5 25,-112.5 131,-112.5 131,-0.5 25,-0.5"/>
<text text-anchor="middle" x="78" y="-100.5" font-family="Helvetica,sans-Serif" font-size="10.00">Watch_Clock</text>
<polyline fill="none" stroke="black" points="25,-93.5 131,-93.5 "/>
<text text-anchor="start" x="33" y="-81.5" font-family="Helvetica,sans-Serif" font-size="10.00">&#45; m_last_time</text>
<polyline fill="none" stroke="black" points="25,-74.5 131,-74.5 "/>
<text text-anchor="start" x="33" y="-62.5" font-family="Helvetica,sans-Serif" font-size="10.00">+ Watch_Clock()</text>
<text text-anchor="start" x="33" y="-51.5" font-family="Helvetica,sans-Serif" font-size="10.00">+ Watch_Clock()</text>
<text text-anchor="start" x="33" y="-40.5" font-family="Helvetica,sans-Serif" font-size="10.00">+ ~Watch_Clock()</text>
<text text-anchor="start" x="33" y="-29.5" font-family="Helvetica,sans-Serif" font-size="10.00">+ initialize()</text>
<text text-anchor="start" x="33" y="-18.5" font-family="Helvetica,sans-Serif" font-size="10.00">+ watch()</text>
<text text-anchor="start" x="33" y="-7.5" font-family="Helvetica,sans-Serif" font-size="10.00">+ reset()</text>
</a>
</g>
</g>
<!-- Node2 -->
<g id="node2" class="node">
<title>Node2</title>
<g id="a_node2"><a xlink:href="../../da/d60/class_watchdog___base.html" target="_top" xlink:title=" ">
<polygon fill="none" stroke="black" points="0,-150.5 0,-251.5 156,-251.5 156,-150.5 0,-150.5"/>
<text text-anchor="middle" x="78" y="-239.5" font-family="Helvetica,sans-Serif" font-size="10.00">Watchdog_Base&lt; uint32_t &gt;</text>
<polyline fill="none" stroke="black" points="0,-232.5 156,-232.5 "/>
<text text-anchor="start" x="8" y="-220.5" font-family="Helvetica,sans-Serif" font-size="10.00"># m_watch</text>
<text text-anchor="start" x="8" y="-209.5" font-family="Helvetica,sans-Serif" font-size="10.00"># m_initialized</text>
<polyline fill="none" stroke="black" points="0,-202.5 156,-202.5 "/>
<text text-anchor="start" x="8" y="-190.5" font-family="Helvetica,sans-Serif" font-size="10.00">+ Watchdog_Base()</text>
<text text-anchor="start" x="8" y="-179.5" font-family="Helvetica,sans-Serif" font-size="10.00">+ ~Watchdog_Base()</text>
<text text-anchor="start" x="8" y="-168.5" font-family="Helvetica,sans-Serif" font-size="10.00">+ initialize()</text>
<text text-anchor="start" x="8" y="-157.5" font-family="Helvetica,sans-Serif" font-size="10.00">+ watch()</text>
</a>
</g>
</g>
<!-- Node2&#45;&gt;Node1 -->
<g id="edge1" class="edge">
<title>Node2&#45;&gt;Node1</title>
<path fill="none" stroke="midnightblue" d="M78,-140.11C78,-131.1 78,-121.83 78,-112.91"/>
<polygon fill="none" stroke="midnightblue" points="74.5,-140.16 78,-150.16 81.5,-140.16 74.5,-140.16"/>
</g>
<!-- Node3 -->
<g id="node3" class="node">
<title>Node3</title>
<g id="a_node3"><a xlink:href="../../da/d60/class_watchdog___base.html" target="_top" xlink:title=" ">
<polygon fill="none" stroke="black" points="17,-299.5 17,-400.5 139,-400.5 139,-299.5 17,-299.5"/>
<text text-anchor="middle" x="78" y="-388.5" font-family="Helvetica,sans-Serif" font-size="10.00">Watchdog_Base&lt; T &gt;</text>
<polyline fill="none" stroke="black" points="17,-381.5 139,-381.5 "/>
<text text-anchor="start" x="25" y="-369.5" font-family="Helvetica,sans-Serif" font-size="10.00"># m_watch</text>
<text text-anchor="start" x="25" y="-358.5" font-family="Helvetica,sans-Serif" font-size="10.00"># m_initialized</text>
<polyline fill="none" stroke="black" points="17,-351.5 139,-351.5 "/>
<text text-anchor="start" x="25" y="-339.5" font-family="Helvetica,sans-Serif" font-size="10.00">+ Watchdog_Base()</text>
<text text-anchor="start" x="25" y="-328.5" font-family="Helvetica,sans-Serif" font-size="10.00">+ ~Watchdog_Base()</text>
<text text-anchor="start" x="25" y="-317.5" font-family="Helvetica,sans-Serif" font-size="10.00">+ initialize()</text>
<text text-anchor="start" x="25" y="-306.5" font-family="Helvetica,sans-Serif" font-size="10.00">+ watch()</text>
</a>
</g>
</g>
<!-- Node3&#45;&gt;Node2 -->
<g id="edge2" class="edge">
<title>Node3&#45;&gt;Node2</title>
<path fill="none" stroke="orange" d="M78,-288.99C78,-276.6 78,-263.69 78,-251.72"/>
<polygon fill="orange" stroke="orange" points="74.5,-289.23 78,-299.23 81.5,-289.23 74.5,-289.23"/>
<text text-anchor="middle" x="111" y="-273" font-family="Helvetica,sans-Serif" font-size="10.00"> &lt; uint32_t &gt;</text>
</g>
</g>
</svg>
