<?xml version="1.0" encoding="UTF-8" standalone="no"?>
<!DOCTYPE svg PUBLIC "-//W3C//DTD SVG 1.1//EN"
 "http://www.w3.org/Graphics/SVG/1.1/DTD/svg11.dtd">
<!-- Generated by graphviz version 2.43.0 (0)
 -->
<!-- Title: Components/Objects/Message/include/Message_Handler.hpp Pages: 1 -->
<svg width="395pt" height="229pt"
 viewBox="0.00 0.00 395.00 229.00" xmlns="http://www.w3.org/2000/svg" xmlns:xlink="http://www.w3.org/1999/xlink">
<g id="graph0" class="graph" transform="scale(1 1) rotate(0) translate(4 225)">
<title>Components/Objects/Message/include/Message_Handler.hpp</title>
<!-- Node1 -->
<g id="node1" class="node">
<title>Node1</title>
<g id="a_node1"><a xlink:title=" ">
<polygon fill="#bfbfbf" stroke="black" points="147,-179.5 147,-220.5 295,-220.5 295,-179.5 147,-179.5"/>
<text text-anchor="start" x="155" y="-208.5" font-family="Helvetica,sans-Serif" font-size="10.00">Components/Objects</text>
<text text-anchor="start" x="155" y="-197.5" font-family="Helvetica,sans-Serif" font-size="10.00">/Message/include/Message</text>
<text text-anchor="middle" x="221" y="-186.5" font-family="Helvetica,sans-Serif" font-size="10.00">_Handler.hpp</text>
</a>
</g>
</g>
<!-- Node2 -->
<g id="node2" class="node">
<title>Node2</title>
<g id="a_node2"><a xlink:href="../../da/d5f/_b_a_s_i_c_8hpp.html" target="_top" xlink:title=" ">
<polygon fill="none" stroke="black" points="0,-56.5 0,-86.5 116,-86.5 116,-56.5 0,-56.5"/>
<text text-anchor="start" x="8" y="-74.5" font-family="Helvetica,sans-Serif" font-size="10.00">../../../Global_Include</text>
<text text-anchor="middle" x="58" y="-63.5" font-family="Helvetica,sans-Serif" font-size="10.00">/BASIC.hpp</text>
</a>
</g>
</g>
<!-- Node1&#45;&gt;Node2 -->
<g id="edge1" class="edge">
<title>Node1&#45;&gt;Node2</title>
<path fill="none" stroke="midnightblue" d="M151.95,-179.48C130.8,-170.93 108.72,-159.07 92,-143 78.79,-130.3 70.06,-111.41 64.76,-96.38"/>
<polygon fill="midnightblue" stroke="midnightblue" points="68.04,-95.15 61.62,-86.72 61.38,-97.31 68.04,-95.15"/>
</g>
<!-- Node3 -->
<g id="node3" class="node">
<title>Node3</title>
<g id="a_node3"><a xlink:href="../../d3/deb/_general___error_8hpp.html" target="_top" xlink:title=" ">
<polygon fill="none" stroke="black" points="199.5,-56.5 199.5,-86.5 344.5,-86.5 344.5,-56.5 199.5,-56.5"/>
<text text-anchor="start" x="207.5" y="-74.5" font-family="Helvetica,sans-Serif" font-size="10.00">../../../Objects/ErrorHandler</text>
<text text-anchor="middle" x="272" y="-63.5" font-family="Helvetica,sans-Serif" font-size="10.00">/include/General_Error.hpp</text>
</a>
</g>
</g>
<!-- Node1&#45;&gt;Node3 -->
<g id="edge2" class="edge">
<title>Node1&#45;&gt;Node3</title>
<path fill="none" stroke="midnightblue" d="M228.97,-179.23C238.04,-156.74 252.84,-120.02 262.5,-96.05"/>
<polygon fill="midnightblue" stroke="midnightblue" points="265.8,-97.23 266.3,-86.64 259.31,-94.61 265.8,-97.23"/>
</g>
<!-- Node5 -->
<g id="node5" class="node">
<title>Node5</title>
<g id="a_node5"><a xlink:title=" ">
<polygon fill="none" stroke="#bfbfbf" points="327,-0.5 327,-19.5 387,-19.5 387,-0.5 327,-0.5"/>
<text text-anchor="middle" x="357" y="-7.5" font-family="Helvetica,sans-Serif" font-size="10.00">iostream</text>
</a>
</g>
</g>
<!-- Node1&#45;&gt;Node5 -->
<g id="edge9" class="edge">
<title>Node1&#45;&gt;Node5</title>
<path fill="none" stroke="midnightblue" d="M258.4,-179.34C290.15,-160.39 333.7,-128.48 354,-87 362.78,-69.06 362.23,-45.78 360.31,-29.74"/>
<polygon fill="midnightblue" stroke="midnightblue" points="363.73,-28.89 358.79,-19.52 356.8,-29.93 363.73,-28.89"/>
</g>
<!-- Node6 -->
<g id="node6" class="node">
<title>Node6</title>
<g id="a_node6"><a xlink:href="../../db/d90/_message___protocol_8hpp.html" target="_top" xlink:title=" ">
<polygon fill="none" stroke="black" points="101,-123.5 101,-142.5 227,-142.5 227,-123.5 101,-123.5"/>
<text text-anchor="middle" x="164" y="-130.5" font-family="Helvetica,sans-Serif" font-size="10.00">Message_Protocol.hpp</text>
</a>
</g>
</g>
<!-- Node1&#45;&gt;Node6 -->
<g id="edge5" class="edge">
<title>Node1&#45;&gt;Node6</title>
<path fill="none" stroke="midnightblue" d="M203.9,-179.5C195.75,-170.2 186.11,-159.21 178.34,-150.36"/>
<polygon fill="midnightblue" stroke="midnightblue" points="180.81,-147.86 171.59,-142.65 175.55,-152.48 180.81,-147.86"/>
</g>
<!-- Node4 -->
<g id="node4" class="node">
<title>Node4</title>
<g id="a_node4"><a xlink:title=" ">
<polygon fill="none" stroke="#bfbfbf" points="250,-0.5 250,-19.5 294,-19.5 294,-0.5 250,-0.5"/>
<text text-anchor="middle" x="272" y="-7.5" font-family="Helvetica,sans-Serif" font-size="10.00">string</text>
</a>
</g>
</g>
<!-- Node3&#45;&gt;Node4 -->
<g id="edge3" class="edge">
<title>Node3&#45;&gt;Node4</title>
<path fill="none" stroke="midnightblue" d="M272,-56.4C272,-48.47 272,-38.46 272,-29.86"/>
<polygon fill="midnightblue" stroke="midnightblue" points="275.5,-29.66 272,-19.66 268.5,-29.66 275.5,-29.66"/>
</g>
<!-- Node3&#45;&gt;Node5 -->
<g id="edge4" class="edge">
<title>Node3&#45;&gt;Node5</title>
<path fill="none" stroke="midnightblue" d="M292.14,-56.4C305.39,-47.13 322.68,-35.03 336.08,-25.65"/>
<polygon fill="midnightblue" stroke="midnightblue" points="338.45,-28.26 344.63,-19.66 334.43,-22.53 338.45,-28.26"/>
</g>
<!-- Node6&#45;&gt;Node2 -->
<g id="edge6" class="edge">
<title>Node6&#45;&gt;Node2</title>
<path fill="none" stroke="midnightblue" d="M148.81,-123.48C133.99,-115.15 110.92,-102.21 91.75,-91.45"/>
<polygon fill="midnightblue" stroke="midnightblue" points="93.42,-88.37 82.98,-86.52 89.99,-94.47 93.42,-88.37"/>
</g>
<!-- Node6&#45;&gt;Node3 -->
<g id="edge7" class="edge">
<title>Node6&#45;&gt;Node3</title>
<path fill="none" stroke="midnightblue" d="M179.47,-123.48C194.58,-115.15 218.08,-102.21 237.61,-91.45"/>
<polygon fill="midnightblue" stroke="midnightblue" points="239.48,-94.41 246.55,-86.52 236.1,-88.28 239.48,-94.41"/>
</g>
<!-- Node7 -->
<g id="node7" class="node">
<title>Node7</title>
<g id="a_node7"><a xlink:title=" ">
<polygon fill="none" stroke="#bfbfbf" points="134.5,-62 134.5,-81 181.5,-81 181.5,-62 134.5,-62"/>
<text text-anchor="middle" x="158" y="-69" font-family="Helvetica,sans-Serif" font-size="10.00">vector</text>
</a>
</g>
</g>
<!-- Node6&#45;&gt;Node7 -->
<g id="edge8" class="edge">
<title>Node6&#45;&gt;Node7</title>
<path fill="none" stroke="midnightblue" d="M163.14,-123.48C162.29,-115.08 160.97,-101.98 159.88,-91.16"/>
<polygon fill="midnightblue" stroke="midnightblue" points="163.34,-90.61 158.86,-81.01 156.38,-91.31 163.34,-90.61"/>
</g>
</g>
</svg>
