<?xml version="1.0" encoding="UTF-8" standalone="no"?>
<!DOCTYPE svg PUBLIC "-//W3C//DTD SVG 1.1//EN"
 "http://www.w3.org/Graphics/SVG/1.1/DTD/svg11.dtd">
<!-- Generated by graphviz version 2.43.0 (0)
 -->
<!-- Title: WiFi_SAL_esp32 Pages: 1 -->
<svg width="228pt" height="559pt"
 viewBox="0.00 0.00 227.50 559.00" xmlns="http://www.w3.org/2000/svg" xmlns:xlink="http://www.w3.org/1999/xlink">
<g id="graph0" class="graph" transform="scale(1 1) rotate(0) translate(4 555)">
<title>WiFi_SAL_esp32</title>
<!-- Node1 -->
<g id="node1" class="node">
<title>Node1</title>
<g id="a_node1"><a xlink:title=" ">
<polygon fill="#bfbfbf" stroke="black" points="32,-0.5 32,-145.5 155,-145.5 155,-0.5 32,-0.5"/>
<text text-anchor="middle" x="93.5" y="-133.5" font-family="Helvetica,sans-Serif" font-size="10.00">WiFi_SAL_esp32</text>
<polyline fill="none" stroke="black" points="32,-126.5 155,-126.5 "/>
<text text-anchor="start" x="40" y="-114.5" font-family="Helvetica,sans-Serif" font-size="10.00">&#45; instance_any_id</text>
<text text-anchor="start" x="40" y="-103.5" font-family="Helvetica,sans-Serif" font-size="10.00">&#45; instance_got_ip</text>
<text text-anchor="start" x="40" y="-92.5" font-family="Helvetica,sans-Serif" font-size="10.00">&#45; m_cfg</text>
<polyline fill="none" stroke="black" points="32,-85.5 155,-85.5 "/>
<text text-anchor="start" x="40" y="-73.5" font-family="Helvetica,sans-Serif" font-size="10.00">+ WiFi_SAL_esp32()</text>
<text text-anchor="start" x="40" y="-62.5" font-family="Helvetica,sans-Serif" font-size="10.00">+ ~WiFi_SAL_esp32()</text>
<text text-anchor="start" x="40" y="-51.5" font-family="Helvetica,sans-Serif" font-size="10.00">+ connect()</text>
<text text-anchor="start" x="40" y="-40.5" font-family="Helvetica,sans-Serif" font-size="10.00">+ disconnect()</text>
<text text-anchor="start" x="40" y="-29.5" font-family="Helvetica,sans-Serif" font-size="10.00">&#45; operator=()</text>
<text text-anchor="start" x="40" y="-18.5" font-family="Helvetica,sans-Serif" font-size="10.00">&#45; WiFi_SAL_esp32()</text>
<text text-anchor="start" x="40" y="-7.5" font-family="Helvetica,sans-Serif" font-size="10.00">&#45; event_handler()</text>
</a>
</g>
</g>
<!-- Node2 -->
<g id="node2" class="node">
<title>Node2</title>
<g id="a_node2"><a xlink:href="../../db/d7f/class_wi_fi_base.html" target="_top" xlink:title=" ">
<polygon fill="none" stroke="black" points="49,-183.5 49,-273.5 138,-273.5 138,-183.5 49,-183.5"/>
<text text-anchor="middle" x="93.5" y="-261.5" font-family="Helvetica,sans-Serif" font-size="10.00">WiFiBase</text>
<polyline fill="none" stroke="black" points="49,-254.5 138,-254.5 "/>
<text text-anchor="middle" x="93.5" y="-242.5" font-family="Helvetica,sans-Serif" font-size="10.00"> </text>
<polyline fill="none" stroke="black" points="49,-235.5 138,-235.5 "/>
<text text-anchor="start" x="57" y="-223.5" font-family="Helvetica,sans-Serif" font-size="10.00">+ WiFiBase()</text>
<text text-anchor="start" x="57" y="-212.5" font-family="Helvetica,sans-Serif" font-size="10.00">+ ~WiFiBase()</text>
<text text-anchor="start" x="57" y="-201.5" font-family="Helvetica,sans-Serif" font-size="10.00">&#45; WiFiBase()</text>
<text text-anchor="start" x="57" y="-190.5" font-family="Helvetica,sans-Serif" font-size="10.00">&#45; operator=()</text>
</a>
</g>
</g>
<!-- Node2&#45;&gt;Node1 -->
<g id="edge1" class="edge">
<title>Node2&#45;&gt;Node1</title>
<path fill="none" stroke="midnightblue" d="M93.5,-172.98C93.5,-164.16 93.5,-154.92 93.5,-145.77"/>
<polygon fill="none" stroke="midnightblue" points="90,-173.1 93.5,-183.1 97,-173.1 90,-173.1"/>
</g>
<!-- Node3 -->
<g id="node3" class="node">
<title>Node3</title>
<g id="a_node3"><a xlink:href="../../d0/d74/class_connector_base.html" target="_top" xlink:title=" ">
<polygon fill="none" stroke="black" points="0,-332.5 0,-444.5 117,-444.5 117,-332.5 0,-332.5"/>
<text text-anchor="middle" x="58.5" y="-432.5" font-family="Helvetica,sans-Serif" font-size="10.00">ConnectorBase</text>
<polyline fill="none" stroke="black" points="0,-425.5 117,-425.5 "/>
<text text-anchor="middle" x="58.5" y="-413.5" font-family="Helvetica,sans-Serif" font-size="10.00"> </text>
<polyline fill="none" stroke="black" points="0,-406.5 117,-406.5 "/>
<text text-anchor="start" x="8" y="-394.5" font-family="Helvetica,sans-Serif" font-size="10.00">+ ConnectorBase()</text>
<text text-anchor="start" x="8" y="-383.5" font-family="Helvetica,sans-Serif" font-size="10.00">+ ~ConnectorBase()</text>
<text text-anchor="start" x="8" y="-372.5" font-family="Helvetica,sans-Serif" font-size="10.00">+ connect()</text>
<text text-anchor="start" x="8" y="-361.5" font-family="Helvetica,sans-Serif" font-size="10.00">+ disconnect()</text>
<text text-anchor="start" x="8" y="-350.5" font-family="Helvetica,sans-Serif" font-size="10.00">&#45; ConnectorBase()</text>
<text text-anchor="start" x="8" y="-339.5" font-family="Helvetica,sans-Serif" font-size="10.00">&#45; operator=()</text>
</a>
</g>
</g>
<!-- Node3&#45;&gt;Node2 -->
<g id="edge2" class="edge">
<title>Node3&#45;&gt;Node2</title>
<path fill="none" stroke="midnightblue" d="M72.97,-322.17C76.6,-305.79 80.41,-288.6 83.74,-273.54"/>
<polygon fill="none" stroke="midnightblue" points="69.49,-321.72 70.74,-332.24 76.32,-323.23 69.49,-321.72"/>
</g>
<!-- Node4 -->
<g id="node4" class="node">
<title>Node4</title>
<g id="a_node4"><a xlink:title="STL class.">
<polygon fill="none" stroke="#bfbfbf" points="135,-360 135,-417 200,-417 200,-360 135,-360"/>
<text text-anchor="middle" x="167.5" y="-405" font-family="Helvetica,sans-Serif" font-size="10.00">std::string</text>
<polyline fill="none" stroke="#bfbfbf" points="135,-398 200,-398 "/>
<text text-anchor="middle" x="167.5" y="-386" font-family="Helvetica,sans-Serif" font-size="10.00"> </text>
<polyline fill="none" stroke="#bfbfbf" points="135,-379 200,-379 "/>
<text text-anchor="middle" x="167.5" y="-367" font-family="Helvetica,sans-Serif" font-size="10.00"> </text>
</a>
</g>
</g>
<!-- Node4&#45;&gt;Node2 -->
<g id="edge3" class="edge">
<title>Node4&#45;&gt;Node2</title>
<path fill="none" stroke="#404040" d="M154.61,-359.98C144.91,-339.26 131.29,-310.18 119.36,-284.72"/>
<polygon fill="none" stroke="#404040" points="119.29,-284.57 113.12,-280.83 114.2,-273.7 120.37,-277.44 119.29,-284.57"/>
<text text-anchor="middle" x="155.5" y="-306" font-family="Helvetica,sans-Serif" font-size="10.00"> #m_ssid</text>
<text text-anchor="middle" x="155.5" y="-295" font-family="Helvetica,sans-Serif" font-size="10.00">#m_pwd</text>
</g>
<!-- Node5 -->
<g id="node5" class="node">
<title>Node5</title>
<g id="a_node5"><a xlink:title="STL class.">
<polygon fill="none" stroke="#bfbfbf" points="115.5,-482.5 115.5,-550.5 219.5,-550.5 219.5,-482.5 115.5,-482.5"/>
<text text-anchor="start" x="123.5" y="-538.5" font-family="Helvetica,sans-Serif" font-size="10.00">std::basic_string&lt;</text>
<text text-anchor="middle" x="167.5" y="-527.5" font-family="Helvetica,sans-Serif" font-size="10.00"> char &gt;</text>
<polyline fill="none" stroke="#bfbfbf" points="115.5,-520.5 219.5,-520.5 "/>
<text text-anchor="middle" x="167.5" y="-508.5" font-family="Helvetica,sans-Serif" font-size="10.00"> </text>
<polyline fill="none" stroke="#bfbfbf" points="115.5,-501.5 219.5,-501.5 "/>
<text text-anchor="middle" x="167.5" y="-489.5" font-family="Helvetica,sans-Serif" font-size="10.00"> </text>
</a>
</g>
</g>
<!-- Node5&#45;&gt;Node4 -->
<g id="edge4" class="edge">
<title>Node5&#45;&gt;Node4</title>
<path fill="none" stroke="midnightblue" d="M167.5,-472.29C167.5,-454.08 167.5,-433.4 167.5,-417.27"/>
<polygon fill="none" stroke="midnightblue" points="164,-472.39 167.5,-482.39 171,-472.4 164,-472.39"/>
</g>
</g>
</svg>
