<?xml version="1.0" encoding="UTF-8" standalone="no"?>
<!DOCTYPE svg PUBLIC "-//W3C//DTD SVG 1.1//EN"
 "http://www.w3.org/Graphics/SVG/1.1/DTD/svg11.dtd">
<!-- Generated by graphviz version 2.43.0 (0)
 -->
<!-- Title: WiFi_SAL_esp32 Pages: 1 -->
<!--zoomable 559 -->
<svg id="main" version="1.1" xmlns="http://www.w3.org/2000/svg" xmlns:xlink="http://www.w3.org/1999/xlink" xml:space="preserve" onload="init(evt)">
<style type="text/css"><![CDATA[
.edge:hover path { stroke: red; }
.edge:hover polygon { stroke: red; fill: red; }
]]></style>
<script type="text/javascript"><![CDATA[
var edges = document.getElementsByTagName('g');
if (edges && edges.length) {
  for (var i=0;i<edges.length;i++) {
    if (edges[i].id.substr(0,4)=='edge') {
      edges[i].setAttribute('class','edge');
    }
  }
}
]]></script>
        <defs>
                <circle id="rim" cx="0" cy="0" r="7"/>
                <circle id="rim2" cx="0" cy="0" r="3.5"/>
                <g id="zoomPlus">
                        <use xlink:href="#rim" fill="#404040">
                                <set attributeName="fill" to="#808080" begin="zoomplus.mouseover" end="zoomplus.mouseout"/>
                        </use>
                        <path d="M-4,0h8M0,-4v8" fill="none" stroke="white" stroke-width="1.5" pointer-events="none"/>
                </g>
                <g id="zoomMin">
                        <use xlink:href="#rim" fill="#404040">
                                <set attributeName="fill" to="#808080" begin="zoomminus.mouseover" end="zoomminus.mouseout"/>
                        </use>
                        <path d="M-4,0h8" fill="none" stroke="white" stroke-width="1.5" pointer-events="none"/>
                </g>
                <g id="dirArrow">
                        <path fill="none" stroke="white" stroke-width="1.5" d="M0,-3.0v7 M-2.5,-0.5L0,-3.0L2.5,-0.5"/>
                </g>
               <g id="resetDef">
                       <use xlink:href="#rim2" fill="#404040">
                               <set attributeName="fill" to="#808080" begin="reset.mouseover" end="reset.mouseout"/>
                       </use>
               </g>
        </defs>

<script type="text/javascript">
var viewWidth = 228;
var viewHeight = 559;
var sectionId = 'dynsection-1';
</script>
<script xlink:href="../../svgpan.js"/>
<svg id="graph" class="graph">
<g id="viewport">
<title>WiFi_SAL_esp32</title>
<!-- Node1 -->
<g id="node1" class="node">
<title>Node1</title>
<g id="a_node1"><a xlink:title=" ">
<polygon fill="#bfbfbf" stroke="black" points="32,-0.5 32,-145.5 155,-145.5 155,-0.5 32,-0.5"/>
<text text-anchor="middle" x="93.5" y="-133.5" font-family="Helvetica,sans-Serif" font-size="10.00">WiFi_SAL_esp32</text>
<polyline fill="none" stroke="black" points="32,-126.5 155,-126.5 "/>
<text text-anchor="start" x="40" y="-114.5" font-family="Helvetica,sans-Serif" font-size="10.00">&#45; instance_any_id</text>
<text text-anchor="start" x="40" y="-103.5" font-family="Helvetica,sans-Serif" font-size="10.00">&#45; instance_got_ip</text>
<text text-anchor="start" x="40" y="-92.5" font-family="Helvetica,sans-Serif" font-size="10.00">&#45; m_cfg</text>
<polyline fill="none" stroke="black" points="32,-85.5 155,-85.5 "/>
<text text-anchor="start" x="40" y="-73.5" font-family="Helvetica,sans-Serif" font-size="10.00">+ WiFi_SAL_esp32()</text>
<text text-anchor="start" x="40" y="-62.5" font-family="Helvetica,sans-Serif" font-size="10.00">+ ~WiFi_SAL_esp32()</text>
<text text-anchor="start" x="40" y="-51.5" font-family="Helvetica,sans-Serif" font-size="10.00">+ connect()</text>
<text text-anchor="start" x="40" y="-40.5" font-family="Helvetica,sans-Serif" font-size="10.00">+ disconnect()</text>
<text text-anchor="start" x="40" y="-29.5" font-family="Helvetica,sans-Serif" font-size="10.00">&#45; operator=()</text>
<text text-anchor="start" x="40" y="-18.5" font-family="Helvetica,sans-Serif" font-size="10.00">&#45; WiFi_SAL_esp32()</text>
<text text-anchor="start" x="40" y="-7.5" font-family="Helvetica,sans-Serif" font-size="10.00">&#45; event_handler()</text>
</a>
</g>
</g>
<!-- Node2 -->
<g id="node2" class="node">
<title>Node2</title>
<g id="a_node2"><a xlink:href="../../db/d7f/class_wi_fi_base.html" target="_top" xlink:title=" ">
<polygon fill="none" stroke="black" points="49,-183.5 49,-273.5 138,-273.5 138,-183.5 49,-183.5"/>
<text text-anchor="middle" x="93.5" y="-261.5" font-family="Helvetica,sans-Serif" font-size="10.00">WiFiBase</text>
<polyline fill="none" stroke="black" points="49,-254.5 138,-254.5 "/>
<text text-anchor="middle" x="93.5" y="-242.5" font-family="Helvetica,sans-Serif" font-size="10.00"> </text>
<polyline fill="none" stroke="black" points="49,-235.5 138,-235.5 "/>
<text text-anchor="start" x="57" y="-223.5" font-family="Helvetica,sans-Serif" font-size="10.00">+ WiFiBase()</text>
<text text-anchor="start" x="57" y="-212.5" font-family="Helvetica,sans-Serif" font-size="10.00">+ ~WiFiBase()</text>
<text text-anchor="start" x="57" y="-201.5" font-family="Helvetica,sans-Serif" font-size="10.00">&#45; WiFiBase()</text>
<text text-anchor="start" x="57" y="-190.5" font-family="Helvetica,sans-Serif" font-size="10.00">&#45; operator=()</text>
</a>
</g>
</g>
<!-- Node2&#45;&gt;Node1 -->
<g id="edge1" class="edge">
<title>Node2&#45;&gt;Node1</title>
<path fill="none" stroke="midnightblue" d="M93.5,-172.98C93.5,-164.16 93.5,-154.92 93.5,-145.77"/>
<polygon fill="none" stroke="midnightblue" points="90,-173.1 93.5,-183.1 97,-173.1 90,-173.1"/>
</g>
<!-- Node3 -->
<g id="node3" class="node">
<title>Node3</title>
<g id="a_node3"><a xlink:href="../../d0/d74/class_connector_base.html" target="_top" xlink:title=" ">
<polygon fill="none" stroke="black" points="0,-332.5 0,-444.5 117,-444.5 117,-332.5 0,-332.5"/>
<text text-anchor="middle" x="58.5" y="-432.5" font-family="Helvetica,sans-Serif" font-size="10.00">ConnectorBase</text>
<polyline fill="none" stroke="black" points="0,-425.5 117,-425.5 "/>
<text text-anchor="middle" x="58.5" y="-413.5" font-family="Helvetica,sans-Serif" font-size="10.00"> </text>
<polyline fill="none" stroke="black" points="0,-406.5 117,-406.5 "/>
<text text-anchor="start" x="8" y="-394.5" font-family="Helvetica,sans-Serif" font-size="10.00">+ ConnectorBase()</text>
<text text-anchor="start" x="8" y="-383.5" font-family="Helvetica,sans-Serif" font-size="10.00">+ ~ConnectorBase()</text>
<text text-anchor="start" x="8" y="-372.5" font-family="Helvetica,sans-Serif" font-size="10.00">+ connect()</text>
<text text-anchor="start" x="8" y="-361.5" font-family="Helvetica,sans-Serif" font-size="10.00">+ disconnect()</text>
<text text-anchor="start" x="8" y="-350.5" font-family="Helvetica,sans-Serif" font-size="10.00">&#45; ConnectorBase()</text>
<text text-anchor="start" x="8" y="-339.5" font-family="Helvetica,sans-Serif" font-size="10.00">&#45; operator=()</text>
</a>
</g>
</g>
<!-- Node3&#45;&gt;Node2 -->
<g id="edge2" class="edge">
<title>Node3&#45;&gt;Node2</title>
<path fill="none" stroke="midnightblue" d="M72.97,-322.17C76.6,-305.79 80.41,-288.6 83.74,-273.54"/>
<polygon fill="none" stroke="midnightblue" points="69.49,-321.72 70.74,-332.24 76.32,-323.23 69.49,-321.72"/>
</g>
<!-- Node4 -->
<g id="node4" class="node">
<title>Node4</title>
<g id="a_node4"><a xlink:title="STL class.">
<polygon fill="none" stroke="#bfbfbf" points="135,-360 135,-417 200,-417 200,-360 135,-360"/>
<text text-anchor="middle" x="167.5" y="-405" font-family="Helvetica,sans-Serif" font-size="10.00">std::string</text>
<polyline fill="none" stroke="#bfbfbf" points="135,-398 200,-398 "/>
<text text-anchor="middle" x="167.5" y="-386" font-family="Helvetica,sans-Serif" font-size="10.00"> </text>
<polyline fill="none" stroke="#bfbfbf" points="135,-379 200,-379 "/>
<text text-anchor="middle" x="167.5" y="-367" font-family="Helvetica,sans-Serif" font-size="10.00"> </text>
</a>
</g>
</g>
<!-- Node4&#45;&gt;Node2 -->
<g id="edge3" class="edge">
<title>Node4&#45;&gt;Node2</title>
<path fill="none" stroke="#404040" d="M154.61,-359.98C144.91,-339.26 131.29,-310.18 119.36,-284.72"/>
<polygon fill="none" stroke="#404040" points="119.29,-284.57 113.12,-280.83 114.2,-273.7 120.37,-277.44 119.29,-284.57"/>
<text text-anchor="middle" x="155.5" y="-306" font-family="Helvetica,sans-Serif" font-size="10.00"> #m_ssid</text>
<text text-anchor="middle" x="155.5" y="-295" font-family="Helvetica,sans-Serif" font-size="10.00">#m_pwd</text>
</g>
<!-- Node5 -->
<g id="node5" class="node">
<title>Node5</title>
<g id="a_node5"><a xlink:title="STL class.">
<polygon fill="none" stroke="#bfbfbf" points="115.5,-482.5 115.5,-550.5 219.5,-550.5 219.5,-482.5 115.5,-482.5"/>
<text text-anchor="start" x="123.5" y="-538.5" font-family="Helvetica,sans-Serif" font-size="10.00">std::basic_string&lt;</text>
<text text-anchor="middle" x="167.5" y="-527.5" font-family="Helvetica,sans-Serif" font-size="10.00"> char &gt;</text>
<polyline fill="none" stroke="#bfbfbf" points="115.5,-520.5 219.5,-520.5 "/>
<text text-anchor="middle" x="167.5" y="-508.5" font-family="Helvetica,sans-Serif" font-size="10.00"> </text>
<polyline fill="none" stroke="#bfbfbf" points="115.5,-501.5 219.5,-501.5 "/>
<text text-anchor="middle" x="167.5" y="-489.5" font-family="Helvetica,sans-Serif" font-size="10.00"> </text>
</a>
</g>
</g>
<!-- Node5&#45;&gt;Node4 -->
<g id="edge4" class="edge">
<title>Node5&#45;&gt;Node4</title>
<path fill="none" stroke="midnightblue" d="M167.5,-472.29C167.5,-454.08 167.5,-433.4 167.5,-417.27"/>
<polygon fill="none" stroke="midnightblue" points="164,-472.39 167.5,-482.39 171,-472.4 164,-472.39"/>
</g>
</g>
</svg>
        <g id="navigator" transform="translate(0 0)" fill="#404254">
                <rect fill="#f2f5e9" fill-opacity="0.5" stroke="#606060" stroke-width=".5" x="0" y="0" width="60" height="60"/>
                <use id="zoomplus" xlink:href="#zoomPlus" x="17" y="9" onmousedown="handleZoom(evt,'in')"/>
                <use id="zoomminus" xlink:href="#zoomMin" x="42" y="9" onmousedown="handleZoom(evt,'out')"/>
                <use id="reset" xlink:href="#resetDef" x="30" y="36" onmousedown="handleReset()"/>
                <g id="arrowUp" xlink:href="#dirArrow" transform="translate(30 24)" onmousedown="handlePan(0,-1)">
                  <use xlink:href="#rim" fill="#404040">
                        <set attributeName="fill" to="#808080" begin="arrowUp.mouseover" end="arrowUp.mouseout"/>
                  </use>
                  <path fill="none" stroke="white" stroke-width="1.5" d="M0,-3.0v7 M-2.5,-0.5L0,-3.0L2.5,-0.5"/>
                </g>
                <g id="arrowRight" xlink:href="#dirArrow" transform="rotate(90) translate(36 -43)" onmousedown="handlePan(1,0)">
                  <use xlink:href="#rim" fill="#404040">
                        <set attributeName="fill" to="#808080" begin="arrowRight.mouseover" end="arrowRight.mouseout"/>
                  </use>
                  <path fill="none" stroke="white" stroke-width="1.5" d="M0,-3.0v7 M-2.5,-0.5L0,-3.0L2.5,-0.5"/>
                </g>
                <g id="arrowDown" xlink:href="#dirArrow" transform="rotate(180) translate(-30 -48)" onmousedown="handlePan(0,1)">
                  <use xlink:href="#rim" fill="#404040">
                        <set attributeName="fill" to="#808080" begin="arrowDown.mouseover" end="arrowDown.mouseout"/>
                  </use>
                  <path fill="none" stroke="white" stroke-width="1.5" d="M0,-3.0v7 M-2.5,-0.5L0,-3.0L2.5,-0.5"/>
                </g>
                <g id="arrowLeft" xlink:href="#dirArrow" transform="rotate(270) translate(-36 17)" onmousedown="handlePan(-1,0)">
                  <use xlink:href="#rim" fill="#404040">
                        <set attributeName="fill" to="#808080" begin="arrowLeft.mouseover" end="arrowLeft.mouseout"/>
                  </use>
                  <path fill="none" stroke="white" stroke-width="1.5" d="M0,-3.0v7 M-2.5,-0.5L0,-3.0L2.5,-0.5"/>
                </g>
        </g>
        <svg viewBox="0 0 15 15" width="100%" height="30px" preserveAspectRatio="xMaxYMin meet">
         <g id="arrow_out" transform="scale(0.3 0.3)">
          <a xlink:href="class_wi_fi___s_a_l__esp32__coll__graph_org.svg" target="_base">
           <rect id="button" ry="5" rx="5" y="6" x="6" height="38" width="38"
                fill="#f2f5e9" fill-opacity="0.5" stroke="#606060" stroke-width="1.0"/>
           <path id="arrow"
             d="M 11.500037,31.436501 C 11.940474,20.09759 22.043105,11.32322 32.158766,21.979434 L 37.068811,17.246167 C 37.068811,17.246167 37.088388,32 37.088388,32 L 22.160133,31.978069 C 22.160133,31.978069 26.997745,27.140456 26.997745,27.140456 C 18.528582,18.264221 13.291696,25.230495 11.500037,31.436501 z"
             style="fill:#404040;"/>
          </a>
         </g>
        </svg>
</svg>
