<?xml version="1.0" encoding="UTF-8" standalone="no"?>
<!DOCTYPE svg PUBLIC "-//W3C//DTD SVG 1.1//EN"
 "http://www.w3.org/Graphics/SVG/1.1/DTD/svg11.dtd">
<!-- Generated by graphviz version 2.43.0 (0)
 -->
<!-- Title: Components/Protocols/I2C/src/i2c.cpp Pages: 1 -->
<svg width="386pt" height="218pt"
 viewBox="0.00 0.00 386.00 218.00" xmlns="http://www.w3.org/2000/svg" xmlns:xlink="http://www.w3.org/1999/xlink">
<g id="graph0" class="graph" transform="scale(1 1) rotate(0) translate(4 214)">
<title>Components/Protocols/I2C/src/i2c.cpp</title>
<!-- Node1 -->
<g id="node1" class="node">
<title>Node1</title>
<g id="a_node1"><a xlink:title=" ">
<polygon fill="#bfbfbf" stroke="black" points="194,-179.5 194,-209.5 320,-209.5 320,-179.5 194,-179.5"/>
<text text-anchor="start" x="202" y="-197.5" font-family="Helvetica,sans-Serif" font-size="10.00">Components/Protocols</text>
<text text-anchor="middle" x="257" y="-186.5" font-family="Helvetica,sans-Serif" font-size="10.00">/I2C/src/i2c.cpp</text>
</a>
</g>
</g>
<!-- Node2 -->
<g id="node2" class="node">
<title>Node2</title>
<g id="a_node2"><a xlink:href="../../db/d1c/i2c_8hpp.html" target="_top" xlink:title=" ">
<polygon fill="none" stroke="black" points="207.5,-123.5 207.5,-142.5 306.5,-142.5 306.5,-123.5 207.5,-123.5"/>
<text text-anchor="middle" x="257" y="-130.5" font-family="Helvetica,sans-Serif" font-size="10.00">../include/i2c.hpp</text>
</a>
</g>
</g>
<!-- Node1&#45;&gt;Node2 -->
<g id="edge1" class="edge">
<title>Node1&#45;&gt;Node2</title>
<path fill="none" stroke="midnightblue" d="M257,-179.4C257,-171.47 257,-161.46 257,-152.86"/>
<polygon fill="midnightblue" stroke="midnightblue" points="260.5,-152.66 257,-142.66 253.5,-152.66 260.5,-152.66"/>
</g>
<!-- Node3 -->
<g id="node3" class="node">
<title>Node3</title>
<g id="a_node3"><a xlink:href="../../da/d5f/_b_a_s_i_c_8hpp.html" target="_top" xlink:title=" ">
<polygon fill="none" stroke="black" points="0,-56.5 0,-86.5 116,-86.5 116,-56.5 0,-56.5"/>
<text text-anchor="start" x="8" y="-74.5" font-family="Helvetica,sans-Serif" font-size="10.00">../../../Global_Include</text>
<text text-anchor="middle" x="58" y="-63.5" font-family="Helvetica,sans-Serif" font-size="10.00">/BASIC.hpp</text>
</a>
</g>
</g>
<!-- Node2&#45;&gt;Node3 -->
<g id="edge2" class="edge">
<title>Node2&#45;&gt;Node3</title>
<path fill="none" stroke="midnightblue" d="M228.49,-123.48C198.89,-114.63 151.81,-100.55 114.62,-89.43"/>
<polygon fill="midnightblue" stroke="midnightblue" points="115.48,-86.03 104.9,-86.52 113.48,-92.74 115.48,-86.03"/>
</g>
<!-- Node4 -->
<g id="node4" class="node">
<title>Node4</title>
<g id="a_node4"><a xlink:href="../../d3/deb/_general___error_8hpp.html" target="_top" xlink:title=" ">
<polygon fill="none" stroke="black" points="134,-56.5 134,-86.5 280,-86.5 280,-56.5 134,-56.5"/>
<text text-anchor="start" x="142" y="-74.5" font-family="Helvetica,sans-Serif" font-size="10.00">../../../Objects/ErrorHandler</text>
<text text-anchor="middle" x="207" y="-63.5" font-family="Helvetica,sans-Serif" font-size="10.00">/include/General_Error.hpp</text>
</a>
</g>
</g>
<!-- Node2&#45;&gt;Node4 -->
<g id="edge3" class="edge">
<title>Node2&#45;&gt;Node4</title>
<path fill="none" stroke="midnightblue" d="M249.84,-123.48C243.44,-115.87 233.81,-104.4 225.29,-94.26"/>
<polygon fill="midnightblue" stroke="midnightblue" points="227.9,-91.93 218.78,-86.52 222.54,-96.43 227.9,-91.93"/>
</g>
<!-- Node6 -->
<g id="node6" class="node">
<title>Node6</title>
<g id="a_node6"><a xlink:title=" ">
<polygon fill="none" stroke="#bfbfbf" points="262,-0.5 262,-19.5 322,-19.5 322,-0.5 262,-0.5"/>
<text text-anchor="middle" x="292" y="-7.5" font-family="Helvetica,sans-Serif" font-size="10.00">iostream</text>
</a>
</g>
</g>
<!-- Node2&#45;&gt;Node6 -->
<g id="edge7" class="edge">
<title>Node2&#45;&gt;Node6</title>
<path fill="none" stroke="midnightblue" d="M265.62,-123.24C273.34,-114.77 284.17,-101.15 289,-87 295.38,-68.29 295.33,-45.48 294.18,-29.76"/>
<polygon fill="midnightblue" stroke="midnightblue" points="297.66,-29.35 293.23,-19.73 290.69,-30.01 297.66,-29.35"/>
</g>
<!-- Node7 -->
<g id="node7" class="node">
<title>Node7</title>
<g id="a_node7"><a xlink:title=" ">
<polygon fill="none" stroke="#bfbfbf" points="336,-62 336,-81 378,-81 378,-62 336,-62"/>
<text text-anchor="middle" x="357" y="-69" font-family="Helvetica,sans-Serif" font-size="10.00">array</text>
</a>
</g>
</g>
<!-- Node2&#45;&gt;Node7 -->
<g id="edge6" class="edge">
<title>Node2&#45;&gt;Node7</title>
<path fill="none" stroke="midnightblue" d="M271.33,-123.48C287.66,-113.75 314.6,-97.73 333.91,-86.24"/>
<polygon fill="midnightblue" stroke="midnightblue" points="335.89,-89.13 342.7,-81.01 332.32,-83.11 335.89,-89.13"/>
</g>
<!-- Node5 -->
<g id="node5" class="node">
<title>Node5</title>
<g id="a_node5"><a xlink:title=" ">
<polygon fill="none" stroke="#bfbfbf" points="185,-0.5 185,-19.5 229,-19.5 229,-0.5 185,-0.5"/>
<text text-anchor="middle" x="207" y="-7.5" font-family="Helvetica,sans-Serif" font-size="10.00">string</text>
</a>
</g>
</g>
<!-- Node4&#45;&gt;Node5 -->
<g id="edge4" class="edge">
<title>Node4&#45;&gt;Node5</title>
<path fill="none" stroke="midnightblue" d="M207,-56.4C207,-48.47 207,-38.46 207,-29.86"/>
<polygon fill="midnightblue" stroke="midnightblue" points="210.5,-29.66 207,-19.66 203.5,-29.66 210.5,-29.66"/>
</g>
<!-- Node4&#45;&gt;Node6 -->
<g id="edge5" class="edge">
<title>Node4&#45;&gt;Node6</title>
<path fill="none" stroke="midnightblue" d="M227.14,-56.4C240.39,-47.13 257.68,-35.03 271.08,-25.65"/>
<polygon fill="midnightblue" stroke="midnightblue" points="273.45,-28.26 279.63,-19.66 269.43,-22.53 273.45,-28.26"/>
</g>
</g>
</svg>
