<?xml version="1.0" encoding="UTF-8" standalone="no"?>
<!DOCTYPE svg PUBLIC "-//W3C//DTD SVG 1.1//EN"
 "http://www.w3.org/Graphics/SVG/1.1/DTD/svg11.dtd">
<!-- Generated by graphviz version 2.43.0 (0)
 -->
<!-- Title: Message_Protocol Pages: 1 -->
<svg width="269pt" height="546pt"
 viewBox="0.00 0.00 269.00 546.00" xmlns="http://www.w3.org/2000/svg" xmlns:xlink="http://www.w3.org/1999/xlink">
<g id="graph0" class="graph" transform="scale(1 1) rotate(0) translate(4 542)">
<title>Message_Protocol</title>
<!-- Node1 -->
<g id="node1" class="node">
<title>Node1</title>
<g id="a_node1"><a xlink:title=" ">
<polygon fill="#bfbfbf" stroke="black" points="75.5,-0.5 75.5,-200.5 224.5,-200.5 224.5,-0.5 75.5,-0.5"/>
<text text-anchor="middle" x="150" y="-188.5" font-family="Helvetica,sans-Serif" font-size="10.00">Message_Protocol</text>
<polyline fill="none" stroke="black" points="75.5,-181.5 224.5,-181.5 "/>
<text text-anchor="start" x="83.5" y="-169.5" font-family="Helvetica,sans-Serif" font-size="10.00">&#45; m_initialized</text>
<text text-anchor="start" x="83.5" y="-158.5" font-family="Helvetica,sans-Serif" font-size="10.00">&#45; m_valid</text>
<polyline fill="none" stroke="black" points="75.5,-151.5 224.5,-151.5 "/>
<text text-anchor="start" x="83.5" y="-139.5" font-family="Helvetica,sans-Serif" font-size="10.00">+ Message_Protocol()</text>
<text text-anchor="start" x="83.5" y="-128.5" font-family="Helvetica,sans-Serif" font-size="10.00">+ Message_Protocol()</text>
<text text-anchor="start" x="83.5" y="-117.5" font-family="Helvetica,sans-Serif" font-size="10.00">+ ~Message_Protocol()</text>
<text text-anchor="start" x="83.5" y="-106.5" font-family="Helvetica,sans-Serif" font-size="10.00">+ setControl()</text>
<text text-anchor="start" x="83.5" y="-95.5" font-family="Helvetica,sans-Serif" font-size="10.00">+ getControl()</text>
<text text-anchor="start" x="83.5" y="-84.5" font-family="Helvetica,sans-Serif" font-size="10.00">+ addData()</text>
<text text-anchor="start" x="83.5" y="-73.5" font-family="Helvetica,sans-Serif" font-size="10.00">+ getBuffer()</text>
<text text-anchor="start" x="83.5" y="-62.5" font-family="Helvetica,sans-Serif" font-size="10.00">+ clear()</text>
<text text-anchor="start" x="83.5" y="-51.5" font-family="Helvetica,sans-Serif" font-size="10.00">+ toString()</text>
<text text-anchor="start" x="83.5" y="-40.5" font-family="Helvetica,sans-Serif" font-size="10.00">+ isValid()</text>
<text text-anchor="start" x="83.5" y="-29.5" font-family="Helvetica,sans-Serif" font-size="10.00">+ parameterCount()</text>
<text text-anchor="start" x="83.5" y="-18.5" font-family="Helvetica,sans-Serif" font-size="10.00">+ controlParameterCount()</text>
<text text-anchor="start" x="83.5" y="-7.5" font-family="Helvetica,sans-Serif" font-size="10.00">+ dataParameterCount()</text>
</a>
</g>
</g>
<!-- Node2 -->
<g id="node2" class="node">
<title>Node2</title>
<g id="a_node2"><a xlink:title=" ">
<polygon fill="none" stroke="#bfbfbf" points="9,-254 9,-311 157,-311 157,-254 9,-254"/>
<text text-anchor="middle" x="83" y="-299" font-family="Helvetica,sans-Serif" font-size="10.00">std::vector&lt; msg_data_t &gt;</text>
<polyline fill="none" stroke="#bfbfbf" points="9,-292 157,-292 "/>
<text text-anchor="middle" x="83" y="-280" font-family="Helvetica,sans-Serif" font-size="10.00"> </text>
<polyline fill="none" stroke="#bfbfbf" points="9,-273 157,-273 "/>
<text text-anchor="middle" x="83" y="-261" font-family="Helvetica,sans-Serif" font-size="10.00"> </text>
</a>
</g>
</g>
<!-- Node2&#45;&gt;Node1 -->
<g id="edge1" class="edge">
<title>Node2&#45;&gt;Node1</title>
<path fill="none" stroke="#404040" d="M93.32,-253.77C97.69,-242.02 103.1,-227.51 108.82,-212.14"/>
<polygon fill="none" stroke="#404040" points="108.84,-212.07 107.19,-205.05 113.03,-200.82 114.68,-207.84 108.84,-212.07"/>
<text text-anchor="middle" x="131" y="-222" font-family="Helvetica,sans-Serif" font-size="10.00"> &#45;m_buffer</text>
</g>
<!-- Node3 -->
<g id="node3" class="node">
<title>Node3</title>
<g id="a_node3"><a xlink:href="../../db/d90/_message___protocol_8hpp.html#d2/d7f/structmsg__data__t" target="_top" xlink:title=" ">
<polygon fill="none" stroke="black" points="0,-364.5 0,-432.5 86,-432.5 86,-364.5 0,-364.5"/>
<text text-anchor="middle" x="43" y="-420.5" font-family="Helvetica,sans-Serif" font-size="10.00">msg_data_t</text>
<polyline fill="none" stroke="black" points="0,-413.5 86,-413.5 "/>
<text text-anchor="start" x="8" y="-401.5" font-family="Helvetica,sans-Serif" font-size="10.00">+ data</text>
<text text-anchor="start" x="8" y="-390.5" font-family="Helvetica,sans-Serif" font-size="10.00">+ time_stamp</text>
<polyline fill="none" stroke="black" points="0,-383.5 86,-383.5 "/>
<text text-anchor="middle" x="43" y="-371.5" font-family="Helvetica,sans-Serif" font-size="10.00"> </text>
</a>
</g>
</g>
<!-- Node3&#45;&gt;Node2 -->
<g id="edge2" class="edge">
<title>Node3&#45;&gt;Node2</title>
<path fill="none" stroke="#404040" d="M49.55,-364.35C51.82,-354.75 54.65,-344.35 58,-335 59.51,-330.77 61.27,-326.44 63.14,-322.16"/>
<polygon fill="none" stroke="#404040" points="63.22,-321.99 62.1,-314.86 68.25,-311.09 69.36,-318.22 63.22,-321.99"/>
<text text-anchor="middle" x="87" y="-338" font-family="Helvetica,sans-Serif" font-size="10.00"> +elements</text>
</g>
<!-- Node4 -->
<g id="node4" class="node">
<title>Node4</title>
<g id="a_node4"><a xlink:title="STL class.">
<polygon fill="none" stroke="#bfbfbf" points="104.5,-370 104.5,-427 201.5,-427 201.5,-370 104.5,-370"/>
<text text-anchor="middle" x="153" y="-415" font-family="Helvetica,sans-Serif" font-size="10.00">std::vector&lt; T &gt;</text>
<polyline fill="none" stroke="#bfbfbf" points="104.5,-408 201.5,-408 "/>
<text text-anchor="middle" x="153" y="-396" font-family="Helvetica,sans-Serif" font-size="10.00"> </text>
<polyline fill="none" stroke="#bfbfbf" points="104.5,-389 201.5,-389 "/>
<text text-anchor="middle" x="153" y="-377" font-family="Helvetica,sans-Serif" font-size="10.00"> </text>
</a>
</g>
</g>
<!-- Node4&#45;&gt;Node2 -->
<g id="edge3" class="edge">
<title>Node4&#45;&gt;Node2</title>
<path fill="none" stroke="orange" d="M131.83,-361.24C126.7,-352.6 121.2,-343.45 116,-335 111.21,-327.22 105.91,-318.86 100.99,-311.18"/>
<polygon fill="orange" stroke="orange" points="128.9,-363.16 137,-369.99 134.93,-359.6 128.9,-363.16"/>
<text text-anchor="middle" x="164.5" y="-338" font-family="Helvetica,sans-Serif" font-size="10.00"> &lt; msg_data_t &gt;</text>
</g>
<!-- Node5 -->
<g id="node5" class="node">
<title>Node5</title>
<g id="a_node5"><a xlink:title=" ">
<polygon fill="none" stroke="#bfbfbf" points="138.5,-480.5 138.5,-537.5 167.5,-537.5 167.5,-480.5 138.5,-480.5"/>
<text text-anchor="middle" x="153" y="-525.5" font-family="Helvetica,sans-Serif" font-size="10.00">T</text>
<polyline fill="none" stroke="#bfbfbf" points="138.5,-518.5 167.5,-518.5 "/>
<text text-anchor="middle" x="153" y="-506.5" font-family="Helvetica,sans-Serif" font-size="10.00"> </text>
<polyline fill="none" stroke="#bfbfbf" points="138.5,-499.5 167.5,-499.5 "/>
<text text-anchor="middle" x="153" y="-487.5" font-family="Helvetica,sans-Serif" font-size="10.00"> </text>
</a>
</g>
</g>
<!-- Node5&#45;&gt;Node4 -->
<g id="edge4" class="edge">
<title>Node5&#45;&gt;Node4</title>
<path fill="none" stroke="#404040" d="M153,-480.34C153,-467.84 153,-452.84 153,-439.18"/>
<polygon fill="none" stroke="#404040" points="153,-439.11 149,-433.11 153,-427.11 157,-433.11 153,-439.11"/>
<text text-anchor="middle" x="182" y="-454" font-family="Helvetica,sans-Serif" font-size="10.00"> +elements</text>
</g>
<!-- Node6 -->
<g id="node6" class="node">
<title>Node6</title>
<g id="a_node6"><a xlink:href="../../db/d90/_message___protocol_8hpp.html#d6/d3f/structmsg__control__t" target="_top" xlink:title=" ">
<polygon fill="none" stroke="black" points="175,-248.5 175,-316.5 261,-316.5 261,-248.5 175,-248.5"/>
<text text-anchor="middle" x="218" y="-304.5" font-family="Helvetica,sans-Serif" font-size="10.00">msg_control_t</text>
<polyline fill="none" stroke="black" points="175,-297.5 261,-297.5 "/>
<text text-anchor="start" x="183" y="-285.5" font-family="Helvetica,sans-Serif" font-size="10.00">+ id</text>
<text text-anchor="start" x="183" y="-274.5" font-family="Helvetica,sans-Serif" font-size="10.00">+ flag</text>
<polyline fill="none" stroke="black" points="175,-267.5 261,-267.5 "/>
<text text-anchor="middle" x="218" y="-255.5" font-family="Helvetica,sans-Serif" font-size="10.00"> </text>
</a>
</g>
</g>
<!-- Node6&#45;&gt;Node1 -->
<g id="edge5" class="edge">
<title>Node6&#45;&gt;Node1</title>
<path fill="none" stroke="#404040" d="M205.53,-248.49C201.45,-237.7 196.68,-225.06 191.67,-211.81"/>
<polygon fill="none" stroke="#404040" points="191.66,-211.78 185.8,-207.58 187.42,-200.55 193.28,-204.75 191.66,-211.78"/>
<text text-anchor="middle" x="225" y="-222" font-family="Helvetica,sans-Serif" font-size="10.00"> &#45;m_control</text>
</g>
</g>
</svg>
