<?xml version="1.0" encoding="UTF-8" standalone="no"?>
<!DOCTYPE svg PUBLIC "-//W3C//DTD SVG 1.1//EN"
 "http://www.w3.org/Graphics/SVG/1.1/DTD/svg11.dtd">
<!-- Generated by graphviz version 2.43.0 (0)
 -->
<!-- Title: Components/Utility/utils/include/utils.h Pages: 1 -->
<svg width="695pt" height="162pt"
 viewBox="0.00 0.00 695.20 162.00" xmlns="http://www.w3.org/2000/svg" xmlns:xlink="http://www.w3.org/1999/xlink">
<g id="graph0" class="graph" transform="scale(1 1) rotate(0) translate(4 158)">
<title>Components/Utility/utils/include/utils.h</title>
<!-- Node1 -->
<g id="node1" class="node">
<title>Node1</title>
<g id="a_node1"><a xlink:title=" ">
<polygon fill="#bfbfbf" stroke="black" points="335.2,-123.5 335.2,-153.5 447.2,-153.5 447.2,-123.5 335.2,-123.5"/>
<text text-anchor="start" x="343.2" y="-141.5" font-family="Helvetica,sans-Serif" font-size="10.00">Components/Utility</text>
<text text-anchor="middle" x="391.2" y="-130.5" font-family="Helvetica,sans-Serif" font-size="10.00">/utils/include/utils.h</text>
</a>
</g>
</g>
<!-- Node2 -->
<g id="node2" class="node">
<title>Node2</title>
<g id="a_node2"><a xlink:title=" ">
<polygon fill="none" stroke="#bfbfbf" points="133.2,-0.5 133.2,-19.5 177.2,-19.5 177.2,-0.5 133.2,-0.5"/>
<text text-anchor="middle" x="155.2" y="-7.5" font-family="Helvetica,sans-Serif" font-size="10.00">string</text>
</a>
</g>
</g>
<!-- Node1&#45;&gt;Node2 -->
<g id="edge1" class="edge">
<title>Node1&#45;&gt;Node2</title>
<path fill="none" stroke="midnightblue" d="M334.94,-134.12C233.72,-127.47 29.4,-111.17 8.2,-87 -27.58,-46.19 69.49,-24.23 122.83,-15.52"/>
<polygon fill="midnightblue" stroke="midnightblue" points="123.52,-18.95 132.86,-13.95 122.44,-12.03 123.52,-18.95"/>
</g>
<!-- Node3 -->
<g id="node3" class="node">
<title>Node3</title>
<g id="a_node3"><a xlink:title=" ">
<polygon fill="none" stroke="#bfbfbf" points="17.7,-62 17.7,-81 64.7,-81 64.7,-62 17.7,-62"/>
<text text-anchor="middle" x="41.2" y="-69" font-family="Helvetica,sans-Serif" font-size="10.00">vector</text>
</a>
</g>
</g>
<!-- Node1&#45;&gt;Node3 -->
<g id="edge2" class="edge">
<title>Node1&#45;&gt;Node3</title>
<path fill="none" stroke="midnightblue" d="M334.99,-132.92C270.86,-126.71 163.35,-113.22 74.2,-87 72.05,-86.37 69.86,-85.63 67.68,-84.83"/>
<polygon fill="midnightblue" stroke="midnightblue" points="68.94,-81.56 58.36,-81.03 66.3,-88.04 68.94,-81.56"/>
</g>
<!-- Node4 -->
<g id="node4" class="node">
<title>Node4</title>
<g id="a_node4"><a xlink:href="../../da/d5f/_b_a_s_i_c_8hpp.html" target="_top" xlink:title=" ">
<polygon fill="none" stroke="black" points="83.2,-56.5 83.2,-86.5 199.2,-86.5 199.2,-56.5 83.2,-56.5"/>
<text text-anchor="start" x="91.2" y="-74.5" font-family="Helvetica,sans-Serif" font-size="10.00">../../../Global_Include</text>
<text text-anchor="middle" x="141.2" y="-63.5" font-family="Helvetica,sans-Serif" font-size="10.00">/BASIC.hpp</text>
</a>
</g>
</g>
<!-- Node1&#45;&gt;Node4 -->
<g id="edge3" class="edge">
<title>Node1&#45;&gt;Node4</title>
<path fill="none" stroke="midnightblue" d="M337.26,-123.48C298.54,-113.41 246.2,-99.8 205.33,-89.17"/>
<polygon fill="midnightblue" stroke="midnightblue" points="206.03,-85.74 195.47,-86.61 204.27,-92.51 206.03,-85.74"/>
</g>
<!-- Node5 -->
<g id="node5" class="node">
<title>Node5</title>
<g id="a_node5"><a xlink:href="../../d3/deb/_general___error_8hpp.html" target="_top" xlink:title=" ">
<polygon fill="none" stroke="black" points="217.2,-56.5 217.2,-86.5 363.2,-86.5 363.2,-56.5 217.2,-56.5"/>
<text text-anchor="start" x="225.2" y="-74.5" font-family="Helvetica,sans-Serif" font-size="10.00">../../../Objects/ErrorHandler</text>
<text text-anchor="middle" x="290.2" y="-63.5" font-family="Helvetica,sans-Serif" font-size="10.00">/include/General_Error.hpp</text>
</a>
</g>
</g>
<!-- Node1&#45;&gt;Node5 -->
<g id="edge4" class="edge">
<title>Node1&#45;&gt;Node5</title>
<path fill="none" stroke="midnightblue" d="M369.29,-123.4C355.12,-114.28 336.49,-102.29 320.87,-92.24"/>
<polygon fill="midnightblue" stroke="midnightblue" points="322.38,-89.05 312.07,-86.58 318.59,-94.93 322.38,-89.05"/>
</g>
<!-- Node6 -->
<g id="node6" class="node">
<title>Node6</title>
<g id="a_node6"><a xlink:title=" ">
<polygon fill="none" stroke="#bfbfbf" points="310.2,-0.5 310.2,-19.5 370.2,-19.5 370.2,-0.5 310.2,-0.5"/>
<text text-anchor="middle" x="340.2" y="-7.5" font-family="Helvetica,sans-Serif" font-size="10.00">iostream</text>
</a>
</g>
</g>
<!-- Node1&#45;&gt;Node6 -->
<g id="edge10" class="edge">
<title>Node1&#45;&gt;Node6</title>
<path fill="none" stroke="midnightblue" d="M389.61,-123.41C387.34,-106.73 382.29,-78.38 372.2,-56 367.63,-45.86 360.63,-35.67 354.34,-27.55"/>
<polygon fill="midnightblue" stroke="midnightblue" points="356.96,-25.23 347.94,-19.66 351.52,-29.64 356.96,-25.23"/>
</g>
<!-- Node7 -->
<g id="node7" class="node">
<title>Node7</title>
<g id="a_node7"><a xlink:title=" ">
<polygon fill="none" stroke="#bfbfbf" points="419.7,-62 419.7,-81 472.7,-81 472.7,-62 419.7,-62"/>
<text text-anchor="middle" x="446.2" y="-69" font-family="Helvetica,sans-Serif" font-size="10.00">stdint.h</text>
</a>
</g>
</g>
<!-- Node1&#45;&gt;Node7 -->
<g id="edge7" class="edge">
<title>Node1&#45;&gt;Node7</title>
<path fill="none" stroke="midnightblue" d="M403.14,-123.4C411.71,-113.26 423.3,-99.57 432.29,-88.94"/>
<polygon fill="midnightblue" stroke="midnightblue" points="435.06,-91.09 438.84,-81.19 429.71,-86.57 435.06,-91.09"/>
</g>
<!-- Node8 -->
<g id="node8" class="node">
<title>Node8</title>
<g id="a_node8"><a xlink:title=" ">
<polygon fill="none" stroke="#bfbfbf" points="491.2,-62 491.2,-81 541.2,-81 541.2,-62 491.2,-62"/>
<text text-anchor="middle" x="516.2" y="-69" font-family="Helvetica,sans-Serif" font-size="10.00">stdio.h</text>
</a>
</g>
</g>
<!-- Node1&#45;&gt;Node8 -->
<g id="edge8" class="edge">
<title>Node1&#45;&gt;Node8</title>
<path fill="none" stroke="midnightblue" d="M418.32,-123.4C439.87,-112.19 469.78,-96.64 490.84,-85.69"/>
<polygon fill="midnightblue" stroke="midnightblue" points="492.58,-88.73 499.84,-81.01 489.35,-82.52 492.58,-88.73"/>
</g>
<!-- Node9 -->
<g id="node9" class="node">
<title>Node9</title>
<g id="a_node9"><a xlink:title=" ">
<polygon fill="none" stroke="#bfbfbf" points="559.7,-62 559.7,-81 612.7,-81 612.7,-62 559.7,-62"/>
<text text-anchor="middle" x="586.2" y="-69" font-family="Helvetica,sans-Serif" font-size="10.00">stdlib.h</text>
</a>
</g>
</g>
<!-- Node1&#45;&gt;Node9 -->
<g id="edge9" class="edge">
<title>Node1&#45;&gt;Node9</title>
<path fill="none" stroke="midnightblue" d="M438.82,-123.4C470.58,-113.75 513.14,-100.33 550.2,-87 552.1,-86.32 554.05,-85.59 556.02,-84.85"/>
<polygon fill="midnightblue" stroke="midnightblue" points="557.7,-87.95 565.74,-81.05 555.15,-81.43 557.7,-87.95"/>
</g>
<!-- Node10 -->
<g id="node10" class="node">
<title>Node10</title>
<g id="a_node10"><a xlink:title=" ">
<polygon fill="none" stroke="#bfbfbf" points="631.2,-62 631.2,-81 687.2,-81 687.2,-62 631.2,-62"/>
<text text-anchor="middle" x="659.2" y="-69" font-family="Helvetica,sans-Serif" font-size="10.00">sstream</text>
</a>
</g>
</g>
<!-- Node1&#45;&gt;Node10 -->
<g id="edge11" class="edge">
<title>Node1&#45;&gt;Node10</title>
<path fill="none" stroke="midnightblue" d="M447.38,-127.8C494.55,-119.04 563.47,-104.81 622.2,-87 624.63,-86.26 627.12,-85.44 629.61,-84.57"/>
<polygon fill="midnightblue" stroke="midnightblue" points="630.89,-87.83 639.05,-81.06 628.46,-81.27 630.89,-87.83"/>
</g>
<!-- Node5&#45;&gt;Node2 -->
<g id="edge5" class="edge">
<title>Node5&#45;&gt;Node2</title>
<path fill="none" stroke="midnightblue" d="M258.21,-56.4C235.76,-46.51 205.99,-33.38 184.22,-23.79"/>
<polygon fill="midnightblue" stroke="midnightblue" points="185.41,-20.49 174.84,-19.66 182.58,-26.89 185.41,-20.49"/>
</g>
<!-- Node5&#45;&gt;Node6 -->
<g id="edge6" class="edge">
<title>Node5&#45;&gt;Node6</title>
<path fill="none" stroke="midnightblue" d="M302.05,-56.4C309.32,-47.75 318.65,-36.64 326.27,-27.58"/>
<polygon fill="midnightblue" stroke="midnightblue" points="329.17,-29.57 332.93,-19.66 323.81,-25.06 329.17,-29.57"/>
</g>
</g>
</svg>
