<?xml version="1.0" encoding="UTF-8" standalone="no"?>
<!DOCTYPE svg PUBLIC "-//W3C//DTD SVG 1.1//EN"
 "http://www.w3.org/Graphics/SVG/1.1/DTD/svg11.dtd">
<!-- Generated by graphviz version 2.43.0 (0)
 -->
<!-- Title: Components/Objects/Logger/src/Logger.cpp Pages: 1 -->
<svg width="500pt" height="341pt"
 viewBox="0.00 0.00 500.00 341.00" xmlns="http://www.w3.org/2000/svg" xmlns:xlink="http://www.w3.org/1999/xlink">
<g id="graph0" class="graph" transform="scale(1 1) rotate(0) translate(4 337)">
<title>Components/Objects/Logger/src/Logger.cpp</title>
<!-- Node1 -->
<g id="node1" class="node">
<title>Node1</title>
<g id="a_node1"><a xlink:title=" ">
<polygon fill="#bfbfbf" stroke="black" points="198,-302.5 198,-332.5 324,-332.5 324,-302.5 198,-302.5"/>
<text text-anchor="start" x="206" y="-320.5" font-family="Helvetica,sans-Serif" font-size="10.00">Components/Objects</text>
<text text-anchor="middle" x="261" y="-309.5" font-family="Helvetica,sans-Serif" font-size="10.00">/Logger/src/Logger.cpp</text>
</a>
</g>
</g>
<!-- Node2 -->
<g id="node2" class="node">
<title>Node2</title>
<g id="a_node2"><a xlink:href="../../d3/de3/_logger_8hpp.html" target="_top" xlink:title=" ">
<polygon fill="none" stroke="black" points="202,-246.5 202,-265.5 320,-265.5 320,-246.5 202,-246.5"/>
<text text-anchor="middle" x="261" y="-253.5" font-family="Helvetica,sans-Serif" font-size="10.00">../include/Logger.hpp</text>
</a>
</g>
</g>
<!-- Node1&#45;&gt;Node2 -->
<g id="edge1" class="edge">
<title>Node1&#45;&gt;Node2</title>
<path fill="none" stroke="midnightblue" d="M261,-302.4C261,-294.47 261,-284.46 261,-275.86"/>
<polygon fill="midnightblue" stroke="midnightblue" points="264.5,-275.66 261,-265.66 257.5,-275.66 264.5,-275.66"/>
</g>
<!-- Node3 -->
<g id="node3" class="node">
<title>Node3</title>
<g id="a_node3"><a xlink:href="../../da/d5f/_b_a_s_i_c_8hpp.html" target="_top" xlink:title=" ">
<polygon fill="none" stroke="black" points="0,-56.5 0,-86.5 116,-86.5 116,-56.5 0,-56.5"/>
<text text-anchor="start" x="8" y="-74.5" font-family="Helvetica,sans-Serif" font-size="10.00">../../../Global_Include</text>
<text text-anchor="middle" x="58" y="-63.5" font-family="Helvetica,sans-Serif" font-size="10.00">/BASIC.hpp</text>
</a>
</g>
</g>
<!-- Node2&#45;&gt;Node3 -->
<g id="edge2" class="edge">
<title>Node2&#45;&gt;Node3</title>
<path fill="none" stroke="midnightblue" d="M232.58,-246.4C190.58,-232.13 112.65,-199.42 73,-143 63.6,-129.62 59.89,-111.53 58.5,-97.02"/>
<polygon fill="midnightblue" stroke="midnightblue" points="61.98,-96.52 57.85,-86.77 54.99,-96.97 61.98,-96.52"/>
</g>
<!-- Node4 -->
<g id="node4" class="node">
<title>Node4</title>
<g id="a_node4"><a xlink:href="../../d3/deb/_general___error_8hpp.html" target="_top" xlink:title=" ">
<polygon fill="none" stroke="black" points="346,-56.5 346,-86.5 492,-86.5 492,-56.5 346,-56.5"/>
<text text-anchor="start" x="354" y="-74.5" font-family="Helvetica,sans-Serif" font-size="10.00">../../../Objects/ErrorHandler</text>
<text text-anchor="middle" x="419" y="-63.5" font-family="Helvetica,sans-Serif" font-size="10.00">/include/General_Error.hpp</text>
</a>
</g>
</g>
<!-- Node2&#45;&gt;Node4 -->
<g id="edge3" class="edge">
<title>Node2&#45;&gt;Node4</title>
<path fill="none" stroke="midnightblue" d="M286.3,-246.41C324.1,-231.99 393.57,-198.84 419,-143 425.55,-128.62 425.49,-110.82 423.83,-96.7"/>
<polygon fill="midnightblue" stroke="midnightblue" points="427.28,-96.1 422.32,-86.74 420.36,-97.15 427.28,-96.1"/>
</g>
<!-- Node7 -->
<g id="node7" class="node">
<title>Node7</title>
<g id="a_node7"><a xlink:href="../../d7/d60/_timeservice_8hpp.html" target="_top" xlink:title=" ">
<polygon fill="none" stroke="black" points="189.5,-179.5 189.5,-209.5 332.5,-209.5 332.5,-179.5 189.5,-179.5"/>
<text text-anchor="start" x="197.5" y="-197.5" font-family="Helvetica,sans-Serif" font-size="10.00">../../../Objects/Timeservice</text>
<text text-anchor="middle" x="261" y="-186.5" font-family="Helvetica,sans-Serif" font-size="10.00">/include/Timeservice.hpp</text>
</a>
</g>
</g>
<!-- Node2&#45;&gt;Node7 -->
<g id="edge6" class="edge">
<title>Node2&#45;&gt;Node7</title>
<path fill="none" stroke="midnightblue" d="M261,-246.48C261,-239.47 261,-229.19 261,-219.7"/>
<polygon fill="midnightblue" stroke="midnightblue" points="264.5,-219.52 261,-209.52 257.5,-219.52 264.5,-219.52"/>
</g>
<!-- Node5 -->
<g id="node5" class="node">
<title>Node5</title>
<g id="a_node5"><a xlink:title=" ">
<polygon fill="none" stroke="#bfbfbf" points="362,-0.5 362,-19.5 406,-19.5 406,-0.5 362,-0.5"/>
<text text-anchor="middle" x="384" y="-7.5" font-family="Helvetica,sans-Serif" font-size="10.00">string</text>
</a>
</g>
</g>
<!-- Node4&#45;&gt;Node5 -->
<g id="edge4" class="edge">
<title>Node4&#45;&gt;Node5</title>
<path fill="none" stroke="midnightblue" d="M410.71,-56.4C405.78,-48.02 399.49,-37.33 394.25,-28.42"/>
<polygon fill="midnightblue" stroke="midnightblue" points="397.18,-26.5 389.09,-19.66 391.15,-30.05 397.18,-26.5"/>
</g>
<!-- Node6 -->
<g id="node6" class="node">
<title>Node6</title>
<g id="a_node6"><a xlink:title=" ">
<polygon fill="none" stroke="#bfbfbf" points="424,-0.5 424,-19.5 484,-19.5 484,-0.5 424,-0.5"/>
<text text-anchor="middle" x="454" y="-7.5" font-family="Helvetica,sans-Serif" font-size="10.00">iostream</text>
</a>
</g>
</g>
<!-- Node4&#45;&gt;Node6 -->
<g id="edge5" class="edge">
<title>Node4&#45;&gt;Node6</title>
<path fill="none" stroke="midnightblue" d="M427.29,-56.4C432.22,-48.02 438.51,-37.33 443.75,-28.42"/>
<polygon fill="midnightblue" stroke="midnightblue" points="446.85,-30.05 448.91,-19.66 440.82,-26.5 446.85,-30.05"/>
</g>
<!-- Node7&#45;&gt;Node3 -->
<g id="edge7" class="edge">
<title>Node7&#45;&gt;Node3</title>
<path fill="none" stroke="midnightblue" d="M189.33,-185.47C156.59,-178.68 119.15,-166.14 92,-143 77.88,-130.97 69.16,-111.72 64.08,-96.38"/>
<polygon fill="midnightblue" stroke="midnightblue" points="67.35,-95.09 61.13,-86.51 60.64,-97.1 67.35,-95.09"/>
</g>
<!-- Node7&#45;&gt;Node4 -->
<g id="edge8" class="edge">
<title>Node7&#45;&gt;Node4</title>
<path fill="none" stroke="midnightblue" d="M332.52,-181.5C356.87,-174.11 382.37,-162.2 400,-143 411.45,-130.53 416.13,-111.88 417.98,-96.89"/>
<polygon fill="midnightblue" stroke="midnightblue" points="421.48,-97.04 418.88,-86.77 414.51,-96.42 421.48,-97.04"/>
</g>
<!-- Node8 -->
<g id="node8" class="node">
<title>Node8</title>
<g id="a_node8"><a xlink:href="../../d6/d4b/_r_t_c___h_a_l_8hpp.html" target="_top" xlink:title=" ">
<polygon fill="none" stroke="black" points="101.5,-123.5 101.5,-142.5 182.5,-142.5 182.5,-123.5 101.5,-123.5"/>
<text text-anchor="middle" x="142" y="-130.5" font-family="Helvetica,sans-Serif" font-size="10.00">RTC_HAL.hpp</text>
</a>
</g>
</g>
<!-- Node7&#45;&gt;Node8 -->
<g id="edge9" class="edge">
<title>Node7&#45;&gt;Node8</title>
<path fill="none" stroke="midnightblue" d="M232.8,-179.4C213.28,-169.64 187.47,-156.74 168.37,-147.18"/>
<polygon fill="midnightblue" stroke="midnightblue" points="169.83,-144 159.32,-142.66 166.69,-150.26 169.83,-144"/>
</g>
<!-- Node10 -->
<g id="node10" class="node">
<title>Node10</title>
<g id="a_node10"><a xlink:title=" ">
<polygon fill="none" stroke="#bfbfbf" points="201,-123.5 201,-142.5 251,-142.5 251,-123.5 201,-123.5"/>
<text text-anchor="middle" x="226" y="-130.5" font-family="Helvetica,sans-Serif" font-size="10.00">chrono</text>
</a>
</g>
</g>
<!-- Node7&#45;&gt;Node10 -->
<g id="edge13" class="edge">
<title>Node7&#45;&gt;Node10</title>
<path fill="none" stroke="midnightblue" d="M252.71,-179.4C247.78,-171.02 241.49,-160.33 236.25,-151.42"/>
<polygon fill="midnightblue" stroke="midnightblue" points="239.18,-149.5 231.09,-142.66 233.15,-153.05 239.18,-149.5"/>
</g>
<!-- Node11 -->
<g id="node11" class="node">
<title>Node11</title>
<g id="a_node11"><a xlink:title=" ">
<polygon fill="none" stroke="#bfbfbf" points="269,-123.5 269,-142.5 325,-142.5 325,-123.5 269,-123.5"/>
<text text-anchor="middle" x="297" y="-130.5" font-family="Helvetica,sans-Serif" font-size="10.00">iomanip</text>
</a>
</g>
</g>
<!-- Node7&#45;&gt;Node11 -->
<g id="edge14" class="edge">
<title>Node7&#45;&gt;Node11</title>
<path fill="none" stroke="midnightblue" d="M269.53,-179.4C274.6,-171.02 281.07,-160.33 286.46,-151.42"/>
<polygon fill="midnightblue" stroke="midnightblue" points="289.58,-153.03 291.76,-142.66 283.59,-149.4 289.58,-153.03"/>
</g>
<!-- Node12 -->
<g id="node12" class="node">
<title>Node12</title>
<g id="a_node12"><a xlink:title=" ">
<polygon fill="none" stroke="#bfbfbf" points="343,-123.5 343,-142.5 391,-142.5 391,-123.5 343,-123.5"/>
<text text-anchor="middle" x="367" y="-130.5" font-family="Helvetica,sans-Serif" font-size="10.00">thread</text>
</a>
</g>
</g>
<!-- Node7&#45;&gt;Node12 -->
<g id="edge15" class="edge">
<title>Node7&#45;&gt;Node12</title>
<path fill="none" stroke="midnightblue" d="M286.12,-179.4C303.27,-169.77 325.86,-157.09 342.81,-147.58"/>
<polygon fill="midnightblue" stroke="midnightblue" points="344.57,-150.6 351.58,-142.66 341.14,-144.5 344.57,-150.6"/>
</g>
<!-- Node8&#45;&gt;Node3 -->
<g id="edge10" class="edge">
<title>Node8&#45;&gt;Node3</title>
<path fill="none" stroke="midnightblue" d="M129.96,-123.48C118.59,-115.42 101.09,-103.02 86.2,-92.47"/>
<polygon fill="midnightblue" stroke="midnightblue" points="87.98,-89.45 77.8,-86.52 83.93,-95.16 87.98,-89.45"/>
</g>
<!-- Node8&#45;&gt;Node4 -->
<g id="edge11" class="edge">
<title>Node8&#45;&gt;Node4</title>
<path fill="none" stroke="midnightblue" d="M181.69,-123.48C223.85,-114.42 291.5,-99.89 343.81,-88.65"/>
<polygon fill="midnightblue" stroke="midnightblue" points="344.67,-92.05 353.72,-86.52 343.2,-85.2 344.67,-92.05"/>
</g>
<!-- Node9 -->
<g id="node9" class="node">
<title>Node9</title>
<g id="a_node9"><a xlink:title=" ">
<polygon fill="none" stroke="#bfbfbf" points="134,-62 134,-81 178,-81 178,-62 134,-62"/>
<text text-anchor="middle" x="156" y="-69" font-family="Helvetica,sans-Serif" font-size="10.00">ctime</text>
</a>
</g>
</g>
<!-- Node8&#45;&gt;Node9 -->
<g id="edge12" class="edge">
<title>Node8&#45;&gt;Node9</title>
<path fill="none" stroke="midnightblue" d="M144.01,-123.48C146,-114.99 149.13,-101.7 151.69,-90.82"/>
<polygon fill="midnightblue" stroke="midnightblue" points="155.11,-91.54 154,-81.01 148.3,-89.94 155.11,-91.54"/>
</g>
</g>
</svg>
