<?xml version="1.0" encoding="UTF-8" standalone="no"?>
<!DOCTYPE svg PUBLIC "-//W3C//DTD SVG 1.1//EN"
 "http://www.w3.org/Graphics/SVG/1.1/DTD/svg11.dtd">
<!-- Generated by graphviz version 2.43.0 (0)
 -->
<!-- Title: Sensor_Base&lt; T, U &gt; Pages: 1 -->
<svg width="260pt" height="536pt"
 viewBox="0.00 0.00 260.00 536.00" xmlns="http://www.w3.org/2000/svg" xmlns:xlink="http://www.w3.org/1999/xlink">
<g id="graph0" class="graph" transform="scale(1 1) rotate(0) translate(4 532)">
<title>Sensor_Base&lt; T, U &gt;</title>
<!-- Node1 -->
<g id="node1" class="node">
<title>Node1</title>
<g id="a_node1"><a xlink:title=" ">
<polygon fill="#bfbfbf" stroke="black" points="106.5,-0.5 106.5,-101.5 227.5,-101.5 227.5,-0.5 106.5,-0.5"/>
<text text-anchor="middle" x="167" y="-89.5" font-family="Helvetica,sans-Serif" font-size="10.00">Sensor_Base&lt; T, U &gt;</text>
<polyline fill="none" stroke="black" points="106.5,-82.5 227.5,-82.5 "/>
<text text-anchor="start" x="114.5" y="-70.5" font-family="Helvetica,sans-Serif" font-size="10.00"># m_value</text>
<polyline fill="none" stroke="black" points="106.5,-63.5 227.5,-63.5 "/>
<text text-anchor="start" x="114.5" y="-51.5" font-family="Helvetica,sans-Serif" font-size="10.00">+ Sensor_Base()</text>
<text text-anchor="start" x="114.5" y="-40.5" font-family="Helvetica,sans-Serif" font-size="10.00">+ ~Sensor_Base()</text>
<text text-anchor="start" x="114.5" y="-29.5" font-family="Helvetica,sans-Serif" font-size="10.00">+ measure()</text>
<text text-anchor="start" x="114.5" y="-18.5" font-family="Helvetica,sans-Serif" font-size="10.00">+ getValue()</text>
<text text-anchor="start" x="114.5" y="-7.5" font-family="Helvetica,sans-Serif" font-size="10.00">+ handleSensor()</text>
</a>
</g>
</g>
<!-- Node2 -->
<g id="node2" class="node">
<title>Node2</title>
<g id="a_node2"><a xlink:href="../../dd/d84/class_fault___handler.html" target="_top" xlink:title=" ">
<polygon fill="none" stroke="black" points="51,-149.5 51,-294.5 173,-294.5 173,-149.5 51,-149.5"/>
<text text-anchor="middle" x="112" y="-282.5" font-family="Helvetica,sans-Serif" font-size="10.00">Fault_Handler</text>
<polyline fill="none" stroke="black" points="51,-275.5 173,-275.5 "/>
<text text-anchor="middle" x="112" y="-263.5" font-family="Helvetica,sans-Serif" font-size="10.00"> </text>
<polyline fill="none" stroke="black" points="51,-256.5 173,-256.5 "/>
<text text-anchor="start" x="59" y="-244.5" font-family="Helvetica,sans-Serif" font-size="10.00">+ Fault_Handler()</text>
<text text-anchor="start" x="59" y="-233.5" font-family="Helvetica,sans-Serif" font-size="10.00">+ ~Fault_Handler()</text>
<text text-anchor="start" x="59" y="-222.5" font-family="Helvetica,sans-Serif" font-size="10.00">+ handleFault()</text>
<text text-anchor="start" x="59" y="-211.5" font-family="Helvetica,sans-Serif" font-size="10.00">+ resetFaultCounter()</text>
<text text-anchor="start" x="59" y="-200.5" font-family="Helvetica,sans-Serif" font-size="10.00">&#45; countUp()</text>
<text text-anchor="start" x="59" y="-189.5" font-family="Helvetica,sans-Serif" font-size="10.00">&#45; handle()</text>
<text text-anchor="start" x="59" y="-178.5" font-family="Helvetica,sans-Serif" font-size="10.00">&#45; toString()</text>
<text text-anchor="start" x="59" y="-167.5" font-family="Helvetica,sans-Serif" font-size="10.00">&#45; severity2string()</text>
<text text-anchor="start" x="59" y="-156.5" font-family="Helvetica,sans-Serif" font-size="10.00">&#45; check_value()</text>
</a>
</g>
</g>
<!-- Node2&#45;&gt;Node1 -->
<g id="edge1" class="edge">
<title>Node2&#45;&gt;Node1</title>
<path fill="none" stroke="#404040" d="M106.87,-149.33C107.83,-139.3 109.72,-129.26 113,-120 113.9,-117.46 114.94,-114.94 116.09,-112.46"/>
<polygon fill="none" stroke="#404040" points="116.13,-112.38 115.44,-105.2 121.8,-101.8 122.49,-108.98 116.13,-112.38"/>
<text text-anchor="middle" x="157" y="-123" font-family="Helvetica,sans-Serif" font-size="10.00"> #m_faultHanlder</text>
</g>
<!-- Node3 -->
<g id="node3" class="node">
<title>Node3</title>
<g id="a_node3"><a xlink:title="STL class.">
<polygon fill="none" stroke="#bfbfbf" points="19.5,-353.5 19.5,-410.5 84.5,-410.5 84.5,-353.5 19.5,-353.5"/>
<text text-anchor="middle" x="52" y="-398.5" font-family="Helvetica,sans-Serif" font-size="10.00">std::string</text>
<polyline fill="none" stroke="#bfbfbf" points="19.5,-391.5 84.5,-391.5 "/>
<text text-anchor="middle" x="52" y="-379.5" font-family="Helvetica,sans-Serif" font-size="10.00"> </text>
<polyline fill="none" stroke="#bfbfbf" points="19.5,-372.5 84.5,-372.5 "/>
<text text-anchor="middle" x="52" y="-360.5" font-family="Helvetica,sans-Serif" font-size="10.00"> </text>
</a>
</g>
</g>
<!-- Node3&#45;&gt;Node2 -->
<g id="edge2" class="edge">
<title>Node3&#45;&gt;Node2</title>
<path fill="none" stroke="#404040" d="M62.45,-353.48C67.55,-340.06 73.97,-323.13 80.5,-305.96"/>
<polygon fill="none" stroke="#404040" points="80.52,-305.89 78.91,-298.86 84.78,-294.67 86.39,-301.7 80.52,-305.89"/>
<text text-anchor="middle" x="102" y="-316" font-family="Helvetica,sans-Serif" font-size="10.00"> &#45;m_name</text>
</g>
<!-- Node4 -->
<g id="node4" class="node">
<title>Node4</title>
<g id="a_node4"><a xlink:title="STL class.">
<polygon fill="none" stroke="#bfbfbf" points="0,-459.5 0,-527.5 104,-527.5 104,-459.5 0,-459.5"/>
<text text-anchor="start" x="8" y="-515.5" font-family="Helvetica,sans-Serif" font-size="10.00">std::basic_string&lt;</text>
<text text-anchor="middle" x="52" y="-504.5" font-family="Helvetica,sans-Serif" font-size="10.00"> char &gt;</text>
<polyline fill="none" stroke="#bfbfbf" points="0,-497.5 104,-497.5 "/>
<text text-anchor="middle" x="52" y="-485.5" font-family="Helvetica,sans-Serif" font-size="10.00"> </text>
<polyline fill="none" stroke="#bfbfbf" points="0,-478.5 104,-478.5 "/>
<text text-anchor="middle" x="52" y="-466.5" font-family="Helvetica,sans-Serif" font-size="10.00"> </text>
</a>
</g>
</g>
<!-- Node4&#45;&gt;Node3 -->
<g id="edge3" class="edge">
<title>Node4&#45;&gt;Node3</title>
<path fill="none" stroke="midnightblue" d="M52,-449.16C52,-436.13 52,-422.21 52,-410.51"/>
<polygon fill="none" stroke="midnightblue" points="48.5,-449.35 52,-459.35 55.5,-449.35 48.5,-449.35"/>
</g>
<!-- Node5 -->
<g id="node5" class="node">
<title>Node5</title>
<g id="a_node5"><a xlink:href="../../dd/d84/class_fault___handler.html#da/dec/struct_fault___handler_1_1counters__t" target="_top" xlink:title=" ">
<polygon fill="none" stroke="black" points="103,-342.5 103,-421.5 243,-421.5 243,-342.5 103,-342.5"/>
<text text-anchor="middle" x="173" y="-409.5" font-family="Helvetica,sans-Serif" font-size="10.00">Fault_Handler::counters_t</text>
<polyline fill="none" stroke="black" points="103,-402.5 243,-402.5 "/>
<text text-anchor="start" x="111" y="-390.5" font-family="Helvetica,sans-Serif" font-size="10.00">+ low</text>
<text text-anchor="start" x="111" y="-379.5" font-family="Helvetica,sans-Serif" font-size="10.00">+ medium</text>
<text text-anchor="start" x="111" y="-368.5" font-family="Helvetica,sans-Serif" font-size="10.00">+ high</text>
<polyline fill="none" stroke="black" points="103,-361.5 243,-361.5 "/>
<text text-anchor="middle" x="173" y="-349.5" font-family="Helvetica,sans-Serif" font-size="10.00"> </text>
</a>
</g>
</g>
<!-- Node5&#45;&gt;Node2 -->
<g id="edge4" class="edge">
<title>Node5&#45;&gt;Node2</title>
<path fill="none" stroke="#404040" d="M158.08,-342.35C153.77,-331.18 148.89,-318.55 143.96,-305.78"/>
<polygon fill="none" stroke="#404040" points="143.95,-305.76 138.06,-301.6 139.63,-294.57 145.52,-298.72 143.95,-305.76"/>
<text text-anchor="middle" x="181" y="-316" font-family="Helvetica,sans-Serif" font-size="10.00"> &#45;m_counters</text>
</g>
<!-- Node6 -->
<g id="node6" class="node">
<title>Node6</title>
<g id="a_node6"><a xlink:title=" ">
<polygon fill="none" stroke="#bfbfbf" points="208.5,-193.5 208.5,-250.5 237.5,-250.5 237.5,-193.5 208.5,-193.5"/>
<text text-anchor="middle" x="223" y="-238.5" font-family="Helvetica,sans-Serif" font-size="10.00">T</text>
<polyline fill="none" stroke="#bfbfbf" points="208.5,-231.5 237.5,-231.5 "/>
<text text-anchor="middle" x="223" y="-219.5" font-family="Helvetica,sans-Serif" font-size="10.00"> </text>
<polyline fill="none" stroke="#bfbfbf" points="208.5,-212.5 237.5,-212.5 "/>
<text text-anchor="middle" x="223" y="-200.5" font-family="Helvetica,sans-Serif" font-size="10.00"> </text>
</a>
</g>
</g>
<!-- Node6&#45;&gt;Node1 -->
<g id="edge5" class="edge">
<title>Node6&#45;&gt;Node1</title>
<path fill="none" stroke="#404040" d="M218.91,-193.48C215.4,-172.88 209.54,-144.2 201,-120 200.16,-117.62 199.26,-115.21 198.3,-112.8"/>
<polygon fill="none" stroke="#404040" points="198.2,-112.57 192.18,-108.6 193.52,-101.52 199.54,-105.48 198.2,-112.57"/>
<text text-anchor="middle" x="228" y="-123" font-family="Helvetica,sans-Serif" font-size="10.00"> #m_conf</text>
</g>
</g>
</svg>
