<?xml version="1.0" encoding="UTF-8" standalone="no"?>
<!DOCTYPE svg PUBLIC "-//W3C//DTD SVG 1.1//EN"
 "http://www.w3.org/Graphics/SVG/1.1/DTD/svg11.dtd">
<!-- Generated by graphviz version 2.43.0 (0)
 -->
<!-- Title: Components/Protocols/MQTT/include/mqtt_api_v2.hpp Pages: 1 -->
<svg width="2059pt" height="384pt"
 viewBox="0.00 0.00 2059.00 384.00" xmlns="http://www.w3.org/2000/svg" xmlns:xlink="http://www.w3.org/1999/xlink">
<g id="graph0" class="graph" transform="scale(1 1) rotate(0) translate(4 380)">
<title>Components/Protocols/MQTT/include/mqtt_api_v2.hpp</title>
<!-- Node1 -->
<g id="node1" class="node">
<title>Node1</title>
<g id="a_node1"><a xlink:title=" ">
<polygon fill="#bfbfbf" stroke="black" points="1504.5,-334.5 1504.5,-375.5 1637.5,-375.5 1637.5,-334.5 1504.5,-334.5"/>
<text text-anchor="start" x="1512.5" y="-363.5" font-family="Helvetica,sans-Serif" font-size="10.00">Components/Protocols</text>
<text text-anchor="start" x="1512.5" y="-352.5" font-family="Helvetica,sans-Serif" font-size="10.00">/MQTT/include/mqtt_api</text>
<text text-anchor="middle" x="1571" y="-341.5" font-family="Helvetica,sans-Serif" font-size="10.00">_v2.hpp</text>
</a>
</g>
</g>
<!-- Node2 -->
<g id="node2" class="node">
<title>Node2</title>
<g id="a_node2"><a xlink:href="../../d3/d0d/_error_code_parser_8hpp.html" target="_top" xlink:title=" ">
<polygon fill="none" stroke="black" points="1230.5,-256.5 1230.5,-297.5 1349.5,-297.5 1349.5,-256.5 1230.5,-256.5"/>
<text text-anchor="start" x="1238.5" y="-285.5" font-family="Helvetica,sans-Serif" font-size="10.00">Components/Objects</text>
<text text-anchor="start" x="1238.5" y="-274.5" font-family="Helvetica,sans-Serif" font-size="10.00">/ErrorHandler/include</text>
<text text-anchor="middle" x="1290" y="-263.5" font-family="Helvetica,sans-Serif" font-size="10.00">/ErrorCodeParser.hpp</text>
</a>
</g>
</g>
<!-- Node1&#45;&gt;Node2 -->
<g id="edge1" class="edge">
<title>Node1&#45;&gt;Node2</title>
<path fill="none" stroke="midnightblue" d="M1494.58,-333.33C1449.07,-321.02 1392.14,-305.62 1349.9,-294.2"/>
<polygon fill="midnightblue" stroke="midnightblue" points="1493.84,-336.76 1504.41,-335.99 1495.67,-330 1493.84,-336.76"/>
</g>
<!-- Node3 -->
<g id="node3" class="node">
<title>Node3</title>
<g id="a_node3"><a xlink:href="../../d9/d1c/_sensor_controller_base_8hpp.html" target="_top" xlink:title=" ">
<polygon fill="none" stroke="black" points="917,-178.5 917,-219.5 1101,-219.5 1101,-178.5 917,-178.5"/>
<text text-anchor="start" x="925" y="-207.5" font-family="Helvetica,sans-Serif" font-size="10.00">Components/Interfaces</text>
<text text-anchor="start" x="925" y="-196.5" font-family="Helvetica,sans-Serif" font-size="10.00">/SensorControllerBase</text>
<text text-anchor="middle" x="1009" y="-185.5" font-family="Helvetica,sans-Serif" font-size="10.00">/include/SensorControllerBase.hpp</text>
</a>
</g>
</g>
<!-- Node1&#45;&gt;Node3 -->
<g id="edge30" class="edge">
<title>Node1&#45;&gt;Node3</title>
<path fill="none" stroke="midnightblue" d="M1493.98,-347.8C1422.14,-340.58 1312.59,-325.91 1221,-298 1155.64,-278.08 1084.48,-241.93 1043.46,-219.54"/>
<polygon fill="midnightblue" stroke="midnightblue" points="1494.01,-351.32 1504.3,-348.81 1494.69,-344.35 1494.01,-351.32"/>
</g>
<!-- Node14 -->
<g id="node14" class="node">
<title>Node14</title>
<g id="a_node14"><a xlink:href="../../d2/dc5/_service_base_8hpp.html" target="_top" xlink:title=" ">
<polygon fill="none" stroke="black" points="492,-178.5 492,-219.5 622,-219.5 622,-178.5 492,-178.5"/>
<text text-anchor="start" x="500" y="-207.5" font-family="Helvetica,sans-Serif" font-size="10.00">Components/Interfaces</text>
<text text-anchor="start" x="500" y="-196.5" font-family="Helvetica,sans-Serif" font-size="10.00">/ServiceBase/include</text>
<text text-anchor="middle" x="557" y="-185.5" font-family="Helvetica,sans-Serif" font-size="10.00">/ServiceBase.hpp</text>
</a>
</g>
</g>
<!-- Node1&#45;&gt;Node14 -->
<g id="edge31" class="edge">
<title>Node1&#45;&gt;Node14</title>
<path fill="none" stroke="midnightblue" d="M1494.15,-345.72C1403.73,-335.7 1249.17,-317.7 1117,-298 937.38,-271.22 726.67,-232.31 622.35,-212.54"/>
<polygon fill="midnightblue" stroke="midnightblue" points="1493.99,-349.22 1504.31,-346.84 1494.76,-342.26 1493.99,-349.22"/>
</g>
<!-- Node23 -->
<g id="node23" class="node">
<title>Node23</title>
<g id="a_node23"><a xlink:href="../../d0/d6a/_maintainer_8hpp.html" target="_top" xlink:title=" ">
<polygon fill="none" stroke="black" points="1447,-178.5 1447,-219.5 1565,-219.5 1565,-178.5 1447,-178.5"/>
<text text-anchor="start" x="1455" y="-207.5" font-family="Helvetica,sans-Serif" font-size="10.00">Components/Objects</text>
<text text-anchor="start" x="1455" y="-196.5" font-family="Helvetica,sans-Serif" font-size="10.00">/Maintainer/include</text>
<text text-anchor="middle" x="1506" y="-185.5" font-family="Helvetica,sans-Serif" font-size="10.00">/Maintainer.hpp</text>
</a>
</g>
</g>
<!-- Node1&#45;&gt;Node23 -->
<g id="edge34" class="edge">
<title>Node1&#45;&gt;Node23</title>
<path fill="none" stroke="midnightblue" d="M1558.83,-325.17C1545.86,-294.43 1525.66,-246.59 1514.37,-219.83"/>
<polygon fill="midnightblue" stroke="midnightblue" points="1555.65,-326.64 1562.77,-334.5 1562.1,-323.92 1555.65,-326.64"/>
</g>
<!-- Node26 -->
<g id="node26" class="node">
<title>Node26</title>
<g id="a_node26"><a xlink:href="../../dd/d82/_active_current_sensor_8hpp.html" target="_top" xlink:title=" ">
<polygon fill="none" stroke="black" points="1729,-95 1729,-136 1877,-136 1877,-95 1729,-95"/>
<text text-anchor="start" x="1737" y="-124" font-family="Helvetica,sans-Serif" font-size="10.00">Components/Sensor/Active</text>
<text text-anchor="start" x="1737" y="-113" font-family="Helvetica,sans-Serif" font-size="10.00">CurrentSensor/include</text>
<text text-anchor="middle" x="1803" y="-102" font-family="Helvetica,sans-Serif" font-size="10.00">/ActiveCurrentSensor.hpp</text>
</a>
</g>
</g>
<!-- Node1&#45;&gt;Node26 -->
<g id="edge37" class="edge">
<title>Node1&#45;&gt;Node26</title>
<path fill="none" stroke="midnightblue" d="M1569.55,-324.15C1569.33,-285.49 1574.9,-218.3 1612,-178 1614.31,-175.49 1685.17,-153.07 1739.91,-136.01"/>
<polygon fill="midnightblue" stroke="midnightblue" points="1566.05,-324.32 1569.74,-334.25 1573.05,-324.18 1566.05,-324.32"/>
</g>
<!-- Node28 -->
<g id="node28" class="node">
<title>Node28</title>
<g id="a_node28"><a xlink:href="../../d7/d44/hal__mqtt__log_8hpp.html" target="_top" xlink:title=" ">
<polygon fill="none" stroke="black" points="1621,-256.5 1621,-297.5 1739,-297.5 1739,-256.5 1621,-256.5"/>
<text text-anchor="start" x="1629" y="-285.5" font-family="Helvetica,sans-Serif" font-size="10.00">Components/Objects</text>
<text text-anchor="start" x="1629" y="-274.5" font-family="Helvetica,sans-Serif" font-size="10.00">/Logger/include/hal</text>
<text text-anchor="middle" x="1680" y="-263.5" font-family="Helvetica,sans-Serif" font-size="10.00">_mqtt_log.hpp</text>
</a>
</g>
</g>
<!-- Node1&#45;&gt;Node28 -->
<g id="edge32" class="edge">
<title>Node1&#45;&gt;Node28</title>
<path fill="none" stroke="midnightblue" d="M1607.38,-328.64C1621.93,-318.49 1638.43,-306.98 1652.02,-297.51"/>
<polygon fill="midnightblue" stroke="midnightblue" points="1605.27,-325.84 1599.07,-334.43 1609.27,-331.58 1605.27,-325.84"/>
</g>
<!-- Node30 -->
<g id="node30" class="node">
<title>Node30</title>
<g id="a_node30"><a xlink:href="../../d3/dc1/mqtt__api__v2_8cpp.html" target="_top" xlink:title=" ">
<polygon fill="none" stroke="black" points="1757.5,-262 1757.5,-292 1906.5,-292 1906.5,-262 1757.5,-262"/>
<text text-anchor="start" x="1765.5" y="-280" font-family="Helvetica,sans-Serif" font-size="10.00">Components/Protocols</text>
<text text-anchor="middle" x="1832" y="-269" font-family="Helvetica,sans-Serif" font-size="10.00">/MQTT/src/mqtt_api_v2.cpp</text>
</a>
</g>
</g>
<!-- Node1&#45;&gt;Node30 -->
<g id="edge35" class="edge">
<title>Node1&#45;&gt;Node30</title>
<path fill="none" stroke="midnightblue" d="M1647.35,-331.77C1691.42,-318.94 1745.5,-303.19 1783.71,-292.06"/>
<polygon fill="midnightblue" stroke="midnightblue" points="1646.16,-328.47 1637.54,-334.63 1648.12,-335.19 1646.16,-328.47"/>
</g>
<!-- Node31 -->
<g id="node31" class="node">
<title>Node31</title>
<g id="a_node31"><a xlink:href="../../df/df3/mqtt__v2__test_8cpp.html" target="_top" xlink:title=" ">
<polygon fill="none" stroke="black" points="1925,-256.5 1925,-297.5 2051,-297.5 2051,-256.5 1925,-256.5"/>
<text text-anchor="start" x="1933" y="-285.5" font-family="Helvetica,sans-Serif" font-size="10.00">Components/Protocols</text>
<text text-anchor="start" x="1933" y="-274.5" font-family="Helvetica,sans-Serif" font-size="10.00">/MQTT/test/test/mqtt</text>
<text text-anchor="middle" x="1988" y="-263.5" font-family="Helvetica,sans-Serif" font-size="10.00">_v2_test.cpp</text>
</a>
</g>
</g>
<!-- Node1&#45;&gt;Node31 -->
<g id="edge36" class="edge">
<title>Node1&#45;&gt;Node31</title>
<path fill="none" stroke="midnightblue" d="M1647.64,-344.03C1717.86,-334.31 1824.48,-318.07 1916,-298 1918.91,-297.36 1921.89,-296.67 1924.88,-295.96"/>
<polygon fill="midnightblue" stroke="midnightblue" points="1646.98,-340.58 1637.55,-345.41 1647.93,-347.52 1646.98,-340.58"/>
</g>
<!-- Node2&#45;&gt;Node3 -->
<g id="edge2" class="edge">
<title>Node2&#45;&gt;Node3</title>
<path fill="none" stroke="midnightblue" d="M1220.72,-257.26C1178.32,-245.8 1124.15,-231.14 1081.22,-219.53"/>
<polygon fill="midnightblue" stroke="midnightblue" points="1219.84,-260.65 1230.41,-259.88 1221.67,-253.89 1219.84,-260.65"/>
</g>
<!-- Node2&#45;&gt;Node14 -->
<g id="edge15" class="edge">
<title>Node2&#45;&gt;Node14</title>
<path fill="none" stroke="midnightblue" d="M1220.03,-268.75C1078.39,-254.06 759.52,-221 622.07,-206.75"/>
<polygon fill="midnightblue" stroke="midnightblue" points="1220.02,-272.26 1230.33,-269.81 1220.74,-265.3 1220.02,-272.26"/>
</g>
<!-- Node21 -->
<g id="node21" class="node">
<title>Node21</title>
<g id="a_node21"><a xlink:href="../../d2/df5/_error_code_parser_8cpp.html" target="_top" xlink:title=" ">
<polygon fill="none" stroke="black" points="1279.5,-178.5 1279.5,-219.5 1428.5,-219.5 1428.5,-178.5 1279.5,-178.5"/>
<text text-anchor="start" x="1287.5" y="-207.5" font-family="Helvetica,sans-Serif" font-size="10.00">Components/Objects</text>
<text text-anchor="start" x="1287.5" y="-196.5" font-family="Helvetica,sans-Serif" font-size="10.00">/ErrorHandler/src/ErrorCode</text>
<text text-anchor="middle" x="1354" y="-185.5" font-family="Helvetica,sans-Serif" font-size="10.00">Parser.cpp</text>
</a>
</g>
</g>
<!-- Node2&#45;&gt;Node21 -->
<g id="edge23" class="edge">
<title>Node2&#45;&gt;Node21</title>
<path fill="none" stroke="midnightblue" d="M1313.05,-248.63C1321.17,-238.99 1330.12,-228.36 1337.57,-219.51"/>
<polygon fill="midnightblue" stroke="midnightblue" points="1310.25,-246.52 1306.48,-256.43 1315.6,-251.03 1310.25,-246.52"/>
</g>
<!-- Node22 -->
<g id="node22" class="node">
<title>Node22</title>
<g id="a_node22"><a xlink:href="../../d9/db8/_error_code_parser__test_8cpp.html" target="_top" xlink:title=" ">
<polygon fill="none" stroke="black" points="1119,-178.5 1119,-219.5 1261,-219.5 1261,-178.5 1119,-178.5"/>
<text text-anchor="start" x="1127" y="-207.5" font-family="Helvetica,sans-Serif" font-size="10.00">Components/Objects</text>
<text text-anchor="start" x="1127" y="-196.5" font-family="Helvetica,sans-Serif" font-size="10.00">/ErrorHandler/test/test</text>
<text text-anchor="middle" x="1190" y="-185.5" font-family="Helvetica,sans-Serif" font-size="10.00">/ErrorCodeParser_test.cpp</text>
</a>
</g>
</g>
<!-- Node2&#45;&gt;Node22 -->
<g id="edge24" class="edge">
<title>Node2&#45;&gt;Node22</title>
<path fill="none" stroke="midnightblue" d="M1256.25,-250.35C1242.99,-240.27 1228.02,-228.89 1215.67,-219.51"/>
<polygon fill="midnightblue" stroke="midnightblue" points="1254.17,-253.16 1264.25,-256.43 1258.4,-247.59 1254.17,-253.16"/>
</g>
<!-- Node2&#45;&gt;Node23 -->
<g id="edge25" class="edge">
<title>Node2&#45;&gt;Node23</title>
<path fill="none" stroke="midnightblue" d="M1355.29,-253.03C1385.7,-242.33 1421.49,-229.73 1450.56,-219.51"/>
<polygon fill="midnightblue" stroke="midnightblue" points="1353.9,-249.81 1345.63,-256.43 1356.22,-256.41 1353.9,-249.81"/>
</g>
<!-- Node4 -->
<g id="node4" class="node">
<title>Node4</title>
<g id="a_node4"><a xlink:href="../../db/d12/_distance_sensor_controller_8hpp.html" target="_top" xlink:title=" ">
<polygon fill="none" stroke="black" points="779,-95 779,-136 981,-136 981,-95 779,-95"/>
<text text-anchor="start" x="787" y="-124" font-family="Helvetica,sans-Serif" font-size="10.00">Components/Controller</text>
<text text-anchor="start" x="787" y="-113" font-family="Helvetica,sans-Serif" font-size="10.00">/DistanceSensorController</text>
<text text-anchor="middle" x="880" y="-102" font-family="Helvetica,sans-Serif" font-size="10.00">/include/DistanceSensorController.hpp</text>
</a>
</g>
</g>
<!-- Node3&#45;&gt;Node4 -->
<g id="edge3" class="edge">
<title>Node3&#45;&gt;Node4</title>
<path fill="none" stroke="midnightblue" d="M969.47,-173.03C950.72,-161.18 928.63,-147.22 911.09,-136.14"/>
<polygon fill="midnightblue" stroke="midnightblue" points="967.78,-176.1 978.1,-178.48 971.52,-170.18 967.78,-176.1"/>
</g>
<!-- Node8 -->
<g id="node8" class="node">
<title>Node8</title>
<g id="a_node8"><a xlink:href="../../d2/d8d/_sensor_controller_base_8cpp.html" target="_top" xlink:title=" ">
<polygon fill="none" stroke="black" points="1037,-95 1037,-136 1199,-136 1199,-95 1037,-95"/>
<text text-anchor="start" x="1045" y="-124" font-family="Helvetica,sans-Serif" font-size="10.00">Components/Interfaces</text>
<text text-anchor="start" x="1045" y="-113" font-family="Helvetica,sans-Serif" font-size="10.00">/SensorControllerBase</text>
<text text-anchor="middle" x="1118" y="-102" font-family="Helvetica,sans-Serif" font-size="10.00">/src/SensorControllerBase.cpp</text>
</a>
</g>
</g>
<!-- Node3&#45;&gt;Node8 -->
<g id="edge7" class="edge">
<title>Node3&#45;&gt;Node8</title>
<path fill="none" stroke="midnightblue" d="M1043.48,-172.22C1059.09,-160.55 1077.24,-146.97 1091.73,-136.14"/>
<polygon fill="midnightblue" stroke="midnightblue" points="1041.02,-169.69 1035.11,-178.48 1045.21,-175.29 1041.02,-169.69"/>
</g>
<!-- Node9 -->
<g id="node9" class="node">
<title>Node9</title>
<g id="a_node9"><a xlink:href="../../db/dc2/_sensor_controller_base___m_o_c_k_8hpp.html" target="_top" xlink:title=" ">
<polygon fill="none" stroke="black" points="1217,-89.5 1217,-141.5 1393,-141.5 1393,-89.5 1217,-89.5"/>
<text text-anchor="start" x="1225" y="-129.5" font-family="Helvetica,sans-Serif" font-size="10.00">Components/Interfaces</text>
<text text-anchor="start" x="1225" y="-118.5" font-family="Helvetica,sans-Serif" font-size="10.00">/SensorControllerBase</text>
<text text-anchor="start" x="1225" y="-107.5" font-family="Helvetica,sans-Serif" font-size="10.00">/test/mock/SensorControllerBase</text>
<text text-anchor="middle" x="1305" y="-96.5" font-family="Helvetica,sans-Serif" font-size="10.00">_MOCK.hpp</text>
</a>
</g>
</g>
<!-- Node3&#45;&gt;Node9 -->
<g id="edge8" class="edge">
<title>Node3&#45;&gt;Node9</title>
<path fill="none" stroke="midnightblue" d="M1089.73,-175.77C1129.13,-164.92 1176.61,-151.85 1216.94,-140.75"/>
<polygon fill="midnightblue" stroke="midnightblue" points="1088.61,-172.45 1079.9,-178.48 1090.47,-179.2 1088.61,-172.45"/>
</g>
<!-- Node11 -->
<g id="node11" class="node">
<title>Node11</title>
<g id="a_node11"><a xlink:href="../../d8/d19/_sensor_controller_test_8cpp.html" target="_top" xlink:title=" ">
<polygon fill="none" stroke="black" points="1213,-6 1213,-47 1397,-47 1397,-6 1213,-6"/>
<text text-anchor="start" x="1221" y="-35" font-family="Helvetica,sans-Serif" font-size="10.00">Components/Interfaces</text>
<text text-anchor="start" x="1221" y="-24" font-family="Helvetica,sans-Serif" font-size="10.00">/SensorControllerBase</text>
<text text-anchor="middle" x="1305" y="-13" font-family="Helvetica,sans-Serif" font-size="10.00">/test/test/SensorControllerTest.cpp</text>
</a>
</g>
</g>
<!-- Node3&#45;&gt;Node11 -->
<g id="edge11" class="edge">
<title>Node3&#45;&gt;Node11</title>
<path fill="none" stroke="midnightblue" d="M1005.75,-167.97C1004.87,-143.47 1007.96,-109.66 1028,-89 1083.29,-32.01 1125.58,-70.63 1203,-53 1211.19,-51.14 1219.72,-49.12 1228.22,-47.06"/>
<polygon fill="midnightblue" stroke="midnightblue" points="1002.27,-168.38 1006.36,-178.15 1009.26,-167.96 1002.27,-168.38"/>
</g>
<!-- Node12 -->
<g id="node12" class="node">
<title>Node12</title>
<g id="a_node12"><a xlink:href="../../d0/dc1/_data_broker_8hpp.html" target="_top" xlink:title=" ">
<polygon fill="none" stroke="black" points="576,-95 576,-136 694,-136 694,-95 576,-95"/>
<text text-anchor="start" x="584" y="-124" font-family="Helvetica,sans-Serif" font-size="10.00">Components/Objects</text>
<text text-anchor="start" x="584" y="-113" font-family="Helvetica,sans-Serif" font-size="10.00">/DataBroker/include</text>
<text text-anchor="middle" x="635" y="-102" font-family="Helvetica,sans-Serif" font-size="10.00">/DataBroker.hpp</text>
</a>
</g>
</g>
<!-- Node3&#45;&gt;Node12 -->
<g id="edge12" class="edge">
<title>Node3&#45;&gt;Node12</title>
<path fill="none" stroke="midnightblue" d="M909.44,-176.3C840.79,-161.35 751.85,-141.96 694.12,-129.38"/>
<polygon fill="midnightblue" stroke="midnightblue" points="908.9,-179.77 919.42,-178.48 910.39,-172.93 908.9,-179.77"/>
</g>
<!-- Node5 -->
<g id="node5" class="node">
<title>Node5</title>
<g id="a_node5"><a xlink:href="../../dd/dde/_distance_sensor_controller_8cpp.html" target="_top" xlink:title=" ">
<polygon fill="none" stroke="black" points="809,-6 809,-47 989,-47 989,-6 809,-6"/>
<text text-anchor="start" x="817" y="-35" font-family="Helvetica,sans-Serif" font-size="10.00">Components/Controller</text>
<text text-anchor="start" x="817" y="-24" font-family="Helvetica,sans-Serif" font-size="10.00">/DistanceSensorController</text>
<text text-anchor="middle" x="899" y="-13" font-family="Helvetica,sans-Serif" font-size="10.00">/src/DistanceSensorController.cpp</text>
</a>
</g>
</g>
<!-- Node4&#45;&gt;Node5 -->
<g id="edge4" class="edge">
<title>Node4&#45;&gt;Node5</title>
<path fill="none" stroke="midnightblue" d="M886.48,-84.81C889.2,-72.38 892.28,-58.27 894.71,-47.16"/>
<polygon fill="midnightblue" stroke="midnightblue" points="883.03,-84.24 884.31,-94.76 889.86,-85.74 883.03,-84.24"/>
</g>
<!-- Node6 -->
<g id="node6" class="node">
<title>Node6</title>
<g id="a_node6"><a xlink:href="../../d7/d91/_distance_sensor_controller__test_8cpp.html" target="_top" xlink:title=" ">
<polygon fill="none" stroke="black" points="1007.5,-0.5 1007.5,-52.5 1194.5,-52.5 1194.5,-0.5 1007.5,-0.5"/>
<text text-anchor="start" x="1015.5" y="-40.5" font-family="Helvetica,sans-Serif" font-size="10.00">Components/Controller</text>
<text text-anchor="start" x="1015.5" y="-29.5" font-family="Helvetica,sans-Serif" font-size="10.00">/DistanceSensorController</text>
<text text-anchor="start" x="1015.5" y="-18.5" font-family="Helvetica,sans-Serif" font-size="10.00">/test/test/DistanceSensorController</text>
<text text-anchor="middle" x="1101" y="-7.5" font-family="Helvetica,sans-Serif" font-size="10.00">_test.cpp</text>
</a>
</g>
</g>
<!-- Node4&#45;&gt;Node6 -->
<g id="edge5" class="edge">
<title>Node4&#45;&gt;Node6</title>
<path fill="none" stroke="midnightblue" d="M939.18,-91.2C969.47,-79.28 1006.37,-64.75 1037.28,-52.58"/>
<polygon fill="midnightblue" stroke="midnightblue" points="937.62,-88.06 929.6,-94.98 940.18,-94.57 937.62,-88.06"/>
</g>
<!-- Node7 -->
<g id="node7" class="node">
<title>Node7</title>
<g id="a_node7"><a xlink:href="../../da/d75/_data_broker__test_8cpp.html" target="_top" xlink:title=" ">
<polygon fill="none" stroke="black" points="671.5,-6 671.5,-47 790.5,-47 790.5,-6 671.5,-6"/>
<text text-anchor="start" x="679.5" y="-35" font-family="Helvetica,sans-Serif" font-size="10.00">Components/Objects</text>
<text text-anchor="start" x="679.5" y="-24" font-family="Helvetica,sans-Serif" font-size="10.00">/DataBroker/test/test</text>
<text text-anchor="middle" x="731" y="-13" font-family="Helvetica,sans-Serif" font-size="10.00">/DataBroker_test.cpp</text>
</a>
</g>
</g>
<!-- Node4&#45;&gt;Node7 -->
<g id="edge6" class="edge">
<title>Node4&#45;&gt;Node7</title>
<path fill="none" stroke="midnightblue" d="M837.64,-89.77C814.48,-76.24 786.2,-59.73 764.58,-47.11"/>
<polygon fill="midnightblue" stroke="midnightblue" points="836.16,-92.96 846.56,-94.98 839.69,-86.91 836.16,-92.96"/>
</g>
<!-- Node10 -->
<g id="node10" class="node">
<title>Node10</title>
<g id="a_node10"><a xlink:href="../../dc/d0f/_sensor_controller_base___m_o_c_k_8cpp.html" target="_top" xlink:title=" ">
<polygon fill="none" stroke="black" points="1415,-0.5 1415,-52.5 1591,-52.5 1591,-0.5 1415,-0.5"/>
<text text-anchor="start" x="1423" y="-40.5" font-family="Helvetica,sans-Serif" font-size="10.00">Components/Interfaces</text>
<text text-anchor="start" x="1423" y="-29.5" font-family="Helvetica,sans-Serif" font-size="10.00">/SensorControllerBase</text>
<text text-anchor="start" x="1423" y="-18.5" font-family="Helvetica,sans-Serif" font-size="10.00">/test/mock/SensorControllerBase</text>
<text text-anchor="middle" x="1503" y="-7.5" font-family="Helvetica,sans-Serif" font-size="10.00">_MOCK.cpp</text>
</a>
</g>
</g>
<!-- Node9&#45;&gt;Node10 -->
<g id="edge9" class="edge">
<title>Node9&#45;&gt;Node10</title>
<path fill="none" stroke="midnightblue" d="M1371.47,-85.29C1395.66,-74.67 1422.76,-62.76 1446.06,-52.52"/>
<polygon fill="midnightblue" stroke="midnightblue" points="1369.75,-82.23 1362,-89.45 1372.57,-88.63 1369.75,-82.23"/>
</g>
<!-- Node9&#45;&gt;Node11 -->
<g id="edge10" class="edge">
<title>Node9&#45;&gt;Node11</title>
<path fill="none" stroke="midnightblue" d="M1305,-79.16C1305,-68.21 1305,-56.55 1305,-47.08"/>
<polygon fill="midnightblue" stroke="midnightblue" points="1301.5,-79.34 1305,-89.34 1308.5,-79.34 1301.5,-79.34"/>
</g>
<!-- Node12&#45;&gt;Node7 -->
<g id="edge14" class="edge">
<title>Node12&#45;&gt;Node7</title>
<path fill="none" stroke="midnightblue" d="M664.5,-87.76C678.96,-74.66 696.06,-59.16 709.3,-47.16"/>
<polygon fill="midnightblue" stroke="midnightblue" points="661.84,-85.45 656.78,-94.76 666.54,-90.64 661.84,-85.45"/>
</g>
<!-- Node13 -->
<g id="node13" class="node">
<title>Node13</title>
<g id="a_node13"><a xlink:href="../../d4/ddc/_data_broker_8cpp.html" target="_top" xlink:title=" ">
<polygon fill="none" stroke="black" points="484.5,-11.5 484.5,-41.5 653.5,-41.5 653.5,-11.5 484.5,-11.5"/>
<text text-anchor="start" x="492.5" y="-29.5" font-family="Helvetica,sans-Serif" font-size="10.00">Components/Objects</text>
<text text-anchor="middle" x="569" y="-18.5" font-family="Helvetica,sans-Serif" font-size="10.00">/DataBroker/src/DataBroker.cpp</text>
</a>
</g>
</g>
<!-- Node12&#45;&gt;Node13 -->
<g id="edge13" class="edge">
<title>Node12&#45;&gt;Node13</title>
<path fill="none" stroke="midnightblue" d="M613.97,-86.78C602.61,-71.8 589.04,-53.92 579.81,-41.74"/>
<polygon fill="midnightblue" stroke="midnightblue" points="611.19,-88.91 620.02,-94.76 616.77,-84.68 611.19,-88.91"/>
</g>
<!-- Node14&#45;&gt;Node12 -->
<g id="edge17" class="edge">
<title>Node14&#45;&gt;Node12</title>
<path fill="none" stroke="midnightblue" d="M582.8,-171.04C593.75,-159.6 606.26,-146.53 616.29,-136.05"/>
<polygon fill="midnightblue" stroke="midnightblue" points="580.27,-168.63 575.88,-178.27 585.32,-173.47 580.27,-168.63"/>
</g>
<!-- Node15 -->
<g id="node15" class="node">
<title>Node15</title>
<g id="a_node15"><a xlink:href="../../dc/d1d/_service__test_8cpp.html" target="_top" xlink:title=" ">
<polygon fill="none" stroke="black" points="74,-95 74,-136 204,-136 204,-95 74,-95"/>
<text text-anchor="start" x="82" y="-124" font-family="Helvetica,sans-Serif" font-size="10.00">Components/Interfaces</text>
<text text-anchor="start" x="82" y="-113" font-family="Helvetica,sans-Serif" font-size="10.00">/ServiceBase/test/test</text>
<text text-anchor="middle" x="139" y="-102" font-family="Helvetica,sans-Serif" font-size="10.00">/Service_test.cpp</text>
</a>
</g>
</g>
<!-- Node14&#45;&gt;Node15 -->
<g id="edge16" class="edge">
<title>Node14&#45;&gt;Node15</title>
<path fill="none" stroke="midnightblue" d="M481.9,-189.52C411.7,-180.72 304.3,-164.98 213,-142 206.28,-140.31 199.3,-138.28 192.43,-136.11"/>
<polygon fill="midnightblue" stroke="midnightblue" points="481.62,-193.01 491.98,-190.77 482.48,-186.07 481.62,-193.01"/>
</g>
<!-- Node16 -->
<g id="node16" class="node">
<title>Node16</title>
<g id="a_node16"><a xlink:href="../../d2/d1e/_online_detector__service_8hpp.html" target="_top" xlink:title=" ">
<polygon fill="none" stroke="black" points="222.5,-95 222.5,-136 377.5,-136 377.5,-95 222.5,-95"/>
<text text-anchor="start" x="230.5" y="-124" font-family="Helvetica,sans-Serif" font-size="10.00">Components/Service</text>
<text text-anchor="start" x="230.5" y="-113" font-family="Helvetica,sans-Serif" font-size="10.00">/OnlineDetector/include</text>
<text text-anchor="middle" x="300" y="-102" font-family="Helvetica,sans-Serif" font-size="10.00">/OnlineDetector_service.hpp</text>
</a>
</g>
</g>
<!-- Node14&#45;&gt;Node16 -->
<g id="edge18" class="edge">
<title>Node14&#45;&gt;Node16</title>
<path fill="none" stroke="midnightblue" d="M485.73,-175.4C446.72,-163.03 398.86,-147.85 361.5,-136"/>
<polygon fill="midnightblue" stroke="midnightblue" points="484.85,-178.79 495.44,-178.48 486.97,-172.12 484.85,-178.79"/>
</g>
<!-- Node19 -->
<g id="node19" class="node">
<title>Node19</title>
<g id="a_node19"><a xlink:href="../../dd/d22/_water_estimator___service_8hpp.html" target="_top" xlink:title=" ">
<polygon fill="none" stroke="black" points="399,-95 399,-136 557,-136 557,-95 399,-95"/>
<text text-anchor="start" x="407" y="-124" font-family="Helvetica,sans-Serif" font-size="10.00">Components/Service</text>
<text text-anchor="start" x="407" y="-113" font-family="Helvetica,sans-Serif" font-size="10.00">/WaterEstimator/include</text>
<text text-anchor="middle" x="478" y="-102" font-family="Helvetica,sans-Serif" font-size="10.00">/WaterEstimator_Service.hpp</text>
</a>
</g>
</g>
<!-- Node14&#45;&gt;Node19 -->
<g id="edge21" class="edge">
<title>Node14&#45;&gt;Node19</title>
<path fill="none" stroke="midnightblue" d="M530.87,-171.04C519.78,-159.6 507.11,-146.53 496.95,-136.05"/>
<polygon fill="midnightblue" stroke="midnightblue" points="528.4,-173.53 537.88,-178.27 533.43,-168.65 528.4,-173.53"/>
</g>
<!-- Node17 -->
<g id="node17" class="node">
<title>Node17</title>
<g id="a_node17"><a xlink:href="../../d7/d24/_online_detector__service_8cpp.html" target="_top" xlink:title=" ">
<polygon fill="none" stroke="black" points="0,-6 0,-47 154,-47 154,-6 0,-6"/>
<text text-anchor="start" x="8" y="-35" font-family="Helvetica,sans-Serif" font-size="10.00">Components/Service</text>
<text text-anchor="start" x="8" y="-24" font-family="Helvetica,sans-Serif" font-size="10.00">/OnlineDetector/src</text>
<text text-anchor="middle" x="77" y="-13" font-family="Helvetica,sans-Serif" font-size="10.00">/OnlineDetector_service.cpp</text>
</a>
</g>
</g>
<!-- Node16&#45;&gt;Node17 -->
<g id="edge19" class="edge">
<title>Node16&#45;&gt;Node17</title>
<path fill="none" stroke="midnightblue" d="M240.25,-91.19C204.95,-77.42 160.76,-60.18 127.26,-47.11"/>
<polygon fill="midnightblue" stroke="midnightblue" points="239.37,-94.6 249.95,-94.98 241.91,-88.08 239.37,-94.6"/>
</g>
<!-- Node18 -->
<g id="node18" class="node">
<title>Node18</title>
<g id="a_node18"><a xlink:href="../../db/df8/_service_2_online_detector_2test_2test_2simple__test_8cpp.html" target="_top" xlink:title=" ">
<polygon fill="none" stroke="black" points="172.5,-6 172.5,-47 291.5,-47 291.5,-6 172.5,-6"/>
<text text-anchor="start" x="180.5" y="-35" font-family="Helvetica,sans-Serif" font-size="10.00">Components/Service</text>
<text text-anchor="start" x="180.5" y="-24" font-family="Helvetica,sans-Serif" font-size="10.00">/OnlineDetector/test</text>
<text text-anchor="middle" x="232" y="-13" font-family="Helvetica,sans-Serif" font-size="10.00">/test/simple_test.cpp</text>
</a>
</g>
</g>
<!-- Node16&#45;&gt;Node18 -->
<g id="edge20" class="edge">
<title>Node16&#45;&gt;Node18</title>
<path fill="none" stroke="midnightblue" d="M278.24,-86.67C268.19,-73.8 256.49,-58.83 247.37,-47.16"/>
<polygon fill="midnightblue" stroke="midnightblue" points="275.65,-89.03 284.57,-94.76 281.17,-84.72 275.65,-89.03"/>
</g>
<!-- Node20 -->
<g id="node20" class="node">
<title>Node20</title>
<g id="a_node20"><a xlink:href="../../dd/dd3/_water_estimator___service_8cpp.html" target="_top" xlink:title=" ">
<polygon fill="none" stroke="black" points="309.5,-6 309.5,-47 466.5,-47 466.5,-6 309.5,-6"/>
<text text-anchor="start" x="317.5" y="-35" font-family="Helvetica,sans-Serif" font-size="10.00">Components/Service</text>
<text text-anchor="start" x="317.5" y="-24" font-family="Helvetica,sans-Serif" font-size="10.00">/WaterEstimator/src</text>
<text text-anchor="middle" x="388" y="-13" font-family="Helvetica,sans-Serif" font-size="10.00">/WaterEstimator_Service.cpp</text>
</a>
</g>
</g>
<!-- Node19&#45;&gt;Node20 -->
<g id="edge22" class="edge">
<title>Node19&#45;&gt;Node20</title>
<path fill="none" stroke="midnightblue" d="M450.34,-87.76C436.79,-74.66 420.75,-59.16 408.34,-47.16"/>
<polygon fill="midnightblue" stroke="midnightblue" points="447.96,-90.32 457.58,-94.76 452.82,-85.29 447.96,-90.32"/>
</g>
<!-- Node24 -->
<g id="node24" class="node">
<title>Node24</title>
<g id="a_node24"><a xlink:href="../../dd/ddd/_maintainer_8cpp.html" target="_top" xlink:title=" ">
<polygon fill="none" stroke="black" points="1547,-100.5 1547,-130.5 1711,-130.5 1711,-100.5 1547,-100.5"/>
<text text-anchor="start" x="1555" y="-118.5" font-family="Helvetica,sans-Serif" font-size="10.00">Components/Objects</text>
<text text-anchor="middle" x="1629" y="-107.5" font-family="Helvetica,sans-Serif" font-size="10.00">/Maintainer/src/Maintainer.cpp</text>
</a>
</g>
</g>
<!-- Node23&#45;&gt;Node24 -->
<g id="edge26" class="edge">
<title>Node23&#45;&gt;Node24</title>
<path fill="none" stroke="midnightblue" d="M1543.88,-172.9C1564.92,-158.96 1590.32,-142.13 1607.87,-130.5"/>
<polygon fill="midnightblue" stroke="midnightblue" points="1541.86,-170.04 1535.46,-178.48 1545.73,-175.87 1541.86,-170.04"/>
</g>
<!-- Node25 -->
<g id="node25" class="node">
<title>Node25</title>
<g id="a_node25"><a xlink:href="../../d8/d4a/maintainer__test_8cpp.html" target="_top" xlink:title=" ">
<polygon fill="none" stroke="black" points="1411,-95 1411,-136 1529,-136 1529,-95 1411,-95"/>
<text text-anchor="start" x="1419" y="-124" font-family="Helvetica,sans-Serif" font-size="10.00">Components/Objects</text>
<text text-anchor="start" x="1419" y="-113" font-family="Helvetica,sans-Serif" font-size="10.00">/Maintainer/test/test</text>
<text text-anchor="middle" x="1470" y="-102" font-family="Helvetica,sans-Serif" font-size="10.00">/maintainer_test.cpp</text>
</a>
</g>
</g>
<!-- Node23&#45;&gt;Node25 -->
<g id="edge27" class="edge">
<title>Node23&#45;&gt;Node25</title>
<path fill="none" stroke="midnightblue" d="M1493.22,-169.06C1488.38,-158.12 1483,-145.93 1478.63,-136.05"/>
<polygon fill="midnightblue" stroke="midnightblue" points="1490.04,-170.54 1497.29,-178.27 1496.45,-167.71 1490.04,-170.54"/>
</g>
<!-- Node23&#45;&gt;Node26 -->
<g id="edge28" class="edge">
<title>Node23&#45;&gt;Node26</title>
<path fill="none" stroke="midnightblue" d="M1575.22,-179C1576.49,-178.67 1577.75,-178.33 1579,-178 1641.52,-161.45 1657.74,-159.5 1720,-142 1726.68,-140.12 1733.63,-138.1 1740.55,-136.04"/>
<polygon fill="midnightblue" stroke="midnightblue" points="1574.09,-175.68 1565.34,-181.65 1575.9,-182.44 1574.09,-175.68"/>
</g>
<!-- Node27 -->
<g id="node27" class="node">
<title>Node27</title>
<g id="a_node27"><a xlink:href="../../d2/d77/_active_current_sensor_8cpp.html" target="_top" xlink:title=" ">
<polygon fill="none" stroke="black" points="1716.5,-6 1716.5,-47 1889.5,-47 1889.5,-6 1716.5,-6"/>
<text text-anchor="start" x="1724.5" y="-35" font-family="Helvetica,sans-Serif" font-size="10.00">Components/Sensor/Active</text>
<text text-anchor="start" x="1724.5" y="-24" font-family="Helvetica,sans-Serif" font-size="10.00">CurrentSensor/src/ActiveCurrent</text>
<text text-anchor="middle" x="1803" y="-13" font-family="Helvetica,sans-Serif" font-size="10.00">Sensor.cpp</text>
</a>
</g>
</g>
<!-- Node26&#45;&gt;Node27 -->
<g id="edge29" class="edge">
<title>Node26&#45;&gt;Node27</title>
<path fill="none" stroke="midnightblue" d="M1803,-84.44C1803,-72.1 1803,-58.16 1803,-47.16"/>
<polygon fill="midnightblue" stroke="midnightblue" points="1799.5,-84.76 1803,-94.76 1806.5,-84.76 1799.5,-84.76"/>
</g>
<!-- Node29 -->
<g id="node29" class="node">
<title>Node29</title>
<g id="a_node29"><a xlink:href="../../d0/db0/hal__mqtt__log_8cpp.html" target="_top" xlink:title=" ">
<polygon fill="none" stroke="black" points="1621,-178.5 1621,-219.5 1739,-219.5 1739,-178.5 1621,-178.5"/>
<text text-anchor="start" x="1629" y="-207.5" font-family="Helvetica,sans-Serif" font-size="10.00">Components/Objects</text>
<text text-anchor="start" x="1629" y="-196.5" font-family="Helvetica,sans-Serif" font-size="10.00">/Logger/src/hal_mqtt</text>
<text text-anchor="middle" x="1680" y="-185.5" font-family="Helvetica,sans-Serif" font-size="10.00">_log.cpp</text>
</a>
</g>
</g>
<!-- Node28&#45;&gt;Node29 -->
<g id="edge33" class="edge">
<title>Node28&#45;&gt;Node29</title>
<path fill="none" stroke="midnightblue" d="M1680,-246.3C1680,-237.3 1680,-227.65 1680,-219.51"/>
<polygon fill="midnightblue" stroke="midnightblue" points="1676.5,-246.43 1680,-256.43 1683.5,-246.43 1676.5,-246.43"/>
</g>
</g>
</svg>
