<?xml version="1.0" encoding="UTF-8" standalone="no"?>
<!DOCTYPE svg PUBLIC "-//W3C//DTD SVG 1.1//EN"
 "http://www.w3.org/Graphics/SVG/1.1/DTD/svg11.dtd">
<!-- Generated by graphviz version 2.43.0 (0)
 -->
<!-- Title: Components/Protocols/MQTT/include/mqtt_api_v2.hpp Pages: 1 -->
<svg width="795pt" height="284pt"
 viewBox="0.00 0.00 795.00 284.00" xmlns="http://www.w3.org/2000/svg" xmlns:xlink="http://www.w3.org/1999/xlink">
<g id="graph0" class="graph" transform="scale(1 1) rotate(0) translate(4 280)">
<title>Components/Protocols/MQTT/include/mqtt_api_v2.hpp</title>
<!-- Node1 -->
<g id="node1" class="node">
<title>Node1</title>
<g id="a_node1"><a xlink:title=" ">
<polygon fill="#bfbfbf" stroke="black" points="399.5,-234.5 399.5,-275.5 532.5,-275.5 532.5,-234.5 399.5,-234.5"/>
<text text-anchor="start" x="407.5" y="-263.5" font-family="Helvetica,sans-Serif" font-size="10.00">Components/Protocols</text>
<text text-anchor="start" x="407.5" y="-252.5" font-family="Helvetica,sans-Serif" font-size="10.00">/MQTT/include/mqtt_api</text>
<text text-anchor="middle" x="466" y="-241.5" font-family="Helvetica,sans-Serif" font-size="10.00">_v2.hpp</text>
</a>
</g>
</g>
<!-- Node2 -->
<g id="node2" class="node">
<title>Node2</title>
<g id="a_node2"><a xlink:href="../../d7/d44/hal__mqtt__log_8hpp.html" target="_top" xlink:title=" ">
<polygon fill="none" stroke="black" points="92,-156.5 92,-197.5 210,-197.5 210,-156.5 92,-156.5"/>
<text text-anchor="start" x="100" y="-185.5" font-family="Helvetica,sans-Serif" font-size="10.00">Components/Objects</text>
<text text-anchor="start" x="100" y="-174.5" font-family="Helvetica,sans-Serif" font-size="10.00">/Logger/include/hal</text>
<text text-anchor="middle" x="151" y="-163.5" font-family="Helvetica,sans-Serif" font-size="10.00">_mqtt_log.hpp</text>
</a>
</g>
</g>
<!-- Node1&#45;&gt;Node2 -->
<g id="edge1" class="edge">
<title>Node1&#45;&gt;Node2</title>
<path fill="none" stroke="midnightblue" d="M389.45,-235.53C334.22,-222.2 260.73,-204.48 210.01,-192.24"/>
<polygon fill="midnightblue" stroke="midnightblue" points="388.65,-238.94 399.2,-237.88 390.3,-232.13 388.65,-238.94"/>
</g>
<!-- Node4 -->
<g id="node4" class="node">
<title>Node4</title>
<g id="a_node4"><a xlink:href="../../d0/d6a/_maintainer_8hpp.html" target="_top" xlink:title=" ">
<polygon fill="none" stroke="black" points="320,-156.5 320,-197.5 438,-197.5 438,-156.5 320,-156.5"/>
<text text-anchor="start" x="328" y="-185.5" font-family="Helvetica,sans-Serif" font-size="10.00">Components/Objects</text>
<text text-anchor="start" x="328" y="-174.5" font-family="Helvetica,sans-Serif" font-size="10.00">/Maintainer/include</text>
<text text-anchor="middle" x="379" y="-163.5" font-family="Helvetica,sans-Serif" font-size="10.00">/Maintainer.hpp</text>
</a>
</g>
</g>
<!-- Node1&#45;&gt;Node4 -->
<g id="edge3" class="edge">
<title>Node1&#45;&gt;Node4</title>
<path fill="none" stroke="midnightblue" d="M435.98,-227.78C424.61,-217.84 411.87,-206.72 401.33,-197.51"/>
<polygon fill="midnightblue" stroke="midnightblue" points="433.76,-230.49 443.6,-234.43 438.37,-225.21 433.76,-230.49"/>
</g>
<!-- Node7 -->
<g id="node7" class="node">
<title>Node7</title>
<g id="a_node7"><a xlink:href="../../dd/d82/_active_current_sensor_8hpp.html" target="_top" xlink:title=" ">
<polygon fill="none" stroke="black" points="456,-78.5 456,-119.5 604,-119.5 604,-78.5 456,-78.5"/>
<text text-anchor="start" x="464" y="-107.5" font-family="Helvetica,sans-Serif" font-size="10.00">Components/Sensor/Active</text>
<text text-anchor="start" x="464" y="-96.5" font-family="Helvetica,sans-Serif" font-size="10.00">CurrentSensor/include</text>
<text text-anchor="middle" x="530" y="-85.5" font-family="Helvetica,sans-Serif" font-size="10.00">/ActiveCurrentSensor.hpp</text>
</a>
</g>
</g>
<!-- Node1&#45;&gt;Node7 -->
<g id="edge10" class="edge">
<title>Node1&#45;&gt;Node7</title>
<path fill="none" stroke="midnightblue" d="M467.57,-224.23C469.55,-204.17 474,-177.55 484,-156 490.25,-142.53 500.51,-129.58 509.76,-119.54"/>
<polygon fill="midnightblue" stroke="midnightblue" points="464.07,-224.09 466.73,-234.35 471.05,-224.67 464.07,-224.09"/>
</g>
<!-- Node9 -->
<g id="node9" class="node">
<title>Node9</title>
<g id="a_node9"><a xlink:href="../../d3/dc1/mqtt__api__v2_8cpp.html" target="_top" xlink:title=" ">
<polygon fill="none" stroke="black" points="493.5,-162 493.5,-192 642.5,-192 642.5,-162 493.5,-162"/>
<text text-anchor="start" x="501.5" y="-180" font-family="Helvetica,sans-Serif" font-size="10.00">Components/Protocols</text>
<text text-anchor="middle" x="568" y="-169" font-family="Helvetica,sans-Serif" font-size="10.00">/MQTT/src/mqtt_api_v2.cpp</text>
</a>
</g>
</g>
<!-- Node1&#45;&gt;Node9 -->
<g id="edge8" class="edge">
<title>Node1&#45;&gt;Node9</title>
<path fill="none" stroke="midnightblue" d="M500.46,-228.32C516.64,-216.27 535.3,-202.36 548.91,-192.23"/>
<polygon fill="midnightblue" stroke="midnightblue" points="498.2,-225.65 492.27,-234.43 502.38,-231.26 498.2,-225.65"/>
</g>
<!-- Node10 -->
<g id="node10" class="node">
<title>Node10</title>
<g id="a_node10"><a xlink:href="../../df/df3/mqtt__v2__test_8cpp.html" target="_top" xlink:title=" ">
<polygon fill="none" stroke="black" points="661,-156.5 661,-197.5 787,-197.5 787,-156.5 661,-156.5"/>
<text text-anchor="start" x="669" y="-185.5" font-family="Helvetica,sans-Serif" font-size="10.00">Components/Protocols</text>
<text text-anchor="start" x="669" y="-174.5" font-family="Helvetica,sans-Serif" font-size="10.00">/MQTT/test/test/mqtt</text>
<text text-anchor="middle" x="724" y="-163.5" font-family="Helvetica,sans-Serif" font-size="10.00">_v2_test.cpp</text>
</a>
</g>
</g>
<!-- Node1&#45;&gt;Node10 -->
<g id="edge9" class="edge">
<title>Node1&#45;&gt;Node10</title>
<path fill="none" stroke="midnightblue" d="M542.38,-231.5C580.12,-220.38 625.13,-207.13 660.89,-196.59"/>
<polygon fill="midnightblue" stroke="midnightblue" points="541.04,-228.24 532.44,-234.43 543.02,-234.96 541.04,-228.24"/>
</g>
<!-- Node3 -->
<g id="node3" class="node">
<title>Node3</title>
<g id="a_node3"><a xlink:href="../../d0/db0/hal__mqtt__log_8cpp.html" target="_top" xlink:title=" ">
<polygon fill="none" stroke="black" points="0,-78.5 0,-119.5 118,-119.5 118,-78.5 0,-78.5"/>
<text text-anchor="start" x="8" y="-107.5" font-family="Helvetica,sans-Serif" font-size="10.00">Components/Objects</text>
<text text-anchor="start" x="8" y="-96.5" font-family="Helvetica,sans-Serif" font-size="10.00">/Logger/src/hal_mqtt</text>
<text text-anchor="middle" x="59" y="-85.5" font-family="Helvetica,sans-Serif" font-size="10.00">_log.cpp</text>
</a>
</g>
</g>
<!-- Node2&#45;&gt;Node3 -->
<g id="edge2" class="edge">
<title>Node2&#45;&gt;Node3</title>
<path fill="none" stroke="midnightblue" d="M119.26,-149.78C107.23,-139.84 93.76,-128.72 82.61,-119.51"/>
<polygon fill="midnightblue" stroke="midnightblue" points="117.37,-152.76 127.31,-156.43 121.83,-147.36 117.37,-152.76"/>
</g>
<!-- Node5 -->
<g id="node5" class="node">
<title>Node5</title>
<g id="a_node5"><a xlink:href="../../dd/ddd/_maintainer_8cpp.html" target="_top" xlink:title=" ">
<polygon fill="none" stroke="black" points="136.5,-84 136.5,-114 301.5,-114 301.5,-84 136.5,-84"/>
<text text-anchor="start" x="144.5" y="-102" font-family="Helvetica,sans-Serif" font-size="10.00">Components/Objects</text>
<text text-anchor="middle" x="219" y="-91" font-family="Helvetica,sans-Serif" font-size="10.00">/Maintainer/src/Maintainer.cpp</text>
</a>
</g>
</g>
<!-- Node4&#45;&gt;Node5 -->
<g id="edge4" class="edge">
<title>Node4&#45;&gt;Node5</title>
<path fill="none" stroke="midnightblue" d="M328.75,-152.13C302.54,-139.68 271.36,-124.87 248.95,-114.23"/>
<polygon fill="midnightblue" stroke="midnightblue" points="327.26,-155.3 337.8,-156.43 330.26,-148.98 327.26,-155.3"/>
</g>
<!-- Node6 -->
<g id="node6" class="node">
<title>Node6</title>
<g id="a_node6"><a xlink:href="../../d8/d4a/maintainer__test_8cpp.html" target="_top" xlink:title=" ">
<polygon fill="none" stroke="black" points="320,-78.5 320,-119.5 438,-119.5 438,-78.5 320,-78.5"/>
<text text-anchor="start" x="328" y="-107.5" font-family="Helvetica,sans-Serif" font-size="10.00">Components/Objects</text>
<text text-anchor="start" x="328" y="-96.5" font-family="Helvetica,sans-Serif" font-size="10.00">/Maintainer/test/test</text>
<text text-anchor="middle" x="379" y="-85.5" font-family="Helvetica,sans-Serif" font-size="10.00">/maintainer_test.cpp</text>
</a>
</g>
</g>
<!-- Node4&#45;&gt;Node6 -->
<g id="edge5" class="edge">
<title>Node4&#45;&gt;Node6</title>
<path fill="none" stroke="midnightblue" d="M379,-146.3C379,-137.3 379,-127.65 379,-119.51"/>
<polygon fill="midnightblue" stroke="midnightblue" points="375.5,-146.43 379,-156.43 382.5,-146.43 375.5,-146.43"/>
</g>
<!-- Node4&#45;&gt;Node7 -->
<g id="edge6" class="edge">
<title>Node4&#45;&gt;Node7</title>
<path fill="none" stroke="midnightblue" d="M426.87,-151.91C447.63,-141.46 471.63,-129.38 491.25,-119.51"/>
<polygon fill="midnightblue" stroke="midnightblue" points="425.25,-148.81 417.89,-156.43 428.39,-155.06 425.25,-148.81"/>
</g>
<!-- Node8 -->
<g id="node8" class="node">
<title>Node8</title>
<g id="a_node8"><a xlink:href="../../d2/d77/_active_current_sensor_8cpp.html" target="_top" xlink:title=" ">
<polygon fill="none" stroke="black" points="443.5,-0.5 443.5,-41.5 616.5,-41.5 616.5,-0.5 443.5,-0.5"/>
<text text-anchor="start" x="451.5" y="-29.5" font-family="Helvetica,sans-Serif" font-size="10.00">Components/Sensor/Active</text>
<text text-anchor="start" x="451.5" y="-18.5" font-family="Helvetica,sans-Serif" font-size="10.00">CurrentSensor/src/ActiveCurrent</text>
<text text-anchor="middle" x="530" y="-7.5" font-family="Helvetica,sans-Serif" font-size="10.00">Sensor.cpp</text>
</a>
</g>
</g>
<!-- Node7&#45;&gt;Node8 -->
<g id="edge7" class="edge">
<title>Node7&#45;&gt;Node8</title>
<path fill="none" stroke="midnightblue" d="M530,-68.3C530,-59.3 530,-49.65 530,-41.51"/>
<polygon fill="midnightblue" stroke="midnightblue" points="526.5,-68.43 530,-78.43 533.5,-68.43 526.5,-68.43"/>
</g>
</g>
</svg>
