<?xml version="1.0" encoding="UTF-8" standalone="no"?>
<!DOCTYPE svg PUBLIC "-//W3C//DTD SVG 1.1//EN"
 "http://www.w3.org/Graphics/SVG/1.1/DTD/svg11.dtd">
<!-- Generated by graphviz version 2.43.0 (0)
 -->
<!-- Title: Components/Protocols/MQTT/include/mqtt_api_v2.hpp Pages: 1 -->
<svg width="1618pt" height="384pt"
 viewBox="0.00 0.00 1618.00 384.00" xmlns="http://www.w3.org/2000/svg" xmlns:xlink="http://www.w3.org/1999/xlink">
<g id="graph0" class="graph" transform="scale(1 1) rotate(0) translate(4 380)">
<title>Components/Protocols/MQTT/include/mqtt_api_v2.hpp</title>
<!-- Node1 -->
<g id="node1" class="node">
<title>Node1</title>
<g id="a_node1"><a xlink:title=" ">
<polygon fill="#bfbfbf" stroke="black" points="1055.5,-334.5 1055.5,-375.5 1188.5,-375.5 1188.5,-334.5 1055.5,-334.5"/>
<text text-anchor="start" x="1063.5" y="-363.5" font-family="Helvetica,sans-Serif" font-size="10.00">Components/Protocols</text>
<text text-anchor="start" x="1063.5" y="-352.5" font-family="Helvetica,sans-Serif" font-size="10.00">/MQTT/include/mqtt_api</text>
<text text-anchor="middle" x="1122" y="-341.5" font-family="Helvetica,sans-Serif" font-size="10.00">_v2.hpp</text>
</a>
</g>
</g>
<!-- Node2 -->
<g id="node2" class="node">
<title>Node2</title>
<g id="a_node2"><a xlink:href="../../d3/d0d/_error_code_parser_8hpp.html" target="_top" xlink:title=" ">
<polygon fill="none" stroke="black" points="675.5,-256.5 675.5,-297.5 794.5,-297.5 794.5,-256.5 675.5,-256.5"/>
<text text-anchor="start" x="683.5" y="-285.5" font-family="Helvetica,sans-Serif" font-size="10.00">Components/Objects</text>
<text text-anchor="start" x="683.5" y="-274.5" font-family="Helvetica,sans-Serif" font-size="10.00">/ErrorHandler/include</text>
<text text-anchor="middle" x="735" y="-263.5" font-family="Helvetica,sans-Serif" font-size="10.00">/ErrorCodeParser.hpp</text>
</a>
</g>
</g>
<!-- Node1&#45;&gt;Node2 -->
<g id="edge1" class="edge">
<title>Node1&#45;&gt;Node2</title>
<path fill="none" stroke="midnightblue" d="M1045.33,-338.94C971.69,-324.48 861.96,-302.93 794.63,-289.71"/>
<polygon fill="midnightblue" stroke="midnightblue" points="1044.99,-342.44 1055.47,-340.94 1046.33,-335.57 1044.99,-342.44"/>
</g>
<!-- Node3 -->
<g id="node3" class="node">
<title>Node3</title>
<g id="a_node3"><a xlink:href="../../d9/d1c/_sensor_controller_base_8hpp.html" target="_top" xlink:title=" ">
<polygon fill="none" stroke="black" points="310,-178.5 310,-219.5 494,-219.5 494,-178.5 310,-178.5"/>
<text text-anchor="start" x="318" y="-207.5" font-family="Helvetica,sans-Serif" font-size="10.00">Components/Interfaces</text>
<text text-anchor="start" x="318" y="-196.5" font-family="Helvetica,sans-Serif" font-size="10.00">/SensorControllerBase</text>
<text text-anchor="middle" x="402" y="-185.5" font-family="Helvetica,sans-Serif" font-size="10.00">/include/SensorControllerBase.hpp</text>
</a>
</g>
</g>
<!-- Node1&#45;&gt;Node3 -->
<g id="edge18" class="edge">
<title>Node1&#45;&gt;Node3</title>
<path fill="none" stroke="midnightblue" d="M1045.11,-353.26C944.15,-350.55 762.22,-339.65 613,-298 547.06,-279.59 475.94,-242.6 435.4,-219.7"/>
<polygon fill="midnightblue" stroke="midnightblue" points="1045.13,-356.76 1055.22,-353.51 1045.31,-349.76 1045.13,-356.76"/>
</g>
<!-- Node14 -->
<g id="node14" class="node">
<title>Node14</title>
<g id="a_node14"><a xlink:href="../../d2/dc5/_service_base_8hpp.html" target="_top" xlink:title=" ">
<polygon fill="none" stroke="black" points="512,-178.5 512,-219.5 642,-219.5 642,-178.5 512,-178.5"/>
<text text-anchor="start" x="520" y="-207.5" font-family="Helvetica,sans-Serif" font-size="10.00">Components/Interfaces</text>
<text text-anchor="start" x="520" y="-196.5" font-family="Helvetica,sans-Serif" font-size="10.00">/ServiceBase/include</text>
<text text-anchor="middle" x="577" y="-185.5" font-family="Helvetica,sans-Serif" font-size="10.00">/ServiceBase.hpp</text>
</a>
</g>
</g>
<!-- Node1&#45;&gt;Node14 -->
<g id="edge19" class="edge">
<title>Node1&#45;&gt;Node14</title>
<path fill="none" stroke="midnightblue" d="M1045.1,-351C932.8,-345.54 730.3,-331.3 666,-298 631.31,-280.03 603.44,-242.71 588.64,-219.67"/>
<polygon fill="midnightblue" stroke="midnightblue" points="1045.19,-354.51 1055.35,-351.48 1045.53,-347.51 1045.19,-354.51"/>
</g>
<!-- Node17 -->
<g id="node17" class="node">
<title>Node17</title>
<g id="a_node17"><a xlink:href="../../d7/d44/hal__mqtt__log_8hpp.html" target="_top" xlink:title=" ">
<polygon fill="none" stroke="black" points="995,-256.5 995,-297.5 1113,-297.5 1113,-256.5 995,-256.5"/>
<text text-anchor="start" x="1003" y="-285.5" font-family="Helvetica,sans-Serif" font-size="10.00">Components/Objects</text>
<text text-anchor="start" x="1003" y="-274.5" font-family="Helvetica,sans-Serif" font-size="10.00">/Logger/include/hal</text>
<text text-anchor="middle" x="1054" y="-263.5" font-family="Helvetica,sans-Serif" font-size="10.00">_mqtt_log.hpp</text>
</a>
</g>
</g>
<!-- Node1&#45;&gt;Node17 -->
<g id="edge20" class="edge">
<title>Node1&#45;&gt;Node17</title>
<path fill="none" stroke="midnightblue" d="M1097.77,-326.92C1089.08,-317.2 1079.46,-306.45 1071.45,-297.51"/>
<polygon fill="midnightblue" stroke="midnightblue" points="1095.21,-329.31 1104.49,-334.43 1100.43,-324.64 1095.21,-329.31"/>
</g>
<!-- Node19 -->
<g id="node19" class="node">
<title>Node19</title>
<g id="a_node19"><a xlink:href="../../d0/d6a/_maintainer_8hpp.html" target="_top" xlink:title=" ">
<polygon fill="none" stroke="black" points="1143,-256.5 1143,-297.5 1261,-297.5 1261,-256.5 1143,-256.5"/>
<text text-anchor="start" x="1151" y="-285.5" font-family="Helvetica,sans-Serif" font-size="10.00">Components/Objects</text>
<text text-anchor="start" x="1151" y="-274.5" font-family="Helvetica,sans-Serif" font-size="10.00">/Maintainer/include</text>
<text text-anchor="middle" x="1202" y="-263.5" font-family="Helvetica,sans-Serif" font-size="10.00">/Maintainer.hpp</text>
</a>
</g>
</g>
<!-- Node1&#45;&gt;Node19 -->
<g id="edge22" class="edge">
<title>Node1&#45;&gt;Node19</title>
<path fill="none" stroke="midnightblue" d="M1149.9,-327.49C1160.28,-317.63 1171.87,-306.63 1181.47,-297.51"/>
<polygon fill="midnightblue" stroke="midnightblue" points="1147.44,-325 1142.6,-334.43 1152.26,-330.08 1147.44,-325"/>
</g>
<!-- Node22 -->
<g id="node22" class="node">
<title>Node22</title>
<g id="a_node22"><a xlink:href="../../dd/d82/_active_current_sensor_8hpp.html" target="_top" xlink:title=" ">
<polygon fill="none" stroke="black" points="1445,-178.5 1445,-219.5 1593,-219.5 1593,-178.5 1445,-178.5"/>
<text text-anchor="start" x="1453" y="-207.5" font-family="Helvetica,sans-Serif" font-size="10.00">Components/Sensor/Active</text>
<text text-anchor="start" x="1453" y="-196.5" font-family="Helvetica,sans-Serif" font-size="10.00">CurrentSensor/include</text>
<text text-anchor="middle" x="1519" y="-185.5" font-family="Helvetica,sans-Serif" font-size="10.00">/ActiveCurrentSensor.hpp</text>
</a>
</g>
</g>
<!-- Node1&#45;&gt;Node22 -->
<g id="edge29" class="edge">
<title>Node1&#45;&gt;Node22</title>
<path fill="none" stroke="midnightblue" d="M1198.25,-333.12C1222.43,-324.47 1248.46,-312.9 1270,-298 1290.46,-283.85 1285.84,-269.08 1307,-256 1313.13,-252.21 1386.25,-233.29 1444.93,-218.48"/>
<polygon fill="midnightblue" stroke="midnightblue" points="1197.04,-329.84 1188.74,-336.42 1199.33,-336.45 1197.04,-329.84"/>
</g>
<!-- Node24 -->
<g id="node24" class="node">
<title>Node24</title>
<g id="a_node24"><a xlink:href="../../d3/dc1/mqtt__api__v2_8cpp.html" target="_top" xlink:title=" ">
<polygon fill="none" stroke="black" points="1316.5,-262 1316.5,-292 1465.5,-292 1465.5,-262 1316.5,-262"/>
<text text-anchor="start" x="1324.5" y="-280" font-family="Helvetica,sans-Serif" font-size="10.00">Components/Protocols</text>
<text text-anchor="middle" x="1391" y="-269" font-family="Helvetica,sans-Serif" font-size="10.00">/MQTT/src/mqtt_api_v2.cpp</text>
</a>
</g>
</g>
<!-- Node1&#45;&gt;Node24 -->
<g id="edge27" class="edge">
<title>Node1&#45;&gt;Node24</title>
<path fill="none" stroke="midnightblue" d="M1198.74,-332.32C1244.58,-319.37 1301.47,-303.29 1341.44,-292"/>
<polygon fill="midnightblue" stroke="midnightblue" points="1197.51,-329.03 1188.84,-335.12 1199.41,-335.77 1197.51,-329.03"/>
</g>
<!-- Node25 -->
<g id="node25" class="node">
<title>Node25</title>
<g id="a_node25"><a xlink:href="../../df/df3/mqtt__v2__test_8cpp.html" target="_top" xlink:title=" ">
<polygon fill="none" stroke="black" points="1484,-256.5 1484,-297.5 1610,-297.5 1610,-256.5 1484,-256.5"/>
<text text-anchor="start" x="1492" y="-285.5" font-family="Helvetica,sans-Serif" font-size="10.00">Components/Protocols</text>
<text text-anchor="start" x="1492" y="-274.5" font-family="Helvetica,sans-Serif" font-size="10.00">/MQTT/test/test/mqtt</text>
<text text-anchor="middle" x="1547" y="-263.5" font-family="Helvetica,sans-Serif" font-size="10.00">_v2_test.cpp</text>
</a>
</g>
</g>
<!-- Node1&#45;&gt;Node25 -->
<g id="edge28" class="edge">
<title>Node1&#45;&gt;Node25</title>
<path fill="none" stroke="midnightblue" d="M1198.86,-344.25C1270.47,-334.57 1380.03,-318.28 1474,-298 1477.21,-297.31 1480.49,-296.56 1483.8,-295.77"/>
<polygon fill="midnightblue" stroke="midnightblue" points="1198.02,-340.83 1188.58,-345.62 1198.95,-347.76 1198.02,-340.83"/>
</g>
<!-- Node2&#45;&gt;Node3 -->
<g id="edge2" class="edge">
<title>Node2&#45;&gt;Node3</title>
<path fill="none" stroke="midnightblue" d="M665.71,-260.19C613.96,-248.37 542.92,-232.16 487.61,-219.54"/>
<polygon fill="midnightblue" stroke="midnightblue" points="664.94,-263.6 675.47,-262.41 666.5,-256.78 664.94,-263.6"/>
</g>
<!-- Node2&#45;&gt;Node14 -->
<g id="edge15" class="edge">
<title>Node2&#45;&gt;Node14</title>
<path fill="none" stroke="midnightblue" d="M685.21,-252.05C663.41,-241.57 638.17,-229.42 617.55,-219.51"/>
<polygon fill="midnightblue" stroke="midnightblue" points="683.78,-255.25 694.31,-256.43 686.82,-248.94 683.78,-255.25"/>
</g>
<!-- Node15 -->
<g id="node15" class="node">
<title>Node15</title>
<g id="a_node15"><a xlink:href="../../d2/df5/_error_code_parser_8cpp.html" target="_top" xlink:title=" ">
<polygon fill="none" stroke="black" points="660.5,-178.5 660.5,-219.5 809.5,-219.5 809.5,-178.5 660.5,-178.5"/>
<text text-anchor="start" x="668.5" y="-207.5" font-family="Helvetica,sans-Serif" font-size="10.00">Components/Objects</text>
<text text-anchor="start" x="668.5" y="-196.5" font-family="Helvetica,sans-Serif" font-size="10.00">/ErrorHandler/src/ErrorCode</text>
<text text-anchor="middle" x="735" y="-185.5" font-family="Helvetica,sans-Serif" font-size="10.00">Parser.cpp</text>
</a>
</g>
</g>
<!-- Node2&#45;&gt;Node15 -->
<g id="edge16" class="edge">
<title>Node2&#45;&gt;Node15</title>
<path fill="none" stroke="midnightblue" d="M735,-246.3C735,-237.3 735,-227.65 735,-219.51"/>
<polygon fill="midnightblue" stroke="midnightblue" points="731.5,-246.43 735,-256.43 738.5,-246.43 731.5,-246.43"/>
</g>
<!-- Node16 -->
<g id="node16" class="node">
<title>Node16</title>
<g id="a_node16"><a xlink:href="../../d9/db8/_error_code_parser__test_8cpp.html" target="_top" xlink:title=" ">
<polygon fill="none" stroke="black" points="827.5,-178.5 827.5,-219.5 970.5,-219.5 970.5,-178.5 827.5,-178.5"/>
<text text-anchor="start" x="835.5" y="-207.5" font-family="Helvetica,sans-Serif" font-size="10.00">Components/Objects</text>
<text text-anchor="start" x="835.5" y="-196.5" font-family="Helvetica,sans-Serif" font-size="10.00">/ErrorHandler/test/test</text>
<text text-anchor="middle" x="899" y="-185.5" font-family="Helvetica,sans-Serif" font-size="10.00">/ErrorCodeParser_test.cpp</text>
</a>
</g>
</g>
<!-- Node2&#45;&gt;Node16 -->
<g id="edge17" class="edge">
<title>Node2&#45;&gt;Node16</title>
<path fill="none" stroke="midnightblue" d="M786.38,-252.19C809.07,-241.67 835.41,-229.47 856.91,-219.51"/>
<polygon fill="midnightblue" stroke="midnightblue" points="784.84,-249.05 777.23,-256.43 787.78,-255.4 784.84,-249.05"/>
</g>
<!-- Node4 -->
<g id="node4" class="node">
<title>Node4</title>
<g id="a_node4"><a xlink:href="../../db/d12/_distance_sensor_controller_8hpp.html" target="_top" xlink:title=" ">
<polygon fill="none" stroke="black" points="504.5,-95 504.5,-136 707.5,-136 707.5,-95 504.5,-95"/>
<text text-anchor="start" x="512.5" y="-124" font-family="Helvetica,sans-Serif" font-size="10.00">Components/Controller</text>
<text text-anchor="start" x="512.5" y="-113" font-family="Helvetica,sans-Serif" font-size="10.00">/DistanceSensorController</text>
<text text-anchor="middle" x="606" y="-102" font-family="Helvetica,sans-Serif" font-size="10.00">/include/DistanceSensorController.hpp</text>
</a>
</g>
</g>
<!-- Node3&#45;&gt;Node4 -->
<g id="edge3" class="edge">
<title>Node3&#45;&gt;Node4</title>
<path fill="none" stroke="midnightblue" d="M460.16,-174.77C490.83,-162.51 528.03,-147.65 557.18,-136"/>
<polygon fill="midnightblue" stroke="midnightblue" points="458.85,-171.52 450.86,-178.48 461.45,-178.02 458.85,-171.52"/>
</g>
<!-- Node8 -->
<g id="node8" class="node">
<title>Node8</title>
<g id="a_node8"><a xlink:href="../../d2/d8d/_sensor_controller_base_8cpp.html" target="_top" xlink:title=" ">
<polygon fill="none" stroke="black" points="18,-95 18,-136 180,-136 180,-95 18,-95"/>
<text text-anchor="start" x="26" y="-124" font-family="Helvetica,sans-Serif" font-size="10.00">Components/Interfaces</text>
<text text-anchor="start" x="26" y="-113" font-family="Helvetica,sans-Serif" font-size="10.00">/SensorControllerBase</text>
<text text-anchor="middle" x="99" y="-102" font-family="Helvetica,sans-Serif" font-size="10.00">/src/SensorControllerBase.cpp</text>
</a>
</g>
</g>
<!-- Node3&#45;&gt;Node8 -->
<g id="edge7" class="edge">
<title>Node3&#45;&gt;Node8</title>
<path fill="none" stroke="midnightblue" d="M316.28,-175.86C277.39,-165.71 230.82,-153.42 189,-142 182.11,-140.12 174.92,-138.13 167.76,-136.13"/>
<polygon fill="midnightblue" stroke="midnightblue" points="315.44,-179.26 326,-178.39 317.21,-172.48 315.44,-179.26"/>
</g>
<!-- Node9 -->
<g id="node9" class="node">
<title>Node9</title>
<g id="a_node9"><a xlink:href="../../db/dc2/_sensor_controller_base___m_o_c_k_8hpp.html" target="_top" xlink:title=" ">
<polygon fill="none" stroke="black" points="198,-89.5 198,-141.5 374,-141.5 374,-89.5 198,-89.5"/>
<text text-anchor="start" x="206" y="-129.5" font-family="Helvetica,sans-Serif" font-size="10.00">Components/Interfaces</text>
<text text-anchor="start" x="206" y="-118.5" font-family="Helvetica,sans-Serif" font-size="10.00">/SensorControllerBase</text>
<text text-anchor="start" x="206" y="-107.5" font-family="Helvetica,sans-Serif" font-size="10.00">/test/mock/SensorControllerBase</text>
<text text-anchor="middle" x="286" y="-96.5" font-family="Helvetica,sans-Serif" font-size="10.00">_MOCK.hpp</text>
</a>
</g>
</g>
<!-- Node3&#45;&gt;Node9 -->
<g id="edge8" class="edge">
<title>Node3&#45;&gt;Node9</title>
<path fill="none" stroke="midnightblue" d="M365.8,-172.57C351.82,-162.74 335.86,-151.53 321.91,-141.73"/>
<polygon fill="midnightblue" stroke="midnightblue" points="364.02,-175.59 374.22,-178.48 368.04,-169.87 364.02,-175.59"/>
</g>
<!-- Node11 -->
<g id="node11" class="node">
<title>Node11</title>
<g id="a_node11"><a xlink:href="../../d8/d19/_sensor_controller_test_8cpp.html" target="_top" xlink:title=" ">
<polygon fill="none" stroke="black" points="194,-6 194,-47 378,-47 378,-6 194,-6"/>
<text text-anchor="start" x="202" y="-35" font-family="Helvetica,sans-Serif" font-size="10.00">Components/Interfaces</text>
<text text-anchor="start" x="202" y="-24" font-family="Helvetica,sans-Serif" font-size="10.00">/SensorControllerBase</text>
<text text-anchor="middle" x="286" y="-13" font-family="Helvetica,sans-Serif" font-size="10.00">/test/test/SensorControllerTest.cpp</text>
</a>
</g>
</g>
<!-- Node3&#45;&gt;Node11 -->
<g id="edge11" class="edge">
<title>Node3&#45;&gt;Node11</title>
<path fill="none" stroke="midnightblue" d="M403.13,-168.1C402.6,-144.74 398.64,-112.41 383,-89 370.87,-70.85 351.37,-56.97 333.02,-47.04"/>
<polygon fill="midnightblue" stroke="midnightblue" points="399.63,-168.15 403.16,-178.14 406.63,-168.13 399.63,-168.15"/>
</g>
<!-- Node12 -->
<g id="node12" class="node">
<title>Node12</title>
<g id="a_node12"><a xlink:href="../../d0/dc1/_data_broker_8hpp.html" target="_top" xlink:title=" ">
<polygon fill="none" stroke="black" points="801,-95 801,-136 919,-136 919,-95 801,-95"/>
<text text-anchor="start" x="809" y="-124" font-family="Helvetica,sans-Serif" font-size="10.00">Components/Objects</text>
<text text-anchor="start" x="809" y="-113" font-family="Helvetica,sans-Serif" font-size="10.00">/DataBroker/include</text>
<text text-anchor="middle" x="860" y="-102" font-family="Helvetica,sans-Serif" font-size="10.00">/DataBroker.hpp</text>
</a>
</g>
</g>
<!-- Node3&#45;&gt;Node12 -->
<g id="edge12" class="edge">
<title>Node3&#45;&gt;Node12</title>
<path fill="none" stroke="midnightblue" d="M504.21,-177.8C599.1,-160.51 624.54,-157.83 716,-142 743.89,-137.17 774.81,-131.71 800.82,-127.09"/>
<polygon fill="midnightblue" stroke="midnightblue" points="503.38,-174.39 494.18,-179.64 504.64,-181.28 503.38,-174.39"/>
</g>
<!-- Node5 -->
<g id="node5" class="node">
<title>Node5</title>
<g id="a_node5"><a xlink:href="../../dd/dde/_distance_sensor_controller_8cpp.html" target="_top" xlink:title=" ">
<polygon fill="none" stroke="black" points="396.5,-6 396.5,-47 577.5,-47 577.5,-6 396.5,-6"/>
<text text-anchor="start" x="404.5" y="-35" font-family="Helvetica,sans-Serif" font-size="10.00">Components/Controller</text>
<text text-anchor="start" x="404.5" y="-24" font-family="Helvetica,sans-Serif" font-size="10.00">/DistanceSensorController</text>
<text text-anchor="middle" x="487" y="-13" font-family="Helvetica,sans-Serif" font-size="10.00">/src/DistanceSensorController.cpp</text>
</a>
</g>
</g>
<!-- Node4&#45;&gt;Node5 -->
<g id="edge4" class="edge">
<title>Node4&#45;&gt;Node5</title>
<path fill="none" stroke="midnightblue" d="M571.21,-89.07C552.97,-75.73 530.97,-59.65 514.03,-47.26"/>
<polygon fill="midnightblue" stroke="midnightblue" points="569.16,-91.9 579.29,-94.98 573.29,-86.25 569.16,-91.9"/>
</g>
<!-- Node6 -->
<g id="node6" class="node">
<title>Node6</title>
<g id="a_node6"><a xlink:href="../../d7/d91/_distance_sensor_controller__test_8cpp.html" target="_top" xlink:title=" ">
<polygon fill="none" stroke="black" points="595.5,-0.5 595.5,-52.5 782.5,-52.5 782.5,-0.5 595.5,-0.5"/>
<text text-anchor="start" x="603.5" y="-40.5" font-family="Helvetica,sans-Serif" font-size="10.00">Components/Controller</text>
<text text-anchor="start" x="603.5" y="-29.5" font-family="Helvetica,sans-Serif" font-size="10.00">/DistanceSensorController</text>
<text text-anchor="start" x="603.5" y="-18.5" font-family="Helvetica,sans-Serif" font-size="10.00">/test/test/DistanceSensorController</text>
<text text-anchor="middle" x="689" y="-7.5" font-family="Helvetica,sans-Serif" font-size="10.00">_test.cpp</text>
</a>
</g>
</g>
<!-- Node4&#45;&gt;Node6 -->
<g id="edge5" class="edge">
<title>Node4&#45;&gt;Node6</title>
<path fill="none" stroke="midnightblue" d="M631.84,-87.41C642.39,-76.36 654.51,-63.65 664.87,-52.79"/>
<polygon fill="midnightblue" stroke="midnightblue" points="629.2,-85.11 624.83,-94.76 634.27,-89.94 629.2,-85.11"/>
</g>
<!-- Node7 -->
<g id="node7" class="node">
<title>Node7</title>
<g id="a_node7"><a xlink:href="../../da/d75/_data_broker__test_8cpp.html" target="_top" xlink:title=" ">
<polygon fill="none" stroke="black" points="800.5,-6 800.5,-47 919.5,-47 919.5,-6 800.5,-6"/>
<text text-anchor="start" x="808.5" y="-35" font-family="Helvetica,sans-Serif" font-size="10.00">Components/Objects</text>
<text text-anchor="start" x="808.5" y="-24" font-family="Helvetica,sans-Serif" font-size="10.00">/DataBroker/test/test</text>
<text text-anchor="middle" x="860" y="-13" font-family="Helvetica,sans-Serif" font-size="10.00">/DataBroker_test.cpp</text>
</a>
</g>
</g>
<!-- Node4&#45;&gt;Node7 -->
<g id="edge6" class="edge">
<title>Node4&#45;&gt;Node7</title>
<path fill="none" stroke="midnightblue" d="M676.14,-91.79C710.8,-80.41 753.2,-66.27 791,-53 796.42,-51.1 802.07,-49.08 807.7,-47.04"/>
<polygon fill="midnightblue" stroke="midnightblue" points="674.99,-88.48 666.58,-94.92 677.17,-95.13 674.99,-88.48"/>
</g>
<!-- Node10 -->
<g id="node10" class="node">
<title>Node10</title>
<g id="a_node10"><a xlink:href="../../dc/d0f/_sensor_controller_base___m_o_c_k_8cpp.html" target="_top" xlink:title=" ">
<polygon fill="none" stroke="black" points="0,-0.5 0,-52.5 176,-52.5 176,-0.5 0,-0.5"/>
<text text-anchor="start" x="8" y="-40.5" font-family="Helvetica,sans-Serif" font-size="10.00">Components/Interfaces</text>
<text text-anchor="start" x="8" y="-29.5" font-family="Helvetica,sans-Serif" font-size="10.00">/SensorControllerBase</text>
<text text-anchor="start" x="8" y="-18.5" font-family="Helvetica,sans-Serif" font-size="10.00">/test/mock/SensorControllerBase</text>
<text text-anchor="middle" x="88" y="-7.5" font-family="Helvetica,sans-Serif" font-size="10.00">_MOCK.cpp</text>
</a>
</g>
</g>
<!-- Node9&#45;&gt;Node10 -->
<g id="edge9" class="edge">
<title>Node9&#45;&gt;Node10</title>
<path fill="none" stroke="midnightblue" d="M219.53,-85.29C195.34,-74.67 168.24,-62.76 144.94,-52.52"/>
<polygon fill="midnightblue" stroke="midnightblue" points="218.43,-88.63 229,-89.45 221.25,-82.23 218.43,-88.63"/>
</g>
<!-- Node9&#45;&gt;Node11 -->
<g id="edge10" class="edge">
<title>Node9&#45;&gt;Node11</title>
<path fill="none" stroke="midnightblue" d="M286,-79.16C286,-68.21 286,-56.55 286,-47.08"/>
<polygon fill="midnightblue" stroke="midnightblue" points="282.5,-79.34 286,-89.34 289.5,-79.34 282.5,-79.34"/>
</g>
<!-- Node12&#45;&gt;Node7 -->
<g id="edge14" class="edge">
<title>Node12&#45;&gt;Node7</title>
<path fill="none" stroke="midnightblue" d="M860,-84.44C860,-72.1 860,-58.16 860,-47.16"/>
<polygon fill="midnightblue" stroke="midnightblue" points="856.5,-84.76 860,-94.76 863.5,-84.76 856.5,-84.76"/>
</g>
<!-- Node13 -->
<g id="node13" class="node">
<title>Node13</title>
<g id="a_node13"><a xlink:href="../../d4/ddc/_data_broker_8cpp.html" target="_top" xlink:title=" ">
<polygon fill="none" stroke="black" points="938,-11.5 938,-41.5 1108,-41.5 1108,-11.5 938,-11.5"/>
<text text-anchor="start" x="946" y="-29.5" font-family="Helvetica,sans-Serif" font-size="10.00">Components/Objects</text>
<text text-anchor="middle" x="1023" y="-18.5" font-family="Helvetica,sans-Serif" font-size="10.00">/DataBroker/src/DataBroker.cpp</text>
</a>
</g>
</g>
<!-- Node12&#45;&gt;Node13 -->
<g id="edge13" class="edge">
<title>Node12&#45;&gt;Node13</title>
<path fill="none" stroke="midnightblue" d="M905.43,-90.25C934.83,-74.56 972.08,-54.68 996.68,-41.55"/>
<polygon fill="midnightblue" stroke="midnightblue" points="903.75,-87.18 896.58,-94.98 907.05,-93.35 903.75,-87.18"/>
</g>
<!-- Node18 -->
<g id="node18" class="node">
<title>Node18</title>
<g id="a_node18"><a xlink:href="../../d0/db0/hal__mqtt__log_8cpp.html" target="_top" xlink:title=" ">
<polygon fill="none" stroke="black" points="989,-178.5 989,-219.5 1107,-219.5 1107,-178.5 989,-178.5"/>
<text text-anchor="start" x="997" y="-207.5" font-family="Helvetica,sans-Serif" font-size="10.00">Components/Objects</text>
<text text-anchor="start" x="997" y="-196.5" font-family="Helvetica,sans-Serif" font-size="10.00">/Logger/src/hal_mqtt</text>
<text text-anchor="middle" x="1048" y="-185.5" font-family="Helvetica,sans-Serif" font-size="10.00">_log.cpp</text>
</a>
</g>
</g>
<!-- Node17&#45;&gt;Node18 -->
<g id="edge21" class="edge">
<title>Node17&#45;&gt;Node18</title>
<path fill="none" stroke="midnightblue" d="M1051.65,-246.3C1050.94,-237.3 1050.18,-227.65 1049.54,-219.51"/>
<polygon fill="midnightblue" stroke="midnightblue" points="1048.18,-246.73 1052.45,-256.43 1055.16,-246.18 1048.18,-246.73"/>
</g>
<!-- Node20 -->
<g id="node20" class="node">
<title>Node20</title>
<g id="a_node20"><a xlink:href="../../dd/ddd/_maintainer_8cpp.html" target="_top" xlink:title=" ">
<polygon fill="none" stroke="black" points="1125.5,-184 1125.5,-214 1290.5,-214 1290.5,-184 1125.5,-184"/>
<text text-anchor="start" x="1133.5" y="-202" font-family="Helvetica,sans-Serif" font-size="10.00">Components/Objects</text>
<text text-anchor="middle" x="1208" y="-191" font-family="Helvetica,sans-Serif" font-size="10.00">/Maintainer/src/Maintainer.cpp</text>
</a>
</g>
</g>
<!-- Node19&#45;&gt;Node20 -->
<g id="edge23" class="edge">
<title>Node19&#45;&gt;Node20</title>
<path fill="none" stroke="midnightblue" d="M1204.35,-246.28C1205.22,-235.25 1206.16,-223.25 1206.88,-214.23"/>
<polygon fill="midnightblue" stroke="midnightblue" points="1200.84,-246.18 1203.55,-256.43 1207.82,-246.73 1200.84,-246.18"/>
</g>
<!-- Node21 -->
<g id="node21" class="node">
<title>Node21</title>
<g id="a_node21"><a xlink:href="../../d8/d4a/maintainer__test_8cpp.html" target="_top" xlink:title=" ">
<polygon fill="none" stroke="black" points="1309,-178.5 1309,-219.5 1427,-219.5 1427,-178.5 1309,-178.5"/>
<text text-anchor="start" x="1317" y="-207.5" font-family="Helvetica,sans-Serif" font-size="10.00">Components/Objects</text>
<text text-anchor="start" x="1317" y="-196.5" font-family="Helvetica,sans-Serif" font-size="10.00">/Maintainer/test/test</text>
<text text-anchor="middle" x="1368" y="-185.5" font-family="Helvetica,sans-Serif" font-size="10.00">/maintainer_test.cpp</text>
</a>
</g>
</g>
<!-- Node19&#45;&gt;Node21 -->
<g id="edge24" class="edge">
<title>Node19&#45;&gt;Node21</title>
<path fill="none" stroke="midnightblue" d="M1254.01,-252.19C1276.97,-241.67 1303.63,-229.47 1325.4,-219.51"/>
<polygon fill="midnightblue" stroke="midnightblue" points="1252.38,-249.08 1244.75,-256.43 1255.3,-255.45 1252.38,-249.08"/>
</g>
<!-- Node19&#45;&gt;Node22 -->
<g id="edge25" class="edge">
<title>Node19&#45;&gt;Node22</title>
<path fill="none" stroke="midnightblue" d="M1271.2,-256.95C1272.48,-256.63 1273.74,-256.31 1275,-256 1346.16,-238.31 1364.58,-236.59 1436,-220 1438.89,-219.33 1441.83,-218.64 1444.8,-217.94"/>
<polygon fill="midnightblue" stroke="midnightblue" points="1270.11,-253.62 1261.3,-259.5 1271.86,-260.4 1270.11,-253.62"/>
</g>
<!-- Node23 -->
<g id="node23" class="node">
<title>Node23</title>
<g id="a_node23"><a xlink:href="../../d2/d77/_active_current_sensor_8cpp.html" target="_top" xlink:title=" ">
<polygon fill="none" stroke="black" points="1432.5,-95 1432.5,-136 1605.5,-136 1605.5,-95 1432.5,-95"/>
<text text-anchor="start" x="1440.5" y="-124" font-family="Helvetica,sans-Serif" font-size="10.00">Components/Sensor/Active</text>
<text text-anchor="start" x="1440.5" y="-113" font-family="Helvetica,sans-Serif" font-size="10.00">CurrentSensor/src/ActiveCurrent</text>
<text text-anchor="middle" x="1519" y="-102" font-family="Helvetica,sans-Serif" font-size="10.00">Sensor.cpp</text>
</a>
</g>
</g>
<!-- Node22&#45;&gt;Node23 -->
<g id="edge26" class="edge">
<title>Node22&#45;&gt;Node23</title>
<path fill="none" stroke="midnightblue" d="M1519,-168.06C1519,-157.38 1519,-145.63 1519,-136.05"/>
<polygon fill="midnightblue" stroke="midnightblue" points="1515.5,-168.27 1519,-178.27 1522.5,-168.27 1515.5,-168.27"/>
</g>
</g>
</svg>
