<?xml version="1.0" encoding="UTF-8" standalone="no"?>
<!DOCTYPE svg PUBLIC "-//W3C//DTD SVG 1.1//EN"
 "http://www.w3.org/Graphics/SVG/1.1/DTD/svg11.dtd">
<!-- Generated by graphviz version 2.43.0 (0)
 -->
<!-- Title: Components/Protocols/MQTT/include/mqtt_api_v2.hpp Pages: 1 -->
<!--zoomable 462 -->
<svg id="main" version="1.1" xmlns="http://www.w3.org/2000/svg" xmlns:xlink="http://www.w3.org/1999/xlink" xml:space="preserve" onload="init(evt)">
<style type="text/css"><![CDATA[
.edge:hover path { stroke: red; }
.edge:hover polygon { stroke: red; fill: red; }
]]></style>
<script type="text/javascript"><![CDATA[
var edges = document.getElementsByTagName('g');
if (edges && edges.length) {
  for (var i=0;i<edges.length;i++) {
    if (edges[i].id.substr(0,4)=='edge') {
      edges[i].setAttribute('class','edge');
    }
  }
}
]]></script>
        <defs>
                <circle id="rim" cx="0" cy="0" r="7"/>
                <circle id="rim2" cx="0" cy="0" r="3.5"/>
                <g id="zoomPlus">
                        <use xlink:href="#rim" fill="#404040">
                                <set attributeName="fill" to="#808080" begin="zoomplus.mouseover" end="zoomplus.mouseout"/>
                        </use>
                        <path d="M-4,0h8M0,-4v8" fill="none" stroke="white" stroke-width="1.5" pointer-events="none"/>
                </g>
                <g id="zoomMin">
                        <use xlink:href="#rim" fill="#404040">
                                <set attributeName="fill" to="#808080" begin="zoomminus.mouseover" end="zoomminus.mouseout"/>
                        </use>
                        <path d="M-4,0h8" fill="none" stroke="white" stroke-width="1.5" pointer-events="none"/>
                </g>
                <g id="dirArrow">
                        <path fill="none" stroke="white" stroke-width="1.5" d="M0,-3.0v7 M-2.5,-0.5L0,-3.0L2.5,-0.5"/>
                </g>
               <g id="resetDef">
                       <use xlink:href="#rim2" fill="#404040">
                               <set attributeName="fill" to="#808080" begin="reset.mouseover" end="reset.mouseout"/>
                       </use>
               </g>
        </defs>

<script type="text/javascript">
var viewWidth = 2301;
var viewHeight = 462;
var sectionId = 'dynsection-1';
</script>
<script xlink:href="../../svgpan.js"/>
<svg id="graph" class="graph">
<g id="viewport">
<title>Components/Protocols/MQTT/include/mqtt_api_v2.hpp</title>
<!-- Node1 -->
<g id="node1" class="node">
<title>Node1</title>
<g id="a_node1"><a xlink:title=" ">
<polygon fill="#bfbfbf" stroke="black" points="1746.5,-412.5 1746.5,-453.5 1879.5,-453.5 1879.5,-412.5 1746.5,-412.5"/>
<text text-anchor="start" x="1754.5" y="-441.5" font-family="Helvetica,sans-Serif" font-size="10.00">Components/Protocols</text>
<text text-anchor="start" x="1754.5" y="-430.5" font-family="Helvetica,sans-Serif" font-size="10.00">/MQTT/include/mqtt_api</text>
<text text-anchor="middle" x="1813" y="-419.5" font-family="Helvetica,sans-Serif" font-size="10.00">_v2.hpp</text>
</a>
</g>
</g>
<!-- Node2 -->
<g id="node2" class="node">
<title>Node2</title>
<g id="a_node2"><a xlink:href="../../d3/d0d/_error_code_parser_8hpp.html" target="_top" xlink:title=" ">
<polygon fill="none" stroke="black" points="1457.5,-334.5 1457.5,-375.5 1576.5,-375.5 1576.5,-334.5 1457.5,-334.5"/>
<text text-anchor="start" x="1465.5" y="-363.5" font-family="Helvetica,sans-Serif" font-size="10.00">Components/Objects</text>
<text text-anchor="start" x="1465.5" y="-352.5" font-family="Helvetica,sans-Serif" font-size="10.00">/ErrorHandler/include</text>
<text text-anchor="middle" x="1517" y="-341.5" font-family="Helvetica,sans-Serif" font-size="10.00">/ErrorCodeParser.hpp</text>
</a>
</g>
</g>
<!-- Node1&#45;&gt;Node2 -->
<g id="edge1" class="edge">
<title>Node1&#45;&gt;Node2</title>
<path fill="none" stroke="midnightblue" d="M1736.43,-412.34C1686.6,-399.55 1622.55,-383.1 1576.53,-371.28"/>
<polygon fill="midnightblue" stroke="midnightblue" points="1735.65,-415.75 1746.2,-414.85 1737.39,-408.97 1735.65,-415.75"/>
</g>
<!-- Node3 -->
<g id="node3" class="node">
<title>Node3</title>
<g id="a_node3"><a xlink:href="../../d9/d1c/_sensor_controller_base_8hpp.html" target="_top" xlink:title=" ">
<polygon fill="none" stroke="black" points="1159,-256.5 1159,-297.5 1343,-297.5 1343,-256.5 1159,-256.5"/>
<text text-anchor="start" x="1167" y="-285.5" font-family="Helvetica,sans-Serif" font-size="10.00">Components/Interfaces</text>
<text text-anchor="start" x="1167" y="-274.5" font-family="Helvetica,sans-Serif" font-size="10.00">/SensorControllerBase</text>
<text text-anchor="middle" x="1251" y="-263.5" font-family="Helvetica,sans-Serif" font-size="10.00">/include/SensorControllerBase.hpp</text>
</a>
</g>
</g>
<!-- Node1&#45;&gt;Node3 -->
<g id="edge36" class="edge">
<title>Node1&#45;&gt;Node3</title>
<path fill="none" stroke="midnightblue" d="M1736.03,-427.13C1661.06,-420.77 1544.6,-406.62 1448,-376 1386.46,-356.5 1320.32,-320.03 1282.47,-297.5"/>
<polygon fill="midnightblue" stroke="midnightblue" points="1736.07,-430.64 1746.33,-427.97 1736.65,-423.66 1736.07,-430.64"/>
</g>
<!-- Node14 -->
<g id="node14" class="node">
<title>Node14</title>
<g id="a_node14"><a xlink:href="../../d2/dc5/_service_base_8hpp.html" target="_top" xlink:title=" ">
<polygon fill="none" stroke="black" points="812,-256.5 812,-297.5 942,-297.5 942,-256.5 812,-256.5"/>
<text text-anchor="start" x="820" y="-285.5" font-family="Helvetica,sans-Serif" font-size="10.00">Components/Interfaces</text>
<text text-anchor="start" x="820" y="-274.5" font-family="Helvetica,sans-Serif" font-size="10.00">/ServiceBase/include</text>
<text text-anchor="middle" x="877" y="-263.5" font-family="Helvetica,sans-Serif" font-size="10.00">/ServiceBase.hpp</text>
</a>
</g>
</g>
<!-- Node1&#45;&gt;Node14 -->
<g id="edge37" class="edge">
<title>Node1&#45;&gt;Node14</title>
<path fill="none" stroke="midnightblue" d="M1736.36,-424.72C1644.31,-415.52 1485.36,-398.17 1350,-376 1203.31,-351.98 1033,-314.24 942.1,-293.3"/>
<polygon fill="midnightblue" stroke="midnightblue" points="1736.13,-428.21 1746.43,-425.72 1736.83,-421.25 1736.13,-428.21"/>
</g>
<!-- Node28 -->
<g id="node28" class="node">
<title>Node28</title>
<g id="a_node28"><a xlink:href="../../d0/d6a/_maintainer_8hpp.html" target="_top" xlink:title=" ">
<polygon fill="none" stroke="black" points="1689,-256.5 1689,-297.5 1807,-297.5 1807,-256.5 1689,-256.5"/>
<text text-anchor="start" x="1697" y="-285.5" font-family="Helvetica,sans-Serif" font-size="10.00">Components/Objects</text>
<text text-anchor="start" x="1697" y="-274.5" font-family="Helvetica,sans-Serif" font-size="10.00">/Maintainer/include</text>
<text text-anchor="middle" x="1748" y="-263.5" font-family="Helvetica,sans-Serif" font-size="10.00">/Maintainer.hpp</text>
</a>
</g>
</g>
<!-- Node1&#45;&gt;Node28 -->
<g id="edge40" class="edge">
<title>Node1&#45;&gt;Node28</title>
<path fill="none" stroke="midnightblue" d="M1800.83,-403.17C1787.86,-372.43 1767.66,-324.59 1756.37,-297.83"/>
<polygon fill="midnightblue" stroke="midnightblue" points="1797.65,-404.64 1804.77,-412.5 1804.1,-401.92 1797.65,-404.64"/>
</g>
<!-- Node31 -->
<g id="node31" class="node">
<title>Node31</title>
<g id="a_node31"><a xlink:href="../../dd/d82/_active_current_sensor_8hpp.html" target="_top" xlink:title=" ">
<polygon fill="none" stroke="black" points="1900,-173 1900,-214 2048,-214 2048,-173 1900,-173"/>
<text text-anchor="start" x="1908" y="-202" font-family="Helvetica,sans-Serif" font-size="10.00">Components/Sensor/Active</text>
<text text-anchor="start" x="1908" y="-191" font-family="Helvetica,sans-Serif" font-size="10.00">CurrentSensor/include</text>
<text text-anchor="middle" x="1974" y="-180" font-family="Helvetica,sans-Serif" font-size="10.00">/ActiveCurrentSensor.hpp</text>
</a>
</g>
</g>
<!-- Node1&#45;&gt;Node31 -->
<g id="edge43" class="edge">
<title>Node1&#45;&gt;Node31</title>
<path fill="none" stroke="midnightblue" d="M1812.6,-401.94C1813.62,-364.06 1820.61,-298.76 1854,-256 1868.7,-237.18 1890.73,-223.6 1911.93,-214.06"/>
<polygon fill="midnightblue" stroke="midnightblue" points="1809.1,-402.26 1812.45,-412.31 1816.1,-402.36 1809.1,-402.26"/>
</g>
<!-- Node33 -->
<g id="node33" class="node">
<title>Node33</title>
<g id="a_node33"><a xlink:href="../../d7/d44/hal__mqtt__log_8hpp.html" target="_top" xlink:title=" ">
<polygon fill="none" stroke="black" points="1863,-334.5 1863,-375.5 1981,-375.5 1981,-334.5 1863,-334.5"/>
<text text-anchor="start" x="1871" y="-363.5" font-family="Helvetica,sans-Serif" font-size="10.00">Components/Objects</text>
<text text-anchor="start" x="1871" y="-352.5" font-family="Helvetica,sans-Serif" font-size="10.00">/Logger/include/hal</text>
<text text-anchor="middle" x="1922" y="-341.5" font-family="Helvetica,sans-Serif" font-size="10.00">_mqtt_log.hpp</text>
</a>
</g>
</g>
<!-- Node1&#45;&gt;Node33 -->
<g id="edge38" class="edge">
<title>Node1&#45;&gt;Node33</title>
<path fill="none" stroke="midnightblue" d="M1849.38,-406.64C1863.93,-396.49 1880.43,-384.98 1894.02,-375.51"/>
<polygon fill="midnightblue" stroke="midnightblue" points="1847.27,-403.84 1841.07,-412.43 1851.27,-409.58 1847.27,-403.84"/>
</g>
<!-- Node35 -->
<g id="node35" class="node">
<title>Node35</title>
<g id="a_node35"><a xlink:href="../../d3/dc1/mqtt__api__v2_8cpp.html" target="_top" xlink:title=" ">
<polygon fill="none" stroke="black" points="1999.5,-340 1999.5,-370 2148.5,-370 2148.5,-340 1999.5,-340"/>
<text text-anchor="start" x="2007.5" y="-358" font-family="Helvetica,sans-Serif" font-size="10.00">Components/Protocols</text>
<text text-anchor="middle" x="2074" y="-347" font-family="Helvetica,sans-Serif" font-size="10.00">/MQTT/src/mqtt_api_v2.cpp</text>
</a>
</g>
</g>
<!-- Node1&#45;&gt;Node35 -->
<g id="edge41" class="edge">
<title>Node1&#45;&gt;Node35</title>
<path fill="none" stroke="midnightblue" d="M1889.35,-409.77C1933.42,-396.94 1987.5,-381.19 2025.71,-370.06"/>
<polygon fill="midnightblue" stroke="midnightblue" points="1888.16,-406.47 1879.54,-412.63 1890.12,-413.19 1888.16,-406.47"/>
</g>
<!-- Node36 -->
<g id="node36" class="node">
<title>Node36</title>
<g id="a_node36"><a xlink:href="../../df/df3/mqtt__v2__test_8cpp.html" target="_top" xlink:title=" ">
<polygon fill="none" stroke="black" points="2167,-334.5 2167,-375.5 2293,-375.5 2293,-334.5 2167,-334.5"/>
<text text-anchor="start" x="2175" y="-363.5" font-family="Helvetica,sans-Serif" font-size="10.00">Components/Protocols</text>
<text text-anchor="start" x="2175" y="-352.5" font-family="Helvetica,sans-Serif" font-size="10.00">/MQTT/test/test/mqtt</text>
<text text-anchor="middle" x="2230" y="-341.5" font-family="Helvetica,sans-Serif" font-size="10.00">_v2_test.cpp</text>
</a>
</g>
</g>
<!-- Node1&#45;&gt;Node36 -->
<g id="edge42" class="edge">
<title>Node1&#45;&gt;Node36</title>
<path fill="none" stroke="midnightblue" d="M1889.64,-422.03C1959.86,-412.31 2066.48,-396.07 2158,-376 2160.91,-375.36 2163.89,-374.67 2166.88,-373.96"/>
<polygon fill="midnightblue" stroke="midnightblue" points="1888.98,-418.58 1879.55,-423.41 1889.93,-425.52 1888.98,-418.58"/>
</g>
<!-- Node2&#45;&gt;Node3 -->
<g id="edge2" class="edge">
<title>Node2&#45;&gt;Node3</title>
<path fill="none" stroke="midnightblue" d="M1447.48,-334.14C1407.99,-322.85 1358.73,-308.78 1319.41,-297.55"/>
<polygon fill="midnightblue" stroke="midnightblue" points="1446.73,-337.56 1457.3,-336.94 1448.65,-330.83 1446.73,-337.56"/>
</g>
<!-- Node2&#45;&gt;Node14 -->
<g id="edge15" class="edge">
<title>Node2&#45;&gt;Node14</title>
<path fill="none" stroke="midnightblue" d="M1447.18,-345.71C1322.61,-330.92 1063.74,-300.18 942.41,-285.77"/>
<polygon fill="midnightblue" stroke="midnightblue" points="1447.02,-349.21 1457.37,-346.92 1447.85,-342.26 1447.02,-349.21"/>
</g>
<!-- Node26 -->
<g id="node26" class="node">
<title>Node26</title>
<g id="a_node26"><a xlink:href="../../d2/df5/_error_code_parser_8cpp.html" target="_top" xlink:title=" ">
<polygon fill="none" stroke="black" points="1521.5,-256.5 1521.5,-297.5 1670.5,-297.5 1670.5,-256.5 1521.5,-256.5"/>
<text text-anchor="start" x="1529.5" y="-285.5" font-family="Helvetica,sans-Serif" font-size="10.00">Components/Objects</text>
<text text-anchor="start" x="1529.5" y="-274.5" font-family="Helvetica,sans-Serif" font-size="10.00">/ErrorHandler/src/ErrorCode</text>
<text text-anchor="middle" x="1596" y="-263.5" font-family="Helvetica,sans-Serif" font-size="10.00">Parser.cpp</text>
</a>
</g>
</g>
<!-- Node2&#45;&gt;Node26 -->
<g id="edge29" class="edge">
<title>Node2&#45;&gt;Node26</title>
<path fill="none" stroke="midnightblue" d="M1544.55,-327.49C1554.81,-317.63 1566.24,-306.63 1575.72,-297.51"/>
<polygon fill="midnightblue" stroke="midnightblue" points="1542.12,-324.97 1537.34,-334.43 1546.98,-330.02 1542.12,-324.97"/>
</g>
<!-- Node27 -->
<g id="node27" class="node">
<title>Node27</title>
<g id="a_node27"><a xlink:href="../../d9/db8/_error_code_parser__test_8cpp.html" target="_top" xlink:title=" ">
<polygon fill="none" stroke="black" points="1361,-256.5 1361,-297.5 1503,-297.5 1503,-256.5 1361,-256.5"/>
<text text-anchor="start" x="1369" y="-285.5" font-family="Helvetica,sans-Serif" font-size="10.00">Components/Objects</text>
<text text-anchor="start" x="1369" y="-274.5" font-family="Helvetica,sans-Serif" font-size="10.00">/ErrorHandler/test/test</text>
<text text-anchor="middle" x="1432" y="-263.5" font-family="Helvetica,sans-Serif" font-size="10.00">/ErrorCodeParser_test.cpp</text>
</a>
</g>
</g>
<!-- Node2&#45;&gt;Node27 -->
<g id="edge30" class="edge">
<title>Node2&#45;&gt;Node27</title>
<path fill="none" stroke="midnightblue" d="M1487.35,-327.49C1476.32,-317.63 1464.02,-306.63 1453.82,-297.51"/>
<polygon fill="midnightblue" stroke="midnightblue" points="1485.32,-330.37 1495.11,-334.43 1489.99,-325.15 1485.32,-330.37"/>
</g>
<!-- Node2&#45;&gt;Node28 -->
<g id="edge31" class="edge">
<title>Node2&#45;&gt;Node28</title>
<path fill="none" stroke="midnightblue" d="M1586.41,-331.17C1619.02,-320.44 1657.49,-307.78 1688.71,-297.51"/>
<polygon fill="midnightblue" stroke="midnightblue" points="1584.89,-327.98 1576.49,-334.43 1587.08,-334.63 1584.89,-327.98"/>
</g>
<!-- Node4 -->
<g id="node4" class="node">
<title>Node4</title>
<g id="a_node4"><a xlink:href="../../db/d12/_distance_sensor_controller_8hpp.html" target="_top" xlink:title=" ">
<polygon fill="none" stroke="black" points="950,-173 950,-214 1152,-214 1152,-173 950,-173"/>
<text text-anchor="start" x="958" y="-202" font-family="Helvetica,sans-Serif" font-size="10.00">Components/Controller</text>
<text text-anchor="start" x="958" y="-191" font-family="Helvetica,sans-Serif" font-size="10.00">/DistanceSensorController</text>
<text text-anchor="middle" x="1051" y="-180" font-family="Helvetica,sans-Serif" font-size="10.00">/include/DistanceSensorController.hpp</text>
</a>
</g>
</g>
<!-- Node3&#45;&gt;Node4 -->
<g id="edge3" class="edge">
<title>Node3&#45;&gt;Node4</title>
<path fill="none" stroke="midnightblue" d="M1193.6,-252.61C1163.6,-240.39 1127.32,-225.6 1098.86,-214"/>
<polygon fill="midnightblue" stroke="midnightblue" points="1192.51,-255.95 1203.1,-256.48 1195.16,-249.46 1192.51,-255.95"/>
</g>
<!-- Node8 -->
<g id="node8" class="node">
<title>Node8</title>
<g id="a_node8"><a xlink:href="../../d2/d8d/_sensor_controller_base_8cpp.html" target="_top" xlink:title=" ">
<polygon fill="none" stroke="black" points="1170,-173 1170,-214 1332,-214 1332,-173 1170,-173"/>
<text text-anchor="start" x="1178" y="-202" font-family="Helvetica,sans-Serif" font-size="10.00">Components/Interfaces</text>
<text text-anchor="start" x="1178" y="-191" font-family="Helvetica,sans-Serif" font-size="10.00">/SensorControllerBase</text>
<text text-anchor="middle" x="1251" y="-180" font-family="Helvetica,sans-Serif" font-size="10.00">/src/SensorControllerBase.cpp</text>
</a>
</g>
</g>
<!-- Node3&#45;&gt;Node8 -->
<g id="edge7" class="edge">
<title>Node3&#45;&gt;Node8</title>
<path fill="none" stroke="midnightblue" d="M1251,-246.06C1251,-235.38 1251,-223.63 1251,-214.05"/>
<polygon fill="midnightblue" stroke="midnightblue" points="1247.5,-246.27 1251,-256.27 1254.5,-246.27 1247.5,-246.27"/>
</g>
<!-- Node9 -->
<g id="node9" class="node">
<title>Node9</title>
<g id="a_node9"><a xlink:href="../../db/dc2/_sensor_controller_base___m_o_c_k_8hpp.html" target="_top" xlink:title=" ">
<polygon fill="none" stroke="black" points="1350,-167.5 1350,-219.5 1526,-219.5 1526,-167.5 1350,-167.5"/>
<text text-anchor="start" x="1358" y="-207.5" font-family="Helvetica,sans-Serif" font-size="10.00">Components/Interfaces</text>
<text text-anchor="start" x="1358" y="-196.5" font-family="Helvetica,sans-Serif" font-size="10.00">/SensorControllerBase</text>
<text text-anchor="start" x="1358" y="-185.5" font-family="Helvetica,sans-Serif" font-size="10.00">/test/mock/SensorControllerBase</text>
<text text-anchor="middle" x="1438" y="-174.5" font-family="Helvetica,sans-Serif" font-size="10.00">_MOCK.hpp</text>
</a>
</g>
</g>
<!-- Node3&#45;&gt;Node9 -->
<g id="edge8" class="edge">
<title>Node3&#45;&gt;Node9</title>
<path fill="none" stroke="midnightblue" d="M1304.97,-252.48C1328.63,-242.17 1356.42,-230.06 1380.46,-219.58"/>
<polygon fill="midnightblue" stroke="midnightblue" points="1303.56,-249.27 1295.79,-256.48 1306.36,-255.69 1303.56,-249.27"/>
</g>
<!-- Node11 -->
<g id="node11" class="node">
<title>Node11</title>
<g id="a_node11"><a xlink:href="../../d8/d19/_sensor_controller_test_8cpp.html" target="_top" xlink:title=" ">
<polygon fill="none" stroke="black" points="1544,-84 1544,-125 1728,-125 1728,-84 1544,-84"/>
<text text-anchor="start" x="1552" y="-113" font-family="Helvetica,sans-Serif" font-size="10.00">Components/Interfaces</text>
<text text-anchor="start" x="1552" y="-102" font-family="Helvetica,sans-Serif" font-size="10.00">/SensorControllerBase</text>
<text text-anchor="middle" x="1636" y="-91" font-family="Helvetica,sans-Serif" font-size="10.00">/test/test/SensorControllerTest.cpp</text>
</a>
</g>
</g>
<!-- Node3&#45;&gt;Node11 -->
<g id="edge11" class="edge">
<title>Node3&#45;&gt;Node11</title>
<path fill="none" stroke="midnightblue" d="M1353.25,-255.89C1435.81,-241.74 1467.94,-263.13 1535,-220 1559.38,-204.32 1554.11,-188.99 1573,-167 1585.75,-152.16 1601.5,-136.78 1614.06,-125.12"/>
<polygon fill="midnightblue" stroke="midnightblue" points="1352.4,-252.48 1343.2,-257.74 1353.67,-259.37 1352.4,-252.48"/>
</g>
<!-- Node12 -->
<g id="node12" class="node">
<title>Node12</title>
<g id="a_node12"><a xlink:href="../../d0/dc1/_data_broker_8hpp.html" target="_top" xlink:title=" ">
<polygon fill="none" stroke="black" points="773,-84 773,-125 891,-125 891,-84 773,-84"/>
<text text-anchor="start" x="781" y="-113" font-family="Helvetica,sans-Serif" font-size="10.00">Components/Objects</text>
<text text-anchor="start" x="781" y="-102" font-family="Helvetica,sans-Serif" font-size="10.00">/DataBroker/include</text>
<text text-anchor="middle" x="832" y="-91" font-family="Helvetica,sans-Serif" font-size="10.00">/DataBroker.hpp</text>
</a>
</g>
</g>
<!-- Node3&#45;&gt;Node12 -->
<g id="edge12" class="edge">
<title>Node3&#45;&gt;Node12</title>
<path fill="none" stroke="midnightblue" d="M1148.93,-273.5C1085.78,-268.21 1004.86,-254.42 941,-220 898.48,-197.08 862.9,-151.56 844.82,-125.34"/>
<polygon fill="midnightblue" stroke="midnightblue" points="1148.66,-276.99 1158.9,-274.28 1149.21,-270.01 1148.66,-276.99"/>
</g>
<!-- Node5 -->
<g id="node5" class="node">
<title>Node5</title>
<g id="a_node5"><a xlink:href="../../dd/dde/_distance_sensor_controller_8cpp.html" target="_top" xlink:title=" ">
<polygon fill="none" stroke="black" points="1152,-84 1152,-125 1332,-125 1332,-84 1152,-84"/>
<text text-anchor="start" x="1160" y="-113" font-family="Helvetica,sans-Serif" font-size="10.00">Components/Controller</text>
<text text-anchor="start" x="1160" y="-102" font-family="Helvetica,sans-Serif" font-size="10.00">/DistanceSensorController</text>
<text text-anchor="middle" x="1242" y="-91" font-family="Helvetica,sans-Serif" font-size="10.00">/src/DistanceSensorController.cpp</text>
</a>
</g>
</g>
<!-- Node4&#45;&gt;Node5 -->
<g id="edge4" class="edge">
<title>Node4&#45;&gt;Node5</title>
<path fill="none" stroke="midnightblue" d="M1103.34,-168.66C1133.38,-154.98 1170.62,-138.01 1198.95,-125.11"/>
<polygon fill="midnightblue" stroke="midnightblue" points="1101.51,-165.65 1093.86,-172.98 1104.42,-172.02 1101.51,-165.65"/>
</g>
<!-- Node6 -->
<g id="node6" class="node">
<title>Node6</title>
<g id="a_node6"><a xlink:href="../../d7/d91/_distance_sensor_controller__test_8cpp.html" target="_top" xlink:title=" ">
<polygon fill="none" stroke="black" points="909.5,-78.5 909.5,-130.5 1096.5,-130.5 1096.5,-78.5 909.5,-78.5"/>
<text text-anchor="start" x="917.5" y="-118.5" font-family="Helvetica,sans-Serif" font-size="10.00">Components/Controller</text>
<text text-anchor="start" x="917.5" y="-107.5" font-family="Helvetica,sans-Serif" font-size="10.00">/DistanceSensorController</text>
<text text-anchor="start" x="917.5" y="-96.5" font-family="Helvetica,sans-Serif" font-size="10.00">/test/test/DistanceSensorController</text>
<text text-anchor="middle" x="1003" y="-85.5" font-family="Helvetica,sans-Serif" font-size="10.00">_test.cpp</text>
</a>
</g>
</g>
<!-- Node4&#45;&gt;Node6 -->
<g id="edge5" class="edge">
<title>Node4&#45;&gt;Node6</title>
<path fill="none" stroke="midnightblue" d="M1035.17,-163.81C1029.29,-153.14 1022.66,-141.13 1016.95,-130.79"/>
<polygon fill="midnightblue" stroke="midnightblue" points="1032.21,-165.69 1040.11,-172.76 1038.34,-162.31 1032.21,-165.69"/>
</g>
<!-- Node7 -->
<g id="node7" class="node">
<title>Node7</title>
<g id="a_node7"><a xlink:href="../../da/d75/_data_broker__test_8cpp.html" target="_top" xlink:title=" ">
<polygon fill="none" stroke="black" points="1049.5,-0.5 1049.5,-41.5 1168.5,-41.5 1168.5,-0.5 1049.5,-0.5"/>
<text text-anchor="start" x="1057.5" y="-29.5" font-family="Helvetica,sans-Serif" font-size="10.00">Components/Objects</text>
<text text-anchor="start" x="1057.5" y="-18.5" font-family="Helvetica,sans-Serif" font-size="10.00">/DataBroker/test/test</text>
<text text-anchor="middle" x="1109" y="-7.5" font-family="Helvetica,sans-Serif" font-size="10.00">/DataBroker_test.cpp</text>
</a>
</g>
</g>
<!-- Node4&#45;&gt;Node7 -->
<g id="edge6" class="edge">
<title>Node4&#45;&gt;Node7</title>
<path fill="none" stroke="midnightblue" d="M1081.66,-165.68C1090.88,-155.79 1099.89,-143.84 1105,-131 1116.69,-101.62 1114.83,-64.18 1112.12,-41.71"/>
<polygon fill="midnightblue" stroke="midnightblue" points="1079.15,-163.25 1074.63,-172.83 1084.14,-168.16 1079.15,-163.25"/>
</g>
<!-- Node10 -->
<g id="node10" class="node">
<title>Node10</title>
<g id="a_node10"><a xlink:href="../../dc/d0f/_sensor_controller_base___m_o_c_k_8cpp.html" target="_top" xlink:title=" ">
<polygon fill="none" stroke="black" points="1350,-78.5 1350,-130.5 1526,-130.5 1526,-78.5 1350,-78.5"/>
<text text-anchor="start" x="1358" y="-118.5" font-family="Helvetica,sans-Serif" font-size="10.00">Components/Interfaces</text>
<text text-anchor="start" x="1358" y="-107.5" font-family="Helvetica,sans-Serif" font-size="10.00">/SensorControllerBase</text>
<text text-anchor="start" x="1358" y="-96.5" font-family="Helvetica,sans-Serif" font-size="10.00">/test/mock/SensorControllerBase</text>
<text text-anchor="middle" x="1438" y="-85.5" font-family="Helvetica,sans-Serif" font-size="10.00">_MOCK.cpp</text>
</a>
</g>
</g>
<!-- Node9&#45;&gt;Node10 -->
<g id="edge9" class="edge">
<title>Node9&#45;&gt;Node10</title>
<path fill="none" stroke="midnightblue" d="M1438,-157.19C1438,-148.28 1438,-138.9 1438,-130.61"/>
<polygon fill="midnightblue" stroke="midnightblue" points="1434.5,-157.34 1438,-167.34 1441.5,-157.34 1434.5,-157.34"/>
</g>
<!-- Node9&#45;&gt;Node11 -->
<g id="edge10" class="edge">
<title>Node9&#45;&gt;Node11</title>
<path fill="none" stroke="midnightblue" d="M1504.52,-163.27C1533.09,-150.72 1565.71,-136.38 1591.32,-125.13"/>
<polygon fill="midnightblue" stroke="midnightblue" points="1502.75,-160.23 1495,-167.45 1505.57,-166.63 1502.75,-160.23"/>
</g>
<!-- Node12&#45;&gt;Node7 -->
<g id="edge14" class="edge">
<title>Node12&#45;&gt;Node7</title>
<path fill="none" stroke="midnightblue" d="M892.22,-80.57C894.84,-79.68 897.44,-78.82 900,-78 949.72,-62.06 1007.06,-46.92 1049.09,-36.41"/>
<polygon fill="midnightblue" stroke="midnightblue" points="890.98,-77.29 882.68,-83.88 893.28,-83.91 890.98,-77.29"/>
</g>
<!-- Node13 -->
<g id="node13" class="node">
<title>Node13</title>
<g id="a_node13"><a xlink:href="../../d4/ddc/_data_broker_8cpp.html" target="_top" xlink:title=" ">
<polygon fill="none" stroke="black" points="831.5,-6 831.5,-36 1000.5,-36 1000.5,-6 831.5,-6"/>
<text text-anchor="start" x="839.5" y="-24" font-family="Helvetica,sans-Serif" font-size="10.00">Components/Objects</text>
<text text-anchor="middle" x="916" y="-13" font-family="Helvetica,sans-Serif" font-size="10.00">/DataBroker/src/DataBroker.cpp</text>
</a>
</g>
</g>
<!-- Node12&#45;&gt;Node13 -->
<g id="edge13" class="edge">
<title>Node12&#45;&gt;Node13</title>
<path fill="none" stroke="midnightblue" d="M859.77,-76.56C873.67,-63.07 889.93,-47.29 901.38,-36.18"/>
<polygon fill="midnightblue" stroke="midnightblue" points="857.07,-74.3 852.33,-83.77 861.95,-79.32 857.07,-74.3"/>
</g>
<!-- Node15 -->
<g id="node15" class="node">
<title>Node15</title>
<g id="a_node15"><a xlink:href="../../d2/dd8/_service_queue_base_8hpp.html" target="_top" xlink:title=" ">
<polygon fill="none" stroke="black" points="611,-173 611,-214 743,-214 743,-173 611,-173"/>
<text text-anchor="start" x="619" y="-202" font-family="Helvetica,sans-Serif" font-size="10.00">Components/Interfaces</text>
<text text-anchor="start" x="619" y="-191" font-family="Helvetica,sans-Serif" font-size="10.00">/ServiceBase/include</text>
<text text-anchor="middle" x="677" y="-180" font-family="Helvetica,sans-Serif" font-size="10.00">/ServiceQueueBase.hpp</text>
</a>
</g>
</g>
<!-- Node14&#45;&gt;Node15 -->
<g id="edge16" class="edge">
<title>Node14&#45;&gt;Node15</title>
<path fill="none" stroke="midnightblue" d="M819.6,-252.61C789.6,-240.39 753.32,-225.6 724.86,-214"/>
<polygon fill="midnightblue" stroke="midnightblue" points="818.51,-255.95 829.1,-256.48 821.16,-249.46 818.51,-255.95"/>
</g>
<!-- Node22 -->
<g id="node22" class="node">
<title>Node22</title>
<g id="a_node22"><a xlink:href="../../d8/deb/_service_time_base_8hpp.html" target="_top" xlink:title=" ">
<polygon fill="none" stroke="black" points="275,-173 275,-214 405,-214 405,-173 275,-173"/>
<text text-anchor="start" x="283" y="-202" font-family="Helvetica,sans-Serif" font-size="10.00">Components/Interfaces</text>
<text text-anchor="start" x="283" y="-191" font-family="Helvetica,sans-Serif" font-size="10.00">/ServiceBase/include</text>
<text text-anchor="middle" x="340" y="-180" font-family="Helvetica,sans-Serif" font-size="10.00">/ServiceTimeBase.hpp</text>
</a>
</g>
</g>
<!-- Node14&#45;&gt;Node22 -->
<g id="edge24" class="edge">
<title>Node14&#45;&gt;Node22</title>
<path fill="none" stroke="midnightblue" d="M802.01,-264.62C696.37,-248.59 505.49,-219.62 405.35,-204.42"/>
<polygon fill="midnightblue" stroke="midnightblue" points="801.55,-268.09 811.96,-266.13 802.6,-261.17 801.55,-268.09"/>
</g>
<!-- Node15&#45;&gt;Node12 -->
<g id="edge18" class="edge">
<title>Node15&#45;&gt;Node12</title>
<path fill="none" stroke="midnightblue" d="M720.75,-167.94C744.9,-154.39 774.48,-137.79 797.06,-125.11"/>
<polygon fill="midnightblue" stroke="midnightblue" points="718.79,-165.03 711.79,-172.98 722.22,-171.13 718.79,-165.03"/>
</g>
<!-- Node16 -->
<g id="node16" class="node">
<title>Node16</title>
<g id="a_node16"><a xlink:href="../../dc/d1d/_service__test_8cpp.html" target="_top" xlink:title=" ">
<polygon fill="none" stroke="black" points="275,-84 275,-125 405,-125 405,-84 275,-84"/>
<text text-anchor="start" x="283" y="-113" font-family="Helvetica,sans-Serif" font-size="10.00">Components/Interfaces</text>
<text text-anchor="start" x="283" y="-102" font-family="Helvetica,sans-Serif" font-size="10.00">/ServiceBase/test/test</text>
<text text-anchor="middle" x="340" y="-91" font-family="Helvetica,sans-Serif" font-size="10.00">/Service_test.cpp</text>
</a>
</g>
</g>
<!-- Node15&#45;&gt;Node16 -->
<g id="edge17" class="edge">
<title>Node15&#45;&gt;Node16</title>
<path fill="none" stroke="midnightblue" d="M600.89,-176.86C548.09,-165.48 476.33,-148.98 414,-131 407.73,-129.19 401.21,-127.17 394.76,-125.07"/>
<polygon fill="midnightblue" stroke="midnightblue" points="600.35,-180.32 610.86,-178.99 601.81,-173.48 600.35,-180.32"/>
</g>
<!-- Node17 -->
<g id="node17" class="node">
<title>Node17</title>
<g id="a_node17"><a xlink:href="../../d2/d1e/_online_detector__service_8hpp.html" target="_top" xlink:title=" ">
<polygon fill="none" stroke="black" points="599.5,-84 599.5,-125 754.5,-125 754.5,-84 599.5,-84"/>
<text text-anchor="start" x="607.5" y="-113" font-family="Helvetica,sans-Serif" font-size="10.00">Components/Service</text>
<text text-anchor="start" x="607.5" y="-102" font-family="Helvetica,sans-Serif" font-size="10.00">/OnlineDetector/include</text>
<text text-anchor="middle" x="677" y="-91" font-family="Helvetica,sans-Serif" font-size="10.00">/OnlineDetector_service.hpp</text>
</a>
</g>
</g>
<!-- Node15&#45;&gt;Node17 -->
<g id="edge19" class="edge">
<title>Node15&#45;&gt;Node17</title>
<path fill="none" stroke="midnightblue" d="M677,-162.44C677,-150.1 677,-136.16 677,-125.16"/>
<polygon fill="midnightblue" stroke="midnightblue" points="673.5,-162.76 677,-172.76 680.5,-162.76 673.5,-162.76"/>
</g>
<!-- Node20 -->
<g id="node20" class="node">
<title>Node20</title>
<g id="a_node20"><a xlink:href="../../dd/d22/_water_estimator___service_8hpp.html" target="_top" xlink:title=" ">
<polygon fill="none" stroke="black" points="423,-84 423,-125 581,-125 581,-84 423,-84"/>
<text text-anchor="start" x="431" y="-113" font-family="Helvetica,sans-Serif" font-size="10.00">Components/Service</text>
<text text-anchor="start" x="431" y="-102" font-family="Helvetica,sans-Serif" font-size="10.00">/WaterEstimator/include</text>
<text text-anchor="middle" x="502" y="-91" font-family="Helvetica,sans-Serif" font-size="10.00">/WaterEstimator_Service.hpp</text>
</a>
</g>
</g>
<!-- Node15&#45;&gt;Node20 -->
<g id="edge22" class="edge">
<title>Node15&#45;&gt;Node20</title>
<path fill="none" stroke="midnightblue" d="M628.68,-168.48C601.23,-154.83 567.28,-137.96 541.44,-125.11"/>
<polygon fill="midnightblue" stroke="midnightblue" points="627.21,-171.66 637.73,-172.98 630.33,-165.39 627.21,-171.66"/>
</g>
<!-- Node18 -->
<g id="node18" class="node">
<title>Node18</title>
<g id="a_node18"><a xlink:href="../../d7/d24/_online_detector__service_8cpp.html" target="_top" xlink:title=" ">
<polygon fill="none" stroke="black" points="522,-0.5 522,-41.5 676,-41.5 676,-0.5 522,-0.5"/>
<text text-anchor="start" x="530" y="-29.5" font-family="Helvetica,sans-Serif" font-size="10.00">Components/Service</text>
<text text-anchor="start" x="530" y="-18.5" font-family="Helvetica,sans-Serif" font-size="10.00">/OnlineDetector/src</text>
<text text-anchor="middle" x="599" y="-7.5" font-family="Helvetica,sans-Serif" font-size="10.00">/OnlineDetector_service.cpp</text>
</a>
</g>
</g>
<!-- Node17&#45;&gt;Node18 -->
<g id="edge20" class="edge">
<title>Node17&#45;&gt;Node18</title>
<path fill="none" stroke="midnightblue" d="M651.2,-76.54C640.25,-65.1 627.74,-52.03 617.71,-41.55"/>
<polygon fill="midnightblue" stroke="midnightblue" points="648.68,-78.97 658.12,-83.77 653.73,-74.13 648.68,-78.97"/>
</g>
<!-- Node19 -->
<g id="node19" class="node">
<title>Node19</title>
<g id="a_node19"><a xlink:href="../../db/df8/_service_2_online_detector_2test_2test_2simple__test_8cpp.html" target="_top" xlink:title=" ">
<polygon fill="none" stroke="black" points="694.5,-0.5 694.5,-41.5 813.5,-41.5 813.5,-0.5 694.5,-0.5"/>
<text text-anchor="start" x="702.5" y="-29.5" font-family="Helvetica,sans-Serif" font-size="10.00">Components/Service</text>
<text text-anchor="start" x="702.5" y="-18.5" font-family="Helvetica,sans-Serif" font-size="10.00">/OnlineDetector/test</text>
<text text-anchor="middle" x="754" y="-7.5" font-family="Helvetica,sans-Serif" font-size="10.00">/test/simple_test.cpp</text>
</a>
</g>
</g>
<!-- Node17&#45;&gt;Node19 -->
<g id="edge21" class="edge">
<title>Node17&#45;&gt;Node19</title>
<path fill="none" stroke="midnightblue" d="M702.78,-76.21C713.51,-64.86 725.72,-51.93 735.53,-41.55"/>
<polygon fill="midnightblue" stroke="midnightblue" points="699.96,-74.1 695.64,-83.77 705.05,-78.91 699.96,-74.1"/>
</g>
<!-- Node21 -->
<g id="node21" class="node">
<title>Node21</title>
<g id="a_node21"><a xlink:href="../../dd/dd3/_water_estimator___service_8cpp.html" target="_top" xlink:title=" ">
<polygon fill="none" stroke="black" points="346.5,-0.5 346.5,-41.5 503.5,-41.5 503.5,-0.5 346.5,-0.5"/>
<text text-anchor="start" x="354.5" y="-29.5" font-family="Helvetica,sans-Serif" font-size="10.00">Components/Service</text>
<text text-anchor="start" x="354.5" y="-18.5" font-family="Helvetica,sans-Serif" font-size="10.00">/WaterEstimator/src</text>
<text text-anchor="middle" x="425" y="-7.5" font-family="Helvetica,sans-Serif" font-size="10.00">/WaterEstimator_Service.cpp</text>
</a>
</g>
</g>
<!-- Node20&#45;&gt;Node21 -->
<g id="edge23" class="edge">
<title>Node20&#45;&gt;Node21</title>
<path fill="none" stroke="midnightblue" d="M476.22,-76.21C465.49,-64.86 453.28,-51.93 443.47,-41.55"/>
<polygon fill="midnightblue" stroke="midnightblue" points="473.95,-78.91 483.36,-83.77 479.04,-74.1 473.95,-78.91"/>
</g>
<!-- Node22&#45;&gt;Node16 -->
<g id="edge25" class="edge">
<title>Node22&#45;&gt;Node16</title>
<path fill="none" stroke="midnightblue" d="M340,-162.44C340,-150.1 340,-136.16 340,-125.16"/>
<polygon fill="midnightblue" stroke="midnightblue" points="336.5,-162.76 340,-172.76 343.5,-162.76 336.5,-162.76"/>
</g>
<!-- Node23 -->
<g id="node23" class="node">
<title>Node23</title>
<g id="a_node23"><a xlink:href="../../df/d40/is_alive__service_8hpp.html" target="_top" xlink:title=" ">
<polygon fill="none" stroke="black" points="129.5,-84 129.5,-125 256.5,-125 256.5,-84 129.5,-84"/>
<text text-anchor="start" x="137.5" y="-113" font-family="Helvetica,sans-Serif" font-size="10.00">Components/Service</text>
<text text-anchor="start" x="137.5" y="-102" font-family="Helvetica,sans-Serif" font-size="10.00">/isAlive/include/isAlive</text>
<text text-anchor="middle" x="193" y="-91" font-family="Helvetica,sans-Serif" font-size="10.00">_service.hpp</text>
</a>
</g>
</g>
<!-- Node22&#45;&gt;Node23 -->
<g id="edge26" class="edge">
<title>Node22&#45;&gt;Node23</title>
<path fill="none" stroke="midnightblue" d="M298.21,-167.77C275.36,-154.24 247.46,-137.73 226.13,-125.11"/>
<polygon fill="midnightblue" stroke="midnightblue" points="296.62,-170.89 307.01,-172.98 300.19,-164.87 296.62,-170.89"/>
</g>
<!-- Node24 -->
<g id="node24" class="node">
<title>Node24</title>
<g id="a_node24"><a xlink:href="../../de/da1/is_alive__service_8cpp.html" target="_top" xlink:title=" ">
<polygon fill="none" stroke="black" points="150.5,-0.5 150.5,-41.5 267.5,-41.5 267.5,-0.5 150.5,-0.5"/>
<text text-anchor="start" x="158.5" y="-29.5" font-family="Helvetica,sans-Serif" font-size="10.00">Components/Service</text>
<text text-anchor="start" x="158.5" y="-18.5" font-family="Helvetica,sans-Serif" font-size="10.00">/isAlive/src/isAlive</text>
<text text-anchor="middle" x="209" y="-7.5" font-family="Helvetica,sans-Serif" font-size="10.00">_service.cpp</text>
</a>
</g>
</g>
<!-- Node23&#45;&gt;Node24 -->
<g id="edge27" class="edge">
<title>Node23&#45;&gt;Node24</title>
<path fill="none" stroke="midnightblue" d="M198.81,-73.9C200.93,-63.13 203.26,-51.23 205.16,-41.55"/>
<polygon fill="midnightblue" stroke="midnightblue" points="195.37,-73.28 196.87,-83.77 202.23,-74.63 195.37,-73.28"/>
</g>
<!-- Node25 -->
<g id="node25" class="node">
<title>Node25</title>
<g id="a_node25"><a xlink:href="../../d4/d60/_service_2is_alive_2test_2test_2simple__test_8cpp.html" target="_top" xlink:title=" ">
<polygon fill="none" stroke="black" points="0,-0.5 0,-41.5 132,-41.5 132,-0.5 0,-0.5"/>
<text text-anchor="start" x="8" y="-29.5" font-family="Helvetica,sans-Serif" font-size="10.00">Components/Service</text>
<text text-anchor="start" x="8" y="-18.5" font-family="Helvetica,sans-Serif" font-size="10.00">/isAlive/test/test/simple</text>
<text text-anchor="middle" x="66" y="-7.5" font-family="Helvetica,sans-Serif" font-size="10.00">_test.cpp</text>
</a>
</g>
</g>
<!-- Node23&#45;&gt;Node25 -->
<g id="edge28" class="edge">
<title>Node23&#45;&gt;Node25</title>
<path fill="none" stroke="midnightblue" d="M154.09,-78.53C135.62,-66.68 113.88,-52.72 96.61,-41.64"/>
<polygon fill="midnightblue" stroke="midnightblue" points="152.27,-81.52 162.58,-83.98 156.05,-75.63 152.27,-81.52"/>
</g>
<!-- Node29 -->
<g id="node29" class="node">
<title>Node29</title>
<g id="a_node29"><a xlink:href="../../dd/ddd/_maintainer_8cpp.html" target="_top" xlink:title=" ">
<polygon fill="none" stroke="black" points="1582,-178.5 1582,-208.5 1746,-208.5 1746,-178.5 1582,-178.5"/>
<text text-anchor="start" x="1590" y="-196.5" font-family="Helvetica,sans-Serif" font-size="10.00">Components/Objects</text>
<text text-anchor="middle" x="1664" y="-185.5" font-family="Helvetica,sans-Serif" font-size="10.00">/Maintainer/src/Maintainer.cpp</text>
</a>
</g>
</g>
<!-- Node28&#45;&gt;Node29 -->
<g id="edge32" class="edge">
<title>Node28&#45;&gt;Node29</title>
<path fill="none" stroke="midnightblue" d="M1720.23,-249.06C1706.33,-235.57 1690.07,-219.79 1678.62,-208.68"/>
<polygon fill="midnightblue" stroke="midnightblue" points="1718.05,-251.82 1727.67,-256.27 1722.93,-246.8 1718.05,-251.82"/>
</g>
<!-- Node30 -->
<g id="node30" class="node">
<title>Node30</title>
<g id="a_node30"><a xlink:href="../../d8/d4a/maintainer__test_8cpp.html" target="_top" xlink:title=" ">
<polygon fill="none" stroke="black" points="1764,-173 1764,-214 1882,-214 1882,-173 1764,-173"/>
<text text-anchor="start" x="1772" y="-202" font-family="Helvetica,sans-Serif" font-size="10.00">Components/Objects</text>
<text text-anchor="start" x="1772" y="-191" font-family="Helvetica,sans-Serif" font-size="10.00">/Maintainer/test/test</text>
<text text-anchor="middle" x="1823" y="-180" font-family="Helvetica,sans-Serif" font-size="10.00">/maintainer_test.cpp</text>
</a>
</g>
</g>
<!-- Node28&#45;&gt;Node30 -->
<g id="edge33" class="edge">
<title>Node28&#45;&gt;Node30</title>
<path fill="none" stroke="midnightblue" d="M1773.11,-248.71C1783.56,-237.36 1795.46,-224.43 1805.01,-214.05"/>
<polygon fill="midnightblue" stroke="midnightblue" points="1770.35,-246.54 1766.16,-256.27 1775.5,-251.28 1770.35,-246.54"/>
</g>
<!-- Node28&#45;&gt;Node31 -->
<g id="edge34" class="edge">
<title>Node28&#45;&gt;Node31</title>
<path fill="none" stroke="midnightblue" d="M1811.55,-253.08C1845.69,-240.77 1887.34,-225.75 1919.92,-214"/>
<polygon fill="midnightblue" stroke="midnightblue" points="1810.35,-249.79 1802.13,-256.48 1812.73,-256.38 1810.35,-249.79"/>
</g>
<!-- Node32 -->
<g id="node32" class="node">
<title>Node32</title>
<g id="a_node32"><a xlink:href="../../d2/d77/_active_current_sensor_8cpp.html" target="_top" xlink:title=" ">
<polygon fill="none" stroke="black" points="1887.5,-84 1887.5,-125 2060.5,-125 2060.5,-84 1887.5,-84"/>
<text text-anchor="start" x="1895.5" y="-113" font-family="Helvetica,sans-Serif" font-size="10.00">Components/Sensor/Active</text>
<text text-anchor="start" x="1895.5" y="-102" font-family="Helvetica,sans-Serif" font-size="10.00">CurrentSensor/src/ActiveCurrent</text>
<text text-anchor="middle" x="1974" y="-91" font-family="Helvetica,sans-Serif" font-size="10.00">Sensor.cpp</text>
</a>
</g>
</g>
<!-- Node31&#45;&gt;Node32 -->
<g id="edge35" class="edge">
<title>Node31&#45;&gt;Node32</title>
<path fill="none" stroke="midnightblue" d="M1974,-162.44C1974,-150.1 1974,-136.16 1974,-125.16"/>
<polygon fill="midnightblue" stroke="midnightblue" points="1970.5,-162.76 1974,-172.76 1977.5,-162.76 1970.5,-162.76"/>
</g>
<!-- Node34 -->
<g id="node34" class="node">
<title>Node34</title>
<g id="a_node34"><a xlink:href="../../d0/db0/hal__mqtt__log_8cpp.html" target="_top" xlink:title=" ">
<polygon fill="none" stroke="black" points="1863,-256.5 1863,-297.5 1981,-297.5 1981,-256.5 1863,-256.5"/>
<text text-anchor="start" x="1871" y="-285.5" font-family="Helvetica,sans-Serif" font-size="10.00">Components/Objects</text>
<text text-anchor="start" x="1871" y="-274.5" font-family="Helvetica,sans-Serif" font-size="10.00">/Logger/src/hal_mqtt</text>
<text text-anchor="middle" x="1922" y="-263.5" font-family="Helvetica,sans-Serif" font-size="10.00">_log.cpp</text>
</a>
</g>
</g>
<!-- Node33&#45;&gt;Node34 -->
<g id="edge39" class="edge">
<title>Node33&#45;&gt;Node34</title>
<path fill="none" stroke="midnightblue" d="M1922,-324.3C1922,-315.3 1922,-305.65 1922,-297.51"/>
<polygon fill="midnightblue" stroke="midnightblue" points="1918.5,-324.43 1922,-334.43 1925.5,-324.43 1918.5,-324.43"/>
</g>
</g>
</svg>
        <g id="navigator" transform="translate(0 0)" fill="#404254">
                <rect fill="#f2f5e9" fill-opacity="0.5" stroke="#606060" stroke-width=".5" x="0" y="0" width="60" height="60"/>
                <use id="zoomplus" xlink:href="#zoomPlus" x="17" y="9" onmousedown="handleZoom(evt,'in')"/>
                <use id="zoomminus" xlink:href="#zoomMin" x="42" y="9" onmousedown="handleZoom(evt,'out')"/>
                <use id="reset" xlink:href="#resetDef" x="30" y="36" onmousedown="handleReset()"/>
                <g id="arrowUp" xlink:href="#dirArrow" transform="translate(30 24)" onmousedown="handlePan(0,-1)">
                  <use xlink:href="#rim" fill="#404040">
                        <set attributeName="fill" to="#808080" begin="arrowUp.mouseover" end="arrowUp.mouseout"/>
                  </use>
                  <path fill="none" stroke="white" stroke-width="1.5" d="M0,-3.0v7 M-2.5,-0.5L0,-3.0L2.5,-0.5"/>
                </g>
                <g id="arrowRight" xlink:href="#dirArrow" transform="rotate(90) translate(36 -43)" onmousedown="handlePan(1,0)">
                  <use xlink:href="#rim" fill="#404040">
                        <set attributeName="fill" to="#808080" begin="arrowRight.mouseover" end="arrowRight.mouseout"/>
                  </use>
                  <path fill="none" stroke="white" stroke-width="1.5" d="M0,-3.0v7 M-2.5,-0.5L0,-3.0L2.5,-0.5"/>
                </g>
                <g id="arrowDown" xlink:href="#dirArrow" transform="rotate(180) translate(-30 -48)" onmousedown="handlePan(0,1)">
                  <use xlink:href="#rim" fill="#404040">
                        <set attributeName="fill" to="#808080" begin="arrowDown.mouseover" end="arrowDown.mouseout"/>
                  </use>
                  <path fill="none" stroke="white" stroke-width="1.5" d="M0,-3.0v7 M-2.5,-0.5L0,-3.0L2.5,-0.5"/>
                </g>
                <g id="arrowLeft" xlink:href="#dirArrow" transform="rotate(270) translate(-36 17)" onmousedown="handlePan(-1,0)">
                  <use xlink:href="#rim" fill="#404040">
                        <set attributeName="fill" to="#808080" begin="arrowLeft.mouseover" end="arrowLeft.mouseout"/>
                  </use>
                  <path fill="none" stroke="white" stroke-width="1.5" d="M0,-3.0v7 M-2.5,-0.5L0,-3.0L2.5,-0.5"/>
                </g>
        </g>
        <svg viewBox="0 0 15 15" width="100%" height="30px" preserveAspectRatio="xMaxYMin meet">
         <g id="arrow_out" transform="scale(0.3 0.3)">
          <a xlink:href="mqtt__api__v2_8hpp__dep__incl_org.svg" target="_base">
           <rect id="button" ry="5" rx="5" y="6" x="6" height="38" width="38"
                fill="#f2f5e9" fill-opacity="0.5" stroke="#606060" stroke-width="1.0"/>
           <path id="arrow"
             d="M 11.500037,31.436501 C 11.940474,20.09759 22.043105,11.32322 32.158766,21.979434 L 37.068811,17.246167 C 37.068811,17.246167 37.088388,32 37.088388,32 L 22.160133,31.978069 C 22.160133,31.978069 26.997745,27.140456 26.997745,27.140456 C 18.528582,18.264221 13.291696,25.230495 11.500037,31.436501 z"
             style="fill:#404040;"/>
          </a>
         </g>
        </svg>
</svg>
