<?xml version="1.0" encoding="UTF-8" standalone="no"?>
<!DOCTYPE svg PUBLIC "-//W3C//DTD SVG 1.1//EN"
 "http://www.w3.org/Graphics/SVG/1.1/DTD/svg11.dtd">
<!-- Generated by graphviz version 2.43.0 (0)
 -->
<!-- Title: Components/Interfaces/PWMBase/include/PWMBase.hpp Pages: 1 -->
<svg width="644pt" height="340pt"
 viewBox="0.00 0.00 643.50 340.00" xmlns="http://www.w3.org/2000/svg" xmlns:xlink="http://www.w3.org/1999/xlink">
<g id="graph0" class="graph" transform="scale(1 1) rotate(0) translate(4 336)">
<title>Components/Interfaces/PWMBase/include/PWMBase.hpp</title>
<!-- Node1 -->
<g id="node1" class="node">
<title>Node1</title>
<g id="a_node1"><a xlink:title=" ">
<polygon fill="#bfbfbf" stroke="black" points="309.5,-301.5 309.5,-331.5 488.5,-331.5 488.5,-301.5 309.5,-301.5"/>
<text text-anchor="start" x="317.5" y="-319.5" font-family="Helvetica,sans-Serif" font-size="10.00">Components/Interfaces</text>
<text text-anchor="middle" x="399" y="-308.5" font-family="Helvetica,sans-Serif" font-size="10.00">/PWMBase/include/PWMBase.hpp</text>
</a>
</g>
</g>
<!-- Node2 -->
<g id="node2" class="node">
<title>Node2</title>
<g id="a_node2"><a xlink:href="../../d3/d4e/_p_w_m___a_p_i___e_s_p32_8hpp.html" target="_top" xlink:title=" ">
<polygon fill="none" stroke="black" points="333.5,-223.5 333.5,-264.5 464.5,-264.5 464.5,-223.5 333.5,-223.5"/>
<text text-anchor="start" x="341.5" y="-252.5" font-family="Helvetica,sans-Serif" font-size="10.00">Components/Objects</text>
<text text-anchor="start" x="341.5" y="-241.5" font-family="Helvetica,sans-Serif" font-size="10.00">/PWM/include/PWM_API</text>
<text text-anchor="middle" x="399" y="-230.5" font-family="Helvetica,sans-Serif" font-size="10.00">_ESP32.hpp</text>
</a>
</g>
</g>
<!-- Node1&#45;&gt;Node2 -->
<g id="edge1" class="edge">
<title>Node1&#45;&gt;Node2</title>
<path fill="none" stroke="midnightblue" d="M399,-290.98C399,-282.35 399,-272.76 399,-264.59"/>
<polygon fill="midnightblue" stroke="midnightblue" points="395.5,-291.23 399,-301.23 402.5,-291.23 395.5,-291.23"/>
</g>
<!-- Node3 -->
<g id="node3" class="node">
<title>Node3</title>
<g id="a_node3"><a xlink:href="../../dc/d07/_m_g996_r_8hpp.html" target="_top" xlink:title=" ">
<polygon fill="none" stroke="black" points="176,-145.5 176,-186.5 298,-186.5 298,-145.5 176,-145.5"/>
<text text-anchor="start" x="184" y="-174.5" font-family="Helvetica,sans-Serif" font-size="10.00">Components/Actuator</text>
<text text-anchor="start" x="184" y="-163.5" font-family="Helvetica,sans-Serif" font-size="10.00">/ServoMotor/include</text>
<text text-anchor="middle" x="237" y="-152.5" font-family="Helvetica,sans-Serif" font-size="10.00">/MG996R.hpp</text>
</a>
</g>
</g>
<!-- Node2&#45;&gt;Node3 -->
<g id="edge2" class="edge">
<title>Node2&#45;&gt;Node3</title>
<path fill="none" stroke="midnightblue" d="M347.95,-219.05C325.6,-208.57 299.72,-196.42 278.58,-186.51"/>
<polygon fill="midnightblue" stroke="midnightblue" points="346.74,-222.35 357.28,-223.43 349.71,-216.01 346.74,-222.35"/>
</g>
<!-- Node8 -->
<g id="node8" class="node">
<title>Node8</title>
<g id="a_node8"><a xlink:href="../../d1/d3e/_p_w_m___a_p_i___e_s_p32_8cpp.html" target="_top" xlink:title=" ">
<polygon fill="none" stroke="black" points="316,-151 316,-181 482,-181 482,-151 316,-151"/>
<text text-anchor="start" x="324" y="-169" font-family="Helvetica,sans-Serif" font-size="10.00">Components/Objects</text>
<text text-anchor="middle" x="399" y="-158" font-family="Helvetica,sans-Serif" font-size="10.00">/PWM/src/PWM_API_ESP32.cpp</text>
</a>
</g>
</g>
<!-- Node2&#45;&gt;Node8 -->
<g id="edge7" class="edge">
<title>Node2&#45;&gt;Node8</title>
<path fill="none" stroke="midnightblue" d="M399,-213.28C399,-202.25 399,-190.25 399,-181.23"/>
<polygon fill="midnightblue" stroke="midnightblue" points="395.5,-213.43 399,-223.43 402.5,-213.43 395.5,-213.43"/>
</g>
<!-- Node9 -->
<g id="node9" class="node">
<title>Node9</title>
<g id="a_node9"><a xlink:href="../../d1/dc7/pwm__api__esp32__test_8cpp.html" target="_top" xlink:title=" ">
<polygon fill="none" stroke="black" points="500.5,-145.5 500.5,-186.5 635.5,-186.5 635.5,-145.5 500.5,-145.5"/>
<text text-anchor="start" x="508.5" y="-174.5" font-family="Helvetica,sans-Serif" font-size="10.00">Components/Objects</text>
<text text-anchor="start" x="508.5" y="-163.5" font-family="Helvetica,sans-Serif" font-size="10.00">/PWM/test/test/pwm_api</text>
<text text-anchor="middle" x="568" y="-152.5" font-family="Helvetica,sans-Serif" font-size="10.00">_esp32_test.cpp</text>
</a>
</g>
</g>
<!-- Node2&#45;&gt;Node9 -->
<g id="edge8" class="edge">
<title>Node2&#45;&gt;Node9</title>
<path fill="none" stroke="midnightblue" d="M451.95,-219.19C475.33,-208.67 502.47,-196.47 524.63,-186.51"/>
<polygon fill="midnightblue" stroke="midnightblue" points="450.21,-216.13 442.52,-223.43 453.08,-222.52 450.21,-216.13"/>
</g>
<!-- Node4 -->
<g id="node4" class="node">
<title>Node4</title>
<g id="a_node4"><a xlink:href="../../de/da5/_m_g996_r_8cpp.html" target="_top" xlink:title=" ">
<polygon fill="none" stroke="black" points="0,-73 0,-103 158,-103 158,-73 0,-73"/>
<text text-anchor="start" x="8" y="-91" font-family="Helvetica,sans-Serif" font-size="10.00">Components/Actuator</text>
<text text-anchor="middle" x="79" y="-80" font-family="Helvetica,sans-Serif" font-size="10.00">/ServoMotor/src/MG996R.cpp</text>
</a>
</g>
</g>
<!-- Node3&#45;&gt;Node4 -->
<g id="edge3" class="edge">
<title>Node3&#45;&gt;Node4</title>
<path fill="none" stroke="midnightblue" d="M187.04,-140.97C161.23,-128.55 130.61,-113.83 108.57,-103.23"/>
<polygon fill="midnightblue" stroke="midnightblue" points="185.78,-144.25 196.31,-145.43 188.82,-137.94 185.78,-144.25"/>
</g>
<!-- Node5 -->
<g id="node5" class="node">
<title>Node5</title>
<g id="a_node5"><a xlink:href="../../d8/d14/servo__test_8cpp.html" target="_top" xlink:title=" ">
<polygon fill="none" stroke="black" points="176,-67.5 176,-108.5 298,-108.5 298,-67.5 176,-67.5"/>
<text text-anchor="start" x="184" y="-96.5" font-family="Helvetica,sans-Serif" font-size="10.00">Components/Actuator</text>
<text text-anchor="start" x="184" y="-85.5" font-family="Helvetica,sans-Serif" font-size="10.00">/ServoMotor/test/test</text>
<text text-anchor="middle" x="237" y="-74.5" font-family="Helvetica,sans-Serif" font-size="10.00">/servo_test.cpp</text>
</a>
</g>
</g>
<!-- Node3&#45;&gt;Node5 -->
<g id="edge4" class="edge">
<title>Node3&#45;&gt;Node5</title>
<path fill="none" stroke="midnightblue" d="M237,-135.3C237,-126.3 237,-116.65 237,-108.51"/>
<polygon fill="midnightblue" stroke="midnightblue" points="233.5,-135.43 237,-145.43 240.5,-135.43 233.5,-135.43"/>
</g>
<!-- Node6 -->
<g id="node6" class="node">
<title>Node6</title>
<g id="a_node6"><a xlink:href="../../de/d0e/_dog_feeder_door_8hpp.html" target="_top" xlink:title=" ">
<polygon fill="none" stroke="black" points="316,-73 316,-103 494,-103 494,-73 316,-73"/>
<text text-anchor="start" x="324" y="-91" font-family="Helvetica,sans-Serif" font-size="10.00">Components/User/DogFeeder</text>
<text text-anchor="middle" x="405" y="-80" font-family="Helvetica,sans-Serif" font-size="10.00">Door/include/DogFeederDoor.hpp</text>
</a>
</g>
</g>
<!-- Node3&#45;&gt;Node6 -->
<g id="edge5" class="edge">
<title>Node3&#45;&gt;Node6</title>
<path fill="none" stroke="midnightblue" d="M289.43,-141.28C317.12,-128.76 350.17,-113.81 373.82,-103.11"/>
<polygon fill="midnightblue" stroke="midnightblue" points="287.93,-138.12 280.26,-145.43 290.82,-144.5 287.93,-138.12"/>
</g>
<!-- Node7 -->
<g id="node7" class="node">
<title>Node7</title>
<g id="a_node7"><a xlink:href="../../da/da0/_dog_feeder_door_8cpp.html" target="_top" xlink:title=" ">
<polygon fill="none" stroke="black" points="325.5,-0.5 325.5,-30.5 484.5,-30.5 484.5,-0.5 325.5,-0.5"/>
<text text-anchor="start" x="333.5" y="-18.5" font-family="Helvetica,sans-Serif" font-size="10.00">Components/User/DogFeeder</text>
<text text-anchor="middle" x="405" y="-7.5" font-family="Helvetica,sans-Serif" font-size="10.00">Door/src/DogFeederDoor.cpp</text>
</a>
</g>
</g>
<!-- Node6&#45;&gt;Node7 -->
<g id="edge6" class="edge">
<title>Node6&#45;&gt;Node7</title>
<path fill="none" stroke="midnightblue" d="M405,-62.73C405,-52.07 405,-39.91 405,-30.75"/>
<polygon fill="midnightblue" stroke="midnightblue" points="401.5,-62.73 405,-72.73 408.5,-62.73 401.5,-62.73"/>
</g>
</g>
</svg>
