<?xml version="1.0" encoding="UTF-8" standalone="no"?>
<!DOCTYPE svg PUBLIC "-//W3C//DTD SVG 1.1//EN"
 "http://www.w3.org/Graphics/SVG/1.1/DTD/svg11.dtd">
<!-- Generated by graphviz version 2.43.0 (0)
 -->
<!-- Title: http_interface Pages: 1 -->
<svg width="220pt" height="503pt"
 viewBox="0.00 0.00 220.00 503.00" xmlns="http://www.w3.org/2000/svg" xmlns:xlink="http://www.w3.org/1999/xlink">
<g id="graph0" class="graph" transform="scale(1 1) rotate(0) translate(4 499)">
<title>http_interface</title>
<!-- Node1 -->
<g id="node1" class="node">
<title>Node1</title>
<g id="a_node1"><a xlink:title=" ">
<polygon fill="#bfbfbf" stroke="black" points="54.5,-0.5 54.5,-123.5 166.5,-123.5 166.5,-0.5 54.5,-0.5"/>
<text text-anchor="middle" x="110.5" y="-111.5" font-family="Helvetica,sans-Serif" font-size="10.00">http_interface</text>
<polyline fill="none" stroke="black" points="54.5,-104.5 166.5,-104.5 "/>
<text text-anchor="start" x="62.5" y="-92.5" font-family="Helvetica,sans-Serif" font-size="10.00">&#45; m_initialized</text>
<text text-anchor="start" x="62.5" y="-81.5" font-family="Helvetica,sans-Serif" font-size="10.00">&#45; m_open</text>
<polyline fill="none" stroke="black" points="54.5,-74.5 166.5,-74.5 "/>
<text text-anchor="start" x="62.5" y="-62.5" font-family="Helvetica,sans-Serif" font-size="10.00">+ http_interface()</text>
<text text-anchor="start" x="62.5" y="-51.5" font-family="Helvetica,sans-Serif" font-size="10.00">+ ~http_interface()</text>
<text text-anchor="start" x="62.5" y="-40.5" font-family="Helvetica,sans-Serif" font-size="10.00">+ initialize()</text>
<text text-anchor="start" x="62.5" y="-29.5" font-family="Helvetica,sans-Serif" font-size="10.00">+ open()</text>
<text text-anchor="start" x="62.5" y="-18.5" font-family="Helvetica,sans-Serif" font-size="10.00">+ close()</text>
<text text-anchor="start" x="62.5" y="-7.5" font-family="Helvetica,sans-Serif" font-size="10.00">+ post()</text>
</a>
</g>
</g>
<!-- Node2 -->
<g id="node2" class="node">
<title>Node2</title>
<g id="a_node2"><a xlink:href="../../dc/d12/class_protocol_base.html" target="_top" xlink:title=" ">
<polygon fill="none" stroke="black" points="0,-171.5 0,-283.5 107,-283.5 107,-171.5 0,-171.5"/>
<text text-anchor="middle" x="53.5" y="-271.5" font-family="Helvetica,sans-Serif" font-size="10.00">ProtocolBase</text>
<polyline fill="none" stroke="black" points="0,-264.5 107,-264.5 "/>
<text text-anchor="middle" x="53.5" y="-252.5" font-family="Helvetica,sans-Serif" font-size="10.00"> </text>
<polyline fill="none" stroke="black" points="0,-245.5 107,-245.5 "/>
<text text-anchor="start" x="8" y="-233.5" font-family="Helvetica,sans-Serif" font-size="10.00">+ ProtocolBase()</text>
<text text-anchor="start" x="8" y="-222.5" font-family="Helvetica,sans-Serif" font-size="10.00">+ ~ProtocolBase()</text>
<text text-anchor="start" x="8" y="-211.5" font-family="Helvetica,sans-Serif" font-size="10.00">+ open()</text>
<text text-anchor="start" x="8" y="-200.5" font-family="Helvetica,sans-Serif" font-size="10.00">+ post()</text>
<text text-anchor="start" x="8" y="-189.5" font-family="Helvetica,sans-Serif" font-size="10.00">+ close()</text>
<text text-anchor="start" x="8" y="-178.5" font-family="Helvetica,sans-Serif" font-size="10.00">+ getResponse()</text>
</a>
</g>
</g>
<!-- Node2&#45;&gt;Node1 -->
<g id="edge1" class="edge">
<title>Node2&#45;&gt;Node1</title>
<path fill="none" stroke="midnightblue" d="M76.1,-161.68C80.47,-149.14 85.04,-136.03 89.36,-123.63"/>
<polygon fill="none" stroke="midnightblue" points="72.78,-160.55 72.8,-171.15 79.39,-162.86 72.78,-160.55"/>
</g>
<!-- Node3 -->
<g id="node3" class="node">
<title>Node3</title>
<g id="a_node3"><a xlink:title="STL class.">
<polygon fill="none" stroke="#bfbfbf" points="78,-331.5 78,-388.5 143,-388.5 143,-331.5 78,-331.5"/>
<text text-anchor="middle" x="110.5" y="-376.5" font-family="Helvetica,sans-Serif" font-size="10.00">std::string</text>
<polyline fill="none" stroke="#bfbfbf" points="78,-369.5 143,-369.5 "/>
<text text-anchor="middle" x="110.5" y="-357.5" font-family="Helvetica,sans-Serif" font-size="10.00"> </text>
<polyline fill="none" stroke="#bfbfbf" points="78,-350.5 143,-350.5 "/>
<text text-anchor="middle" x="110.5" y="-338.5" font-family="Helvetica,sans-Serif" font-size="10.00"> </text>
</a>
</g>
</g>
<!-- Node3&#45;&gt;Node2 -->
<g id="edge2" class="edge">
<title>Node3&#45;&gt;Node2</title>
<path fill="none" stroke="#404040" d="M93.81,-331.16C90.54,-325.26 87.27,-319 84.5,-313 81.8,-307.15 79.16,-300.99 76.63,-294.77"/>
<polygon fill="none" stroke="#404040" points="76.62,-294.74 70.7,-290.62 72.23,-283.58 78.15,-287.7 76.62,-294.74"/>
<text text-anchor="middle" x="110.5" y="-305" font-family="Helvetica,sans-Serif" font-size="10.00"> &#45;response</text>
</g>
<!-- Node5 -->
<g id="node5" class="node">
<title>Node5</title>
<g id="a_node5"><a xlink:href="../../d2/d2b/class_curl___s_a_l.html" target="_top" xlink:title=" ">
<polygon fill="none" stroke="black" points="125,-171.5 125,-283.5 212,-283.5 212,-171.5 125,-171.5"/>
<text text-anchor="middle" x="168.5" y="-271.5" font-family="Helvetica,sans-Serif" font-size="10.00">Curl_SAL</text>
<polyline fill="none" stroke="black" points="125,-264.5 212,-264.5 "/>
<text text-anchor="middle" x="168.5" y="-252.5" font-family="Helvetica,sans-Serif" font-size="10.00"> </text>
<polyline fill="none" stroke="black" points="125,-245.5 212,-245.5 "/>
<text text-anchor="start" x="133" y="-233.5" font-family="Helvetica,sans-Serif" font-size="10.00">+ Curl_SAL()</text>
<text text-anchor="start" x="133" y="-222.5" font-family="Helvetica,sans-Serif" font-size="10.00">+ ~Curl_SAL()</text>
<text text-anchor="start" x="133" y="-211.5" font-family="Helvetica,sans-Serif" font-size="10.00">+ initialize()</text>
<text text-anchor="start" x="133" y="-200.5" font-family="Helvetica,sans-Serif" font-size="10.00">+ open()</text>
<text text-anchor="start" x="133" y="-189.5" font-family="Helvetica,sans-Serif" font-size="10.00">+ close()</text>
<text text-anchor="start" x="133" y="-178.5" font-family="Helvetica,sans-Serif" font-size="10.00">+ post()</text>
</a>
</g>
</g>
<!-- Node3&#45;&gt;Node5 -->
<g id="edge5" class="edge">
<title>Node3&#45;&gt;Node5</title>
<path fill="none" stroke="#404040" d="M127.14,-331.14C130.41,-325.24 133.7,-318.98 136.5,-313 139.25,-307.14 141.94,-300.98 144.52,-294.76"/>
<polygon fill="none" stroke="#404040" points="144.55,-294.68 143.09,-287.62 149.04,-283.55 150.51,-290.62 144.55,-294.68"/>
<text text-anchor="middle" x="167" y="-305" font-family="Helvetica,sans-Serif" font-size="10.00"> &#45;m_server</text>
</g>
<!-- Node4 -->
<g id="node4" class="node">
<title>Node4</title>
<g id="a_node4"><a xlink:title="STL class.">
<polygon fill="none" stroke="#bfbfbf" points="58.5,-426.5 58.5,-494.5 162.5,-494.5 162.5,-426.5 58.5,-426.5"/>
<text text-anchor="start" x="66.5" y="-482.5" font-family="Helvetica,sans-Serif" font-size="10.00">std::basic_string&lt;</text>
<text text-anchor="middle" x="110.5" y="-471.5" font-family="Helvetica,sans-Serif" font-size="10.00"> char &gt;</text>
<polyline fill="none" stroke="#bfbfbf" points="58.5,-464.5 162.5,-464.5 "/>
<text text-anchor="middle" x="110.5" y="-452.5" font-family="Helvetica,sans-Serif" font-size="10.00"> </text>
<polyline fill="none" stroke="#bfbfbf" points="58.5,-445.5 162.5,-445.5 "/>
<text text-anchor="middle" x="110.5" y="-433.5" font-family="Helvetica,sans-Serif" font-size="10.00"> </text>
</a>
</g>
</g>
<!-- Node4&#45;&gt;Node3 -->
<g id="edge3" class="edge">
<title>Node4&#45;&gt;Node3</title>
<path fill="none" stroke="midnightblue" d="M110.5,-416.38C110.5,-406.94 110.5,-397.2 110.5,-388.57"/>
<polygon fill="none" stroke="midnightblue" points="107,-416.43 110.5,-426.43 114,-416.43 107,-416.43"/>
</g>
<!-- Node5&#45;&gt;Node1 -->
<g id="edge4" class="edge">
<title>Node5&#45;&gt;Node1</title>
<path fill="none" stroke="#404040" d="M148.86,-171.15C144.75,-159.56 140.36,-147.19 136.08,-135.1"/>
<polygon fill="none" stroke="#404040" points="136.02,-134.94 130.24,-130.62 132.01,-123.63 137.78,-127.94 136.02,-134.94"/>
<text text-anchor="middle" x="159" y="-145" font-family="Helvetica,sans-Serif" font-size="10.00"> &#45;m_sal</text>
</g>
</g>
</svg>
