<?xml version="1.0" encoding="UTF-8" standalone="no"?>
<!DOCTYPE svg PUBLIC "-//W3C//DTD SVG 1.1//EN"
 "http://www.w3.org/Graphics/SVG/1.1/DTD/svg11.dtd">
<!-- Generated by graphviz version 2.43.0 (0)
 -->
<!-- Title: Components/AnalysisTools/ImageAnalysis_OpenCV/include/Utility_Image.hpp Pages: 1 -->
<svg width="609pt" height="296pt"
 viewBox="0.00 0.00 609.00 296.00" xmlns="http://www.w3.org/2000/svg" xmlns:xlink="http://www.w3.org/1999/xlink">
<g id="graph0" class="graph" transform="scale(1 1) rotate(0) translate(4 292)">
<title>Components/AnalysisTools/ImageAnalysis_OpenCV/include/Utility_Image.hpp</title>
<!-- Node1 -->
<g id="node1" class="node">
<title>Node1</title>
<g id="a_node1"><a xlink:title=" ">
<polygon fill="#bfbfbf" stroke="black" points="290,-246.5 290,-287.5 464,-287.5 464,-246.5 290,-246.5"/>
<text text-anchor="start" x="298" y="-275.5" font-family="Helvetica,sans-Serif" font-size="10.00">Components/AnalysisTools</text>
<text text-anchor="start" x="298" y="-264.5" font-family="Helvetica,sans-Serif" font-size="10.00">/ImageAnalysis_OpenCV/include</text>
<text text-anchor="middle" x="377" y="-253.5" font-family="Helvetica,sans-Serif" font-size="10.00">/Utility_Image.hpp</text>
</a>
</g>
</g>
<!-- Node2 -->
<g id="node2" class="node">
<title>Node2</title>
<g id="a_node2"><a xlink:href="../../da/d5f/_b_a_s_i_c_8hpp.html" target="_top" xlink:title=" ">
<polygon fill="none" stroke="black" points="0,-56.5 0,-86.5 116,-86.5 116,-56.5 0,-56.5"/>
<text text-anchor="start" x="8" y="-74.5" font-family="Helvetica,sans-Serif" font-size="10.00">../../../Global_Include</text>
<text text-anchor="middle" x="58" y="-63.5" font-family="Helvetica,sans-Serif" font-size="10.00">/BASIC.hpp</text>
</a>
</g>
</g>
<!-- Node1&#45;&gt;Node2 -->
<g id="edge1" class="edge">
<title>Node1&#45;&gt;Node2</title>
<path fill="none" stroke="midnightblue" d="M289.98,-254.67C219.95,-240.75 124.8,-210.06 72,-143 61.85,-130.11 58.43,-111.86 57.51,-97.16"/>
<polygon fill="midnightblue" stroke="midnightblue" points="61,-96.66 57.22,-86.76 54,-96.85 61,-96.66"/>
</g>
<!-- Node3 -->
<g id="node3" class="node">
<title>Node3</title>
<g id="a_node3"><a xlink:href="../../d3/deb/_general___error_8hpp.html" target="_top" xlink:title=" ">
<polygon fill="none" stroke="black" points="346,-56.5 346,-86.5 492,-86.5 492,-56.5 346,-56.5"/>
<text text-anchor="start" x="354" y="-74.5" font-family="Helvetica,sans-Serif" font-size="10.00">../../../Objects/ErrorHandler</text>
<text text-anchor="middle" x="419" y="-63.5" font-family="Helvetica,sans-Serif" font-size="10.00">/include/General_Error.hpp</text>
</a>
</g>
</g>
<!-- Node1&#45;&gt;Node3 -->
<g id="edge2" class="edge">
<title>Node1&#45;&gt;Node3</title>
<path fill="none" stroke="midnightblue" d="M385.91,-246.5C396.26,-222.67 412.72,-180.84 419,-143 421.53,-127.76 421.57,-110.4 420.95,-96.73"/>
<polygon fill="midnightblue" stroke="midnightblue" points="424.44,-96.43 420.35,-86.66 417.45,-96.85 424.44,-96.43"/>
</g>
<!-- Node6 -->
<g id="node6" class="node">
<title>Node6</title>
<g id="a_node6"><a xlink:href="../../d7/d60/_timeservice_8hpp.html" target="_top" xlink:title=" ">
<polygon fill="none" stroke="black" points="225.5,-179.5 225.5,-209.5 368.5,-209.5 368.5,-179.5 225.5,-179.5"/>
<text text-anchor="start" x="233.5" y="-197.5" font-family="Helvetica,sans-Serif" font-size="10.00">../../../Objects/Timeservice</text>
<text text-anchor="middle" x="297" y="-186.5" font-family="Helvetica,sans-Serif" font-size="10.00">/include/Timeservice.hpp</text>
</a>
</g>
</g>
<!-- Node1&#45;&gt;Node6 -->
<g id="edge5" class="edge">
<title>Node1&#45;&gt;Node6</title>
<path fill="none" stroke="midnightblue" d="M354.72,-246.36C344.18,-237.08 331.59,-225.98 320.86,-216.52"/>
<polygon fill="midnightblue" stroke="midnightblue" points="322.9,-213.66 313.08,-209.67 318.27,-218.91 322.9,-213.66"/>
</g>
<!-- Node12 -->
<g id="node12" class="node">
<title>Node12</title>
<g id="a_node12"><a xlink:title=" ">
<polygon fill="none" stroke="#bfbfbf" points="485,-185 485,-204 601,-204 601,-185 485,-185"/>
<text text-anchor="middle" x="543" y="-192" font-family="Helvetica,sans-Serif" font-size="10.00">opencv2/opencv.hpp</text>
</a>
</g>
</g>
<!-- Node1&#45;&gt;Node12 -->
<g id="edge15" class="edge">
<title>Node1&#45;&gt;Node12</title>
<path fill="none" stroke="midnightblue" d="M423.24,-246.36C452.04,-234.13 488.23,-218.76 513.25,-208.14"/>
<polygon fill="midnightblue" stroke="midnightblue" points="514.74,-211.3 522.58,-204.17 512.01,-204.86 514.74,-211.3"/>
</g>
<!-- Node4 -->
<g id="node4" class="node">
<title>Node4</title>
<g id="a_node4"><a xlink:title=" ">
<polygon fill="none" stroke="#bfbfbf" points="362,-0.5 362,-19.5 406,-19.5 406,-0.5 362,-0.5"/>
<text text-anchor="middle" x="384" y="-7.5" font-family="Helvetica,sans-Serif" font-size="10.00">string</text>
</a>
</g>
</g>
<!-- Node3&#45;&gt;Node4 -->
<g id="edge3" class="edge">
<title>Node3&#45;&gt;Node4</title>
<path fill="none" stroke="midnightblue" d="M410.71,-56.4C405.78,-48.02 399.49,-37.33 394.25,-28.42"/>
<polygon fill="midnightblue" stroke="midnightblue" points="397.18,-26.5 389.09,-19.66 391.15,-30.05 397.18,-26.5"/>
</g>
<!-- Node5 -->
<g id="node5" class="node">
<title>Node5</title>
<g id="a_node5"><a xlink:title=" ">
<polygon fill="none" stroke="#bfbfbf" points="424,-0.5 424,-19.5 484,-19.5 484,-0.5 424,-0.5"/>
<text text-anchor="middle" x="454" y="-7.5" font-family="Helvetica,sans-Serif" font-size="10.00">iostream</text>
</a>
</g>
</g>
<!-- Node3&#45;&gt;Node5 -->
<g id="edge4" class="edge">
<title>Node3&#45;&gt;Node5</title>
<path fill="none" stroke="midnightblue" d="M427.29,-56.4C432.22,-48.02 438.51,-37.33 443.75,-28.42"/>
<polygon fill="midnightblue" stroke="midnightblue" points="446.85,-30.05 448.91,-19.66 440.82,-26.5 446.85,-30.05"/>
</g>
<!-- Node6&#45;&gt;Node2 -->
<g id="edge6" class="edge">
<title>Node6&#45;&gt;Node2</title>
<path fill="none" stroke="midnightblue" d="M225.26,-190.83C182.5,-185.86 129.43,-173.36 92,-143 77.59,-131.32 68.88,-112.05 63.89,-96.61"/>
<polygon fill="midnightblue" stroke="midnightblue" points="67.16,-95.29 61.01,-86.67 60.43,-97.25 67.16,-95.29"/>
</g>
<!-- Node6&#45;&gt;Node3 -->
<g id="edge7" class="edge">
<title>Node6&#45;&gt;Node3</title>
<path fill="none" stroke="midnightblue" d="M345.7,-179.46C365.09,-171.61 386.07,-159.91 400,-143 410.7,-130.01 415.41,-111.53 417.47,-96.75"/>
<polygon fill="midnightblue" stroke="midnightblue" points="420.95,-97.09 418.55,-86.77 413.99,-96.34 420.95,-97.09"/>
</g>
<!-- Node7 -->
<g id="node7" class="node">
<title>Node7</title>
<g id="a_node7"><a xlink:href="../../d6/d4b/_r_t_c___h_a_l_8hpp.html" target="_top" xlink:title=" ">
<polygon fill="none" stroke="black" points="101.5,-123.5 101.5,-142.5 182.5,-142.5 182.5,-123.5 101.5,-123.5"/>
<text text-anchor="middle" x="142" y="-130.5" font-family="Helvetica,sans-Serif" font-size="10.00">RTC_HAL.hpp</text>
</a>
</g>
</g>
<!-- Node6&#45;&gt;Node7 -->
<g id="edge8" class="edge">
<title>Node6&#45;&gt;Node7</title>
<path fill="none" stroke="midnightblue" d="M260.27,-179.4C234.03,-169.33 199.07,-155.91 173.98,-146.28"/>
<polygon fill="midnightblue" stroke="midnightblue" points="175.14,-142.97 164.55,-142.66 172.64,-149.51 175.14,-142.97"/>
</g>
<!-- Node9 -->
<g id="node9" class="node">
<title>Node9</title>
<g id="a_node9"><a xlink:title=" ">
<polygon fill="none" stroke="#bfbfbf" points="201,-123.5 201,-142.5 251,-142.5 251,-123.5 201,-123.5"/>
<text text-anchor="middle" x="226" y="-130.5" font-family="Helvetica,sans-Serif" font-size="10.00">chrono</text>
</a>
</g>
</g>
<!-- Node6&#45;&gt;Node9 -->
<g id="edge12" class="edge">
<title>Node6&#45;&gt;Node9</title>
<path fill="none" stroke="midnightblue" d="M280.17,-179.4C269.33,-170.31 255.22,-158.49 244.13,-149.19"/>
<polygon fill="midnightblue" stroke="midnightblue" points="246.24,-146.4 236.33,-142.66 241.75,-151.76 246.24,-146.4"/>
</g>
<!-- Node10 -->
<g id="node10" class="node">
<title>Node10</title>
<g id="a_node10"><a xlink:title=" ">
<polygon fill="none" stroke="#bfbfbf" points="269,-123.5 269,-142.5 325,-142.5 325,-123.5 269,-123.5"/>
<text text-anchor="middle" x="297" y="-130.5" font-family="Helvetica,sans-Serif" font-size="10.00">iomanip</text>
</a>
</g>
</g>
<!-- Node6&#45;&gt;Node10 -->
<g id="edge13" class="edge">
<title>Node6&#45;&gt;Node10</title>
<path fill="none" stroke="midnightblue" d="M297,-179.4C297,-171.47 297,-161.46 297,-152.86"/>
<polygon fill="midnightblue" stroke="midnightblue" points="300.5,-152.66 297,-142.66 293.5,-152.66 300.5,-152.66"/>
</g>
<!-- Node11 -->
<g id="node11" class="node">
<title>Node11</title>
<g id="a_node11"><a xlink:title=" ">
<polygon fill="none" stroke="#bfbfbf" points="343,-123.5 343,-142.5 391,-142.5 391,-123.5 343,-123.5"/>
<text text-anchor="middle" x="367" y="-130.5" font-family="Helvetica,sans-Serif" font-size="10.00">thread</text>
</a>
</g>
</g>
<!-- Node6&#45;&gt;Node11 -->
<g id="edge14" class="edge">
<title>Node6&#45;&gt;Node11</title>
<path fill="none" stroke="midnightblue" d="M313.59,-179.4C324.29,-170.31 338.19,-158.49 349.13,-149.19"/>
<polygon fill="midnightblue" stroke="midnightblue" points="351.46,-151.8 356.81,-142.66 346.93,-146.47 351.46,-151.8"/>
</g>
<!-- Node7&#45;&gt;Node2 -->
<g id="edge9" class="edge">
<title>Node7&#45;&gt;Node2</title>
<path fill="none" stroke="midnightblue" d="M129.96,-123.48C118.59,-115.42 101.09,-103.02 86.2,-92.47"/>
<polygon fill="midnightblue" stroke="midnightblue" points="87.98,-89.45 77.8,-86.52 83.93,-95.16 87.98,-89.45"/>
</g>
<!-- Node7&#45;&gt;Node3 -->
<g id="edge10" class="edge">
<title>Node7&#45;&gt;Node3</title>
<path fill="none" stroke="midnightblue" d="M181.69,-123.48C223.85,-114.42 291.5,-99.89 343.81,-88.65"/>
<polygon fill="midnightblue" stroke="midnightblue" points="344.67,-92.05 353.72,-86.52 343.2,-85.2 344.67,-92.05"/>
</g>
<!-- Node8 -->
<g id="node8" class="node">
<title>Node8</title>
<g id="a_node8"><a xlink:title=" ">
<polygon fill="none" stroke="#bfbfbf" points="134,-62 134,-81 178,-81 178,-62 134,-62"/>
<text text-anchor="middle" x="156" y="-69" font-family="Helvetica,sans-Serif" font-size="10.00">ctime</text>
</a>
</g>
</g>
<!-- Node7&#45;&gt;Node8 -->
<g id="edge11" class="edge">
<title>Node7&#45;&gt;Node8</title>
<path fill="none" stroke="midnightblue" d="M144.01,-123.48C146,-114.99 149.13,-101.7 151.69,-90.82"/>
<polygon fill="midnightblue" stroke="midnightblue" points="155.11,-91.54 154,-81.01 148.3,-89.94 155.11,-91.54"/>
</g>
</g>
</svg>
