<?xml version="1.0" encoding="UTF-8" standalone="no"?>
<!DOCTYPE svg PUBLIC "-//W3C//DTD SVG 1.1//EN"
 "http://www.w3.org/Graphics/SVG/1.1/DTD/svg11.dtd">
<!-- Generated by graphviz version 2.43.0 (0)
 -->
<!-- Title: Components/Objects/QueryTools/include/QueryAddSensorData.hpp Pages: 1 -->
<!--zoomable 441 -->
<svg id="main" version="1.1" xmlns="http://www.w3.org/2000/svg" xmlns:xlink="http://www.w3.org/1999/xlink" xml:space="preserve" onload="init(evt)">
<style type="text/css"><![CDATA[
.edge:hover path { stroke: red; }
.edge:hover polygon { stroke: red; fill: red; }
]]></style>
<script type="text/javascript"><![CDATA[
var edges = document.getElementsByTagName('g');
if (edges && edges.length) {
  for (var i=0;i<edges.length;i++) {
    if (edges[i].id.substr(0,4)=='edge') {
      edges[i].setAttribute('class','edge');
    }
  }
}
]]></script>
        <defs>
                <circle id="rim" cx="0" cy="0" r="7"/>
                <circle id="rim2" cx="0" cy="0" r="3.5"/>
                <g id="zoomPlus">
                        <use xlink:href="#rim" fill="#404040">
                                <set attributeName="fill" to="#808080" begin="zoomplus.mouseover" end="zoomplus.mouseout"/>
                        </use>
                        <path d="M-4,0h8M0,-4v8" fill="none" stroke="white" stroke-width="1.5" pointer-events="none"/>
                </g>
                <g id="zoomMin">
                        <use xlink:href="#rim" fill="#404040">
                                <set attributeName="fill" to="#808080" begin="zoomminus.mouseover" end="zoomminus.mouseout"/>
                        </use>
                        <path d="M-4,0h8" fill="none" stroke="white" stroke-width="1.5" pointer-events="none"/>
                </g>
                <g id="dirArrow">
                        <path fill="none" stroke="white" stroke-width="1.5" d="M0,-3.0v7 M-2.5,-0.5L0,-3.0L2.5,-0.5"/>
                </g>
               <g id="resetDef">
                       <use xlink:href="#rim2" fill="#404040">
                               <set attributeName="fill" to="#808080" begin="reset.mouseover" end="reset.mouseout"/>
                       </use>
               </g>
        </defs>

<script type="text/javascript">
var viewWidth = 788;
var viewHeight = 441;
var sectionId = 'dynsection-0';
</script>
<script xlink:href="../../svgpan.js"/>
<svg id="graph" class="graph">
<g id="viewport">
<title>Components/Objects/QueryTools/include/QueryAddSensorData.hpp</title>
<!-- Node1 -->
<g id="node1" class="node">
<title>Node1</title>
<g id="a_node1"><a xlink:title=" ">
<polygon fill="#bfbfbf" stroke="black" points="560.5,-391.5 560.5,-432.5 705.5,-432.5 705.5,-391.5 560.5,-391.5"/>
<text text-anchor="start" x="568.5" y="-420.5" font-family="Helvetica,sans-Serif" font-size="10.00">Components/Objects</text>
<text text-anchor="start" x="568.5" y="-409.5" font-family="Helvetica,sans-Serif" font-size="10.00">/QueryTools/include</text>
<text text-anchor="middle" x="633" y="-398.5" font-family="Helvetica,sans-Serif" font-size="10.00">/QueryAddSensorData.hpp</text>
</a>
</g>
</g>
<!-- Node2 -->
<g id="node2" class="node">
<title>Node2</title>
<g id="a_node2"><a xlink:href="../../da/d5f/_b_a_s_i_c_8hpp.html" target="_top" xlink:title=" ">
<polygon fill="none" stroke="black" points="37,-56.5 37,-86.5 153,-86.5 153,-56.5 37,-56.5"/>
<text text-anchor="start" x="45" y="-74.5" font-family="Helvetica,sans-Serif" font-size="10.00">../../../Global_Include</text>
<text text-anchor="middle" x="95" y="-63.5" font-family="Helvetica,sans-Serif" font-size="10.00">/BASIC.hpp</text>
</a>
</g>
</g>
<!-- Node1&#45;&gt;Node2 -->
<g id="edge1" class="edge">
<title>Node1&#45;&gt;Node2</title>
<path fill="none" stroke="midnightblue" d="M560.39,-410.99C394.12,-409.02 0,-392.38 0,-279 0,-279 0,-279 0,-204.5 0,-157.99 39.34,-116.68 67.39,-93.13"/>
<polygon fill="midnightblue" stroke="midnightblue" points="69.76,-95.71 75.32,-86.69 65.35,-90.28 69.76,-95.71"/>
</g>
<!-- Node3 -->
<g id="node3" class="node">
<title>Node3</title>
<g id="a_node3"><a xlink:href="../../d3/deb/_general___error_8hpp.html" target="_top" xlink:title=" ">
<polygon fill="none" stroke="black" points="489,-56.5 489,-86.5 635,-86.5 635,-56.5 489,-56.5"/>
<text text-anchor="start" x="497" y="-74.5" font-family="Helvetica,sans-Serif" font-size="10.00">../../../Objects/ErrorHandler</text>
<text text-anchor="middle" x="562" y="-63.5" font-family="Helvetica,sans-Serif" font-size="10.00">/include/General_Error.hpp</text>
</a>
</g>
</g>
<!-- Node1&#45;&gt;Node3 -->
<g id="edge2" class="edge">
<title>Node1&#45;&gt;Node3</title>
<path fill="none" stroke="midnightblue" d="M681.54,-391.41C724.36,-370.54 780,-333.02 780,-279 780,-279 780,-279 780,-204.5 780,-164.15 770.98,-148.85 740,-123 713.4,-100.8 677.63,-88.35 645.12,-81.36"/>
<polygon fill="midnightblue" stroke="midnightblue" points="645.65,-77.9 635.16,-79.36 644.27,-84.76 645.65,-77.9"/>
</g>
<!-- Node6 -->
<g id="node6" class="node">
<title>Node6</title>
<g id="a_node6"><a xlink:href="../../d1/dc6/_query_base_8hpp.html" target="_top" xlink:title=" ">
<polygon fill="none" stroke="black" points="526,-123.5 526,-153.5 714,-153.5 714,-123.5 526,-123.5"/>
<text text-anchor="start" x="534" y="-141.5" font-family="Helvetica,sans-Serif" font-size="10.00">../../../Interfaces</text>
<text text-anchor="middle" x="620" y="-130.5" font-family="Helvetica,sans-Serif" font-size="10.00">/QueryBase/include/QueryBase.hpp</text>
</a>
</g>
</g>
<!-- Node1&#45;&gt;Node6 -->
<g id="edge5" class="edge">
<title>Node1&#45;&gt;Node6</title>
<path fill="none" stroke="midnightblue" d="M632.07,-391.47C629.74,-343 623.72,-217.26 621.17,-163.96"/>
<polygon fill="midnightblue" stroke="midnightblue" points="624.66,-163.56 620.68,-153.74 617.66,-163.89 624.66,-163.56"/>
</g>
<!-- Node7 -->
<g id="node7" class="node">
<title>Node7</title>
<g id="a_node7"><a xlink:href="../../d7/dfc/_query_message_8hpp.html" target="_top" xlink:title=" ">
<polygon fill="none" stroke="black" points="361,-335.5 361,-354.5 471,-354.5 471,-335.5 361,-335.5"/>
<text text-anchor="middle" x="416" y="-342.5" font-family="Helvetica,sans-Serif" font-size="10.00">QueryMessage.hpp</text>
</a>
</g>
</g>
<!-- Node1&#45;&gt;Node7 -->
<g id="edge8" class="edge">
<title>Node1&#45;&gt;Node7</title>
<path fill="none" stroke="midnightblue" d="M567.89,-391.5C530.83,-380.4 485.68,-366.87 454.28,-357.47"/>
<polygon fill="midnightblue" stroke="midnightblue" points="455.18,-354.08 444.6,-354.57 453.18,-360.79 455.18,-354.08"/>
</g>
<!-- Node4 -->
<g id="node4" class="node">
<title>Node4</title>
<g id="a_node4"><a xlink:title=" ">
<polygon fill="none" stroke="#bfbfbf" points="505,-0.5 505,-19.5 549,-19.5 549,-0.5 505,-0.5"/>
<text text-anchor="middle" x="527" y="-7.5" font-family="Helvetica,sans-Serif" font-size="10.00">string</text>
</a>
</g>
</g>
<!-- Node3&#45;&gt;Node4 -->
<g id="edge3" class="edge">
<title>Node3&#45;&gt;Node4</title>
<path fill="none" stroke="midnightblue" d="M553.71,-56.4C548.78,-48.02 542.49,-37.33 537.25,-28.42"/>
<polygon fill="midnightblue" stroke="midnightblue" points="540.18,-26.5 532.09,-19.66 534.15,-30.05 540.18,-26.5"/>
</g>
<!-- Node5 -->
<g id="node5" class="node">
<title>Node5</title>
<g id="a_node5"><a xlink:title=" ">
<polygon fill="none" stroke="#bfbfbf" points="567,-0.5 567,-19.5 627,-19.5 627,-0.5 567,-0.5"/>
<text text-anchor="middle" x="597" y="-7.5" font-family="Helvetica,sans-Serif" font-size="10.00">iostream</text>
</a>
</g>
</g>
<!-- Node3&#45;&gt;Node5 -->
<g id="edge4" class="edge">
<title>Node3&#45;&gt;Node5</title>
<path fill="none" stroke="midnightblue" d="M570.29,-56.4C575.22,-48.02 581.51,-37.33 586.75,-28.42"/>
<polygon fill="midnightblue" stroke="midnightblue" points="589.85,-30.05 591.91,-19.66 583.82,-26.5 589.85,-30.05"/>
</g>
<!-- Node6&#45;&gt;Node2 -->
<g id="edge6" class="edge">
<title>Node6&#45;&gt;Node2</title>
<path fill="none" stroke="midnightblue" d="M525.84,-125.84C421.46,-112.92 255.65,-92.39 163.13,-80.93"/>
<polygon fill="midnightblue" stroke="midnightblue" points="163.39,-77.44 153.04,-79.69 162.53,-84.39 163.39,-77.44"/>
</g>
<!-- Node6&#45;&gt;Node3 -->
<g id="edge7" class="edge">
<title>Node6&#45;&gt;Node3</title>
<path fill="none" stroke="midnightblue" d="M607.41,-123.4C599.81,-114.88 589.97,-103.85 581.39,-94.23"/>
<polygon fill="midnightblue" stroke="midnightblue" points="583.83,-91.71 574.56,-86.58 578.61,-96.37 583.83,-91.71"/>
</g>
<!-- Node7&#45;&gt;Node2 -->
<g id="edge9" class="edge">
<title>Node7&#45;&gt;Node2</title>
<path fill="none" stroke="midnightblue" d="M360.71,-340.57C316.4,-335.91 253.79,-324.92 205,-299 133.56,-261.05 111.41,-233.21 95,-154 91.08,-135.09 91.34,-113.17 92.44,-96.83"/>
<polygon fill="midnightblue" stroke="midnightblue" points="95.96,-96.77 93.29,-86.52 88.98,-96.2 95.96,-96.77"/>
</g>
<!-- Node7&#45;&gt;Node3 -->
<g id="edge10" class="edge">
<title>Node7&#45;&gt;Node3</title>
<path fill="none" stroke="midnightblue" d="M448.08,-335.49C513.88,-316.1 662.98,-261.73 723,-154 744.26,-115.83 694.59,-95.07 644.95,-84.06"/>
<polygon fill="midnightblue" stroke="midnightblue" points="645.54,-80.61 635.04,-81.99 644.11,-87.47 645.54,-80.61"/>
</g>
<!-- Node8 -->
<g id="node8" class="node">
<title>Node8</title>
<g id="a_node8"><a xlink:href="../../d7/dc6/_query_message_base_8hpp.html" target="_top" xlink:title=" ">
<polygon fill="none" stroke="black" points="214.5,-257.5 214.5,-298.5 401.5,-298.5 401.5,-257.5 214.5,-257.5"/>
<text text-anchor="start" x="222.5" y="-286.5" font-family="Helvetica,sans-Serif" font-size="10.00">../../../Interfaces</text>
<text text-anchor="start" x="222.5" y="-275.5" font-family="Helvetica,sans-Serif" font-size="10.00">/QueryBase/include/QueryMessage</text>
<text text-anchor="middle" x="308" y="-264.5" font-family="Helvetica,sans-Serif" font-size="10.00">Base.hpp</text>
</a>
</g>
</g>
<!-- Node7&#45;&gt;Node8 -->
<g id="edge11" class="edge">
<title>Node7&#45;&gt;Node8</title>
<path fill="none" stroke="midnightblue" d="M401.43,-335.23C388.07,-327.19 367.63,-314.89 349.28,-303.84"/>
<polygon fill="midnightblue" stroke="midnightblue" points="350.84,-300.7 340.47,-298.54 347.23,-306.7 350.84,-300.7"/>
</g>
<!-- Node8&#45;&gt;Node2 -->
<g id="edge12" class="edge">
<title>Node8&#45;&gt;Node2</title>
<path fill="none" stroke="midnightblue" d="M235.13,-257.5C210.48,-248.78 183.73,-236.82 162,-221 131.08,-198.49 123.53,-188.95 108,-154 99.93,-135.85 96.79,-113.46 95.6,-96.74"/>
<polygon fill="midnightblue" stroke="midnightblue" points="99.1,-96.48 95.08,-86.67 92.11,-96.84 99.1,-96.48"/>
</g>
<!-- Node8&#45;&gt;Node3 -->
<g id="edge13" class="edge">
<title>Node8&#45;&gt;Node3</title>
<path fill="none" stroke="midnightblue" d="M336.71,-257.32C352.03,-246.71 371.16,-233.3 388,-221 427.7,-192.01 438.55,-185.84 476,-154 498.97,-134.47 523.82,-110.59 540.88,-93.74"/>
<polygon fill="midnightblue" stroke="midnightblue" points="543.5,-96.07 548.13,-86.54 538.57,-91.1 543.5,-96.07"/>
</g>
<!-- Node9 -->
<g id="node9" class="node">
<title>Node9</title>
<g id="a_node9"><a xlink:href="../../d7/d60/_timeservice_8hpp.html" target="_top" xlink:title=" ">
<polygon fill="none" stroke="black" points="236.5,-190.5 236.5,-220.5 379.5,-220.5 379.5,-190.5 236.5,-190.5"/>
<text text-anchor="start" x="244.5" y="-208.5" font-family="Helvetica,sans-Serif" font-size="10.00">../../../Objects/Timeservice</text>
<text text-anchor="middle" x="308" y="-197.5" font-family="Helvetica,sans-Serif" font-size="10.00">/include/Timeservice.hpp</text>
</a>
</g>
</g>
<!-- Node8&#45;&gt;Node9 -->
<g id="edge14" class="edge">
<title>Node8&#45;&gt;Node9</title>
<path fill="none" stroke="midnightblue" d="M308,-257.36C308,-249.23 308,-239.7 308,-231.11"/>
<polygon fill="midnightblue" stroke="midnightblue" points="311.5,-230.89 308,-220.89 304.5,-230.89 311.5,-230.89"/>
</g>
<!-- Node15 -->
<g id="node15" class="node">
<title>Node15</title>
<g id="a_node15"><a xlink:title=" ">
<polygon fill="none" stroke="#bfbfbf" points="171.5,-196 171.5,-215 218.5,-215 218.5,-196 171.5,-196"/>
<text text-anchor="middle" x="195" y="-203" font-family="Helvetica,sans-Serif" font-size="10.00">vector</text>
</a>
</g>
</g>
<!-- Node8&#45;&gt;Node15 -->
<g id="edge24" class="edge">
<title>Node8&#45;&gt;Node15</title>
<path fill="none" stroke="midnightblue" d="M276.52,-257.36C257.79,-245.67 234.46,-231.12 217.56,-220.57"/>
<polygon fill="midnightblue" stroke="midnightblue" points="219.24,-217.5 208.9,-215.17 215.53,-223.44 219.24,-217.5"/>
</g>
<!-- Node9&#45;&gt;Node2 -->
<g id="edge15" class="edge">
<title>Node9&#45;&gt;Node2</title>
<path fill="none" stroke="midnightblue" d="M237.62,-190.41C196.29,-180.96 149.1,-167.77 133,-154 115.75,-139.24 105.83,-114.94 100.49,-96.71"/>
<polygon fill="midnightblue" stroke="midnightblue" points="103.8,-95.56 97.85,-86.79 97.04,-97.36 103.8,-95.56"/>
</g>
<!-- Node9&#45;&gt;Node3 -->
<g id="edge16" class="edge">
<title>Node9&#45;&gt;Node3</title>
<path fill="none" stroke="midnightblue" d="M352.91,-190.43C379.02,-181.49 412.17,-168.83 440,-154 461.11,-142.75 464.18,-136.39 484,-123 499.39,-112.6 516.71,-101.35 531.11,-92.11"/>
<polygon fill="midnightblue" stroke="midnightblue" points="533.12,-94.97 539.66,-86.64 529.35,-89.08 533.12,-94.97"/>
</g>
<!-- Node10 -->
<g id="node10" class="node">
<title>Node10</title>
<g id="a_node10"><a xlink:href="../../d6/d4b/_r_t_c___h_a_l_8hpp.html" target="_top" xlink:title=" ">
<polygon fill="none" stroke="black" points="350.5,-129 350.5,-148 431.5,-148 431.5,-129 350.5,-129"/>
<text text-anchor="middle" x="391" y="-136" font-family="Helvetica,sans-Serif" font-size="10.00">RTC_HAL.hpp</text>
</a>
</g>
</g>
<!-- Node9&#45;&gt;Node10 -->
<g id="edge17" class="edge">
<title>Node9&#45;&gt;Node10</title>
<path fill="none" stroke="midnightblue" d="M326.01,-190.4C339.59,-179.76 358.18,-165.2 372,-154.38"/>
<polygon fill="midnightblue" stroke="midnightblue" points="374.18,-157.12 379.9,-148.19 369.87,-151.6 374.18,-157.12"/>
</g>
<!-- Node12 -->
<g id="node12" class="node">
<title>Node12</title>
<g id="a_node12"><a xlink:title=" ">
<polygon fill="none" stroke="#bfbfbf" points="142,-129 142,-148 192,-148 192,-129 142,-129"/>
<text text-anchor="middle" x="167" y="-136" font-family="Helvetica,sans-Serif" font-size="10.00">chrono</text>
</a>
</g>
</g>
<!-- Node9&#45;&gt;Node12 -->
<g id="edge21" class="edge">
<title>Node9&#45;&gt;Node12</title>
<path fill="none" stroke="midnightblue" d="M277.41,-190.4C252.77,-179.04 218.45,-163.22 194.64,-152.24"/>
<polygon fill="midnightblue" stroke="midnightblue" points="196,-149.02 185.45,-148.01 193.07,-155.37 196,-149.02"/>
</g>
<!-- Node13 -->
<g id="node13" class="node">
<title>Node13</title>
<g id="a_node13"><a xlink:title=" ">
<polygon fill="none" stroke="#bfbfbf" points="210,-129 210,-148 266,-148 266,-129 210,-129"/>
<text text-anchor="middle" x="238" y="-136" font-family="Helvetica,sans-Serif" font-size="10.00">iomanip</text>
</a>
</g>
</g>
<!-- Node9&#45;&gt;Node13 -->
<g id="edge22" class="edge">
<title>Node9&#45;&gt;Node13</title>
<path fill="none" stroke="midnightblue" d="M292.81,-190.4C281.68,-180.06 266.56,-166.02 255.03,-155.31"/>
<polygon fill="midnightblue" stroke="midnightblue" points="257.07,-152.43 247.36,-148.19 252.31,-157.56 257.07,-152.43"/>
</g>
<!-- Node14 -->
<g id="node14" class="node">
<title>Node14</title>
<g id="a_node14"><a xlink:title=" ">
<polygon fill="none" stroke="#bfbfbf" points="284,-129 284,-148 332,-148 332,-129 284,-129"/>
<text text-anchor="middle" x="308" y="-136" font-family="Helvetica,sans-Serif" font-size="10.00">thread</text>
</a>
</g>
</g>
<!-- Node9&#45;&gt;Node14 -->
<g id="edge23" class="edge">
<title>Node9&#45;&gt;Node14</title>
<path fill="none" stroke="midnightblue" d="M308,-190.4C308,-181.06 308,-168.71 308,-158.52"/>
<polygon fill="midnightblue" stroke="midnightblue" points="311.5,-158.19 308,-148.19 304.5,-158.19 311.5,-158.19"/>
</g>
<!-- Node10&#45;&gt;Node2 -->
<g id="edge18" class="edge">
<title>Node10&#45;&gt;Node2</title>
<path fill="none" stroke="midnightblue" d="M363.07,-128.98C355.91,-126.91 348.19,-124.78 341,-123 281.41,-108.27 212.95,-94.46 163.41,-85.02"/>
<polygon fill="midnightblue" stroke="midnightblue" points="163.92,-81.56 153.45,-83.14 162.62,-88.44 163.92,-81.56"/>
</g>
<!-- Node10&#45;&gt;Node3 -->
<g id="edge19" class="edge">
<title>Node10&#45;&gt;Node3</title>
<path fill="none" stroke="midnightblue" d="M413.71,-128.87C439.59,-119.03 482.58,-102.69 515.63,-90.13"/>
<polygon fill="midnightblue" stroke="midnightblue" points="516.99,-93.35 525.1,-86.53 514.5,-86.81 516.99,-93.35"/>
</g>
<!-- Node11 -->
<g id="node11" class="node">
<title>Node11</title>
<g id="a_node11"><a xlink:title=" ">
<polygon fill="none" stroke="#bfbfbf" points="369,-62 369,-81 413,-81 413,-62 369,-62"/>
<text text-anchor="middle" x="391" y="-69" font-family="Helvetica,sans-Serif" font-size="10.00">ctime</text>
</a>
</g>
</g>
<!-- Node10&#45;&gt;Node11 -->
<g id="edge20" class="edge">
<title>Node10&#45;&gt;Node11</title>
<path fill="none" stroke="midnightblue" d="M391,-128.73C391,-119.18 391,-103.62 391,-91.28"/>
<polygon fill="midnightblue" stroke="midnightblue" points="394.5,-91.13 391,-81.13 387.5,-91.13 394.5,-91.13"/>
</g>
</g>
</svg>
        <g id="navigator" transform="translate(0 0)" fill="#404254">
                <rect fill="#f2f5e9" fill-opacity="0.5" stroke="#606060" stroke-width=".5" x="0" y="0" width="60" height="60"/>
                <use id="zoomplus" xlink:href="#zoomPlus" x="17" y="9" onmousedown="handleZoom(evt,'in')"/>
                <use id="zoomminus" xlink:href="#zoomMin" x="42" y="9" onmousedown="handleZoom(evt,'out')"/>
                <use id="reset" xlink:href="#resetDef" x="30" y="36" onmousedown="handleReset()"/>
                <g id="arrowUp" xlink:href="#dirArrow" transform="translate(30 24)" onmousedown="handlePan(0,-1)">
                  <use xlink:href="#rim" fill="#404040">
                        <set attributeName="fill" to="#808080" begin="arrowUp.mouseover" end="arrowUp.mouseout"/>
                  </use>
                  <path fill="none" stroke="white" stroke-width="1.5" d="M0,-3.0v7 M-2.5,-0.5L0,-3.0L2.5,-0.5"/>
                </g>
                <g id="arrowRight" xlink:href="#dirArrow" transform="rotate(90) translate(36 -43)" onmousedown="handlePan(1,0)">
                  <use xlink:href="#rim" fill="#404040">
                        <set attributeName="fill" to="#808080" begin="arrowRight.mouseover" end="arrowRight.mouseout"/>
                  </use>
                  <path fill="none" stroke="white" stroke-width="1.5" d="M0,-3.0v7 M-2.5,-0.5L0,-3.0L2.5,-0.5"/>
                </g>
                <g id="arrowDown" xlink:href="#dirArrow" transform="rotate(180) translate(-30 -48)" onmousedown="handlePan(0,1)">
                  <use xlink:href="#rim" fill="#404040">
                        <set attributeName="fill" to="#808080" begin="arrowDown.mouseover" end="arrowDown.mouseout"/>
                  </use>
                  <path fill="none" stroke="white" stroke-width="1.5" d="M0,-3.0v7 M-2.5,-0.5L0,-3.0L2.5,-0.5"/>
                </g>
                <g id="arrowLeft" xlink:href="#dirArrow" transform="rotate(270) translate(-36 17)" onmousedown="handlePan(-1,0)">
                  <use xlink:href="#rim" fill="#404040">
                        <set attributeName="fill" to="#808080" begin="arrowLeft.mouseover" end="arrowLeft.mouseout"/>
                  </use>
                  <path fill="none" stroke="white" stroke-width="1.5" d="M0,-3.0v7 M-2.5,-0.5L0,-3.0L2.5,-0.5"/>
                </g>
        </g>
        <svg viewBox="0 0 15 15" width="100%" height="30px" preserveAspectRatio="xMaxYMin meet">
         <g id="arrow_out" transform="scale(0.3 0.3)">
          <a xlink:href="_query_add_sensor_data_8hpp__incl_org.svg" target="_base">
           <rect id="button" ry="5" rx="5" y="6" x="6" height="38" width="38"
                fill="#f2f5e9" fill-opacity="0.5" stroke="#606060" stroke-width="1.0"/>
           <path id="arrow"
             d="M 11.500037,31.436501 C 11.940474,20.09759 22.043105,11.32322 32.158766,21.979434 L 37.068811,17.246167 C 37.068811,17.246167 37.088388,32 37.088388,32 L 22.160133,31.978069 C 22.160133,31.978069 26.997745,27.140456 26.997745,27.140456 C 18.528582,18.264221 13.291696,25.230495 11.500037,31.436501 z"
             style="fill:#404040;"/>
          </a>
         </g>
        </svg>
</svg>
