<?xml version="1.0" encoding="UTF-8" standalone="no"?>
<!DOCTYPE svg PUBLIC "-//W3C//DTD SVG 1.1//EN"
 "http://www.w3.org/Graphics/SVG/1.1/DTD/svg11.dtd">
<!-- Generated by graphviz version 2.43.0 (0)
 -->
<!-- Title: Components/Objects/Watchdog/src/Watch_Clock.cpp Pages: 1 -->
<!--zoomable 374 -->
<svg id="main" version="1.1" xmlns="http://www.w3.org/2000/svg" xmlns:xlink="http://www.w3.org/1999/xlink" xml:space="preserve" onload="init(evt)">
<style type="text/css"><![CDATA[
.edge:hover path { stroke: red; }
.edge:hover polygon { stroke: red; fill: red; }
]]></style>
<script type="text/javascript"><![CDATA[
var edges = document.getElementsByTagName('g');
if (edges && edges.length) {
  for (var i=0;i<edges.length;i++) {
    if (edges[i].id.substr(0,4)=='edge') {
      edges[i].setAttribute('class','edge');
    }
  }
}
]]></script>
        <defs>
                <circle id="rim" cx="0" cy="0" r="7"/>
                <circle id="rim2" cx="0" cy="0" r="3.5"/>
                <g id="zoomPlus">
                        <use xlink:href="#rim" fill="#404040">
                                <set attributeName="fill" to="#808080" begin="zoomplus.mouseover" end="zoomplus.mouseout"/>
                        </use>
                        <path d="M-4,0h8M0,-4v8" fill="none" stroke="white" stroke-width="1.5" pointer-events="none"/>
                </g>
                <g id="zoomMin">
                        <use xlink:href="#rim" fill="#404040">
                                <set attributeName="fill" to="#808080" begin="zoomminus.mouseover" end="zoomminus.mouseout"/>
                        </use>
                        <path d="M-4,0h8" fill="none" stroke="white" stroke-width="1.5" pointer-events="none"/>
                </g>
                <g id="dirArrow">
                        <path fill="none" stroke="white" stroke-width="1.5" d="M0,-3.0v7 M-2.5,-0.5L0,-3.0L2.5,-0.5"/>
                </g>
               <g id="resetDef">
                       <use xlink:href="#rim2" fill="#404040">
                               <set attributeName="fill" to="#808080" begin="reset.mouseover" end="reset.mouseout"/>
                       </use>
               </g>
        </defs>

<script type="text/javascript">
var viewWidth = 565;
var viewHeight = 374;
var sectionId = 'dynsection-0';
</script>
<script xlink:href="../../svgpan.js"/>
<svg id="graph" class="graph">
<g id="viewport">
<title>Components/Objects/Watchdog/src/Watch_Clock.cpp</title>
<!-- Node1 -->
<g id="node1" class="node">
<title>Node1</title>
<g id="a_node1"><a xlink:title=" ">
<polygon fill="#bfbfbf" stroke="black" points="291.06,-324.5 291.06,-365.5 409.06,-365.5 409.06,-324.5 291.06,-324.5"/>
<text text-anchor="start" x="299.06" y="-353.5" font-family="Helvetica,sans-Serif" font-size="10.00">Components/Objects</text>
<text text-anchor="start" x="299.06" y="-342.5" font-family="Helvetica,sans-Serif" font-size="10.00">/Watchdog/src/Watch</text>
<text text-anchor="middle" x="350.06" y="-331.5" font-family="Helvetica,sans-Serif" font-size="10.00">_Clock.cpp</text>
</a>
</g>
</g>
<!-- Node2 -->
<g id="node2" class="node">
<title>Node2</title>
<g id="a_node2"><a xlink:href="../../d6/df4/_watch___clock_8hpp.html" target="_top" xlink:title=" ">
<polygon fill="none" stroke="black" points="276.56,-268.5 276.56,-287.5 423.56,-287.5 423.56,-268.5 276.56,-268.5"/>
<text text-anchor="middle" x="350.06" y="-275.5" font-family="Helvetica,sans-Serif" font-size="10.00">../include/Watch_Clock.hpp</text>
</a>
</g>
</g>
<!-- Node1&#45;&gt;Node2 -->
<g id="edge1" class="edge">
<title>Node1&#45;&gt;Node2</title>
<path fill="none" stroke="midnightblue" d="M350.06,-324.5C350.06,-316.07 350.06,-306.24 350.06,-297.87"/>
<polygon fill="midnightblue" stroke="midnightblue" points="353.56,-297.65 350.06,-287.65 346.56,-297.65 353.56,-297.65"/>
</g>
<!-- Node3 -->
<g id="node3" class="node">
<title>Node3</title>
<g id="a_node3"><a xlink:href="../../da/d5f/_b_a_s_i_c_8hpp.html" target="_top" xlink:title=" ">
<polygon fill="none" stroke="black" points="90.06,-56.5 90.06,-86.5 206.06,-86.5 206.06,-56.5 90.06,-56.5"/>
<text text-anchor="start" x="98.06" y="-74.5" font-family="Helvetica,sans-Serif" font-size="10.00">../../../Global_Include</text>
<text text-anchor="middle" x="148.06" y="-63.5" font-family="Helvetica,sans-Serif" font-size="10.00">/BASIC.hpp</text>
</a>
</g>
</g>
<!-- Node2&#45;&gt;Node3 -->
<g id="edge2" class="edge">
<title>Node2&#45;&gt;Node3</title>
<path fill="none" stroke="midnightblue" d="M276.23,-276.7C195.03,-271.88 68.1,-250.14 8.06,-165 -2.7,-149.75 -2.67,-138.28 8.06,-123 24.53,-99.55 52.99,-86.95 79.98,-80.18"/>
<polygon fill="midnightblue" stroke="midnightblue" points="80.85,-83.57 89.82,-77.95 79.3,-76.75 80.85,-83.57"/>
</g>
<!-- Node4 -->
<g id="node4" class="node">
<title>Node4</title>
<g id="a_node4"><a xlink:href="../../d3/deb/_general___error_8hpp.html" target="_top" xlink:title=" ">
<polygon fill="none" stroke="black" points="263.56,-56.5 263.56,-86.5 408.56,-86.5 408.56,-56.5 263.56,-56.5"/>
<text text-anchor="start" x="271.56" y="-74.5" font-family="Helvetica,sans-Serif" font-size="10.00">../../../Objects/ErrorHandler</text>
<text text-anchor="middle" x="336.06" y="-63.5" font-family="Helvetica,sans-Serif" font-size="10.00">/include/General_Error.hpp</text>
</a>
</g>
</g>
<!-- Node2&#45;&gt;Node4 -->
<g id="edge3" class="edge">
<title>Node2&#45;&gt;Node4</title>
<path fill="none" stroke="midnightblue" d="M374.09,-268.47C431.22,-246.89 566.91,-187.25 518.06,-123 505.47,-106.45 460.69,-93.9 418.69,-85.45"/>
<polygon fill="midnightblue" stroke="midnightblue" points="419.15,-81.98 408.66,-83.5 417.81,-88.85 419.15,-81.98"/>
</g>
<!-- Node7 -->
<g id="node7" class="node">
<title>Node7</title>
<g id="a_node7"><a xlink:href="../../de/d1e/_watchdog___base_8hpp.html" target="_top" xlink:title=" ">
<polygon fill="none" stroke="black" points="17.06,-123.5 17.06,-164.5 147.06,-164.5 147.06,-123.5 17.06,-123.5"/>
<text text-anchor="start" x="25.06" y="-152.5" font-family="Helvetica,sans-Serif" font-size="10.00">../../../Interfaces</text>
<text text-anchor="start" x="25.06" y="-141.5" font-family="Helvetica,sans-Serif" font-size="10.00">/WatchdogBase/include</text>
<text text-anchor="middle" x="82.06" y="-130.5" font-family="Helvetica,sans-Serif" font-size="10.00">/Watchdog_Base.hpp</text>
</a>
</g>
</g>
<!-- Node2&#45;&gt;Node7 -->
<g id="edge6" class="edge">
<title>Node2&#45;&gt;Node7</title>
<path fill="none" stroke="midnightblue" d="M332.48,-268.34C292.16,-248.48 191.86,-199.08 131.13,-169.17"/>
<polygon fill="midnightblue" stroke="midnightblue" points="132.63,-166 122.11,-164.73 129.53,-172.28 132.63,-166"/>
</g>
<!-- Node8 -->
<g id="node8" class="node">
<title>Node8</title>
<g id="a_node8"><a xlink:href="../../d7/d60/_timeservice_8hpp.html" target="_top" xlink:title=" ">
<polygon fill="none" stroke="black" points="278.56,-201.5 278.56,-231.5 421.56,-231.5 421.56,-201.5 278.56,-201.5"/>
<text text-anchor="start" x="286.56" y="-219.5" font-family="Helvetica,sans-Serif" font-size="10.00">../../../Objects/Timeservice</text>
<text text-anchor="middle" x="350.06" y="-208.5" font-family="Helvetica,sans-Serif" font-size="10.00">/include/Timeservice.hpp</text>
</a>
</g>
</g>
<!-- Node2&#45;&gt;Node8 -->
<g id="edge9" class="edge">
<title>Node2&#45;&gt;Node8</title>
<path fill="none" stroke="midnightblue" d="M350.06,-268.48C350.06,-261.47 350.06,-251.19 350.06,-241.7"/>
<polygon fill="midnightblue" stroke="midnightblue" points="353.56,-241.52 350.06,-231.52 346.56,-241.52 353.56,-241.52"/>
</g>
<!-- Node10 -->
<g id="node10" class="node">
<title>Node10</title>
<g id="a_node10"><a xlink:title=" ">
<polygon fill="none" stroke="#bfbfbf" points="513.06,-62 513.06,-81 557.06,-81 557.06,-62 513.06,-62"/>
<text text-anchor="middle" x="535.06" y="-69" font-family="Helvetica,sans-Serif" font-size="10.00">ctime</text>
</a>
</g>
</g>
<!-- Node2&#45;&gt;Node10 -->
<g id="edge19" class="edge">
<title>Node2&#45;&gt;Node10</title>
<path fill="none" stroke="midnightblue" d="M403.01,-268.42C430.93,-261.92 464.57,-250.78 490.06,-232 519.34,-210.42 526.11,-199.69 537.06,-165 544.83,-140.4 542.06,-110.27 538.92,-91.22"/>
<polygon fill="midnightblue" stroke="midnightblue" points="542.33,-90.37 537.06,-81.18 535.44,-91.65 542.33,-90.37"/>
</g>
<!-- Node5 -->
<g id="node5" class="node">
<title>Node5</title>
<g id="a_node5"><a xlink:title=" ">
<polygon fill="none" stroke="#bfbfbf" points="279.06,-0.5 279.06,-19.5 323.06,-19.5 323.06,-0.5 279.06,-0.5"/>
<text text-anchor="middle" x="301.06" y="-7.5" font-family="Helvetica,sans-Serif" font-size="10.00">string</text>
</a>
</g>
</g>
<!-- Node4&#45;&gt;Node5 -->
<g id="edge4" class="edge">
<title>Node4&#45;&gt;Node5</title>
<path fill="none" stroke="midnightblue" d="M327.76,-56.4C322.84,-48.02 316.55,-37.33 311.31,-28.42"/>
<polygon fill="midnightblue" stroke="midnightblue" points="314.24,-26.5 306.15,-19.66 308.21,-30.05 314.24,-26.5"/>
</g>
<!-- Node6 -->
<g id="node6" class="node">
<title>Node6</title>
<g id="a_node6"><a xlink:title=" ">
<polygon fill="none" stroke="#bfbfbf" points="341.06,-0.5 341.06,-19.5 401.06,-19.5 401.06,-0.5 341.06,-0.5"/>
<text text-anchor="middle" x="371.06" y="-7.5" font-family="Helvetica,sans-Serif" font-size="10.00">iostream</text>
</a>
</g>
</g>
<!-- Node4&#45;&gt;Node6 -->
<g id="edge5" class="edge">
<title>Node4&#45;&gt;Node6</title>
<path fill="none" stroke="midnightblue" d="M344.35,-56.4C349.28,-48.02 355.57,-37.33 360.81,-28.42"/>
<polygon fill="midnightblue" stroke="midnightblue" points="363.91,-30.05 365.97,-19.66 357.88,-26.5 363.91,-30.05"/>
</g>
<!-- Node7&#45;&gt;Node3 -->
<g id="edge7" class="edge">
<title>Node7&#45;&gt;Node3</title>
<path fill="none" stroke="midnightblue" d="M100.44,-123.36C108.91,-114.32 118.98,-103.57 127.67,-94.28"/>
<polygon fill="midnightblue" stroke="midnightblue" points="130.31,-96.58 134.59,-86.89 125.2,-91.8 130.31,-96.58"/>
</g>
<!-- Node7&#45;&gt;Node4 -->
<g id="edge8" class="edge">
<title>Node7&#45;&gt;Node4</title>
<path fill="none" stroke="midnightblue" d="M147.14,-124.94C186.67,-113.96 236.81,-100.05 275.49,-89.31"/>
<polygon fill="midnightblue" stroke="midnightblue" points="276.87,-92.56 285.57,-86.51 275,-85.81 276.87,-92.56"/>
</g>
<!-- Node8&#45;&gt;Node3 -->
<g id="edge10" class="edge">
<title>Node8&#45;&gt;Node3</title>
<path fill="none" stroke="midnightblue" d="M278.47,-204.8C249.63,-197.53 217.67,-185.35 194.06,-165 173.14,-146.97 160.74,-117.17 154.18,-96.27"/>
<polygon fill="midnightblue" stroke="midnightblue" points="157.51,-95.17 151.35,-86.55 150.79,-97.13 157.51,-95.17"/>
</g>
<!-- Node8&#45;&gt;Node4 -->
<g id="edge11" class="edge">
<title>Node8&#45;&gt;Node4</title>
<path fill="none" stroke="midnightblue" d="M421.61,-209.35C450.87,-202.9 482.02,-190.1 500.06,-165 510.95,-149.84 511.15,-138.02 500.06,-123 481.06,-97.27 449.14,-84.24 418.49,-77.78"/>
<polygon fill="midnightblue" stroke="midnightblue" points="419.08,-74.33 408.6,-75.91 417.77,-81.21 419.08,-74.33"/>
</g>
<!-- Node9 -->
<g id="node9" class="node">
<title>Node9</title>
<g id="a_node9"><a xlink:href="../../d6/d4b/_r_t_c___h_a_l_8hpp.html" target="_top" xlink:title=" ">
<polygon fill="none" stroke="black" points="269.06,-134.5 269.06,-153.5 349.06,-153.5 349.06,-134.5 269.06,-134.5"/>
<text text-anchor="middle" x="309.06" y="-141.5" font-family="Helvetica,sans-Serif" font-size="10.00">RTC_HAL.hpp</text>
</a>
</g>
</g>
<!-- Node8&#45;&gt;Node9 -->
<g id="edge12" class="edge">
<title>Node8&#45;&gt;Node9</title>
<path fill="none" stroke="midnightblue" d="M341.76,-201.23C335.33,-190.17 326.37,-174.77 319.46,-162.88"/>
<polygon fill="midnightblue" stroke="midnightblue" points="322.28,-160.78 314.23,-153.89 316.23,-164.3 322.28,-160.78"/>
</g>
<!-- Node11 -->
<g id="node11" class="node">
<title>Node11</title>
<g id="a_node11"><a xlink:title=" ">
<polygon fill="none" stroke="#bfbfbf" points="367.06,-134.5 367.06,-153.5 417.06,-153.5 417.06,-134.5 367.06,-134.5"/>
<text text-anchor="middle" x="392.06" y="-141.5" font-family="Helvetica,sans-Serif" font-size="10.00">chrono</text>
</a>
</g>
</g>
<!-- Node8&#45;&gt;Node11 -->
<g id="edge16" class="edge">
<title>Node8&#45;&gt;Node11</title>
<path fill="none" stroke="midnightblue" d="M358.56,-201.23C365.22,-190.06 374.51,-174.46 381.62,-162.52"/>
<polygon fill="midnightblue" stroke="midnightblue" points="384.65,-164.28 386.76,-153.89 378.64,-160.69 384.65,-164.28"/>
</g>
<!-- Node12 -->
<g id="node12" class="node">
<title>Node12</title>
<g id="a_node12"><a xlink:title=" ">
<polygon fill="none" stroke="#bfbfbf" points="435.06,-134.5 435.06,-153.5 491.06,-153.5 491.06,-134.5 435.06,-134.5"/>
<text text-anchor="middle" x="463.06" y="-141.5" font-family="Helvetica,sans-Serif" font-size="10.00">iomanip</text>
</a>
</g>
</g>
<!-- Node8&#45;&gt;Node12 -->
<g id="edge17" class="edge">
<title>Node8&#45;&gt;Node12</title>
<path fill="none" stroke="midnightblue" d="M372.66,-201.4C392.45,-189.05 421.05,-171.21 440.76,-158.91"/>
<polygon fill="midnightblue" stroke="midnightblue" points="442.75,-161.8 449.38,-153.53 439.04,-155.86 442.75,-161.8"/>
</g>
<!-- Node13 -->
<g id="node13" class="node">
<title>Node13</title>
<g id="a_node13"><a xlink:title=" ">
<polygon fill="none" stroke="#bfbfbf" points="203.06,-134.5 203.06,-153.5 251.06,-153.5 251.06,-134.5 203.06,-134.5"/>
<text text-anchor="middle" x="227.06" y="-141.5" font-family="Helvetica,sans-Serif" font-size="10.00">thread</text>
</a>
</g>
</g>
<!-- Node8&#45;&gt;Node13 -->
<g id="edge18" class="edge">
<title>Node8&#45;&gt;Node13</title>
<path fill="none" stroke="midnightblue" d="M324.33,-201.36C306.26,-191.36 281.57,-177.55 260.06,-165 256.74,-163.06 253.25,-160.99 249.83,-158.94"/>
<polygon fill="midnightblue" stroke="midnightblue" points="251.5,-155.85 241.13,-153.67 247.87,-161.84 251.5,-155.85"/>
</g>
<!-- Node9&#45;&gt;Node3 -->
<g id="edge13" class="edge">
<title>Node9&#45;&gt;Node3</title>
<path fill="none" stroke="midnightblue" d="M289.64,-134.5C264.9,-123.66 221.49,-104.65 189.24,-90.53"/>
<polygon fill="midnightblue" stroke="midnightblue" points="190.61,-87.31 180.04,-86.51 187.8,-93.72 190.61,-87.31"/>
</g>
<!-- Node9&#45;&gt;Node4 -->
<g id="edge14" class="edge">
<title>Node9&#45;&gt;Node4</title>
<path fill="none" stroke="midnightblue" d="M312.37,-134.36C316.01,-124.86 322,-109.21 327.05,-96.03"/>
<polygon fill="midnightblue" stroke="midnightblue" points="330.36,-97.17 330.67,-86.58 323.82,-94.66 330.36,-97.17"/>
</g>
<!-- Node9&#45;&gt;Node10 -->
<g id="edge15" class="edge">
<title>Node9&#45;&gt;Node10</title>
<path fill="none" stroke="midnightblue" d="M328.9,-134.33C337.74,-130.61 348.33,-126.36 358.06,-123 408.09,-105.71 467.48,-89.65 503.17,-80.47"/>
<polygon fill="midnightblue" stroke="midnightblue" points="504.2,-83.82 513.02,-77.96 502.47,-77.04 504.2,-83.82"/>
</g>
</g>
</svg>
        <g id="navigator" transform="translate(0 0)" fill="#404254">
                <rect fill="#f2f5e9" fill-opacity="0.5" stroke="#606060" stroke-width=".5" x="0" y="0" width="60" height="60"/>
                <use id="zoomplus" xlink:href="#zoomPlus" x="17" y="9" onmousedown="handleZoom(evt,'in')"/>
                <use id="zoomminus" xlink:href="#zoomMin" x="42" y="9" onmousedown="handleZoom(evt,'out')"/>
                <use id="reset" xlink:href="#resetDef" x="30" y="36" onmousedown="handleReset()"/>
                <g id="arrowUp" xlink:href="#dirArrow" transform="translate(30 24)" onmousedown="handlePan(0,-1)">
                  <use xlink:href="#rim" fill="#404040">
                        <set attributeName="fill" to="#808080" begin="arrowUp.mouseover" end="arrowUp.mouseout"/>
                  </use>
                  <path fill="none" stroke="white" stroke-width="1.5" d="M0,-3.0v7 M-2.5,-0.5L0,-3.0L2.5,-0.5"/>
                </g>
                <g id="arrowRight" xlink:href="#dirArrow" transform="rotate(90) translate(36 -43)" onmousedown="handlePan(1,0)">
                  <use xlink:href="#rim" fill="#404040">
                        <set attributeName="fill" to="#808080" begin="arrowRight.mouseover" end="arrowRight.mouseout"/>
                  </use>
                  <path fill="none" stroke="white" stroke-width="1.5" d="M0,-3.0v7 M-2.5,-0.5L0,-3.0L2.5,-0.5"/>
                </g>
                <g id="arrowDown" xlink:href="#dirArrow" transform="rotate(180) translate(-30 -48)" onmousedown="handlePan(0,1)">
                  <use xlink:href="#rim" fill="#404040">
                        <set attributeName="fill" to="#808080" begin="arrowDown.mouseover" end="arrowDown.mouseout"/>
                  </use>
                  <path fill="none" stroke="white" stroke-width="1.5" d="M0,-3.0v7 M-2.5,-0.5L0,-3.0L2.5,-0.5"/>
                </g>
                <g id="arrowLeft" xlink:href="#dirArrow" transform="rotate(270) translate(-36 17)" onmousedown="handlePan(-1,0)">
                  <use xlink:href="#rim" fill="#404040">
                        <set attributeName="fill" to="#808080" begin="arrowLeft.mouseover" end="arrowLeft.mouseout"/>
                  </use>
                  <path fill="none" stroke="white" stroke-width="1.5" d="M0,-3.0v7 M-2.5,-0.5L0,-3.0L2.5,-0.5"/>
                </g>
        </g>
        <svg viewBox="0 0 15 15" width="100%" height="30px" preserveAspectRatio="xMaxYMin meet">
         <g id="arrow_out" transform="scale(0.3 0.3)">
          <a xlink:href="_watch___clock_8cpp__incl_org.svg" target="_base">
           <rect id="button" ry="5" rx="5" y="6" x="6" height="38" width="38"
                fill="#f2f5e9" fill-opacity="0.5" stroke="#606060" stroke-width="1.0"/>
           <path id="arrow"
             d="M 11.500037,31.436501 C 11.940474,20.09759 22.043105,11.32322 32.158766,21.979434 L 37.068811,17.246167 C 37.068811,17.246167 37.088388,32 37.088388,32 L 22.160133,31.978069 C 22.160133,31.978069 26.997745,27.140456 26.997745,27.140456 C 18.528582,18.264221 13.291696,25.230495 11.500037,31.436501 z"
             style="fill:#404040;"/>
          </a>
         </g>
        </svg>
</svg>
