<?xml version="1.0" encoding="UTF-8" standalone="no"?>
<!DOCTYPE svg PUBLIC "-//W3C//DTD SVG 1.1//EN"
 "http://www.w3.org/Graphics/SVG/1.1/DTD/svg11.dtd">
<!-- Generated by graphviz version 2.43.0 (0)
 -->
<!-- Title: Components/Connector/WiFi/include/WiFiEventHandler.h Pages: 1 -->
<svg width="508pt" height="429pt"
 viewBox="0.00 0.00 508.00 429.00" xmlns="http://www.w3.org/2000/svg" xmlns:xlink="http://www.w3.org/1999/xlink">
<g id="graph0" class="graph" transform="scale(1 1) rotate(0) translate(4 425)">
<title>Components/Connector/WiFi/include/WiFiEventHandler.h</title>
<!-- Node1 -->
<g id="node1" class="node">
<title>Node1</title>
<g id="a_node1"><a xlink:title=" ">
<polygon fill="#bfbfbf" stroke="black" points="243.5,-390.5 243.5,-420.5 419.5,-420.5 419.5,-390.5 243.5,-390.5"/>
<text text-anchor="start" x="251.5" y="-408.5" font-family="Helvetica,sans-Serif" font-size="10.00">Components/Connector</text>
<text text-anchor="middle" x="331.5" y="-397.5" font-family="Helvetica,sans-Serif" font-size="10.00">/WiFi/include/WiFiEventHandler.h</text>
</a>
</g>
</g>
<!-- Node2 -->
<g id="node2" class="node">
<title>Node2</title>
<g id="a_node2"><a xlink:href="../../d0/db3/_wi_fi___event___handler_8hpp.html" target="_top" xlink:title=" ">
<polygon fill="none" stroke="black" points="180.5,-312.5 180.5,-353.5 314.5,-353.5 314.5,-312.5 180.5,-312.5"/>
<text text-anchor="start" x="188.5" y="-341.5" font-family="Helvetica,sans-Serif" font-size="10.00">Components/Connector</text>
<text text-anchor="start" x="188.5" y="-330.5" font-family="Helvetica,sans-Serif" font-size="10.00">/WiFi/include/WiFi_Event</text>
<text text-anchor="middle" x="247.5" y="-319.5" font-family="Helvetica,sans-Serif" font-size="10.00">_Handler.hpp</text>
</a>
</g>
</g>
<!-- Node1&#45;&gt;Node2 -->
<g id="edge1" class="edge">
<title>Node1&#45;&gt;Node2</title>
<path fill="none" stroke="midnightblue" d="M306.67,-383.66C295.33,-374.15 281.99,-362.94 270.84,-353.59"/>
<polygon fill="midnightblue" stroke="midnightblue" points="304.59,-386.49 314.5,-390.23 309.09,-381.12 304.59,-386.49"/>
</g>
<!-- Node11 -->
<g id="node11" class="node">
<title>Node11</title>
<g id="a_node11"><a xlink:href="../../d5/d94/_wi_fi_event_handler_8cpp.html" target="_top" xlink:title=" ">
<polygon fill="none" stroke="black" points="333,-318 333,-348 500,-348 500,-318 333,-318"/>
<text text-anchor="start" x="341" y="-336" font-family="Helvetica,sans-Serif" font-size="10.00">Components/Connector</text>
<text text-anchor="middle" x="416.5" y="-325" font-family="Helvetica,sans-Serif" font-size="10.00">/WiFi/src/WiFiEventHandler.cpp</text>
</a>
</g>
</g>
<!-- Node1&#45;&gt;Node11 -->
<g id="edge10" class="edge">
<title>Node1&#45;&gt;Node11</title>
<path fill="none" stroke="midnightblue" d="M356.47,-383.79C370.36,-372.27 387.28,-358.23 399.61,-348"/>
<polygon fill="midnightblue" stroke="midnightblue" points="354.16,-381.16 348.7,-390.23 358.63,-386.54 354.16,-381.16"/>
</g>
<!-- Node3 -->
<g id="node3" class="node">
<title>Node3</title>
<g id="a_node3"><a xlink:href="../../de/d7c/_wi_fi___a_p_i_8hpp.html" target="_top" xlink:title=" ">
<polygon fill="none" stroke="black" points="99,-240 99,-270 242,-270 242,-240 99,-240"/>
<text text-anchor="start" x="107" y="-258" font-family="Helvetica,sans-Serif" font-size="10.00">Components/Connector</text>
<text text-anchor="middle" x="170.5" y="-247" font-family="Helvetica,sans-Serif" font-size="10.00">/WiFi/include/WiFi_API.hpp</text>
</a>
</g>
</g>
<!-- Node2&#45;&gt;Node3 -->
<g id="edge2" class="edge">
<title>Node2&#45;&gt;Node3</title>
<path fill="none" stroke="midnightblue" d="M220.47,-305.32C208.5,-293.51 194.9,-280.08 184.91,-270.23"/>
<polygon fill="midnightblue" stroke="midnightblue" points="218.09,-307.89 227.67,-312.43 223.01,-302.91 218.09,-307.89"/>
</g>
<!-- Node10 -->
<g id="node10" class="node">
<title>Node10</title>
<g id="a_node10"><a xlink:href="../../d8/dc6/_wi_fi___event___handler_8cpp.html" target="_top" xlink:title=" ">
<polygon fill="none" stroke="black" points="260,-234.5 260,-275.5 391,-275.5 391,-234.5 260,-234.5"/>
<text text-anchor="start" x="268" y="-263.5" font-family="Helvetica,sans-Serif" font-size="10.00">Components/Connector</text>
<text text-anchor="start" x="268" y="-252.5" font-family="Helvetica,sans-Serif" font-size="10.00">/WiFi/src/WiFi_Event</text>
<text text-anchor="middle" x="325.5" y="-241.5" font-family="Helvetica,sans-Serif" font-size="10.00">_Handler.cpp</text>
</a>
</g>
</g>
<!-- Node2&#45;&gt;Node10 -->
<g id="edge9" class="edge">
<title>Node2&#45;&gt;Node10</title>
<path fill="none" stroke="midnightblue" d="M275,-305.2C285.05,-295.42 296.21,-284.54 305.48,-275.51"/>
<polygon fill="midnightblue" stroke="midnightblue" points="272.31,-302.94 267.59,-312.43 277.19,-307.96 272.31,-302.94"/>
</g>
<!-- Node4 -->
<g id="node4" class="node">
<title>Node4</title>
<g id="a_node4"><a xlink:href="../../dc/d64/_wi_fi___a_p_i_8cpp.html" target="_top" xlink:title=" ">
<polygon fill="none" stroke="black" points="34,-162 34,-192 165,-192 165,-162 34,-162"/>
<text text-anchor="start" x="42" y="-180" font-family="Helvetica,sans-Serif" font-size="10.00">Components/Connector</text>
<text text-anchor="middle" x="99.5" y="-169" font-family="Helvetica,sans-Serif" font-size="10.00">/WiFi/src/WiFi_API.cpp</text>
</a>
</g>
</g>
<!-- Node3&#45;&gt;Node4 -->
<g id="edge3" class="edge">
<title>Node3&#45;&gt;Node4</title>
<path fill="none" stroke="midnightblue" d="M150.11,-232.17C138.11,-219.33 123.29,-203.47 112.79,-192.23"/>
<polygon fill="midnightblue" stroke="midnightblue" points="147.76,-234.79 157.15,-239.7 152.88,-230.01 147.76,-234.79"/>
</g>
<!-- Node5 -->
<g id="node5" class="node">
<title>Node5</title>
<g id="a_node5"><a xlink:href="../../d0/d6a/_maintainer_8hpp.html" target="_top" xlink:title=" ">
<polygon fill="none" stroke="black" points="183.5,-156.5 183.5,-197.5 301.5,-197.5 301.5,-156.5 183.5,-156.5"/>
<text text-anchor="start" x="191.5" y="-185.5" font-family="Helvetica,sans-Serif" font-size="10.00">Components/Objects</text>
<text text-anchor="start" x="191.5" y="-174.5" font-family="Helvetica,sans-Serif" font-size="10.00">/Maintainer/include</text>
<text text-anchor="middle" x="242.5" y="-163.5" font-family="Helvetica,sans-Serif" font-size="10.00">/Maintainer.hpp</text>
</a>
</g>
</g>
<!-- Node3&#45;&gt;Node5 -->
<g id="edge4" class="edge">
<title>Node3&#45;&gt;Node5</title>
<path fill="none" stroke="midnightblue" d="M191.12,-232.23C201.44,-221.34 213.83,-208.26 223.86,-197.68"/>
<polygon fill="midnightblue" stroke="midnightblue" points="188.38,-230.04 184.04,-239.7 193.46,-234.85 188.38,-230.04"/>
</g>
<!-- Node6 -->
<g id="node6" class="node">
<title>Node6</title>
<g id="a_node6"><a xlink:href="../../dd/ddd/_maintainer_8cpp.html" target="_top" xlink:title=" ">
<polygon fill="none" stroke="black" points="0,-84 0,-114 165,-114 165,-84 0,-84"/>
<text text-anchor="start" x="8" y="-102" font-family="Helvetica,sans-Serif" font-size="10.00">Components/Objects</text>
<text text-anchor="middle" x="82.5" y="-91" font-family="Helvetica,sans-Serif" font-size="10.00">/Maintainer/src/Maintainer.cpp</text>
</a>
</g>
</g>
<!-- Node5&#45;&gt;Node6 -->
<g id="edge5" class="edge">
<title>Node5&#45;&gt;Node6</title>
<path fill="none" stroke="midnightblue" d="M192.25,-152.13C166.04,-139.68 134.86,-124.87 112.45,-114.23"/>
<polygon fill="midnightblue" stroke="midnightblue" points="190.76,-155.3 201.3,-156.43 193.76,-148.98 190.76,-155.3"/>
</g>
<!-- Node7 -->
<g id="node7" class="node">
<title>Node7</title>
<g id="a_node7"><a xlink:href="../../d8/d4a/maintainer__test_8cpp.html" target="_top" xlink:title=" ">
<polygon fill="none" stroke="black" points="183.5,-78.5 183.5,-119.5 301.5,-119.5 301.5,-78.5 183.5,-78.5"/>
<text text-anchor="start" x="191.5" y="-107.5" font-family="Helvetica,sans-Serif" font-size="10.00">Components/Objects</text>
<text text-anchor="start" x="191.5" y="-96.5" font-family="Helvetica,sans-Serif" font-size="10.00">/Maintainer/test/test</text>
<text text-anchor="middle" x="242.5" y="-85.5" font-family="Helvetica,sans-Serif" font-size="10.00">/maintainer_test.cpp</text>
</a>
</g>
</g>
<!-- Node5&#45;&gt;Node7 -->
<g id="edge6" class="edge">
<title>Node5&#45;&gt;Node7</title>
<path fill="none" stroke="midnightblue" d="M242.5,-146.3C242.5,-137.3 242.5,-127.65 242.5,-119.51"/>
<polygon fill="midnightblue" stroke="midnightblue" points="239,-146.43 242.5,-156.43 246,-146.43 239,-146.43"/>
</g>
<!-- Node8 -->
<g id="node8" class="node">
<title>Node8</title>
<g id="a_node8"><a xlink:href="../../dd/d82/_active_current_sensor_8hpp.html" target="_top" xlink:title=" ">
<polygon fill="none" stroke="black" points="319.5,-78.5 319.5,-119.5 467.5,-119.5 467.5,-78.5 319.5,-78.5"/>
<text text-anchor="start" x="327.5" y="-107.5" font-family="Helvetica,sans-Serif" font-size="10.00">Components/Sensor/Active</text>
<text text-anchor="start" x="327.5" y="-96.5" font-family="Helvetica,sans-Serif" font-size="10.00">CurrentSensor/include</text>
<text text-anchor="middle" x="393.5" y="-85.5" font-family="Helvetica,sans-Serif" font-size="10.00">/ActiveCurrentSensor.hpp</text>
</a>
</g>
</g>
<!-- Node5&#45;&gt;Node8 -->
<g id="edge7" class="edge">
<title>Node5&#45;&gt;Node8</title>
<path fill="none" stroke="midnightblue" d="M290.37,-151.91C311.13,-141.46 335.13,-129.38 354.75,-119.51"/>
<polygon fill="midnightblue" stroke="midnightblue" points="288.75,-148.81 281.39,-156.43 291.89,-155.06 288.75,-148.81"/>
</g>
<!-- Node9 -->
<g id="node9" class="node">
<title>Node9</title>
<g id="a_node9"><a xlink:href="../../d2/d77/_active_current_sensor_8cpp.html" target="_top" xlink:title=" ">
<polygon fill="none" stroke="black" points="307,-0.5 307,-41.5 480,-41.5 480,-0.5 307,-0.5"/>
<text text-anchor="start" x="315" y="-29.5" font-family="Helvetica,sans-Serif" font-size="10.00">Components/Sensor/Active</text>
<text text-anchor="start" x="315" y="-18.5" font-family="Helvetica,sans-Serif" font-size="10.00">CurrentSensor/src/ActiveCurrent</text>
<text text-anchor="middle" x="393.5" y="-7.5" font-family="Helvetica,sans-Serif" font-size="10.00">Sensor.cpp</text>
</a>
</g>
</g>
<!-- Node8&#45;&gt;Node9 -->
<g id="edge8" class="edge">
<title>Node8&#45;&gt;Node9</title>
<path fill="none" stroke="midnightblue" d="M393.5,-68.3C393.5,-59.3 393.5,-49.65 393.5,-41.51"/>
<polygon fill="midnightblue" stroke="midnightblue" points="390,-68.43 393.5,-78.43 397,-68.43 390,-68.43"/>
</g>
</g>
</svg>
