<?xml version="1.0" encoding="UTF-8" standalone="no"?>
<!DOCTYPE svg PUBLIC "-//W3C//DTD SVG 1.1//EN"
 "http://www.w3.org/Graphics/SVG/1.1/DTD/svg11.dtd">
<!-- Generated by graphviz version 2.43.0 (0)
 -->
<!-- Title: MQTT_Message Pages: 1 -->
<!--zoomable 590 -->
<svg id="main" version="1.1" xmlns="http://www.w3.org/2000/svg" xmlns:xlink="http://www.w3.org/1999/xlink" xml:space="preserve" onload="init(evt)">
<style type="text/css"><![CDATA[
.edge:hover path { stroke: red; }
.edge:hover polygon { stroke: red; fill: red; }
]]></style>
<script type="text/javascript"><![CDATA[
var edges = document.getElementsByTagName('g');
if (edges && edges.length) {
  for (var i=0;i<edges.length;i++) {
    if (edges[i].id.substr(0,4)=='edge') {
      edges[i].setAttribute('class','edge');
    }
  }
}
]]></script>
        <defs>
                <circle id="rim" cx="0" cy="0" r="7"/>
                <circle id="rim2" cx="0" cy="0" r="3.5"/>
                <g id="zoomPlus">
                        <use xlink:href="#rim" fill="#404040">
                                <set attributeName="fill" to="#808080" begin="zoomplus.mouseover" end="zoomplus.mouseout"/>
                        </use>
                        <path d="M-4,0h8M0,-4v8" fill="none" stroke="white" stroke-width="1.5" pointer-events="none"/>
                </g>
                <g id="zoomMin">
                        <use xlink:href="#rim" fill="#404040">
                                <set attributeName="fill" to="#808080" begin="zoomminus.mouseover" end="zoomminus.mouseout"/>
                        </use>
                        <path d="M-4,0h8" fill="none" stroke="white" stroke-width="1.5" pointer-events="none"/>
                </g>
                <g id="dirArrow">
                        <path fill="none" stroke="white" stroke-width="1.5" d="M0,-3.0v7 M-2.5,-0.5L0,-3.0L2.5,-0.5"/>
                </g>
               <g id="resetDef">
                       <use xlink:href="#rim2" fill="#404040">
                               <set attributeName="fill" to="#808080" begin="reset.mouseover" end="reset.mouseout"/>
                       </use>
               </g>
        </defs>

<script type="text/javascript">
var viewWidth = 276;
var viewHeight = 590;
var sectionId = 'dynsection-0';
</script>
<script xlink:href="../../svgpan.js"/>
<svg id="graph" class="graph">
<g id="viewport">
<title>MQTT_Message</title>
<!-- Node1 -->
<g id="node1" class="node">
<title>Node1</title>
<g id="a_node1"><a xlink:title=" ">
<polygon fill="#bfbfbf" stroke="black" points="30.5,-0.5 30.5,-233.5 191.5,-233.5 191.5,-0.5 30.5,-0.5"/>
<text text-anchor="middle" x="111" y="-221.5" font-family="Helvetica,sans-Serif" font-size="10.00">MQTT_Message</text>
<polyline fill="none" stroke="black" points="30.5,-214.5 191.5,-214.5 "/>
<text text-anchor="start" x="38.5" y="-202.5" font-family="Helvetica,sans-Serif" font-size="10.00">&#45; m_entity_id</text>
<text text-anchor="start" x="38.5" y="-191.5" font-family="Helvetica,sans-Serif" font-size="10.00">&#45; m_buffer_size</text>
<polyline fill="none" stroke="black" points="30.5,-184.5 191.5,-184.5 "/>
<text text-anchor="start" x="38.5" y="-172.5" font-family="Helvetica,sans-Serif" font-size="10.00">+ MQTT_Message()</text>
<text text-anchor="start" x="38.5" y="-161.5" font-family="Helvetica,sans-Serif" font-size="10.00">+ MQTT_Message()</text>
<text text-anchor="start" x="38.5" y="-150.5" font-family="Helvetica,sans-Serif" font-size="10.00">+ ~MQTT_Message()</text>
<text text-anchor="start" x="38.5" y="-139.5" font-family="Helvetica,sans-Serif" font-size="10.00">+ addData()</text>
<text text-anchor="start" x="38.5" y="-128.5" font-family="Helvetica,sans-Serif" font-size="10.00">+ addData()</text>
<text text-anchor="start" x="38.5" y="-117.5" font-family="Helvetica,sans-Serif" font-size="10.00">+ addData_f()</text>
<text text-anchor="start" x="38.5" y="-106.5" font-family="Helvetica,sans-Serif" font-size="10.00">+ isEmpty()</text>
<text text-anchor="start" x="38.5" y="-95.5" font-family="Helvetica,sans-Serif" font-size="10.00">+ toString()</text>
<text text-anchor="start" x="38.5" y="-84.5" font-family="Helvetica,sans-Serif" font-size="10.00">+ clear()</text>
<text text-anchor="start" x="38.5" y="-73.5" font-family="Helvetica,sans-Serif" font-size="10.00">+ getBufferSize()</text>
<text text-anchor="start" x="38.5" y="-62.5" font-family="Helvetica,sans-Serif" font-size="10.00">+ append()</text>
<text text-anchor="start" x="38.5" y="-51.5" font-family="Helvetica,sans-Serif" font-size="10.00">+ getData()</text>
<text text-anchor="start" x="38.5" y="-40.5" font-family="Helvetica,sans-Serif" font-size="10.00">+ getMaxAllowedBufferSize()</text>
<text text-anchor="start" x="38.5" y="-29.5" font-family="Helvetica,sans-Serif" font-size="10.00">+ getEntityId()</text>
<text text-anchor="start" x="38.5" y="-18.5" font-family="Helvetica,sans-Serif" font-size="10.00">+ copyTo()</text>
<text text-anchor="start" x="38.5" y="-7.5" font-family="Helvetica,sans-Serif" font-size="10.00">+ construct()</text>
</a>
</g>
</g>
<!-- Node2 -->
<g id="node2" class="node">
<title>Node2</title>
<g id="a_node2"><a xlink:title="STL class.">
<polygon fill="none" stroke="#bfbfbf" points="19.5,-287 19.5,-344 84.5,-344 84.5,-287 19.5,-287"/>
<text text-anchor="middle" x="52" y="-332" font-family="Helvetica,sans-Serif" font-size="10.00">std::string</text>
<polyline fill="none" stroke="#bfbfbf" points="19.5,-325 84.5,-325 "/>
<text text-anchor="middle" x="52" y="-313" font-family="Helvetica,sans-Serif" font-size="10.00"> </text>
<polyline fill="none" stroke="#bfbfbf" points="19.5,-306 84.5,-306 "/>
<text text-anchor="middle" x="52" y="-294" font-family="Helvetica,sans-Serif" font-size="10.00"> </text>
</a>
</g>
</g>
<!-- Node2&#45;&gt;Node1 -->
<g id="edge1" class="edge">
<title>Node2&#45;&gt;Node1</title>
<path fill="none" stroke="#404040" d="M58.09,-286.99C60.65,-276.05 63.77,-263.38 67,-252 67.64,-249.75 68.29,-247.48 68.96,-245.19"/>
<polygon fill="none" stroke="#404040" points="68.96,-245.17 66.83,-238.28 72.37,-233.67 74.5,-240.56 68.96,-245.17"/>
<text text-anchor="middle" x="105.5" y="-255" font-family="Helvetica,sans-Serif" font-size="10.00"> &#45;m_semaphore</text>
</g>
<!-- Node3 -->
<g id="node3" class="node">
<title>Node3</title>
<g id="a_node3"><a xlink:title="STL class.">
<polygon fill="none" stroke="#bfbfbf" points="0,-408.5 0,-476.5 104,-476.5 104,-408.5 0,-408.5"/>
<text text-anchor="start" x="8" y="-464.5" font-family="Helvetica,sans-Serif" font-size="10.00">std::basic_string&lt;</text>
<text text-anchor="middle" x="52" y="-453.5" font-family="Helvetica,sans-Serif" font-size="10.00"> char &gt;</text>
<polyline fill="none" stroke="#bfbfbf" points="0,-446.5 104,-446.5 "/>
<text text-anchor="middle" x="52" y="-434.5" font-family="Helvetica,sans-Serif" font-size="10.00"> </text>
<polyline fill="none" stroke="#bfbfbf" points="0,-427.5 104,-427.5 "/>
<text text-anchor="middle" x="52" y="-415.5" font-family="Helvetica,sans-Serif" font-size="10.00"> </text>
</a>
</g>
</g>
<!-- Node3&#45;&gt;Node2 -->
<g id="edge2" class="edge">
<title>Node3&#45;&gt;Node2</title>
<path fill="none" stroke="midnightblue" d="M52,-398.14C52,-380.29 52,-360.14 52,-344.32"/>
<polygon fill="none" stroke="midnightblue" points="48.5,-398.33 52,-408.33 55.5,-398.33 48.5,-398.33"/>
</g>
<!-- Node4 -->
<g id="node4" class="node">
<title>Node4</title>
<g id="a_node4"><a xlink:title=" ">
<polygon fill="none" stroke="#bfbfbf" points="103,-281.5 103,-349.5 239,-349.5 239,-281.5 103,-281.5"/>
<text text-anchor="start" x="111" y="-337.5" font-family="Helvetica,sans-Serif" font-size="10.00">std::vector&lt; std::pair</text>
<text text-anchor="middle" x="171" y="-326.5" font-family="Helvetica,sans-Serif" font-size="10.00">&lt; uint64_t, uint64_t &gt; &gt;</text>
<polyline fill="none" stroke="#bfbfbf" points="103,-319.5 239,-319.5 "/>
<text text-anchor="start" x="111" y="-307.5" font-family="Helvetica,sans-Serif" font-size="10.00">+ elements</text>
<polyline fill="none" stroke="#bfbfbf" points="103,-300.5 239,-300.5 "/>
<text text-anchor="middle" x="171" y="-288.5" font-family="Helvetica,sans-Serif" font-size="10.00"> </text>
</a>
</g>
</g>
<!-- Node4&#45;&gt;Node1 -->
<g id="edge3" class="edge">
<title>Node4&#45;&gt;Node1</title>
<path fill="none" stroke="#404040" d="M160.82,-281.17C157.62,-270.67 153.86,-258.37 149.88,-245.33"/>
<polygon fill="none" stroke="#404040" points="149.83,-245.18 144.25,-240.61 146.33,-233.7 151.91,-238.27 149.83,-245.18"/>
<text text-anchor="middle" x="176" y="-255" font-family="Helvetica,sans-Serif" font-size="10.00"> &#45;m_data</text>
</g>
<!-- Node5 -->
<g id="node5" class="node">
<title>Node5</title>
<g id="a_node5"><a xlink:title="STL class.">
<polygon fill="none" stroke="#bfbfbf" points="122.5,-414 122.5,-471 219.5,-471 219.5,-414 122.5,-414"/>
<text text-anchor="middle" x="171" y="-459" font-family="Helvetica,sans-Serif" font-size="10.00">std::vector&lt; T &gt;</text>
<polyline fill="none" stroke="#bfbfbf" points="122.5,-452 219.5,-452 "/>
<text text-anchor="middle" x="171" y="-440" font-family="Helvetica,sans-Serif" font-size="10.00"> </text>
<polyline fill="none" stroke="#bfbfbf" points="122.5,-433 219.5,-433 "/>
<text text-anchor="middle" x="171" y="-421" font-family="Helvetica,sans-Serif" font-size="10.00"> </text>
</a>
</g>
</g>
<!-- Node5&#45;&gt;Node4 -->
<g id="edge4" class="edge">
<title>Node5&#45;&gt;Node4</title>
<path fill="none" stroke="orange" d="M171,-403.55C171,-386.46 171,-366.46 171,-349.94"/>
<polygon fill="orange" stroke="orange" points="167.5,-403.76 171,-413.76 174.5,-403.76 167.5,-403.76"/>
<text text-anchor="start" x="171" y="-382" font-family="Helvetica,sans-Serif" font-size="10.00"> &lt; std::pair&lt; uint64</text>
<text text-anchor="middle" x="219.5" y="-371" font-family="Helvetica,sans-Serif" font-size="10.00">_t, uint64_t &gt; &gt;</text>
</g>
<!-- Node6 -->
<g id="node6" class="node">
<title>Node6</title>
<g id="a_node6"><a xlink:title=" ">
<polygon fill="none" stroke="#bfbfbf" points="156.5,-524.5 156.5,-581.5 185.5,-581.5 185.5,-524.5 156.5,-524.5"/>
<text text-anchor="middle" x="171" y="-569.5" font-family="Helvetica,sans-Serif" font-size="10.00">T</text>
<polyline fill="none" stroke="#bfbfbf" points="156.5,-562.5 185.5,-562.5 "/>
<text text-anchor="middle" x="171" y="-550.5" font-family="Helvetica,sans-Serif" font-size="10.00"> </text>
<polyline fill="none" stroke="#bfbfbf" points="156.5,-543.5 185.5,-543.5 "/>
<text text-anchor="middle" x="171" y="-531.5" font-family="Helvetica,sans-Serif" font-size="10.00"> </text>
</a>
</g>
</g>
<!-- Node6&#45;&gt;Node5 -->
<g id="edge5" class="edge">
<title>Node6&#45;&gt;Node5</title>
<path fill="none" stroke="#404040" d="M171,-524.34C171,-511.84 171,-496.84 171,-483.18"/>
<polygon fill="none" stroke="#404040" points="171,-483.11 167,-477.11 171,-471.11 175,-477.11 171,-483.11"/>
<text text-anchor="middle" x="200" y="-498" font-family="Helvetica,sans-Serif" font-size="10.00"> +elements</text>
</g>
</g>
</svg>
        <g id="navigator" transform="translate(0 0)" fill="#404254">
                <rect fill="#f2f5e9" fill-opacity="0.5" stroke="#606060" stroke-width=".5" x="0" y="0" width="60" height="60"/>
                <use id="zoomplus" xlink:href="#zoomPlus" x="17" y="9" onmousedown="handleZoom(evt,'in')"/>
                <use id="zoomminus" xlink:href="#zoomMin" x="42" y="9" onmousedown="handleZoom(evt,'out')"/>
                <use id="reset" xlink:href="#resetDef" x="30" y="36" onmousedown="handleReset()"/>
                <g id="arrowUp" xlink:href="#dirArrow" transform="translate(30 24)" onmousedown="handlePan(0,-1)">
                  <use xlink:href="#rim" fill="#404040">
                        <set attributeName="fill" to="#808080" begin="arrowUp.mouseover" end="arrowUp.mouseout"/>
                  </use>
                  <path fill="none" stroke="white" stroke-width="1.5" d="M0,-3.0v7 M-2.5,-0.5L0,-3.0L2.5,-0.5"/>
                </g>
                <g id="arrowRight" xlink:href="#dirArrow" transform="rotate(90) translate(36 -43)" onmousedown="handlePan(1,0)">
                  <use xlink:href="#rim" fill="#404040">
                        <set attributeName="fill" to="#808080" begin="arrowRight.mouseover" end="arrowRight.mouseout"/>
                  </use>
                  <path fill="none" stroke="white" stroke-width="1.5" d="M0,-3.0v7 M-2.5,-0.5L0,-3.0L2.5,-0.5"/>
                </g>
                <g id="arrowDown" xlink:href="#dirArrow" transform="rotate(180) translate(-30 -48)" onmousedown="handlePan(0,1)">
                  <use xlink:href="#rim" fill="#404040">
                        <set attributeName="fill" to="#808080" begin="arrowDown.mouseover" end="arrowDown.mouseout"/>
                  </use>
                  <path fill="none" stroke="white" stroke-width="1.5" d="M0,-3.0v7 M-2.5,-0.5L0,-3.0L2.5,-0.5"/>
                </g>
                <g id="arrowLeft" xlink:href="#dirArrow" transform="rotate(270) translate(-36 17)" onmousedown="handlePan(-1,0)">
                  <use xlink:href="#rim" fill="#404040">
                        <set attributeName="fill" to="#808080" begin="arrowLeft.mouseover" end="arrowLeft.mouseout"/>
                  </use>
                  <path fill="none" stroke="white" stroke-width="1.5" d="M0,-3.0v7 M-2.5,-0.5L0,-3.0L2.5,-0.5"/>
                </g>
        </g>
        <svg viewBox="0 0 15 15" width="100%" height="30px" preserveAspectRatio="xMaxYMin meet">
         <g id="arrow_out" transform="scale(0.3 0.3)">
          <a xlink:href="class_m_q_t_t___message__coll__graph_org.svg" target="_base">
           <rect id="button" ry="5" rx="5" y="6" x="6" height="38" width="38"
                fill="#f2f5e9" fill-opacity="0.5" stroke="#606060" stroke-width="1.0"/>
           <path id="arrow"
             d="M 11.500037,31.436501 C 11.940474,20.09759 22.043105,11.32322 32.158766,21.979434 L 37.068811,17.246167 C 37.068811,17.246167 37.088388,32 37.088388,32 L 22.160133,31.978069 C 22.160133,31.978069 26.997745,27.140456 26.997745,27.140456 C 18.528582,18.264221 13.291696,25.230495 11.500037,31.436501 z"
             style="fill:#404040;"/>
          </a>
         </g>
        </svg>
</svg>
