<?xml version="1.0" encoding="UTF-8" standalone="no"?>
<!DOCTYPE svg PUBLIC "-//W3C//DTD SVG 1.1//EN"
 "http://www.w3.org/Graphics/SVG/1.1/DTD/svg11.dtd">
<!-- Generated by graphviz version 2.43.0 (0)
 -->
<!-- Title: MQTT_Message Pages: 1 -->
<svg width="276pt" height="557pt"
 viewBox="0.00 0.00 276.00 557.00" xmlns="http://www.w3.org/2000/svg" xmlns:xlink="http://www.w3.org/1999/xlink">
<g id="graph0" class="graph" transform="scale(1 1) rotate(0) translate(4 553)">
<title>MQTT_Message</title>
<!-- Node1 -->
<g id="node1" class="node">
<title>Node1</title>
<g id="a_node1"><a xlink:title=" ">
<polygon fill="#bfbfbf" stroke="black" points="50.5,-0.5 50.5,-200.5 171.5,-200.5 171.5,-0.5 50.5,-0.5"/>
<text text-anchor="middle" x="111" y="-188.5" font-family="Helvetica,sans-Serif" font-size="10.00">MQTT_Message</text>
<polyline fill="none" stroke="black" points="50.5,-181.5 171.5,-181.5 "/>
<text text-anchor="start" x="58.5" y="-169.5" font-family="Helvetica,sans-Serif" font-size="10.00">&#45; m_entity_id</text>
<text text-anchor="start" x="58.5" y="-158.5" font-family="Helvetica,sans-Serif" font-size="10.00">&#45; m_buffer_size</text>
<polyline fill="none" stroke="black" points="50.5,-151.5 171.5,-151.5 "/>
<text text-anchor="start" x="58.5" y="-139.5" font-family="Helvetica,sans-Serif" font-size="10.00">+ MQTT_Message()</text>
<text text-anchor="start" x="58.5" y="-128.5" font-family="Helvetica,sans-Serif" font-size="10.00">+ MQTT_Message()</text>
<text text-anchor="start" x="58.5" y="-117.5" font-family="Helvetica,sans-Serif" font-size="10.00">+ ~MQTT_Message()</text>
<text text-anchor="start" x="58.5" y="-106.5" font-family="Helvetica,sans-Serif" font-size="10.00">+ addData()</text>
<text text-anchor="start" x="58.5" y="-95.5" font-family="Helvetica,sans-Serif" font-size="10.00">+ addData()</text>
<text text-anchor="start" x="58.5" y="-84.5" font-family="Helvetica,sans-Serif" font-size="10.00">+ addData_f()</text>
<text text-anchor="start" x="58.5" y="-73.5" font-family="Helvetica,sans-Serif" font-size="10.00">+ isEmpty()</text>
<text text-anchor="start" x="58.5" y="-62.5" font-family="Helvetica,sans-Serif" font-size="10.00">+ toString()</text>
<text text-anchor="start" x="58.5" y="-51.5" font-family="Helvetica,sans-Serif" font-size="10.00">+ clear()</text>
<text text-anchor="start" x="58.5" y="-40.5" font-family="Helvetica,sans-Serif" font-size="10.00">+ getBufferSize()</text>
<text text-anchor="start" x="58.5" y="-29.5" font-family="Helvetica,sans-Serif" font-size="10.00">+ append()</text>
<text text-anchor="start" x="58.5" y="-18.5" font-family="Helvetica,sans-Serif" font-size="10.00">+ getData()</text>
<text text-anchor="start" x="58.5" y="-7.5" font-family="Helvetica,sans-Serif" font-size="10.00">+ construct()</text>
</a>
</g>
</g>
<!-- Node2 -->
<g id="node2" class="node">
<title>Node2</title>
<g id="a_node2"><a xlink:title="STL class.">
<polygon fill="none" stroke="#bfbfbf" points="19.5,-254 19.5,-311 84.5,-311 84.5,-254 19.5,-254"/>
<text text-anchor="middle" x="52" y="-299" font-family="Helvetica,sans-Serif" font-size="10.00">std::string</text>
<polyline fill="none" stroke="#bfbfbf" points="19.5,-292 84.5,-292 "/>
<text text-anchor="middle" x="52" y="-280" font-family="Helvetica,sans-Serif" font-size="10.00"> </text>
<polyline fill="none" stroke="#bfbfbf" points="19.5,-273 84.5,-273 "/>
<text text-anchor="middle" x="52" y="-261" font-family="Helvetica,sans-Serif" font-size="10.00"> </text>
</a>
</g>
</g>
<!-- Node2&#45;&gt;Node1 -->
<g id="edge1" class="edge">
<title>Node2&#45;&gt;Node1</title>
<path fill="none" stroke="#404040" d="M57.85,-253.92C60.37,-242.97 63.54,-230.31 67,-219 67.69,-216.73 68.41,-214.45 69.14,-212.15"/>
<polygon fill="none" stroke="#404040" points="69.2,-211.98 67.26,-205.03 72.93,-200.57 74.86,-207.52 69.2,-211.98"/>
<text text-anchor="middle" x="105.5" y="-222" font-family="Helvetica,sans-Serif" font-size="10.00"> &#45;m_semaphore</text>
</g>
<!-- Node3 -->
<g id="node3" class="node">
<title>Node3</title>
<g id="a_node3"><a xlink:title="STL class.">
<polygon fill="none" stroke="#bfbfbf" points="0,-375.5 0,-443.5 104,-443.5 104,-375.5 0,-375.5"/>
<text text-anchor="start" x="8" y="-431.5" font-family="Helvetica,sans-Serif" font-size="10.00">std::basic_string&lt;</text>
<text text-anchor="middle" x="52" y="-420.5" font-family="Helvetica,sans-Serif" font-size="10.00"> char &gt;</text>
<polyline fill="none" stroke="#bfbfbf" points="0,-413.5 104,-413.5 "/>
<text text-anchor="middle" x="52" y="-401.5" font-family="Helvetica,sans-Serif" font-size="10.00"> </text>
<polyline fill="none" stroke="#bfbfbf" points="0,-394.5 104,-394.5 "/>
<text text-anchor="middle" x="52" y="-382.5" font-family="Helvetica,sans-Serif" font-size="10.00"> </text>
</a>
</g>
</g>
<!-- Node3&#45;&gt;Node2 -->
<g id="edge2" class="edge">
<title>Node3&#45;&gt;Node2</title>
<path fill="none" stroke="midnightblue" d="M52,-365.14C52,-347.29 52,-327.14 52,-311.32"/>
<polygon fill="none" stroke="midnightblue" points="48.5,-365.33 52,-375.33 55.5,-365.33 48.5,-365.33"/>
</g>
<!-- Node4 -->
<g id="node4" class="node">
<title>Node4</title>
<g id="a_node4"><a xlink:title=" ">
<polygon fill="none" stroke="#bfbfbf" points="103,-248.5 103,-316.5 239,-316.5 239,-248.5 103,-248.5"/>
<text text-anchor="start" x="111" y="-304.5" font-family="Helvetica,sans-Serif" font-size="10.00">std::vector&lt; std::pair</text>
<text text-anchor="middle" x="171" y="-293.5" font-family="Helvetica,sans-Serif" font-size="10.00">&lt; uint64_t, uint64_t &gt; &gt;</text>
<polyline fill="none" stroke="#bfbfbf" points="103,-286.5 239,-286.5 "/>
<text text-anchor="start" x="111" y="-274.5" font-family="Helvetica,sans-Serif" font-size="10.00">+ elements</text>
<polyline fill="none" stroke="#bfbfbf" points="103,-267.5 239,-267.5 "/>
<text text-anchor="middle" x="171" y="-255.5" font-family="Helvetica,sans-Serif" font-size="10.00"> </text>
</a>
</g>
</g>
<!-- Node4&#45;&gt;Node1 -->
<g id="edge3" class="edge">
<title>Node4&#45;&gt;Node1</title>
<path fill="none" stroke="#404040" d="M160,-248.49C156.44,-237.81 152.27,-225.32 147.9,-212.2"/>
<polygon fill="none" stroke="#404040" points="147.81,-211.93 142.12,-207.51 144.02,-200.55 149.71,-204.98 147.81,-211.93"/>
<text text-anchor="middle" x="175" y="-222" font-family="Helvetica,sans-Serif" font-size="10.00"> &#45;m_data</text>
</g>
<!-- Node5 -->
<g id="node5" class="node">
<title>Node5</title>
<g id="a_node5"><a xlink:title="STL class.">
<polygon fill="none" stroke="#bfbfbf" points="122.5,-381 122.5,-438 219.5,-438 219.5,-381 122.5,-381"/>
<text text-anchor="middle" x="171" y="-426" font-family="Helvetica,sans-Serif" font-size="10.00">std::vector&lt; T &gt;</text>
<polyline fill="none" stroke="#bfbfbf" points="122.5,-419 219.5,-419 "/>
<text text-anchor="middle" x="171" y="-407" font-family="Helvetica,sans-Serif" font-size="10.00"> </text>
<polyline fill="none" stroke="#bfbfbf" points="122.5,-400 219.5,-400 "/>
<text text-anchor="middle" x="171" y="-388" font-family="Helvetica,sans-Serif" font-size="10.00"> </text>
</a>
</g>
</g>
<!-- Node5&#45;&gt;Node4 -->
<g id="edge4" class="edge">
<title>Node5&#45;&gt;Node4</title>
<path fill="none" stroke="orange" d="M171,-370.55C171,-353.46 171,-333.46 171,-316.94"/>
<polygon fill="orange" stroke="orange" points="167.5,-370.76 171,-380.76 174.5,-370.76 167.5,-370.76"/>
<text text-anchor="start" x="171" y="-349" font-family="Helvetica,sans-Serif" font-size="10.00"> &lt; std::pair&lt; uint64</text>
<text text-anchor="middle" x="219.5" y="-338" font-family="Helvetica,sans-Serif" font-size="10.00">_t, uint64_t &gt; &gt;</text>
</g>
<!-- Node6 -->
<g id="node6" class="node">
<title>Node6</title>
<g id="a_node6"><a xlink:title=" ">
<polygon fill="none" stroke="#bfbfbf" points="156.5,-491.5 156.5,-548.5 185.5,-548.5 185.5,-491.5 156.5,-491.5"/>
<text text-anchor="middle" x="171" y="-536.5" font-family="Helvetica,sans-Serif" font-size="10.00">T</text>
<polyline fill="none" stroke="#bfbfbf" points="156.5,-529.5 185.5,-529.5 "/>
<text text-anchor="middle" x="171" y="-517.5" font-family="Helvetica,sans-Serif" font-size="10.00"> </text>
<polyline fill="none" stroke="#bfbfbf" points="156.5,-510.5 185.5,-510.5 "/>
<text text-anchor="middle" x="171" y="-498.5" font-family="Helvetica,sans-Serif" font-size="10.00"> </text>
</a>
</g>
</g>
<!-- Node6&#45;&gt;Node5 -->
<g id="edge5" class="edge">
<title>Node6&#45;&gt;Node5</title>
<path fill="none" stroke="#404040" d="M171,-491.34C171,-478.84 171,-463.84 171,-450.18"/>
<polygon fill="none" stroke="#404040" points="171,-450.11 167,-444.11 171,-438.11 175,-444.11 171,-450.11"/>
<text text-anchor="middle" x="200" y="-465" font-family="Helvetica,sans-Serif" font-size="10.00"> +elements</text>
</g>
</g>
</svg>
