<?xml version="1.0" encoding="UTF-8" standalone="no"?>
<!DOCTYPE svg PUBLIC "-//W3C//DTD SVG 1.1//EN"
 "http://www.w3.org/Graphics/SVG/1.1/DTD/svg11.dtd">
<!-- Generated by graphviz version 2.43.0 (0)
 -->
<!-- Title: Components/Objects/Maintainer/include/Maintainer.hpp Pages: 1 -->
<svg width="488pt" height="206pt"
 viewBox="0.00 0.00 488.00 206.00" xmlns="http://www.w3.org/2000/svg" xmlns:xlink="http://www.w3.org/1999/xlink">
<g id="graph0" class="graph" transform="scale(1 1) rotate(0) translate(4 202)">
<title>Components/Objects/Maintainer/include/Maintainer.hpp</title>
<!-- Node1 -->
<g id="node1" class="node">
<title>Node1</title>
<g id="a_node1"><a xlink:title=" ">
<polygon fill="#bfbfbf" stroke="black" points="183.5,-156.5 183.5,-197.5 301.5,-197.5 301.5,-156.5 183.5,-156.5"/>
<text text-anchor="start" x="191.5" y="-185.5" font-family="Helvetica,sans-Serif" font-size="10.00">Components/Objects</text>
<text text-anchor="start" x="191.5" y="-174.5" font-family="Helvetica,sans-Serif" font-size="10.00">/Maintainer/include</text>
<text text-anchor="middle" x="242.5" y="-163.5" font-family="Helvetica,sans-Serif" font-size="10.00">/Maintainer.hpp</text>
</a>
</g>
</g>
<!-- Node2 -->
<g id="node2" class="node">
<title>Node2</title>
<g id="a_node2"><a xlink:href="../../dd/ddd/_maintainer_8cpp.html" target="_top" xlink:title=" ">
<polygon fill="none" stroke="black" points="0,-84 0,-114 165,-114 165,-84 0,-84"/>
<text text-anchor="start" x="8" y="-102" font-family="Helvetica,sans-Serif" font-size="10.00">Components/Objects</text>
<text text-anchor="middle" x="82.5" y="-91" font-family="Helvetica,sans-Serif" font-size="10.00">/Maintainer/src/Maintainer.cpp</text>
</a>
</g>
</g>
<!-- Node1&#45;&gt;Node2 -->
<g id="edge1" class="edge">
<title>Node1&#45;&gt;Node2</title>
<path fill="none" stroke="midnightblue" d="M192.25,-152.13C166.04,-139.68 134.86,-124.87 112.45,-114.23"/>
<polygon fill="midnightblue" stroke="midnightblue" points="190.76,-155.3 201.3,-156.43 193.76,-148.98 190.76,-155.3"/>
</g>
<!-- Node3 -->
<g id="node3" class="node">
<title>Node3</title>
<g id="a_node3"><a xlink:href="../../d8/d4a/maintainer__test_8cpp.html" target="_top" xlink:title=" ">
<polygon fill="none" stroke="black" points="183.5,-78.5 183.5,-119.5 301.5,-119.5 301.5,-78.5 183.5,-78.5"/>
<text text-anchor="start" x="191.5" y="-107.5" font-family="Helvetica,sans-Serif" font-size="10.00">Components/Objects</text>
<text text-anchor="start" x="191.5" y="-96.5" font-family="Helvetica,sans-Serif" font-size="10.00">/Maintainer/test/test</text>
<text text-anchor="middle" x="242.5" y="-85.5" font-family="Helvetica,sans-Serif" font-size="10.00">/maintainer_test.cpp</text>
</a>
</g>
</g>
<!-- Node1&#45;&gt;Node3 -->
<g id="edge2" class="edge">
<title>Node1&#45;&gt;Node3</title>
<path fill="none" stroke="midnightblue" d="M242.5,-146.3C242.5,-137.3 242.5,-127.65 242.5,-119.51"/>
<polygon fill="midnightblue" stroke="midnightblue" points="239,-146.43 242.5,-156.43 246,-146.43 239,-146.43"/>
</g>
<!-- Node4 -->
<g id="node4" class="node">
<title>Node4</title>
<g id="a_node4"><a xlink:href="../../dd/d82/_active_current_sensor_8hpp.html" target="_top" xlink:title=" ">
<polygon fill="none" stroke="black" points="319.5,-78.5 319.5,-119.5 467.5,-119.5 467.5,-78.5 319.5,-78.5"/>
<text text-anchor="start" x="327.5" y="-107.5" font-family="Helvetica,sans-Serif" font-size="10.00">Components/Sensor/Active</text>
<text text-anchor="start" x="327.5" y="-96.5" font-family="Helvetica,sans-Serif" font-size="10.00">CurrentSensor/include</text>
<text text-anchor="middle" x="393.5" y="-85.5" font-family="Helvetica,sans-Serif" font-size="10.00">/ActiveCurrentSensor.hpp</text>
</a>
</g>
</g>
<!-- Node1&#45;&gt;Node4 -->
<g id="edge3" class="edge">
<title>Node1&#45;&gt;Node4</title>
<path fill="none" stroke="midnightblue" d="M290.37,-151.91C311.13,-141.46 335.13,-129.38 354.75,-119.51"/>
<polygon fill="midnightblue" stroke="midnightblue" points="288.75,-148.81 281.39,-156.43 291.89,-155.06 288.75,-148.81"/>
</g>
<!-- Node5 -->
<g id="node5" class="node">
<title>Node5</title>
<g id="a_node5"><a xlink:href="../../d2/d77/_active_current_sensor_8cpp.html" target="_top" xlink:title=" ">
<polygon fill="none" stroke="black" points="307,-0.5 307,-41.5 480,-41.5 480,-0.5 307,-0.5"/>
<text text-anchor="start" x="315" y="-29.5" font-family="Helvetica,sans-Serif" font-size="10.00">Components/Sensor/Active</text>
<text text-anchor="start" x="315" y="-18.5" font-family="Helvetica,sans-Serif" font-size="10.00">CurrentSensor/src/ActiveCurrent</text>
<text text-anchor="middle" x="393.5" y="-7.5" font-family="Helvetica,sans-Serif" font-size="10.00">Sensor.cpp</text>
</a>
</g>
</g>
<!-- Node4&#45;&gt;Node5 -->
<g id="edge4" class="edge">
<title>Node4&#45;&gt;Node5</title>
<path fill="none" stroke="midnightblue" d="M393.5,-68.3C393.5,-59.3 393.5,-49.65 393.5,-41.51"/>
<polygon fill="midnightblue" stroke="midnightblue" points="390,-68.43 393.5,-78.43 397,-68.43 390,-68.43"/>
</g>
</g>
</svg>
