<?xml version="1.0" encoding="UTF-8" standalone="no"?>
<!DOCTYPE svg PUBLIC "-//W3C//DTD SVG 1.1//EN"
 "http://www.w3.org/Graphics/SVG/1.1/DTD/svg11.dtd">
<!-- Generated by graphviz version 2.43.0 (0)
 -->
<!-- Title: Components/Objects/Logger/include/hal_mqtt_log.hpp Pages: 1 -->
<svg width="441pt" height="385pt"
 viewBox="0.00 0.00 440.81 385.00" xmlns="http://www.w3.org/2000/svg" xmlns:xlink="http://www.w3.org/1999/xlink">
<g id="graph0" class="graph" transform="scale(1 1) rotate(0) translate(4 381)">
<title>Components/Objects/Logger/include/hal_mqtt_log.hpp</title>
<!-- Node1 -->
<g id="node1" class="node">
<title>Node1</title>
<g id="a_node1"><a xlink:title=" ">
<polygon fill="#bfbfbf" stroke="black" points="186,-335.5 186,-376.5 304,-376.5 304,-335.5 186,-335.5"/>
<text text-anchor="start" x="194" y="-364.5" font-family="Helvetica,sans-Serif" font-size="10.00">Components/Objects</text>
<text text-anchor="start" x="194" y="-353.5" font-family="Helvetica,sans-Serif" font-size="10.00">/Logger/include/hal</text>
<text text-anchor="middle" x="245" y="-342.5" font-family="Helvetica,sans-Serif" font-size="10.00">_mqtt_log.hpp</text>
</a>
</g>
</g>
<!-- Node2 -->
<g id="node2" class="node">
<title>Node2</title>
<g id="a_node2"><a xlink:href="../../da/d5f/_b_a_s_i_c_8hpp.html" target="_top" xlink:title=" ">
<polygon fill="none" stroke="black" points="0,-56.5 0,-86.5 116,-86.5 116,-56.5 0,-56.5"/>
<text text-anchor="start" x="8" y="-74.5" font-family="Helvetica,sans-Serif" font-size="10.00">../../../Global_Include</text>
<text text-anchor="middle" x="58" y="-63.5" font-family="Helvetica,sans-Serif" font-size="10.00">/BASIC.hpp</text>
</a>
</g>
</g>
<!-- Node1&#45;&gt;Node2 -->
<g id="edge1" class="edge">
<title>Node1&#45;&gt;Node2</title>
<path fill="none" stroke="midnightblue" d="M192.31,-335.42C144.91,-314.77 77.82,-277.34 45,-221 22.29,-182.02 36.53,-127.28 47.93,-96.31"/>
<polygon fill="midnightblue" stroke="midnightblue" points="51.28,-97.37 51.63,-86.78 44.75,-94.83 51.28,-97.37"/>
</g>
<!-- Node3 -->
<g id="node3" class="node">
<title>Node3</title>
<g id="a_node3"><a xlink:href="../../d3/deb/_general___error_8hpp.html" target="_top" xlink:title=" ">
<polygon fill="none" stroke="black" points="186.5,-56.5 186.5,-86.5 331.5,-86.5 331.5,-56.5 186.5,-56.5"/>
<text text-anchor="start" x="194.5" y="-74.5" font-family="Helvetica,sans-Serif" font-size="10.00">../../../Objects/ErrorHandler</text>
<text text-anchor="middle" x="259" y="-63.5" font-family="Helvetica,sans-Serif" font-size="10.00">/include/General_Error.hpp</text>
</a>
</g>
</g>
<!-- Node1&#45;&gt;Node3 -->
<g id="edge2" class="edge">
<title>Node1&#45;&gt;Node3</title>
<path fill="none" stroke="midnightblue" d="M275.6,-335.25C321.08,-303.61 403.76,-236.64 428,-154 431.88,-140.78 436.23,-134.05 428,-123 407.86,-95.96 373.78,-82.84 341.48,-76.66"/>
<polygon fill="midnightblue" stroke="midnightblue" points="341.97,-73.2 331.53,-74.96 340.79,-80.1 341.97,-73.2"/>
</g>
<!-- Node6 -->
<g id="node6" class="node">
<title>Node6</title>
<g id="a_node6"><a xlink:href="../../d4/d63/mqtt__api__v2_8hpp.html" target="_top" xlink:title=" ">
<polygon fill="none" stroke="black" points="178.5,-257.5 178.5,-298.5 311.5,-298.5 311.5,-257.5 178.5,-257.5"/>
<text text-anchor="start" x="186.5" y="-286.5" font-family="Helvetica,sans-Serif" font-size="10.00">../../../Protocols</text>
<text text-anchor="start" x="186.5" y="-275.5" font-family="Helvetica,sans-Serif" font-size="10.00">/MQTT/include/mqtt_api</text>
<text text-anchor="middle" x="245" y="-264.5" font-family="Helvetica,sans-Serif" font-size="10.00">_v2.hpp</text>
</a>
</g>
</g>
<!-- Node1&#45;&gt;Node6 -->
<g id="edge5" class="edge">
<title>Node1&#45;&gt;Node6</title>
<path fill="none" stroke="midnightblue" d="M245,-335.43C245,-327.27 245,-317.62 245,-308.63"/>
<polygon fill="midnightblue" stroke="midnightblue" points="248.5,-308.51 245,-298.51 241.5,-308.51 248.5,-308.51"/>
</g>
<!-- Node4 -->
<g id="node4" class="node">
<title>Node4</title>
<g id="a_node4"><a xlink:title=" ">
<polygon fill="none" stroke="#bfbfbf" points="191,-0.5 191,-19.5 235,-19.5 235,-0.5 191,-0.5"/>
<text text-anchor="middle" x="213" y="-7.5" font-family="Helvetica,sans-Serif" font-size="10.00">string</text>
</a>
</g>
</g>
<!-- Node3&#45;&gt;Node4 -->
<g id="edge3" class="edge">
<title>Node3&#45;&gt;Node4</title>
<path fill="none" stroke="midnightblue" d="M248.1,-56.4C241.41,-47.75 232.82,-36.64 225.82,-27.58"/>
<polygon fill="midnightblue" stroke="midnightblue" points="228.58,-25.43 219.69,-19.66 223.04,-29.71 228.58,-25.43"/>
</g>
<!-- Node5 -->
<g id="node5" class="node">
<title>Node5</title>
<g id="a_node5"><a xlink:title=" ">
<polygon fill="none" stroke="#bfbfbf" points="274,-0.5 274,-19.5 334,-19.5 334,-0.5 274,-0.5"/>
<text text-anchor="middle" x="304" y="-7.5" font-family="Helvetica,sans-Serif" font-size="10.00">iostream</text>
</a>
</g>
</g>
<!-- Node3&#45;&gt;Node5 -->
<g id="edge4" class="edge">
<title>Node3&#45;&gt;Node5</title>
<path fill="none" stroke="midnightblue" d="M269.66,-56.4C276.14,-47.84 284.43,-36.87 291.25,-27.86"/>
<polygon fill="midnightblue" stroke="midnightblue" points="294.21,-29.74 297.45,-19.66 288.63,-25.52 294.21,-29.74"/>
</g>
<!-- Node6&#45;&gt;Node2 -->
<g id="edge6" class="edge">
<title>Node6&#45;&gt;Node2</title>
<path fill="none" stroke="midnightblue" d="M178.28,-274.88C138.16,-269.78 89.81,-256.05 63,-221 35.4,-184.92 43.41,-128.21 51.09,-96.33"/>
<polygon fill="midnightblue" stroke="midnightblue" points="54.51,-97.09 53.63,-86.53 47.73,-95.33 54.51,-97.09"/>
</g>
<!-- Node6&#45;&gt;Node3 -->
<g id="edge7" class="edge">
<title>Node6&#45;&gt;Node3</title>
<path fill="none" stroke="midnightblue" d="M248.3,-257.36C249.98,-246.65 251.89,-233.13 253,-221 256.98,-177.48 258.32,-126.55 258.77,-97.06"/>
<polygon fill="midnightblue" stroke="midnightblue" points="262.27,-96.91 258.9,-86.87 255.27,-96.82 262.27,-96.91"/>
</g>
<!-- Node7 -->
<g id="node7" class="node">
<title>Node7</title>
<g id="a_node7"><a xlink:href="../../de/dd1/_o_t_a_8hpp.html" target="_top" xlink:title=" ">
<polygon fill="none" stroke="black" points="72.5,-190.5 72.5,-220.5 175.5,-220.5 175.5,-190.5 72.5,-190.5"/>
<text text-anchor="start" x="80.5" y="-208.5" font-family="Helvetica,sans-Serif" font-size="10.00">../../../Objects/OTA</text>
<text text-anchor="middle" x="124" y="-197.5" font-family="Helvetica,sans-Serif" font-size="10.00">/include/OTA.hpp</text>
</a>
</g>
</g>
<!-- Node6&#45;&gt;Node7 -->
<g id="edge8" class="edge">
<title>Node6&#45;&gt;Node7</title>
<path fill="none" stroke="midnightblue" d="M211.29,-257.36C194.42,-247.53 174.06,-235.67 157.25,-225.87"/>
<polygon fill="midnightblue" stroke="midnightblue" points="158.72,-222.68 148.32,-220.67 155.2,-228.73 158.72,-222.68"/>
</g>
<!-- Node9 -->
<g id="node9" class="node">
<title>Node9</title>
<g id="a_node9"><a xlink:href="../../d3/d1c/_free_r_t_o_s_8h.html" target="_top" xlink:title=" ">
<polygon fill="none" stroke="black" points="300.5,-123.5 300.5,-153.5 419.5,-153.5 419.5,-123.5 300.5,-123.5"/>
<text text-anchor="start" x="308.5" y="-141.5" font-family="Helvetica,sans-Serif" font-size="10.00">../../../RTOS/FreeRTOS</text>
<text text-anchor="middle" x="360" y="-130.5" font-family="Helvetica,sans-Serif" font-size="10.00">/include/FreeRTOS.h</text>
</a>
</g>
</g>
<!-- Node6&#45;&gt;Node9 -->
<g id="edge15" class="edge">
<title>Node6&#45;&gt;Node9</title>
<path fill="none" stroke="midnightblue" d="M261.48,-257.3C282.66,-231.97 319.34,-188.11 341.48,-161.65"/>
<polygon fill="midnightblue" stroke="midnightblue" points="344.38,-163.63 348.11,-153.72 339.01,-159.14 344.38,-163.63"/>
</g>
<!-- Node10 -->
<g id="node10" class="node">
<title>Node10</title>
<g id="a_node10"><a xlink:title=" ">
<polygon fill="none" stroke="#bfbfbf" points="194,-196 194,-215 244,-215 244,-196 194,-196"/>
<text text-anchor="middle" x="219" y="-203" font-family="Helvetica,sans-Serif" font-size="10.00">atomic</text>
</a>
</g>
</g>
<!-- Node6&#45;&gt;Node10 -->
<g id="edge19" class="edge">
<title>Node6&#45;&gt;Node10</title>
<path fill="none" stroke="midnightblue" d="M237.76,-257.36C234.01,-247.19 229.45,-234.84 225.77,-224.86"/>
<polygon fill="midnightblue" stroke="midnightblue" points="228.94,-223.34 222.2,-215.17 222.38,-225.77 228.94,-223.34"/>
</g>
<!-- Node11 -->
<g id="node11" class="node">
<title>Node11</title>
<g id="a_node11"><a xlink:title=" ">
<polygon fill="none" stroke="#bfbfbf" points="338,-196 338,-215 376,-215 376,-196 338,-196"/>
<text text-anchor="middle" x="357" y="-203" font-family="Helvetica,sans-Serif" font-size="10.00">map</text>
</a>
</g>
</g>
<!-- Node6&#45;&gt;Node11 -->
<g id="edge20" class="edge">
<title>Node6&#45;&gt;Node11</title>
<path fill="none" stroke="midnightblue" d="M276.2,-257.36C294.77,-245.67 317.89,-231.12 334.64,-220.57"/>
<polygon fill="midnightblue" stroke="midnightblue" points="336.62,-223.46 343.22,-215.17 332.89,-217.54 336.62,-223.46"/>
</g>
<!-- Node7&#45;&gt;Node2 -->
<g id="edge9" class="edge">
<title>Node7&#45;&gt;Node2</title>
<path fill="none" stroke="midnightblue" d="M106.83,-190.26C96.69,-180.95 84.43,-167.95 77,-154 67.48,-136.12 62.69,-113.53 60.31,-96.68"/>
<polygon fill="midnightblue" stroke="midnightblue" points="63.75,-96.03 59.06,-86.53 56.81,-96.88 63.75,-96.03"/>
</g>
<!-- Node7&#45;&gt;Node3 -->
<g id="edge10" class="edge">
<title>Node7&#45;&gt;Node3</title>
<path fill="none" stroke="midnightblue" d="M159.06,-190.43C177.09,-181.9 198.47,-169.64 214,-154 230.38,-137.51 242.55,-113.84 250.08,-96.25"/>
<polygon fill="midnightblue" stroke="midnightblue" points="253.44,-97.28 253.97,-86.69 246.96,-94.63 253.44,-97.28"/>
</g>
<!-- Node8 -->
<g id="node8" class="node">
<title>Node8</title>
<g id="a_node8"><a xlink:href="../../d5/dc5/_task_8h.html" target="_top" xlink:title=" ">
<polygon fill="none" stroke="black" points="86.5,-123.5 86.5,-153.5 205.5,-153.5 205.5,-123.5 86.5,-123.5"/>
<text text-anchor="start" x="94.5" y="-141.5" font-family="Helvetica,sans-Serif" font-size="10.00">../../../RTOS/FreeRTOS</text>
<text text-anchor="middle" x="146" y="-130.5" font-family="Helvetica,sans-Serif" font-size="10.00">/include/Task.h</text>
</a>
</g>
</g>
<!-- Node7&#45;&gt;Node8 -->
<g id="edge11" class="edge">
<title>Node7&#45;&gt;Node8</title>
<path fill="none" stroke="midnightblue" d="M128.77,-190.4C131.45,-182.47 134.87,-172.38 137.95,-163.27"/>
<polygon fill="midnightblue" stroke="midnightblue" points="141.34,-164.17 141.24,-153.58 134.71,-161.93 141.34,-164.17"/>
</g>
<!-- Node8&#45;&gt;Node2 -->
<g id="edge12" class="edge">
<title>Node8&#45;&gt;Node2</title>
<path fill="none" stroke="midnightblue" d="M126.91,-123.4C114.68,-114.37 98.63,-102.51 85.1,-92.52"/>
<polygon fill="midnightblue" stroke="midnightblue" points="87.18,-89.7 77.06,-86.58 83.02,-95.33 87.18,-89.7"/>
</g>
<!-- Node8&#45;&gt;Node3 -->
<g id="edge13" class="edge">
<title>Node8&#45;&gt;Node3</title>
<path fill="none" stroke="midnightblue" d="M170.52,-123.4C186.66,-114.11 207.99,-101.84 225.67,-91.67"/>
<polygon fill="midnightblue" stroke="midnightblue" points="227.61,-94.6 234.53,-86.58 224.12,-88.53 227.61,-94.6"/>
</g>
<!-- Node8&#45;&gt;Node4 -->
<g id="edge14" class="edge">
<title>Node8&#45;&gt;Node4</title>
<path fill="none" stroke="midnightblue" d="M149.91,-123.36C154.86,-106.62 164.31,-78.21 177,-56 182.82,-45.81 190.86,-35.52 197.87,-27.35"/>
<polygon fill="midnightblue" stroke="midnightblue" points="200.64,-29.5 204.66,-19.7 195.4,-24.85 200.64,-29.5"/>
</g>
<!-- Node9&#45;&gt;Node2 -->
<g id="edge16" class="edge">
<title>Node9&#45;&gt;Node2</title>
<path fill="none" stroke="midnightblue" d="M300.33,-124.66C250.11,-113.85 178.29,-98.39 125.88,-87.11"/>
<polygon fill="midnightblue" stroke="midnightblue" points="126.52,-83.67 116,-84.98 125.04,-90.51 126.52,-83.67"/>
</g>
<!-- Node9&#45;&gt;Node3 -->
<g id="edge17" class="edge">
<title>Node9&#45;&gt;Node3</title>
<path fill="none" stroke="midnightblue" d="M338.08,-123.4C323.92,-114.28 305.29,-102.29 289.67,-92.24"/>
<polygon fill="midnightblue" stroke="midnightblue" points="291.18,-89.05 280.87,-86.58 287.39,-94.93 291.18,-89.05"/>
</g>
<!-- Node9&#45;&gt;Node5 -->
<g id="edge18" class="edge">
<title>Node9&#45;&gt;Node5</title>
<path fill="none" stroke="midnightblue" d="M358.41,-123.31C356.11,-106.53 350.88,-78.09 340,-56 334.82,-45.48 326.83,-35.15 319.69,-27.05"/>
<polygon fill="midnightblue" stroke="midnightblue" points="322.07,-24.47 312.72,-19.5 316.93,-29.22 322.07,-24.47"/>
</g>
</g>
</svg>
