<?xml version="1.0" encoding="UTF-8" standalone="no"?>
<!DOCTYPE svg PUBLIC "-//W3C//DTD SVG 1.1//EN"
 "http://www.w3.org/Graphics/SVG/1.1/DTD/svg11.dtd">
<!-- Generated by graphviz version 2.43.0 (0)
 -->
<!-- Title: Components/Objects/ErrorHandler/include/ErrorCodeParser.hpp Pages: 1 -->
<!--zoomable 384 -->
<svg id="main" version="1.1" xmlns="http://www.w3.org/2000/svg" xmlns:xlink="http://www.w3.org/1999/xlink" xml:space="preserve" onload="init(evt)">
<style type="text/css"><![CDATA[
.edge:hover path { stroke: red; }
.edge:hover polygon { stroke: red; fill: red; }
]]></style>
<script type="text/javascript"><![CDATA[
var edges = document.getElementsByTagName('g');
if (edges && edges.length) {
  for (var i=0;i<edges.length;i++) {
    if (edges[i].id.substr(0,4)=='edge') {
      edges[i].setAttribute('class','edge');
    }
  }
}
]]></script>
        <defs>
                <circle id="rim" cx="0" cy="0" r="7"/>
                <circle id="rim2" cx="0" cy="0" r="3.5"/>
                <g id="zoomPlus">
                        <use xlink:href="#rim" fill="#404040">
                                <set attributeName="fill" to="#808080" begin="zoomplus.mouseover" end="zoomplus.mouseout"/>
                        </use>
                        <path d="M-4,0h8M0,-4v8" fill="none" stroke="white" stroke-width="1.5" pointer-events="none"/>
                </g>
                <g id="zoomMin">
                        <use xlink:href="#rim" fill="#404040">
                                <set attributeName="fill" to="#808080" begin="zoomminus.mouseover" end="zoomminus.mouseout"/>
                        </use>
                        <path d="M-4,0h8" fill="none" stroke="white" stroke-width="1.5" pointer-events="none"/>
                </g>
                <g id="dirArrow">
                        <path fill="none" stroke="white" stroke-width="1.5" d="M0,-3.0v7 M-2.5,-0.5L0,-3.0L2.5,-0.5"/>
                </g>
               <g id="resetDef">
                       <use xlink:href="#rim2" fill="#404040">
                               <set attributeName="fill" to="#808080" begin="reset.mouseover" end="reset.mouseout"/>
                       </use>
               </g>
        </defs>

<script type="text/javascript">
var viewWidth = 2453;
var viewHeight = 384;
var sectionId = 'dynsection-1';
</script>
<script xlink:href="../../svgpan.js"/>
<svg id="graph" class="graph">
<g id="viewport">
<title>Components/Objects/ErrorHandler/include/ErrorCodeParser.hpp</title>
<!-- Node1 -->
<g id="node1" class="node">
<title>Node1</title>
<g id="a_node1"><a xlink:title=" ">
<polygon fill="#bfbfbf" stroke="black" points="1835.5,-334.5 1835.5,-375.5 1954.5,-375.5 1954.5,-334.5 1835.5,-334.5"/>
<text text-anchor="start" x="1843.5" y="-363.5" font-family="Helvetica,sans-Serif" font-size="10.00">Components/Objects</text>
<text text-anchor="start" x="1843.5" y="-352.5" font-family="Helvetica,sans-Serif" font-size="10.00">/ErrorHandler/include</text>
<text text-anchor="middle" x="1895" y="-341.5" font-family="Helvetica,sans-Serif" font-size="10.00">/ErrorCodeParser.hpp</text>
</a>
</g>
</g>
<!-- Node2 -->
<g id="node2" class="node">
<title>Node2</title>
<g id="a_node2"><a xlink:href="../../d9/d1c/_sensor_controller_base_8hpp.html" target="_top" xlink:title=" ">
<polygon fill="none" stroke="black" points="1724,-178.5 1724,-219.5 1908,-219.5 1908,-178.5 1724,-178.5"/>
<text text-anchor="start" x="1732" y="-207.5" font-family="Helvetica,sans-Serif" font-size="10.00">Components/Interfaces</text>
<text text-anchor="start" x="1732" y="-196.5" font-family="Helvetica,sans-Serif" font-size="10.00">/SensorControllerBase</text>
<text text-anchor="middle" x="1816" y="-185.5" font-family="Helvetica,sans-Serif" font-size="10.00">/include/SensorControllerBase.hpp</text>
</a>
</g>
</g>
<!-- Node1&#45;&gt;Node2 -->
<g id="edge1" class="edge">
<title>Node1&#45;&gt;Node2</title>
<path fill="none" stroke="midnightblue" d="M1840.42,-328.9C1828.64,-320.79 1817.72,-310.56 1811,-298 1797.9,-273.52 1803.51,-240.48 1809.31,-219.71"/>
<polygon fill="midnightblue" stroke="midnightblue" points="1838.78,-332.01 1849.09,-334.44 1842.55,-326.11 1838.78,-332.01"/>
</g>
<!-- Node13 -->
<g id="node13" class="node">
<title>Node13</title>
<g id="a_node13"><a xlink:href="../../d2/dc5/_service_base_8hpp.html" target="_top" xlink:title=" ">
<polygon fill="none" stroke="black" points="976,-256.5 976,-297.5 1106,-297.5 1106,-256.5 976,-256.5"/>
<text text-anchor="start" x="984" y="-285.5" font-family="Helvetica,sans-Serif" font-size="10.00">Components/Interfaces</text>
<text text-anchor="start" x="984" y="-274.5" font-family="Helvetica,sans-Serif" font-size="10.00">/ServiceBase/include</text>
<text text-anchor="middle" x="1041" y="-263.5" font-family="Helvetica,sans-Serif" font-size="10.00">/ServiceBase.hpp</text>
</a>
</g>
</g>
<!-- Node1&#45;&gt;Node13 -->
<g id="edge14" class="edge">
<title>Node1&#45;&gt;Node13</title>
<path fill="none" stroke="midnightblue" d="M1824.96,-347.77C1662.83,-333.34 1263.63,-297.81 1106.27,-283.81"/>
<polygon fill="midnightblue" stroke="midnightblue" points="1825.02,-351.29 1835.29,-348.69 1825.64,-344.31 1825.02,-351.29"/>
</g>
<!-- Node30 -->
<g id="node30" class="node">
<title>Node30</title>
<g id="a_node30"><a xlink:href="../../d2/df5/_error_code_parser_8cpp.html" target="_top" xlink:title=" ">
<polygon fill="none" stroke="black" points="1820.5,-256.5 1820.5,-297.5 1969.5,-297.5 1969.5,-256.5 1820.5,-256.5"/>
<text text-anchor="start" x="1828.5" y="-285.5" font-family="Helvetica,sans-Serif" font-size="10.00">Components/Objects</text>
<text text-anchor="start" x="1828.5" y="-274.5" font-family="Helvetica,sans-Serif" font-size="10.00">/ErrorHandler/src/ErrorCode</text>
<text text-anchor="middle" x="1895" y="-263.5" font-family="Helvetica,sans-Serif" font-size="10.00">Parser.cpp</text>
</a>
</g>
</g>
<!-- Node1&#45;&gt;Node30 -->
<g id="edge33" class="edge">
<title>Node1&#45;&gt;Node30</title>
<path fill="none" stroke="midnightblue" d="M1895,-324.3C1895,-315.3 1895,-305.65 1895,-297.51"/>
<polygon fill="midnightblue" stroke="midnightblue" points="1891.5,-324.43 1895,-334.43 1898.5,-324.43 1891.5,-324.43"/>
</g>
<!-- Node31 -->
<g id="node31" class="node">
<title>Node31</title>
<g id="a_node31"><a xlink:href="../../d9/db8/_error_code_parser__test_8cpp.html" target="_top" xlink:title=" ">
<polygon fill="none" stroke="black" points="1988,-256.5 1988,-297.5 2130,-297.5 2130,-256.5 1988,-256.5"/>
<text text-anchor="start" x="1996" y="-285.5" font-family="Helvetica,sans-Serif" font-size="10.00">Components/Objects</text>
<text text-anchor="start" x="1996" y="-274.5" font-family="Helvetica,sans-Serif" font-size="10.00">/ErrorHandler/test/test</text>
<text text-anchor="middle" x="2059" y="-263.5" font-family="Helvetica,sans-Serif" font-size="10.00">/ErrorCodeParser_test.cpp</text>
</a>
</g>
</g>
<!-- Node1&#45;&gt;Node31 -->
<g id="edge34" class="edge">
<title>Node1&#45;&gt;Node31</title>
<path fill="none" stroke="midnightblue" d="M1946.38,-330.19C1969.07,-319.67 1995.41,-307.47 2016.91,-297.51"/>
<polygon fill="midnightblue" stroke="midnightblue" points="1944.84,-327.05 1937.23,-334.43 1947.78,-333.4 1944.84,-327.05"/>
</g>
<!-- Node32 -->
<g id="node32" class="node">
<title>Node32</title>
<g id="a_node32"><a xlink:href="../../d0/d6a/_maintainer_8hpp.html" target="_top" xlink:title=" ">
<polygon fill="none" stroke="black" points="2148,-256.5 2148,-297.5 2266,-297.5 2266,-256.5 2148,-256.5"/>
<text text-anchor="start" x="2156" y="-285.5" font-family="Helvetica,sans-Serif" font-size="10.00">Components/Objects</text>
<text text-anchor="start" x="2156" y="-274.5" font-family="Helvetica,sans-Serif" font-size="10.00">/Maintainer/include</text>
<text text-anchor="middle" x="2207" y="-263.5" font-family="Helvetica,sans-Serif" font-size="10.00">/Maintainer.hpp</text>
</a>
</g>
</g>
<!-- Node1&#45;&gt;Node32 -->
<g id="edge35" class="edge">
<title>Node1&#45;&gt;Node32</title>
<path fill="none" stroke="midnightblue" d="M1964.76,-339.16C2013.71,-328.47 2080.58,-313.28 2139,-298 2141.86,-297.25 2144.78,-296.47 2147.72,-295.66"/>
<polygon fill="midnightblue" stroke="midnightblue" points="1963.94,-335.76 1954.91,-341.31 1965.43,-342.6 1963.94,-335.76"/>
</g>
<!-- Node3 -->
<g id="node3" class="node">
<title>Node3</title>
<g id="a_node3"><a xlink:href="../../db/d12/_distance_sensor_controller_8hpp.html" target="_top" xlink:title=" ">
<polygon fill="none" stroke="black" points="1538,-95 1538,-136 1740,-136 1740,-95 1538,-95"/>
<text text-anchor="start" x="1546" y="-124" font-family="Helvetica,sans-Serif" font-size="10.00">Components/Controller</text>
<text text-anchor="start" x="1546" y="-113" font-family="Helvetica,sans-Serif" font-size="10.00">/DistanceSensorController</text>
<text text-anchor="middle" x="1639" y="-102" font-family="Helvetica,sans-Serif" font-size="10.00">/include/DistanceSensorController.hpp</text>
</a>
</g>
</g>
<!-- Node2&#45;&gt;Node3 -->
<g id="edge2" class="edge">
<title>Node2&#45;&gt;Node3</title>
<path fill="none" stroke="midnightblue" d="M1764.51,-174.29C1738.1,-162.13 1706.33,-147.5 1681.36,-136"/>
<polygon fill="midnightblue" stroke="midnightblue" points="1763.06,-177.48 1773.6,-178.48 1765.98,-171.12 1763.06,-177.48"/>
</g>
<!-- Node7 -->
<g id="node7" class="node">
<title>Node7</title>
<g id="a_node7"><a xlink:href="../../d2/d8d/_sensor_controller_base_8cpp.html" target="_top" xlink:title=" ">
<polygon fill="none" stroke="black" points="1758,-95 1758,-136 1920,-136 1920,-95 1758,-95"/>
<text text-anchor="start" x="1766" y="-124" font-family="Helvetica,sans-Serif" font-size="10.00">Components/Interfaces</text>
<text text-anchor="start" x="1766" y="-113" font-family="Helvetica,sans-Serif" font-size="10.00">/SensorControllerBase</text>
<text text-anchor="middle" x="1839" y="-102" font-family="Helvetica,sans-Serif" font-size="10.00">/src/SensorControllerBase.cpp</text>
</a>
</g>
</g>
<!-- Node2&#45;&gt;Node7 -->
<g id="edge6" class="edge">
<title>Node2&#45;&gt;Node7</title>
<path fill="none" stroke="midnightblue" d="M1824.35,-168.4C1827.39,-157.63 1830.75,-145.73 1833.48,-136.05"/>
<polygon fill="midnightblue" stroke="midnightblue" points="1820.92,-167.7 1821.57,-178.27 1827.65,-169.6 1820.92,-167.7"/>
</g>
<!-- Node8 -->
<g id="node8" class="node">
<title>Node8</title>
<g id="a_node8"><a xlink:href="../../db/dc2/_sensor_controller_base___m_o_c_k_8hpp.html" target="_top" xlink:title=" ">
<polygon fill="none" stroke="black" points="1952,-89.5 1952,-141.5 2128,-141.5 2128,-89.5 1952,-89.5"/>
<text text-anchor="start" x="1960" y="-129.5" font-family="Helvetica,sans-Serif" font-size="10.00">Components/Interfaces</text>
<text text-anchor="start" x="1960" y="-118.5" font-family="Helvetica,sans-Serif" font-size="10.00">/SensorControllerBase</text>
<text text-anchor="start" x="1960" y="-107.5" font-family="Helvetica,sans-Serif" font-size="10.00">/test/mock/SensorControllerBase</text>
<text text-anchor="middle" x="2040" y="-96.5" font-family="Helvetica,sans-Serif" font-size="10.00">_MOCK.hpp</text>
</a>
</g>
</g>
<!-- Node2&#45;&gt;Node8 -->
<g id="edge7" class="edge">
<title>Node2&#45;&gt;Node8</title>
<path fill="none" stroke="midnightblue" d="M1879.15,-175.02C1907.81,-164.6 1941.76,-152.24 1971.08,-141.58"/>
<polygon fill="midnightblue" stroke="midnightblue" points="1877.85,-171.77 1869.65,-178.48 1880.25,-178.35 1877.85,-171.77"/>
</g>
<!-- Node10 -->
<g id="node10" class="node">
<title>Node10</title>
<g id="a_node10"><a xlink:href="../../d8/d19/_sensor_controller_test_8cpp.html" target="_top" xlink:title=" ">
<polygon fill="none" stroke="black" points="2146,-6 2146,-47 2330,-47 2330,-6 2146,-6"/>
<text text-anchor="start" x="2154" y="-35" font-family="Helvetica,sans-Serif" font-size="10.00">Components/Interfaces</text>
<text text-anchor="start" x="2154" y="-24" font-family="Helvetica,sans-Serif" font-size="10.00">/SensorControllerBase</text>
<text text-anchor="middle" x="2238" y="-13" font-family="Helvetica,sans-Serif" font-size="10.00">/test/test/SensorControllerTest.cpp</text>
</a>
</g>
</g>
<!-- Node2&#45;&gt;Node10 -->
<g id="edge10" class="edge">
<title>Node2&#45;&gt;Node10</title>
<path fill="none" stroke="midnightblue" d="M1918.16,-183.64C2004.78,-170.89 2117.92,-152.68 2137,-142 2177.71,-119.21 2210.18,-73.64 2226.5,-47.38"/>
<polygon fill="midnightblue" stroke="midnightblue" points="1917.39,-180.21 1908.01,-185.12 1918.41,-187.14 1917.39,-180.21"/>
</g>
<!-- Node11 -->
<g id="node11" class="node">
<title>Node11</title>
<g id="a_node11"><a xlink:href="../../d0/dc1/_data_broker_8hpp.html" target="_top" xlink:title=" ">
<polygon fill="none" stroke="black" points="1326,-95 1326,-136 1444,-136 1444,-95 1326,-95"/>
<text text-anchor="start" x="1334" y="-124" font-family="Helvetica,sans-Serif" font-size="10.00">Components/Objects</text>
<text text-anchor="start" x="1334" y="-113" font-family="Helvetica,sans-Serif" font-size="10.00">/DataBroker/include</text>
<text text-anchor="middle" x="1385" y="-102" font-family="Helvetica,sans-Serif" font-size="10.00">/DataBroker.hpp</text>
</a>
</g>
</g>
<!-- Node2&#45;&gt;Node11 -->
<g id="edge11" class="edge">
<title>Node2&#45;&gt;Node11</title>
<path fill="none" stroke="midnightblue" d="M1713.72,-178.66C1629.72,-162.78 1513.65,-140.83 1444.28,-127.71"/>
<polygon fill="midnightblue" stroke="midnightblue" points="1713.33,-182.15 1723.8,-180.57 1714.63,-175.27 1713.33,-182.15"/>
</g>
<!-- Node4 -->
<g id="node4" class="node">
<title>Node4</title>
<g id="a_node4"><a xlink:href="../../dd/dde/_distance_sensor_controller_8cpp.html" target="_top" xlink:title=" ">
<polygon fill="none" stroke="black" points="1549,-6 1549,-47 1729,-47 1729,-6 1549,-6"/>
<text text-anchor="start" x="1557" y="-35" font-family="Helvetica,sans-Serif" font-size="10.00">Components/Controller</text>
<text text-anchor="start" x="1557" y="-24" font-family="Helvetica,sans-Serif" font-size="10.00">/DistanceSensorController</text>
<text text-anchor="middle" x="1639" y="-13" font-family="Helvetica,sans-Serif" font-size="10.00">/src/DistanceSensorController.cpp</text>
</a>
</g>
</g>
<!-- Node3&#45;&gt;Node4 -->
<g id="edge3" class="edge">
<title>Node3&#45;&gt;Node4</title>
<path fill="none" stroke="midnightblue" d="M1639,-84.44C1639,-72.1 1639,-58.16 1639,-47.16"/>
<polygon fill="midnightblue" stroke="midnightblue" points="1635.5,-84.76 1639,-94.76 1642.5,-84.76 1635.5,-84.76"/>
</g>
<!-- Node5 -->
<g id="node5" class="node">
<title>Node5</title>
<g id="a_node5"><a xlink:href="../../d7/d91/_distance_sensor_controller__test_8cpp.html" target="_top" xlink:title=" ">
<polygon fill="none" stroke="black" points="1747.5,-0.5 1747.5,-52.5 1934.5,-52.5 1934.5,-0.5 1747.5,-0.5"/>
<text text-anchor="start" x="1755.5" y="-40.5" font-family="Helvetica,sans-Serif" font-size="10.00">Components/Controller</text>
<text text-anchor="start" x="1755.5" y="-29.5" font-family="Helvetica,sans-Serif" font-size="10.00">/DistanceSensorController</text>
<text text-anchor="start" x="1755.5" y="-18.5" font-family="Helvetica,sans-Serif" font-size="10.00">/test/test/DistanceSensorController</text>
<text text-anchor="middle" x="1841" y="-7.5" font-family="Helvetica,sans-Serif" font-size="10.00">_test.cpp</text>
</a>
</g>
</g>
<!-- Node3&#45;&gt;Node5 -->
<g id="edge4" class="edge">
<title>Node3&#45;&gt;Node5</title>
<path fill="none" stroke="midnightblue" d="M1693.81,-90.89C1721.36,-79.03 1754.75,-64.65 1782.76,-52.58"/>
<polygon fill="midnightblue" stroke="midnightblue" points="1692.13,-87.81 1684.33,-94.98 1694.9,-94.23 1692.13,-87.81"/>
</g>
<!-- Node6 -->
<g id="node6" class="node">
<title>Node6</title>
<g id="a_node6"><a xlink:href="../../da/d75/_data_broker__test_8cpp.html" target="_top" xlink:title=" ">
<polygon fill="none" stroke="black" points="1411.5,-6 1411.5,-47 1530.5,-47 1530.5,-6 1411.5,-6"/>
<text text-anchor="start" x="1419.5" y="-35" font-family="Helvetica,sans-Serif" font-size="10.00">Components/Objects</text>
<text text-anchor="start" x="1419.5" y="-24" font-family="Helvetica,sans-Serif" font-size="10.00">/DataBroker/test/test</text>
<text text-anchor="middle" x="1471" y="-13" font-family="Helvetica,sans-Serif" font-size="10.00">/DataBroker_test.cpp</text>
</a>
</g>
</g>
<!-- Node3&#45;&gt;Node6 -->
<g id="edge5" class="edge">
<title>Node3&#45;&gt;Node6</title>
<path fill="none" stroke="midnightblue" d="M1592.27,-90.3C1565.98,-76.68 1533.56,-59.9 1508.87,-47.11"/>
<polygon fill="midnightblue" stroke="midnightblue" points="1590.81,-93.48 1601.3,-94.98 1594.03,-87.27 1590.81,-93.48"/>
</g>
<!-- Node9 -->
<g id="node9" class="node">
<title>Node9</title>
<g id="a_node9"><a xlink:href="../../dc/d0f/_sensor_controller_base___m_o_c_k_8cpp.html" target="_top" xlink:title=" ">
<polygon fill="none" stroke="black" points="1952,-0.5 1952,-52.5 2128,-52.5 2128,-0.5 1952,-0.5"/>
<text text-anchor="start" x="1960" y="-40.5" font-family="Helvetica,sans-Serif" font-size="10.00">Components/Interfaces</text>
<text text-anchor="start" x="1960" y="-29.5" font-family="Helvetica,sans-Serif" font-size="10.00">/SensorControllerBase</text>
<text text-anchor="start" x="1960" y="-18.5" font-family="Helvetica,sans-Serif" font-size="10.00">/test/mock/SensorControllerBase</text>
<text text-anchor="middle" x="2040" y="-7.5" font-family="Helvetica,sans-Serif" font-size="10.00">_MOCK.cpp</text>
</a>
</g>
</g>
<!-- Node8&#45;&gt;Node9 -->
<g id="edge8" class="edge">
<title>Node8&#45;&gt;Node9</title>
<path fill="none" stroke="midnightblue" d="M2040,-79.19C2040,-70.28 2040,-60.9 2040,-52.61"/>
<polygon fill="midnightblue" stroke="midnightblue" points="2036.5,-79.34 2040,-89.34 2043.5,-79.34 2036.5,-79.34"/>
</g>
<!-- Node8&#45;&gt;Node10 -->
<g id="edge9" class="edge">
<title>Node8&#45;&gt;Node10</title>
<path fill="none" stroke="midnightblue" d="M2106.52,-85.27C2135.09,-72.72 2167.71,-58.38 2193.32,-47.13"/>
<polygon fill="midnightblue" stroke="midnightblue" points="2104.75,-82.23 2097,-89.45 2107.57,-88.63 2104.75,-82.23"/>
</g>
<!-- Node11&#45;&gt;Node6 -->
<g id="edge13" class="edge">
<title>Node11&#45;&gt;Node6</title>
<path fill="none" stroke="midnightblue" d="M1411.79,-87.4C1424.67,-74.37 1439.81,-59.05 1451.56,-47.16"/>
<polygon fill="midnightblue" stroke="midnightblue" points="1409.06,-85.19 1404.51,-94.76 1414.03,-90.11 1409.06,-85.19"/>
</g>
<!-- Node12 -->
<g id="node12" class="node">
<title>Node12</title>
<g id="a_node12"><a xlink:href="../../d4/ddc/_data_broker_8cpp.html" target="_top" xlink:title=" ">
<polygon fill="none" stroke="black" points="1224.5,-11.5 1224.5,-41.5 1393.5,-41.5 1393.5,-11.5 1224.5,-11.5"/>
<text text-anchor="start" x="1232.5" y="-29.5" font-family="Helvetica,sans-Serif" font-size="10.00">Components/Objects</text>
<text text-anchor="middle" x="1309" y="-18.5" font-family="Helvetica,sans-Serif" font-size="10.00">/DataBroker/src/DataBroker.cpp</text>
</a>
</g>
</g>
<!-- Node11&#45;&gt;Node12 -->
<g id="edge12" class="edge">
<title>Node11&#45;&gt;Node12</title>
<path fill="none" stroke="midnightblue" d="M1361.15,-87.2C1347.99,-72.13 1332.18,-54.03 1321.44,-41.74"/>
<polygon fill="midnightblue" stroke="midnightblue" points="1358.54,-89.53 1367.75,-94.76 1363.81,-84.92 1358.54,-89.53"/>
</g>
<!-- Node14 -->
<g id="node14" class="node">
<title>Node14</title>
<g id="a_node14"><a xlink:href="../../d2/dd8/_service_queue_base_8hpp.html" target="_top" xlink:title=" ">
<polygon fill="none" stroke="black" points="975,-178.5 975,-219.5 1107,-219.5 1107,-178.5 975,-178.5"/>
<text text-anchor="start" x="983" y="-207.5" font-family="Helvetica,sans-Serif" font-size="10.00">Components/Interfaces</text>
<text text-anchor="start" x="983" y="-196.5" font-family="Helvetica,sans-Serif" font-size="10.00">/ServiceBase/include</text>
<text text-anchor="middle" x="1041" y="-185.5" font-family="Helvetica,sans-Serif" font-size="10.00">/ServiceQueueBase.hpp</text>
</a>
</g>
</g>
<!-- Node13&#45;&gt;Node14 -->
<g id="edge15" class="edge">
<title>Node13&#45;&gt;Node14</title>
<path fill="none" stroke="midnightblue" d="M1041,-246.3C1041,-237.3 1041,-227.65 1041,-219.51"/>
<polygon fill="midnightblue" stroke="midnightblue" points="1037.5,-246.43 1041,-256.43 1044.5,-246.43 1037.5,-246.43"/>
</g>
<!-- Node21 -->
<g id="node21" class="node">
<title>Node21</title>
<g id="a_node21"><a xlink:href="../../d8/deb/_service_time_base_8hpp.html" target="_top" xlink:title=" ">
<polygon fill="none" stroke="black" points="481,-178.5 481,-219.5 611,-219.5 611,-178.5 481,-178.5"/>
<text text-anchor="start" x="489" y="-207.5" font-family="Helvetica,sans-Serif" font-size="10.00">Components/Interfaces</text>
<text text-anchor="start" x="489" y="-196.5" font-family="Helvetica,sans-Serif" font-size="10.00">/ServiceBase/include</text>
<text text-anchor="middle" x="546" y="-185.5" font-family="Helvetica,sans-Serif" font-size="10.00">/ServiceTimeBase.hpp</text>
</a>
</g>
</g>
<!-- Node13&#45;&gt;Node21 -->
<g id="edge23" class="edge">
<title>Node13&#45;&gt;Node21</title>
<path fill="none" stroke="midnightblue" d="M965.79,-264.45C869.15,-249.62 702.98,-224.1 611.37,-210.04"/>
<polygon fill="midnightblue" stroke="midnightblue" points="965.36,-267.93 975.78,-265.99 966.43,-261.01 965.36,-267.93"/>
</g>
<!-- Node14&#45;&gt;Node11 -->
<g id="edge17" class="edge">
<title>Node14&#45;&gt;Node11</title>
<path fill="none" stroke="midnightblue" d="M1117.2,-179.95C1180.08,-165.05 1268.06,-144.2 1325.77,-130.53"/>
<polygon fill="midnightblue" stroke="midnightblue" points="1116.25,-176.57 1107.33,-182.29 1117.86,-183.39 1116.25,-176.57"/>
</g>
<!-- Node15 -->
<g id="node15" class="node">
<title>Node15</title>
<g id="a_node15"><a xlink:href="../../dc/d1d/_service__test_8cpp.html" target="_top" xlink:title=" ">
<polygon fill="none" stroke="black" points="661,-95 661,-136 791,-136 791,-95 661,-95"/>
<text text-anchor="start" x="669" y="-124" font-family="Helvetica,sans-Serif" font-size="10.00">Components/Interfaces</text>
<text text-anchor="start" x="669" y="-113" font-family="Helvetica,sans-Serif" font-size="10.00">/ServiceBase/test/test</text>
<text text-anchor="middle" x="726" y="-102" font-family="Helvetica,sans-Serif" font-size="10.00">/Service_test.cpp</text>
</a>
</g>
</g>
<!-- Node14&#45;&gt;Node15 -->
<g id="edge16" class="edge">
<title>Node14&#45;&gt;Node15</title>
<path fill="none" stroke="midnightblue" d="M965.25,-178.4C912.1,-164.65 841.77,-146.45 791.14,-133.35"/>
<polygon fill="midnightblue" stroke="midnightblue" points="964.41,-181.8 974.97,-180.91 966.16,-175.02 964.41,-181.8"/>
</g>
<!-- Node16 -->
<g id="node16" class="node">
<title>Node16</title>
<g id="a_node16"><a xlink:href="../../d2/d1e/_online_detector__service_8hpp.html" target="_top" xlink:title=" ">
<polygon fill="none" stroke="black" points="875.5,-95 875.5,-136 1030.5,-136 1030.5,-95 875.5,-95"/>
<text text-anchor="start" x="883.5" y="-124" font-family="Helvetica,sans-Serif" font-size="10.00">Components/Service</text>
<text text-anchor="start" x="883.5" y="-113" font-family="Helvetica,sans-Serif" font-size="10.00">/OnlineDetector/include</text>
<text text-anchor="middle" x="953" y="-102" font-family="Helvetica,sans-Serif" font-size="10.00">/OnlineDetector_service.hpp</text>
</a>
</g>
</g>
<!-- Node14&#45;&gt;Node16 -->
<g id="edge18" class="edge">
<title>Node14&#45;&gt;Node16</title>
<path fill="none" stroke="midnightblue" d="M1012.24,-171.36C999.81,-159.85 985.53,-146.63 974.11,-136.05"/>
<polygon fill="midnightblue" stroke="midnightblue" points="1009.98,-174.04 1019.7,-178.27 1014.74,-168.91 1009.98,-174.04"/>
</g>
<!-- Node19 -->
<g id="node19" class="node">
<title>Node19</title>
<g id="a_node19"><a xlink:href="../../dd/d22/_water_estimator___service_8hpp.html" target="_top" xlink:title=" ">
<polygon fill="none" stroke="black" points="1049,-95 1049,-136 1207,-136 1207,-95 1049,-95"/>
<text text-anchor="start" x="1057" y="-124" font-family="Helvetica,sans-Serif" font-size="10.00">Components/Service</text>
<text text-anchor="start" x="1057" y="-113" font-family="Helvetica,sans-Serif" font-size="10.00">/WaterEstimator/include</text>
<text text-anchor="middle" x="1128" y="-102" font-family="Helvetica,sans-Serif" font-size="10.00">/WaterEstimator_Service.hpp</text>
</a>
</g>
</g>
<!-- Node14&#45;&gt;Node19 -->
<g id="edge21" class="edge">
<title>Node14&#45;&gt;Node19</title>
<path fill="none" stroke="midnightblue" d="M1069.43,-171.36C1081.72,-159.85 1095.84,-146.63 1107.13,-136.05"/>
<polygon fill="midnightblue" stroke="midnightblue" points="1066.97,-168.88 1062.06,-178.27 1071.75,-173.99 1066.97,-168.88"/>
</g>
<!-- Node17 -->
<g id="node17" class="node">
<title>Node17</title>
<g id="a_node17"><a xlink:href="../../d7/d24/_online_detector__service_8cpp.html" target="_top" xlink:title=" ">
<polygon fill="none" stroke="black" points="740,-6 740,-47 894,-47 894,-6 740,-6"/>
<text text-anchor="start" x="748" y="-35" font-family="Helvetica,sans-Serif" font-size="10.00">Components/Service</text>
<text text-anchor="start" x="748" y="-24" font-family="Helvetica,sans-Serif" font-size="10.00">/OnlineDetector/src</text>
<text text-anchor="middle" x="817" y="-13" font-family="Helvetica,sans-Serif" font-size="10.00">/OnlineDetector_service.cpp</text>
</a>
</g>
</g>
<!-- Node16&#45;&gt;Node17 -->
<g id="edge19" class="edge">
<title>Node16&#45;&gt;Node17</title>
<path fill="none" stroke="midnightblue" d="M913.8,-89.43C892.85,-76.02 867.43,-59.76 847.89,-47.26"/>
<polygon fill="midnightblue" stroke="midnightblue" points="912.17,-92.54 922.48,-94.98 915.94,-86.64 912.17,-92.54"/>
</g>
<!-- Node18 -->
<g id="node18" class="node">
<title>Node18</title>
<g id="a_node18"><a xlink:href="../../db/df8/_service_2_online_detector_2test_2test_2simple__test_8cpp.html" target="_top" xlink:title=" ">
<polygon fill="none" stroke="black" points="912.5,-6 912.5,-47 1031.5,-47 1031.5,-6 912.5,-6"/>
<text text-anchor="start" x="920.5" y="-35" font-family="Helvetica,sans-Serif" font-size="10.00">Components/Service</text>
<text text-anchor="start" x="920.5" y="-24" font-family="Helvetica,sans-Serif" font-size="10.00">/OnlineDetector/test</text>
<text text-anchor="middle" x="972" y="-13" font-family="Helvetica,sans-Serif" font-size="10.00">/test/simple_test.cpp</text>
</a>
</g>
</g>
<!-- Node16&#45;&gt;Node18 -->
<g id="edge20" class="edge">
<title>Node16&#45;&gt;Node18</title>
<path fill="none" stroke="midnightblue" d="M959.48,-84.81C962.2,-72.38 965.28,-58.27 967.71,-47.16"/>
<polygon fill="midnightblue" stroke="midnightblue" points="956.03,-84.24 957.31,-94.76 962.86,-85.74 956.03,-84.24"/>
</g>
<!-- Node20 -->
<g id="node20" class="node">
<title>Node20</title>
<g id="a_node20"><a xlink:href="../../dd/dd3/_water_estimator___service_8cpp.html" target="_top" xlink:title=" ">
<polygon fill="none" stroke="black" points="1049.5,-6 1049.5,-47 1206.5,-47 1206.5,-6 1049.5,-6"/>
<text text-anchor="start" x="1057.5" y="-35" font-family="Helvetica,sans-Serif" font-size="10.00">Components/Service</text>
<text text-anchor="start" x="1057.5" y="-24" font-family="Helvetica,sans-Serif" font-size="10.00">/WaterEstimator/src</text>
<text text-anchor="middle" x="1128" y="-13" font-family="Helvetica,sans-Serif" font-size="10.00">/WaterEstimator_Service.cpp</text>
</a>
</g>
</g>
<!-- Node19&#45;&gt;Node20 -->
<g id="edge22" class="edge">
<title>Node19&#45;&gt;Node20</title>
<path fill="none" stroke="midnightblue" d="M1128,-84.44C1128,-72.1 1128,-58.16 1128,-47.16"/>
<polygon fill="midnightblue" stroke="midnightblue" points="1124.5,-84.76 1128,-94.76 1131.5,-84.76 1124.5,-84.76"/>
</g>
<!-- Node21&#45;&gt;Node15 -->
<g id="edge24" class="edge">
<title>Node21&#45;&gt;Node15</title>
<path fill="none" stroke="midnightblue" d="M598.37,-174.29C625.22,-162.13 657.53,-147.5 682.93,-136"/>
<polygon fill="midnightblue" stroke="midnightblue" points="596.78,-171.17 589.11,-178.48 599.67,-177.54 596.78,-171.17"/>
</g>
<!-- Node22 -->
<g id="node22" class="node">
<title>Node22</title>
<g id="a_node22"><a xlink:href="../../d4/d65/_aktiv_mus__service_8hpp.html" target="_top" xlink:title=" ">
<polygon fill="none" stroke="black" points="136.5,-95 136.5,-136 273.5,-136 273.5,-95 136.5,-95"/>
<text text-anchor="start" x="144.5" y="-124" font-family="Helvetica,sans-Serif" font-size="10.00">Components/Service</text>
<text text-anchor="start" x="144.5" y="-113" font-family="Helvetica,sans-Serif" font-size="10.00">/AktivMusSimple/include</text>
<text text-anchor="middle" x="205" y="-102" font-family="Helvetica,sans-Serif" font-size="10.00">/AktivMus_service.hpp</text>
</a>
</g>
</g>
<!-- Node21&#45;&gt;Node22 -->
<g id="edge25" class="edge">
<title>Node21&#45;&gt;Node22</title>
<path fill="none" stroke="midnightblue" d="M470.99,-181.71C422.17,-170.91 357.17,-156.18 300,-142 291.46,-139.88 282.52,-137.59 273.67,-135.27"/>
<polygon fill="midnightblue" stroke="midnightblue" points="470.32,-185.14 480.84,-183.88 471.83,-178.31 470.32,-185.14"/>
</g>
<!-- Node25 -->
<g id="node25" class="node">
<title>Node25</title>
<g id="a_node25"><a xlink:href="../../d6/d72/_env_sensing__service_8hpp.html" target="_top" xlink:title=" ">
<polygon fill="none" stroke="black" points="309.5,-95 309.5,-136 446.5,-136 446.5,-95 309.5,-95"/>
<text text-anchor="start" x="317.5" y="-124" font-family="Helvetica,sans-Serif" font-size="10.00">Components/Service</text>
<text text-anchor="start" x="317.5" y="-113" font-family="Helvetica,sans-Serif" font-size="10.00">/EnvSensing/include</text>
<text text-anchor="middle" x="378" y="-102" font-family="Helvetica,sans-Serif" font-size="10.00">/EnvSensing_service.hpp</text>
</a>
</g>
</g>
<!-- Node21&#45;&gt;Node25 -->
<g id="edge28" class="edge">
<title>Node21&#45;&gt;Node25</title>
<path fill="none" stroke="midnightblue" d="M496.47,-173.97C471.53,-161.87 441.69,-147.4 418.2,-136"/>
<polygon fill="midnightblue" stroke="midnightblue" points="495.23,-177.26 505.76,-178.48 498.29,-170.96 495.23,-177.26"/>
</g>
<!-- Node27 -->
<g id="node27" class="node">
<title>Node27</title>
<g id="a_node27"><a xlink:href="../../df/d40/is_alive__service_8hpp.html" target="_top" xlink:title=" ">
<polygon fill="none" stroke="black" points="482.5,-95 482.5,-136 609.5,-136 609.5,-95 482.5,-95"/>
<text text-anchor="start" x="490.5" y="-124" font-family="Helvetica,sans-Serif" font-size="10.00">Components/Service</text>
<text text-anchor="start" x="490.5" y="-113" font-family="Helvetica,sans-Serif" font-size="10.00">/isAlive/include/isAlive</text>
<text text-anchor="middle" x="546" y="-102" font-family="Helvetica,sans-Serif" font-size="10.00">_service.hpp</text>
</a>
</g>
</g>
<!-- Node21&#45;&gt;Node27 -->
<g id="edge30" class="edge">
<title>Node21&#45;&gt;Node27</title>
<path fill="none" stroke="midnightblue" d="M546,-168.06C546,-157.38 546,-145.63 546,-136.05"/>
<polygon fill="midnightblue" stroke="midnightblue" points="542.5,-168.27 546,-178.27 549.5,-168.27 542.5,-168.27"/>
</g>
<!-- Node23 -->
<g id="node23" class="node">
<title>Node23</title>
<g id="a_node23"><a xlink:href="../../d7/db5/_aktiv_mus__service_8cpp.html" target="_top" xlink:title=" ">
<polygon fill="none" stroke="black" points="0,-6 0,-47 126,-47 126,-6 0,-6"/>
<text text-anchor="start" x="8" y="-35" font-family="Helvetica,sans-Serif" font-size="10.00">Components/Service</text>
<text text-anchor="start" x="8" y="-24" font-family="Helvetica,sans-Serif" font-size="10.00">/AktivMusSimple/src</text>
<text text-anchor="middle" x="63" y="-13" font-family="Helvetica,sans-Serif" font-size="10.00">/AktivMus_service.cpp</text>
</a>
</g>
</g>
<!-- Node22&#45;&gt;Node23 -->
<g id="edge26" class="edge">
<title>Node22&#45;&gt;Node23</title>
<path fill="none" stroke="midnightblue" d="M164.37,-89.61C142.44,-76.17 115.74,-59.81 95.25,-47.26"/>
<polygon fill="midnightblue" stroke="midnightblue" points="162.78,-92.74 173.13,-94.98 166.43,-86.77 162.78,-92.74"/>
</g>
<!-- Node24 -->
<g id="node24" class="node">
<title>Node24</title>
<g id="a_node24"><a xlink:href="../../d9/df0/_service_2_aktiv_mus_simple_2test_2test_2simple__test_8cpp.html" target="_top" xlink:title=" ">
<polygon fill="none" stroke="black" points="144.5,-6 144.5,-47 265.5,-47 265.5,-6 144.5,-6"/>
<text text-anchor="start" x="152.5" y="-35" font-family="Helvetica,sans-Serif" font-size="10.00">Components/Service</text>
<text text-anchor="start" x="152.5" y="-24" font-family="Helvetica,sans-Serif" font-size="10.00">/AktivMusSimple/test</text>
<text text-anchor="middle" x="205" y="-13" font-family="Helvetica,sans-Serif" font-size="10.00">/test/simple_test.cpp</text>
</a>
</g>
</g>
<!-- Node22&#45;&gt;Node24 -->
<g id="edge27" class="edge">
<title>Node22&#45;&gt;Node24</title>
<path fill="none" stroke="midnightblue" d="M205,-84.44C205,-72.1 205,-58.16 205,-47.16"/>
<polygon fill="midnightblue" stroke="midnightblue" points="201.5,-84.76 205,-94.76 208.5,-84.76 201.5,-84.76"/>
</g>
<!-- Node26 -->
<g id="node26" class="node">
<title>Node26</title>
<g id="a_node26"><a xlink:href="../../d8/d34/_env_sensing__service_8cpp.html" target="_top" xlink:title=" ">
<polygon fill="none" stroke="black" points="284,-6 284,-47 436,-47 436,-6 284,-6"/>
<text text-anchor="start" x="292" y="-35" font-family="Helvetica,sans-Serif" font-size="10.00">Components/Service</text>
<text text-anchor="start" x="292" y="-24" font-family="Helvetica,sans-Serif" font-size="10.00">/EnvSensing/src/EnvSensing</text>
<text text-anchor="middle" x="360" y="-13" font-family="Helvetica,sans-Serif" font-size="10.00">_service.cpp</text>
</a>
</g>
</g>
<!-- Node25&#45;&gt;Node26 -->
<g id="edge29" class="edge">
<title>Node25&#45;&gt;Node26</title>
<path fill="none" stroke="midnightblue" d="M371.86,-84.81C369.29,-72.38 366.37,-58.27 364.07,-47.16"/>
<polygon fill="midnightblue" stroke="midnightblue" points="368.46,-85.67 373.92,-94.76 375.32,-84.26 368.46,-85.67"/>
</g>
<!-- Node28 -->
<g id="node28" class="node">
<title>Node28</title>
<g id="a_node28"><a xlink:href="../../de/da1/is_alive__service_8cpp.html" target="_top" xlink:title=" ">
<polygon fill="none" stroke="black" points="454.5,-6 454.5,-47 571.5,-47 571.5,-6 454.5,-6"/>
<text text-anchor="start" x="462.5" y="-35" font-family="Helvetica,sans-Serif" font-size="10.00">Components/Service</text>
<text text-anchor="start" x="462.5" y="-24" font-family="Helvetica,sans-Serif" font-size="10.00">/isAlive/src/isAlive</text>
<text text-anchor="middle" x="513" y="-13" font-family="Helvetica,sans-Serif" font-size="10.00">_service.cpp</text>
</a>
</g>
</g>
<!-- Node27&#45;&gt;Node28 -->
<g id="edge31" class="edge">
<title>Node27&#45;&gt;Node28</title>
<path fill="none" stroke="midnightblue" d="M534.88,-85.19C530.13,-72.67 524.71,-58.38 520.46,-47.16"/>
<polygon fill="midnightblue" stroke="midnightblue" points="531.69,-86.65 538.51,-94.76 538.24,-84.17 531.69,-86.65"/>
</g>
<!-- Node29 -->
<g id="node29" class="node">
<title>Node29</title>
<g id="a_node29"><a xlink:href="../../d4/d60/_service_2is_alive_2test_2test_2simple__test_8cpp.html" target="_top" xlink:title=" ">
<polygon fill="none" stroke="black" points="590,-6 590,-47 722,-47 722,-6 590,-6"/>
<text text-anchor="start" x="598" y="-35" font-family="Helvetica,sans-Serif" font-size="10.00">Components/Service</text>
<text text-anchor="start" x="598" y="-24" font-family="Helvetica,sans-Serif" font-size="10.00">/isAlive/test/test/simple</text>
<text text-anchor="middle" x="656" y="-13" font-family="Helvetica,sans-Serif" font-size="10.00">_test.cpp</text>
</a>
</g>
</g>
<!-- Node27&#45;&gt;Node29 -->
<g id="edge32" class="edge">
<title>Node27&#45;&gt;Node29</title>
<path fill="none" stroke="midnightblue" d="M578.61,-88.71C595.38,-75.44 615.5,-59.53 631.02,-47.26"/>
<polygon fill="midnightblue" stroke="midnightblue" points="576.36,-86.03 570.69,-94.98 580.7,-91.52 576.36,-86.03"/>
</g>
<!-- Node33 -->
<g id="node33" class="node">
<title>Node33</title>
<g id="a_node33"><a xlink:href="../../dd/ddd/_maintainer_8cpp.html" target="_top" xlink:title=" ">
<polygon fill="none" stroke="black" points="1966,-184 1966,-214 2130,-214 2130,-184 1966,-184"/>
<text text-anchor="start" x="1974" y="-202" font-family="Helvetica,sans-Serif" font-size="10.00">Components/Objects</text>
<text text-anchor="middle" x="2048" y="-191" font-family="Helvetica,sans-Serif" font-size="10.00">/Maintainer/src/Maintainer.cpp</text>
</a>
</g>
</g>
<!-- Node32&#45;&gt;Node33 -->
<g id="edge36" class="edge">
<title>Node32&#45;&gt;Node33</title>
<path fill="none" stroke="midnightblue" d="M2156.73,-251.97C2130.75,-239.55 2099.94,-224.83 2077.76,-214.23"/>
<polygon fill="midnightblue" stroke="midnightblue" points="2155.52,-255.27 2166.05,-256.43 2158.54,-248.96 2155.52,-255.27"/>
</g>
<!-- Node34 -->
<g id="node34" class="node">
<title>Node34</title>
<g id="a_node34"><a xlink:href="../../d8/d4a/maintainer__test_8cpp.html" target="_top" xlink:title=" ">
<polygon fill="none" stroke="black" points="2148,-178.5 2148,-219.5 2266,-219.5 2266,-178.5 2148,-178.5"/>
<text text-anchor="start" x="2156" y="-207.5" font-family="Helvetica,sans-Serif" font-size="10.00">Components/Objects</text>
<text text-anchor="start" x="2156" y="-196.5" font-family="Helvetica,sans-Serif" font-size="10.00">/Maintainer/test/test</text>
<text text-anchor="middle" x="2207" y="-185.5" font-family="Helvetica,sans-Serif" font-size="10.00">/maintainer_test.cpp</text>
</a>
</g>
</g>
<!-- Node32&#45;&gt;Node34 -->
<g id="edge37" class="edge">
<title>Node32&#45;&gt;Node34</title>
<path fill="none" stroke="midnightblue" d="M2207,-246.3C2207,-237.3 2207,-227.65 2207,-219.51"/>
<polygon fill="midnightblue" stroke="midnightblue" points="2203.5,-246.43 2207,-256.43 2210.5,-246.43 2203.5,-246.43"/>
</g>
<!-- Node35 -->
<g id="node35" class="node">
<title>Node35</title>
<g id="a_node35"><a xlink:href="../../dd/d82/_active_current_sensor_8hpp.html" target="_top" xlink:title=" ">
<polygon fill="none" stroke="black" points="2284,-178.5 2284,-219.5 2432,-219.5 2432,-178.5 2284,-178.5"/>
<text text-anchor="start" x="2292" y="-207.5" font-family="Helvetica,sans-Serif" font-size="10.00">Components/Sensor/Active</text>
<text text-anchor="start" x="2292" y="-196.5" font-family="Helvetica,sans-Serif" font-size="10.00">CurrentSensor/include</text>
<text text-anchor="middle" x="2358" y="-185.5" font-family="Helvetica,sans-Serif" font-size="10.00">/ActiveCurrentSensor.hpp</text>
</a>
</g>
</g>
<!-- Node32&#45;&gt;Node35 -->
<g id="edge38" class="edge">
<title>Node32&#45;&gt;Node35</title>
<path fill="none" stroke="midnightblue" d="M2254.87,-251.91C2275.63,-241.46 2299.63,-229.38 2319.25,-219.51"/>
<polygon fill="midnightblue" stroke="midnightblue" points="2253.25,-248.81 2245.89,-256.43 2256.39,-255.06 2253.25,-248.81"/>
</g>
<!-- Node36 -->
<g id="node36" class="node">
<title>Node36</title>
<g id="a_node36"><a xlink:href="../../d2/d77/_active_current_sensor_8cpp.html" target="_top" xlink:title=" ">
<polygon fill="none" stroke="black" points="2271.5,-95 2271.5,-136 2444.5,-136 2444.5,-95 2271.5,-95"/>
<text text-anchor="start" x="2279.5" y="-124" font-family="Helvetica,sans-Serif" font-size="10.00">Components/Sensor/Active</text>
<text text-anchor="start" x="2279.5" y="-113" font-family="Helvetica,sans-Serif" font-size="10.00">CurrentSensor/src/ActiveCurrent</text>
<text text-anchor="middle" x="2358" y="-102" font-family="Helvetica,sans-Serif" font-size="10.00">Sensor.cpp</text>
</a>
</g>
</g>
<!-- Node35&#45;&gt;Node36 -->
<g id="edge39" class="edge">
<title>Node35&#45;&gt;Node36</title>
<path fill="none" stroke="midnightblue" d="M2358,-168.06C2358,-157.38 2358,-145.63 2358,-136.05"/>
<polygon fill="midnightblue" stroke="midnightblue" points="2354.5,-168.27 2358,-178.27 2361.5,-168.27 2354.5,-168.27"/>
</g>
</g>
</svg>
        <g id="navigator" transform="translate(0 0)" fill="#404254">
                <rect fill="#f2f5e9" fill-opacity="0.5" stroke="#606060" stroke-width=".5" x="0" y="0" width="60" height="60"/>
                <use id="zoomplus" xlink:href="#zoomPlus" x="17" y="9" onmousedown="handleZoom(evt,'in')"/>
                <use id="zoomminus" xlink:href="#zoomMin" x="42" y="9" onmousedown="handleZoom(evt,'out')"/>
                <use id="reset" xlink:href="#resetDef" x="30" y="36" onmousedown="handleReset()"/>
                <g id="arrowUp" xlink:href="#dirArrow" transform="translate(30 24)" onmousedown="handlePan(0,-1)">
                  <use xlink:href="#rim" fill="#404040">
                        <set attributeName="fill" to="#808080" begin="arrowUp.mouseover" end="arrowUp.mouseout"/>
                  </use>
                  <path fill="none" stroke="white" stroke-width="1.5" d="M0,-3.0v7 M-2.5,-0.5L0,-3.0L2.5,-0.5"/>
                </g>
                <g id="arrowRight" xlink:href="#dirArrow" transform="rotate(90) translate(36 -43)" onmousedown="handlePan(1,0)">
                  <use xlink:href="#rim" fill="#404040">
                        <set attributeName="fill" to="#808080" begin="arrowRight.mouseover" end="arrowRight.mouseout"/>
                  </use>
                  <path fill="none" stroke="white" stroke-width="1.5" d="M0,-3.0v7 M-2.5,-0.5L0,-3.0L2.5,-0.5"/>
                </g>
                <g id="arrowDown" xlink:href="#dirArrow" transform="rotate(180) translate(-30 -48)" onmousedown="handlePan(0,1)">
                  <use xlink:href="#rim" fill="#404040">
                        <set attributeName="fill" to="#808080" begin="arrowDown.mouseover" end="arrowDown.mouseout"/>
                  </use>
                  <path fill="none" stroke="white" stroke-width="1.5" d="M0,-3.0v7 M-2.5,-0.5L0,-3.0L2.5,-0.5"/>
                </g>
                <g id="arrowLeft" xlink:href="#dirArrow" transform="rotate(270) translate(-36 17)" onmousedown="handlePan(-1,0)">
                  <use xlink:href="#rim" fill="#404040">
                        <set attributeName="fill" to="#808080" begin="arrowLeft.mouseover" end="arrowLeft.mouseout"/>
                  </use>
                  <path fill="none" stroke="white" stroke-width="1.5" d="M0,-3.0v7 M-2.5,-0.5L0,-3.0L2.5,-0.5"/>
                </g>
        </g>
        <svg viewBox="0 0 15 15" width="100%" height="30px" preserveAspectRatio="xMaxYMin meet">
         <g id="arrow_out" transform="scale(0.3 0.3)">
          <a xlink:href="_error_code_parser_8hpp__dep__incl_org.svg" target="_base">
           <rect id="button" ry="5" rx="5" y="6" x="6" height="38" width="38"
                fill="#f2f5e9" fill-opacity="0.5" stroke="#606060" stroke-width="1.0"/>
           <path id="arrow"
             d="M 11.500037,31.436501 C 11.940474,20.09759 22.043105,11.32322 32.158766,21.979434 L 37.068811,17.246167 C 37.068811,17.246167 37.088388,32 37.088388,32 L 22.160133,31.978069 C 22.160133,31.978069 26.997745,27.140456 26.997745,27.140456 C 18.528582,18.264221 13.291696,25.230495 11.500037,31.436501 z"
             style="fill:#404040;"/>
          </a>
         </g>
        </svg>
</svg>
