<?xml version="1.0" encoding="UTF-8" standalone="no"?>
<!DOCTYPE svg PUBLIC "-//W3C//DTD SVG 1.1//EN"
 "http://www.w3.org/Graphics/SVG/1.1/DTD/svg11.dtd">
<!-- Generated by graphviz version 2.43.0 (0)
 -->
<!-- Title: Components/Objects/ErrorHandler/include/ErrorCodeParser.hpp Pages: 1 -->
<!--zoomable 306 -->
<svg id="main" version="1.1" xmlns="http://www.w3.org/2000/svg" xmlns:xlink="http://www.w3.org/1999/xlink" xml:space="preserve" onload="init(evt)">
<style type="text/css"><![CDATA[
.edge:hover path { stroke: red; }
.edge:hover polygon { stroke: red; fill: red; }
]]></style>
<script type="text/javascript"><![CDATA[
var edges = document.getElementsByTagName('g');
if (edges && edges.length) {
  for (var i=0;i<edges.length;i++) {
    if (edges[i].id.substr(0,4)=='edge') {
      edges[i].setAttribute('class','edge');
    }
  }
}
]]></script>
        <defs>
                <circle id="rim" cx="0" cy="0" r="7"/>
                <circle id="rim2" cx="0" cy="0" r="3.5"/>
                <g id="zoomPlus">
                        <use xlink:href="#rim" fill="#404040">
                                <set attributeName="fill" to="#808080" begin="zoomplus.mouseover" end="zoomplus.mouseout"/>
                        </use>
                        <path d="M-4,0h8M0,-4v8" fill="none" stroke="white" stroke-width="1.5" pointer-events="none"/>
                </g>
                <g id="zoomMin">
                        <use xlink:href="#rim" fill="#404040">
                                <set attributeName="fill" to="#808080" begin="zoomminus.mouseover" end="zoomminus.mouseout"/>
                        </use>
                        <path d="M-4,0h8" fill="none" stroke="white" stroke-width="1.5" pointer-events="none"/>
                </g>
                <g id="dirArrow">
                        <path fill="none" stroke="white" stroke-width="1.5" d="M0,-3.0v7 M-2.5,-0.5L0,-3.0L2.5,-0.5"/>
                </g>
               <g id="resetDef">
                       <use xlink:href="#rim2" fill="#404040">
                               <set attributeName="fill" to="#808080" begin="reset.mouseover" end="reset.mouseout"/>
                       </use>
               </g>
        </defs>

<script type="text/javascript">
var viewWidth = 1776;
var viewHeight = 306;
var sectionId = 'dynsection-1';
</script>
<script xlink:href="../../svgpan.js"/>
<svg id="graph" class="graph">
<g id="viewport">
<title>Components/Objects/ErrorHandler/include/ErrorCodeParser.hpp</title>
<!-- Node1 -->
<g id="node1" class="node">
<title>Node1</title>
<g id="a_node1"><a xlink:title=" ">
<polygon fill="#bfbfbf" stroke="black" points="1137.5,-256.5 1137.5,-297.5 1256.5,-297.5 1256.5,-256.5 1137.5,-256.5"/>
<text text-anchor="start" x="1145.5" y="-285.5" font-family="Helvetica,sans-Serif" font-size="10.00">Components/Objects</text>
<text text-anchor="start" x="1145.5" y="-274.5" font-family="Helvetica,sans-Serif" font-size="10.00">/ErrorHandler/include</text>
<text text-anchor="middle" x="1197" y="-263.5" font-family="Helvetica,sans-Serif" font-size="10.00">/ErrorCodeParser.hpp</text>
</a>
</g>
</g>
<!-- Node2 -->
<g id="node2" class="node">
<title>Node2</title>
<g id="a_node2"><a xlink:href="../../d9/d1c/_sensor_controller_base_8hpp.html" target="_top" xlink:title=" ">
<polygon fill="none" stroke="black" points="548,-178.5 548,-219.5 732,-219.5 732,-178.5 548,-178.5"/>
<text text-anchor="start" x="556" y="-207.5" font-family="Helvetica,sans-Serif" font-size="10.00">Components/Interfaces</text>
<text text-anchor="start" x="556" y="-196.5" font-family="Helvetica,sans-Serif" font-size="10.00">/SensorControllerBase</text>
<text text-anchor="middle" x="640" y="-185.5" font-family="Helvetica,sans-Serif" font-size="10.00">/include/SensorControllerBase.hpp</text>
</a>
</g>
</g>
<!-- Node1&#45;&gt;Node2 -->
<g id="edge1" class="edge">
<title>Node1&#45;&gt;Node2</title>
<path fill="none" stroke="midnightblue" d="M1127.41,-266.5C1027.56,-252.88 843.46,-227.76 732.33,-212.6"/>
<polygon fill="midnightblue" stroke="midnightblue" points="1127.01,-269.98 1137.39,-267.87 1127.96,-263.05 1127.01,-269.98"/>
</g>
<!-- Node13 -->
<g id="node13" class="node">
<title>Node13</title>
<g id="a_node13"><a xlink:href="../../d2/dc5/_service_base_8hpp.html" target="_top" xlink:title=" ">
<polygon fill="none" stroke="black" points="974,-178.5 974,-219.5 1104,-219.5 1104,-178.5 974,-178.5"/>
<text text-anchor="start" x="982" y="-207.5" font-family="Helvetica,sans-Serif" font-size="10.00">Components/Interfaces</text>
<text text-anchor="start" x="982" y="-196.5" font-family="Helvetica,sans-Serif" font-size="10.00">/ServiceBase/include</text>
<text text-anchor="middle" x="1039" y="-185.5" font-family="Helvetica,sans-Serif" font-size="10.00">/ServiceBase.hpp</text>
</a>
</g>
</g>
<!-- Node1&#45;&gt;Node13 -->
<g id="edge14" class="edge">
<title>Node1&#45;&gt;Node13</title>
<path fill="none" stroke="midnightblue" d="M1147.21,-252.05C1125.41,-241.57 1100.17,-229.42 1079.55,-219.51"/>
<polygon fill="midnightblue" stroke="midnightblue" points="1145.78,-255.25 1156.31,-256.43 1148.82,-248.94 1145.78,-255.25"/>
</g>
<!-- Node17 -->
<g id="node17" class="node">
<title>Node17</title>
<g id="a_node17"><a xlink:href="../../d2/df5/_error_code_parser_8cpp.html" target="_top" xlink:title=" ">
<polygon fill="none" stroke="black" points="1122.5,-178.5 1122.5,-219.5 1271.5,-219.5 1271.5,-178.5 1122.5,-178.5"/>
<text text-anchor="start" x="1130.5" y="-207.5" font-family="Helvetica,sans-Serif" font-size="10.00">Components/Objects</text>
<text text-anchor="start" x="1130.5" y="-196.5" font-family="Helvetica,sans-Serif" font-size="10.00">/ErrorHandler/src/ErrorCode</text>
<text text-anchor="middle" x="1197" y="-185.5" font-family="Helvetica,sans-Serif" font-size="10.00">Parser.cpp</text>
</a>
</g>
</g>
<!-- Node1&#45;&gt;Node17 -->
<g id="edge19" class="edge">
<title>Node1&#45;&gt;Node17</title>
<path fill="none" stroke="midnightblue" d="M1197,-246.3C1197,-237.3 1197,-227.65 1197,-219.51"/>
<polygon fill="midnightblue" stroke="midnightblue" points="1193.5,-246.43 1197,-256.43 1200.5,-246.43 1193.5,-246.43"/>
</g>
<!-- Node18 -->
<g id="node18" class="node">
<title>Node18</title>
<g id="a_node18"><a xlink:href="../../d9/db8/_error_code_parser__test_8cpp.html" target="_top" xlink:title=" ">
<polygon fill="none" stroke="black" points="1289.5,-178.5 1289.5,-219.5 1432.5,-219.5 1432.5,-178.5 1289.5,-178.5"/>
<text text-anchor="start" x="1297.5" y="-207.5" font-family="Helvetica,sans-Serif" font-size="10.00">Components/Objects</text>
<text text-anchor="start" x="1297.5" y="-196.5" font-family="Helvetica,sans-Serif" font-size="10.00">/ErrorHandler/test/test</text>
<text text-anchor="middle" x="1361" y="-185.5" font-family="Helvetica,sans-Serif" font-size="10.00">/ErrorCodeParser_test.cpp</text>
</a>
</g>
</g>
<!-- Node1&#45;&gt;Node18 -->
<g id="edge20" class="edge">
<title>Node1&#45;&gt;Node18</title>
<path fill="none" stroke="midnightblue" d="M1248.38,-252.19C1271.07,-241.67 1297.41,-229.47 1318.91,-219.51"/>
<polygon fill="midnightblue" stroke="midnightblue" points="1246.84,-249.05 1239.23,-256.43 1249.78,-255.4 1246.84,-249.05"/>
</g>
<!-- Node19 -->
<g id="node19" class="node">
<title>Node19</title>
<g id="a_node19"><a xlink:href="../../d0/d6a/_maintainer_8hpp.html" target="_top" xlink:title=" ">
<polygon fill="none" stroke="black" points="1451,-178.5 1451,-219.5 1569,-219.5 1569,-178.5 1451,-178.5"/>
<text text-anchor="start" x="1459" y="-207.5" font-family="Helvetica,sans-Serif" font-size="10.00">Components/Objects</text>
<text text-anchor="start" x="1459" y="-196.5" font-family="Helvetica,sans-Serif" font-size="10.00">/Maintainer/include</text>
<text text-anchor="middle" x="1510" y="-185.5" font-family="Helvetica,sans-Serif" font-size="10.00">/Maintainer.hpp</text>
</a>
</g>
</g>
<!-- Node1&#45;&gt;Node19 -->
<g id="edge21" class="edge">
<title>Node1&#45;&gt;Node19</title>
<path fill="none" stroke="midnightblue" d="M1266.56,-261.29C1315.75,-250.6 1383.15,-235.36 1442,-220 1444.86,-219.25 1447.78,-218.47 1450.72,-217.67"/>
<polygon fill="midnightblue" stroke="midnightblue" points="1265.69,-257.9 1256.66,-263.44 1267.17,-264.74 1265.69,-257.9"/>
</g>
<!-- Node3 -->
<g id="node3" class="node">
<title>Node3</title>
<g id="a_node3"><a xlink:href="../../db/d12/_distance_sensor_controller_8hpp.html" target="_top" xlink:title=" ">
<polygon fill="none" stroke="black" points="437.5,-95 437.5,-136 640.5,-136 640.5,-95 437.5,-95"/>
<text text-anchor="start" x="445.5" y="-124" font-family="Helvetica,sans-Serif" font-size="10.00">Components/Controller</text>
<text text-anchor="start" x="445.5" y="-113" font-family="Helvetica,sans-Serif" font-size="10.00">/DistanceSensorController</text>
<text text-anchor="middle" x="539" y="-102" font-family="Helvetica,sans-Serif" font-size="10.00">/include/DistanceSensorController.hpp</text>
</a>
</g>
</g>
<!-- Node2&#45;&gt;Node3 -->
<g id="edge2" class="edge">
<title>Node2&#45;&gt;Node3</title>
<path fill="none" stroke="midnightblue" d="M607.65,-171.89C593.28,-160.3 576.64,-146.87 563.34,-136.14"/>
<polygon fill="midnightblue" stroke="midnightblue" points="605.83,-174.92 615.81,-178.48 610.22,-169.48 605.83,-174.92"/>
</g>
<!-- Node7 -->
<g id="node7" class="node">
<title>Node7</title>
<g id="a_node7"><a xlink:href="../../d2/d8d/_sensor_controller_base_8cpp.html" target="_top" xlink:title=" ">
<polygon fill="none" stroke="black" points="659,-95 659,-136 821,-136 821,-95 659,-95"/>
<text text-anchor="start" x="667" y="-124" font-family="Helvetica,sans-Serif" font-size="10.00">Components/Interfaces</text>
<text text-anchor="start" x="667" y="-113" font-family="Helvetica,sans-Serif" font-size="10.00">/SensorControllerBase</text>
<text text-anchor="middle" x="740" y="-102" font-family="Helvetica,sans-Serif" font-size="10.00">/src/SensorControllerBase.cpp</text>
</a>
</g>
</g>
<!-- Node2&#45;&gt;Node7 -->
<g id="edge6" class="edge">
<title>Node2&#45;&gt;Node7</title>
<path fill="none" stroke="midnightblue" d="M672.03,-171.89C686.26,-160.3 702.73,-146.87 715.9,-136.14"/>
<polygon fill="midnightblue" stroke="midnightblue" points="669.49,-169.45 663.95,-178.48 673.92,-174.87 669.49,-169.45"/>
</g>
<!-- Node8 -->
<g id="node8" class="node">
<title>Node8</title>
<g id="a_node8"><a xlink:href="../../db/dc2/_sensor_controller_base___m_o_c_k_8hpp.html" target="_top" xlink:title=" ">
<polygon fill="none" stroke="black" points="198,-89.5 198,-141.5 374,-141.5 374,-89.5 198,-89.5"/>
<text text-anchor="start" x="206" y="-129.5" font-family="Helvetica,sans-Serif" font-size="10.00">Components/Interfaces</text>
<text text-anchor="start" x="206" y="-118.5" font-family="Helvetica,sans-Serif" font-size="10.00">/SensorControllerBase</text>
<text text-anchor="start" x="206" y="-107.5" font-family="Helvetica,sans-Serif" font-size="10.00">/test/mock/SensorControllerBase</text>
<text text-anchor="middle" x="286" y="-96.5" font-family="Helvetica,sans-Serif" font-size="10.00">_MOCK.hpp</text>
</a>
</g>
</g>
<!-- Node2&#45;&gt;Node8 -->
<g id="edge7" class="edge">
<title>Node2&#45;&gt;Node8</title>
<path fill="none" stroke="midnightblue" d="M542.92,-176.25C497.38,-165.98 442.38,-153.48 393,-142 386.86,-140.57 380.53,-139.09 374.15,-137.59"/>
<polygon fill="midnightblue" stroke="midnightblue" points="542.26,-179.69 552.78,-178.47 543.8,-172.86 542.26,-179.69"/>
</g>
<!-- Node10 -->
<g id="node10" class="node">
<title>Node10</title>
<g id="a_node10"><a xlink:href="../../d8/d19/_sensor_controller_test_8cpp.html" target="_top" xlink:title=" ">
<polygon fill="none" stroke="black" points="194,-6 194,-47 378,-47 378,-6 194,-6"/>
<text text-anchor="start" x="202" y="-35" font-family="Helvetica,sans-Serif" font-size="10.00">Components/Interfaces</text>
<text text-anchor="start" x="202" y="-24" font-family="Helvetica,sans-Serif" font-size="10.00">/SensorControllerBase</text>
<text text-anchor="middle" x="286" y="-13" font-family="Helvetica,sans-Serif" font-size="10.00">/test/test/SensorControllerTest.cpp</text>
</a>
</g>
</g>
<!-- Node2&#45;&gt;Node10 -->
<g id="edge10" class="edge">
<title>Node2&#45;&gt;Node10</title>
<path fill="none" stroke="midnightblue" d="M537.72,-184.05C501.11,-175.79 460.82,-162.69 428,-142 401.86,-125.52 406.31,-109.28 383,-89 364.5,-72.9 341.38,-58.08 322.36,-47.02"/>
<polygon fill="midnightblue" stroke="midnightblue" points="537.42,-187.57 547.94,-186.25 538.9,-180.72 537.42,-187.57"/>
</g>
<!-- Node11 -->
<g id="node11" class="node">
<title>Node11</title>
<g id="a_node11"><a xlink:href="../../d0/dc1/_data_broker_8hpp.html" target="_top" xlink:title=" ">
<polygon fill="none" stroke="black" points="839,-95 839,-136 957,-136 957,-95 839,-95"/>
<text text-anchor="start" x="847" y="-124" font-family="Helvetica,sans-Serif" font-size="10.00">Components/Objects</text>
<text text-anchor="start" x="847" y="-113" font-family="Helvetica,sans-Serif" font-size="10.00">/DataBroker/include</text>
<text text-anchor="middle" x="898" y="-102" font-family="Helvetica,sans-Serif" font-size="10.00">/DataBroker.hpp</text>
</a>
</g>
</g>
<!-- Node2&#45;&gt;Node11 -->
<g id="edge11" class="edge">
<title>Node2&#45;&gt;Node11</title>
<path fill="none" stroke="midnightblue" d="M720.63,-175.63C754.57,-165.85 794.38,-153.91 830,-142 835.5,-140.16 841.22,-138.16 846.9,-136.11"/>
<polygon fill="midnightblue" stroke="midnightblue" points="719.41,-172.34 710.76,-178.46 721.34,-179.07 719.41,-172.34"/>
</g>
<!-- Node4 -->
<g id="node4" class="node">
<title>Node4</title>
<g id="a_node4"><a xlink:href="../../dd/dde/_distance_sensor_controller_8cpp.html" target="_top" xlink:title=" ">
<polygon fill="none" stroke="black" points="396.5,-6 396.5,-47 577.5,-47 577.5,-6 396.5,-6"/>
<text text-anchor="start" x="404.5" y="-35" font-family="Helvetica,sans-Serif" font-size="10.00">Components/Controller</text>
<text text-anchor="start" x="404.5" y="-24" font-family="Helvetica,sans-Serif" font-size="10.00">/DistanceSensorController</text>
<text text-anchor="middle" x="487" y="-13" font-family="Helvetica,sans-Serif" font-size="10.00">/src/DistanceSensorController.cpp</text>
</a>
</g>
</g>
<!-- Node3&#45;&gt;Node4 -->
<g id="edge3" class="edge">
<title>Node3&#45;&gt;Node4</title>
<path fill="none" stroke="midnightblue" d="M521.92,-85.93C514.33,-73.23 505.59,-58.61 498.75,-47.16"/>
<polygon fill="midnightblue" stroke="midnightblue" points="519.07,-87.97 527.2,-94.76 525.07,-84.38 519.07,-87.97"/>
</g>
<!-- Node5 -->
<g id="node5" class="node">
<title>Node5</title>
<g id="a_node5"><a xlink:href="../../d7/d91/_distance_sensor_controller__test_8cpp.html" target="_top" xlink:title=" ">
<polygon fill="none" stroke="black" points="595.5,-0.5 595.5,-52.5 782.5,-52.5 782.5,-0.5 595.5,-0.5"/>
<text text-anchor="start" x="603.5" y="-40.5" font-family="Helvetica,sans-Serif" font-size="10.00">Components/Controller</text>
<text text-anchor="start" x="603.5" y="-29.5" font-family="Helvetica,sans-Serif" font-size="10.00">/DistanceSensorController</text>
<text text-anchor="start" x="603.5" y="-18.5" font-family="Helvetica,sans-Serif" font-size="10.00">/test/test/DistanceSensorController</text>
<text text-anchor="middle" x="689" y="-7.5" font-family="Helvetica,sans-Serif" font-size="10.00">_test.cpp</text>
</a>
</g>
</g>
<!-- Node3&#45;&gt;Node5 -->
<g id="edge4" class="edge">
<title>Node3&#45;&gt;Node5</title>
<path fill="none" stroke="midnightblue" d="M581.32,-89.95C601.46,-78.28 625.5,-64.33 645.75,-52.58"/>
<polygon fill="midnightblue" stroke="midnightblue" points="579.56,-86.93 572.66,-94.98 583.07,-92.99 579.56,-86.93"/>
</g>
<!-- Node6 -->
<g id="node6" class="node">
<title>Node6</title>
<g id="a_node6"><a xlink:href="../../da/d75/_data_broker__test_8cpp.html" target="_top" xlink:title=" ">
<polygon fill="none" stroke="black" points="800.5,-6 800.5,-47 919.5,-47 919.5,-6 800.5,-6"/>
<text text-anchor="start" x="808.5" y="-35" font-family="Helvetica,sans-Serif" font-size="10.00">Components/Objects</text>
<text text-anchor="start" x="808.5" y="-24" font-family="Helvetica,sans-Serif" font-size="10.00">/DataBroker/test/test</text>
<text text-anchor="middle" x="860" y="-13" font-family="Helvetica,sans-Serif" font-size="10.00">/DataBroker_test.cpp</text>
</a>
</g>
</g>
<!-- Node3&#45;&gt;Node6 -->
<g id="edge5" class="edge">
<title>Node3&#45;&gt;Node6</title>
<path fill="none" stroke="midnightblue" d="M633.74,-92.57C692.3,-78.78 761.69,-61.96 791,-53 796.86,-51.21 802.95,-49.19 808.98,-47.1"/>
<polygon fill="midnightblue" stroke="midnightblue" points="632.63,-89.23 623.69,-94.93 634.23,-96.05 632.63,-89.23"/>
</g>
<!-- Node9 -->
<g id="node9" class="node">
<title>Node9</title>
<g id="a_node9"><a xlink:href="../../dc/d0f/_sensor_controller_base___m_o_c_k_8cpp.html" target="_top" xlink:title=" ">
<polygon fill="none" stroke="black" points="0,-0.5 0,-52.5 176,-52.5 176,-0.5 0,-0.5"/>
<text text-anchor="start" x="8" y="-40.5" font-family="Helvetica,sans-Serif" font-size="10.00">Components/Interfaces</text>
<text text-anchor="start" x="8" y="-29.5" font-family="Helvetica,sans-Serif" font-size="10.00">/SensorControllerBase</text>
<text text-anchor="start" x="8" y="-18.5" font-family="Helvetica,sans-Serif" font-size="10.00">/test/mock/SensorControllerBase</text>
<text text-anchor="middle" x="88" y="-7.5" font-family="Helvetica,sans-Serif" font-size="10.00">_MOCK.cpp</text>
</a>
</g>
</g>
<!-- Node8&#45;&gt;Node9 -->
<g id="edge8" class="edge">
<title>Node8&#45;&gt;Node9</title>
<path fill="none" stroke="midnightblue" d="M219.53,-85.29C195.34,-74.67 168.24,-62.76 144.94,-52.52"/>
<polygon fill="midnightblue" stroke="midnightblue" points="218.43,-88.63 229,-89.45 221.25,-82.23 218.43,-88.63"/>
</g>
<!-- Node8&#45;&gt;Node10 -->
<g id="edge9" class="edge">
<title>Node8&#45;&gt;Node10</title>
<path fill="none" stroke="midnightblue" d="M286,-79.16C286,-68.21 286,-56.55 286,-47.08"/>
<polygon fill="midnightblue" stroke="midnightblue" points="282.5,-79.34 286,-89.34 289.5,-79.34 282.5,-79.34"/>
</g>
<!-- Node11&#45;&gt;Node6 -->
<g id="edge13" class="edge">
<title>Node11&#45;&gt;Node6</title>
<path fill="none" stroke="midnightblue" d="M885.36,-85.56C879.85,-72.95 873.54,-58.5 868.59,-47.16"/>
<polygon fill="midnightblue" stroke="midnightblue" points="882.17,-87 889.38,-94.76 888.58,-84.19 882.17,-87"/>
</g>
<!-- Node12 -->
<g id="node12" class="node">
<title>Node12</title>
<g id="a_node12"><a xlink:href="../../d4/ddc/_data_broker_8cpp.html" target="_top" xlink:title=" ">
<polygon fill="none" stroke="black" points="938,-11.5 938,-41.5 1108,-41.5 1108,-11.5 938,-11.5"/>
<text text-anchor="start" x="946" y="-29.5" font-family="Helvetica,sans-Serif" font-size="10.00">Components/Objects</text>
<text text-anchor="middle" x="1023" y="-18.5" font-family="Helvetica,sans-Serif" font-size="10.00">/DataBroker/src/DataBroker.cpp</text>
</a>
</g>
</g>
<!-- Node11&#45;&gt;Node12 -->
<g id="edge12" class="edge">
<title>Node11&#45;&gt;Node12</title>
<path fill="none" stroke="midnightblue" d="M934.31,-89.23C956.61,-73.7 984.36,-54.39 1002.82,-41.55"/>
<polygon fill="midnightblue" stroke="midnightblue" points="932.26,-86.39 926.05,-94.98 936.26,-92.14 932.26,-86.39"/>
</g>
<!-- Node13&#45;&gt;Node11 -->
<g id="edge16" class="edge">
<title>Node13&#45;&gt;Node11</title>
<path fill="none" stroke="midnightblue" d="M996.35,-173.35C975.73,-161.43 951.33,-147.32 931.99,-136.14"/>
<polygon fill="midnightblue" stroke="midnightblue" points="994.82,-176.5 1005.23,-178.48 998.32,-170.44 994.82,-176.5"/>
</g>
<!-- Node14 -->
<g id="node14" class="node">
<title>Node14</title>
<g id="a_node14"><a xlink:href="../../dc/d1d/_service__test_8cpp.html" target="_top" xlink:title=" ">
<polygon fill="none" stroke="black" points="975,-95 975,-136 1105,-136 1105,-95 975,-95"/>
<text text-anchor="start" x="983" y="-124" font-family="Helvetica,sans-Serif" font-size="10.00">Components/Interfaces</text>
<text text-anchor="start" x="983" y="-113" font-family="Helvetica,sans-Serif" font-size="10.00">/ServiceBase/test/test</text>
<text text-anchor="middle" x="1040" y="-102" font-family="Helvetica,sans-Serif" font-size="10.00">/Service_test.cpp</text>
</a>
</g>
</g>
<!-- Node13&#45;&gt;Node14 -->
<g id="edge15" class="edge">
<title>Node13&#45;&gt;Node14</title>
<path fill="none" stroke="midnightblue" d="M1039.37,-168.06C1039.5,-157.38 1039.64,-145.63 1039.76,-136.05"/>
<polygon fill="midnightblue" stroke="midnightblue" points="1035.87,-168.23 1039.24,-178.27 1042.86,-168.31 1035.87,-168.23"/>
</g>
<!-- Node15 -->
<g id="node15" class="node">
<title>Node15</title>
<g id="a_node15"><a xlink:href="../../dd/d22/_water_estimator___service_8hpp.html" target="_top" xlink:title=" ">
<polygon fill="none" stroke="black" points="1124,-95 1124,-136 1282,-136 1282,-95 1124,-95"/>
<text text-anchor="start" x="1132" y="-124" font-family="Helvetica,sans-Serif" font-size="10.00">Components/Service</text>
<text text-anchor="start" x="1132" y="-113" font-family="Helvetica,sans-Serif" font-size="10.00">/WaterEstimator/include</text>
<text text-anchor="middle" x="1203" y="-102" font-family="Helvetica,sans-Serif" font-size="10.00">/WaterEstimator_Service.hpp</text>
</a>
</g>
</g>
<!-- Node13&#45;&gt;Node15 -->
<g id="edge17" class="edge">
<title>Node13&#45;&gt;Node15</title>
<path fill="none" stroke="midnightblue" d="M1087.35,-173.97C1111.7,-161.87 1140.82,-147.4 1163.75,-136"/>
<polygon fill="midnightblue" stroke="midnightblue" points="1085.68,-170.89 1078.28,-178.48 1088.79,-177.16 1085.68,-170.89"/>
</g>
<!-- Node16 -->
<g id="node16" class="node">
<title>Node16</title>
<g id="a_node16"><a xlink:href="../../dd/dd3/_water_estimator___service_8cpp.html" target="_top" xlink:title=" ">
<polygon fill="none" stroke="black" points="1126,-6 1126,-47 1284,-47 1284,-6 1126,-6"/>
<text text-anchor="start" x="1134" y="-35" font-family="Helvetica,sans-Serif" font-size="10.00">Components/Service</text>
<text text-anchor="start" x="1134" y="-24" font-family="Helvetica,sans-Serif" font-size="10.00">/WaterEstimator/src</text>
<text text-anchor="middle" x="1205" y="-13" font-family="Helvetica,sans-Serif" font-size="10.00">/WaterEstimator_Service.cpp</text>
</a>
</g>
</g>
<!-- Node15&#45;&gt;Node16 -->
<g id="edge18" class="edge">
<title>Node15&#45;&gt;Node16</title>
<path fill="none" stroke="midnightblue" d="M1203.69,-84.44C1203.97,-72.1 1204.3,-58.16 1204.55,-47.16"/>
<polygon fill="midnightblue" stroke="midnightblue" points="1200.18,-84.68 1203.45,-94.76 1207.18,-84.84 1200.18,-84.68"/>
</g>
<!-- Node20 -->
<g id="node20" class="node">
<title>Node20</title>
<g id="a_node20"><a xlink:href="../../dd/ddd/_maintainer_8cpp.html" target="_top" xlink:title=" ">
<polygon fill="none" stroke="black" points="1602.5,-100.5 1602.5,-130.5 1767.5,-130.5 1767.5,-100.5 1602.5,-100.5"/>
<text text-anchor="start" x="1610.5" y="-118.5" font-family="Helvetica,sans-Serif" font-size="10.00">Components/Objects</text>
<text text-anchor="middle" x="1685" y="-107.5" font-family="Helvetica,sans-Serif" font-size="10.00">/Maintainer/src/Maintainer.cpp</text>
</a>
</g>
</g>
<!-- Node19&#45;&gt;Node20 -->
<g id="edge22" class="edge">
<title>Node19&#45;&gt;Node20</title>
<path fill="none" stroke="midnightblue" d="M1561.12,-174.19C1591.58,-160.01 1629.19,-142.49 1654.93,-130.5"/>
<polygon fill="midnightblue" stroke="midnightblue" points="1559.5,-171.08 1551.92,-178.48 1562.46,-177.43 1559.5,-171.08"/>
</g>
<!-- Node21 -->
<g id="node21" class="node">
<title>Node21</title>
<g id="a_node21"><a xlink:href="../../d8/d4a/maintainer__test_8cpp.html" target="_top" xlink:title=" ">
<polygon fill="none" stroke="black" points="1300,-95 1300,-136 1418,-136 1418,-95 1300,-95"/>
<text text-anchor="start" x="1308" y="-124" font-family="Helvetica,sans-Serif" font-size="10.00">Components/Objects</text>
<text text-anchor="start" x="1308" y="-113" font-family="Helvetica,sans-Serif" font-size="10.00">/Maintainer/test/test</text>
<text text-anchor="middle" x="1359" y="-102" font-family="Helvetica,sans-Serif" font-size="10.00">/maintainer_test.cpp</text>
</a>
</g>
</g>
<!-- Node19&#45;&gt;Node21 -->
<g id="edge23" class="edge">
<title>Node19&#45;&gt;Node21</title>
<path fill="none" stroke="midnightblue" d="M1464.89,-173.65C1442.6,-161.62 1416.06,-147.3 1395.13,-136"/>
<polygon fill="midnightblue" stroke="midnightblue" points="1463.37,-176.81 1473.83,-178.48 1466.69,-170.65 1463.37,-176.81"/>
</g>
<!-- Node22 -->
<g id="node22" class="node">
<title>Node22</title>
<g id="a_node22"><a xlink:href="../../dd/d82/_active_current_sensor_8hpp.html" target="_top" xlink:title=" ">
<polygon fill="none" stroke="black" points="1436,-95 1436,-136 1584,-136 1584,-95 1436,-95"/>
<text text-anchor="start" x="1444" y="-124" font-family="Helvetica,sans-Serif" font-size="10.00">Components/Sensor/Active</text>
<text text-anchor="start" x="1444" y="-113" font-family="Helvetica,sans-Serif" font-size="10.00">CurrentSensor/include</text>
<text text-anchor="middle" x="1510" y="-102" font-family="Helvetica,sans-Serif" font-size="10.00">/ActiveCurrentSensor.hpp</text>
</a>
</g>
</g>
<!-- Node19&#45;&gt;Node22 -->
<g id="edge24" class="edge">
<title>Node19&#45;&gt;Node22</title>
<path fill="none" stroke="midnightblue" d="M1510,-168.06C1510,-157.38 1510,-145.63 1510,-136.05"/>
<polygon fill="midnightblue" stroke="midnightblue" points="1506.5,-168.27 1510,-178.27 1513.5,-168.27 1506.5,-168.27"/>
</g>
<!-- Node23 -->
<g id="node23" class="node">
<title>Node23</title>
<g id="a_node23"><a xlink:href="../../d2/d77/_active_current_sensor_8cpp.html" target="_top" xlink:title=" ">
<polygon fill="none" stroke="black" points="1423.5,-6 1423.5,-47 1596.5,-47 1596.5,-6 1423.5,-6"/>
<text text-anchor="start" x="1431.5" y="-35" font-family="Helvetica,sans-Serif" font-size="10.00">Components/Sensor/Active</text>
<text text-anchor="start" x="1431.5" y="-24" font-family="Helvetica,sans-Serif" font-size="10.00">CurrentSensor/src/ActiveCurrent</text>
<text text-anchor="middle" x="1510" y="-13" font-family="Helvetica,sans-Serif" font-size="10.00">Sensor.cpp</text>
</a>
</g>
</g>
<!-- Node22&#45;&gt;Node23 -->
<g id="edge25" class="edge">
<title>Node22&#45;&gt;Node23</title>
<path fill="none" stroke="midnightblue" d="M1510,-84.44C1510,-72.1 1510,-58.16 1510,-47.16"/>
<polygon fill="midnightblue" stroke="midnightblue" points="1506.5,-84.76 1510,-94.76 1513.5,-84.76 1506.5,-84.76"/>
</g>
</g>
</svg>
        <g id="navigator" transform="translate(0 0)" fill="#404254">
                <rect fill="#f2f5e9" fill-opacity="0.5" stroke="#606060" stroke-width=".5" x="0" y="0" width="60" height="60"/>
                <use id="zoomplus" xlink:href="#zoomPlus" x="17" y="9" onmousedown="handleZoom(evt,'in')"/>
                <use id="zoomminus" xlink:href="#zoomMin" x="42" y="9" onmousedown="handleZoom(evt,'out')"/>
                <use id="reset" xlink:href="#resetDef" x="30" y="36" onmousedown="handleReset()"/>
                <g id="arrowUp" xlink:href="#dirArrow" transform="translate(30 24)" onmousedown="handlePan(0,-1)">
                  <use xlink:href="#rim" fill="#404040">
                        <set attributeName="fill" to="#808080" begin="arrowUp.mouseover" end="arrowUp.mouseout"/>
                  </use>
                  <path fill="none" stroke="white" stroke-width="1.5" d="M0,-3.0v7 M-2.5,-0.5L0,-3.0L2.5,-0.5"/>
                </g>
                <g id="arrowRight" xlink:href="#dirArrow" transform="rotate(90) translate(36 -43)" onmousedown="handlePan(1,0)">
                  <use xlink:href="#rim" fill="#404040">
                        <set attributeName="fill" to="#808080" begin="arrowRight.mouseover" end="arrowRight.mouseout"/>
                  </use>
                  <path fill="none" stroke="white" stroke-width="1.5" d="M0,-3.0v7 M-2.5,-0.5L0,-3.0L2.5,-0.5"/>
                </g>
                <g id="arrowDown" xlink:href="#dirArrow" transform="rotate(180) translate(-30 -48)" onmousedown="handlePan(0,1)">
                  <use xlink:href="#rim" fill="#404040">
                        <set attributeName="fill" to="#808080" begin="arrowDown.mouseover" end="arrowDown.mouseout"/>
                  </use>
                  <path fill="none" stroke="white" stroke-width="1.5" d="M0,-3.0v7 M-2.5,-0.5L0,-3.0L2.5,-0.5"/>
                </g>
                <g id="arrowLeft" xlink:href="#dirArrow" transform="rotate(270) translate(-36 17)" onmousedown="handlePan(-1,0)">
                  <use xlink:href="#rim" fill="#404040">
                        <set attributeName="fill" to="#808080" begin="arrowLeft.mouseover" end="arrowLeft.mouseout"/>
                  </use>
                  <path fill="none" stroke="white" stroke-width="1.5" d="M0,-3.0v7 M-2.5,-0.5L0,-3.0L2.5,-0.5"/>
                </g>
        </g>
        <svg viewBox="0 0 15 15" width="100%" height="30px" preserveAspectRatio="xMaxYMin meet">
         <g id="arrow_out" transform="scale(0.3 0.3)">
          <a xlink:href="_error_code_parser_8hpp__dep__incl_org.svg" target="_base">
           <rect id="button" ry="5" rx="5" y="6" x="6" height="38" width="38"
                fill="#f2f5e9" fill-opacity="0.5" stroke="#606060" stroke-width="1.0"/>
           <path id="arrow"
             d="M 11.500037,31.436501 C 11.940474,20.09759 22.043105,11.32322 32.158766,21.979434 L 37.068811,17.246167 C 37.068811,17.246167 37.088388,32 37.088388,32 L 22.160133,31.978069 C 22.160133,31.978069 26.997745,27.140456 26.997745,27.140456 C 18.528582,18.264221 13.291696,25.230495 11.500037,31.436501 z"
             style="fill:#404040;"/>
          </a>
         </g>
        </svg>
</svg>
