<?xml version="1.0" encoding="UTF-8" standalone="no"?>
<!DOCTYPE svg PUBLIC "-//W3C//DTD SVG 1.1//EN"
 "http://www.w3.org/Graphics/SVG/1.1/DTD/svg11.dtd">
<!-- Generated by graphviz version 2.43.0 (0)
 -->
<!-- Title: Components/Objects/ErrorHandler/include/ErrorCodeParser.hpp Pages: 1 -->
<svg width="1770pt" height="306pt"
 viewBox="0.00 0.00 1770.00 306.00" xmlns="http://www.w3.org/2000/svg" xmlns:xlink="http://www.w3.org/1999/xlink">
<g id="graph0" class="graph" transform="scale(1 1) rotate(0) translate(4 302)">
<title>Components/Objects/ErrorHandler/include/ErrorCodeParser.hpp</title>
<!-- Node1 -->
<g id="node1" class="node">
<title>Node1</title>
<g id="a_node1"><a xlink:title=" ">
<polygon fill="#bfbfbf" stroke="black" points="1134.5,-256.5 1134.5,-297.5 1253.5,-297.5 1253.5,-256.5 1134.5,-256.5"/>
<text text-anchor="start" x="1142.5" y="-285.5" font-family="Helvetica,sans-Serif" font-size="10.00">Components/Objects</text>
<text text-anchor="start" x="1142.5" y="-274.5" font-family="Helvetica,sans-Serif" font-size="10.00">/ErrorHandler/include</text>
<text text-anchor="middle" x="1194" y="-263.5" font-family="Helvetica,sans-Serif" font-size="10.00">/ErrorCodeParser.hpp</text>
</a>
</g>
</g>
<!-- Node2 -->
<g id="node2" class="node">
<title>Node2</title>
<g id="a_node2"><a xlink:href="../../d9/d1c/_sensor_controller_base_8hpp.html" target="_top" xlink:title=" ">
<polygon fill="none" stroke="black" points="545,-178.5 545,-219.5 729,-219.5 729,-178.5 545,-178.5"/>
<text text-anchor="start" x="553" y="-207.5" font-family="Helvetica,sans-Serif" font-size="10.00">Components/Interfaces</text>
<text text-anchor="start" x="553" y="-196.5" font-family="Helvetica,sans-Serif" font-size="10.00">/SensorControllerBase</text>
<text text-anchor="middle" x="637" y="-185.5" font-family="Helvetica,sans-Serif" font-size="10.00">/include/SensorControllerBase.hpp</text>
</a>
</g>
</g>
<!-- Node1&#45;&gt;Node2 -->
<g id="edge1" class="edge">
<title>Node1&#45;&gt;Node2</title>
<path fill="none" stroke="midnightblue" d="M1124.41,-266.5C1024.56,-252.88 840.46,-227.76 729.33,-212.6"/>
<polygon fill="midnightblue" stroke="midnightblue" points="1124.01,-269.98 1134.39,-267.87 1124.96,-263.05 1124.01,-269.98"/>
</g>
<!-- Node13 -->
<g id="node13" class="node">
<title>Node13</title>
<g id="a_node13"><a xlink:href="../../d2/dc5/_service_base_8hpp.html" target="_top" xlink:title=" ">
<polygon fill="none" stroke="black" points="971,-178.5 971,-219.5 1101,-219.5 1101,-178.5 971,-178.5"/>
<text text-anchor="start" x="979" y="-207.5" font-family="Helvetica,sans-Serif" font-size="10.00">Components/Interfaces</text>
<text text-anchor="start" x="979" y="-196.5" font-family="Helvetica,sans-Serif" font-size="10.00">/ServiceBase/include</text>
<text text-anchor="middle" x="1036" y="-185.5" font-family="Helvetica,sans-Serif" font-size="10.00">/ServiceBase.hpp</text>
</a>
</g>
</g>
<!-- Node1&#45;&gt;Node13 -->
<g id="edge14" class="edge">
<title>Node1&#45;&gt;Node13</title>
<path fill="none" stroke="midnightblue" d="M1144.21,-252.05C1122.41,-241.57 1097.17,-229.42 1076.55,-219.51"/>
<polygon fill="midnightblue" stroke="midnightblue" points="1142.78,-255.25 1153.31,-256.43 1145.82,-248.94 1142.78,-255.25"/>
</g>
<!-- Node17 -->
<g id="node17" class="node">
<title>Node17</title>
<g id="a_node17"><a xlink:href="../../d2/df5/_error_code_parser_8cpp.html" target="_top" xlink:title=" ">
<polygon fill="none" stroke="black" points="1119.5,-178.5 1119.5,-219.5 1268.5,-219.5 1268.5,-178.5 1119.5,-178.5"/>
<text text-anchor="start" x="1127.5" y="-207.5" font-family="Helvetica,sans-Serif" font-size="10.00">Components/Objects</text>
<text text-anchor="start" x="1127.5" y="-196.5" font-family="Helvetica,sans-Serif" font-size="10.00">/ErrorHandler/src/ErrorCode</text>
<text text-anchor="middle" x="1194" y="-185.5" font-family="Helvetica,sans-Serif" font-size="10.00">Parser.cpp</text>
</a>
</g>
</g>
<!-- Node1&#45;&gt;Node17 -->
<g id="edge19" class="edge">
<title>Node1&#45;&gt;Node17</title>
<path fill="none" stroke="midnightblue" d="M1194,-246.3C1194,-237.3 1194,-227.65 1194,-219.51"/>
<polygon fill="midnightblue" stroke="midnightblue" points="1190.5,-246.43 1194,-256.43 1197.5,-246.43 1190.5,-246.43"/>
</g>
<!-- Node18 -->
<g id="node18" class="node">
<title>Node18</title>
<g id="a_node18"><a xlink:href="../../d9/db8/_error_code_parser__test_8cpp.html" target="_top" xlink:title=" ">
<polygon fill="none" stroke="black" points="1287,-178.5 1287,-219.5 1429,-219.5 1429,-178.5 1287,-178.5"/>
<text text-anchor="start" x="1295" y="-207.5" font-family="Helvetica,sans-Serif" font-size="10.00">Components/Objects</text>
<text text-anchor="start" x="1295" y="-196.5" font-family="Helvetica,sans-Serif" font-size="10.00">/ErrorHandler/test/test</text>
<text text-anchor="middle" x="1358" y="-185.5" font-family="Helvetica,sans-Serif" font-size="10.00">/ErrorCodeParser_test.cpp</text>
</a>
</g>
</g>
<!-- Node1&#45;&gt;Node18 -->
<g id="edge20" class="edge">
<title>Node1&#45;&gt;Node18</title>
<path fill="none" stroke="midnightblue" d="M1245.38,-252.19C1268.07,-241.67 1294.41,-229.47 1315.91,-219.51"/>
<polygon fill="midnightblue" stroke="midnightblue" points="1243.84,-249.05 1236.23,-256.43 1246.78,-255.4 1243.84,-249.05"/>
</g>
<!-- Node19 -->
<g id="node19" class="node">
<title>Node19</title>
<g id="a_node19"><a xlink:href="../../d0/d6a/_maintainer_8hpp.html" target="_top" xlink:title=" ">
<polygon fill="none" stroke="black" points="1447,-178.5 1447,-219.5 1565,-219.5 1565,-178.5 1447,-178.5"/>
<text text-anchor="start" x="1455" y="-207.5" font-family="Helvetica,sans-Serif" font-size="10.00">Components/Objects</text>
<text text-anchor="start" x="1455" y="-196.5" font-family="Helvetica,sans-Serif" font-size="10.00">/Maintainer/include</text>
<text text-anchor="middle" x="1506" y="-185.5" font-family="Helvetica,sans-Serif" font-size="10.00">/Maintainer.hpp</text>
</a>
</g>
</g>
<!-- Node1&#45;&gt;Node19 -->
<g id="edge21" class="edge">
<title>Node1&#45;&gt;Node19</title>
<path fill="none" stroke="midnightblue" d="M1263.76,-261.16C1312.71,-250.47 1379.58,-235.28 1438,-220 1440.86,-219.25 1443.78,-218.47 1446.72,-217.66"/>
<polygon fill="midnightblue" stroke="midnightblue" points="1262.94,-257.76 1253.91,-263.31 1264.43,-264.6 1262.94,-257.76"/>
</g>
<!-- Node3 -->
<g id="node3" class="node">
<title>Node3</title>
<g id="a_node3"><a xlink:href="../../db/d12/_distance_sensor_controller_8hpp.html" target="_top" xlink:title=" ">
<polygon fill="none" stroke="black" points="436,-95 436,-136 638,-136 638,-95 436,-95"/>
<text text-anchor="start" x="444" y="-124" font-family="Helvetica,sans-Serif" font-size="10.00">Components/Controller</text>
<text text-anchor="start" x="444" y="-113" font-family="Helvetica,sans-Serif" font-size="10.00">/DistanceSensorController</text>
<text text-anchor="middle" x="537" y="-102" font-family="Helvetica,sans-Serif" font-size="10.00">/include/DistanceSensorController.hpp</text>
</a>
</g>
</g>
<!-- Node2&#45;&gt;Node3 -->
<g id="edge2" class="edge">
<title>Node2&#45;&gt;Node3</title>
<path fill="none" stroke="midnightblue" d="M604.97,-171.89C590.74,-160.3 574.27,-146.87 561.1,-136.14"/>
<polygon fill="midnightblue" stroke="midnightblue" points="603.08,-174.87 613.05,-178.48 607.51,-169.45 603.08,-174.87"/>
</g>
<!-- Node7 -->
<g id="node7" class="node">
<title>Node7</title>
<g id="a_node7"><a xlink:href="../../d2/d8d/_sensor_controller_base_8cpp.html" target="_top" xlink:title=" ">
<polygon fill="none" stroke="black" points="656,-95 656,-136 818,-136 818,-95 656,-95"/>
<text text-anchor="start" x="664" y="-124" font-family="Helvetica,sans-Serif" font-size="10.00">Components/Interfaces</text>
<text text-anchor="start" x="664" y="-113" font-family="Helvetica,sans-Serif" font-size="10.00">/SensorControllerBase</text>
<text text-anchor="middle" x="737" y="-102" font-family="Helvetica,sans-Serif" font-size="10.00">/src/SensorControllerBase.cpp</text>
</a>
</g>
</g>
<!-- Node2&#45;&gt;Node7 -->
<g id="edge6" class="edge">
<title>Node2&#45;&gt;Node7</title>
<path fill="none" stroke="midnightblue" d="M669.03,-171.89C683.26,-160.3 699.73,-146.87 712.9,-136.14"/>
<polygon fill="midnightblue" stroke="midnightblue" points="666.49,-169.45 660.95,-178.48 670.92,-174.87 666.49,-169.45"/>
</g>
<!-- Node8 -->
<g id="node8" class="node">
<title>Node8</title>
<g id="a_node8"><a xlink:href="../../db/dc2/_sensor_controller_base___m_o_c_k_8hpp.html" target="_top" xlink:title=" ">
<polygon fill="none" stroke="black" points="198,-89.5 198,-141.5 374,-141.5 374,-89.5 198,-89.5"/>
<text text-anchor="start" x="206" y="-129.5" font-family="Helvetica,sans-Serif" font-size="10.00">Components/Interfaces</text>
<text text-anchor="start" x="206" y="-118.5" font-family="Helvetica,sans-Serif" font-size="10.00">/SensorControllerBase</text>
<text text-anchor="start" x="206" y="-107.5" font-family="Helvetica,sans-Serif" font-size="10.00">/test/mock/SensorControllerBase</text>
<text text-anchor="middle" x="286" y="-96.5" font-family="Helvetica,sans-Serif" font-size="10.00">_MOCK.hpp</text>
</a>
</g>
</g>
<!-- Node2&#45;&gt;Node8 -->
<g id="edge7" class="edge">
<title>Node2&#45;&gt;Node8</title>
<path fill="none" stroke="midnightblue" d="M540.7,-176.25C495.53,-165.99 440.97,-153.49 392,-142 386.2,-140.64 380.21,-139.23 374.19,-137.8"/>
<polygon fill="midnightblue" stroke="midnightblue" points="539.96,-179.68 550.49,-178.48 541.51,-172.85 539.96,-179.68"/>
</g>
<!-- Node10 -->
<g id="node10" class="node">
<title>Node10</title>
<g id="a_node10"><a xlink:href="../../d8/d19/_sensor_controller_test_8cpp.html" target="_top" xlink:title=" ">
<polygon fill="none" stroke="black" points="194,-6 194,-47 378,-47 378,-6 194,-6"/>
<text text-anchor="start" x="202" y="-35" font-family="Helvetica,sans-Serif" font-size="10.00">Components/Interfaces</text>
<text text-anchor="start" x="202" y="-24" font-family="Helvetica,sans-Serif" font-size="10.00">/SensorControllerBase</text>
<text text-anchor="middle" x="286" y="-13" font-family="Helvetica,sans-Serif" font-size="10.00">/test/test/SensorControllerTest.cpp</text>
</a>
</g>
</g>
<!-- Node2&#45;&gt;Node10 -->
<g id="edge10" class="edge">
<title>Node2&#45;&gt;Node10</title>
<path fill="none" stroke="midnightblue" d="M534.82,-183.92C498.74,-175.65 459.17,-162.59 427,-142 401.21,-125.5 405.99,-109.22 383,-89 364.74,-72.93 341.85,-58.21 322.89,-47.2"/>
<polygon fill="midnightblue" stroke="midnightblue" points="534.38,-187.41 544.9,-186.13 535.88,-180.57 534.38,-187.41"/>
</g>
<!-- Node11 -->
<g id="node11" class="node">
<title>Node11</title>
<g id="a_node11"><a xlink:href="../../d0/dc1/_data_broker_8hpp.html" target="_top" xlink:title=" ">
<polygon fill="none" stroke="black" points="836,-95 836,-136 954,-136 954,-95 836,-95"/>
<text text-anchor="start" x="844" y="-124" font-family="Helvetica,sans-Serif" font-size="10.00">Components/Objects</text>
<text text-anchor="start" x="844" y="-113" font-family="Helvetica,sans-Serif" font-size="10.00">/DataBroker/include</text>
<text text-anchor="middle" x="895" y="-102" font-family="Helvetica,sans-Serif" font-size="10.00">/DataBroker.hpp</text>
</a>
</g>
</g>
<!-- Node2&#45;&gt;Node11 -->
<g id="edge11" class="edge">
<title>Node2&#45;&gt;Node11</title>
<path fill="none" stroke="midnightblue" d="M717.63,-175.63C751.57,-165.85 791.38,-153.91 827,-142 832.5,-140.16 838.22,-138.16 843.9,-136.11"/>
<polygon fill="midnightblue" stroke="midnightblue" points="716.41,-172.34 707.76,-178.46 718.34,-179.07 716.41,-172.34"/>
</g>
<!-- Node4 -->
<g id="node4" class="node">
<title>Node4</title>
<g id="a_node4"><a xlink:href="../../dd/dde/_distance_sensor_controller_8cpp.html" target="_top" xlink:title=" ">
<polygon fill="none" stroke="black" points="396,-6 396,-47 576,-47 576,-6 396,-6"/>
<text text-anchor="start" x="404" y="-35" font-family="Helvetica,sans-Serif" font-size="10.00">Components/Controller</text>
<text text-anchor="start" x="404" y="-24" font-family="Helvetica,sans-Serif" font-size="10.00">/DistanceSensorController</text>
<text text-anchor="middle" x="486" y="-13" font-family="Helvetica,sans-Serif" font-size="10.00">/src/DistanceSensorController.cpp</text>
</a>
</g>
</g>
<!-- Node3&#45;&gt;Node4 -->
<g id="edge3" class="edge">
<title>Node3&#45;&gt;Node4</title>
<path fill="none" stroke="midnightblue" d="M520.25,-85.93C512.81,-73.23 504.23,-58.61 497.53,-47.16"/>
<polygon fill="midnightblue" stroke="midnightblue" points="517.35,-87.9 525.43,-94.76 523.39,-84.36 517.35,-87.9"/>
</g>
<!-- Node5 -->
<g id="node5" class="node">
<title>Node5</title>
<g id="a_node5"><a xlink:href="../../d7/d91/_distance_sensor_controller__test_8cpp.html" target="_top" xlink:title=" ">
<polygon fill="none" stroke="black" points="594.5,-0.5 594.5,-52.5 781.5,-52.5 781.5,-0.5 594.5,-0.5"/>
<text text-anchor="start" x="602.5" y="-40.5" font-family="Helvetica,sans-Serif" font-size="10.00">Components/Controller</text>
<text text-anchor="start" x="602.5" y="-29.5" font-family="Helvetica,sans-Serif" font-size="10.00">/DistanceSensorController</text>
<text text-anchor="start" x="602.5" y="-18.5" font-family="Helvetica,sans-Serif" font-size="10.00">/test/test/DistanceSensorController</text>
<text text-anchor="middle" x="688" y="-7.5" font-family="Helvetica,sans-Serif" font-size="10.00">_test.cpp</text>
</a>
</g>
</g>
<!-- Node3&#45;&gt;Node5 -->
<g id="edge4" class="edge">
<title>Node3&#45;&gt;Node5</title>
<path fill="none" stroke="midnightblue" d="M579.6,-89.95C599.87,-78.28 624.07,-64.33 644.46,-52.58"/>
<polygon fill="midnightblue" stroke="midnightblue" points="577.8,-86.95 570.89,-94.98 581.3,-93.02 577.8,-86.95"/>
</g>
<!-- Node6 -->
<g id="node6" class="node">
<title>Node6</title>
<g id="a_node6"><a xlink:href="../../da/d75/_data_broker__test_8cpp.html" target="_top" xlink:title=" ">
<polygon fill="none" stroke="black" points="799.5,-6 799.5,-47 918.5,-47 918.5,-6 799.5,-6"/>
<text text-anchor="start" x="807.5" y="-35" font-family="Helvetica,sans-Serif" font-size="10.00">Components/Objects</text>
<text text-anchor="start" x="807.5" y="-24" font-family="Helvetica,sans-Serif" font-size="10.00">/DataBroker/test/test</text>
<text text-anchor="middle" x="859" y="-13" font-family="Helvetica,sans-Serif" font-size="10.00">/DataBroker_test.cpp</text>
</a>
</g>
</g>
<!-- Node3&#45;&gt;Node6 -->
<g id="edge5" class="edge">
<title>Node3&#45;&gt;Node6</title>
<path fill="none" stroke="midnightblue" d="M629.53,-92.56C695.18,-76.89 774.32,-57.79 790,-53 795.86,-51.21 801.95,-49.2 807.98,-47.1"/>
<polygon fill="midnightblue" stroke="midnightblue" points="628.46,-89.21 619.54,-94.94 630.08,-96.02 628.46,-89.21"/>
</g>
<!-- Node9 -->
<g id="node9" class="node">
<title>Node9</title>
<g id="a_node9"><a xlink:href="../../dc/d0f/_sensor_controller_base___m_o_c_k_8cpp.html" target="_top" xlink:title=" ">
<polygon fill="none" stroke="black" points="0,-0.5 0,-52.5 176,-52.5 176,-0.5 0,-0.5"/>
<text text-anchor="start" x="8" y="-40.5" font-family="Helvetica,sans-Serif" font-size="10.00">Components/Interfaces</text>
<text text-anchor="start" x="8" y="-29.5" font-family="Helvetica,sans-Serif" font-size="10.00">/SensorControllerBase</text>
<text text-anchor="start" x="8" y="-18.5" font-family="Helvetica,sans-Serif" font-size="10.00">/test/mock/SensorControllerBase</text>
<text text-anchor="middle" x="88" y="-7.5" font-family="Helvetica,sans-Serif" font-size="10.00">_MOCK.cpp</text>
</a>
</g>
</g>
<!-- Node8&#45;&gt;Node9 -->
<g id="edge8" class="edge">
<title>Node8&#45;&gt;Node9</title>
<path fill="none" stroke="midnightblue" d="M219.53,-85.29C195.34,-74.67 168.24,-62.76 144.94,-52.52"/>
<polygon fill="midnightblue" stroke="midnightblue" points="218.43,-88.63 229,-89.45 221.25,-82.23 218.43,-88.63"/>
</g>
<!-- Node8&#45;&gt;Node10 -->
<g id="edge9" class="edge">
<title>Node8&#45;&gt;Node10</title>
<path fill="none" stroke="midnightblue" d="M286,-79.16C286,-68.21 286,-56.55 286,-47.08"/>
<polygon fill="midnightblue" stroke="midnightblue" points="282.5,-79.34 286,-89.34 289.5,-79.34 282.5,-79.34"/>
</g>
<!-- Node11&#45;&gt;Node6 -->
<g id="edge13" class="edge">
<title>Node11&#45;&gt;Node6</title>
<path fill="none" stroke="midnightblue" d="M882.87,-85.19C877.69,-72.67 871.78,-58.38 867.14,-47.16"/>
<polygon fill="midnightblue" stroke="midnightblue" points="879.77,-86.86 886.83,-94.76 886.24,-84.18 879.77,-86.86"/>
</g>
<!-- Node12 -->
<g id="node12" class="node">
<title>Node12</title>
<g id="a_node12"><a xlink:href="../../d4/ddc/_data_broker_8cpp.html" target="_top" xlink:title=" ">
<polygon fill="none" stroke="black" points="936.5,-11.5 936.5,-41.5 1105.5,-41.5 1105.5,-11.5 936.5,-11.5"/>
<text text-anchor="start" x="944.5" y="-29.5" font-family="Helvetica,sans-Serif" font-size="10.00">Components/Objects</text>
<text text-anchor="middle" x="1021" y="-18.5" font-family="Helvetica,sans-Serif" font-size="10.00">/DataBroker/src/DataBroker.cpp</text>
</a>
</g>
</g>
<!-- Node11&#45;&gt;Node12 -->
<g id="edge12" class="edge">
<title>Node11&#45;&gt;Node12</title>
<path fill="none" stroke="midnightblue" d="M931.6,-89.23C954.08,-73.7 982.05,-54.39 1000.66,-41.55"/>
<polygon fill="midnightblue" stroke="midnightblue" points="929.52,-86.41 923.28,-94.98 933.49,-92.17 929.52,-86.41"/>
</g>
<!-- Node13&#45;&gt;Node11 -->
<g id="edge16" class="edge">
<title>Node13&#45;&gt;Node11</title>
<path fill="none" stroke="midnightblue" d="M993.35,-173.35C972.73,-161.43 948.33,-147.32 928.99,-136.14"/>
<polygon fill="midnightblue" stroke="midnightblue" points="991.82,-176.5 1002.23,-178.48 995.32,-170.44 991.82,-176.5"/>
</g>
<!-- Node14 -->
<g id="node14" class="node">
<title>Node14</title>
<g id="a_node14"><a xlink:href="../../dc/d1d/_service__test_8cpp.html" target="_top" xlink:title=" ">
<polygon fill="none" stroke="black" points="972,-95 972,-136 1102,-136 1102,-95 972,-95"/>
<text text-anchor="start" x="980" y="-124" font-family="Helvetica,sans-Serif" font-size="10.00">Components/Interfaces</text>
<text text-anchor="start" x="980" y="-113" font-family="Helvetica,sans-Serif" font-size="10.00">/ServiceBase/test/test</text>
<text text-anchor="middle" x="1037" y="-102" font-family="Helvetica,sans-Serif" font-size="10.00">/Service_test.cpp</text>
</a>
</g>
</g>
<!-- Node13&#45;&gt;Node14 -->
<g id="edge15" class="edge">
<title>Node13&#45;&gt;Node14</title>
<path fill="none" stroke="midnightblue" d="M1036.37,-168.06C1036.5,-157.38 1036.64,-145.63 1036.76,-136.05"/>
<polygon fill="midnightblue" stroke="midnightblue" points="1032.87,-168.23 1036.24,-178.27 1039.86,-168.31 1032.87,-168.23"/>
</g>
<!-- Node15 -->
<g id="node15" class="node">
<title>Node15</title>
<g id="a_node15"><a xlink:href="../../dd/d22/_water_estimator___service_8hpp.html" target="_top" xlink:title=" ">
<polygon fill="none" stroke="black" points="1120,-95 1120,-136 1278,-136 1278,-95 1120,-95"/>
<text text-anchor="start" x="1128" y="-124" font-family="Helvetica,sans-Serif" font-size="10.00">Components/Service</text>
<text text-anchor="start" x="1128" y="-113" font-family="Helvetica,sans-Serif" font-size="10.00">/WaterEstimator/include</text>
<text text-anchor="middle" x="1199" y="-102" font-family="Helvetica,sans-Serif" font-size="10.00">/WaterEstimator_Service.hpp</text>
</a>
</g>
</g>
<!-- Node13&#45;&gt;Node15 -->
<g id="edge17" class="edge">
<title>Node13&#45;&gt;Node15</title>
<path fill="none" stroke="midnightblue" d="M1084.06,-173.97C1108.25,-161.87 1137.2,-147.4 1159.99,-136"/>
<polygon fill="midnightblue" stroke="midnightblue" points="1082.42,-170.88 1075.04,-178.48 1085.55,-177.14 1082.42,-170.88"/>
</g>
<!-- Node16 -->
<g id="node16" class="node">
<title>Node16</title>
<g id="a_node16"><a xlink:href="../../dd/dd3/_water_estimator___service_8cpp.html" target="_top" xlink:title=" ">
<polygon fill="none" stroke="black" points="1123.5,-6 1123.5,-47 1280.5,-47 1280.5,-6 1123.5,-6"/>
<text text-anchor="start" x="1131.5" y="-35" font-family="Helvetica,sans-Serif" font-size="10.00">Components/Service</text>
<text text-anchor="start" x="1131.5" y="-24" font-family="Helvetica,sans-Serif" font-size="10.00">/WaterEstimator/src</text>
<text text-anchor="middle" x="1202" y="-13" font-family="Helvetica,sans-Serif" font-size="10.00">/WaterEstimator_Service.cpp</text>
</a>
</g>
</g>
<!-- Node15&#45;&gt;Node16 -->
<g id="edge18" class="edge">
<title>Node15&#45;&gt;Node16</title>
<path fill="none" stroke="midnightblue" d="M1200.04,-84.44C1200.46,-72.1 1200.94,-58.16 1201.32,-47.16"/>
<polygon fill="midnightblue" stroke="midnightblue" points="1196.53,-84.64 1199.68,-94.76 1203.52,-84.88 1196.53,-84.64"/>
</g>
<!-- Node20 -->
<g id="node20" class="node">
<title>Node20</title>
<g id="a_node20"><a xlink:href="../../dd/ddd/_maintainer_8cpp.html" target="_top" xlink:title=" ">
<polygon fill="none" stroke="black" points="1598,-100.5 1598,-130.5 1762,-130.5 1762,-100.5 1598,-100.5"/>
<text text-anchor="start" x="1606" y="-118.5" font-family="Helvetica,sans-Serif" font-size="10.00">Components/Objects</text>
<text text-anchor="middle" x="1680" y="-107.5" font-family="Helvetica,sans-Serif" font-size="10.00">/Maintainer/src/Maintainer.cpp</text>
</a>
</g>
</g>
<!-- Node19&#45;&gt;Node20 -->
<g id="edge22" class="edge">
<title>Node19&#45;&gt;Node20</title>
<path fill="none" stroke="midnightblue" d="M1556.83,-174.19C1587.11,-160.01 1624.51,-142.49 1650.1,-130.5"/>
<polygon fill="midnightblue" stroke="midnightblue" points="1555.25,-171.07 1547.68,-178.48 1558.22,-177.41 1555.25,-171.07"/>
</g>
<!-- Node21 -->
<g id="node21" class="node">
<title>Node21</title>
<g id="a_node21"><a xlink:href="../../d8/d4a/maintainer__test_8cpp.html" target="_top" xlink:title=" ">
<polygon fill="none" stroke="black" points="1296,-95 1296,-136 1414,-136 1414,-95 1296,-95"/>
<text text-anchor="start" x="1304" y="-124" font-family="Helvetica,sans-Serif" font-size="10.00">Components/Objects</text>
<text text-anchor="start" x="1304" y="-113" font-family="Helvetica,sans-Serif" font-size="10.00">/Maintainer/test/test</text>
<text text-anchor="middle" x="1355" y="-102" font-family="Helvetica,sans-Serif" font-size="10.00">/maintainer_test.cpp</text>
</a>
</g>
</g>
<!-- Node19&#45;&gt;Node21 -->
<g id="edge23" class="edge">
<title>Node19&#45;&gt;Node21</title>
<path fill="none" stroke="midnightblue" d="M1460.89,-173.65C1438.6,-161.62 1412.06,-147.3 1391.13,-136"/>
<polygon fill="midnightblue" stroke="midnightblue" points="1459.37,-176.81 1469.83,-178.48 1462.69,-170.65 1459.37,-176.81"/>
</g>
<!-- Node22 -->
<g id="node22" class="node">
<title>Node22</title>
<g id="a_node22"><a xlink:href="../../dd/d82/_active_current_sensor_8hpp.html" target="_top" xlink:title=" ">
<polygon fill="none" stroke="black" points="1432,-95 1432,-136 1580,-136 1580,-95 1432,-95"/>
<text text-anchor="start" x="1440" y="-124" font-family="Helvetica,sans-Serif" font-size="10.00">Components/Sensor/Active</text>
<text text-anchor="start" x="1440" y="-113" font-family="Helvetica,sans-Serif" font-size="10.00">CurrentSensor/include</text>
<text text-anchor="middle" x="1506" y="-102" font-family="Helvetica,sans-Serif" font-size="10.00">/ActiveCurrentSensor.hpp</text>
</a>
</g>
</g>
<!-- Node19&#45;&gt;Node22 -->
<g id="edge24" class="edge">
<title>Node19&#45;&gt;Node22</title>
<path fill="none" stroke="midnightblue" d="M1506,-168.06C1506,-157.38 1506,-145.63 1506,-136.05"/>
<polygon fill="midnightblue" stroke="midnightblue" points="1502.5,-168.27 1506,-178.27 1509.5,-168.27 1502.5,-168.27"/>
</g>
<!-- Node23 -->
<g id="node23" class="node">
<title>Node23</title>
<g id="a_node23"><a xlink:href="../../d2/d77/_active_current_sensor_8cpp.html" target="_top" xlink:title=" ">
<polygon fill="none" stroke="black" points="1419.5,-6 1419.5,-47 1592.5,-47 1592.5,-6 1419.5,-6"/>
<text text-anchor="start" x="1427.5" y="-35" font-family="Helvetica,sans-Serif" font-size="10.00">Components/Sensor/Active</text>
<text text-anchor="start" x="1427.5" y="-24" font-family="Helvetica,sans-Serif" font-size="10.00">CurrentSensor/src/ActiveCurrent</text>
<text text-anchor="middle" x="1506" y="-13" font-family="Helvetica,sans-Serif" font-size="10.00">Sensor.cpp</text>
</a>
</g>
</g>
<!-- Node22&#45;&gt;Node23 -->
<g id="edge25" class="edge">
<title>Node22&#45;&gt;Node23</title>
<path fill="none" stroke="midnightblue" d="M1506,-84.44C1506,-72.1 1506,-58.16 1506,-47.16"/>
<polygon fill="midnightblue" stroke="midnightblue" points="1502.5,-84.76 1506,-94.76 1509.5,-84.76 1502.5,-84.76"/>
</g>
</g>
</svg>
