<?xml version="1.0" encoding="UTF-8" standalone="no"?>
<!DOCTYPE svg PUBLIC "-//W3C//DTD SVG 1.1//EN"
 "http://www.w3.org/Graphics/SVG/1.1/DTD/svg11.dtd">
<!-- Generated by graphviz version 2.43.0 (0)
 -->
<!-- Title: QueryAddExternalResources Pages: 1 -->
<svg width="215pt" height="365pt"
 viewBox="0.00 0.00 215.00 365.00" xmlns="http://www.w3.org/2000/svg" xmlns:xlink="http://www.w3.org/1999/xlink">
<g id="graph0" class="graph" transform="scale(1 1) rotate(0) translate(4 361)">
<title>QueryAddExternalResources</title>
<!-- Node1 -->
<g id="node1" class="node">
<title>Node1</title>
<g id="a_node1"><a xlink:title=" ">
<polygon fill="#bfbfbf" stroke="black" points="0,-0.5 0,-90.5 182,-90.5 182,-0.5 0,-0.5"/>
<text text-anchor="middle" x="91" y="-78.5" font-family="Helvetica,sans-Serif" font-size="10.00">QueryAddExternalResources</text>
<polyline fill="none" stroke="black" points="0,-71.5 182,-71.5 "/>
<text text-anchor="middle" x="91" y="-59.5" font-family="Helvetica,sans-Serif" font-size="10.00"> </text>
<polyline fill="none" stroke="black" points="0,-52.5 182,-52.5 "/>
<text text-anchor="start" x="8" y="-40.5" font-family="Helvetica,sans-Serif" font-size="10.00">+ QueryAddExternalResources()</text>
<text text-anchor="start" x="8" y="-29.5" font-family="Helvetica,sans-Serif" font-size="10.00">+ ~QueryAddExternalResources()</text>
<text text-anchor="start" x="8" y="-18.5" font-family="Helvetica,sans-Serif" font-size="10.00">+ start()</text>
<text text-anchor="start" x="8" y="-7.5" font-family="Helvetica,sans-Serif" font-size="10.00">+ content()</text>
</a>
</g>
</g>
<!-- Node2 -->
<g id="node2" class="node">
<title>Node2</title>
<g id="a_node2"><a xlink:href="../../dd/de1/class_query_base.html" target="_top" xlink:title=" ">
<polygon fill="none" stroke="black" points="0,-128.5 0,-218.5 182,-218.5 182,-128.5 0,-128.5"/>
<text text-anchor="middle" x="91" y="-206.5" font-family="Helvetica,sans-Serif" font-size="10.00">QueryBase&lt; QueryURIMessage &gt;</text>
<polyline fill="none" stroke="black" points="0,-199.5 182,-199.5 "/>
<text text-anchor="middle" x="91" y="-187.5" font-family="Helvetica,sans-Serif" font-size="10.00"> </text>
<polyline fill="none" stroke="black" points="0,-180.5 182,-180.5 "/>
<text text-anchor="start" x="8" y="-168.5" font-family="Helvetica,sans-Serif" font-size="10.00">+ start()</text>
<text text-anchor="start" x="8" y="-157.5" font-family="Helvetica,sans-Serif" font-size="10.00">+ content()</text>
<text text-anchor="start" x="8" y="-146.5" font-family="Helvetica,sans-Serif" font-size="10.00">+ append()</text>
<text text-anchor="start" x="8" y="-135.5" font-family="Helvetica,sans-Serif" font-size="10.00">+ end()</text>
</a>
</g>
</g>
<!-- Node2&#45;&gt;Node1 -->
<g id="edge1" class="edge">
<title>Node2&#45;&gt;Node1</title>
<path fill="none" stroke="midnightblue" d="M91,-118.23C91,-109.06 91,-99.63 91,-90.76"/>
<polygon fill="none" stroke="midnightblue" points="87.5,-118.43 91,-128.43 94.5,-118.43 87.5,-118.43"/>
</g>
<!-- Node3 -->
<g id="node3" class="node">
<title>Node3</title>
<g id="a_node3"><a xlink:href="../../dd/de1/class_query_base.html" target="_top" xlink:title=" ">
<polygon fill="none" stroke="black" points="42,-266.5 42,-356.5 140,-356.5 140,-266.5 42,-266.5"/>
<text text-anchor="middle" x="91" y="-344.5" font-family="Helvetica,sans-Serif" font-size="10.00">QueryBase&lt; T &gt;</text>
<polyline fill="none" stroke="black" points="42,-337.5 140,-337.5 "/>
<text text-anchor="middle" x="91" y="-325.5" font-family="Helvetica,sans-Serif" font-size="10.00"> </text>
<polyline fill="none" stroke="black" points="42,-318.5 140,-318.5 "/>
<text text-anchor="start" x="50" y="-306.5" font-family="Helvetica,sans-Serif" font-size="10.00">+ start()</text>
<text text-anchor="start" x="50" y="-295.5" font-family="Helvetica,sans-Serif" font-size="10.00">+ content()</text>
<text text-anchor="start" x="50" y="-284.5" font-family="Helvetica,sans-Serif" font-size="10.00">+ append()</text>
<text text-anchor="start" x="50" y="-273.5" font-family="Helvetica,sans-Serif" font-size="10.00">+ end()</text>
</a>
</g>
</g>
<!-- Node3&#45;&gt;Node2 -->
<g id="edge2" class="edge">
<title>Node3&#45;&gt;Node2</title>
<path fill="none" stroke="orange" d="M91,-256.15C91,-243.78 91,-230.79 91,-218.9"/>
<polygon fill="orange" stroke="orange" points="87.5,-256.34 91,-266.34 94.5,-256.34 87.5,-256.34"/>
<text text-anchor="middle" x="149" y="-240" font-family="Helvetica,sans-Serif" font-size="10.00"> &lt; QueryURIMessage &gt;</text>
</g>
</g>
</svg>
