<?xml version="1.0" encoding="UTF-8" standalone="no"?>
<!DOCTYPE svg PUBLIC "-//W3C//DTD SVG 1.1//EN"
 "http://www.w3.org/Graphics/SVG/1.1/DTD/svg11.dtd">
<!-- Generated by graphviz version 2.43.0 (0)
 -->
<!-- Title: Components/Objects/Rulebase Pages: 1 -->
<svg width="281pt" height="375pt"
 viewBox="0.00 0.00 281.00 375.00" xmlns="http://www.w3.org/2000/svg" xmlns:xlink="http://www.w3.org/1999/xlink">
<g id="graph0" class="graph" transform="scale(1 1) rotate(0) translate(4 371)">
<title>Components/Objects/Rulebase</title>
<g id="clust1" class="cluster">
<title>clusterdir_a4226c5615a06a31e6344f5f3fd917e1</title>
<g id="a_clust1"><a xlink:href="dir_a4226c5615a06a31e6344f5f3fd917e1.html" target="_top" xlink:title="Objects">
<polygon fill="#ddddee" stroke="black" points="27,-200 27,-359 265,-359 265,-200 27,-200"/>
<text text-anchor="middle" x="146" y="-347" font-family="Helvetica,sans-Serif" font-size="10.00">Objects</text>
</a>
</g>
</g>
<g id="clust2" class="cluster">
<title>clusterdir_dc9b1272be60f48aebf9fcadde3772ad</title>
<g id="a_clust2"><a xlink:href="dir_dc9b1272be60f48aebf9fcadde3772ad.html" target="_top">
<polygon fill="#eeeeff" stroke="black" points="35,-208 35,-332 257,-332 257,-208 35,-208"/>
</a>
</g>
</g>
<!-- dir_dc9b1272be60f48aebf9fcadde3772ad -->
<g id="node1" class="node">
<title>dir_dc9b1272be60f48aebf9fcadde3772ad</title>
<text text-anchor="middle" x="218" y="-303.5" font-family="Helvetica,sans-Serif" font-size="10.00">Rulebase</text>
</g>
<!-- dir_ba259201a7d6f4a5cc06678328c2fd7e -->
<g id="node2" class="node">
<title>dir_ba259201a7d6f4a5cc06678328c2fd7e</title>
<g id="a_node2"><a xlink:href="dir_ba259201a7d6f4a5cc06678328c2fd7e.html" target="_top" xlink:title="include">
<polygon fill="white" stroke="black" points="133,-252 79,-252 79,-216 133,-216 133,-252"/>
<text text-anchor="middle" x="106" y="-231.5" font-family="Helvetica,sans-Serif" font-size="10.00">include</text>
</a>
</g>
</g>
<!-- dir_4816d2fb8abcfd1fbfb7e56b67e0baa1 -->
<g id="node5" class="node">
<title>dir_4816d2fb8abcfd1fbfb7e56b67e0baa1</title>
<g id="a_node5"><a xlink:href="dir_4816d2fb8abcfd1fbfb7e56b67e0baa1.html" target="_top" xlink:title="ErrorHandler">
<polygon fill="none" stroke="red" points="78,-180 0,-180 0,-144 78,-144 78,-180"/>
<text text-anchor="middle" x="39" y="-159.5" font-family="Helvetica,sans-Serif" font-size="10.00">ErrorHandler</text>
</a>
</g>
</g>
<!-- dir_ba259201a7d6f4a5cc06678328c2fd7e&#45;&gt;dir_4816d2fb8abcfd1fbfb7e56b67e0baa1 -->
<g id="edge4" class="edge">
<title>dir_ba259201a7d6f4a5cc06678328c2fd7e&#45;&gt;dir_4816d2fb8abcfd1fbfb7e56b67e0baa1</title>
<path fill="none" stroke="black" d="M89.44,-215.7C81.32,-207.22 71.41,-196.86 62.53,-187.58"/>
<polygon fill="black" stroke="black" points="64.81,-184.91 55.37,-180.1 59.76,-189.75 64.81,-184.91"/>
<g id="a_edge4&#45;headlabel"><a xlink:href="dir_000186_000023.html" target="_top" xlink:title="1">
<text text-anchor="middle" x="69.35" y="-183.04" font-family="Helvetica,sans-Serif" font-size="10.00">1</text>
</a>
</g>
</g>
<!-- dir_1a5504e72c2ab618c124e6472b08d26c -->
<g id="node6" class="node">
<title>dir_1a5504e72c2ab618c124e6472b08d26c</title>
<g id="a_node6"><a xlink:href="dir_1a5504e72c2ab618c124e6472b08d26c.html" target="_top" xlink:title="Global_Include">
<polygon fill="none" stroke="black" points="121.5,-36 32.5,-36 32.5,0 121.5,0 121.5,-36"/>
<text text-anchor="middle" x="77" y="-15.5" font-family="Helvetica,sans-Serif" font-size="10.00">Global_Include</text>
</a>
</g>
</g>
<!-- dir_ba259201a7d6f4a5cc06678328c2fd7e&#45;&gt;dir_1a5504e72c2ab618c124e6472b08d26c -->
<g id="edge5" class="edge">
<title>dir_ba259201a7d6f4a5cc06678328c2fd7e&#45;&gt;dir_1a5504e72c2ab618c124e6472b08d26c</title>
<path fill="none" stroke="black" d="M112.93,-215.9C124.06,-185.77 142.86,-121.7 124,-72 120.03,-61.54 112.95,-51.83 105.47,-43.65"/>
<polygon fill="black" stroke="black" points="107.77,-40.99 98.27,-36.3 102.77,-45.89 107.77,-40.99"/>
<g id="a_edge5&#45;headlabel"><a xlink:href="dir_000186_000123.html" target="_top" xlink:title="1">
<text text-anchor="middle" x="112.31" y="-39.07" font-family="Helvetica,sans-Serif" font-size="10.00">1</text>
</a>
</g>
</g>
<!-- dir_82ae37b9d9d4852b543931d9ede35f57 -->
<g id="node7" class="node">
<title>dir_82ae37b9d9d4852b543931d9ede35f57</title>
<g id="a_node7"><a xlink:href="dir_82ae37b9d9d4852b543931d9ede35f57.html" target="_top" xlink:title="Timeservice">
<polygon fill="none" stroke="red" points="115.5,-108 38.5,-108 38.5,-72 115.5,-72 115.5,-108"/>
<text text-anchor="middle" x="77" y="-87.5" font-family="Helvetica,sans-Serif" font-size="10.00">Timeservice</text>
</a>
</g>
</g>
<!-- dir_ba259201a7d6f4a5cc06678328c2fd7e&#45;&gt;dir_82ae37b9d9d4852b543931d9ede35f57 -->
<g id="edge6" class="edge">
<title>dir_ba259201a7d6f4a5cc06678328c2fd7e&#45;&gt;dir_82ae37b9d9d4852b543931d9ede35f57</title>
<path fill="none" stroke="black" d="M102.5,-215.87C97.54,-191.56 88.4,-146.82 82.52,-118.01"/>
<polygon fill="black" stroke="black" points="85.94,-117.29 80.51,-108.19 79.08,-118.69 85.94,-117.29"/>
<g id="a_edge6&#45;headlabel"><a xlink:href="dir_000186_000056.html" target="_top" xlink:title="1">
<text text-anchor="middle" x="89.44" y="-117.74" font-family="Helvetica,sans-Serif" font-size="10.00">1</text>
</a>
</g>
</g>
<!-- dir_061071469478edcd559adf4124911878 -->
<g id="node3" class="node">
<title>dir_061071469478edcd559adf4124911878</title>
<g id="a_node3"><a xlink:href="dir_061071469478edcd559adf4124911878.html" target="_top" xlink:title="src">
<polygon fill="white" stroke="black" points="169,-324 115,-324 115,-288 169,-288 169,-324"/>
<text text-anchor="middle" x="142" y="-303.5" font-family="Helvetica,sans-Serif" font-size="10.00">src</text>
</a>
</g>
</g>
<!-- dir_061071469478edcd559adf4124911878&#45;&gt;dir_ba259201a7d6f4a5cc06678328c2fd7e -->
<g id="edge1" class="edge">
<title>dir_061071469478edcd559adf4124911878&#45;&gt;dir_ba259201a7d6f4a5cc06678328c2fd7e</title>
<path fill="none" stroke="black" d="M133.1,-287.7C129,-279.73 124.05,-270.1 119.51,-261.26"/>
<polygon fill="black" stroke="black" points="122.48,-259.4 114.8,-252.1 116.26,-262.6 122.48,-259.4"/>
<g id="a_edge1&#45;headlabel"><a xlink:href="dir_000187_000186.html" target="_top" xlink:title="1">
<text text-anchor="middle" x="126.65" y="-258.79" font-family="Helvetica,sans-Serif" font-size="10.00">1</text>
</a>
</g>
</g>
<!-- dir_e3e329f89d55afad5387767ff8c7d014 -->
<g id="node4" class="node">
<title>dir_e3e329f89d55afad5387767ff8c7d014</title>
<g id="a_node4"><a xlink:href="dir_e3e329f89d55afad5387767ff8c7d014.html" target="_top" xlink:title="test">
<polygon fill="white" stroke="red" points="97,-324 43,-324 43,-288 97,-288 97,-324"/>
<text text-anchor="middle" x="70" y="-303.5" font-family="Helvetica,sans-Serif" font-size="10.00">test</text>
</a>
</g>
</g>
<!-- dir_e3e329f89d55afad5387767ff8c7d014&#45;&gt;dir_ba259201a7d6f4a5cc06678328c2fd7e -->
<g id="edge9" class="edge">
<title>dir_e3e329f89d55afad5387767ff8c7d014&#45;&gt;dir_ba259201a7d6f4a5cc06678328c2fd7e</title>
<path fill="none" stroke="black" d="M78.9,-287.7C83,-279.73 87.95,-270.1 92.49,-261.26"/>
<polygon fill="black" stroke="black" points="95.74,-262.6 97.2,-252.1 89.52,-259.4 95.74,-262.6"/>
<g id="a_edge9&#45;headlabel"><a xlink:href="dir_000054_000186.html" target="_top" xlink:title="1">
<text text-anchor="middle" x="96.62" y="-264.59" font-family="Helvetica,sans-Serif" font-size="10.00">1</text>
</a>
</g>
</g>
<!-- dir_4816d2fb8abcfd1fbfb7e56b67e0baa1&#45;&gt;dir_1a5504e72c2ab618c124e6472b08d26c -->
<g id="edge2" class="edge">
<title>dir_4816d2fb8abcfd1fbfb7e56b67e0baa1&#45;&gt;dir_1a5504e72c2ab618c124e6472b08d26c</title>
<path fill="none" stroke="black" d="M32.5,-144C26.51,-125.63 19.83,-95.79 29,-72 33.1,-61.36 40.44,-51.53 48.17,-43.3"/>
<polygon fill="black" stroke="black" points="50.67,-45.75 55.29,-36.21 45.73,-40.78 50.67,-45.75"/>
<g id="a_edge2&#45;headlabel"><a xlink:href="dir_000023_000123.html" target="_top" xlink:title="2">
<text text-anchor="middle" x="50.12" y="-47.79" font-family="Helvetica,sans-Serif" font-size="10.00">2</text>
</a>
</g>
</g>
<!-- dir_4816d2fb8abcfd1fbfb7e56b67e0baa1&#45;&gt;dir_82ae37b9d9d4852b543931d9ede35f57 -->
<g id="edge3" class="edge">
<title>dir_4816d2fb8abcfd1fbfb7e56b67e0baa1&#45;&gt;dir_82ae37b9d9d4852b543931d9ede35f57</title>
<path fill="none" stroke="black" d="M42.48,-143.7C46.06,-135.56 51.21,-125.69 56.51,-116.7"/>
<polygon fill="black" stroke="black" points="59.55,-118.45 61.82,-108.1 53.59,-114.78 59.55,-118.45"/>
<g id="a_edge3&#45;headlabel"><a xlink:href="dir_000023_000056.html" target="_top" xlink:title="1">
<text text-anchor="middle" x="60.07" y="-120.5" font-family="Helvetica,sans-Serif" font-size="10.00">1</text>
</a>
</g>
</g>
<!-- dir_82ae37b9d9d4852b543931d9ede35f57&#45;&gt;dir_4816d2fb8abcfd1fbfb7e56b67e0baa1 -->
<g id="edge7" class="edge">
<title>dir_82ae37b9d9d4852b543931d9ede35f57&#45;&gt;dir_4816d2fb8abcfd1fbfb7e56b67e0baa1</title>
<path fill="none" stroke="black" d="M73.61,-108.1C70.06,-116.21 64.92,-126.08 59.62,-135.08"/>
<polygon fill="black" stroke="black" points="56.57,-133.35 54.31,-143.7 62.53,-137.02 56.57,-133.35"/>
<g id="a_edge7&#45;headlabel"><a xlink:href="dir_000056_000023.html" target="_top" xlink:title="2">
<text text-anchor="middle" x="56.04" y="-126.3" font-family="Helvetica,sans-Serif" font-size="10.00">2</text>
</a>
</g>
</g>
<!-- dir_82ae37b9d9d4852b543931d9ede35f57&#45;&gt;dir_1a5504e72c2ab618c124e6472b08d26c -->
<g id="edge8" class="edge">
<title>dir_82ae37b9d9d4852b543931d9ede35f57&#45;&gt;dir_1a5504e72c2ab618c124e6472b08d26c</title>
<path fill="none" stroke="black" d="M77,-71.7C77,-63.98 77,-54.71 77,-46.11"/>
<polygon fill="black" stroke="black" points="80.5,-46.1 77,-36.1 73.5,-46.1 80.5,-46.1"/>
<g id="a_edge8&#45;headlabel"><a xlink:href="dir_000056_000123.html" target="_top" xlink:title="2">
<text text-anchor="middle" x="83.34" y="-47.2" font-family="Helvetica,sans-Serif" font-size="10.00">2</text>
</a>
</g>
</g>
</g>
</svg>
