<?xml version="1.0" encoding="UTF-8" standalone="no"?>
<!DOCTYPE svg PUBLIC "-//W3C//DTD SVG 1.1//EN"
 "http://www.w3.org/Graphics/SVG/1.1/DTD/svg11.dtd">
<!-- Generated by graphviz version 2.43.0 (0)
 -->
<!-- Title: Components/Objects/Maintainer Pages: 1 -->
<!--zoomable 591 -->
<svg id="main" version="1.1" xmlns="http://www.w3.org/2000/svg" xmlns:xlink="http://www.w3.org/1999/xlink" xml:space="preserve" onload="init(evt)">
<style type="text/css"><![CDATA[
.edge:hover path { stroke: red; }
.edge:hover polygon { stroke: red; fill: red; }
]]></style>
<script type="text/javascript"><![CDATA[
var edges = document.getElementsByTagName('g');
if (edges && edges.length) {
  for (var i=0;i<edges.length;i++) {
    if (edges[i].id.substr(0,4)=='edge') {
      edges[i].setAttribute('class','edge');
    }
  }
}
]]></script>
        <defs>
                <circle id="rim" cx="0" cy="0" r="7"/>
                <circle id="rim2" cx="0" cy="0" r="3.5"/>
                <g id="zoomPlus">
                        <use xlink:href="#rim" fill="#404040">
                                <set attributeName="fill" to="#808080" begin="zoomplus.mouseover" end="zoomplus.mouseout"/>
                        </use>
                        <path d="M-4,0h8M0,-4v8" fill="none" stroke="white" stroke-width="1.5" pointer-events="none"/>
                </g>
                <g id="zoomMin">
                        <use xlink:href="#rim" fill="#404040">
                                <set attributeName="fill" to="#808080" begin="zoomminus.mouseover" end="zoomminus.mouseout"/>
                        </use>
                        <path d="M-4,0h8" fill="none" stroke="white" stroke-width="1.5" pointer-events="none"/>
                </g>
                <g id="dirArrow">
                        <path fill="none" stroke="white" stroke-width="1.5" d="M0,-3.0v7 M-2.5,-0.5L0,-3.0L2.5,-0.5"/>
                </g>
               <g id="resetDef">
                       <use xlink:href="#rim2" fill="#404040">
                               <set attributeName="fill" to="#808080" begin="reset.mouseover" end="reset.mouseout"/>
                       </use>
               </g>
        </defs>

<script type="text/javascript">
var viewWidth = 403;
var viewHeight = 591;
var sectionId = 'dynsection-0';
</script>
<script xlink:href="svgpan.js"/>
<svg id="graph" class="graph">
<g id="viewport">
<title>Components/Objects/Maintainer</title>
<g id="clust1" class="cluster">
<title>clusterdir_a4226c5615a06a31e6344f5f3fd917e1</title>
<g id="a_clust1"><a xlink:href="dir_a4226c5615a06a31e6344f5f3fd917e1.html" target="_top" xlink:title="Objects">
<polygon fill="#ddddee" stroke="black" points="141.22,-416 141.22,-575 387.22,-575 387.22,-416 141.22,-416"/>
<text text-anchor="middle" x="264.22" y="-563" font-family="Helvetica,sans-Serif" font-size="10.00">Objects</text>
</a>
</g>
</g>
<g id="clust2" class="cluster">
<title>clusterdir_c562692df1ba95c82b91dbfdfaa5b2ff</title>
<g id="a_clust2"><a xlink:href="dir_c562692df1ba95c82b91dbfdfaa5b2ff.html" target="_top">
<polygon fill="#eeeeff" stroke="black" points="149.22,-424 149.22,-548 379.22,-548 379.22,-424 149.22,-424"/>
</a>
</g>
</g>
<!-- dir_c562692df1ba95c82b91dbfdfaa5b2ff -->
<g id="node1" class="node">
<title>dir_c562692df1ba95c82b91dbfdfaa5b2ff</title>
<text text-anchor="middle" x="336.22" y="-519.5" font-family="Helvetica,sans-Serif" font-size="10.00">Maintainer</text>
</g>
<!-- dir_8b8599f8856b4d1446653a790f5ca47f -->
<g id="node2" class="node">
<title>dir_8b8599f8856b4d1446653a790f5ca47f</title>
<g id="a_node2"><a xlink:href="dir_8b8599f8856b4d1446653a790f5ca47f.html" target="_top" xlink:title="include">
<polygon fill="white" stroke="black" points="247.22,-468 193.22,-468 193.22,-432 247.22,-432 247.22,-468"/>
<text text-anchor="middle" x="220.22" y="-447.5" font-family="Helvetica,sans-Serif" font-size="10.00">include</text>
</a>
</g>
</g>
<!-- dir_e64cbc928f36aa6d8866af1b55c205ef -->
<g id="node5" class="node">
<title>dir_e64cbc928f36aa6d8866af1b55c205ef</title>
<g id="a_node5"><a xlink:href="dir_e64cbc928f36aa6d8866af1b55c205ef.html" target="_top" xlink:title="FaultHandler">
<polygon fill="none" stroke="red" points="108.22,-396 30.22,-396 30.22,-360 108.22,-360 108.22,-396"/>
<text text-anchor="middle" x="69.22" y="-375.5" font-family="Helvetica,sans-Serif" font-size="10.00">FaultHandler</text>
</a>
</g>
</g>
<!-- dir_8b8599f8856b4d1446653a790f5ca47f&#45;&gt;dir_e64cbc928f36aa6d8866af1b55c205ef -->
<g id="edge11" class="edge">
<title>dir_8b8599f8856b4d1446653a790f5ca47f&#45;&gt;dir_e64cbc928f36aa6d8866af1b55c205ef</title>
<path fill="none" stroke="black" d="M192.87,-436.32C171.23,-426.29 140.51,-412.05 115.11,-400.27"/>
<polygon fill="black" stroke="black" points="116.57,-397.09 106.02,-396.06 113.62,-403.44 116.57,-397.09"/>
<g id="a_edge11&#45;headlabel"><a xlink:href="dir_000167_000026.html" target="_top" xlink:title="1">
<text text-anchor="middle" x="121.02" y="-393.53" font-family="Helvetica,sans-Serif" font-size="10.00">1</text>
</a>
</g>
</g>
<!-- dir_d2942b6148df0ab9010d67087a1cea59 -->
<g id="node6" class="node">
<title>dir_d2942b6148df0ab9010d67087a1cea59</title>
<g id="a_node6"><a xlink:href="dir_d2942b6148df0ab9010d67087a1cea59.html" target="_top" xlink:title="OTA">
<polygon fill="none" stroke="red" points="275.22,-180 221.22,-180 221.22,-144 275.22,-144 275.22,-180"/>
<text text-anchor="middle" x="248.22" y="-159.5" font-family="Helvetica,sans-Serif" font-size="10.00">OTA</text>
</a>
</g>
</g>
<!-- dir_8b8599f8856b4d1446653a790f5ca47f&#45;&gt;dir_d2942b6148df0ab9010d67087a1cea59 -->
<g id="edge12" class="edge">
<title>dir_8b8599f8856b4d1446653a790f5ca47f&#45;&gt;dir_d2942b6148df0ab9010d67087a1cea59</title>
<path fill="none" stroke="black" d="M222.3,-431.62C225.17,-407.49 230.39,-362.46 234.22,-324 238.86,-277.3 243.42,-222.89 246.01,-190.78"/>
<polygon fill="black" stroke="black" points="249.54,-190.65 246.85,-180.41 242.56,-190.09 249.54,-190.65"/>
<g id="a_edge12&#45;headlabel"><a xlink:href="dir_000167_000044.html" target="_top" xlink:title="1">
<text text-anchor="middle" x="252.08" y="-191.96" font-family="Helvetica,sans-Serif" font-size="10.00">1</text>
</a>
</g>
</g>
<!-- dir_4ca6fec43e1013816363be86d31756d6 -->
<g id="node7" class="node">
<title>dir_4ca6fec43e1013816363be86d31756d6</title>
<g id="a_node7"><a xlink:href="dir_4ca6fec43e1013816363be86d31756d6.html" target="_top" xlink:title="Connector">
<polygon fill="none" stroke="red" points="192.22,-396 126.22,-396 126.22,-360 192.22,-360 192.22,-396"/>
<text text-anchor="middle" x="159.22" y="-375.5" font-family="Helvetica,sans-Serif" font-size="10.00">Connector</text>
</a>
</g>
</g>
<!-- dir_8b8599f8856b4d1446653a790f5ca47f&#45;&gt;dir_4ca6fec43e1013816363be86d31756d6 -->
<g id="edge13" class="edge">
<title>dir_8b8599f8856b4d1446653a790f5ca47f&#45;&gt;dir_4ca6fec43e1013816363be86d31756d6</title>
<path fill="none" stroke="black" d="M205.14,-431.7C197.83,-423.3 188.91,-413.07 180.88,-403.86"/>
<polygon fill="black" stroke="black" points="183.33,-401.34 174.12,-396.1 178.06,-405.94 183.33,-401.34"/>
<g id="a_edge13&#45;headlabel"><a xlink:href="dir_000167_000015.html" target="_top" xlink:title="1">
<text text-anchor="middle" x="187.84" y="-399.69" font-family="Helvetica,sans-Serif" font-size="10.00">1</text>
</a>
</g>
</g>
<!-- dir_4816d2fb8abcfd1fbfb7e56b67e0baa1 -->
<g id="node8" class="node">
<title>dir_4816d2fb8abcfd1fbfb7e56b67e0baa1</title>
<g id="a_node8"><a xlink:href="dir_4816d2fb8abcfd1fbfb7e56b67e0baa1.html" target="_top" xlink:title="ErrorHandler">
<polygon fill="none" stroke="red" points="225.22,-324 147.22,-324 147.22,-288 225.22,-288 225.22,-324"/>
<text text-anchor="middle" x="186.22" y="-303.5" font-family="Helvetica,sans-Serif" font-size="10.00">ErrorHandler</text>
</a>
</g>
</g>
<!-- dir_8b8599f8856b4d1446653a790f5ca47f&#45;&gt;dir_4816d2fb8abcfd1fbfb7e56b67e0baa1 -->
<g id="edge14" class="edge">
<title>dir_8b8599f8856b4d1446653a790f5ca47f&#45;&gt;dir_4816d2fb8abcfd1fbfb7e56b67e0baa1</title>
<path fill="none" stroke="black" d="M216.91,-431.86C213.35,-413.88 207.38,-384.84 201.22,-360 199.09,-351.42 196.55,-342.13 194.16,-333.76"/>
<polygon fill="black" stroke="black" points="197.51,-332.74 191.37,-324.11 190.79,-334.69 197.51,-332.74"/>
<g id="a_edge14&#45;headlabel"><a xlink:href="dir_000167_000023.html" target="_top" xlink:title="2">
<text text-anchor="middle" x="201.24" y="-332.91" font-family="Helvetica,sans-Serif" font-size="10.00">2</text>
</a>
</g>
</g>
<!-- dir_1a5504e72c2ab618c124e6472b08d26c -->
<g id="node9" class="node">
<title>dir_1a5504e72c2ab618c124e6472b08d26c</title>
<g id="a_node9"><a xlink:href="dir_1a5504e72c2ab618c124e6472b08d26c.html" target="_top" xlink:title="Global_Include">
<polygon fill="none" stroke="black" points="188.72,-36 99.72,-36 99.72,0 188.72,0 188.72,-36"/>
<text text-anchor="middle" x="144.22" y="-15.5" font-family="Helvetica,sans-Serif" font-size="10.00">Global_Include</text>
</a>
</g>
</g>
<!-- dir_8b8599f8856b4d1446653a790f5ca47f&#45;&gt;dir_1a5504e72c2ab618c124e6472b08d26c -->
<g id="edge15" class="edge">
<title>dir_8b8599f8856b4d1446653a790f5ca47f&#45;&gt;dir_1a5504e72c2ab618c124e6472b08d26c</title>
<path fill="none" stroke="black" d="M193.18,-445.33C144.46,-438.16 44.81,-420.8 21.22,-396 -6.66,-366.69 2.22,-347.45 2.22,-307 2.22,-307 2.22,-307 2.22,-161 2.22,-105.62 56.89,-64.29 98.39,-40.9"/>
<polygon fill="black" stroke="black" points="100.18,-43.91 107.28,-36.05 96.83,-37.77 100.18,-43.91"/>
<g id="a_edge15&#45;headlabel"><a xlink:href="dir_000167_000125.html" target="_top" xlink:title="2">
<text text-anchor="middle" x="98.39" y="-45.63" font-family="Helvetica,sans-Serif" font-size="10.00">2</text>
</a>
</g>
</g>
<!-- dir_4d0b0adf7e9fb892c3df556e9cbb05d0 -->
<g id="node10" class="node">
<title>dir_4d0b0adf7e9fb892c3df556e9cbb05d0</title>
<g id="a_node10"><a xlink:href="dir_4d0b0adf7e9fb892c3df556e9cbb05d0.html" target="_top" xlink:title="Protocols">
<polygon fill="none" stroke="red" points="348.22,-252 286.22,-252 286.22,-216 348.22,-216 348.22,-252"/>
<text text-anchor="middle" x="317.22" y="-231.5" font-family="Helvetica,sans-Serif" font-size="10.00">Protocols</text>
</a>
</g>
</g>
<!-- dir_8b8599f8856b4d1446653a790f5ca47f&#45;&gt;dir_4d0b0adf7e9fb892c3df556e9cbb05d0 -->
<g id="edge16" class="edge">
<title>dir_8b8599f8856b4d1446653a790f5ca47f&#45;&gt;dir_4d0b0adf7e9fb892c3df556e9cbb05d0</title>
<path fill="none" stroke="black" d="M241.58,-431.83C252.17,-422.29 264.35,-409.61 272.22,-396 297.12,-352.92 308.85,-295.33 313.89,-261.99"/>
<polygon fill="black" stroke="black" points="317.35,-262.46 315.29,-252.07 310.42,-261.48 317.35,-262.46"/>
<g id="a_edge16&#45;headlabel"><a xlink:href="dir_000167_000064.html" target="_top" xlink:title="1">
<text text-anchor="middle" x="319.66" y="-263.92" font-family="Helvetica,sans-Serif" font-size="10.00">1</text>
</a>
</g>
</g>
<!-- dir_6a49a4a01df89ea000e629175e7db917 -->
<g id="node11" class="node">
<title>dir_6a49a4a01df89ea000e629175e7db917</title>
<g id="a_node11"><a xlink:href="dir_6a49a4a01df89ea000e629175e7db917.html" target="_top" xlink:title="RTOS">
<polygon fill="none" stroke="red" points="275.22,-108 221.22,-108 221.22,-72 275.22,-72 275.22,-108"/>
<text text-anchor="middle" x="248.22" y="-87.5" font-family="Helvetica,sans-Serif" font-size="10.00">RTOS</text>
</a>
</g>
</g>
<!-- dir_8b8599f8856b4d1446653a790f5ca47f&#45;&gt;dir_6a49a4a01df89ea000e629175e7db917 -->
<g id="edge17" class="edge">
<title>dir_8b8599f8856b4d1446653a790f5ca47f&#45;&gt;dir_6a49a4a01df89ea000e629175e7db917</title>
<path fill="none" stroke="black" d="M247.39,-438.84C292.09,-420.16 376.22,-375.85 376.22,-307 376.22,-307 376.22,-307 376.22,-233 376.22,-177.69 321.98,-134.22 284.12,-110.61"/>
<polygon fill="black" stroke="black" points="285.73,-107.5 275.36,-105.32 282.11,-113.49 285.73,-107.5"/>
<g id="a_edge17&#45;headlabel"><a xlink:href="dir_000167_000071.html" target="_top" xlink:title="1">
<text text-anchor="middle" x="290.28" y="-104.43" font-family="Helvetica,sans-Serif" font-size="10.00">1</text>
</a>
</g>
</g>
<!-- dir_40964ce11dc14dca7093559234f330b0 -->
<g id="node3" class="node">
<title>dir_40964ce11dc14dca7093559234f330b0</title>
<g id="a_node3"><a xlink:href="dir_40964ce11dc14dca7093559234f330b0.html" target="_top" xlink:title="src">
<polygon fill="white" stroke="black" points="283.22,-540 229.22,-540 229.22,-504 283.22,-504 283.22,-540"/>
<text text-anchor="middle" x="256.22" y="-519.5" font-family="Helvetica,sans-Serif" font-size="10.00">src</text>
</a>
</g>
</g>
<!-- dir_40964ce11dc14dca7093559234f330b0&#45;&gt;dir_8b8599f8856b4d1446653a790f5ca47f -->
<g id="edge22" class="edge">
<title>dir_40964ce11dc14dca7093559234f330b0&#45;&gt;dir_8b8599f8856b4d1446653a790f5ca47f</title>
<path fill="none" stroke="black" d="M247.32,-503.7C243.22,-495.73 238.27,-486.1 233.73,-477.26"/>
<polygon fill="black" stroke="black" points="236.7,-475.4 229.02,-468.1 230.48,-478.6 236.7,-475.4"/>
<g id="a_edge22&#45;headlabel"><a xlink:href="dir_000168_000167.html" target="_top" xlink:title="1">
<text text-anchor="middle" x="240.87" y="-474.79" font-family="Helvetica,sans-Serif" font-size="10.00">1</text>
</a>
</g>
</g>
<!-- dir_5b1310601d07fb3d3a2527009f9f9c7a -->
<g id="node4" class="node">
<title>dir_5b1310601d07fb3d3a2527009f9f9c7a</title>
<g id="a_node4"><a xlink:href="dir_5b1310601d07fb3d3a2527009f9f9c7a.html" target="_top" xlink:title="test">
<polygon fill="white" stroke="red" points="211.22,-540 157.22,-540 157.22,-504 211.22,-504 211.22,-540"/>
<text text-anchor="middle" x="184.22" y="-519.5" font-family="Helvetica,sans-Serif" font-size="10.00">test</text>
</a>
</g>
</g>
<!-- dir_5b1310601d07fb3d3a2527009f9f9c7a&#45;&gt;dir_8b8599f8856b4d1446653a790f5ca47f -->
<g id="edge10" class="edge">
<title>dir_5b1310601d07fb3d3a2527009f9f9c7a&#45;&gt;dir_8b8599f8856b4d1446653a790f5ca47f</title>
<path fill="none" stroke="black" d="M193.12,-503.7C197.22,-495.73 202.17,-486.1 206.71,-477.26"/>
<polygon fill="black" stroke="black" points="209.96,-478.6 211.42,-468.1 203.74,-475.4 209.96,-478.6"/>
<g id="a_edge10&#45;headlabel"><a xlink:href="dir_000039_000167.html" target="_top" xlink:title="1">
<text text-anchor="middle" x="210.84" y="-480.59" font-family="Helvetica,sans-Serif" font-size="10.00">1</text>
</a>
</g>
</g>
<!-- dir_e64cbc928f36aa6d8866af1b55c205ef&#45;&gt;dir_4816d2fb8abcfd1fbfb7e56b67e0baa1 -->
<g id="edge1" class="edge">
<title>dir_e64cbc928f36aa6d8866af1b55c205ef&#45;&gt;dir_4816d2fb8abcfd1fbfb7e56b67e0baa1</title>
<path fill="none" stroke="black" d="M97.84,-359.88C113.14,-350.72 132.16,-339.34 148.64,-329.48"/>
<polygon fill="black" stroke="black" points="150.7,-332.33 157.49,-324.19 147.11,-326.32 150.7,-332.33"/>
<g id="a_edge1&#45;headlabel"><a xlink:href="dir_000026_000023.html" target="_top" xlink:title="1">
<text text-anchor="middle" x="149.08" y="-334.11" font-family="Helvetica,sans-Serif" font-size="10.00">1</text>
</a>
</g>
</g>
<!-- dir_e64cbc928f36aa6d8866af1b55c205ef&#45;&gt;dir_1a5504e72c2ab618c124e6472b08d26c -->
<g id="edge2" class="edge">
<title>dir_e64cbc928f36aa6d8866af1b55c205ef&#45;&gt;dir_1a5504e72c2ab618c124e6472b08d26c</title>
<path fill="none" stroke="black" d="M69.02,-359.95C68.73,-333.29 68.22,-280.12 68.22,-235 68.22,-235 68.22,-235 68.22,-161 68.22,-115.64 98.74,-70.75 121.09,-43.95"/>
<polygon fill="black" stroke="black" points="123.86,-46.09 127.73,-36.23 118.56,-41.53 123.86,-46.09"/>
<g id="a_edge2&#45;headlabel"><a xlink:href="dir_000026_000125.html" target="_top" xlink:title="1">
<text text-anchor="middle" x="123.67" y="-48.17" font-family="Helvetica,sans-Serif" font-size="10.00">1</text>
</a>
</g>
</g>
<!-- dir_d2942b6148df0ab9010d67087a1cea59&#45;&gt;dir_4816d2fb8abcfd1fbfb7e56b67e0baa1 -->
<g id="edge3" class="edge">
<title>dir_d2942b6148df0ab9010d67087a1cea59&#45;&gt;dir_4816d2fb8abcfd1fbfb7e56b67e0baa1</title>
<path fill="none" stroke="black" d="M240.71,-180.19C230.04,-204.64 210.38,-249.67 197.82,-278.44"/>
<polygon fill="black" stroke="black" points="194.49,-277.31 193.7,-287.87 200.91,-280.11 194.49,-277.31"/>
<g id="a_edge3&#45;headlabel"><a xlink:href="dir_000044_000023.html" target="_top" xlink:title="1">
<text text-anchor="middle" x="193.33" y="-270.38" font-family="Helvetica,sans-Serif" font-size="10.00">1</text>
</a>
</g>
</g>
<!-- dir_d2942b6148df0ab9010d67087a1cea59&#45;&gt;dir_1a5504e72c2ab618c124e6472b08d26c -->
<g id="edge4" class="edge">
<title>dir_d2942b6148df0ab9010d67087a1cea59&#45;&gt;dir_1a5504e72c2ab618c124e6472b08d26c</title>
<path fill="none" stroke="black" d="M235.67,-143.87C217.56,-119.14 183.95,-73.24 162.9,-44.51"/>
<polygon fill="black" stroke="black" points="165.54,-42.19 156.81,-36.19 159.89,-46.33 165.54,-42.19"/>
<g id="a_edge4&#45;headlabel"><a xlink:href="dir_000044_000125.html" target="_top" xlink:title="1">
<text text-anchor="middle" x="169.96" y="-40.91" font-family="Helvetica,sans-Serif" font-size="10.00">1</text>
</a>
</g>
</g>
<!-- dir_d2942b6148df0ab9010d67087a1cea59&#45;&gt;dir_6a49a4a01df89ea000e629175e7db917 -->
<g id="edge5" class="edge">
<title>dir_d2942b6148df0ab9010d67087a1cea59&#45;&gt;dir_6a49a4a01df89ea000e629175e7db917</title>
<path fill="none" stroke="black" d="M248.22,-143.7C248.22,-135.98 248.22,-126.71 248.22,-118.11"/>
<polygon fill="black" stroke="black" points="251.72,-118.1 248.22,-108.1 244.72,-118.1 251.72,-118.1"/>
<g id="a_edge5&#45;headlabel"><a xlink:href="dir_000044_000071.html" target="_top" xlink:title="1">
<text text-anchor="middle" x="254.56" y="-119.2" font-family="Helvetica,sans-Serif" font-size="10.00">1</text>
</a>
</g>
</g>
<!-- dir_4ca6fec43e1013816363be86d31756d6&#45;&gt;dir_4816d2fb8abcfd1fbfb7e56b67e0baa1 -->
<g id="edge6" class="edge">
<title>dir_4ca6fec43e1013816363be86d31756d6&#45;&gt;dir_4816d2fb8abcfd1fbfb7e56b67e0baa1</title>
<path fill="none" stroke="black" d="M165.89,-359.7C168.93,-351.81 172.6,-342.3 175.98,-333.55"/>
<polygon fill="black" stroke="black" points="179.29,-334.69 179.62,-324.1 172.76,-332.17 179.29,-334.69"/>
<g id="a_edge6&#45;headlabel"><a xlink:href="dir_000015_000023.html" target="_top" xlink:title="4">
<text text-anchor="middle" x="180.64" y="-336.57" font-family="Helvetica,sans-Serif" font-size="10.00">4</text>
</a>
</g>
</g>
<!-- dir_4ca6fec43e1013816363be86d31756d6&#45;&gt;dir_1a5504e72c2ab618c124e6472b08d26c -->
<g id="edge7" class="edge">
<title>dir_4ca6fec43e1013816363be86d31756d6&#45;&gt;dir_1a5504e72c2ab618c124e6472b08d26c</title>
<path fill="none" stroke="black" d="M148.24,-359.84C132.71,-333.89 106.22,-282.63 106.22,-235 106.22,-235 106.22,-235 106.22,-161 106.22,-119.63 121.45,-73.72 132.63,-45.61"/>
<polygon fill="black" stroke="black" points="135.98,-46.67 136.53,-36.09 129.5,-44.02 135.98,-46.67"/>
<g id="a_edge7&#45;headlabel"><a xlink:href="dir_000015_000125.html" target="_top" xlink:title="4">
<text text-anchor="middle" x="137.24" y="-48.58" font-family="Helvetica,sans-Serif" font-size="10.00">4</text>
</a>
</g>
</g>
<!-- dir_4816d2fb8abcfd1fbfb7e56b67e0baa1&#45;&gt;dir_1a5504e72c2ab618c124e6472b08d26c -->
<g id="edge8" class="edge">
<title>dir_4816d2fb8abcfd1fbfb7e56b67e0baa1&#45;&gt;dir_1a5504e72c2ab618c124e6472b08d26c</title>
<path fill="none" stroke="black" d="M183.72,-287.97C176.7,-240.19 156.79,-104.62 148.22,-46.27"/>
<polygon fill="black" stroke="black" points="151.68,-45.69 146.76,-36.31 144.75,-46.71 151.68,-45.69"/>
<g id="a_edge8&#45;headlabel"><a xlink:href="dir_000023_000125.html" target="_top" xlink:title="2">
<text text-anchor="middle" x="155.01" y="-46.34" font-family="Helvetica,sans-Serif" font-size="10.00">2</text>
</a>
</g>
</g>
<!-- dir_4816d2fb8abcfd1fbfb7e56b67e0baa1&#45;&gt;dir_4d0b0adf7e9fb892c3df556e9cbb05d0 -->
<g id="edge9" class="edge">
<title>dir_4816d2fb8abcfd1fbfb7e56b67e0baa1&#45;&gt;dir_4d0b0adf7e9fb892c3df556e9cbb05d0</title>
<path fill="none" stroke="black" d="M212.37,-287.88C230.93,-277.37 256.06,-263.92 277.11,-253.22"/>
<polygon fill="black" stroke="black" points="278.8,-256.29 286.16,-248.67 275.65,-250.04 278.8,-256.29"/>
<g id="a_edge9&#45;headlabel"><a xlink:href="dir_000023_000064.html" target="_top" xlink:title="1">
<text text-anchor="middle" x="276.86" y="-257.94" font-family="Helvetica,sans-Serif" font-size="10.00">1</text>
</a>
</g>
</g>
<!-- dir_4d0b0adf7e9fb892c3df556e9cbb05d0&#45;&gt;dir_d2942b6148df0ab9010d67087a1cea59 -->
<g id="edge18" class="edge">
<title>dir_4d0b0adf7e9fb892c3df556e9cbb05d0&#45;&gt;dir_d2942b6148df0ab9010d67087a1cea59</title>
<path fill="none" stroke="black" d="M300.16,-215.7C291.72,-207.14 281.39,-196.66 272.18,-187.3"/>
<polygon fill="black" stroke="black" points="274.59,-184.77 265.08,-180.1 269.61,-189.68 274.59,-184.77"/>
<g id="a_edge18&#45;headlabel"><a xlink:href="dir_000064_000044.html" target="_top" xlink:title="1">
<text text-anchor="middle" x="279.14" y="-182.84" font-family="Helvetica,sans-Serif" font-size="10.00">1</text>
</a>
</g>
</g>
<!-- dir_4d0b0adf7e9fb892c3df556e9cbb05d0&#45;&gt;dir_4816d2fb8abcfd1fbfb7e56b67e0baa1 -->
<g id="edge19" class="edge">
<title>dir_4d0b0adf7e9fb892c3df556e9cbb05d0&#45;&gt;dir_4816d2fb8abcfd1fbfb7e56b67e0baa1</title>
<path fill="none" stroke="black" d="M290.95,-252.19C274.38,-261.57 252.62,-273.26 233.19,-283.27"/>
<polygon fill="black" stroke="black" points="231.48,-280.21 224.16,-287.88 234.66,-286.45 231.48,-280.21"/>
<g id="a_edge19&#45;headlabel"><a xlink:href="dir_000064_000023.html" target="_top" xlink:title="11">
<text text-anchor="middle" x="233.39" y="-273.55" font-family="Helvetica,sans-Serif" font-size="10.00">11</text>
</a>
</g>
</g>
<!-- dir_4d0b0adf7e9fb892c3df556e9cbb05d0&#45;&gt;dir_1a5504e72c2ab618c124e6472b08d26c -->
<g id="edge20" class="edge">
<title>dir_4d0b0adf7e9fb892c3df556e9cbb05d0&#45;&gt;dir_1a5504e72c2ab618c124e6472b08d26c</title>
<path fill="none" stroke="black" d="M319.05,-215.85C321.5,-183.29 321.87,-112.19 284.22,-72 261.89,-48.16 227.74,-34.96 198.76,-27.69"/>
<polygon fill="black" stroke="black" points="199.29,-24.22 188.75,-25.36 197.7,-31.03 199.29,-24.22"/>
<g id="a_edge20&#45;headlabel"><a xlink:href="dir_000064_000125.html" target="_top" xlink:title="11">
<text text-anchor="middle" x="203.43" y="-19.77" font-family="Helvetica,sans-Serif" font-size="10.00">11</text>
</a>
</g>
</g>
<!-- dir_4d0b0adf7e9fb892c3df556e9cbb05d0&#45;&gt;dir_6a49a4a01df89ea000e629175e7db917 -->
<g id="edge21" class="edge">
<title>dir_4d0b0adf7e9fb892c3df556e9cbb05d0&#45;&gt;dir_6a49a4a01df89ea000e629175e7db917</title>
<path fill="none" stroke="black" d="M312.19,-215.75C306.54,-197.43 296.52,-167.88 284.22,-144 279.38,-134.61 273.17,-124.89 267.28,-116.38"/>
<polygon fill="black" stroke="black" points="269.98,-114.13 261.33,-108.01 264.27,-118.18 269.98,-114.13"/>
<g id="a_edge21&#45;headlabel"><a xlink:href="dir_000064_000071.html" target="_top" xlink:title="3">
<text text-anchor="middle" x="274.37" y="-112.91" font-family="Helvetica,sans-Serif" font-size="10.00">3</text>
</a>
</g>
</g>
<!-- dir_6a49a4a01df89ea000e629175e7db917&#45;&gt;dir_4816d2fb8abcfd1fbfb7e56b67e0baa1 -->
<g id="edge23" class="edge">
<title>dir_6a49a4a01df89ea000e629175e7db917&#45;&gt;dir_4816d2fb8abcfd1fbfb7e56b67e0baa1</title>
<path fill="none" stroke="black" d="M233.8,-108.05C226.2,-117.93 217.4,-130.98 212.22,-144 194.46,-188.68 188.82,-244.92 187.04,-277.73"/>
<polygon fill="black" stroke="black" points="183.53,-277.76 186.57,-287.91 190.52,-278.08 183.53,-277.76"/>
<g id="a_edge23&#45;headlabel"><a xlink:href="dir_000071_000023.html" target="_top" xlink:title="2">
<text text-anchor="middle" x="180.86" y="-271.53" font-family="Helvetica,sans-Serif" font-size="10.00">2</text>
</a>
</g>
</g>
<!-- dir_6a49a4a01df89ea000e629175e7db917&#45;&gt;dir_1a5504e72c2ab618c124e6472b08d26c -->
<g id="edge24" class="edge">
<title>dir_6a49a4a01df89ea000e629175e7db917&#45;&gt;dir_1a5504e72c2ab618c124e6472b08d26c</title>
<path fill="none" stroke="black" d="M222.78,-71.88C209.43,-62.89 192.89,-51.76 178.44,-42.03"/>
<polygon fill="black" stroke="black" points="180.01,-38.87 169.76,-36.19 176.1,-44.68 180.01,-38.87"/>
<g id="a_edge24&#45;headlabel"><a xlink:href="dir_000071_000125.html" target="_top" xlink:title="2">
<text text-anchor="middle" x="184.58" y="-36.02" font-family="Helvetica,sans-Serif" font-size="10.00">2</text>
</a>
</g>
</g>
</g>
</svg>
        <g id="navigator" transform="translate(0 0)" fill="#404254">
                <rect fill="#f2f5e9" fill-opacity="0.5" stroke="#606060" stroke-width=".5" x="0" y="0" width="60" height="60"/>
                <use id="zoomplus" xlink:href="#zoomPlus" x="17" y="9" onmousedown="handleZoom(evt,'in')"/>
                <use id="zoomminus" xlink:href="#zoomMin" x="42" y="9" onmousedown="handleZoom(evt,'out')"/>
                <use id="reset" xlink:href="#resetDef" x="30" y="36" onmousedown="handleReset()"/>
                <g id="arrowUp" xlink:href="#dirArrow" transform="translate(30 24)" onmousedown="handlePan(0,-1)">
                  <use xlink:href="#rim" fill="#404040">
                        <set attributeName="fill" to="#808080" begin="arrowUp.mouseover" end="arrowUp.mouseout"/>
                  </use>
                  <path fill="none" stroke="white" stroke-width="1.5" d="M0,-3.0v7 M-2.5,-0.5L0,-3.0L2.5,-0.5"/>
                </g>
                <g id="arrowRight" xlink:href="#dirArrow" transform="rotate(90) translate(36 -43)" onmousedown="handlePan(1,0)">
                  <use xlink:href="#rim" fill="#404040">
                        <set attributeName="fill" to="#808080" begin="arrowRight.mouseover" end="arrowRight.mouseout"/>
                  </use>
                  <path fill="none" stroke="white" stroke-width="1.5" d="M0,-3.0v7 M-2.5,-0.5L0,-3.0L2.5,-0.5"/>
                </g>
                <g id="arrowDown" xlink:href="#dirArrow" transform="rotate(180) translate(-30 -48)" onmousedown="handlePan(0,1)">
                  <use xlink:href="#rim" fill="#404040">
                        <set attributeName="fill" to="#808080" begin="arrowDown.mouseover" end="arrowDown.mouseout"/>
                  </use>
                  <path fill="none" stroke="white" stroke-width="1.5" d="M0,-3.0v7 M-2.5,-0.5L0,-3.0L2.5,-0.5"/>
                </g>
                <g id="arrowLeft" xlink:href="#dirArrow" transform="rotate(270) translate(-36 17)" onmousedown="handlePan(-1,0)">
                  <use xlink:href="#rim" fill="#404040">
                        <set attributeName="fill" to="#808080" begin="arrowLeft.mouseover" end="arrowLeft.mouseout"/>
                  </use>
                  <path fill="none" stroke="white" stroke-width="1.5" d="M0,-3.0v7 M-2.5,-0.5L0,-3.0L2.5,-0.5"/>
                </g>
        </g>
        <svg viewBox="0 0 15 15" width="100%" height="30px" preserveAspectRatio="xMaxYMin meet">
         <g id="arrow_out" transform="scale(0.3 0.3)">
          <a xlink:href="dir_c562692df1ba95c82b91dbfdfaa5b2ff_dep_org.svg" target="_base">
           <rect id="button" ry="5" rx="5" y="6" x="6" height="38" width="38"
                fill="#f2f5e9" fill-opacity="0.5" stroke="#606060" stroke-width="1.0"/>
           <path id="arrow"
             d="M 11.500037,31.436501 C 11.940474,20.09759 22.043105,11.32322 32.158766,21.979434 L 37.068811,17.246167 C 37.068811,17.246167 37.088388,32 37.088388,32 L 22.160133,31.978069 C 22.160133,31.978069 26.997745,27.140456 26.997745,27.140456 C 18.528582,18.264221 13.291696,25.230495 11.500037,31.436501 z"
             style="fill:#404040;"/>
          </a>
         </g>
        </svg>
</svg>
