<?xml version="1.0" encoding="UTF-8" standalone="no"?>
<!DOCTYPE svg PUBLIC "-//W3C//DTD SVG 1.1//EN"
 "http://www.w3.org/Graphics/SVG/1.1/DTD/svg11.dtd">
<!-- Generated by graphviz version 2.43.0 (0)
 -->
<!-- Title: Components/AnalysisTools/PeriodEstimator Pages: 1 -->
<svg width="228pt" height="303pt"
 viewBox="0.00 0.00 228.00 303.00" xmlns="http://www.w3.org/2000/svg" xmlns:xlink="http://www.w3.org/1999/xlink">
<g id="graph0" class="graph" transform="scale(1 1) rotate(0) translate(4 299)">
<title>Components/AnalysisTools/PeriodEstimator</title>
<g id="clust1" class="cluster">
<title>clusterdir_1666c5f4940eb69dc85cb0f1045c5123</title>
<g id="a_clust1"><a xlink:href="dir_1666c5f4940eb69dc85cb0f1045c5123.html" target="_top" xlink:title="AnalysisTools">
<polygon fill="#ddddee" stroke="black" points="12,-128 12,-287 212,-287 212,-128 12,-128"/>
<text text-anchor="middle" x="112" y="-275" font-family="Helvetica,sans-Serif" font-size="10.00">AnalysisTools</text>
</a>
</g>
</g>
<g id="clust2" class="cluster">
<title>clusterdir_7a386a64b272c5c9e40d61f81ff2b07d</title>
<g id="a_clust2"><a xlink:href="dir_7a386a64b272c5c9e40d61f81ff2b07d.html" target="_top">
<polygon fill="#eeeeff" stroke="black" points="20,-136 20,-260 204,-260 204,-136 20,-136"/>
</a>
</g>
</g>
<!-- dir_7a386a64b272c5c9e40d61f81ff2b07d -->
<g id="node1" class="node">
<title>dir_7a386a64b272c5c9e40d61f81ff2b07d</title>
<text text-anchor="middle" x="148" y="-231.5" font-family="Helvetica,sans-Serif" font-size="10.00">PeriodEstimator</text>
</g>
<!-- dir_a79d76113c180eaa9105496f8aed9949 -->
<g id="node2" class="node">
<title>dir_a79d76113c180eaa9105496f8aed9949</title>
<g id="a_node2"><a xlink:href="dir_a79d76113c180eaa9105496f8aed9949.html" target="_top" xlink:title="include">
<polygon fill="white" stroke="black" points="82,-180 28,-180 28,-144 82,-144 82,-180"/>
<text text-anchor="middle" x="55" y="-159.5" font-family="Helvetica,sans-Serif" font-size="10.00">include</text>
</a>
</g>
</g>
<!-- dir_a4226c5615a06a31e6344f5f3fd917e1 -->
<g id="node4" class="node">
<title>dir_a4226c5615a06a31e6344f5f3fd917e1</title>
<g id="a_node4"><a xlink:href="dir_a4226c5615a06a31e6344f5f3fd917e1.html" target="_top" xlink:title="Objects">
<polygon fill="none" stroke="red" points="54,-108 0,-108 0,-72 54,-72 54,-108"/>
<text text-anchor="middle" x="27" y="-87.5" font-family="Helvetica,sans-Serif" font-size="10.00">Objects</text>
</a>
</g>
</g>
<!-- dir_a79d76113c180eaa9105496f8aed9949&#45;&gt;dir_a4226c5615a06a31e6344f5f3fd917e1 -->
<g id="edge2" class="edge">
<title>dir_a79d76113c180eaa9105496f8aed9949&#45;&gt;dir_a4226c5615a06a31e6344f5f3fd917e1</title>
<path fill="none" stroke="black" d="M48.08,-143.7C44.93,-135.81 41.12,-126.3 37.62,-117.55"/>
<polygon fill="black" stroke="black" points="40.81,-116.09 33.84,-108.1 34.31,-118.69 40.81,-116.09"/>
<g id="a_edge2&#45;headlabel"><a xlink:href="dir_000121_000016.html" target="_top" xlink:title="2">
<text text-anchor="middle" x="44.78" y="-115.87" font-family="Helvetica,sans-Serif" font-size="10.00">2</text>
</a>
</g>
</g>
<!-- dir_1a5504e72c2ab618c124e6472b08d26c -->
<g id="node5" class="node">
<title>dir_1a5504e72c2ab618c124e6472b08d26c</title>
<g id="a_node5"><a xlink:href="dir_1a5504e72c2ab618c124e6472b08d26c.html" target="_top" xlink:title="Global_Include">
<polygon fill="none" stroke="black" points="98.5,-36 9.5,-36 9.5,0 98.5,0 98.5,-36"/>
<text text-anchor="middle" x="54" y="-15.5" font-family="Helvetica,sans-Serif" font-size="10.00">Global_Include</text>
</a>
</g>
</g>
<!-- dir_a79d76113c180eaa9105496f8aed9949&#45;&gt;dir_1a5504e72c2ab618c124e6472b08d26c -->
<g id="edge3" class="edge">
<title>dir_a79d76113c180eaa9105496f8aed9949&#45;&gt;dir_1a5504e72c2ab618c124e6472b08d26c</title>
<path fill="none" stroke="black" d="M58.25,-143.89C60.05,-133.54 62.09,-120.06 63,-108 64.2,-92.04 64.34,-87.94 63,-72 62.28,-63.5 60.93,-54.31 59.49,-46.01"/>
<polygon fill="black" stroke="black" points="62.91,-45.29 57.65,-36.09 56.03,-46.56 62.91,-45.29"/>
<g id="a_edge3&#45;headlabel"><a xlink:href="dir_000121_000135.html" target="_top" xlink:title="1">
<text text-anchor="middle" x="66.36" y="-45.81" font-family="Helvetica,sans-Serif" font-size="10.00">1</text>
</a>
</g>
</g>
<!-- dir_48c580d7938e7a45613789650333d3a3 -->
<g id="node3" class="node">
<title>dir_48c580d7938e7a45613789650333d3a3</title>
<g id="a_node3"><a xlink:href="dir_48c580d7938e7a45613789650333d3a3.html" target="_top" xlink:title="test">
<polygon fill="white" stroke="red" points="82,-252 28,-252 28,-216 82,-216 82,-252"/>
<text text-anchor="middle" x="55" y="-231.5" font-family="Helvetica,sans-Serif" font-size="10.00">test</text>
</a>
</g>
</g>
<!-- dir_48c580d7938e7a45613789650333d3a3&#45;&gt;dir_a79d76113c180eaa9105496f8aed9949 -->
<g id="edge4" class="edge">
<title>dir_48c580d7938e7a45613789650333d3a3&#45;&gt;dir_a79d76113c180eaa9105496f8aed9949</title>
<path fill="none" stroke="black" d="M55,-215.7C55,-207.98 55,-198.71 55,-190.11"/>
<polygon fill="black" stroke="black" points="58.5,-190.1 55,-180.1 51.5,-190.1 58.5,-190.1"/>
<g id="a_edge4&#45;headlabel"><a xlink:href="dir_000086_000121.html" target="_top" xlink:title="1">
<text text-anchor="middle" x="61.34" y="-191.2" font-family="Helvetica,sans-Serif" font-size="10.00">1</text>
</a>
</g>
</g>
<!-- dir_a4226c5615a06a31e6344f5f3fd917e1&#45;&gt;dir_1a5504e72c2ab618c124e6472b08d26c -->
<g id="edge1" class="edge">
<title>dir_a4226c5615a06a31e6344f5f3fd917e1&#45;&gt;dir_1a5504e72c2ab618c124e6472b08d26c</title>
<path fill="none" stroke="black" d="M33.67,-71.7C36.71,-63.81 40.38,-54.3 43.76,-45.55"/>
<polygon fill="black" stroke="black" points="47.07,-46.69 47.4,-36.1 40.54,-44.17 47.07,-46.69"/>
<g id="a_edge1&#45;headlabel"><a xlink:href="dir_000016_000135.html" target="_top" xlink:title="26">
<text text-anchor="middle" x="48.42" y="-48.57" font-family="Helvetica,sans-Serif" font-size="10.00">26</text>
</a>
</g>
</g>
</g>
</svg>
