<?xml version="1.0" encoding="UTF-8" standalone="no"?>
<!DOCTYPE svg PUBLIC "-//W3C//DTD SVG 1.1//EN"
 "http://www.w3.org/Graphics/SVG/1.1/DTD/svg11.dtd">
<!-- Generated by graphviz version 2.43.0 (0)
 -->
<!-- Title: Components/Sensor Pages: 1 -->
<svg width="386pt" height="447pt"
 viewBox="0.00 0.00 386.00 447.00" xmlns="http://www.w3.org/2000/svg" xmlns:xlink="http://www.w3.org/1999/xlink">
<g id="graph0" class="graph" transform="scale(1 1) rotate(0) translate(4 443)">
<title>Components/Sensor</title>
<g id="clust1" class="cluster">
<title>clusterdir_08f45fe6822aeb4ce2bc268e3b1361be</title>
<g id="a_clust1"><a xlink:href="dir_08f45fe6822aeb4ce2bc268e3b1361be.html" target="_top" xlink:title="Components">
<polygon fill="#ddddee" stroke="black" points="64,-344 64,-431 370,-431 370,-344 64,-344"/>
<text text-anchor="middle" x="217" y="-419" font-family="Helvetica,sans-Serif" font-size="10.00">Components</text>
</a>
</g>
</g>
<g id="clust2" class="cluster">
<title>clusterdir_82d83c9747486c2eb8d3c4c8f409d82b</title>
<g id="a_clust2"><a xlink:href="dir_82d83c9747486c2eb8d3c4c8f409d82b.html" target="_top">
<polygon fill="#eeeeff" stroke="black" points="72,-352 72,-404 362,-404 362,-352 72,-352"/>
</a>
</g>
</g>
<!-- dir_82d83c9747486c2eb8d3c4c8f409d82b -->
<g id="node1" class="node">
<title>dir_82d83c9747486c2eb8d3c4c8f409d82b</title>
<text text-anchor="middle" x="327" y="-375.5" font-family="Helvetica,sans-Serif" font-size="10.00">Sensor</text>
</g>
<!-- dir_20a8a0908d2b372c47a0aaef4f37025f -->
<g id="node2" class="node">
<title>dir_20a8a0908d2b372c47a0aaef4f37025f</title>
<g id="a_node2"><a xlink:href="dir_20a8a0908d2b372c47a0aaef4f37025f.html" target="_top" xlink:title="ActiveCurrentSensor">
<polygon fill="white" stroke="red" points="282,-396 166,-396 166,-360 282,-360 282,-396"/>
<text text-anchor="middle" x="224" y="-375.5" font-family="Helvetica,sans-Serif" font-size="10.00">ActiveCurrentSensor</text>
</a>
</g>
</g>
<!-- dir_a4226c5615a06a31e6344f5f3fd917e1 -->
<g id="node4" class="node">
<title>dir_a4226c5615a06a31e6344f5f3fd917e1</title>
<g id="a_node4"><a xlink:href="dir_a4226c5615a06a31e6344f5f3fd917e1.html" target="_top" xlink:title="Objects">
<polygon fill="none" stroke="red" points="201,-324 147,-324 147,-288 201,-288 201,-324"/>
<text text-anchor="middle" x="174" y="-303.5" font-family="Helvetica,sans-Serif" font-size="10.00">Objects</text>
</a>
</g>
</g>
<!-- dir_20a8a0908d2b372c47a0aaef4f37025f&#45;&gt;dir_a4226c5615a06a31e6344f5f3fd917e1 -->
<g id="edge5" class="edge">
<title>dir_20a8a0908d2b372c47a0aaef4f37025f&#45;&gt;dir_a4226c5615a06a31e6344f5f3fd917e1</title>
<path fill="none" stroke="black" d="M211.64,-359.7C205.77,-351.47 198.63,-341.48 192.16,-332.42"/>
<polygon fill="black" stroke="black" points="194.88,-330.21 186.22,-324.1 189.18,-334.28 194.88,-330.21"/>
<g id="a_edge5&#45;headlabel"><a xlink:href="dir_000072_000015.html" target="_top" xlink:title="4">
<text text-anchor="middle" x="199.28" y="-328.98" font-family="Helvetica,sans-Serif" font-size="10.00">4</text>
</a>
</g>
</g>
<!-- dir_1a5504e72c2ab618c124e6472b08d26c -->
<g id="node5" class="node">
<title>dir_1a5504e72c2ab618c124e6472b08d26c</title>
<g id="a_node5"><a xlink:href="dir_1a5504e72c2ab618c124e6472b08d26c.html" target="_top" xlink:title="Global_Include">
<polygon fill="none" stroke="black" points="157.5,-36 68.5,-36 68.5,0 157.5,0 157.5,-36"/>
<text text-anchor="middle" x="113" y="-15.5" font-family="Helvetica,sans-Serif" font-size="10.00">Global_Include</text>
</a>
</g>
</g>
<!-- dir_20a8a0908d2b372c47a0aaef4f37025f&#45;&gt;dir_1a5504e72c2ab618c124e6472b08d26c -->
<g id="edge6" class="edge">
<title>dir_20a8a0908d2b372c47a0aaef4f37025f&#45;&gt;dir_1a5504e72c2ab618c124e6472b08d26c</title>
<path fill="none" stroke="black" d="M190.95,-359.98C128.64,-327.36 0,-257.33 0,-235 0,-235 0,-235 0,-161 0,-110.17 44.88,-67.01 78.07,-42.04"/>
<polygon fill="black" stroke="black" points="80.21,-44.82 86.22,-36.09 76.08,-39.16 80.21,-44.82"/>
<g id="a_edge6&#45;headlabel"><a xlink:href="dir_000072_000108.html" target="_top" xlink:title="1">
<text text-anchor="middle" x="78.98" y="-46.73" font-family="Helvetica,sans-Serif" font-size="10.00">1</text>
</a>
</g>
</g>
<!-- dir_4d0b0adf7e9fb892c3df556e9cbb05d0 -->
<g id="node6" class="node">
<title>dir_4d0b0adf7e9fb892c3df556e9cbb05d0</title>
<g id="a_node6"><a xlink:href="dir_4d0b0adf7e9fb892c3df556e9cbb05d0.html" target="_top" xlink:title="Protocols">
<polygon fill="none" stroke="red" points="260,-252 198,-252 198,-216 260,-216 260,-252"/>
<text text-anchor="middle" x="229" y="-231.5" font-family="Helvetica,sans-Serif" font-size="10.00">Protocols</text>
</a>
</g>
</g>
<!-- dir_20a8a0908d2b372c47a0aaef4f37025f&#45;&gt;dir_4d0b0adf7e9fb892c3df556e9cbb05d0 -->
<g id="edge7" class="edge">
<title>dir_20a8a0908d2b372c47a0aaef4f37025f&#45;&gt;dir_4d0b0adf7e9fb892c3df556e9cbb05d0</title>
<path fill="none" stroke="black" d="M224.6,-359.87C225.46,-335.67 227.02,-291.21 228.04,-262.39"/>
<polygon fill="black" stroke="black" points="231.54,-262.31 228.39,-252.19 224.54,-262.06 231.54,-262.31"/>
<g id="a_edge7&#45;headlabel"><a xlink:href="dir_000072_000060.html" target="_top" xlink:title="2">
<text text-anchor="middle" x="234.25" y="-263.5" font-family="Helvetica,sans-Serif" font-size="10.00">2</text>
</a>
</g>
</g>
<!-- dir_6a49a4a01df89ea000e629175e7db917 -->
<g id="node8" class="node">
<title>dir_6a49a4a01df89ea000e629175e7db917</title>
<g id="a_node8"><a xlink:href="dir_6a49a4a01df89ea000e629175e7db917.html" target="_top" xlink:title="RTOS">
<polygon fill="none" stroke="red" points="309,-108 255,-108 255,-72 309,-72 309,-108"/>
<text text-anchor="middle" x="282" y="-87.5" font-family="Helvetica,sans-Serif" font-size="10.00">RTOS</text>
</a>
</g>
</g>
<!-- dir_20a8a0908d2b372c47a0aaef4f37025f&#45;&gt;dir_6a49a4a01df89ea000e629175e7db917 -->
<g id="edge8" class="edge">
<title>dir_20a8a0908d2b372c47a0aaef4f37025f&#45;&gt;dir_6a49a4a01df89ea000e629175e7db917</title>
<path fill="none" stroke="black" d="M237.28,-359.86C254.51,-336.71 284.24,-293.56 300,-252 311.53,-221.6 310.1,-212.39 313,-180 314.43,-164.06 317.18,-159.44 313,-144 310.42,-134.48 305.66,-124.92 300.62,-116.59"/>
<polygon fill="black" stroke="black" points="303.51,-114.6 295.15,-108.09 297.62,-118.39 303.51,-114.6"/>
<g id="a_edge8&#45;headlabel"><a xlink:href="dir_000072_000067.html" target="_top" xlink:title="2">
<text text-anchor="middle" x="307.84" y="-113.58" font-family="Helvetica,sans-Serif" font-size="10.00">2</text>
</a>
</g>
</g>
<!-- dir_b1c1a9b11fc461873ed40d62ec58e0b3 -->
<g id="node3" class="node">
<title>dir_b1c1a9b11fc461873ed40d62ec58e0b3</title>
<g id="a_node3"><a xlink:href="dir_b1c1a9b11fc461873ed40d62ec58e0b3.html" target="_top" xlink:title="RpiCamV2">
<polygon fill="white" stroke="red" points="148,-396 80,-396 80,-360 148,-360 148,-396"/>
<text text-anchor="middle" x="114" y="-375.5" font-family="Helvetica,sans-Serif" font-size="10.00">RpiCamV2</text>
</a>
</g>
</g>
<!-- dir_b1c1a9b11fc461873ed40d62ec58e0b3&#45;&gt;dir_a4226c5615a06a31e6344f5f3fd917e1 -->
<g id="edge13" class="edge">
<title>dir_b1c1a9b11fc461873ed40d62ec58e0b3&#45;&gt;dir_a4226c5615a06a31e6344f5f3fd917e1</title>
<path fill="none" stroke="black" d="M128.83,-359.7C136.02,-351.3 144.8,-341.07 152.69,-331.86"/>
<polygon fill="black" stroke="black" points="155.49,-333.97 159.34,-324.1 150.17,-329.42 155.49,-333.97"/>
<g id="a_edge13&#45;headlabel"><a xlink:href="dir_000075_000015.html" target="_top" xlink:title="1">
<text text-anchor="middle" x="155.31" y="-336.05" font-family="Helvetica,sans-Serif" font-size="10.00">1</text>
</a>
</g>
</g>
<!-- dir_b1c1a9b11fc461873ed40d62ec58e0b3&#45;&gt;dir_1a5504e72c2ab618c124e6472b08d26c -->
<g id="edge14" class="edge">
<title>dir_b1c1a9b11fc461873ed40d62ec58e0b3&#45;&gt;dir_1a5504e72c2ab618c124e6472b08d26c</title>
<path fill="none" stroke="black" d="M97.51,-359.77C75.16,-334.53 38,-285.05 38,-235 38,-235 38,-235 38,-161 38,-115.77 68.12,-70.85 90.18,-44"/>
<polygon fill="black" stroke="black" points="92.94,-46.16 96.73,-36.27 87.59,-41.64 92.94,-46.16"/>
<g id="a_edge14&#45;headlabel"><a xlink:href="dir_000075_000108.html" target="_top" xlink:title="1">
<text text-anchor="middle" x="92.78" y="-48.24" font-family="Helvetica,sans-Serif" font-size="10.00">1</text>
</a>
</g>
</g>
<!-- dir_e185953657720ba3a67126696ef566c7 -->
<g id="node7" class="node">
<title>dir_e185953657720ba3a67126696ef566c7</title>
<g id="a_node7"><a xlink:href="dir_e185953657720ba3a67126696ef566c7.html" target="_top" xlink:title="Interfaces">
<polygon fill="none" stroke="red" points="183.5,-180 118.5,-180 118.5,-144 183.5,-144 183.5,-180"/>
<text text-anchor="middle" x="151" y="-159.5" font-family="Helvetica,sans-Serif" font-size="10.00">Interfaces</text>
</a>
</g>
</g>
<!-- dir_b1c1a9b11fc461873ed40d62ec58e0b3&#45;&gt;dir_e185953657720ba3a67126696ef566c7 -->
<g id="edge15" class="edge">
<title>dir_b1c1a9b11fc461873ed40d62ec58e0b3&#45;&gt;dir_e185953657720ba3a67126696ef566c7</title>
<path fill="none" stroke="black" d="M116.97,-359.85C123.38,-322.75 138.58,-234.81 146.31,-190.1"/>
<polygon fill="black" stroke="black" points="149.77,-190.68 148.02,-180.23 142.87,-189.49 149.77,-190.68"/>
<g id="a_edge15&#45;headlabel"><a xlink:href="dir_000075_000092.html" target="_top" xlink:title="1">
<text text-anchor="middle" x="151.95" y="-192.21" font-family="Helvetica,sans-Serif" font-size="10.00">1</text>
</a>
</g>
</g>
<!-- dir_a4226c5615a06a31e6344f5f3fd917e1&#45;&gt;dir_1a5504e72c2ab618c124e6472b08d26c -->
<g id="edge1" class="edge">
<title>dir_a4226c5615a06a31e6344f5f3fd917e1&#45;&gt;dir_1a5504e72c2ab618c124e6472b08d26c</title>
<path fill="none" stroke="black" d="M161.65,-287.87C145.81,-264.73 119.16,-221.58 109,-180 97.79,-134.12 103.11,-78.7 108.03,-46.3"/>
<polygon fill="black" stroke="black" points="111.52,-46.67 109.66,-36.24 104.61,-45.55 111.52,-46.67"/>
<g id="a_edge1&#45;headlabel"><a xlink:href="dir_000015_000108.html" target="_top" xlink:title="22">
<text text-anchor="middle" x="113.75" y="-48.17" font-family="Helvetica,sans-Serif" font-size="10.00">22</text>
</a>
</g>
</g>
<!-- dir_a4226c5615a06a31e6344f5f3fd917e1&#45;&gt;dir_4d0b0adf7e9fb892c3df556e9cbb05d0 -->
<g id="edge2" class="edge">
<title>dir_a4226c5615a06a31e6344f5f3fd917e1&#45;&gt;dir_4d0b0adf7e9fb892c3df556e9cbb05d0</title>
<path fill="none" stroke="black" d="M181.68,-287.7C187.41,-279.3 195.26,-269.07 202.97,-259.86"/>
<polygon fill="black" stroke="black" points="205.78,-261.96 209.67,-252.1 200.48,-257.39 205.78,-261.96"/>
<g id="a_edge2&#45;headlabel"><a xlink:href="dir_000015_000060.html" target="_top" xlink:title="3">
<text text-anchor="middle" x="205.59" y="-264.04" font-family="Helvetica,sans-Serif" font-size="10.00">3</text>
</a>
</g>
</g>
<!-- dir_a4226c5615a06a31e6344f5f3fd917e1&#45;&gt;dir_e185953657720ba3a67126696ef566c7 -->
<g id="edge3" class="edge">
<title>dir_a4226c5615a06a31e6344f5f3fd917e1&#45;&gt;dir_e185953657720ba3a67126696ef566c7</title>
<path fill="none" stroke="black" d="M166.64,-287.87C160.16,-263.67 152.67,-219.21 149.98,-190.39"/>
<polygon fill="black" stroke="black" points="153.45,-189.89 149.19,-180.19 146.47,-190.43 153.45,-189.89"/>
<g id="a_edge3&#45;headlabel"><a xlink:href="dir_000015_000092.html" target="_top" xlink:title="7">
<text text-anchor="middle" x="156.56" y="-190.76" font-family="Helvetica,sans-Serif" font-size="10.00">7</text>
</a>
</g>
</g>
<!-- dir_a4226c5615a06a31e6344f5f3fd917e1&#45;&gt;dir_6a49a4a01df89ea000e629175e7db917 -->
<g id="edge4" class="edge">
<title>dir_a4226c5615a06a31e6344f5f3fd917e1&#45;&gt;dir_6a49a4a01df89ea000e629175e7db917</title>
<path fill="none" stroke="black" d="M201.13,-294.87C220.93,-286.81 246.32,-273.29 260,-252 286.13,-211.34 282.97,-152.46 280.86,-118.31"/>
<polygon fill="black" stroke="black" points="284.34,-117.93 280.25,-108.15 277.36,-118.34 284.34,-117.93"/>
<g id="a_edge4&#45;headlabel"><a xlink:href="dir_000015_000067.html" target="_top" xlink:title="4">
<text text-anchor="middle" x="287.39" y="-118.84" font-family="Helvetica,sans-Serif" font-size="10.00">4</text>
</a>
</g>
</g>
<!-- dir_4d0b0adf7e9fb892c3df556e9cbb05d0&#45;&gt;dir_a4226c5615a06a31e6344f5f3fd917e1 -->
<g id="edge9" class="edge">
<title>dir_4d0b0adf7e9fb892c3df556e9cbb05d0&#45;&gt;dir_a4226c5615a06a31e6344f5f3fd917e1</title>
<path fill="none" stroke="black" d="M221.46,-252.1C215.76,-260.47 207.93,-270.69 200.21,-279.92"/>
<polygon fill="black" stroke="black" points="197.38,-277.84 193.51,-287.7 202.69,-282.4 197.38,-277.84"/>
<g id="a_edge9&#45;headlabel"><a xlink:href="dir_000060_000015.html" target="_top" xlink:title="11">
<text text-anchor="middle" x="197.58" y="-270.76" font-family="Helvetica,sans-Serif" font-size="10.00">11</text>
</a>
</g>
</g>
<!-- dir_4d0b0adf7e9fb892c3df556e9cbb05d0&#45;&gt;dir_1a5504e72c2ab618c124e6472b08d26c -->
<g id="edge10" class="edge">
<title>dir_4d0b0adf7e9fb892c3df556e9cbb05d0&#45;&gt;dir_1a5504e72c2ab618c124e6472b08d26c</title>
<path fill="none" stroke="black" d="M222.87,-215.88C216.13,-197.67 204.57,-168.21 192,-144 173.46,-108.28 148.01,-69.44 131.06,-44.69"/>
<polygon fill="black" stroke="black" points="133.79,-42.48 125.22,-36.24 128.02,-46.46 133.79,-42.48"/>
<g id="a_edge10&#45;headlabel"><a xlink:href="dir_000060_000108.html" target="_top" xlink:title="8">
<text text-anchor="middle" x="138.16" y="-41.33" font-family="Helvetica,sans-Serif" font-size="10.00">8</text>
</a>
</g>
</g>
<!-- dir_4d0b0adf7e9fb892c3df556e9cbb05d0&#45;&gt;dir_e185953657720ba3a67126696ef566c7 -->
<g id="edge11" class="edge">
<title>dir_4d0b0adf7e9fb892c3df556e9cbb05d0&#45;&gt;dir_e185953657720ba3a67126696ef566c7</title>
<path fill="none" stroke="black" d="M203.8,-215.7C193.38,-207.14 181.52,-196.66 171.62,-187.3"/>
<polygon fill="black" stroke="black" points="173.79,-184.53 164.16,-180.1 168.93,-189.57 173.79,-184.53"/>
<g id="a_edge11&#45;headlabel"><a xlink:href="dir_000060_000092.html" target="_top" xlink:title="3">
<text text-anchor="middle" x="178.35" y="-182.49" font-family="Helvetica,sans-Serif" font-size="10.00">3</text>
</a>
</g>
</g>
<!-- dir_4d0b0adf7e9fb892c3df556e9cbb05d0&#45;&gt;dir_6a49a4a01df89ea000e629175e7db917 -->
<g id="edge12" class="edge">
<title>dir_4d0b0adf7e9fb892c3df556e9cbb05d0&#45;&gt;dir_6a49a4a01df89ea000e629175e7db917</title>
<path fill="none" stroke="black" d="M235.39,-215.87C244.51,-191.46 261.31,-146.43 272.06,-117.64"/>
<polygon fill="black" stroke="black" points="275.37,-118.78 275.58,-108.19 268.81,-116.33 275.37,-118.78"/>
<g id="a_edge12&#45;headlabel"><a xlink:href="dir_000060_000067.html" target="_top" xlink:title="3">
<text text-anchor="middle" x="276.77" y="-120.64" font-family="Helvetica,sans-Serif" font-size="10.00">3</text>
</a>
</g>
</g>
<!-- dir_e185953657720ba3a67126696ef566c7&#45;&gt;dir_a4226c5615a06a31e6344f5f3fd917e1 -->
<g id="edge16" class="edge">
<title>dir_e185953657720ba3a67126696ef566c7&#45;&gt;dir_a4226c5615a06a31e6344f5f3fd917e1</title>
<path fill="none" stroke="black" d="M158.38,-180.19C164.86,-204.42 172.34,-248.89 175.03,-277.68"/>
<polygon fill="black" stroke="black" points="171.56,-278.17 175.81,-287.87 178.54,-277.63 171.56,-278.17"/>
<g id="a_edge16&#45;headlabel"><a xlink:href="dir_000092_000015.html" target="_top" xlink:title="16">
<text text-anchor="middle" x="168.45" y="-272.3" font-family="Helvetica,sans-Serif" font-size="10.00">16</text>
</a>
</g>
</g>
<!-- dir_e185953657720ba3a67126696ef566c7&#45;&gt;dir_1a5504e72c2ab618c124e6472b08d26c -->
<g id="edge17" class="edge">
<title>dir_e185953657720ba3a67126696ef566c7&#45;&gt;dir_1a5504e72c2ab618c124e6472b08d26c</title>
<path fill="none" stroke="black" d="M146.42,-143.87C139.91,-119.56 127.94,-74.82 120.23,-46.01"/>
<polygon fill="black" stroke="black" points="123.57,-44.94 117.6,-36.19 116.8,-46.75 123.57,-44.94"/>
<g id="a_edge17&#45;headlabel"><a xlink:href="dir_000092_000108.html" target="_top" xlink:title="10">
<text text-anchor="middle" x="127.24" y="-45.18" font-family="Helvetica,sans-Serif" font-size="10.00">10</text>
</a>
</g>
</g>
<!-- dir_e185953657720ba3a67126696ef566c7&#45;&gt;dir_4d0b0adf7e9fb892c3df556e9cbb05d0 -->
<g id="edge18" class="edge">
<title>dir_e185953657720ba3a67126696ef566c7&#45;&gt;dir_4d0b0adf7e9fb892c3df556e9cbb05d0</title>
<path fill="none" stroke="black" d="M175.95,-180.1C186.35,-188.64 198.22,-199.11 208.15,-208.48"/>
<polygon fill="black" stroke="black" points="206.01,-211.27 215.63,-215.7 210.87,-206.24 206.01,-211.27"/>
<g id="a_edge18&#45;headlabel"><a xlink:href="dir_000092_000060.html" target="_top" xlink:title="2">
<text text-anchor="middle" x="201.45" y="-208.32" font-family="Helvetica,sans-Serif" font-size="10.00">2</text>
</a>
</g>
</g>
<!-- dir_e185953657720ba3a67126696ef566c7&#45;&gt;dir_6a49a4a01df89ea000e629175e7db917 -->
<g id="edge19" class="edge">
<title>dir_e185953657720ba3a67126696ef566c7&#45;&gt;dir_6a49a4a01df89ea000e629175e7db917</title>
<path fill="none" stroke="black" d="M183.05,-143.88C202.01,-133.74 226.09,-120.88 245.74,-110.37"/>
<polygon fill="black" stroke="black" points="247.54,-113.38 254.71,-105.58 244.24,-107.21 247.54,-113.38"/>
<g id="a_edge19&#45;headlabel"><a xlink:href="dir_000092_000067.html" target="_top" xlink:title="2">
<text text-anchor="middle" x="245.71" y="-115.08" font-family="Helvetica,sans-Serif" font-size="10.00">2</text>
</a>
</g>
</g>
<!-- dir_6a49a4a01df89ea000e629175e7db917&#45;&gt;dir_a4226c5615a06a31e6344f5f3fd917e1 -->
<g id="edge20" class="edge">
<title>dir_6a49a4a01df89ea000e629175e7db917&#45;&gt;dir_a4226c5615a06a31e6344f5f3fd917e1</title>
<path fill="none" stroke="black" d="M290.77,-108.15C299.94,-139.5 306.96,-206.94 278,-252 263.17,-275.08 234.58,-289.03 210.98,-296.78"/>
<polygon fill="black" stroke="black" points="209.79,-293.49 201.23,-299.73 211.82,-300.19 209.79,-293.49"/>
<g id="a_edge20&#45;headlabel"><a xlink:href="dir_000067_000015.html" target="_top" xlink:title="2">
<text text-anchor="middle" x="212.41" y="-287.23" font-family="Helvetica,sans-Serif" font-size="10.00">2</text>
</a>
</g>
</g>
<!-- dir_6a49a4a01df89ea000e629175e7db917&#45;&gt;dir_1a5504e72c2ab618c124e6472b08d26c -->
<g id="edge21" class="edge">
<title>dir_6a49a4a01df89ea000e629175e7db917&#45;&gt;dir_1a5504e72c2ab618c124e6472b08d26c</title>
<path fill="none" stroke="black" d="M254.85,-77.75C230.35,-67.61 193.67,-52.41 163.75,-40.02"/>
<polygon fill="black" stroke="black" points="164.87,-36.7 154.29,-36.1 162.19,-43.16 164.87,-36.7"/>
<g id="a_edge21&#45;headlabel"><a xlink:href="dir_000067_000108.html" target="_top" xlink:title="2">
<text text-anchor="middle" x="169.28" y="-32.95" font-family="Helvetica,sans-Serif" font-size="10.00">2</text>
</a>
</g>
</g>
</g>
</svg>
