<?xml version="1.0" encoding="UTF-8" standalone="no"?>
<!DOCTYPE svg PUBLIC "-//W3C//DTD SVG 1.1//EN"
 "http://www.w3.org/Graphics/SVG/1.1/DTD/svg11.dtd">
<!-- Generated by graphviz version 2.43.0 (0)
 -->
<!-- Title: Components/Objects/Rulebase/include Pages: 1 -->
<svg width="201pt" height="223pt"
 viewBox="0.00 0.00 200.50 223.00" xmlns="http://www.w3.org/2000/svg" xmlns:xlink="http://www.w3.org/1999/xlink">
<g id="graph0" class="graph" transform="scale(1 1) rotate(0) translate(4 219)">
<title>Components/Objects/Rulebase/include</title>
<g id="clust1" class="cluster">
<title>clusterdir_dc9b1272be60f48aebf9fcadde3772ad</title>
<g id="a_clust1"><a xlink:href="dir_dc9b1272be60f48aebf9fcadde3772ad.html" target="_top" xlink:title="Rulebase">
<polygon fill="#ddddee" stroke="black" points="55,-136 55,-207 125,-207 125,-136 55,-136"/>
<text text-anchor="middle" x="90" y="-195" font-family="Helvetica,sans-Serif" font-size="10.00">Rulebase</text>
</a>
</g>
</g>
<!-- dir_ba259201a7d6f4a5cc06678328c2fd7e -->
<g id="node1" class="node">
<title>dir_ba259201a7d6f4a5cc06678328c2fd7e</title>
<g id="a_node1"><a xlink:href="dir_ba259201a7d6f4a5cc06678328c2fd7e.html" target="_top" xlink:title="include">
<polygon fill="#eeeeff" stroke="black" points="117,-180 63,-180 63,-144 117,-144 117,-180"/>
<text text-anchor="middle" x="90" y="-159.5" font-family="Helvetica,sans-Serif" font-size="10.00">include</text>
</a>
</g>
</g>
<!-- dir_4816d2fb8abcfd1fbfb7e56b67e0baa1 -->
<g id="node2" class="node">
<title>dir_4816d2fb8abcfd1fbfb7e56b67e0baa1</title>
<g id="a_node2"><a xlink:href="dir_4816d2fb8abcfd1fbfb7e56b67e0baa1.html" target="_top" xlink:title="ErrorHandler">
<polygon fill="none" stroke="red" points="78,-36 0,-36 0,0 78,0 78,-36"/>
<text text-anchor="middle" x="39" y="-15.5" font-family="Helvetica,sans-Serif" font-size="10.00">ErrorHandler</text>
</a>
</g>
</g>
<!-- dir_ba259201a7d6f4a5cc06678328c2fd7e&#45;&gt;dir_4816d2fb8abcfd1fbfb7e56b67e0baa1 -->
<g id="edge1" class="edge">
<title>dir_ba259201a7d6f4a5cc06678328c2fd7e&#45;&gt;dir_4816d2fb8abcfd1fbfb7e56b67e0baa1</title>
<path fill="none" stroke="black" d="M68.99,-143.6C59.22,-134.18 48.55,-121.68 43,-108 35.07,-88.44 34.46,-64.45 35.61,-46.3"/>
<polygon fill="black" stroke="black" points="39.12,-46.38 36.49,-36.11 32.15,-45.78 39.12,-46.38"/>
<g id="a_edge1&#45;headlabel"><a xlink:href="dir_000137_000019.html" target="_top" xlink:title="1">
<text text-anchor="middle" x="41.64" y="-47.7" font-family="Helvetica,sans-Serif" font-size="10.00">1</text>
</a>
</g>
</g>
<!-- dir_1a5504e72c2ab618c124e6472b08d26c -->
<g id="node3" class="node">
<title>dir_1a5504e72c2ab618c124e6472b08d26c</title>
<g id="a_node3"><a xlink:href="dir_1a5504e72c2ab618c124e6472b08d26c.html" target="_top" xlink:title="Global_Include">
<polygon fill="none" stroke="black" points="192.5,-36 103.5,-36 103.5,0 192.5,0 192.5,-36"/>
<text text-anchor="middle" x="148" y="-15.5" font-family="Helvetica,sans-Serif" font-size="10.00">Global_Include</text>
</a>
</g>
</g>
<!-- dir_ba259201a7d6f4a5cc06678328c2fd7e&#45;&gt;dir_1a5504e72c2ab618c124e6472b08d26c -->
<g id="edge2" class="edge">
<title>dir_ba259201a7d6f4a5cc06678328c2fd7e&#45;&gt;dir_1a5504e72c2ab618c124e6472b08d26c</title>
<path fill="none" stroke="black" d="M110.07,-143.88C119.86,-134.35 130.82,-121.67 137,-108 145.74,-88.64 148.29,-64.63 148.76,-46.43"/>
<polygon fill="black" stroke="black" points="152.27,-46.23 148.83,-36.21 145.27,-46.18 152.27,-46.23"/>
<g id="a_edge2&#45;headlabel"><a xlink:href="dir_000137_000095.html" target="_top" xlink:title="1">
<text text-anchor="middle" x="155.08" y="-47.34" font-family="Helvetica,sans-Serif" font-size="10.00">1</text>
</a>
</g>
</g>
<!-- dir_82ae37b9d9d4852b543931d9ede35f57 -->
<g id="node4" class="node">
<title>dir_82ae37b9d9d4852b543931d9ede35f57</title>
<g id="a_node4"><a xlink:href="dir_82ae37b9d9d4852b543931d9ede35f57.html" target="_top" xlink:title="Timeservice">
<polygon fill="none" stroke="red" points="128,-108 52,-108 52,-72 128,-72 128,-108"/>
<text text-anchor="middle" x="90" y="-87.5" font-family="Helvetica,sans-Serif" font-size="10.00">Timeservice</text>
</a>
</g>
</g>
<!-- dir_ba259201a7d6f4a5cc06678328c2fd7e&#45;&gt;dir_82ae37b9d9d4852b543931d9ede35f57 -->
<g id="edge3" class="edge">
<title>dir_ba259201a7d6f4a5cc06678328c2fd7e&#45;&gt;dir_82ae37b9d9d4852b543931d9ede35f57</title>
<path fill="none" stroke="black" d="M90,-143.7C90,-135.98 90,-126.71 90,-118.11"/>
<polygon fill="black" stroke="black" points="93.5,-118.1 90,-108.1 86.5,-118.1 93.5,-118.1"/>
<g id="a_edge3&#45;headlabel"><a xlink:href="dir_000137_000052.html" target="_top" xlink:title="1">
<text text-anchor="middle" x="96.34" y="-119.2" font-family="Helvetica,sans-Serif" font-size="10.00">1</text>
</a>
</g>
</g>
<!-- dir_82ae37b9d9d4852b543931d9ede35f57&#45;&gt;dir_4816d2fb8abcfd1fbfb7e56b67e0baa1 -->
<g id="edge4" class="edge">
<title>dir_82ae37b9d9d4852b543931d9ede35f57&#45;&gt;dir_4816d2fb8abcfd1fbfb7e56b67e0baa1</title>
<path fill="none" stroke="black" d="M77.39,-71.7C71.4,-63.47 64.12,-53.48 57.52,-44.42"/>
<polygon fill="black" stroke="black" points="60.18,-42.13 51.46,-36.1 54.52,-46.25 60.18,-42.13"/>
<g id="a_edge4&#45;headlabel"><a xlink:href="dir_000052_000019.html" target="_top" xlink:title="2">
<text text-anchor="middle" x="64.59" y="-40.86" font-family="Helvetica,sans-Serif" font-size="10.00">2</text>
</a>
</g>
</g>
<!-- dir_82ae37b9d9d4852b543931d9ede35f57&#45;&gt;dir_1a5504e72c2ab618c124e6472b08d26c -->
<g id="edge5" class="edge">
<title>dir_82ae37b9d9d4852b543931d9ede35f57&#45;&gt;dir_1a5504e72c2ab618c124e6472b08d26c</title>
<path fill="none" stroke="black" d="M104.34,-71.7C111.29,-63.3 119.77,-53.07 127.4,-43.86"/>
<polygon fill="black" stroke="black" points="130.14,-46.04 133.83,-36.1 124.75,-41.57 130.14,-46.04"/>
<g id="a_edge5&#45;headlabel"><a xlink:href="dir_000052_000095.html" target="_top" xlink:title="2">
<text text-anchor="middle" x="130.04" y="-48.12" font-family="Helvetica,sans-Serif" font-size="10.00">2</text>
</a>
</g>
</g>
</g>
</svg>
