<?xml version="1.0" encoding="UTF-8" standalone="no"?>
<!DOCTYPE svg PUBLIC "-//W3C//DTD SVG 1.1//EN"
 "http://www.w3.org/Graphics/SVG/1.1/DTD/svg11.dtd">
<!-- Generated by graphviz version 2.43.0 (0)
 -->
<!-- Title: Components/Objects/ErrorHandler Pages: 1 -->
<svg width="394pt" height="231pt"
 viewBox="0.00 0.00 393.50 231.00" xmlns="http://www.w3.org/2000/svg" xmlns:xlink="http://www.w3.org/1999/xlink">
<g id="graph0" class="graph" transform="scale(1 1) rotate(0) translate(4 227)">
<title>Components/Objects/ErrorHandler</title>
<g id="clust1" class="cluster">
<title>clusterdir_a4226c5615a06a31e6344f5f3fd917e1</title>
<g id="a_clust1"><a xlink:href="dir_a4226c5615a06a31e6344f5f3fd917e1.html" target="_top" xlink:title="Objects">
<polygon fill="#ddddee" stroke="black" points="8,-56 8,-215 262,-215 262,-56 8,-56"/>
<text text-anchor="middle" x="135" y="-203" font-family="Helvetica,sans-Serif" font-size="10.00">Objects</text>
</a>
</g>
</g>
<g id="clust2" class="cluster">
<title>clusterdir_4816d2fb8abcfd1fbfb7e56b67e0baa1</title>
<g id="a_clust2"><a xlink:href="dir_4816d2fb8abcfd1fbfb7e56b67e0baa1.html" target="_top">
<polygon fill="#eeeeff" stroke="black" points="16,-64 16,-188 254,-188 254,-64 16,-64"/>
</a>
</g>
</g>
<!-- dir_4816d2fb8abcfd1fbfb7e56b67e0baa1 -->
<g id="node1" class="node">
<title>dir_4816d2fb8abcfd1fbfb7e56b67e0baa1</title>
<text text-anchor="middle" x="207" y="-159.5" font-family="Helvetica,sans-Serif" font-size="10.00">ErrorHandler</text>
</g>
<!-- dir_17783de145a966a99a5cbbacd6fef958 -->
<g id="node2" class="node">
<title>dir_17783de145a966a99a5cbbacd6fef958</title>
<g id="a_node2"><a xlink:href="dir_17783de145a966a99a5cbbacd6fef958.html" target="_top" xlink:title="include">
<polygon fill="white" stroke="black" points="246,-108 192,-108 192,-72 246,-72 246,-108"/>
<text text-anchor="middle" x="219" y="-87.5" font-family="Helvetica,sans-Serif" font-size="10.00">include</text>
</a>
</g>
</g>
<!-- dir_1a5504e72c2ab618c124e6472b08d26c -->
<g id="node5" class="node">
<title>dir_1a5504e72c2ab618c124e6472b08d26c</title>
<g id="a_node5"><a xlink:href="dir_1a5504e72c2ab618c124e6472b08d26c.html" target="_top" xlink:title="Global_Include">
<polygon fill="none" stroke="black" points="324.5,-36 235.5,-36 235.5,0 324.5,0 324.5,-36"/>
<text text-anchor="middle" x="280" y="-15.5" font-family="Helvetica,sans-Serif" font-size="10.00">Global_Include</text>
</a>
</g>
</g>
<!-- dir_17783de145a966a99a5cbbacd6fef958&#45;&gt;dir_1a5504e72c2ab618c124e6472b08d26c -->
<g id="edge2" class="edge">
<title>dir_17783de145a966a99a5cbbacd6fef958&#45;&gt;dir_1a5504e72c2ab618c124e6472b08d26c</title>
<path fill="none" stroke="black" d="M234.08,-71.7C241.39,-63.3 250.31,-53.07 258.34,-43.86"/>
<polygon fill="black" stroke="black" points="261.16,-45.94 265.09,-36.1 255.89,-41.34 261.16,-45.94"/>
<g id="a_edge2&#45;headlabel"><a xlink:href="dir_000196_000144.html" target="_top" xlink:title="2">
<text text-anchor="middle" x="260.94" y="-48.02" font-family="Helvetica,sans-Serif" font-size="10.00">2</text>
</a>
</g>
</g>
<!-- dir_4d0b0adf7e9fb892c3df556e9cbb05d0 -->
<g id="node6" class="node">
<title>dir_4d0b0adf7e9fb892c3df556e9cbb05d0</title>
<g id="a_node6"><a xlink:href="dir_4d0b0adf7e9fb892c3df556e9cbb05d0.html" target="_top" xlink:title="Protocols">
<polygon fill="none" stroke="red" points="332,-180 270,-180 270,-144 332,-144 332,-180"/>
<text text-anchor="middle" x="301" y="-159.5" font-family="Helvetica,sans-Serif" font-size="10.00">Protocols</text>
</a>
</g>
</g>
<!-- dir_17783de145a966a99a5cbbacd6fef958&#45;&gt;dir_4d0b0adf7e9fb892c3df556e9cbb05d0 -->
<g id="edge3" class="edge">
<title>dir_17783de145a966a99a5cbbacd6fef958&#45;&gt;dir_4d0b0adf7e9fb892c3df556e9cbb05d0</title>
<path fill="none" stroke="black" d="M233.14,-108.1C242.51,-116.89 255.04,-127.73 266.82,-137.31"/>
<polygon fill="black" stroke="black" points="264.82,-140.19 274.81,-143.7 269.19,-134.72 264.82,-140.19"/>
<g id="a_edge3&#45;headlabel"><a xlink:href="dir_000196_000059.html" target="_top" xlink:title="1">
<text text-anchor="middle" x="260.24" y="-137.66" font-family="Helvetica,sans-Serif" font-size="10.00">1</text>
</a>
</g>
</g>
<!-- dir_82ae37b9d9d4852b543931d9ede35f57 -->
<g id="node7" class="node">
<title>dir_82ae37b9d9d4852b543931d9ede35f57</title>
<g id="a_node7"><a xlink:href="dir_82ae37b9d9d4852b543931d9ede35f57.html" target="_top" xlink:title="Timeservice">
<polygon fill="none" stroke="red" points="385.5,-108 308.5,-108 308.5,-72 385.5,-72 385.5,-108"/>
<text text-anchor="middle" x="347" y="-87.5" font-family="Helvetica,sans-Serif" font-size="10.00">Timeservice</text>
</a>
</g>
</g>
<!-- dir_17783de145a966a99a5cbbacd6fef958&#45;&gt;dir_82ae37b9d9d4852b543931d9ede35f57 -->
<g id="edge4" class="edge">
<title>dir_17783de145a966a99a5cbbacd6fef958&#45;&gt;dir_82ae37b9d9d4852b543931d9ede35f57</title>
<path fill="none" stroke="black" d="M246.5,-90C263.67,-90 280.85,-90 298.02,-90"/>
<polygon fill="black" stroke="black" points="298.13,-93.5 308.13,-90 298.13,-86.5 298.13,-93.5"/>
<g id="a_edge4&#45;headlabel"><a xlink:href="dir_000196_000053.html" target="_top" xlink:title="1">
<text text-anchor="middle" x="294.54" y="-93.84" font-family="Helvetica,sans-Serif" font-size="10.00">1</text>
</a>
</g>
</g>
<!-- dir_ea43b734347a941a655e4643aa96828f -->
<g id="node3" class="node">
<title>dir_ea43b734347a941a655e4643aa96828f</title>
<g id="a_node3"><a xlink:href="dir_ea43b734347a941a655e4643aa96828f.html" target="_top" xlink:title="src">
<polygon fill="white" stroke="black" points="150,-180 96,-180 96,-144 150,-144 150,-180"/>
<text text-anchor="middle" x="123" y="-159.5" font-family="Helvetica,sans-Serif" font-size="10.00">src</text>
</a>
</g>
</g>
<!-- dir_ea43b734347a941a655e4643aa96828f&#45;&gt;dir_17783de145a966a99a5cbbacd6fef958 -->
<g id="edge1" class="edge">
<title>dir_ea43b734347a941a655e4643aa96828f&#45;&gt;dir_17783de145a966a99a5cbbacd6fef958</title>
<path fill="none" stroke="black" d="M146.73,-143.7C158.94,-134.8 173.99,-123.82 187.18,-114.2"/>
<polygon fill="black" stroke="black" points="189.52,-116.82 195.54,-108.1 185.4,-111.17 189.52,-116.82"/>
<g id="a_edge1&#45;headlabel"><a xlink:href="dir_000197_000196.html" target="_top" xlink:title="2">
<text text-anchor="middle" x="188.29" y="-118.74" font-family="Helvetica,sans-Serif" font-size="10.00">2</text>
</a>
</g>
</g>
<!-- dir_a3c33d0fee38b44dd4c5aa9c4c636a95 -->
<g id="node4" class="node">
<title>dir_a3c33d0fee38b44dd4c5aa9c4c636a95</title>
<g id="a_node4"><a xlink:href="dir_a3c33d0fee38b44dd4c5aa9c4c636a95.html" target="_top" xlink:title="test">
<polygon fill="white" stroke="red" points="78,-180 24,-180 24,-144 78,-144 78,-180"/>
<text text-anchor="middle" x="51" y="-159.5" font-family="Helvetica,sans-Serif" font-size="10.00">test</text>
</a>
</g>
</g>
<!-- dir_a3c33d0fee38b44dd4c5aa9c4c636a95&#45;&gt;dir_17783de145a966a99a5cbbacd6fef958 -->
<g id="edge5" class="edge">
<title>dir_a3c33d0fee38b44dd4c5aa9c4c636a95&#45;&gt;dir_17783de145a966a99a5cbbacd6fef958</title>
<path fill="none" stroke="black" d="M78.05,-148.02C81.06,-146.64 84.09,-145.27 87,-144 118.81,-130.12 155.48,-115.5 182.08,-105.15"/>
<polygon fill="black" stroke="black" points="183.7,-108.27 191.75,-101.39 181.17,-101.75 183.7,-108.27"/>
<g id="a_edge5&#45;headlabel"><a xlink:href="dir_000021_000196.html" target="_top" xlink:title="1">
<text text-anchor="middle" x="181.37" y="-109.72" font-family="Helvetica,sans-Serif" font-size="10.00">1</text>
</a>
</g>
</g>
<!-- dir_4d0b0adf7e9fb892c3df556e9cbb05d0&#45;&gt;dir_17783de145a966a99a5cbbacd6fef958 -->
<g id="edge6" class="edge">
<title>dir_4d0b0adf7e9fb892c3df556e9cbb05d0&#45;&gt;dir_17783de145a966a99a5cbbacd6fef958</title>
<path fill="none" stroke="black" d="M286.65,-143.7C277.23,-134.88 264.69,-124.03 252.91,-114.47"/>
<polygon fill="black" stroke="black" points="254.93,-111.61 244.93,-108.1 250.56,-117.08 254.93,-111.61"/>
<g id="a_edge6&#45;headlabel"><a xlink:href="dir_000059_000196.html" target="_top" xlink:title="11">
<text text-anchor="middle" x="259.51" y="-109.13" font-family="Helvetica,sans-Serif" font-size="10.00">11</text>
</a>
</g>
</g>
<!-- dir_4d0b0adf7e9fb892c3df556e9cbb05d0&#45;&gt;dir_1a5504e72c2ab618c124e6472b08d26c -->
<g id="edge7" class="edge">
<title>dir_4d0b0adf7e9fb892c3df556e9cbb05d0&#45;&gt;dir_1a5504e72c2ab618c124e6472b08d26c</title>
<path fill="none" stroke="black" d="M298.47,-143.87C294.89,-119.67 288.31,-75.21 284.05,-46.39"/>
<polygon fill="black" stroke="black" points="287.47,-45.57 282.54,-36.19 280.54,-46.59 287.47,-45.57"/>
<g id="a_edge7&#45;headlabel"><a xlink:href="dir_000059_000144.html" target="_top" xlink:title="11">
<text text-anchor="middle" x="290.8" y="-46.21" font-family="Helvetica,sans-Serif" font-size="10.00">11</text>
</a>
</g>
</g>
<!-- dir_4d0b0adf7e9fb892c3df556e9cbb05d0&#45;&gt;dir_82ae37b9d9d4852b543931d9ede35f57 -->
<g id="edge8" class="edge">
<title>dir_4d0b0adf7e9fb892c3df556e9cbb05d0&#45;&gt;dir_82ae37b9d9d4852b543931d9ede35f57</title>
<path fill="none" stroke="black" d="M312.37,-143.7C317.72,-135.56 324.2,-125.69 330.11,-116.7"/>
<polygon fill="black" stroke="black" points="333.19,-118.38 335.76,-108.1 327.34,-114.54 333.19,-118.38"/>
<g id="a_edge8&#45;headlabel"><a xlink:href="dir_000059_000053.html" target="_top" xlink:title="2">
<text text-anchor="middle" x="333.59" y="-120.45" font-family="Helvetica,sans-Serif" font-size="10.00">2</text>
</a>
</g>
</g>
<!-- dir_82ae37b9d9d4852b543931d9ede35f57&#45;&gt;dir_17783de145a966a99a5cbbacd6fef958 -->
<g id="edge9" class="edge">
<title>dir_82ae37b9d9d4852b543931d9ede35f57&#45;&gt;dir_17783de145a966a99a5cbbacd6fef958</title>
<path fill="none" stroke="black" d="M308.13,-90C290.96,-90 273.79,-90 256.61,-90"/>
<polygon fill="black" stroke="black" points="256.5,-86.5 246.5,-90 256.5,-93.5 256.5,-86.5"/>
<g id="a_edge9&#45;headlabel"><a xlink:href="dir_000053_000196.html" target="_top" xlink:title="2">
<text text-anchor="middle" x="260.09" y="-81.16" font-family="Helvetica,sans-Serif" font-size="10.00">2</text>
</a>
</g>
</g>
<!-- dir_82ae37b9d9d4852b543931d9ede35f57&#45;&gt;dir_1a5504e72c2ab618c124e6472b08d26c -->
<g id="edge10" class="edge">
<title>dir_82ae37b9d9d4852b543931d9ede35f57&#45;&gt;dir_1a5504e72c2ab618c124e6472b08d26c</title>
<path fill="none" stroke="black" d="M330.44,-71.7C322.32,-63.22 312.41,-52.86 303.53,-43.58"/>
<polygon fill="black" stroke="black" points="305.81,-40.91 296.37,-36.1 300.76,-45.75 305.81,-40.91"/>
<g id="a_edge10&#45;headlabel"><a xlink:href="dir_000053_000144.html" target="_top" xlink:title="2">
<text text-anchor="middle" x="310.35" y="-39.04" font-family="Helvetica,sans-Serif" font-size="10.00">2</text>
</a>
</g>
</g>
</g>
</svg>
