<?xml version="1.0" encoding="UTF-8" standalone="no"?>
<!DOCTYPE svg PUBLIC "-//W3C//DTD SVG 1.1//EN"
 "http://www.w3.org/Graphics/SVG/1.1/DTD/svg11.dtd">
<!-- Generated by graphviz version 2.43.0 (0)
 -->
<!-- Title: Components/Service/OnlineDetector Pages: 1 -->
<svg width="290pt" height="375pt"
 viewBox="0.00 0.00 290.00 375.00" xmlns="http://www.w3.org/2000/svg" xmlns:xlink="http://www.w3.org/1999/xlink">
<g id="graph0" class="graph" transform="scale(1 1) rotate(0) translate(4 371)">
<title>Components/Service/OnlineDetector</title>
<g id="clust1" class="cluster">
<title>clusterdir_6164661bfb521e4b540c7b7052af2911</title>
<g id="a_clust1"><a xlink:href="dir_6164661bfb521e4b540c7b7052af2911.html" target="_top" xlink:title="Service">
<polygon fill="#ddddee" stroke="black" points="8,-200 8,-359 274,-359 274,-200 8,-200"/>
<text text-anchor="middle" x="141" y="-347" font-family="Helvetica,sans-Serif" font-size="10.00">Service</text>
</a>
</g>
</g>
<g id="clust2" class="cluster">
<title>clusterdir_8603aec3380c5f66e9b75b42f3bddbde</title>
<g id="a_clust2"><a xlink:href="dir_8603aec3380c5f66e9b75b42f3bddbde.html" target="_top">
<polygon fill="#eeeeff" stroke="black" points="16,-208 16,-332 266,-332 266,-208 16,-208"/>
</a>
</g>
</g>
<!-- dir_8603aec3380c5f66e9b75b42f3bddbde -->
<g id="node1" class="node">
<title>dir_8603aec3380c5f66e9b75b42f3bddbde</title>
<text text-anchor="middle" x="213" y="-303.5" font-family="Helvetica,sans-Serif" font-size="10.00">OnlineDetector</text>
</g>
<!-- dir_263bc2710b106394c86ba7c20ae0cf95 -->
<g id="node2" class="node">
<title>dir_263bc2710b106394c86ba7c20ae0cf95</title>
<g id="a_node2"><a xlink:href="dir_263bc2710b106394c86ba7c20ae0cf95.html" target="_top" xlink:title="include">
<polygon fill="white" stroke="black" points="150,-252 96,-252 96,-216 150,-216 150,-252"/>
<text text-anchor="middle" x="123" y="-231.5" font-family="Helvetica,sans-Serif" font-size="10.00">include</text>
</a>
</g>
</g>
<!-- dir_a4226c5615a06a31e6344f5f3fd917e1 -->
<g id="node5" class="node">
<title>dir_a4226c5615a06a31e6344f5f3fd917e1</title>
<g id="a_node5"><a xlink:href="dir_a4226c5615a06a31e6344f5f3fd917e1.html" target="_top" xlink:title="Objects">
<polygon fill="none" stroke="red" points="121,-180 67,-180 67,-144 121,-144 121,-180"/>
<text text-anchor="middle" x="94" y="-159.5" font-family="Helvetica,sans-Serif" font-size="10.00">Objects</text>
</a>
</g>
</g>
<!-- dir_263bc2710b106394c86ba7c20ae0cf95&#45;&gt;dir_a4226c5615a06a31e6344f5f3fd917e1 -->
<g id="edge4" class="edge">
<title>dir_263bc2710b106394c86ba7c20ae0cf95&#45;&gt;dir_a4226c5615a06a31e6344f5f3fd917e1</title>
<path fill="none" stroke="black" d="M115.83,-215.7C112.57,-207.81 108.63,-198.3 105,-189.55"/>
<polygon fill="black" stroke="black" points="108.15,-188 101.09,-180.1 101.68,-190.68 108.15,-188"/>
<g id="a_edge4&#45;headlabel"><a xlink:href="dir_000212_000020.html" target="_top" xlink:title="1">
<text text-anchor="middle" x="112.15" y="-187.74" font-family="Helvetica,sans-Serif" font-size="10.00">1</text>
</a>
</g>
</g>
<!-- dir_c2cd4762e89f989d55fa2b0634ddfc81 -->
<g id="node6" class="node">
<title>dir_c2cd4762e89f989d55fa2b0634ddfc81</title>
<g id="a_node6"><a xlink:href="dir_c2cd4762e89f989d55fa2b0634ddfc81.html" target="_top" xlink:title="Utility">
<polygon fill="none" stroke="red" points="65,-108 11,-108 11,-72 65,-72 65,-108"/>
<text text-anchor="middle" x="38" y="-87.5" font-family="Helvetica,sans-Serif" font-size="10.00">Utility</text>
</a>
</g>
</g>
<!-- dir_263bc2710b106394c86ba7c20ae0cf95&#45;&gt;dir_c2cd4762e89f989d55fa2b0634ddfc81 -->
<g id="edge5" class="edge">
<title>dir_263bc2710b106394c86ba7c20ae0cf95&#45;&gt;dir_c2cd4762e89f989d55fa2b0634ddfc81</title>
<path fill="none" stroke="black" d="M95.9,-217.06C82.54,-207.85 67.34,-195.11 58,-180 46.51,-161.42 41.6,-137.03 39.51,-118.48"/>
<polygon fill="black" stroke="black" points="42.97,-117.96 38.57,-108.32 36,-118.6 42.97,-117.96"/>
<g id="a_edge5&#45;headlabel"><a xlink:href="dir_000212_000085.html" target="_top" xlink:title="2">
<text text-anchor="middle" x="46.13" y="-118.78" font-family="Helvetica,sans-Serif" font-size="10.00">2</text>
</a>
</g>
</g>
<!-- dir_1a5504e72c2ab618c124e6472b08d26c -->
<g id="node7" class="node">
<title>dir_1a5504e72c2ab618c124e6472b08d26c</title>
<g id="a_node7"><a xlink:href="dir_1a5504e72c2ab618c124e6472b08d26c.html" target="_top" xlink:title="Global_Include">
<polygon fill="none" stroke="black" points="167.5,-36 78.5,-36 78.5,0 167.5,0 167.5,-36"/>
<text text-anchor="middle" x="123" y="-15.5" font-family="Helvetica,sans-Serif" font-size="10.00">Global_Include</text>
</a>
</g>
</g>
<!-- dir_263bc2710b106394c86ba7c20ae0cf95&#45;&gt;dir_1a5504e72c2ab618c124e6472b08d26c -->
<g id="edge6" class="edge">
<title>dir_263bc2710b106394c86ba7c20ae0cf95&#45;&gt;dir_1a5504e72c2ab618c124e6472b08d26c</title>
<path fill="none" stroke="black" d="M137.16,-215.73C154.96,-192.79 184.58,-150.21 196,-108 200.18,-92.56 203.27,-86.25 196,-72 189.77,-59.77 179.24,-49.7 168.1,-41.75"/>
<polygon fill="black" stroke="black" points="169.79,-38.67 159.51,-36.08 165.93,-44.51 169.79,-38.67"/>
<g id="a_edge6&#45;headlabel"><a xlink:href="dir_000212_000127.html" target="_top" xlink:title="1">
<text text-anchor="middle" x="174.35" y="-35.78" font-family="Helvetica,sans-Serif" font-size="10.00">1</text>
</a>
</g>
</g>
<!-- dir_e185953657720ba3a67126696ef566c7 -->
<g id="node8" class="node">
<title>dir_e185953657720ba3a67126696ef566c7</title>
<g id="a_node8"><a xlink:href="dir_e185953657720ba3a67126696ef566c7.html" target="_top" xlink:title="Interfaces">
<polygon fill="none" stroke="red" points="186.5,-108 121.5,-108 121.5,-72 186.5,-72 186.5,-108"/>
<text text-anchor="middle" x="154" y="-87.5" font-family="Helvetica,sans-Serif" font-size="10.00">Interfaces</text>
</a>
</g>
</g>
<!-- dir_263bc2710b106394c86ba7c20ae0cf95&#45;&gt;dir_e185953657720ba3a67126696ef566c7 -->
<g id="edge7" class="edge">
<title>dir_263bc2710b106394c86ba7c20ae0cf95&#45;&gt;dir_e185953657720ba3a67126696ef566c7</title>
<path fill="none" stroke="black" d="M126.74,-215.87C132.05,-191.56 141.81,-146.82 148.1,-118.01"/>
<polygon fill="black" stroke="black" points="151.53,-118.71 150.25,-108.19 144.7,-117.21 151.53,-118.71"/>
<g id="a_edge7&#45;headlabel"><a xlink:href="dir_000212_000094.html" target="_top" xlink:title="1">
<text text-anchor="middle" x="153.54" y="-120.32" font-family="Helvetica,sans-Serif" font-size="10.00">1</text>
</a>
</g>
</g>
<!-- dir_c0d8dd909bfabec9385195029d7d5819 -->
<g id="node3" class="node">
<title>dir_c0d8dd909bfabec9385195029d7d5819</title>
<g id="a_node3"><a xlink:href="dir_c0d8dd909bfabec9385195029d7d5819.html" target="_top" xlink:title="src">
<polygon fill="white" stroke="black" points="150,-324 96,-324 96,-288 150,-288 150,-324"/>
<text text-anchor="middle" x="123" y="-303.5" font-family="Helvetica,sans-Serif" font-size="10.00">src</text>
</a>
</g>
</g>
<!-- dir_c0d8dd909bfabec9385195029d7d5819&#45;&gt;dir_263bc2710b106394c86ba7c20ae0cf95 -->
<g id="edge10" class="edge">
<title>dir_c0d8dd909bfabec9385195029d7d5819&#45;&gt;dir_263bc2710b106394c86ba7c20ae0cf95</title>
<path fill="none" stroke="black" d="M123,-287.7C123,-279.98 123,-270.71 123,-262.11"/>
<polygon fill="black" stroke="black" points="126.5,-262.1 123,-252.1 119.5,-262.1 126.5,-262.1"/>
<g id="a_edge10&#45;headlabel"><a xlink:href="dir_000213_000212.html" target="_top" xlink:title="1">
<text text-anchor="middle" x="129.34" y="-263.2" font-family="Helvetica,sans-Serif" font-size="10.00">1</text>
</a>
</g>
</g>
<!-- dir_408aa8633d9d3720f89d4f3cf048d076 -->
<g id="node4" class="node">
<title>dir_408aa8633d9d3720f89d4f3cf048d076</title>
<g id="a_node4"><a xlink:href="dir_408aa8633d9d3720f89d4f3cf048d076.html" target="_top" xlink:title="test">
<polygon fill="white" stroke="red" points="78,-324 24,-324 24,-288 78,-288 78,-324"/>
<text text-anchor="middle" x="51" y="-303.5" font-family="Helvetica,sans-Serif" font-size="10.00">test</text>
</a>
</g>
</g>
<!-- dir_a4226c5615a06a31e6344f5f3fd917e1&#45;&gt;dir_c2cd4762e89f989d55fa2b0634ddfc81 -->
<g id="edge1" class="edge">
<title>dir_a4226c5615a06a31e6344f5f3fd917e1&#45;&gt;dir_c2cd4762e89f989d55fa2b0634ddfc81</title>
<path fill="none" stroke="black" d="M74.24,-143.7C66.82,-135.47 58.62,-125.48 51.82,-116.42"/>
<polygon fill="black" stroke="black" points="54.49,-114.15 45.79,-108.1 48.82,-118.26 54.49,-114.15"/>
<g id="a_edge1&#45;headlabel"><a xlink:href="dir_000020_000085.html" target="_top" xlink:title="2">
<text text-anchor="middle" x="58.9" y="-112.89" font-family="Helvetica,sans-Serif" font-size="10.00">2</text>
</a>
</g>
</g>
<!-- dir_a4226c5615a06a31e6344f5f3fd917e1&#45;&gt;dir_1a5504e72c2ab618c124e6472b08d26c -->
<g id="edge2" class="edge">
<title>dir_a4226c5615a06a31e6344f5f3fd917e1&#45;&gt;dir_1a5504e72c2ab618c124e6472b08d26c</title>
<path fill="none" stroke="black" d="M97.5,-143.87C102.46,-119.56 111.6,-74.82 117.48,-46.01"/>
<polygon fill="black" stroke="black" points="120.92,-46.69 119.49,-36.19 114.06,-45.29 120.92,-46.69"/>
<g id="a_edge2&#45;headlabel"><a xlink:href="dir_000020_000127.html" target="_top" xlink:title="26">
<text text-anchor="middle" x="122.98" y="-48.28" font-family="Helvetica,sans-Serif" font-size="10.00">26</text>
</a>
</g>
</g>
<!-- dir_a4226c5615a06a31e6344f5f3fd917e1&#45;&gt;dir_e185953657720ba3a67126696ef566c7 -->
<g id="edge3" class="edge">
<title>dir_a4226c5615a06a31e6344f5f3fd917e1&#45;&gt;dir_e185953657720ba3a67126696ef566c7</title>
<path fill="none" stroke="black" d="M102.92,-143.7C109.31,-135.22 118,-124.86 126.45,-115.58"/>
<polygon fill="black" stroke="black" points="129.17,-117.8 133.44,-108.1 124.06,-113.02 129.17,-117.8"/>
<g id="a_edge3&#45;headlabel"><a xlink:href="dir_000020_000094.html" target="_top" xlink:title="8">
<text text-anchor="middle" x="128.79" y="-119.86" font-family="Helvetica,sans-Serif" font-size="10.00">8</text>
</a>
</g>
</g>
<!-- dir_c2cd4762e89f989d55fa2b0634ddfc81&#45;&gt;dir_a4226c5615a06a31e6344f5f3fd917e1 -->
<g id="edge8" class="edge">
<title>dir_c2cd4762e89f989d55fa2b0634ddfc81&#45;&gt;dir_a4226c5615a06a31e6344f5f3fd917e1</title>
<path fill="none" stroke="black" d="M57.58,-108.1C64.99,-116.3 73.19,-126.28 80.02,-135.36"/>
<polygon fill="black" stroke="black" points="77.36,-137.66 86.07,-143.7 83.03,-133.55 77.36,-137.66"/>
<g id="a_edge8&#45;headlabel"><a xlink:href="dir_000085_000020.html" target="_top" xlink:title="4">
<text text-anchor="middle" x="72.96" y="-133.92" font-family="Helvetica,sans-Serif" font-size="10.00">4</text>
</a>
</g>
</g>
<!-- dir_c2cd4762e89f989d55fa2b0634ddfc81&#45;&gt;dir_1a5504e72c2ab618c124e6472b08d26c -->
<g id="edge9" class="edge">
<title>dir_c2cd4762e89f989d55fa2b0634ddfc81&#45;&gt;dir_1a5504e72c2ab618c124e6472b08d26c</title>
<path fill="none" stroke="black" d="M59.01,-71.7C69.72,-62.88 82.89,-52.03 94.5,-42.47"/>
<polygon fill="black" stroke="black" points="96.74,-45.16 102.23,-36.1 92.29,-39.76 96.74,-45.16"/>
<g id="a_edge9&#45;headlabel"><a xlink:href="dir_000085_000127.html" target="_top" xlink:title="3">
<text text-anchor="middle" x="95.77" y="-47.14" font-family="Helvetica,sans-Serif" font-size="10.00">3</text>
</a>
</g>
</g>
<!-- dir_e185953657720ba3a67126696ef566c7&#45;&gt;dir_a4226c5615a06a31e6344f5f3fd917e1 -->
<g id="edge11" class="edge">
<title>dir_e185953657720ba3a67126696ef566c7&#45;&gt;dir_a4226c5615a06a31e6344f5f3fd917e1</title>
<path fill="none" stroke="black" d="M145.23,-108.1C138.88,-116.55 130.21,-126.9 121.75,-136.2"/>
<polygon fill="black" stroke="black" points="119.01,-134 114.75,-143.7 124.13,-138.78 119.01,-134"/>
<g id="a_edge11&#45;headlabel"><a xlink:href="dir_000094_000020.html" target="_top" xlink:title="20">
<text text-anchor="middle" x="119.39" y="-126.93" font-family="Helvetica,sans-Serif" font-size="10.00">20</text>
</a>
</g>
</g>
<!-- dir_e185953657720ba3a67126696ef566c7&#45;&gt;dir_1a5504e72c2ab618c124e6472b08d26c -->
<g id="edge12" class="edge">
<title>dir_e185953657720ba3a67126696ef566c7&#45;&gt;dir_1a5504e72c2ab618c124e6472b08d26c</title>
<path fill="none" stroke="black" d="M146.34,-71.7C142.81,-63.73 138.54,-54.1 134.63,-45.26"/>
<polygon fill="black" stroke="black" points="137.82,-43.83 130.57,-36.1 131.42,-46.67 137.82,-43.83"/>
<g id="a_edge12&#45;headlabel"><a xlink:href="dir_000094_000127.html" target="_top" xlink:title="12">
<text text-anchor="middle" x="141.88" y="-43.47" font-family="Helvetica,sans-Serif" font-size="10.00">12</text>
</a>
</g>
</g>
</g>
</svg>
