<?xml version="1.0" encoding="UTF-8" standalone="no"?>
<!DOCTYPE svg PUBLIC "-//W3C//DTD SVG 1.1//EN"
 "http://www.w3.org/Graphics/SVG/1.1/DTD/svg11.dtd">
<!-- Generated by graphviz version 2.43.0 (0)
 -->
<!-- Title: Components/Objects/Timeservice Pages: 1 -->
<svg width="402pt" height="303pt"
 viewBox="0.00 0.00 402.00 303.00" xmlns="http://www.w3.org/2000/svg" xmlns:xlink="http://www.w3.org/1999/xlink">
<g id="graph0" class="graph" transform="scale(1 1) rotate(0) translate(4 299)">
<title>Components/Objects/Timeservice</title>
<g id="clust1" class="cluster">
<title>clusterdir_a4226c5615a06a31e6344f5f3fd917e1</title>
<g id="a_clust1"><a xlink:href="dir_a4226c5615a06a31e6344f5f3fd917e1.html" target="_top" xlink:title="Objects">
<polygon fill="#ddddee" stroke="black" points="8,-128 8,-287 332,-287 332,-128 8,-128"/>
<text text-anchor="middle" x="170" y="-275" font-family="Helvetica,sans-Serif" font-size="10.00">Objects</text>
</a>
</g>
</g>
<g id="clust2" class="cluster">
<title>clusterdir_82ae37b9d9d4852b543931d9ede35f57</title>
<g id="a_clust2"><a xlink:href="dir_82ae37b9d9d4852b543931d9ede35f57.html" target="_top">
<polygon fill="#eeeeff" stroke="black" points="16,-136 16,-260 324,-260 324,-136 16,-136"/>
</a>
</g>
</g>
<!-- dir_82ae37b9d9d4852b543931d9ede35f57 -->
<g id="node1" class="node">
<title>dir_82ae37b9d9d4852b543931d9ede35f57</title>
<text text-anchor="middle" x="278" y="-231.5" font-family="Helvetica,sans-Serif" font-size="10.00">Timeservice</text>
</g>
<!-- dir_9fe2c82a321e56c96b1dd2b87dfa4011 -->
<g id="node2" class="node">
<title>dir_9fe2c82a321e56c96b1dd2b87dfa4011</title>
<g id="a_node2"><a xlink:href="dir_9fe2c82a321e56c96b1dd2b87dfa4011.html" target="_top" xlink:title="include">
<polygon fill="white" stroke="black" points="222,-180 168,-180 168,-144 222,-144 222,-180"/>
<text text-anchor="middle" x="195" y="-159.5" font-family="Helvetica,sans-Serif" font-size="10.00">include</text>
</a>
</g>
</g>
<!-- dir_4816d2fb8abcfd1fbfb7e56b67e0baa1 -->
<g id="node7" class="node">
<title>dir_4816d2fb8abcfd1fbfb7e56b67e0baa1</title>
<g id="a_node7"><a xlink:href="dir_4816d2fb8abcfd1fbfb7e56b67e0baa1.html" target="_top" xlink:title="ErrorHandler">
<polygon fill="none" stroke="red" points="329,-108 251,-108 251,-72 329,-72 329,-108"/>
<text text-anchor="middle" x="290" y="-87.5" font-family="Helvetica,sans-Serif" font-size="10.00">ErrorHandler</text>
</a>
</g>
</g>
<!-- dir_9fe2c82a321e56c96b1dd2b87dfa4011&#45;&gt;dir_4816d2fb8abcfd1fbfb7e56b67e0baa1 -->
<g id="edge3" class="edge">
<title>dir_9fe2c82a321e56c96b1dd2b87dfa4011&#45;&gt;dir_4816d2fb8abcfd1fbfb7e56b67e0baa1</title>
<path fill="none" stroke="black" d="M212.57,-143.7C223.84,-134.71 238.74,-123.61 252.51,-113.92"/>
<polygon fill="black" stroke="black" points="254.67,-116.68 260.89,-108.1 250.68,-110.93 254.67,-116.68"/>
<g id="a_edge3&#45;headlabel"><a xlink:href="dir_000169_000019.html" target="_top" xlink:title="2">
<text text-anchor="middle" x="253.34" y="-118.56" font-family="Helvetica,sans-Serif" font-size="10.00">2</text>
</a>
</g>
</g>
<!-- dir_1a5504e72c2ab618c124e6472b08d26c -->
<g id="node8" class="node">
<title>dir_1a5504e72c2ab618c124e6472b08d26c</title>
<g id="a_node8"><a xlink:href="dir_1a5504e72c2ab618c124e6472b08d26c.html" target="_top" xlink:title="Global_Include">
<polygon fill="none" stroke="black" points="334.5,-36 245.5,-36 245.5,0 334.5,0 334.5,-36"/>
<text text-anchor="middle" x="290" y="-15.5" font-family="Helvetica,sans-Serif" font-size="10.00">Global_Include</text>
</a>
</g>
</g>
<!-- dir_9fe2c82a321e56c96b1dd2b87dfa4011&#45;&gt;dir_1a5504e72c2ab618c124e6472b08d26c -->
<g id="edge4" class="edge">
<title>dir_9fe2c82a321e56c96b1dd2b87dfa4011&#45;&gt;dir_1a5504e72c2ab618c124e6472b08d26c</title>
<path fill="none" stroke="black" d="M202.48,-143.87C210.9,-125.4 225.56,-95.47 242,-72 248.87,-62.19 257.38,-52.25 265.31,-43.67"/>
<polygon fill="black" stroke="black" points="268.04,-45.88 272.38,-36.21 262.96,-41.06 268.04,-45.88"/>
<g id="a_edge4&#45;headlabel"><a xlink:href="dir_000169_000117.html" target="_top" xlink:title="2">
<text text-anchor="middle" x="267.63" y="-47.94" font-family="Helvetica,sans-Serif" font-size="10.00">2</text>
</a>
</g>
</g>
<!-- dir_303057c21ad73e05f65e4b9f429c6f89 -->
<g id="node3" class="node">
<title>dir_303057c21ad73e05f65e4b9f429c6f89</title>
<g id="a_node3"><a xlink:href="dir_303057c21ad73e05f65e4b9f429c6f89.html" target="_top" xlink:title="src">
<polygon fill="white" stroke="black" points="150,-252 96,-252 96,-216 150,-216 150,-252"/>
<text text-anchor="middle" x="123" y="-231.5" font-family="Helvetica,sans-Serif" font-size="10.00">src</text>
</a>
</g>
</g>
<!-- dir_303057c21ad73e05f65e4b9f429c6f89&#45;&gt;dir_9fe2c82a321e56c96b1dd2b87dfa4011 -->
<g id="edge10" class="edge">
<title>dir_303057c21ad73e05f65e4b9f429c6f89&#45;&gt;dir_9fe2c82a321e56c96b1dd2b87dfa4011</title>
<path fill="none" stroke="black" d="M140.8,-215.7C149.6,-207.14 160.38,-196.66 170,-187.3"/>
<polygon fill="black" stroke="black" points="172.68,-189.58 177.41,-180.1 167.8,-184.57 172.68,-189.58"/>
<g id="a_edge10&#45;headlabel"><a xlink:href="dir_000170_000169.html" target="_top" xlink:title="2">
<text text-anchor="middle" x="172.08" y="-191.63" font-family="Helvetica,sans-Serif" font-size="10.00">2</text>
</a>
</g>
</g>
<!-- dir_38f1823a3c1e0c1cf1e4da5a8adbfbc2 -->
<g id="node4" class="node">
<title>dir_38f1823a3c1e0c1cf1e4da5a8adbfbc2</title>
<g id="a_node4"><a xlink:href="dir_38f1823a3c1e0c1cf1e4da5a8adbfbc2.html" target="_top" xlink:title="test">
<polygon fill="white" stroke="red" points="222,-252 168,-252 168,-216 222,-216 222,-252"/>
<text text-anchor="middle" x="195" y="-231.5" font-family="Helvetica,sans-Serif" font-size="10.00">test</text>
</a>
</g>
</g>
<!-- dir_38f1823a3c1e0c1cf1e4da5a8adbfbc2&#45;&gt;dir_9fe2c82a321e56c96b1dd2b87dfa4011 -->
<g id="edge8" class="edge">
<title>dir_38f1823a3c1e0c1cf1e4da5a8adbfbc2&#45;&gt;dir_9fe2c82a321e56c96b1dd2b87dfa4011</title>
<path fill="none" stroke="black" d="M195,-215.7C195,-207.98 195,-198.71 195,-190.11"/>
<polygon fill="black" stroke="black" points="198.5,-190.1 195,-180.1 191.5,-190.1 198.5,-190.1"/>
<g id="a_edge8&#45;headlabel"><a xlink:href="dir_000053_000169.html" target="_top" xlink:title="2">
<text text-anchor="middle" x="201.34" y="-191.2" font-family="Helvetica,sans-Serif" font-size="10.00">2</text>
</a>
</g>
</g>
<!-- dir_c2cd4762e89f989d55fa2b0634ddfc81 -->
<g id="node6" class="node">
<title>dir_c2cd4762e89f989d55fa2b0634ddfc81</title>
<g id="a_node6"><a xlink:href="dir_c2cd4762e89f989d55fa2b0634ddfc81.html" target="_top" xlink:title="Utility">
<polygon fill="none" stroke="red" points="394,-180 340,-180 340,-144 394,-144 394,-180"/>
<text text-anchor="middle" x="367" y="-159.5" font-family="Helvetica,sans-Serif" font-size="10.00">Utility</text>
</a>
</g>
</g>
<!-- dir_38f1823a3c1e0c1cf1e4da5a8adbfbc2&#45;&gt;dir_c2cd4762e89f989d55fa2b0634ddfc81 -->
<g id="edge9" class="edge">
<title>dir_38f1823a3c1e0c1cf1e4da5a8adbfbc2&#45;&gt;dir_c2cd4762e89f989d55fa2b0634ddfc81</title>
<path fill="none" stroke="black" d="M222.01,-219.94C225.03,-218.57 228.07,-217.23 231,-216 273.39,-198.17 285.35,-197.19 328,-180 328.84,-179.66 329.69,-179.32 330.54,-178.97"/>
<polygon fill="black" stroke="black" points="331.94,-182.18 339.81,-175.08 329.23,-175.72 331.94,-182.18"/>
<g id="a_edge9&#45;headlabel"><a xlink:href="dir_000053_000085.html" target="_top" xlink:title="2">
<text text-anchor="middle" x="329.72" y="-183.69" font-family="Helvetica,sans-Serif" font-size="10.00">2</text>
</a>
</g>
</g>
<!-- dir_941830e8faa9dddffcbc1cfc411e2e9c -->
<g id="node5" class="node">
<title>dir_941830e8faa9dddffcbc1cfc411e2e9c</title>
<g id="a_node5"><a xlink:href="dir_941830e8faa9dddffcbc1cfc411e2e9c.html" target="_top" xlink:title="utest">
<polygon fill="white" stroke="red" points="78,-252 24,-252 24,-216 78,-216 78,-252"/>
<text text-anchor="middle" x="51" y="-231.5" font-family="Helvetica,sans-Serif" font-size="10.00">utest</text>
</a>
</g>
</g>
<!-- dir_941830e8faa9dddffcbc1cfc411e2e9c&#45;&gt;dir_9fe2c82a321e56c96b1dd2b87dfa4011 -->
<g id="edge5" class="edge">
<title>dir_941830e8faa9dddffcbc1cfc411e2e9c&#45;&gt;dir_9fe2c82a321e56c96b1dd2b87dfa4011</title>
<path fill="none" stroke="black" d="M78.09,-219.83C100.77,-208.81 133.36,-192.97 158.37,-180.81"/>
<polygon fill="black" stroke="black" points="160.08,-183.87 167.55,-176.35 157.02,-177.57 160.08,-183.87"/>
<g id="a_edge5&#45;headlabel"><a xlink:href="dir_000055_000169.html" target="_top" xlink:title="1">
<text text-anchor="middle" x="158.09" y="-185.49" font-family="Helvetica,sans-Serif" font-size="10.00">1</text>
</a>
</g>
</g>
<!-- dir_c2cd4762e89f989d55fa2b0634ddfc81&#45;&gt;dir_4816d2fb8abcfd1fbfb7e56b67e0baa1 -->
<g id="edge1" class="edge">
<title>dir_c2cd4762e89f989d55fa2b0634ddfc81&#45;&gt;dir_4816d2fb8abcfd1fbfb7e56b67e0baa1</title>
<path fill="none" stroke="black" d="M347.97,-143.7C338.46,-135.05 326.79,-124.45 316.43,-115.03"/>
<polygon fill="black" stroke="black" points="318.57,-112.24 308.81,-108.1 313.86,-117.42 318.57,-112.24"/>
<g id="a_edge1&#45;headlabel"><a xlink:href="dir_000085_000019.html" target="_top" xlink:title="1">
<text text-anchor="middle" x="323.14" y="-110.06" font-family="Helvetica,sans-Serif" font-size="10.00">1</text>
</a>
</g>
</g>
<!-- dir_c2cd4762e89f989d55fa2b0634ddfc81&#45;&gt;dir_1a5504e72c2ab618c124e6472b08d26c -->
<g id="edge2" class="edge">
<title>dir_c2cd4762e89f989d55fa2b0634ddfc81&#45;&gt;dir_1a5504e72c2ab618c124e6472b08d26c</title>
<path fill="none" stroke="black" d="M363.64,-143.71C359.51,-125.1 351.37,-95.06 338,-72 332.09,-61.8 323.96,-51.88 316.07,-43.43"/>
<polygon fill="black" stroke="black" points="318.45,-40.85 308.97,-36.12 313.43,-45.73 318.45,-40.85"/>
<g id="a_edge2&#45;headlabel"><a xlink:href="dir_000085_000117.html" target="_top" xlink:title="1">
<text text-anchor="middle" x="322.99" y="-38.95" font-family="Helvetica,sans-Serif" font-size="10.00">1</text>
</a>
</g>
</g>
<!-- dir_4816d2fb8abcfd1fbfb7e56b67e0baa1&#45;&gt;dir_9fe2c82a321e56c96b1dd2b87dfa4011 -->
<g id="edge6" class="edge">
<title>dir_4816d2fb8abcfd1fbfb7e56b67e0baa1&#45;&gt;dir_9fe2c82a321e56c96b1dd2b87dfa4011</title>
<path fill="none" stroke="black" d="M272.65,-108.13C260.77,-117.61 244.78,-129.49 230.34,-139.59"/>
<polygon fill="black" stroke="black" points="228.31,-136.73 222.06,-145.29 232.28,-142.5 228.31,-136.73"/>
<g id="a_edge6&#45;headlabel"><a xlink:href="dir_000019_000169.html" target="_top" xlink:title="1">
<text text-anchor="middle" x="229.66" y="-129.86" font-family="Helvetica,sans-Serif" font-size="10.00">1</text>
</a>
</g>
</g>
<!-- dir_4816d2fb8abcfd1fbfb7e56b67e0baa1&#45;&gt;dir_1a5504e72c2ab618c124e6472b08d26c -->
<g id="edge7" class="edge">
<title>dir_4816d2fb8abcfd1fbfb7e56b67e0baa1&#45;&gt;dir_1a5504e72c2ab618c124e6472b08d26c</title>
<path fill="none" stroke="black" d="M290,-71.7C290,-63.98 290,-54.71 290,-46.11"/>
<polygon fill="black" stroke="black" points="293.5,-46.1 290,-36.1 286.5,-46.1 293.5,-46.1"/>
<g id="a_edge7&#45;headlabel"><a xlink:href="dir_000019_000117.html" target="_top" xlink:title="2">
<text text-anchor="middle" x="296.34" y="-47.2" font-family="Helvetica,sans-Serif" font-size="10.00">2</text>
</a>
</g>
</g>
</g>
</svg>
