<?xml version="1.0" encoding="UTF-8" standalone="no"?>
<!DOCTYPE svg PUBLIC "-//W3C//DTD SVG 1.1//EN"
 "http://www.w3.org/Graphics/SVG/1.1/DTD/svg11.dtd">
<!-- Generated by graphviz version 2.43.0 (0)
 -->
<!-- Title: Components/Service/AktivMusSimple Pages: 1 -->
<svg width="296pt" height="375pt"
 viewBox="0.00 0.00 296.00 375.00" xmlns="http://www.w3.org/2000/svg" xmlns:xlink="http://www.w3.org/1999/xlink">
<g id="graph0" class="graph" transform="scale(1 1) rotate(0) translate(4 371)">
<title>Components/Service/AktivMusSimple</title>
<g id="clust1" class="cluster">
<title>clusterdir_6164661bfb521e4b540c7b7052af2911</title>
<g id="a_clust1"><a xlink:href="dir_6164661bfb521e4b540c7b7052af2911.html" target="_top" xlink:title="Service">
<polygon fill="#ddddee" stroke="black" points="8,-200 8,-359 280,-359 280,-200 8,-200"/>
<text text-anchor="middle" x="144" y="-347" font-family="Helvetica,sans-Serif" font-size="10.00">Service</text>
</a>
</g>
</g>
<g id="clust2" class="cluster">
<title>clusterdir_f111871e06e6ccab49d5870f43e09b58</title>
<g id="a_clust2"><a xlink:href="dir_f111871e06e6ccab49d5870f43e09b58.html" target="_top">
<polygon fill="#eeeeff" stroke="black" points="16,-208 16,-332 272,-332 272,-208 16,-208"/>
</a>
</g>
</g>
<!-- dir_f111871e06e6ccab49d5870f43e09b58 -->
<g id="node1" class="node">
<title>dir_f111871e06e6ccab49d5870f43e09b58</title>
<text text-anchor="middle" x="216" y="-303.5" font-family="Helvetica,sans-Serif" font-size="10.00">AktivMusSimple</text>
</g>
<!-- dir_9727953329a9486c582926f71fb60f92 -->
<g id="node2" class="node">
<title>dir_9727953329a9486c582926f71fb60f92</title>
<g id="a_node2"><a xlink:href="dir_9727953329a9486c582926f71fb60f92.html" target="_top" xlink:title="include">
<polygon fill="white" stroke="black" points="150,-252 96,-252 96,-216 150,-216 150,-252"/>
<text text-anchor="middle" x="123" y="-231.5" font-family="Helvetica,sans-Serif" font-size="10.00">include</text>
</a>
</g>
</g>
<!-- dir_a4226c5615a06a31e6344f5f3fd917e1 -->
<g id="node5" class="node">
<title>dir_a4226c5615a06a31e6344f5f3fd917e1</title>
<g id="a_node5"><a xlink:href="dir_a4226c5615a06a31e6344f5f3fd917e1.html" target="_top" xlink:title="Objects">
<polygon fill="none" stroke="red" points="95,-180 41,-180 41,-144 95,-144 95,-180"/>
<text text-anchor="middle" x="68" y="-159.5" font-family="Helvetica,sans-Serif" font-size="10.00">Objects</text>
</a>
</g>
</g>
<!-- dir_9727953329a9486c582926f71fb60f92&#45;&gt;dir_a4226c5615a06a31e6344f5f3fd917e1 -->
<g id="edge3" class="edge">
<title>dir_9727953329a9486c582926f71fb60f92&#45;&gt;dir_a4226c5615a06a31e6344f5f3fd917e1</title>
<path fill="none" stroke="black" d="M109.4,-215.7C102.88,-207.39 94.93,-197.28 87.75,-188.14"/>
<polygon fill="black" stroke="black" points="90.37,-185.81 81.44,-180.1 84.87,-190.13 90.37,-185.81"/>
<g id="a_edge3&#45;headlabel"><a xlink:href="dir_000167_000016.html" target="_top" xlink:title="2">
<text text-anchor="middle" x="94.82" y="-184.38" font-family="Helvetica,sans-Serif" font-size="10.00">2</text>
</a>
</g>
</g>
<!-- dir_1a5504e72c2ab618c124e6472b08d26c -->
<g id="node6" class="node">
<title>dir_1a5504e72c2ab618c124e6472b08d26c</title>
<g id="a_node6"><a xlink:href="dir_1a5504e72c2ab618c124e6472b08d26c.html" target="_top" xlink:title="Global_Include">
<polygon fill="none" stroke="black" points="144.5,-36 55.5,-36 55.5,0 144.5,0 144.5,-36"/>
<text text-anchor="middle" x="100" y="-15.5" font-family="Helvetica,sans-Serif" font-size="10.00">Global_Include</text>
</a>
</g>
</g>
<!-- dir_9727953329a9486c582926f71fb60f92&#45;&gt;dir_1a5504e72c2ab618c124e6472b08d26c -->
<g id="edge4" class="edge">
<title>dir_9727953329a9486c582926f71fb60f92&#45;&gt;dir_1a5504e72c2ab618c124e6472b08d26c</title>
<path fill="none" stroke="black" d="M129.99,-215.53C141,-185.38 159.4,-121.97 142,-72 138.47,-61.86 132.09,-52.19 125.36,-43.96"/>
<polygon fill="black" stroke="black" points="127.83,-41.46 118.6,-36.24 122.56,-46.07 127.83,-41.46"/>
<g id="a_edge4&#45;headlabel"><a xlink:href="dir_000167_000144.html" target="_top" xlink:title="1">
<text text-anchor="middle" x="132.33" y="-39.79" font-family="Helvetica,sans-Serif" font-size="10.00">1</text>
</a>
</g>
</g>
<!-- dir_e185953657720ba3a67126696ef566c7 -->
<g id="node7" class="node">
<title>dir_e185953657720ba3a67126696ef566c7</title>
<g id="a_node7"><a xlink:href="dir_e185953657720ba3a67126696ef566c7.html" target="_top" xlink:title="Interfaces">
<polygon fill="none" stroke="red" points="132.5,-108 67.5,-108 67.5,-72 132.5,-72 132.5,-108"/>
<text text-anchor="middle" x="100" y="-87.5" font-family="Helvetica,sans-Serif" font-size="10.00">Interfaces</text>
</a>
</g>
</g>
<!-- dir_9727953329a9486c582926f71fb60f92&#45;&gt;dir_e185953657720ba3a67126696ef566c7 -->
<g id="edge5" class="edge">
<title>dir_9727953329a9486c582926f71fb60f92&#45;&gt;dir_e185953657720ba3a67126696ef566c7</title>
<path fill="none" stroke="black" d="M120.23,-215.87C116.31,-191.67 109.1,-147.21 104.44,-118.39"/>
<polygon fill="black" stroke="black" points="107.84,-117.5 102.78,-108.19 100.93,-118.62 107.84,-117.5"/>
<g id="a_edge5&#45;headlabel"><a xlink:href="dir_000167_000093.html" target="_top" xlink:title="1">
<text text-anchor="middle" x="111.22" y="-118.1" font-family="Helvetica,sans-Serif" font-size="10.00">1</text>
</a>
</g>
</g>
<!-- dir_45c760a87a5b6501140792e95f122bb2 -->
<g id="node3" class="node">
<title>dir_45c760a87a5b6501140792e95f122bb2</title>
<g id="a_node3"><a xlink:href="dir_45c760a87a5b6501140792e95f122bb2.html" target="_top" xlink:title="src">
<polygon fill="white" stroke="black" points="150,-324 96,-324 96,-288 150,-288 150,-324"/>
<text text-anchor="middle" x="123" y="-303.5" font-family="Helvetica,sans-Serif" font-size="10.00">src</text>
</a>
</g>
</g>
<!-- dir_45c760a87a5b6501140792e95f122bb2&#45;&gt;dir_9727953329a9486c582926f71fb60f92 -->
<g id="edge6" class="edge">
<title>dir_45c760a87a5b6501140792e95f122bb2&#45;&gt;dir_9727953329a9486c582926f71fb60f92</title>
<path fill="none" stroke="black" d="M123,-287.7C123,-279.98 123,-270.71 123,-262.11"/>
<polygon fill="black" stroke="black" points="126.5,-262.1 123,-252.1 119.5,-262.1 126.5,-262.1"/>
<g id="a_edge6&#45;headlabel"><a xlink:href="dir_000168_000167.html" target="_top" xlink:title="1">
<text text-anchor="middle" x="129.34" y="-263.2" font-family="Helvetica,sans-Serif" font-size="10.00">1</text>
</a>
</g>
</g>
<!-- dir_3935290499818bf41fd36844b582ce63 -->
<g id="node4" class="node">
<title>dir_3935290499818bf41fd36844b582ce63</title>
<g id="a_node4"><a xlink:href="dir_3935290499818bf41fd36844b582ce63.html" target="_top" xlink:title="test">
<polygon fill="white" stroke="red" points="78,-324 24,-324 24,-288 78,-288 78,-324"/>
<text text-anchor="middle" x="51" y="-303.5" font-family="Helvetica,sans-Serif" font-size="10.00">test</text>
</a>
</g>
</g>
<!-- dir_a4226c5615a06a31e6344f5f3fd917e1&#45;&gt;dir_1a5504e72c2ab618c124e6472b08d26c -->
<g id="edge1" class="edge">
<title>dir_a4226c5615a06a31e6344f5f3fd917e1&#45;&gt;dir_1a5504e72c2ab618c124e6472b08d26c</title>
<path fill="none" stroke="black" d="M61.7,-143.77C56,-125.47 49.67,-95.93 58,-72 61.53,-61.86 67.91,-52.19 74.64,-43.96"/>
<polygon fill="black" stroke="black" points="77.44,-46.07 81.4,-36.24 72.17,-41.46 77.44,-46.07"/>
<g id="a_edge1&#45;headlabel"><a xlink:href="dir_000016_000144.html" target="_top" xlink:title="26">
<text text-anchor="middle" x="77.21" y="-48.15" font-family="Helvetica,sans-Serif" font-size="10.00">26</text>
</a>
</g>
</g>
<!-- dir_a4226c5615a06a31e6344f5f3fd917e1&#45;&gt;dir_e185953657720ba3a67126696ef566c7 -->
<g id="edge2" class="edge">
<title>dir_a4226c5615a06a31e6344f5f3fd917e1&#45;&gt;dir_e185953657720ba3a67126696ef566c7</title>
<path fill="none" stroke="black" d="M69.99,-143.7C72.85,-135.64 77.09,-125.89 81.58,-116.98"/>
<polygon fill="black" stroke="black" points="84.69,-118.58 86.29,-108.1 78.51,-115.3 84.69,-118.58"/>
<g id="a_edge2&#45;headlabel"><a xlink:href="dir_000016_000093.html" target="_top" xlink:title="8">
<text text-anchor="middle" x="85.51" y="-120.58" font-family="Helvetica,sans-Serif" font-size="10.00">8</text>
</a>
</g>
</g>
<!-- dir_e185953657720ba3a67126696ef566c7&#45;&gt;dir_a4226c5615a06a31e6344f5f3fd917e1 -->
<g id="edge7" class="edge">
<title>dir_e185953657720ba3a67126696ef566c7&#45;&gt;dir_a4226c5615a06a31e6344f5f3fd917e1</title>
<path fill="none" stroke="black" d="M98.08,-108.1C95.25,-116.13 91.02,-125.87 86.54,-134.8"/>
<polygon fill="black" stroke="black" points="83.41,-133.22 81.83,-143.7 89.6,-136.49 83.41,-133.22"/>
<g id="a_edge7&#45;headlabel"><a xlink:href="dir_000093_000016.html" target="_top" xlink:title="23">
<text text-anchor="middle" x="82.58" y="-126.22" font-family="Helvetica,sans-Serif" font-size="10.00">23</text>
</a>
</g>
</g>
<!-- dir_e185953657720ba3a67126696ef566c7&#45;&gt;dir_1a5504e72c2ab618c124e6472b08d26c -->
<g id="edge8" class="edge">
<title>dir_e185953657720ba3a67126696ef566c7&#45;&gt;dir_1a5504e72c2ab618c124e6472b08d26c</title>
<path fill="none" stroke="black" d="M100,-71.7C100,-63.98 100,-54.71 100,-46.11"/>
<polygon fill="black" stroke="black" points="103.5,-46.1 100,-36.1 96.5,-46.1 103.5,-46.1"/>
<g id="a_edge8&#45;headlabel"><a xlink:href="dir_000093_000144.html" target="_top" xlink:title="15">
<text text-anchor="middle" x="106.34" y="-47.2" font-family="Helvetica,sans-Serif" font-size="10.00">15</text>
</a>
</g>
</g>
</g>
</svg>
