<?xml version="1.0" encoding="UTF-8" standalone="no"?>
<!DOCTYPE svg PUBLIC "-//W3C//DTD SVG 1.1//EN"
 "http://www.w3.org/Graphics/SVG/1.1/DTD/svg11.dtd">
<!-- Generated by graphviz version 2.43.0 (0)
 -->
<!-- Title: Components/Service/EnvSensing Pages: 1 -->
<svg width="274pt" height="447pt"
 viewBox="0.00 0.00 274.00 447.00" xmlns="http://www.w3.org/2000/svg" xmlns:xlink="http://www.w3.org/1999/xlink">
<g id="graph0" class="graph" transform="scale(1 1) rotate(0) translate(4 443)">
<title>Components/Service/EnvSensing</title>
<g id="clust1" class="cluster">
<title>clusterdir_6164661bfb521e4b540c7b7052af2911</title>
<g id="a_clust1"><a xlink:href="dir_6164661bfb521e4b540c7b7052af2911.html" target="_top" xlink:title="Service">
<polygon fill="#ddddee" stroke="black" points="8,-272 8,-431 258,-431 258,-272 8,-272"/>
<text text-anchor="middle" x="133" y="-419" font-family="Helvetica,sans-Serif" font-size="10.00">Service</text>
</a>
</g>
</g>
<g id="clust2" class="cluster">
<title>clusterdir_fe50d92fc4b0e807b4971bfb4a4fef1f</title>
<g id="a_clust2"><a xlink:href="dir_fe50d92fc4b0e807b4971bfb4a4fef1f.html" target="_top">
<polygon fill="#eeeeff" stroke="black" points="16,-280 16,-404 250,-404 250,-280 16,-280"/>
</a>
</g>
</g>
<!-- dir_fe50d92fc4b0e807b4971bfb4a4fef1f -->
<g id="node1" class="node">
<title>dir_fe50d92fc4b0e807b4971bfb4a4fef1f</title>
<text text-anchor="middle" x="205" y="-375.5" font-family="Helvetica,sans-Serif" font-size="10.00">EnvSensing</text>
</g>
<!-- dir_2795d85dd8cf4891af28cb6dc41a11cb -->
<g id="node2" class="node">
<title>dir_2795d85dd8cf4891af28cb6dc41a11cb</title>
<g id="a_node2"><a xlink:href="dir_2795d85dd8cf4891af28cb6dc41a11cb.html" target="_top" xlink:title="include">
<polygon fill="white" stroke="black" points="150,-324 96,-324 96,-288 150,-288 150,-324"/>
<text text-anchor="middle" x="123" y="-303.5" font-family="Helvetica,sans-Serif" font-size="10.00">include</text>
</a>
</g>
</g>
<!-- dir_a4226c5615a06a31e6344f5f3fd917e1 -->
<g id="node5" class="node">
<title>dir_a4226c5615a06a31e6344f5f3fd917e1</title>
<g id="a_node5"><a xlink:href="dir_a4226c5615a06a31e6344f5f3fd917e1.html" target="_top" xlink:title="Objects">
<polygon fill="none" stroke="red" points="233,-180 179,-180 179,-144 233,-144 233,-180"/>
<text text-anchor="middle" x="206" y="-159.5" font-family="Helvetica,sans-Serif" font-size="10.00">Objects</text>
</a>
</g>
</g>
<!-- dir_2795d85dd8cf4891af28cb6dc41a11cb&#45;&gt;dir_a4226c5615a06a31e6344f5f3fd917e1 -->
<g id="edge6" class="edge">
<title>dir_2795d85dd8cf4891af28cb6dc41a11cb&#45;&gt;dir_a4226c5615a06a31e6344f5f3fd917e1</title>
<path fill="none" stroke="black" d="M138.5,-287.63C146.96,-277.64 157.26,-264.6 165,-252 177.32,-231.94 188.3,-207.56 195.79,-189.4"/>
<polygon fill="black" stroke="black" points="199.08,-190.59 199.58,-180.01 192.59,-187.97 199.08,-190.59"/>
<g id="a_edge6&#45;headlabel"><a xlink:href="dir_000174_000016.html" target="_top" xlink:title="2">
<text text-anchor="middle" x="200.37" y="-192.49" font-family="Helvetica,sans-Serif" font-size="10.00">2</text>
</a>
</g>
</g>
<!-- dir_82d83c9747486c2eb8d3c4c8f409d82b -->
<g id="node6" class="node">
<title>dir_82d83c9747486c2eb8d3c4c8f409d82b</title>
<g id="a_node6"><a xlink:href="dir_82d83c9747486c2eb8d3c4c8f409d82b.html" target="_top" xlink:title="Sensor">
<polygon fill="none" stroke="red" points="123,-252 69,-252 69,-216 123,-216 123,-252"/>
<text text-anchor="middle" x="96" y="-231.5" font-family="Helvetica,sans-Serif" font-size="10.00">Sensor</text>
</a>
</g>
</g>
<!-- dir_2795d85dd8cf4891af28cb6dc41a11cb&#45;&gt;dir_82d83c9747486c2eb8d3c4c8f409d82b -->
<g id="edge7" class="edge">
<title>dir_2795d85dd8cf4891af28cb6dc41a11cb&#45;&gt;dir_82d83c9747486c2eb8d3c4c8f409d82b</title>
<path fill="none" stroke="black" d="M116.33,-287.7C113.29,-279.81 109.62,-270.3 106.24,-261.55"/>
<polygon fill="black" stroke="black" points="109.46,-260.17 102.6,-252.1 102.93,-262.69 109.46,-260.17"/>
<g id="a_edge7&#45;headlabel"><a xlink:href="dir_000174_000070.html" target="_top" xlink:title="2">
<text text-anchor="middle" x="113.4" y="-260.01" font-family="Helvetica,sans-Serif" font-size="10.00">2</text>
</a>
</g>
</g>
<!-- dir_1a5504e72c2ab618c124e6472b08d26c -->
<g id="node7" class="node">
<title>dir_1a5504e72c2ab618c124e6472b08d26c</title>
<g id="a_node7"><a xlink:href="dir_1a5504e72c2ab618c124e6472b08d26c.html" target="_top" xlink:title="Global_Include">
<polygon fill="none" stroke="black" points="154.5,-36 65.5,-36 65.5,0 154.5,0 154.5,-36"/>
<text text-anchor="middle" x="110" y="-15.5" font-family="Helvetica,sans-Serif" font-size="10.00">Global_Include</text>
</a>
</g>
</g>
<!-- dir_2795d85dd8cf4891af28cb6dc41a11cb&#45;&gt;dir_1a5504e72c2ab618c124e6472b08d26c -->
<g id="edge8" class="edge">
<title>dir_2795d85dd8cf4891af28cb6dc41a11cb&#45;&gt;dir_1a5504e72c2ab618c124e6472b08d26c</title>
<path fill="none" stroke="black" d="M95.99,-290.07C82.49,-281 67.48,-268.07 60,-252 27.23,-181.62 69.37,-89.22 94.2,-44.91"/>
<polygon fill="black" stroke="black" points="97.26,-46.62 99.21,-36.2 91.19,-43.13 97.26,-46.62"/>
<g id="a_edge8&#45;headlabel"><a xlink:href="dir_000174_000147.html" target="_top" xlink:title="1">
<text text-anchor="middle" x="97.93" y="-48.65" font-family="Helvetica,sans-Serif" font-size="10.00">1</text>
</a>
</g>
</g>
<!-- dir_e185953657720ba3a67126696ef566c7 -->
<g id="node8" class="node">
<title>dir_e185953657720ba3a67126696ef566c7</title>
<g id="a_node8"><a xlink:href="dir_e185953657720ba3a67126696ef566c7.html" target="_top" xlink:title="Interfaces">
<polygon fill="none" stroke="red" points="177.5,-108 112.5,-108 112.5,-72 177.5,-72 177.5,-108"/>
<text text-anchor="middle" x="145" y="-87.5" font-family="Helvetica,sans-Serif" font-size="10.00">Interfaces</text>
</a>
</g>
</g>
<!-- dir_2795d85dd8cf4891af28cb6dc41a11cb&#45;&gt;dir_e185953657720ba3a67126696ef566c7 -->
<g id="edge9" class="edge">
<title>dir_2795d85dd8cf4891af28cb6dc41a11cb&#45;&gt;dir_e185953657720ba3a67126696ef566c7</title>
<path fill="none" stroke="black" d="M126.3,-287.87C128.2,-277.52 130.49,-264.04 132,-252 137.82,-205.45 141.58,-151 143.5,-118.84"/>
<polygon fill="black" stroke="black" points="147.01,-118.63 144.09,-108.44 140.02,-118.23 147.01,-118.63"/>
<g id="a_edge9&#45;headlabel"><a xlink:href="dir_000174_000093.html" target="_top" xlink:title="1">
<text text-anchor="middle" x="149.64" y="-119.88" font-family="Helvetica,sans-Serif" font-size="10.00">1</text>
</a>
</g>
</g>
<!-- dir_e388f54cb8178f7c3ae72ea69bcc52e2 -->
<g id="node3" class="node">
<title>dir_e388f54cb8178f7c3ae72ea69bcc52e2</title>
<g id="a_node3"><a xlink:href="dir_e388f54cb8178f7c3ae72ea69bcc52e2.html" target="_top" xlink:title="src">
<polygon fill="white" stroke="black" points="150,-396 96,-396 96,-360 150,-360 150,-396"/>
<text text-anchor="middle" x="123" y="-375.5" font-family="Helvetica,sans-Serif" font-size="10.00">src</text>
</a>
</g>
</g>
<!-- dir_e388f54cb8178f7c3ae72ea69bcc52e2&#45;&gt;dir_2795d85dd8cf4891af28cb6dc41a11cb -->
<g id="edge10" class="edge">
<title>dir_e388f54cb8178f7c3ae72ea69bcc52e2&#45;&gt;dir_2795d85dd8cf4891af28cb6dc41a11cb</title>
<path fill="none" stroke="black" d="M123,-359.7C123,-351.98 123,-342.71 123,-334.11"/>
<polygon fill="black" stroke="black" points="126.5,-334.1 123,-324.1 119.5,-334.1 126.5,-334.1"/>
<g id="a_edge10&#45;headlabel"><a xlink:href="dir_000175_000174.html" target="_top" xlink:title="1">
<text text-anchor="middle" x="129.34" y="-335.2" font-family="Helvetica,sans-Serif" font-size="10.00">1</text>
</a>
</g>
</g>
<!-- dir_e2c56cfe90bfb886a7fff9bdb2cc9545 -->
<g id="node4" class="node">
<title>dir_e2c56cfe90bfb886a7fff9bdb2cc9545</title>
<g id="a_node4"><a xlink:href="dir_e2c56cfe90bfb886a7fff9bdb2cc9545.html" target="_top" xlink:title="test">
<polygon fill="white" stroke="red" points="78,-396 24,-396 24,-360 78,-360 78,-396"/>
<text text-anchor="middle" x="51" y="-375.5" font-family="Helvetica,sans-Serif" font-size="10.00">test</text>
</a>
</g>
</g>
<!-- dir_a4226c5615a06a31e6344f5f3fd917e1&#45;&gt;dir_1a5504e72c2ab618c124e6472b08d26c -->
<g id="edge1" class="edge">
<title>dir_a4226c5615a06a31e6344f5f3fd917e1&#45;&gt;dir_1a5504e72c2ab618c124e6472b08d26c</title>
<path fill="none" stroke="black" d="M206.01,-143.82C205.24,-124.75 201.57,-93.81 187,-72 178.87,-59.84 166.92,-49.67 154.85,-41.6"/>
<polygon fill="black" stroke="black" points="156.42,-38.46 146.09,-36.1 152.7,-44.38 156.42,-38.46"/>
<g id="a_edge1&#45;headlabel"><a xlink:href="dir_000016_000147.html" target="_top" xlink:title="26">
<text text-anchor="middle" x="160.98" y="-35.46" font-family="Helvetica,sans-Serif" font-size="10.00">26</text>
</a>
</g>
</g>
<!-- dir_a4226c5615a06a31e6344f5f3fd917e1&#45;&gt;dir_e185953657720ba3a67126696ef566c7 -->
<g id="edge2" class="edge">
<title>dir_a4226c5615a06a31e6344f5f3fd917e1&#45;&gt;dir_e185953657720ba3a67126696ef566c7</title>
<path fill="none" stroke="black" d="M185.01,-143.7C176.91,-135.39 167.9,-125.28 160.4,-116.14"/>
<polygon fill="black" stroke="black" points="162.97,-113.75 154.01,-108.1 157.5,-118.11 162.97,-113.75"/>
<g id="a_edge2&#45;headlabel"><a xlink:href="dir_000016_000093.html" target="_top" xlink:title="8">
<text text-anchor="middle" x="167.43" y="-112.3" font-family="Helvetica,sans-Serif" font-size="10.00">8</text>
</a>
</g>
</g>
<!-- dir_82d83c9747486c2eb8d3c4c8f409d82b&#45;&gt;dir_a4226c5615a06a31e6344f5f3fd917e1 -->
<g id="edge3" class="edge">
<title>dir_82d83c9747486c2eb8d3c4c8f409d82b&#45;&gt;dir_a4226c5615a06a31e6344f5f3fd917e1</title>
<path fill="none" stroke="black" d="M122.91,-215.88C137.16,-206.81 154.85,-195.55 170.24,-185.76"/>
<polygon fill="black" stroke="black" points="172.43,-188.51 178.99,-180.19 168.67,-182.61 172.43,-188.51"/>
<g id="a_edge3&#45;headlabel"><a xlink:href="dir_000070_000016.html" target="_top" xlink:title="13">
<text text-anchor="middle" x="170.92" y="-190.34" font-family="Helvetica,sans-Serif" font-size="10.00">13</text>
</a>
</g>
</g>
<!-- dir_82d83c9747486c2eb8d3c4c8f409d82b&#45;&gt;dir_1a5504e72c2ab618c124e6472b08d26c -->
<g id="edge4" class="edge">
<title>dir_82d83c9747486c2eb8d3c4c8f409d82b&#45;&gt;dir_1a5504e72c2ab618c124e6472b08d26c</title>
<path fill="none" stroke="black" d="M96.26,-215.58C96.8,-186 98.43,-124.12 103,-72 103.74,-63.55 104.84,-54.38 105.96,-46.07"/>
<polygon fill="black" stroke="black" points="109.43,-46.53 107.35,-36.14 102.5,-45.56 109.43,-46.53"/>
<g id="a_edge4&#45;headlabel"><a xlink:href="dir_000070_000147.html" target="_top" xlink:title="8">
<text text-anchor="middle" x="111.74" y="-47.99" font-family="Helvetica,sans-Serif" font-size="10.00">8</text>
</a>
</g>
</g>
<!-- dir_82d83c9747486c2eb8d3c4c8f409d82b&#45;&gt;dir_e185953657720ba3a67126696ef566c7 -->
<g id="edge5" class="edge">
<title>dir_82d83c9747486c2eb8d3c4c8f409d82b&#45;&gt;dir_e185953657720ba3a67126696ef566c7</title>
<path fill="none" stroke="black" d="M101.91,-215.87C110.3,-191.56 125.74,-146.82 135.68,-118.01"/>
<polygon fill="black" stroke="black" points="139.12,-118.78 139.07,-108.19 132.5,-116.5 139.12,-118.78"/>
<g id="a_edge5&#45;headlabel"><a xlink:href="dir_000070_000093.html" target="_top" xlink:title="1">
<text text-anchor="middle" x="140.63" y="-120.61" font-family="Helvetica,sans-Serif" font-size="10.00">1</text>
</a>
</g>
</g>
<!-- dir_e185953657720ba3a67126696ef566c7&#45;&gt;dir_a4226c5615a06a31e6344f5f3fd917e1 -->
<g id="edge11" class="edge">
<title>dir_e185953657720ba3a67126696ef566c7&#45;&gt;dir_a4226c5615a06a31e6344f5f3fd917e1</title>
<path fill="none" stroke="black" d="M165.8,-108.1C173.88,-116.38 182.9,-126.49 190.42,-135.64"/>
<polygon fill="black" stroke="black" points="187.87,-138.06 196.84,-143.7 193.34,-133.69 187.87,-138.06"/>
<g id="a_edge11&#45;headlabel"><a xlink:href="dir_000093_000016.html" target="_top" xlink:title="23">
<text text-anchor="middle" x="183.41" y="-134.51" font-family="Helvetica,sans-Serif" font-size="10.00">23</text>
</a>
</g>
</g>
<!-- dir_e185953657720ba3a67126696ef566c7&#45;&gt;dir_1a5504e72c2ab618c124e6472b08d26c -->
<g id="edge12" class="edge">
<title>dir_e185953657720ba3a67126696ef566c7&#45;&gt;dir_1a5504e72c2ab618c124e6472b08d26c</title>
<path fill="none" stroke="black" d="M136.35,-71.7C132.36,-63.73 127.55,-54.1 123.13,-45.26"/>
<polygon fill="black" stroke="black" points="126.15,-43.48 118.55,-36.1 119.89,-46.61 126.15,-43.48"/>
<g id="a_edge12&#45;headlabel"><a xlink:href="dir_000093_000147.html" target="_top" xlink:title="15">
<text text-anchor="middle" x="130.3" y="-42.93" font-family="Helvetica,sans-Serif" font-size="10.00">15</text>
</a>
</g>
</g>
</g>
</svg>
