<?xml version="1.0" encoding="UTF-8" standalone="no"?>
<!DOCTYPE svg PUBLIC "-//W3C//DTD SVG 1.1//EN"
 "http://www.w3.org/Graphics/SVG/1.1/DTD/svg11.dtd">
<!-- Generated by graphviz version 2.43.0 (0)
 -->
<!-- Title: Components/Objects/OTA Pages: 1 -->
<svg width="254pt" height="375pt"
 viewBox="0.00 0.00 254.00 375.00" xmlns="http://www.w3.org/2000/svg" xmlns:xlink="http://www.w3.org/1999/xlink">
<g id="graph0" class="graph" transform="scale(1 1) rotate(0) translate(4 371)">
<title>Components/Objects/OTA</title>
<g id="clust1" class="cluster">
<title>clusterdir_a4226c5615a06a31e6344f5f3fd917e1</title>
<g id="a_clust1"><a xlink:href="dir_a4226c5615a06a31e6344f5f3fd917e1.html" target="_top" xlink:title="Objects">
<polygon fill="#ddddee" stroke="black" points="8,-200 8,-359 238,-359 238,-200 8,-200"/>
<text text-anchor="middle" x="123" y="-347" font-family="Helvetica,sans-Serif" font-size="10.00">Objects</text>
</a>
</g>
</g>
<g id="clust2" class="cluster">
<title>clusterdir_d2942b6148df0ab9010d67087a1cea59</title>
<g id="a_clust2"><a xlink:href="dir_d2942b6148df0ab9010d67087a1cea59.html" target="_top">
<polygon fill="#eeeeff" stroke="black" points="16,-208 16,-332 230,-332 230,-208 16,-208"/>
</a>
</g>
</g>
<!-- dir_d2942b6148df0ab9010d67087a1cea59 -->
<g id="node1" class="node">
<title>dir_d2942b6148df0ab9010d67087a1cea59</title>
<text text-anchor="middle" x="195" y="-303.5" font-family="Helvetica,sans-Serif" font-size="10.00">OTA</text>
</g>
<!-- dir_af2eb2b6b80ee2f77e4d3499be22d24a -->
<g id="node2" class="node">
<title>dir_af2eb2b6b80ee2f77e4d3499be22d24a</title>
<g id="a_node2"><a xlink:href="dir_af2eb2b6b80ee2f77e4d3499be22d24a.html" target="_top" xlink:title="include">
<polygon fill="white" stroke="black" points="114,-252 60,-252 60,-216 114,-216 114,-252"/>
<text text-anchor="middle" x="87" y="-231.5" font-family="Helvetica,sans-Serif" font-size="10.00">include</text>
</a>
</g>
</g>
<!-- dir_4816d2fb8abcfd1fbfb7e56b67e0baa1 -->
<g id="node5" class="node">
<title>dir_4816d2fb8abcfd1fbfb7e56b67e0baa1</title>
<g id="a_node5"><a xlink:href="dir_4816d2fb8abcfd1fbfb7e56b67e0baa1.html" target="_top" xlink:title="ErrorHandler">
<polygon fill="none" stroke="red" points="141,-108 63,-108 63,-72 141,-72 141,-108"/>
<text text-anchor="middle" x="102" y="-87.5" font-family="Helvetica,sans-Serif" font-size="10.00">ErrorHandler</text>
</a>
</g>
</g>
<!-- dir_af2eb2b6b80ee2f77e4d3499be22d24a&#45;&gt;dir_4816d2fb8abcfd1fbfb7e56b67e0baa1 -->
<g id="edge1" class="edge">
<title>dir_af2eb2b6b80ee2f77e4d3499be22d24a&#45;&gt;dir_4816d2fb8abcfd1fbfb7e56b67e0baa1</title>
<path fill="none" stroke="black" d="M88.81,-215.87C91.37,-191.67 96.06,-147.21 99.11,-118.39"/>
<polygon fill="black" stroke="black" points="102.61,-118.5 100.18,-108.19 95.65,-117.77 102.61,-118.5"/>
<g id="a_edge1&#45;headlabel"><a xlink:href="dir_000182_000023.html" target="_top" xlink:title="1">
<text text-anchor="middle" x="105.06" y="-119.87" font-family="Helvetica,sans-Serif" font-size="10.00">1</text>
</a>
</g>
</g>
<!-- dir_1a5504e72c2ab618c124e6472b08d26c -->
<g id="node6" class="node">
<title>dir_1a5504e72c2ab618c124e6472b08d26c</title>
<g id="a_node6"><a xlink:href="dir_1a5504e72c2ab618c124e6472b08d26c.html" target="_top" xlink:title="Global_Include">
<polygon fill="none" stroke="black" points="146.5,-36 57.5,-36 57.5,0 146.5,0 146.5,-36"/>
<text text-anchor="middle" x="102" y="-15.5" font-family="Helvetica,sans-Serif" font-size="10.00">Global_Include</text>
</a>
</g>
</g>
<!-- dir_af2eb2b6b80ee2f77e4d3499be22d24a&#45;&gt;dir_1a5504e72c2ab618c124e6472b08d26c -->
<g id="edge2" class="edge">
<title>dir_af2eb2b6b80ee2f77e4d3499be22d24a&#45;&gt;dir_1a5504e72c2ab618c124e6472b08d26c</title>
<path fill="none" stroke="black" d="M77.17,-215.55C61.55,-185.42 34.7,-122.05 54,-72 58.1,-61.36 65.44,-51.53 73.17,-43.3"/>
<polygon fill="black" stroke="black" points="75.67,-45.75 80.29,-36.21 70.73,-40.78 75.67,-45.75"/>
<g id="a_edge2&#45;headlabel"><a xlink:href="dir_000182_000123.html" target="_top" xlink:title="1">
<text text-anchor="middle" x="75.12" y="-47.79" font-family="Helvetica,sans-Serif" font-size="10.00">1</text>
</a>
</g>
</g>
<!-- dir_6a49a4a01df89ea000e629175e7db917 -->
<g id="node7" class="node">
<title>dir_6a49a4a01df89ea000e629175e7db917</title>
<g id="a_node7"><a xlink:href="dir_6a49a4a01df89ea000e629175e7db917.html" target="_top" xlink:title="RTOS">
<polygon fill="none" stroke="red" points="169,-180 115,-180 115,-144 169,-144 169,-180"/>
<text text-anchor="middle" x="142" y="-159.5" font-family="Helvetica,sans-Serif" font-size="10.00">RTOS</text>
</a>
</g>
</g>
<!-- dir_af2eb2b6b80ee2f77e4d3499be22d24a&#45;&gt;dir_6a49a4a01df89ea000e629175e7db917 -->
<g id="edge3" class="edge">
<title>dir_af2eb2b6b80ee2f77e4d3499be22d24a&#45;&gt;dir_6a49a4a01df89ea000e629175e7db917</title>
<path fill="none" stroke="black" d="M100.6,-215.7C107.12,-207.39 115.07,-197.28 122.25,-188.14"/>
<polygon fill="black" stroke="black" points="125.13,-190.13 128.56,-180.1 119.63,-185.81 125.13,-190.13"/>
<g id="a_edge3&#45;headlabel"><a xlink:href="dir_000182_000069.html" target="_top" xlink:title="1">
<text text-anchor="middle" x="125.15" y="-192.21" font-family="Helvetica,sans-Serif" font-size="10.00">1</text>
</a>
</g>
</g>
<!-- dir_33b4bf929a645fc62a3f5400d059646c -->
<g id="node3" class="node">
<title>dir_33b4bf929a645fc62a3f5400d059646c</title>
<g id="a_node3"><a xlink:href="dir_33b4bf929a645fc62a3f5400d059646c.html" target="_top" xlink:title="src">
<polygon fill="white" stroke="black" points="150,-324 96,-324 96,-288 150,-288 150,-324"/>
<text text-anchor="middle" x="123" y="-303.5" font-family="Helvetica,sans-Serif" font-size="10.00">src</text>
</a>
</g>
</g>
<!-- dir_33b4bf929a645fc62a3f5400d059646c&#45;&gt;dir_af2eb2b6b80ee2f77e4d3499be22d24a -->
<g id="edge6" class="edge">
<title>dir_33b4bf929a645fc62a3f5400d059646c&#45;&gt;dir_af2eb2b6b80ee2f77e4d3499be22d24a</title>
<path fill="none" stroke="black" d="M114.1,-287.7C110,-279.73 105.05,-270.1 100.51,-261.26"/>
<polygon fill="black" stroke="black" points="103.48,-259.4 95.8,-252.1 97.26,-262.6 103.48,-259.4"/>
<g id="a_edge6&#45;headlabel"><a xlink:href="dir_000183_000182.html" target="_top" xlink:title="1">
<text text-anchor="middle" x="107.65" y="-258.79" font-family="Helvetica,sans-Serif" font-size="10.00">1</text>
</a>
</g>
</g>
<!-- dir_4d3e36ae3c6cc4721587fdcd1a04bdfb -->
<g id="node4" class="node">
<title>dir_4d3e36ae3c6cc4721587fdcd1a04bdfb</title>
<g id="a_node4"><a xlink:href="dir_4d3e36ae3c6cc4721587fdcd1a04bdfb.html" target="_top" xlink:title="test">
<polygon fill="white" stroke="red" points="78,-324 24,-324 24,-288 78,-288 78,-324"/>
<text text-anchor="middle" x="51" y="-303.5" font-family="Helvetica,sans-Serif" font-size="10.00">test</text>
</a>
</g>
</g>
<!-- dir_4d3e36ae3c6cc4721587fdcd1a04bdfb&#45;&gt;dir_af2eb2b6b80ee2f77e4d3499be22d24a -->
<g id="edge4" class="edge">
<title>dir_4d3e36ae3c6cc4721587fdcd1a04bdfb&#45;&gt;dir_af2eb2b6b80ee2f77e4d3499be22d24a</title>
<path fill="none" stroke="black" d="M59.9,-287.7C64,-279.73 68.95,-270.1 73.49,-261.26"/>
<polygon fill="black" stroke="black" points="76.74,-262.6 78.2,-252.1 70.52,-259.4 76.74,-262.6"/>
<g id="a_edge4&#45;headlabel"><a xlink:href="dir_000045_000182.html" target="_top" xlink:title="1">
<text text-anchor="middle" x="77.62" y="-264.59" font-family="Helvetica,sans-Serif" font-size="10.00">1</text>
</a>
</g>
</g>
<!-- dir_4816d2fb8abcfd1fbfb7e56b67e0baa1&#45;&gt;dir_1a5504e72c2ab618c124e6472b08d26c -->
<g id="edge5" class="edge">
<title>dir_4816d2fb8abcfd1fbfb7e56b67e0baa1&#45;&gt;dir_1a5504e72c2ab618c124e6472b08d26c</title>
<path fill="none" stroke="black" d="M102,-71.7C102,-63.98 102,-54.71 102,-46.11"/>
<polygon fill="black" stroke="black" points="105.5,-46.1 102,-36.1 98.5,-46.1 105.5,-46.1"/>
<g id="a_edge5&#45;headlabel"><a xlink:href="dir_000023_000123.html" target="_top" xlink:title="2">
<text text-anchor="middle" x="108.34" y="-47.2" font-family="Helvetica,sans-Serif" font-size="10.00">2</text>
</a>
</g>
</g>
<!-- dir_6a49a4a01df89ea000e629175e7db917&#45;&gt;dir_4816d2fb8abcfd1fbfb7e56b67e0baa1 -->
<g id="edge7" class="edge">
<title>dir_6a49a4a01df89ea000e629175e7db917&#45;&gt;dir_4816d2fb8abcfd1fbfb7e56b67e0baa1</title>
<path fill="none" stroke="black" d="M132.11,-143.7C127.51,-135.64 121.94,-125.89 116.85,-116.98"/>
<polygon fill="black" stroke="black" points="119.77,-115.05 111.77,-108.1 113.7,-118.52 119.77,-115.05"/>
<g id="a_edge7&#45;headlabel"><a xlink:href="dir_000069_000023.html" target="_top" xlink:title="2">
<text text-anchor="middle" x="124.02" y="-114.26" font-family="Helvetica,sans-Serif" font-size="10.00">2</text>
</a>
</g>
</g>
<!-- dir_6a49a4a01df89ea000e629175e7db917&#45;&gt;dir_1a5504e72c2ab618c124e6472b08d26c -->
<g id="edge8" class="edge">
<title>dir_6a49a4a01df89ea000e629175e7db917&#45;&gt;dir_1a5504e72c2ab618c124e6472b08d26c</title>
<path fill="none" stroke="black" d="M147.9,-143.98C153.29,-125.59 159.15,-95.74 150,-72 145.9,-61.36 138.56,-51.53 130.83,-43.3"/>
<polygon fill="black" stroke="black" points="133.27,-40.78 123.71,-36.21 128.33,-45.75 133.27,-40.78"/>
<g id="a_edge8&#45;headlabel"><a xlink:href="dir_000069_000123.html" target="_top" xlink:title="2">
<text text-anchor="middle" x="137.82" y="-38.81" font-family="Helvetica,sans-Serif" font-size="10.00">2</text>
</a>
</g>
</g>
</g>
</svg>
