<?xml version="1.0" encoding="UTF-8" standalone="no"?>
<!DOCTYPE svg PUBLIC "-//W3C//DTD SVG 1.1//EN"
 "http://www.w3.org/Graphics/SVG/1.1/DTD/svg11.dtd">
<!-- Generated by graphviz version 2.43.0 (0)
 -->
<!-- Title: Components Pages: 1 -->
<!--zoomable 508 -->
<svg id="main" version="1.1" xmlns="http://www.w3.org/2000/svg" xmlns:xlink="http://www.w3.org/1999/xlink" xml:space="preserve" onload="init(evt)">
<style type="text/css"><![CDATA[
.edge:hover path { stroke: red; }
.edge:hover polygon { stroke: red; fill: red; }
]]></style>
<script type="text/javascript"><![CDATA[
var edges = document.getElementsByTagName('g');
if (edges && edges.length) {
  for (var i=0;i<edges.length;i++) {
    if (edges[i].id.substr(0,4)=='edge') {
      edges[i].setAttribute('class','edge');
    }
  }
}
]]></script>
        <defs>
                <circle id="rim" cx="0" cy="0" r="7"/>
                <circle id="rim2" cx="0" cy="0" r="3.5"/>
                <g id="zoomPlus">
                        <use xlink:href="#rim" fill="#404040">
                                <set attributeName="fill" to="#808080" begin="zoomplus.mouseover" end="zoomplus.mouseout"/>
                        </use>
                        <path d="M-4,0h8M0,-4v8" fill="none" stroke="white" stroke-width="1.5" pointer-events="none"/>
                </g>
                <g id="zoomMin">
                        <use xlink:href="#rim" fill="#404040">
                                <set attributeName="fill" to="#808080" begin="zoomminus.mouseover" end="zoomminus.mouseout"/>
                        </use>
                        <path d="M-4,0h8" fill="none" stroke="white" stroke-width="1.5" pointer-events="none"/>
                </g>
                <g id="dirArrow">
                        <path fill="none" stroke="white" stroke-width="1.5" d="M0,-3.0v7 M-2.5,-0.5L0,-3.0L2.5,-0.5"/>
                </g>
               <g id="resetDef">
                       <use xlink:href="#rim2" fill="#404040">
                               <set attributeName="fill" to="#808080" begin="reset.mouseover" end="reset.mouseout"/>
                       </use>
               </g>
        </defs>

<script type="text/javascript">
var viewWidth = 470;
var viewHeight = 508;
var sectionId = 'dynsection-0';
</script>
<script xlink:href="svgpan.js"/>
<svg id="graph" class="graph">
<g id="viewport">
<title>Components</title>
<g id="clust1" class="cluster">
<title>clusterdir_08f45fe6822aeb4ce2bc268e3b1361be</title>
<g id="a_clust1"><a xlink:href="dir_08f45fe6822aeb4ce2bc268e3b1361be.html" target="_top">
<polygon fill="#eeeeff" stroke="black" points="8,-8 8,-492 454,-492 454,-8 8,-8"/>
</a>
</g>
</g>
<!-- dir_08f45fe6822aeb4ce2bc268e3b1361be -->
<g id="node1" class="node">
<title>dir_08f45fe6822aeb4ce2bc268e3b1361be</title>
<text text-anchor="middle" x="407" y="-463.5" font-family="Helvetica,sans-Serif" font-size="10.00">Components</text>
</g>
<!-- dir_8efbaa1056a51686757185dce0bc8da0 -->
<g id="node2" class="node">
<title>dir_8efbaa1056a51686757185dce0bc8da0</title>
<g id="a_node2"><a xlink:href="dir_8efbaa1056a51686757185dce0bc8da0.html" target="_top" xlink:title="Actuator">
<polygon fill="white" stroke="red" points="237,-412 179,-412 179,-376 237,-376 237,-412"/>
<text text-anchor="middle" x="208" y="-391.5" font-family="Helvetica,sans-Serif" font-size="10.00">Actuator</text>
</a>
</g>
</g>
<!-- dir_1a5504e72c2ab618c124e6472b08d26c -->
<g id="node6" class="node">
<title>dir_1a5504e72c2ab618c124e6472b08d26c</title>
<g id="a_node6"><a xlink:href="dir_1a5504e72c2ab618c124e6472b08d26c.html" target="_top" xlink:title="Global_Include">
<polygon fill="white" stroke="black" points="325.5,-52 236.5,-52 236.5,-16 325.5,-16 325.5,-52"/>
<text text-anchor="middle" x="281" y="-31.5" font-family="Helvetica,sans-Serif" font-size="10.00">Global_Include</text>
</a>
</g>
</g>
<!-- dir_8efbaa1056a51686757185dce0bc8da0&#45;&gt;dir_1a5504e72c2ab618c124e6472b08d26c -->
<g id="edge26" class="edge">
<title>dir_8efbaa1056a51686757185dce0bc8da0&#45;&gt;dir_1a5504e72c2ab618c124e6472b08d26c</title>
<path fill="none" stroke="black" d="M237.04,-392.79C277.67,-390.92 351.38,-381.54 395,-340 425.23,-311.21 425,-292.74 425,-251 425,-251 425,-251 425,-177 425,-131.85 407.84,-120.02 376,-88 363.53,-75.46 347.48,-65.01 332.13,-56.79"/>
<polygon fill="black" stroke="black" points="333.7,-53.66 323.2,-52.21 330.5,-59.89 333.7,-53.66"/>
<g id="a_edge26&#45;headlabel"><a xlink:href="dir_000001_000108.html" target="_top" xlink:title="1">
<text text-anchor="middle" x="338.19" y="-50.27" font-family="Helvetica,sans-Serif" font-size="10.00">1</text>
</a>
</g>
</g>
<!-- dir_e185953657720ba3a67126696ef566c7 -->
<g id="node7" class="node">
<title>dir_e185953657720ba3a67126696ef566c7</title>
<g id="a_node7"><a xlink:href="dir_e185953657720ba3a67126696ef566c7.html" target="_top" xlink:title="Interfaces">
<polygon fill="white" stroke="red" points="159.5,-340 94.5,-340 94.5,-304 159.5,-304 159.5,-340"/>
<text text-anchor="middle" x="127" y="-319.5" font-family="Helvetica,sans-Serif" font-size="10.00">Interfaces</text>
</a>
</g>
</g>
<!-- dir_8efbaa1056a51686757185dce0bc8da0&#45;&gt;dir_e185953657720ba3a67126696ef566c7 -->
<g id="edge27" class="edge">
<title>dir_8efbaa1056a51686757185dce0bc8da0&#45;&gt;dir_e185953657720ba3a67126696ef566c7</title>
<path fill="none" stroke="black" d="M187.98,-375.7C177.87,-366.97 165.46,-356.24 154.48,-346.75"/>
<polygon fill="black" stroke="black" points="156.65,-343.99 146.79,-340.1 152.07,-349.29 156.65,-343.99"/>
<g id="a_edge27&#45;headlabel"><a xlink:href="dir_000001_000092.html" target="_top" xlink:title="1">
<text text-anchor="middle" x="161.22" y="-341.7" font-family="Helvetica,sans-Serif" font-size="10.00">1</text>
</a>
</g>
</g>
<!-- dir_a4226c5615a06a31e6344f5f3fd917e1 -->
<g id="node8" class="node">
<title>dir_a4226c5615a06a31e6344f5f3fd917e1</title>
<g id="a_node8"><a xlink:href="dir_a4226c5615a06a31e6344f5f3fd917e1.html" target="_top" xlink:title="Objects">
<polygon fill="white" stroke="red" points="256,-268 202,-268 202,-232 256,-232 256,-268"/>
<text text-anchor="middle" x="229" y="-247.5" font-family="Helvetica,sans-Serif" font-size="10.00">Objects</text>
</a>
</g>
</g>
<!-- dir_8efbaa1056a51686757185dce0bc8da0&#45;&gt;dir_a4226c5615a06a31e6344f5f3fd917e1 -->
<g id="edge25" class="edge">
<title>dir_8efbaa1056a51686757185dce0bc8da0&#45;&gt;dir_a4226c5615a06a31e6344f5f3fd917e1</title>
<path fill="none" stroke="black" d="M210.53,-375.87C214.11,-351.67 220.69,-307.21 224.95,-278.39"/>
<polygon fill="black" stroke="black" points="228.46,-278.59 226.46,-268.19 221.53,-277.57 228.46,-278.59"/>
<g id="a_edge25&#45;headlabel"><a xlink:href="dir_000001_000015.html" target="_top" xlink:title="3">
<text text-anchor="middle" x="230.74" y="-280.07" font-family="Helvetica,sans-Serif" font-size="10.00">3</text>
</a>
</g>
</g>
<!-- dir_1666c5f4940eb69dc85cb0f1045c5123 -->
<g id="node3" class="node">
<title>dir_1666c5f4940eb69dc85cb0f1045c5123</title>
<g id="a_node3"><a xlink:href="dir_1666c5f4940eb69dc85cb0f1045c5123.html" target="_top" xlink:title="AnalysisTools">
<polygon fill="white" stroke="red" points="385.5,-340 302.5,-340 302.5,-304 385.5,-304 385.5,-340"/>
<text text-anchor="middle" x="344" y="-319.5" font-family="Helvetica,sans-Serif" font-size="10.00">AnalysisTools</text>
</a>
</g>
</g>
<!-- dir_1666c5f4940eb69dc85cb0f1045c5123&#45;&gt;dir_1a5504e72c2ab618c124e6472b08d26c -->
<g id="edge16" class="edge">
<title>dir_1666c5f4940eb69dc85cb0f1045c5123&#45;&gt;dir_1a5504e72c2ab618c124e6472b08d26c</title>
<path fill="none" stroke="black" d="M352.81,-303.84C366.76,-274.65 391.62,-213.32 384,-160 379.29,-127 382.92,-114.73 363,-88 353.87,-75.74 340.99,-65.54 328.14,-57.47"/>
<polygon fill="black" stroke="black" points="329.69,-54.32 319.3,-52.23 326.11,-60.34 329.69,-54.32"/>
<g id="a_edge16&#45;headlabel"><a xlink:href="dir_000007_000108.html" target="_top" xlink:title="3">
<text text-anchor="middle" x="334.23" y="-51.21" font-family="Helvetica,sans-Serif" font-size="10.00">3</text>
</a>
</g>
</g>
<!-- dir_1666c5f4940eb69dc85cb0f1045c5123&#45;&gt;dir_a4226c5615a06a31e6344f5f3fd917e1 -->
<g id="edge15" class="edge">
<title>dir_1666c5f4940eb69dc85cb0f1045c5123&#45;&gt;dir_a4226c5615a06a31e6344f5f3fd917e1</title>
<path fill="none" stroke="black" d="M315.87,-303.88C300.49,-294.52 281.29,-282.83 264.86,-272.83"/>
<polygon fill="black" stroke="black" points="266.41,-269.67 256.05,-267.47 262.77,-275.65 266.41,-269.67"/>
<g id="a_edge15&#45;headlabel"><a xlink:href="dir_000007_000015.html" target="_top" xlink:title="4">
<text text-anchor="middle" x="270.96" y="-266.62" font-family="Helvetica,sans-Serif" font-size="10.00">4</text>
</a>
</g>
</g>
<!-- dir_4ca6fec43e1013816363be86d31756d6 -->
<g id="node4" class="node">
<title>dir_4ca6fec43e1013816363be86d31756d6</title>
<g id="a_node4"><a xlink:href="dir_4ca6fec43e1013816363be86d31756d6.html" target="_top" xlink:title="Connector">
<polygon fill="white" stroke="red" points="366,-196 300,-196 300,-160 366,-160 366,-196"/>
<text text-anchor="middle" x="333" y="-175.5" font-family="Helvetica,sans-Serif" font-size="10.00">Connector</text>
</a>
</g>
</g>
<!-- dir_4ca6fec43e1013816363be86d31756d6&#45;&gt;dir_1a5504e72c2ab618c124e6472b08d26c -->
<g id="edge21" class="edge">
<title>dir_4ca6fec43e1013816363be86d31756d6&#45;&gt;dir_1a5504e72c2ab618c124e6472b08d26c</title>
<path fill="none" stroke="black" d="M332.03,-159.68C330.51,-141.3 326.66,-111.69 317,-88 313.07,-78.37 307.21,-68.7 301.35,-60.31"/>
<polygon fill="black" stroke="black" points="304.06,-58.08 295.33,-52.08 298.41,-62.22 304.06,-58.08"/>
<g id="a_edge21&#45;headlabel"><a xlink:href="dir_000011_000108.html" target="_top" xlink:title="4">
<text text-anchor="middle" x="308.47" y="-56.81" font-family="Helvetica,sans-Serif" font-size="10.00">4</text>
</a>
</g>
</g>
<!-- dir_4ca6fec43e1013816363be86d31756d6&#45;&gt;dir_a4226c5615a06a31e6344f5f3fd917e1 -->
<g id="edge20" class="edge">
<title>dir_4ca6fec43e1013816363be86d31756d6&#45;&gt;dir_a4226c5615a06a31e6344f5f3fd917e1</title>
<path fill="none" stroke="black" d="M313.35,-196.2C299.64,-206.12 281.13,-218.64 264.89,-228.99"/>
<polygon fill="black" stroke="black" points="262.74,-226.21 256.14,-234.5 266.47,-232.13 262.74,-226.21"/>
<g id="a_edge20&#45;headlabel"><a xlink:href="dir_000011_000015.html" target="_top" xlink:title="5">
<text text-anchor="middle" x="264.27" y="-219.39" font-family="Helvetica,sans-Serif" font-size="10.00">5</text>
</a>
</g>
</g>
<!-- dir_410074523dc77f19fbc712633e7470ae -->
<g id="node5" class="node">
<title>dir_410074523dc77f19fbc712633e7470ae</title>
<g id="a_node5"><a xlink:href="dir_410074523dc77f19fbc712633e7470ae.html" target="_top" xlink:title="Controller">
<polygon fill="white" stroke="red" points="261.5,-196 196.5,-196 196.5,-160 261.5,-160 261.5,-196"/>
<text text-anchor="middle" x="229" y="-175.5" font-family="Helvetica,sans-Serif" font-size="10.00">Controller</text>
</a>
</g>
</g>
<!-- dir_410074523dc77f19fbc712633e7470ae&#45;&gt;dir_1a5504e72c2ab618c124e6472b08d26c -->
<g id="edge23" class="edge">
<title>dir_410074523dc77f19fbc712633e7470ae&#45;&gt;dir_1a5504e72c2ab618c124e6472b08d26c</title>
<path fill="none" stroke="black" d="M229.97,-159.68C231.49,-141.3 235.34,-111.69 245,-88 248.93,-78.37 254.79,-68.7 260.65,-60.31"/>
<polygon fill="black" stroke="black" points="263.59,-62.22 266.67,-52.08 257.94,-58.08 263.59,-62.22"/>
<g id="a_edge23&#45;headlabel"><a xlink:href="dir_000089_000108.html" target="_top" xlink:title="1">
<text text-anchor="middle" x="263.76" y="-64.3" font-family="Helvetica,sans-Serif" font-size="10.00">1</text>
</a>
</g>
</g>
<!-- dir_410074523dc77f19fbc712633e7470ae&#45;&gt;dir_e185953657720ba3a67126696ef566c7 -->
<g id="edge24" class="edge">
<title>dir_410074523dc77f19fbc712633e7470ae&#45;&gt;dir_e185953657720ba3a67126696ef566c7</title>
<path fill="none" stroke="black" d="M216.65,-196.19C198.86,-220.96 165.89,-266.86 145.27,-295.56"/>
<polygon fill="black" stroke="black" points="142.29,-293.71 139.3,-303.87 147.98,-297.79 142.29,-293.71"/>
<g id="a_edge24&#45;headlabel"><a xlink:href="dir_000089_000092.html" target="_top" xlink:title="1">
<text text-anchor="middle" x="142.09" y="-286.63" font-family="Helvetica,sans-Serif" font-size="10.00">1</text>
</a>
</g>
</g>
<!-- dir_410074523dc77f19fbc712633e7470ae&#45;&gt;dir_a4226c5615a06a31e6344f5f3fd917e1 -->
<g id="edge22" class="edge">
<title>dir_410074523dc77f19fbc712633e7470ae&#45;&gt;dir_a4226c5615a06a31e6344f5f3fd917e1</title>
<path fill="none" stroke="black" d="M234.9,-196.1C235.7,-203.79 235.94,-213.05 235.6,-221.67"/>
<polygon fill="black" stroke="black" points="232.11,-221.48 234.92,-231.7 239.09,-221.96 232.11,-221.48"/>
<g id="a_edge22&#45;headlabel"><a xlink:href="dir_000089_000015.html" target="_top" xlink:title="2">
<text text-anchor="middle" x="229.52" y="-215.2" font-family="Helvetica,sans-Serif" font-size="10.00">2</text>
</a>
</g>
</g>
<!-- dir_e185953657720ba3a67126696ef566c7&#45;&gt;dir_1a5504e72c2ab618c124e6472b08d26c -->
<g id="edge34" class="edge">
<title>dir_e185953657720ba3a67126696ef566c7&#45;&gt;dir_1a5504e72c2ab618c124e6472b08d26c</title>
<path fill="none" stroke="black" d="M113.02,-303.88C105.64,-293.97 97.08,-280.93 92,-268 62.71,-193.47 43.77,-145.02 100,-88 132.99,-54.54 185.88,-41.94 225.98,-37.33"/>
<polygon fill="black" stroke="black" points="226.54,-40.79 236.14,-36.3 225.84,-33.82 226.54,-40.79"/>
<g id="a_edge34&#45;headlabel"><a xlink:href="dir_000092_000108.html" target="_top" xlink:title="10">
<text text-anchor="middle" x="223.26" y="-41.48" font-family="Helvetica,sans-Serif" font-size="10.00">10</text>
</a>
</g>
</g>
<!-- dir_e185953657720ba3a67126696ef566c7&#45;&gt;dir_a4226c5615a06a31e6344f5f3fd917e1 -->
<g id="edge33" class="edge">
<title>dir_e185953657720ba3a67126696ef566c7&#45;&gt;dir_a4226c5615a06a31e6344f5f3fd917e1</title>
<path fill="none" stroke="black" d="M146.3,-303.7C159.62,-293.86 177.55,-281.49 193.37,-271.21"/>
<polygon fill="black" stroke="black" points="195.37,-274.08 201.9,-265.74 191.59,-268.19 195.37,-274.08"/>
<g id="a_edge33&#45;headlabel"><a xlink:href="dir_000092_000015.html" target="_top" xlink:title="16">
<text text-anchor="middle" x="193.88" y="-275.91" font-family="Helvetica,sans-Serif" font-size="10.00">16</text>
</a>
</g>
</g>
<!-- dir_4d0b0adf7e9fb892c3df556e9cbb05d0 -->
<g id="node9" class="node">
<title>dir_4d0b0adf7e9fb892c3df556e9cbb05d0</title>
<g id="a_node9"><a xlink:href="dir_4d0b0adf7e9fb892c3df556e9cbb05d0.html" target="_top" xlink:title="Protocols">
<polygon fill="white" stroke="red" points="158,-196 96,-196 96,-160 158,-160 158,-196"/>
<text text-anchor="middle" x="127" y="-175.5" font-family="Helvetica,sans-Serif" font-size="10.00">Protocols</text>
</a>
</g>
</g>
<!-- dir_e185953657720ba3a67126696ef566c7&#45;&gt;dir_4d0b0adf7e9fb892c3df556e9cbb05d0 -->
<g id="edge35" class="edge">
<title>dir_e185953657720ba3a67126696ef566c7&#45;&gt;dir_4d0b0adf7e9fb892c3df556e9cbb05d0</title>
<path fill="none" stroke="black" d="M122.42,-303.87C119.86,-279.67 119.57,-235.21 121.54,-206.39"/>
<polygon fill="black" stroke="black" points="125.05,-206.45 122.41,-196.19 118.07,-205.86 125.05,-206.45"/>
<g id="a_edge35&#45;headlabel"><a xlink:href="dir_000092_000060.html" target="_top" xlink:title="2">
<text text-anchor="middle" x="127.57" y="-207.77" font-family="Helvetica,sans-Serif" font-size="10.00">2</text>
</a>
</g>
</g>
<!-- dir_6a49a4a01df89ea000e629175e7db917 -->
<g id="node10" class="node">
<title>dir_6a49a4a01df89ea000e629175e7db917</title>
<g id="a_node10"><a xlink:href="dir_6a49a4a01df89ea000e629175e7db917.html" target="_top" xlink:title="RTOS">
<polygon fill="white" stroke="red" points="163,-124 109,-124 109,-88 163,-88 163,-124"/>
<text text-anchor="middle" x="136" y="-103.5" font-family="Helvetica,sans-Serif" font-size="10.00">RTOS</text>
</a>
</g>
</g>
<!-- dir_e185953657720ba3a67126696ef566c7&#45;&gt;dir_6a49a4a01df89ea000e629175e7db917 -->
<g id="edge36" class="edge">
<title>dir_e185953657720ba3a67126696ef566c7&#45;&gt;dir_6a49a4a01df89ea000e629175e7db917</title>
<path fill="none" stroke="black" d="M120.06,-303.77C106.07,-267.93 76.63,-186.48 87,-160 91.2,-149.28 98.69,-139.43 106.58,-131.2"/>
<polygon fill="black" stroke="black" points="109.12,-133.61 113.85,-124.13 104.24,-128.59 109.12,-133.61"/>
<g id="a_edge36&#45;headlabel"><a xlink:href="dir_000092_000067.html" target="_top" xlink:title="2">
<text text-anchor="middle" x="108.53" y="-135.65" font-family="Helvetica,sans-Serif" font-size="10.00">2</text>
</a>
</g>
</g>
<!-- dir_a4226c5615a06a31e6344f5f3fd917e1&#45;&gt;dir_4ca6fec43e1013816363be86d31756d6 -->
<g id="edge2" class="edge">
<title>dir_a4226c5615a06a31e6344f5f3fd917e1&#45;&gt;dir_4ca6fec43e1013816363be86d31756d6</title>
<path fill="none" stroke="black" d="M248.79,-231.7C261.33,-222.63 277.86,-211.4 292.99,-201.65"/>
<polygon fill="black" stroke="black" points="295.14,-204.43 301.69,-196.1 291.38,-198.52 295.14,-204.43"/>
<g id="a_edge2&#45;headlabel"><a xlink:href="dir_000015_000011.html" target="_top" xlink:title="1">
<text text-anchor="middle" x="293.63" y="-206.25" font-family="Helvetica,sans-Serif" font-size="10.00">1</text>
</a>
</g>
</g>
<!-- dir_a4226c5615a06a31e6344f5f3fd917e1&#45;&gt;dir_410074523dc77f19fbc712633e7470ae -->
<g id="edge3" class="edge">
<title>dir_a4226c5615a06a31e6344f5f3fd917e1&#45;&gt;dir_410074523dc77f19fbc712633e7470ae</title>
<path fill="none" stroke="black" d="M223.08,-231.7C222.29,-223.98 222.06,-214.71 222.4,-206.11"/>
<polygon fill="black" stroke="black" points="225.9,-206.32 223.1,-196.1 218.92,-205.84 225.9,-206.32"/>
<g id="a_edge3&#45;headlabel"><a xlink:href="dir_000015_000089.html" target="_top" xlink:title="1">
<text text-anchor="middle" x="228.48" y="-207.61" font-family="Helvetica,sans-Serif" font-size="10.00">1</text>
</a>
</g>
</g>
<!-- dir_a4226c5615a06a31e6344f5f3fd917e1&#45;&gt;dir_1a5504e72c2ab618c124e6472b08d26c -->
<g id="edge4" class="edge">
<title>dir_a4226c5615a06a31e6344f5f3fd917e1&#45;&gt;dir_1a5504e72c2ab618c124e6472b08d26c</title>
<path fill="none" stroke="black" d="M256.05,-248C290.3,-245.1 348.07,-234.42 375,-196 407.78,-149.23 350.71,-90.45 312.08,-58.43"/>
<polygon fill="black" stroke="black" points="314.14,-55.59 304.16,-52.02 309.73,-61.03 314.14,-55.59"/>
<g id="a_edge4&#45;headlabel"><a xlink:href="dir_000015_000108.html" target="_top" xlink:title="22">
<text text-anchor="middle" x="318.72" y="-53.14" font-family="Helvetica,sans-Serif" font-size="10.00">22</text>
</a>
</g>
</g>
<!-- dir_a4226c5615a06a31e6344f5f3fd917e1&#45;&gt;dir_e185953657720ba3a67126696ef566c7 -->
<g id="edge6" class="edge">
<title>dir_a4226c5615a06a31e6344f5f3fd917e1&#45;&gt;dir_e185953657720ba3a67126696ef566c7</title>
<path fill="none" stroke="black" d="M209.86,-268.19C197.57,-277.27 181.32,-288.53 166.42,-298.31"/>
<polygon fill="black" stroke="black" points="164.33,-295.5 157.85,-303.88 168.14,-301.37 164.33,-295.5"/>
<g id="a_edge6&#45;headlabel"><a xlink:href="dir_000015_000092.html" target="_top" xlink:title="7">
<text text-anchor="middle" x="165.8" y="-288.66" font-family="Helvetica,sans-Serif" font-size="10.00">7</text>
</a>
</g>
</g>
<!-- dir_a4226c5615a06a31e6344f5f3fd917e1&#45;&gt;dir_4d0b0adf7e9fb892c3df556e9cbb05d0 -->
<g id="edge5" class="edge">
<title>dir_a4226c5615a06a31e6344f5f3fd917e1&#45;&gt;dir_4d0b0adf7e9fb892c3df556e9cbb05d0</title>
<path fill="none" stroke="black" d="M201.73,-234.15C186.98,-224.83 168.92,-212.61 154.18,-202.04"/>
<polygon fill="black" stroke="black" points="156.09,-199.09 145.94,-196.04 151.97,-204.75 156.09,-199.09"/>
<g id="a_edge5&#45;headlabel"><a xlink:href="dir_000015_000060.html" target="_top" xlink:title="3">
<text text-anchor="middle" x="160.66" y="-196.41" font-family="Helvetica,sans-Serif" font-size="10.00">3</text>
</a>
</g>
</g>
<!-- dir_a4226c5615a06a31e6344f5f3fd917e1&#45;&gt;dir_6a49a4a01df89ea000e629175e7db917 -->
<g id="edge7" class="edge">
<title>dir_a4226c5615a06a31e6344f5f3fd917e1&#45;&gt;dir_6a49a4a01df89ea000e629175e7db917</title>
<path fill="none" stroke="black" d="M206.87,-231.76C197.57,-221.6 187.32,-208.35 179,-196 168.64,-180.64 167.34,-175.99 158,-160 152.92,-151.31 147.37,-141.81 142.84,-133.29"/>
<polygon fill="black" stroke="black" points="145.87,-131.53 138.24,-124.18 139.62,-134.69 145.87,-131.53"/>
<g id="a_edge7&#45;headlabel"><a xlink:href="dir_000015_000067.html" target="_top" xlink:title="4">
<text text-anchor="middle" x="150.02" y="-130.96" font-family="Helvetica,sans-Serif" font-size="10.00">4</text>
</a>
</g>
</g>
<!-- dir_c2cd4762e89f989d55fa2b0634ddfc81 -->
<g id="node14" class="node">
<title>dir_c2cd4762e89f989d55fa2b0634ddfc81</title>
<g id="a_node14"><a xlink:href="dir_c2cd4762e89f989d55fa2b0634ddfc81.html" target="_top" xlink:title="Utility">
<polygon fill="white" stroke="red" points="308,-124 254,-124 254,-88 308,-88 308,-124"/>
<text text-anchor="middle" x="281" y="-103.5" font-family="Helvetica,sans-Serif" font-size="10.00">Utility</text>
</a>
</g>
</g>
<!-- dir_a4226c5615a06a31e6344f5f3fd917e1&#45;&gt;dir_c2cd4762e89f989d55fa2b0634ddfc81 -->
<g id="edge1" class="edge">
<title>dir_a4226c5615a06a31e6344f5f3fd917e1&#45;&gt;dir_c2cd4762e89f989d55fa2b0634ddfc81</title>
<path fill="none" stroke="black" d="M238.58,-231.99C246.42,-222.31 256.45,-209.46 262,-196 270.09,-176.38 272.39,-152.39 274.15,-134.27"/>
<polygon fill="black" stroke="black" points="277.65,-134.39 275.19,-124.09 270.69,-133.68 277.65,-134.39"/>
<g id="a_edge1&#45;headlabel"><a xlink:href="dir_000015_000085.html" target="_top" xlink:title="2">
<text text-anchor="middle" x="280.11" y="-135.75" font-family="Helvetica,sans-Serif" font-size="10.00">2</text>
</a>
</g>
</g>
<!-- dir_4d0b0adf7e9fb892c3df556e9cbb05d0&#45;&gt;dir_1a5504e72c2ab618c124e6472b08d26c -->
<g id="edge30" class="edge">
<title>dir_4d0b0adf7e9fb892c3df556e9cbb05d0&#45;&gt;dir_1a5504e72c2ab618c124e6472b08d26c</title>
<path fill="none" stroke="black" d="M145.58,-159.87C172.86,-134.71 223.9,-87.65 254.93,-59.04"/>
<polygon fill="black" stroke="black" points="257.38,-61.54 262.36,-52.19 252.63,-56.4 257.38,-61.54"/>
<g id="a_edge30&#45;headlabel"><a xlink:href="dir_000060_000108.html" target="_top" xlink:title="8">
<text text-anchor="middle" x="256.66" y="-63.57" font-family="Helvetica,sans-Serif" font-size="10.00">8</text>
</a>
</g>
</g>
<!-- dir_4d0b0adf7e9fb892c3df556e9cbb05d0&#45;&gt;dir_e185953657720ba3a67126696ef566c7 -->
<g id="edge31" class="edge">
<title>dir_4d0b0adf7e9fb892c3df556e9cbb05d0&#45;&gt;dir_e185953657720ba3a67126696ef566c7</title>
<path fill="none" stroke="black" d="M131.59,-196.19C134.15,-220.42 134.43,-264.89 132.45,-293.68"/>
<polygon fill="black" stroke="black" points="128.95,-293.61 131.58,-303.87 135.92,-294.21 128.95,-293.61"/>
<g id="a_edge31&#45;headlabel"><a xlink:href="dir_000060_000092.html" target="_top" xlink:title="3">
<text text-anchor="middle" x="126.42" y="-287.29" font-family="Helvetica,sans-Serif" font-size="10.00">3</text>
</a>
</g>
</g>
<!-- dir_4d0b0adf7e9fb892c3df556e9cbb05d0&#45;&gt;dir_a4226c5615a06a31e6344f5f3fd917e1 -->
<g id="edge28" class="edge">
<title>dir_4d0b0adf7e9fb892c3df556e9cbb05d0&#45;&gt;dir_a4226c5615a06a31e6344f5f3fd917e1</title>
<path fill="none" stroke="black" d="M157.82,-196.1C171.67,-204.97 187.82,-215.94 201.29,-225.59"/>
<polygon fill="black" stroke="black" points="199.55,-228.65 209.7,-231.7 203.67,-222.99 199.55,-228.65"/>
<g id="a_edge28&#45;headlabel"><a xlink:href="dir_000060_000015.html" target="_top" xlink:title="11">
<text text-anchor="middle" x="194.98" y="-226.33" font-family="Helvetica,sans-Serif" font-size="10.00">11</text>
</a>
</g>
</g>
<!-- dir_4d0b0adf7e9fb892c3df556e9cbb05d0&#45;&gt;dir_6a49a4a01df89ea000e629175e7db917 -->
<g id="edge32" class="edge">
<title>dir_4d0b0adf7e9fb892c3df556e9cbb05d0&#45;&gt;dir_6a49a4a01df89ea000e629175e7db917</title>
<path fill="none" stroke="black" d="M129.22,-159.7C130.22,-151.98 131.41,-142.71 132.51,-134.11"/>
<polygon fill="black" stroke="black" points="136,-134.47 133.8,-124.1 129.05,-133.58 136,-134.47"/>
<g id="a_edge32&#45;headlabel"><a xlink:href="dir_000060_000067.html" target="_top" xlink:title="3">
<text text-anchor="middle" x="138.35" y="-135.9" font-family="Helvetica,sans-Serif" font-size="10.00">3</text>
</a>
</g>
</g>
<!-- dir_4d0b0adf7e9fb892c3df556e9cbb05d0&#45;&gt;dir_c2cd4762e89f989d55fa2b0634ddfc81 -->
<g id="edge29" class="edge">
<title>dir_4d0b0adf7e9fb892c3df556e9cbb05d0&#45;&gt;dir_c2cd4762e89f989d55fa2b0634ddfc81</title>
<path fill="none" stroke="black" d="M158.16,-162.83C183.21,-151.45 218.44,-135.44 244.74,-123.48"/>
<polygon fill="black" stroke="black" points="246.34,-126.6 254,-119.27 243.45,-120.22 246.34,-126.6"/>
<g id="a_edge29&#45;headlabel"><a xlink:href="dir_000060_000085.html" target="_top" xlink:title="1">
<text text-anchor="middle" x="244.25" y="-128.17" font-family="Helvetica,sans-Serif" font-size="10.00">1</text>
</a>
</g>
</g>
<!-- dir_6a49a4a01df89ea000e629175e7db917&#45;&gt;dir_1a5504e72c2ab618c124e6472b08d26c -->
<g id="edge38" class="edge">
<title>dir_6a49a4a01df89ea000e629175e7db917&#45;&gt;dir_1a5504e72c2ab618c124e6472b08d26c</title>
<path fill="none" stroke="black" d="M163.27,-91.83C183.84,-81.9 212.5,-68.07 236.38,-56.54"/>
<polygon fill="black" stroke="black" points="238.13,-59.58 245.62,-52.08 235.09,-53.28 238.13,-59.58"/>
<g id="a_edge38&#45;headlabel"><a xlink:href="dir_000067_000108.html" target="_top" xlink:title="2">
<text text-anchor="middle" x="236.13" y="-61.2" font-family="Helvetica,sans-Serif" font-size="10.00">2</text>
</a>
</g>
</g>
<!-- dir_6a49a4a01df89ea000e629175e7db917&#45;&gt;dir_a4226c5615a06a31e6344f5f3fd917e1 -->
<g id="edge37" class="edge">
<title>dir_6a49a4a01df89ea000e629175e7db917&#45;&gt;dir_a4226c5615a06a31e6344f5f3fd917e1</title>
<path fill="none" stroke="black" d="M153.88,-124.18C161.13,-134.55 169.01,-148.03 176,-160 185.34,-175.99 186.64,-180.64 197,-196 203.18,-205.16 210.42,-214.82 216.62,-223.35"/>
<polygon fill="black" stroke="black" points="213.96,-225.65 222.62,-231.76 219.66,-221.59 213.96,-225.65"/>
<g id="a_edge37&#45;headlabel"><a xlink:href="dir_000067_000015.html" target="_top" xlink:title="2">
<text text-anchor="middle" x="209.56" y="-221.88" font-family="Helvetica,sans-Serif" font-size="10.00">2</text>
</a>
</g>
</g>
<!-- dir_82d83c9747486c2eb8d3c4c8f409d82b -->
<g id="node11" class="node">
<title>dir_82d83c9747486c2eb8d3c4c8f409d82b</title>
<g id="a_node11"><a xlink:href="dir_82d83c9747486c2eb8d3c4c8f409d82b.html" target="_top" xlink:title="Sensor">
<polygon fill="white" stroke="red" points="89,-412 35,-412 35,-376 89,-376 89,-412"/>
<text text-anchor="middle" x="62" y="-391.5" font-family="Helvetica,sans-Serif" font-size="10.00">Sensor</text>
</a>
</g>
</g>
<!-- dir_82d83c9747486c2eb8d3c4c8f409d82b&#45;&gt;dir_1a5504e72c2ab618c124e6472b08d26c -->
<g id="edge9" class="edge">
<title>dir_82d83c9747486c2eb8d3c4c8f409d82b&#45;&gt;dir_1a5504e72c2ab618c124e6472b08d26c</title>
<path fill="none" stroke="black" d="M52.68,-375.63C39.5,-349.41 17,-297.81 17,-251 17,-251 17,-251 17,-177 17,-131.19 32.35,-115.49 69,-88 114.71,-53.72 180.01,-41.43 226.03,-37.12"/>
<polygon fill="black" stroke="black" points="226.46,-40.6 236.13,-36.27 225.87,-33.62 226.46,-40.6"/>
<g id="a_edge9&#45;headlabel"><a xlink:href="dir_000071_000108.html" target="_top" xlink:title="2">
<text text-anchor="middle" x="223.11" y="-41.23" font-family="Helvetica,sans-Serif" font-size="10.00">2</text>
</a>
</g>
</g>
<!-- dir_82d83c9747486c2eb8d3c4c8f409d82b&#45;&gt;dir_e185953657720ba3a67126696ef566c7 -->
<g id="edge11" class="edge">
<title>dir_82d83c9747486c2eb8d3c4c8f409d82b&#45;&gt;dir_e185953657720ba3a67126696ef566c7</title>
<path fill="none" stroke="black" d="M78.07,-375.7C85.94,-367.22 95.56,-356.86 104.17,-347.58"/>
<polygon fill="black" stroke="black" points="106.88,-349.81 111.12,-340.1 101.75,-345.05 106.88,-349.81"/>
<g id="a_edge11&#45;headlabel"><a xlink:href="dir_000071_000092.html" target="_top" xlink:title="1">
<text text-anchor="middle" x="106.51" y="-351.88" font-family="Helvetica,sans-Serif" font-size="10.00">1</text>
</a>
</g>
</g>
<!-- dir_82d83c9747486c2eb8d3c4c8f409d82b&#45;&gt;dir_a4226c5615a06a31e6344f5f3fd917e1 -->
<g id="edge8" class="edge">
<title>dir_82d83c9747486c2eb8d3c4c8f409d82b&#45;&gt;dir_a4226c5615a06a31e6344f5f3fd917e1</title>
<path fill="none" stroke="black" d="M89.35,-383.97C112.45,-375.35 145.44,-360.61 169,-340 189.25,-322.29 205.74,-296.24 216.27,-276.9"/>
<polygon fill="black" stroke="black" points="219.39,-278.49 220.96,-268.01 213.2,-275.23 219.39,-278.49"/>
<g id="a_edge8&#45;headlabel"><a xlink:href="dir_000071_000015.html" target="_top" xlink:title="5">
<text text-anchor="middle" x="220.23" y="-280.49" font-family="Helvetica,sans-Serif" font-size="10.00">5</text>
</a>
</g>
</g>
<!-- dir_82d83c9747486c2eb8d3c4c8f409d82b&#45;&gt;dir_4d0b0adf7e9fb892c3df556e9cbb05d0 -->
<g id="edge10" class="edge">
<title>dir_82d83c9747486c2eb8d3c4c8f409d82b&#45;&gt;dir_4d0b0adf7e9fb892c3df556e9cbb05d0</title>
<path fill="none" stroke="black" d="M66.33,-375.86C70.94,-357.88 78.58,-328.84 86,-304 96.17,-269.96 109.12,-231.13 117.71,-205.9"/>
<polygon fill="black" stroke="black" points="121.07,-206.89 121,-196.3 114.45,-204.63 121.07,-206.89"/>
<g id="a_edge10&#45;headlabel"><a xlink:href="dir_000071_000060.html" target="_top" xlink:title="2">
<text text-anchor="middle" x="122.6" y="-208.71" font-family="Helvetica,sans-Serif" font-size="10.00">2</text>
</a>
</g>
</g>
<!-- dir_82d83c9747486c2eb8d3c4c8f409d82b&#45;&gt;dir_6a49a4a01df89ea000e629175e7db917 -->
<g id="edge12" class="edge">
<title>dir_82d83c9747486c2eb8d3c4c8f409d82b&#45;&gt;dir_6a49a4a01df89ea000e629175e7db917</title>
<path fill="none" stroke="black" d="M59.32,-375.85C53.86,-335.77 44.81,-233.79 80,-160 85.26,-148.97 93.89,-139.07 102.81,-130.9"/>
<polygon fill="black" stroke="black" points="105.34,-133.34 110.65,-124.17 100.78,-128.02 105.34,-133.34"/>
<g id="a_edge12&#45;headlabel"><a xlink:href="dir_000071_000067.html" target="_top" xlink:title="2">
<text text-anchor="middle" x="104.46" y="-135.33" font-family="Helvetica,sans-Serif" font-size="10.00">2</text>
</a>
</g>
</g>
<!-- dir_6c63dd282651b43f4337d292845f5ec4 -->
<g id="node12" class="node">
<title>dir_6c63dd282651b43f4337d292845f5ec4</title>
<g id="a_node12"><a xlink:href="dir_6c63dd282651b43f4337d292845f5ec4.html" target="_top" xlink:title="Template">
<polygon fill="white" stroke="red" points="350,-484 288,-484 288,-448 350,-448 350,-484"/>
<text text-anchor="middle" x="319" y="-463.5" font-family="Helvetica,sans-Serif" font-size="10.00">Template</text>
</a>
</g>
</g>
<!-- dir_eec1bb706bd2e5107de375aec258065a -->
<g id="node13" class="node">
<title>dir_eec1bb706bd2e5107de375aec258065a</title>
<g id="a_node13"><a xlink:href="dir_eec1bb706bd2e5107de375aec258065a.html" target="_top" xlink:title="User">
<polygon fill="white" stroke="red" points="270,-484 216,-484 216,-448 270,-448 270,-484"/>
<text text-anchor="middle" x="243" y="-463.5" font-family="Helvetica,sans-Serif" font-size="10.00">User</text>
</a>
</g>
</g>
<!-- dir_eec1bb706bd2e5107de375aec258065a&#45;&gt;dir_8efbaa1056a51686757185dce0bc8da0 -->
<g id="edge18" class="edge">
<title>dir_eec1bb706bd2e5107de375aec258065a&#45;&gt;dir_8efbaa1056a51686757185dce0bc8da0</title>
<path fill="none" stroke="black" d="M234.35,-447.7C230.36,-439.73 225.55,-430.1 221.13,-421.26"/>
<polygon fill="black" stroke="black" points="224.15,-419.48 216.55,-412.1 217.89,-422.61 224.15,-419.48"/>
<g id="a_edge18&#45;headlabel"><a xlink:href="dir_000081_000001.html" target="_top" xlink:title="1">
<text text-anchor="middle" x="228.3" y="-418.93" font-family="Helvetica,sans-Serif" font-size="10.00">1</text>
</a>
</g>
</g>
<!-- dir_eec1bb706bd2e5107de375aec258065a&#45;&gt;dir_1a5504e72c2ab618c124e6472b08d26c -->
<g id="edge19" class="edge">
<title>dir_eec1bb706bd2e5107de375aec258065a&#45;&gt;dir_1a5504e72c2ab618c124e6472b08d26c</title>
<path fill="none" stroke="black" d="M270.24,-449.21C325.38,-416.82 445,-344.11 445,-323 445,-323 445,-323 445,-177 445,-132.06 429.81,-118.71 397,-88 379.62,-71.73 356.37,-59.78 335.25,-51.38"/>
<polygon fill="black" stroke="black" points="336.32,-48.05 325.73,-47.78 333.84,-54.59 336.32,-48.05"/>
<g id="a_edge19&#45;headlabel"><a xlink:href="dir_000081_000108.html" target="_top" xlink:title="1">
<text text-anchor="middle" x="340.69" y="-44.16" font-family="Helvetica,sans-Serif" font-size="10.00">1</text>
</a>
</g>
</g>
<!-- dir_eec1bb706bd2e5107de375aec258065a&#45;&gt;dir_a4226c5615a06a31e6344f5f3fd917e1 -->
<g id="edge17" class="edge">
<title>dir_eec1bb706bd2e5107de375aec258065a&#45;&gt;dir_a4226c5615a06a31e6344f5f3fd917e1</title>
<path fill="none" stroke="black" d="M244.22,-447.82C244.89,-437.46 245.66,-423.98 246,-412 246.45,-396.01 247.08,-391.96 246,-376 243.71,-342.16 237.97,-303.51 233.79,-278.26"/>
<polygon fill="black" stroke="black" points="237.23,-277.59 232.11,-268.31 230.32,-278.76 237.23,-277.59"/>
<g id="a_edge17&#45;headlabel"><a xlink:href="dir_000081_000015.html" target="_top" xlink:title="2">
<text text-anchor="middle" x="240.62" y="-278.16" font-family="Helvetica,sans-Serif" font-size="10.00">2</text>
</a>
</g>
</g>
<!-- dir_c2cd4762e89f989d55fa2b0634ddfc81&#45;&gt;dir_1a5504e72c2ab618c124e6472b08d26c -->
<g id="edge14" class="edge">
<title>dir_c2cd4762e89f989d55fa2b0634ddfc81&#45;&gt;dir_1a5504e72c2ab618c124e6472b08d26c</title>
<path fill="none" stroke="black" d="M281,-87.7C281,-79.98 281,-70.71 281,-62.11"/>
<polygon fill="black" stroke="black" points="284.5,-62.1 281,-52.1 277.5,-62.1 284.5,-62.1"/>
<g id="a_edge14&#45;headlabel"><a xlink:href="dir_000085_000108.html" target="_top" xlink:title="1">
<text text-anchor="middle" x="287.34" y="-63.2" font-family="Helvetica,sans-Serif" font-size="10.00">1</text>
</a>
</g>
</g>
<!-- dir_c2cd4762e89f989d55fa2b0634ddfc81&#45;&gt;dir_a4226c5615a06a31e6344f5f3fd917e1 -->
<g id="edge13" class="edge">
<title>dir_c2cd4762e89f989d55fa2b0634ddfc81&#45;&gt;dir_a4226c5615a06a31e6344f5f3fd917e1</title>
<path fill="none" stroke="black" d="M288.45,-124.09C291.09,-142.53 289.72,-172.42 280,-196 275.75,-206.3 268.88,-216.26 261.45,-224.7"/>
<polygon fill="black" stroke="black" points="258.88,-222.33 254.54,-231.99 263.96,-227.14 258.88,-222.33"/>
<g id="a_edge13&#45;headlabel"><a xlink:href="dir_000085_000015.html" target="_top" xlink:title="1">
<text text-anchor="middle" x="259.29" y="-215.27" font-family="Helvetica,sans-Serif" font-size="10.00">1</text>
</a>
</g>
</g>
</g>
</svg>
        <g id="navigator" transform="translate(0 0)" fill="#404254">
                <rect fill="#f2f5e9" fill-opacity="0.5" stroke="#606060" stroke-width=".5" x="0" y="0" width="60" height="60"/>
                <use id="zoomplus" xlink:href="#zoomPlus" x="17" y="9" onmousedown="handleZoom(evt,'in')"/>
                <use id="zoomminus" xlink:href="#zoomMin" x="42" y="9" onmousedown="handleZoom(evt,'out')"/>
                <use id="reset" xlink:href="#resetDef" x="30" y="36" onmousedown="handleReset()"/>
                <g id="arrowUp" xlink:href="#dirArrow" transform="translate(30 24)" onmousedown="handlePan(0,-1)">
                  <use xlink:href="#rim" fill="#404040">
                        <set attributeName="fill" to="#808080" begin="arrowUp.mouseover" end="arrowUp.mouseout"/>
                  </use>
                  <path fill="none" stroke="white" stroke-width="1.5" d="M0,-3.0v7 M-2.5,-0.5L0,-3.0L2.5,-0.5"/>
                </g>
                <g id="arrowRight" xlink:href="#dirArrow" transform="rotate(90) translate(36 -43)" onmousedown="handlePan(1,0)">
                  <use xlink:href="#rim" fill="#404040">
                        <set attributeName="fill" to="#808080" begin="arrowRight.mouseover" end="arrowRight.mouseout"/>
                  </use>
                  <path fill="none" stroke="white" stroke-width="1.5" d="M0,-3.0v7 M-2.5,-0.5L0,-3.0L2.5,-0.5"/>
                </g>
                <g id="arrowDown" xlink:href="#dirArrow" transform="rotate(180) translate(-30 -48)" onmousedown="handlePan(0,1)">
                  <use xlink:href="#rim" fill="#404040">
                        <set attributeName="fill" to="#808080" begin="arrowDown.mouseover" end="arrowDown.mouseout"/>
                  </use>
                  <path fill="none" stroke="white" stroke-width="1.5" d="M0,-3.0v7 M-2.5,-0.5L0,-3.0L2.5,-0.5"/>
                </g>
                <g id="arrowLeft" xlink:href="#dirArrow" transform="rotate(270) translate(-36 17)" onmousedown="handlePan(-1,0)">
                  <use xlink:href="#rim" fill="#404040">
                        <set attributeName="fill" to="#808080" begin="arrowLeft.mouseover" end="arrowLeft.mouseout"/>
                  </use>
                  <path fill="none" stroke="white" stroke-width="1.5" d="M0,-3.0v7 M-2.5,-0.5L0,-3.0L2.5,-0.5"/>
                </g>
        </g>
        <svg viewBox="0 0 15 15" width="100%" height="30px" preserveAspectRatio="xMaxYMin meet">
         <g id="arrow_out" transform="scale(0.3 0.3)">
          <a xlink:href="dir_08f45fe6822aeb4ce2bc268e3b1361be_dep_org.svg" target="_base">
           <rect id="button" ry="5" rx="5" y="6" x="6" height="38" width="38"
                fill="#f2f5e9" fill-opacity="0.5" stroke="#606060" stroke-width="1.0"/>
           <path id="arrow"
             d="M 11.500037,31.436501 C 11.940474,20.09759 22.043105,11.32322 32.158766,21.979434 L 37.068811,17.246167 C 37.068811,17.246167 37.088388,32 37.088388,32 L 22.160133,31.978069 C 22.160133,31.978069 26.997745,27.140456 26.997745,27.140456 C 18.528582,18.264221 13.291696,25.230495 11.500037,31.436501 z"
             style="fill:#404040;"/>
          </a>
         </g>
        </svg>
</svg>
