<?xml version="1.0" encoding="UTF-8" standalone="no"?>
<!DOCTYPE svg PUBLIC "-//W3C//DTD SVG 1.1//EN"
 "http://www.w3.org/Graphics/SVG/1.1/DTD/svg11.dtd">
<!-- Generated by graphviz version 2.43.0 (0)
 -->
<!-- Title: Components Pages: 1 -->
<svg width="616pt" height="508pt"
 viewBox="0.00 0.00 616.00 508.00" xmlns="http://www.w3.org/2000/svg" xmlns:xlink="http://www.w3.org/1999/xlink">
<g id="graph0" class="graph" transform="scale(1 1) rotate(0) translate(4 504)">
<title>Components</title>
<g id="clust1" class="cluster">
<title>clusterdir_08f45fe6822aeb4ce2bc268e3b1361be</title>
<g id="a_clust1"><a xlink:href="dir_08f45fe6822aeb4ce2bc268e3b1361be.html" target="_top">
<polygon fill="#eeeeff" stroke="black" points="8,-8 8,-492 600,-492 600,-8 8,-8"/>
</a>
</g>
</g>
<!-- dir_08f45fe6822aeb4ce2bc268e3b1361be -->
<g id="node1" class="node">
<title>dir_08f45fe6822aeb4ce2bc268e3b1361be</title>
<text text-anchor="middle" x="528" y="-463.5" font-family="Helvetica,sans-Serif" font-size="10.00">Components</text>
</g>
<!-- dir_8efbaa1056a51686757185dce0bc8da0 -->
<g id="node2" class="node">
<title>dir_8efbaa1056a51686757185dce0bc8da0</title>
<g id="a_node2"><a xlink:href="dir_8efbaa1056a51686757185dce0bc8da0.html" target="_top" xlink:title="Actuator">
<polygon fill="white" stroke="red" points="118,-412 60,-412 60,-376 118,-376 118,-412"/>
<text text-anchor="middle" x="89" y="-391.5" font-family="Helvetica,sans-Serif" font-size="10.00">Actuator</text>
</a>
</g>
</g>
<!-- dir_1a5504e72c2ab618c124e6472b08d26c -->
<g id="node7" class="node">
<title>dir_1a5504e72c2ab618c124e6472b08d26c</title>
<g id="a_node7"><a xlink:href="dir_1a5504e72c2ab618c124e6472b08d26c.html" target="_top" xlink:title="Global_Include">
<polygon fill="white" stroke="black" points="354.5,-52 265.5,-52 265.5,-16 354.5,-16 354.5,-52"/>
<text text-anchor="middle" x="310" y="-31.5" font-family="Helvetica,sans-Serif" font-size="10.00">Global_Include</text>
</a>
</g>
</g>
<!-- dir_8efbaa1056a51686757185dce0bc8da0&#45;&gt;dir_1a5504e72c2ab618c124e6472b08d26c -->
<g id="edge37" class="edge">
<title>dir_8efbaa1056a51686757185dce0bc8da0&#45;&gt;dir_1a5504e72c2ab618c124e6472b08d26c</title>
<path fill="none" stroke="black" d="M71.92,-375.9C63.28,-366.19 53.49,-353.34 48,-340 32.82,-303.15 37,-290.86 37,-251 37,-251 37,-251 37,-177 37,-130.5 54.37,-115.31 92,-88 140.01,-53.15 208.07,-41.01 255.32,-36.89"/>
<polygon fill="black" stroke="black" points="255.67,-40.37 265.37,-36.11 255.13,-33.39 255.67,-40.37"/>
<g id="a_edge37&#45;headlabel"><a xlink:href="dir_000002_000144.html" target="_top" xlink:title="1">
<text text-anchor="middle" x="252.31" y="-40.98" font-family="Helvetica,sans-Serif" font-size="10.00">1</text>
</a>
</g>
</g>
<!-- dir_e185953657720ba3a67126696ef566c7 -->
<g id="node8" class="node">
<title>dir_e185953657720ba3a67126696ef566c7</title>
<g id="a_node8"><a xlink:href="dir_e185953657720ba3a67126696ef566c7.html" target="_top" xlink:title="Interfaces">
<polygon fill="white" stroke="red" points="121.5,-340 56.5,-340 56.5,-304 121.5,-304 121.5,-340"/>
<text text-anchor="middle" x="89" y="-319.5" font-family="Helvetica,sans-Serif" font-size="10.00">Interfaces</text>
</a>
</g>
</g>
<!-- dir_8efbaa1056a51686757185dce0bc8da0&#45;&gt;dir_e185953657720ba3a67126696ef566c7 -->
<g id="edge38" class="edge">
<title>dir_8efbaa1056a51686757185dce0bc8da0&#45;&gt;dir_e185953657720ba3a67126696ef566c7</title>
<path fill="none" stroke="black" d="M89,-375.7C89,-367.98 89,-358.71 89,-350.11"/>
<polygon fill="black" stroke="black" points="92.5,-350.1 89,-340.1 85.5,-350.1 92.5,-350.1"/>
<g id="a_edge38&#45;headlabel"><a xlink:href="dir_000002_000093.html" target="_top" xlink:title="1">
<text text-anchor="middle" x="95.34" y="-351.2" font-family="Helvetica,sans-Serif" font-size="10.00">1</text>
</a>
</g>
</g>
<!-- dir_a4226c5615a06a31e6344f5f3fd917e1 -->
<g id="node9" class="node">
<title>dir_a4226c5615a06a31e6344f5f3fd917e1</title>
<g id="a_node9"><a xlink:href="dir_a4226c5615a06a31e6344f5f3fd917e1.html" target="_top" xlink:title="Objects">
<polygon fill="white" stroke="red" points="240,-268 186,-268 186,-232 240,-232 240,-268"/>
<text text-anchor="middle" x="213" y="-247.5" font-family="Helvetica,sans-Serif" font-size="10.00">Objects</text>
</a>
</g>
</g>
<!-- dir_8efbaa1056a51686757185dce0bc8da0&#45;&gt;dir_a4226c5615a06a31e6344f5f3fd917e1 -->
<g id="edge36" class="edge">
<title>dir_8efbaa1056a51686757185dce0bc8da0&#45;&gt;dir_a4226c5615a06a31e6344f5f3fd917e1</title>
<path fill="none" stroke="black" d="M103.28,-375.55C111.54,-365.32 122.04,-352.07 131,-340 142.61,-324.36 143.24,-318.72 156,-304 164.8,-293.85 175.36,-283.59 184.99,-274.84"/>
<polygon fill="black" stroke="black" points="187.33,-277.44 192.46,-268.17 182.67,-272.22 187.33,-277.44"/>
<g id="a_edge36&#45;headlabel"><a xlink:href="dir_000002_000016.html" target="_top" xlink:title="3">
<text text-anchor="middle" x="186.54" y="-279.45" font-family="Helvetica,sans-Serif" font-size="10.00">3</text>
</a>
</g>
</g>
<!-- dir_1666c5f4940eb69dc85cb0f1045c5123 -->
<g id="node3" class="node">
<title>dir_1666c5f4940eb69dc85cb0f1045c5123</title>
<g id="a_node3"><a xlink:href="dir_1666c5f4940eb69dc85cb0f1045c5123.html" target="_top" xlink:title="AnalysisTools">
<polygon fill="white" stroke="red" points="551.5,-340 468.5,-340 468.5,-304 551.5,-304 551.5,-340"/>
<text text-anchor="middle" x="510" y="-319.5" font-family="Helvetica,sans-Serif" font-size="10.00">AnalysisTools</text>
</a>
</g>
</g>
<!-- dir_1666c5f4940eb69dc85cb0f1045c5123&#45;&gt;dir_1a5504e72c2ab618c124e6472b08d26c -->
<g id="edge24" class="edge">
<title>dir_1666c5f4940eb69dc85cb0f1045c5123&#45;&gt;dir_1a5504e72c2ab618c124e6472b08d26c</title>
<path fill="none" stroke="black" d="M514.42,-303.69C524.08,-261.48 542.27,-151.98 490,-88 459.98,-51.26 405.85,-39.17 364.76,-35.57"/>
<polygon fill="black" stroke="black" points="364.85,-32.07 354.62,-34.83 364.34,-39.05 364.85,-32.07"/>
<g id="a_edge24&#45;headlabel"><a xlink:href="dir_000008_000144.html" target="_top" xlink:title="4">
<text text-anchor="middle" x="368.64" y="-27" font-family="Helvetica,sans-Serif" font-size="10.00">4</text>
</a>
</g>
</g>
<!-- dir_1666c5f4940eb69dc85cb0f1045c5123&#45;&gt;dir_a4226c5615a06a31e6344f5f3fd917e1 -->
<g id="edge23" class="edge">
<title>dir_1666c5f4940eb69dc85cb0f1045c5123&#45;&gt;dir_a4226c5615a06a31e6344f5f3fd917e1</title>
<path fill="none" stroke="black" d="M468.39,-311.19C410.23,-297.48 305.53,-272.81 249.97,-259.71"/>
<polygon fill="black" stroke="black" points="250.72,-256.3 240.19,-257.41 249.12,-263.11 250.72,-256.3"/>
<g id="a_edge23&#45;headlabel"><a xlink:href="dir_000008_000016.html" target="_top" xlink:title="6">
<text text-anchor="middle" x="254.87" y="-251.86" font-family="Helvetica,sans-Serif" font-size="10.00">6</text>
</a>
</g>
</g>
<!-- dir_d51af3390b888212b7370bb96b9206da -->
<g id="node4" class="node">
<title>dir_d51af3390b888212b7370bb96b9206da</title>
<g id="a_node4"><a xlink:href="dir_d51af3390b888212b7370bb96b9206da.html" target="_top" xlink:title="Boards">
<polygon fill="white" stroke="red" points="274,-340 220,-340 220,-304 274,-304 274,-340"/>
<text text-anchor="middle" x="247" y="-319.5" font-family="Helvetica,sans-Serif" font-size="10.00">Boards</text>
</a>
</g>
</g>
<!-- dir_d51af3390b888212b7370bb96b9206da&#45;&gt;dir_1a5504e72c2ab618c124e6472b08d26c -->
<g id="edge26" class="edge">
<title>dir_d51af3390b888212b7370bb96b9206da&#45;&gt;dir_1a5504e72c2ab618c124e6472b08d26c</title>
<path fill="none" stroke="black" d="M274.11,-305.64C320.87,-277.16 413.99,-211.02 438,-124 442.26,-108.58 446.89,-101.3 438,-88 421.58,-63.42 391.42,-50.23 364.5,-43.15"/>
<polygon fill="black" stroke="black" points="365.3,-39.74 354.76,-40.81 363.67,-46.55 365.3,-39.74"/>
<g id="a_edge26&#45;headlabel"><a xlink:href="dir_000012_000144.html" target="_top" xlink:title="4">
<text text-anchor="middle" x="369.46" y="-35.32" font-family="Helvetica,sans-Serif" font-size="10.00">4</text>
</a>
</g>
</g>
<!-- dir_d51af3390b888212b7370bb96b9206da&#45;&gt;dir_a4226c5615a06a31e6344f5f3fd917e1 -->
<g id="edge25" class="edge">
<title>dir_d51af3390b888212b7370bb96b9206da&#45;&gt;dir_a4226c5615a06a31e6344f5f3fd917e1</title>
<path fill="none" stroke="black" d="M238.6,-303.7C234.73,-295.73 230.05,-286.1 225.76,-277.26"/>
<polygon fill="black" stroke="black" points="228.83,-275.57 221.31,-268.1 222.53,-278.63 228.83,-275.57"/>
<g id="a_edge25&#45;headlabel"><a xlink:href="dir_000012_000016.html" target="_top" xlink:title="4">
<text text-anchor="middle" x="232.95" y="-275.06" font-family="Helvetica,sans-Serif" font-size="10.00">4</text>
</a>
</g>
</g>
<!-- dir_4ca6fec43e1013816363be86d31756d6 -->
<g id="node5" class="node">
<title>dir_4ca6fec43e1013816363be86d31756d6</title>
<g id="a_node5"><a xlink:href="dir_4ca6fec43e1013816363be86d31756d6.html" target="_top" xlink:title="Connector">
<polygon fill="white" stroke="red" points="162,-196 96,-196 96,-160 162,-160 162,-196"/>
<text text-anchor="middle" x="129" y="-175.5" font-family="Helvetica,sans-Serif" font-size="10.00">Connector</text>
</a>
</g>
</g>
<!-- dir_4ca6fec43e1013816363be86d31756d6&#45;&gt;dir_1a5504e72c2ab618c124e6472b08d26c -->
<g id="edge31" class="edge">
<title>dir_4ca6fec43e1013816363be86d31756d6&#45;&gt;dir_1a5504e72c2ab618c124e6472b08d26c</title>
<path fill="none" stroke="black" d="M147.67,-159.98C168.11,-141.6 202.1,-111.75 233,-88 246.51,-77.62 261.89,-66.83 275.34,-57.73"/>
<polygon fill="black" stroke="black" points="277.5,-60.49 283.85,-52.01 273.6,-54.68 277.5,-60.49"/>
<g id="a_edge31&#45;headlabel"><a xlink:href="dir_000087_000144.html" target="_top" xlink:title="2">
<text text-anchor="middle" x="276.1" y="-62.35" font-family="Helvetica,sans-Serif" font-size="10.00">2</text>
</a>
</g>
</g>
<!-- dir_4ca6fec43e1013816363be86d31756d6&#45;&gt;dir_e185953657720ba3a67126696ef566c7 -->
<g id="edge32" class="edge">
<title>dir_4ca6fec43e1013816363be86d31756d6&#45;&gt;dir_e185953657720ba3a67126696ef566c7</title>
<path fill="none" stroke="black" d="M124.16,-196.19C117.3,-220.53 104.7,-265.28 96.59,-294.06"/>
<polygon fill="black" stroke="black" points="93.17,-293.3 93.82,-303.87 99.91,-295.2 93.17,-293.3"/>
<g id="a_edge32&#45;headlabel"><a xlink:href="dir_000087_000093.html" target="_top" xlink:title="1">
<text text-anchor="middle" x="91.41" y="-286.57" font-family="Helvetica,sans-Serif" font-size="10.00">1</text>
</a>
</g>
</g>
<!-- dir_4ca6fec43e1013816363be86d31756d6&#45;&gt;dir_a4226c5615a06a31e6344f5f3fd917e1 -->
<g id="edge30" class="edge">
<title>dir_4ca6fec43e1013816363be86d31756d6&#45;&gt;dir_a4226c5615a06a31e6344f5f3fd917e1</title>
<path fill="none" stroke="black" d="M155.42,-196.1C166.77,-204.8 179.82,-215.52 190.68,-225.03"/>
<polygon fill="black" stroke="black" points="188.36,-227.65 198.15,-231.7 193.02,-222.43 188.36,-227.65"/>
<g id="a_edge30&#45;headlabel"><a xlink:href="dir_000087_000016.html" target="_top" xlink:title="3">
<text text-anchor="middle" x="183.79" y="-224.88" font-family="Helvetica,sans-Serif" font-size="10.00">3</text>
</a>
</g>
</g>
<!-- dir_410074523dc77f19fbc712633e7470ae -->
<g id="node6" class="node">
<title>dir_410074523dc77f19fbc712633e7470ae</title>
<g id="a_node6"><a xlink:href="dir_410074523dc77f19fbc712633e7470ae.html" target="_top" xlink:title="Controller">
<polygon fill="white" stroke="red" points="245.5,-196 180.5,-196 180.5,-160 245.5,-160 245.5,-196"/>
<text text-anchor="middle" x="213" y="-175.5" font-family="Helvetica,sans-Serif" font-size="10.00">Controller</text>
</a>
</g>
</g>
<!-- dir_410074523dc77f19fbc712633e7470ae&#45;&gt;dir_1a5504e72c2ab618c124e6472b08d26c -->
<g id="edge34" class="edge">
<title>dir_410074523dc77f19fbc712633e7470ae&#45;&gt;dir_1a5504e72c2ab618c124e6472b08d26c</title>
<path fill="none" stroke="black" d="M220.12,-159.76C228.18,-141.19 242.39,-111.19 259,-88 266.25,-77.88 275.37,-67.79 283.88,-59.17"/>
<polygon fill="black" stroke="black" points="286.49,-61.51 291.15,-52 281.57,-56.53 286.49,-61.51"/>
<g id="a_edge34&#45;headlabel"><a xlink:href="dir_000090_000144.html" target="_top" xlink:title="1">
<text text-anchor="middle" x="285.92" y="-63.56" font-family="Helvetica,sans-Serif" font-size="10.00">1</text>
</a>
</g>
</g>
<!-- dir_410074523dc77f19fbc712633e7470ae&#45;&gt;dir_e185953657720ba3a67126696ef566c7 -->
<g id="edge35" class="edge">
<title>dir_410074523dc77f19fbc712633e7470ae&#45;&gt;dir_e185953657720ba3a67126696ef566c7</title>
<path fill="none" stroke="black" d="M197.99,-196.19C176.17,-221.17 135.59,-267.65 110.57,-296.3"/>
<polygon fill="black" stroke="black" points="107.9,-294.04 103.96,-303.87 113.17,-298.64 107.9,-294.04"/>
<g id="a_edge35&#45;headlabel"><a xlink:href="dir_000090_000093.html" target="_top" xlink:title="1">
<text text-anchor="middle" x="108.12" y="-286.96" font-family="Helvetica,sans-Serif" font-size="10.00">1</text>
</a>
</g>
</g>
<!-- dir_410074523dc77f19fbc712633e7470ae&#45;&gt;dir_a4226c5615a06a31e6344f5f3fd917e1 -->
<g id="edge33" class="edge">
<title>dir_410074523dc77f19fbc712633e7470ae&#45;&gt;dir_a4226c5615a06a31e6344f5f3fd917e1</title>
<path fill="none" stroke="black" d="M218.9,-196.1C219.7,-203.79 219.94,-213.05 219.6,-221.67"/>
<polygon fill="black" stroke="black" points="216.11,-221.48 218.92,-231.7 223.09,-221.96 216.11,-221.48"/>
<g id="a_edge33&#45;headlabel"><a xlink:href="dir_000090_000016.html" target="_top" xlink:title="3">
<text text-anchor="middle" x="213.52" y="-215.2" font-family="Helvetica,sans-Serif" font-size="10.00">3</text>
</a>
</g>
</g>
<!-- dir_e185953657720ba3a67126696ef566c7&#45;&gt;dir_1a5504e72c2ab618c124e6472b08d26c -->
<g id="edge45" class="edge">
<title>dir_e185953657720ba3a67126696ef566c7&#45;&gt;dir_1a5504e72c2ab618c124e6472b08d26c</title>
<path fill="none" stroke="black" d="M78.37,-303.56C72.9,-293.54 66.8,-280.51 64,-268 59.68,-248.71 60.47,-169.5 66,-160 105.73,-91.76 196.44,-59.47 255.37,-45.19"/>
<polygon fill="black" stroke="black" points="256.31,-48.57 265.26,-42.89 254.73,-41.75 256.31,-48.57"/>
<g id="a_edge45&#45;headlabel"><a xlink:href="dir_000093_000144.html" target="_top" xlink:title="15">
<text text-anchor="middle" x="253.45" y="-49.65" font-family="Helvetica,sans-Serif" font-size="10.00">15</text>
</a>
</g>
</g>
<!-- dir_e185953657720ba3a67126696ef566c7&#45;&gt;dir_a4226c5615a06a31e6344f5f3fd917e1 -->
<g id="edge44" class="edge">
<title>dir_e185953657720ba3a67126696ef566c7&#45;&gt;dir_a4226c5615a06a31e6344f5f3fd917e1</title>
<path fill="none" stroke="black" d="M113.44,-303.88C131.57,-293 156.43,-278.96 176.83,-268.09"/>
<polygon fill="black" stroke="black" points="178.64,-271.09 185.86,-263.34 175.38,-264.9 178.64,-271.09"/>
<g id="a_edge44&#45;headlabel"><a xlink:href="dir_000093_000016.html" target="_top" xlink:title="23">
<text text-anchor="middle" x="176.78" y="-272.78" font-family="Helvetica,sans-Serif" font-size="10.00">23</text>
</a>
</g>
</g>
<!-- dir_4d0b0adf7e9fb892c3df556e9cbb05d0 -->
<g id="node10" class="node">
<title>dir_4d0b0adf7e9fb892c3df556e9cbb05d0</title>
<g id="a_node10"><a xlink:href="dir_4d0b0adf7e9fb892c3df556e9cbb05d0.html" target="_top" xlink:title="Protocols">
<polygon fill="white" stroke="red" points="386,-196 324,-196 324,-160 386,-160 386,-196"/>
<text text-anchor="middle" x="355" y="-175.5" font-family="Helvetica,sans-Serif" font-size="10.00">Protocols</text>
</a>
</g>
</g>
<!-- dir_e185953657720ba3a67126696ef566c7&#45;&gt;dir_4d0b0adf7e9fb892c3df556e9cbb05d0 -->
<g id="edge46" class="edge">
<title>dir_e185953657720ba3a67126696ef566c7&#45;&gt;dir_4d0b0adf7e9fb892c3df556e9cbb05d0</title>
<path fill="none" stroke="black" d="M121.62,-312.81C153.43,-304.75 202.06,-290.36 240,-268 260.32,-256.02 261.07,-247.33 279,-232 290.82,-221.9 304.19,-211.18 316.48,-202.05"/>
<polygon fill="black" stroke="black" points="318.75,-204.72 324.78,-196.01 314.64,-199.06 318.75,-204.72"/>
<g id="a_edge46&#45;headlabel"><a xlink:href="dir_000093_000059.html" target="_top" xlink:title="4">
<text text-anchor="middle" x="317.52" y="-206.63" font-family="Helvetica,sans-Serif" font-size="10.00">4</text>
</a>
</g>
</g>
<!-- dir_6a49a4a01df89ea000e629175e7db917 -->
<g id="node11" class="node">
<title>dir_6a49a4a01df89ea000e629175e7db917</title>
<g id="a_node11"><a xlink:href="dir_6a49a4a01df89ea000e629175e7db917.html" target="_top" xlink:title="RTOS">
<polygon fill="white" stroke="red" points="337,-124 283,-124 283,-88 337,-88 337,-124"/>
<text text-anchor="middle" x="310" y="-103.5" font-family="Helvetica,sans-Serif" font-size="10.00">RTOS</text>
</a>
</g>
</g>
<!-- dir_e185953657720ba3a67126696ef566c7&#45;&gt;dir_6a49a4a01df89ea000e629175e7db917 -->
<g id="edge47" class="edge">
<title>dir_e185953657720ba3a67126696ef566c7&#45;&gt;dir_6a49a4a01df89ea000e629175e7db917</title>
<path fill="none" stroke="black" d="M82.45,-303.74C71.49,-271.62 53.72,-202.11 87,-160 109.76,-131.19 215.56,-116.38 272.87,-110.35"/>
<polygon fill="black" stroke="black" points="273.38,-113.82 282.98,-109.33 272.68,-106.85 273.38,-113.82"/>
<g id="a_edge47&#45;headlabel"><a xlink:href="dir_000093_000066.html" target="_top" xlink:title="4">
<text text-anchor="middle" x="270.09" y="-114.51" font-family="Helvetica,sans-Serif" font-size="10.00">4</text>
</a>
</g>
</g>
<!-- dir_a4226c5615a06a31e6344f5f3fd917e1&#45;&gt;dir_4ca6fec43e1013816363be86d31756d6 -->
<g id="edge2" class="edge">
<title>dir_a4226c5615a06a31e6344f5f3fd917e1&#45;&gt;dir_4ca6fec43e1013816363be86d31756d6</title>
<path fill="none" stroke="black" d="M186.32,-231.7C175.05,-223.05 162.15,-212.45 151.39,-203.03"/>
<polygon fill="black" stroke="black" points="153.42,-200.15 143.63,-196.1 148.76,-205.37 153.42,-200.15"/>
<g id="a_edge2&#45;headlabel"><a xlink:href="dir_000016_000087.html" target="_top" xlink:title="1">
<text text-anchor="middle" x="157.99" y="-197.93" font-family="Helvetica,sans-Serif" font-size="10.00">1</text>
</a>
</g>
</g>
<!-- dir_a4226c5615a06a31e6344f5f3fd917e1&#45;&gt;dir_410074523dc77f19fbc712633e7470ae -->
<g id="edge3" class="edge">
<title>dir_a4226c5615a06a31e6344f5f3fd917e1&#45;&gt;dir_410074523dc77f19fbc712633e7470ae</title>
<path fill="none" stroke="black" d="M207.08,-231.7C206.29,-223.98 206.06,-214.71 206.4,-206.11"/>
<polygon fill="black" stroke="black" points="209.9,-206.32 207.1,-196.1 202.92,-205.84 209.9,-206.32"/>
<g id="a_edge3&#45;headlabel"><a xlink:href="dir_000016_000090.html" target="_top" xlink:title="1">
<text text-anchor="middle" x="212.48" y="-207.61" font-family="Helvetica,sans-Serif" font-size="10.00">1</text>
</a>
</g>
</g>
<!-- dir_a4226c5615a06a31e6344f5f3fd917e1&#45;&gt;dir_1a5504e72c2ab618c124e6472b08d26c -->
<g id="edge4" class="edge">
<title>dir_a4226c5615a06a31e6344f5f3fd917e1&#45;&gt;dir_1a5504e72c2ab618c124e6472b08d26c</title>
<path fill="none" stroke="black" d="M230.23,-231.85C239,-222.13 249.04,-209.28 255,-196 274.97,-151.54 255.68,-133.16 274,-88 277.91,-78.36 283.77,-68.69 289.63,-60.3"/>
<polygon fill="black" stroke="black" points="292.57,-62.21 295.65,-52.07 286.92,-58.07 292.57,-62.21"/>
<g id="a_edge4&#45;headlabel"><a xlink:href="dir_000016_000144.html" target="_top" xlink:title="26">
<text text-anchor="middle" x="292.73" y="-64.29" font-family="Helvetica,sans-Serif" font-size="10.00">26</text>
</a>
</g>
</g>
<!-- dir_a4226c5615a06a31e6344f5f3fd917e1&#45;&gt;dir_e185953657720ba3a67126696ef566c7 -->
<g id="edge6" class="edge">
<title>dir_a4226c5615a06a31e6344f5f3fd917e1&#45;&gt;dir_e185953657720ba3a67126696ef566c7</title>
<path fill="none" stroke="black" d="M188.56,-268.13C171.97,-278.08 149.77,-290.66 130.49,-301.06"/>
<polygon fill="black" stroke="black" points="128.76,-298.01 121.58,-305.81 132.05,-304.19 128.76,-298.01"/>
<g id="a_edge6&#45;headlabel"><a xlink:href="dir_000016_000093.html" target="_top" xlink:title="8">
<text text-anchor="middle" x="130.59" y="-291.32" font-family="Helvetica,sans-Serif" font-size="10.00">8</text>
</a>
</g>
</g>
<!-- dir_a4226c5615a06a31e6344f5f3fd917e1&#45;&gt;dir_4d0b0adf7e9fb892c3df556e9cbb05d0 -->
<g id="edge5" class="edge">
<title>dir_a4226c5615a06a31e6344f5f3fd917e1&#45;&gt;dir_4d0b0adf7e9fb892c3df556e9cbb05d0</title>
<path fill="none" stroke="black" d="M240.13,-232.76C261.32,-221.71 290.9,-207.11 314.8,-195.92"/>
<polygon fill="black" stroke="black" points="316.39,-199.04 323.99,-191.66 313.44,-192.69 316.39,-199.04"/>
<g id="a_edge5&#45;headlabel"><a xlink:href="dir_000016_000059.html" target="_top" xlink:title="3">
<text text-anchor="middle" x="314.33" y="-200.63" font-family="Helvetica,sans-Serif" font-size="10.00">3</text>
</a>
</g>
</g>
<!-- dir_a4226c5615a06a31e6344f5f3fd917e1&#45;&gt;dir_6a49a4a01df89ea000e629175e7db917 -->
<g id="edge7" class="edge">
<title>dir_a4226c5615a06a31e6344f5f3fd917e1&#45;&gt;dir_6a49a4a01df89ea000e629175e7db917</title>
<path fill="none" stroke="black" d="M227.32,-231.89C237.78,-222.27 251.31,-209.51 261,-196 274.81,-176.75 285.47,-151.96 293.76,-133.44"/>
<polygon fill="black" stroke="black" points="297.05,-134.68 298.01,-124.13 290.68,-131.78 297.05,-134.68"/>
<g id="a_edge7&#45;headlabel"><a xlink:href="dir_000016_000066.html" target="_top" xlink:title="4">
<text text-anchor="middle" x="298.14" y="-136.63" font-family="Helvetica,sans-Serif" font-size="10.00">4</text>
</a>
</g>
</g>
<!-- dir_c2cd4762e89f989d55fa2b0634ddfc81 -->
<g id="node17" class="node">
<title>dir_c2cd4762e89f989d55fa2b0634ddfc81</title>
<g id="a_node17"><a xlink:href="dir_c2cd4762e89f989d55fa2b0634ddfc81.html" target="_top" xlink:title="Utility">
<polygon fill="white" stroke="red" points="429,-124 375,-124 375,-88 429,-88 429,-124"/>
<text text-anchor="middle" x="402" y="-103.5" font-family="Helvetica,sans-Serif" font-size="10.00">Utility</text>
</a>
</g>
</g>
<!-- dir_a4226c5615a06a31e6344f5f3fd917e1&#45;&gt;dir_c2cd4762e89f989d55fa2b0634ddfc81 -->
<g id="edge1" class="edge">
<title>dir_a4226c5615a06a31e6344f5f3fd917e1&#45;&gt;dir_c2cd4762e89f989d55fa2b0634ddfc81</title>
<path fill="none" stroke="black" d="M230.75,-231.87C243.68,-222.06 260.94,-209.11 275,-196 290.44,-181.6 289.9,-173.66 306,-160 323.97,-144.76 346.79,-131.03 365.82,-121.37"/>
<polygon fill="black" stroke="black" points="367.38,-124.5 374.82,-116.96 364.3,-118.21 367.38,-124.5"/>
<g id="a_edge1&#45;headlabel"><a xlink:href="dir_000016_000081.html" target="_top" xlink:title="2">
<text text-anchor="middle" x="365.4" y="-126.13" font-family="Helvetica,sans-Serif" font-size="10.00">2</text>
</a>
</g>
</g>
<!-- dir_4d0b0adf7e9fb892c3df556e9cbb05d0&#45;&gt;dir_1a5504e72c2ab618c124e6472b08d26c -->
<g id="edge41" class="edge">
<title>dir_4d0b0adf7e9fb892c3df556e9cbb05d0&#45;&gt;dir_1a5504e72c2ab618c124e6472b08d26c</title>
<path fill="none" stroke="black" d="M355.72,-159.72C355.93,-141.37 354.65,-111.79 346,-88 342.5,-78.38 336.87,-68.83 331.08,-60.54"/>
<polygon fill="black" stroke="black" points="333.84,-58.37 325.08,-52.4 328.2,-62.53 333.84,-58.37"/>
<g id="a_edge41&#45;headlabel"><a xlink:href="dir_000059_000144.html" target="_top" xlink:title="11">
<text text-anchor="middle" x="338.26" y="-57.08" font-family="Helvetica,sans-Serif" font-size="10.00">11</text>
</a>
</g>
</g>
<!-- dir_4d0b0adf7e9fb892c3df556e9cbb05d0&#45;&gt;dir_e185953657720ba3a67126696ef566c7 -->
<g id="edge42" class="edge">
<title>dir_4d0b0adf7e9fb892c3df556e9cbb05d0&#45;&gt;dir_e185953657720ba3a67126696ef566c7</title>
<path fill="none" stroke="black" d="M340.48,-196.01C328.44,-206.21 311.54,-219.57 297,-232 279.07,-247.33 278.32,-256.02 258,-268 218.54,-291.26 167.51,-305.89 131.76,-313.75"/>
<polygon fill="black" stroke="black" points="130.7,-310.4 121.64,-315.88 132.15,-317.24 130.7,-310.4"/>
<g id="a_edge42&#45;headlabel"><a xlink:href="dir_000059_000093.html" target="_top" xlink:title="3">
<text text-anchor="middle" x="133.64" y="-304.38" font-family="Helvetica,sans-Serif" font-size="10.00">3</text>
</a>
</g>
</g>
<!-- dir_4d0b0adf7e9fb892c3df556e9cbb05d0&#45;&gt;dir_a4226c5615a06a31e6344f5f3fd917e1 -->
<g id="edge39" class="edge">
<title>dir_4d0b0adf7e9fb892c3df556e9cbb05d0&#45;&gt;dir_a4226c5615a06a31e6344f5f3fd917e1</title>
<path fill="none" stroke="black" d="M326.16,-196.12C303.95,-207.67 273.25,-222.76 249.37,-233.87"/>
<polygon fill="black" stroke="black" points="247.87,-230.7 240.25,-238.06 250.8,-237.06 247.87,-230.7"/>
<g id="a_edge39&#45;headlabel"><a xlink:href="dir_000059_000016.html" target="_top" xlink:title="15">
<text text-anchor="middle" x="249.95" y="-224.12" font-family="Helvetica,sans-Serif" font-size="10.00">15</text>
</a>
</g>
</g>
<!-- dir_4d0b0adf7e9fb892c3df556e9cbb05d0&#45;&gt;dir_6a49a4a01df89ea000e629175e7db917 -->
<g id="edge43" class="edge">
<title>dir_4d0b0adf7e9fb892c3df556e9cbb05d0&#45;&gt;dir_6a49a4a01df89ea000e629175e7db917</title>
<path fill="none" stroke="black" d="M343.88,-159.7C338.64,-151.56 332.3,-141.69 326.52,-132.7"/>
<polygon fill="black" stroke="black" points="329.35,-130.62 321,-124.1 323.46,-134.41 329.35,-130.62"/>
<g id="a_edge43&#45;headlabel"><a xlink:href="dir_000059_000066.html" target="_top" xlink:title="3">
<text text-anchor="middle" x="333.68" y="-129.61" font-family="Helvetica,sans-Serif" font-size="10.00">3</text>
</a>
</g>
</g>
<!-- dir_4d0b0adf7e9fb892c3df556e9cbb05d0&#45;&gt;dir_c2cd4762e89f989d55fa2b0634ddfc81 -->
<g id="edge40" class="edge">
<title>dir_4d0b0adf7e9fb892c3df556e9cbb05d0&#45;&gt;dir_c2cd4762e89f989d55fa2b0634ddfc81</title>
<path fill="none" stroke="black" d="M366.62,-159.7C372.14,-151.47 378.85,-141.48 384.93,-132.42"/>
<polygon fill="black" stroke="black" points="387.85,-134.36 390.52,-124.1 382.04,-130.46 387.85,-134.36"/>
<g id="a_edge40&#45;headlabel"><a xlink:href="dir_000059_000081.html" target="_top" xlink:title="1">
<text text-anchor="middle" x="388.2" y="-136.42" font-family="Helvetica,sans-Serif" font-size="10.00">1</text>
</a>
</g>
</g>
<!-- dir_6a49a4a01df89ea000e629175e7db917&#45;&gt;dir_1a5504e72c2ab618c124e6472b08d26c -->
<g id="edge49" class="edge">
<title>dir_6a49a4a01df89ea000e629175e7db917&#45;&gt;dir_1a5504e72c2ab618c124e6472b08d26c</title>
<path fill="none" stroke="black" d="M310,-87.7C310,-79.98 310,-70.71 310,-62.11"/>
<polygon fill="black" stroke="black" points="313.5,-62.1 310,-52.1 306.5,-62.1 313.5,-62.1"/>
<g id="a_edge49&#45;headlabel"><a xlink:href="dir_000066_000144.html" target="_top" xlink:title="2">
<text text-anchor="middle" x="316.34" y="-63.2" font-family="Helvetica,sans-Serif" font-size="10.00">2</text>
</a>
</g>
</g>
<!-- dir_6a49a4a01df89ea000e629175e7db917&#45;&gt;dir_a4226c5615a06a31e6344f5f3fd917e1 -->
<g id="edge48" class="edge">
<title>dir_6a49a4a01df89ea000e629175e7db917&#45;&gt;dir_a4226c5615a06a31e6344f5f3fd917e1</title>
<path fill="none" stroke="black" d="M311.19,-124.13C307.2,-142.88 295.29,-173.28 279,-196 270.51,-207.84 259.06,-219.11 247.98,-228.19"/>
<polygon fill="black" stroke="black" points="245.76,-225.48 240.02,-234.39 250.06,-231 245.76,-225.48"/>
<g id="a_edge48&#45;headlabel"><a xlink:href="dir_000066_000016.html" target="_top" xlink:title="2">
<text text-anchor="middle" x="246.85" y="-218.53" font-family="Helvetica,sans-Serif" font-size="10.00">2</text>
</a>
</g>
</g>
<!-- dir_82d83c9747486c2eb8d3c4c8f409d82b -->
<g id="node12" class="node">
<title>dir_82d83c9747486c2eb8d3c4c8f409d82b</title>
<g id="a_node12"><a xlink:href="dir_82d83c9747486c2eb8d3c4c8f409d82b.html" target="_top" xlink:title="Sensor">
<polygon fill="white" stroke="red" points="369,-412 315,-412 315,-376 369,-376 369,-412"/>
<text text-anchor="middle" x="342" y="-391.5" font-family="Helvetica,sans-Serif" font-size="10.00">Sensor</text>
</a>
</g>
</g>
<!-- dir_82d83c9747486c2eb8d3c4c8f409d82b&#45;&gt;dir_1a5504e72c2ab618c124e6472b08d26c -->
<g id="edge10" class="edge">
<title>dir_82d83c9747486c2eb8d3c4c8f409d82b&#45;&gt;dir_1a5504e72c2ab618c124e6472b08d26c</title>
<path fill="none" stroke="black" d="M369.25,-384.36C389.7,-376.33 416.41,-362.21 430,-340 488.55,-244.29 508.2,-180.71 445,-88 427.05,-61.67 393.85,-48.42 364.86,-41.75"/>
<polygon fill="black" stroke="black" points="365.32,-38.27 354.82,-39.66 363.89,-45.12 365.32,-38.27"/>
<g id="a_edge10&#45;headlabel"><a xlink:href="dir_000070_000144.html" target="_top" xlink:title="7">
<text text-anchor="middle" x="369.42" y="-33.72" font-family="Helvetica,sans-Serif" font-size="10.00">7</text>
</a>
</g>
</g>
<!-- dir_82d83c9747486c2eb8d3c4c8f409d82b&#45;&gt;dir_e185953657720ba3a67126696ef566c7 -->
<g id="edge13" class="edge">
<title>dir_82d83c9747486c2eb8d3c4c8f409d82b&#45;&gt;dir_e185953657720ba3a67126696ef566c7</title>
<path fill="none" stroke="black" d="M314.92,-385.51C270.97,-373.35 183.77,-349.22 131.49,-334.76"/>
<polygon fill="black" stroke="black" points="132.41,-331.38 121.84,-332.09 130.54,-338.13 132.41,-331.38"/>
<g id="a_edge13&#45;headlabel"><a xlink:href="dir_000070_000093.html" target="_top" xlink:title="1">
<text text-anchor="middle" x="136.63" y="-327.1" font-family="Helvetica,sans-Serif" font-size="10.00">1</text>
</a>
</g>
</g>
<!-- dir_82d83c9747486c2eb8d3c4c8f409d82b&#45;&gt;dir_a4226c5615a06a31e6344f5f3fd917e1 -->
<g id="edge8" class="edge">
<title>dir_82d83c9747486c2eb8d3c4c8f409d82b&#45;&gt;dir_a4226c5615a06a31e6344f5f3fd917e1</title>
<path fill="none" stroke="black" d="M314.92,-390.71C283.84,-386.46 234.18,-374.38 211,-340 198.83,-321.94 200.66,-296.8 204.77,-277.84"/>
<polygon fill="black" stroke="black" points="208.19,-278.58 207.21,-268.03 201.4,-276.89 208.19,-278.58"/>
<g id="a_edge8&#45;headlabel"><a xlink:href="dir_000070_000016.html" target="_top" xlink:title="12">
<text text-anchor="middle" x="210.08" y="-280.25" font-family="Helvetica,sans-Serif" font-size="10.00">12</text>
</a>
</g>
</g>
<!-- dir_82d83c9747486c2eb8d3c4c8f409d82b&#45;&gt;dir_4d0b0adf7e9fb892c3df556e9cbb05d0 -->
<g id="edge11" class="edge">
<title>dir_82d83c9747486c2eb8d3c4c8f409d82b&#45;&gt;dir_4d0b0adf7e9fb892c3df556e9cbb05d0</title>
<path fill="none" stroke="black" d="M327.25,-375.63C319.91,-365.85 311.81,-353.01 308,-340 303.5,-324.65 305.14,-319.74 308,-304 314.44,-268.56 330.38,-230.09 341.91,-205.33"/>
<polygon fill="black" stroke="black" points="345.1,-206.76 346.24,-196.23 338.78,-203.76 345.1,-206.76"/>
<g id="a_edge11&#45;headlabel"><a xlink:href="dir_000070_000059.html" target="_top" xlink:title="4">
<text text-anchor="middle" x="346.12" y="-208.73" font-family="Helvetica,sans-Serif" font-size="10.00">4</text>
</a>
</g>
</g>
<!-- dir_82d83c9747486c2eb8d3c4c8f409d82b&#45;&gt;dir_6a49a4a01df89ea000e629175e7db917 -->
<g id="edge14" class="edge">
<title>dir_82d83c9747486c2eb8d3c4c8f409d82b&#45;&gt;dir_6a49a4a01df89ea000e629175e7db917</title>
<path fill="none" stroke="black" d="M333.54,-375.71C325.83,-357.61 316.68,-328.47 324,-304 344.46,-235.64 429.62,-222.39 395,-160 384.58,-141.22 364.44,-128.23 346.38,-119.81"/>
<polygon fill="black" stroke="black" points="347.75,-116.59 337.18,-115.82 344.96,-123.01 347.75,-116.59"/>
<g id="a_edge14&#45;headlabel"><a xlink:href="dir_000070_000066.html" target="_top" xlink:title="2">
<text text-anchor="middle" x="352.18" y="-112.92" font-family="Helvetica,sans-Serif" font-size="10.00">2</text>
</a>
</g>
</g>
<!-- dir_b8146bf70b87a0f1c9cf6bdf4bac4dd2 -->
<g id="node15" class="node">
<title>dir_b8146bf70b87a0f1c9cf6bdf4bac4dd2</title>
<g id="a_node15"><a xlink:href="dir_b8146bf70b87a0f1c9cf6bdf4bac4dd2.html" target="_top" xlink:title="ThirdpartAPI">
<polygon fill="white" stroke="red" points="409.5,-340 332.5,-340 332.5,-304 409.5,-304 409.5,-340"/>
<text text-anchor="middle" x="371" y="-319.5" font-family="Helvetica,sans-Serif" font-size="10.00">ThirdpartAPI</text>
</a>
</g>
</g>
<!-- dir_82d83c9747486c2eb8d3c4c8f409d82b&#45;&gt;dir_b8146bf70b87a0f1c9cf6bdf4bac4dd2 -->
<g id="edge12" class="edge">
<title>dir_82d83c9747486c2eb8d3c4c8f409d82b&#45;&gt;dir_b8146bf70b87a0f1c9cf6bdf4bac4dd2</title>
<path fill="none" stroke="black" d="M349.17,-375.7C352.43,-367.81 356.37,-358.3 360,-349.55"/>
<polygon fill="black" stroke="black" points="363.32,-350.68 363.91,-340.1 356.85,-348 363.32,-350.68"/>
<g id="a_edge12&#45;headlabel"><a xlink:href="dir_000070_000250.html" target="_top" xlink:title="3">
<text text-anchor="middle" x="364.57" y="-352.59" font-family="Helvetica,sans-Serif" font-size="10.00">3</text>
</a>
</g>
</g>
<!-- dir_82d83c9747486c2eb8d3c4c8f409d82b&#45;&gt;dir_c2cd4762e89f989d55fa2b0634ddfc81 -->
<g id="edge9" class="edge">
<title>dir_82d83c9747486c2eb8d3c4c8f409d82b&#45;&gt;dir_c2cd4762e89f989d55fa2b0634ddfc81</title>
<path fill="none" stroke="black" d="M369.36,-382.23C387.02,-373.68 408.58,-359.82 419,-340 454.44,-272.58 428.74,-178.69 412.52,-133.45"/>
<polygon fill="black" stroke="black" points="415.8,-132.21 409.04,-124.05 409.23,-134.64 415.8,-132.21"/>
<g id="a_edge9&#45;headlabel"><a xlink:href="dir_000070_000081.html" target="_top" xlink:title="1">
<text text-anchor="middle" x="419.71" y="-132.09" font-family="Helvetica,sans-Serif" font-size="10.00">1</text>
</a>
</g>
</g>
<!-- dir_6164661bfb521e4b540c7b7052af2911 -->
<g id="node13" class="node">
<title>dir_6164661bfb521e4b540c7b7052af2911</title>
<g id="a_node13"><a xlink:href="dir_6164661bfb521e4b540c7b7052af2911.html" target="_top" xlink:title="Service">
<polygon fill="white" stroke="red" points="393,-484 339,-484 339,-448 393,-448 393,-484"/>
<text text-anchor="middle" x="366" y="-463.5" font-family="Helvetica,sans-Serif" font-size="10.00">Service</text>
</a>
</g>
</g>
<!-- dir_6164661bfb521e4b540c7b7052af2911&#45;&gt;dir_1666c5f4940eb69dc85cb0f1045c5123 -->
<g id="edge20" class="edge">
<title>dir_6164661bfb521e4b540c7b7052af2911&#45;&gt;dir_1666c5f4940eb69dc85cb0f1045c5123</title>
<path fill="none" stroke="black" d="M383.37,-447.87C408.78,-422.82 456.2,-376.05 485.25,-347.41"/>
<polygon fill="black" stroke="black" points="487.91,-349.7 492.57,-340.19 482.99,-344.72 487.91,-349.7"/>
<g id="a_edge20&#45;headlabel"><a xlink:href="dir_000110_000008.html" target="_top" xlink:title="1">
<text text-anchor="middle" x="487.34" y="-351.75" font-family="Helvetica,sans-Serif" font-size="10.00">1</text>
</a>
</g>
</g>
<!-- dir_6164661bfb521e4b540c7b7052af2911&#45;&gt;dir_1a5504e72c2ab618c124e6472b08d26c -->
<g id="edge21" class="edge">
<title>dir_6164661bfb521e4b540c7b7052af2911&#45;&gt;dir_1a5504e72c2ab618c124e6472b08d26c</title>
<path fill="none" stroke="black" d="M393.14,-460.93C452.98,-450.26 591,-415.61 591,-323 591,-323 591,-323 591,-177 591,-76.62 446.39,-47.18 364.65,-38.56"/>
<polygon fill="black" stroke="black" points="364.82,-35.06 354.53,-37.57 364.13,-42.03 364.82,-35.06"/>
<g id="a_edge21&#45;headlabel"><a xlink:href="dir_000110_000144.html" target="_top" xlink:title="4">
<text text-anchor="middle" x="368.68" y="-30.09" font-family="Helvetica,sans-Serif" font-size="10.00">4</text>
</a>
</g>
</g>
<!-- dir_6164661bfb521e4b540c7b7052af2911&#45;&gt;dir_e185953657720ba3a67126696ef566c7 -->
<g id="edge22" class="edge">
<title>dir_6164661bfb521e4b540c7b7052af2911&#45;&gt;dir_e185953657720ba3a67126696ef566c7</title>
<path fill="none" stroke="black" d="M338.96,-458.29C289.95,-446 190.15,-420.37 176,-412 148.34,-395.63 123.45,-368.24 107.45,-348.15"/>
<polygon fill="black" stroke="black" points="110.05,-345.8 101.16,-340.05 104.53,-350.09 110.05,-345.8"/>
<g id="a_edge22&#45;headlabel"><a xlink:href="dir_000110_000093.html" target="_top" xlink:title="4">
<text text-anchor="middle" x="114.5" y="-344.4" font-family="Helvetica,sans-Serif" font-size="10.00">4</text>
</a>
</g>
</g>
<!-- dir_6164661bfb521e4b540c7b7052af2911&#45;&gt;dir_a4226c5615a06a31e6344f5f3fd917e1 -->
<g id="edge17" class="edge">
<title>dir_6164661bfb521e4b540c7b7052af2911&#45;&gt;dir_a4226c5615a06a31e6344f5f3fd917e1</title>
<path fill="none" stroke="black" d="M338.97,-454.43C299.3,-437.26 226.82,-399.14 197,-340 187.17,-320.51 192.74,-295.95 199.88,-277.56"/>
<polygon fill="black" stroke="black" points="203.11,-278.89 203.8,-268.31 196.67,-276.16 203.11,-278.89"/>
<g id="a_edge17&#45;headlabel"><a xlink:href="dir_000110_000016.html" target="_top" xlink:title="6">
<text text-anchor="middle" x="204.33" y="-280.8" font-family="Helvetica,sans-Serif" font-size="10.00">6</text>
</a>
</g>
</g>
<!-- dir_6164661bfb521e4b540c7b7052af2911&#45;&gt;dir_82d83c9747486c2eb8d3c4c8f409d82b -->
<g id="edge18" class="edge">
<title>dir_6164661bfb521e4b540c7b7052af2911&#45;&gt;dir_82d83c9747486c2eb8d3c4c8f409d82b</title>
<path fill="none" stroke="black" d="M360.07,-447.7C357.39,-439.9 354.17,-430.51 351.2,-421.83"/>
<polygon fill="black" stroke="black" points="354.42,-420.43 347.86,-412.1 347.8,-422.7 354.42,-420.43"/>
<g id="a_edge18&#45;headlabel"><a xlink:href="dir_000110_000070.html" target="_top" xlink:title="2">
<text text-anchor="middle" x="358.27" y="-420.41" font-family="Helvetica,sans-Serif" font-size="10.00">2</text>
</a>
</g>
</g>
<!-- dir_6164661bfb521e4b540c7b7052af2911&#45;&gt;dir_c2cd4762e89f989d55fa2b0634ddfc81 -->
<g id="edge19" class="edge">
<title>dir_6164661bfb521e4b540c7b7052af2911&#45;&gt;dir_c2cd4762e89f989d55fa2b0634ddfc81</title>
<path fill="none" stroke="black" d="M393.36,-456.91C437.97,-442.07 525.02,-405.8 561,-340 605.56,-258.5 496.81,-169.86 437.46,-129.41"/>
<polygon fill="black" stroke="black" points="439.35,-126.45 429.09,-123.79 435.45,-132.27 439.35,-126.45"/>
<g id="a_edge19&#45;headlabel"><a xlink:href="dir_000110_000081.html" target="_top" xlink:title="2">
<text text-anchor="middle" x="443.91" y="-123.6" font-family="Helvetica,sans-Serif" font-size="10.00">2</text>
</a>
</g>
</g>
<!-- dir_6c63dd282651b43f4337d292845f5ec4 -->
<g id="node14" class="node">
<title>dir_6c63dd282651b43f4337d292845f5ec4</title>
<g id="a_node14"><a xlink:href="dir_6c63dd282651b43f4337d292845f5ec4.html" target="_top" xlink:title="Template">
<polygon fill="white" stroke="red" points="285,-484 223,-484 223,-448 285,-448 285,-484"/>
<text text-anchor="middle" x="254" y="-463.5" font-family="Helvetica,sans-Serif" font-size="10.00">Template</text>
</a>
</g>
</g>
<!-- dir_eec1bb706bd2e5107de375aec258065a -->
<g id="node16" class="node">
<title>dir_eec1bb706bd2e5107de375aec258065a</title>
<g id="a_node16"><a xlink:href="dir_eec1bb706bd2e5107de375aec258065a.html" target="_top" xlink:title="User">
<polygon fill="white" stroke="red" points="116,-484 62,-484 62,-448 116,-448 116,-484"/>
<text text-anchor="middle" x="89" y="-463.5" font-family="Helvetica,sans-Serif" font-size="10.00">User</text>
</a>
</g>
</g>
<!-- dir_eec1bb706bd2e5107de375aec258065a&#45;&gt;dir_8efbaa1056a51686757185dce0bc8da0 -->
<g id="edge28" class="edge">
<title>dir_eec1bb706bd2e5107de375aec258065a&#45;&gt;dir_8efbaa1056a51686757185dce0bc8da0</title>
<path fill="none" stroke="black" d="M89,-447.7C89,-439.98 89,-430.71 89,-422.11"/>
<polygon fill="black" stroke="black" points="92.5,-422.1 89,-412.1 85.5,-422.1 92.5,-422.1"/>
<g id="a_edge28&#45;headlabel"><a xlink:href="dir_000077_000002.html" target="_top" xlink:title="1">
<text text-anchor="middle" x="95.34" y="-423.2" font-family="Helvetica,sans-Serif" font-size="10.00">1</text>
</a>
</g>
</g>
<!-- dir_eec1bb706bd2e5107de375aec258065a&#45;&gt;dir_1a5504e72c2ab618c124e6472b08d26c -->
<g id="edge29" class="edge">
<title>dir_eec1bb706bd2e5107de375aec258065a&#45;&gt;dir_1a5504e72c2ab618c124e6472b08d26c</title>
<path fill="none" stroke="black" d="M73.38,-447.62C52.2,-422.19 17,-372.48 17,-323 17,-323 17,-323 17,-177 17,-135.26 15.68,-115.6 47,-88 77.33,-61.27 187.46,-46.42 255.21,-39.63"/>
<polygon fill="black" stroke="black" points="255.68,-43.1 265.3,-38.65 255,-36.14 255.68,-43.1"/>
<g id="a_edge29&#45;headlabel"><a xlink:href="dir_000077_000144.html" target="_top" xlink:title="1">
<text text-anchor="middle" x="252.38" y="-43.78" font-family="Helvetica,sans-Serif" font-size="10.00">1</text>
</a>
</g>
</g>
<!-- dir_eec1bb706bd2e5107de375aec258065a&#45;&gt;dir_a4226c5615a06a31e6344f5f3fd917e1 -->
<g id="edge27" class="edge">
<title>dir_eec1bb706bd2e5107de375aec258065a&#45;&gt;dir_a4226c5615a06a31e6344f5f3fd917e1</title>
<path fill="none" stroke="black" d="M102.56,-447.91C110.25,-437.8 119.75,-424.55 127,-412 153.37,-366.36 149.92,-349.8 176,-304 181.33,-294.64 187.87,-284.85 193.95,-276.26"/>
<polygon fill="black" stroke="black" points="196.8,-278.29 199.83,-268.14 191.13,-274.19 196.8,-278.29"/>
<g id="a_edge27&#45;headlabel"><a xlink:href="dir_000077_000016.html" target="_top" xlink:title="2">
<text text-anchor="middle" x="197" y="-280.37" font-family="Helvetica,sans-Serif" font-size="10.00">2</text>
</a>
</g>
</g>
<!-- dir_c2cd4762e89f989d55fa2b0634ddfc81&#45;&gt;dir_1a5504e72c2ab618c124e6472b08d26c -->
<g id="edge16" class="edge">
<title>dir_c2cd4762e89f989d55fa2b0634ddfc81&#45;&gt;dir_1a5504e72c2ab618c124e6472b08d26c</title>
<path fill="none" stroke="black" d="M379.26,-87.7C367.56,-78.8 353.14,-67.82 340.49,-58.2"/>
<polygon fill="black" stroke="black" points="342.56,-55.37 332.48,-52.1 338.32,-60.94 342.56,-55.37"/>
<g id="a_edge16&#45;headlabel"><a xlink:href="dir_000081_000144.html" target="_top" xlink:title="3">
<text text-anchor="middle" x="347.14" y="-52.79" font-family="Helvetica,sans-Serif" font-size="10.00">3</text>
</a>
</g>
</g>
<!-- dir_c2cd4762e89f989d55fa2b0634ddfc81&#45;&gt;dir_a4226c5615a06a31e6344f5f3fd917e1 -->
<g id="edge15" class="edge">
<title>dir_c2cd4762e89f989d55fa2b0634ddfc81&#45;&gt;dir_a4226c5615a06a31e6344f5f3fd917e1</title>
<path fill="none" stroke="black" d="M376.6,-124.12C360.65,-133.56 340.32,-146.16 324,-160 307.9,-173.66 308.44,-181.6 293,-196 279.68,-208.42 263.49,-220.69 249.04,-230.3"/>
<polygon fill="black" stroke="black" points="246.84,-227.55 240.32,-235.91 250.62,-233.44 246.84,-227.55"/>
<g id="a_edge15&#45;headlabel"><a xlink:href="dir_000081_000016.html" target="_top" xlink:title="4">
<text text-anchor="middle" x="248.32" y="-220.72" font-family="Helvetica,sans-Serif" font-size="10.00">4</text>
</a>
</g>
</g>
</g>
</svg>
