<?xml version="1.0" encoding="UTF-8" standalone="no"?>
<!DOCTYPE svg PUBLIC "-//W3C//DTD SVG 1.1//EN"
 "http://www.w3.org/Graphics/SVG/1.1/DTD/svg11.dtd">
<!-- Generated by graphviz version 2.43.0 (0)
 -->
<!-- Title: Components/Objects/Timeservice Pages: 1 -->
<svg width="372pt" height="253pt"
 viewBox="0.00 0.00 372.26 252.89" xmlns="http://www.w3.org/2000/svg" xmlns:xlink="http://www.w3.org/1999/xlink">
<g id="graph0" class="graph" transform="scale(1 1) rotate(0) translate(4 248.89)">
<title>Components/Objects/Timeservice</title>
<g id="clust1" class="cluster">
<title>clusterdir_a4226c5615a06a31e6344f5f3fd917e1</title>
<g id="a_clust1"><a xlink:href="dir_a4226c5615a06a31e6344f5f3fd917e1.html" target="_top" xlink:title="Objects">
<polygon fill="#ddddee" stroke="black" points="8,-56 8,-215 262,-215 262,-56 8,-56"/>
<text text-anchor="middle" x="135" y="-203" font-family="Helvetica,sans-Serif" font-size="10.00">Objects</text>
</a>
</g>
</g>
<g id="clust2" class="cluster">
<title>clusterdir_82ae37b9d9d4852b543931d9ede35f57</title>
<g id="a_clust2"><a xlink:href="dir_82ae37b9d9d4852b543931d9ede35f57.html" target="_top">
<polygon fill="#eeeeff" stroke="black" points="16,-64 16,-188 254,-188 254,-64 16,-64"/>
</a>
</g>
</g>
<!-- dir_82ae37b9d9d4852b543931d9ede35f57 -->
<g id="node1" class="node">
<title>dir_82ae37b9d9d4852b543931d9ede35f57</title>
<text text-anchor="middle" x="207" y="-159.5" font-family="Helvetica,sans-Serif" font-size="10.00">Timeservice</text>
</g>
<!-- dir_9fe2c82a321e56c96b1dd2b87dfa4011 -->
<g id="node2" class="node">
<title>dir_9fe2c82a321e56c96b1dd2b87dfa4011</title>
<g id="a_node2"><a xlink:href="dir_9fe2c82a321e56c96b1dd2b87dfa4011.html" target="_top" xlink:title="include">
<polygon fill="white" stroke="black" points="246,-108 192,-108 192,-72 246,-72 246,-108"/>
<text text-anchor="middle" x="219" y="-87.5" font-family="Helvetica,sans-Serif" font-size="10.00">include</text>
</a>
</g>
</g>
<!-- dir_4816d2fb8abcfd1fbfb7e56b67e0baa1 -->
<g id="node6" class="node">
<title>dir_4816d2fb8abcfd1fbfb7e56b67e0baa1</title>
<g id="a_node6"><a xlink:href="dir_4816d2fb8abcfd1fbfb7e56b67e0baa1.html" target="_top" xlink:title="ErrorHandler">
<polygon fill="none" stroke="red" points="348,-108 270,-108 270,-72 348,-72 348,-108"/>
<text text-anchor="middle" x="309" y="-87.5" font-family="Helvetica,sans-Serif" font-size="10.00">ErrorHandler</text>
</a>
</g>
</g>
<!-- dir_9fe2c82a321e56c96b1dd2b87dfa4011&#45;&gt;dir_4816d2fb8abcfd1fbfb7e56b67e0baa1 -->
<g id="edge4" class="edge">
<title>dir_9fe2c82a321e56c96b1dd2b87dfa4011&#45;&gt;dir_4816d2fb8abcfd1fbfb7e56b67e0baa1</title>
<path fill="none" stroke="black" d="M246.07,-90C250.5,-90 254.92,-90 259.34,-90"/>
<polygon fill="black" stroke="black" points="259.67,-93.5 269.67,-90 259.67,-86.5 259.67,-93.5"/>
<g id="a_edge4&#45;headlabel"><a xlink:href="dir_000207_000020.html" target="_top" xlink:title="2">
<text text-anchor="middle" x="256.07" y="-93.84" font-family="Helvetica,sans-Serif" font-size="10.00">2</text>
</a>
</g>
</g>
<!-- dir_1a5504e72c2ab618c124e6472b08d26c -->
<g id="node7" class="node">
<title>dir_1a5504e72c2ab618c124e6472b08d26c</title>
<g id="a_node7"><a xlink:href="dir_1a5504e72c2ab618c124e6472b08d26c.html" target="_top" xlink:title="Global_Include">
<polygon fill="none" stroke="black" points="353.5,-36 264.5,-36 264.5,0 353.5,0 353.5,-36"/>
<text text-anchor="middle" x="309" y="-15.5" font-family="Helvetica,sans-Serif" font-size="10.00">Global_Include</text>
</a>
</g>
</g>
<!-- dir_9fe2c82a321e56c96b1dd2b87dfa4011&#45;&gt;dir_1a5504e72c2ab618c124e6472b08d26c -->
<g id="edge5" class="edge">
<title>dir_9fe2c82a321e56c96b1dd2b87dfa4011&#45;&gt;dir_1a5504e72c2ab618c124e6472b08d26c</title>
<path fill="none" stroke="black" d="M240.77,-71.83C247.27,-66.73 254.41,-61.13 261,-56 266.58,-51.66 272.54,-47.05 278.29,-42.61"/>
<polygon fill="black" stroke="black" points="280.72,-45.15 286.5,-36.27 276.44,-39.61 280.72,-45.15"/>
<g id="a_edge5&#45;headlabel"><a xlink:href="dir_000207_000135.html" target="_top" xlink:title="2">
<text text-anchor="middle" x="279.6" y="-47.1" font-family="Helvetica,sans-Serif" font-size="10.00">2</text>
</a>
</g>
</g>
<!-- dir_303057c21ad73e05f65e4b9f429c6f89 -->
<g id="node3" class="node">
<title>dir_303057c21ad73e05f65e4b9f429c6f89</title>
<g id="a_node3"><a xlink:href="dir_303057c21ad73e05f65e4b9f429c6f89.html" target="_top" xlink:title="src">
<polygon fill="white" stroke="black" points="150,-180 96,-180 96,-144 150,-144 150,-180"/>
<text text-anchor="middle" x="123" y="-159.5" font-family="Helvetica,sans-Serif" font-size="10.00">src</text>
</a>
</g>
</g>
<!-- dir_303057c21ad73e05f65e4b9f429c6f89&#45;&gt;dir_9fe2c82a321e56c96b1dd2b87dfa4011 -->
<g id="edge10" class="edge">
<title>dir_303057c21ad73e05f65e4b9f429c6f89&#45;&gt;dir_9fe2c82a321e56c96b1dd2b87dfa4011</title>
<path fill="none" stroke="black" d="M146.73,-143.7C158.94,-134.8 173.99,-123.82 187.18,-114.2"/>
<polygon fill="black" stroke="black" points="189.52,-116.82 195.54,-108.1 185.4,-111.17 189.52,-116.82"/>
<g id="a_edge10&#45;headlabel"><a xlink:href="dir_000208_000207.html" target="_top" xlink:title="2">
<text text-anchor="middle" x="188.29" y="-118.74" font-family="Helvetica,sans-Serif" font-size="10.00">2</text>
</a>
</g>
</g>
<!-- dir_38f1823a3c1e0c1cf1e4da5a8adbfbc2 -->
<g id="node4" class="node">
<title>dir_38f1823a3c1e0c1cf1e4da5a8adbfbc2</title>
<g id="a_node4"><a xlink:href="dir_38f1823a3c1e0c1cf1e4da5a8adbfbc2.html" target="_top" xlink:title="test">
<polygon fill="white" stroke="red" points="78,-180 24,-180 24,-144 78,-144 78,-180"/>
<text text-anchor="middle" x="51" y="-159.5" font-family="Helvetica,sans-Serif" font-size="10.00">test</text>
</a>
</g>
</g>
<!-- dir_38f1823a3c1e0c1cf1e4da5a8adbfbc2&#45;&gt;dir_9fe2c82a321e56c96b1dd2b87dfa4011 -->
<g id="edge8" class="edge">
<title>dir_38f1823a3c1e0c1cf1e4da5a8adbfbc2&#45;&gt;dir_9fe2c82a321e56c96b1dd2b87dfa4011</title>
<path fill="none" stroke="black" d="M78.05,-148.02C81.06,-146.64 84.09,-145.27 87,-144 118.81,-130.12 155.48,-115.5 182.08,-105.15"/>
<polygon fill="black" stroke="black" points="183.7,-108.27 191.75,-101.39 181.17,-101.75 183.7,-108.27"/>
<g id="a_edge8&#45;headlabel"><a xlink:href="dir_000054_000207.html" target="_top" xlink:title="2">
<text text-anchor="middle" x="181.37" y="-109.72" font-family="Helvetica,sans-Serif" font-size="10.00">2</text>
</a>
</g>
</g>
<!-- dir_c2cd4762e89f989d55fa2b0634ddfc81 -->
<g id="node5" class="node">
<title>dir_c2cd4762e89f989d55fa2b0634ddfc81</title>
<g id="a_node5"><a xlink:href="dir_c2cd4762e89f989d55fa2b0634ddfc81.html" target="_top" xlink:title="Utility">
<polygon fill="none" stroke="red" points="330,-180 276,-180 276,-144 330,-144 330,-180"/>
<text text-anchor="middle" x="303" y="-159.5" font-family="Helvetica,sans-Serif" font-size="10.00">Utility</text>
</a>
</g>
</g>
<!-- dir_38f1823a3c1e0c1cf1e4da5a8adbfbc2&#45;&gt;dir_c2cd4762e89f989d55fa2b0634ddfc81 -->
<g id="edge9" class="edge">
<title>dir_38f1823a3c1e0c1cf1e4da5a8adbfbc2&#45;&gt;dir_c2cd4762e89f989d55fa2b0634ddfc81</title>
<path fill="none" stroke="black" d="M56.73,-180.04C63.23,-197.14 75.67,-221.82 96,-233 125.79,-249.39 218.54,-248.1 249,-233 267.44,-223.86 281.29,-205.07 290.34,-189.12"/>
<polygon fill="black" stroke="black" points="293.51,-190.62 295.12,-180.14 287.33,-187.33 293.51,-190.62"/>
<g id="a_edge9&#45;headlabel"><a xlink:href="dir_000054_000081.html" target="_top" xlink:title="2">
<text text-anchor="middle" x="294.33" y="-192.62" font-family="Helvetica,sans-Serif" font-size="10.00">2</text>
</a>
</g>
</g>
<!-- dir_c2cd4762e89f989d55fa2b0634ddfc81&#45;&gt;dir_9fe2c82a321e56c96b1dd2b87dfa4011 -->
<g id="edge1" class="edge">
<title>dir_c2cd4762e89f989d55fa2b0634ddfc81&#45;&gt;dir_9fe2c82a321e56c96b1dd2b87dfa4011</title>
<path fill="none" stroke="black" d="M282.24,-143.7C271.76,-134.97 258.89,-124.24 247.5,-114.75"/>
<polygon fill="black" stroke="black" points="249.45,-111.82 239.53,-108.1 244.97,-117.19 249.45,-111.82"/>
<g id="a_edge1&#45;headlabel"><a xlink:href="dir_000081_000207.html" target="_top" xlink:title="1">
<text text-anchor="middle" x="254.03" y="-109.44" font-family="Helvetica,sans-Serif" font-size="10.00">1</text>
</a>
</g>
</g>
<!-- dir_c2cd4762e89f989d55fa2b0634ddfc81&#45;&gt;dir_4816d2fb8abcfd1fbfb7e56b67e0baa1 -->
<g id="edge2" class="edge">
<title>dir_c2cd4762e89f989d55fa2b0634ddfc81&#45;&gt;dir_4816d2fb8abcfd1fbfb7e56b67e0baa1</title>
<path fill="none" stroke="black" d="M304.48,-143.7C305.14,-135.98 305.94,-126.71 306.68,-118.11"/>
<polygon fill="black" stroke="black" points="310.17,-118.37 307.53,-108.1 303.19,-117.77 310.17,-118.37"/>
<g id="a_edge2&#45;headlabel"><a xlink:href="dir_000081_000020.html" target="_top" xlink:title="3">
<text text-anchor="middle" x="312.69" y="-119.69" font-family="Helvetica,sans-Serif" font-size="10.00">3</text>
</a>
</g>
</g>
<!-- dir_c2cd4762e89f989d55fa2b0634ddfc81&#45;&gt;dir_1a5504e72c2ab618c124e6472b08d26c -->
<g id="edge3" class="edge">
<title>dir_c2cd4762e89f989d55fa2b0634ddfc81&#45;&gt;dir_1a5504e72c2ab618c124e6472b08d26c</title>
<path fill="none" stroke="black" d="M327.93,-143.86C339.06,-134.67 351,-122.29 357,-108 365.94,-86.69 367.2,-76.74 357,-56 354.68,-51.28 351.44,-47 347.72,-43.15"/>
<polygon fill="black" stroke="black" points="349.88,-40.39 340.1,-36.31 345.2,-45.6 349.88,-40.39"/>
<g id="a_edge3&#45;headlabel"><a xlink:href="dir_000081_000135.html" target="_top" xlink:title="3">
<text text-anchor="middle" x="354.45" y="-38.18" font-family="Helvetica,sans-Serif" font-size="10.00">3</text>
</a>
</g>
</g>
<!-- dir_4816d2fb8abcfd1fbfb7e56b67e0baa1&#45;&gt;dir_9fe2c82a321e56c96b1dd2b87dfa4011 -->
<g id="edge6" class="edge">
<title>dir_4816d2fb8abcfd1fbfb7e56b67e0baa1&#45;&gt;dir_9fe2c82a321e56c96b1dd2b87dfa4011</title>
<path fill="none" stroke="black" d="M269.67,-90C265.24,-90 260.82,-90 256.39,-90"/>
<polygon fill="black" stroke="black" points="256.07,-86.5 246.07,-90 256.07,-93.5 256.07,-86.5"/>
<g id="a_edge6&#45;headlabel"><a xlink:href="dir_000020_000207.html" target="_top" xlink:title="1">
<text text-anchor="middle" x="259.66" y="-81.16" font-family="Helvetica,sans-Serif" font-size="10.00">1</text>
</a>
</g>
</g>
<!-- dir_4816d2fb8abcfd1fbfb7e56b67e0baa1&#45;&gt;dir_1a5504e72c2ab618c124e6472b08d26c -->
<g id="edge7" class="edge">
<title>dir_4816d2fb8abcfd1fbfb7e56b67e0baa1&#45;&gt;dir_1a5504e72c2ab618c124e6472b08d26c</title>
<path fill="none" stroke="black" d="M309,-71.7C309,-63.98 309,-54.71 309,-46.11"/>
<polygon fill="black" stroke="black" points="312.5,-46.1 309,-36.1 305.5,-46.1 312.5,-46.1"/>
<g id="a_edge7&#45;headlabel"><a xlink:href="dir_000020_000135.html" target="_top" xlink:title="2">
<text text-anchor="middle" x="315.34" y="-47.2" font-family="Helvetica,sans-Serif" font-size="10.00">2</text>
</a>
</g>
</g>
</g>
</svg>
