<?xml version="1.0" encoding="UTF-8" standalone="no"?>
<!DOCTYPE svg PUBLIC "-//W3C//DTD SVG 1.1//EN"
 "http://www.w3.org/Graphics/SVG/1.1/DTD/svg11.dtd">
<!-- Generated by graphviz version 2.43.0 (0)
 -->
<!-- Title: Components/Service Pages: 1 -->
<svg width="334pt" height="375pt"
 viewBox="0.00 0.00 334.34 375.00" xmlns="http://www.w3.org/2000/svg" xmlns:xlink="http://www.w3.org/1999/xlink">
<g id="graph0" class="graph" transform="scale(1 1) rotate(0) translate(4 371)">
<title>Components/Service</title>
<g id="clust1" class="cluster">
<title>clusterdir_08f45fe6822aeb4ce2bc268e3b1361be</title>
<g id="a_clust1"><a xlink:href="dir_08f45fe6822aeb4ce2bc268e3b1361be.html" target="_top" xlink:title="Components">
<polygon fill="#ddddee" stroke="black" points="14.34,-272 14.34,-359 318.34,-359 318.34,-272 14.34,-272"/>
<text text-anchor="middle" x="166.34" y="-347" font-family="Helvetica,sans-Serif" font-size="10.00">Components</text>
</a>
</g>
</g>
<g id="clust2" class="cluster">
<title>clusterdir_6164661bfb521e4b540c7b7052af2911</title>
<g id="a_clust2"><a xlink:href="dir_6164661bfb521e4b540c7b7052af2911.html" target="_top">
<polygon fill="#eeeeff" stroke="black" points="22.34,-280 22.34,-332 310.34,-332 310.34,-280 22.34,-280"/>
</a>
</g>
</g>
<!-- dir_6164661bfb521e4b540c7b7052af2911 -->
<g id="node1" class="node">
<title>dir_6164661bfb521e4b540c7b7052af2911</title>
<text text-anchor="middle" x="275.34" y="-303.5" font-family="Helvetica,sans-Serif" font-size="10.00">Service</text>
</g>
<!-- dir_8603aec3380c5f66e9b75b42f3bddbde -->
<g id="node2" class="node">
<title>dir_8603aec3380c5f66e9b75b42f3bddbde</title>
<g id="a_node2"><a xlink:href="dir_8603aec3380c5f66e9b75b42f3bddbde.html" target="_top" xlink:title="OnlineDetector">
<polygon fill="white" stroke="red" points="120.34,-324 30.34,-324 30.34,-288 120.34,-288 120.34,-324"/>
<text text-anchor="middle" x="75.34" y="-303.5" font-family="Helvetica,sans-Serif" font-size="10.00">OnlineDetector</text>
</a>
</g>
</g>
<!-- dir_a4226c5615a06a31e6344f5f3fd917e1 -->
<g id="node4" class="node">
<title>dir_a4226c5615a06a31e6344f5f3fd917e1</title>
<g id="a_node4"><a xlink:href="dir_a4226c5615a06a31e6344f5f3fd917e1.html" target="_top" xlink:title="Objects">
<polygon fill="none" stroke="red" points="117.34,-180 63.34,-180 63.34,-144 117.34,-144 117.34,-180"/>
<text text-anchor="middle" x="90.34" y="-159.5" font-family="Helvetica,sans-Serif" font-size="10.00">Objects</text>
</a>
</g>
</g>
<!-- dir_8603aec3380c5f66e9b75b42f3bddbde&#45;&gt;dir_a4226c5615a06a31e6344f5f3fd917e1 -->
<g id="edge12" class="edge">
<title>dir_8603aec3380c5f66e9b75b42f3bddbde&#45;&gt;dir_a4226c5615a06a31e6344f5f3fd917e1</title>
<path fill="none" stroke="black" d="M77.15,-287.87C79.71,-263.67 84.41,-219.21 87.45,-190.39"/>
<polygon fill="black" stroke="black" points="90.96,-190.5 88.53,-180.19 84,-189.77 90.96,-190.5"/>
<g id="a_edge12&#45;headlabel"><a xlink:href="dir_000107_000016.html" target="_top" xlink:title="1">
<text text-anchor="middle" x="93.4" y="-191.87" font-family="Helvetica,sans-Serif" font-size="10.00">1</text>
</a>
</g>
</g>
<!-- dir_c2cd4762e89f989d55fa2b0634ddfc81 -->
<g id="node5" class="node">
<title>dir_c2cd4762e89f989d55fa2b0634ddfc81</title>
<g id="a_node5"><a xlink:href="dir_c2cd4762e89f989d55fa2b0634ddfc81.html" target="_top" xlink:title="Utility">
<polygon fill="none" stroke="red" points="79.34,-108 25.34,-108 25.34,-72 79.34,-72 79.34,-108"/>
<text text-anchor="middle" x="52.34" y="-87.5" font-family="Helvetica,sans-Serif" font-size="10.00">Utility</text>
</a>
</g>
</g>
<!-- dir_8603aec3380c5f66e9b75b42f3bddbde&#45;&gt;dir_c2cd4762e89f989d55fa2b0634ddfc81 -->
<g id="edge13" class="edge">
<title>dir_8603aec3380c5f66e9b75b42f3bddbde&#45;&gt;dir_c2cd4762e89f989d55fa2b0634ddfc81</title>
<path fill="none" stroke="black" d="M71.63,-287.71C66.65,-263.69 58.02,-218.78 54.34,-180 52.39,-159.36 51.93,-135.91 51.94,-118.26"/>
<polygon fill="black" stroke="black" points="55.44,-118.12 52,-108.1 48.44,-118.08 55.44,-118.12"/>
<g id="a_edge13&#45;headlabel"><a xlink:href="dir_000107_000081.html" target="_top" xlink:title="2">
<text text-anchor="middle" x="58.26" y="-119.23" font-family="Helvetica,sans-Serif" font-size="10.00">2</text>
</a>
</g>
</g>
<!-- dir_1a5504e72c2ab618c124e6472b08d26c -->
<g id="node7" class="node">
<title>dir_1a5504e72c2ab618c124e6472b08d26c</title>
<g id="a_node7"><a xlink:href="dir_1a5504e72c2ab618c124e6472b08d26c.html" target="_top" xlink:title="Global_Include">
<polygon fill="none" stroke="black" points="181.84,-36 92.84,-36 92.84,0 181.84,0 181.84,-36"/>
<text text-anchor="middle" x="137.34" y="-15.5" font-family="Helvetica,sans-Serif" font-size="10.00">Global_Include</text>
</a>
</g>
</g>
<!-- dir_8603aec3380c5f66e9b75b42f3bddbde&#45;&gt;dir_1a5504e72c2ab618c124e6472b08d26c -->
<g id="edge14" class="edge">
<title>dir_8603aec3380c5f66e9b75b42f3bddbde&#45;&gt;dir_1a5504e72c2ab618c124e6472b08d26c</title>
<path fill="none" stroke="black" d="M62.63,-287.99C33.93,-247.35 -29.89,-142.73 16.34,-72 31.19,-49.29 58.15,-36.25 82.86,-28.8"/>
<polygon fill="black" stroke="black" points="83.85,-32.16 92.55,-26.11 81.98,-25.41 83.85,-32.16"/>
<g id="a_edge14&#45;headlabel"><a xlink:href="dir_000107_000130.html" target="_top" xlink:title="1">
<text text-anchor="middle" x="81.14" y="-33.35" font-family="Helvetica,sans-Serif" font-size="10.00">1</text>
</a>
</g>
</g>
<!-- dir_e185953657720ba3a67126696ef566c7 -->
<g id="node8" class="node">
<title>dir_e185953657720ba3a67126696ef566c7</title>
<g id="a_node8"><a xlink:href="dir_e185953657720ba3a67126696ef566c7.html" target="_top" xlink:title="Interfaces">
<polygon fill="none" stroke="red" points="200.84,-108 135.84,-108 135.84,-72 200.84,-72 200.84,-108"/>
<text text-anchor="middle" x="168.34" y="-87.5" font-family="Helvetica,sans-Serif" font-size="10.00">Interfaces</text>
</a>
</g>
</g>
<!-- dir_8603aec3380c5f66e9b75b42f3bddbde&#45;&gt;dir_e185953657720ba3a67126696ef566c7 -->
<g id="edge15" class="edge">
<title>dir_8603aec3380c5f66e9b75b42f3bddbde&#45;&gt;dir_e185953657720ba3a67126696ef566c7</title>
<path fill="none" stroke="black" d="M82.8,-287.85C98.99,-250.6 137.46,-162.07 156.81,-117.54"/>
<polygon fill="black" stroke="black" points="160.08,-118.8 160.85,-108.23 153.66,-116.01 160.08,-118.8"/>
<g id="a_edge15&#45;headlabel"><a xlink:href="dir_000107_000093.html" target="_top" xlink:title="1">
<text text-anchor="middle" x="161.25" y="-120.73" font-family="Helvetica,sans-Serif" font-size="10.00">1</text>
</a>
</g>
</g>
<!-- dir_e77af3bbaa4adbdd4c88bde744e7de0f -->
<g id="node3" class="node">
<title>dir_e77af3bbaa4adbdd4c88bde744e7de0f</title>
<g id="a_node3"><a xlink:href="dir_e77af3bbaa4adbdd4c88bde744e7de0f.html" target="_top" xlink:title="WaterEstimator">
<polygon fill="white" stroke="red" points="230.34,-324 138.34,-324 138.34,-288 230.34,-288 230.34,-324"/>
<text text-anchor="middle" x="184.34" y="-303.5" font-family="Helvetica,sans-Serif" font-size="10.00">WaterEstimator</text>
</a>
</g>
</g>
<!-- dir_e77af3bbaa4adbdd4c88bde744e7de0f&#45;&gt;dir_a4226c5615a06a31e6344f5f3fd917e1 -->
<g id="edge8" class="edge">
<title>dir_e77af3bbaa4adbdd4c88bde744e7de0f&#45;&gt;dir_a4226c5615a06a31e6344f5f3fd917e1</title>
<path fill="none" stroke="black" d="M173,-287.87C156.7,-263.24 126.51,-217.64 107.48,-188.88"/>
<polygon fill="black" stroke="black" points="110.16,-186.6 101.72,-180.19 104.32,-190.46 110.16,-186.6"/>
<g id="a_edge8&#45;headlabel"><a xlink:href="dir_000109_000016.html" target="_top" xlink:title="1">
<text text-anchor="middle" x="114.51" y="-185.53" font-family="Helvetica,sans-Serif" font-size="10.00">1</text>
</a>
</g>
</g>
<!-- dir_1666c5f4940eb69dc85cb0f1045c5123 -->
<g id="node6" class="node">
<title>dir_1666c5f4940eb69dc85cb0f1045c5123</title>
<g id="a_node6"><a xlink:href="dir_1666c5f4940eb69dc85cb0f1045c5123.html" target="_top" xlink:title="AnalysisTools">
<polygon fill="none" stroke="red" points="298.84,-252 215.84,-252 215.84,-216 298.84,-216 298.84,-252"/>
<text text-anchor="middle" x="257.34" y="-231.5" font-family="Helvetica,sans-Serif" font-size="10.00">AnalysisTools</text>
</a>
</g>
</g>
<!-- dir_e77af3bbaa4adbdd4c88bde744e7de0f&#45;&gt;dir_1666c5f4940eb69dc85cb0f1045c5123 -->
<g id="edge9" class="edge">
<title>dir_e77af3bbaa4adbdd4c88bde744e7de0f&#45;&gt;dir_1666c5f4940eb69dc85cb0f1045c5123</title>
<path fill="none" stroke="black" d="M202.39,-287.7C211.41,-279.05 222.46,-268.45 232.29,-259.03"/>
<polygon fill="black" stroke="black" points="234.71,-261.55 239.51,-252.1 229.87,-256.5 234.71,-261.55"/>
<g id="a_edge9&#45;headlabel"><a xlink:href="dir_000109_000008.html" target="_top" xlink:title="1">
<text text-anchor="middle" x="234.08" y="-263.59" font-family="Helvetica,sans-Serif" font-size="10.00">1</text>
</a>
</g>
</g>
<!-- dir_e77af3bbaa4adbdd4c88bde744e7de0f&#45;&gt;dir_1a5504e72c2ab618c124e6472b08d26c -->
<g id="edge10" class="edge">
<title>dir_e77af3bbaa4adbdd4c88bde744e7de0f&#45;&gt;dir_1a5504e72c2ab618c124e6472b08d26c</title>
<path fill="none" stroke="black" d="M209.63,-287.96C218.72,-282.34 229.24,-276.41 239.34,-272 268.61,-259.24 289.16,-277.53 308.34,-252 317.95,-239.21 312.15,-231.54 308.34,-216 291.18,-145.91 283.75,-123.64 233.34,-72 221,-59.36 205,-48.92 189.6,-40.74"/>
<polygon fill="black" stroke="black" points="191.14,-37.6 180.64,-36.19 187.98,-43.84 191.14,-37.6"/>
<g id="a_edge10&#45;headlabel"><a xlink:href="dir_000109_000130.html" target="_top" xlink:title="1">
<text text-anchor="middle" x="195.64" y="-34.2" font-family="Helvetica,sans-Serif" font-size="10.00">1</text>
</a>
</g>
</g>
<!-- dir_e77af3bbaa4adbdd4c88bde744e7de0f&#45;&gt;dir_e185953657720ba3a67126696ef566c7 -->
<g id="edge11" class="edge">
<title>dir_e77af3bbaa4adbdd4c88bde744e7de0f&#45;&gt;dir_e185953657720ba3a67126696ef566c7</title>
<path fill="none" stroke="black" d="M183.06,-287.85C180.29,-250.83 173.74,-163.18 170.39,-118.39"/>
<polygon fill="black" stroke="black" points="173.87,-117.94 169.63,-108.23 166.89,-118.47 173.87,-117.94"/>
<g id="a_edge11&#45;headlabel"><a xlink:href="dir_000109_000093.html" target="_top" xlink:title="1">
<text text-anchor="middle" x="176.97" y="-118.82" font-family="Helvetica,sans-Serif" font-size="10.00">1</text>
</a>
</g>
</g>
<!-- dir_a4226c5615a06a31e6344f5f3fd917e1&#45;&gt;dir_c2cd4762e89f989d55fa2b0634ddfc81 -->
<g id="edge1" class="edge">
<title>dir_a4226c5615a06a31e6344f5f3fd917e1&#45;&gt;dir_c2cd4762e89f989d55fa2b0634ddfc81</title>
<path fill="none" stroke="black" d="M75.03,-143.7C69.89,-135.73 64.45,-126.1 60.04,-117.26"/>
<polygon fill="black" stroke="black" points="63.16,-115.66 55.73,-108.1 56.82,-118.64 63.16,-115.66"/>
<g id="a_edge1&#45;headlabel"><a xlink:href="dir_000016_000081.html" target="_top" xlink:title="2">
<text text-anchor="middle" x="67.26" y="-115.21" font-family="Helvetica,sans-Serif" font-size="10.00">2</text>
</a>
</g>
</g>
<!-- dir_a4226c5615a06a31e6344f5f3fd917e1&#45;&gt;dir_1a5504e72c2ab618c124e6472b08d26c -->
<g id="edge2" class="edge">
<title>dir_a4226c5615a06a31e6344f5f3fd917e1&#45;&gt;dir_1a5504e72c2ab618c124e6472b08d26c</title>
<path fill="none" stroke="black" d="M96.01,-143.87C104.06,-119.56 118.87,-74.82 128.4,-46.01"/>
<polygon fill="black" stroke="black" points="131.83,-46.78 131.65,-36.19 125.19,-44.58 131.83,-46.78"/>
<g id="a_edge2&#45;headlabel"><a xlink:href="dir_000016_000130.html" target="_top" xlink:title="26">
<text text-anchor="middle" x="133.4" y="-48.59" font-family="Helvetica,sans-Serif" font-size="10.00">26</text>
</a>
</g>
</g>
<!-- dir_a4226c5615a06a31e6344f5f3fd917e1&#45;&gt;dir_e185953657720ba3a67126696ef566c7 -->
<g id="edge3" class="edge">
<title>dir_a4226c5615a06a31e6344f5f3fd917e1&#45;&gt;dir_e185953657720ba3a67126696ef566c7</title>
<path fill="none" stroke="black" d="M103.71,-143.7C112.54,-134.97 124.32,-124.24 135.45,-114.75"/>
<polygon fill="black" stroke="black" points="137.97,-117.21 143.39,-108.1 133.47,-111.84 137.97,-117.21"/>
<g id="a_edge3&#45;headlabel"><a xlink:href="dir_000016_000093.html" target="_top" xlink:title="8">
<text text-anchor="middle" x="137.03" y="-119.19" font-family="Helvetica,sans-Serif" font-size="10.00">8</text>
</a>
</g>
</g>
<!-- dir_c2cd4762e89f989d55fa2b0634ddfc81&#45;&gt;dir_a4226c5615a06a31e6344f5f3fd917e1 -->
<g id="edge4" class="edge">
<title>dir_c2cd4762e89f989d55fa2b0634ddfc81&#45;&gt;dir_a4226c5615a06a31e6344f5f3fd917e1</title>
<path fill="none" stroke="black" d="M67.52,-108.1C72.67,-116.04 78.11,-125.67 82.53,-134.51"/>
<polygon fill="black" stroke="black" points="79.43,-136.15 86.87,-143.7 85.77,-133.16 79.43,-136.15"/>
<g id="a_edge4&#45;headlabel"><a xlink:href="dir_000081_000016.html" target="_top" xlink:title="4">
<text text-anchor="middle" x="75.33" y="-131.61" font-family="Helvetica,sans-Serif" font-size="10.00">4</text>
</a>
</g>
</g>
<!-- dir_c2cd4762e89f989d55fa2b0634ddfc81&#45;&gt;dir_1a5504e72c2ab618c124e6472b08d26c -->
<g id="edge5" class="edge">
<title>dir_c2cd4762e89f989d55fa2b0634ddfc81&#45;&gt;dir_1a5504e72c2ab618c124e6472b08d26c</title>
<path fill="none" stroke="black" d="M73.35,-71.7C84.06,-62.88 97.23,-52.03 108.84,-42.47"/>
<polygon fill="black" stroke="black" points="111.08,-45.16 116.57,-36.1 106.63,-39.76 111.08,-45.16"/>
<g id="a_edge5&#45;headlabel"><a xlink:href="dir_000081_000130.html" target="_top" xlink:title="3">
<text text-anchor="middle" x="110.11" y="-47.14" font-family="Helvetica,sans-Serif" font-size="10.00">3</text>
</a>
</g>
</g>
<!-- dir_1666c5f4940eb69dc85cb0f1045c5123&#45;&gt;dir_a4226c5615a06a31e6344f5f3fd917e1 -->
<g id="edge6" class="edge">
<title>dir_1666c5f4940eb69dc85cb0f1045c5123&#45;&gt;dir_a4226c5615a06a31e6344f5f3fd917e1</title>
<path fill="none" stroke="black" d="M216.49,-215.88C189.06,-204.38 153.23,-189.36 126.76,-178.27"/>
<polygon fill="black" stroke="black" points="128.05,-175.01 117.47,-174.37 125.34,-181.47 128.05,-175.01"/>
<g id="a_edge6&#45;headlabel"><a xlink:href="dir_000008_000016.html" target="_top" xlink:title="6">
<text text-anchor="middle" x="132.46" y="-171.28" font-family="Helvetica,sans-Serif" font-size="10.00">6</text>
</a>
</g>
</g>
<!-- dir_1666c5f4940eb69dc85cb0f1045c5123&#45;&gt;dir_1a5504e72c2ab618c124e6472b08d26c -->
<g id="edge7" class="edge">
<title>dir_1666c5f4940eb69dc85cb0f1045c5123&#45;&gt;dir_1a5504e72c2ab618c124e6472b08d26c</title>
<path fill="none" stroke="black" d="M255.98,-215.93C252.76,-184.71 242.36,-117.48 210.34,-72 202,-60.15 190.15,-49.94 178.42,-41.74"/>
<polygon fill="black" stroke="black" points="180.22,-38.73 169.95,-36.12 176.35,-44.56 180.22,-38.73"/>
<g id="a_edge7&#45;headlabel"><a xlink:href="dir_000008_000130.html" target="_top" xlink:title="4">
<text text-anchor="middle" x="184.78" y="-35.85" font-family="Helvetica,sans-Serif" font-size="10.00">4</text>
</a>
</g>
</g>
<!-- dir_e185953657720ba3a67126696ef566c7&#45;&gt;dir_a4226c5615a06a31e6344f5f3fd917e1 -->
<g id="edge16" class="edge">
<title>dir_e185953657720ba3a67126696ef566c7&#45;&gt;dir_a4226c5615a06a31e6344f5f3fd917e1</title>
<path fill="none" stroke="black" d="M155.18,-108.1C146.4,-116.8 134.63,-127.52 123.49,-137.03"/>
<polygon fill="black" stroke="black" points="120.96,-134.59 115.54,-143.7 125.45,-139.96 120.96,-134.59"/>
<g id="a_edge16&#45;headlabel"><a xlink:href="dir_000093_000016.html" target="_top" xlink:title="21">
<text text-anchor="middle" x="121.89" y="-127.61" font-family="Helvetica,sans-Serif" font-size="10.00">21</text>
</a>
</g>
</g>
<!-- dir_e185953657720ba3a67126696ef566c7&#45;&gt;dir_1a5504e72c2ab618c124e6472b08d26c -->
<g id="edge17" class="edge">
<title>dir_e185953657720ba3a67126696ef566c7&#45;&gt;dir_1a5504e72c2ab618c124e6472b08d26c</title>
<path fill="none" stroke="black" d="M160.68,-71.7C157.15,-63.73 152.89,-54.1 148.97,-45.26"/>
<polygon fill="black" stroke="black" points="152.17,-43.83 144.92,-36.1 145.77,-46.67 152.17,-43.83"/>
<g id="a_edge17&#45;headlabel"><a xlink:href="dir_000093_000130.html" target="_top" xlink:title="13">
<text text-anchor="middle" x="156.22" y="-43.47" font-family="Helvetica,sans-Serif" font-size="10.00">13</text>
</a>
</g>
</g>
</g>
</svg>
