<?xml version="1.0" encoding="UTF-8" standalone="no"?>
<!DOCTYPE svg PUBLIC "-//W3C//DTD SVG 1.1//EN"
 "http://www.w3.org/Graphics/SVG/1.1/DTD/svg11.dtd">
<!-- Generated by graphviz version 2.43.0 (0)
 -->
<!-- Title: Components/Interfaces/PWMBase Pages: 1 -->
<svg width="320pt" height="180pt"
 viewBox="0.00 0.00 320.00 179.74" xmlns="http://www.w3.org/2000/svg" xmlns:xlink="http://www.w3.org/1999/xlink">
<g id="graph0" class="graph" transform="scale(1 1) rotate(0) translate(4 175.74)">
<title>Components/Interfaces/PWMBase</title>
<g id="clust1" class="cluster">
<title>clusterdir_e185953657720ba3a67126696ef566c7</title>
<g id="a_clust1"><a xlink:href="dir_e185953657720ba3a67126696ef566c7.html" target="_top" xlink:title="Interfaces">
<polygon fill="#ddddee" stroke="black" points="8,-56 8,-143 250,-143 250,-56 8,-56"/>
<text text-anchor="middle" x="129" y="-131" font-family="Helvetica,sans-Serif" font-size="10.00">Interfaces</text>
</a>
</g>
</g>
<g id="clust2" class="cluster">
<title>clusterdir_5a8ae08cfe847631433021fb4227a90d</title>
<g id="a_clust2"><a xlink:href="dir_5a8ae08cfe847631433021fb4227a90d.html" target="_top">
<polygon fill="#eeeeff" stroke="black" points="16,-64 16,-116 242,-116 242,-64 16,-64"/>
</a>
</g>
</g>
<!-- dir_5a8ae08cfe847631433021fb4227a90d -->
<g id="node1" class="node">
<title>dir_5a8ae08cfe847631433021fb4227a90d</title>
<text text-anchor="middle" x="201" y="-87.5" font-family="Helvetica,sans-Serif" font-size="10.00">PWMBase</text>
</g>
<!-- dir_4915925dca60d7811b787dc9ddbf7cea -->
<g id="node2" class="node">
<title>dir_4915925dca60d7811b787dc9ddbf7cea</title>
<g id="a_node2"><a xlink:href="dir_4915925dca60d7811b787dc9ddbf7cea.html" target="_top" xlink:title="include">
<polygon fill="white" stroke="black" points="150,-108 96,-108 96,-72 150,-72 150,-108"/>
<text text-anchor="middle" x="123" y="-87.5" font-family="Helvetica,sans-Serif" font-size="10.00">include</text>
</a>
</g>
</g>
<!-- dir_a4226c5615a06a31e6344f5f3fd917e1 -->
<g id="node4" class="node">
<title>dir_a4226c5615a06a31e6344f5f3fd917e1</title>
<g id="a_node4"><a xlink:href="dir_a4226c5615a06a31e6344f5f3fd917e1.html" target="_top" xlink:title="Objects">
<polygon fill="none" stroke="red" points="312,-108 258,-108 258,-72 312,-72 312,-108"/>
<text text-anchor="middle" x="285" y="-87.5" font-family="Helvetica,sans-Serif" font-size="10.00">Objects</text>
</a>
</g>
</g>
<!-- dir_4915925dca60d7811b787dc9ddbf7cea&#45;&gt;dir_a4226c5615a06a31e6344f5f3fd917e1 -->
<g id="edge3" class="edge">
<title>dir_4915925dca60d7811b787dc9ddbf7cea&#45;&gt;dir_a4226c5615a06a31e6344f5f3fd917e1</title>
<path fill="none" stroke="black" d="M128.97,-108.05C135.71,-125.16 148.48,-149.85 169,-161 195.55,-175.44 210.31,-175.17 237,-161 254.3,-151.81 266.51,-133.29 274.28,-117.47"/>
<polygon fill="black" stroke="black" points="277.59,-118.63 278.55,-108.08 271.22,-115.73 277.59,-118.63"/>
<g id="a_edge3&#45;headlabel"><a xlink:href="dir_000179_000016.html" target="_top" xlink:title="2">
<text text-anchor="middle" x="278.69" y="-120.58" font-family="Helvetica,sans-Serif" font-size="10.00">2</text>
</a>
</g>
</g>
<!-- dir_1a5504e72c2ab618c124e6472b08d26c -->
<g id="node5" class="node">
<title>dir_1a5504e72c2ab618c124e6472b08d26c</title>
<g id="a_node5"><a xlink:href="dir_1a5504e72c2ab618c124e6472b08d26c.html" target="_top" xlink:title="Global_Include">
<polygon fill="none" stroke="black" points="248.5,-36 159.5,-36 159.5,0 248.5,0 248.5,-36"/>
<text text-anchor="middle" x="204" y="-15.5" font-family="Helvetica,sans-Serif" font-size="10.00">Global_Include</text>
</a>
</g>
</g>
<!-- dir_4915925dca60d7811b787dc9ddbf7cea&#45;&gt;dir_1a5504e72c2ab618c124e6472b08d26c -->
<g id="edge4" class="edge">
<title>dir_4915925dca60d7811b787dc9ddbf7cea&#45;&gt;dir_1a5504e72c2ab618c124e6472b08d26c</title>
<path fill="none" stroke="black" d="M142.11,-71.77C147.83,-66.66 154.14,-61.07 160,-56 164.95,-51.71 170.26,-47.19 175.41,-42.84"/>
<polygon fill="black" stroke="black" points="177.9,-45.31 183.3,-36.19 173.4,-39.96 177.9,-45.31"/>
<g id="a_edge4&#45;headlabel"><a xlink:href="dir_000179_000144.html" target="_top" xlink:title="1">
<text text-anchor="middle" x="176.98" y="-47.3" font-family="Helvetica,sans-Serif" font-size="10.00">1</text>
</a>
</g>
</g>
<!-- dir_362bc9aabbe72db4687035ae6a712d14 -->
<g id="node3" class="node">
<title>dir_362bc9aabbe72db4687035ae6a712d14</title>
<g id="a_node3"><a xlink:href="dir_362bc9aabbe72db4687035ae6a712d14.html" target="_top" xlink:title="src">
<polygon fill="white" stroke="black" points="78,-108 24,-108 24,-72 78,-72 78,-108"/>
<text text-anchor="middle" x="51" y="-87.5" font-family="Helvetica,sans-Serif" font-size="10.00">src</text>
</a>
</g>
</g>
<!-- dir_a4226c5615a06a31e6344f5f3fd917e1&#45;&gt;dir_4915925dca60d7811b787dc9ddbf7cea -->
<g id="edge1" class="edge">
<title>dir_a4226c5615a06a31e6344f5f3fd917e1&#45;&gt;dir_4915925dca60d7811b787dc9ddbf7cea</title>
<path fill="none" stroke="black" d="M278.55,-108.08C271.35,-125.2 257.89,-149.9 237,-161 210.31,-175.17 195.55,-175.44 169,-161 152.01,-151.76 140.33,-133.25 132.99,-117.44"/>
<polygon fill="black" stroke="black" points="136.12,-115.87 128.97,-108.05 129.69,-118.62 136.12,-115.87"/>
<g id="a_edge1&#45;headlabel"><a xlink:href="dir_000016_000179.html" target="_top" xlink:title="1">
<text text-anchor="middle" x="140.15" y="-115.55" font-family="Helvetica,sans-Serif" font-size="10.00">1</text>
</a>
</g>
</g>
<!-- dir_a4226c5615a06a31e6344f5f3fd917e1&#45;&gt;dir_1a5504e72c2ab618c124e6472b08d26c -->
<g id="edge2" class="edge">
<title>dir_a4226c5615a06a31e6344f5f3fd917e1&#45;&gt;dir_1a5504e72c2ab618c124e6472b08d26c</title>
<path fill="none" stroke="black" d="M264.98,-71.7C254.87,-62.97 242.46,-52.24 231.48,-42.75"/>
<polygon fill="black" stroke="black" points="233.65,-39.99 223.79,-36.1 229.07,-45.29 233.65,-39.99"/>
<g id="a_edge2&#45;headlabel"><a xlink:href="dir_000016_000144.html" target="_top" xlink:title="26">
<text text-anchor="middle" x="238.22" y="-37.7" font-family="Helvetica,sans-Serif" font-size="10.00">26</text>
</a>
</g>
</g>
</g>
</svg>
