<?xml version="1.0" encoding="UTF-8" standalone="no"?>
<!DOCTYPE svg PUBLIC "-//W3C//DTD SVG 1.1//EN"
 "http://www.w3.org/Graphics/SVG/1.1/DTD/svg11.dtd">
<!-- Generated by graphviz version 2.43.0 (0)
 -->
<!-- Title: Components/AnalysisTools Pages: 1 -->
<svg width="291pt" height="231pt"
 viewBox="0.00 0.00 291.00 231.00" xmlns="http://www.w3.org/2000/svg" xmlns:xlink="http://www.w3.org/1999/xlink">
<g id="graph0" class="graph" transform="scale(1 1) rotate(0) translate(4 227)">
<title>Components/AnalysisTools</title>
<g id="clust1" class="cluster">
<title>clusterdir_08f45fe6822aeb4ce2bc268e3b1361be</title>
<g id="a_clust1"><a xlink:href="dir_08f45fe6822aeb4ce2bc268e3b1361be.html" target="_top" xlink:title="Components">
<polygon fill="#ddddee" stroke="black" points="8,-128 8,-215 275,-215 275,-128 8,-128"/>
<text text-anchor="middle" x="141.5" y="-203" font-family="Helvetica,sans-Serif" font-size="10.00">Components</text>
</a>
</g>
</g>
<g id="clust2" class="cluster">
<title>clusterdir_1666c5f4940eb69dc85cb0f1045c5123</title>
<g id="a_clust2"><a xlink:href="dir_1666c5f4940eb69dc85cb0f1045c5123.html" target="_top">
<polygon fill="#eeeeff" stroke="black" points="16,-136 16,-188 267,-188 267,-136 16,-136"/>
</a>
</g>
</g>
<!-- dir_1666c5f4940eb69dc85cb0f1045c5123 -->
<g id="node1" class="node">
<title>dir_1666c5f4940eb69dc85cb0f1045c5123</title>
<text text-anchor="middle" x="217" y="-159.5" font-family="Helvetica,sans-Serif" font-size="10.00">AnalysisTools</text>
</g>
<!-- dir_2d8814bd1ca889f741f4adca837c4f7f -->
<g id="node2" class="node">
<title>dir_2d8814bd1ca889f741f4adca837c4f7f</title>
<g id="a_node2"><a xlink:href="dir_2d8814bd1ca889f741f4adca837c4f7f.html" target="_top" xlink:title="ImageAnalysis_OpenCV">
<polygon fill="white" stroke="red" points="157.5,-180 24.5,-180 24.5,-144 157.5,-144 157.5,-180"/>
<text text-anchor="middle" x="91" y="-159.5" font-family="Helvetica,sans-Serif" font-size="10.00">ImageAnalysis_OpenCV</text>
</a>
</g>
</g>
<!-- dir_a4226c5615a06a31e6344f5f3fd917e1 -->
<g id="node3" class="node">
<title>dir_a4226c5615a06a31e6344f5f3fd917e1</title>
<g id="a_node3"><a xlink:href="dir_a4226c5615a06a31e6344f5f3fd917e1.html" target="_top" xlink:title="Objects">
<polygon fill="none" stroke="red" points="90,-108 36,-108 36,-72 90,-72 90,-108"/>
<text text-anchor="middle" x="63" y="-87.5" font-family="Helvetica,sans-Serif" font-size="10.00">Objects</text>
</a>
</g>
</g>
<!-- dir_2d8814bd1ca889f741f4adca837c4f7f&#45;&gt;dir_a4226c5615a06a31e6344f5f3fd917e1 -->
<g id="edge2" class="edge">
<title>dir_2d8814bd1ca889f741f4adca837c4f7f&#45;&gt;dir_a4226c5615a06a31e6344f5f3fd917e1</title>
<path fill="none" stroke="black" d="M84.08,-143.7C80.93,-135.81 77.12,-126.3 73.62,-117.55"/>
<polygon fill="black" stroke="black" points="76.81,-116.09 69.84,-108.1 70.31,-118.69 76.81,-116.09"/>
<g id="a_edge2&#45;headlabel"><a xlink:href="dir_000008_000015.html" target="_top" xlink:title="4">
<text text-anchor="middle" x="80.78" y="-115.87" font-family="Helvetica,sans-Serif" font-size="10.00">4</text>
</a>
</g>
</g>
<!-- dir_1a5504e72c2ab618c124e6472b08d26c -->
<g id="node4" class="node">
<title>dir_1a5504e72c2ab618c124e6472b08d26c</title>
<g id="a_node4"><a xlink:href="dir_1a5504e72c2ab618c124e6472b08d26c.html" target="_top" xlink:title="Global_Include">
<polygon fill="none" stroke="black" points="134.5,-36 45.5,-36 45.5,0 134.5,0 134.5,-36"/>
<text text-anchor="middle" x="90" y="-15.5" font-family="Helvetica,sans-Serif" font-size="10.00">Global_Include</text>
</a>
</g>
</g>
<!-- dir_2d8814bd1ca889f741f4adca837c4f7f&#45;&gt;dir_1a5504e72c2ab618c124e6472b08d26c -->
<g id="edge3" class="edge">
<title>dir_2d8814bd1ca889f741f4adca837c4f7f&#45;&gt;dir_1a5504e72c2ab618c124e6472b08d26c</title>
<path fill="none" stroke="black" d="M94.25,-143.89C96.05,-133.54 98.09,-120.06 99,-108 100.2,-92.04 100.34,-87.94 99,-72 98.28,-63.5 96.93,-54.31 95.49,-46.01"/>
<polygon fill="black" stroke="black" points="98.91,-45.29 93.65,-36.09 92.03,-46.56 98.91,-45.29"/>
<g id="a_edge3&#45;headlabel"><a xlink:href="dir_000008_000110.html" target="_top" xlink:title="3">
<text text-anchor="middle" x="102.36" y="-45.81" font-family="Helvetica,sans-Serif" font-size="10.00">3</text>
</a>
</g>
</g>
<!-- dir_a4226c5615a06a31e6344f5f3fd917e1&#45;&gt;dir_1a5504e72c2ab618c124e6472b08d26c -->
<g id="edge1" class="edge">
<title>dir_a4226c5615a06a31e6344f5f3fd917e1&#45;&gt;dir_1a5504e72c2ab618c124e6472b08d26c</title>
<path fill="none" stroke="black" d="M69.67,-71.7C72.71,-63.81 76.38,-54.3 79.76,-45.55"/>
<polygon fill="black" stroke="black" points="83.07,-46.69 83.4,-36.1 76.54,-44.17 83.07,-46.69"/>
<g id="a_edge1&#45;headlabel"><a xlink:href="dir_000015_000110.html" target="_top" xlink:title="22">
<text text-anchor="middle" x="84.42" y="-48.57" font-family="Helvetica,sans-Serif" font-size="10.00">22</text>
</a>
</g>
</g>
</g>
</svg>
