<?xml version="1.0" encoding="UTF-8" standalone="no"?>
<!DOCTYPE svg PUBLIC "-//W3C//DTD SVG 1.1//EN"
 "http://www.w3.org/Graphics/SVG/1.1/DTD/svg11.dtd">
<!-- Generated by graphviz version 2.43.0 (0)
 -->
<!-- Title: Components/Sensor/AM2320/include Pages: 1 -->
<svg width="193pt" height="367pt"
 viewBox="0.00 0.00 193.00 367.00" xmlns="http://www.w3.org/2000/svg" xmlns:xlink="http://www.w3.org/1999/xlink">
<g id="graph0" class="graph" transform="scale(1 1) rotate(0) translate(4 363)">
<title>Components/Sensor/AM2320/include</title>
<g id="clust1" class="cluster">
<title>clusterdir_07f86e67196d64e0c64b7fe7210f010c</title>
<g id="a_clust1"><a xlink:href="dir_07f86e67196d64e0c64b7fe7210f010c.html" target="_top" xlink:title="AM2320">
<polygon fill="#ddddee" stroke="black" points="8,-280 8,-351 78,-351 78,-280 8,-280"/>
<text text-anchor="middle" x="43" y="-339" font-family="Helvetica,sans-Serif" font-size="10.00">AM2320</text>
</a>
</g>
</g>
<!-- dir_5eacb89be733d35ab41f20181100098a -->
<g id="node1" class="node">
<title>dir_5eacb89be733d35ab41f20181100098a</title>
<g id="a_node1"><a xlink:href="dir_5eacb89be733d35ab41f20181100098a.html" target="_top" xlink:title="include">
<polygon fill="#eeeeff" stroke="black" points="70,-324 16,-324 16,-288 70,-288 70,-324"/>
<text text-anchor="middle" x="43" y="-303.5" font-family="Helvetica,sans-Serif" font-size="10.00">include</text>
</a>
</g>
</g>
<!-- dir_a4226c5615a06a31e6344f5f3fd917e1 -->
<g id="node2" class="node">
<title>dir_a4226c5615a06a31e6344f5f3fd917e1</title>
<g id="a_node2"><a xlink:href="dir_a4226c5615a06a31e6344f5f3fd917e1.html" target="_top" xlink:title="Objects">
<polygon fill="none" stroke="red" points="113,-252 59,-252 59,-216 113,-216 113,-252"/>
<text text-anchor="middle" x="86" y="-231.5" font-family="Helvetica,sans-Serif" font-size="10.00">Objects</text>
</a>
</g>
</g>
<!-- dir_5eacb89be733d35ab41f20181100098a&#45;&gt;dir_a4226c5615a06a31e6344f5f3fd917e1 -->
<g id="edge9" class="edge">
<title>dir_5eacb89be733d35ab41f20181100098a&#45;&gt;dir_a4226c5615a06a31e6344f5f3fd917e1</title>
<path fill="none" stroke="black" d="M53.63,-287.7C58.63,-279.56 64.69,-269.69 70.21,-260.7"/>
<polygon fill="black" stroke="black" points="73.24,-262.46 75.49,-252.1 67.28,-258.79 73.24,-262.46"/>
<g id="a_edge9&#45;headlabel"><a xlink:href="dir_000159_000016.html" target="_top" xlink:title="4">
<text text-anchor="middle" x="73.78" y="-264.51" font-family="Helvetica,sans-Serif" font-size="10.00">4</text>
</a>
</g>
</g>
<!-- dir_c2cd4762e89f989d55fa2b0634ddfc81 -->
<g id="node3" class="node">
<title>dir_c2cd4762e89f989d55fa2b0634ddfc81</title>
<g id="a_node3"><a xlink:href="dir_c2cd4762e89f989d55fa2b0634ddfc81.html" target="_top" xlink:title="Utility">
<polygon fill="none" stroke="red" points="121,-108 67,-108 67,-72 121,-72 121,-108"/>
<text text-anchor="middle" x="94" y="-87.5" font-family="Helvetica,sans-Serif" font-size="10.00">Utility</text>
</a>
</g>
</g>
<!-- dir_5eacb89be733d35ab41f20181100098a&#45;&gt;dir_c2cd4762e89f989d55fa2b0634ddfc81 -->
<g id="edge10" class="edge">
<title>dir_5eacb89be733d35ab41f20181100098a&#45;&gt;dir_c2cd4762e89f989d55fa2b0634ddfc81</title>
<path fill="none" stroke="black" d="M43.04,-287.75C43.38,-269.68 44.8,-240.56 50,-216 57.37,-181.18 71.89,-142.8 82.24,-117.88"/>
<polygon fill="black" stroke="black" points="85.58,-118.96 86.25,-108.39 79.14,-116.24 85.58,-118.96"/>
<g id="a_edge10&#45;headlabel"><a xlink:href="dir_000159_000081.html" target="_top" xlink:title="1">
<text text-anchor="middle" x="86.8" y="-120.88" font-family="Helvetica,sans-Serif" font-size="10.00">1</text>
</a>
</g>
</g>
<!-- dir_1a5504e72c2ab618c124e6472b08d26c -->
<g id="node4" class="node">
<title>dir_1a5504e72c2ab618c124e6472b08d26c</title>
<g id="a_node4"><a xlink:href="dir_1a5504e72c2ab618c124e6472b08d26c.html" target="_top" xlink:title="Global_Include">
<polygon fill="none" stroke="black" points="110.5,-36 21.5,-36 21.5,0 110.5,0 110.5,-36"/>
<text text-anchor="middle" x="66" y="-15.5" font-family="Helvetica,sans-Serif" font-size="10.00">Global_Include</text>
</a>
</g>
</g>
<!-- dir_5eacb89be733d35ab41f20181100098a&#45;&gt;dir_1a5504e72c2ab618c124e6472b08d26c -->
<g id="edge11" class="edge">
<title>dir_5eacb89be733d35ab41f20181100098a&#45;&gt;dir_1a5504e72c2ab618c124e6472b08d26c</title>
<path fill="none" stroke="black" d="M42.59,-287.82C42.37,-277.44 42.11,-263.96 42,-252 41.24,-171.85 40.36,-151.15 53,-72 54.37,-63.45 56.41,-54.25 58.48,-45.95"/>
<polygon fill="black" stroke="black" points="61.93,-46.6 61.06,-36.04 55.16,-44.83 61.93,-46.6"/>
<g id="a_edge11&#45;headlabel"><a xlink:href="dir_000159_000138.html" target="_top" xlink:title="3">
<text text-anchor="middle" x="63.77" y="-48.29" font-family="Helvetica,sans-Serif" font-size="10.00">3</text>
</a>
</g>
</g>
<!-- dir_4d0b0adf7e9fb892c3df556e9cbb05d0 -->
<g id="node5" class="node">
<title>dir_4d0b0adf7e9fb892c3df556e9cbb05d0</title>
<g id="a_node5"><a xlink:href="dir_4d0b0adf7e9fb892c3df556e9cbb05d0.html" target="_top" xlink:title="Protocols">
<polygon fill="none" stroke="red" points="185,-180 123,-180 123,-144 185,-144 185,-180"/>
<text text-anchor="middle" x="154" y="-159.5" font-family="Helvetica,sans-Serif" font-size="10.00">Protocols</text>
</a>
</g>
</g>
<!-- dir_5eacb89be733d35ab41f20181100098a&#45;&gt;dir_4d0b0adf7e9fb892c3df556e9cbb05d0 -->
<g id="edge12" class="edge">
<title>dir_5eacb89be733d35ab41f20181100098a&#45;&gt;dir_4d0b0adf7e9fb892c3df556e9cbb05d0</title>
<path fill="none" stroke="black" d="M70.07,-292.45C87.07,-283.36 108.29,-269.58 122,-252 136.15,-233.87 144.39,-208.93 148.96,-190.07"/>
<polygon fill="black" stroke="black" points="152.38,-190.82 151.13,-180.3 145.55,-189.3 152.38,-190.82"/>
<g id="a_edge12&#45;headlabel"><a xlink:href="dir_000159_000059.html" target="_top" xlink:title="2">
<text text-anchor="middle" x="154.37" y="-192.44" font-family="Helvetica,sans-Serif" font-size="10.00">2</text>
</a>
</g>
</g>
<!-- dir_a4226c5615a06a31e6344f5f3fd917e1&#45;&gt;dir_c2cd4762e89f989d55fa2b0634ddfc81 -->
<g id="edge1" class="edge">
<title>dir_a4226c5615a06a31e6344f5f3fd917e1&#45;&gt;dir_c2cd4762e89f989d55fa2b0634ddfc81</title>
<path fill="none" stroke="black" d="M82.38,-215.87C81.19,-191.67 83.4,-147.21 87,-118.39"/>
<polygon fill="black" stroke="black" points="90.51,-118.58 88.44,-108.19 83.57,-117.6 90.51,-118.58"/>
<g id="a_edge1&#45;headlabel"><a xlink:href="dir_000016_000081.html" target="_top" xlink:title="2">
<text text-anchor="middle" x="92.81" y="-120.04" font-family="Helvetica,sans-Serif" font-size="10.00">2</text>
</a>
</g>
</g>
<!-- dir_a4226c5615a06a31e6344f5f3fd917e1&#45;&gt;dir_1a5504e72c2ab618c124e6472b08d26c -->
<g id="edge2" class="edge">
<title>dir_a4226c5615a06a31e6344f5f3fd917e1&#45;&gt;dir_1a5504e72c2ab618c124e6472b08d26c</title>
<path fill="none" stroke="black" d="M80.88,-215.81C74.06,-191.9 62.33,-147.12 58,-108 56.24,-92.1 56.8,-87.96 58,-72 58.64,-63.52 59.84,-54.34 61.12,-46.04"/>
<polygon fill="black" stroke="black" points="64.58,-46.55 62.75,-36.11 57.68,-45.41 64.58,-46.55"/>
<g id="a_edge2&#45;headlabel"><a xlink:href="dir_000016_000138.html" target="_top" xlink:title="26">
<text text-anchor="middle" x="66.8" y="-48.05" font-family="Helvetica,sans-Serif" font-size="10.00">26</text>
</a>
</g>
</g>
<!-- dir_a4226c5615a06a31e6344f5f3fd917e1&#45;&gt;dir_4d0b0adf7e9fb892c3df556e9cbb05d0 -->
<g id="edge3" class="edge">
<title>dir_a4226c5615a06a31e6344f5f3fd917e1&#45;&gt;dir_4d0b0adf7e9fb892c3df556e9cbb05d0</title>
<path fill="none" stroke="black" d="M96.89,-215.7C104.4,-207.05 114.52,-196.45 124.21,-187.03"/>
<polygon fill="black" stroke="black" points="126.66,-189.53 131.49,-180.1 121.83,-184.46 126.66,-189.53"/>
<g id="a_edge3&#45;headlabel"><a xlink:href="dir_000016_000059.html" target="_top" xlink:title="3">
<text text-anchor="middle" x="126.01" y="-191.57" font-family="Helvetica,sans-Serif" font-size="10.00">3</text>
</a>
</g>
</g>
<!-- dir_c2cd4762e89f989d55fa2b0634ddfc81&#45;&gt;dir_a4226c5615a06a31e6344f5f3fd917e1 -->
<g id="edge4" class="edge">
<title>dir_c2cd4762e89f989d55fa2b0634ddfc81&#45;&gt;dir_a4226c5615a06a31e6344f5f3fd917e1</title>
<path fill="none" stroke="black" d="M97.62,-108.19C98.81,-132.42 96.59,-176.89 92.99,-205.68"/>
<polygon fill="black" stroke="black" points="89.49,-205.48 91.55,-215.87 96.42,-206.46 89.49,-205.48"/>
<g id="a_edge4&#45;headlabel"><a xlink:href="dir_000081_000016.html" target="_top" xlink:title="4">
<text text-anchor="middle" x="87.18" y="-199.02" font-family="Helvetica,sans-Serif" font-size="10.00">4</text>
</a>
</g>
</g>
<!-- dir_c2cd4762e89f989d55fa2b0634ddfc81&#45;&gt;dir_1a5504e72c2ab618c124e6472b08d26c -->
<g id="edge5" class="edge">
<title>dir_c2cd4762e89f989d55fa2b0634ddfc81&#45;&gt;dir_1a5504e72c2ab618c124e6472b08d26c</title>
<path fill="none" stroke="black" d="M87.08,-71.7C83.93,-63.81 80.12,-54.3 76.62,-45.55"/>
<polygon fill="black" stroke="black" points="79.81,-44.09 72.84,-36.1 73.31,-46.69 79.81,-44.09"/>
<g id="a_edge5&#45;headlabel"><a xlink:href="dir_000081_000138.html" target="_top" xlink:title="3">
<text text-anchor="middle" x="83.78" y="-43.87" font-family="Helvetica,sans-Serif" font-size="10.00">3</text>
</a>
</g>
</g>
<!-- dir_4d0b0adf7e9fb892c3df556e9cbb05d0&#45;&gt;dir_a4226c5615a06a31e6344f5f3fd917e1 -->
<g id="edge6" class="edge">
<title>dir_4d0b0adf7e9fb892c3df556e9cbb05d0&#45;&gt;dir_a4226c5615a06a31e6344f5f3fd917e1</title>
<path fill="none" stroke="black" d="M143.28,-180.1C135.81,-188.72 125.71,-199.32 116.01,-208.76"/>
<polygon fill="black" stroke="black" points="113.55,-206.26 108.72,-215.7 118.38,-211.33 113.55,-206.26"/>
<g id="a_edge6&#45;headlabel"><a xlink:href="dir_000059_000016.html" target="_top" xlink:title="14">
<text text-anchor="middle" x="114.19" y="-199.23" font-family="Helvetica,sans-Serif" font-size="10.00">14</text>
</a>
</g>
</g>
<!-- dir_4d0b0adf7e9fb892c3df556e9cbb05d0&#45;&gt;dir_c2cd4762e89f989d55fa2b0634ddfc81 -->
<g id="edge7" class="edge">
<title>dir_4d0b0adf7e9fb892c3df556e9cbb05d0&#45;&gt;dir_c2cd4762e89f989d55fa2b0634ddfc81</title>
<path fill="none" stroke="black" d="M139.17,-143.7C131.98,-135.3 123.2,-125.07 115.31,-115.86"/>
<polygon fill="black" stroke="black" points="117.83,-113.42 108.66,-108.1 112.51,-117.97 117.83,-113.42"/>
<g id="a_edge7&#45;headlabel"><a xlink:href="dir_000059_000081.html" target="_top" xlink:title="1">
<text text-anchor="middle" x="122.32" y="-111.8" font-family="Helvetica,sans-Serif" font-size="10.00">1</text>
</a>
</g>
</g>
<!-- dir_4d0b0adf7e9fb892c3df556e9cbb05d0&#45;&gt;dir_1a5504e72c2ab618c124e6472b08d26c -->
<g id="edge8" class="edge">
<title>dir_4d0b0adf7e9fb892c3df556e9cbb05d0&#45;&gt;dir_1a5504e72c2ab618c124e6472b08d26c</title>
<path fill="none" stroke="black" d="M152.47,-143.68C150.12,-124.76 144.28,-94.21 130,-72 122.74,-60.7 112.29,-50.61 101.94,-42.34"/>
<polygon fill="black" stroke="black" points="103.8,-39.36 93.72,-36.12 99.58,-44.94 103.8,-39.36"/>
<g id="a_edge8&#45;headlabel"><a xlink:href="dir_000059_000138.html" target="_top" xlink:title="11">
<text text-anchor="middle" x="108.38" y="-36.77" font-family="Helvetica,sans-Serif" font-size="10.00">11</text>
</a>
</g>
</g>
</g>
</svg>
