<?xml version="1.0" encoding="UTF-8" standalone="no"?>
<!DOCTYPE svg PUBLIC "-//W3C//DTD SVG 1.1//EN"
 "http://www.w3.org/Graphics/SVG/1.1/DTD/svg11.dtd">
<!-- Generated by graphviz version 2.43.0 (0)
 -->
<!-- Title: Components/Connector Pages: 1 -->
<svg width="268pt" height="303pt"
 viewBox="0.00 0.00 268.00 303.00" xmlns="http://www.w3.org/2000/svg" xmlns:xlink="http://www.w3.org/1999/xlink">
<g id="graph0" class="graph" transform="scale(1 1) rotate(0) translate(4 299)">
<title>Components/Connector</title>
<g id="clust1" class="cluster">
<title>clusterdir_08f45fe6822aeb4ce2bc268e3b1361be</title>
<g id="a_clust1"><a xlink:href="dir_08f45fe6822aeb4ce2bc268e3b1361be.html" target="_top" xlink:title="Components">
<polygon fill="#ddddee" stroke="black" points="8,-200 8,-287 252,-287 252,-200 8,-200"/>
<text text-anchor="middle" x="130" y="-275" font-family="Helvetica,sans-Serif" font-size="10.00">Components</text>
</a>
</g>
</g>
<g id="clust2" class="cluster">
<title>clusterdir_4ca6fec43e1013816363be86d31756d6</title>
<g id="a_clust2"><a xlink:href="dir_4ca6fec43e1013816363be86d31756d6.html" target="_top">
<polygon fill="#eeeeff" stroke="black" points="16,-208 16,-260 244,-260 244,-208 16,-208"/>
</a>
</g>
</g>
<!-- dir_4ca6fec43e1013816363be86d31756d6 -->
<g id="node1" class="node">
<title>dir_4ca6fec43e1013816363be86d31756d6</title>
<text text-anchor="middle" x="203" y="-231.5" font-family="Helvetica,sans-Serif" font-size="10.00">Connector</text>
</g>
<!-- dir_a4e99850cc83512795d8c60cc37f8f17 -->
<g id="node2" class="node">
<title>dir_a4e99850cc83512795d8c60cc37f8f17</title>
<g id="a_node2"><a xlink:href="dir_a4e99850cc83512795d8c60cc37f8f17.html" target="_top" xlink:title="WiFi">
<polygon fill="white" stroke="red" points="78,-252 24,-252 24,-216 78,-216 78,-252"/>
<text text-anchor="middle" x="51" y="-231.5" font-family="Helvetica,sans-Serif" font-size="10.00">WiFi</text>
</a>
</g>
</g>
<!-- dir_a4226c5615a06a31e6344f5f3fd917e1 -->
<g id="node4" class="node">
<title>dir_a4226c5615a06a31e6344f5f3fd917e1</title>
<g id="a_node4"><a xlink:href="dir_a4226c5615a06a31e6344f5f3fd917e1.html" target="_top" xlink:title="Objects">
<polygon fill="none" stroke="red" points="86,-180 32,-180 32,-144 86,-144 86,-180"/>
<text text-anchor="middle" x="59" y="-159.5" font-family="Helvetica,sans-Serif" font-size="10.00">Objects</text>
</a>
</g>
</g>
<!-- dir_a4e99850cc83512795d8c60cc37f8f17&#45;&gt;dir_a4226c5615a06a31e6344f5f3fd917e1 -->
<g id="edge7" class="edge">
<title>dir_a4e99850cc83512795d8c60cc37f8f17&#45;&gt;dir_a4226c5615a06a31e6344f5f3fd917e1</title>
<path fill="none" stroke="black" d="M47.06,-215.7C47.15,-207.98 47.98,-198.71 49.31,-190.11"/>
<polygon fill="black" stroke="black" points="52.78,-190.57 51.15,-180.1 45.9,-189.3 52.78,-190.57"/>
<g id="a_edge7&#45;headlabel"><a xlink:href="dir_000017_000020.html" target="_top" xlink:title="5">
<text text-anchor="middle" x="54.92" y="-192.12" font-family="Helvetica,sans-Serif" font-size="10.00">5</text>
</a>
</g>
</g>
<!-- dir_1a5504e72c2ab618c124e6472b08d26c -->
<g id="node5" class="node">
<title>dir_1a5504e72c2ab618c124e6472b08d26c</title>
<g id="a_node5"><a xlink:href="dir_1a5504e72c2ab618c124e6472b08d26c.html" target="_top" xlink:title="Global_Include">
<polygon fill="none" stroke="black" points="110.5,-36 21.5,-36 21.5,0 110.5,0 110.5,-36"/>
<text text-anchor="middle" x="66" y="-15.5" font-family="Helvetica,sans-Serif" font-size="10.00">Global_Include</text>
</a>
</g>
</g>
<!-- dir_a4e99850cc83512795d8c60cc37f8f17&#45;&gt;dir_1a5504e72c2ab618c124e6472b08d26c -->
<g id="edge8" class="edge">
<title>dir_a4e99850cc83512795d8c60cc37f8f17&#45;&gt;dir_1a5504e72c2ab618c124e6472b08d26c</title>
<path fill="none" stroke="black" d="M39.11,-215.72C32.99,-205.76 26.16,-192.73 23,-180 11.2,-132.41 33.87,-77.27 50.54,-45.44"/>
<polygon fill="black" stroke="black" points="53.78,-46.8 55.48,-36.34 47.63,-43.46 53.78,-46.8"/>
<g id="a_edge8&#45;headlabel"><a xlink:href="dir_000017_000135.html" target="_top" xlink:title="4">
<text text-anchor="middle" x="54.56" y="-48.81" font-family="Helvetica,sans-Serif" font-size="10.00">4</text>
</a>
</g>
</g>
<!-- dir_d8931e394849407fdba86e399fb7c8e5 -->
<g id="node3" class="node">
<title>dir_d8931e394849407fdba86e399fb7c8e5</title>
<g id="a_node3"><a xlink:href="dir_d8931e394849407fdba86e399fb7c8e5.html" target="_top" xlink:title="WiFi_v2">
<polygon fill="white" stroke="red" points="151.5,-252 96.5,-252 96.5,-216 151.5,-216 151.5,-252"/>
<text text-anchor="middle" x="124" y="-231.5" font-family="Helvetica,sans-Serif" font-size="10.00">WiFi_v2</text>
</a>
</g>
</g>
<!-- dir_d8931e394849407fdba86e399fb7c8e5&#45;&gt;dir_a4226c5615a06a31e6344f5f3fd917e1 -->
<g id="edge4" class="edge">
<title>dir_d8931e394849407fdba86e399fb7c8e5&#45;&gt;dir_a4226c5615a06a31e6344f5f3fd917e1</title>
<path fill="none" stroke="black" d="M107.93,-215.7C100.06,-207.22 90.44,-196.86 81.83,-187.58"/>
<polygon fill="black" stroke="black" points="84.25,-185.05 74.88,-180.1 79.12,-189.81 84.25,-185.05"/>
<g id="a_edge4&#45;headlabel"><a xlink:href="dir_000091_000020.html" target="_top" xlink:title="3">
<text text-anchor="middle" x="88.78" y="-183.25" font-family="Helvetica,sans-Serif" font-size="10.00">3</text>
</a>
</g>
</g>
<!-- dir_d8931e394849407fdba86e399fb7c8e5&#45;&gt;dir_1a5504e72c2ab618c124e6472b08d26c -->
<g id="edge5" class="edge">
<title>dir_d8931e394849407fdba86e399fb7c8e5&#45;&gt;dir_1a5504e72c2ab618c124e6472b08d26c</title>
<path fill="none" stroke="black" d="M131.11,-215.9C142.69,-185.22 162.05,-119.57 138,-72 131.86,-59.86 121.48,-49.82 110.49,-41.86"/>
<polygon fill="black" stroke="black" points="112.28,-38.85 102.03,-36.19 108.38,-44.66 112.28,-38.85"/>
<g id="a_edge5&#45;headlabel"><a xlink:href="dir_000091_000135.html" target="_top" xlink:title="2">
<text text-anchor="middle" x="116.85" y="-35.99" font-family="Helvetica,sans-Serif" font-size="10.00">2</text>
</a>
</g>
</g>
<!-- dir_e185953657720ba3a67126696ef566c7 -->
<g id="node6" class="node">
<title>dir_e185953657720ba3a67126696ef566c7</title>
<g id="a_node6"><a xlink:href="dir_e185953657720ba3a67126696ef566c7.html" target="_top" xlink:title="Interfaces">
<polygon fill="none" stroke="red" points="129.5,-108 64.5,-108 64.5,-72 129.5,-72 129.5,-108"/>
<text text-anchor="middle" x="97" y="-87.5" font-family="Helvetica,sans-Serif" font-size="10.00">Interfaces</text>
</a>
</g>
</g>
<!-- dir_d8931e394849407fdba86e399fb7c8e5&#45;&gt;dir_e185953657720ba3a67126696ef566c7 -->
<g id="edge6" class="edge">
<title>dir_d8931e394849407fdba86e399fb7c8e5&#45;&gt;dir_e185953657720ba3a67126696ef566c7</title>
<path fill="none" stroke="black" d="M120.74,-215.87C116.14,-191.67 107.69,-147.21 102.21,-118.39"/>
<polygon fill="black" stroke="black" points="105.57,-117.36 100.27,-108.19 98.7,-118.67 105.57,-117.36"/>
<g id="a_edge6&#45;headlabel"><a xlink:href="dir_000091_000096.html" target="_top" xlink:title="1">
<text text-anchor="middle" x="109.04" y="-117.86" font-family="Helvetica,sans-Serif" font-size="10.00">1</text>
</a>
</g>
</g>
<!-- dir_a4226c5615a06a31e6344f5f3fd917e1&#45;&gt;dir_a4e99850cc83512795d8c60cc37f8f17 -->
<g id="edge2" class="edge">
<title>dir_a4226c5615a06a31e6344f5f3fd917e1&#45;&gt;dir_a4e99850cc83512795d8c60cc37f8f17</title>
<path fill="none" stroke="black" d="M62.94,-180.1C62.87,-187.79 62.05,-197.05 60.73,-205.67"/>
<polygon fill="black" stroke="black" points="57.25,-205.23 58.89,-215.7 64.14,-206.49 57.25,-205.23"/>
<g id="a_edge2&#45;headlabel"><a xlink:href="dir_000020_000017.html" target="_top" xlink:title="1">
<text text-anchor="middle" x="55.1" y="-198.68" font-family="Helvetica,sans-Serif" font-size="10.00">1</text>
</a>
</g>
</g>
<!-- dir_a4226c5615a06a31e6344f5f3fd917e1&#45;&gt;dir_1a5504e72c2ab618c124e6472b08d26c -->
<g id="edge1" class="edge">
<title>dir_a4226c5615a06a31e6344f5f3fd917e1&#45;&gt;dir_1a5504e72c2ab618c124e6472b08d26c</title>
<path fill="none" stroke="black" d="M56.74,-143.9C54.72,-125.94 52.44,-96.93 55,-72 55.88,-63.46 57.53,-54.26 59.29,-45.96"/>
<polygon fill="black" stroke="black" points="62.74,-46.57 61.54,-36.05 55.92,-45.03 62.74,-46.57"/>
<g id="a_edge1&#45;headlabel"><a xlink:href="dir_000020_000135.html" target="_top" xlink:title="26">
<text text-anchor="middle" x="64.72" y="-48.21" font-family="Helvetica,sans-Serif" font-size="10.00">26</text>
</a>
</g>
</g>
<!-- dir_a4226c5615a06a31e6344f5f3fd917e1&#45;&gt;dir_e185953657720ba3a67126696ef566c7 -->
<g id="edge3" class="edge">
<title>dir_a4226c5615a06a31e6344f5f3fd917e1&#45;&gt;dir_e185953657720ba3a67126696ef566c7</title>
<path fill="none" stroke="black" d="M62.48,-143.7C66.06,-135.56 71.21,-125.69 76.51,-116.7"/>
<polygon fill="black" stroke="black" points="79.55,-118.45 81.82,-108.1 73.59,-114.78 79.55,-118.45"/>
<g id="a_edge3&#45;headlabel"><a xlink:href="dir_000020_000096.html" target="_top" xlink:title="8">
<text text-anchor="middle" x="80.07" y="-120.5" font-family="Helvetica,sans-Serif" font-size="10.00">8</text>
</a>
</g>
</g>
<!-- dir_e185953657720ba3a67126696ef566c7&#45;&gt;dir_a4226c5615a06a31e6344f5f3fd917e1 -->
<g id="edge9" class="edge">
<title>dir_e185953657720ba3a67126696ef566c7&#45;&gt;dir_a4226c5615a06a31e6344f5f3fd917e1</title>
<path fill="none" stroke="black" d="M93.61,-108.1C90.06,-116.21 84.92,-126.08 79.62,-135.08"/>
<polygon fill="black" stroke="black" points="76.57,-133.35 74.31,-143.7 82.53,-137.02 76.57,-133.35"/>
<g id="a_edge9&#45;headlabel"><a xlink:href="dir_000096_000020.html" target="_top" xlink:title="21">
<text text-anchor="middle" x="76.04" y="-126.3" font-family="Helvetica,sans-Serif" font-size="10.00">21</text>
</a>
</g>
</g>
<!-- dir_e185953657720ba3a67126696ef566c7&#45;&gt;dir_1a5504e72c2ab618c124e6472b08d26c -->
<g id="edge10" class="edge">
<title>dir_e185953657720ba3a67126696ef566c7&#45;&gt;dir_1a5504e72c2ab618c124e6472b08d26c</title>
<path fill="none" stroke="black" d="M89.34,-71.7C85.81,-63.73 81.54,-54.1 77.63,-45.26"/>
<polygon fill="black" stroke="black" points="80.82,-43.83 73.57,-36.1 74.42,-46.67 80.82,-43.83"/>
<g id="a_edge10&#45;headlabel"><a xlink:href="dir_000096_000135.html" target="_top" xlink:title="13">
<text text-anchor="middle" x="84.88" y="-43.47" font-family="Helvetica,sans-Serif" font-size="10.00">13</text>
</a>
</g>
</g>
</g>
</svg>
