<?xml version="1.0" encoding="UTF-8" standalone="no"?>
<!DOCTYPE svg PUBLIC "-//W3C//DTD SVG 1.1//EN"
 "http://www.w3.org/Graphics/SVG/1.1/DTD/svg11.dtd">
<!-- Generated by graphviz version 2.43.0 (0)
 -->
<!-- Title: Components/Interfaces Pages: 1 -->
<!--zoomable 231 -->
<svg id="main" version="1.1" xmlns="http://www.w3.org/2000/svg" xmlns:xlink="http://www.w3.org/1999/xlink" xml:space="preserve" onload="init(evt)">
<style type="text/css"><![CDATA[
.edge:hover path { stroke: red; }
.edge:hover polygon { stroke: red; fill: red; }
]]></style>
<script type="text/javascript"><![CDATA[
var edges = document.getElementsByTagName('g');
if (edges && edges.length) {
  for (var i=0;i<edges.length;i++) {
    if (edges[i].id.substr(0,4)=='edge') {
      edges[i].setAttribute('class','edge');
    }
  }
}
]]></script>
        <defs>
                <circle id="rim" cx="0" cy="0" r="7"/>
                <circle id="rim2" cx="0" cy="0" r="3.5"/>
                <g id="zoomPlus">
                        <use xlink:href="#rim" fill="#404040">
                                <set attributeName="fill" to="#808080" begin="zoomplus.mouseover" end="zoomplus.mouseout"/>
                        </use>
                        <path d="M-4,0h8M0,-4v8" fill="none" stroke="white" stroke-width="1.5" pointer-events="none"/>
                </g>
                <g id="zoomMin">
                        <use xlink:href="#rim" fill="#404040">
                                <set attributeName="fill" to="#808080" begin="zoomminus.mouseover" end="zoomminus.mouseout"/>
                        </use>
                        <path d="M-4,0h8" fill="none" stroke="white" stroke-width="1.5" pointer-events="none"/>
                </g>
                <g id="dirArrow">
                        <path fill="none" stroke="white" stroke-width="1.5" d="M0,-3.0v7 M-2.5,-0.5L0,-3.0L2.5,-0.5"/>
                </g>
               <g id="resetDef">
                       <use xlink:href="#rim2" fill="#404040">
                               <set attributeName="fill" to="#808080" begin="reset.mouseover" end="reset.mouseout"/>
                       </use>
               </g>
        </defs>

<script type="text/javascript">
var viewWidth = 846;
var viewHeight = 231;
var sectionId = 'dynsection-0';
</script>
<script xlink:href="svgpan.js"/>
<svg id="graph" class="graph">
<g id="viewport">
<title>Components/Interfaces</title>
<g id="clust1" class="cluster">
<title>clusterdir_08f45fe6822aeb4ce2bc268e3b1361be</title>
<g id="a_clust1"><a xlink:href="dir_08f45fe6822aeb4ce2bc268e3b1361be.html" target="_top" xlink:title="Components">
<polygon fill="#ddddee" stroke="black" points="8,-128 8,-215 830,-215 830,-128 8,-128"/>
<text text-anchor="middle" x="419" y="-203" font-family="Helvetica,sans-Serif" font-size="10.00">Components</text>
</a>
</g>
</g>
<g id="clust2" class="cluster">
<title>clusterdir_e185953657720ba3a67126696ef566c7</title>
<g id="a_clust2"><a xlink:href="dir_e185953657720ba3a67126696ef566c7.html" target="_top">
<polygon fill="#eeeeff" stroke="black" points="16,-136 16,-188 822,-188 822,-136 16,-136"/>
</a>
</g>
</g>
<!-- dir_e185953657720ba3a67126696ef566c7 -->
<g id="node1" class="node">
<title>dir_e185953657720ba3a67126696ef566c7</title>
<text text-anchor="middle" x="781" y="-159.5" font-family="Helvetica,sans-Serif" font-size="10.00">Interfaces</text>
</g>
<!-- dir_c69560da8b565b5ff7a6279980e642a0 -->
<g id="node2" class="node">
<title>dir_c69560da8b565b5ff7a6279980e642a0</title>
<g id="a_node2"><a xlink:href="dir_c69560da8b565b5ff7a6279980e642a0.html" target="_top" xlink:title="ActuatorBase">
<polygon fill="white" stroke="red" points="106,-180 24,-180 24,-144 106,-144 106,-180"/>
<text text-anchor="middle" x="65" y="-159.5" font-family="Helvetica,sans-Serif" font-size="10.00">ActuatorBase</text>
</a>
</g>
</g>
<!-- dir_a4226c5615a06a31e6344f5f3fd917e1 -->
<g id="node10" class="node">
<title>dir_a4226c5615a06a31e6344f5f3fd917e1</title>
<g id="a_node10"><a xlink:href="dir_a4226c5615a06a31e6344f5f3fd917e1.html" target="_top" xlink:title="Objects">
<polygon fill="none" stroke="red" points="441,-108 387,-108 387,-72 441,-72 441,-108"/>
<text text-anchor="middle" x="414" y="-87.5" font-family="Helvetica,sans-Serif" font-size="10.00">Objects</text>
</a>
</g>
</g>
<!-- dir_c69560da8b565b5ff7a6279980e642a0&#45;&gt;dir_a4226c5615a06a31e6344f5f3fd917e1 -->
<g id="edge20" class="edge">
<title>dir_c69560da8b565b5ff7a6279980e642a0&#45;&gt;dir_a4226c5615a06a31e6344f5f3fd917e1</title>
<path fill="none" stroke="black" d="M86.69,-143.88C95.34,-137.9 105.69,-131.75 116,-128 205.48,-95.45 318.95,-90.51 376.65,-90.35"/>
<polygon fill="black" stroke="black" points="376.75,-93.85 386.75,-90.38 376.76,-86.85 376.75,-93.85"/>
<g id="a_edge20&#45;headlabel"><a xlink:href="dir_000097_000015.html" target="_top" xlink:title="2">
<text text-anchor="middle" x="373.15" y="-94.19" font-family="Helvetica,sans-Serif" font-size="10.00">2</text>
</a>
</g>
</g>
<!-- dir_1a5504e72c2ab618c124e6472b08d26c -->
<g id="node11" class="node">
<title>dir_1a5504e72c2ab618c124e6472b08d26c</title>
<g id="a_node11"><a xlink:href="dir_1a5504e72c2ab618c124e6472b08d26c.html" target="_top" xlink:title="Global_Include">
<polygon fill="none" stroke="black" points="403.5,-36 314.5,-36 314.5,0 403.5,0 403.5,-36"/>
<text text-anchor="middle" x="359" y="-15.5" font-family="Helvetica,sans-Serif" font-size="10.00">Global_Include</text>
</a>
</g>
</g>
<!-- dir_c69560da8b565b5ff7a6279980e642a0&#45;&gt;dir_1a5504e72c2ab618c124e6472b08d26c -->
<g id="edge21" class="edge">
<title>dir_c69560da8b565b5ff7a6279980e642a0&#45;&gt;dir_1a5504e72c2ab618c124e6472b08d26c</title>
<path fill="none" stroke="black" d="M90.74,-143.89C98.77,-138.68 107.69,-133.01 116,-128 159.63,-101.71 169.76,-93.36 216,-72 244.69,-58.75 277.7,-46.34 304.78,-36.86"/>
<polygon fill="black" stroke="black" points="306.16,-40.08 314.47,-33.5 303.87,-33.47 306.16,-40.08"/>
<g id="a_edge21&#45;headlabel"><a xlink:href="dir_000097_000095.html" target="_top" xlink:title="1">
<text text-anchor="middle" x="303.7" y="-41.44" font-family="Helvetica,sans-Serif" font-size="10.00">1</text>
</a>
</g>
</g>
<!-- dir_c1d39b38f705fdd6d8156436742b5519 -->
<g id="node3" class="node">
<title>dir_c1d39b38f705fdd6d8156436742b5519</title>
<g id="a_node3"><a xlink:href="dir_c1d39b38f705fdd6d8156436742b5519.html" target="_top" xlink:title="ADCBase">
<polygon fill="white" stroke="red" points="358,-180 296,-180 296,-144 358,-144 358,-180"/>
<text text-anchor="middle" x="327" y="-159.5" font-family="Helvetica,sans-Serif" font-size="10.00">ADCBase</text>
</a>
</g>
</g>
<!-- dir_c1d39b38f705fdd6d8156436742b5519&#45;&gt;dir_a4226c5615a06a31e6344f5f3fd917e1 -->
<g id="edge14" class="edge">
<title>dir_c1d39b38f705fdd6d8156436742b5519&#45;&gt;dir_a4226c5615a06a31e6344f5f3fd917e1</title>
<path fill="none" stroke="black" d="M342.59,-143.7C352.73,-134.8 366.21,-123.82 378.77,-114.2"/>
<polygon fill="black" stroke="black" points="380.97,-116.92 386.85,-108.1 376.76,-111.33 380.97,-116.92"/>
<g id="a_edge14&#45;headlabel"><a xlink:href="dir_000099_000015.html" target="_top" xlink:title="2">
<text text-anchor="middle" x="379.81" y="-118.85" font-family="Helvetica,sans-Serif" font-size="10.00">2</text>
</a>
</g>
</g>
<!-- dir_c1d39b38f705fdd6d8156436742b5519&#45;&gt;dir_1a5504e72c2ab618c124e6472b08d26c -->
<g id="edge15" class="edge">
<title>dir_c1d39b38f705fdd6d8156436742b5519&#45;&gt;dir_1a5504e72c2ab618c124e6472b08d26c</title>
<path fill="none" stroke="black" d="M330.15,-143.87C333.54,-125.91 339.21,-96.87 345,-72 346.97,-63.53 349.32,-54.35 351.53,-46.05"/>
<polygon fill="black" stroke="black" points="354.98,-46.69 354.2,-36.12 348.22,-44.87 354.98,-46.69"/>
<g id="a_edge15&#45;headlabel"><a xlink:href="dir_000099_000095.html" target="_top" xlink:title="1">
<text text-anchor="middle" x="356.79" y="-48.4" font-family="Helvetica,sans-Serif" font-size="10.00">1</text>
</a>
</g>
</g>
<!-- dir_aa1683b16ed846e0217724d18ccf48ca -->
<g id="node4" class="node">
<title>dir_aa1683b16ed846e0217724d18ccf48ca</title>
<g id="a_node4"><a xlink:href="dir_aa1683b16ed846e0217724d18ccf48ca.html" target="_top" xlink:title="Camera">
<polygon fill="white" stroke="red" points="179.5,-180 124.5,-180 124.5,-144 179.5,-144 179.5,-180"/>
<text text-anchor="middle" x="152" y="-159.5" font-family="Helvetica,sans-Serif" font-size="10.00">Camera</text>
</a>
</g>
</g>
<!-- dir_aa1683b16ed846e0217724d18ccf48ca&#45;&gt;dir_a4226c5615a06a31e6344f5f3fd917e1 -->
<g id="edge16" class="edge">
<title>dir_aa1683b16ed846e0217724d18ccf48ca&#45;&gt;dir_a4226c5615a06a31e6344f5f3fd917e1</title>
<path fill="none" stroke="black" d="M167.1,-143.99C173.3,-138.03 180.92,-131.86 189,-128 250.31,-98.71 330.54,-92.07 376.77,-90.86"/>
<polygon fill="black" stroke="black" points="377,-94.36 386.93,-90.67 376.86,-87.36 377,-94.36"/>
<g id="a_edge16&#45;headlabel"><a xlink:href="dir_000101_000015.html" target="_top" xlink:title="1">
<text text-anchor="middle" x="373.45" y="-94.77" font-family="Helvetica,sans-Serif" font-size="10.00">1</text>
</a>
</g>
</g>
<!-- dir_aa1683b16ed846e0217724d18ccf48ca&#45;&gt;dir_1a5504e72c2ab618c124e6472b08d26c -->
<g id="edge17" class="edge">
<title>dir_aa1683b16ed846e0217724d18ccf48ca&#45;&gt;dir_1a5504e72c2ab618c124e6472b08d26c</title>
<path fill="none" stroke="black" d="M169.96,-143.96C175.85,-138.64 182.56,-132.89 189,-128 232.07,-95.31 284.94,-62.45 320.17,-41.49"/>
<polygon fill="black" stroke="black" points="322.35,-44.27 329.18,-36.16 318.79,-38.24 322.35,-44.27"/>
<g id="a_edge17&#45;headlabel"><a xlink:href="dir_000101_000095.html" target="_top" xlink:title="1">
<text text-anchor="middle" x="320.71" y="-46.04" font-family="Helvetica,sans-Serif" font-size="10.00">1</text>
</a>
</g>
</g>
<!-- dir_0510aa4683094b0d91d14cbbe60c1080 -->
<g id="node5" class="node">
<title>dir_0510aa4683094b0d91d14cbbe60c1080</title>
<g id="a_node5"><a xlink:href="dir_0510aa4683094b0d91d14cbbe60c1080.html" target="_top" xlink:title="ProtocolBase">
<polygon fill="white" stroke="red" points="278,-180 198,-180 198,-144 278,-144 278,-180"/>
<text text-anchor="middle" x="238" y="-159.5" font-family="Helvetica,sans-Serif" font-size="10.00">ProtocolBase</text>
</a>
</g>
</g>
<!-- dir_0510aa4683094b0d91d14cbbe60c1080&#45;&gt;dir_a4226c5615a06a31e6344f5f3fd917e1 -->
<g id="edge12" class="edge">
<title>dir_0510aa4683094b0d91d14cbbe60c1080&#45;&gt;dir_a4226c5615a06a31e6344f5f3fd917e1</title>
<path fill="none" stroke="black" d="M260.55,-143.68C268.58,-138.1 277.9,-132.26 287,-128 316.01,-114.41 351.11,-104.65 377.05,-98.57"/>
<polygon fill="black" stroke="black" points="377.88,-101.97 386.86,-96.35 376.33,-95.15 377.88,-101.97"/>
<g id="a_edge12&#45;headlabel"><a xlink:href="dir_000103_000015.html" target="_top" xlink:title="1">
<text text-anchor="middle" x="375" y="-103.04" font-family="Helvetica,sans-Serif" font-size="10.00">1</text>
</a>
</g>
</g>
<!-- dir_0510aa4683094b0d91d14cbbe60c1080&#45;&gt;dir_1a5504e72c2ab618c124e6472b08d26c -->
<g id="edge13" class="edge">
<title>dir_0510aa4683094b0d91d14cbbe60c1080&#45;&gt;dir_1a5504e72c2ab618c124e6472b08d26c</title>
<path fill="none" stroke="black" d="M252.6,-143.87C273.76,-119.03 313.12,-72.85 337.58,-44.14"/>
<polygon fill="black" stroke="black" points="340.53,-46.07 344.35,-36.19 335.2,-41.53 340.53,-46.07"/>
<g id="a_edge13&#45;headlabel"><a xlink:href="dir_000103_000095.html" target="_top" xlink:title="1">
<text text-anchor="middle" x="340.36" y="-48.15" font-family="Helvetica,sans-Serif" font-size="10.00">1</text>
</a>
</g>
</g>
<!-- dir_5a8ae08cfe847631433021fb4227a90d -->
<g id="node6" class="node">
<title>dir_5a8ae08cfe847631433021fb4227a90d</title>
<g id="a_node6"><a xlink:href="dir_5a8ae08cfe847631433021fb4227a90d.html" target="_top" xlink:title="PWMBase">
<polygon fill="white" stroke="red" points="441.5,-180 376.5,-180 376.5,-144 441.5,-144 441.5,-180"/>
<text text-anchor="middle" x="409" y="-159.5" font-family="Helvetica,sans-Serif" font-size="10.00">PWMBase</text>
</a>
</g>
</g>
<!-- dir_5a8ae08cfe847631433021fb4227a90d&#45;&gt;dir_a4226c5615a06a31e6344f5f3fd917e1 -->
<g id="edge6" class="edge">
<title>dir_5a8ae08cfe847631433021fb4227a90d&#45;&gt;dir_a4226c5615a06a31e6344f5f3fd917e1</title>
<path fill="none" stroke="black" d="M404.32,-143.7C404.08,-135.98 404.51,-126.71 405.47,-118.11"/>
<polygon fill="black" stroke="black" points="408.95,-118.5 406.88,-108.1 402.02,-117.52 408.95,-118.5"/>
<g id="a_edge6&#45;headlabel"><a xlink:href="dir_000105_000015.html" target="_top" xlink:title="2">
<text text-anchor="middle" x="411.26" y="-119.95" font-family="Helvetica,sans-Serif" font-size="10.00">2</text>
</a>
</g>
</g>
<!-- dir_5a8ae08cfe847631433021fb4227a90d&#45;&gt;dir_1a5504e72c2ab618c124e6472b08d26c -->
<g id="edge7" class="edge">
<title>dir_5a8ae08cfe847631433021fb4227a90d&#45;&gt;dir_1a5504e72c2ab618c124e6472b08d26c</title>
<path fill="none" stroke="black" d="M396.89,-143.57C390.44,-133.56 382.85,-120.52 378,-108 370.26,-88.02 365.38,-64.23 362.52,-46.28"/>
<polygon fill="black" stroke="black" points="365.95,-45.57 361.02,-36.2 359.03,-46.6 365.95,-45.57"/>
<g id="a_edge7&#45;headlabel"><a xlink:href="dir_000105_000095.html" target="_top" xlink:title="1">
<text text-anchor="middle" x="369.29" y="-46.21" font-family="Helvetica,sans-Serif" font-size="10.00">1</text>
</a>
</g>
</g>
<!-- dir_bca44d80d5a74645927dcf464289c401 -->
<g id="node7" class="node">
<title>dir_bca44d80d5a74645927dcf464289c401</title>
<g id="a_node7"><a xlink:href="dir_bca44d80d5a74645927dcf464289c401.html" target="_top" xlink:title="QueryBase">
<polygon fill="white" stroke="red" points="530,-180 460,-180 460,-144 530,-144 530,-180"/>
<text text-anchor="middle" x="495" y="-159.5" font-family="Helvetica,sans-Serif" font-size="10.00">QueryBase</text>
</a>
</g>
</g>
<!-- dir_bca44d80d5a74645927dcf464289c401&#45;&gt;dir_a4226c5615a06a31e6344f5f3fd917e1 -->
<g id="edge18" class="edge">
<title>dir_bca44d80d5a74645927dcf464289c401&#45;&gt;dir_a4226c5615a06a31e6344f5f3fd917e1</title>
<path fill="none" stroke="black" d="M469.06,-143.7C458.16,-135.05 445.72,-124.45 435.36,-115.03"/>
<polygon fill="black" stroke="black" points="437.61,-112.34 427.9,-108.1 432.85,-117.47 437.61,-112.34"/>
<g id="a_edge18&#45;headlabel"><a xlink:href="dir_000107_000015.html" target="_top" xlink:title="3">
<text text-anchor="middle" x="442.17" y="-110.21" font-family="Helvetica,sans-Serif" font-size="10.00">3</text>
</a>
</g>
</g>
<!-- dir_bca44d80d5a74645927dcf464289c401&#45;&gt;dir_1a5504e72c2ab618c124e6472b08d26c -->
<g id="edge19" class="edge">
<title>dir_bca44d80d5a74645927dcf464289c401&#45;&gt;dir_1a5504e72c2ab618c124e6472b08d26c</title>
<path fill="none" stroke="black" d="M489.66,-143.84C482.94,-124.51 469.83,-93.04 450,-72 438.27,-59.55 422.95,-49.12 408.24,-40.9"/>
<polygon fill="black" stroke="black" points="409.67,-37.69 399.2,-36.06 406.37,-43.86 409.67,-37.69"/>
<g id="a_edge19&#45;headlabel"><a xlink:href="dir_000107_000095.html" target="_top" xlink:title="2">
<text text-anchor="middle" x="414.18" y="-34.38" font-family="Helvetica,sans-Serif" font-size="10.00">2</text>
</a>
</g>
</g>
<!-- dir_8a6552bad49b01a8d1c30ddd736dda96 -->
<g id="node8" class="node">
<title>dir_8a6552bad49b01a8d1c30ddd736dda96</title>
<g id="a_node8"><a xlink:href="dir_8a6552bad49b01a8d1c30ddd736dda96.html" target="_top" xlink:title="SensorBase">
<polygon fill="white" stroke="red" points="730,-180 656,-180 656,-144 730,-144 730,-180"/>
<text text-anchor="middle" x="693" y="-159.5" font-family="Helvetica,sans-Serif" font-size="10.00">SensorBase</text>
</a>
</g>
</g>
<!-- dir_8a6552bad49b01a8d1c30ddd736dda96&#45;&gt;dir_a4226c5615a06a31e6344f5f3fd917e1 -->
<g id="edge10" class="edge">
<title>dir_8a6552bad49b01a8d1c30ddd736dda96&#45;&gt;dir_a4226c5615a06a31e6344f5f3fd917e1</title>
<path fill="none" stroke="black" d="M673.16,-143.68C665.46,-137.82 656.27,-131.81 647,-128 581.67,-101.15 498.62,-93.69 451.37,-91.67"/>
<polygon fill="black" stroke="black" points="451.41,-88.17 441.29,-91.3 451.16,-95.17 451.41,-88.17"/>
<g id="a_edge10&#45;headlabel"><a xlink:href="dir_000109_000015.html" target="_top" xlink:title="2">
<text text-anchor="middle" x="455.11" y="-82.97" font-family="Helvetica,sans-Serif" font-size="10.00">2</text>
</a>
</g>
</g>
<!-- dir_8a6552bad49b01a8d1c30ddd736dda96&#45;&gt;dir_1a5504e72c2ab618c124e6472b08d26c -->
<g id="edge11" class="edge">
<title>dir_8a6552bad49b01a8d1c30ddd736dda96&#45;&gt;dir_1a5504e72c2ab618c124e6472b08d26c</title>
<path fill="none" stroke="black" d="M671.2,-143.86C663.75,-138.42 655.23,-132.62 647,-128 570.33,-84.94 473.29,-52.21 413.71,-34.32"/>
<polygon fill="black" stroke="black" points="414.34,-30.86 403.75,-31.36 412.34,-37.57 414.34,-30.86"/>
<g id="a_edge11&#45;headlabel"><a xlink:href="dir_000109_000095.html" target="_top" xlink:title="1">
<text text-anchor="middle" x="418.59" y="-26.66" font-family="Helvetica,sans-Serif" font-size="10.00">1</text>
</a>
</g>
</g>
<!-- dir_9bdaf0e87e9ccaae1a86e0f6da9d7d83 -->
<g id="node9" class="node">
<title>dir_9bdaf0e87e9ccaae1a86e0f6da9d7d83</title>
<g id="a_node9"><a xlink:href="dir_9bdaf0e87e9ccaae1a86e0f6da9d7d83.html" target="_top" xlink:title="WatchdogBase">
<polygon fill="white" stroke="red" points="637.5,-180 548.5,-180 548.5,-144 637.5,-144 637.5,-180"/>
<text text-anchor="middle" x="593" y="-159.5" font-family="Helvetica,sans-Serif" font-size="10.00">WatchdogBase</text>
</a>
</g>
</g>
<!-- dir_9bdaf0e87e9ccaae1a86e0f6da9d7d83&#45;&gt;dir_a4226c5615a06a31e6344f5f3fd917e1 -->
<g id="edge8" class="edge">
<title>dir_9bdaf0e87e9ccaae1a86e0f6da9d7d83&#45;&gt;dir_a4226c5615a06a31e6344f5f3fd917e1</title>
<path fill="none" stroke="black" d="M559.72,-143.97C550.27,-138.35 539.94,-132.42 530,-128 504.33,-116.59 474.16,-107.55 450.92,-101.26"/>
<polygon fill="black" stroke="black" points="451.66,-97.83 441.1,-98.65 449.86,-104.6 451.66,-97.83"/>
<g id="a_edge8&#45;headlabel"><a xlink:href="dir_000111_000015.html" target="_top" xlink:title="1">
<text text-anchor="middle" x="455.86" y="-93.51" font-family="Helvetica,sans-Serif" font-size="10.00">1</text>
</a>
</g>
</g>
<!-- dir_9bdaf0e87e9ccaae1a86e0f6da9d7d83&#45;&gt;dir_1a5504e72c2ab618c124e6472b08d26c -->
<g id="edge9" class="edge">
<title>dir_9bdaf0e87e9ccaae1a86e0f6da9d7d83&#45;&gt;dir_1a5504e72c2ab618c124e6472b08d26c</title>
<path fill="none" stroke="black" d="M573.28,-143.78C550.78,-124.68 512.38,-93.7 476,-72 455.82,-59.96 432.43,-48.86 411.9,-39.95"/>
<polygon fill="black" stroke="black" points="413.25,-36.73 402.68,-36.02 410.51,-43.17 413.25,-36.73"/>
<g id="a_edge9&#45;headlabel"><a xlink:href="dir_000111_000095.html" target="_top" xlink:title="1">
<text text-anchor="middle" x="417.67" y="-33.03" font-family="Helvetica,sans-Serif" font-size="10.00">1</text>
</a>
</g>
</g>
<!-- dir_a4226c5615a06a31e6344f5f3fd917e1&#45;&gt;dir_c1d39b38f705fdd6d8156436742b5519 -->
<g id="edge4" class="edge">
<title>dir_a4226c5615a06a31e6344f5f3fd917e1&#45;&gt;dir_c1d39b38f705fdd6d8156436742b5519</title>
<path fill="none" stroke="black" d="M398.64,-108.1C388.54,-116.97 375.08,-127.94 362.51,-137.59"/>
<polygon fill="black" stroke="black" points="360.29,-134.88 354.42,-143.7 364.51,-140.46 360.29,-134.88"/>
<g id="a_edge4&#45;headlabel"><a xlink:href="dir_000015_000099.html" target="_top" xlink:title="1">
<text text-anchor="middle" x="361.45" y="-127.94" font-family="Helvetica,sans-Serif" font-size="10.00">1</text>
</a>
</g>
</g>
<!-- dir_a4226c5615a06a31e6344f5f3fd917e1&#45;&gt;dir_5a8ae08cfe847631433021fb4227a90d -->
<g id="edge1" class="edge">
<title>dir_a4226c5615a06a31e6344f5f3fd917e1&#45;&gt;dir_5a8ae08cfe847631433021fb4227a90d</title>
<path fill="none" stroke="black" d="M418.67,-108.1C418.93,-115.79 418.5,-125.05 417.56,-133.67"/>
<polygon fill="black" stroke="black" points="414.07,-133.31 416.15,-143.7 421,-134.28 414.07,-133.31"/>
<g id="a_edge1&#45;headlabel"><a xlink:href="dir_000015_000105.html" target="_top" xlink:title="1">
<text text-anchor="middle" x="411.76" y="-126.85" font-family="Helvetica,sans-Serif" font-size="10.00">1</text>
</a>
</g>
</g>
<!-- dir_a4226c5615a06a31e6344f5f3fd917e1&#45;&gt;dir_bca44d80d5a74645927dcf464289c401 -->
<g id="edge5" class="edge">
<title>dir_a4226c5615a06a31e6344f5f3fd917e1&#45;&gt;dir_bca44d80d5a74645927dcf464289c401</title>
<path fill="none" stroke="black" d="M439.69,-108.1C450.56,-116.72 463.01,-127.32 473.4,-136.76"/>
<polygon fill="black" stroke="black" points="471.18,-139.47 480.89,-143.7 475.94,-134.33 471.18,-139.47"/>
<g id="a_edge5&#45;headlabel"><a xlink:href="dir_000015_000107.html" target="_top" xlink:title="3">
<text text-anchor="middle" x="466.61" y="-136.61" font-family="Helvetica,sans-Serif" font-size="10.00">3</text>
</a>
</g>
</g>
<!-- dir_a4226c5615a06a31e6344f5f3fd917e1&#45;&gt;dir_9bdaf0e87e9ccaae1a86e0f6da9d7d83 -->
<g id="edge2" class="edge">
<title>dir_a4226c5615a06a31e6344f5f3fd917e1&#45;&gt;dir_9bdaf0e87e9ccaae1a86e0f6da9d7d83</title>
<path fill="none" stroke="black" d="M441.3,-95.43C469.25,-101.19 512.84,-112.38 548,-128 554.68,-130.97 561.53,-134.62 567.86,-138.4"/>
<polygon fill="black" stroke="black" points="566.35,-141.59 576.68,-143.97 570.09,-135.67 566.35,-141.59"/>
<g id="a_edge2&#45;headlabel"><a xlink:href="dir_000015_000111.html" target="_top" xlink:title="1">
<text text-anchor="middle" x="561.8" y="-139.57" font-family="Helvetica,sans-Serif" font-size="10.00">1</text>
</a>
</g>
</g>
<!-- dir_a4226c5615a06a31e6344f5f3fd917e1&#45;&gt;dir_1a5504e72c2ab618c124e6472b08d26c -->
<g id="edge3" class="edge">
<title>dir_a4226c5615a06a31e6344f5f3fd917e1&#45;&gt;dir_1a5504e72c2ab618c124e6472b08d26c</title>
<path fill="none" stroke="black" d="M400.4,-71.7C393.88,-63.39 385.93,-53.28 378.75,-44.14"/>
<polygon fill="black" stroke="black" points="381.37,-41.81 372.44,-36.1 375.87,-46.13 381.37,-41.81"/>
<g id="a_edge3&#45;headlabel"><a xlink:href="dir_000015_000095.html" target="_top" xlink:title="19">
<text text-anchor="middle" x="385.82" y="-40.38" font-family="Helvetica,sans-Serif" font-size="10.00">19</text>
</a>
</g>
</g>
</g>
</svg>
        <g id="navigator" transform="translate(0 0)" fill="#404254">
                <rect fill="#f2f5e9" fill-opacity="0.5" stroke="#606060" stroke-width=".5" x="0" y="0" width="60" height="60"/>
                <use id="zoomplus" xlink:href="#zoomPlus" x="17" y="9" onmousedown="handleZoom(evt,'in')"/>
                <use id="zoomminus" xlink:href="#zoomMin" x="42" y="9" onmousedown="handleZoom(evt,'out')"/>
                <use id="reset" xlink:href="#resetDef" x="30" y="36" onmousedown="handleReset()"/>
                <g id="arrowUp" xlink:href="#dirArrow" transform="translate(30 24)" onmousedown="handlePan(0,-1)">
                  <use xlink:href="#rim" fill="#404040">
                        <set attributeName="fill" to="#808080" begin="arrowUp.mouseover" end="arrowUp.mouseout"/>
                  </use>
                  <path fill="none" stroke="white" stroke-width="1.5" d="M0,-3.0v7 M-2.5,-0.5L0,-3.0L2.5,-0.5"/>
                </g>
                <g id="arrowRight" xlink:href="#dirArrow" transform="rotate(90) translate(36 -43)" onmousedown="handlePan(1,0)">
                  <use xlink:href="#rim" fill="#404040">
                        <set attributeName="fill" to="#808080" begin="arrowRight.mouseover" end="arrowRight.mouseout"/>
                  </use>
                  <path fill="none" stroke="white" stroke-width="1.5" d="M0,-3.0v7 M-2.5,-0.5L0,-3.0L2.5,-0.5"/>
                </g>
                <g id="arrowDown" xlink:href="#dirArrow" transform="rotate(180) translate(-30 -48)" onmousedown="handlePan(0,1)">
                  <use xlink:href="#rim" fill="#404040">
                        <set attributeName="fill" to="#808080" begin="arrowDown.mouseover" end="arrowDown.mouseout"/>
                  </use>
                  <path fill="none" stroke="white" stroke-width="1.5" d="M0,-3.0v7 M-2.5,-0.5L0,-3.0L2.5,-0.5"/>
                </g>
                <g id="arrowLeft" xlink:href="#dirArrow" transform="rotate(270) translate(-36 17)" onmousedown="handlePan(-1,0)">
                  <use xlink:href="#rim" fill="#404040">
                        <set attributeName="fill" to="#808080" begin="arrowLeft.mouseover" end="arrowLeft.mouseout"/>
                  </use>
                  <path fill="none" stroke="white" stroke-width="1.5" d="M0,-3.0v7 M-2.5,-0.5L0,-3.0L2.5,-0.5"/>
                </g>
        </g>
        <svg viewBox="0 0 15 15" width="100%" height="30px" preserveAspectRatio="xMaxYMin meet">
         <g id="arrow_out" transform="scale(0.3 0.3)">
          <a xlink:href="dir_e185953657720ba3a67126696ef566c7_dep_org.svg" target="_base">
           <rect id="button" ry="5" rx="5" y="6" x="6" height="38" width="38"
                fill="#f2f5e9" fill-opacity="0.5" stroke="#606060" stroke-width="1.0"/>
           <path id="arrow"
             d="M 11.500037,31.436501 C 11.940474,20.09759 22.043105,11.32322 32.158766,21.979434 L 37.068811,17.246167 C 37.068811,17.246167 37.088388,32 37.088388,32 L 22.160133,31.978069 C 22.160133,31.978069 26.997745,27.140456 26.997745,27.140456 C 18.528582,18.264221 13.291696,25.230495 11.500037,31.436501 z"
             style="fill:#404040;"/>
          </a>
         </g>
        </svg>
</svg>
