<?xml version="1.0" encoding="UTF-8" standalone="no"?>
<!DOCTYPE svg PUBLIC "-//W3C//DTD SVG 1.1//EN"
 "http://www.w3.org/Graphics/SVG/1.1/DTD/svg11.dtd">
<!-- Generated by graphviz version 2.43.0 (0)
 -->
<!-- Title: Components/Objects/Maintainer Pages: 1 -->
<svg width="423pt" height="447pt"
 viewBox="0.00 0.00 422.81 447.00" xmlns="http://www.w3.org/2000/svg" xmlns:xlink="http://www.w3.org/1999/xlink">
<g id="graph0" class="graph" transform="scale(1 1) rotate(0) translate(4 443)">
<title>Components/Objects/Maintainer</title>
<g id="clust1" class="cluster">
<title>clusterdir_a4226c5615a06a31e6344f5f3fd917e1</title>
<g id="a_clust1"><a xlink:href="dir_a4226c5615a06a31e6344f5f3fd917e1.html" target="_top" xlink:title="Objects">
<polygon fill="#ddddee" stroke="black" points="160.81,-272 160.81,-431 406.81,-431 406.81,-272 160.81,-272"/>
<text text-anchor="middle" x="283.81" y="-419" font-family="Helvetica,sans-Serif" font-size="10.00">Objects</text>
</a>
</g>
</g>
<g id="clust2" class="cluster">
<title>clusterdir_c562692df1ba95c82b91dbfdfaa5b2ff</title>
<g id="a_clust2"><a xlink:href="dir_c562692df1ba95c82b91dbfdfaa5b2ff.html" target="_top">
<polygon fill="#eeeeff" stroke="black" points="168.81,-280 168.81,-404 398.81,-404 398.81,-280 168.81,-280"/>
</a>
</g>
</g>
<!-- dir_c562692df1ba95c82b91dbfdfaa5b2ff -->
<g id="node1" class="node">
<title>dir_c562692df1ba95c82b91dbfdfaa5b2ff</title>
<text text-anchor="middle" x="355.81" y="-375.5" font-family="Helvetica,sans-Serif" font-size="10.00">Maintainer</text>
</g>
<!-- dir_8b8599f8856b4d1446653a790f5ca47f -->
<g id="node2" class="node">
<title>dir_8b8599f8856b4d1446653a790f5ca47f</title>
<g id="a_node2"><a xlink:href="dir_8b8599f8856b4d1446653a790f5ca47f.html" target="_top" xlink:title="include">
<polygon fill="white" stroke="black" points="266.81,-324 212.81,-324 212.81,-288 266.81,-288 266.81,-324"/>
<text text-anchor="middle" x="239.81" y="-303.5" font-family="Helvetica,sans-Serif" font-size="10.00">include</text>
</a>
</g>
</g>
<!-- dir_e64cbc928f36aa6d8866af1b55c205ef -->
<g id="node5" class="node">
<title>dir_e64cbc928f36aa6d8866af1b55c205ef</title>
<g id="a_node5"><a xlink:href="dir_e64cbc928f36aa6d8866af1b55c205ef.html" target="_top" xlink:title="FaultHandler">
<polygon fill="none" stroke="red" points="254.31,-108 175.31,-108 175.31,-72 254.31,-72 254.31,-108"/>
<text text-anchor="middle" x="214.81" y="-87.5" font-family="Helvetica,sans-Serif" font-size="10.00">FaultHandler</text>
</a>
</g>
</g>
<!-- dir_8b8599f8856b4d1446653a790f5ca47f&#45;&gt;dir_e64cbc928f36aa6d8866af1b55c205ef -->
<g id="edge9" class="edge">
<title>dir_8b8599f8856b4d1446653a790f5ca47f&#45;&gt;dir_e64cbc928f36aa6d8866af1b55c205ef</title>
<path fill="none" stroke="black" d="M237.8,-287.85C233.48,-250.83 223.24,-163.18 218.01,-118.39"/>
<polygon fill="black" stroke="black" points="221.46,-117.76 216.82,-108.23 214.5,-118.57 221.46,-117.76"/>
<g id="a_edge9&#45;headlabel"><a xlink:href="dir_000129_000022.html" target="_top" xlink:title="1">
<text text-anchor="middle" x="224.69" y="-118.5" font-family="Helvetica,sans-Serif" font-size="10.00">1</text>
</a>
</g>
</g>
<!-- dir_d2942b6148df0ab9010d67087a1cea59 -->
<g id="node6" class="node">
<title>dir_d2942b6148df0ab9010d67087a1cea59</title>
<g id="a_node6"><a xlink:href="dir_d2942b6148df0ab9010d67087a1cea59.html" target="_top" xlink:title="OTA">
<polygon fill="none" stroke="red" points="298.81,-180 244.81,-180 244.81,-144 298.81,-144 298.81,-180"/>
<text text-anchor="middle" x="271.81" y="-159.5" font-family="Helvetica,sans-Serif" font-size="10.00">OTA</text>
</a>
</g>
</g>
<!-- dir_8b8599f8856b4d1446653a790f5ca47f&#45;&gt;dir_d2942b6148df0ab9010d67087a1cea59 -->
<g id="edge10" class="edge">
<title>dir_8b8599f8856b4d1446653a790f5ca47f&#45;&gt;dir_d2942b6148df0ab9010d67087a1cea59</title>
<path fill="none" stroke="black" d="M243.3,-287.9C247,-269.96 253.09,-240.95 258.81,-216 260.74,-207.56 262.95,-198.39 265,-190.09"/>
<polygon fill="black" stroke="black" points="268.45,-190.7 267.46,-180.15 261.66,-189.02 268.45,-190.7"/>
<g id="a_edge10&#45;headlabel"><a xlink:href="dir_000129_000040.html" target="_top" xlink:title="1">
<text text-anchor="middle" x="270.34" y="-192.38" font-family="Helvetica,sans-Serif" font-size="10.00">1</text>
</a>
</g>
</g>
<!-- dir_4ca6fec43e1013816363be86d31756d6 -->
<g id="node7" class="node">
<title>dir_4ca6fec43e1013816363be86d31756d6</title>
<g id="a_node7"><a xlink:href="dir_4ca6fec43e1013816363be86d31756d6.html" target="_top" xlink:title="Connector">
<polygon fill="none" stroke="red" points="80.81,-108 14.81,-108 14.81,-72 80.81,-72 80.81,-108"/>
<text text-anchor="middle" x="47.81" y="-87.5" font-family="Helvetica,sans-Serif" font-size="10.00">Connector</text>
</a>
</g>
</g>
<!-- dir_8b8599f8856b4d1446653a790f5ca47f&#45;&gt;dir_4ca6fec43e1013816363be86d31756d6 -->
<g id="edge11" class="edge">
<title>dir_8b8599f8856b4d1446653a790f5ca47f&#45;&gt;dir_4ca6fec43e1013816363be86d31756d6</title>
<path fill="none" stroke="black" d="M224.42,-287.85C190.58,-250.13 109.56,-159.83 70.13,-115.88"/>
<polygon fill="black" stroke="black" points="72.55,-113.34 63.27,-108.23 67.34,-118.01 72.55,-113.34"/>
<g id="a_edge11&#45;headlabel"><a xlink:href="dir_000129_000011.html" target="_top" xlink:title="1">
<text text-anchor="middle" x="77.07" y="-111.62" font-family="Helvetica,sans-Serif" font-size="10.00">1</text>
</a>
</g>
</g>
<!-- dir_4816d2fb8abcfd1fbfb7e56b67e0baa1 -->
<g id="node8" class="node">
<title>dir_4816d2fb8abcfd1fbfb7e56b67e0baa1</title>
<g id="a_node8"><a xlink:href="dir_4816d2fb8abcfd1fbfb7e56b67e0baa1.html" target="_top" xlink:title="ErrorHandler">
<polygon fill="none" stroke="red" points="166.81,-36 88.81,-36 88.81,0 166.81,0 166.81,-36"/>
<text text-anchor="middle" x="127.81" y="-15.5" font-family="Helvetica,sans-Serif" font-size="10.00">ErrorHandler</text>
</a>
</g>
</g>
<!-- dir_8b8599f8856b4d1446653a790f5ca47f&#45;&gt;dir_4816d2fb8abcfd1fbfb7e56b67e0baa1 -->
<g id="edge12" class="edge">
<title>dir_8b8599f8856b4d1446653a790f5ca47f&#45;&gt;dir_4816d2fb8abcfd1fbfb7e56b67e0baa1</title>
<path fill="none" stroke="black" d="M212.42,-292.6C159.83,-267.01 46.36,-202.71 5.81,-108 -0.49,-93.29 -2.97,-85.38 5.81,-72 21.98,-47.34 52.37,-34.1 78.77,-27.01"/>
<polygon fill="black" stroke="black" points="79.78,-30.37 88.66,-24.59 78.11,-23.57 79.78,-30.37"/>
<g id="a_edge12&#45;headlabel"><a xlink:href="dir_000129_000019.html" target="_top" xlink:title="1">
<text text-anchor="middle" x="76.96" y="-31.48" font-family="Helvetica,sans-Serif" font-size="10.00">1</text>
</a>
</g>
</g>
<!-- dir_1a5504e72c2ab618c124e6472b08d26c -->
<g id="node9" class="node">
<title>dir_1a5504e72c2ab618c124e6472b08d26c</title>
<g id="a_node9"><a xlink:href="dir_1a5504e72c2ab618c124e6472b08d26c.html" target="_top" xlink:title="Global_Include">
<polygon fill="none" stroke="black" points="354.31,-36 265.31,-36 265.31,0 354.31,0 354.31,-36"/>
<text text-anchor="middle" x="309.81" y="-15.5" font-family="Helvetica,sans-Serif" font-size="10.00">Global_Include</text>
</a>
</g>
</g>
<!-- dir_8b8599f8856b4d1446653a790f5ca47f&#45;&gt;dir_1a5504e72c2ab618c124e6472b08d26c -->
<g id="edge13" class="edge">
<title>dir_8b8599f8856b4d1446653a790f5ca47f&#45;&gt;dir_1a5504e72c2ab618c124e6472b08d26c</title>
<path fill="none" stroke="black" d="M266.82,-300.32C294.19,-294.11 335.71,-280.44 358.81,-252 409.97,-188.98 428.21,-143.52 389.81,-72 383.02,-59.36 371.75,-49.23 359.78,-41.35"/>
<polygon fill="black" stroke="black" points="361.35,-38.21 350.99,-36 357.71,-44.19 361.35,-38.21"/>
<g id="a_edge13&#45;headlabel"><a xlink:href="dir_000129_000095.html" target="_top" xlink:title="1">
<text text-anchor="middle" x="365.9" y="-35.15" font-family="Helvetica,sans-Serif" font-size="10.00">1</text>
</a>
</g>
</g>
<!-- dir_4d0b0adf7e9fb892c3df556e9cbb05d0 -->
<g id="node10" class="node">
<title>dir_4d0b0adf7e9fb892c3df556e9cbb05d0</title>
<g id="a_node10"><a xlink:href="dir_4d0b0adf7e9fb892c3df556e9cbb05d0.html" target="_top" xlink:title="Protocols">
<polygon fill="none" stroke="red" points="329.81,-252 267.81,-252 267.81,-216 329.81,-216 329.81,-252"/>
<text text-anchor="middle" x="298.81" y="-231.5" font-family="Helvetica,sans-Serif" font-size="10.00">Protocols</text>
</a>
</g>
</g>
<!-- dir_8b8599f8856b4d1446653a790f5ca47f&#45;&gt;dir_4d0b0adf7e9fb892c3df556e9cbb05d0 -->
<g id="edge14" class="edge">
<title>dir_8b8599f8856b4d1446653a790f5ca47f&#45;&gt;dir_4d0b0adf7e9fb892c3df556e9cbb05d0</title>
<path fill="none" stroke="black" d="M254.39,-287.7C261.46,-279.3 270.09,-269.07 277.85,-259.86"/>
<polygon fill="black" stroke="black" points="280.62,-262.01 284.39,-252.1 275.27,-257.49 280.62,-262.01"/>
<g id="a_edge14&#45;headlabel"><a xlink:href="dir_000129_000060.html" target="_top" xlink:title="1">
<text text-anchor="middle" x="280.48" y="-264.08" font-family="Helvetica,sans-Serif" font-size="10.00">1</text>
</a>
</g>
</g>
<!-- dir_6a49a4a01df89ea000e629175e7db917 -->
<g id="node11" class="node">
<title>dir_6a49a4a01df89ea000e629175e7db917</title>
<g id="a_node11"><a xlink:href="dir_6a49a4a01df89ea000e629175e7db917.html" target="_top" xlink:title="RTOS">
<polygon fill="none" stroke="red" points="364.81,-108 310.81,-108 310.81,-72 364.81,-72 364.81,-108"/>
<text text-anchor="middle" x="337.81" y="-87.5" font-family="Helvetica,sans-Serif" font-size="10.00">RTOS</text>
</a>
</g>
</g>
<!-- dir_8b8599f8856b4d1446653a790f5ca47f&#45;&gt;dir_6a49a4a01df89ea000e629175e7db917 -->
<g id="edge15" class="edge">
<title>dir_8b8599f8856b4d1446653a790f5ca47f&#45;&gt;dir_6a49a4a01df89ea000e629175e7db917</title>
<path fill="none" stroke="black" d="M267.09,-298.73C290.69,-291.7 323.38,-277.76 338.81,-252 363.56,-210.67 354.53,-152.02 345.99,-118.1"/>
<polygon fill="black" stroke="black" points="349.25,-116.76 343.27,-108.01 342.49,-118.58 349.25,-116.76"/>
<g id="a_edge15&#45;headlabel"><a xlink:href="dir_000129_000067.html" target="_top" xlink:title="1">
<text text-anchor="middle" x="352.93" y="-116.99" font-family="Helvetica,sans-Serif" font-size="10.00">1</text>
</a>
</g>
</g>
<!-- dir_40964ce11dc14dca7093559234f330b0 -->
<g id="node3" class="node">
<title>dir_40964ce11dc14dca7093559234f330b0</title>
<g id="a_node3"><a xlink:href="dir_40964ce11dc14dca7093559234f330b0.html" target="_top" xlink:title="src">
<polygon fill="white" stroke="black" points="302.81,-396 248.81,-396 248.81,-360 302.81,-360 302.81,-396"/>
<text text-anchor="middle" x="275.81" y="-375.5" font-family="Helvetica,sans-Serif" font-size="10.00">src</text>
</a>
</g>
</g>
<!-- dir_40964ce11dc14dca7093559234f330b0&#45;&gt;dir_8b8599f8856b4d1446653a790f5ca47f -->
<g id="edge20" class="edge">
<title>dir_40964ce11dc14dca7093559234f330b0&#45;&gt;dir_8b8599f8856b4d1446653a790f5ca47f</title>
<path fill="none" stroke="black" d="M266.91,-359.7C262.81,-351.73 257.86,-342.1 253.31,-333.26"/>
<polygon fill="black" stroke="black" points="256.29,-331.4 248.6,-324.1 250.06,-334.6 256.29,-331.4"/>
<g id="a_edge20&#45;headlabel"><a xlink:href="dir_000130_000129.html" target="_top" xlink:title="1">
<text text-anchor="middle" x="260.46" y="-330.79" font-family="Helvetica,sans-Serif" font-size="10.00">1</text>
</a>
</g>
</g>
<!-- dir_5b1310601d07fb3d3a2527009f9f9c7a -->
<g id="node4" class="node">
<title>dir_5b1310601d07fb3d3a2527009f9f9c7a</title>
<g id="a_node4"><a xlink:href="dir_5b1310601d07fb3d3a2527009f9f9c7a.html" target="_top" xlink:title="test">
<polygon fill="white" stroke="red" points="230.81,-396 176.81,-396 176.81,-360 230.81,-360 230.81,-396"/>
<text text-anchor="middle" x="203.81" y="-375.5" font-family="Helvetica,sans-Serif" font-size="10.00">test</text>
</a>
</g>
</g>
<!-- dir_5b1310601d07fb3d3a2527009f9f9c7a&#45;&gt;dir_8b8599f8856b4d1446653a790f5ca47f -->
<g id="edge8" class="edge">
<title>dir_5b1310601d07fb3d3a2527009f9f9c7a&#45;&gt;dir_8b8599f8856b4d1446653a790f5ca47f</title>
<path fill="none" stroke="black" d="M212.71,-359.7C216.8,-351.73 221.76,-342.1 226.3,-333.26"/>
<polygon fill="black" stroke="black" points="229.55,-334.6 231.01,-324.1 223.32,-331.4 229.55,-334.6"/>
<g id="a_edge8&#45;headlabel"><a xlink:href="dir_000035_000129.html" target="_top" xlink:title="1">
<text text-anchor="middle" x="230.43" y="-336.59" font-family="Helvetica,sans-Serif" font-size="10.00">1</text>
</a>
</g>
</g>
<!-- dir_e64cbc928f36aa6d8866af1b55c205ef&#45;&gt;dir_4816d2fb8abcfd1fbfb7e56b67e0baa1 -->
<g id="edge1" class="edge">
<title>dir_e64cbc928f36aa6d8866af1b55c205ef&#45;&gt;dir_4816d2fb8abcfd1fbfb7e56b67e0baa1</title>
<path fill="none" stroke="black" d="M193.3,-71.7C182.34,-62.88 168.86,-52.03 156.98,-42.47"/>
<polygon fill="black" stroke="black" points="159.05,-39.65 149.07,-36.1 154.66,-45.1 159.05,-39.65"/>
<g id="a_edge1&#45;headlabel"><a xlink:href="dir_000022_000019.html" target="_top" xlink:title="1">
<text text-anchor="middle" x="163.63" y="-37.19" font-family="Helvetica,sans-Serif" font-size="10.00">1</text>
</a>
</g>
</g>
<!-- dir_e64cbc928f36aa6d8866af1b55c205ef&#45;&gt;dir_1a5504e72c2ab618c124e6472b08d26c -->
<g id="edge2" class="edge">
<title>dir_e64cbc928f36aa6d8866af1b55c205ef&#45;&gt;dir_1a5504e72c2ab618c124e6472b08d26c</title>
<path fill="none" stroke="black" d="M238.29,-71.7C250.37,-62.8 265.26,-51.82 278.32,-42.2"/>
<polygon fill="black" stroke="black" points="280.62,-44.85 286.59,-36.1 276.47,-39.22 280.62,-44.85"/>
<g id="a_edge2&#45;headlabel"><a xlink:href="dir_000022_000095.html" target="_top" xlink:title="1">
<text text-anchor="middle" x="279.41" y="-46.77" font-family="Helvetica,sans-Serif" font-size="10.00">1</text>
</a>
</g>
</g>
<!-- dir_d2942b6148df0ab9010d67087a1cea59&#45;&gt;dir_4816d2fb8abcfd1fbfb7e56b67e0baa1 -->
<g id="edge3" class="edge">
<title>dir_d2942b6148df0ab9010d67087a1cea59&#45;&gt;dir_4816d2fb8abcfd1fbfb7e56b67e0baa1</title>
<path fill="none" stroke="black" d="M244.62,-153.3C221.04,-145.37 187.39,-130.92 165.81,-108 149.41,-90.58 139.49,-65 133.92,-45.73"/>
<polygon fill="black" stroke="black" points="137.3,-44.79 131.33,-36.04 130.53,-46.6 137.3,-44.79"/>
<g id="a_edge3&#45;headlabel"><a xlink:href="dir_000040_000019.html" target="_top" xlink:title="1">
<text text-anchor="middle" x="140.97" y="-45.03" font-family="Helvetica,sans-Serif" font-size="10.00">1</text>
</a>
</g>
</g>
<!-- dir_d2942b6148df0ab9010d67087a1cea59&#45;&gt;dir_1a5504e72c2ab618c124e6472b08d26c -->
<g id="edge4" class="edge">
<title>dir_d2942b6148df0ab9010d67087a1cea59&#45;&gt;dir_1a5504e72c2ab618c124e6472b08d26c</title>
<path fill="none" stroke="black" d="M276.39,-143.87C282.9,-119.56 294.87,-74.82 302.58,-46.01"/>
<polygon fill="black" stroke="black" points="306,-46.75 305.21,-36.19 299.24,-44.94 306,-46.75"/>
<g id="a_edge4&#45;headlabel"><a xlink:href="dir_000040_000095.html" target="_top" xlink:title="1">
<text text-anchor="middle" x="307.82" y="-48.46" font-family="Helvetica,sans-Serif" font-size="10.00">1</text>
</a>
</g>
</g>
<!-- dir_d2942b6148df0ab9010d67087a1cea59&#45;&gt;dir_6a49a4a01df89ea000e629175e7db917 -->
<g id="edge5" class="edge">
<title>dir_d2942b6148df0ab9010d67087a1cea59&#45;&gt;dir_6a49a4a01df89ea000e629175e7db917</title>
<path fill="none" stroke="black" d="M288.12,-143.7C296.11,-135.22 305.88,-124.86 314.63,-115.58"/>
<polygon fill="black" stroke="black" points="317.37,-117.78 321.68,-108.1 312.27,-112.98 317.37,-117.78"/>
<g id="a_edge5&#45;headlabel"><a xlink:href="dir_000040_000067.html" target="_top" xlink:title="1">
<text text-anchor="middle" x="316.97" y="-119.84" font-family="Helvetica,sans-Serif" font-size="10.00">1</text>
</a>
</g>
</g>
<!-- dir_4ca6fec43e1013816363be86d31756d6&#45;&gt;dir_4816d2fb8abcfd1fbfb7e56b67e0baa1 -->
<g id="edge6" class="edge">
<title>dir_4ca6fec43e1013816363be86d31756d6&#45;&gt;dir_4816d2fb8abcfd1fbfb7e56b67e0baa1</title>
<path fill="none" stroke="black" d="M67.58,-71.7C77.56,-62.97 89.82,-52.24 100.66,-42.75"/>
<polygon fill="black" stroke="black" points="103.04,-45.32 108.26,-36.1 98.43,-40.06 103.04,-45.32"/>
<g id="a_edge6&#45;headlabel"><a xlink:href="dir_000011_000019.html" target="_top" xlink:title="4">
<text text-anchor="middle" x="102.2" y="-47.33" font-family="Helvetica,sans-Serif" font-size="10.00">4</text>
</a>
</g>
</g>
<!-- dir_4ca6fec43e1013816363be86d31756d6&#45;&gt;dir_1a5504e72c2ab618c124e6472b08d26c -->
<g id="edge7" class="edge">
<title>dir_4ca6fec43e1013816363be86d31756d6&#45;&gt;dir_1a5504e72c2ab618c124e6472b08d26c</title>
<path fill="none" stroke="black" d="M80.99,-80.13C124.84,-68.42 202.67,-47.62 255.24,-33.58"/>
<polygon fill="black" stroke="black" points="256.32,-36.91 265.08,-30.95 254.51,-30.15 256.32,-36.91"/>
<g id="a_edge7&#45;headlabel"><a xlink:href="dir_000011_000095.html" target="_top" xlink:title="4">
<text text-anchor="middle" x="253.58" y="-38.08" font-family="Helvetica,sans-Serif" font-size="10.00">4</text>
</a>
</g>
</g>
<!-- dir_4d0b0adf7e9fb892c3df556e9cbb05d0&#45;&gt;dir_d2942b6148df0ab9010d67087a1cea59 -->
<g id="edge16" class="edge">
<title>dir_4d0b0adf7e9fb892c3df556e9cbb05d0&#45;&gt;dir_d2942b6148df0ab9010d67087a1cea59</title>
<path fill="none" stroke="black" d="M292.13,-215.7C289.09,-207.81 285.42,-198.3 282.05,-189.55"/>
<polygon fill="black" stroke="black" points="285.27,-188.17 278.4,-180.1 278.74,-190.69 285.27,-188.17"/>
<g id="a_edge16&#45;headlabel"><a xlink:href="dir_000060_000040.html" target="_top" xlink:title="1">
<text text-anchor="middle" x="289.21" y="-188.01" font-family="Helvetica,sans-Serif" font-size="10.00">1</text>
</a>
</g>
</g>
<!-- dir_4d0b0adf7e9fb892c3df556e9cbb05d0&#45;&gt;dir_4816d2fb8abcfd1fbfb7e56b67e0baa1 -->
<g id="edge17" class="edge">
<title>dir_4d0b0adf7e9fb892c3df556e9cbb05d0&#45;&gt;dir_4816d2fb8abcfd1fbfb7e56b67e0baa1</title>
<path fill="none" stroke="black" d="M267.72,-218.05C230.54,-198.39 169.6,-160.13 139.81,-108 129.14,-89.33 126.48,-64.94 126.3,-46.42"/>
<polygon fill="black" stroke="black" points="129.8,-46.32 126.44,-36.28 122.8,-46.23 129.8,-46.32"/>
<g id="a_edge17&#45;headlabel"><a xlink:href="dir_000060_000019.html" target="_top" xlink:title="7">
<text text-anchor="middle" x="132.59" y="-47.46" font-family="Helvetica,sans-Serif" font-size="10.00">7</text>
</a>
</g>
</g>
<!-- dir_4d0b0adf7e9fb892c3df556e9cbb05d0&#45;&gt;dir_1a5504e72c2ab618c124e6472b08d26c -->
<g id="edge18" class="edge">
<title>dir_4d0b0adf7e9fb892c3df556e9cbb05d0&#45;&gt;dir_1a5504e72c2ab618c124e6472b08d26c</title>
<path fill="none" stroke="black" d="M313.43,-215.83C331.8,-192.98 362.31,-150.51 373.81,-108 377.98,-92.55 380.62,-86.48 373.81,-72 368.28,-60.26 358.74,-50.22 348.68,-42.15"/>
<polygon fill="black" stroke="black" points="350.68,-39.27 340.58,-36.09 346.5,-44.88 350.68,-39.27"/>
<g id="a_edge18&#45;headlabel"><a xlink:href="dir_000060_000095.html" target="_top" xlink:title="7">
<text text-anchor="middle" x="355.26" y="-36.65" font-family="Helvetica,sans-Serif" font-size="10.00">7</text>
</a>
</g>
</g>
<!-- dir_4d0b0adf7e9fb892c3df556e9cbb05d0&#45;&gt;dir_6a49a4a01df89ea000e629175e7db917 -->
<g id="edge19" class="edge">
<title>dir_4d0b0adf7e9fb892c3df556e9cbb05d0&#45;&gt;dir_6a49a4a01df89ea000e629175e7db917</title>
<path fill="none" stroke="black" d="M303.51,-215.87C310.19,-191.56 322.48,-146.82 330.39,-118.01"/>
<polygon fill="black" stroke="black" points="333.81,-118.76 333.09,-108.19 327.06,-116.91 333.81,-118.76"/>
<g id="a_edge19&#45;headlabel"><a xlink:href="dir_000060_000067.html" target="_top" xlink:title="3">
<text text-anchor="middle" x="335.6" y="-120.48" font-family="Helvetica,sans-Serif" font-size="10.00">3</text>
</a>
</g>
</g>
<!-- dir_6a49a4a01df89ea000e629175e7db917&#45;&gt;dir_4816d2fb8abcfd1fbfb7e56b67e0baa1 -->
<g id="edge21" class="edge">
<title>dir_6a49a4a01df89ea000e629175e7db917&#45;&gt;dir_4816d2fb8abcfd1fbfb7e56b67e0baa1</title>
<path fill="none" stroke="black" d="M310.78,-79.99C276.94,-68.71 218.34,-49.18 176.57,-35.26"/>
<polygon fill="black" stroke="black" points="177.47,-31.86 166.87,-32.02 175.25,-38.5 177.47,-31.86"/>
<g id="a_edge21&#45;headlabel"><a xlink:href="dir_000067_000019.html" target="_top" xlink:title="2">
<text text-anchor="middle" x="181.78" y="-27.81" font-family="Helvetica,sans-Serif" font-size="10.00">2</text>
</a>
</g>
</g>
<!-- dir_6a49a4a01df89ea000e629175e7db917&#45;&gt;dir_1a5504e72c2ab618c124e6472b08d26c -->
<g id="edge22" class="edge">
<title>dir_6a49a4a01df89ea000e629175e7db917&#45;&gt;dir_1a5504e72c2ab618c124e6472b08d26c</title>
<path fill="none" stroke="black" d="M330.89,-71.7C327.73,-63.81 323.93,-54.3 320.43,-45.55"/>
<polygon fill="black" stroke="black" points="323.61,-44.09 316.65,-36.1 317.11,-46.69 323.61,-44.09"/>
<g id="a_edge22&#45;headlabel"><a xlink:href="dir_000067_000095.html" target="_top" xlink:title="2">
<text text-anchor="middle" x="327.58" y="-43.87" font-family="Helvetica,sans-Serif" font-size="10.00">2</text>
</a>
</g>
</g>
</g>
</svg>
