<?xml version="1.0" encoding="UTF-8" standalone="no"?>
<!DOCTYPE svg PUBLIC "-//W3C//DTD SVG 1.1//EN"
 "http://www.w3.org/Graphics/SVG/1.1/DTD/svg11.dtd">
<!-- Generated by graphviz version 2.43.0 (0)
 -->
<!-- Title: Components Pages: 1 -->
<svg width="530pt" height="508pt"
 viewBox="0.00 0.00 530.00 508.00" xmlns="http://www.w3.org/2000/svg" xmlns:xlink="http://www.w3.org/1999/xlink">
<g id="graph0" class="graph" transform="scale(1 1) rotate(0) translate(4 504)">
<title>Components</title>
<g id="clust1" class="cluster">
<title>clusterdir_08f45fe6822aeb4ce2bc268e3b1361be</title>
<g id="a_clust1"><a xlink:href="dir_08f45fe6822aeb4ce2bc268e3b1361be.html" target="_top">
<polygon fill="#eeeeff" stroke="black" points="8,-8 8,-492 514,-492 514,-8 8,-8"/>
</a>
</g>
</g>
<!-- dir_08f45fe6822aeb4ce2bc268e3b1361be -->
<g id="node1" class="node">
<title>dir_08f45fe6822aeb4ce2bc268e3b1361be</title>
<text text-anchor="middle" x="446" y="-463.5" font-family="Helvetica,sans-Serif" font-size="10.00">Components</text>
</g>
<!-- dir_8efbaa1056a51686757185dce0bc8da0 -->
<g id="node2" class="node">
<title>dir_8efbaa1056a51686757185dce0bc8da0</title>
<g id="a_node2"><a xlink:href="dir_8efbaa1056a51686757185dce0bc8da0.html" target="_top" xlink:title="Actuator">
<polygon fill="white" stroke="red" points="250,-412 192,-412 192,-376 250,-376 250,-412"/>
<text text-anchor="middle" x="221" y="-391.5" font-family="Helvetica,sans-Serif" font-size="10.00">Actuator</text>
</a>
</g>
</g>
<!-- dir_1a5504e72c2ab618c124e6472b08d26c -->
<g id="node7" class="node">
<title>dir_1a5504e72c2ab618c124e6472b08d26c</title>
<g id="a_node7"><a xlink:href="dir_1a5504e72c2ab618c124e6472b08d26c.html" target="_top" xlink:title="Global_Include">
<polygon fill="white" stroke="black" points="281.5,-52 192.5,-52 192.5,-16 281.5,-16 281.5,-52"/>
<text text-anchor="middle" x="237" y="-31.5" font-family="Helvetica,sans-Serif" font-size="10.00">Global_Include</text>
</a>
</g>
</g>
<!-- dir_8efbaa1056a51686757185dce0bc8da0&#45;&gt;dir_1a5504e72c2ab618c124e6472b08d26c -->
<g id="edge33" class="edge">
<title>dir_8efbaa1056a51686757185dce0bc8da0&#45;&gt;dir_1a5504e72c2ab618c124e6472b08d26c</title>
<path fill="none" stroke="black" d="M217.58,-375.87C213.45,-357.38 205.47,-327.46 193,-304 158.01,-238.18 82.81,-230.51 107,-160 122.46,-114.93 165.49,-79.27 197.84,-57.76"/>
<polygon fill="black" stroke="black" points="200.14,-60.44 206.65,-52.07 196.35,-54.55 200.14,-60.44"/>
<g id="a_edge33&#45;headlabel"><a xlink:href="dir_000002_000127.html" target="_top" xlink:title="1">
<text text-anchor="middle" x="198.66" y="-62.27" font-family="Helvetica,sans-Serif" font-size="10.00">1</text>
</a>
</g>
</g>
<!-- dir_e185953657720ba3a67126696ef566c7 -->
<g id="node8" class="node">
<title>dir_e185953657720ba3a67126696ef566c7</title>
<g id="a_node8"><a xlink:href="dir_e185953657720ba3a67126696ef566c7.html" target="_top" xlink:title="Interfaces">
<polygon fill="white" stroke="red" points="373.5,-340 308.5,-340 308.5,-304 373.5,-304 373.5,-340"/>
<text text-anchor="middle" x="341" y="-319.5" font-family="Helvetica,sans-Serif" font-size="10.00">Interfaces</text>
</a>
</g>
</g>
<!-- dir_8efbaa1056a51686757185dce0bc8da0&#45;&gt;dir_e185953657720ba3a67126696ef566c7 -->
<g id="edge34" class="edge">
<title>dir_8efbaa1056a51686757185dce0bc8da0&#45;&gt;dir_e185953657720ba3a67126696ef566c7</title>
<path fill="none" stroke="black" d="M250.05,-376.05C266,-366.75 285.96,-355.11 303.12,-345.1"/>
<polygon fill="black" stroke="black" points="304.93,-348.09 311.8,-340.03 301.4,-342.05 304.93,-348.09"/>
<g id="a_edge34&#45;headlabel"><a xlink:href="dir_000002_000094.html" target="_top" xlink:title="1">
<text text-anchor="middle" x="303.25" y="-349.86" font-family="Helvetica,sans-Serif" font-size="10.00">1</text>
</a>
</g>
</g>
<!-- dir_a4226c5615a06a31e6344f5f3fd917e1 -->
<g id="node9" class="node">
<title>dir_a4226c5615a06a31e6344f5f3fd917e1</title>
<g id="a_node9"><a xlink:href="dir_a4226c5615a06a31e6344f5f3fd917e1.html" target="_top" xlink:title="Objects">
<polygon fill="white" stroke="red" points="300,-268 246,-268 246,-232 300,-232 300,-268"/>
<text text-anchor="middle" x="273" y="-247.5" font-family="Helvetica,sans-Serif" font-size="10.00">Objects</text>
</a>
</g>
</g>
<!-- dir_8efbaa1056a51686757185dce0bc8da0&#45;&gt;dir_a4226c5615a06a31e6344f5f3fd917e1 -->
<g id="edge32" class="edge">
<title>dir_8efbaa1056a51686757185dce0bc8da0&#45;&gt;dir_a4226c5615a06a31e6344f5f3fd917e1</title>
<path fill="none" stroke="black" d="M227.27,-375.87C236.21,-351.46 252.7,-306.43 263.25,-277.64"/>
<polygon fill="black" stroke="black" points="266.55,-278.78 266.71,-268.19 259.98,-276.38 266.55,-278.78"/>
<g id="a_edge32&#45;headlabel"><a xlink:href="dir_000002_000020.html" target="_top" xlink:title="3">
<text text-anchor="middle" x="267.98" y="-280.63" font-family="Helvetica,sans-Serif" font-size="10.00">3</text>
</a>
</g>
</g>
<!-- dir_1666c5f4940eb69dc85cb0f1045c5123 -->
<g id="node3" class="node">
<title>dir_1666c5f4940eb69dc85cb0f1045c5123</title>
<g id="a_node3"><a xlink:href="dir_1666c5f4940eb69dc85cb0f1045c5123.html" target="_top" xlink:title="AnalysisTools">
<polygon fill="white" stroke="red" points="183.5,-340 100.5,-340 100.5,-304 183.5,-304 183.5,-340"/>
<text text-anchor="middle" x="142" y="-319.5" font-family="Helvetica,sans-Serif" font-size="10.00">AnalysisTools</text>
</a>
</g>
</g>
<!-- dir_1666c5f4940eb69dc85cb0f1045c5123&#45;&gt;dir_1a5504e72c2ab618c124e6472b08d26c -->
<g id="edge21" class="edge">
<title>dir_1666c5f4940eb69dc85cb0f1045c5123&#45;&gt;dir_1a5504e72c2ab618c124e6472b08d26c</title>
<path fill="none" stroke="black" d="M107.32,-303.83C93.69,-295.13 79.53,-283.15 72,-268 54.19,-232.18 48.43,-120.32 72,-88 96.95,-53.78 144.35,-41.17 181.97,-36.75"/>
<polygon fill="black" stroke="black" points="182.69,-40.19 192.29,-35.71 181.99,-33.23 182.69,-40.19"/>
<g id="a_edge21&#45;headlabel"><a xlink:href="dir_000008_000127.html" target="_top" xlink:title="4">
<text text-anchor="middle" x="179.4" y="-40.88" font-family="Helvetica,sans-Serif" font-size="10.00">4</text>
</a>
</g>
</g>
<!-- dir_1666c5f4940eb69dc85cb0f1045c5123&#45;&gt;dir_a4226c5615a06a31e6344f5f3fd917e1 -->
<g id="edge20" class="edge">
<title>dir_1666c5f4940eb69dc85cb0f1045c5123&#45;&gt;dir_a4226c5615a06a31e6344f5f3fd917e1</title>
<path fill="none" stroke="black" d="M174.05,-303.88C193.01,-293.74 217.09,-280.88 236.74,-270.37"/>
<polygon fill="black" stroke="black" points="238.54,-273.38 245.71,-265.58 235.24,-267.21 238.54,-273.38"/>
<g id="a_edge20&#45;headlabel"><a xlink:href="dir_000008_000020.html" target="_top" xlink:title="6">
<text text-anchor="middle" x="236.71" y="-275.08" font-family="Helvetica,sans-Serif" font-size="10.00">6</text>
</a>
</g>
</g>
<!-- dir_d51af3390b888212b7370bb96b9206da -->
<g id="node4" class="node">
<title>dir_d51af3390b888212b7370bb96b9206da</title>
<g id="a_node4"><a xlink:href="dir_d51af3390b888212b7370bb96b9206da.html" target="_top" xlink:title="Boards">
<polygon fill="white" stroke="red" points="446,-340 392,-340 392,-304 446,-304 446,-340"/>
<text text-anchor="middle" x="419" y="-319.5" font-family="Helvetica,sans-Serif" font-size="10.00">Boards</text>
</a>
</g>
</g>
<!-- dir_d51af3390b888212b7370bb96b9206da&#45;&gt;dir_1a5504e72c2ab618c124e6472b08d26c -->
<g id="edge23" class="edge">
<title>dir_d51af3390b888212b7370bb96b9206da&#45;&gt;dir_1a5504e72c2ab618c124e6472b08d26c</title>
<path fill="none" stroke="black" d="M424.07,-303.84C435.84,-259.98 459.51,-143.35 397,-88 367.81,-62.16 325.68,-48.86 291.97,-42.05"/>
<polygon fill="black" stroke="black" points="292.28,-38.54 281.8,-40.13 290.98,-45.42 292.28,-38.54"/>
<g id="a_edge23&#45;headlabel"><a xlink:href="dir_000012_000127.html" target="_top" xlink:title="2">
<text text-anchor="middle" x="296.34" y="-33.92" font-family="Helvetica,sans-Serif" font-size="10.00">2</text>
</a>
</g>
</g>
<!-- dir_d51af3390b888212b7370bb96b9206da&#45;&gt;dir_a4226c5615a06a31e6344f5f3fd917e1 -->
<g id="edge22" class="edge">
<title>dir_d51af3390b888212b7370bb96b9206da&#45;&gt;dir_a4226c5615a06a31e6344f5f3fd917e1</title>
<path fill="none" stroke="black" d="M391.88,-308C368.67,-296.87 335.06,-280.75 309.49,-268.5"/>
<polygon fill="black" stroke="black" points="311,-265.34 300.47,-264.17 307.97,-271.65 311,-265.34"/>
<g id="a_edge22&#45;headlabel"><a xlink:href="dir_000012_000020.html" target="_top" xlink:title="2">
<text text-anchor="middle" x="315.47" y="-261.83" font-family="Helvetica,sans-Serif" font-size="10.00">2</text>
</a>
</g>
</g>
<!-- dir_4ca6fec43e1013816363be86d31756d6 -->
<g id="node5" class="node">
<title>dir_4ca6fec43e1013816363be86d31756d6</title>
<g id="a_node5"><a xlink:href="dir_4ca6fec43e1013816363be86d31756d6.html" target="_top" xlink:title="Connector">
<polygon fill="white" stroke="red" points="182,-196 116,-196 116,-160 182,-160 182,-196"/>
<text text-anchor="middle" x="149" y="-175.5" font-family="Helvetica,sans-Serif" font-size="10.00">Connector</text>
</a>
</g>
</g>
<!-- dir_4ca6fec43e1013816363be86d31756d6&#45;&gt;dir_1a5504e72c2ab618c124e6472b08d26c -->
<g id="edge28" class="edge">
<title>dir_4ca6fec43e1013816363be86d31756d6&#45;&gt;dir_1a5504e72c2ab618c124e6472b08d26c</title>
<path fill="none" stroke="black" d="M154.07,-159.67C160,-141.02 170.96,-110.95 186,-88 192.71,-77.76 201.55,-67.75 209.99,-59.24"/>
<polygon fill="black" stroke="black" points="212.51,-61.67 217.23,-52.18 207.62,-56.65 212.51,-61.67"/>
<g id="a_edge28&#45;headlabel"><a xlink:href="dir_000016_000127.html" target="_top" xlink:title="4">
<text text-anchor="middle" x="211.92" y="-63.71" font-family="Helvetica,sans-Serif" font-size="10.00">4</text>
</a>
</g>
</g>
<!-- dir_4ca6fec43e1013816363be86d31756d6&#45;&gt;dir_a4226c5615a06a31e6344f5f3fd917e1 -->
<g id="edge27" class="edge">
<title>dir_4ca6fec43e1013816363be86d31756d6&#45;&gt;dir_a4226c5615a06a31e6344f5f3fd917e1</title>
<path fill="none" stroke="black" d="M182.2,-194.51C200.01,-203.94 221.82,-216.13 239.64,-226.59"/>
<polygon fill="black" stroke="black" points="238.18,-229.79 248.56,-231.88 241.75,-223.77 238.18,-229.79"/>
<g id="a_edge27&#45;headlabel"><a xlink:href="dir_000016_000020.html" target="_top" xlink:title="5">
<text text-anchor="middle" x="233.64" y="-227.9" font-family="Helvetica,sans-Serif" font-size="10.00">5</text>
</a>
</g>
</g>
<!-- dir_410074523dc77f19fbc712633e7470ae -->
<g id="node6" class="node">
<title>dir_410074523dc77f19fbc712633e7470ae</title>
<g id="a_node6"><a xlink:href="dir_410074523dc77f19fbc712633e7470ae.html" target="_top" xlink:title="Controller">
<polygon fill="white" stroke="red" points="305.5,-196 240.5,-196 240.5,-160 305.5,-160 305.5,-196"/>
<text text-anchor="middle" x="273" y="-175.5" font-family="Helvetica,sans-Serif" font-size="10.00">Controller</text>
</a>
</g>
</g>
<!-- dir_410074523dc77f19fbc712633e7470ae&#45;&gt;dir_1a5504e72c2ab618c124e6472b08d26c -->
<g id="edge30" class="edge">
<title>dir_410074523dc77f19fbc712633e7470ae&#45;&gt;dir_1a5504e72c2ab618c124e6472b08d26c</title>
<path fill="none" stroke="black" d="M275.93,-159.83C278.38,-141.57 280.4,-112.07 273,-88 269.99,-78.22 264.49,-68.62 258.68,-60.33"/>
<polygon fill="black" stroke="black" points="261.41,-58.13 252.61,-52.23 255.81,-62.33 261.41,-58.13"/>
<g id="a_edge30&#45;headlabel"><a xlink:href="dir_000091_000127.html" target="_top" xlink:title="1">
<text text-anchor="middle" x="265.83" y="-56.8" font-family="Helvetica,sans-Serif" font-size="10.00">1</text>
</a>
</g>
</g>
<!-- dir_410074523dc77f19fbc712633e7470ae&#45;&gt;dir_e185953657720ba3a67126696ef566c7 -->
<g id="edge31" class="edge">
<title>dir_410074523dc77f19fbc712633e7470ae&#45;&gt;dir_e185953657720ba3a67126696ef566c7</title>
<path fill="none" stroke="black" d="M286.5,-196.46C293.82,-206.48 302.64,-219.51 309,-232 319.2,-252.03 327.64,-276.09 333.29,-294.14"/>
<polygon fill="black" stroke="black" points="329.95,-295.19 336.21,-303.74 336.65,-293.15 329.95,-295.19"/>
<g id="a_edge31&#45;headlabel"><a xlink:href="dir_000091_000094.html" target="_top" xlink:title="1">
<text text-anchor="middle" x="326.19" y="-290.08" font-family="Helvetica,sans-Serif" font-size="10.00">1</text>
</a>
</g>
</g>
<!-- dir_410074523dc77f19fbc712633e7470ae&#45;&gt;dir_a4226c5615a06a31e6344f5f3fd917e1 -->
<g id="edge29" class="edge">
<title>dir_410074523dc77f19fbc712633e7470ae&#45;&gt;dir_a4226c5615a06a31e6344f5f3fd917e1</title>
<path fill="none" stroke="black" d="M278.9,-196.1C279.7,-203.79 279.94,-213.05 279.6,-221.67"/>
<polygon fill="black" stroke="black" points="276.11,-221.48 278.92,-231.7 283.09,-221.96 276.11,-221.48"/>
<g id="a_edge29&#45;headlabel"><a xlink:href="dir_000091_000020.html" target="_top" xlink:title="3">
<text text-anchor="middle" x="273.52" y="-215.2" font-family="Helvetica,sans-Serif" font-size="10.00">3</text>
</a>
</g>
</g>
<!-- dir_e185953657720ba3a67126696ef566c7&#45;&gt;dir_1a5504e72c2ab618c124e6472b08d26c -->
<g id="edge41" class="edge">
<title>dir_e185953657720ba3a67126696ef566c7&#45;&gt;dir_1a5504e72c2ab618c124e6472b08d26c</title>
<path fill="none" stroke="black" d="M370.55,-303.77C383.6,-294.71 398,-282.48 407,-268 432.63,-226.8 436.84,-206.51 423,-160 412.1,-123.37 405.75,-111.98 376,-88 351.55,-68.3 318.98,-55.36 291.51,-47.2"/>
<polygon fill="black" stroke="black" points="292.22,-43.76 281.64,-44.4 290.31,-50.49 292.22,-43.76"/>
<g id="a_edge41&#45;headlabel"><a xlink:href="dir_000094_000127.html" target="_top" xlink:title="12">
<text text-anchor="middle" x="296.45" y="-39.51" font-family="Helvetica,sans-Serif" font-size="10.00">12</text>
</a>
</g>
</g>
<!-- dir_e185953657720ba3a67126696ef566c7&#45;&gt;dir_a4226c5615a06a31e6344f5f3fd917e1 -->
<g id="edge40" class="edge">
<title>dir_e185953657720ba3a67126696ef566c7&#45;&gt;dir_a4226c5615a06a31e6344f5f3fd917e1</title>
<path fill="none" stroke="black" d="M318.28,-303.7C309.17,-295.22 298.92,-284.86 290.4,-275.58"/>
<polygon fill="black" stroke="black" points="292.99,-273.23 283.72,-268.1 287.77,-277.89 292.99,-273.23"/>
<g id="a_edge40&#45;headlabel"><a xlink:href="dir_000094_000020.html" target="_top" xlink:title="20">
<text text-anchor="middle" x="297.51" y="-271.52" font-family="Helvetica,sans-Serif" font-size="10.00">20</text>
</a>
</g>
</g>
<!-- dir_4d0b0adf7e9fb892c3df556e9cbb05d0 -->
<g id="node10" class="node">
<title>dir_4d0b0adf7e9fb892c3df556e9cbb05d0</title>
<g id="a_node10"><a xlink:href="dir_4d0b0adf7e9fb892c3df556e9cbb05d0.html" target="_top" xlink:title="Protocols">
<polygon fill="white" stroke="red" points="406,-196 344,-196 344,-160 406,-160 406,-196"/>
<text text-anchor="middle" x="375" y="-175.5" font-family="Helvetica,sans-Serif" font-size="10.00">Protocols</text>
</a>
</g>
</g>
<!-- dir_e185953657720ba3a67126696ef566c7&#45;&gt;dir_4d0b0adf7e9fb892c3df556e9cbb05d0 -->
<g id="edge42" class="edge">
<title>dir_e185953657720ba3a67126696ef566c7&#45;&gt;dir_4d0b0adf7e9fb892c3df556e9cbb05d0</title>
<path fill="none" stroke="black" d="M340.52,-303.87C343.77,-279.56 354.2,-234.82 363.1,-206.01"/>
<polygon fill="black" stroke="black" points="366.53,-206.78 366.29,-196.19 359.87,-204.62 366.53,-206.78"/>
<g id="a_edge42&#45;headlabel"><a xlink:href="dir_000094_000063.html" target="_top" xlink:title="4">
<text text-anchor="middle" x="368.12" y="-208.58" font-family="Helvetica,sans-Serif" font-size="10.00">4</text>
</a>
</g>
</g>
<!-- dir_6a49a4a01df89ea000e629175e7db917 -->
<g id="node11" class="node">
<title>dir_6a49a4a01df89ea000e629175e7db917</title>
<g id="a_node11"><a xlink:href="dir_6a49a4a01df89ea000e629175e7db917.html" target="_top" xlink:title="RTOS">
<polygon fill="white" stroke="red" points="356,-124 302,-124 302,-88 356,-88 356,-124"/>
<text text-anchor="middle" x="329" y="-103.5" font-family="Helvetica,sans-Serif" font-size="10.00">RTOS</text>
</a>
</g>
</g>
<!-- dir_e185953657720ba3a67126696ef566c7&#45;&gt;dir_6a49a4a01df89ea000e629175e7db917 -->
<g id="edge43" class="edge">
<title>dir_e185953657720ba3a67126696ef566c7&#45;&gt;dir_6a49a4a01df89ea000e629175e7db917</title>
<path fill="none" stroke="black" d="M359.86,-303.64C390.07,-273.65 443.19,-210.5 415,-160 404.37,-140.96 383.78,-127.92 365.41,-119.53"/>
<polygon fill="black" stroke="black" points="366.65,-116.25 356.08,-115.56 363.91,-122.69 366.65,-116.25"/>
<g id="a_edge43&#45;headlabel"><a xlink:href="dir_000094_000070.html" target="_top" xlink:title="4">
<text text-anchor="middle" x="371.07" y="-112.54" font-family="Helvetica,sans-Serif" font-size="10.00">4</text>
</a>
</g>
</g>
<!-- dir_a4226c5615a06a31e6344f5f3fd917e1&#45;&gt;dir_4ca6fec43e1013816363be86d31756d6 -->
<g id="edge2" class="edge">
<title>dir_a4226c5615a06a31e6344f5f3fd917e1&#45;&gt;dir_4ca6fec43e1013816363be86d31756d6</title>
<path fill="none" stroke="black" d="M245.83,-236.65C227.1,-226.91 202.25,-213.08 182.35,-201.41"/>
<polygon fill="black" stroke="black" points="183.98,-198.31 173.59,-196.22 180.41,-204.33 183.98,-198.31"/>
<g id="a_edge2&#45;headlabel"><a xlink:href="dir_000020_000016.html" target="_top" xlink:title="1">
<text text-anchor="middle" x="188.52" y="-195.2" font-family="Helvetica,sans-Serif" font-size="10.00">1</text>
</a>
</g>
</g>
<!-- dir_a4226c5615a06a31e6344f5f3fd917e1&#45;&gt;dir_410074523dc77f19fbc712633e7470ae -->
<g id="edge3" class="edge">
<title>dir_a4226c5615a06a31e6344f5f3fd917e1&#45;&gt;dir_410074523dc77f19fbc712633e7470ae</title>
<path fill="none" stroke="black" d="M267.08,-231.7C266.29,-223.98 266.06,-214.71 266.4,-206.11"/>
<polygon fill="black" stroke="black" points="269.9,-206.32 267.1,-196.1 262.92,-205.84 269.9,-206.32"/>
<g id="a_edge3&#45;headlabel"><a xlink:href="dir_000020_000091.html" target="_top" xlink:title="1">
<text text-anchor="middle" x="272.48" y="-207.61" font-family="Helvetica,sans-Serif" font-size="10.00">1</text>
</a>
</g>
</g>
<!-- dir_a4226c5615a06a31e6344f5f3fd917e1&#45;&gt;dir_1a5504e72c2ab618c124e6472b08d26c -->
<g id="edge4" class="edge">
<title>dir_a4226c5615a06a31e6344f5f3fd917e1&#45;&gt;dir_1a5504e72c2ab618c124e6472b08d26c</title>
<path fill="none" stroke="black" d="M252.62,-231.61C242.47,-222.01 230.75,-209.34 223,-196 206.19,-167.07 205.94,-157.09 201,-124 198.64,-108.18 196.3,-103.29 201,-88 204.01,-78.22 209.51,-68.62 215.32,-60.33"/>
<polygon fill="black" stroke="black" points="218.19,-62.33 221.39,-52.23 212.59,-58.13 218.19,-62.33"/>
<g id="a_edge4&#45;headlabel"><a xlink:href="dir_000020_000127.html" target="_top" xlink:title="26">
<text text-anchor="middle" x="218.31" y="-64.41" font-family="Helvetica,sans-Serif" font-size="10.00">26</text>
</a>
</g>
</g>
<!-- dir_a4226c5615a06a31e6344f5f3fd917e1&#45;&gt;dir_e185953657720ba3a67126696ef566c7 -->
<g id="edge6" class="edge">
<title>dir_a4226c5615a06a31e6344f5f3fd917e1&#45;&gt;dir_e185953657720ba3a67126696ef566c7</title>
<path fill="none" stroke="black" d="M295.51,-268.1C304.6,-276.55 314.85,-286.9 323.4,-296.2"/>
<polygon fill="black" stroke="black" points="320.83,-298.58 330.11,-303.7 326.05,-293.91 320.83,-298.58"/>
<g id="a_edge6&#45;headlabel"><a xlink:href="dir_000020_000094.html" target="_top" xlink:title="8">
<text text-anchor="middle" x="316.32" y="-295.29" font-family="Helvetica,sans-Serif" font-size="10.00">8</text>
</a>
</g>
</g>
<!-- dir_a4226c5615a06a31e6344f5f3fd917e1&#45;&gt;dir_4d0b0adf7e9fb892c3df556e9cbb05d0 -->
<g id="edge5" class="edge">
<title>dir_a4226c5615a06a31e6344f5f3fd917e1&#45;&gt;dir_4d0b0adf7e9fb892c3df556e9cbb05d0</title>
<path fill="none" stroke="black" d="M292.3,-231.7C304.58,-222.63 320.78,-211.4 335.63,-201.65"/>
<polygon fill="black" stroke="black" points="337.7,-204.48 344.18,-196.1 333.89,-198.61 337.7,-204.48"/>
<g id="a_edge5&#45;headlabel"><a xlink:href="dir_000020_000063.html" target="_top" xlink:title="3">
<text text-anchor="middle" x="336.23" y="-206.32" font-family="Helvetica,sans-Serif" font-size="10.00">3</text>
</a>
</g>
</g>
<!-- dir_a4226c5615a06a31e6344f5f3fd917e1&#45;&gt;dir_6a49a4a01df89ea000e629175e7db917 -->
<g id="edge7" class="edge">
<title>dir_a4226c5615a06a31e6344f5f3fd917e1&#45;&gt;dir_6a49a4a01df89ea000e629175e7db917</title>
<path fill="none" stroke="black" d="M282.35,-231.89C290.12,-222.18 300.16,-209.33 306,-196 314.61,-176.36 318.01,-152.23 320.7,-134.05"/>
<polygon fill="black" stroke="black" points="324.17,-134.54 322.23,-124.12 317.25,-133.47 324.17,-134.54"/>
<g id="a_edge7&#45;headlabel"><a xlink:href="dir_000020_000070.html" target="_top" xlink:title="4">
<text text-anchor="middle" x="326.42" y="-136.02" font-family="Helvetica,sans-Serif" font-size="10.00">4</text>
</a>
</g>
</g>
<!-- dir_c2cd4762e89f989d55fa2b0634ddfc81 -->
<g id="node16" class="node">
<title>dir_c2cd4762e89f989d55fa2b0634ddfc81</title>
<g id="a_node16"><a xlink:href="dir_c2cd4762e89f989d55fa2b0634ddfc81.html" target="_top" xlink:title="Utility">
<polygon fill="white" stroke="red" points="264,-124 210,-124 210,-88 264,-88 264,-124"/>
<text text-anchor="middle" x="237" y="-103.5" font-family="Helvetica,sans-Serif" font-size="10.00">Utility</text>
</a>
</g>
</g>
<!-- dir_a4226c5615a06a31e6344f5f3fd917e1&#45;&gt;dir_c2cd4762e89f989d55fa2b0634ddfc81 -->
<g id="edge1" class="edge">
<title>dir_a4226c5615a06a31e6344f5f3fd917e1&#45;&gt;dir_c2cd4762e89f989d55fa2b0634ddfc81</title>
<path fill="none" stroke="black" d="M246.81,-231.68C237.12,-222.1 227.59,-209.43 223,-196 216.15,-175.95 218.06,-151.9 222.69,-133.85"/>
<polygon fill="black" stroke="black" points="226.05,-134.84 225.59,-124.25 219.35,-132.81 226.05,-134.84"/>
<g id="a_edge1&#45;headlabel"><a xlink:href="dir_000020_000085.html" target="_top" xlink:title="2">
<text text-anchor="middle" x="227.72" y="-136.6" font-family="Helvetica,sans-Serif" font-size="10.00">2</text>
</a>
</g>
</g>
<!-- dir_4d0b0adf7e9fb892c3df556e9cbb05d0&#45;&gt;dir_1a5504e72c2ab618c124e6472b08d26c -->
<g id="edge37" class="edge">
<title>dir_4d0b0adf7e9fb892c3df556e9cbb05d0&#45;&gt;dir_1a5504e72c2ab618c124e6472b08d26c</title>
<path fill="none" stroke="black" d="M377.88,-159.73C380.11,-140.3 380.61,-108.75 365,-88 347.5,-64.74 317.93,-51.62 291.62,-44.26"/>
<polygon fill="black" stroke="black" points="292.29,-40.82 281.73,-41.72 290.54,-47.6 292.29,-40.82"/>
<g id="a_edge37&#45;headlabel"><a xlink:href="dir_000063_000127.html" target="_top" xlink:title="11">
<text text-anchor="middle" x="296.48" y="-36.47" font-family="Helvetica,sans-Serif" font-size="10.00">11</text>
</a>
</g>
</g>
<!-- dir_4d0b0adf7e9fb892c3df556e9cbb05d0&#45;&gt;dir_e185953657720ba3a67126696ef566c7 -->
<g id="edge38" class="edge">
<title>dir_4d0b0adf7e9fb892c3df556e9cbb05d0&#45;&gt;dir_e185953657720ba3a67126696ef566c7</title>
<path fill="none" stroke="black" d="M375.48,-196.19C372.21,-220.53 361.78,-265.28 352.88,-294.06"/>
<polygon fill="black" stroke="black" points="349.45,-293.28 349.69,-303.87 356.11,-295.45 349.45,-293.28"/>
<g id="a_edge38&#45;headlabel"><a xlink:href="dir_000063_000094.html" target="_top" xlink:title="3">
<text text-anchor="middle" x="347.86" y="-286.48" font-family="Helvetica,sans-Serif" font-size="10.00">3</text>
</a>
</g>
</g>
<!-- dir_4d0b0adf7e9fb892c3df556e9cbb05d0&#45;&gt;dir_a4226c5615a06a31e6344f5f3fd917e1 -->
<g id="edge35" class="edge">
<title>dir_4d0b0adf7e9fb892c3df556e9cbb05d0&#45;&gt;dir_a4226c5615a06a31e6344f5f3fd917e1</title>
<path fill="none" stroke="black" d="M356.06,-196.04C342.76,-205.87 324.75,-218.31 308.85,-228.65"/>
<polygon fill="black" stroke="black" points="306.79,-225.81 300.27,-234.15 310.57,-231.7 306.79,-225.81"/>
<g id="a_edge35&#45;headlabel"><a xlink:href="dir_000063_000020.html" target="_top" xlink:title="14">
<text text-anchor="middle" x="308.29" y="-218.98" font-family="Helvetica,sans-Serif" font-size="10.00">14</text>
</a>
</g>
</g>
<!-- dir_4d0b0adf7e9fb892c3df556e9cbb05d0&#45;&gt;dir_6a49a4a01df89ea000e629175e7db917 -->
<g id="edge39" class="edge">
<title>dir_4d0b0adf7e9fb892c3df556e9cbb05d0&#45;&gt;dir_6a49a4a01df89ea000e629175e7db917</title>
<path fill="none" stroke="black" d="M363.63,-159.7C358.28,-151.56 351.8,-141.69 345.89,-132.7"/>
<polygon fill="black" stroke="black" points="348.66,-130.54 340.24,-124.1 342.81,-134.38 348.66,-130.54"/>
<g id="a_edge39&#45;headlabel"><a xlink:href="dir_000063_000070.html" target="_top" xlink:title="3">
<text text-anchor="middle" x="353" y="-129.48" font-family="Helvetica,sans-Serif" font-size="10.00">3</text>
</a>
</g>
</g>
<!-- dir_4d0b0adf7e9fb892c3df556e9cbb05d0&#45;&gt;dir_c2cd4762e89f989d55fa2b0634ddfc81 -->
<g id="edge36" class="edge">
<title>dir_4d0b0adf7e9fb892c3df556e9cbb05d0&#45;&gt;dir_c2cd4762e89f989d55fa2b0634ddfc81</title>
<path fill="none" stroke="black" d="M343.69,-161.12C322.81,-150.53 295.3,-136.57 273.44,-125.48"/>
<polygon fill="black" stroke="black" points="274.96,-122.33 264.46,-120.93 271.79,-128.57 274.96,-122.33"/>
<g id="a_edge36&#45;headlabel"><a xlink:href="dir_000063_000085.html" target="_top" xlink:title="1">
<text text-anchor="middle" x="279.45" y="-118.92" font-family="Helvetica,sans-Serif" font-size="10.00">1</text>
</a>
</g>
</g>
<!-- dir_6a49a4a01df89ea000e629175e7db917&#45;&gt;dir_1a5504e72c2ab618c124e6472b08d26c -->
<g id="edge45" class="edge">
<title>dir_6a49a4a01df89ea000e629175e7db917&#45;&gt;dir_1a5504e72c2ab618c124e6472b08d26c</title>
<path fill="none" stroke="black" d="M306.26,-87.7C294.56,-78.8 280.14,-67.82 267.49,-58.2"/>
<polygon fill="black" stroke="black" points="269.56,-55.37 259.48,-52.1 265.32,-60.94 269.56,-55.37"/>
<g id="a_edge45&#45;headlabel"><a xlink:href="dir_000070_000127.html" target="_top" xlink:title="2">
<text text-anchor="middle" x="274.14" y="-52.79" font-family="Helvetica,sans-Serif" font-size="10.00">2</text>
</a>
</g>
</g>
<!-- dir_6a49a4a01df89ea000e629175e7db917&#45;&gt;dir_a4226c5615a06a31e6344f5f3fd917e1 -->
<g id="edge44" class="edge">
<title>dir_6a49a4a01df89ea000e629175e7db917&#45;&gt;dir_a4226c5615a06a31e6344f5f3fd917e1</title>
<path fill="none" stroke="black" d="M335.5,-124.12C337.15,-142.59 334.3,-172.51 324,-196 319.53,-206.21 312.59,-216.13 305.18,-224.58"/>
<polygon fill="black" stroke="black" points="302.61,-222.21 298.3,-231.89 307.7,-227.01 302.61,-222.21"/>
<g id="a_edge44&#45;headlabel"><a xlink:href="dir_000070_000020.html" target="_top" xlink:title="2">
<text text-anchor="middle" x="303" y="-215.15" font-family="Helvetica,sans-Serif" font-size="10.00">2</text>
</a>
</g>
</g>
<!-- dir_82d83c9747486c2eb8d3c4c8f409d82b -->
<g id="node12" class="node">
<title>dir_82d83c9747486c2eb8d3c4c8f409d82b</title>
<g id="a_node12"><a xlink:href="dir_82d83c9747486c2eb8d3c4c8f409d82b.html" target="_top" xlink:title="Sensor">
<polygon fill="white" stroke="red" points="492,-412 438,-412 438,-376 492,-376 492,-412"/>
<text text-anchor="middle" x="465" y="-391.5" font-family="Helvetica,sans-Serif" font-size="10.00">Sensor</text>
</a>
</g>
</g>
<!-- dir_82d83c9747486c2eb8d3c4c8f409d82b&#45;&gt;dir_1a5504e72c2ab618c124e6472b08d26c -->
<g id="edge9" class="edge">
<title>dir_82d83c9747486c2eb8d3c4c8f409d82b&#45;&gt;dir_1a5504e72c2ab618c124e6472b08d26c</title>
<path fill="none" stroke="black" d="M473.09,-375.95C484.78,-349.72 505,-297.61 505,-251 505,-251 505,-251 505,-177 505,-81.38 370.14,-49.96 291.76,-39.78"/>
<polygon fill="black" stroke="black" points="291.91,-36.27 281.56,-38.53 291.06,-43.22 291.91,-36.27"/>
<g id="a_edge9&#45;headlabel"><a xlink:href="dir_000074_000127.html" target="_top" xlink:title="2">
<text text-anchor="middle" x="295.82" y="-31.39" font-family="Helvetica,sans-Serif" font-size="10.00">2</text>
</a>
</g>
</g>
<!-- dir_82d83c9747486c2eb8d3c4c8f409d82b&#45;&gt;dir_e185953657720ba3a67126696ef566c7 -->
<g id="edge11" class="edge">
<title>dir_82d83c9747486c2eb8d3c4c8f409d82b&#45;&gt;dir_e185953657720ba3a67126696ef566c7</title>
<path fill="none" stroke="black" d="M437.79,-377.64C420.88,-368.09 398.86,-355.67 380.1,-345.07"/>
<polygon fill="black" stroke="black" points="381.62,-341.91 371.19,-340.04 378.18,-348.01 381.62,-341.91"/>
<g id="a_edge11&#45;headlabel"><a xlink:href="dir_000074_000094.html" target="_top" xlink:title="1">
<text text-anchor="middle" x="386.15" y="-338.71" font-family="Helvetica,sans-Serif" font-size="10.00">1</text>
</a>
</g>
</g>
<!-- dir_82d83c9747486c2eb8d3c4c8f409d82b&#45;&gt;dir_a4226c5615a06a31e6344f5f3fd917e1 -->
<g id="edge8" class="edge">
<title>dir_82d83c9747486c2eb8d3c4c8f409d82b&#45;&gt;dir_a4226c5615a06a31e6344f5f3fd917e1</title>
<path fill="none" stroke="black" d="M437.92,-391.79C401.56,-388.7 337.24,-377.85 300,-340 283.85,-323.59 277.32,-297.85 274.69,-278.26"/>
<polygon fill="black" stroke="black" points="278.15,-277.68 273.6,-268.11 271.19,-278.43 278.15,-277.68"/>
<g id="a_edge8&#45;headlabel"><a xlink:href="dir_000074_000020.html" target="_top" xlink:title="5">
<text text-anchor="middle" x="281.36" y="-278.45" font-family="Helvetica,sans-Serif" font-size="10.00">5</text>
</a>
</g>
</g>
<!-- dir_82d83c9747486c2eb8d3c4c8f409d82b&#45;&gt;dir_4d0b0adf7e9fb892c3df556e9cbb05d0 -->
<g id="edge10" class="edge">
<title>dir_82d83c9747486c2eb8d3c4c8f409d82b&#45;&gt;dir_4d0b0adf7e9fb892c3df556e9cbb05d0</title>
<path fill="none" stroke="black" d="M465.35,-375.75C465.21,-357.44 463.47,-327.89 455,-304 441.6,-266.2 414.92,-228.16 396.07,-204.14"/>
<polygon fill="black" stroke="black" points="398.74,-201.87 389.76,-196.25 393.27,-206.25 398.74,-201.87"/>
<g id="a_edge10&#45;headlabel"><a xlink:href="dir_000074_000063.html" target="_top" xlink:title="2">
<text text-anchor="middle" x="403.2" y="-200.41" font-family="Helvetica,sans-Serif" font-size="10.00">2</text>
</a>
</g>
</g>
<!-- dir_82d83c9747486c2eb8d3c4c8f409d82b&#45;&gt;dir_6a49a4a01df89ea000e629175e7db917 -->
<g id="edge12" class="edge">
<title>dir_82d83c9747486c2eb8d3c4c8f409d82b&#45;&gt;dir_6a49a4a01df89ea000e629175e7db917</title>
<path fill="none" stroke="black" d="M466.96,-375.91C470.77,-334.18 474.77,-225.7 423,-160 408.35,-141.41 385.27,-128.26 365.65,-119.71"/>
<polygon fill="black" stroke="black" points="366.92,-116.45 356.34,-115.88 364.25,-122.92 366.92,-116.45"/>
<g id="a_edge12&#45;headlabel"><a xlink:href="dir_000074_000070.html" target="_top" xlink:title="2">
<text text-anchor="middle" x="371.33" y="-112.69" font-family="Helvetica,sans-Serif" font-size="10.00">2</text>
</a>
</g>
</g>
<!-- dir_6164661bfb521e4b540c7b7052af2911 -->
<g id="node13" class="node">
<title>dir_6164661bfb521e4b540c7b7052af2911</title>
<g id="a_node13"><a xlink:href="dir_6164661bfb521e4b540c7b7052af2911.html" target="_top" xlink:title="Service">
<polygon fill="white" stroke="red" points="169,-412 115,-412 115,-376 169,-376 169,-412"/>
<text text-anchor="middle" x="142" y="-391.5" font-family="Helvetica,sans-Serif" font-size="10.00">Service</text>
</a>
</g>
</g>
<!-- dir_6164661bfb521e4b540c7b7052af2911&#45;&gt;dir_1666c5f4940eb69dc85cb0f1045c5123 -->
<g id="edge17" class="edge">
<title>dir_6164661bfb521e4b540c7b7052af2911&#45;&gt;dir_1666c5f4940eb69dc85cb0f1045c5123</title>
<path fill="none" stroke="black" d="M142,-375.7C142,-367.98 142,-358.71 142,-350.11"/>
<polygon fill="black" stroke="black" points="145.5,-350.1 142,-340.1 138.5,-350.1 145.5,-350.1"/>
<g id="a_edge17&#45;headlabel"><a xlink:href="dir_000107_000008.html" target="_top" xlink:title="1">
<text text-anchor="middle" x="148.34" y="-351.2" font-family="Helvetica,sans-Serif" font-size="10.00">1</text>
</a>
</g>
</g>
<!-- dir_6164661bfb521e4b540c7b7052af2911&#45;&gt;dir_1a5504e72c2ab618c124e6472b08d26c -->
<g id="edge18" class="edge">
<title>dir_6164661bfb521e4b540c7b7052af2911&#45;&gt;dir_1a5504e72c2ab618c124e6472b08d26c</title>
<path fill="none" stroke="black" d="M114.99,-375.87C101.89,-366.52 86.72,-354 76,-340 49.74,-305.71 37,-294.19 37,-251 37,-251 37,-251 37,-177 37,-136.64 27.68,-117.71 55,-88 87.34,-52.83 141.54,-40.5 182.4,-36.42"/>
<polygon fill="black" stroke="black" points="182.82,-39.9 192.48,-35.56 182.22,-32.93 182.82,-39.9"/>
<g id="a_edge18&#45;headlabel"><a xlink:href="dir_000107_000127.html" target="_top" xlink:title="2">
<text text-anchor="middle" x="179.48" y="-40.54" font-family="Helvetica,sans-Serif" font-size="10.00">2</text>
</a>
</g>
</g>
<!-- dir_6164661bfb521e4b540c7b7052af2911&#45;&gt;dir_e185953657720ba3a67126696ef566c7 -->
<g id="edge19" class="edge">
<title>dir_6164661bfb521e4b540c7b7052af2911&#45;&gt;dir_e185953657720ba3a67126696ef566c7</title>
<path fill="none" stroke="black" d="M169.24,-381.4C173.81,-379.54 178.53,-377.68 183,-376 221.75,-361.49 266.52,-346.65 298.49,-336.38"/>
<polygon fill="black" stroke="black" points="299.93,-339.59 308.39,-333.21 297.8,-332.92 299.93,-339.59"/>
<g id="a_edge19&#45;headlabel"><a xlink:href="dir_000107_000094.html" target="_top" xlink:title="2">
<text text-anchor="middle" x="297.37" y="-340.89" font-family="Helvetica,sans-Serif" font-size="10.00">2</text>
</a>
</g>
</g>
<!-- dir_6164661bfb521e4b540c7b7052af2911&#45;&gt;dir_a4226c5615a06a31e6344f5f3fd917e1 -->
<g id="edge15" class="edge">
<title>dir_6164661bfb521e4b540c7b7052af2911&#45;&gt;dir_a4226c5615a06a31e6344f5f3fd917e1</title>
<path fill="none" stroke="black" d="M158.69,-375.96C168.72,-365.63 181.69,-352.16 193,-340 212.88,-318.63 235.03,-293.91 250.98,-275.96"/>
<polygon fill="black" stroke="black" points="253.82,-278.02 257.83,-268.22 248.58,-273.38 253.82,-278.02"/>
<g id="a_edge15&#45;headlabel"><a xlink:href="dir_000107_000020.html" target="_top" xlink:title="2">
<text text-anchor="middle" x="253.56" y="-280.1" font-family="Helvetica,sans-Serif" font-size="10.00">2</text>
</a>
</g>
</g>
<!-- dir_6164661bfb521e4b540c7b7052af2911&#45;&gt;dir_c2cd4762e89f989d55fa2b0634ddfc81 -->
<g id="edge16" class="edge">
<title>dir_6164661bfb521e4b540c7b7052af2911&#45;&gt;dir_c2cd4762e89f989d55fa2b0634ddfc81</title>
<path fill="none" stroke="black" d="M119.4,-375.96C108.94,-366.63 97.6,-354.11 92,-340 74.38,-295.65 57.81,-225.56 107,-160 128.92,-130.79 169.71,-117.62 199.78,-111.71"/>
<polygon fill="black" stroke="black" points="200.68,-115.11 209.92,-109.92 199.46,-108.22 200.68,-115.11"/>
<g id="a_edge16&#45;headlabel"><a xlink:href="dir_000107_000085.html" target="_top" xlink:title="2">
<text text-anchor="middle" x="197.64" y="-116.03" font-family="Helvetica,sans-Serif" font-size="10.00">2</text>
</a>
</g>
</g>
<!-- dir_6c63dd282651b43f4337d292845f5ec4 -->
<g id="node14" class="node">
<title>dir_6c63dd282651b43f4337d292845f5ec4</title>
<g id="a_node14"><a xlink:href="dir_6c63dd282651b43f4337d292845f5ec4.html" target="_top" xlink:title="Template">
<polygon fill="white" stroke="red" points="369,-484 307,-484 307,-448 369,-448 369,-484"/>
<text text-anchor="middle" x="338" y="-463.5" font-family="Helvetica,sans-Serif" font-size="10.00">Template</text>
</a>
</g>
</g>
<!-- dir_eec1bb706bd2e5107de375aec258065a -->
<g id="node15" class="node">
<title>dir_eec1bb706bd2e5107de375aec258065a</title>
<g id="a_node15"><a xlink:href="dir_eec1bb706bd2e5107de375aec258065a.html" target="_top" xlink:title="User">
<polygon fill="white" stroke="red" points="248,-484 194,-484 194,-448 248,-448 248,-484"/>
<text text-anchor="middle" x="221" y="-463.5" font-family="Helvetica,sans-Serif" font-size="10.00">User</text>
</a>
</g>
</g>
<!-- dir_eec1bb706bd2e5107de375aec258065a&#45;&gt;dir_8efbaa1056a51686757185dce0bc8da0 -->
<g id="edge25" class="edge">
<title>dir_eec1bb706bd2e5107de375aec258065a&#45;&gt;dir_8efbaa1056a51686757185dce0bc8da0</title>
<path fill="none" stroke="black" d="M221,-447.7C221,-439.98 221,-430.71 221,-422.11"/>
<polygon fill="black" stroke="black" points="224.5,-422.1 221,-412.1 217.5,-422.1 224.5,-422.1"/>
<g id="a_edge25&#45;headlabel"><a xlink:href="dir_000081_000002.html" target="_top" xlink:title="1">
<text text-anchor="middle" x="227.34" y="-423.2" font-family="Helvetica,sans-Serif" font-size="10.00">1</text>
</a>
</g>
</g>
<!-- dir_eec1bb706bd2e5107de375aec258065a&#45;&gt;dir_1a5504e72c2ab618c124e6472b08d26c -->
<g id="edge26" class="edge">
<title>dir_eec1bb706bd2e5107de375aec258065a&#45;&gt;dir_1a5504e72c2ab618c124e6472b08d26c</title>
<path fill="none" stroke="black" d="M193.91,-459.49C138.42,-446.47 17,-408.23 17,-323 17,-323 17,-323 17,-177 17,-136.81 5.69,-117.48 33,-88 53.09,-66.31 129.1,-50.89 182.42,-42.46"/>
<polygon fill="black" stroke="black" points="183.08,-45.9 192.43,-40.92 182.01,-38.98 183.08,-45.9"/>
<g id="a_edge26&#45;headlabel"><a xlink:href="dir_000081_000127.html" target="_top" xlink:title="1">
<text text-anchor="middle" x="179.96" y="-46.75" font-family="Helvetica,sans-Serif" font-size="10.00">1</text>
</a>
</g>
</g>
<!-- dir_eec1bb706bd2e5107de375aec258065a&#45;&gt;dir_a4226c5615a06a31e6344f5f3fd917e1 -->
<g id="edge24" class="edge">
<title>dir_eec1bb706bd2e5107de375aec258065a&#45;&gt;dir_a4226c5615a06a31e6344f5f3fd917e1</title>
<path fill="none" stroke="black" d="M237,-447.76C245.06,-438.01 254.13,-425.17 259,-412 275.53,-367.32 276.29,-311.08 274.93,-278.27"/>
<polygon fill="black" stroke="black" points="278.42,-277.9 274.41,-268.09 271.42,-278.26 278.42,-277.9"/>
<g id="a_edge24&#45;headlabel"><a xlink:href="dir_000081_000020.html" target="_top" xlink:title="2">
<text text-anchor="middle" x="281.44" y="-278.84" font-family="Helvetica,sans-Serif" font-size="10.00">2</text>
</a>
</g>
</g>
<!-- dir_c2cd4762e89f989d55fa2b0634ddfc81&#45;&gt;dir_1a5504e72c2ab618c124e6472b08d26c -->
<g id="edge14" class="edge">
<title>dir_c2cd4762e89f989d55fa2b0634ddfc81&#45;&gt;dir_1a5504e72c2ab618c124e6472b08d26c</title>
<path fill="none" stroke="black" d="M237,-87.7C237,-79.98 237,-70.71 237,-62.11"/>
<polygon fill="black" stroke="black" points="240.5,-62.1 237,-52.1 233.5,-62.1 240.5,-62.1"/>
<g id="a_edge14&#45;headlabel"><a xlink:href="dir_000085_000127.html" target="_top" xlink:title="3">
<text text-anchor="middle" x="243.34" y="-63.2" font-family="Helvetica,sans-Serif" font-size="10.00">3</text>
</a>
</g>
</g>
<!-- dir_c2cd4762e89f989d55fa2b0634ddfc81&#45;&gt;dir_a4226c5615a06a31e6344f5f3fd917e1 -->
<g id="edge13" class="edge">
<title>dir_c2cd4762e89f989d55fa2b0634ddfc81&#45;&gt;dir_a4226c5615a06a31e6344f5f3fd917e1</title>
<path fill="none" stroke="black" d="M238.95,-124.25C237.1,-142.57 232.84,-172.13 241,-196 244.41,-205.97 250.53,-215.51 256.63,-223.69"/>
<polygon fill="black" stroke="black" points="253.95,-225.94 262.86,-231.68 259.47,-221.64 253.95,-225.94"/>
<g id="a_edge13&#45;headlabel"><a xlink:href="dir_000085_000020.html" target="_top" xlink:title="4">
<text text-anchor="middle" x="249.5" y="-222.36" font-family="Helvetica,sans-Serif" font-size="10.00">4</text>
</a>
</g>
</g>
</g>
</svg>
