<?xml version="1.0" encoding="UTF-8" standalone="no"?>
<!DOCTYPE svg PUBLIC "-//W3C//DTD SVG 1.1//EN"
 "http://www.w3.org/Graphics/SVG/1.1/DTD/svg11.dtd">
<!-- Generated by graphviz version 2.43.0 (0)
 -->
<!-- Title: Components/Service/AktivMusSimple/include Pages: 1 -->
<svg width="197pt" height="367pt"
 viewBox="0.00 0.00 197.15 367.00" xmlns="http://www.w3.org/2000/svg" xmlns:xlink="http://www.w3.org/1999/xlink">
<g id="graph0" class="graph" transform="scale(1 1) rotate(0) translate(4 363)">
<title>Components/Service/AktivMusSimple/include</title>
<g id="clust1" class="cluster">
<title>clusterdir_f111871e06e6ccab49d5870f43e09b58</title>
<g id="a_clust1"><a xlink:href="dir_f111871e06e6ccab49d5870f43e09b58.html" target="_top" xlink:title="AktivMusSimple">
<polygon fill="#ddddee" stroke="black" points="30.15,-280 30.15,-351 126.15,-351 126.15,-280 30.15,-280"/>
<text text-anchor="middle" x="78.15" y="-339" font-family="Helvetica,sans-Serif" font-size="10.00">AktivMusSimple</text>
</a>
</g>
</g>
<!-- dir_9727953329a9486c582926f71fb60f92 -->
<g id="node1" class="node">
<title>dir_9727953329a9486c582926f71fb60f92</title>
<g id="a_node1"><a xlink:href="dir_9727953329a9486c582926f71fb60f92.html" target="_top" xlink:title="include">
<polygon fill="#eeeeff" stroke="black" points="105.15,-324 51.15,-324 51.15,-288 105.15,-288 105.15,-324"/>
<text text-anchor="middle" x="78.15" y="-303.5" font-family="Helvetica,sans-Serif" font-size="10.00">include</text>
</a>
</g>
</g>
<!-- dir_a4226c5615a06a31e6344f5f3fd917e1 -->
<g id="node2" class="node">
<title>dir_a4226c5615a06a31e6344f5f3fd917e1</title>
<g id="a_node2"><a xlink:href="dir_a4226c5615a06a31e6344f5f3fd917e1.html" target="_top" xlink:title="Objects">
<polygon fill="none" stroke="red" points="189.15,-180 135.15,-180 135.15,-144 189.15,-144 189.15,-180"/>
<text text-anchor="middle" x="162.15" y="-159.5" font-family="Helvetica,sans-Serif" font-size="10.00">Objects</text>
</a>
</g>
</g>
<!-- dir_9727953329a9486c582926f71fb60f92&#45;&gt;dir_a4226c5615a06a31e6344f5f3fd917e1 -->
<g id="edge3" class="edge">
<title>dir_9727953329a9486c582926f71fb60f92&#45;&gt;dir_a4226c5615a06a31e6344f5f3fd917e1</title>
<path fill="none" stroke="black" d="M94.05,-287.69C102.72,-277.71 113.26,-264.68 121.15,-252 133.58,-232.01 144.56,-207.63 152.01,-189.44"/>
<polygon fill="black" stroke="black" points="155.31,-190.63 155.78,-180.04 148.81,-188.02 155.31,-190.63"/>
<g id="a_edge3&#45;headlabel"><a xlink:href="dir_000167_000016.html" target="_top" xlink:title="2">
<text text-anchor="middle" x="156.6" y="-192.52" font-family="Helvetica,sans-Serif" font-size="10.00">2</text>
</a>
</g>
</g>
<!-- dir_8efbaa1056a51686757185dce0bc8da0 -->
<g id="node3" class="node">
<title>dir_8efbaa1056a51686757185dce0bc8da0</title>
<g id="a_node3"><a xlink:href="dir_8efbaa1056a51686757185dce0bc8da0.html" target="_top" xlink:title="Actuator">
<polygon fill="none" stroke="red" points="79.15,-252 21.15,-252 21.15,-216 79.15,-216 79.15,-252"/>
<text text-anchor="middle" x="50.15" y="-231.5" font-family="Helvetica,sans-Serif" font-size="10.00">Actuator</text>
</a>
</g>
</g>
<!-- dir_9727953329a9486c582926f71fb60f92&#45;&gt;dir_8efbaa1056a51686757185dce0bc8da0 -->
<g id="edge4" class="edge">
<title>dir_9727953329a9486c582926f71fb60f92&#45;&gt;dir_8efbaa1056a51686757185dce0bc8da0</title>
<path fill="none" stroke="black" d="M71.23,-287.7C68.07,-279.81 64.27,-270.3 60.77,-261.55"/>
<polygon fill="black" stroke="black" points="63.95,-260.09 56.99,-252.1 57.45,-262.69 63.95,-260.09"/>
<g id="a_edge4&#45;headlabel"><a xlink:href="dir_000167_000002.html" target="_top" xlink:title="1">
<text text-anchor="middle" x="67.92" y="-259.87" font-family="Helvetica,sans-Serif" font-size="10.00">1</text>
</a>
</g>
</g>
<!-- dir_1a5504e72c2ab618c124e6472b08d26c -->
<g id="node4" class="node">
<title>dir_1a5504e72c2ab618c124e6472b08d26c</title>
<g id="a_node4"><a xlink:href="dir_1a5504e72c2ab618c124e6472b08d26c.html" target="_top" xlink:title="Global_Include">
<polygon fill="none" stroke="black" points="110.65,-36 21.65,-36 21.65,0 110.65,0 110.65,-36"/>
<text text-anchor="middle" x="66.15" y="-15.5" font-family="Helvetica,sans-Serif" font-size="10.00">Global_Include</text>
</a>
</g>
</g>
<!-- dir_9727953329a9486c582926f71fb60f92&#45;&gt;dir_1a5504e72c2ab618c124e6472b08d26c -->
<g id="edge5" class="edge">
<title>dir_9727953329a9486c582926f71fb60f92&#45;&gt;dir_1a5504e72c2ab618c124e6472b08d26c</title>
<path fill="none" stroke="black" d="M50.91,-291.01C36.52,-282 20.22,-268.83 12.15,-252 -21.54,-181.74 23.17,-89.29 49.45,-44.93"/>
<polygon fill="black" stroke="black" points="52.54,-46.59 54.74,-36.22 46.56,-42.95 52.54,-46.59"/>
<g id="a_edge5&#45;headlabel"><a xlink:href="dir_000167_000144.html" target="_top" xlink:title="1">
<text text-anchor="middle" x="53.1" y="-48.63" font-family="Helvetica,sans-Serif" font-size="10.00">1</text>
</a>
</g>
</g>
<!-- dir_e185953657720ba3a67126696ef566c7 -->
<g id="node5" class="node">
<title>dir_e185953657720ba3a67126696ef566c7</title>
<g id="a_node5"><a xlink:href="dir_e185953657720ba3a67126696ef566c7.html" target="_top" xlink:title="Interfaces">
<polygon fill="none" stroke="red" points="133.65,-108 68.65,-108 68.65,-72 133.65,-72 133.65,-108"/>
<text text-anchor="middle" x="101.15" y="-87.5" font-family="Helvetica,sans-Serif" font-size="10.00">Interfaces</text>
</a>
</g>
</g>
<!-- dir_9727953329a9486c582926f71fb60f92&#45;&gt;dir_e185953657720ba3a67126696ef566c7 -->
<g id="edge6" class="edge">
<title>dir_9727953329a9486c582926f71fb60f92&#45;&gt;dir_e185953657720ba3a67126696ef566c7</title>
<path fill="none" stroke="black" d="M81.85,-287.89C83.97,-277.54 86.53,-264.06 88.15,-252 94.39,-205.51 98.03,-151.03 99.79,-118.86"/>
<polygon fill="black" stroke="black" points="103.31,-118.63 100.34,-108.46 96.32,-118.26 103.31,-118.63"/>
<g id="a_edge6&#45;headlabel"><a xlink:href="dir_000167_000093.html" target="_top" xlink:title="1">
<text text-anchor="middle" x="105.96" y="-119.87" font-family="Helvetica,sans-Serif" font-size="10.00">1</text>
</a>
</g>
</g>
<!-- dir_a4226c5615a06a31e6344f5f3fd917e1&#45;&gt;dir_1a5504e72c2ab618c124e6472b08d26c -->
<g id="edge1" class="edge">
<title>dir_a4226c5615a06a31e6344f5f3fd917e1&#45;&gt;dir_1a5504e72c2ab618c124e6472b08d26c</title>
<path fill="none" stroke="black" d="M161.9,-143.83C160.86,-124.77 156.8,-93.82 142.15,-72 133.99,-59.86 122.04,-49.65 110.02,-41.54"/>
<polygon fill="black" stroke="black" points="111.63,-38.42 101.31,-36.01 107.87,-44.33 111.63,-38.42"/>
<g id="a_edge1&#45;headlabel"><a xlink:href="dir_000016_000144.html" target="_top" xlink:title="26">
<text text-anchor="middle" x="116.18" y="-35.45" font-family="Helvetica,sans-Serif" font-size="10.00">26</text>
</a>
</g>
</g>
<!-- dir_a4226c5615a06a31e6344f5f3fd917e1&#45;&gt;dir_e185953657720ba3a67126696ef566c7 -->
<g id="edge2" class="edge">
<title>dir_a4226c5615a06a31e6344f5f3fd917e1&#45;&gt;dir_e185953657720ba3a67126696ef566c7</title>
<path fill="none" stroke="black" d="M141.15,-143.7C133.06,-135.39 124.05,-125.28 116.55,-116.14"/>
<polygon fill="black" stroke="black" points="119.12,-113.75 110.16,-108.1 113.64,-118.11 119.12,-113.75"/>
<g id="a_edge2&#45;headlabel"><a xlink:href="dir_000016_000093.html" target="_top" xlink:title="8">
<text text-anchor="middle" x="123.58" y="-112.3" font-family="Helvetica,sans-Serif" font-size="10.00">8</text>
</a>
</g>
</g>
<!-- dir_8efbaa1056a51686757185dce0bc8da0&#45;&gt;dir_a4226c5615a06a31e6344f5f3fd917e1 -->
<g id="edge7" class="edge">
<title>dir_8efbaa1056a51686757185dce0bc8da0&#45;&gt;dir_a4226c5615a06a31e6344f5f3fd917e1</title>
<path fill="none" stroke="black" d="M77.54,-215.88C92.3,-206.66 110.67,-195.17 126.52,-185.26"/>
<polygon fill="black" stroke="black" points="128.41,-188.22 135.03,-179.95 124.7,-182.28 128.41,-188.22"/>
<g id="a_edge7&#45;headlabel"><a xlink:href="dir_000002_000016.html" target="_top" xlink:title="3">
<text text-anchor="middle" x="126.86" y="-190.03" font-family="Helvetica,sans-Serif" font-size="10.00">3</text>
</a>
</g>
</g>
<!-- dir_8efbaa1056a51686757185dce0bc8da0&#45;&gt;dir_1a5504e72c2ab618c124e6472b08d26c -->
<g id="edge8" class="edge">
<title>dir_8efbaa1056a51686757185dce0bc8da0&#45;&gt;dir_1a5504e72c2ab618c124e6472b08d26c</title>
<path fill="none" stroke="black" d="M50.69,-215.58C51.71,-186 54.25,-124.12 59.15,-72 59.94,-63.55 61.06,-54.38 62.17,-46.08"/>
<polygon fill="black" stroke="black" points="65.64,-46.53 63.55,-36.15 58.71,-45.57 65.64,-46.53"/>
<g id="a_edge8&#45;headlabel"><a xlink:href="dir_000002_000144.html" target="_top" xlink:title="1">
<text text-anchor="middle" x="67.96" y="-47.99" font-family="Helvetica,sans-Serif" font-size="10.00">1</text>
</a>
</g>
</g>
<!-- dir_8efbaa1056a51686757185dce0bc8da0&#45;&gt;dir_e185953657720ba3a67126696ef566c7 -->
<g id="edge9" class="edge">
<title>dir_8efbaa1056a51686757185dce0bc8da0&#45;&gt;dir_e185953657720ba3a67126696ef566c7</title>
<path fill="none" stroke="black" d="M56.3,-215.87C65.07,-191.46 81.24,-146.43 91.58,-117.64"/>
<polygon fill="black" stroke="black" points="94.89,-118.78 94.97,-108.19 88.3,-116.42 94.89,-118.78"/>
<g id="a_edge9&#45;headlabel"><a xlink:href="dir_000002_000093.html" target="_top" xlink:title="1">
<text text-anchor="middle" x="96.34" y="-120.63" font-family="Helvetica,sans-Serif" font-size="10.00">1</text>
</a>
</g>
</g>
<!-- dir_e185953657720ba3a67126696ef566c7&#45;&gt;dir_a4226c5615a06a31e6344f5f3fd917e1 -->
<g id="edge10" class="edge">
<title>dir_e185953657720ba3a67126696ef566c7&#45;&gt;dir_a4226c5615a06a31e6344f5f3fd917e1</title>
<path fill="none" stroke="black" d="M121.95,-108.1C130.03,-116.38 139.04,-126.49 146.56,-135.64"/>
<polygon fill="black" stroke="black" points="144.01,-138.06 152.98,-143.7 149.49,-133.69 144.01,-138.06"/>
<g id="a_edge10&#45;headlabel"><a xlink:href="dir_000093_000016.html" target="_top" xlink:title="23">
<text text-anchor="middle" x="139.55" y="-134.51" font-family="Helvetica,sans-Serif" font-size="10.00">23</text>
</a>
</g>
</g>
<!-- dir_e185953657720ba3a67126696ef566c7&#45;&gt;dir_1a5504e72c2ab618c124e6472b08d26c -->
<g id="edge11" class="edge">
<title>dir_e185953657720ba3a67126696ef566c7&#45;&gt;dir_1a5504e72c2ab618c124e6472b08d26c</title>
<path fill="none" stroke="black" d="M92.49,-71.7C88.51,-63.73 83.7,-54.1 79.28,-45.26"/>
<polygon fill="black" stroke="black" points="82.3,-43.48 74.7,-36.1 76.04,-46.61 82.3,-43.48"/>
<g id="a_edge11&#45;headlabel"><a xlink:href="dir_000093_000144.html" target="_top" xlink:title="15">
<text text-anchor="middle" x="86.45" y="-42.93" font-family="Helvetica,sans-Serif" font-size="10.00">15</text>
</a>
</g>
</g>
</g>
</svg>
