<?xml version="1.0" encoding="UTF-8" standalone="no"?>
<!DOCTYPE svg PUBLIC "-//W3C//DTD SVG 1.1//EN"
 "http://www.w3.org/Graphics/SVG/1.1/DTD/svg11.dtd">
<!-- Generated by graphviz version 2.43.0 (0)
 -->
<!-- Title: Components/Objects/Timeservice/test Pages: 1 -->
<svg width="254pt" height="159pt"
 viewBox="0.00 0.00 254.00 159.00" xmlns="http://www.w3.org/2000/svg" xmlns:xlink="http://www.w3.org/1999/xlink">
<g id="graph0" class="graph" transform="scale(1 1) rotate(0) translate(4 155)">
<title>Components/Objects/Timeservice/test</title>
<g id="clust1" class="cluster">
<title>clusterdir_82ae37b9d9d4852b543931d9ede35f57</title>
<g id="a_clust1"><a xlink:href="dir_82ae37b9d9d4852b543931d9ede35f57.html" target="_top" xlink:title="Timeservice">
<polygon fill="#ddddee" stroke="black" points="8,-56 8,-143 238,-143 238,-56 8,-56"/>
<text text-anchor="middle" x="123" y="-131" font-family="Helvetica,sans-Serif" font-size="10.00">Timeservice</text>
</a>
</g>
</g>
<g id="clust2" class="cluster">
<title>clusterdir_38f1823a3c1e0c1cf1e4da5a8adbfbc2</title>
<g id="a_clust2"><a xlink:href="dir_38f1823a3c1e0c1cf1e4da5a8adbfbc2.html" target="_top">
<polygon fill="#eeeeff" stroke="black" points="16,-64 16,-116 230,-116 230,-64 16,-64"/>
</a>
</g>
</g>
<!-- dir_38f1823a3c1e0c1cf1e4da5a8adbfbc2 -->
<g id="node1" class="node">
<title>dir_38f1823a3c1e0c1cf1e4da5a8adbfbc2</title>
<text text-anchor="middle" x="195" y="-87.5" font-family="Helvetica,sans-Serif" font-size="10.00">test</text>
</g>
<!-- dir_af623d9650176300af59c83e4b91b055 -->
<g id="node2" class="node">
<title>dir_af623d9650176300af59c83e4b91b055</title>
<g id="a_node2"><a xlink:href="dir_af623d9650176300af59c83e4b91b055.html" target="_top" xlink:title="src">
<polygon fill="white" stroke="black" points="150,-108 96,-108 96,-72 150,-72 150,-108"/>
<text text-anchor="middle" x="123" y="-87.5" font-family="Helvetica,sans-Serif" font-size="10.00">src</text>
</a>
</g>
</g>
<!-- dir_9fe2c82a321e56c96b1dd2b87dfa4011 -->
<g id="node4" class="node">
<title>dir_9fe2c82a321e56c96b1dd2b87dfa4011</title>
<g id="a_node4"><a xlink:href="dir_9fe2c82a321e56c96b1dd2b87dfa4011.html" target="_top" xlink:title="include">
<polygon fill="none" stroke="black" points="78,-36 24,-36 24,0 78,0 78,-36"/>
<text text-anchor="middle" x="51" y="-15.5" font-family="Helvetica,sans-Serif" font-size="10.00">include</text>
</a>
</g>
</g>
<!-- dir_af623d9650176300af59c83e4b91b055&#45;&gt;dir_9fe2c82a321e56c96b1dd2b87dfa4011 -->
<g id="edge3" class="edge">
<title>dir_af623d9650176300af59c83e4b91b055&#45;&gt;dir_9fe2c82a321e56c96b1dd2b87dfa4011</title>
<path fill="none" stroke="black" d="M105.2,-71.7C96.4,-63.14 85.62,-52.66 76,-43.3"/>
<polygon fill="black" stroke="black" points="78.2,-40.57 68.59,-36.1 73.32,-45.58 78.2,-40.57"/>
<g id="a_edge3&#45;headlabel"><a xlink:href="dir_000190_000188.html" target="_top" xlink:title="1">
<text text-anchor="middle" x="82.76" y="-38.54" font-family="Helvetica,sans-Serif" font-size="10.00">1</text>
</a>
</g>
</g>
<!-- dir_c2cd4762e89f989d55fa2b0634ddfc81 -->
<g id="node5" class="node">
<title>dir_c2cd4762e89f989d55fa2b0634ddfc81</title>
<g id="a_node5"><a xlink:href="dir_c2cd4762e89f989d55fa2b0634ddfc81.html" target="_top" xlink:title="Utility">
<polygon fill="none" stroke="red" points="150,-36 96,-36 96,0 150,0 150,-36"/>
<text text-anchor="middle" x="123" y="-15.5" font-family="Helvetica,sans-Serif" font-size="10.00">Utility</text>
</a>
</g>
</g>
<!-- dir_af623d9650176300af59c83e4b91b055&#45;&gt;dir_c2cd4762e89f989d55fa2b0634ddfc81 -->
<g id="edge4" class="edge">
<title>dir_af623d9650176300af59c83e4b91b055&#45;&gt;dir_c2cd4762e89f989d55fa2b0634ddfc81</title>
<path fill="none" stroke="black" d="M123,-71.7C123,-63.98 123,-54.71 123,-46.11"/>
<polygon fill="black" stroke="black" points="126.5,-46.1 123,-36.1 119.5,-46.1 126.5,-46.1"/>
<g id="a_edge4&#45;headlabel"><a xlink:href="dir_000190_000087.html" target="_top" xlink:title="1">
<text text-anchor="middle" x="129.34" y="-47.2" font-family="Helvetica,sans-Serif" font-size="10.00">1</text>
</a>
</g>
</g>
<!-- dir_a7a15b14d3fa15a4dad34ef1dc529d30 -->
<g id="node3" class="node">
<title>dir_a7a15b14d3fa15a4dad34ef1dc529d30</title>
<g id="a_node3"><a xlink:href="dir_a7a15b14d3fa15a4dad34ef1dc529d30.html" target="_top" xlink:title="test">
<polygon fill="white" stroke="black" points="78,-108 24,-108 24,-72 78,-72 78,-108"/>
<text text-anchor="middle" x="51" y="-87.5" font-family="Helvetica,sans-Serif" font-size="10.00">test</text>
</a>
</g>
</g>
<!-- dir_a7a15b14d3fa15a4dad34ef1dc529d30&#45;&gt;dir_9fe2c82a321e56c96b1dd2b87dfa4011 -->
<g id="edge1" class="edge">
<title>dir_a7a15b14d3fa15a4dad34ef1dc529d30&#45;&gt;dir_9fe2c82a321e56c96b1dd2b87dfa4011</title>
<path fill="none" stroke="black" d="M51,-71.7C51,-63.98 51,-54.71 51,-46.11"/>
<polygon fill="black" stroke="black" points="54.5,-46.1 51,-36.1 47.5,-46.1 54.5,-46.1"/>
<g id="a_edge1&#45;headlabel"><a xlink:href="dir_000058_000188.html" target="_top" xlink:title="1">
<text text-anchor="middle" x="57.34" y="-47.2" font-family="Helvetica,sans-Serif" font-size="10.00">1</text>
</a>
</g>
</g>
<!-- dir_a7a15b14d3fa15a4dad34ef1dc529d30&#45;&gt;dir_c2cd4762e89f989d55fa2b0634ddfc81 -->
<g id="edge2" class="edge">
<title>dir_a7a15b14d3fa15a4dad34ef1dc529d30&#45;&gt;dir_c2cd4762e89f989d55fa2b0634ddfc81</title>
<path fill="none" stroke="black" d="M68.8,-71.7C77.6,-63.14 88.38,-52.66 98,-43.3"/>
<polygon fill="black" stroke="black" points="100.68,-45.58 105.41,-36.1 95.8,-40.57 100.68,-45.58"/>
<g id="a_edge2&#45;headlabel"><a xlink:href="dir_000058_000087.html" target="_top" xlink:title="1">
<text text-anchor="middle" x="100.08" y="-47.63" font-family="Helvetica,sans-Serif" font-size="10.00">1</text>
</a>
</g>
</g>
</g>
</svg>
