<?xml version="1.0" encoding="UTF-8" standalone="no"?>
<!DOCTYPE svg PUBLIC "-//W3C//DTD SVG 1.1//EN"
 "http://www.w3.org/Graphics/SVG/1.1/DTD/svg11.dtd">
<!-- Generated by graphviz version 2.43.0 (0)
 -->
<!-- Title: Components Pages: 1 -->
<!--zoomable 508 -->
<svg id="main" version="1.1" xmlns="http://www.w3.org/2000/svg" xmlns:xlink="http://www.w3.org/1999/xlink" xml:space="preserve" onload="init(evt)">
<style type="text/css"><![CDATA[
.edge:hover path { stroke: red; }
.edge:hover polygon { stroke: red; fill: red; }
]]></style>
<script type="text/javascript"><![CDATA[
var edges = document.getElementsByTagName('g');
if (edges && edges.length) {
  for (var i=0;i<edges.length;i++) {
    if (edges[i].id.substr(0,4)=='edge') {
      edges[i].setAttribute('class','edge');
    }
  }
}
]]></script>
        <defs>
                <circle id="rim" cx="0" cy="0" r="7"/>
                <circle id="rim2" cx="0" cy="0" r="3.5"/>
                <g id="zoomPlus">
                        <use xlink:href="#rim" fill="#404040">
                                <set attributeName="fill" to="#808080" begin="zoomplus.mouseover" end="zoomplus.mouseout"/>
                        </use>
                        <path d="M-4,0h8M0,-4v8" fill="none" stroke="white" stroke-width="1.5" pointer-events="none"/>
                </g>
                <g id="zoomMin">
                        <use xlink:href="#rim" fill="#404040">
                                <set attributeName="fill" to="#808080" begin="zoomminus.mouseover" end="zoomminus.mouseout"/>
                        </use>
                        <path d="M-4,0h8" fill="none" stroke="white" stroke-width="1.5" pointer-events="none"/>
                </g>
                <g id="dirArrow">
                        <path fill="none" stroke="white" stroke-width="1.5" d="M0,-3.0v7 M-2.5,-0.5L0,-3.0L2.5,-0.5"/>
                </g>
               <g id="resetDef">
                       <use xlink:href="#rim2" fill="#404040">
                               <set attributeName="fill" to="#808080" begin="reset.mouseover" end="reset.mouseout"/>
                       </use>
               </g>
        </defs>

<script type="text/javascript">
var viewWidth = 510;
var viewHeight = 508;
var sectionId = 'dynsection-0';
</script>
<script xlink:href="svgpan.js"/>
<svg id="graph" class="graph">
<g id="viewport">
<title>Components</title>
<g id="clust1" class="cluster">
<title>clusterdir_08f45fe6822aeb4ce2bc268e3b1361be</title>
<g id="a_clust1"><a xlink:href="dir_08f45fe6822aeb4ce2bc268e3b1361be.html" target="_top">
<polygon fill="#eeeeff" stroke="black" points="8,-8 8,-492 494,-492 494,-8 8,-8"/>
</a>
</g>
</g>
<!-- dir_08f45fe6822aeb4ce2bc268e3b1361be -->
<g id="node1" class="node">
<title>dir_08f45fe6822aeb4ce2bc268e3b1361be</title>
<text text-anchor="middle" x="426" y="-463.5" font-family="Helvetica,sans-Serif" font-size="10.00">Components</text>
</g>
<!-- dir_8efbaa1056a51686757185dce0bc8da0 -->
<g id="node2" class="node">
<title>dir_8efbaa1056a51686757185dce0bc8da0</title>
<g id="a_node2"><a xlink:href="dir_8efbaa1056a51686757185dce0bc8da0.html" target="_top" xlink:title="Actuator">
<polygon fill="white" stroke="red" points="278,-412 220,-412 220,-376 278,-376 278,-412"/>
<text text-anchor="middle" x="249" y="-391.5" font-family="Helvetica,sans-Serif" font-size="10.00">Actuator</text>
</a>
</g>
</g>
<!-- dir_1a5504e72c2ab618c124e6472b08d26c -->
<g id="node7" class="node">
<title>dir_1a5504e72c2ab618c124e6472b08d26c</title>
<g id="a_node7"><a xlink:href="dir_1a5504e72c2ab618c124e6472b08d26c.html" target="_top" xlink:title="Global_Include">
<polygon fill="white" stroke="black" points="245.5,-52 156.5,-52 156.5,-16 245.5,-16 245.5,-52"/>
<text text-anchor="middle" x="201" y="-31.5" font-family="Helvetica,sans-Serif" font-size="10.00">Global_Include</text>
</a>
</g>
</g>
<!-- dir_8efbaa1056a51686757185dce0bc8da0&#45;&gt;dir_1a5504e72c2ab618c124e6472b08d26c -->
<g id="edge32" class="edge">
<title>dir_8efbaa1056a51686757185dce0bc8da0&#45;&gt;dir_1a5504e72c2ab618c124e6472b08d26c</title>
<path fill="none" stroke="black" d="M228.39,-375.83C192.6,-344.51 120.17,-274.08 93,-196 77.09,-150.29 78.69,-127.26 107,-88 117.07,-74.03 132.03,-63.26 147.07,-55.19"/>
<polygon fill="black" stroke="black" points="149.03,-58.13 156.4,-50.51 145.89,-51.87 149.03,-58.13"/>
<g id="a_edge32&#45;headlabel"><a xlink:href="dir_000002_000124.html" target="_top" xlink:title="1">
<text text-anchor="middle" x="147.09" y="-59.77" font-family="Helvetica,sans-Serif" font-size="10.00">1</text>
</a>
</g>
</g>
<!-- dir_e185953657720ba3a67126696ef566c7 -->
<g id="node8" class="node">
<title>dir_e185953657720ba3a67126696ef566c7</title>
<g id="a_node8"><a xlink:href="dir_e185953657720ba3a67126696ef566c7.html" target="_top" xlink:title="Interfaces">
<polygon fill="white" stroke="red" points="353.5,-340 288.5,-340 288.5,-304 353.5,-304 353.5,-340"/>
<text text-anchor="middle" x="321" y="-319.5" font-family="Helvetica,sans-Serif" font-size="10.00">Interfaces</text>
</a>
</g>
</g>
<!-- dir_8efbaa1056a51686757185dce0bc8da0&#45;&gt;dir_e185953657720ba3a67126696ef566c7 -->
<g id="edge33" class="edge">
<title>dir_8efbaa1056a51686757185dce0bc8da0&#45;&gt;dir_e185953657720ba3a67126696ef566c7</title>
<path fill="none" stroke="black" d="M266.8,-375.7C275.6,-367.14 286.38,-356.66 296,-347.3"/>
<polygon fill="black" stroke="black" points="298.68,-349.58 303.41,-340.1 293.8,-344.57 298.68,-349.58"/>
<g id="a_edge33&#45;headlabel"><a xlink:href="dir_000002_000097.html" target="_top" xlink:title="1">
<text text-anchor="middle" x="298.08" y="-351.63" font-family="Helvetica,sans-Serif" font-size="10.00">1</text>
</a>
</g>
</g>
<!-- dir_a4226c5615a06a31e6344f5f3fd917e1 -->
<g id="node9" class="node">
<title>dir_a4226c5615a06a31e6344f5f3fd917e1</title>
<g id="a_node9"><a xlink:href="dir_a4226c5615a06a31e6344f5f3fd917e1.html" target="_top" xlink:title="Objects">
<polygon fill="white" stroke="red" points="280,-268 226,-268 226,-232 280,-232 280,-268"/>
<text text-anchor="middle" x="253" y="-247.5" font-family="Helvetica,sans-Serif" font-size="10.00">Objects</text>
</a>
</g>
</g>
<!-- dir_8efbaa1056a51686757185dce0bc8da0&#45;&gt;dir_a4226c5615a06a31e6344f5f3fd917e1 -->
<g id="edge31" class="edge">
<title>dir_8efbaa1056a51686757185dce0bc8da0&#45;&gt;dir_a4226c5615a06a31e6344f5f3fd917e1</title>
<path fill="none" stroke="black" d="M249.48,-375.87C250.16,-351.67 251.42,-307.21 252.23,-278.39"/>
<polygon fill="black" stroke="black" points="255.73,-278.28 252.52,-268.19 248.74,-278.09 255.73,-278.28"/>
<g id="a_edge31&#45;headlabel"><a xlink:href="dir_000002_000020.html" target="_top" xlink:title="3">
<text text-anchor="middle" x="258.47" y="-279.46" font-family="Helvetica,sans-Serif" font-size="10.00">3</text>
</a>
</g>
</g>
<!-- dir_1666c5f4940eb69dc85cb0f1045c5123 -->
<g id="node3" class="node">
<title>dir_1666c5f4940eb69dc85cb0f1045c5123</title>
<g id="a_node3"><a xlink:href="dir_1666c5f4940eb69dc85cb0f1045c5123.html" target="_top" xlink:title="AnalysisTools">
<polygon fill="white" stroke="red" points="139.5,-340 56.5,-340 56.5,-304 139.5,-304 139.5,-340"/>
<text text-anchor="middle" x="98" y="-319.5" font-family="Helvetica,sans-Serif" font-size="10.00">AnalysisTools</text>
</a>
</g>
</g>
<!-- dir_1666c5f4940eb69dc85cb0f1045c5123&#45;&gt;dir_1a5504e72c2ab618c124e6472b08d26c -->
<g id="edge20" class="edge">
<title>dir_1666c5f4940eb69dc85cb0f1045c5123&#45;&gt;dir_1a5504e72c2ab618c124e6472b08d26c</title>
<path fill="none" stroke="black" d="M89.06,-303.7C69.09,-262.41 26.11,-156.47 72,-88 88.63,-63.19 119.18,-49.98 146.38,-42.96"/>
<polygon fill="black" stroke="black" points="147.29,-46.34 156.22,-40.64 145.68,-39.53 147.29,-46.34"/>
<g id="a_edge20&#45;headlabel"><a xlink:href="dir_000008_000124.html" target="_top" xlink:title="4">
<text text-anchor="middle" x="144.44" y="-47.43" font-family="Helvetica,sans-Serif" font-size="10.00">4</text>
</a>
</g>
</g>
<!-- dir_1666c5f4940eb69dc85cb0f1045c5123&#45;&gt;dir_a4226c5615a06a31e6344f5f3fd917e1 -->
<g id="edge19" class="edge">
<title>dir_1666c5f4940eb69dc85cb0f1045c5123&#45;&gt;dir_a4226c5615a06a31e6344f5f3fd917e1</title>
<path fill="none" stroke="black" d="M135.92,-303.88C160.44,-292.8 192.2,-278.46 216.45,-267.5"/>
<polygon fill="black" stroke="black" points="218.01,-270.64 225.68,-263.34 215.13,-264.26 218.01,-270.64"/>
<g id="a_edge19&#45;headlabel"><a xlink:href="dir_000008_000020.html" target="_top" xlink:title="6">
<text text-anchor="middle" x="215.9" y="-272.21" font-family="Helvetica,sans-Serif" font-size="10.00">6</text>
</a>
</g>
</g>
<!-- dir_d51af3390b888212b7370bb96b9206da -->
<g id="node4" class="node">
<title>dir_d51af3390b888212b7370bb96b9206da</title>
<g id="a_node4"><a xlink:href="dir_d51af3390b888212b7370bb96b9206da.html" target="_top" xlink:title="Boards">
<polygon fill="white" stroke="red" points="446,-340 392,-340 392,-304 446,-304 446,-340"/>
<text text-anchor="middle" x="419" y="-319.5" font-family="Helvetica,sans-Serif" font-size="10.00">Boards</text>
</a>
</g>
</g>
<!-- dir_d51af3390b888212b7370bb96b9206da&#45;&gt;dir_1a5504e72c2ab618c124e6472b08d26c -->
<g id="edge22" class="edge">
<title>dir_d51af3390b888212b7370bb96b9206da&#45;&gt;dir_1a5504e72c2ab618c124e6472b08d26c</title>
<path fill="none" stroke="black" d="M426.33,-303.77C442.93,-261.71 478.16,-152.55 427,-88 406.03,-61.54 315.69,-47.01 255.78,-40.13"/>
<polygon fill="black" stroke="black" points="256.03,-36.64 245.7,-39.01 255.26,-43.6 256.03,-36.64"/>
<g id="a_edge22&#45;headlabel"><a xlink:href="dir_000012_000124.html" target="_top" xlink:title="2">
<text text-anchor="middle" x="259.91" y="-31.71" font-family="Helvetica,sans-Serif" font-size="10.00">2</text>
</a>
</g>
</g>
<!-- dir_d51af3390b888212b7370bb96b9206da&#45;&gt;dir_a4226c5615a06a31e6344f5f3fd917e1 -->
<g id="edge21" class="edge">
<title>dir_d51af3390b888212b7370bb96b9206da&#45;&gt;dir_a4226c5615a06a31e6344f5f3fd917e1</title>
<path fill="none" stroke="black" d="M391.96,-309.6C364.11,-297.85 320.51,-279.47 289.59,-266.43"/>
<polygon fill="black" stroke="black" points="290.6,-263.06 280.03,-262.4 287.88,-269.51 290.6,-263.06"/>
<g id="a_edge21&#45;headlabel"><a xlink:href="dir_000012_000020.html" target="_top" xlink:title="2">
<text text-anchor="middle" x="295.02" y="-259.34" font-family="Helvetica,sans-Serif" font-size="10.00">2</text>
</a>
</g>
</g>
<!-- dir_4ca6fec43e1013816363be86d31756d6 -->
<g id="node5" class="node">
<title>dir_4ca6fec43e1013816363be86d31756d6</title>
<g id="a_node5"><a xlink:href="dir_4ca6fec43e1013816363be86d31756d6.html" target="_top" xlink:title="Connector">
<polygon fill="white" stroke="red" points="182,-196 116,-196 116,-160 182,-160 182,-196"/>
<text text-anchor="middle" x="149" y="-175.5" font-family="Helvetica,sans-Serif" font-size="10.00">Connector</text>
</a>
</g>
</g>
<!-- dir_4ca6fec43e1013816363be86d31756d6&#45;&gt;dir_1a5504e72c2ab618c124e6472b08d26c -->
<g id="edge27" class="edge">
<title>dir_4ca6fec43e1013816363be86d31756d6&#45;&gt;dir_1a5504e72c2ab618c124e6472b08d26c</title>
<path fill="none" stroke="black" d="M149.97,-159.68C151.49,-141.3 155.34,-111.69 165,-88 168.93,-78.37 174.79,-68.7 180.65,-60.31"/>
<polygon fill="black" stroke="black" points="183.59,-62.22 186.67,-52.08 177.94,-58.08 183.59,-62.22"/>
<g id="a_edge27&#45;headlabel"><a xlink:href="dir_000016_000124.html" target="_top" xlink:title="4">
<text text-anchor="middle" x="183.76" y="-64.3" font-family="Helvetica,sans-Serif" font-size="10.00">4</text>
</a>
</g>
</g>
<!-- dir_4ca6fec43e1013816363be86d31756d6&#45;&gt;dir_a4226c5615a06a31e6344f5f3fd917e1 -->
<g id="edge26" class="edge">
<title>dir_4ca6fec43e1013816363be86d31756d6&#45;&gt;dir_a4226c5615a06a31e6344f5f3fd917e1</title>
<path fill="none" stroke="black" d="M180.31,-196.1C194.55,-205.06 211.19,-216.15 225.01,-225.86"/>
<polygon fill="black" stroke="black" points="223.03,-228.75 233.21,-231.7 227.09,-223.04 223.03,-228.75"/>
<g id="a_edge26&#45;headlabel"><a xlink:href="dir_000016_000020.html" target="_top" xlink:title="5">
<text text-anchor="middle" x="218.46" y="-226.47" font-family="Helvetica,sans-Serif" font-size="10.00">5</text>
</a>
</g>
</g>
<!-- dir_410074523dc77f19fbc712633e7470ae -->
<g id="node6" class="node">
<title>dir_410074523dc77f19fbc712633e7470ae</title>
<g id="a_node6"><a xlink:href="dir_410074523dc77f19fbc712633e7470ae.html" target="_top" xlink:title="Controller">
<polygon fill="white" stroke="red" points="285.5,-196 220.5,-196 220.5,-160 285.5,-160 285.5,-196"/>
<text text-anchor="middle" x="253" y="-175.5" font-family="Helvetica,sans-Serif" font-size="10.00">Controller</text>
</a>
</g>
</g>
<!-- dir_410074523dc77f19fbc712633e7470ae&#45;&gt;dir_1a5504e72c2ab618c124e6472b08d26c -->
<g id="edge29" class="edge">
<title>dir_410074523dc77f19fbc712633e7470ae&#45;&gt;dir_1a5504e72c2ab618c124e6472b08d26c</title>
<path fill="none" stroke="black" d="M252.03,-159.68C250.51,-141.3 246.66,-111.69 237,-88 233.07,-78.37 227.21,-68.7 221.35,-60.31"/>
<polygon fill="black" stroke="black" points="224.06,-58.08 215.33,-52.08 218.41,-62.22 224.06,-58.08"/>
<g id="a_edge29&#45;headlabel"><a xlink:href="dir_000094_000124.html" target="_top" xlink:title="1">
<text text-anchor="middle" x="228.47" y="-56.81" font-family="Helvetica,sans-Serif" font-size="10.00">1</text>
</a>
</g>
</g>
<!-- dir_410074523dc77f19fbc712633e7470ae&#45;&gt;dir_e185953657720ba3a67126696ef566c7 -->
<g id="edge30" class="edge">
<title>dir_410074523dc77f19fbc712633e7470ae&#45;&gt;dir_e185953657720ba3a67126696ef566c7</title>
<path fill="none" stroke="black" d="M266.5,-196.46C273.82,-206.48 282.64,-219.51 289,-232 299.2,-252.03 307.64,-276.09 313.29,-294.14"/>
<polygon fill="black" stroke="black" points="309.95,-295.19 316.21,-303.74 316.65,-293.15 309.95,-295.19"/>
<g id="a_edge30&#45;headlabel"><a xlink:href="dir_000094_000097.html" target="_top" xlink:title="1">
<text text-anchor="middle" x="306.19" y="-290.08" font-family="Helvetica,sans-Serif" font-size="10.00">1</text>
</a>
</g>
</g>
<!-- dir_410074523dc77f19fbc712633e7470ae&#45;&gt;dir_a4226c5615a06a31e6344f5f3fd917e1 -->
<g id="edge28" class="edge">
<title>dir_410074523dc77f19fbc712633e7470ae&#45;&gt;dir_a4226c5615a06a31e6344f5f3fd917e1</title>
<path fill="none" stroke="black" d="M258.9,-196.1C259.7,-203.79 259.94,-213.05 259.6,-221.67"/>
<polygon fill="black" stroke="black" points="256.11,-221.48 258.92,-231.7 263.09,-221.96 256.11,-221.48"/>
<g id="a_edge28&#45;headlabel"><a xlink:href="dir_000094_000020.html" target="_top" xlink:title="3">
<text text-anchor="middle" x="253.52" y="-215.2" font-family="Helvetica,sans-Serif" font-size="10.00">3</text>
</a>
</g>
</g>
<!-- dir_e185953657720ba3a67126696ef566c7&#45;&gt;dir_1a5504e72c2ab618c124e6472b08d26c -->
<g id="edge40" class="edge">
<title>dir_e185953657720ba3a67126696ef566c7&#45;&gt;dir_1a5504e72c2ab618c124e6472b08d26c</title>
<path fill="none" stroke="black" d="M320.61,-303.92C319.41,-273.83 314.55,-209.81 295,-160 279.58,-120.71 248.23,-83.05 225.98,-59.53"/>
<polygon fill="black" stroke="black" points="228.29,-56.87 218.82,-52.11 223.25,-61.74 228.29,-56.87"/>
<g id="a_edge40&#45;headlabel"><a xlink:href="dir_000097_000124.html" target="_top" xlink:title="12">
<text text-anchor="middle" x="232.83" y="-54.99" font-family="Helvetica,sans-Serif" font-size="10.00">12</text>
</a>
</g>
</g>
<!-- dir_e185953657720ba3a67126696ef566c7&#45;&gt;dir_a4226c5615a06a31e6344f5f3fd917e1 -->
<g id="edge39" class="edge">
<title>dir_e185953657720ba3a67126696ef566c7&#45;&gt;dir_a4226c5615a06a31e6344f5f3fd917e1</title>
<path fill="none" stroke="black" d="M298.28,-303.7C289.17,-295.22 278.92,-284.86 270.4,-275.58"/>
<polygon fill="black" stroke="black" points="272.99,-273.23 263.72,-268.1 267.77,-277.89 272.99,-273.23"/>
<g id="a_edge39&#45;headlabel"><a xlink:href="dir_000097_000020.html" target="_top" xlink:title="20">
<text text-anchor="middle" x="277.51" y="-271.52" font-family="Helvetica,sans-Serif" font-size="10.00">20</text>
</a>
</g>
</g>
<!-- dir_4d0b0adf7e9fb892c3df556e9cbb05d0 -->
<g id="node10" class="node">
<title>dir_4d0b0adf7e9fb892c3df556e9cbb05d0</title>
<g id="a_node10"><a xlink:href="dir_4d0b0adf7e9fb892c3df556e9cbb05d0.html" target="_top" xlink:title="Protocols">
<polygon fill="white" stroke="red" points="406,-196 344,-196 344,-160 406,-160 406,-196"/>
<text text-anchor="middle" x="375" y="-175.5" font-family="Helvetica,sans-Serif" font-size="10.00">Protocols</text>
</a>
</g>
</g>
<!-- dir_e185953657720ba3a67126696ef566c7&#45;&gt;dir_4d0b0adf7e9fb892c3df556e9cbb05d0 -->
<g id="edge41" class="edge">
<title>dir_e185953657720ba3a67126696ef566c7&#45;&gt;dir_4d0b0adf7e9fb892c3df556e9cbb05d0</title>
<path fill="none" stroke="black" d="M322.93,-303.87C329.66,-279.35 346.63,-234.03 359.63,-205.26"/>
<polygon fill="black" stroke="black" points="362.81,-206.73 363.87,-196.19 356.47,-203.77 362.81,-206.73"/>
<g id="a_edge41&#45;headlabel"><a xlink:href="dir_000097_000063.html" target="_top" xlink:title="4">
<text text-anchor="middle" x="363.86" y="-208.69" font-family="Helvetica,sans-Serif" font-size="10.00">4</text>
</a>
</g>
</g>
<!-- dir_6a49a4a01df89ea000e629175e7db917 -->
<g id="node11" class="node">
<title>dir_6a49a4a01df89ea000e629175e7db917</title>
<g id="a_node11"><a xlink:href="dir_6a49a4a01df89ea000e629175e7db917.html" target="_top" xlink:title="RTOS">
<polygon fill="white" stroke="red" points="418,-124 364,-124 364,-88 418,-88 418,-124"/>
<text text-anchor="middle" x="391" y="-103.5" font-family="Helvetica,sans-Serif" font-size="10.00">RTOS</text>
</a>
</g>
</g>
<!-- dir_e185953657720ba3a67126696ef566c7&#45;&gt;dir_6a49a4a01df89ea000e629175e7db917 -->
<g id="edge42" class="edge">
<title>dir_e185953657720ba3a67126696ef566c7&#45;&gt;dir_6a49a4a01df89ea000e629175e7db917</title>
<path fill="none" stroke="black" d="M339.94,-303.76C362.86,-281.5 400.2,-240.3 415,-196 421.93,-175.25 414.62,-151.29 406.3,-133.46"/>
<polygon fill="black" stroke="black" points="409.28,-131.6 401.65,-124.24 403.03,-134.75 409.28,-131.6"/>
<g id="a_edge42&#45;headlabel"><a xlink:href="dir_000097_000070.html" target="_top" xlink:title="4">
<text text-anchor="middle" x="413.43" y="-131.03" font-family="Helvetica,sans-Serif" font-size="10.00">4</text>
</a>
</g>
</g>
<!-- dir_a4226c5615a06a31e6344f5f3fd917e1&#45;&gt;dir_4ca6fec43e1013816363be86d31756d6 -->
<g id="edge2" class="edge">
<title>dir_a4226c5615a06a31e6344f5f3fd917e1&#45;&gt;dir_4ca6fec43e1013816363be86d31756d6</title>
<path fill="none" stroke="black" d="M225.86,-234.5C210.84,-225.19 192.31,-212.9 177.14,-202.25"/>
<polygon fill="black" stroke="black" points="178.83,-199.15 168.65,-196.2 174.77,-204.86 178.83,-199.15"/>
<g id="a_edge2&#45;headlabel"><a xlink:href="dir_000020_000016.html" target="_top" xlink:title="1">
<text text-anchor="middle" x="183.41" y="-196.43" font-family="Helvetica,sans-Serif" font-size="10.00">1</text>
</a>
</g>
</g>
<!-- dir_a4226c5615a06a31e6344f5f3fd917e1&#45;&gt;dir_410074523dc77f19fbc712633e7470ae -->
<g id="edge3" class="edge">
<title>dir_a4226c5615a06a31e6344f5f3fd917e1&#45;&gt;dir_410074523dc77f19fbc712633e7470ae</title>
<path fill="none" stroke="black" d="M247.08,-231.7C246.29,-223.98 246.06,-214.71 246.4,-206.11"/>
<polygon fill="black" stroke="black" points="249.9,-206.32 247.1,-196.1 242.92,-205.84 249.9,-206.32"/>
<g id="a_edge3&#45;headlabel"><a xlink:href="dir_000020_000094.html" target="_top" xlink:title="1">
<text text-anchor="middle" x="252.48" y="-207.61" font-family="Helvetica,sans-Serif" font-size="10.00">1</text>
</a>
</g>
</g>
<!-- dir_a4226c5615a06a31e6344f5f3fd917e1&#45;&gt;dir_1a5504e72c2ab618c124e6472b08d26c -->
<g id="edge4" class="edge">
<title>dir_a4226c5615a06a31e6344f5f3fd917e1&#45;&gt;dir_1a5504e72c2ab618c124e6472b08d26c</title>
<path fill="none" stroke="black" d="M225.95,-248C191.7,-245.1 133.93,-234.42 107,-196 74.22,-149.23 131.29,-90.45 169.92,-58.43"/>
<polygon fill="black" stroke="black" points="172.27,-61.03 177.84,-52.02 167.86,-55.59 172.27,-61.03"/>
<g id="a_edge4&#45;headlabel"><a xlink:href="dir_000020_000124.html" target="_top" xlink:title="26">
<text text-anchor="middle" x="171.26" y="-63" font-family="Helvetica,sans-Serif" font-size="10.00">26</text>
</a>
</g>
</g>
<!-- dir_a4226c5615a06a31e6344f5f3fd917e1&#45;&gt;dir_e185953657720ba3a67126696ef566c7 -->
<g id="edge6" class="edge">
<title>dir_a4226c5615a06a31e6344f5f3fd917e1&#45;&gt;dir_e185953657720ba3a67126696ef566c7</title>
<path fill="none" stroke="black" d="M275.51,-268.1C284.6,-276.55 294.85,-286.9 303.4,-296.2"/>
<polygon fill="black" stroke="black" points="300.83,-298.58 310.11,-303.7 306.05,-293.91 300.83,-298.58"/>
<g id="a_edge6&#45;headlabel"><a xlink:href="dir_000020_000097.html" target="_top" xlink:title="8">
<text text-anchor="middle" x="296.32" y="-295.29" font-family="Helvetica,sans-Serif" font-size="10.00">8</text>
</a>
</g>
</g>
<!-- dir_a4226c5615a06a31e6344f5f3fd917e1&#45;&gt;dir_4d0b0adf7e9fb892c3df556e9cbb05d0 -->
<g id="edge5" class="edge">
<title>dir_a4226c5615a06a31e6344f5f3fd917e1&#45;&gt;dir_4d0b0adf7e9fb892c3df556e9cbb05d0</title>
<path fill="none" stroke="black" d="M276.95,-231.88C293.55,-221.74 315.9,-208.88 335.12,-198.37"/>
<polygon fill="black" stroke="black" points="336.85,-201.42 343.98,-193.58 333.52,-195.26 336.85,-201.42"/>
<g id="a_edge5&#45;headlabel"><a xlink:href="dir_000020_000063.html" target="_top" xlink:title="3">
<text text-anchor="middle" x="335.04" y="-203.12" font-family="Helvetica,sans-Serif" font-size="10.00">3</text>
</a>
</g>
</g>
<!-- dir_a4226c5615a06a31e6344f5f3fd917e1&#45;&gt;dir_6a49a4a01df89ea000e629175e7db917 -->
<g id="edge7" class="edge">
<title>dir_a4226c5615a06a31e6344f5f3fd917e1&#45;&gt;dir_6a49a4a01df89ea000e629175e7db917</title>
<path fill="none" stroke="black" d="M261.4,-231.95C275.28,-213.79 301.95,-184.38 326,-160 335.66,-150.2 346.6,-139.73 356.8,-130.7"/>
<polygon fill="black" stroke="black" points="359.15,-133.3 364.43,-124.11 354.58,-128 359.15,-133.3"/>
<g id="a_edge7&#45;headlabel"><a xlink:href="dir_000020_000070.html" target="_top" xlink:title="4">
<text text-anchor="middle" x="358.29" y="-135.3" font-family="Helvetica,sans-Serif" font-size="10.00">4</text>
</a>
</g>
</g>
<!-- dir_c2cd4762e89f989d55fa2b0634ddfc81 -->
<g id="node16" class="node">
<title>dir_c2cd4762e89f989d55fa2b0634ddfc81</title>
<g id="a_node16"><a xlink:href="dir_c2cd4762e89f989d55fa2b0634ddfc81.html" target="_top" xlink:title="Utility">
<polygon fill="white" stroke="red" points="228,-124 174,-124 174,-88 228,-88 228,-124"/>
<text text-anchor="middle" x="201" y="-103.5" font-family="Helvetica,sans-Serif" font-size="10.00">Utility</text>
</a>
</g>
</g>
<!-- dir_a4226c5615a06a31e6344f5f3fd917e1&#45;&gt;dir_c2cd4762e89f989d55fa2b0634ddfc81 -->
<g id="edge1" class="edge">
<title>dir_a4226c5615a06a31e6344f5f3fd917e1&#45;&gt;dir_c2cd4762e89f989d55fa2b0634ddfc81</title>
<path fill="none" stroke="black" d="M227.94,-231.9C218.28,-222.19 208.49,-209.34 203,-196 194.91,-176.36 192.32,-152.37 193.03,-134.25"/>
<polygon fill="black" stroke="black" points="196.53,-134.32 193.84,-124.07 189.55,-133.76 196.53,-134.32"/>
<g id="a_edge1&#45;headlabel"><a xlink:href="dir_000020_000088.html" target="_top" xlink:title="2">
<text text-anchor="middle" x="199.07" y="-135.63" font-family="Helvetica,sans-Serif" font-size="10.00">2</text>
</a>
</g>
</g>
<!-- dir_4d0b0adf7e9fb892c3df556e9cbb05d0&#45;&gt;dir_1a5504e72c2ab618c124e6472b08d26c -->
<g id="edge36" class="edge">
<title>dir_4d0b0adf7e9fb892c3df556e9cbb05d0&#45;&gt;dir_1a5504e72c2ab618c124e6472b08d26c</title>
<path fill="none" stroke="black" d="M368,-159.78C358.46,-136.97 341.25,-98.4 330,-88 309.2,-68.77 280.48,-56.05 255.42,-47.9"/>
<polygon fill="black" stroke="black" points="256.24,-44.5 245.65,-44.9 254.18,-51.19 256.24,-44.5"/>
<g id="a_edge36&#45;headlabel"><a xlink:href="dir_000063_000124.html" target="_top" xlink:title="11">
<text text-anchor="middle" x="260.51" y="-40.34" font-family="Helvetica,sans-Serif" font-size="10.00">11</text>
</a>
</g>
</g>
<!-- dir_4d0b0adf7e9fb892c3df556e9cbb05d0&#45;&gt;dir_e185953657720ba3a67126696ef566c7 -->
<g id="edge37" class="edge">
<title>dir_4d0b0adf7e9fb892c3df556e9cbb05d0&#45;&gt;dir_e185953657720ba3a67126696ef566c7</title>
<path fill="none" stroke="black" d="M373.05,-196.19C366.3,-220.74 349.33,-266.07 336.33,-294.81"/>
<polygon fill="black" stroke="black" points="333.16,-293.33 332.1,-303.87 339.5,-296.29 333.16,-293.33"/>
<g id="a_edge37&#45;headlabel"><a xlink:href="dir_000063_000097.html" target="_top" xlink:title="3">
<text text-anchor="middle" x="332.11" y="-286.37" font-family="Helvetica,sans-Serif" font-size="10.00">3</text>
</a>
</g>
</g>
<!-- dir_4d0b0adf7e9fb892c3df556e9cbb05d0&#45;&gt;dir_a4226c5615a06a31e6344f5f3fd917e1 -->
<g id="edge34" class="edge">
<title>dir_4d0b0adf7e9fb892c3df556e9cbb05d0&#45;&gt;dir_a4226c5615a06a31e6344f5f3fd917e1</title>
<path fill="none" stroke="black" d="M351.03,-196.14C333.3,-206.96 309.01,-220.9 288.99,-231.74"/>
<polygon fill="black" stroke="black" points="287.29,-228.68 280.13,-236.49 290.6,-234.85 287.29,-228.68"/>
<g id="a_edge34&#45;headlabel"><a xlink:href="dir_000063_000020.html" target="_top" xlink:title="14">
<text text-anchor="middle" x="289.12" y="-221.98" font-family="Helvetica,sans-Serif" font-size="10.00">14</text>
</a>
</g>
</g>
<!-- dir_4d0b0adf7e9fb892c3df556e9cbb05d0&#45;&gt;dir_6a49a4a01df89ea000e629175e7db917 -->
<g id="edge38" class="edge">
<title>dir_4d0b0adf7e9fb892c3df556e9cbb05d0&#45;&gt;dir_6a49a4a01df89ea000e629175e7db917</title>
<path fill="none" stroke="black" d="M378.96,-159.7C380.72,-151.98 382.84,-142.71 384.8,-134.11"/>
<polygon fill="black" stroke="black" points="388.27,-134.63 387.09,-124.1 381.45,-133.07 388.27,-134.63"/>
<g id="a_edge38&#45;headlabel"><a xlink:href="dir_000063_000070.html" target="_top" xlink:title="3">
<text text-anchor="middle" x="390.24" y="-136.27" font-family="Helvetica,sans-Serif" font-size="10.00">3</text>
</a>
</g>
</g>
<!-- dir_4d0b0adf7e9fb892c3df556e9cbb05d0&#45;&gt;dir_c2cd4762e89f989d55fa2b0634ddfc81 -->
<g id="edge35" class="edge">
<title>dir_4d0b0adf7e9fb892c3df556e9cbb05d0&#45;&gt;dir_c2cd4762e89f989d55fa2b0634ddfc81</title>
<path fill="none" stroke="black" d="M343.89,-164.49C314.04,-152.48 268.96,-134.34 237.44,-121.66"/>
<polygon fill="black" stroke="black" points="238.71,-118.4 228.12,-117.91 236.09,-124.89 238.71,-118.4"/>
<g id="a_edge35&#45;headlabel"><a xlink:href="dir_000063_000088.html" target="_top" xlink:title="1">
<text text-anchor="middle" x="243.1" y="-114.6" font-family="Helvetica,sans-Serif" font-size="10.00">1</text>
</a>
</g>
</g>
<!-- dir_6a49a4a01df89ea000e629175e7db917&#45;&gt;dir_1a5504e72c2ab618c124e6472b08d26c -->
<g id="edge44" class="edge">
<title>dir_6a49a4a01df89ea000e629175e7db917&#45;&gt;dir_1a5504e72c2ab618c124e6472b08d26c</title>
<path fill="none" stroke="black" d="M363.73,-93.46C359.16,-91.6 354.46,-89.72 350,-88 318.83,-76 283.63,-63.44 255.28,-53.56"/>
<polygon fill="black" stroke="black" points="256.15,-50.15 245.55,-50.18 253.85,-56.77 256.15,-50.15"/>
<g id="a_edge44&#45;headlabel"><a xlink:href="dir_000070_000124.html" target="_top" xlink:title="2">
<text text-anchor="middle" x="260.48" y="-46.15" font-family="Helvetica,sans-Serif" font-size="10.00">2</text>
</a>
</g>
</g>
<!-- dir_6a49a4a01df89ea000e629175e7db917&#45;&gt;dir_a4226c5615a06a31e6344f5f3fd917e1 -->
<g id="edge43" class="edge">
<title>dir_6a49a4a01df89ea000e629175e7db917&#45;&gt;dir_a4226c5615a06a31e6344f5f3fd917e1</title>
<path fill="none" stroke="black" d="M379.9,-124.35C370.03,-134.55 356.03,-147.8 344,-160 322.95,-181.33 299.91,-206.52 282.06,-224.64"/>
<polygon fill="black" stroke="black" points="279.35,-222.4 274.76,-231.95 284.3,-227.35 279.35,-222.4"/>
<g id="a_edge43&#45;headlabel"><a xlink:href="dir_000070_000020.html" target="_top" xlink:title="2">
<text text-anchor="middle" x="279.89" y="-215.35" font-family="Helvetica,sans-Serif" font-size="10.00">2</text>
</a>
</g>
</g>
<!-- dir_82d83c9747486c2eb8d3c4c8f409d82b -->
<g id="node12" class="node">
<title>dir_82d83c9747486c2eb8d3c4c8f409d82b</title>
<g id="a_node12"><a xlink:href="dir_82d83c9747486c2eb8d3c4c8f409d82b.html" target="_top" xlink:title="Sensor">
<polygon fill="white" stroke="red" points="400,-412 346,-412 346,-376 400,-376 400,-412"/>
<text text-anchor="middle" x="373" y="-391.5" font-family="Helvetica,sans-Serif" font-size="10.00">Sensor</text>
</a>
</g>
</g>
<!-- dir_82d83c9747486c2eb8d3c4c8f409d82b&#45;&gt;dir_1a5504e72c2ab618c124e6472b08d26c -->
<g id="edge9" class="edge">
<title>dir_82d83c9747486c2eb8d3c4c8f409d82b&#45;&gt;dir_1a5504e72c2ab618c124e6472b08d26c</title>
<path fill="none" stroke="black" d="M400.1,-384.22C420.99,-376.06 448.94,-361.82 465,-340 489.04,-307.35 485,-291.54 485,-251 485,-251 485,-251 485,-177 485,-132.87 475.74,-115.21 441,-88 412.64,-65.78 317.28,-49.82 255.64,-41.52"/>
<polygon fill="black" stroke="black" points="256.05,-38.04 245.68,-40.21 255.14,-44.98 256.05,-38.04"/>
<g id="a_edge9&#45;headlabel"><a xlink:href="dir_000074_000124.html" target="_top" xlink:title="2">
<text text-anchor="middle" x="259.99" y="-33.2" font-family="Helvetica,sans-Serif" font-size="10.00">2</text>
</a>
</g>
</g>
<!-- dir_82d83c9747486c2eb8d3c4c8f409d82b&#45;&gt;dir_e185953657720ba3a67126696ef566c7 -->
<g id="edge11" class="edge">
<title>dir_82d83c9747486c2eb8d3c4c8f409d82b&#45;&gt;dir_e185953657720ba3a67126696ef566c7</title>
<path fill="none" stroke="black" d="M360.15,-375.7C353.97,-367.39 346.46,-357.28 339.68,-348.14"/>
<polygon fill="black" stroke="black" points="342.48,-346.04 333.71,-340.1 336.86,-350.22 342.48,-346.04"/>
<g id="a_edge11&#45;headlabel"><a xlink:href="dir_000074_000097.html" target="_top" xlink:title="1">
<text text-anchor="middle" x="346.9" y="-344.74" font-family="Helvetica,sans-Serif" font-size="10.00">1</text>
</a>
</g>
</g>
<!-- dir_82d83c9747486c2eb8d3c4c8f409d82b&#45;&gt;dir_a4226c5615a06a31e6344f5f3fd917e1 -->
<g id="edge8" class="edge">
<title>dir_82d83c9747486c2eb8d3c4c8f409d82b&#45;&gt;dir_a4226c5615a06a31e6344f5f3fd917e1</title>
<path fill="none" stroke="black" d="M345.62,-383.8C324.8,-375.46 296.93,-361.2 280,-340 265.87,-322.3 259.12,-297.28 255.9,-278.28"/>
<polygon fill="black" stroke="black" points="259.33,-277.54 254.42,-268.15 252.41,-278.55 259.33,-277.54"/>
<g id="a_edge8&#45;headlabel"><a xlink:href="dir_000074_000020.html" target="_top" xlink:title="5">
<text text-anchor="middle" x="262.66" y="-278.18" font-family="Helvetica,sans-Serif" font-size="10.00">5</text>
</a>
</g>
</g>
<!-- dir_82d83c9747486c2eb8d3c4c8f409d82b&#45;&gt;dir_4d0b0adf7e9fb892c3df556e9cbb05d0 -->
<g id="edge10" class="edge">
<title>dir_82d83c9747486c2eb8d3c4c8f409d82b&#45;&gt;dir_4d0b0adf7e9fb892c3df556e9cbb05d0</title>
<path fill="none" stroke="black" d="M373.16,-375.85C373.51,-338.83 374.33,-251.18 374.74,-206.39"/>
<polygon fill="black" stroke="black" points="378.25,-206.26 374.84,-196.23 371.25,-206.2 378.25,-206.26"/>
<g id="a_edge10&#45;headlabel"><a xlink:href="dir_000074_000063.html" target="_top" xlink:title="2">
<text text-anchor="middle" x="381.05" y="-207.39" font-family="Helvetica,sans-Serif" font-size="10.00">2</text>
</a>
</g>
</g>
<!-- dir_82d83c9747486c2eb8d3c4c8f409d82b&#45;&gt;dir_6a49a4a01df89ea000e629175e7db917 -->
<g id="edge12" class="edge">
<title>dir_82d83c9747486c2eb8d3c4c8f409d82b&#45;&gt;dir_6a49a4a01df89ea000e629175e7db917</title>
<path fill="none" stroke="black" d="M400.05,-383.58C419.18,-375.33 443.41,-361.29 455,-340 492.81,-270.54 440.23,-177.03 409.88,-132.56"/>
<polygon fill="black" stroke="black" points="412.56,-130.28 403.96,-124.09 406.82,-134.29 412.56,-130.28"/>
<g id="a_edge12&#45;headlabel"><a xlink:href="dir_000074_000070.html" target="_top" xlink:title="2">
<text text-anchor="middle" x="416.95" y="-129.1" font-family="Helvetica,sans-Serif" font-size="10.00">2</text>
</a>
</g>
</g>
<!-- dir_6164661bfb521e4b540c7b7052af2911 -->
<g id="node13" class="node">
<title>dir_6164661bfb521e4b540c7b7052af2911</title>
<g id="a_node13"><a xlink:href="dir_6164661bfb521e4b540c7b7052af2911.html" target="_top" xlink:title="Service">
<polygon fill="white" stroke="red" points="154,-412 100,-412 100,-376 154,-376 154,-412"/>
<text text-anchor="middle" x="127" y="-391.5" font-family="Helvetica,sans-Serif" font-size="10.00">Service</text>
</a>
</g>
</g>
<!-- dir_6164661bfb521e4b540c7b7052af2911&#45;&gt;dir_1666c5f4940eb69dc85cb0f1045c5123 -->
<g id="edge16" class="edge">
<title>dir_6164661bfb521e4b540c7b7052af2911&#45;&gt;dir_1666c5f4940eb69dc85cb0f1045c5123</title>
<path fill="none" stroke="black" d="M119.83,-375.7C116.57,-367.81 112.63,-358.3 109,-349.55"/>
<polygon fill="black" stroke="black" points="112.15,-348 105.09,-340.1 105.68,-350.68 112.15,-348"/>
<g id="a_edge16&#45;headlabel"><a xlink:href="dir_000110_000008.html" target="_top" xlink:title="1">
<text text-anchor="middle" x="116.15" y="-347.74" font-family="Helvetica,sans-Serif" font-size="10.00">1</text>
</a>
</g>
</g>
<!-- dir_6164661bfb521e4b540c7b7052af2911&#45;&gt;dir_1a5504e72c2ab618c124e6472b08d26c -->
<g id="edge17" class="edge">
<title>dir_6164661bfb521e4b540c7b7052af2911&#45;&gt;dir_1a5504e72c2ab618c124e6472b08d26c</title>
<path fill="none" stroke="black" d="M99.73,-381.97C81.96,-373.3 59.94,-359.41 48,-340 27.12,-306.05 37,-290.86 37,-251 37,-251 37,-251 37,-177 37,-136.89 26.22,-118.73 52,-88 75.25,-60.29 114.03,-47.06 146.2,-40.75"/>
<polygon fill="black" stroke="black" points="147.15,-44.14 156.38,-38.94 145.92,-37.25 147.15,-44.14"/>
<g id="a_edge17&#45;headlabel"><a xlink:href="dir_000110_000124.html" target="_top" xlink:title="1">
<text text-anchor="middle" x="144.11" y="-45.06" font-family="Helvetica,sans-Serif" font-size="10.00">1</text>
</a>
</g>
</g>
<!-- dir_6164661bfb521e4b540c7b7052af2911&#45;&gt;dir_e185953657720ba3a67126696ef566c7 -->
<g id="edge18" class="edge">
<title>dir_6164661bfb521e4b540c7b7052af2911&#45;&gt;dir_e185953657720ba3a67126696ef566c7</title>
<path fill="none" stroke="black" d="M154.38,-383.12C186.69,-371.46 240.79,-351.94 278.54,-338.32"/>
<polygon fill="black" stroke="black" points="280.03,-341.5 288.25,-334.82 277.65,-334.92 280.03,-341.5"/>
<g id="a_edge18&#45;headlabel"><a xlink:href="dir_000110_000097.html" target="_top" xlink:title="1">
<text text-anchor="middle" x="277.61" y="-342.9" font-family="Helvetica,sans-Serif" font-size="10.00">1</text>
</a>
</g>
</g>
<!-- dir_6164661bfb521e4b540c7b7052af2911&#45;&gt;dir_a4226c5615a06a31e6344f5f3fd917e1 -->
<g id="edge15" class="edge">
<title>dir_6164661bfb521e4b540c7b7052af2911&#45;&gt;dir_a4226c5615a06a31e6344f5f3fd917e1</title>
<path fill="none" stroke="black" d="M138.95,-375.95C152.13,-357.53 174.37,-327.66 196,-304 205.14,-294.01 215.85,-283.71 225.52,-274.89"/>
<polygon fill="black" stroke="black" points="227.9,-277.46 232.99,-268.16 223.21,-272.25 227.9,-277.46"/>
<g id="a_edge15&#45;headlabel"><a xlink:href="dir_000110_000020.html" target="_top" xlink:title="1">
<text text-anchor="middle" x="227.13" y="-279.47" font-family="Helvetica,sans-Serif" font-size="10.00">1</text>
</a>
</g>
</g>
<!-- dir_6c63dd282651b43f4337d292845f5ec4 -->
<g id="node14" class="node">
<title>dir_6c63dd282651b43f4337d292845f5ec4</title>
<g id="a_node14"><a xlink:href="dir_6c63dd282651b43f4337d292845f5ec4.html" target="_top" xlink:title="Template">
<polygon fill="white" stroke="red" points="349,-484 287,-484 287,-448 349,-448 349,-484"/>
<text text-anchor="middle" x="318" y="-463.5" font-family="Helvetica,sans-Serif" font-size="10.00">Template</text>
</a>
</g>
</g>
<!-- dir_eec1bb706bd2e5107de375aec258065a -->
<g id="node15" class="node">
<title>dir_eec1bb706bd2e5107de375aec258065a</title>
<g id="a_node15"><a xlink:href="dir_eec1bb706bd2e5107de375aec258065a.html" target="_top" xlink:title="User">
<polygon fill="white" stroke="red" points="228,-484 174,-484 174,-448 228,-448 228,-484"/>
<text text-anchor="middle" x="201" y="-463.5" font-family="Helvetica,sans-Serif" font-size="10.00">User</text>
</a>
</g>
</g>
<!-- dir_eec1bb706bd2e5107de375aec258065a&#45;&gt;dir_8efbaa1056a51686757185dce0bc8da0 -->
<g id="edge24" class="edge">
<title>dir_eec1bb706bd2e5107de375aec258065a&#45;&gt;dir_8efbaa1056a51686757185dce0bc8da0</title>
<path fill="none" stroke="black" d="M212.87,-447.7C218.5,-439.47 225.35,-429.48 231.57,-420.42"/>
<polygon fill="black" stroke="black" points="234.5,-422.33 237.27,-412.1 228.73,-418.37 234.5,-422.33"/>
<g id="a_edge24&#45;headlabel"><a xlink:href="dir_000084_000002.html" target="_top" xlink:title="1">
<text text-anchor="middle" x="234.81" y="-424.4" font-family="Helvetica,sans-Serif" font-size="10.00">1</text>
</a>
</g>
</g>
<!-- dir_eec1bb706bd2e5107de375aec258065a&#45;&gt;dir_1a5504e72c2ab618c124e6472b08d26c -->
<g id="edge25" class="edge">
<title>dir_eec1bb706bd2e5107de375aec258065a&#45;&gt;dir_1a5504e72c2ab618c124e6472b08d26c</title>
<path fill="none" stroke="black" d="M173.85,-457.82C122.67,-442.47 17,-401.28 17,-323 17,-323 17,-323 17,-177 17,-136.89 5.64,-118.24 32,-88 60.35,-55.48 108.39,-42.68 146.02,-37.76"/>
<polygon fill="black" stroke="black" points="146.8,-41.2 156.33,-36.57 146,-34.24 146.8,-41.2"/>
<g id="a_edge25&#45;headlabel"><a xlink:href="dir_000084_000124.html" target="_top" xlink:title="1">
<text text-anchor="middle" x="143.55" y="-41.93" font-family="Helvetica,sans-Serif" font-size="10.00">1</text>
</a>
</g>
</g>
<!-- dir_eec1bb706bd2e5107de375aec258065a&#45;&gt;dir_a4226c5615a06a31e6344f5f3fd917e1 -->
<g id="edge23" class="edge">
<title>dir_eec1bb706bd2e5107de375aec258065a&#45;&gt;dir_a4226c5615a06a31e6344f5f3fd917e1</title>
<path fill="none" stroke="black" d="M201.85,-447.76C202.99,-429.7 205.55,-400.59 211,-376 218.7,-341.23 232.55,-302.56 242.24,-277.57"/>
<polygon fill="black" stroke="black" points="245.57,-278.65 245.97,-268.06 239.06,-276.09 245.57,-278.65"/>
<g id="a_edge23&#45;headlabel"><a xlink:href="dir_000084_000020.html" target="_top" xlink:title="2">
<text text-anchor="middle" x="246.9" y="-280.53" font-family="Helvetica,sans-Serif" font-size="10.00">2</text>
</a>
</g>
</g>
<!-- dir_c2cd4762e89f989d55fa2b0634ddfc81&#45;&gt;dir_1a5504e72c2ab618c124e6472b08d26c -->
<g id="edge14" class="edge">
<title>dir_c2cd4762e89f989d55fa2b0634ddfc81&#45;&gt;dir_1a5504e72c2ab618c124e6472b08d26c</title>
<path fill="none" stroke="black" d="M201,-87.7C201,-79.98 201,-70.71 201,-62.11"/>
<polygon fill="black" stroke="black" points="204.5,-62.1 201,-52.1 197.5,-62.1 204.5,-62.1"/>
<g id="a_edge14&#45;headlabel"><a xlink:href="dir_000088_000124.html" target="_top" xlink:title="1">
<text text-anchor="middle" x="207.34" y="-63.2" font-family="Helvetica,sans-Serif" font-size="10.00">1</text>
</a>
</g>
</g>
<!-- dir_c2cd4762e89f989d55fa2b0634ddfc81&#45;&gt;dir_a4226c5615a06a31e6344f5f3fd917e1 -->
<g id="edge13" class="edge">
<title>dir_c2cd4762e89f989d55fa2b0634ddfc81&#45;&gt;dir_a4226c5615a06a31e6344f5f3fd917e1</title>
<path fill="none" stroke="black" d="M207.11,-124.07C209.5,-142.51 211.28,-172.39 221,-196 225.08,-205.9 231.52,-215.53 237.69,-223.81"/>
<polygon fill="black" stroke="black" points="235.03,-226.1 243.9,-231.9 240.58,-221.83 235.03,-226.1"/>
<g id="a_edge13&#45;headlabel"><a xlink:href="dir_000088_000020.html" target="_top" xlink:title="1">
<text text-anchor="middle" x="230.59" y="-222.48" font-family="Helvetica,sans-Serif" font-size="10.00">1</text>
</a>
</g>
</g>
</g>
</svg>
        <g id="navigator" transform="translate(0 0)" fill="#404254">
                <rect fill="#f2f5e9" fill-opacity="0.5" stroke="#606060" stroke-width=".5" x="0" y="0" width="60" height="60"/>
                <use id="zoomplus" xlink:href="#zoomPlus" x="17" y="9" onmousedown="handleZoom(evt,'in')"/>
                <use id="zoomminus" xlink:href="#zoomMin" x="42" y="9" onmousedown="handleZoom(evt,'out')"/>
                <use id="reset" xlink:href="#resetDef" x="30" y="36" onmousedown="handleReset()"/>
                <g id="arrowUp" xlink:href="#dirArrow" transform="translate(30 24)" onmousedown="handlePan(0,-1)">
                  <use xlink:href="#rim" fill="#404040">
                        <set attributeName="fill" to="#808080" begin="arrowUp.mouseover" end="arrowUp.mouseout"/>
                  </use>
                  <path fill="none" stroke="white" stroke-width="1.5" d="M0,-3.0v7 M-2.5,-0.5L0,-3.0L2.5,-0.5"/>
                </g>
                <g id="arrowRight" xlink:href="#dirArrow" transform="rotate(90) translate(36 -43)" onmousedown="handlePan(1,0)">
                  <use xlink:href="#rim" fill="#404040">
                        <set attributeName="fill" to="#808080" begin="arrowRight.mouseover" end="arrowRight.mouseout"/>
                  </use>
                  <path fill="none" stroke="white" stroke-width="1.5" d="M0,-3.0v7 M-2.5,-0.5L0,-3.0L2.5,-0.5"/>
                </g>
                <g id="arrowDown" xlink:href="#dirArrow" transform="rotate(180) translate(-30 -48)" onmousedown="handlePan(0,1)">
                  <use xlink:href="#rim" fill="#404040">
                        <set attributeName="fill" to="#808080" begin="arrowDown.mouseover" end="arrowDown.mouseout"/>
                  </use>
                  <path fill="none" stroke="white" stroke-width="1.5" d="M0,-3.0v7 M-2.5,-0.5L0,-3.0L2.5,-0.5"/>
                </g>
                <g id="arrowLeft" xlink:href="#dirArrow" transform="rotate(270) translate(-36 17)" onmousedown="handlePan(-1,0)">
                  <use xlink:href="#rim" fill="#404040">
                        <set attributeName="fill" to="#808080" begin="arrowLeft.mouseover" end="arrowLeft.mouseout"/>
                  </use>
                  <path fill="none" stroke="white" stroke-width="1.5" d="M0,-3.0v7 M-2.5,-0.5L0,-3.0L2.5,-0.5"/>
                </g>
        </g>
        <svg viewBox="0 0 15 15" width="100%" height="30px" preserveAspectRatio="xMaxYMin meet">
         <g id="arrow_out" transform="scale(0.3 0.3)">
          <a xlink:href="dir_08f45fe6822aeb4ce2bc268e3b1361be_dep_org.svg" target="_base">
           <rect id="button" ry="5" rx="5" y="6" x="6" height="38" width="38"
                fill="#f2f5e9" fill-opacity="0.5" stroke="#606060" stroke-width="1.0"/>
           <path id="arrow"
             d="M 11.500037,31.436501 C 11.940474,20.09759 22.043105,11.32322 32.158766,21.979434 L 37.068811,17.246167 C 37.068811,17.246167 37.088388,32 37.088388,32 L 22.160133,31.978069 C 22.160133,31.978069 26.997745,27.140456 26.997745,27.140456 C 18.528582,18.264221 13.291696,25.230495 11.500037,31.436501 z"
             style="fill:#404040;"/>
          </a>
         </g>
        </svg>
</svg>
