<?xml version="1.0" encoding="UTF-8" standalone="no"?>
<!DOCTYPE svg PUBLIC "-//W3C//DTD SVG 1.1//EN"
 "http://www.w3.org/Graphics/SVG/1.1/DTD/svg11.dtd">
<!-- Generated by graphviz version 2.43.0 (0)
 -->
<!-- Title: Components/RTOS/FreeRTOS Pages: 1 -->
<svg width="318pt" height="231pt"
 viewBox="0.00 0.00 318.00 231.00" xmlns="http://www.w3.org/2000/svg" xmlns:xlink="http://www.w3.org/1999/xlink">
<g id="graph0" class="graph" transform="scale(1 1) rotate(0) translate(4 227)">
<title>Components/RTOS/FreeRTOS</title>
<g id="clust1" class="cluster">
<title>clusterdir_6a49a4a01df89ea000e629175e7db917</title>
<g id="a_clust1"><a xlink:href="dir_6a49a4a01df89ea000e629175e7db917.html" target="_top" xlink:title="RTOS">
<polygon fill="#ddddee" stroke="black" points="8,-56 8,-215 248,-215 248,-56 8,-56"/>
<text text-anchor="middle" x="128" y="-203" font-family="Helvetica,sans-Serif" font-size="10.00">RTOS</text>
</a>
</g>
</g>
<g id="clust2" class="cluster">
<title>clusterdir_8e42ae9194b224a610afb30855b0ed3f</title>
<g id="a_clust2"><a xlink:href="dir_8e42ae9194b224a610afb30855b0ed3f.html" target="_top">
<polygon fill="#eeeeff" stroke="black" points="16,-64 16,-188 240,-188 240,-64 16,-64"/>
</a>
</g>
</g>
<!-- dir_8e42ae9194b224a610afb30855b0ed3f -->
<g id="node1" class="node">
<title>dir_8e42ae9194b224a610afb30855b0ed3f</title>
<text text-anchor="middle" x="200" y="-159.5" font-family="Helvetica,sans-Serif" font-size="10.00">FreeRTOS</text>
</g>
<!-- dir_aa914f7226ab3903f971da5f5e1187a9 -->
<g id="node2" class="node">
<title>dir_aa914f7226ab3903f971da5f5e1187a9</title>
<g id="a_node2"><a xlink:href="dir_aa914f7226ab3903f971da5f5e1187a9.html" target="_top" xlink:title="include">
<polygon fill="white" stroke="black" points="232,-108 178,-108 178,-72 232,-72 232,-108"/>
<text text-anchor="middle" x="205" y="-87.5" font-family="Helvetica,sans-Serif" font-size="10.00">include</text>
</a>
</g>
</g>
<!-- dir_a4226c5615a06a31e6344f5f3fd917e1 -->
<g id="node5" class="node">
<title>dir_a4226c5615a06a31e6344f5f3fd917e1</title>
<g id="a_node5"><a xlink:href="dir_a4226c5615a06a31e6344f5f3fd917e1.html" target="_top" xlink:title="Objects">
<polygon fill="none" stroke="red" points="310,-108 256,-108 256,-72 310,-72 310,-108"/>
<text text-anchor="middle" x="283" y="-87.5" font-family="Helvetica,sans-Serif" font-size="10.00">Objects</text>
</a>
</g>
</g>
<!-- dir_aa914f7226ab3903f971da5f5e1187a9&#45;&gt;dir_a4226c5615a06a31e6344f5f3fd917e1 -->
<g id="edge3" class="edge">
<title>dir_aa914f7226ab3903f971da5f5e1187a9&#45;&gt;dir_a4226c5615a06a31e6344f5f3fd917e1</title>
<path fill="none" stroke="black" d="M232.12,-90C236.71,-90 241.31,-90 245.91,-90"/>
<polygon fill="black" stroke="black" points="245.97,-93.5 255.97,-90 245.97,-86.5 245.97,-93.5"/>
<g id="a_edge3&#45;headlabel"><a xlink:href="dir_000219_000020.html" target="_top" xlink:title="2">
<text text-anchor="middle" x="242.37" y="-93.84" font-family="Helvetica,sans-Serif" font-size="10.00">2</text>
</a>
</g>
</g>
<!-- dir_1a5504e72c2ab618c124e6472b08d26c -->
<g id="node6" class="node">
<title>dir_1a5504e72c2ab618c124e6472b08d26c</title>
<g id="a_node6"><a xlink:href="dir_1a5504e72c2ab618c124e6472b08d26c.html" target="_top" xlink:title="Global_Include">
<polygon fill="none" stroke="black" points="288.5,-36 199.5,-36 199.5,0 288.5,0 288.5,-36"/>
<text text-anchor="middle" x="244" y="-15.5" font-family="Helvetica,sans-Serif" font-size="10.00">Global_Include</text>
</a>
</g>
</g>
<!-- dir_aa914f7226ab3903f971da5f5e1187a9&#45;&gt;dir_1a5504e72c2ab618c124e6472b08d26c -->
<g id="edge4" class="edge">
<title>dir_aa914f7226ab3903f971da5f5e1187a9&#45;&gt;dir_1a5504e72c2ab618c124e6472b08d26c</title>
<path fill="none" stroke="black" d="M214.64,-71.7C219.13,-63.64 224.56,-53.89 229.52,-44.98"/>
<polygon fill="black" stroke="black" points="232.66,-46.54 234.47,-36.1 226.55,-43.14 232.66,-46.54"/>
<g id="a_edge4&#45;headlabel"><a xlink:href="dir_000219_000135.html" target="_top" xlink:title="2">
<text text-anchor="middle" x="233.39" y="-48.57" font-family="Helvetica,sans-Serif" font-size="10.00">2</text>
</a>
</g>
</g>
<!-- dir_61f4030913f288eb0cb4947ab65deda4 -->
<g id="node3" class="node">
<title>dir_61f4030913f288eb0cb4947ab65deda4</title>
<g id="a_node3"><a xlink:href="dir_61f4030913f288eb0cb4947ab65deda4.html" target="_top" xlink:title="src">
<polygon fill="white" stroke="black" points="150,-180 96,-180 96,-144 150,-144 150,-180"/>
<text text-anchor="middle" x="123" y="-159.5" font-family="Helvetica,sans-Serif" font-size="10.00">src</text>
</a>
</g>
</g>
<!-- dir_61f4030913f288eb0cb4947ab65deda4&#45;&gt;dir_aa914f7226ab3903f971da5f5e1187a9 -->
<g id="edge5" class="edge">
<title>dir_61f4030913f288eb0cb4947ab65deda4&#45;&gt;dir_aa914f7226ab3903f971da5f5e1187a9</title>
<path fill="none" stroke="black" d="M143.27,-143.7C153.5,-134.97 166.06,-124.24 177.18,-114.75"/>
<polygon fill="black" stroke="black" points="179.63,-117.26 184.96,-108.1 175.09,-111.94 179.63,-117.26"/>
<g id="a_edge5&#45;headlabel"><a xlink:href="dir_000220_000219.html" target="_top" xlink:title="2">
<text text-anchor="middle" x="178.74" y="-119.25" font-family="Helvetica,sans-Serif" font-size="10.00">2</text>
</a>
</g>
</g>
<!-- dir_c4f0e66cf42f138aac1ff592eeb8026e -->
<g id="node4" class="node">
<title>dir_c4f0e66cf42f138aac1ff592eeb8026e</title>
<g id="a_node4"><a xlink:href="dir_c4f0e66cf42f138aac1ff592eeb8026e.html" target="_top" xlink:title="test">
<polygon fill="white" stroke="red" points="78,-180 24,-180 24,-144 78,-144 78,-180"/>
<text text-anchor="middle" x="51" y="-159.5" font-family="Helvetica,sans-Serif" font-size="10.00">test</text>
</a>
</g>
</g>
<!-- dir_a4226c5615a06a31e6344f5f3fd917e1&#45;&gt;dir_aa914f7226ab3903f971da5f5e1187a9 -->
<g id="edge1" class="edge">
<title>dir_a4226c5615a06a31e6344f5f3fd917e1&#45;&gt;dir_aa914f7226ab3903f971da5f5e1187a9</title>
<path fill="none" stroke="black" d="M255.97,-90C251.37,-90 246.78,-90 242.18,-90"/>
<polygon fill="black" stroke="black" points="242.12,-86.5 232.12,-90 242.12,-93.5 242.12,-86.5"/>
<g id="a_edge1&#45;headlabel"><a xlink:href="dir_000020_000219.html" target="_top" xlink:title="4">
<text text-anchor="middle" x="245.71" y="-81.16" font-family="Helvetica,sans-Serif" font-size="10.00">4</text>
</a>
</g>
</g>
<!-- dir_a4226c5615a06a31e6344f5f3fd917e1&#45;&gt;dir_1a5504e72c2ab618c124e6472b08d26c -->
<g id="edge2" class="edge">
<title>dir_a4226c5615a06a31e6344f5f3fd917e1&#45;&gt;dir_1a5504e72c2ab618c124e6472b08d26c</title>
<path fill="none" stroke="black" d="M273.36,-71.7C268.87,-63.64 263.44,-53.89 258.48,-44.98"/>
<polygon fill="black" stroke="black" points="261.45,-43.14 253.53,-36.1 255.34,-46.54 261.45,-43.14"/>
<g id="a_edge2&#45;headlabel"><a xlink:href="dir_000020_000135.html" target="_top" xlink:title="26">
<text text-anchor="middle" x="265.68" y="-42.39" font-family="Helvetica,sans-Serif" font-size="10.00">26</text>
</a>
</g>
</g>
</g>
</svg>
