<?xml version="1.0" encoding="UTF-8" standalone="no"?>
<!DOCTYPE svg PUBLIC "-//W3C//DTD SVG 1.1//EN"
 "http://www.w3.org/Graphics/SVG/1.1/DTD/svg11.dtd">
<!-- Generated by graphviz version 2.43.0 (0)
 -->
<!-- Title: Components/Objects/Logger/include Pages: 1 -->
<svg width="176pt" height="367pt"
 viewBox="0.00 0.00 175.74 367.00" xmlns="http://www.w3.org/2000/svg" xmlns:xlink="http://www.w3.org/1999/xlink">
<g id="graph0" class="graph" transform="scale(1 1) rotate(0) translate(4 363)">
<title>Components/Objects/Logger/include</title>
<g id="clust1" class="cluster">
<title>clusterdir_e8f8d894d18fe9c445a3ad74b998aadb</title>
<g id="a_clust1"><a xlink:href="dir_e8f8d894d18fe9c445a3ad74b998aadb.html" target="_top" xlink:title="Logger">
<polygon fill="#ddddee" stroke="black" points="42.58,-280 42.58,-351 112.58,-351 112.58,-280 42.58,-280"/>
<text text-anchor="middle" x="77.58" y="-339" font-family="Helvetica,sans-Serif" font-size="10.00">Logger</text>
</a>
</g>
</g>
<!-- dir_c0b9615ac60c18a42997af10dc9475f4 -->
<g id="node1" class="node">
<title>dir_c0b9615ac60c18a42997af10dc9475f4</title>
<g id="a_node1"><a xlink:href="dir_c0b9615ac60c18a42997af10dc9475f4.html" target="_top" xlink:title="include">
<polygon fill="#eeeeff" stroke="black" points="104.58,-324 50.58,-324 50.58,-288 104.58,-288 104.58,-324"/>
<text text-anchor="middle" x="77.58" y="-303.5" font-family="Helvetica,sans-Serif" font-size="10.00">include</text>
</a>
</g>
</g>
<!-- dir_4816d2fb8abcfd1fbfb7e56b67e0baa1 -->
<g id="node2" class="node">
<title>dir_4816d2fb8abcfd1fbfb7e56b67e0baa1</title>
<g id="a_node2"><a xlink:href="dir_4816d2fb8abcfd1fbfb7e56b67e0baa1.html" target="_top" xlink:title="ErrorHandler">
<polygon fill="none" stroke="red" points="150.58,-252 72.58,-252 72.58,-216 150.58,-216 150.58,-252"/>
<text text-anchor="middle" x="111.58" y="-231.5" font-family="Helvetica,sans-Serif" font-size="10.00">ErrorHandler</text>
</a>
</g>
</g>
<!-- dir_c0b9615ac60c18a42997af10dc9475f4&#45;&gt;dir_4816d2fb8abcfd1fbfb7e56b67e0baa1 -->
<g id="edge1" class="edge">
<title>dir_c0b9615ac60c18a42997af10dc9475f4&#45;&gt;dir_4816d2fb8abcfd1fbfb7e56b67e0baa1</title>
<path fill="none" stroke="black" d="M85.98,-287.7C89.85,-279.73 94.53,-270.1 98.82,-261.26"/>
<polygon fill="black" stroke="black" points="102.05,-262.63 103.27,-252.1 95.75,-259.57 102.05,-262.63"/>
<g id="a_edge1&#45;headlabel"><a xlink:href="dir_000202_000020.html" target="_top" xlink:title="2">
<text text-anchor="middle" x="103.03" y="-264.6" font-family="Helvetica,sans-Serif" font-size="10.00">2</text>
</a>
</g>
</g>
<!-- dir_1a5504e72c2ab618c124e6472b08d26c -->
<g id="node3" class="node">
<title>dir_1a5504e72c2ab618c124e6472b08d26c</title>
<g id="a_node3"><a xlink:href="dir_1a5504e72c2ab618c124e6472b08d26c.html" target="_top" xlink:title="Global_Include">
<polygon fill="none" stroke="black" points="102.08,-36 13.08,-36 13.08,0 102.08,0 102.08,-36"/>
<text text-anchor="middle" x="57.58" y="-15.5" font-family="Helvetica,sans-Serif" font-size="10.00">Global_Include</text>
</a>
</g>
</g>
<!-- dir_c0b9615ac60c18a42997af10dc9475f4&#45;&gt;dir_1a5504e72c2ab618c124e6472b08d26c -->
<g id="edge2" class="edge">
<title>dir_c0b9615ac60c18a42997af10dc9475f4&#45;&gt;dir_1a5504e72c2ab618c124e6472b08d26c</title>
<path fill="none" stroke="black" d="M63.23,-287.77C45.19,-264.86 15.17,-222.32 3.58,-180 -9.67,-131.6 18.56,-76.39 38.98,-44.82"/>
<polygon fill="black" stroke="black" points="42.1,-46.45 44.75,-36.19 36.28,-42.56 42.1,-46.45"/>
<g id="a_edge2&#45;headlabel"><a xlink:href="dir_000202_000141.html" target="_top" xlink:title="2">
<text text-anchor="middle" x="42.46" y="-48.52" font-family="Helvetica,sans-Serif" font-size="10.00">2</text>
</a>
</g>
</g>
<!-- dir_4d0b0adf7e9fb892c3df556e9cbb05d0 -->
<g id="node4" class="node">
<title>dir_4d0b0adf7e9fb892c3df556e9cbb05d0</title>
<g id="a_node4"><a xlink:href="dir_4d0b0adf7e9fb892c3df556e9cbb05d0.html" target="_top" xlink:title="Protocols">
<polygon fill="none" stroke="red" points="74.58,-180 12.58,-180 12.58,-144 74.58,-144 74.58,-180"/>
<text text-anchor="middle" x="43.58" y="-159.5" font-family="Helvetica,sans-Serif" font-size="10.00">Protocols</text>
</a>
</g>
</g>
<!-- dir_c0b9615ac60c18a42997af10dc9475f4&#45;&gt;dir_4d0b0adf7e9fb892c3df556e9cbb05d0 -->
<g id="edge3" class="edge">
<title>dir_c0b9615ac60c18a42997af10dc9475f4&#45;&gt;dir_4d0b0adf7e9fb892c3df556e9cbb05d0</title>
<path fill="none" stroke="black" d="M72.88,-287.86C70.08,-277.5 66.51,-264.02 63.58,-252 58.53,-231.36 53.28,-207.91 49.43,-190.27"/>
<polygon fill="black" stroke="black" points="52.77,-189.14 47.22,-180.11 45.92,-190.62 52.77,-189.14"/>
<g id="a_edge3&#45;headlabel"><a xlink:href="dir_000202_000059.html" target="_top" xlink:title="1">
<text text-anchor="middle" x="56.3" y="-189.55" font-family="Helvetica,sans-Serif" font-size="10.00">1</text>
</a>
</g>
</g>
<!-- dir_82ae37b9d9d4852b543931d9ede35f57 -->
<g id="node5" class="node">
<title>dir_82ae37b9d9d4852b543931d9ede35f57</title>
<g id="a_node5"><a xlink:href="dir_82ae37b9d9d4852b543931d9ede35f57.html" target="_top" xlink:title="Timeservice">
<polygon fill="none" stroke="red" points="130.08,-108 53.08,-108 53.08,-72 130.08,-72 130.08,-108"/>
<text text-anchor="middle" x="91.58" y="-87.5" font-family="Helvetica,sans-Serif" font-size="10.00">Timeservice</text>
</a>
</g>
</g>
<!-- dir_c0b9615ac60c18a42997af10dc9475f4&#45;&gt;dir_82ae37b9d9d4852b543931d9ede35f57 -->
<g id="edge4" class="edge">
<title>dir_c0b9615ac60c18a42997af10dc9475f4&#45;&gt;dir_82ae37b9d9d4852b543931d9ede35f57</title>
<path fill="none" stroke="black" d="M104.63,-295.58C123.76,-287.33 147.99,-273.29 159.58,-252 184.72,-205.81 144.65,-148.37 116.15,-116.08"/>
<polygon fill="black" stroke="black" points="118.51,-113.48 109.19,-108.44 113.33,-118.19 118.51,-113.48"/>
<g id="a_edge4&#45;headlabel"><a xlink:href="dir_000202_000053.html" target="_top" xlink:title="1">
<text text-anchor="middle" x="123.03" y="-111.73" font-family="Helvetica,sans-Serif" font-size="10.00">1</text>
</a>
</g>
</g>
<!-- dir_4816d2fb8abcfd1fbfb7e56b67e0baa1&#45;&gt;dir_1a5504e72c2ab618c124e6472b08d26c -->
<g id="edge5" class="edge">
<title>dir_4816d2fb8abcfd1fbfb7e56b67e0baa1&#45;&gt;dir_1a5504e72c2ab618c124e6472b08d26c</title>
<path fill="none" stroke="black" d="M121.34,-215.85C137.44,-185.1 165.35,-119.34 139.58,-72 132.66,-59.3 121.25,-49.18 109.11,-41.33"/>
<polygon fill="black" stroke="black" points="110.58,-38.13 100.2,-36.01 106.99,-44.14 110.58,-38.13"/>
<g id="a_edge5&#45;headlabel"><a xlink:href="dir_000020_000141.html" target="_top" xlink:title="2">
<text text-anchor="middle" x="115.12" y="-35.03" font-family="Helvetica,sans-Serif" font-size="10.00">2</text>
</a>
</g>
</g>
<!-- dir_4816d2fb8abcfd1fbfb7e56b67e0baa1&#45;&gt;dir_4d0b0adf7e9fb892c3df556e9cbb05d0 -->
<g id="edge6" class="edge">
<title>dir_4816d2fb8abcfd1fbfb7e56b67e0baa1&#45;&gt;dir_4d0b0adf7e9fb892c3df556e9cbb05d0</title>
<path fill="none" stroke="black" d="M88.85,-215.7C79.74,-207.22 69.5,-196.86 60.98,-187.58"/>
<polygon fill="black" stroke="black" points="63.57,-185.23 54.3,-180.1 58.35,-189.89 63.57,-185.23"/>
<g id="a_edge6&#45;headlabel"><a xlink:href="dir_000020_000059.html" target="_top" xlink:title="1">
<text text-anchor="middle" x="68.08" y="-183.52" font-family="Helvetica,sans-Serif" font-size="10.00">1</text>
</a>
</g>
</g>
<!-- dir_4816d2fb8abcfd1fbfb7e56b67e0baa1&#45;&gt;dir_82ae37b9d9d4852b543931d9ede35f57 -->
<g id="edge7" class="edge">
<title>dir_4816d2fb8abcfd1fbfb7e56b67e0baa1&#45;&gt;dir_82ae37b9d9d4852b543931d9ede35f57</title>
<path fill="none" stroke="black" d="M104.58,-215.87C98.61,-191.67 92.06,-147.21 89.98,-118.39"/>
<polygon fill="black" stroke="black" points="93.46,-117.98 89.41,-108.19 86.47,-118.37 93.46,-117.98"/>
<g id="a_edge7&#45;headlabel"><a xlink:href="dir_000020_000053.html" target="_top" xlink:title="1">
<text text-anchor="middle" x="96.49" y="-118.91" font-family="Helvetica,sans-Serif" font-size="10.00">1</text>
</a>
</g>
</g>
<!-- dir_4d0b0adf7e9fb892c3df556e9cbb05d0&#45;&gt;dir_4816d2fb8abcfd1fbfb7e56b67e0baa1 -->
<g id="edge8" class="edge">
<title>dir_4d0b0adf7e9fb892c3df556e9cbb05d0&#45;&gt;dir_4816d2fb8abcfd1fbfb7e56b67e0baa1</title>
<path fill="none" stroke="black" d="M66.09,-180.1C75.18,-188.55 85.43,-198.9 93.97,-208.2"/>
<polygon fill="black" stroke="black" points="91.41,-210.58 100.68,-215.7 96.62,-205.91 91.41,-210.58"/>
<g id="a_edge8&#45;headlabel"><a xlink:href="dir_000059_000020.html" target="_top" xlink:title="11">
<text text-anchor="middle" x="86.89" y="-207.29" font-family="Helvetica,sans-Serif" font-size="10.00">11</text>
</a>
</g>
</g>
<!-- dir_4d0b0adf7e9fb892c3df556e9cbb05d0&#45;&gt;dir_1a5504e72c2ab618c124e6472b08d26c -->
<g id="edge9" class="edge">
<title>dir_4d0b0adf7e9fb892c3df556e9cbb05d0&#45;&gt;dir_1a5504e72c2ab618c124e6472b08d26c</title>
<path fill="none" stroke="black" d="M42.27,-143.85C41.21,-125.87 40.35,-96.82 43.58,-72 44.68,-63.51 46.74,-54.43 48.94,-46.24"/>
<polygon fill="black" stroke="black" points="52.36,-47.02 51.75,-36.44 45.63,-45.09 52.36,-47.02"/>
<g id="a_edge9&#45;headlabel"><a xlink:href="dir_000059_000141.html" target="_top" xlink:title="11">
<text text-anchor="middle" x="54.1" y="-48.76" font-family="Helvetica,sans-Serif" font-size="10.00">11</text>
</a>
</g>
</g>
<!-- dir_4d0b0adf7e9fb892c3df556e9cbb05d0&#45;&gt;dir_82ae37b9d9d4852b543931d9ede35f57 -->
<g id="edge10" class="edge">
<title>dir_4d0b0adf7e9fb892c3df556e9cbb05d0&#45;&gt;dir_82ae37b9d9d4852b543931d9ede35f57</title>
<path fill="none" stroke="black" d="M55.44,-143.7C61.08,-135.47 67.93,-125.48 74.15,-116.42"/>
<polygon fill="black" stroke="black" points="77.08,-118.33 79.85,-108.1 71.31,-114.37 77.08,-118.33"/>
<g id="a_edge10&#45;headlabel"><a xlink:href="dir_000059_000053.html" target="_top" xlink:title="2">
<text text-anchor="middle" x="77.39" y="-120.4" font-family="Helvetica,sans-Serif" font-size="10.00">2</text>
</a>
</g>
</g>
<!-- dir_82ae37b9d9d4852b543931d9ede35f57&#45;&gt;dir_4816d2fb8abcfd1fbfb7e56b67e0baa1 -->
<g id="edge11" class="edge">
<title>dir_82ae37b9d9d4852b543931d9ede35f57&#45;&gt;dir_4816d2fb8abcfd1fbfb7e56b67e0baa1</title>
<path fill="none" stroke="black" d="M98.59,-108.19C104.56,-132.42 111.11,-176.89 113.18,-205.68"/>
<polygon fill="black" stroke="black" points="109.7,-206.08 113.75,-215.87 116.69,-205.69 109.7,-206.08"/>
<g id="a_edge11&#45;headlabel"><a xlink:href="dir_000053_000020.html" target="_top" xlink:title="2">
<text text-anchor="middle" x="106.67" y="-200.15" font-family="Helvetica,sans-Serif" font-size="10.00">2</text>
</a>
</g>
</g>
<!-- dir_82ae37b9d9d4852b543931d9ede35f57&#45;&gt;dir_1a5504e72c2ab618c124e6472b08d26c -->
<g id="edge12" class="edge">
<title>dir_82ae37b9d9d4852b543931d9ede35f57&#45;&gt;dir_1a5504e72c2ab618c124e6472b08d26c</title>
<path fill="none" stroke="black" d="M83.17,-71.7C79.3,-63.73 74.63,-54.1 70.33,-45.26"/>
<polygon fill="black" stroke="black" points="73.4,-43.57 65.88,-36.1 67.11,-46.63 73.4,-43.57"/>
<g id="a_edge12&#45;headlabel"><a xlink:href="dir_000053_000141.html" target="_top" xlink:title="2">
<text text-anchor="middle" x="77.53" y="-43.06" font-family="Helvetica,sans-Serif" font-size="10.00">2</text>
</a>
</g>
</g>
</g>
</svg>
