<?xml version="1.0" encoding="UTF-8" standalone="no"?>
<!DOCTYPE svg PUBLIC "-//W3C//DTD SVG 1.1//EN"
 "http://www.w3.org/Graphics/SVG/1.1/DTD/svg11.dtd">
<!-- Generated by graphviz version 2.43.0 (0)
 -->
<!-- Title: Components/Objects/PWM Pages: 1 -->
<svg width="257pt" height="303pt"
 viewBox="0.00 0.00 257.00 303.00" xmlns="http://www.w3.org/2000/svg" xmlns:xlink="http://www.w3.org/1999/xlink">
<g id="graph0" class="graph" transform="scale(1 1) rotate(0) translate(4 299)">
<title>Components/Objects/PWM</title>
<g id="clust1" class="cluster">
<title>clusterdir_a4226c5615a06a31e6344f5f3fd917e1</title>
<g id="a_clust1"><a xlink:href="dir_a4226c5615a06a31e6344f5f3fd917e1.html" target="_top" xlink:title="Objects">
<polygon fill="#ddddee" stroke="black" points="11,-128 11,-287 241,-287 241,-128 11,-128"/>
<text text-anchor="middle" x="126" y="-275" font-family="Helvetica,sans-Serif" font-size="10.00">Objects</text>
</a>
</g>
</g>
<g id="clust2" class="cluster">
<title>clusterdir_829eea574d5fe962226ae6a4579d6a03</title>
<g id="a_clust2"><a xlink:href="dir_829eea574d5fe962226ae6a4579d6a03.html" target="_top">
<polygon fill="#eeeeff" stroke="black" points="19,-136 19,-260 233,-260 233,-136 19,-136"/>
</a>
</g>
</g>
<!-- dir_829eea574d5fe962226ae6a4579d6a03 -->
<g id="node1" class="node">
<title>dir_829eea574d5fe962226ae6a4579d6a03</title>
<text text-anchor="middle" x="198" y="-231.5" font-family="Helvetica,sans-Serif" font-size="10.00">PWM</text>
</g>
<!-- dir_f0f42be767405e55d9c0cf259cec2c74 -->
<g id="node2" class="node">
<title>dir_f0f42be767405e55d9c0cf259cec2c74</title>
<g id="a_node2"><a xlink:href="dir_f0f42be767405e55d9c0cf259cec2c74.html" target="_top" xlink:title="include">
<polygon fill="white" stroke="black" points="117,-180 63,-180 63,-144 117,-144 117,-180"/>
<text text-anchor="middle" x="90" y="-159.5" font-family="Helvetica,sans-Serif" font-size="10.00">include</text>
</a>
</g>
</g>
<!-- dir_4816d2fb8abcfd1fbfb7e56b67e0baa1 -->
<g id="node5" class="node">
<title>dir_4816d2fb8abcfd1fbfb7e56b67e0baa1</title>
<g id="a_node5"><a xlink:href="dir_4816d2fb8abcfd1fbfb7e56b67e0baa1.html" target="_top" xlink:title="ErrorHandler">
<polygon fill="none" stroke="red" points="78,-36 0,-36 0,0 78,0 78,-36"/>
<text text-anchor="middle" x="39" y="-15.5" font-family="Helvetica,sans-Serif" font-size="10.00">ErrorHandler</text>
</a>
</g>
</g>
<!-- dir_f0f42be767405e55d9c0cf259cec2c74&#45;&gt;dir_4816d2fb8abcfd1fbfb7e56b67e0baa1 -->
<g id="edge3" class="edge">
<title>dir_f0f42be767405e55d9c0cf259cec2c74&#45;&gt;dir_4816d2fb8abcfd1fbfb7e56b67e0baa1</title>
<path fill="none" stroke="black" d="M71.95,-143.55C63.18,-133.93 53.39,-121.27 48,-108 40.03,-88.36 38,-64.37 37.84,-46.25"/>
<polygon fill="black" stroke="black" points="41.34,-46.11 37.94,-36.08 34.34,-46.04 41.34,-46.11"/>
<g id="a_edge3&#45;headlabel"><a xlink:href="dir_000121_000019.html" target="_top" xlink:title="2">
<text text-anchor="middle" x="44.15" y="-47.23" font-family="Helvetica,sans-Serif" font-size="10.00">2</text>
</a>
</g>
</g>
<!-- dir_1a5504e72c2ab618c124e6472b08d26c -->
<g id="node6" class="node">
<title>dir_1a5504e72c2ab618c124e6472b08d26c</title>
<g id="a_node6"><a xlink:href="dir_1a5504e72c2ab618c124e6472b08d26c.html" target="_top" xlink:title="Global_Include">
<polygon fill="none" stroke="black" points="190.5,-36 101.5,-36 101.5,0 190.5,0 190.5,-36"/>
<text text-anchor="middle" x="146" y="-15.5" font-family="Helvetica,sans-Serif" font-size="10.00">Global_Include</text>
</a>
</g>
</g>
<!-- dir_f0f42be767405e55d9c0cf259cec2c74&#45;&gt;dir_1a5504e72c2ab618c124e6472b08d26c -->
<g id="edge4" class="edge">
<title>dir_f0f42be767405e55d9c0cf259cec2c74&#45;&gt;dir_1a5504e72c2ab618c124e6472b08d26c</title>
<path fill="none" stroke="black" d="M106.85,-143.8C115.41,-134.06 125.21,-121.21 131,-108 139.58,-88.41 143.27,-64.42 144.85,-46.28"/>
<polygon fill="black" stroke="black" points="148.36,-46.32 145.57,-36.1 141.38,-45.83 148.36,-46.32"/>
<g id="a_edge4&#45;headlabel"><a xlink:href="dir_000121_000095.html" target="_top" xlink:title="2">
<text text-anchor="middle" x="150.94" y="-47.61" font-family="Helvetica,sans-Serif" font-size="10.00">2</text>
</a>
</g>
</g>
<!-- dir_e185953657720ba3a67126696ef566c7 -->
<g id="node7" class="node">
<title>dir_e185953657720ba3a67126696ef566c7</title>
<g id="a_node7"><a xlink:href="dir_e185953657720ba3a67126696ef566c7.html" target="_top" xlink:title="Interfaces">
<polygon fill="none" stroke="red" points="122.5,-108 57.5,-108 57.5,-72 122.5,-72 122.5,-108"/>
<text text-anchor="middle" x="90" y="-87.5" font-family="Helvetica,sans-Serif" font-size="10.00">Interfaces</text>
</a>
</g>
</g>
<!-- dir_f0f42be767405e55d9c0cf259cec2c74&#45;&gt;dir_e185953657720ba3a67126696ef566c7 -->
<g id="edge5" class="edge">
<title>dir_f0f42be767405e55d9c0cf259cec2c74&#45;&gt;dir_e185953657720ba3a67126696ef566c7</title>
<path fill="none" stroke="black" d="M90,-143.7C90,-135.98 90,-126.71 90,-118.11"/>
<polygon fill="black" stroke="black" points="93.5,-118.1 90,-108.1 86.5,-118.1 93.5,-118.1"/>
<g id="a_edge5&#45;headlabel"><a xlink:href="dir_000121_000096.html" target="_top" xlink:title="1">
<text text-anchor="middle" x="96.34" y="-119.2" font-family="Helvetica,sans-Serif" font-size="10.00">1</text>
</a>
</g>
</g>
<!-- dir_49a3e00ee8d2affa254b84776e77d5b3 -->
<g id="node3" class="node">
<title>dir_49a3e00ee8d2affa254b84776e77d5b3</title>
<g id="a_node3"><a xlink:href="dir_49a3e00ee8d2affa254b84776e77d5b3.html" target="_top" xlink:title="src">
<polygon fill="white" stroke="black" points="153,-252 99,-252 99,-216 153,-216 153,-252"/>
<text text-anchor="middle" x="126" y="-231.5" font-family="Helvetica,sans-Serif" font-size="10.00">src</text>
</a>
</g>
</g>
<!-- dir_49a3e00ee8d2affa254b84776e77d5b3&#45;&gt;dir_f0f42be767405e55d9c0cf259cec2c74 -->
<g id="edge1" class="edge">
<title>dir_49a3e00ee8d2affa254b84776e77d5b3&#45;&gt;dir_f0f42be767405e55d9c0cf259cec2c74</title>
<path fill="none" stroke="black" d="M117.1,-215.7C113,-207.73 108.05,-198.1 103.51,-189.26"/>
<polygon fill="black" stroke="black" points="106.48,-187.4 98.8,-180.1 100.26,-190.6 106.48,-187.4"/>
<g id="a_edge1&#45;headlabel"><a xlink:href="dir_000123_000121.html" target="_top" xlink:title="2">
<text text-anchor="middle" x="110.65" y="-186.79" font-family="Helvetica,sans-Serif" font-size="10.00">2</text>
</a>
</g>
</g>
<!-- dir_a0f9f2efc74e82123ea800735c716a21 -->
<g id="node4" class="node">
<title>dir_a0f9f2efc74e82123ea800735c716a21</title>
<g id="a_node4"><a xlink:href="dir_a0f9f2efc74e82123ea800735c716a21.html" target="_top" xlink:title="test">
<polygon fill="white" stroke="red" points="81,-252 27,-252 27,-216 81,-216 81,-252"/>
<text text-anchor="middle" x="54" y="-231.5" font-family="Helvetica,sans-Serif" font-size="10.00">test</text>
</a>
</g>
</g>
<!-- dir_a0f9f2efc74e82123ea800735c716a21&#45;&gt;dir_f0f42be767405e55d9c0cf259cec2c74 -->
<g id="edge2" class="edge">
<title>dir_a0f9f2efc74e82123ea800735c716a21&#45;&gt;dir_f0f42be767405e55d9c0cf259cec2c74</title>
<path fill="none" stroke="black" d="M62.9,-215.7C67,-207.73 71.95,-198.1 76.49,-189.26"/>
<polygon fill="black" stroke="black" points="79.74,-190.6 81.2,-180.1 73.52,-187.4 79.74,-190.6"/>
<g id="a_edge2&#45;headlabel"><a xlink:href="dir_000044_000121.html" target="_top" xlink:title="1">
<text text-anchor="middle" x="80.62" y="-192.59" font-family="Helvetica,sans-Serif" font-size="10.00">1</text>
</a>
</g>
</g>
<!-- dir_e185953657720ba3a67126696ef566c7&#45;&gt;dir_4816d2fb8abcfd1fbfb7e56b67e0baa1 -->
<g id="edge6" class="edge">
<title>dir_e185953657720ba3a67126696ef566c7&#45;&gt;dir_4816d2fb8abcfd1fbfb7e56b67e0baa1</title>
<path fill="none" stroke="black" d="M77.39,-71.7C71.4,-63.47 64.12,-53.48 57.52,-44.42"/>
<polygon fill="black" stroke="black" points="60.18,-42.13 51.46,-36.1 54.52,-46.25 60.18,-42.13"/>
<g id="a_edge6&#45;headlabel"><a xlink:href="dir_000096_000019.html" target="_top" xlink:title="9">
<text text-anchor="middle" x="64.59" y="-40.86" font-family="Helvetica,sans-Serif" font-size="10.00">9</text>
</a>
</g>
</g>
<!-- dir_e185953657720ba3a67126696ef566c7&#45;&gt;dir_1a5504e72c2ab618c124e6472b08d26c -->
<g id="edge7" class="edge">
<title>dir_e185953657720ba3a67126696ef566c7&#45;&gt;dir_1a5504e72c2ab618c124e6472b08d26c</title>
<path fill="none" stroke="black" d="M103.84,-71.7C110.49,-63.39 118.58,-53.28 125.89,-44.14"/>
<polygon fill="black" stroke="black" points="128.8,-46.1 132.32,-36.1 123.34,-41.73 128.8,-46.1"/>
<g id="a_edge7&#45;headlabel"><a xlink:href="dir_000096_000095.html" target="_top" xlink:title="9">
<text text-anchor="middle" x="128.77" y="-48.18" font-family="Helvetica,sans-Serif" font-size="10.00">9</text>
</a>
</g>
</g>
</g>
</svg>
