<?xml version="1.0" encoding="UTF-8" standalone="no"?>
<!DOCTYPE svg PUBLIC "-//W3C//DTD SVG 1.1//EN"
 "http://www.w3.org/Graphics/SVG/1.1/DTD/svg11.dtd">
<!-- Generated by graphviz version 2.43.0 (0)
 -->
<!-- Title: Components/Protocols/HTTP/test Pages: 1 -->
<svg width="254pt" height="231pt"
 viewBox="0.00 0.00 254.00 231.00" xmlns="http://www.w3.org/2000/svg" xmlns:xlink="http://www.w3.org/1999/xlink">
<g id="graph0" class="graph" transform="scale(1 1) rotate(0) translate(4 227)">
<title>Components/Protocols/HTTP/test</title>
<g id="clust1" class="cluster">
<title>clusterdir_3b94f0ed496e237084c8464174d64f13</title>
<g id="a_clust1"><a xlink:href="dir_3b94f0ed496e237084c8464174d64f13.html" target="_top" xlink:title="HTTP">
<polygon fill="#ddddee" stroke="black" points="8,-128 8,-215 238,-215 238,-128 8,-128"/>
<text text-anchor="middle" x="123" y="-203" font-family="Helvetica,sans-Serif" font-size="10.00">HTTP</text>
</a>
</g>
</g>
<g id="clust2" class="cluster">
<title>clusterdir_9fb39fb0708be52bb8a2a72c05bf1257</title>
<g id="a_clust2"><a xlink:href="dir_9fb39fb0708be52bb8a2a72c05bf1257.html" target="_top">
<polygon fill="#eeeeff" stroke="black" points="16,-136 16,-188 230,-188 230,-136 16,-136"/>
</a>
</g>
</g>
<!-- dir_9fb39fb0708be52bb8a2a72c05bf1257 -->
<g id="node1" class="node">
<title>dir_9fb39fb0708be52bb8a2a72c05bf1257</title>
<text text-anchor="middle" x="195" y="-159.5" font-family="Helvetica,sans-Serif" font-size="10.00">test</text>
</g>
<!-- dir_9093b687ef1eb6ad0c4c63d5e60145de -->
<g id="node2" class="node">
<title>dir_9093b687ef1eb6ad0c4c63d5e60145de</title>
<g id="a_node2"><a xlink:href="dir_9093b687ef1eb6ad0c4c63d5e60145de.html" target="_top" xlink:title="mock">
<polygon fill="white" stroke="black" points="78,-180 24,-180 24,-144 78,-144 78,-180"/>
<text text-anchor="middle" x="51" y="-159.5" font-family="Helvetica,sans-Serif" font-size="10.00">mock</text>
</a>
</g>
</g>
<!-- dir_a4226c5615a06a31e6344f5f3fd917e1 -->
<g id="node4" class="node">
<title>dir_a4226c5615a06a31e6344f5f3fd917e1</title>
<g id="a_node4"><a xlink:href="dir_a4226c5615a06a31e6344f5f3fd917e1.html" target="_top" xlink:title="Objects">
<polygon fill="none" stroke="red" points="113,-36 59,-36 59,0 113,0 113,-36"/>
<text text-anchor="middle" x="86" y="-15.5" font-family="Helvetica,sans-Serif" font-size="10.00">Objects</text>
</a>
</g>
</g>
<!-- dir_9093b687ef1eb6ad0c4c63d5e60145de&#45;&gt;dir_a4226c5615a06a31e6344f5f3fd917e1 -->
<g id="edge3" class="edge">
<title>dir_9093b687ef1eb6ad0c4c63d5e60145de&#45;&gt;dir_a4226c5615a06a31e6344f5f3fd917e1</title>
<path fill="none" stroke="black" d="M55.22,-143.87C61.21,-119.56 72.24,-74.82 79.34,-46.01"/>
<polygon fill="black" stroke="black" points="82.77,-46.74 81.76,-36.19 75.97,-45.06 82.77,-46.74"/>
<g id="a_edge3&#45;headlabel"><a xlink:href="dir_000176_000015.html" target="_top" xlink:title="1">
<text text-anchor="middle" x="84.66" y="-48.41" font-family="Helvetica,sans-Serif" font-size="10.00">1</text>
</a>
</g>
</g>
<!-- dir_3c0e5cbf84d2311920994ddd1e18be8d -->
<g id="node3" class="node">
<title>dir_3c0e5cbf84d2311920994ddd1e18be8d</title>
<g id="a_node3"><a xlink:href="dir_3c0e5cbf84d2311920994ddd1e18be8d.html" target="_top" xlink:title="test">
<polygon fill="white" stroke="black" points="150,-180 96,-180 96,-144 150,-144 150,-180"/>
<text text-anchor="middle" x="123" y="-159.5" font-family="Helvetica,sans-Serif" font-size="10.00">test</text>
</a>
</g>
</g>
<!-- dir_d0f40aa75516992f048eb76a21c80e71 -->
<g id="node5" class="node">
<title>dir_d0f40aa75516992f048eb76a21c80e71</title>
<g id="a_node5"><a xlink:href="dir_d0f40aa75516992f048eb76a21c80e71.html" target="_top" xlink:title="include">
<polygon fill="none" stroke="black" points="145,-108 91,-108 91,-72 145,-72 145,-108"/>
<text text-anchor="middle" x="118" y="-87.5" font-family="Helvetica,sans-Serif" font-size="10.00">include</text>
</a>
</g>
</g>
<!-- dir_3c0e5cbf84d2311920994ddd1e18be8d&#45;&gt;dir_d0f40aa75516992f048eb76a21c80e71 -->
<g id="edge1" class="edge">
<title>dir_3c0e5cbf84d2311920994ddd1e18be8d&#45;&gt;dir_d0f40aa75516992f048eb76a21c80e71</title>
<path fill="none" stroke="black" d="M121.76,-143.7C121.21,-135.98 120.55,-126.71 119.94,-118.11"/>
<polygon fill="black" stroke="black" points="123.43,-117.83 119.22,-108.1 116.44,-118.33 123.43,-117.83"/>
<g id="a_edge1&#45;headlabel"><a xlink:href="dir_000063_000174.html" target="_top" xlink:title="1">
<text text-anchor="middle" x="126.51" y="-118.71" font-family="Helvetica,sans-Serif" font-size="10.00">1</text>
</a>
</g>
</g>
<!-- dir_d0f40aa75516992f048eb76a21c80e71&#45;&gt;dir_a4226c5615a06a31e6344f5f3fd917e1 -->
<g id="edge2" class="edge">
<title>dir_d0f40aa75516992f048eb76a21c80e71&#45;&gt;dir_a4226c5615a06a31e6344f5f3fd917e1</title>
<path fill="none" stroke="black" d="M110.09,-71.7C106.45,-63.73 102.05,-54.1 98.01,-45.26"/>
<polygon fill="black" stroke="black" points="101.16,-43.74 93.82,-36.1 94.79,-46.65 101.16,-43.74"/>
<g id="a_edge2&#45;headlabel"><a xlink:href="dir_000174_000015.html" target="_top" xlink:title="4">
<text text-anchor="middle" x="105.24" y="-43.33" font-family="Helvetica,sans-Serif" font-size="10.00">4</text>
</a>
</g>
</g>
</g>
</svg>
