<?xml version="1.0" encoding="UTF-8" standalone="no"?>
<!DOCTYPE svg PUBLIC "-//W3C//DTD SVG 1.1//EN"
 "http://www.w3.org/Graphics/SVG/1.1/DTD/svg11.dtd">
<!-- Generated by graphviz version 2.43.0 (0)
 -->
<!-- Title: Components/Sensor Pages: 1 -->
<svg width="496pt" height="447pt"
 viewBox="0.00 0.00 495.50 447.00" xmlns="http://www.w3.org/2000/svg" xmlns:xlink="http://www.w3.org/1999/xlink">
<g id="graph0" class="graph" transform="scale(1 1) rotate(0) translate(4 443)">
<title>Components/Sensor</title>
<g id="clust1" class="cluster">
<title>clusterdir_08f45fe6822aeb4ce2bc268e3b1361be</title>
<g id="a_clust1"><a xlink:href="dir_08f45fe6822aeb4ce2bc268e3b1361be.html" target="_top" xlink:title="Components">
<polygon fill="#ddddee" stroke="black" points="15,-344 15,-431 407,-431 407,-344 15,-344"/>
<text text-anchor="middle" x="211" y="-419" font-family="Helvetica,sans-Serif" font-size="10.00">Components</text>
</a>
</g>
</g>
<g id="clust2" class="cluster">
<title>clusterdir_82d83c9747486c2eb8d3c4c8f409d82b</title>
<g id="a_clust2"><a xlink:href="dir_82d83c9747486c2eb8d3c4c8f409d82b.html" target="_top">
<polygon fill="#eeeeff" stroke="black" points="23,-352 23,-404 399,-404 399,-352 23,-352"/>
</a>
</g>
</g>
<!-- dir_82d83c9747486c2eb8d3c4c8f409d82b -->
<g id="node1" class="node">
<title>dir_82d83c9747486c2eb8d3c4c8f409d82b</title>
<text text-anchor="middle" x="364" y="-375.5" font-family="Helvetica,sans-Serif" font-size="10.00">Sensor</text>
</g>
<!-- dir_20a8a0908d2b372c47a0aaef4f37025f -->
<g id="node2" class="node">
<title>dir_20a8a0908d2b372c47a0aaef4f37025f</title>
<g id="a_node2"><a xlink:href="dir_20a8a0908d2b372c47a0aaef4f37025f.html" target="_top" xlink:title="ActiveCurrentSensor">
<polygon fill="white" stroke="red" points="233,-396 117,-396 117,-360 233,-360 233,-396"/>
<text text-anchor="middle" x="175" y="-375.5" font-family="Helvetica,sans-Serif" font-size="10.00">ActiveCurrentSensor</text>
</a>
</g>
</g>
<!-- dir_a4226c5615a06a31e6344f5f3fd917e1 -->
<g id="node5" class="node">
<title>dir_a4226c5615a06a31e6344f5f3fd917e1</title>
<g id="a_node5"><a xlink:href="dir_a4226c5615a06a31e6344f5f3fd917e1.html" target="_top" xlink:title="Objects">
<polygon fill="none" stroke="red" points="230,-324 176,-324 176,-288 230,-288 230,-324"/>
<text text-anchor="middle" x="203" y="-303.5" font-family="Helvetica,sans-Serif" font-size="10.00">Objects</text>
</a>
</g>
</g>
<!-- dir_20a8a0908d2b372c47a0aaef4f37025f&#45;&gt;dir_a4226c5615a06a31e6344f5f3fd917e1 -->
<g id="edge8" class="edge">
<title>dir_20a8a0908d2b372c47a0aaef4f37025f&#45;&gt;dir_a4226c5615a06a31e6344f5f3fd917e1</title>
<path fill="none" stroke="black" d="M181.92,-359.7C185.07,-351.81 188.88,-342.3 192.38,-333.55"/>
<polygon fill="black" stroke="black" points="195.69,-334.69 196.16,-324.1 189.19,-332.09 195.69,-334.69"/>
<g id="a_edge8&#45;headlabel"><a xlink:href="dir_000071_000016.html" target="_top" xlink:title="4">
<text text-anchor="middle" x="197" y="-336.58" font-family="Helvetica,sans-Serif" font-size="10.00">4</text>
</a>
</g>
</g>
<!-- dir_1a5504e72c2ab618c124e6472b08d26c -->
<g id="node6" class="node">
<title>dir_1a5504e72c2ab618c124e6472b08d26c</title>
<g id="a_node6"><a xlink:href="dir_1a5504e72c2ab618c124e6472b08d26c.html" target="_top" xlink:title="Global_Include">
<polygon fill="none" stroke="black" points="233.5,-36 144.5,-36 144.5,0 233.5,0 233.5,-36"/>
<text text-anchor="middle" x="189" y="-15.5" font-family="Helvetica,sans-Serif" font-size="10.00">Global_Include</text>
</a>
</g>
</g>
<!-- dir_20a8a0908d2b372c47a0aaef4f37025f&#45;&gt;dir_1a5504e72c2ab618c124e6472b08d26c -->
<g id="edge9" class="edge">
<title>dir_20a8a0908d2b372c47a0aaef4f37025f&#45;&gt;dir_1a5504e72c2ab618c124e6472b08d26c</title>
<path fill="none" stroke="black" d="M159.51,-359.98C140.02,-337.31 107.59,-295.03 95,-252 90.51,-236.64 92.59,-231.82 95,-216 105.12,-149.72 106.42,-130.04 140,-72 145.96,-61.7 154.24,-51.75 162.29,-43.31"/>
<polygon fill="black" stroke="black" points="164.98,-45.57 169.56,-36.01 160.02,-40.63 164.98,-45.57"/>
<g id="a_edge9&#45;headlabel"><a xlink:href="dir_000071_000135.html" target="_top" xlink:title="1">
<text text-anchor="middle" x="164.46" y="-47.62" font-family="Helvetica,sans-Serif" font-size="10.00">1</text>
</a>
</g>
</g>
<!-- dir_4d0b0adf7e9fb892c3df556e9cbb05d0 -->
<g id="node7" class="node">
<title>dir_4d0b0adf7e9fb892c3df556e9cbb05d0</title>
<g id="a_node7"><a xlink:href="dir_4d0b0adf7e9fb892c3df556e9cbb05d0.html" target="_top" xlink:title="Protocols">
<polygon fill="none" stroke="red" points="166,-252 104,-252 104,-216 166,-216 166,-252"/>
<text text-anchor="middle" x="135" y="-231.5" font-family="Helvetica,sans-Serif" font-size="10.00">Protocols</text>
</a>
</g>
</g>
<!-- dir_20a8a0908d2b372c47a0aaef4f37025f&#45;&gt;dir_4d0b0adf7e9fb892c3df556e9cbb05d0 -->
<g id="edge10" class="edge">
<title>dir_20a8a0908d2b372c47a0aaef4f37025f&#45;&gt;dir_4d0b0adf7e9fb892c3df556e9cbb05d0</title>
<path fill="none" stroke="black" d="M170.18,-359.87C163.33,-335.56 150.72,-290.82 142.61,-262.01"/>
<polygon fill="black" stroke="black" points="145.92,-260.87 139.84,-252.19 139.18,-262.76 145.92,-260.87"/>
<g id="a_edge10&#45;headlabel"><a xlink:href="dir_000071_000059.html" target="_top" xlink:title="2">
<text text-anchor="middle" x="149.63" y="-261.06" font-family="Helvetica,sans-Serif" font-size="10.00">2</text>
</a>
</g>
</g>
<!-- dir_6a49a4a01df89ea000e629175e7db917 -->
<g id="node10" class="node">
<title>dir_6a49a4a01df89ea000e629175e7db917</title>
<g id="a_node10"><a xlink:href="dir_6a49a4a01df89ea000e629175e7db917.html" target="_top" xlink:title="RTOS">
<polygon fill="none" stroke="red" points="274,-108 220,-108 220,-72 274,-72 274,-108"/>
<text text-anchor="middle" x="247" y="-87.5" font-family="Helvetica,sans-Serif" font-size="10.00">RTOS</text>
</a>
</g>
</g>
<!-- dir_20a8a0908d2b372c47a0aaef4f37025f&#45;&gt;dir_6a49a4a01df89ea000e629175e7db917 -->
<g id="edge11" class="edge">
<title>dir_20a8a0908d2b372c47a0aaef4f37025f&#45;&gt;dir_6a49a4a01df89ea000e629175e7db917</title>
<path fill="none" stroke="black" d="M204.18,-359.9C216.95,-350.87 230.85,-338.62 239,-324 278.19,-253.69 267.94,-223.99 259,-144 258.04,-135.43 256.24,-126.22 254.31,-117.93"/>
<polygon fill="black" stroke="black" points="257.66,-116.89 251.87,-108.02 250.87,-118.57 257.66,-116.89"/>
<g id="a_edge11&#45;headlabel"><a xlink:href="dir_000071_000066.html" target="_top" xlink:title="2">
<text text-anchor="middle" x="261.28" y="-117.2" font-family="Helvetica,sans-Serif" font-size="10.00">2</text>
</a>
</g>
</g>
<!-- dir_2b83fdf2b6dc3c4b3c2f432ac2e79807 -->
<g id="node3" class="node">
<title>dir_2b83fdf2b6dc3c4b3c2f432ac2e79807</title>
<g id="a_node3"><a xlink:href="dir_2b83fdf2b6dc3c4b3c2f432ac2e79807.html" target="_top" xlink:title="esp32Cam">
<polygon fill="white" stroke="red" points="319,-396 251,-396 251,-360 319,-360 319,-396"/>
<text text-anchor="middle" x="285" y="-375.5" font-family="Helvetica,sans-Serif" font-size="10.00">esp32Cam</text>
</a>
</g>
</g>
<!-- dir_2b83fdf2b6dc3c4b3c2f432ac2e79807&#45;&gt;dir_a4226c5615a06a31e6344f5f3fd917e1 -->
<g id="edge5" class="edge">
<title>dir_2b83fdf2b6dc3c4b3c2f432ac2e79807&#45;&gt;dir_a4226c5615a06a31e6344f5f3fd917e1</title>
<path fill="none" stroke="black" d="M264.73,-359.7C254.5,-350.97 241.94,-340.24 230.82,-330.75"/>
<polygon fill="black" stroke="black" points="232.91,-327.94 223.04,-324.1 228.37,-333.26 232.91,-327.94"/>
<g id="a_edge5&#45;headlabel"><a xlink:href="dir_000106_000016.html" target="_top" xlink:title="3">
<text text-anchor="middle" x="237.49" y="-325.61" font-family="Helvetica,sans-Serif" font-size="10.00">3</text>
</a>
</g>
</g>
<!-- dir_2b83fdf2b6dc3c4b3c2f432ac2e79807&#45;&gt;dir_1a5504e72c2ab618c124e6472b08d26c -->
<g id="edge6" class="edge">
<title>dir_2b83fdf2b6dc3c4b3c2f432ac2e79807&#45;&gt;dir_1a5504e72c2ab618c124e6472b08d26c</title>
<path fill="none" stroke="black" d="M307.01,-359.88C335.63,-335.5 382,-287.84 382,-235 382,-235 382,-235 382,-161 382,-91.79 300.48,-52.56 243.4,-33.58"/>
<polygon fill="black" stroke="black" points="244.35,-30.21 233.76,-30.49 242.22,-36.87 244.35,-30.21"/>
<g id="a_edge6&#45;headlabel"><a xlink:href="dir_000106_000135.html" target="_top" xlink:title="2">
<text text-anchor="middle" x="248.64" y="-26.1" font-family="Helvetica,sans-Serif" font-size="10.00">2</text>
</a>
</g>
</g>
<!-- dir_b8146bf70b87a0f1c9cf6bdf4bac4dd2 -->
<g id="node8" class="node">
<title>dir_b8146bf70b87a0f1c9cf6bdf4bac4dd2</title>
<g id="a_node8"><a xlink:href="dir_b8146bf70b87a0f1c9cf6bdf4bac4dd2.html" target="_top" xlink:title="ThirdpartAPI">
<polygon fill="none" stroke="red" points="487.5,-324 410.5,-324 410.5,-288 487.5,-288 487.5,-324"/>
<text text-anchor="middle" x="449" y="-303.5" font-family="Helvetica,sans-Serif" font-size="10.00">ThirdpartAPI</text>
</a>
</g>
</g>
<!-- dir_2b83fdf2b6dc3c4b3c2f432ac2e79807&#45;&gt;dir_b8146bf70b87a0f1c9cf6bdf4bac4dd2 -->
<g id="edge7" class="edge">
<title>dir_2b83fdf2b6dc3c4b3c2f432ac2e79807&#45;&gt;dir_b8146bf70b87a0f1c9cf6bdf4bac4dd2</title>
<path fill="none" stroke="black" d="M304.1,-359.92C311.22,-354.23 319.61,-348.26 328,-344 356.08,-329.72 365.89,-333.26 396,-324 397.44,-323.56 398.91,-323.1 400.39,-322.64"/>
<polygon fill="black" stroke="black" points="401.75,-325.88 410.25,-319.55 399.66,-319.2 401.75,-325.88"/>
<g id="a_edge7&#45;headlabel"><a xlink:href="dir_000106_000235.html" target="_top" xlink:title="3">
<text text-anchor="middle" x="399.17" y="-327.17" font-family="Helvetica,sans-Serif" font-size="10.00">3</text>
</a>
</g>
</g>
<!-- dir_b1c1a9b11fc461873ed40d62ec58e0b3 -->
<g id="node4" class="node">
<title>dir_b1c1a9b11fc461873ed40d62ec58e0b3</title>
<g id="a_node4"><a xlink:href="dir_b1c1a9b11fc461873ed40d62ec58e0b3.html" target="_top" xlink:title="RpiCamV2">
<polygon fill="white" stroke="red" points="99,-396 31,-396 31,-360 99,-360 99,-396"/>
<text text-anchor="middle" x="65" y="-375.5" font-family="Helvetica,sans-Serif" font-size="10.00">RpiCamV2</text>
</a>
</g>
</g>
<!-- dir_b1c1a9b11fc461873ed40d62ec58e0b3&#45;&gt;dir_a4226c5615a06a31e6344f5f3fd917e1 -->
<g id="edge16" class="edge">
<title>dir_b1c1a9b11fc461873ed40d62ec58e0b3&#45;&gt;dir_a4226c5615a06a31e6344f5f3fd917e1</title>
<path fill="none" stroke="black" d="M84.74,-359.98C91.78,-354.42 99.96,-348.53 108,-344 126.35,-333.67 148.16,-324.95 166.25,-318.57"/>
<polygon fill="black" stroke="black" points="167.55,-321.83 175.88,-315.28 165.28,-315.2 167.55,-321.83"/>
<g id="a_edge16&#45;headlabel"><a xlink:href="dir_000074_000016.html" target="_top" xlink:title="1">
<text text-anchor="middle" x="165.07" y="-323.18" font-family="Helvetica,sans-Serif" font-size="10.00">1</text>
</a>
</g>
</g>
<!-- dir_b1c1a9b11fc461873ed40d62ec58e0b3&#45;&gt;dir_1a5504e72c2ab618c124e6472b08d26c -->
<g id="edge17" class="edge">
<title>dir_b1c1a9b11fc461873ed40d62ec58e0b3&#45;&gt;dir_1a5504e72c2ab618c124e6472b08d26c</title>
<path fill="none" stroke="black" d="M51.22,-359.79C32.14,-334.18 0,-283.8 0,-235 0,-235 0,-235 0,-161 0,-93.25 78.6,-53.82 134.42,-34.37"/>
<polygon fill="black" stroke="black" points="135.85,-37.58 144.21,-31.08 133.62,-30.95 135.85,-37.58"/>
<g id="a_edge17&#45;headlabel"><a xlink:href="dir_000074_000135.html" target="_top" xlink:title="1">
<text text-anchor="middle" x="133.34" y="-38.92" font-family="Helvetica,sans-Serif" font-size="10.00">1</text>
</a>
</g>
</g>
<!-- dir_e185953657720ba3a67126696ef566c7 -->
<g id="node9" class="node">
<title>dir_e185953657720ba3a67126696ef566c7</title>
<g id="a_node9"><a xlink:href="dir_e185953657720ba3a67126696ef566c7.html" target="_top" xlink:title="Interfaces">
<polygon fill="none" stroke="red" points="221.5,-180 156.5,-180 156.5,-144 221.5,-144 221.5,-180"/>
<text text-anchor="middle" x="189" y="-159.5" font-family="Helvetica,sans-Serif" font-size="10.00">Interfaces</text>
</a>
</g>
</g>
<!-- dir_b1c1a9b11fc461873ed40d62ec58e0b3&#45;&gt;dir_e185953657720ba3a67126696ef566c7 -->
<g id="edge18" class="edge">
<title>dir_b1c1a9b11fc461873ed40d62ec58e0b3&#45;&gt;dir_e185953657720ba3a67126696ef566c7</title>
<path fill="none" stroke="black" d="M63.71,-359.68C62.26,-328.05 63.41,-260.17 95,-216 107.68,-198.27 128.25,-185.71 146.92,-177.28"/>
<polygon fill="black" stroke="black" points="148.33,-180.48 156.17,-173.36 145.6,-174.04 148.33,-180.48"/>
<g id="a_edge18&#45;headlabel"><a xlink:href="dir_000074_000093.html" target="_top" xlink:title="1">
<text text-anchor="middle" x="146.13" y="-182" font-family="Helvetica,sans-Serif" font-size="10.00">1</text>
</a>
</g>
</g>
<!-- dir_a4226c5615a06a31e6344f5f3fd917e1&#45;&gt;dir_1a5504e72c2ab618c124e6472b08d26c -->
<g id="edge1" class="edge">
<title>dir_a4226c5615a06a31e6344f5f3fd917e1&#45;&gt;dir_1a5504e72c2ab618c124e6472b08d26c</title>
<path fill="none" stroke="black" d="M218.24,-287.93C251.95,-248.04 326.47,-146.41 283,-72 273.99,-56.58 258.67,-45.3 242.97,-37.21"/>
<polygon fill="black" stroke="black" points="244.27,-33.95 233.74,-32.81 241.26,-40.27 244.27,-33.95"/>
<g id="a_edge1&#45;headlabel"><a xlink:href="dir_000016_000135.html" target="_top" xlink:title="26">
<text text-anchor="middle" x="248.74" y="-30.43" font-family="Helvetica,sans-Serif" font-size="10.00">26</text>
</a>
</g>
</g>
<!-- dir_a4226c5615a06a31e6344f5f3fd917e1&#45;&gt;dir_4d0b0adf7e9fb892c3df556e9cbb05d0 -->
<g id="edge2" class="edge">
<title>dir_a4226c5615a06a31e6344f5f3fd917e1&#45;&gt;dir_4d0b0adf7e9fb892c3df556e9cbb05d0</title>
<path fill="none" stroke="black" d="M180.28,-287.7C171.17,-279.22 160.92,-268.86 152.4,-259.58"/>
<polygon fill="black" stroke="black" points="154.99,-257.23 145.72,-252.1 149.77,-261.89 154.99,-257.23"/>
<g id="a_edge2&#45;headlabel"><a xlink:href="dir_000016_000059.html" target="_top" xlink:title="3">
<text text-anchor="middle" x="159.51" y="-255.52" font-family="Helvetica,sans-Serif" font-size="10.00">3</text>
</a>
</g>
</g>
<!-- dir_a4226c5615a06a31e6344f5f3fd917e1&#45;&gt;dir_e185953657720ba3a67126696ef566c7 -->
<g id="edge3" class="edge">
<title>dir_a4226c5615a06a31e6344f5f3fd917e1&#45;&gt;dir_e185953657720ba3a67126696ef566c7</title>
<path fill="none" stroke="black" d="M196.73,-287.87C191.78,-263.67 187.11,-219.21 186.24,-190.39"/>
<polygon fill="black" stroke="black" points="189.74,-190.14 186.1,-180.19 182.74,-190.24 189.74,-190.14"/>
<g id="a_edge3&#45;headlabel"><a xlink:href="dir_000016_000093.html" target="_top" xlink:title="8">
<text text-anchor="middle" x="192.63" y="-191.2" font-family="Helvetica,sans-Serif" font-size="10.00">8</text>
</a>
</g>
</g>
<!-- dir_a4226c5615a06a31e6344f5f3fd917e1&#45;&gt;dir_6a49a4a01df89ea000e629175e7db917 -->
<g id="edge4" class="edge">
<title>dir_a4226c5615a06a31e6344f5f3fd917e1&#45;&gt;dir_6a49a4a01df89ea000e629175e7db917</title>
<path fill="none" stroke="black" d="M200.9,-287.96C203.04,-277.64 207.12,-264.16 210,-252 221.05,-205.37 229.71,-150.19 236.9,-118.03"/>
<polygon fill="black" stroke="black" points="240.37,-118.6 239.29,-108.06 233.56,-116.97 240.37,-118.6"/>
<g id="a_edge4&#45;headlabel"><a xlink:href="dir_000016_000066.html" target="_top" xlink:title="4">
<text text-anchor="middle" x="242.29" y="-120.25" font-family="Helvetica,sans-Serif" font-size="10.00">4</text>
</a>
</g>
</g>
<!-- dir_4d0b0adf7e9fb892c3df556e9cbb05d0&#45;&gt;dir_a4226c5615a06a31e6344f5f3fd917e1 -->
<g id="edge12" class="edge">
<title>dir_4d0b0adf7e9fb892c3df556e9cbb05d0&#45;&gt;dir_a4226c5615a06a31e6344f5f3fd917e1</title>
<path fill="none" stroke="black" d="M157.51,-252.1C166.6,-260.55 176.85,-270.9 185.4,-280.2"/>
<polygon fill="black" stroke="black" points="182.83,-282.58 192.11,-287.7 188.05,-277.91 182.83,-282.58"/>
<g id="a_edge12&#45;headlabel"><a xlink:href="dir_000059_000016.html" target="_top" xlink:title="14">
<text text-anchor="middle" x="178.32" y="-279.29" font-family="Helvetica,sans-Serif" font-size="10.00">14</text>
</a>
</g>
</g>
<!-- dir_4d0b0adf7e9fb892c3df556e9cbb05d0&#45;&gt;dir_1a5504e72c2ab618c124e6472b08d26c -->
<g id="edge13" class="edge">
<title>dir_4d0b0adf7e9fb892c3df556e9cbb05d0&#45;&gt;dir_1a5504e72c2ab618c124e6472b08d26c</title>
<path fill="none" stroke="black" d="M131.59,-215.71C128.64,-197.61 125.6,-168.47 131,-144 139,-107.75 158.61,-69.52 172.82,-45.03"/>
<polygon fill="black" stroke="black" points="175.88,-46.73 177.96,-36.34 169.86,-43.16 175.88,-46.73"/>
<g id="a_edge13&#45;headlabel"><a xlink:href="dir_000059_000135.html" target="_top" xlink:title="11">
<text text-anchor="middle" x="176.49" y="-48.77" font-family="Helvetica,sans-Serif" font-size="10.00">11</text>
</a>
</g>
</g>
<!-- dir_4d0b0adf7e9fb892c3df556e9cbb05d0&#45;&gt;dir_e185953657720ba3a67126696ef566c7 -->
<g id="edge14" class="edge">
<title>dir_4d0b0adf7e9fb892c3df556e9cbb05d0&#45;&gt;dir_e185953657720ba3a67126696ef566c7</title>
<path fill="none" stroke="black" d="M142.43,-215.7C148.04,-207.3 155.74,-197.07 163.33,-187.86"/>
<polygon fill="black" stroke="black" points="166.11,-189.99 169.91,-180.1 160.77,-185.47 166.11,-189.99"/>
<g id="a_edge14&#45;headlabel"><a xlink:href="dir_000059_000093.html" target="_top" xlink:title="3">
<text text-anchor="middle" x="165.95" y="-192.07" font-family="Helvetica,sans-Serif" font-size="10.00">3</text>
</a>
</g>
</g>
<!-- dir_4d0b0adf7e9fb892c3df556e9cbb05d0&#45;&gt;dir_6a49a4a01df89ea000e629175e7db917 -->
<g id="edge15" class="edge">
<title>dir_4d0b0adf7e9fb892c3df556e9cbb05d0&#45;&gt;dir_6a49a4a01df89ea000e629175e7db917</title>
<path fill="none" stroke="black" d="M132.94,-215.95C131.54,-196.73 132.11,-165.36 147,-144 161.91,-122.61 188.22,-109.16 210.12,-101.16"/>
<polygon fill="black" stroke="black" points="211.47,-104.39 219.81,-97.86 209.22,-97.77 211.47,-104.39"/>
<g id="a_edge15&#45;headlabel"><a xlink:href="dir_000059_000066.html" target="_top" xlink:title="3">
<text text-anchor="middle" x="208.99" y="-105.74" font-family="Helvetica,sans-Serif" font-size="10.00">3</text>
</a>
</g>
</g>
<!-- dir_e185953657720ba3a67126696ef566c7&#45;&gt;dir_a4226c5615a06a31e6344f5f3fd917e1 -->
<g id="edge19" class="edge">
<title>dir_e185953657720ba3a67126696ef566c7&#45;&gt;dir_a4226c5615a06a31e6344f5f3fd917e1</title>
<path fill="none" stroke="black" d="M195.29,-180.19C200.23,-204.42 204.9,-248.89 205.76,-277.68"/>
<polygon fill="black" stroke="black" points="202.26,-277.92 205.9,-287.87 209.26,-277.83 202.26,-277.92"/>
<g id="a_edge19&#45;headlabel"><a xlink:href="dir_000093_000016.html" target="_top" xlink:title="23">
<text text-anchor="middle" x="199.38" y="-271.86" font-family="Helvetica,sans-Serif" font-size="10.00">23</text>
</a>
</g>
</g>
<!-- dir_e185953657720ba3a67126696ef566c7&#45;&gt;dir_1a5504e72c2ab618c124e6472b08d26c -->
<g id="edge20" class="edge">
<title>dir_e185953657720ba3a67126696ef566c7&#45;&gt;dir_1a5504e72c2ab618c124e6472b08d26c</title>
<path fill="none" stroke="black" d="M189,-143.87C189,-119.67 189,-75.21 189,-46.39"/>
<polygon fill="black" stroke="black" points="192.5,-46.19 189,-36.19 185.5,-46.19 192.5,-46.19"/>
<g id="a_edge20&#45;headlabel"><a xlink:href="dir_000093_000135.html" target="_top" xlink:title="15">
<text text-anchor="middle" x="195.34" y="-47.28" font-family="Helvetica,sans-Serif" font-size="10.00">15</text>
</a>
</g>
</g>
<!-- dir_e185953657720ba3a67126696ef566c7&#45;&gt;dir_4d0b0adf7e9fb892c3df556e9cbb05d0 -->
<g id="edge21" class="edge">
<title>dir_e185953657720ba3a67126696ef566c7&#45;&gt;dir_4d0b0adf7e9fb892c3df556e9cbb05d0</title>
<path fill="none" stroke="black" d="M181.7,-180.1C176.13,-188.47 168.44,-198.69 160.85,-207.92"/>
<polygon fill="black" stroke="black" points="158.06,-205.8 154.26,-215.7 163.4,-210.33 158.06,-205.8"/>
<g id="a_edge21&#45;headlabel"><a xlink:href="dir_000093_000059.html" target="_top" xlink:title="4">
<text text-anchor="middle" x="158.21" y="-198.73" font-family="Helvetica,sans-Serif" font-size="10.00">4</text>
</a>
</g>
</g>
<!-- dir_e185953657720ba3a67126696ef566c7&#45;&gt;dir_6a49a4a01df89ea000e629175e7db917 -->
<g id="edge22" class="edge">
<title>dir_e185953657720ba3a67126696ef566c7&#45;&gt;dir_6a49a4a01df89ea000e629175e7db917</title>
<path fill="none" stroke="black" d="M203.34,-143.7C210.29,-135.3 218.77,-125.07 226.4,-115.86"/>
<polygon fill="black" stroke="black" points="229.14,-118.04 232.83,-108.1 223.75,-113.57 229.14,-118.04"/>
<g id="a_edge22&#45;headlabel"><a xlink:href="dir_000093_000066.html" target="_top" xlink:title="4">
<text text-anchor="middle" x="229.04" y="-120.12" font-family="Helvetica,sans-Serif" font-size="10.00">4</text>
</a>
</g>
</g>
<!-- dir_6a49a4a01df89ea000e629175e7db917&#45;&gt;dir_a4226c5615a06a31e6344f5f3fd917e1 -->
<g id="edge23" class="edge">
<title>dir_6a49a4a01df89ea000e629175e7db917&#45;&gt;dir_a4226c5615a06a31e6344f5f3fd917e1</title>
<path fill="none" stroke="black" d="M250.16,-108.06C249.63,-137.6 240.3,-200.1 228,-252 225.93,-260.74 223.24,-270.16 220.22,-278.6"/>
<polygon fill="black" stroke="black" points="216.94,-277.37 216.54,-287.96 223.46,-279.93 216.94,-277.37"/>
<g id="a_edge23&#45;headlabel"><a xlink:href="dir_000066_000016.html" target="_top" xlink:title="2">
<text text-anchor="middle" x="215.61" y="-270.49" font-family="Helvetica,sans-Serif" font-size="10.00">2</text>
</a>
</g>
</g>
<!-- dir_6a49a4a01df89ea000e629175e7db917&#45;&gt;dir_1a5504e72c2ab618c124e6472b08d26c -->
<g id="edge24" class="edge">
<title>dir_6a49a4a01df89ea000e629175e7db917&#45;&gt;dir_1a5504e72c2ab618c124e6472b08d26c</title>
<path fill="none" stroke="black" d="M232.66,-71.7C225.71,-63.3 217.23,-53.07 209.6,-43.86"/>
<polygon fill="black" stroke="black" points="212.25,-41.57 203.17,-36.1 206.86,-46.04 212.25,-41.57"/>
<g id="a_edge24&#45;headlabel"><a xlink:href="dir_000066_000135.html" target="_top" xlink:title="2">
<text text-anchor="middle" x="216.73" y="-40.03" font-family="Helvetica,sans-Serif" font-size="10.00">2</text>
</a>
</g>
</g>
</g>
</svg>
