<?xml version="1.0" encoding="UTF-8" standalone="no"?>
<!DOCTYPE svg PUBLIC "-//W3C//DTD SVG 1.1//EN"
 "http://www.w3.org/Graphics/SVG/1.1/DTD/svg11.dtd">
<!-- Generated by graphviz version 2.43.0 (0)
 -->
<!-- Title: Components/User/DogFeederDoor Pages: 1 -->
<svg width="292pt" height="375pt"
 viewBox="0.00 0.00 292.00 375.00" xmlns="http://www.w3.org/2000/svg" xmlns:xlink="http://www.w3.org/1999/xlink">
<g id="graph0" class="graph" transform="scale(1 1) rotate(0) translate(4 371)">
<title>Components/User/DogFeederDoor</title>
<g id="clust1" class="cluster">
<title>clusterdir_eec1bb706bd2e5107de375aec258065a</title>
<g id="a_clust1"><a xlink:href="dir_eec1bb706bd2e5107de375aec258065a.html" target="_top" xlink:title="User">
<polygon fill="#ddddee" stroke="black" points="8,-200 8,-359 276,-359 276,-200 8,-200"/>
<text text-anchor="middle" x="142" y="-347" font-family="Helvetica,sans-Serif" font-size="10.00">User</text>
</a>
</g>
</g>
<g id="clust2" class="cluster">
<title>clusterdir_f7882d0707ba4b7788d1340f2603d055</title>
<g id="a_clust2"><a xlink:href="dir_f7882d0707ba4b7788d1340f2603d055.html" target="_top">
<polygon fill="#eeeeff" stroke="black" points="16,-208 16,-332 268,-332 268,-208 16,-208"/>
</a>
</g>
</g>
<!-- dir_f7882d0707ba4b7788d1340f2603d055 -->
<g id="node1" class="node">
<title>dir_f7882d0707ba4b7788d1340f2603d055</title>
<text text-anchor="middle" x="214" y="-303.5" font-family="Helvetica,sans-Serif" font-size="10.00">DogFeederDoor</text>
</g>
<!-- dir_bce0638752fe868381ae7aa392dcc03b -->
<g id="node2" class="node">
<title>dir_bce0638752fe868381ae7aa392dcc03b</title>
<g id="a_node2"><a xlink:href="dir_bce0638752fe868381ae7aa392dcc03b.html" target="_top" xlink:title="include">
<polygon fill="white" stroke="black" points="150,-252 96,-252 96,-216 150,-216 150,-252"/>
<text text-anchor="middle" x="123" y="-231.5" font-family="Helvetica,sans-Serif" font-size="10.00">include</text>
</a>
</g>
</g>
<!-- dir_a4226c5615a06a31e6344f5f3fd917e1 -->
<g id="node5" class="node">
<title>dir_a4226c5615a06a31e6344f5f3fd917e1</title>
<g id="a_node5"><a xlink:href="dir_a4226c5615a06a31e6344f5f3fd917e1.html" target="_top" xlink:title="Objects">
<polygon fill="none" stroke="red" points="104,-108 50,-108 50,-72 104,-72 104,-108"/>
<text text-anchor="middle" x="77" y="-87.5" font-family="Helvetica,sans-Serif" font-size="10.00">Objects</text>
</a>
</g>
</g>
<!-- dir_bce0638752fe868381ae7aa392dcc03b&#45;&gt;dir_a4226c5615a06a31e6344f5f3fd917e1 -->
<g id="edge5" class="edge">
<title>dir_bce0638752fe868381ae7aa392dcc03b&#45;&gt;dir_a4226c5615a06a31e6344f5f3fd917e1</title>
<path fill="none" stroke="black" d="M107.01,-215.75C98.96,-206.01 89.89,-193.16 85,-180 77.67,-160.28 75.86,-136.47 75.78,-118.45"/>
<polygon fill="black" stroke="black" points="79.28,-118.36 75.91,-108.32 72.28,-118.27 79.28,-118.36"/>
<g id="a_edge5&#45;headlabel"><a xlink:href="dir_000225_000016.html" target="_top" xlink:title="2">
<text text-anchor="middle" x="82.07" y="-119.49" font-family="Helvetica,sans-Serif" font-size="10.00">2</text>
</a>
</g>
</g>
<!-- dir_8efbaa1056a51686757185dce0bc8da0 -->
<g id="node6" class="node">
<title>dir_8efbaa1056a51686757185dce0bc8da0</title>
<g id="a_node6"><a xlink:href="dir_8efbaa1056a51686757185dce0bc8da0.html" target="_top" xlink:title="Actuator">
<polygon fill="none" stroke="red" points="152,-180 94,-180 94,-144 152,-144 152,-180"/>
<text text-anchor="middle" x="123" y="-159.5" font-family="Helvetica,sans-Serif" font-size="10.00">Actuator</text>
</a>
</g>
</g>
<!-- dir_bce0638752fe868381ae7aa392dcc03b&#45;&gt;dir_8efbaa1056a51686757185dce0bc8da0 -->
<g id="edge6" class="edge">
<title>dir_bce0638752fe868381ae7aa392dcc03b&#45;&gt;dir_8efbaa1056a51686757185dce0bc8da0</title>
<path fill="none" stroke="black" d="M123,-215.7C123,-207.98 123,-198.71 123,-190.11"/>
<polygon fill="black" stroke="black" points="126.5,-190.1 123,-180.1 119.5,-190.1 126.5,-190.1"/>
<g id="a_edge6&#45;headlabel"><a xlink:href="dir_000225_000002.html" target="_top" xlink:title="1">
<text text-anchor="middle" x="129.34" y="-191.2" font-family="Helvetica,sans-Serif" font-size="10.00">1</text>
</a>
</g>
</g>
<!-- dir_1a5504e72c2ab618c124e6472b08d26c -->
<g id="node7" class="node">
<title>dir_1a5504e72c2ab618c124e6472b08d26c</title>
<g id="a_node7"><a xlink:href="dir_1a5504e72c2ab618c124e6472b08d26c.html" target="_top" xlink:title="Global_Include">
<polygon fill="none" stroke="black" points="176.5,-36 87.5,-36 87.5,0 176.5,0 176.5,-36"/>
<text text-anchor="middle" x="132" y="-15.5" font-family="Helvetica,sans-Serif" font-size="10.00">Global_Include</text>
</a>
</g>
</g>
<!-- dir_bce0638752fe868381ae7aa392dcc03b&#45;&gt;dir_1a5504e72c2ab618c124e6472b08d26c -->
<g id="edge7" class="edge">
<title>dir_bce0638752fe868381ae7aa392dcc03b&#45;&gt;dir_1a5504e72c2ab618c124e6472b08d26c</title>
<path fill="none" stroke="black" d="M139.46,-215.92C147.65,-206.22 156.7,-193.37 161,-180 175.81,-133.93 158.06,-77.87 144.53,-45.52"/>
<polygon fill="black" stroke="black" points="147.71,-44.06 140.51,-36.28 141.29,-46.85 147.71,-44.06"/>
<g id="a_edge7&#45;headlabel"><a xlink:href="dir_000225_000130.html" target="_top" xlink:title="1">
<text text-anchor="middle" x="151.75" y="-43.72" font-family="Helvetica,sans-Serif" font-size="10.00">1</text>
</a>
</g>
</g>
<!-- dir_1093bf4d00d6465dc31fb749449fface -->
<g id="node3" class="node">
<title>dir_1093bf4d00d6465dc31fb749449fface</title>
<g id="a_node3"><a xlink:href="dir_1093bf4d00d6465dc31fb749449fface.html" target="_top" xlink:title="src">
<polygon fill="white" stroke="black" points="150,-324 96,-324 96,-288 150,-288 150,-324"/>
<text text-anchor="middle" x="123" y="-303.5" font-family="Helvetica,sans-Serif" font-size="10.00">src</text>
</a>
</g>
</g>
<!-- dir_1093bf4d00d6465dc31fb749449fface&#45;&gt;dir_bce0638752fe868381ae7aa392dcc03b -->
<g id="edge4" class="edge">
<title>dir_1093bf4d00d6465dc31fb749449fface&#45;&gt;dir_bce0638752fe868381ae7aa392dcc03b</title>
<path fill="none" stroke="black" d="M123,-287.7C123,-279.98 123,-270.71 123,-262.11"/>
<polygon fill="black" stroke="black" points="126.5,-262.1 123,-252.1 119.5,-262.1 126.5,-262.1"/>
<g id="a_edge4&#45;headlabel"><a xlink:href="dir_000226_000225.html" target="_top" xlink:title="1">
<text text-anchor="middle" x="129.34" y="-263.2" font-family="Helvetica,sans-Serif" font-size="10.00">1</text>
</a>
</g>
</g>
<!-- dir_590ac913aae10ebe56862547086a1150 -->
<g id="node4" class="node">
<title>dir_590ac913aae10ebe56862547086a1150</title>
<g id="a_node4"><a xlink:href="dir_590ac913aae10ebe56862547086a1150.html" target="_top" xlink:title="test">
<polygon fill="white" stroke="red" points="78,-324 24,-324 24,-288 78,-288 78,-324"/>
<text text-anchor="middle" x="51" y="-303.5" font-family="Helvetica,sans-Serif" font-size="10.00">test</text>
</a>
</g>
</g>
<!-- dir_a4226c5615a06a31e6344f5f3fd917e1&#45;&gt;dir_1a5504e72c2ab618c124e6472b08d26c -->
<g id="edge1" class="edge">
<title>dir_a4226c5615a06a31e6344f5f3fd917e1&#45;&gt;dir_1a5504e72c2ab618c124e6472b08d26c</title>
<path fill="none" stroke="black" d="M90.6,-71.7C97.12,-63.39 105.07,-53.28 112.25,-44.14"/>
<polygon fill="black" stroke="black" points="115.13,-46.13 118.56,-36.1 109.63,-41.81 115.13,-46.13"/>
<g id="a_edge1&#45;headlabel"><a xlink:href="dir_000016_000130.html" target="_top" xlink:title="26">
<text text-anchor="middle" x="115.15" y="-48.21" font-family="Helvetica,sans-Serif" font-size="10.00">26</text>
</a>
</g>
</g>
<!-- dir_8efbaa1056a51686757185dce0bc8da0&#45;&gt;dir_a4226c5615a06a31e6344f5f3fd917e1 -->
<g id="edge2" class="edge">
<title>dir_8efbaa1056a51686757185dce0bc8da0&#45;&gt;dir_a4226c5615a06a31e6344f5f3fd917e1</title>
<path fill="none" stroke="black" d="M111.63,-143.7C106.28,-135.56 99.8,-125.69 93.89,-116.7"/>
<polygon fill="black" stroke="black" points="96.66,-114.54 88.24,-108.1 90.81,-118.38 96.66,-114.54"/>
<g id="a_edge2&#45;headlabel"><a xlink:href="dir_000002_000016.html" target="_top" xlink:title="3">
<text text-anchor="middle" x="101" y="-113.48" font-family="Helvetica,sans-Serif" font-size="10.00">3</text>
</a>
</g>
</g>
<!-- dir_8efbaa1056a51686757185dce0bc8da0&#45;&gt;dir_1a5504e72c2ab618c124e6472b08d26c -->
<g id="edge3" class="edge">
<title>dir_8efbaa1056a51686757185dce0bc8da0&#45;&gt;dir_1a5504e72c2ab618c124e6472b08d26c</title>
<path fill="none" stroke="black" d="M124.09,-143.87C125.62,-119.67 128.44,-75.21 130.26,-46.39"/>
<polygon fill="black" stroke="black" points="133.77,-46.39 130.91,-36.19 126.78,-45.95 133.77,-46.39"/>
<g id="a_edge3&#45;headlabel"><a xlink:href="dir_000002_000130.html" target="_top" xlink:title="1">
<text text-anchor="middle" x="136.38" y="-47.66" font-family="Helvetica,sans-Serif" font-size="10.00">1</text>
</a>
</g>
</g>
</g>
</svg>
