<?xml version="1.0" encoding="UTF-8" standalone="no"?>
<!DOCTYPE svg PUBLIC "-//W3C//DTD SVG 1.1//EN"
 "http://www.w3.org/Graphics/SVG/1.1/DTD/svg11.dtd">
<!-- Generated by graphviz version 2.43.0 (0)
 -->
<!-- Title: Components/Objects/Watchdog/include Pages: 1 -->
<svg width="207pt" height="295pt"
 viewBox="0.00 0.00 207.46 295.00" xmlns="http://www.w3.org/2000/svg" xmlns:xlink="http://www.w3.org/1999/xlink">
<g id="graph0" class="graph" transform="scale(1 1) rotate(0) translate(4 291)">
<title>Components/Objects/Watchdog/include</title>
<g id="clust1" class="cluster">
<title>clusterdir_f5aa2036925efca15e61136d01981e37</title>
<g id="a_clust1"><a xlink:href="dir_f5aa2036925efca15e61136d01981e37.html" target="_top" xlink:title="Watchdog">
<polygon fill="#ddddee" stroke="black" points="48.96,-208 48.96,-279 118.96,-279 118.96,-208 48.96,-208"/>
<text text-anchor="middle" x="83.96" y="-267" font-family="Helvetica,sans-Serif" font-size="10.00">Watchdog</text>
</a>
</g>
</g>
<!-- dir_64ce543db76d4ee4e2589de7e1cd1f4a -->
<g id="node1" class="node">
<title>dir_64ce543db76d4ee4e2589de7e1cd1f4a</title>
<g id="a_node1"><a xlink:href="dir_64ce543db76d4ee4e2589de7e1cd1f4a.html" target="_top" xlink:title="include">
<polygon fill="#eeeeff" stroke="black" points="110.96,-252 56.96,-252 56.96,-216 110.96,-216 110.96,-252"/>
<text text-anchor="middle" x="83.96" y="-231.5" font-family="Helvetica,sans-Serif" font-size="10.00">include</text>
</a>
</g>
</g>
<!-- dir_4816d2fb8abcfd1fbfb7e56b67e0baa1 -->
<g id="node2" class="node">
<title>dir_4816d2fb8abcfd1fbfb7e56b67e0baa1</title>
<g id="a_node2"><a xlink:href="dir_4816d2fb8abcfd1fbfb7e56b67e0baa1.html" target="_top" xlink:title="ErrorHandler">
<polygon fill="none" stroke="red" points="89.96,-36 11.96,-36 11.96,0 89.96,0 89.96,-36"/>
<text text-anchor="middle" x="50.96" y="-15.5" font-family="Helvetica,sans-Serif" font-size="10.00">ErrorHandler</text>
</a>
</g>
</g>
<!-- dir_64ce543db76d4ee4e2589de7e1cd1f4a&#45;&gt;dir_4816d2fb8abcfd1fbfb7e56b67e0baa1 -->
<g id="edge1" class="edge">
<title>dir_64ce543db76d4ee4e2589de7e1cd1f4a&#45;&gt;dir_4816d2fb8abcfd1fbfb7e56b67e0baa1</title>
<path fill="none" stroke="black" d="M68.47,-215.98C48.99,-193.31 16.55,-151.03 3.96,-108 -0.53,-92.64 -1.72,-86.96 3.96,-72 7.93,-61.54 15.01,-51.83 22.49,-43.65"/>
<polygon fill="black" stroke="black" points="25.19,-45.89 29.7,-36.3 20.19,-40.99 25.19,-45.89"/>
<g id="a_edge1&#45;headlabel"><a xlink:href="dir_000142_000019.html" target="_top" xlink:title="1">
<text text-anchor="middle" x="24.7" y="-47.94" font-family="Helvetica,sans-Serif" font-size="10.00">1</text>
</a>
</g>
</g>
<!-- dir_1a5504e72c2ab618c124e6472b08d26c -->
<g id="node3" class="node">
<title>dir_1a5504e72c2ab618c124e6472b08d26c</title>
<g id="a_node3"><a xlink:href="dir_1a5504e72c2ab618c124e6472b08d26c.html" target="_top" xlink:title="Global_Include">
<polygon fill="none" stroke="black" points="199.46,-36 110.46,-36 110.46,0 199.46,0 199.46,-36"/>
<text text-anchor="middle" x="154.96" y="-15.5" font-family="Helvetica,sans-Serif" font-size="10.00">Global_Include</text>
</a>
</g>
</g>
<!-- dir_64ce543db76d4ee4e2589de7e1cd1f4a&#45;&gt;dir_1a5504e72c2ab618c124e6472b08d26c -->
<g id="edge2" class="edge">
<title>dir_64ce543db76d4ee4e2589de7e1cd1f4a&#45;&gt;dir_1a5504e72c2ab618c124e6472b08d26c</title>
<path fill="none" stroke="black" d="M111.04,-221.3C127.58,-212.55 147.36,-198.84 156.96,-180 178.73,-137.3 170.44,-79.58 162.6,-46.12"/>
<polygon fill="black" stroke="black" points="165.92,-45 160.1,-36.15 159.13,-46.7 165.92,-45"/>
<g id="a_edge2&#45;headlabel"><a xlink:href="dir_000142_000095.html" target="_top" xlink:title="1">
<text text-anchor="middle" x="169.55" y="-45.3" font-family="Helvetica,sans-Serif" font-size="10.00">1</text>
</a>
</g>
</g>
<!-- dir_e185953657720ba3a67126696ef566c7 -->
<g id="node4" class="node">
<title>dir_e185953657720ba3a67126696ef566c7</title>
<g id="a_node4"><a xlink:href="dir_e185953657720ba3a67126696ef566c7.html" target="_top" xlink:title="Interfaces">
<polygon fill="none" stroke="red" points="147.46,-180 82.46,-180 82.46,-144 147.46,-144 147.46,-180"/>
<text text-anchor="middle" x="114.96" y="-159.5" font-family="Helvetica,sans-Serif" font-size="10.00">Interfaces</text>
</a>
</g>
</g>
<!-- dir_64ce543db76d4ee4e2589de7e1cd1f4a&#45;&gt;dir_e185953657720ba3a67126696ef566c7 -->
<g id="edge3" class="edge">
<title>dir_64ce543db76d4ee4e2589de7e1cd1f4a&#45;&gt;dir_e185953657720ba3a67126696ef566c7</title>
<path fill="none" stroke="black" d="M91.62,-215.7C95.15,-207.73 99.42,-198.1 103.33,-189.26"/>
<polygon fill="black" stroke="black" points="106.54,-190.67 107.39,-180.1 100.14,-187.83 106.54,-190.67"/>
<g id="a_edge3&#45;headlabel"><a xlink:href="dir_000142_000096.html" target="_top" xlink:title="1">
<text text-anchor="middle" x="107.68" y="-192.6" font-family="Helvetica,sans-Serif" font-size="10.00">1</text>
</a>
</g>
</g>
<!-- dir_82ae37b9d9d4852b543931d9ede35f57 -->
<g id="node5" class="node">
<title>dir_82ae37b9d9d4852b543931d9ede35f57</title>
<g id="a_node5"><a xlink:href="dir_82ae37b9d9d4852b543931d9ede35f57.html" target="_top" xlink:title="Timeservice">
<polygon fill="none" stroke="red" points="88.96,-108 12.96,-108 12.96,-72 88.96,-72 88.96,-108"/>
<text text-anchor="middle" x="50.96" y="-87.5" font-family="Helvetica,sans-Serif" font-size="10.00">Timeservice</text>
</a>
</g>
</g>
<!-- dir_64ce543db76d4ee4e2589de7e1cd1f4a&#45;&gt;dir_82ae37b9d9d4852b543931d9ede35f57 -->
<g id="edge4" class="edge">
<title>dir_64ce543db76d4ee4e2589de7e1cd1f4a&#45;&gt;dir_82ae37b9d9d4852b543931d9ede35f57</title>
<path fill="none" stroke="black" d="M79.98,-215.87C74.33,-191.56 63.93,-146.82 57.24,-118.01"/>
<polygon fill="black" stroke="black" points="60.63,-117.14 54.96,-108.19 53.81,-118.72 60.63,-117.14"/>
<g id="a_edge4&#45;headlabel"><a xlink:href="dir_000142_000052.html" target="_top" xlink:title="1">
<text text-anchor="middle" x="64.21" y="-117.5" font-family="Helvetica,sans-Serif" font-size="10.00">1</text>
</a>
</g>
</g>
<!-- dir_e185953657720ba3a67126696ef566c7&#45;&gt;dir_4816d2fb8abcfd1fbfb7e56b67e0baa1 -->
<g id="edge5" class="edge">
<title>dir_e185953657720ba3a67126696ef566c7&#45;&gt;dir_4816d2fb8abcfd1fbfb7e56b67e0baa1</title>
<path fill="none" stroke="black" d="M114.36,-143.75C113.12,-125.16 109.35,-95.15 97.96,-72 92.89,-61.69 85.26,-51.85 77.62,-43.51"/>
<polygon fill="black" stroke="black" points="80.13,-41.07 70.67,-36.3 75.09,-45.92 80.13,-41.07"/>
<g id="a_edge5&#45;headlabel"><a xlink:href="dir_000096_000019.html" target="_top" xlink:title="9">
<text text-anchor="middle" x="84.67" y="-39.18" font-family="Helvetica,sans-Serif" font-size="10.00">9</text>
</a>
</g>
</g>
<!-- dir_e185953657720ba3a67126696ef566c7&#45;&gt;dir_1a5504e72c2ab618c124e6472b08d26c -->
<g id="edge6" class="edge">
<title>dir_e185953657720ba3a67126696ef566c7&#45;&gt;dir_1a5504e72c2ab618c124e6472b08d26c</title>
<path fill="none" stroke="black" d="M120.28,-143.85C123.46,-133.49 127.53,-120.01 130.96,-108 136.86,-87.36 143.17,-63.91 147.84,-46.26"/>
<polygon fill="black" stroke="black" points="151.35,-46.67 150.51,-36.1 144.58,-44.88 151.35,-46.67"/>
<g id="a_edge6&#45;headlabel"><a xlink:href="dir_000096_000095.html" target="_top" xlink:title="9">
<text text-anchor="middle" x="153.18" y="-48.36" font-family="Helvetica,sans-Serif" font-size="10.00">9</text>
</a>
</g>
</g>
<!-- dir_e185953657720ba3a67126696ef566c7&#45;&gt;dir_82ae37b9d9d4852b543931d9ede35f57 -->
<g id="edge7" class="edge">
<title>dir_e185953657720ba3a67126696ef566c7&#45;&gt;dir_82ae37b9d9d4852b543931d9ede35f57</title>
<path fill="none" stroke="black" d="M99.14,-143.7C91.39,-135.22 81.92,-124.86 73.44,-115.58"/>
<polygon fill="black" stroke="black" points="75.93,-113.12 66.6,-108.1 70.76,-117.85 75.93,-113.12"/>
<g id="a_edge7&#45;headlabel"><a xlink:href="dir_000096_000052.html" target="_top" xlink:title="1">
<text text-anchor="middle" x="80.45" y="-111.36" font-family="Helvetica,sans-Serif" font-size="10.00">1</text>
</a>
</g>
</g>
<!-- dir_82ae37b9d9d4852b543931d9ede35f57&#45;&gt;dir_4816d2fb8abcfd1fbfb7e56b67e0baa1 -->
<g id="edge8" class="edge">
<title>dir_82ae37b9d9d4852b543931d9ede35f57&#45;&gt;dir_4816d2fb8abcfd1fbfb7e56b67e0baa1</title>
<path fill="none" stroke="black" d="M50.96,-71.7C50.96,-63.98 50.96,-54.71 50.96,-46.11"/>
<polygon fill="black" stroke="black" points="54.46,-46.1 50.96,-36.1 47.46,-46.1 54.46,-46.1"/>
<g id="a_edge8&#45;headlabel"><a xlink:href="dir_000052_000019.html" target="_top" xlink:title="2">
<text text-anchor="middle" x="57.3" y="-47.2" font-family="Helvetica,sans-Serif" font-size="10.00">2</text>
</a>
</g>
</g>
<!-- dir_82ae37b9d9d4852b543931d9ede35f57&#45;&gt;dir_1a5504e72c2ab618c124e6472b08d26c -->
<g id="edge9" class="edge">
<title>dir_82ae37b9d9d4852b543931d9ede35f57&#45;&gt;dir_1a5504e72c2ab618c124e6472b08d26c</title>
<path fill="none" stroke="black" d="M76.4,-71.88C89.75,-62.89 106.29,-51.76 120.74,-42.03"/>
<polygon fill="black" stroke="black" points="123.08,-44.68 129.42,-36.19 119.17,-38.87 123.08,-44.68"/>
<g id="a_edge9&#45;headlabel"><a xlink:href="dir_000052_000095.html" target="_top" xlink:title="2">
<text text-anchor="middle" x="121.68" y="-46.54" font-family="Helvetica,sans-Serif" font-size="10.00">2</text>
</a>
</g>
</g>
</g>
</svg>
