<?xml version="1.0" encoding="UTF-8" standalone="no"?>
<!DOCTYPE svg PUBLIC "-//W3C//DTD SVG 1.1//EN"
 "http://www.w3.org/Graphics/SVG/1.1/DTD/svg11.dtd">
<!-- Generated by graphviz version 2.43.0 (0)
 -->
<!-- Title: Components/Objects/Rulebase/include Pages: 1 -->
<svg width="157pt" height="295pt"
 viewBox="0.00 0.00 157.00 295.00" xmlns="http://www.w3.org/2000/svg" xmlns:xlink="http://www.w3.org/1999/xlink">
<g id="graph0" class="graph" transform="scale(1 1) rotate(0) translate(4 291)">
<title>Components/Objects/Rulebase/include</title>
<g id="clust1" class="cluster">
<title>clusterdir_dc9b1272be60f48aebf9fcadde3772ad</title>
<g id="a_clust1"><a xlink:href="dir_dc9b1272be60f48aebf9fcadde3772ad.html" target="_top" xlink:title="Rulebase">
<polygon fill="#ddddee" stroke="black" points="71,-208 71,-279 141,-279 141,-208 71,-208"/>
<text text-anchor="middle" x="106" y="-267" font-family="Helvetica,sans-Serif" font-size="10.00">Rulebase</text>
</a>
</g>
</g>
<!-- dir_ba259201a7d6f4a5cc06678328c2fd7e -->
<g id="node1" class="node">
<title>dir_ba259201a7d6f4a5cc06678328c2fd7e</title>
<g id="a_node1"><a xlink:href="dir_ba259201a7d6f4a5cc06678328c2fd7e.html" target="_top" xlink:title="include">
<polygon fill="#eeeeff" stroke="black" points="133,-252 79,-252 79,-216 133,-216 133,-252"/>
<text text-anchor="middle" x="106" y="-231.5" font-family="Helvetica,sans-Serif" font-size="10.00">include</text>
</a>
</g>
</g>
<!-- dir_4816d2fb8abcfd1fbfb7e56b67e0baa1 -->
<g id="node2" class="node">
<title>dir_4816d2fb8abcfd1fbfb7e56b67e0baa1</title>
<g id="a_node2"><a xlink:href="dir_4816d2fb8abcfd1fbfb7e56b67e0baa1.html" target="_top" xlink:title="ErrorHandler">
<polygon fill="none" stroke="red" points="78,-180 0,-180 0,-144 78,-144 78,-180"/>
<text text-anchor="middle" x="39" y="-159.5" font-family="Helvetica,sans-Serif" font-size="10.00">ErrorHandler</text>
</a>
</g>
</g>
<!-- dir_ba259201a7d6f4a5cc06678328c2fd7e&#45;&gt;dir_4816d2fb8abcfd1fbfb7e56b67e0baa1 -->
<g id="edge3" class="edge">
<title>dir_ba259201a7d6f4a5cc06678328c2fd7e&#45;&gt;dir_4816d2fb8abcfd1fbfb7e56b67e0baa1</title>
<path fill="none" stroke="black" d="M89.44,-215.7C81.32,-207.22 71.41,-196.86 62.53,-187.58"/>
<polygon fill="black" stroke="black" points="64.81,-184.91 55.37,-180.1 59.76,-189.75 64.81,-184.91"/>
<g id="a_edge3&#45;headlabel"><a xlink:href="dir_000156_000019.html" target="_top" xlink:title="1">
<text text-anchor="middle" x="69.35" y="-183.04" font-family="Helvetica,sans-Serif" font-size="10.00">1</text>
</a>
</g>
</g>
<!-- dir_1a5504e72c2ab618c124e6472b08d26c -->
<g id="node3" class="node">
<title>dir_1a5504e72c2ab618c124e6472b08d26c</title>
<g id="a_node3"><a xlink:href="dir_1a5504e72c2ab618c124e6472b08d26c.html" target="_top" xlink:title="Global_Include">
<polygon fill="none" stroke="black" points="122.5,-36 33.5,-36 33.5,0 122.5,0 122.5,-36"/>
<text text-anchor="middle" x="78" y="-15.5" font-family="Helvetica,sans-Serif" font-size="10.00">Global_Include</text>
</a>
</g>
</g>
<!-- dir_ba259201a7d6f4a5cc06678328c2fd7e&#45;&gt;dir_1a5504e72c2ab618c124e6472b08d26c -->
<g id="edge4" class="edge">
<title>dir_ba259201a7d6f4a5cc06678328c2fd7e&#45;&gt;dir_1a5504e72c2ab618c124e6472b08d26c</title>
<path fill="none" stroke="black" d="M113.1,-215.91C124.52,-185.79 143.88,-121.73 125,-72 121.03,-61.54 113.95,-51.83 106.47,-43.65"/>
<polygon fill="black" stroke="black" points="108.77,-40.99 99.27,-36.3 103.77,-45.89 108.77,-40.99"/>
<g id="a_edge4&#45;headlabel"><a xlink:href="dir_000156_000108.html" target="_top" xlink:title="1">
<text text-anchor="middle" x="113.31" y="-39.07" font-family="Helvetica,sans-Serif" font-size="10.00">1</text>
</a>
</g>
</g>
<!-- dir_82ae37b9d9d4852b543931d9ede35f57 -->
<g id="node4" class="node">
<title>dir_82ae37b9d9d4852b543931d9ede35f57</title>
<g id="a_node4"><a xlink:href="dir_82ae37b9d9d4852b543931d9ede35f57.html" target="_top" xlink:title="Timeservice">
<polygon fill="none" stroke="red" points="116,-108 40,-108 40,-72 116,-72 116,-108"/>
<text text-anchor="middle" x="78" y="-87.5" font-family="Helvetica,sans-Serif" font-size="10.00">Timeservice</text>
</a>
</g>
</g>
<!-- dir_ba259201a7d6f4a5cc06678328c2fd7e&#45;&gt;dir_82ae37b9d9d4852b543931d9ede35f57 -->
<g id="edge5" class="edge">
<title>dir_ba259201a7d6f4a5cc06678328c2fd7e&#45;&gt;dir_82ae37b9d9d4852b543931d9ede35f57</title>
<path fill="none" stroke="black" d="M102.62,-215.87C97.83,-191.56 89.01,-146.82 83.33,-118.01"/>
<polygon fill="black" stroke="black" points="86.76,-117.32 81.39,-108.19 79.89,-118.68 86.76,-117.32"/>
<g id="a_edge5&#45;headlabel"><a xlink:href="dir_000156_000052.html" target="_top" xlink:title="1">
<text text-anchor="middle" x="90.24" y="-117.8" font-family="Helvetica,sans-Serif" font-size="10.00">1</text>
</a>
</g>
</g>
<!-- dir_4816d2fb8abcfd1fbfb7e56b67e0baa1&#45;&gt;dir_1a5504e72c2ab618c124e6472b08d26c -->
<g id="edge1" class="edge">
<title>dir_4816d2fb8abcfd1fbfb7e56b67e0baa1&#45;&gt;dir_1a5504e72c2ab618c124e6472b08d26c</title>
<path fill="none" stroke="black" d="M33.15,-143.99C27.79,-125.62 21.97,-95.79 31,-72 34.97,-61.54 42.05,-51.83 49.53,-43.65"/>
<polygon fill="black" stroke="black" points="52.23,-45.89 56.73,-36.3 47.23,-40.99 52.23,-45.89"/>
<g id="a_edge1&#45;headlabel"><a xlink:href="dir_000019_000108.html" target="_top" xlink:title="2">
<text text-anchor="middle" x="51.74" y="-47.94" font-family="Helvetica,sans-Serif" font-size="10.00">2</text>
</a>
</g>
</g>
<!-- dir_4816d2fb8abcfd1fbfb7e56b67e0baa1&#45;&gt;dir_82ae37b9d9d4852b543931d9ede35f57 -->
<g id="edge2" class="edge">
<title>dir_4816d2fb8abcfd1fbfb7e56b67e0baa1&#45;&gt;dir_82ae37b9d9d4852b543931d9ede35f57</title>
<path fill="none" stroke="black" d="M42.72,-143.7C46.42,-135.56 51.71,-125.69 57.15,-116.7"/>
<polygon fill="black" stroke="black" points="60.2,-118.43 62.58,-108.1 54.28,-114.69 60.2,-118.43"/>
<g id="a_edge2&#45;headlabel"><a xlink:href="dir_000019_000052.html" target="_top" xlink:title="1">
<text text-anchor="middle" x="60.68" y="-120.48" font-family="Helvetica,sans-Serif" font-size="10.00">1</text>
</a>
</g>
</g>
<!-- dir_82ae37b9d9d4852b543931d9ede35f57&#45;&gt;dir_4816d2fb8abcfd1fbfb7e56b67e0baa1 -->
<g id="edge6" class="edge">
<title>dir_82ae37b9d9d4852b543931d9ede35f57&#45;&gt;dir_4816d2fb8abcfd1fbfb7e56b67e0baa1</title>
<path fill="none" stroke="black" d="M74.37,-108.1C70.7,-116.21 65.42,-126.08 59.99,-135.08"/>
<polygon fill="black" stroke="black" points="56.93,-133.37 54.56,-143.7 62.85,-137.1 56.93,-133.37"/>
<g id="a_edge6&#45;headlabel"><a xlink:href="dir_000052_000019.html" target="_top" xlink:title="2">
<text text-anchor="middle" x="56.44" y="-126.32" font-family="Helvetica,sans-Serif" font-size="10.00">2</text>
</a>
</g>
</g>
<!-- dir_82ae37b9d9d4852b543931d9ede35f57&#45;&gt;dir_1a5504e72c2ab618c124e6472b08d26c -->
<g id="edge7" class="edge">
<title>dir_82ae37b9d9d4852b543931d9ede35f57&#45;&gt;dir_1a5504e72c2ab618c124e6472b08d26c</title>
<path fill="none" stroke="black" d="M78,-71.7C78,-63.98 78,-54.71 78,-46.11"/>
<polygon fill="black" stroke="black" points="81.5,-46.1 78,-36.1 74.5,-46.1 81.5,-46.1"/>
<g id="a_edge7&#45;headlabel"><a xlink:href="dir_000052_000108.html" target="_top" xlink:title="2">
<text text-anchor="middle" x="84.34" y="-47.2" font-family="Helvetica,sans-Serif" font-size="10.00">2</text>
</a>
</g>
</g>
</g>
</svg>
