<?xml version="1.0" encoding="UTF-8" standalone="no"?>
<!DOCTYPE svg PUBLIC "-//W3C//DTD SVG 1.1//EN"
 "http://www.w3.org/Graphics/SVG/1.1/DTD/svg11.dtd">
<!-- Generated by graphviz version 2.43.0 (0)
 -->
<!-- Title: Components/Interfaces Pages: 1 -->
<!--zoomable 375 -->
<svg id="main" version="1.1" xmlns="http://www.w3.org/2000/svg" xmlns:xlink="http://www.w3.org/1999/xlink" xml:space="preserve" onload="init(evt)">
<style type="text/css"><![CDATA[
.edge:hover path { stroke: red; }
.edge:hover polygon { stroke: red; fill: red; }
]]></style>
<script type="text/javascript"><![CDATA[
var edges = document.getElementsByTagName('g');
if (edges && edges.length) {
  for (var i=0;i<edges.length;i++) {
    if (edges[i].id.substr(0,4)=='edge') {
      edges[i].setAttribute('class','edge');
    }
  }
}
]]></script>
        <defs>
                <circle id="rim" cx="0" cy="0" r="7"/>
                <circle id="rim2" cx="0" cy="0" r="3.5"/>
                <g id="zoomPlus">
                        <use xlink:href="#rim" fill="#404040">
                                <set attributeName="fill" to="#808080" begin="zoomplus.mouseover" end="zoomplus.mouseout"/>
                        </use>
                        <path d="M-4,0h8M0,-4v8" fill="none" stroke="white" stroke-width="1.5" pointer-events="none"/>
                </g>
                <g id="zoomMin">
                        <use xlink:href="#rim" fill="#404040">
                                <set attributeName="fill" to="#808080" begin="zoomminus.mouseover" end="zoomminus.mouseout"/>
                        </use>
                        <path d="M-4,0h8" fill="none" stroke="white" stroke-width="1.5" pointer-events="none"/>
                </g>
                <g id="dirArrow">
                        <path fill="none" stroke="white" stroke-width="1.5" d="M0,-3.0v7 M-2.5,-0.5L0,-3.0L2.5,-0.5"/>
                </g>
               <g id="resetDef">
                       <use xlink:href="#rim2" fill="#404040">
                               <set attributeName="fill" to="#808080" begin="reset.mouseover" end="reset.mouseout"/>
                       </use>
               </g>
        </defs>

<script type="text/javascript">
var viewWidth = 1081;
var viewHeight = 375;
var sectionId = 'dynsection-0';
</script>
<script xlink:href="svgpan.js"/>
<svg id="graph" class="graph">
<g id="viewport">
<title>Components/Interfaces</title>
<g id="clust1" class="cluster">
<title>clusterdir_08f45fe6822aeb4ce2bc268e3b1361be</title>
<g id="a_clust1"><a xlink:href="dir_08f45fe6822aeb4ce2bc268e3b1361be.html" target="_top" xlink:title="Components">
<polygon fill="#ddddee" stroke="black" points="8,-272 8,-359 1065,-359 1065,-272 8,-272"/>
<text text-anchor="middle" x="536.5" y="-347" font-family="Helvetica,sans-Serif" font-size="10.00">Components</text>
</a>
</g>
</g>
<g id="clust2" class="cluster">
<title>clusterdir_e185953657720ba3a67126696ef566c7</title>
<g id="a_clust2"><a xlink:href="dir_e185953657720ba3a67126696ef566c7.html" target="_top">
<polygon fill="#eeeeff" stroke="black" points="16,-280 16,-332 1057,-332 1057,-280 16,-280"/>
</a>
</g>
</g>
<!-- dir_e185953657720ba3a67126696ef566c7 -->
<g id="node1" class="node">
<title>dir_e185953657720ba3a67126696ef566c7</title>
<text text-anchor="middle" x="1016" y="-303.5" font-family="Helvetica,sans-Serif" font-size="10.00">Interfaces</text>
</g>
<!-- dir_c69560da8b565b5ff7a6279980e642a0 -->
<g id="node2" class="node">
<title>dir_c69560da8b565b5ff7a6279980e642a0</title>
<g id="a_node2"><a xlink:href="dir_c69560da8b565b5ff7a6279980e642a0.html" target="_top" xlink:title="ActuatorBase">
<polygon fill="white" stroke="red" points="106,-324 24,-324 24,-288 106,-288 106,-324"/>
<text text-anchor="middle" x="65" y="-303.5" font-family="Helvetica,sans-Serif" font-size="10.00">ActuatorBase</text>
</a>
</g>
</g>
<!-- dir_a4226c5615a06a31e6344f5f3fd917e1 -->
<g id="node12" class="node">
<title>dir_a4226c5615a06a31e6344f5f3fd917e1</title>
<g id="a_node12"><a xlink:href="dir_a4226c5615a06a31e6344f5f3fd917e1.html" target="_top" xlink:title="Objects">
<polygon fill="none" stroke="red" points="526,-252 472,-252 472,-216 526,-216 526,-252"/>
<text text-anchor="middle" x="499" y="-231.5" font-family="Helvetica,sans-Serif" font-size="10.00">Objects</text>
</a>
</g>
</g>
<!-- dir_c69560da8b565b5ff7a6279980e642a0&#45;&gt;dir_a4226c5615a06a31e6344f5f3fd917e1 -->
<g id="edge38" class="edge">
<title>dir_c69560da8b565b5ff7a6279980e642a0&#45;&gt;dir_a4226c5615a06a31e6344f5f3fd917e1</title>
<path fill="none" stroke="black" d="M86.16,-287.73C94.64,-281.73 104.8,-275.6 115,-272 178.36,-249.61 378.33,-239.59 461.82,-236.3"/>
<polygon fill="black" stroke="black" points="462.01,-239.8 471.87,-235.92 461.74,-232.8 462.01,-239.8"/>
<g id="a_edge38&#45;headlabel"><a xlink:href="dir_000126_000019.html" target="_top" xlink:title="2">
<text text-anchor="middle" x="458.53" y="-240.27" font-family="Helvetica,sans-Serif" font-size="10.00">2</text>
</a>
</g>
</g>
<!-- dir_1a5504e72c2ab618c124e6472b08d26c -->
<g id="node13" class="node">
<title>dir_1a5504e72c2ab618c124e6472b08d26c</title>
<g id="a_node13"><a xlink:href="dir_1a5504e72c2ab618c124e6472b08d26c.html" target="_top" xlink:title="Global_Include">
<polygon fill="none" stroke="black" points="543.5,-36 454.5,-36 454.5,0 543.5,0 543.5,-36"/>
<text text-anchor="middle" x="499" y="-15.5" font-family="Helvetica,sans-Serif" font-size="10.00">Global_Include</text>
</a>
</g>
</g>
<!-- dir_c69560da8b565b5ff7a6279980e642a0&#45;&gt;dir_1a5504e72c2ab618c124e6472b08d26c -->
<g id="edge39" class="edge">
<title>dir_c69560da8b565b5ff7a6279980e642a0&#45;&gt;dir_1a5504e72c2ab618c124e6472b08d26c</title>
<path fill="none" stroke="black" d="M80.27,-287.73C118.82,-245.11 224.91,-133.91 335,-72 369.15,-52.79 411.28,-39.37 444.28,-30.84"/>
<polygon fill="black" stroke="black" points="445.37,-34.17 454.22,-28.34 443.66,-27.38 445.37,-34.17"/>
<g id="a_edge39&#45;headlabel"><a xlink:href="dir_000126_000125.html" target="_top" xlink:title="1">
<text text-anchor="middle" x="442.57" y="-35.3" font-family="Helvetica,sans-Serif" font-size="10.00">1</text>
</a>
</g>
</g>
<!-- dir_c1d39b38f705fdd6d8156436742b5519 -->
<g id="node3" class="node">
<title>dir_c1d39b38f705fdd6d8156436742b5519</title>
<g id="a_node3"><a xlink:href="dir_c1d39b38f705fdd6d8156436742b5519.html" target="_top" xlink:title="ADCBase">
<polygon fill="white" stroke="red" points="352,-324 290,-324 290,-288 352,-288 352,-324"/>
<text text-anchor="middle" x="321" y="-303.5" font-family="Helvetica,sans-Serif" font-size="10.00">ADCBase</text>
</a>
</g>
</g>
<!-- dir_c1d39b38f705fdd6d8156436742b5519&#45;&gt;dir_a4226c5615a06a31e6344f5f3fd917e1 -->
<g id="edge30" class="edge">
<title>dir_c1d39b38f705fdd6d8156436742b5519&#45;&gt;dir_a4226c5615a06a31e6344f5f3fd917e1</title>
<path fill="none" stroke="black" d="M330.08,-287.77C336.14,-282.06 344,-276.12 352,-272 386.67,-254.13 430.8,-244.26 461.79,-239.29"/>
<polygon fill="black" stroke="black" points="462.39,-242.74 471.76,-237.8 461.35,-235.82 462.39,-242.74"/>
<g id="a_edge30&#45;headlabel"><a xlink:href="dir_000128_000019.html" target="_top" xlink:title="2">
<text text-anchor="middle" x="459.26" y="-243.59" font-family="Helvetica,sans-Serif" font-size="10.00">2</text>
</a>
</g>
</g>
<!-- dir_c1d39b38f705fdd6d8156436742b5519&#45;&gt;dir_1a5504e72c2ab618c124e6472b08d26c -->
<g id="edge31" class="edge">
<title>dir_c1d39b38f705fdd6d8156436742b5519&#45;&gt;dir_1a5504e72c2ab618c124e6472b08d26c</title>
<path fill="none" stroke="black" d="M328.22,-287.95C345.51,-248.1 391.97,-146.56 447,-72 454.46,-61.89 463.78,-51.8 472.45,-43.18"/>
<polygon fill="black" stroke="black" points="475.1,-45.48 479.85,-36.01 470.23,-40.45 475.1,-45.48"/>
<g id="a_edge31&#45;headlabel"><a xlink:href="dir_000128_000125.html" target="_top" xlink:title="1">
<text text-anchor="middle" x="474.5" y="-47.52" font-family="Helvetica,sans-Serif" font-size="10.00">1</text>
</a>
</g>
</g>
<!-- dir_aa1683b16ed846e0217724d18ccf48ca -->
<g id="node4" class="node">
<title>dir_aa1683b16ed846e0217724d18ccf48ca</title>
<g id="a_node4"><a xlink:href="dir_aa1683b16ed846e0217724d18ccf48ca.html" target="_top" xlink:title="Camera">
<polygon fill="white" stroke="red" points="179.5,-324 124.5,-324 124.5,-288 179.5,-288 179.5,-324"/>
<text text-anchor="middle" x="152" y="-303.5" font-family="Helvetica,sans-Serif" font-size="10.00">Camera</text>
</a>
</g>
</g>
<!-- dir_aa1683b16ed846e0217724d18ccf48ca&#45;&gt;dir_a4226c5615a06a31e6344f5f3fd917e1 -->
<g id="edge32" class="edge">
<title>dir_aa1683b16ed846e0217724d18ccf48ca&#45;&gt;dir_a4226c5615a06a31e6344f5f3fd917e1</title>
<path fill="none" stroke="black" d="M167.01,-287.8C173.2,-281.82 180.84,-275.68 189,-272 236.82,-250.44 389.55,-240.33 461.21,-236.68"/>
<polygon fill="black" stroke="black" points="461.76,-240.16 471.58,-236.17 461.42,-233.17 461.76,-240.16"/>
<g id="a_edge32&#45;headlabel"><a xlink:href="dir_000130_000019.html" target="_top" xlink:title="1">
<text text-anchor="middle" x="458.31" y="-240.67" font-family="Helvetica,sans-Serif" font-size="10.00">1</text>
</a>
</g>
</g>
<!-- dir_aa1683b16ed846e0217724d18ccf48ca&#45;&gt;dir_1a5504e72c2ab618c124e6472b08d26c -->
<g id="edge33" class="edge">
<title>dir_aa1683b16ed846e0217724d18ccf48ca&#45;&gt;dir_1a5504e72c2ab618c124e6472b08d26c</title>
<path fill="none" stroke="black" d="M165.08,-287.97C197.74,-246.36 287.1,-138.13 382,-72 401.28,-58.57 424.5,-47.21 445.17,-38.5"/>
<polygon fill="black" stroke="black" points="446.53,-41.73 454.46,-34.69 443.88,-35.25 446.53,-41.73"/>
<g id="a_edge33&#45;headlabel"><a xlink:href="dir_000130_000125.html" target="_top" xlink:title="1">
<text text-anchor="middle" x="444.29" y="-43.22" font-family="Helvetica,sans-Serif" font-size="10.00">1</text>
</a>
</g>
</g>
<!-- dir_0510aa4683094b0d91d14cbbe60c1080 -->
<g id="node5" class="node">
<title>dir_0510aa4683094b0d91d14cbbe60c1080</title>
<g id="a_node5"><a xlink:href="dir_0510aa4683094b0d91d14cbbe60c1080.html" target="_top" xlink:title="ProtocolBase">
<polygon fill="white" stroke="red" points="730,-324 650,-324 650,-288 730,-288 730,-324"/>
<text text-anchor="middle" x="690" y="-303.5" font-family="Helvetica,sans-Serif" font-size="10.00">ProtocolBase</text>
</a>
</g>
</g>
<!-- dir_0510aa4683094b0d91d14cbbe60c1080&#45;&gt;dir_a4226c5615a06a31e6344f5f3fd917e1 -->
<g id="edge28" class="edge">
<title>dir_0510aa4683094b0d91d14cbbe60c1080&#45;&gt;dir_a4226c5615a06a31e6344f5f3fd917e1</title>
<path fill="none" stroke="black" d="M668,-287.87C659.87,-282.18 650.35,-276.22 641,-272 622.45,-263.63 571.77,-251.3 536.27,-243.21"/>
<polygon fill="black" stroke="black" points="536.77,-239.74 526.25,-240.95 535.23,-246.57 536.77,-239.74"/>
<g id="a_edge28&#45;headlabel"><a xlink:href="dir_000132_000019.html" target="_top" xlink:title="1">
<text text-anchor="middle" x="540.91" y="-235.26" font-family="Helvetica,sans-Serif" font-size="10.00">1</text>
</a>
</g>
</g>
<!-- dir_0510aa4683094b0d91d14cbbe60c1080&#45;&gt;dir_1a5504e72c2ab618c124e6472b08d26c -->
<g id="edge29" class="edge">
<title>dir_0510aa4683094b0d91d14cbbe60c1080&#45;&gt;dir_1a5504e72c2ab618c124e6472b08d26c</title>
<path fill="none" stroke="black" d="M678.62,-287.97C646.45,-239.8 554.67,-102.37 516.25,-44.83"/>
<polygon fill="black" stroke="black" points="519.02,-42.68 510.56,-36.31 513.2,-46.57 519.02,-42.68"/>
<g id="a_edge29&#45;headlabel"><a xlink:href="dir_000132_000125.html" target="_top" xlink:title="1">
<text text-anchor="middle" x="523.38" y="-41.59" font-family="Helvetica,sans-Serif" font-size="10.00">1</text>
</a>
</g>
</g>
<!-- dir_5a8ae08cfe847631433021fb4227a90d -->
<g id="node6" class="node">
<title>dir_5a8ae08cfe847631433021fb4227a90d</title>
<g id="a_node6"><a xlink:href="dir_5a8ae08cfe847631433021fb4227a90d.html" target="_top" xlink:title="PWMBase">
<polygon fill="white" stroke="red" points="435.5,-324 370.5,-324 370.5,-288 435.5,-288 435.5,-324"/>
<text text-anchor="middle" x="403" y="-303.5" font-family="Helvetica,sans-Serif" font-size="10.00">PWMBase</text>
</a>
</g>
</g>
<!-- dir_5a8ae08cfe847631433021fb4227a90d&#45;&gt;dir_a4226c5615a06a31e6344f5f3fd917e1 -->
<g id="edge10" class="edge">
<title>dir_5a8ae08cfe847631433021fb4227a90d&#45;&gt;dir_a4226c5615a06a31e6344f5f3fd917e1</title>
<path fill="none" stroke="black" d="M415.58,-287.94C421.76,-282.73 429.12,-277.05 436,-272 444.61,-265.68 454.17,-259.01 463.28,-253.11"/>
<polygon fill="black" stroke="black" points="465.23,-256.01 471.82,-247.71 461.49,-250.09 465.23,-256.01"/>
<g id="a_edge10&#45;headlabel"><a xlink:href="dir_000134_000019.html" target="_top" xlink:title="2">
<text text-anchor="middle" x="463.71" y="-257.83" font-family="Helvetica,sans-Serif" font-size="10.00">2</text>
</a>
</g>
</g>
<!-- dir_5a8ae08cfe847631433021fb4227a90d&#45;&gt;dir_1a5504e72c2ab618c124e6472b08d26c -->
<g id="edge11" class="edge">
<title>dir_5a8ae08cfe847631433021fb4227a90d&#45;&gt;dir_1a5504e72c2ab618c124e6472b08d26c</title>
<path fill="none" stroke="black" d="M405.7,-287.72C412.29,-248.22 431.14,-148.8 465,-72 469.12,-62.65 474.77,-53.05 480.28,-44.64"/>
<polygon fill="black" stroke="black" points="483.18,-46.61 485.9,-36.37 477.39,-42.68 483.18,-46.61"/>
<g id="a_edge11&#45;headlabel"><a xlink:href="dir_000134_000125.html" target="_top" xlink:title="1">
<text text-anchor="middle" x="483.51" y="-48.68" font-family="Helvetica,sans-Serif" font-size="10.00">1</text>
</a>
</g>
</g>
<!-- dir_bca44d80d5a74645927dcf464289c401 -->
<g id="node7" class="node">
<title>dir_bca44d80d5a74645927dcf464289c401</title>
<g id="a_node7"><a xlink:href="dir_bca44d80d5a74645927dcf464289c401.html" target="_top" xlink:title="QueryBase">
<polygon fill="white" stroke="red" points="524,-324 454,-324 454,-288 524,-288 524,-324"/>
<text text-anchor="middle" x="489" y="-303.5" font-family="Helvetica,sans-Serif" font-size="10.00">QueryBase</text>
</a>
</g>
</g>
<!-- dir_bca44d80d5a74645927dcf464289c401&#45;&gt;dir_a4226c5615a06a31e6344f5f3fd917e1 -->
<g id="edge34" class="edge">
<title>dir_bca44d80d5a74645927dcf464289c401&#45;&gt;dir_a4226c5615a06a31e6344f5f3fd917e1</title>
<path fill="none" stroke="black" d="M485.56,-287.7C485.86,-279.98 486.96,-270.71 488.53,-262.11"/>
<polygon fill="black" stroke="black" points="492,-262.61 490.66,-252.1 485.16,-261.16 492,-262.61"/>
<g id="a_edge34&#45;headlabel"><a xlink:href="dir_000136_000019.html" target="_top" xlink:title="3">
<text text-anchor="middle" x="494.03" y="-264.22" font-family="Helvetica,sans-Serif" font-size="10.00">3</text>
</a>
</g>
</g>
<!-- dir_bca44d80d5a74645927dcf464289c401&#45;&gt;dir_1a5504e72c2ab618c124e6472b08d26c -->
<g id="edge35" class="edge">
<title>dir_bca44d80d5a74645927dcf464289c401&#45;&gt;dir_1a5504e72c2ab618c124e6472b08d26c</title>
<path fill="none" stroke="black" d="M477.95,-287.61C472.26,-277.62 465.92,-264.58 463,-252 445.87,-178.17 472.35,-89.25 488.32,-45.69"/>
<polygon fill="black" stroke="black" points="491.67,-46.71 491.93,-36.12 485.12,-44.24 491.67,-46.71"/>
<g id="a_edge35&#45;headlabel"><a xlink:href="dir_000136_000125.html" target="_top" xlink:title="2">
<text text-anchor="middle" x="493.06" y="-48.58" font-family="Helvetica,sans-Serif" font-size="10.00">2</text>
</a>
</g>
</g>
<!-- dir_8a6552bad49b01a8d1c30ddd736dda96 -->
<g id="node8" class="node">
<title>dir_8a6552bad49b01a8d1c30ddd736dda96</title>
<g id="a_node8"><a xlink:href="dir_8a6552bad49b01a8d1c30ddd736dda96.html" target="_top" xlink:title="SensorBase">
<polygon fill="white" stroke="red" points="272,-324 198,-324 198,-288 272,-288 272,-324"/>
<text text-anchor="middle" x="235" y="-303.5" font-family="Helvetica,sans-Serif" font-size="10.00">SensorBase</text>
</a>
</g>
</g>
<!-- dir_8a6552bad49b01a8d1c30ddd736dda96&#45;&gt;dir_a4226c5615a06a31e6344f5f3fd917e1 -->
<g id="edge22" class="edge">
<title>dir_8a6552bad49b01a8d1c30ddd736dda96&#45;&gt;dir_a4226c5615a06a31e6344f5f3fd917e1</title>
<path fill="none" stroke="black" d="M254.87,-287.73C262.57,-281.88 271.75,-275.86 281,-272 341.02,-246.96 417.08,-238.86 461.66,-236.24"/>
<polygon fill="black" stroke="black" points="461.94,-239.73 471.75,-235.71 461.58,-232.74 461.94,-239.73"/>
<g id="a_edge22&#45;headlabel"><a xlink:href="dir_000138_000019.html" target="_top" xlink:title="2">
<text text-anchor="middle" x="458.5" y="-240.25" font-family="Helvetica,sans-Serif" font-size="10.00">2</text>
</a>
</g>
</g>
<!-- dir_8a6552bad49b01a8d1c30ddd736dda96&#45;&gt;dir_1a5504e72c2ab618c124e6472b08d26c -->
<g id="edge23" class="edge">
<title>dir_8a6552bad49b01a8d1c30ddd736dda96&#45;&gt;dir_1a5504e72c2ab618c124e6472b08d26c</title>
<path fill="none" stroke="black" d="M246.1,-287.75C272.83,-247.04 344.28,-143.04 421,-72 433.02,-60.87 447.57,-50.34 460.82,-41.64"/>
<polygon fill="black" stroke="black" points="462.77,-44.55 469.31,-36.21 459,-38.66 462.77,-44.55"/>
<g id="a_edge23&#45;headlabel"><a xlink:href="dir_000138_000125.html" target="_top" xlink:title="1">
<text text-anchor="middle" x="461.28" y="-46.38" font-family="Helvetica,sans-Serif" font-size="10.00">1</text>
</a>
</g>
</g>
<!-- dir_2ad1338e1cdce11c3a4014cab4fdb56f -->
<g id="node9" class="node">
<title>dir_2ad1338e1cdce11c3a4014cab4fdb56f</title>
<g id="a_node9"><a xlink:href="dir_2ad1338e1cdce11c3a4014cab4fdb56f.html" target="_top" xlink:title="SensorControllerBase">
<polygon fill="white" stroke="red" points="870,-324 748,-324 748,-288 870,-288 870,-324"/>
<text text-anchor="middle" x="809" y="-303.5" font-family="Helvetica,sans-Serif" font-size="10.00">SensorControllerBase</text>
</a>
</g>
</g>
<!-- dir_2ad1338e1cdce11c3a4014cab4fdb56f&#45;&gt;dir_a4226c5615a06a31e6344f5f3fd917e1 -->
<g id="edge14" class="edge">
<title>dir_2ad1338e1cdce11c3a4014cab4fdb56f&#45;&gt;dir_a4226c5615a06a31e6344f5f3fd917e1</title>
<path fill="none" stroke="black" d="M769.28,-287.89C756.88,-282.06 743.11,-276.01 730,-272 663.42,-251.64 582.87,-242.15 536.5,-237.98"/>
<polygon fill="black" stroke="black" points="536.57,-234.47 526.3,-237.1 535.96,-241.45 536.57,-234.47"/>
<g id="a_edge14&#45;headlabel"><a xlink:href="dir_000099_000019.html" target="_top" xlink:title="2">
<text text-anchor="middle" x="540.39" y="-229.45" font-family="Helvetica,sans-Serif" font-size="10.00">2</text>
</a>
</g>
</g>
<!-- dir_2ad1338e1cdce11c3a4014cab4fdb56f&#45;&gt;dir_1a5504e72c2ab618c124e6472b08d26c -->
<g id="edge15" class="edge">
<title>dir_2ad1338e1cdce11c3a4014cab4fdb56f&#45;&gt;dir_1a5504e72c2ab618c124e6472b08d26c</title>
<path fill="none" stroke="black" d="M810.41,-287.67C811.43,-269.54 811.75,-240.38 806,-216 788.16,-140.41 773.65,-111.88 707,-72 659.68,-43.69 597.57,-30.4 553.58,-24.22"/>
<polygon fill="black" stroke="black" points="554.02,-20.75 543.64,-22.91 553.09,-27.69 554.02,-20.75"/>
<g id="a_edge15&#45;headlabel"><a xlink:href="dir_000099_000125.html" target="_top" xlink:title="1">
<text text-anchor="middle" x="557.95" y="-15.91" font-family="Helvetica,sans-Serif" font-size="10.00">1</text>
</a>
</g>
</g>
<!-- dir_4d0b0adf7e9fb892c3df556e9cbb05d0 -->
<g id="node14" class="node">
<title>dir_4d0b0adf7e9fb892c3df556e9cbb05d0</title>
<g id="a_node14"><a xlink:href="dir_4d0b0adf7e9fb892c3df556e9cbb05d0.html" target="_top" xlink:title="Protocols">
<polygon fill="none" stroke="red" points="738,-180 676,-180 676,-144 738,-144 738,-180"/>
<text text-anchor="middle" x="707" y="-159.5" font-family="Helvetica,sans-Serif" font-size="10.00">Protocols</text>
</a>
</g>
</g>
<!-- dir_2ad1338e1cdce11c3a4014cab4fdb56f&#45;&gt;dir_4d0b0adf7e9fb892c3df556e9cbb05d0 -->
<g id="edge16" class="edge">
<title>dir_2ad1338e1cdce11c3a4014cab4fdb56f&#45;&gt;dir_4d0b0adf7e9fb892c3df556e9cbb05d0</title>
<path fill="none" stroke="black" d="M787.2,-287.94C775.76,-278.24 762.07,-265.39 752,-252 737.44,-232.65 725.36,-207.88 717.39,-189.38"/>
<polygon fill="black" stroke="black" points="720.59,-187.96 713.51,-180.09 714.14,-190.66 720.59,-187.96"/>
<g id="a_edge16&#45;headlabel"><a xlink:href="dir_000099_000064.html" target="_top" xlink:title="2">
<text text-anchor="middle" x="724.6" y="-187.68" font-family="Helvetica,sans-Serif" font-size="10.00">2</text>
</a>
</g>
</g>
<!-- dir_6a49a4a01df89ea000e629175e7db917 -->
<g id="node15" class="node">
<title>dir_6a49a4a01df89ea000e629175e7db917</title>
<g id="a_node15"><a xlink:href="dir_6a49a4a01df89ea000e629175e7db917.html" target="_top" xlink:title="RTOS">
<polygon fill="none" stroke="red" points="676,-108 622,-108 622,-72 676,-72 676,-108"/>
<text text-anchor="middle" x="649" y="-87.5" font-family="Helvetica,sans-Serif" font-size="10.00">RTOS</text>
</a>
</g>
</g>
<!-- dir_2ad1338e1cdce11c3a4014cab4fdb56f&#45;&gt;dir_6a49a4a01df89ea000e629175e7db917 -->
<g id="edge17" class="edge">
<title>dir_2ad1338e1cdce11c3a4014cab4fdb56f&#45;&gt;dir_6a49a4a01df89ea000e629175e7db917</title>
<path fill="none" stroke="black" d="M806.43,-287.94C800.86,-256.16 784.98,-187.19 747,-144 730.57,-125.32 705.91,-112.03 685.44,-103.43"/>
<polygon fill="black" stroke="black" points="686.66,-100.15 676.07,-99.69 684.07,-106.65 686.66,-100.15"/>
<g id="a_edge17&#45;headlabel"><a xlink:href="dir_000099_000071.html" target="_top" xlink:title="2">
<text text-anchor="middle" x="691.05" y="-96.34" font-family="Helvetica,sans-Serif" font-size="10.00">2</text>
</a>
</g>
</g>
<!-- dir_6f81379d7febf10590fd51a9eccd5409 -->
<g id="node10" class="node">
<title>dir_6f81379d7febf10590fd51a9eccd5409</title>
<g id="a_node10"><a xlink:href="dir_6f81379d7febf10590fd51a9eccd5409.html" target="_top" xlink:title="ServiceBase">
<polygon fill="white" stroke="red" points="965.5,-324 888.5,-324 888.5,-288 965.5,-288 965.5,-324"/>
<text text-anchor="middle" x="927" y="-303.5" font-family="Helvetica,sans-Serif" font-size="10.00">ServiceBase</text>
</a>
</g>
</g>
<!-- dir_6f81379d7febf10590fd51a9eccd5409&#45;&gt;dir_a4226c5615a06a31e6344f5f3fd917e1 -->
<g id="edge18" class="edge">
<title>dir_6f81379d7febf10590fd51a9eccd5409&#45;&gt;dir_a4226c5615a06a31e6344f5f3fd917e1</title>
<path fill="none" stroke="black" d="M898.38,-287.72C889.66,-281.73 879.88,-275.6 870,-272 808.91,-249.72 618.27,-239.86 536.58,-236.47"/>
<polygon fill="black" stroke="black" points="536.39,-232.96 526.26,-236.05 536.11,-239.95 536.39,-232.96"/>
<g id="a_edge18&#45;headlabel"><a xlink:href="dir_000101_000019.html" target="_top" xlink:title="4">
<text text-anchor="middle" x="540.1" y="-227.77" font-family="Helvetica,sans-Serif" font-size="10.00">4</text>
</a>
</g>
</g>
<!-- dir_6f81379d7febf10590fd51a9eccd5409&#45;&gt;dir_1a5504e72c2ab618c124e6472b08d26c -->
<g id="edge19" class="edge">
<title>dir_6f81379d7febf10590fd51a9eccd5409&#45;&gt;dir_1a5504e72c2ab618c124e6472b08d26c</title>
<path fill="none" stroke="black" d="M920.81,-287.7C913.71,-269.08 900.96,-239.03 885,-216 834.15,-142.64 823.08,-115.25 745,-72 684.99,-38.76 606.04,-26.36 553.96,-21.73"/>
<polygon fill="black" stroke="black" points="554.17,-18.24 543.92,-20.91 553.6,-25.22 554.17,-18.24"/>
<g id="a_edge19&#45;headlabel"><a xlink:href="dir_000101_000125.html" target="_top" xlink:title="2">
<text text-anchor="middle" x="557.99" y="-13.2" font-family="Helvetica,sans-Serif" font-size="10.00">2</text>
</a>
</g>
</g>
<!-- dir_6f81379d7febf10590fd51a9eccd5409&#45;&gt;dir_4d0b0adf7e9fb892c3df556e9cbb05d0 -->
<g id="edge20" class="edge">
<title>dir_6f81379d7febf10590fd51a9eccd5409&#45;&gt;dir_4d0b0adf7e9fb892c3df556e9cbb05d0</title>
<path fill="none" stroke="black" d="M902.21,-287.69C894.78,-282.58 886.6,-277.01 879,-272 832.69,-241.42 778.5,-207.36 743.51,-185.59"/>
<polygon fill="black" stroke="black" points="744.95,-182.36 734.61,-180.05 741.26,-188.3 744.95,-182.36"/>
<g id="a_edge20&#45;headlabel"><a xlink:href="dir_000101_000064.html" target="_top" xlink:title="2">
<text text-anchor="middle" x="749.5" y="-179.35" font-family="Helvetica,sans-Serif" font-size="10.00">2</text>
</a>
</g>
</g>
<!-- dir_6f81379d7febf10590fd51a9eccd5409&#45;&gt;dir_6a49a4a01df89ea000e629175e7db917 -->
<g id="edge21" class="edge">
<title>dir_6f81379d7febf10590fd51a9eccd5409&#45;&gt;dir_6a49a4a01df89ea000e629175e7db917</title>
<path fill="none" stroke="black" d="M914.38,-287.77C890.15,-255.71 834.05,-186.29 773,-144 746.15,-125.41 711.75,-111.34 686,-102.39"/>
<polygon fill="black" stroke="black" points="686.83,-98.97 676.23,-99.09 684.59,-105.61 686.83,-98.97"/>
<g id="a_edge21&#45;headlabel"><a xlink:href="dir_000101_000071.html" target="_top" xlink:title="2">
<text text-anchor="middle" x="691.14" y="-94.93" font-family="Helvetica,sans-Serif" font-size="10.00">2</text>
</a>
</g>
</g>
<!-- dir_9bdaf0e87e9ccaae1a86e0f6da9d7d83 -->
<g id="node11" class="node">
<title>dir_9bdaf0e87e9ccaae1a86e0f6da9d7d83</title>
<g id="a_node11"><a xlink:href="dir_9bdaf0e87e9ccaae1a86e0f6da9d7d83.html" target="_top" xlink:title="WatchdogBase">
<polygon fill="white" stroke="red" points="631.5,-324 542.5,-324 542.5,-288 631.5,-288 631.5,-324"/>
<text text-anchor="middle" x="587" y="-303.5" font-family="Helvetica,sans-Serif" font-size="10.00">WatchdogBase</text>
</a>
</g>
</g>
<!-- dir_9bdaf0e87e9ccaae1a86e0f6da9d7d83&#45;&gt;dir_a4226c5615a06a31e6344f5f3fd917e1 -->
<g id="edge12" class="edge">
<title>dir_9bdaf0e87e9ccaae1a86e0f6da9d7d83&#45;&gt;dir_a4226c5615a06a31e6344f5f3fd917e1</title>
<path fill="none" stroke="black" d="M559.33,-287.7C547.45,-278.97 533.8,-268.24 522.43,-258.75"/>
<polygon fill="black" stroke="black" points="524.49,-255.91 514.61,-252.1 519.96,-261.25 524.49,-255.91"/>
<g id="a_edge12&#45;headlabel"><a xlink:href="dir_000146_000019.html" target="_top" xlink:title="1">
<text text-anchor="middle" x="529.07" y="-253.58" font-family="Helvetica,sans-Serif" font-size="10.00">1</text>
</a>
</g>
</g>
<!-- dir_9bdaf0e87e9ccaae1a86e0f6da9d7d83&#45;&gt;dir_1a5504e72c2ab618c124e6472b08d26c -->
<g id="edge13" class="edge">
<title>dir_9bdaf0e87e9ccaae1a86e0f6da9d7d83&#45;&gt;dir_1a5504e72c2ab618c124e6472b08d26c</title>
<path fill="none" stroke="black" d="M581.76,-287.97C567.03,-240.09 525.17,-104.06 507.28,-45.9"/>
<polygon fill="black" stroke="black" points="510.61,-44.83 504.33,-36.31 503.92,-46.89 510.61,-44.83"/>
<g id="a_edge13&#45;headlabel"><a xlink:href="dir_000146_000125.html" target="_top" xlink:title="1">
<text text-anchor="middle" x="514.38" y="-44.94" font-family="Helvetica,sans-Serif" font-size="10.00">1</text>
</a>
</g>
</g>
<!-- dir_a4226c5615a06a31e6344f5f3fd917e1&#45;&gt;dir_c1d39b38f705fdd6d8156436742b5519 -->
<g id="edge7" class="edge">
<title>dir_a4226c5615a06a31e6344f5f3fd917e1&#45;&gt;dir_c1d39b38f705fdd6d8156436742b5519</title>
<path fill="none" stroke="black" d="M471.81,-240.01C444.77,-245.18 403.07,-254.95 370,-272 364.87,-274.64 359.81,-278.03 354.95,-281.62"/>
<polygon fill="black" stroke="black" points="352.78,-278.88 347.01,-287.77 357.06,-284.42 352.78,-278.88"/>
<g id="a_edge7&#45;headlabel"><a xlink:href="dir_000019_000128.html" target="_top" xlink:title="1">
<text text-anchor="middle" x="353.88" y="-271.94" font-family="Helvetica,sans-Serif" font-size="10.00">1</text>
</a>
</g>
</g>
<!-- dir_a4226c5615a06a31e6344f5f3fd917e1&#45;&gt;dir_5a8ae08cfe847631433021fb4227a90d -->
<g id="edge1" class="edge">
<title>dir_a4226c5615a06a31e6344f5f3fd917e1&#45;&gt;dir_5a8ae08cfe847631433021fb4227a90d</title>
<path fill="none" stroke="black" d="M481.69,-252.17C473.2,-258.3 463.07,-265.34 454,-272 449.7,-275.16 445.22,-278.56 440.74,-281.94"/>
<polygon fill="black" stroke="black" points="438.64,-279.14 432.74,-287.94 442.84,-284.74 438.64,-279.14"/>
<g id="a_edge1&#45;headlabel"><a xlink:href="dir_000019_000134.html" target="_top" xlink:title="1">
<text text-anchor="middle" x="439.81" y="-272.21" font-family="Helvetica,sans-Serif" font-size="10.00">1</text>
</a>
</g>
</g>
<!-- dir_a4226c5615a06a31e6344f5f3fd917e1&#45;&gt;dir_bca44d80d5a74645927dcf464289c401 -->
<g id="edge8" class="edge">
<title>dir_a4226c5615a06a31e6344f5f3fd917e1&#45;&gt;dir_bca44d80d5a74645927dcf464289c401</title>
<path fill="none" stroke="black" d="M502.45,-252.1C502.16,-259.79 501.07,-269.05 499.51,-277.67"/>
<polygon fill="black" stroke="black" points="496.03,-277.19 497.39,-287.7 502.88,-278.64 496.03,-277.19"/>
<g id="a_edge8&#45;headlabel"><a xlink:href="dir_000019_000136.html" target="_top" xlink:title="3">
<text text-anchor="middle" x="494" y="-270.58" font-family="Helvetica,sans-Serif" font-size="10.00">3</text>
</a>
</g>
</g>
<!-- dir_a4226c5615a06a31e6344f5f3fd917e1&#45;&gt;dir_2ad1338e1cdce11c3a4014cab4fdb56f -->
<g id="edge3" class="edge">
<title>dir_a4226c5615a06a31e6344f5f3fd917e1&#45;&gt;dir_2ad1338e1cdce11c3a4014cab4fdb56f</title>
<path fill="none" stroke="black" d="M526.09,-236.27C572.79,-239.21 669.99,-248.15 748,-272 757.73,-274.97 767.82,-279.08 776.98,-283.38"/>
<polygon fill="black" stroke="black" points="775.62,-286.61 786.14,-287.89 778.72,-280.33 775.62,-286.61"/>
<g id="a_edge3&#45;headlabel"><a xlink:href="dir_000019_000099.html" target="_top" xlink:title="1">
<text text-anchor="middle" x="771.14" y="-285.06" font-family="Helvetica,sans-Serif" font-size="10.00">1</text>
</a>
</g>
</g>
<!-- dir_a4226c5615a06a31e6344f5f3fd917e1&#45;&gt;dir_6f81379d7febf10590fd51a9eccd5409 -->
<g id="edge4" class="edge">
<title>dir_a4226c5615a06a31e6344f5f3fd917e1&#45;&gt;dir_6f81379d7febf10590fd51a9eccd5409</title>
<path fill="none" stroke="black" d="M526.04,-235.74C603.17,-238.28 821.76,-247.84 888,-272 894.48,-274.36 900.92,-277.81 906.71,-281.6"/>
<polygon fill="black" stroke="black" points="905.02,-284.7 915.18,-287.72 909.12,-279.03 905.02,-284.7"/>
<g id="a_edge4&#45;headlabel"><a xlink:href="dir_000019_000101.html" target="_top" xlink:title="1">
<text text-anchor="middle" x="900.45" y="-282.4" font-family="Helvetica,sans-Serif" font-size="10.00">1</text>
</a>
</g>
</g>
<!-- dir_a4226c5615a06a31e6344f5f3fd917e1&#45;&gt;dir_9bdaf0e87e9ccaae1a86e0f6da9d7d83 -->
<g id="edge2" class="edge">
<title>dir_a4226c5615a06a31e6344f5f3fd917e1&#45;&gt;dir_9bdaf0e87e9ccaae1a86e0f6da9d7d83</title>
<path fill="none" stroke="black" d="M526.07,-251.86C537.97,-260.59 551.75,-271.4 563.25,-280.98"/>
<polygon fill="black" stroke="black" points="561.27,-283.89 571.16,-287.7 565.8,-278.56 561.27,-283.89"/>
<g id="a_edge2&#45;headlabel"><a xlink:href="dir_000019_000146.html" target="_top" xlink:title="1">
<text text-anchor="middle" x="556.7" y="-281.23" font-family="Helvetica,sans-Serif" font-size="10.00">1</text>
</a>
</g>
</g>
<!-- dir_a4226c5615a06a31e6344f5f3fd917e1&#45;&gt;dir_1a5504e72c2ab618c124e6472b08d26c -->
<g id="edge5" class="edge">
<title>dir_a4226c5615a06a31e6344f5f3fd917e1&#45;&gt;dir_1a5504e72c2ab618c124e6472b08d26c</title>
<path fill="none" stroke="black" d="M499,-215.85C499,-178.83 499,-91.18 499,-46.39"/>
<polygon fill="black" stroke="black" points="502.5,-46.23 499,-36.23 495.5,-46.23 502.5,-46.23"/>
<g id="a_edge5&#45;headlabel"><a xlink:href="dir_000019_000125.html" target="_top" xlink:title="26">
<text text-anchor="middle" x="505.34" y="-47.33" font-family="Helvetica,sans-Serif" font-size="10.00">26</text>
</a>
</g>
</g>
<!-- dir_a4226c5615a06a31e6344f5f3fd917e1&#45;&gt;dir_4d0b0adf7e9fb892c3df556e9cbb05d0 -->
<g id="edge6" class="edge">
<title>dir_a4226c5615a06a31e6344f5f3fd917e1&#45;&gt;dir_4d0b0adf7e9fb892c3df556e9cbb05d0</title>
<path fill="none" stroke="black" d="M526.28,-222.4C557.27,-212.01 608.78,-195.53 653,-180 657.19,-178.53 661.58,-176.93 665.99,-175.33"/>
<polygon fill="black" stroke="black" points="667.39,-178.55 675.6,-171.86 665.01,-171.97 667.39,-178.55"/>
<g id="a_edge6&#45;headlabel"><a xlink:href="dir_000019_000064.html" target="_top" xlink:title="3">
<text text-anchor="middle" x="664.97" y="-179.94" font-family="Helvetica,sans-Serif" font-size="10.00">3</text>
</a>
</g>
</g>
<!-- dir_a4226c5615a06a31e6344f5f3fd917e1&#45;&gt;dir_6a49a4a01df89ea000e629175e7db917 -->
<g id="edge9" class="edge">
<title>dir_a4226c5615a06a31e6344f5f3fd917e1&#45;&gt;dir_6a49a4a01df89ea000e629175e7db917</title>
<path fill="none" stroke="black" d="M512.51,-215.87C536.43,-190.71 585.93,-143.65 618.39,-115.04"/>
<polygon fill="black" stroke="black" points="621.01,-117.4 626.25,-108.19 616.41,-112.12 621.01,-117.4"/>
<g id="a_edge9&#45;headlabel"><a xlink:href="dir_000019_000071.html" target="_top" xlink:title="4">
<text text-anchor="middle" x="620.17" y="-119.4" font-family="Helvetica,sans-Serif" font-size="10.00">4</text>
</a>
</g>
</g>
<!-- dir_4d0b0adf7e9fb892c3df556e9cbb05d0&#45;&gt;dir_0510aa4683094b0d91d14cbbe60c1080 -->
<g id="edge26" class="edge">
<title>dir_4d0b0adf7e9fb892c3df556e9cbb05d0&#45;&gt;dir_0510aa4683094b0d91d14cbbe60c1080</title>
<path fill="none" stroke="black" d="M704.94,-180.19C702.04,-204.42 696.72,-248.89 693.27,-277.68"/>
<polygon fill="black" stroke="black" points="689.76,-277.53 692.05,-287.87 696.71,-278.36 689.76,-277.53"/>
<g id="a_edge26&#45;headlabel"><a xlink:href="dir_000064_000132.html" target="_top" xlink:title="3">
<text text-anchor="middle" x="687.37" y="-271.12" font-family="Helvetica,sans-Serif" font-size="10.00">3</text>
</a>
</g>
</g>
<!-- dir_4d0b0adf7e9fb892c3df556e9cbb05d0&#45;&gt;dir_a4226c5615a06a31e6344f5f3fd917e1 -->
<g id="edge24" class="edge">
<title>dir_4d0b0adf7e9fb892c3df556e9cbb05d0&#45;&gt;dir_a4226c5615a06a31e6344f5f3fd917e1</title>
<path fill="none" stroke="black" d="M675.79,-178.29C674.18,-178.88 672.58,-179.45 671,-180 625,-196.16 571.12,-213.34 535.93,-223.62"/>
<polygon fill="black" stroke="black" points="534.72,-220.32 526.08,-226.45 536.66,-227.05 534.72,-220.32"/>
<g id="a_edge24&#45;headlabel"><a xlink:href="dir_000064_000019.html" target="_top" xlink:title="14">
<text text-anchor="middle" x="537.39" y="-214.1" font-family="Helvetica,sans-Serif" font-size="10.00">14</text>
</a>
</g>
</g>
<!-- dir_4d0b0adf7e9fb892c3df556e9cbb05d0&#45;&gt;dir_1a5504e72c2ab618c124e6472b08d26c -->
<g id="edge25" class="edge">
<title>dir_4d0b0adf7e9fb892c3df556e9cbb05d0&#45;&gt;dir_1a5504e72c2ab618c124e6472b08d26c</title>
<path fill="none" stroke="black" d="M707.58,-143.85C707.29,-123.94 703.68,-91.35 685,-72 650.96,-36.74 595.27,-24.46 553.68,-20.41"/>
<polygon fill="black" stroke="black" points="553.96,-16.93 543.7,-19.57 553.38,-23.9 553.96,-16.93"/>
<g id="a_edge25&#45;headlabel"><a xlink:href="dir_000064_000125.html" target="_top" xlink:title="11">
<text text-anchor="middle" x="557.78" y="-11.9" font-family="Helvetica,sans-Serif" font-size="10.00">11</text>
</a>
</g>
</g>
<!-- dir_4d0b0adf7e9fb892c3df556e9cbb05d0&#45;&gt;dir_6a49a4a01df89ea000e629175e7db917 -->
<g id="edge27" class="edge">
<title>dir_4d0b0adf7e9fb892c3df556e9cbb05d0&#45;&gt;dir_6a49a4a01df89ea000e629175e7db917</title>
<path fill="none" stroke="black" d="M692.66,-143.7C685.71,-135.3 677.23,-125.07 669.6,-115.86"/>
<polygon fill="black" stroke="black" points="672.25,-113.57 663.17,-108.1 666.86,-118.04 672.25,-113.57"/>
<g id="a_edge27&#45;headlabel"><a xlink:href="dir_000064_000071.html" target="_top" xlink:title="3">
<text text-anchor="middle" x="676.73" y="-112.03" font-family="Helvetica,sans-Serif" font-size="10.00">3</text>
</a>
</g>
</g>
<!-- dir_6a49a4a01df89ea000e629175e7db917&#45;&gt;dir_a4226c5615a06a31e6344f5f3fd917e1 -->
<g id="edge36" class="edge">
<title>dir_6a49a4a01df89ea000e629175e7db917&#45;&gt;dir_a4226c5615a06a31e6344f5f3fd917e1</title>
<path fill="none" stroke="black" d="M635.43,-108.19C611.47,-133.39 561.97,-180.45 529.53,-209.03"/>
<polygon fill="black" stroke="black" points="526.92,-206.66 521.68,-215.87 531.52,-211.94 526.92,-206.66"/>
<g id="a_edge36&#45;headlabel"><a xlink:href="dir_000071_000019.html" target="_top" xlink:title="2">
<text text-anchor="middle" x="527.76" y="-199.66" font-family="Helvetica,sans-Serif" font-size="10.00">2</text>
</a>
</g>
</g>
<!-- dir_6a49a4a01df89ea000e629175e7db917&#45;&gt;dir_1a5504e72c2ab618c124e6472b08d26c -->
<g id="edge37" class="edge">
<title>dir_6a49a4a01df89ea000e629175e7db917&#45;&gt;dir_1a5504e72c2ab618c124e6472b08d26c</title>
<path fill="none" stroke="black" d="M621.84,-76.32C600.43,-66.33 570.09,-52.17 544.92,-40.43"/>
<polygon fill="black" stroke="black" points="546.1,-37.12 535.56,-36.06 543.14,-43.46 546.1,-37.12"/>
<g id="a_edge37&#45;headlabel"><a xlink:href="dir_000071_000125.html" target="_top" xlink:title="2">
<text text-anchor="middle" x="550.56" y="-33.56" font-family="Helvetica,sans-Serif" font-size="10.00">2</text>
</a>
</g>
</g>
</g>
</svg>
        <g id="navigator" transform="translate(0 0)" fill="#404254">
                <rect fill="#f2f5e9" fill-opacity="0.5" stroke="#606060" stroke-width=".5" x="0" y="0" width="60" height="60"/>
                <use id="zoomplus" xlink:href="#zoomPlus" x="17" y="9" onmousedown="handleZoom(evt,'in')"/>
                <use id="zoomminus" xlink:href="#zoomMin" x="42" y="9" onmousedown="handleZoom(evt,'out')"/>
                <use id="reset" xlink:href="#resetDef" x="30" y="36" onmousedown="handleReset()"/>
                <g id="arrowUp" xlink:href="#dirArrow" transform="translate(30 24)" onmousedown="handlePan(0,-1)">
                  <use xlink:href="#rim" fill="#404040">
                        <set attributeName="fill" to="#808080" begin="arrowUp.mouseover" end="arrowUp.mouseout"/>
                  </use>
                  <path fill="none" stroke="white" stroke-width="1.5" d="M0,-3.0v7 M-2.5,-0.5L0,-3.0L2.5,-0.5"/>
                </g>
                <g id="arrowRight" xlink:href="#dirArrow" transform="rotate(90) translate(36 -43)" onmousedown="handlePan(1,0)">
                  <use xlink:href="#rim" fill="#404040">
                        <set attributeName="fill" to="#808080" begin="arrowRight.mouseover" end="arrowRight.mouseout"/>
                  </use>
                  <path fill="none" stroke="white" stroke-width="1.5" d="M0,-3.0v7 M-2.5,-0.5L0,-3.0L2.5,-0.5"/>
                </g>
                <g id="arrowDown" xlink:href="#dirArrow" transform="rotate(180) translate(-30 -48)" onmousedown="handlePan(0,1)">
                  <use xlink:href="#rim" fill="#404040">
                        <set attributeName="fill" to="#808080" begin="arrowDown.mouseover" end="arrowDown.mouseout"/>
                  </use>
                  <path fill="none" stroke="white" stroke-width="1.5" d="M0,-3.0v7 M-2.5,-0.5L0,-3.0L2.5,-0.5"/>
                </g>
                <g id="arrowLeft" xlink:href="#dirArrow" transform="rotate(270) translate(-36 17)" onmousedown="handlePan(-1,0)">
                  <use xlink:href="#rim" fill="#404040">
                        <set attributeName="fill" to="#808080" begin="arrowLeft.mouseover" end="arrowLeft.mouseout"/>
                  </use>
                  <path fill="none" stroke="white" stroke-width="1.5" d="M0,-3.0v7 M-2.5,-0.5L0,-3.0L2.5,-0.5"/>
                </g>
        </g>
        <svg viewBox="0 0 15 15" width="100%" height="30px" preserveAspectRatio="xMaxYMin meet">
         <g id="arrow_out" transform="scale(0.3 0.3)">
          <a xlink:href="dir_e185953657720ba3a67126696ef566c7_dep_org.svg" target="_base">
           <rect id="button" ry="5" rx="5" y="6" x="6" height="38" width="38"
                fill="#f2f5e9" fill-opacity="0.5" stroke="#606060" stroke-width="1.0"/>
           <path id="arrow"
             d="M 11.500037,31.436501 C 11.940474,20.09759 22.043105,11.32322 32.158766,21.979434 L 37.068811,17.246167 C 37.068811,17.246167 37.088388,32 37.088388,32 L 22.160133,31.978069 C 22.160133,31.978069 26.997745,27.140456 26.997745,27.140456 C 18.528582,18.264221 13.291696,25.230495 11.500037,31.436501 z"
             style="fill:#404040;"/>
          </a>
         </g>
        </svg>
</svg>
