<?xml version="1.0" encoding="UTF-8" standalone="no"?>
<!DOCTYPE svg PUBLIC "-//W3C//DTD SVG 1.1//EN"
 "http://www.w3.org/Graphics/SVG/1.1/DTD/svg11.dtd">
<!-- Generated by graphviz version 2.43.0 (0)
 -->
<!-- Title: Components/Objects/Timeservice Pages: 1 -->
<svg width="402pt" height="231pt"
 viewBox="0.00 0.00 402.00 231.00" xmlns="http://www.w3.org/2000/svg" xmlns:xlink="http://www.w3.org/1999/xlink">
<g id="graph0" class="graph" transform="scale(1 1) rotate(0) translate(4 227)">
<title>Components/Objects/Timeservice</title>
<g id="clust1" class="cluster">
<title>clusterdir_a4226c5615a06a31e6344f5f3fd917e1</title>
<g id="a_clust1"><a xlink:href="dir_a4226c5615a06a31e6344f5f3fd917e1.html" target="_top" xlink:title="Objects">
<polygon fill="#ddddee" stroke="black" points="8,-56 8,-215 332,-215 332,-56 8,-56"/>
<text text-anchor="middle" x="170" y="-203" font-family="Helvetica,sans-Serif" font-size="10.00">Objects</text>
</a>
</g>
</g>
<g id="clust2" class="cluster">
<title>clusterdir_82ae37b9d9d4852b543931d9ede35f57</title>
<g id="a_clust2"><a xlink:href="dir_82ae37b9d9d4852b543931d9ede35f57.html" target="_top">
<polygon fill="#eeeeff" stroke="black" points="16,-64 16,-188 324,-188 324,-64 16,-64"/>
</a>
</g>
</g>
<!-- dir_82ae37b9d9d4852b543931d9ede35f57 -->
<g id="node1" class="node">
<title>dir_82ae37b9d9d4852b543931d9ede35f57</title>
<text text-anchor="middle" x="278" y="-159.5" font-family="Helvetica,sans-Serif" font-size="10.00">Timeservice</text>
</g>
<!-- dir_9fe2c82a321e56c96b1dd2b87dfa4011 -->
<g id="node2" class="node">
<title>dir_9fe2c82a321e56c96b1dd2b87dfa4011</title>
<g id="a_node2"><a xlink:href="dir_9fe2c82a321e56c96b1dd2b87dfa4011.html" target="_top" xlink:title="include">
<polygon fill="white" stroke="black" points="222,-108 168,-108 168,-72 222,-72 222,-108"/>
<text text-anchor="middle" x="195" y="-87.5" font-family="Helvetica,sans-Serif" font-size="10.00">include</text>
</a>
</g>
</g>
<!-- dir_4816d2fb8abcfd1fbfb7e56b67e0baa1 -->
<g id="node7" class="node">
<title>dir_4816d2fb8abcfd1fbfb7e56b67e0baa1</title>
<g id="a_node7"><a xlink:href="dir_4816d2fb8abcfd1fbfb7e56b67e0baa1.html" target="_top" xlink:title="ErrorHandler">
<polygon fill="none" stroke="red" points="269,-36 191,-36 191,0 269,0 269,-36"/>
<text text-anchor="middle" x="230" y="-15.5" font-family="Helvetica,sans-Serif" font-size="10.00">ErrorHandler</text>
</a>
</g>
</g>
<!-- dir_9fe2c82a321e56c96b1dd2b87dfa4011&#45;&gt;dir_4816d2fb8abcfd1fbfb7e56b67e0baa1 -->
<g id="edge3" class="edge">
<title>dir_9fe2c82a321e56c96b1dd2b87dfa4011&#45;&gt;dir_4816d2fb8abcfd1fbfb7e56b67e0baa1</title>
<path fill="none" stroke="black" d="M203.65,-71.7C207.64,-63.73 212.45,-54.1 216.87,-45.26"/>
<polygon fill="black" stroke="black" points="220.11,-46.61 221.45,-36.1 213.85,-43.48 220.11,-46.61"/>
<g id="a_edge3&#45;headlabel"><a xlink:href="dir_000139_000019.html" target="_top" xlink:title="2">
<text text-anchor="middle" x="221.04" y="-48.6" font-family="Helvetica,sans-Serif" font-size="10.00">2</text>
</a>
</g>
</g>
<!-- dir_1a5504e72c2ab618c124e6472b08d26c -->
<g id="node8" class="node">
<title>dir_1a5504e72c2ab618c124e6472b08d26c</title>
<g id="a_node8"><a xlink:href="dir_1a5504e72c2ab618c124e6472b08d26c.html" target="_top" xlink:title="Global_Include">
<polygon fill="none" stroke="black" points="393.5,-36 304.5,-36 304.5,0 393.5,0 393.5,-36"/>
<text text-anchor="middle" x="349" y="-15.5" font-family="Helvetica,sans-Serif" font-size="10.00">Global_Include</text>
</a>
</g>
</g>
<!-- dir_9fe2c82a321e56c96b1dd2b87dfa4011&#45;&gt;dir_1a5504e72c2ab618c124e6472b08d26c -->
<g id="edge4" class="edge">
<title>dir_9fe2c82a321e56c96b1dd2b87dfa4011&#45;&gt;dir_1a5504e72c2ab618c124e6472b08d26c</title>
<path fill="none" stroke="black" d="M222.18,-76.65C244.25,-66.61 275.89,-52.23 302.05,-40.34"/>
<polygon fill="black" stroke="black" points="303.75,-43.41 311.41,-36.09 300.86,-37.04 303.75,-43.41"/>
<g id="a_edge4&#45;headlabel"><a xlink:href="dir_000139_000095.html" target="_top" xlink:title="2">
<text text-anchor="middle" x="301.66" y="-44.98" font-family="Helvetica,sans-Serif" font-size="10.00">2</text>
</a>
</g>
</g>
<!-- dir_303057c21ad73e05f65e4b9f429c6f89 -->
<g id="node3" class="node">
<title>dir_303057c21ad73e05f65e4b9f429c6f89</title>
<g id="a_node3"><a xlink:href="dir_303057c21ad73e05f65e4b9f429c6f89.html" target="_top" xlink:title="src">
<polygon fill="white" stroke="black" points="150,-180 96,-180 96,-144 150,-144 150,-180"/>
<text text-anchor="middle" x="123" y="-159.5" font-family="Helvetica,sans-Serif" font-size="10.00">src</text>
</a>
</g>
</g>
<!-- dir_303057c21ad73e05f65e4b9f429c6f89&#45;&gt;dir_9fe2c82a321e56c96b1dd2b87dfa4011 -->
<g id="edge8" class="edge">
<title>dir_303057c21ad73e05f65e4b9f429c6f89&#45;&gt;dir_9fe2c82a321e56c96b1dd2b87dfa4011</title>
<path fill="none" stroke="black" d="M140.8,-143.7C149.6,-135.14 160.38,-124.66 170,-115.3"/>
<polygon fill="black" stroke="black" points="172.68,-117.58 177.41,-108.1 167.8,-112.57 172.68,-117.58"/>
<g id="a_edge8&#45;headlabel"><a xlink:href="dir_000140_000139.html" target="_top" xlink:title="2">
<text text-anchor="middle" x="172.08" y="-119.63" font-family="Helvetica,sans-Serif" font-size="10.00">2</text>
</a>
</g>
</g>
<!-- dir_38f1823a3c1e0c1cf1e4da5a8adbfbc2 -->
<g id="node4" class="node">
<title>dir_38f1823a3c1e0c1cf1e4da5a8adbfbc2</title>
<g id="a_node4"><a xlink:href="dir_38f1823a3c1e0c1cf1e4da5a8adbfbc2.html" target="_top" xlink:title="test">
<polygon fill="white" stroke="red" points="222,-180 168,-180 168,-144 222,-144 222,-180"/>
<text text-anchor="middle" x="195" y="-159.5" font-family="Helvetica,sans-Serif" font-size="10.00">test</text>
</a>
</g>
</g>
<!-- dir_38f1823a3c1e0c1cf1e4da5a8adbfbc2&#45;&gt;dir_9fe2c82a321e56c96b1dd2b87dfa4011 -->
<g id="edge6" class="edge">
<title>dir_38f1823a3c1e0c1cf1e4da5a8adbfbc2&#45;&gt;dir_9fe2c82a321e56c96b1dd2b87dfa4011</title>
<path fill="none" stroke="black" d="M195,-143.7C195,-135.98 195,-126.71 195,-118.11"/>
<polygon fill="black" stroke="black" points="198.5,-118.1 195,-108.1 191.5,-118.1 198.5,-118.1"/>
<g id="a_edge6&#45;headlabel"><a xlink:href="dir_000053_000139.html" target="_top" xlink:title="2">
<text text-anchor="middle" x="201.34" y="-119.2" font-family="Helvetica,sans-Serif" font-size="10.00">2</text>
</a>
</g>
</g>
<!-- dir_c2cd4762e89f989d55fa2b0634ddfc81 -->
<g id="node6" class="node">
<title>dir_c2cd4762e89f989d55fa2b0634ddfc81</title>
<g id="a_node6"><a xlink:href="dir_c2cd4762e89f989d55fa2b0634ddfc81.html" target="_top" xlink:title="Utility">
<polygon fill="none" stroke="red" points="394,-108 340,-108 340,-72 394,-72 394,-108"/>
<text text-anchor="middle" x="367" y="-87.5" font-family="Helvetica,sans-Serif" font-size="10.00">Utility</text>
</a>
</g>
</g>
<!-- dir_38f1823a3c1e0c1cf1e4da5a8adbfbc2&#45;&gt;dir_c2cd4762e89f989d55fa2b0634ddfc81 -->
<g id="edge7" class="edge">
<title>dir_38f1823a3c1e0c1cf1e4da5a8adbfbc2&#45;&gt;dir_c2cd4762e89f989d55fa2b0634ddfc81</title>
<path fill="none" stroke="black" d="M222.01,-147.94C225.03,-146.57 228.07,-145.23 231,-144 273.39,-126.17 285.35,-125.19 328,-108 328.84,-107.66 329.69,-107.32 330.54,-106.97"/>
<polygon fill="black" stroke="black" points="331.94,-110.18 339.81,-103.08 329.23,-103.72 331.94,-110.18"/>
<g id="a_edge7&#45;headlabel"><a xlink:href="dir_000053_000085.html" target="_top" xlink:title="2">
<text text-anchor="middle" x="329.72" y="-111.69" font-family="Helvetica,sans-Serif" font-size="10.00">2</text>
</a>
</g>
</g>
<!-- dir_941830e8faa9dddffcbc1cfc411e2e9c -->
<g id="node5" class="node">
<title>dir_941830e8faa9dddffcbc1cfc411e2e9c</title>
<g id="a_node5"><a xlink:href="dir_941830e8faa9dddffcbc1cfc411e2e9c.html" target="_top" xlink:title="utest">
<polygon fill="white" stroke="red" points="78,-180 24,-180 24,-144 78,-144 78,-180"/>
<text text-anchor="middle" x="51" y="-159.5" font-family="Helvetica,sans-Serif" font-size="10.00">utest</text>
</a>
</g>
</g>
<!-- dir_941830e8faa9dddffcbc1cfc411e2e9c&#45;&gt;dir_9fe2c82a321e56c96b1dd2b87dfa4011 -->
<g id="edge5" class="edge">
<title>dir_941830e8faa9dddffcbc1cfc411e2e9c&#45;&gt;dir_9fe2c82a321e56c96b1dd2b87dfa4011</title>
<path fill="none" stroke="black" d="M78.09,-147.83C100.77,-136.81 133.36,-120.97 158.37,-108.81"/>
<polygon fill="black" stroke="black" points="160.08,-111.87 167.55,-104.35 157.02,-105.57 160.08,-111.87"/>
<g id="a_edge5&#45;headlabel"><a xlink:href="dir_000055_000139.html" target="_top" xlink:title="1">
<text text-anchor="middle" x="158.09" y="-113.49" font-family="Helvetica,sans-Serif" font-size="10.00">1</text>
</a>
</g>
</g>
<!-- dir_c2cd4762e89f989d55fa2b0634ddfc81&#45;&gt;dir_4816d2fb8abcfd1fbfb7e56b67e0baa1 -->
<g id="edge1" class="edge">
<title>dir_c2cd4762e89f989d55fa2b0634ddfc81&#45;&gt;dir_4816d2fb8abcfd1fbfb7e56b67e0baa1</title>
<path fill="none" stroke="black" d="M349.33,-71.84C342.96,-66.28 335.49,-60.41 328,-56 312.81,-47.07 295.08,-39.6 278.91,-33.76"/>
<polygon fill="black" stroke="black" points="279.67,-30.32 269.08,-30.34 277.37,-36.93 279.67,-30.32"/>
<g id="a_edge1&#45;headlabel"><a xlink:href="dir_000085_000019.html" target="_top" xlink:title="1">
<text text-anchor="middle" x="284" y="-26.32" font-family="Helvetica,sans-Serif" font-size="10.00">1</text>
</a>
</g>
</g>
<!-- dir_c2cd4762e89f989d55fa2b0634ddfc81&#45;&gt;dir_1a5504e72c2ab618c124e6472b08d26c -->
<g id="edge2" class="edge">
<title>dir_c2cd4762e89f989d55fa2b0634ddfc81&#45;&gt;dir_1a5504e72c2ab618c124e6472b08d26c</title>
<path fill="none" stroke="black" d="M362.55,-71.7C360.55,-63.9 358.13,-54.51 355.9,-45.83"/>
<polygon fill="black" stroke="black" points="359.28,-44.92 353.4,-36.1 352.5,-46.66 359.28,-44.92"/>
<g id="a_edge2&#45;headlabel"><a xlink:href="dir_000085_000095.html" target="_top" xlink:title="1">
<text text-anchor="middle" x="362.92" y="-45.19" font-family="Helvetica,sans-Serif" font-size="10.00">1</text>
</a>
</g>
</g>
</g>
</svg>
