<?xml version="1.0" encoding="UTF-8" standalone="no"?>
<!DOCTYPE svg PUBLIC "-//W3C//DTD SVG 1.1//EN"
 "http://www.w3.org/Graphics/SVG/1.1/DTD/svg11.dtd">
<!-- Generated by graphviz version 2.43.0 (0)
 -->
<!-- Title: Components/Objects/QueryTools Pages: 1 -->
<svg width="272pt" height="375pt"
 viewBox="0.00 0.00 272.00 375.00" xmlns="http://www.w3.org/2000/svg" xmlns:xlink="http://www.w3.org/1999/xlink">
<g id="graph0" class="graph" transform="scale(1 1) rotate(0) translate(4 371)">
<title>Components/Objects/QueryTools</title>
<g id="clust1" class="cluster">
<title>clusterdir_a4226c5615a06a31e6344f5f3fd917e1</title>
<g id="a_clust1"><a xlink:href="dir_a4226c5615a06a31e6344f5f3fd917e1.html" target="_top" xlink:title="Objects">
<polygon fill="#ddddee" stroke="black" points="8,-200 8,-359 256,-359 256,-200 8,-200"/>
<text text-anchor="middle" x="132" y="-347" font-family="Helvetica,sans-Serif" font-size="10.00">Objects</text>
</a>
</g>
</g>
<g id="clust2" class="cluster">
<title>clusterdir_11b59cff1cad6e88be7ea7296a0f0dfa</title>
<g id="a_clust2"><a xlink:href="dir_11b59cff1cad6e88be7ea7296a0f0dfa.html" target="_top">
<polygon fill="#eeeeff" stroke="black" points="16,-208 16,-332 248,-332 248,-208 16,-208"/>
</a>
</g>
</g>
<!-- dir_11b59cff1cad6e88be7ea7296a0f0dfa -->
<g id="node1" class="node">
<title>dir_11b59cff1cad6e88be7ea7296a0f0dfa</title>
<text text-anchor="middle" x="204" y="-303.5" font-family="Helvetica,sans-Serif" font-size="10.00">QueryTools</text>
</g>
<!-- dir_0590a821aec5f126bf87658aa6f5bfc8 -->
<g id="node2" class="node">
<title>dir_0590a821aec5f126bf87658aa6f5bfc8</title>
<g id="a_node2"><a xlink:href="dir_0590a821aec5f126bf87658aa6f5bfc8.html" target="_top" xlink:title="include">
<polygon fill="white" stroke="black" points="114,-252 60,-252 60,-216 114,-216 114,-252"/>
<text text-anchor="middle" x="87" y="-231.5" font-family="Helvetica,sans-Serif" font-size="10.00">include</text>
</a>
</g>
</g>
<!-- dir_4816d2fb8abcfd1fbfb7e56b67e0baa1 -->
<g id="node5" class="node">
<title>dir_4816d2fb8abcfd1fbfb7e56b67e0baa1</title>
<g id="a_node5"><a xlink:href="dir_4816d2fb8abcfd1fbfb7e56b67e0baa1.html" target="_top" xlink:title="ErrorHandler">
<polygon fill="none" stroke="red" points="141,-108 63,-108 63,-72 141,-72 141,-108"/>
<text text-anchor="middle" x="102" y="-87.5" font-family="Helvetica,sans-Serif" font-size="10.00">ErrorHandler</text>
</a>
</g>
</g>
<!-- dir_0590a821aec5f126bf87658aa6f5bfc8&#45;&gt;dir_4816d2fb8abcfd1fbfb7e56b67e0baa1 -->
<g id="edge3" class="edge">
<title>dir_0590a821aec5f126bf87658aa6f5bfc8&#45;&gt;dir_4816d2fb8abcfd1fbfb7e56b67e0baa1</title>
<path fill="none" stroke="black" d="M88.81,-215.87C91.37,-191.67 96.06,-147.21 99.11,-118.39"/>
<polygon fill="black" stroke="black" points="102.61,-118.5 100.18,-108.19 95.65,-117.77 102.61,-118.5"/>
<g id="a_edge3&#45;headlabel"><a xlink:href="dir_000203_000020.html" target="_top" xlink:title="3">
<text text-anchor="middle" x="105.06" y="-119.87" font-family="Helvetica,sans-Serif" font-size="10.00">3</text>
</a>
</g>
</g>
<!-- dir_1a5504e72c2ab618c124e6472b08d26c -->
<g id="node6" class="node">
<title>dir_1a5504e72c2ab618c124e6472b08d26c</title>
<g id="a_node6"><a xlink:href="dir_1a5504e72c2ab618c124e6472b08d26c.html" target="_top" xlink:title="Global_Include">
<polygon fill="none" stroke="black" points="146.5,-36 57.5,-36 57.5,0 146.5,0 146.5,-36"/>
<text text-anchor="middle" x="102" y="-15.5" font-family="Helvetica,sans-Serif" font-size="10.00">Global_Include</text>
</a>
</g>
</g>
<!-- dir_0590a821aec5f126bf87658aa6f5bfc8&#45;&gt;dir_1a5504e72c2ab618c124e6472b08d26c -->
<g id="edge4" class="edge">
<title>dir_0590a821aec5f126bf87658aa6f5bfc8&#45;&gt;dir_1a5504e72c2ab618c124e6472b08d26c</title>
<path fill="none" stroke="black" d="M77.17,-215.55C61.55,-185.42 34.7,-122.05 54,-72 58.1,-61.36 65.44,-51.53 73.17,-43.3"/>
<polygon fill="black" stroke="black" points="75.67,-45.75 80.29,-36.21 70.73,-40.78 75.67,-45.75"/>
<g id="a_edge4&#45;headlabel"><a xlink:href="dir_000203_000135.html" target="_top" xlink:title="3">
<text text-anchor="middle" x="75.12" y="-47.79" font-family="Helvetica,sans-Serif" font-size="10.00">3</text>
</a>
</g>
</g>
<!-- dir_e185953657720ba3a67126696ef566c7 -->
<g id="node7" class="node">
<title>dir_e185953657720ba3a67126696ef566c7</title>
<g id="a_node7"><a xlink:href="dir_e185953657720ba3a67126696ef566c7.html" target="_top" xlink:title="Interfaces">
<polygon fill="none" stroke="red" points="180.5,-180 115.5,-180 115.5,-144 180.5,-144 180.5,-180"/>
<text text-anchor="middle" x="148" y="-159.5" font-family="Helvetica,sans-Serif" font-size="10.00">Interfaces</text>
</a>
</g>
</g>
<!-- dir_0590a821aec5f126bf87658aa6f5bfc8&#45;&gt;dir_e185953657720ba3a67126696ef566c7 -->
<g id="edge5" class="edge">
<title>dir_0590a821aec5f126bf87658aa6f5bfc8&#45;&gt;dir_e185953657720ba3a67126696ef566c7</title>
<path fill="none" stroke="black" d="M102.08,-215.7C109.39,-207.3 118.31,-197.07 126.34,-187.86"/>
<polygon fill="black" stroke="black" points="129.16,-189.94 133.09,-180.1 123.89,-185.34 129.16,-189.94"/>
<g id="a_edge5&#45;headlabel"><a xlink:href="dir_000203_000093.html" target="_top" xlink:title="3">
<text text-anchor="middle" x="128.94" y="-192.02" font-family="Helvetica,sans-Serif" font-size="10.00">3</text>
</a>
</g>
</g>
<!-- dir_0f85df459400cd17cb74571fac7782a0 -->
<g id="node3" class="node">
<title>dir_0f85df459400cd17cb74571fac7782a0</title>
<g id="a_node3"><a xlink:href="dir_0f85df459400cd17cb74571fac7782a0.html" target="_top" xlink:title="src">
<polygon fill="white" stroke="black" points="150,-324 96,-324 96,-288 150,-288 150,-324"/>
<text text-anchor="middle" x="123" y="-303.5" font-family="Helvetica,sans-Serif" font-size="10.00">src</text>
</a>
</g>
</g>
<!-- dir_0f85df459400cd17cb74571fac7782a0&#45;&gt;dir_0590a821aec5f126bf87658aa6f5bfc8 -->
<g id="edge2" class="edge">
<title>dir_0f85df459400cd17cb74571fac7782a0&#45;&gt;dir_0590a821aec5f126bf87658aa6f5bfc8</title>
<path fill="none" stroke="black" d="M114.1,-287.7C110,-279.73 105.05,-270.1 100.51,-261.26"/>
<polygon fill="black" stroke="black" points="103.48,-259.4 95.8,-252.1 97.26,-262.6 103.48,-259.4"/>
<g id="a_edge2&#45;headlabel"><a xlink:href="dir_000204_000203.html" target="_top" xlink:title="2">
<text text-anchor="middle" x="107.65" y="-258.79" font-family="Helvetica,sans-Serif" font-size="10.00">2</text>
</a>
</g>
</g>
<!-- dir_2348c1f2664be65ac5ef8027b7e6ecce -->
<g id="node4" class="node">
<title>dir_2348c1f2664be65ac5ef8027b7e6ecce</title>
<g id="a_node4"><a xlink:href="dir_2348c1f2664be65ac5ef8027b7e6ecce.html" target="_top" xlink:title="test">
<polygon fill="white" stroke="red" points="78,-324 24,-324 24,-288 78,-288 78,-324"/>
<text text-anchor="middle" x="51" y="-303.5" font-family="Helvetica,sans-Serif" font-size="10.00">test</text>
</a>
</g>
</g>
<!-- dir_2348c1f2664be65ac5ef8027b7e6ecce&#45;&gt;dir_0590a821aec5f126bf87658aa6f5bfc8 -->
<g id="edge1" class="edge">
<title>dir_2348c1f2664be65ac5ef8027b7e6ecce&#45;&gt;dir_0590a821aec5f126bf87658aa6f5bfc8</title>
<path fill="none" stroke="black" d="M59.9,-287.7C64,-279.73 68.95,-270.1 73.49,-261.26"/>
<polygon fill="black" stroke="black" points="76.74,-262.6 78.2,-252.1 70.52,-259.4 76.74,-262.6"/>
<g id="a_edge1&#45;headlabel"><a xlink:href="dir_000048_000203.html" target="_top" xlink:title="4">
<text text-anchor="middle" x="77.62" y="-264.59" font-family="Helvetica,sans-Serif" font-size="10.00">4</text>
</a>
</g>
</g>
<!-- dir_4816d2fb8abcfd1fbfb7e56b67e0baa1&#45;&gt;dir_1a5504e72c2ab618c124e6472b08d26c -->
<g id="edge6" class="edge">
<title>dir_4816d2fb8abcfd1fbfb7e56b67e0baa1&#45;&gt;dir_1a5504e72c2ab618c124e6472b08d26c</title>
<path fill="none" stroke="black" d="M102,-71.7C102,-63.98 102,-54.71 102,-46.11"/>
<polygon fill="black" stroke="black" points="105.5,-46.1 102,-36.1 98.5,-46.1 105.5,-46.1"/>
<g id="a_edge6&#45;headlabel"><a xlink:href="dir_000020_000135.html" target="_top" xlink:title="2">
<text text-anchor="middle" x="108.34" y="-47.2" font-family="Helvetica,sans-Serif" font-size="10.00">2</text>
</a>
</g>
</g>
<!-- dir_e185953657720ba3a67126696ef566c7&#45;&gt;dir_4816d2fb8abcfd1fbfb7e56b67e0baa1 -->
<g id="edge7" class="edge">
<title>dir_e185953657720ba3a67126696ef566c7&#45;&gt;dir_4816d2fb8abcfd1fbfb7e56b67e0baa1</title>
<path fill="none" stroke="black" d="M136.63,-143.7C131.28,-135.56 124.8,-125.69 118.89,-116.7"/>
<polygon fill="black" stroke="black" points="121.66,-114.54 113.24,-108.1 115.81,-118.38 121.66,-114.54"/>
<g id="a_edge7&#45;headlabel"><a xlink:href="dir_000093_000020.html" target="_top" xlink:title="16">
<text text-anchor="middle" x="126" y="-113.48" font-family="Helvetica,sans-Serif" font-size="10.00">16</text>
</a>
</g>
</g>
<!-- dir_e185953657720ba3a67126696ef566c7&#45;&gt;dir_1a5504e72c2ab618c124e6472b08d26c -->
<g id="edge8" class="edge">
<title>dir_e185953657720ba3a67126696ef566c7&#45;&gt;dir_1a5504e72c2ab618c124e6472b08d26c</title>
<path fill="none" stroke="black" d="M152.12,-143.94C155.73,-125.52 159.12,-95.65 150,-72 145.9,-61.36 138.56,-51.53 130.83,-43.3"/>
<polygon fill="black" stroke="black" points="133.27,-40.78 123.71,-36.21 128.33,-45.75 133.27,-40.78"/>
<g id="a_edge8&#45;headlabel"><a xlink:href="dir_000093_000135.html" target="_top" xlink:title="15">
<text text-anchor="middle" x="137.82" y="-38.81" font-family="Helvetica,sans-Serif" font-size="10.00">15</text>
</a>
</g>
</g>
</g>
</svg>
