<?xml version="1.0" encoding="UTF-8" standalone="no"?>
<!DOCTYPE svg PUBLIC "-//W3C//DTD SVG 1.1//EN"
 "http://www.w3.org/Graphics/SVG/1.1/DTD/svg11.dtd">
<!-- Generated by graphviz version 2.43.0 (0)
 -->
<!-- Title: Components/Actuator/ServoMotor Pages: 1 -->
<svg width="274pt" height="375pt"
 viewBox="0.00 0.00 274.00 375.00" xmlns="http://www.w3.org/2000/svg" xmlns:xlink="http://www.w3.org/1999/xlink">
<g id="graph0" class="graph" transform="scale(1 1) rotate(0) translate(4 371)">
<title>Components/Actuator/ServoMotor</title>
<g id="clust1" class="cluster">
<title>clusterdir_8efbaa1056a51686757185dce0bc8da0</title>
<g id="a_clust1"><a xlink:href="dir_8efbaa1056a51686757185dce0bc8da0.html" target="_top" xlink:title="Actuator">
<polygon fill="#ddddee" stroke="black" points="8,-200 8,-359 258,-359 258,-200 8,-200"/>
<text text-anchor="middle" x="133" y="-347" font-family="Helvetica,sans-Serif" font-size="10.00">Actuator</text>
</a>
</g>
</g>
<g id="clust2" class="cluster">
<title>clusterdir_28947bdaf3c2a4adf444b964ddf2db17</title>
<g id="a_clust2"><a xlink:href="dir_28947bdaf3c2a4adf444b964ddf2db17.html" target="_top">
<polygon fill="#eeeeff" stroke="black" points="16,-208 16,-332 250,-332 250,-208 16,-208"/>
</a>
</g>
</g>
<!-- dir_28947bdaf3c2a4adf444b964ddf2db17 -->
<g id="node1" class="node">
<title>dir_28947bdaf3c2a4adf444b964ddf2db17</title>
<text text-anchor="middle" x="205" y="-303.5" font-family="Helvetica,sans-Serif" font-size="10.00">ServoMotor</text>
</g>
<!-- dir_eade54f91820504075d7f8e9e489c83f -->
<g id="node2" class="node">
<title>dir_eade54f91820504075d7f8e9e489c83f</title>
<g id="a_node2"><a xlink:href="dir_eade54f91820504075d7f8e9e489c83f.html" target="_top" xlink:title="include">
<polygon fill="white" stroke="black" points="114,-252 60,-252 60,-216 114,-216 114,-252"/>
<text text-anchor="middle" x="87" y="-231.5" font-family="Helvetica,sans-Serif" font-size="10.00">include</text>
</a>
</g>
</g>
<!-- dir_a4226c5615a06a31e6344f5f3fd917e1 -->
<g id="node5" class="node">
<title>dir_a4226c5615a06a31e6344f5f3fd917e1</title>
<g id="a_node5"><a xlink:href="dir_a4226c5615a06a31e6344f5f3fd917e1.html" target="_top" xlink:title="Objects">
<polygon fill="none" stroke="red" points="59,-180 5,-180 5,-144 59,-144 59,-180"/>
<text text-anchor="middle" x="32" y="-159.5" font-family="Helvetica,sans-Serif" font-size="10.00">Objects</text>
</a>
</g>
</g>
<!-- dir_eade54f91820504075d7f8e9e489c83f&#45;&gt;dir_a4226c5615a06a31e6344f5f3fd917e1 -->
<g id="edge5" class="edge">
<title>dir_eade54f91820504075d7f8e9e489c83f&#45;&gt;dir_a4226c5615a06a31e6344f5f3fd917e1</title>
<path fill="none" stroke="black" d="M73.4,-215.7C66.88,-207.39 58.93,-197.28 51.75,-188.14"/>
<polygon fill="black" stroke="black" points="54.37,-185.81 45.44,-180.1 48.87,-190.13 54.37,-185.81"/>
<g id="a_edge5&#45;headlabel"><a xlink:href="dir_000004_000016.html" target="_top" xlink:title="3">
<text text-anchor="middle" x="58.82" y="-184.38" font-family="Helvetica,sans-Serif" font-size="10.00">3</text>
</a>
</g>
</g>
<!-- dir_1a5504e72c2ab618c124e6472b08d26c -->
<g id="node6" class="node">
<title>dir_1a5504e72c2ab618c124e6472b08d26c</title>
<g id="a_node6"><a xlink:href="dir_1a5504e72c2ab618c124e6472b08d26c.html" target="_top" xlink:title="Global_Include">
<polygon fill="none" stroke="black" points="108.5,-36 19.5,-36 19.5,0 108.5,0 108.5,-36"/>
<text text-anchor="middle" x="64" y="-15.5" font-family="Helvetica,sans-Serif" font-size="10.00">Global_Include</text>
</a>
</g>
</g>
<!-- dir_eade54f91820504075d7f8e9e489c83f&#45;&gt;dir_1a5504e72c2ab618c124e6472b08d26c -->
<g id="edge6" class="edge">
<title>dir_eade54f91820504075d7f8e9e489c83f&#45;&gt;dir_1a5504e72c2ab618c124e6472b08d26c</title>
<path fill="none" stroke="black" d="M93.99,-215.53C105,-185.38 123.4,-121.97 106,-72 102.47,-61.86 96.09,-52.19 89.36,-43.96"/>
<polygon fill="black" stroke="black" points="91.83,-41.46 82.6,-36.24 86.56,-46.07 91.83,-41.46"/>
<g id="a_edge6&#45;headlabel"><a xlink:href="dir_000004_000144.html" target="_top" xlink:title="1">
<text text-anchor="middle" x="96.33" y="-39.79" font-family="Helvetica,sans-Serif" font-size="10.00">1</text>
</a>
</g>
</g>
<!-- dir_e185953657720ba3a67126696ef566c7 -->
<g id="node7" class="node">
<title>dir_e185953657720ba3a67126696ef566c7</title>
<g id="a_node7"><a xlink:href="dir_e185953657720ba3a67126696ef566c7.html" target="_top" xlink:title="Interfaces">
<polygon fill="none" stroke="red" points="96.5,-108 31.5,-108 31.5,-72 96.5,-72 96.5,-108"/>
<text text-anchor="middle" x="64" y="-87.5" font-family="Helvetica,sans-Serif" font-size="10.00">Interfaces</text>
</a>
</g>
</g>
<!-- dir_eade54f91820504075d7f8e9e489c83f&#45;&gt;dir_e185953657720ba3a67126696ef566c7 -->
<g id="edge7" class="edge">
<title>dir_eade54f91820504075d7f8e9e489c83f&#45;&gt;dir_e185953657720ba3a67126696ef566c7</title>
<path fill="none" stroke="black" d="M84.23,-215.87C80.31,-191.67 73.1,-147.21 68.44,-118.39"/>
<polygon fill="black" stroke="black" points="71.84,-117.5 66.78,-108.19 64.93,-118.62 71.84,-117.5"/>
<g id="a_edge7&#45;headlabel"><a xlink:href="dir_000004_000093.html" target="_top" xlink:title="1">
<text text-anchor="middle" x="75.22" y="-118.1" font-family="Helvetica,sans-Serif" font-size="10.00">1</text>
</a>
</g>
</g>
<!-- dir_e55530d6809e2f5cda274af884293560 -->
<g id="node3" class="node">
<title>dir_e55530d6809e2f5cda274af884293560</title>
<g id="a_node3"><a xlink:href="dir_e55530d6809e2f5cda274af884293560.html" target="_top" xlink:title="src">
<polygon fill="white" stroke="black" points="150,-324 96,-324 96,-288 150,-288 150,-324"/>
<text text-anchor="middle" x="123" y="-303.5" font-family="Helvetica,sans-Serif" font-size="10.00">src</text>
</a>
</g>
</g>
<!-- dir_e55530d6809e2f5cda274af884293560&#45;&gt;dir_eade54f91820504075d7f8e9e489c83f -->
<g id="edge4" class="edge">
<title>dir_e55530d6809e2f5cda274af884293560&#45;&gt;dir_eade54f91820504075d7f8e9e489c83f</title>
<path fill="none" stroke="black" d="M114.1,-287.7C110,-279.73 105.05,-270.1 100.51,-261.26"/>
<polygon fill="black" stroke="black" points="103.48,-259.4 95.8,-252.1 97.26,-262.6 103.48,-259.4"/>
<g id="a_edge4&#45;headlabel"><a xlink:href="dir_000005_000004.html" target="_top" xlink:title="1">
<text text-anchor="middle" x="107.65" y="-258.79" font-family="Helvetica,sans-Serif" font-size="10.00">1</text>
</a>
</g>
</g>
<!-- dir_0c887a46ad42417ad1fd894421445437 -->
<g id="node4" class="node">
<title>dir_0c887a46ad42417ad1fd894421445437</title>
<g id="a_node4"><a xlink:href="dir_0c887a46ad42417ad1fd894421445437.html" target="_top" xlink:title="test">
<polygon fill="white" stroke="red" points="78,-324 24,-324 24,-288 78,-288 78,-324"/>
<text text-anchor="middle" x="51" y="-303.5" font-family="Helvetica,sans-Serif" font-size="10.00">test</text>
</a>
</g>
</g>
<!-- dir_0c887a46ad42417ad1fd894421445437&#45;&gt;dir_eade54f91820504075d7f8e9e489c83f -->
<g id="edge3" class="edge">
<title>dir_0c887a46ad42417ad1fd894421445437&#45;&gt;dir_eade54f91820504075d7f8e9e489c83f</title>
<path fill="none" stroke="black" d="M59.9,-287.7C64,-279.73 68.95,-270.1 73.49,-261.26"/>
<polygon fill="black" stroke="black" points="76.74,-262.6 78.2,-252.1 70.52,-259.4 76.74,-262.6"/>
<g id="a_edge3&#45;headlabel"><a xlink:href="dir_000006_000004.html" target="_top" xlink:title="1">
<text text-anchor="middle" x="77.62" y="-264.59" font-family="Helvetica,sans-Serif" font-size="10.00">1</text>
</a>
</g>
</g>
<!-- dir_a4226c5615a06a31e6344f5f3fd917e1&#45;&gt;dir_1a5504e72c2ab618c124e6472b08d26c -->
<g id="edge1" class="edge">
<title>dir_a4226c5615a06a31e6344f5f3fd917e1&#45;&gt;dir_1a5504e72c2ab618c124e6472b08d26c</title>
<path fill="none" stroke="black" d="M25.7,-143.77C20,-125.47 13.67,-95.93 22,-72 25.53,-61.86 31.91,-52.19 38.64,-43.96"/>
<polygon fill="black" stroke="black" points="41.44,-46.07 45.4,-36.24 36.17,-41.46 41.44,-46.07"/>
<g id="a_edge1&#45;headlabel"><a xlink:href="dir_000016_000144.html" target="_top" xlink:title="26">
<text text-anchor="middle" x="41.21" y="-48.15" font-family="Helvetica,sans-Serif" font-size="10.00">26</text>
</a>
</g>
</g>
<!-- dir_a4226c5615a06a31e6344f5f3fd917e1&#45;&gt;dir_e185953657720ba3a67126696ef566c7 -->
<g id="edge2" class="edge">
<title>dir_a4226c5615a06a31e6344f5f3fd917e1&#45;&gt;dir_e185953657720ba3a67126696ef566c7</title>
<path fill="none" stroke="black" d="M33.99,-143.7C36.85,-135.64 41.09,-125.89 45.58,-116.98"/>
<polygon fill="black" stroke="black" points="48.69,-118.58 50.29,-108.1 42.51,-115.3 48.69,-118.58"/>
<g id="a_edge2&#45;headlabel"><a xlink:href="dir_000016_000093.html" target="_top" xlink:title="8">
<text text-anchor="middle" x="49.51" y="-120.58" font-family="Helvetica,sans-Serif" font-size="10.00">8</text>
</a>
</g>
</g>
<!-- dir_e185953657720ba3a67126696ef566c7&#45;&gt;dir_a4226c5615a06a31e6344f5f3fd917e1 -->
<g id="edge8" class="edge">
<title>dir_e185953657720ba3a67126696ef566c7&#45;&gt;dir_a4226c5615a06a31e6344f5f3fd917e1</title>
<path fill="none" stroke="black" d="M62.08,-108.1C59.25,-116.13 55.02,-125.87 50.54,-134.8"/>
<polygon fill="black" stroke="black" points="47.41,-133.22 45.83,-143.7 53.6,-136.49 47.41,-133.22"/>
<g id="a_edge8&#45;headlabel"><a xlink:href="dir_000093_000016.html" target="_top" xlink:title="23">
<text text-anchor="middle" x="46.58" y="-126.22" font-family="Helvetica,sans-Serif" font-size="10.00">23</text>
</a>
</g>
</g>
<!-- dir_e185953657720ba3a67126696ef566c7&#45;&gt;dir_1a5504e72c2ab618c124e6472b08d26c -->
<g id="edge9" class="edge">
<title>dir_e185953657720ba3a67126696ef566c7&#45;&gt;dir_1a5504e72c2ab618c124e6472b08d26c</title>
<path fill="none" stroke="black" d="M64,-71.7C64,-63.98 64,-54.71 64,-46.11"/>
<polygon fill="black" stroke="black" points="67.5,-46.1 64,-36.1 60.5,-46.1 67.5,-46.1"/>
<g id="a_edge9&#45;headlabel"><a xlink:href="dir_000093_000144.html" target="_top" xlink:title="15">
<text text-anchor="middle" x="70.34" y="-47.2" font-family="Helvetica,sans-Serif" font-size="10.00">15</text>
</a>
</g>
</g>
</g>
</svg>
