<?xml version="1.0" encoding="UTF-8" standalone="no"?>
<!DOCTYPE svg PUBLIC "-//W3C//DTD SVG 1.1//EN"
 "http://www.w3.org/Graphics/SVG/1.1/DTD/svg11.dtd">
<!-- Generated by graphviz version 2.43.0 (0)
 -->
<!-- Title: Components/Actuator Pages: 1 -->
<svg width="227pt" height="303pt"
 viewBox="0.00 0.00 227.00 303.00" xmlns="http://www.w3.org/2000/svg" xmlns:xlink="http://www.w3.org/1999/xlink">
<g id="graph0" class="graph" transform="scale(1 1) rotate(0) translate(4 299)">
<title>Components/Actuator</title>
<g id="clust1" class="cluster">
<title>clusterdir_08f45fe6822aeb4ce2bc268e3b1361be</title>
<g id="a_clust1"><a xlink:href="dir_08f45fe6822aeb4ce2bc268e3b1361be.html" target="_top" xlink:title="Components">
<polygon fill="#ddddee" stroke="black" points="29,-200 29,-287 211,-287 211,-200 29,-200"/>
<text text-anchor="middle" x="120" y="-275" font-family="Helvetica,sans-Serif" font-size="10.00">Components</text>
</a>
</g>
</g>
<g id="clust2" class="cluster">
<title>clusterdir_8efbaa1056a51686757185dce0bc8da0</title>
<g id="a_clust2"><a xlink:href="dir_8efbaa1056a51686757185dce0bc8da0.html" target="_top">
<polygon fill="#eeeeff" stroke="black" points="37,-208 37,-260 203,-260 203,-208 37,-208"/>
</a>
</g>
</g>
<!-- dir_8efbaa1056a51686757185dce0bc8da0 -->
<g id="node1" class="node">
<title>dir_8efbaa1056a51686757185dce0bc8da0</title>
<text text-anchor="middle" x="166" y="-231.5" font-family="Helvetica,sans-Serif" font-size="10.00">Actuator</text>
</g>
<!-- dir_28947bdaf3c2a4adf444b964ddf2db17 -->
<g id="node2" class="node">
<title>dir_28947bdaf3c2a4adf444b964ddf2db17</title>
<g id="a_node2"><a xlink:href="dir_28947bdaf3c2a4adf444b964ddf2db17.html" target="_top" xlink:title="ServoMotor">
<polygon fill="white" stroke="red" points="118.5,-252 45.5,-252 45.5,-216 118.5,-216 118.5,-252"/>
<text text-anchor="middle" x="82" y="-231.5" font-family="Helvetica,sans-Serif" font-size="10.00">ServoMotor</text>
</a>
</g>
</g>
<!-- dir_a4226c5615a06a31e6344f5f3fd917e1 -->
<g id="node3" class="node">
<title>dir_a4226c5615a06a31e6344f5f3fd917e1</title>
<g id="a_node3"><a xlink:href="dir_a4226c5615a06a31e6344f5f3fd917e1.html" target="_top" xlink:title="Objects">
<polygon fill="none" stroke="red" points="54,-180 0,-180 0,-144 54,-144 54,-180"/>
<text text-anchor="middle" x="27" y="-159.5" font-family="Helvetica,sans-Serif" font-size="10.00">Objects</text>
</a>
</g>
</g>
<!-- dir_28947bdaf3c2a4adf444b964ddf2db17&#45;&gt;dir_a4226c5615a06a31e6344f5f3fd917e1 -->
<g id="edge3" class="edge">
<title>dir_28947bdaf3c2a4adf444b964ddf2db17&#45;&gt;dir_a4226c5615a06a31e6344f5f3fd917e1</title>
<path fill="none" stroke="black" d="M68.4,-215.7C61.88,-207.39 53.93,-197.28 46.75,-188.14"/>
<polygon fill="black" stroke="black" points="49.37,-185.81 40.44,-180.1 43.87,-190.13 49.37,-185.81"/>
<g id="a_edge3&#45;headlabel"><a xlink:href="dir_000003_000020.html" target="_top" xlink:title="3">
<text text-anchor="middle" x="53.82" y="-184.38" font-family="Helvetica,sans-Serif" font-size="10.00">3</text>
</a>
</g>
</g>
<!-- dir_1a5504e72c2ab618c124e6472b08d26c -->
<g id="node4" class="node">
<title>dir_1a5504e72c2ab618c124e6472b08d26c</title>
<g id="a_node4"><a xlink:href="dir_1a5504e72c2ab618c124e6472b08d26c.html" target="_top" xlink:title="Global_Include">
<polygon fill="none" stroke="black" points="103.5,-36 14.5,-36 14.5,0 103.5,0 103.5,-36"/>
<text text-anchor="middle" x="59" y="-15.5" font-family="Helvetica,sans-Serif" font-size="10.00">Global_Include</text>
</a>
</g>
</g>
<!-- dir_28947bdaf3c2a4adf444b964ddf2db17&#45;&gt;dir_1a5504e72c2ab618c124e6472b08d26c -->
<g id="edge4" class="edge">
<title>dir_28947bdaf3c2a4adf444b964ddf2db17&#45;&gt;dir_1a5504e72c2ab618c124e6472b08d26c</title>
<path fill="none" stroke="black" d="M88.75,-215.55C99.37,-185.41 117.09,-122.04 100,-72 96.56,-61.93 90.34,-52.28 83.77,-44.05"/>
<polygon fill="black" stroke="black" points="86.32,-41.65 77.17,-36.32 81,-46.2 86.32,-41.65"/>
<g id="a_edge4&#45;headlabel"><a xlink:href="dir_000003_000125.html" target="_top" xlink:title="1">
<text text-anchor="middle" x="90.82" y="-40.04" font-family="Helvetica,sans-Serif" font-size="10.00">1</text>
</a>
</g>
</g>
<!-- dir_e185953657720ba3a67126696ef566c7 -->
<g id="node5" class="node">
<title>dir_e185953657720ba3a67126696ef566c7</title>
<g id="a_node5"><a xlink:href="dir_e185953657720ba3a67126696ef566c7.html" target="_top" xlink:title="Interfaces">
<polygon fill="none" stroke="red" points="91.5,-108 26.5,-108 26.5,-72 91.5,-72 91.5,-108"/>
<text text-anchor="middle" x="59" y="-87.5" font-family="Helvetica,sans-Serif" font-size="10.00">Interfaces</text>
</a>
</g>
</g>
<!-- dir_28947bdaf3c2a4adf444b964ddf2db17&#45;&gt;dir_e185953657720ba3a67126696ef566c7 -->
<g id="edge5" class="edge">
<title>dir_28947bdaf3c2a4adf444b964ddf2db17&#45;&gt;dir_e185953657720ba3a67126696ef566c7</title>
<path fill="none" stroke="black" d="M79.23,-215.87C75.31,-191.67 68.1,-147.21 63.44,-118.39"/>
<polygon fill="black" stroke="black" points="66.84,-117.5 61.78,-108.19 59.93,-118.62 66.84,-117.5"/>
<g id="a_edge5&#45;headlabel"><a xlink:href="dir_000003_000094.html" target="_top" xlink:title="1">
<text text-anchor="middle" x="70.22" y="-118.1" font-family="Helvetica,sans-Serif" font-size="10.00">1</text>
</a>
</g>
</g>
<!-- dir_a4226c5615a06a31e6344f5f3fd917e1&#45;&gt;dir_1a5504e72c2ab618c124e6472b08d26c -->
<g id="edge1" class="edge">
<title>dir_a4226c5615a06a31e6344f5f3fd917e1&#45;&gt;dir_1a5504e72c2ab618c124e6472b08d26c</title>
<path fill="none" stroke="black" d="M20.7,-143.77C15,-125.47 8.67,-95.93 17,-72 20.53,-61.86 26.91,-52.19 33.64,-43.96"/>
<polygon fill="black" stroke="black" points="36.44,-46.07 40.4,-36.24 31.17,-41.46 36.44,-46.07"/>
<g id="a_edge1&#45;headlabel"><a xlink:href="dir_000020_000125.html" target="_top" xlink:title="26">
<text text-anchor="middle" x="36.21" y="-48.15" font-family="Helvetica,sans-Serif" font-size="10.00">26</text>
</a>
</g>
</g>
<!-- dir_a4226c5615a06a31e6344f5f3fd917e1&#45;&gt;dir_e185953657720ba3a67126696ef566c7 -->
<g id="edge2" class="edge">
<title>dir_a4226c5615a06a31e6344f5f3fd917e1&#45;&gt;dir_e185953657720ba3a67126696ef566c7</title>
<path fill="none" stroke="black" d="M28.99,-143.7C31.85,-135.64 36.09,-125.89 40.58,-116.98"/>
<polygon fill="black" stroke="black" points="43.69,-118.58 45.29,-108.1 37.51,-115.3 43.69,-118.58"/>
<g id="a_edge2&#45;headlabel"><a xlink:href="dir_000020_000094.html" target="_top" xlink:title="8">
<text text-anchor="middle" x="44.51" y="-120.58" font-family="Helvetica,sans-Serif" font-size="10.00">8</text>
</a>
</g>
</g>
<!-- dir_e185953657720ba3a67126696ef566c7&#45;&gt;dir_a4226c5615a06a31e6344f5f3fd917e1 -->
<g id="edge6" class="edge">
<title>dir_e185953657720ba3a67126696ef566c7&#45;&gt;dir_a4226c5615a06a31e6344f5f3fd917e1</title>
<path fill="none" stroke="black" d="M57.08,-108.1C54.25,-116.13 50.02,-125.87 45.54,-134.8"/>
<polygon fill="black" stroke="black" points="42.41,-133.22 40.83,-143.7 48.6,-136.49 42.41,-133.22"/>
<g id="a_edge6&#45;headlabel"><a xlink:href="dir_000094_000020.html" target="_top" xlink:title="20">
<text text-anchor="middle" x="41.58" y="-126.22" font-family="Helvetica,sans-Serif" font-size="10.00">20</text>
</a>
</g>
</g>
<!-- dir_e185953657720ba3a67126696ef566c7&#45;&gt;dir_1a5504e72c2ab618c124e6472b08d26c -->
<g id="edge7" class="edge">
<title>dir_e185953657720ba3a67126696ef566c7&#45;&gt;dir_1a5504e72c2ab618c124e6472b08d26c</title>
<path fill="none" stroke="black" d="M59,-71.7C59,-63.98 59,-54.71 59,-46.11"/>
<polygon fill="black" stroke="black" points="62.5,-46.1 59,-36.1 55.5,-46.1 62.5,-46.1"/>
<g id="a_edge7&#45;headlabel"><a xlink:href="dir_000094_000125.html" target="_top" xlink:title="12">
<text text-anchor="middle" x="65.34" y="-47.2" font-family="Helvetica,sans-Serif" font-size="10.00">12</text>
</a>
</g>
</g>
</g>
</svg>
