<?xml version="1.0" encoding="UTF-8" standalone="no"?>
<!DOCTYPE svg PUBLIC "-//W3C//DTD SVG 1.1//EN"
 "http://www.w3.org/Graphics/SVG/1.1/DTD/svg11.dtd">
<!-- Generated by graphviz version 2.43.0 (0)
 -->
<!-- Title: Components/Service/OnlineDetector/include Pages: 1 -->
<svg width="198pt" height="295pt"
 viewBox="0.00 0.00 197.68 295.00" xmlns="http://www.w3.org/2000/svg" xmlns:xlink="http://www.w3.org/1999/xlink">
<g id="graph0" class="graph" transform="scale(1 1) rotate(0) translate(4 291)">
<title>Components/Service/OnlineDetector/include</title>
<g id="clust1" class="cluster">
<title>clusterdir_8603aec3380c5f66e9b75b42f3bddbde</title>
<g id="a_clust1"><a xlink:href="dir_8603aec3380c5f66e9b75b42f3bddbde.html" target="_top" xlink:title="OnlineDetector">
<polygon fill="#ddddee" stroke="black" points="67,-208 67,-279 157,-279 157,-208 67,-208"/>
<text text-anchor="middle" x="112" y="-267" font-family="Helvetica,sans-Serif" font-size="10.00">OnlineDetector</text>
</a>
</g>
</g>
<!-- dir_263bc2710b106394c86ba7c20ae0cf95 -->
<g id="node1" class="node">
<title>dir_263bc2710b106394c86ba7c20ae0cf95</title>
<g id="a_node1"><a xlink:href="dir_263bc2710b106394c86ba7c20ae0cf95.html" target="_top" xlink:title="include">
<polygon fill="#eeeeff" stroke="black" points="139,-252 85,-252 85,-216 139,-216 139,-252"/>
<text text-anchor="middle" x="112" y="-231.5" font-family="Helvetica,sans-Serif" font-size="10.00">include</text>
</a>
</g>
</g>
<!-- dir_a4226c5615a06a31e6344f5f3fd917e1 -->
<g id="node2" class="node">
<title>dir_a4226c5615a06a31e6344f5f3fd917e1</title>
<g id="a_node2"><a xlink:href="dir_a4226c5615a06a31e6344f5f3fd917e1.html" target="_top" xlink:title="Objects">
<polygon fill="none" stroke="red" points="110,-180 56,-180 56,-144 110,-144 110,-180"/>
<text text-anchor="middle" x="83" y="-159.5" font-family="Helvetica,sans-Serif" font-size="10.00">Objects</text>
</a>
</g>
</g>
<!-- dir_263bc2710b106394c86ba7c20ae0cf95&#45;&gt;dir_a4226c5615a06a31e6344f5f3fd917e1 -->
<g id="edge4" class="edge">
<title>dir_263bc2710b106394c86ba7c20ae0cf95&#45;&gt;dir_a4226c5615a06a31e6344f5f3fd917e1</title>
<path fill="none" stroke="black" d="M104.83,-215.7C101.57,-207.81 97.63,-198.3 94,-189.55"/>
<polygon fill="black" stroke="black" points="97.15,-188 90.09,-180.1 90.68,-190.68 97.15,-188"/>
<g id="a_edge4&#45;headlabel"><a xlink:href="dir_000220_000016.html" target="_top" xlink:title="1">
<text text-anchor="middle" x="101.15" y="-187.74" font-family="Helvetica,sans-Serif" font-size="10.00">1</text>
</a>
</g>
</g>
<!-- dir_c2cd4762e89f989d55fa2b0634ddfc81 -->
<g id="node3" class="node">
<title>dir_c2cd4762e89f989d55fa2b0634ddfc81</title>
<g id="a_node3"><a xlink:href="dir_c2cd4762e89f989d55fa2b0634ddfc81.html" target="_top" xlink:title="Utility">
<polygon fill="none" stroke="red" points="54,-108 0,-108 0,-72 54,-72 54,-108"/>
<text text-anchor="middle" x="27" y="-87.5" font-family="Helvetica,sans-Serif" font-size="10.00">Utility</text>
</a>
</g>
</g>
<!-- dir_263bc2710b106394c86ba7c20ae0cf95&#45;&gt;dir_c2cd4762e89f989d55fa2b0634ddfc81 -->
<g id="edge5" class="edge">
<title>dir_263bc2710b106394c86ba7c20ae0cf95&#45;&gt;dir_c2cd4762e89f989d55fa2b0634ddfc81</title>
<path fill="none" stroke="black" d="M84.9,-217.06C71.54,-207.85 56.34,-195.11 47,-180 35.51,-161.42 30.6,-137.03 28.51,-118.48"/>
<polygon fill="black" stroke="black" points="31.97,-117.96 27.57,-108.32 25,-118.6 31.97,-117.96"/>
<g id="a_edge5&#45;headlabel"><a xlink:href="dir_000220_000081.html" target="_top" xlink:title="2">
<text text-anchor="middle" x="35.13" y="-118.78" font-family="Helvetica,sans-Serif" font-size="10.00">2</text>
</a>
</g>
</g>
<!-- dir_1a5504e72c2ab618c124e6472b08d26c -->
<g id="node4" class="node">
<title>dir_1a5504e72c2ab618c124e6472b08d26c</title>
<g id="a_node4"><a xlink:href="dir_1a5504e72c2ab618c124e6472b08d26c.html" target="_top" xlink:title="Global_Include">
<polygon fill="none" stroke="black" points="156.5,-36 67.5,-36 67.5,0 156.5,0 156.5,-36"/>
<text text-anchor="middle" x="112" y="-15.5" font-family="Helvetica,sans-Serif" font-size="10.00">Global_Include</text>
</a>
</g>
</g>
<!-- dir_263bc2710b106394c86ba7c20ae0cf95&#45;&gt;dir_1a5504e72c2ab618c124e6472b08d26c -->
<g id="edge6" class="edge">
<title>dir_263bc2710b106394c86ba7c20ae0cf95&#45;&gt;dir_1a5504e72c2ab618c124e6472b08d26c</title>
<path fill="none" stroke="black" d="M126.16,-215.73C143.96,-192.79 173.58,-150.21 185,-108 189.18,-92.56 192.27,-86.25 185,-72 178.77,-59.77 168.24,-49.7 157.1,-41.75"/>
<polygon fill="black" stroke="black" points="158.79,-38.67 148.51,-36.08 154.93,-44.51 158.79,-38.67"/>
<g id="a_edge6&#45;headlabel"><a xlink:href="dir_000220_000130.html" target="_top" xlink:title="1">
<text text-anchor="middle" x="163.35" y="-35.78" font-family="Helvetica,sans-Serif" font-size="10.00">1</text>
</a>
</g>
</g>
<!-- dir_e185953657720ba3a67126696ef566c7 -->
<g id="node5" class="node">
<title>dir_e185953657720ba3a67126696ef566c7</title>
<g id="a_node5"><a xlink:href="dir_e185953657720ba3a67126696ef566c7.html" target="_top" xlink:title="Interfaces">
<polygon fill="none" stroke="red" points="175.5,-108 110.5,-108 110.5,-72 175.5,-72 175.5,-108"/>
<text text-anchor="middle" x="143" y="-87.5" font-family="Helvetica,sans-Serif" font-size="10.00">Interfaces</text>
</a>
</g>
</g>
<!-- dir_263bc2710b106394c86ba7c20ae0cf95&#45;&gt;dir_e185953657720ba3a67126696ef566c7 -->
<g id="edge7" class="edge">
<title>dir_263bc2710b106394c86ba7c20ae0cf95&#45;&gt;dir_e185953657720ba3a67126696ef566c7</title>
<path fill="none" stroke="black" d="M115.74,-215.87C121.05,-191.56 130.81,-146.82 137.1,-118.01"/>
<polygon fill="black" stroke="black" points="140.53,-118.71 139.25,-108.19 133.7,-117.21 140.53,-118.71"/>
<g id="a_edge7&#45;headlabel"><a xlink:href="dir_000220_000093.html" target="_top" xlink:title="1">
<text text-anchor="middle" x="142.54" y="-120.32" font-family="Helvetica,sans-Serif" font-size="10.00">1</text>
</a>
</g>
</g>
<!-- dir_a4226c5615a06a31e6344f5f3fd917e1&#45;&gt;dir_c2cd4762e89f989d55fa2b0634ddfc81 -->
<g id="edge1" class="edge">
<title>dir_a4226c5615a06a31e6344f5f3fd917e1&#45;&gt;dir_c2cd4762e89f989d55fa2b0634ddfc81</title>
<path fill="none" stroke="black" d="M63.24,-143.7C55.82,-135.47 47.62,-125.48 40.82,-116.42"/>
<polygon fill="black" stroke="black" points="43.49,-114.15 34.79,-108.1 37.82,-118.26 43.49,-114.15"/>
<g id="a_edge1&#45;headlabel"><a xlink:href="dir_000016_000081.html" target="_top" xlink:title="2">
<text text-anchor="middle" x="47.9" y="-112.89" font-family="Helvetica,sans-Serif" font-size="10.00">2</text>
</a>
</g>
</g>
<!-- dir_a4226c5615a06a31e6344f5f3fd917e1&#45;&gt;dir_1a5504e72c2ab618c124e6472b08d26c -->
<g id="edge2" class="edge">
<title>dir_a4226c5615a06a31e6344f5f3fd917e1&#45;&gt;dir_1a5504e72c2ab618c124e6472b08d26c</title>
<path fill="none" stroke="black" d="M86.5,-143.87C91.46,-119.56 100.6,-74.82 106.48,-46.01"/>
<polygon fill="black" stroke="black" points="109.92,-46.69 108.49,-36.19 103.06,-45.29 109.92,-46.69"/>
<g id="a_edge2&#45;headlabel"><a xlink:href="dir_000016_000130.html" target="_top" xlink:title="26">
<text text-anchor="middle" x="111.98" y="-48.28" font-family="Helvetica,sans-Serif" font-size="10.00">26</text>
</a>
</g>
</g>
<!-- dir_a4226c5615a06a31e6344f5f3fd917e1&#45;&gt;dir_e185953657720ba3a67126696ef566c7 -->
<g id="edge3" class="edge">
<title>dir_a4226c5615a06a31e6344f5f3fd917e1&#45;&gt;dir_e185953657720ba3a67126696ef566c7</title>
<path fill="none" stroke="black" d="M91.92,-143.7C98.31,-135.22 107,-124.86 115.45,-115.58"/>
<polygon fill="black" stroke="black" points="118.17,-117.8 122.44,-108.1 113.06,-113.02 118.17,-117.8"/>
<g id="a_edge3&#45;headlabel"><a xlink:href="dir_000016_000093.html" target="_top" xlink:title="8">
<text text-anchor="middle" x="117.79" y="-119.86" font-family="Helvetica,sans-Serif" font-size="10.00">8</text>
</a>
</g>
</g>
<!-- dir_c2cd4762e89f989d55fa2b0634ddfc81&#45;&gt;dir_a4226c5615a06a31e6344f5f3fd917e1 -->
<g id="edge8" class="edge">
<title>dir_c2cd4762e89f989d55fa2b0634ddfc81&#45;&gt;dir_a4226c5615a06a31e6344f5f3fd917e1</title>
<path fill="none" stroke="black" d="M46.58,-108.1C53.99,-116.3 62.19,-126.28 69.02,-135.36"/>
<polygon fill="black" stroke="black" points="66.36,-137.66 75.07,-143.7 72.03,-133.55 66.36,-137.66"/>
<g id="a_edge8&#45;headlabel"><a xlink:href="dir_000081_000016.html" target="_top" xlink:title="4">
<text text-anchor="middle" x="61.96" y="-133.92" font-family="Helvetica,sans-Serif" font-size="10.00">4</text>
</a>
</g>
</g>
<!-- dir_c2cd4762e89f989d55fa2b0634ddfc81&#45;&gt;dir_1a5504e72c2ab618c124e6472b08d26c -->
<g id="edge9" class="edge">
<title>dir_c2cd4762e89f989d55fa2b0634ddfc81&#45;&gt;dir_1a5504e72c2ab618c124e6472b08d26c</title>
<path fill="none" stroke="black" d="M48.01,-71.7C58.72,-62.88 71.89,-52.03 83.5,-42.47"/>
<polygon fill="black" stroke="black" points="85.74,-45.16 91.23,-36.1 81.29,-39.76 85.74,-45.16"/>
<g id="a_edge9&#45;headlabel"><a xlink:href="dir_000081_000130.html" target="_top" xlink:title="3">
<text text-anchor="middle" x="84.77" y="-47.14" font-family="Helvetica,sans-Serif" font-size="10.00">3</text>
</a>
</g>
</g>
<!-- dir_e185953657720ba3a67126696ef566c7&#45;&gt;dir_a4226c5615a06a31e6344f5f3fd917e1 -->
<g id="edge10" class="edge">
<title>dir_e185953657720ba3a67126696ef566c7&#45;&gt;dir_a4226c5615a06a31e6344f5f3fd917e1</title>
<path fill="none" stroke="black" d="M134.23,-108.1C127.88,-116.55 119.21,-126.9 110.75,-136.2"/>
<polygon fill="black" stroke="black" points="108.01,-134 103.75,-143.7 113.13,-138.78 108.01,-134"/>
<g id="a_edge10&#45;headlabel"><a xlink:href="dir_000093_000016.html" target="_top" xlink:title="21">
<text text-anchor="middle" x="108.39" y="-126.93" font-family="Helvetica,sans-Serif" font-size="10.00">21</text>
</a>
</g>
</g>
<!-- dir_e185953657720ba3a67126696ef566c7&#45;&gt;dir_1a5504e72c2ab618c124e6472b08d26c -->
<g id="edge11" class="edge">
<title>dir_e185953657720ba3a67126696ef566c7&#45;&gt;dir_1a5504e72c2ab618c124e6472b08d26c</title>
<path fill="none" stroke="black" d="M135.34,-71.7C131.81,-63.73 127.54,-54.1 123.63,-45.26"/>
<polygon fill="black" stroke="black" points="126.82,-43.83 119.57,-36.1 120.42,-46.67 126.82,-43.83"/>
<g id="a_edge11&#45;headlabel"><a xlink:href="dir_000093_000130.html" target="_top" xlink:title="13">
<text text-anchor="middle" x="130.88" y="-43.47" font-family="Helvetica,sans-Serif" font-size="10.00">13</text>
</a>
</g>
</g>
</g>
</svg>
