<?xml version="1.0" encoding="UTF-8" standalone="no"?>
<!DOCTYPE svg PUBLIC "-//W3C//DTD SVG 1.1//EN"
 "http://www.w3.org/Graphics/SVG/1.1/DTD/svg11.dtd">
<!-- Generated by graphviz version 2.43.0 (0)
 -->
<!-- Title: Components/Interfaces/ServiceBase Pages: 1 -->
<svg width="266pt" height="375pt"
 viewBox="0.00 0.00 266.05 375.00" xmlns="http://www.w3.org/2000/svg" xmlns:xlink="http://www.w3.org/1999/xlink">
<g id="graph0" class="graph" transform="scale(1 1) rotate(0) translate(4 371)">
<title>Components/Interfaces/ServiceBase</title>
<g id="clust1" class="cluster">
<title>clusterdir_e185953657720ba3a67126696ef566c7</title>
<g id="a_clust1"><a xlink:href="dir_e185953657720ba3a67126696ef566c7.html" target="_top" xlink:title="Interfaces">
<polygon fill="#ddddee" stroke="black" points="8,-200 8,-359 190,-359 190,-200 8,-200"/>
<text text-anchor="middle" x="99" y="-347" font-family="Helvetica,sans-Serif" font-size="10.00">Interfaces</text>
</a>
</g>
</g>
<g id="clust2" class="cluster">
<title>clusterdir_6f81379d7febf10590fd51a9eccd5409</title>
<g id="a_clust2"><a xlink:href="dir_6f81379d7febf10590fd51a9eccd5409.html" target="_top">
<polygon fill="#eeeeff" stroke="black" points="16,-208 16,-332 182,-332 182,-208 16,-208"/>
</a>
</g>
</g>
<!-- dir_6f81379d7febf10590fd51a9eccd5409 -->
<g id="node1" class="node">
<title>dir_6f81379d7febf10590fd51a9eccd5409</title>
<text text-anchor="middle" x="135" y="-303.5" font-family="Helvetica,sans-Serif" font-size="10.00">ServiceBase</text>
</g>
<!-- dir_c64ba83a7295b017f26952d186be59da -->
<g id="node2" class="node">
<title>dir_c64ba83a7295b017f26952d186be59da</title>
<g id="a_node2"><a xlink:href="dir_c64ba83a7295b017f26952d186be59da.html" target="_top" xlink:title="include">
<polygon fill="white" stroke="black" points="125,-252 71,-252 71,-216 125,-216 125,-252"/>
<text text-anchor="middle" x="98" y="-231.5" font-family="Helvetica,sans-Serif" font-size="10.00">include</text>
</a>
</g>
</g>
<!-- dir_a4226c5615a06a31e6344f5f3fd917e1 -->
<g id="node4" class="node">
<title>dir_a4226c5615a06a31e6344f5f3fd917e1</title>
<g id="a_node4"><a xlink:href="dir_a4226c5615a06a31e6344f5f3fd917e1.html" target="_top" xlink:title="Objects">
<polygon fill="none" stroke="red" points="252,-252 198,-252 198,-216 252,-216 252,-252"/>
<text text-anchor="middle" x="225" y="-231.5" font-family="Helvetica,sans-Serif" font-size="10.00">Objects</text>
</a>
</g>
</g>
<!-- dir_c64ba83a7295b017f26952d186be59da&#45;&gt;dir_a4226c5615a06a31e6344f5f3fd917e1 -->
<g id="edge6" class="edge">
<title>dir_c64ba83a7295b017f26952d186be59da&#45;&gt;dir_a4226c5615a06a31e6344f5f3fd917e1</title>
<path fill="none" stroke="black" d="M125.29,-234C146.04,-234 166.79,-234 187.55,-234"/>
<polygon fill="black" stroke="black" points="187.73,-237.5 197.73,-234 187.73,-230.5 187.73,-237.5"/>
<g id="a_edge6&#45;headlabel"><a xlink:href="dir_000136_000015.html" target="_top" xlink:title="4">
<text text-anchor="middle" x="184.14" y="-237.84" font-family="Helvetica,sans-Serif" font-size="10.00">4</text>
</a>
</g>
</g>
<!-- dir_1a5504e72c2ab618c124e6472b08d26c -->
<g id="node5" class="node">
<title>dir_1a5504e72c2ab618c124e6472b08d26c</title>
<g id="a_node5"><a xlink:href="dir_1a5504e72c2ab618c124e6472b08d26c.html" target="_top" xlink:title="Global_Include">
<polygon fill="none" stroke="black" points="228.5,-36 139.5,-36 139.5,0 228.5,0 228.5,-36"/>
<text text-anchor="middle" x="184" y="-15.5" font-family="Helvetica,sans-Serif" font-size="10.00">Global_Include</text>
</a>
</g>
</g>
<!-- dir_c64ba83a7295b017f26952d186be59da&#45;&gt;dir_1a5504e72c2ab618c124e6472b08d26c -->
<g id="edge7" class="edge">
<title>dir_c64ba83a7295b017f26952d186be59da&#45;&gt;dir_1a5504e72c2ab618c124e6472b08d26c</title>
<path fill="none" stroke="black" d="M95.04,-215.82C92.57,-197.56 90.53,-168.05 98,-144 110.15,-104.9 139.25,-67.2 160.24,-43.62"/>
<polygon fill="black" stroke="black" points="162.86,-45.93 167.01,-36.18 157.69,-41.22 162.86,-45.93"/>
<g id="a_edge7&#45;headlabel"><a xlink:href="dir_000136_000117.html" target="_top" xlink:title="2">
<text text-anchor="middle" x="162.55" y="-48" font-family="Helvetica,sans-Serif" font-size="10.00">2</text>
</a>
</g>
</g>
<!-- dir_4d0b0adf7e9fb892c3df556e9cbb05d0 -->
<g id="node6" class="node">
<title>dir_4d0b0adf7e9fb892c3df556e9cbb05d0</title>
<g id="a_node6"><a xlink:href="dir_4d0b0adf7e9fb892c3df556e9cbb05d0.html" target="_top" xlink:title="Protocols">
<polygon fill="none" stroke="red" points="188,-180 126,-180 126,-144 188,-144 188,-180"/>
<text text-anchor="middle" x="157" y="-159.5" font-family="Helvetica,sans-Serif" font-size="10.00">Protocols</text>
</a>
</g>
</g>
<!-- dir_c64ba83a7295b017f26952d186be59da&#45;&gt;dir_4d0b0adf7e9fb892c3df556e9cbb05d0 -->
<g id="edge8" class="edge">
<title>dir_c64ba83a7295b017f26952d186be59da&#45;&gt;dir_4d0b0adf7e9fb892c3df556e9cbb05d0</title>
<path fill="none" stroke="black" d="M112.58,-215.7C119.66,-207.3 128.28,-197.07 136.05,-187.86"/>
<polygon fill="black" stroke="black" points="138.81,-190.01 142.58,-180.1 133.46,-185.49 138.81,-190.01"/>
<g id="a_edge8&#45;headlabel"><a xlink:href="dir_000136_000060.html" target="_top" xlink:title="2">
<text text-anchor="middle" x="138.67" y="-192.08" font-family="Helvetica,sans-Serif" font-size="10.00">2</text>
</a>
</g>
</g>
<!-- dir_6a49a4a01df89ea000e629175e7db917 -->
<g id="node7" class="node">
<title>dir_6a49a4a01df89ea000e629175e7db917</title>
<g id="a_node7"><a xlink:href="dir_6a49a4a01df89ea000e629175e7db917.html" target="_top" xlink:title="RTOS">
<polygon fill="none" stroke="red" points="239,-108 185,-108 185,-72 239,-72 239,-108"/>
<text text-anchor="middle" x="212" y="-87.5" font-family="Helvetica,sans-Serif" font-size="10.00">RTOS</text>
</a>
</g>
</g>
<!-- dir_c64ba83a7295b017f26952d186be59da&#45;&gt;dir_6a49a4a01df89ea000e629175e7db917 -->
<g id="edge9" class="edge">
<title>dir_c64ba83a7295b017f26952d186be59da&#45;&gt;dir_6a49a4a01df89ea000e629175e7db917</title>
<path fill="none" stroke="black" d="M97.61,-215.9C98.02,-196.63 101.33,-165.22 117,-144 131.37,-124.55 155.13,-111.29 175.29,-102.91"/>
<polygon fill="black" stroke="black" points="176.81,-106.07 184.85,-99.17 174.26,-99.55 176.81,-106.07"/>
<g id="a_edge9&#45;headlabel"><a xlink:href="dir_000136_000067.html" target="_top" xlink:title="2">
<text text-anchor="middle" x="174.49" y="-107.53" font-family="Helvetica,sans-Serif" font-size="10.00">2</text>
</a>
</g>
</g>
<!-- dir_1d3196b8cc8483c65d6965152f3a71af -->
<g id="node3" class="node">
<title>dir_1d3196b8cc8483c65d6965152f3a71af</title>
<g id="a_node3"><a xlink:href="dir_1d3196b8cc8483c65d6965152f3a71af.html" target="_top" xlink:title="test">
<polygon fill="white" stroke="red" points="78,-324 24,-324 24,-288 78,-288 78,-324"/>
<text text-anchor="middle" x="51" y="-303.5" font-family="Helvetica,sans-Serif" font-size="10.00">test</text>
</a>
</g>
</g>
<!-- dir_1d3196b8cc8483c65d6965152f3a71af&#45;&gt;dir_c64ba83a7295b017f26952d186be59da -->
<g id="edge5" class="edge">
<title>dir_1d3196b8cc8483c65d6965152f3a71af&#45;&gt;dir_c64ba83a7295b017f26952d186be59da</title>
<path fill="none" stroke="black" d="M62.62,-287.7C68.14,-279.47 74.85,-269.48 80.93,-260.42"/>
<polygon fill="black" stroke="black" points="83.85,-262.36 86.52,-252.1 78.04,-258.46 83.85,-262.36"/>
<g id="a_edge5&#45;headlabel"><a xlink:href="dir_000098_000136.html" target="_top" xlink:title="1">
<text text-anchor="middle" x="84.2" y="-264.42" font-family="Helvetica,sans-Serif" font-size="10.00">1</text>
</a>
</g>
</g>
<!-- dir_a4226c5615a06a31e6344f5f3fd917e1&#45;&gt;dir_c64ba83a7295b017f26952d186be59da -->
<g id="edge2" class="edge">
<title>dir_a4226c5615a06a31e6344f5f3fd917e1&#45;&gt;dir_c64ba83a7295b017f26952d186be59da</title>
<path fill="none" stroke="black" d="M197.73,-234C176.98,-234 156.23,-234 135.47,-234"/>
<polygon fill="black" stroke="black" points="135.29,-230.5 125.29,-234 135.29,-237.5 135.29,-230.5"/>
<g id="a_edge2&#45;headlabel"><a xlink:href="dir_000015_000136.html" target="_top" xlink:title="1">
<text text-anchor="middle" x="138.88" y="-225.16" font-family="Helvetica,sans-Serif" font-size="10.00">1</text>
</a>
</g>
</g>
<!-- dir_a4226c5615a06a31e6344f5f3fd917e1&#45;&gt;dir_1a5504e72c2ab618c124e6472b08d26c -->
<g id="edge1" class="edge">
<title>dir_a4226c5615a06a31e6344f5f3fd917e1&#45;&gt;dir_1a5504e72c2ab618c124e6472b08d26c</title>
<path fill="none" stroke="black" d="M233.57,-215.61C247.35,-185.03 270.71,-120.29 248,-72 242.48,-60.26 232.93,-50.22 222.88,-42.15"/>
<polygon fill="black" stroke="black" points="224.88,-39.27 214.77,-36.09 220.69,-44.88 224.88,-39.27"/>
<g id="a_edge1&#45;headlabel"><a xlink:href="dir_000015_000117.html" target="_top" xlink:title="22">
<text text-anchor="middle" x="229.46" y="-36.65" font-family="Helvetica,sans-Serif" font-size="10.00">22</text>
</a>
</g>
</g>
<!-- dir_a4226c5615a06a31e6344f5f3fd917e1&#45;&gt;dir_4d0b0adf7e9fb892c3df556e9cbb05d0 -->
<g id="edge3" class="edge">
<title>dir_a4226c5615a06a31e6344f5f3fd917e1&#45;&gt;dir_4d0b0adf7e9fb892c3df556e9cbb05d0</title>
<path fill="none" stroke="black" d="M202.28,-215.7C193.17,-207.22 182.92,-196.86 174.4,-187.58"/>
<polygon fill="black" stroke="black" points="176.99,-185.23 167.72,-180.1 171.77,-189.89 176.99,-185.23"/>
<g id="a_edge3&#45;headlabel"><a xlink:href="dir_000015_000060.html" target="_top" xlink:title="3">
<text text-anchor="middle" x="181.51" y="-183.52" font-family="Helvetica,sans-Serif" font-size="10.00">3</text>
</a>
</g>
</g>
<!-- dir_a4226c5615a06a31e6344f5f3fd917e1&#45;&gt;dir_6a49a4a01df89ea000e629175e7db917 -->
<g id="edge4" class="edge">
<title>dir_a4226c5615a06a31e6344f5f3fd917e1&#45;&gt;dir_6a49a4a01df89ea000e629175e7db917</title>
<path fill="none" stroke="black" d="M218.85,-215.87C214.07,-191.67 209.71,-147.21 209.05,-118.39"/>
<polygon fill="black" stroke="black" points="212.55,-118.17 208.98,-108.19 205.55,-118.21 212.55,-118.17"/>
<g id="a_edge4&#45;headlabel"><a xlink:href="dir_000015_000067.html" target="_top" xlink:title="4">
<text text-anchor="middle" x="215.41" y="-119.24" font-family="Helvetica,sans-Serif" font-size="10.00">4</text>
</a>
</g>
</g>
<!-- dir_4d0b0adf7e9fb892c3df556e9cbb05d0&#45;&gt;dir_a4226c5615a06a31e6344f5f3fd917e1 -->
<g id="edge10" class="edge">
<title>dir_4d0b0adf7e9fb892c3df556e9cbb05d0&#45;&gt;dir_a4226c5615a06a31e6344f5f3fd917e1</title>
<path fill="none" stroke="black" d="M179.51,-180.1C188.6,-188.55 198.85,-198.9 207.4,-208.2"/>
<polygon fill="black" stroke="black" points="204.83,-210.58 214.11,-215.7 210.05,-205.91 204.83,-210.58"/>
<g id="a_edge10&#45;headlabel"><a xlink:href="dir_000060_000015.html" target="_top" xlink:title="11">
<text text-anchor="middle" x="200.32" y="-207.29" font-family="Helvetica,sans-Serif" font-size="10.00">11</text>
</a>
</g>
</g>
<!-- dir_4d0b0adf7e9fb892c3df556e9cbb05d0&#45;&gt;dir_1a5504e72c2ab618c124e6472b08d26c -->
<g id="edge11" class="edge">
<title>dir_4d0b0adf7e9fb892c3df556e9cbb05d0&#45;&gt;dir_1a5504e72c2ab618c124e6472b08d26c</title>
<path fill="none" stroke="black" d="M160.26,-143.87C164.86,-119.67 173.31,-75.21 178.79,-46.39"/>
<polygon fill="black" stroke="black" points="182.3,-46.67 180.73,-36.19 175.43,-45.36 182.3,-46.67"/>
<g id="a_edge11&#45;headlabel"><a xlink:href="dir_000060_000117.html" target="_top" xlink:title="8">
<text text-anchor="middle" x="184.42" y="-48.23" font-family="Helvetica,sans-Serif" font-size="10.00">8</text>
</a>
</g>
</g>
<!-- dir_4d0b0adf7e9fb892c3df556e9cbb05d0&#45;&gt;dir_6a49a4a01df89ea000e629175e7db917 -->
<g id="edge12" class="edge">
<title>dir_4d0b0adf7e9fb892c3df556e9cbb05d0&#45;&gt;dir_6a49a4a01df89ea000e629175e7db917</title>
<path fill="none" stroke="black" d="M170.6,-143.7C177.12,-135.39 185.07,-125.28 192.25,-116.14"/>
<polygon fill="black" stroke="black" points="195.13,-118.13 198.56,-108.1 189.63,-113.81 195.13,-118.13"/>
<g id="a_edge12&#45;headlabel"><a xlink:href="dir_000060_000067.html" target="_top" xlink:title="3">
<text text-anchor="middle" x="195.15" y="-120.21" font-family="Helvetica,sans-Serif" font-size="10.00">3</text>
</a>
</g>
</g>
<!-- dir_6a49a4a01df89ea000e629175e7db917&#45;&gt;dir_a4226c5615a06a31e6344f5f3fd917e1 -->
<g id="edge13" class="edge">
<title>dir_6a49a4a01df89ea000e629175e7db917&#45;&gt;dir_a4226c5615a06a31e6344f5f3fd917e1</title>
<path fill="none" stroke="black" d="M218.16,-108.19C222.94,-132.42 227.3,-176.89 227.95,-205.68"/>
<polygon fill="black" stroke="black" points="224.45,-205.89 228.02,-215.87 231.45,-205.85 224.45,-205.89"/>
<g id="a_edge13&#45;headlabel"><a xlink:href="dir_000067_000015.html" target="_top" xlink:title="2">
<text text-anchor="middle" x="221.59" y="-199.82" font-family="Helvetica,sans-Serif" font-size="10.00">2</text>
</a>
</g>
</g>
<!-- dir_6a49a4a01df89ea000e629175e7db917&#45;&gt;dir_1a5504e72c2ab618c124e6472b08d26c -->
<g id="edge14" class="edge">
<title>dir_6a49a4a01df89ea000e629175e7db917&#45;&gt;dir_1a5504e72c2ab618c124e6472b08d26c</title>
<path fill="none" stroke="black" d="M205.08,-71.7C201.93,-63.81 198.12,-54.3 194.62,-45.55"/>
<polygon fill="black" stroke="black" points="197.81,-44.09 190.84,-36.1 191.31,-46.69 197.81,-44.09"/>
<g id="a_edge14&#45;headlabel"><a xlink:href="dir_000067_000117.html" target="_top" xlink:title="2">
<text text-anchor="middle" x="201.78" y="-43.87" font-family="Helvetica,sans-Serif" font-size="10.00">2</text>
</a>
</g>
</g>
</g>
</svg>
