<?xml version="1.0" encoding="UTF-8" standalone="no"?>
<!DOCTYPE svg PUBLIC "-//W3C//DTD SVG 1.1//EN"
 "http://www.w3.org/Graphics/SVG/1.1/DTD/svg11.dtd">
<!-- Generated by graphviz version 2.43.0 (0)
 -->
<!-- Title: Components/Objects/Watchdog Pages: 1 -->
<svg width="266pt" height="447pt"
 viewBox="0.00 0.00 266.00 447.00" xmlns="http://www.w3.org/2000/svg" xmlns:xlink="http://www.w3.org/1999/xlink">
<g id="graph0" class="graph" transform="scale(1 1) rotate(0) translate(4 443)">
<title>Components/Objects/Watchdog</title>
<g id="clust1" class="cluster">
<title>clusterdir_a4226c5615a06a31e6344f5f3fd917e1</title>
<g id="a_clust1"><a xlink:href="dir_a4226c5615a06a31e6344f5f3fd917e1.html" target="_top" xlink:title="Objects">
<polygon fill="#ddddee" stroke="black" points="8,-272 8,-431 250,-431 250,-272 8,-272"/>
<text text-anchor="middle" x="129" y="-419" font-family="Helvetica,sans-Serif" font-size="10.00">Objects</text>
</a>
</g>
</g>
<g id="clust2" class="cluster">
<title>clusterdir_f5aa2036925efca15e61136d01981e37</title>
<g id="a_clust2"><a xlink:href="dir_f5aa2036925efca15e61136d01981e37.html" target="_top">
<polygon fill="#eeeeff" stroke="black" points="16,-280 16,-404 242,-404 242,-280 16,-280"/>
</a>
</g>
</g>
<!-- dir_f5aa2036925efca15e61136d01981e37 -->
<g id="node1" class="node">
<title>dir_f5aa2036925efca15e61136d01981e37</title>
<text text-anchor="middle" x="201" y="-375.5" font-family="Helvetica,sans-Serif" font-size="10.00">Watchdog</text>
</g>
<!-- dir_64ce543db76d4ee4e2589de7e1cd1f4a -->
<g id="node2" class="node">
<title>dir_64ce543db76d4ee4e2589de7e1cd1f4a</title>
<g id="a_node2"><a xlink:href="dir_64ce543db76d4ee4e2589de7e1cd1f4a.html" target="_top" xlink:title="include">
<polygon fill="white" stroke="black" points="114,-324 60,-324 60,-288 114,-288 114,-324"/>
<text text-anchor="middle" x="87" y="-303.5" font-family="Helvetica,sans-Serif" font-size="10.00">include</text>
</a>
</g>
</g>
<!-- dir_4816d2fb8abcfd1fbfb7e56b67e0baa1 -->
<g id="node5" class="node">
<title>dir_4816d2fb8abcfd1fbfb7e56b67e0baa1</title>
<g id="a_node5"><a xlink:href="dir_4816d2fb8abcfd1fbfb7e56b67e0baa1.html" target="_top" xlink:title="ErrorHandler">
<polygon fill="none" stroke="red" points="224,-180 146,-180 146,-144 224,-144 224,-180"/>
<text text-anchor="middle" x="185" y="-159.5" font-family="Helvetica,sans-Serif" font-size="10.00">ErrorHandler</text>
</a>
</g>
</g>
<!-- dir_64ce543db76d4ee4e2589de7e1cd1f4a&#45;&gt;dir_4816d2fb8abcfd1fbfb7e56b67e0baa1 -->
<g id="edge5" class="edge">
<title>dir_64ce543db76d4ee4e2589de7e1cd1f4a&#45;&gt;dir_4816d2fb8abcfd1fbfb7e56b67e0baa1</title>
<path fill="none" stroke="black" d="M102.76,-287.93C111.77,-277.82 123.02,-264.57 132,-252 146.51,-231.69 160.87,-207.24 170.97,-189.11"/>
<polygon fill="black" stroke="black" points="174.09,-190.71 175.85,-180.26 167.96,-187.33 174.09,-190.71"/>
<g id="a_edge5&#45;headlabel"><a xlink:href="dir_000195_000024.html" target="_top" xlink:title="1">
<text text-anchor="middle" x="174.84" y="-192.73" font-family="Helvetica,sans-Serif" font-size="10.00">1</text>
</a>
</g>
</g>
<!-- dir_1a5504e72c2ab618c124e6472b08d26c -->
<g id="node6" class="node">
<title>dir_1a5504e72c2ab618c124e6472b08d26c</title>
<g id="a_node6"><a xlink:href="dir_1a5504e72c2ab618c124e6472b08d26c.html" target="_top" xlink:title="Global_Include">
<polygon fill="none" stroke="black" points="124.5,-36 35.5,-36 35.5,0 124.5,0 124.5,-36"/>
<text text-anchor="middle" x="80" y="-15.5" font-family="Helvetica,sans-Serif" font-size="10.00">Global_Include</text>
</a>
</g>
</g>
<!-- dir_64ce543db76d4ee4e2589de7e1cd1f4a&#45;&gt;dir_1a5504e72c2ab618c124e6472b08d26c -->
<g id="edge6" class="edge">
<title>dir_64ce543db76d4ee4e2589de7e1cd1f4a&#45;&gt;dir_1a5504e72c2ab618c124e6472b08d26c</title>
<path fill="none" stroke="black" d="M59.92,-293.01C43.67,-284.21 24.38,-270.56 15,-252 -20.63,-181.52 31.15,-88.87 61.16,-44.64"/>
<polygon fill="black" stroke="black" points="64.18,-46.42 67.01,-36.21 58.43,-42.43 64.18,-46.42"/>
<g id="a_edge6&#45;headlabel"><a xlink:href="dir_000195_000127.html" target="_top" xlink:title="1">
<text text-anchor="middle" x="64.46" y="-48.49" font-family="Helvetica,sans-Serif" font-size="10.00">1</text>
</a>
</g>
</g>
<!-- dir_e185953657720ba3a67126696ef566c7 -->
<g id="node7" class="node">
<title>dir_e185953657720ba3a67126696ef566c7</title>
<g id="a_node7"><a xlink:href="dir_e185953657720ba3a67126696ef566c7.html" target="_top" xlink:title="Interfaces">
<polygon fill="none" stroke="red" points="89.5,-252 24.5,-252 24.5,-216 89.5,-216 89.5,-252"/>
<text text-anchor="middle" x="57" y="-231.5" font-family="Helvetica,sans-Serif" font-size="10.00">Interfaces</text>
</a>
</g>
</g>
<!-- dir_64ce543db76d4ee4e2589de7e1cd1f4a&#45;&gt;dir_e185953657720ba3a67126696ef566c7 -->
<g id="edge7" class="edge">
<title>dir_64ce543db76d4ee4e2589de7e1cd1f4a&#45;&gt;dir_e185953657720ba3a67126696ef566c7</title>
<path fill="none" stroke="black" d="M79.58,-287.7C76.21,-279.81 72.13,-270.3 68.38,-261.55"/>
<polygon fill="black" stroke="black" points="71.49,-259.92 64.33,-252.1 65.05,-262.67 71.49,-259.92"/>
<g id="a_edge7&#45;headlabel"><a xlink:href="dir_000195_000094.html" target="_top" xlink:title="1">
<text text-anchor="middle" x="75.51" y="-259.6" font-family="Helvetica,sans-Serif" font-size="10.00">1</text>
</a>
</g>
</g>
<!-- dir_82ae37b9d9d4852b543931d9ede35f57 -->
<g id="node8" class="node">
<title>dir_82ae37b9d9d4852b543931d9ede35f57</title>
<g id="a_node8"><a xlink:href="dir_82ae37b9d9d4852b543931d9ede35f57.html" target="_top" xlink:title="Timeservice">
<polygon fill="none" stroke="red" points="156.5,-108 79.5,-108 79.5,-72 156.5,-72 156.5,-108"/>
<text text-anchor="middle" x="118" y="-87.5" font-family="Helvetica,sans-Serif" font-size="10.00">Timeservice</text>
</a>
</g>
</g>
<!-- dir_64ce543db76d4ee4e2589de7e1cd1f4a&#45;&gt;dir_82ae37b9d9d4852b543931d9ede35f57 -->
<g id="edge8" class="edge">
<title>dir_64ce543db76d4ee4e2589de7e1cd1f4a&#45;&gt;dir_82ae37b9d9d4852b543931d9ede35f57</title>
<path fill="none" stroke="black" d="M90.92,-287.88C93.2,-277.53 96,-264.05 98,-252 105.73,-205.31 111.93,-150.56 115.28,-118.44"/>
<polygon fill="black" stroke="black" points="118.76,-118.76 116.3,-108.46 111.8,-118.05 118.76,-118.76"/>
<g id="a_edge8&#45;headlabel"><a xlink:href="dir_000195_000057.html" target="_top" xlink:title="1">
<text text-anchor="middle" x="121.22" y="-120.13" font-family="Helvetica,sans-Serif" font-size="10.00">1</text>
</a>
</g>
</g>
<!-- dir_1f87fbf685570cd9af24aa3e65a4b127 -->
<g id="node3" class="node">
<title>dir_1f87fbf685570cd9af24aa3e65a4b127</title>
<g id="a_node3"><a xlink:href="dir_1f87fbf685570cd9af24aa3e65a4b127.html" target="_top" xlink:title="src">
<polygon fill="white" stroke="black" points="150,-396 96,-396 96,-360 150,-360 150,-396"/>
<text text-anchor="middle" x="123" y="-375.5" font-family="Helvetica,sans-Serif" font-size="10.00">src</text>
</a>
</g>
</g>
<!-- dir_1f87fbf685570cd9af24aa3e65a4b127&#45;&gt;dir_64ce543db76d4ee4e2589de7e1cd1f4a -->
<g id="edge2" class="edge">
<title>dir_1f87fbf685570cd9af24aa3e65a4b127&#45;&gt;dir_64ce543db76d4ee4e2589de7e1cd1f4a</title>
<path fill="none" stroke="black" d="M114.1,-359.7C110,-351.73 105.05,-342.1 100.51,-333.26"/>
<polygon fill="black" stroke="black" points="103.48,-331.4 95.8,-324.1 97.26,-334.6 103.48,-331.4"/>
<g id="a_edge2&#45;headlabel"><a xlink:href="dir_000196_000195.html" target="_top" xlink:title="1">
<text text-anchor="middle" x="107.65" y="-330.79" font-family="Helvetica,sans-Serif" font-size="10.00">1</text>
</a>
</g>
</g>
<!-- dir_bd475a8fe6e6668443d15cd31f94a0b1 -->
<g id="node4" class="node">
<title>dir_bd475a8fe6e6668443d15cd31f94a0b1</title>
<g id="a_node4"><a xlink:href="dir_bd475a8fe6e6668443d15cd31f94a0b1.html" target="_top" xlink:title="test">
<polygon fill="white" stroke="red" points="78,-396 24,-396 24,-360 78,-360 78,-396"/>
<text text-anchor="middle" x="51" y="-375.5" font-family="Helvetica,sans-Serif" font-size="10.00">test</text>
</a>
</g>
</g>
<!-- dir_bd475a8fe6e6668443d15cd31f94a0b1&#45;&gt;dir_64ce543db76d4ee4e2589de7e1cd1f4a -->
<g id="edge1" class="edge">
<title>dir_bd475a8fe6e6668443d15cd31f94a0b1&#45;&gt;dir_64ce543db76d4ee4e2589de7e1cd1f4a</title>
<path fill="none" stroke="black" d="M59.9,-359.7C64,-351.73 68.95,-342.1 73.49,-333.26"/>
<polygon fill="black" stroke="black" points="76.74,-334.6 78.2,-324.1 70.52,-331.4 76.74,-334.6"/>
<g id="a_edge1&#45;headlabel"><a xlink:href="dir_000061_000195.html" target="_top" xlink:title="1">
<text text-anchor="middle" x="77.62" y="-336.59" font-family="Helvetica,sans-Serif" font-size="10.00">1</text>
</a>
</g>
</g>
<!-- dir_4816d2fb8abcfd1fbfb7e56b67e0baa1&#45;&gt;dir_1a5504e72c2ab618c124e6472b08d26c -->
<g id="edge3" class="edge">
<title>dir_4816d2fb8abcfd1fbfb7e56b67e0baa1&#45;&gt;dir_1a5504e72c2ab618c124e6472b08d26c</title>
<path fill="none" stroke="black" d="M185.21,-143.68C184.62,-124.49 181.12,-93.43 166,-72 157.13,-59.42 144.23,-49.24 131.12,-41.29"/>
<polygon fill="black" stroke="black" points="132.47,-38.04 122.05,-36.14 129.02,-44.12 132.47,-38.04"/>
<g id="a_edge3&#45;headlabel"><a xlink:href="dir_000024_000127.html" target="_top" xlink:title="2">
<text text-anchor="middle" x="137" y="-34.84" font-family="Helvetica,sans-Serif" font-size="10.00">2</text>
</a>
</g>
</g>
<!-- dir_4816d2fb8abcfd1fbfb7e56b67e0baa1&#45;&gt;dir_82ae37b9d9d4852b543931d9ede35f57 -->
<g id="edge4" class="edge">
<title>dir_4816d2fb8abcfd1fbfb7e56b67e0baa1&#45;&gt;dir_82ae37b9d9d4852b543931d9ede35f57</title>
<path fill="none" stroke="black" d="M162.52,-143.7C153.62,-135.3 143.64,-125.07 135.3,-115.86"/>
<polygon fill="black" stroke="black" points="137.71,-113.3 128.48,-108.1 132.46,-117.92 137.71,-113.3"/>
<g id="a_edge4&#45;headlabel"><a xlink:href="dir_000024_000057.html" target="_top" xlink:title="1">
<text text-anchor="middle" x="142.22" y="-111.62" font-family="Helvetica,sans-Serif" font-size="10.00">1</text>
</a>
</g>
</g>
<!-- dir_e185953657720ba3a67126696ef566c7&#45;&gt;dir_4816d2fb8abcfd1fbfb7e56b67e0baa1 -->
<g id="edge9" class="edge">
<title>dir_e185953657720ba3a67126696ef566c7&#45;&gt;dir_4816d2fb8abcfd1fbfb7e56b67e0baa1</title>
<path fill="none" stroke="black" d="M88.31,-215.88C105.2,-206.64 126.25,-195.13 144.38,-185.21"/>
<polygon fill="black" stroke="black" points="146.47,-188.06 153.57,-180.19 143.11,-181.92 146.47,-188.06"/>
<g id="a_edge9&#45;headlabel"><a xlink:href="dir_000094_000024.html" target="_top" xlink:title="13">
<text text-anchor="middle" x="144.68" y="-189.77" font-family="Helvetica,sans-Serif" font-size="10.00">13</text>
</a>
</g>
</g>
<!-- dir_e185953657720ba3a67126696ef566c7&#45;&gt;dir_1a5504e72c2ab618c124e6472b08d26c -->
<g id="edge10" class="edge">
<title>dir_e185953657720ba3a67126696ef566c7&#45;&gt;dir_1a5504e72c2ab618c124e6472b08d26c</title>
<path fill="none" stroke="black" d="M57.8,-215.54C59.3,-185.92 63.02,-123.97 70,-72 71.14,-63.52 72.74,-54.34 74.33,-46.03"/>
<polygon fill="black" stroke="black" points="77.78,-46.6 76.29,-36.11 70.92,-45.24 77.78,-46.6"/>
<g id="a_edge10&#45;headlabel"><a xlink:href="dir_000094_000127.html" target="_top" xlink:title="12">
<text text-anchor="middle" x="79.87" y="-48.18" font-family="Helvetica,sans-Serif" font-size="10.00">12</text>
</a>
</g>
</g>
<!-- dir_e185953657720ba3a67126696ef566c7&#45;&gt;dir_82ae37b9d9d4852b543931d9ede35f57 -->
<g id="edge11" class="edge">
<title>dir_e185953657720ba3a67126696ef566c7&#45;&gt;dir_82ae37b9d9d4852b543931d9ede35f57</title>
<path fill="none" stroke="black" d="M64.36,-215.87C74.85,-191.46 94.19,-146.43 106.56,-117.64"/>
<polygon fill="black" stroke="black" points="109.88,-118.76 110.62,-108.19 103.45,-116 109.88,-118.76"/>
<g id="a_edge11&#45;headlabel"><a xlink:href="dir_000094_000057.html" target="_top" xlink:title="2">
<text text-anchor="middle" x="111.07" y="-120.68" font-family="Helvetica,sans-Serif" font-size="10.00">2</text>
</a>
</g>
</g>
<!-- dir_82ae37b9d9d4852b543931d9ede35f57&#45;&gt;dir_4816d2fb8abcfd1fbfb7e56b67e0baa1 -->
<g id="edge12" class="edge">
<title>dir_82ae37b9d9d4852b543931d9ede35f57&#45;&gt;dir_4816d2fb8abcfd1fbfb7e56b67e0baa1</title>
<path fill="none" stroke="black" d="M140.27,-108.1C149.15,-116.47 159.14,-126.69 167.5,-135.92"/>
<polygon fill="black" stroke="black" points="165.12,-138.51 174.35,-143.7 170.37,-133.88 165.12,-138.51"/>
<g id="a_edge12&#45;headlabel"><a xlink:href="dir_000057_000024.html" target="_top" xlink:title="2">
<text text-anchor="middle" x="160.61" y="-135.19" font-family="Helvetica,sans-Serif" font-size="10.00">2</text>
</a>
</g>
</g>
<!-- dir_82ae37b9d9d4852b543931d9ede35f57&#45;&gt;dir_1a5504e72c2ab618c124e6472b08d26c -->
<g id="edge13" class="edge">
<title>dir_82ae37b9d9d4852b543931d9ede35f57&#45;&gt;dir_1a5504e72c2ab618c124e6472b08d26c</title>
<path fill="none" stroke="black" d="M108.61,-71.7C104.24,-63.64 98.94,-53.89 94.1,-44.98"/>
<polygon fill="black" stroke="black" points="97.13,-43.22 89.29,-36.1 90.98,-46.56 97.13,-43.22"/>
<g id="a_edge13&#45;headlabel"><a xlink:href="dir_000057_000127.html" target="_top" xlink:title="2">
<text text-anchor="middle" x="101.34" y="-42.53" font-family="Helvetica,sans-Serif" font-size="10.00">2</text>
</a>
</g>
</g>
</g>
</svg>
