<?xml version="1.0" encoding="UTF-8" standalone="no"?>
<!DOCTYPE svg PUBLIC "-//W3C//DTD SVG 1.1//EN"
 "http://www.w3.org/Graphics/SVG/1.1/DTD/svg11.dtd">
<!-- Generated by graphviz version 2.43.0 (0)
 -->
<!-- Title: Components/Objects/Message Pages: 1 -->
<svg width="260pt" height="231pt"
 viewBox="0.00 0.00 260.00 231.00" xmlns="http://www.w3.org/2000/svg" xmlns:xlink="http://www.w3.org/1999/xlink">
<g id="graph0" class="graph" transform="scale(1 1) rotate(0) translate(4 227)">
<title>Components/Objects/Message</title>
<g id="clust1" class="cluster">
<title>clusterdir_a4226c5615a06a31e6344f5f3fd917e1</title>
<g id="a_clust1"><a xlink:href="dir_a4226c5615a06a31e6344f5f3fd917e1.html" target="_top" xlink:title="Objects">
<polygon fill="#ddddee" stroke="black" points="8,-56 8,-215 244,-215 244,-56 8,-56"/>
<text text-anchor="middle" x="126" y="-203" font-family="Helvetica,sans-Serif" font-size="10.00">Objects</text>
</a>
</g>
</g>
<g id="clust2" class="cluster">
<title>clusterdir_75d3ebf0a258c14dff7cc60c166df24a</title>
<g id="a_clust2"><a xlink:href="dir_75d3ebf0a258c14dff7cc60c166df24a.html" target="_top">
<polygon fill="#eeeeff" stroke="black" points="16,-64 16,-188 236,-188 236,-64 16,-64"/>
</a>
</g>
</g>
<!-- dir_75d3ebf0a258c14dff7cc60c166df24a -->
<g id="node1" class="node">
<title>dir_75d3ebf0a258c14dff7cc60c166df24a</title>
<text text-anchor="middle" x="198" y="-159.5" font-family="Helvetica,sans-Serif" font-size="10.00">Message</text>
</g>
<!-- dir_f564f2971e55a5cfbad5750b98345411 -->
<g id="node2" class="node">
<title>dir_f564f2971e55a5cfbad5750b98345411</title>
<g id="a_node2"><a xlink:href="dir_f564f2971e55a5cfbad5750b98345411.html" target="_top" xlink:title="include">
<polygon fill="white" stroke="black" points="150,-108 96,-108 96,-72 150,-72 150,-108"/>
<text text-anchor="middle" x="123" y="-87.5" font-family="Helvetica,sans-Serif" font-size="10.00">include</text>
</a>
</g>
</g>
<!-- dir_4816d2fb8abcfd1fbfb7e56b67e0baa1 -->
<g id="node5" class="node">
<title>dir_4816d2fb8abcfd1fbfb7e56b67e0baa1</title>
<g id="a_node5"><a xlink:href="dir_4816d2fb8abcfd1fbfb7e56b67e0baa1.html" target="_top" xlink:title="ErrorHandler">
<polygon fill="none" stroke="red" points="111,-36 33,-36 33,0 111,0 111,-36"/>
<text text-anchor="middle" x="72" y="-15.5" font-family="Helvetica,sans-Serif" font-size="10.00">ErrorHandler</text>
</a>
</g>
</g>
<!-- dir_f564f2971e55a5cfbad5750b98345411&#45;&gt;dir_4816d2fb8abcfd1fbfb7e56b67e0baa1 -->
<g id="edge2" class="edge">
<title>dir_f564f2971e55a5cfbad5750b98345411&#45;&gt;dir_4816d2fb8abcfd1fbfb7e56b67e0baa1</title>
<path fill="none" stroke="black" d="M110.39,-71.7C104.4,-63.47 97.12,-53.48 90.52,-44.42"/>
<polygon fill="black" stroke="black" points="93.18,-42.13 84.46,-36.1 87.52,-46.25 93.18,-42.13"/>
<g id="a_edge2&#45;headlabel"><a xlink:href="dir_000131_000019.html" target="_top" xlink:title="2">
<text text-anchor="middle" x="97.59" y="-40.86" font-family="Helvetica,sans-Serif" font-size="10.00">2</text>
</a>
</g>
</g>
<!-- dir_1a5504e72c2ab618c124e6472b08d26c -->
<g id="node6" class="node">
<title>dir_1a5504e72c2ab618c124e6472b08d26c</title>
<g id="a_node6"><a xlink:href="dir_1a5504e72c2ab618c124e6472b08d26c.html" target="_top" xlink:title="Global_Include">
<polygon fill="none" stroke="black" points="218.5,-36 129.5,-36 129.5,0 218.5,0 218.5,-36"/>
<text text-anchor="middle" x="174" y="-15.5" font-family="Helvetica,sans-Serif" font-size="10.00">Global_Include</text>
</a>
</g>
</g>
<!-- dir_f564f2971e55a5cfbad5750b98345411&#45;&gt;dir_1a5504e72c2ab618c124e6472b08d26c -->
<g id="edge3" class="edge">
<title>dir_f564f2971e55a5cfbad5750b98345411&#45;&gt;dir_1a5504e72c2ab618c124e6472b08d26c</title>
<path fill="none" stroke="black" d="M135.61,-71.7C141.6,-63.47 148.88,-53.48 155.48,-44.42"/>
<polygon fill="black" stroke="black" points="158.48,-46.25 161.54,-36.1 152.82,-42.13 158.48,-46.25"/>
<g id="a_edge3&#45;headlabel"><a xlink:href="dir_000131_000095.html" target="_top" xlink:title="2">
<text text-anchor="middle" x="158.66" y="-48.32" font-family="Helvetica,sans-Serif" font-size="10.00">2</text>
</a>
</g>
</g>
<!-- dir_b5c0fd64da3eef9013654142b872c52c -->
<g id="node3" class="node">
<title>dir_b5c0fd64da3eef9013654142b872c52c</title>
<g id="a_node3"><a xlink:href="dir_b5c0fd64da3eef9013654142b872c52c.html" target="_top" xlink:title="src">
<polygon fill="white" stroke="black" points="150,-180 96,-180 96,-144 150,-144 150,-180"/>
<text text-anchor="middle" x="123" y="-159.5" font-family="Helvetica,sans-Serif" font-size="10.00">src</text>
</a>
</g>
</g>
<!-- dir_b5c0fd64da3eef9013654142b872c52c&#45;&gt;dir_f564f2971e55a5cfbad5750b98345411 -->
<g id="edge1" class="edge">
<title>dir_b5c0fd64da3eef9013654142b872c52c&#45;&gt;dir_f564f2971e55a5cfbad5750b98345411</title>
<path fill="none" stroke="black" d="M123,-143.7C123,-135.98 123,-126.71 123,-118.11"/>
<polygon fill="black" stroke="black" points="126.5,-118.1 123,-108.1 119.5,-118.1 126.5,-118.1"/>
<g id="a_edge1&#45;headlabel"><a xlink:href="dir_000132_000131.html" target="_top" xlink:title="2">
<text text-anchor="middle" x="129.34" y="-119.2" font-family="Helvetica,sans-Serif" font-size="10.00">2</text>
</a>
</g>
</g>
<!-- dir_42ef7312bfde8c932ca20d43385b62f9 -->
<g id="node4" class="node">
<title>dir_42ef7312bfde8c932ca20d43385b62f9</title>
<g id="a_node4"><a xlink:href="dir_42ef7312bfde8c932ca20d43385b62f9.html" target="_top" xlink:title="test">
<polygon fill="white" stroke="red" points="78,-180 24,-180 24,-144 78,-144 78,-180"/>
<text text-anchor="middle" x="51" y="-159.5" font-family="Helvetica,sans-Serif" font-size="10.00">test</text>
</a>
</g>
</g>
</g>
</svg>
