<?xml version="1.0" encoding="UTF-8" standalone="no"?>
<!DOCTYPE svg PUBLIC "-//W3C//DTD SVG 1.1//EN"
 "http://www.w3.org/Graphics/SVG/1.1/DTD/svg11.dtd">
<!-- Generated by graphviz version 2.43.0 (0)
 -->
<!-- Title: Components/Protocols Pages: 1 -->
<svg width="334pt" height="375pt"
 viewBox="0.00 0.00 334.00 375.00" xmlns="http://www.w3.org/2000/svg" xmlns:xlink="http://www.w3.org/1999/xlink">
<g id="graph0" class="graph" transform="scale(1 1) rotate(0) translate(4 371)">
<title>Components/Protocols</title>
<g id="clust1" class="cluster">
<title>clusterdir_08f45fe6822aeb4ce2bc268e3b1361be</title>
<g id="a_clust1"><a xlink:href="dir_08f45fe6822aeb4ce2bc268e3b1361be.html" target="_top" xlink:title="Components">
<polygon fill="#ddddee" stroke="black" points="8,-272 8,-359 318,-359 318,-272 8,-272"/>
<text text-anchor="middle" x="163" y="-347" font-family="Helvetica,sans-Serif" font-size="10.00">Components</text>
</a>
</g>
</g>
<g id="clust2" class="cluster">
<title>clusterdir_4d0b0adf7e9fb892c3df556e9cbb05d0</title>
<g id="a_clust2"><a xlink:href="dir_4d0b0adf7e9fb892c3df556e9cbb05d0.html" target="_top">
<polygon fill="#eeeeff" stroke="black" points="16,-280 16,-332 310,-332 310,-280 16,-280"/>
</a>
</g>
</g>
<!-- dir_4d0b0adf7e9fb892c3df556e9cbb05d0 -->
<g id="node1" class="node">
<title>dir_4d0b0adf7e9fb892c3df556e9cbb05d0</title>
<text text-anchor="middle" x="271" y="-303.5" font-family="Helvetica,sans-Serif" font-size="10.00">Protocols</text>
</g>
<!-- dir_3b94f0ed496e237084c8464174d64f13 -->
<g id="node2" class="node">
<title>dir_3b94f0ed496e237084c8464174d64f13</title>
<g id="a_node2"><a xlink:href="dir_3b94f0ed496e237084c8464174d64f13.html" target="_top" xlink:title="HTTP">
<polygon fill="white" stroke="red" points="222,-324 168,-324 168,-288 222,-288 222,-324"/>
<text text-anchor="middle" x="195" y="-303.5" font-family="Helvetica,sans-Serif" font-size="10.00">HTTP</text>
</a>
</g>
</g>
<!-- dir_a4226c5615a06a31e6344f5f3fd917e1 -->
<g id="node5" class="node">
<title>dir_a4226c5615a06a31e6344f5f3fd917e1</title>
<g id="a_node5"><a xlink:href="dir_a4226c5615a06a31e6344f5f3fd917e1.html" target="_top" xlink:title="Objects">
<polygon fill="none" stroke="red" points="167,-252 113,-252 113,-216 167,-216 167,-252"/>
<text text-anchor="middle" x="140" y="-231.5" font-family="Helvetica,sans-Serif" font-size="10.00">Objects</text>
</a>
</g>
</g>
<!-- dir_3b94f0ed496e237084c8464174d64f13&#45;&gt;dir_a4226c5615a06a31e6344f5f3fd917e1 -->
<g id="edge14" class="edge">
<title>dir_3b94f0ed496e237084c8464174d64f13&#45;&gt;dir_a4226c5615a06a31e6344f5f3fd917e1</title>
<path fill="none" stroke="black" d="M181.4,-287.7C174.88,-279.39 166.93,-269.28 159.75,-260.14"/>
<polygon fill="black" stroke="black" points="162.37,-257.81 153.44,-252.1 156.87,-262.13 162.37,-257.81"/>
<g id="a_edge14&#45;headlabel"><a xlink:href="dir_000064_000020.html" target="_top" xlink:title="5">
<text text-anchor="middle" x="166.82" y="-256.38" font-family="Helvetica,sans-Serif" font-size="10.00">5</text>
</a>
</g>
</g>
<!-- dir_1a5504e72c2ab618c124e6472b08d26c -->
<g id="node7" class="node">
<title>dir_1a5504e72c2ab618c124e6472b08d26c</title>
<g id="a_node7"><a xlink:href="dir_1a5504e72c2ab618c124e6472b08d26c.html" target="_top" xlink:title="Global_Include">
<polygon fill="none" stroke="black" points="169.5,-36 80.5,-36 80.5,0 169.5,0 169.5,-36"/>
<text text-anchor="middle" x="125" y="-15.5" font-family="Helvetica,sans-Serif" font-size="10.00">Global_Include</text>
</a>
</g>
</g>
<!-- dir_3b94f0ed496e237084c8464174d64f13&#45;&gt;dir_1a5504e72c2ab618c124e6472b08d26c -->
<g id="edge15" class="edge">
<title>dir_3b94f0ed496e237084c8464174d64f13&#45;&gt;dir_1a5504e72c2ab618c124e6472b08d26c</title>
<path fill="none" stroke="black" d="M211.63,-287.67C217.43,-282.22 224.19,-276.46 231,-272 249.31,-260 264.07,-270.35 276,-252 302.57,-211.12 318.18,-158.23 249,-72 231.73,-50.48 204.08,-37.54 179.27,-29.84"/>
<polygon fill="black" stroke="black" points="180.15,-26.45 169.57,-27.05 178.21,-33.18 180.15,-26.45"/>
<g id="a_edge15&#45;headlabel"><a xlink:href="dir_000064_000125.html" target="_top" xlink:title="4">
<text text-anchor="middle" x="184.39" y="-22.22" font-family="Helvetica,sans-Serif" font-size="10.00">4</text>
</a>
</g>
</g>
<!-- dir_e185953657720ba3a67126696ef566c7 -->
<g id="node8" class="node">
<title>dir_e185953657720ba3a67126696ef566c7</title>
<g id="a_node8"><a xlink:href="dir_e185953657720ba3a67126696ef566c7.html" target="_top" xlink:title="Interfaces">
<polygon fill="none" stroke="red" points="157.5,-180 92.5,-180 92.5,-144 157.5,-144 157.5,-180"/>
<text text-anchor="middle" x="125" y="-159.5" font-family="Helvetica,sans-Serif" font-size="10.00">Interfaces</text>
</a>
</g>
</g>
<!-- dir_3b94f0ed496e237084c8464174d64f13&#45;&gt;dir_e185953657720ba3a67126696ef566c7 -->
<g id="edge16" class="edge">
<title>dir_3b94f0ed496e237084c8464174d64f13&#45;&gt;dir_e185953657720ba3a67126696ef566c7</title>
<path fill="none" stroke="black" d="M194.14,-287.99C192.59,-269.34 188.23,-239.02 176,-216 170.35,-205.36 161.93,-195.36 153.56,-186.98"/>
<polygon fill="black" stroke="black" points="155.94,-184.41 146.28,-180.05 151.12,-189.48 155.94,-184.41"/>
<g id="a_edge16&#45;headlabel"><a xlink:href="dir_000064_000094.html" target="_top" xlink:title="3">
<text text-anchor="middle" x="160.5" y="-182.33" font-family="Helvetica,sans-Serif" font-size="10.00">3</text>
</a>
</g>
</g>
<!-- dir_6a49a4a01df89ea000e629175e7db917 -->
<g id="node9" class="node">
<title>dir_6a49a4a01df89ea000e629175e7db917</title>
<g id="a_node9"><a xlink:href="dir_6a49a4a01df89ea000e629175e7db917.html" target="_top" xlink:title="RTOS">
<polygon fill="none" stroke="red" points="222,-108 168,-108 168,-72 222,-72 222,-108"/>
<text text-anchor="middle" x="195" y="-87.5" font-family="Helvetica,sans-Serif" font-size="10.00">RTOS</text>
</a>
</g>
</g>
<!-- dir_3b94f0ed496e237084c8464174d64f13&#45;&gt;dir_6a49a4a01df89ea000e629175e7db917 -->
<g id="edge17" class="edge">
<title>dir_3b94f0ed496e237084c8464174d64f13&#45;&gt;dir_6a49a4a01df89ea000e629175e7db917</title>
<path fill="none" stroke="black" d="M213.1,-287.97C218.76,-282.76 225.08,-277.07 231,-272 241.81,-262.74 249.84,-264.82 256,-252 276.79,-208.74 275.91,-187.68 256,-144 250.44,-131.81 240.55,-121.34 230.32,-113.01"/>
<polygon fill="black" stroke="black" points="232.21,-110.04 222.12,-106.79 227.97,-115.62 232.21,-110.04"/>
<g id="a_edge17&#45;headlabel"><a xlink:href="dir_000064_000070.html" target="_top" xlink:title="1">
<text text-anchor="middle" x="236.79" y="-107.46" font-family="Helvetica,sans-Serif" font-size="10.00">1</text>
</a>
</g>
</g>
<!-- dir_10a057aee75027934c14e4ba9b1ba62c -->
<g id="node3" class="node">
<title>dir_10a057aee75027934c14e4ba9b1ba62c</title>
<g id="a_node3"><a xlink:href="dir_10a057aee75027934c14e4ba9b1ba62c.html" target="_top" xlink:title="I2C">
<polygon fill="white" stroke="red" points="78,-324 24,-324 24,-288 78,-288 78,-324"/>
<text text-anchor="middle" x="51" y="-303.5" font-family="Helvetica,sans-Serif" font-size="10.00">I2C</text>
</a>
</g>
</g>
<!-- dir_10a057aee75027934c14e4ba9b1ba62c&#45;&gt;dir_a4226c5615a06a31e6344f5f3fd917e1 -->
<g id="edge12" class="edge">
<title>dir_10a057aee75027934c14e4ba9b1ba62c&#45;&gt;dir_a4226c5615a06a31e6344f5f3fd917e1</title>
<path fill="none" stroke="black" d="M68.9,-287.73C74.55,-282.51 80.91,-276.88 87,-272 92.9,-267.27 99.36,-262.47 105.69,-257.96"/>
<polygon fill="black" stroke="black" points="107.98,-260.63 114.16,-252.02 103.96,-254.9 107.98,-260.63"/>
<g id="a_edge12&#45;headlabel"><a xlink:href="dir_000105_000020.html" target="_top" xlink:title="4">
<text text-anchor="middle" x="106.66" y="-262.52" font-family="Helvetica,sans-Serif" font-size="10.00">4</text>
</a>
</g>
</g>
<!-- dir_10a057aee75027934c14e4ba9b1ba62c&#45;&gt;dir_1a5504e72c2ab618c124e6472b08d26c -->
<g id="edge13" class="edge">
<title>dir_10a057aee75027934c14e4ba9b1ba62c&#45;&gt;dir_1a5504e72c2ab618c124e6472b08d26c</title>
<path fill="none" stroke="black" d="M40.44,-287.94C23.72,-258.9 -6.07,-197.78 3,-144 8.63,-110.6 6.11,-97.85 28,-72 39.5,-58.41 55.41,-47.71 71.02,-39.59"/>
<polygon fill="black" stroke="black" points="72.71,-42.66 80.14,-35.1 69.62,-36.37 72.71,-42.66"/>
<g id="a_edge13&#45;headlabel"><a xlink:href="dir_000105_000125.html" target="_top" xlink:title="4">
<text text-anchor="middle" x="70.74" y="-44.29" font-family="Helvetica,sans-Serif" font-size="10.00">4</text>
</a>
</g>
</g>
<!-- dir_35a184c389584e1c62c684744f705848 -->
<g id="node4" class="node">
<title>dir_35a184c389584e1c62c684744f705848</title>
<g id="a_node4"><a xlink:href="dir_35a184c389584e1c62c684744f705848.html" target="_top" xlink:title="MQTT">
<polygon fill="white" stroke="red" points="150,-324 96,-324 96,-288 150,-288 150,-324"/>
<text text-anchor="middle" x="123" y="-303.5" font-family="Helvetica,sans-Serif" font-size="10.00">MQTT</text>
</a>
</g>
</g>
<!-- dir_35a184c389584e1c62c684744f705848&#45;&gt;dir_a4226c5615a06a31e6344f5f3fd917e1 -->
<g id="edge8" class="edge">
<title>dir_35a184c389584e1c62c684744f705848&#45;&gt;dir_a4226c5615a06a31e6344f5f3fd917e1</title>
<path fill="none" stroke="black" d="M121.29,-287.7C122.38,-279.9 124.43,-270.51 126.9,-261.83"/>
<polygon fill="black" stroke="black" points="130.3,-262.69 129.95,-252.1 123.62,-260.6 130.3,-262.69"/>
<g id="a_edge8&#45;headlabel"><a xlink:href="dir_000067_000020.html" target="_top" xlink:title="5">
<text text-anchor="middle" x="131.93" y="-264.47" font-family="Helvetica,sans-Serif" font-size="10.00">5</text>
</a>
</g>
</g>
<!-- dir_c2cd4762e89f989d55fa2b0634ddfc81 -->
<g id="node6" class="node">
<title>dir_c2cd4762e89f989d55fa2b0634ddfc81</title>
<g id="a_node6"><a xlink:href="dir_c2cd4762e89f989d55fa2b0634ddfc81.html" target="_top" xlink:title="Utility">
<polygon fill="none" stroke="red" points="74,-180 20,-180 20,-144 74,-144 74,-180"/>
<text text-anchor="middle" x="47" y="-159.5" font-family="Helvetica,sans-Serif" font-size="10.00">Utility</text>
</a>
</g>
</g>
<!-- dir_35a184c389584e1c62c684744f705848&#45;&gt;dir_c2cd4762e89f989d55fa2b0634ddfc81 -->
<g id="edge9" class="edge">
<title>dir_35a184c389584e1c62c684744f705848&#45;&gt;dir_c2cd4762e89f989d55fa2b0634ddfc81</title>
<path fill="none" stroke="black" d="M113.83,-287.87C100.71,-263.35 76.45,-218.03 61.05,-189.26"/>
<polygon fill="black" stroke="black" points="64,-187.35 56.2,-180.19 57.83,-190.66 64,-187.35"/>
<g id="a_edge9&#45;headlabel"><a xlink:href="dir_000067_000085.html" target="_top" xlink:title="1">
<text text-anchor="middle" x="68.2" y="-186.68" font-family="Helvetica,sans-Serif" font-size="10.00">1</text>
</a>
</g>
</g>
<!-- dir_35a184c389584e1c62c684744f705848&#45;&gt;dir_1a5504e72c2ab618c124e6472b08d26c -->
<g id="edge10" class="edge">
<title>dir_35a184c389584e1c62c684744f705848&#45;&gt;dir_1a5504e72c2ab618c124e6472b08d26c</title>
<path fill="none" stroke="black" d="M105.72,-287.6C95.71,-277.38 82.96,-264.13 72,-252 35.05,-211.09 -8.19,-195.68 11,-144 26.72,-101.65 64.71,-65.06 92.53,-42.6"/>
<polygon fill="black" stroke="black" points="94.74,-45.31 100.44,-36.37 90.41,-39.81 94.74,-45.31"/>
<g id="a_edge10&#45;headlabel"><a xlink:href="dir_000067_000125.html" target="_top" xlink:title="3">
<text text-anchor="middle" x="93.68" y="-47.27" font-family="Helvetica,sans-Serif" font-size="10.00">3</text>
</a>
</g>
</g>
<!-- dir_35a184c389584e1c62c684744f705848&#45;&gt;dir_6a49a4a01df89ea000e629175e7db917 -->
<g id="edge11" class="edge">
<title>dir_35a184c389584e1c62c684744f705848&#45;&gt;dir_6a49a4a01df89ea000e629175e7db917</title>
<path fill="none" stroke="black" d="M142.12,-287.83C155.32,-275.63 171.31,-260.04 176,-252 200.32,-210.32 200.59,-152.26 198.11,-118.45"/>
<polygon fill="black" stroke="black" points="201.59,-118.04 197.24,-108.38 194.61,-118.64 201.59,-118.04"/>
<g id="a_edge11&#45;headlabel"><a xlink:href="dir_000067_000070.html" target="_top" xlink:title="2">
<text text-anchor="middle" x="204.73" y="-118.87" font-family="Helvetica,sans-Serif" font-size="10.00">2</text>
</a>
</g>
</g>
<!-- dir_a4226c5615a06a31e6344f5f3fd917e1&#45;&gt;dir_35a184c389584e1c62c684744f705848 -->
<g id="edge2" class="edge">
<title>dir_a4226c5615a06a31e6344f5f3fd917e1&#45;&gt;dir_35a184c389584e1c62c684744f705848</title>
<path fill="none" stroke="black" d="M141.74,-252.1C140.67,-259.88 138.62,-269.26 136.16,-277.95"/>
<polygon fill="black" stroke="black" points="132.76,-277.11 133.12,-287.7 139.44,-279.19 132.76,-277.11"/>
<g id="a_edge2&#45;headlabel"><a xlink:href="dir_000020_000067.html" target="_top" xlink:title="3">
<text text-anchor="middle" x="131.12" y="-270.33" font-family="Helvetica,sans-Serif" font-size="10.00">3</text>
</a>
</g>
</g>
<!-- dir_a4226c5615a06a31e6344f5f3fd917e1&#45;&gt;dir_c2cd4762e89f989d55fa2b0634ddfc81 -->
<g id="edge1" class="edge">
<title>dir_a4226c5615a06a31e6344f5f3fd917e1&#45;&gt;dir_c2cd4762e89f989d55fa2b0634ddfc81</title>
<path fill="none" stroke="black" d="M112.88,-216.94C99.89,-207.93 84.53,-196.53 71.85,-186.54"/>
<polygon fill="black" stroke="black" points="73.95,-183.73 63.96,-180.21 69.57,-189.19 73.95,-183.73"/>
<g id="a_edge1&#45;headlabel"><a xlink:href="dir_000020_000085.html" target="_top" xlink:title="2">
<text text-anchor="middle" x="78.53" y="-181.26" font-family="Helvetica,sans-Serif" font-size="10.00">2</text>
</a>
</g>
</g>
<!-- dir_a4226c5615a06a31e6344f5f3fd917e1&#45;&gt;dir_1a5504e72c2ab618c124e6472b08d26c -->
<g id="edge3" class="edge">
<title>dir_a4226c5615a06a31e6344f5f3fd917e1&#45;&gt;dir_1a5504e72c2ab618c124e6472b08d26c</title>
<path fill="none" stroke="black" d="M162.57,-215.82C198.78,-186.11 262.73,-123.35 231,-72 219.37,-53.19 198.83,-40.83 178.9,-32.82"/>
<polygon fill="black" stroke="black" points="180.11,-29.54 169.51,-29.34 177.67,-36.1 180.11,-29.54"/>
<g id="a_edge3&#45;headlabel"><a xlink:href="dir_000020_000125.html" target="_top" xlink:title="26">
<text text-anchor="middle" x="184.46" y="-25.63" font-family="Helvetica,sans-Serif" font-size="10.00">26</text>
</a>
</g>
</g>
<!-- dir_a4226c5615a06a31e6344f5f3fd917e1&#45;&gt;dir_e185953657720ba3a67126696ef566c7 -->
<g id="edge4" class="edge">
<title>dir_a4226c5615a06a31e6344f5f3fd917e1&#45;&gt;dir_e185953657720ba3a67126696ef566c7</title>
<path fill="none" stroke="black" d="M130.38,-215.7C127.93,-207.98 125.71,-198.71 124.21,-190.11"/>
<polygon fill="black" stroke="black" points="127.66,-189.5 122.77,-180.1 120.73,-190.5 127.66,-189.5"/>
<g id="a_edge4&#45;headlabel"><a xlink:href="dir_000020_000094.html" target="_top" xlink:title="8">
<text text-anchor="middle" x="130.99" y="-190.15" font-family="Helvetica,sans-Serif" font-size="10.00">8</text>
</a>
</g>
</g>
<!-- dir_a4226c5615a06a31e6344f5f3fd917e1&#45;&gt;dir_6a49a4a01df89ea000e629175e7db917 -->
<g id="edge5" class="edge">
<title>dir_a4226c5615a06a31e6344f5f3fd917e1&#45;&gt;dir_6a49a4a01df89ea000e629175e7db917</title>
<path fill="none" stroke="black" d="M141.87,-215.68C146.25,-205.49 153,-192.24 158,-180 166.39,-159.47 173.81,-135.45 180.28,-117.54"/>
<polygon fill="black" stroke="black" points="183.61,-118.62 183.88,-108.03 177.07,-116.14 183.61,-118.62"/>
<g id="a_edge5&#45;headlabel"><a xlink:href="dir_000020_000070.html" target="_top" xlink:title="4">
<text text-anchor="middle" x="185" y="-120.48" font-family="Helvetica,sans-Serif" font-size="10.00">4</text>
</a>
</g>
</g>
<!-- dir_c2cd4762e89f989d55fa2b0634ddfc81&#45;&gt;dir_a4226c5615a06a31e6344f5f3fd917e1 -->
<g id="edge6" class="edge">
<title>dir_c2cd4762e89f989d55fa2b0634ddfc81&#45;&gt;dir_a4226c5615a06a31e6344f5f3fd917e1</title>
<path fill="none" stroke="black" d="M74.24,-179.14C87.17,-188.12 102.44,-199.45 115.06,-209.4"/>
<polygon fill="black" stroke="black" points="112.93,-212.18 122.93,-215.7 117.31,-206.71 112.93,-212.18"/>
<g id="a_edge6&#45;headlabel"><a xlink:href="dir_000085_000020.html" target="_top" xlink:title="2">
<text text-anchor="middle" x="108.35" y="-209.64" font-family="Helvetica,sans-Serif" font-size="10.00">2</text>
</a>
</g>
</g>
<!-- dir_c2cd4762e89f989d55fa2b0634ddfc81&#45;&gt;dir_1a5504e72c2ab618c124e6472b08d26c -->
<g id="edge7" class="edge">
<title>dir_c2cd4762e89f989d55fa2b0634ddfc81&#45;&gt;dir_1a5504e72c2ab618c124e6472b08d26c</title>
<path fill="none" stroke="black" d="M56.41,-143.87C69.88,-119.35 94.77,-74.03 110.58,-45.26"/>
<polygon fill="black" stroke="black" points="113.81,-46.64 115.56,-36.19 107.68,-43.27 113.81,-46.64"/>
<g id="a_edge7&#45;headlabel"><a xlink:href="dir_000085_000125.html" target="_top" xlink:title="2">
<text text-anchor="middle" x="114.57" y="-48.66" font-family="Helvetica,sans-Serif" font-size="10.00">2</text>
</a>
</g>
</g>
<!-- dir_e185953657720ba3a67126696ef566c7&#45;&gt;dir_35a184c389584e1c62c684744f705848 -->
<g id="edge19" class="edge">
<title>dir_e185953657720ba3a67126696ef566c7&#45;&gt;dir_35a184c389584e1c62c684744f705848</title>
<path fill="none" stroke="black" d="M116.28,-180.17C111.63,-190.31 106.38,-203.56 104,-216 101,-231.72 101.26,-236.24 104,-252 105.52,-260.76 108.36,-269.99 111.39,-278.25"/>
<polygon fill="black" stroke="black" points="108.21,-279.71 115.11,-287.75 114.72,-277.16 108.21,-279.71"/>
<g id="a_edge19&#45;headlabel"><a xlink:href="dir_000094_000067.html" target="_top" xlink:title="4">
<text text-anchor="middle" x="104.25" y="-274.89" font-family="Helvetica,sans-Serif" font-size="10.00">4</text>
</a>
</g>
</g>
<!-- dir_e185953657720ba3a67126696ef566c7&#45;&gt;dir_a4226c5615a06a31e6344f5f3fd917e1 -->
<g id="edge18" class="edge">
<title>dir_e185953657720ba3a67126696ef566c7&#45;&gt;dir_a4226c5615a06a31e6344f5f3fd917e1</title>
<path fill="none" stroke="black" d="M134.56,-180.1C137.01,-187.79 139.23,-197.05 140.75,-205.67"/>
<polygon fill="black" stroke="black" points="137.3,-206.31 142.21,-215.7 144.23,-205.3 137.3,-206.31"/>
<g id="a_edge18&#45;headlabel"><a xlink:href="dir_000094_000020.html" target="_top" xlink:title="20">
<text text-anchor="middle" x="133.98" y="-200.66" font-family="Helvetica,sans-Serif" font-size="10.00">20</text>
</a>
</g>
</g>
<!-- dir_e185953657720ba3a67126696ef566c7&#45;&gt;dir_1a5504e72c2ab618c124e6472b08d26c -->
<g id="edge20" class="edge">
<title>dir_e185953657720ba3a67126696ef566c7&#45;&gt;dir_1a5504e72c2ab618c124e6472b08d26c</title>
<path fill="none" stroke="black" d="M125,-143.87C125,-119.67 125,-75.21 125,-46.39"/>
<polygon fill="black" stroke="black" points="128.5,-46.19 125,-36.19 121.5,-46.19 128.5,-46.19"/>
<g id="a_edge20&#45;headlabel"><a xlink:href="dir_000094_000125.html" target="_top" xlink:title="12">
<text text-anchor="middle" x="131.34" y="-47.28" font-family="Helvetica,sans-Serif" font-size="10.00">12</text>
</a>
</g>
</g>
<!-- dir_e185953657720ba3a67126696ef566c7&#45;&gt;dir_6a49a4a01df89ea000e629175e7db917 -->
<g id="edge21" class="edge">
<title>dir_e185953657720ba3a67126696ef566c7&#45;&gt;dir_6a49a4a01df89ea000e629175e7db917</title>
<path fill="none" stroke="black" d="M142.3,-143.7C150.86,-135.14 161.34,-124.66 170.7,-115.3"/>
<polygon fill="black" stroke="black" points="173.3,-117.65 177.9,-108.1 168.35,-112.7 173.3,-117.65"/>
<g id="a_edge21&#45;headlabel"><a xlink:href="dir_000094_000070.html" target="_top" xlink:title="4">
<text text-anchor="middle" x="172.77" y="-119.7" font-family="Helvetica,sans-Serif" font-size="10.00">4</text>
</a>
</g>
</g>
<!-- dir_6a49a4a01df89ea000e629175e7db917&#45;&gt;dir_a4226c5615a06a31e6344f5f3fd917e1 -->
<g id="edge22" class="edge">
<title>dir_6a49a4a01df89ea000e629175e7db917&#45;&gt;dir_a4226c5615a06a31e6344f5f3fd917e1</title>
<path fill="none" stroke="black" d="M197.23,-108.03C194.61,-126.16 185.99,-155.56 176,-180 172.33,-188.99 167.71,-198.52 162.9,-206.98"/>
<polygon fill="black" stroke="black" points="159.82,-205.31 157.62,-215.68 165.8,-208.94 159.82,-205.31"/>
<g id="a_edge22&#45;headlabel"><a xlink:href="dir_000070_000020.html" target="_top" xlink:title="2">
<text text-anchor="middle" x="159.25" y="-198.27" font-family="Helvetica,sans-Serif" font-size="10.00">2</text>
</a>
</g>
</g>
<!-- dir_6a49a4a01df89ea000e629175e7db917&#45;&gt;dir_1a5504e72c2ab618c124e6472b08d26c -->
<g id="edge23" class="edge">
<title>dir_6a49a4a01df89ea000e629175e7db917&#45;&gt;dir_1a5504e72c2ab618c124e6472b08d26c</title>
<path fill="none" stroke="black" d="M177.7,-71.7C169.14,-63.14 158.66,-52.66 149.3,-43.3"/>
<polygon fill="black" stroke="black" points="151.65,-40.7 142.1,-36.1 146.7,-45.65 151.65,-40.7"/>
<g id="a_edge23&#45;headlabel"><a xlink:href="dir_000070_000125.html" target="_top" xlink:title="2">
<text text-anchor="middle" x="156.2" y="-38.73" font-family="Helvetica,sans-Serif" font-size="10.00">2</text>
</a>
</g>
</g>
</g>
</svg>
