<?xml version="1.0" encoding="UTF-8" standalone="no"?>
<!DOCTYPE svg PUBLIC "-//W3C//DTD SVG 1.1//EN"
 "http://www.w3.org/Graphics/SVG/1.1/DTD/svg11.dtd">
<!-- Generated by graphviz version 2.43.0 (0)
 -->
<!-- Title: Components/Service/AktivMusSimple Pages: 1 -->
<svg width="296pt" height="447pt"
 viewBox="0.00 0.00 296.00 447.00" xmlns="http://www.w3.org/2000/svg" xmlns:xlink="http://www.w3.org/1999/xlink">
<g id="graph0" class="graph" transform="scale(1 1) rotate(0) translate(4 443)">
<title>Components/Service/AktivMusSimple</title>
<g id="clust1" class="cluster">
<title>clusterdir_6164661bfb521e4b540c7b7052af2911</title>
<g id="a_clust1"><a xlink:href="dir_6164661bfb521e4b540c7b7052af2911.html" target="_top" xlink:title="Service">
<polygon fill="#ddddee" stroke="black" points="8,-272 8,-431 280,-431 280,-272 8,-272"/>
<text text-anchor="middle" x="144" y="-419" font-family="Helvetica,sans-Serif" font-size="10.00">Service</text>
</a>
</g>
</g>
<g id="clust2" class="cluster">
<title>clusterdir_f111871e06e6ccab49d5870f43e09b58</title>
<g id="a_clust2"><a xlink:href="dir_f111871e06e6ccab49d5870f43e09b58.html" target="_top">
<polygon fill="#eeeeff" stroke="black" points="16,-280 16,-404 272,-404 272,-280 16,-280"/>
</a>
</g>
</g>
<!-- dir_f111871e06e6ccab49d5870f43e09b58 -->
<g id="node1" class="node">
<title>dir_f111871e06e6ccab49d5870f43e09b58</title>
<text text-anchor="middle" x="216" y="-375.5" font-family="Helvetica,sans-Serif" font-size="10.00">AktivMusSimple</text>
</g>
<!-- dir_9727953329a9486c582926f71fb60f92 -->
<g id="node2" class="node">
<title>dir_9727953329a9486c582926f71fb60f92</title>
<g id="a_node2"><a xlink:href="dir_9727953329a9486c582926f71fb60f92.html" target="_top" xlink:title="include">
<polygon fill="white" stroke="black" points="150,-324 96,-324 96,-288 150,-288 150,-324"/>
<text text-anchor="middle" x="123" y="-303.5" font-family="Helvetica,sans-Serif" font-size="10.00">include</text>
</a>
</g>
</g>
<!-- dir_a4226c5615a06a31e6344f5f3fd917e1 -->
<g id="node5" class="node">
<title>dir_a4226c5615a06a31e6344f5f3fd917e1</title>
<g id="a_node5"><a xlink:href="dir_a4226c5615a06a31e6344f5f3fd917e1.html" target="_top" xlink:title="Objects">
<polygon fill="none" stroke="red" points="234,-180 180,-180 180,-144 234,-144 234,-180"/>
<text text-anchor="middle" x="207" y="-159.5" font-family="Helvetica,sans-Serif" font-size="10.00">Objects</text>
</a>
</g>
</g>
<!-- dir_9727953329a9486c582926f71fb60f92&#45;&gt;dir_a4226c5615a06a31e6344f5f3fd917e1 -->
<g id="edge3" class="edge">
<title>dir_9727953329a9486c582926f71fb60f92&#45;&gt;dir_a4226c5615a06a31e6344f5f3fd917e1</title>
<path fill="none" stroke="black" d="M138.9,-287.69C147.57,-277.71 158.11,-264.68 166,-252 178.44,-232.01 189.41,-207.63 196.86,-189.44"/>
<polygon fill="black" stroke="black" points="200.16,-190.63 200.63,-180.04 193.66,-188.02 200.16,-190.63"/>
<g id="a_edge3&#45;headlabel"><a xlink:href="dir_000167_000016.html" target="_top" xlink:title="2">
<text text-anchor="middle" x="201.46" y="-192.52" font-family="Helvetica,sans-Serif" font-size="10.00">2</text>
</a>
</g>
</g>
<!-- dir_8efbaa1056a51686757185dce0bc8da0 -->
<g id="node6" class="node">
<title>dir_8efbaa1056a51686757185dce0bc8da0</title>
<g id="a_node6"><a xlink:href="dir_8efbaa1056a51686757185dce0bc8da0.html" target="_top" xlink:title="Actuator">
<polygon fill="none" stroke="red" points="124,-252 66,-252 66,-216 124,-216 124,-252"/>
<text text-anchor="middle" x="95" y="-231.5" font-family="Helvetica,sans-Serif" font-size="10.00">Actuator</text>
</a>
</g>
</g>
<!-- dir_9727953329a9486c582926f71fb60f92&#45;&gt;dir_8efbaa1056a51686757185dce0bc8da0 -->
<g id="edge4" class="edge">
<title>dir_9727953329a9486c582926f71fb60f92&#45;&gt;dir_8efbaa1056a51686757185dce0bc8da0</title>
<path fill="none" stroke="black" d="M116.08,-287.7C112.93,-279.81 109.12,-270.3 105.62,-261.55"/>
<polygon fill="black" stroke="black" points="108.81,-260.09 101.84,-252.1 102.31,-262.69 108.81,-260.09"/>
<g id="a_edge4&#45;headlabel"><a xlink:href="dir_000167_000002.html" target="_top" xlink:title="1">
<text text-anchor="middle" x="112.78" y="-259.87" font-family="Helvetica,sans-Serif" font-size="10.00">1</text>
</a>
</g>
</g>
<!-- dir_1a5504e72c2ab618c124e6472b08d26c -->
<g id="node7" class="node">
<title>dir_1a5504e72c2ab618c124e6472b08d26c</title>
<g id="a_node7"><a xlink:href="dir_1a5504e72c2ab618c124e6472b08d26c.html" target="_top" xlink:title="Global_Include">
<polygon fill="none" stroke="black" points="155.5,-36 66.5,-36 66.5,0 155.5,0 155.5,-36"/>
<text text-anchor="middle" x="111" y="-15.5" font-family="Helvetica,sans-Serif" font-size="10.00">Global_Include</text>
</a>
</g>
</g>
<!-- dir_9727953329a9486c582926f71fb60f92&#45;&gt;dir_1a5504e72c2ab618c124e6472b08d26c -->
<g id="edge5" class="edge">
<title>dir_9727953329a9486c582926f71fb60f92&#45;&gt;dir_1a5504e72c2ab618c124e6472b08d26c</title>
<path fill="none" stroke="black" d="M95.76,-291.01C81.38,-282 65.07,-268.83 57,-252 23.31,-181.74 68.03,-89.29 94.3,-44.93"/>
<polygon fill="black" stroke="black" points="97.39,-46.59 99.6,-36.22 91.41,-42.95 97.39,-46.59"/>
<g id="a_edge5&#45;headlabel"><a xlink:href="dir_000167_000144.html" target="_top" xlink:title="1">
<text text-anchor="middle" x="97.95" y="-48.63" font-family="Helvetica,sans-Serif" font-size="10.00">1</text>
</a>
</g>
</g>
<!-- dir_e185953657720ba3a67126696ef566c7 -->
<g id="node8" class="node">
<title>dir_e185953657720ba3a67126696ef566c7</title>
<g id="a_node8"><a xlink:href="dir_e185953657720ba3a67126696ef566c7.html" target="_top" xlink:title="Interfaces">
<polygon fill="none" stroke="red" points="178.5,-108 113.5,-108 113.5,-72 178.5,-72 178.5,-108"/>
<text text-anchor="middle" x="146" y="-87.5" font-family="Helvetica,sans-Serif" font-size="10.00">Interfaces</text>
</a>
</g>
</g>
<!-- dir_9727953329a9486c582926f71fb60f92&#45;&gt;dir_e185953657720ba3a67126696ef566c7 -->
<g id="edge6" class="edge">
<title>dir_9727953329a9486c582926f71fb60f92&#45;&gt;dir_e185953657720ba3a67126696ef566c7</title>
<path fill="none" stroke="black" d="M126.71,-287.89C128.83,-277.54 131.38,-264.06 133,-252 139.25,-205.51 142.88,-151.03 144.65,-118.86"/>
<polygon fill="black" stroke="black" points="148.17,-118.63 145.2,-108.46 141.17,-118.26 148.17,-118.63"/>
<g id="a_edge6&#45;headlabel"><a xlink:href="dir_000167_000093.html" target="_top" xlink:title="1">
<text text-anchor="middle" x="150.81" y="-119.87" font-family="Helvetica,sans-Serif" font-size="10.00">1</text>
</a>
</g>
</g>
<!-- dir_45c760a87a5b6501140792e95f122bb2 -->
<g id="node3" class="node">
<title>dir_45c760a87a5b6501140792e95f122bb2</title>
<g id="a_node3"><a xlink:href="dir_45c760a87a5b6501140792e95f122bb2.html" target="_top" xlink:title="src">
<polygon fill="white" stroke="black" points="150,-396 96,-396 96,-360 150,-360 150,-396"/>
<text text-anchor="middle" x="123" y="-375.5" font-family="Helvetica,sans-Serif" font-size="10.00">src</text>
</a>
</g>
</g>
<!-- dir_45c760a87a5b6501140792e95f122bb2&#45;&gt;dir_9727953329a9486c582926f71fb60f92 -->
<g id="edge7" class="edge">
<title>dir_45c760a87a5b6501140792e95f122bb2&#45;&gt;dir_9727953329a9486c582926f71fb60f92</title>
<path fill="none" stroke="black" d="M123,-359.7C123,-351.98 123,-342.71 123,-334.11"/>
<polygon fill="black" stroke="black" points="126.5,-334.1 123,-324.1 119.5,-334.1 126.5,-334.1"/>
<g id="a_edge7&#45;headlabel"><a xlink:href="dir_000168_000167.html" target="_top" xlink:title="1">
<text text-anchor="middle" x="129.34" y="-335.2" font-family="Helvetica,sans-Serif" font-size="10.00">1</text>
</a>
</g>
</g>
<!-- dir_3935290499818bf41fd36844b582ce63 -->
<g id="node4" class="node">
<title>dir_3935290499818bf41fd36844b582ce63</title>
<g id="a_node4"><a xlink:href="dir_3935290499818bf41fd36844b582ce63.html" target="_top" xlink:title="test">
<polygon fill="white" stroke="red" points="78,-396 24,-396 24,-360 78,-360 78,-396"/>
<text text-anchor="middle" x="51" y="-375.5" font-family="Helvetica,sans-Serif" font-size="10.00">test</text>
</a>
</g>
</g>
<!-- dir_a4226c5615a06a31e6344f5f3fd917e1&#45;&gt;dir_1a5504e72c2ab618c124e6472b08d26c -->
<g id="edge1" class="edge">
<title>dir_a4226c5615a06a31e6344f5f3fd917e1&#45;&gt;dir_1a5504e72c2ab618c124e6472b08d26c</title>
<path fill="none" stroke="black" d="M207.01,-143.82C206.24,-124.75 202.57,-93.81 188,-72 179.87,-59.84 167.92,-49.67 155.85,-41.6"/>
<polygon fill="black" stroke="black" points="157.42,-38.46 147.09,-36.1 153.7,-44.38 157.42,-38.46"/>
<g id="a_edge1&#45;headlabel"><a xlink:href="dir_000016_000144.html" target="_top" xlink:title="26">
<text text-anchor="middle" x="161.98" y="-35.46" font-family="Helvetica,sans-Serif" font-size="10.00">26</text>
</a>
</g>
</g>
<!-- dir_a4226c5615a06a31e6344f5f3fd917e1&#45;&gt;dir_e185953657720ba3a67126696ef566c7 -->
<g id="edge2" class="edge">
<title>dir_a4226c5615a06a31e6344f5f3fd917e1&#45;&gt;dir_e185953657720ba3a67126696ef566c7</title>
<path fill="none" stroke="black" d="M186.01,-143.7C177.91,-135.39 168.9,-125.28 161.4,-116.14"/>
<polygon fill="black" stroke="black" points="163.97,-113.75 155.01,-108.1 158.5,-118.11 163.97,-113.75"/>
<g id="a_edge2&#45;headlabel"><a xlink:href="dir_000016_000093.html" target="_top" xlink:title="8">
<text text-anchor="middle" x="168.43" y="-112.3" font-family="Helvetica,sans-Serif" font-size="10.00">8</text>
</a>
</g>
</g>
<!-- dir_8efbaa1056a51686757185dce0bc8da0&#45;&gt;dir_a4226c5615a06a31e6344f5f3fd917e1 -->
<g id="edge8" class="edge">
<title>dir_8efbaa1056a51686757185dce0bc8da0&#45;&gt;dir_a4226c5615a06a31e6344f5f3fd917e1</title>
<path fill="none" stroke="black" d="M122.4,-215.88C137.15,-206.66 155.53,-195.17 171.38,-185.26"/>
<polygon fill="black" stroke="black" points="173.26,-188.22 179.88,-179.95 169.55,-182.28 173.26,-188.22"/>
<g id="a_edge8&#45;headlabel"><a xlink:href="dir_000002_000016.html" target="_top" xlink:title="3">
<text text-anchor="middle" x="171.72" y="-190.03" font-family="Helvetica,sans-Serif" font-size="10.00">3</text>
</a>
</g>
</g>
<!-- dir_8efbaa1056a51686757185dce0bc8da0&#45;&gt;dir_1a5504e72c2ab618c124e6472b08d26c -->
<g id="edge9" class="edge">
<title>dir_8efbaa1056a51686757185dce0bc8da0&#45;&gt;dir_1a5504e72c2ab618c124e6472b08d26c</title>
<path fill="none" stroke="black" d="M95.54,-215.58C96.56,-186 99.11,-124.12 104,-72 104.79,-63.55 105.91,-54.38 107.02,-46.08"/>
<polygon fill="black" stroke="black" points="110.49,-46.53 108.4,-36.15 103.56,-45.57 110.49,-46.53"/>
<g id="a_edge9&#45;headlabel"><a xlink:href="dir_000002_000144.html" target="_top" xlink:title="1">
<text text-anchor="middle" x="112.81" y="-47.99" font-family="Helvetica,sans-Serif" font-size="10.00">1</text>
</a>
</g>
</g>
<!-- dir_8efbaa1056a51686757185dce0bc8da0&#45;&gt;dir_e185953657720ba3a67126696ef566c7 -->
<g id="edge10" class="edge">
<title>dir_8efbaa1056a51686757185dce0bc8da0&#45;&gt;dir_e185953657720ba3a67126696ef566c7</title>
<path fill="none" stroke="black" d="M101.15,-215.87C109.92,-191.46 126.09,-146.43 136.43,-117.64"/>
<polygon fill="black" stroke="black" points="139.74,-118.78 139.83,-108.19 133.15,-116.42 139.74,-118.78"/>
<g id="a_edge10&#45;headlabel"><a xlink:href="dir_000002_000093.html" target="_top" xlink:title="1">
<text text-anchor="middle" x="141.2" y="-120.63" font-family="Helvetica,sans-Serif" font-size="10.00">1</text>
</a>
</g>
</g>
<!-- dir_e185953657720ba3a67126696ef566c7&#45;&gt;dir_a4226c5615a06a31e6344f5f3fd917e1 -->
<g id="edge11" class="edge">
<title>dir_e185953657720ba3a67126696ef566c7&#45;&gt;dir_a4226c5615a06a31e6344f5f3fd917e1</title>
<path fill="none" stroke="black" d="M166.8,-108.1C174.88,-116.38 183.9,-126.49 191.42,-135.64"/>
<polygon fill="black" stroke="black" points="188.87,-138.06 197.84,-143.7 194.34,-133.69 188.87,-138.06"/>
<g id="a_edge11&#45;headlabel"><a xlink:href="dir_000093_000016.html" target="_top" xlink:title="23">
<text text-anchor="middle" x="184.41" y="-134.51" font-family="Helvetica,sans-Serif" font-size="10.00">23</text>
</a>
</g>
</g>
<!-- dir_e185953657720ba3a67126696ef566c7&#45;&gt;dir_1a5504e72c2ab618c124e6472b08d26c -->
<g id="edge12" class="edge">
<title>dir_e185953657720ba3a67126696ef566c7&#45;&gt;dir_1a5504e72c2ab618c124e6472b08d26c</title>
<path fill="none" stroke="black" d="M137.35,-71.7C133.36,-63.73 128.55,-54.1 124.13,-45.26"/>
<polygon fill="black" stroke="black" points="127.15,-43.48 119.55,-36.1 120.89,-46.61 127.15,-43.48"/>
<g id="a_edge12&#45;headlabel"><a xlink:href="dir_000093_000144.html" target="_top" xlink:title="15">
<text text-anchor="middle" x="131.3" y="-42.93" font-family="Helvetica,sans-Serif" font-size="10.00">15</text>
</a>
</g>
</g>
</g>
</svg>
