<?xml version="1.0" encoding="UTF-8" standalone="no"?>
<!DOCTYPE svg PUBLIC "-//W3C//DTD SVG 1.1//EN"
 "http://www.w3.org/Graphics/SVG/1.1/DTD/svg11.dtd">
<!-- Generated by graphviz version 2.43.0 (0)
 -->
<!-- Title: Components/Objects/DataBroker Pages: 1 -->
<svg width="366pt" height="519pt"
 viewBox="0.00 0.00 366.00 519.00" xmlns="http://www.w3.org/2000/svg" xmlns:xlink="http://www.w3.org/1999/xlink">
<g id="graph0" class="graph" transform="scale(1 1) rotate(0) translate(4 515)">
<title>Components/Objects/DataBroker</title>
<g id="clust1" class="cluster">
<title>clusterdir_a4226c5615a06a31e6344f5f3fd917e1</title>
<g id="a_clust1"><a xlink:href="dir_a4226c5615a06a31e6344f5f3fd917e1.html" target="_top" xlink:title="Objects">
<polygon fill="#ddddee" stroke="black" points="8,-344 8,-503 256,-503 256,-344 8,-344"/>
<text text-anchor="middle" x="132" y="-491" font-family="Helvetica,sans-Serif" font-size="10.00">Objects</text>
</a>
</g>
</g>
<g id="clust2" class="cluster">
<title>clusterdir_f445fc28fc2e29345a003c63c6800467</title>
<g id="a_clust2"><a xlink:href="dir_f445fc28fc2e29345a003c63c6800467.html" target="_top">
<polygon fill="#eeeeff" stroke="black" points="16,-352 16,-476 248,-476 248,-352 16,-352"/>
</a>
</g>
</g>
<!-- dir_f445fc28fc2e29345a003c63c6800467 -->
<g id="node1" class="node">
<title>dir_f445fc28fc2e29345a003c63c6800467</title>
<text text-anchor="middle" x="204" y="-447.5" font-family="Helvetica,sans-Serif" font-size="10.00">DataBroker</text>
</g>
<!-- dir_9ef3226a274d6c7fed3e3f2959aadccd -->
<g id="node2" class="node">
<title>dir_9ef3226a274d6c7fed3e3f2959aadccd</title>
<g id="a_node2"><a xlink:href="dir_9ef3226a274d6c7fed3e3f2959aadccd.html" target="_top" xlink:title="include">
<polygon fill="white" stroke="black" points="150,-396 96,-396 96,-360 150,-360 150,-396"/>
<text text-anchor="middle" x="123" y="-375.5" font-family="Helvetica,sans-Serif" font-size="10.00">include</text>
</a>
</g>
</g>
<!-- dir_4816d2fb8abcfd1fbfb7e56b67e0baa1 -->
<g id="node5" class="node">
<title>dir_4816d2fb8abcfd1fbfb7e56b67e0baa1</title>
<g id="a_node5"><a xlink:href="dir_4816d2fb8abcfd1fbfb7e56b67e0baa1.html" target="_top" xlink:title="ErrorHandler">
<polygon fill="none" stroke="red" points="169,-180 91,-180 91,-144 169,-144 169,-180"/>
<text text-anchor="middle" x="130" y="-159.5" font-family="Helvetica,sans-Serif" font-size="10.00">ErrorHandler</text>
</a>
</g>
</g>
<!-- dir_9ef3226a274d6c7fed3e3f2959aadccd&#45;&gt;dir_4816d2fb8abcfd1fbfb7e56b67e0baa1 -->
<g id="edge3" class="edge">
<title>dir_9ef3226a274d6c7fed3e3f2959aadccd&#45;&gt;dir_4816d2fb8abcfd1fbfb7e56b67e0baa1</title>
<path fill="none" stroke="black" d="M123.56,-359.85C124.77,-322.83 127.64,-235.18 129.1,-190.39"/>
<polygon fill="black" stroke="black" points="132.61,-190.34 129.44,-180.23 125.61,-190.11 132.61,-190.34"/>
<g id="a_edge3&#45;headlabel"><a xlink:href="dir_000173_000020.html" target="_top" xlink:title="1">
<text text-anchor="middle" x="135.33" y="-191.53" font-family="Helvetica,sans-Serif" font-size="10.00">1</text>
</a>
</g>
</g>
<!-- dir_1a5504e72c2ab618c124e6472b08d26c -->
<g id="node7" class="node">
<title>dir_1a5504e72c2ab618c124e6472b08d26c</title>
<g id="a_node7"><a xlink:href="dir_1a5504e72c2ab618c124e6472b08d26c.html" target="_top" xlink:title="Global_Include">
<polygon fill="none" stroke="black" points="207.5,-36 118.5,-36 118.5,0 207.5,0 207.5,-36"/>
<text text-anchor="middle" x="163" y="-15.5" font-family="Helvetica,sans-Serif" font-size="10.00">Global_Include</text>
</a>
</g>
</g>
<!-- dir_9ef3226a274d6c7fed3e3f2959aadccd&#45;&gt;dir_1a5504e72c2ab618c124e6472b08d26c -->
<g id="edge4" class="edge">
<title>dir_9ef3226a274d6c7fed3e3f2959aadccd&#45;&gt;dir_1a5504e72c2ab618c124e6472b08d26c</title>
<path fill="none" stroke="black" d="M99.37,-359.97C68.96,-335.89 20,-288.75 20,-235 20,-235 20,-235 20,-161 20,-105.59 74.73,-64.39 116.48,-41.03"/>
<polygon fill="black" stroke="black" points="118.31,-44.01 125.43,-36.17 114.97,-37.86 118.31,-44.01"/>
<g id="a_edge4&#45;headlabel"><a xlink:href="dir_000173_000132.html" target="_top" xlink:title="1">
<text text-anchor="middle" x="116.5" y="-45.72" font-family="Helvetica,sans-Serif" font-size="10.00">1</text>
</a>
</g>
</g>
<!-- dir_e185953657720ba3a67126696ef566c7 -->
<g id="node8" class="node">
<title>dir_e185953657720ba3a67126696ef566c7</title>
<g id="a_node8"><a xlink:href="dir_e185953657720ba3a67126696ef566c7.html" target="_top" xlink:title="Interfaces">
<polygon fill="none" stroke="red" points="261.5,-324 196.5,-324 196.5,-288 261.5,-288 261.5,-324"/>
<text text-anchor="middle" x="229" y="-303.5" font-family="Helvetica,sans-Serif" font-size="10.00">Interfaces</text>
</a>
</g>
</g>
<!-- dir_9ef3226a274d6c7fed3e3f2959aadccd&#45;&gt;dir_e185953657720ba3a67126696ef566c7 -->
<g id="edge5" class="edge">
<title>dir_9ef3226a274d6c7fed3e3f2959aadccd&#45;&gt;dir_e185953657720ba3a67126696ef566c7</title>
<path fill="none" stroke="black" d="M148.93,-359.88C162.66,-350.81 179.71,-339.55 194.54,-329.76"/>
<polygon fill="black" stroke="black" points="196.55,-332.62 202.97,-324.19 192.7,-326.78 196.55,-332.62"/>
<g id="a_edge5&#45;headlabel"><a xlink:href="dir_000173_000093.html" target="_top" xlink:title="2">
<text text-anchor="middle" x="195.12" y="-334.47" font-family="Helvetica,sans-Serif" font-size="10.00">2</text>
</a>
</g>
</g>
<!-- dir_82ae37b9d9d4852b543931d9ede35f57 -->
<g id="node9" class="node">
<title>dir_82ae37b9d9d4852b543931d9ede35f57</title>
<g id="a_node9"><a xlink:href="dir_82ae37b9d9d4852b543931d9ede35f57.html" target="_top" xlink:title="Timeservice">
<polygon fill="none" stroke="red" points="235.5,-108 158.5,-108 158.5,-72 235.5,-72 235.5,-108"/>
<text text-anchor="middle" x="197" y="-87.5" font-family="Helvetica,sans-Serif" font-size="10.00">Timeservice</text>
</a>
</g>
</g>
<!-- dir_9ef3226a274d6c7fed3e3f2959aadccd&#45;&gt;dir_82ae37b9d9d4852b543931d9ede35f57 -->
<g id="edge6" class="edge">
<title>dir_9ef3226a274d6c7fed3e3f2959aadccd&#45;&gt;dir_82ae37b9d9d4852b543931d9ede35f57</title>
<path fill="none" stroke="black" d="M128.31,-359.85C131.49,-349.49 135.56,-336.01 139,-324 157.25,-260.26 162.41,-244.45 178,-180 182.98,-159.4 187.96,-135.95 191.57,-118.29"/>
<polygon fill="black" stroke="black" points="195.08,-118.62 193.63,-108.12 188.22,-117.23 195.08,-118.62"/>
<g id="a_edge6&#45;headlabel"><a xlink:href="dir_000173_000053.html" target="_top" xlink:title="1">
<text text-anchor="middle" x="197.15" y="-120.21" font-family="Helvetica,sans-Serif" font-size="10.00">1</text>
</a>
</g>
</g>
<!-- dir_6a49a4a01df89ea000e629175e7db917 -->
<g id="node10" class="node">
<title>dir_6a49a4a01df89ea000e629175e7db917</title>
<g id="a_node10"><a xlink:href="dir_6a49a4a01df89ea000e629175e7db917.html" target="_top" xlink:title="RTOS">
<polygon fill="none" stroke="red" points="102,-252 48,-252 48,-216 102,-216 102,-252"/>
<text text-anchor="middle" x="75" y="-231.5" font-family="Helvetica,sans-Serif" font-size="10.00">RTOS</text>
</a>
</g>
</g>
<!-- dir_9ef3226a274d6c7fed3e3f2959aadccd&#45;&gt;dir_6a49a4a01df89ea000e629175e7db917 -->
<g id="edge7" class="edge">
<title>dir_9ef3226a274d6c7fed3e3f2959aadccd&#45;&gt;dir_6a49a4a01df89ea000e629175e7db917</title>
<path fill="none" stroke="black" d="M117.21,-359.87C108.99,-335.56 93.87,-290.82 84.13,-262.01"/>
<polygon fill="black" stroke="black" points="87.33,-260.54 80.81,-252.19 80.7,-262.78 87.33,-260.54"/>
<g id="a_edge7&#45;headlabel"><a xlink:href="dir_000173_000066.html" target="_top" xlink:title="2">
<text text-anchor="middle" x="91.17" y="-260.54" font-family="Helvetica,sans-Serif" font-size="10.00">2</text>
</a>
</g>
</g>
<!-- dir_7ae35ef85002b6524d002c822643e87d -->
<g id="node3" class="node">
<title>dir_7ae35ef85002b6524d002c822643e87d</title>
<g id="a_node3"><a xlink:href="dir_7ae35ef85002b6524d002c822643e87d.html" target="_top" xlink:title="src">
<polygon fill="white" stroke="black" points="78,-468 24,-468 24,-432 78,-432 78,-468"/>
<text text-anchor="middle" x="51" y="-447.5" font-family="Helvetica,sans-Serif" font-size="10.00">src</text>
</a>
</g>
</g>
<!-- dir_7ae35ef85002b6524d002c822643e87d&#45;&gt;dir_9ef3226a274d6c7fed3e3f2959aadccd -->
<g id="edge13" class="edge">
<title>dir_7ae35ef85002b6524d002c822643e87d&#45;&gt;dir_9ef3226a274d6c7fed3e3f2959aadccd</title>
<path fill="none" stroke="black" d="M68.8,-431.7C77.6,-423.14 88.38,-412.66 98,-403.3"/>
<polygon fill="black" stroke="black" points="100.68,-405.58 105.41,-396.1 95.8,-400.57 100.68,-405.58"/>
<g id="a_edge13&#45;headlabel"><a xlink:href="dir_000174_000173.html" target="_top" xlink:title="1">
<text text-anchor="middle" x="100.08" y="-407.63" font-family="Helvetica,sans-Serif" font-size="10.00">1</text>
</a>
</g>
</g>
<!-- dir_588ec3be40f5173f7f05ac62c1f6102a -->
<g id="node4" class="node">
<title>dir_588ec3be40f5173f7f05ac62c1f6102a</title>
<g id="a_node4"><a xlink:href="dir_588ec3be40f5173f7f05ac62c1f6102a.html" target="_top" xlink:title="test">
<polygon fill="white" stroke="red" points="150,-468 96,-468 96,-432 150,-432 150,-468"/>
<text text-anchor="middle" x="123" y="-447.5" font-family="Helvetica,sans-Serif" font-size="10.00">test</text>
</a>
</g>
</g>
<!-- dir_588ec3be40f5173f7f05ac62c1f6102a&#45;&gt;dir_9ef3226a274d6c7fed3e3f2959aadccd -->
<g id="edge1" class="edge">
<title>dir_588ec3be40f5173f7f05ac62c1f6102a&#45;&gt;dir_9ef3226a274d6c7fed3e3f2959aadccd</title>
<path fill="none" stroke="black" d="M123,-431.7C123,-423.98 123,-414.71 123,-406.11"/>
<polygon fill="black" stroke="black" points="126.5,-406.1 123,-396.1 119.5,-406.1 126.5,-406.1"/>
<g id="a_edge1&#45;headlabel"><a xlink:href="dir_000099_000173.html" target="_top" xlink:title="1">
<text text-anchor="middle" x="129.34" y="-407.2" font-family="Helvetica,sans-Serif" font-size="10.00">1</text>
</a>
</g>
</g>
<!-- dir_410074523dc77f19fbc712633e7470ae -->
<g id="node6" class="node">
<title>dir_410074523dc77f19fbc712633e7470ae</title>
<g id="a_node6"><a xlink:href="dir_410074523dc77f19fbc712633e7470ae.html" target="_top" xlink:title="Controller">
<polygon fill="none" stroke="red" points="329.5,-396 264.5,-396 264.5,-360 329.5,-360 329.5,-396"/>
<text text-anchor="middle" x="297" y="-375.5" font-family="Helvetica,sans-Serif" font-size="10.00">Controller</text>
</a>
</g>
</g>
<!-- dir_588ec3be40f5173f7f05ac62c1f6102a&#45;&gt;dir_410074523dc77f19fbc712633e7470ae -->
<g id="edge2" class="edge">
<title>dir_588ec3be40f5173f7f05ac62c1f6102a&#45;&gt;dir_410074523dc77f19fbc712633e7470ae</title>
<path fill="none" stroke="black" d="M150.4,-436.19C153.62,-434.74 156.87,-433.32 160,-432 177.58,-424.57 221.46,-407.7 254.86,-394.98"/>
<polygon fill="black" stroke="black" points="256.31,-398.17 264.41,-391.34 253.82,-391.63 256.31,-398.17"/>
<g id="a_edge2&#45;headlabel"><a xlink:href="dir_000099_000090.html" target="_top" xlink:title="1">
<text text-anchor="middle" x="253.96" y="-399.6" font-family="Helvetica,sans-Serif" font-size="10.00">1</text>
</a>
</g>
</g>
<!-- dir_4816d2fb8abcfd1fbfb7e56b67e0baa1&#45;&gt;dir_1a5504e72c2ab618c124e6472b08d26c -->
<g id="edge8" class="edge">
<title>dir_4816d2fb8abcfd1fbfb7e56b67e0baa1&#45;&gt;dir_1a5504e72c2ab618c124e6472b08d26c</title>
<path fill="none" stroke="black" d="M133.74,-143.92C137.68,-125.98 144.13,-96.98 150,-72 151.98,-63.57 154.2,-54.4 156.25,-46.1"/>
<polygon fill="black" stroke="black" points="159.7,-46.71 158.7,-36.17 152.9,-45.03 159.7,-46.71"/>
<g id="a_edge8&#45;headlabel"><a xlink:href="dir_000020_000132.html" target="_top" xlink:title="2">
<text text-anchor="middle" x="161.59" y="-48.38" font-family="Helvetica,sans-Serif" font-size="10.00">2</text>
</a>
</g>
</g>
<!-- dir_4816d2fb8abcfd1fbfb7e56b67e0baa1&#45;&gt;dir_82ae37b9d9d4852b543931d9ede35f57 -->
<g id="edge9" class="edge">
<title>dir_4816d2fb8abcfd1fbfb7e56b67e0baa1&#45;&gt;dir_82ae37b9d9d4852b543931d9ede35f57</title>
<path fill="none" stroke="black" d="M140.65,-143.7C147.96,-135.14 157.81,-124.66 167.28,-115.3"/>
<polygon fill="black" stroke="black" points="169.97,-117.57 174.73,-108.1 165.11,-112.53 169.97,-117.57"/>
<g id="a_edge9&#45;headlabel"><a xlink:href="dir_000020_000053.html" target="_top" xlink:title="1">
<text text-anchor="middle" x="169.36" y="-119.61" font-family="Helvetica,sans-Serif" font-size="10.00">1</text>
</a>
</g>
</g>
<!-- dir_410074523dc77f19fbc712633e7470ae&#45;&gt;dir_4816d2fb8abcfd1fbfb7e56b67e0baa1 -->
<g id="edge10" class="edge">
<title>dir_410074523dc77f19fbc712633e7470ae&#45;&gt;dir_4816d2fb8abcfd1fbfb7e56b67e0baa1</title>
<path fill="none" stroke="black" d="M294.78,-359.82C291.75,-341.02 284.99,-310.58 271,-288 244.3,-244.92 198.27,-208.2 166.09,-185.92"/>
<polygon fill="black" stroke="black" points="167.65,-182.75 157.41,-180.03 163.72,-188.54 167.65,-182.75"/>
<g id="a_edge10&#45;headlabel"><a xlink:href="dir_000090_000020.html" target="_top" xlink:title="1">
<text text-anchor="middle" x="172.22" y="-179.92" font-family="Helvetica,sans-Serif" font-size="10.00">1</text>
</a>
</g>
</g>
<!-- dir_410074523dc77f19fbc712633e7470ae&#45;&gt;dir_1a5504e72c2ab618c124e6472b08d26c -->
<g id="edge11" class="edge">
<title>dir_410074523dc77f19fbc712633e7470ae&#45;&gt;dir_1a5504e72c2ab618c124e6472b08d26c</title>
<path fill="none" stroke="black" d="M309.94,-359.66C327.84,-333.88 358,-283.3 358,-235 358,-235 358,-235 358,-161 358,-91.13 275.17,-52.01 217.48,-33.25"/>
<polygon fill="black" stroke="black" points="218.33,-29.85 207.74,-30.19 216.23,-36.52 218.33,-29.85"/>
<g id="a_edge11&#45;headlabel"><a xlink:href="dir_000090_000132.html" target="_top" xlink:title="1">
<text text-anchor="middle" x="222.61" y="-25.71" font-family="Helvetica,sans-Serif" font-size="10.00">1</text>
</a>
</g>
</g>
<!-- dir_410074523dc77f19fbc712633e7470ae&#45;&gt;dir_e185953657720ba3a67126696ef566c7 -->
<g id="edge12" class="edge">
<title>dir_410074523dc77f19fbc712633e7470ae&#45;&gt;dir_e185953657720ba3a67126696ef566c7</title>
<path fill="none" stroke="black" d="M280.19,-359.7C271.87,-351.14 261.69,-340.66 252.61,-331.3"/>
<polygon fill="black" stroke="black" points="255.09,-328.84 245.62,-324.1 250.07,-333.72 255.09,-328.84"/>
<g id="a_edge12&#45;headlabel"><a xlink:href="dir_000090_000093.html" target="_top" xlink:title="1">
<text text-anchor="middle" x="259.64" y="-326.94" font-family="Helvetica,sans-Serif" font-size="10.00">1</text>
</a>
</g>
</g>
<!-- dir_e185953657720ba3a67126696ef566c7&#45;&gt;dir_4816d2fb8abcfd1fbfb7e56b67e0baa1 -->
<g id="edge14" class="edge">
<title>dir_e185953657720ba3a67126696ef566c7&#45;&gt;dir_4816d2fb8abcfd1fbfb7e56b67e0baa1</title>
<path fill="none" stroke="black" d="M217.06,-287.87C199.81,-263.14 167.82,-217.24 147.79,-188.51"/>
<polygon fill="black" stroke="black" points="150.57,-186.39 141.98,-180.19 144.83,-190.39 150.57,-186.39"/>
<g id="a_edge14&#45;headlabel"><a xlink:href="dir_000093_000020.html" target="_top" xlink:title="14">
<text text-anchor="middle" x="154.96" y="-185.22" font-family="Helvetica,sans-Serif" font-size="10.00">14</text>
</a>
</g>
</g>
<!-- dir_e185953657720ba3a67126696ef566c7&#45;&gt;dir_1a5504e72c2ab618c124e6472b08d26c -->
<g id="edge15" class="edge">
<title>dir_e185953657720ba3a67126696ef566c7&#45;&gt;dir_1a5504e72c2ab618c124e6472b08d26c</title>
<path fill="none" stroke="black" d="M236.06,-287.87C251.56,-247.42 284.16,-143.94 245,-72 238.09,-59.3 226.68,-49.18 214.54,-41.33"/>
<polygon fill="black" stroke="black" points="216,-38.13 205.62,-36.01 212.41,-44.14 216,-38.13"/>
<g id="a_edge15&#45;headlabel"><a xlink:href="dir_000093_000132.html" target="_top" xlink:title="13">
<text text-anchor="middle" x="220.54" y="-35.03" font-family="Helvetica,sans-Serif" font-size="10.00">13</text>
</a>
</g>
</g>
<!-- dir_e185953657720ba3a67126696ef566c7&#45;&gt;dir_82ae37b9d9d4852b543931d9ede35f57 -->
<g id="edge16" class="edge">
<title>dir_e185953657720ba3a67126696ef566c7&#45;&gt;dir_82ae37b9d9d4852b543931d9ede35f57</title>
<path fill="none" stroke="black" d="M227.92,-287.96C225.87,-258.44 220.72,-195.98 211,-144 209.4,-135.45 207.16,-126.25 204.94,-117.95"/>
<polygon fill="black" stroke="black" points="208.23,-116.74 202.18,-108.04 201.49,-118.61 208.23,-116.74"/>
<g id="a_edge16&#45;headlabel"><a xlink:href="dir_000093_000053.html" target="_top" xlink:title="2">
<text text-anchor="middle" x="211.93" y="-116.94" font-family="Helvetica,sans-Serif" font-size="10.00">2</text>
</a>
</g>
</g>
<!-- dir_e185953657720ba3a67126696ef566c7&#45;&gt;dir_6a49a4a01df89ea000e629175e7db917 -->
<g id="edge17" class="edge">
<title>dir_e185953657720ba3a67126696ef566c7&#45;&gt;dir_6a49a4a01df89ea000e629175e7db917</title>
<path fill="none" stroke="black" d="M196.34,-290.15C171.6,-278.91 137.6,-263.45 111.88,-251.76"/>
<polygon fill="black" stroke="black" points="113.02,-248.44 102.47,-247.48 110.12,-254.81 113.02,-248.44"/>
<g id="a_edge17&#45;headlabel"><a xlink:href="dir_000093_000066.html" target="_top" xlink:title="4">
<text text-anchor="middle" x="117.46" y="-244.84" font-family="Helvetica,sans-Serif" font-size="10.00">4</text>
</a>
</g>
</g>
<!-- dir_82ae37b9d9d4852b543931d9ede35f57&#45;&gt;dir_4816d2fb8abcfd1fbfb7e56b67e0baa1 -->
<g id="edge18" class="edge">
<title>dir_82ae37b9d9d4852b543931d9ede35f57&#45;&gt;dir_4816d2fb8abcfd1fbfb7e56b67e0baa1</title>
<path fill="none" stroke="black" d="M186.52,-108.1C179.25,-116.64 169.42,-127.11 159.95,-136.48"/>
<polygon fill="black" stroke="black" points="157.23,-134.23 152.48,-143.7 162.1,-139.26 157.23,-134.23"/>
<g id="a_edge18&#45;headlabel"><a xlink:href="dir_000053_000020.html" target="_top" xlink:title="2">
<text text-anchor="middle" x="157.85" y="-127.19" font-family="Helvetica,sans-Serif" font-size="10.00">2</text>
</a>
</g>
</g>
<!-- dir_82ae37b9d9d4852b543931d9ede35f57&#45;&gt;dir_1a5504e72c2ab618c124e6472b08d26c -->
<g id="edge19" class="edge">
<title>dir_82ae37b9d9d4852b543931d9ede35f57&#45;&gt;dir_1a5504e72c2ab618c124e6472b08d26c</title>
<path fill="none" stroke="black" d="M188.6,-71.7C184.73,-63.73 180.05,-54.1 175.76,-45.26"/>
<polygon fill="black" stroke="black" points="178.83,-43.57 171.31,-36.1 172.53,-46.63 178.83,-43.57"/>
<g id="a_edge19&#45;headlabel"><a xlink:href="dir_000053_000132.html" target="_top" xlink:title="2">
<text text-anchor="middle" x="182.95" y="-43.06" font-family="Helvetica,sans-Serif" font-size="10.00">2</text>
</a>
</g>
</g>
<!-- dir_6a49a4a01df89ea000e629175e7db917&#45;&gt;dir_4816d2fb8abcfd1fbfb7e56b67e0baa1 -->
<g id="edge20" class="edge">
<title>dir_6a49a4a01df89ea000e629175e7db917&#45;&gt;dir_4816d2fb8abcfd1fbfb7e56b67e0baa1</title>
<path fill="none" stroke="black" d="M88.6,-215.7C95.12,-207.39 103.07,-197.28 110.25,-188.14"/>
<polygon fill="black" stroke="black" points="113.13,-190.13 116.56,-180.1 107.63,-185.81 113.13,-190.13"/>
<g id="a_edge20&#45;headlabel"><a xlink:href="dir_000066_000020.html" target="_top" xlink:title="2">
<text text-anchor="middle" x="113.15" y="-192.21" font-family="Helvetica,sans-Serif" font-size="10.00">2</text>
</a>
</g>
</g>
<!-- dir_6a49a4a01df89ea000e629175e7db917&#45;&gt;dir_1a5504e72c2ab618c124e6472b08d26c -->
<g id="edge21" class="edge">
<title>dir_6a49a4a01df89ea000e629175e7db917&#45;&gt;dir_1a5504e72c2ab618c124e6472b08d26c</title>
<path fill="none" stroke="black" d="M73.89,-215.77C73.27,-197.47 73.89,-167.93 82,-144 94.92,-105.88 122.07,-67.91 141.37,-43.99"/>
<polygon fill="black" stroke="black" points="144.18,-46.09 147.84,-36.14 138.78,-41.64 144.18,-46.09"/>
<g id="a_edge21&#45;headlabel"><a xlink:href="dir_000066_000132.html" target="_top" xlink:title="2">
<text text-anchor="middle" x="144.09" y="-48.17" font-family="Helvetica,sans-Serif" font-size="10.00">2</text>
</a>
</g>
</g>
</g>
</svg>
