<?xml version="1.0" encoding="UTF-8" standalone="no"?>
<!DOCTYPE svg PUBLIC "-//W3C//DTD SVG 1.1//EN"
 "http://www.w3.org/Graphics/SVG/1.1/DTD/svg11.dtd">
<!-- Generated by graphviz version 2.43.0 (0)
 -->
<!-- Title: Components/Service/AktivMusSimple Pages: 1 -->
<svg width="296pt" height="447pt"
 viewBox="0.00 0.00 296.00 447.00" xmlns="http://www.w3.org/2000/svg" xmlns:xlink="http://www.w3.org/1999/xlink">
<g id="graph0" class="graph" transform="scale(1 1) rotate(0) translate(4 443)">
<title>Components/Service/AktivMusSimple</title>
<g id="clust1" class="cluster">
<title>clusterdir_6164661bfb521e4b540c7b7052af2911</title>
<g id="a_clust1"><a xlink:href="dir_6164661bfb521e4b540c7b7052af2911.html" target="_top" xlink:title="Service">
<polygon fill="#ddddee" stroke="black" points="8,-272 8,-431 280,-431 280,-272 8,-272"/>
<text text-anchor="middle" x="144" y="-419" font-family="Helvetica,sans-Serif" font-size="10.00">Service</text>
</a>
</g>
</g>
<g id="clust2" class="cluster">
<title>clusterdir_f111871e06e6ccab49d5870f43e09b58</title>
<g id="a_clust2"><a xlink:href="dir_f111871e06e6ccab49d5870f43e09b58.html" target="_top">
<polygon fill="#eeeeff" stroke="black" points="16,-280 16,-404 272,-404 272,-280 16,-280"/>
</a>
</g>
</g>
<!-- dir_f111871e06e6ccab49d5870f43e09b58 -->
<g id="node1" class="node">
<title>dir_f111871e06e6ccab49d5870f43e09b58</title>
<text text-anchor="middle" x="216" y="-375.5" font-family="Helvetica,sans-Serif" font-size="10.00">AktivMusSimple</text>
</g>
<!-- dir_9727953329a9486c582926f71fb60f92 -->
<g id="node2" class="node">
<title>dir_9727953329a9486c582926f71fb60f92</title>
<g id="a_node2"><a xlink:href="dir_9727953329a9486c582926f71fb60f92.html" target="_top" xlink:title="include">
<polygon fill="white" stroke="black" points="114,-324 60,-324 60,-288 114,-288 114,-324"/>
<text text-anchor="middle" x="87" y="-303.5" font-family="Helvetica,sans-Serif" font-size="10.00">include</text>
</a>
</g>
</g>
<!-- dir_a4226c5615a06a31e6344f5f3fd917e1 -->
<g id="node5" class="node">
<title>dir_a4226c5615a06a31e6344f5f3fd917e1</title>
<g id="a_node5"><a xlink:href="dir_a4226c5615a06a31e6344f5f3fd917e1.html" target="_top" xlink:title="Objects">
<polygon fill="none" stroke="red" points="198,-180 144,-180 144,-144 198,-144 198,-180"/>
<text text-anchor="middle" x="171" y="-159.5" font-family="Helvetica,sans-Serif" font-size="10.00">Objects</text>
</a>
</g>
</g>
<!-- dir_9727953329a9486c582926f71fb60f92&#45;&gt;dir_a4226c5615a06a31e6344f5f3fd917e1 -->
<g id="edge3" class="edge">
<title>dir_9727953329a9486c582926f71fb60f92&#45;&gt;dir_a4226c5615a06a31e6344f5f3fd917e1</title>
<path fill="none" stroke="black" d="M102.9,-287.69C111.57,-277.71 122.11,-264.68 130,-252 142.44,-232.01 153.41,-207.63 160.86,-189.44"/>
<polygon fill="black" stroke="black" points="164.16,-190.63 164.63,-180.04 157.66,-188.02 164.16,-190.63"/>
<g id="a_edge3&#45;headlabel"><a xlink:href="dir_000167_000016.html" target="_top" xlink:title="2">
<text text-anchor="middle" x="165.46" y="-192.52" font-family="Helvetica,sans-Serif" font-size="10.00">2</text>
</a>
</g>
</g>
<!-- dir_8efbaa1056a51686757185dce0bc8da0 -->
<g id="node6" class="node">
<title>dir_8efbaa1056a51686757185dce0bc8da0</title>
<g id="a_node6"><a xlink:href="dir_8efbaa1056a51686757185dce0bc8da0.html" target="_top" xlink:title="Actuator">
<polygon fill="none" stroke="red" points="88,-252 30,-252 30,-216 88,-216 88,-252"/>
<text text-anchor="middle" x="59" y="-231.5" font-family="Helvetica,sans-Serif" font-size="10.00">Actuator</text>
</a>
</g>
</g>
<!-- dir_9727953329a9486c582926f71fb60f92&#45;&gt;dir_8efbaa1056a51686757185dce0bc8da0 -->
<g id="edge4" class="edge">
<title>dir_9727953329a9486c582926f71fb60f92&#45;&gt;dir_8efbaa1056a51686757185dce0bc8da0</title>
<path fill="none" stroke="black" d="M80.08,-287.7C76.93,-279.81 73.12,-270.3 69.62,-261.55"/>
<polygon fill="black" stroke="black" points="72.81,-260.09 65.84,-252.1 66.31,-262.69 72.81,-260.09"/>
<g id="a_edge4&#45;headlabel"><a xlink:href="dir_000167_000002.html" target="_top" xlink:title="1">
<text text-anchor="middle" x="76.78" y="-259.87" font-family="Helvetica,sans-Serif" font-size="10.00">1</text>
</a>
</g>
</g>
<!-- dir_1a5504e72c2ab618c124e6472b08d26c -->
<g id="node7" class="node">
<title>dir_1a5504e72c2ab618c124e6472b08d26c</title>
<g id="a_node7"><a xlink:href="dir_1a5504e72c2ab618c124e6472b08d26c.html" target="_top" xlink:title="Global_Include">
<polygon fill="none" stroke="black" points="119.5,-36 30.5,-36 30.5,0 119.5,0 119.5,-36"/>
<text text-anchor="middle" x="75" y="-15.5" font-family="Helvetica,sans-Serif" font-size="10.00">Global_Include</text>
</a>
</g>
</g>
<!-- dir_9727953329a9486c582926f71fb60f92&#45;&gt;dir_1a5504e72c2ab618c124e6472b08d26c -->
<g id="edge5" class="edge">
<title>dir_9727953329a9486c582926f71fb60f92&#45;&gt;dir_1a5504e72c2ab618c124e6472b08d26c</title>
<path fill="none" stroke="black" d="M59.76,-291.01C45.38,-282 29.07,-268.83 21,-252 -12.69,-181.74 32.03,-89.29 58.3,-44.93"/>
<polygon fill="black" stroke="black" points="61.39,-46.59 63.6,-36.22 55.41,-42.95 61.39,-46.59"/>
<g id="a_edge5&#45;headlabel"><a xlink:href="dir_000167_000144.html" target="_top" xlink:title="1">
<text text-anchor="middle" x="61.95" y="-48.63" font-family="Helvetica,sans-Serif" font-size="10.00">1</text>
</a>
</g>
</g>
<!-- dir_e185953657720ba3a67126696ef566c7 -->
<g id="node8" class="node">
<title>dir_e185953657720ba3a67126696ef566c7</title>
<g id="a_node8"><a xlink:href="dir_e185953657720ba3a67126696ef566c7.html" target="_top" xlink:title="Interfaces">
<polygon fill="none" stroke="red" points="142.5,-108 77.5,-108 77.5,-72 142.5,-72 142.5,-108"/>
<text text-anchor="middle" x="110" y="-87.5" font-family="Helvetica,sans-Serif" font-size="10.00">Interfaces</text>
</a>
</g>
</g>
<!-- dir_9727953329a9486c582926f71fb60f92&#45;&gt;dir_e185953657720ba3a67126696ef566c7 -->
<g id="edge6" class="edge">
<title>dir_9727953329a9486c582926f71fb60f92&#45;&gt;dir_e185953657720ba3a67126696ef566c7</title>
<path fill="none" stroke="black" d="M90.71,-287.89C92.83,-277.54 95.38,-264.06 97,-252 103.25,-205.51 106.88,-151.03 108.65,-118.86"/>
<polygon fill="black" stroke="black" points="112.17,-118.63 109.2,-108.46 105.17,-118.26 112.17,-118.63"/>
<g id="a_edge6&#45;headlabel"><a xlink:href="dir_000167_000093.html" target="_top" xlink:title="1">
<text text-anchor="middle" x="114.81" y="-119.87" font-family="Helvetica,sans-Serif" font-size="10.00">1</text>
</a>
</g>
</g>
<!-- dir_45c760a87a5b6501140792e95f122bb2 -->
<g id="node3" class="node">
<title>dir_45c760a87a5b6501140792e95f122bb2</title>
<g id="a_node3"><a xlink:href="dir_45c760a87a5b6501140792e95f122bb2.html" target="_top" xlink:title="src">
<polygon fill="white" stroke="black" points="150,-396 96,-396 96,-360 150,-360 150,-396"/>
<text text-anchor="middle" x="123" y="-375.5" font-family="Helvetica,sans-Serif" font-size="10.00">src</text>
</a>
</g>
</g>
<!-- dir_45c760a87a5b6501140792e95f122bb2&#45;&gt;dir_9727953329a9486c582926f71fb60f92 -->
<g id="edge7" class="edge">
<title>dir_45c760a87a5b6501140792e95f122bb2&#45;&gt;dir_9727953329a9486c582926f71fb60f92</title>
<path fill="none" stroke="black" d="M114.1,-359.7C110,-351.73 105.05,-342.1 100.51,-333.26"/>
<polygon fill="black" stroke="black" points="103.48,-331.4 95.8,-324.1 97.26,-334.6 103.48,-331.4"/>
<g id="a_edge7&#45;headlabel"><a xlink:href="dir_000168_000167.html" target="_top" xlink:title="1">
<text text-anchor="middle" x="107.65" y="-330.79" font-family="Helvetica,sans-Serif" font-size="10.00">1</text>
</a>
</g>
</g>
<!-- dir_3935290499818bf41fd36844b582ce63 -->
<g id="node4" class="node">
<title>dir_3935290499818bf41fd36844b582ce63</title>
<g id="a_node4"><a xlink:href="dir_3935290499818bf41fd36844b582ce63.html" target="_top" xlink:title="test">
<polygon fill="white" stroke="red" points="78,-396 24,-396 24,-360 78,-360 78,-396"/>
<text text-anchor="middle" x="51" y="-375.5" font-family="Helvetica,sans-Serif" font-size="10.00">test</text>
</a>
</g>
</g>
<!-- dir_3935290499818bf41fd36844b582ce63&#45;&gt;dir_9727953329a9486c582926f71fb60f92 -->
<g id="edge11" class="edge">
<title>dir_3935290499818bf41fd36844b582ce63&#45;&gt;dir_9727953329a9486c582926f71fb60f92</title>
<path fill="none" stroke="black" d="M59.9,-359.7C64,-351.73 68.95,-342.1 73.49,-333.26"/>
<polygon fill="black" stroke="black" points="76.74,-334.6 78.2,-324.1 70.52,-331.4 76.74,-334.6"/>
<g id="a_edge11&#45;headlabel"><a xlink:href="dir_000112_000167.html" target="_top" xlink:title="1">
<text text-anchor="middle" x="77.62" y="-336.59" font-family="Helvetica,sans-Serif" font-size="10.00">1</text>
</a>
</g>
</g>
<!-- dir_a4226c5615a06a31e6344f5f3fd917e1&#45;&gt;dir_1a5504e72c2ab618c124e6472b08d26c -->
<g id="edge1" class="edge">
<title>dir_a4226c5615a06a31e6344f5f3fd917e1&#45;&gt;dir_1a5504e72c2ab618c124e6472b08d26c</title>
<path fill="none" stroke="black" d="M170.76,-143.83C169.72,-124.77 165.66,-93.82 151,-72 142.84,-59.86 130.89,-49.65 118.87,-41.54"/>
<polygon fill="black" stroke="black" points="120.48,-38.42 110.16,-36.01 116.73,-44.33 120.48,-38.42"/>
<g id="a_edge1&#45;headlabel"><a xlink:href="dir_000016_000144.html" target="_top" xlink:title="26">
<text text-anchor="middle" x="125.04" y="-35.45" font-family="Helvetica,sans-Serif" font-size="10.00">26</text>
</a>
</g>
</g>
<!-- dir_a4226c5615a06a31e6344f5f3fd917e1&#45;&gt;dir_e185953657720ba3a67126696ef566c7 -->
<g id="edge2" class="edge">
<title>dir_a4226c5615a06a31e6344f5f3fd917e1&#45;&gt;dir_e185953657720ba3a67126696ef566c7</title>
<path fill="none" stroke="black" d="M150.01,-143.7C141.91,-135.39 132.9,-125.28 125.4,-116.14"/>
<polygon fill="black" stroke="black" points="127.97,-113.75 119.01,-108.1 122.5,-118.11 127.97,-113.75"/>
<g id="a_edge2&#45;headlabel"><a xlink:href="dir_000016_000093.html" target="_top" xlink:title="8">
<text text-anchor="middle" x="132.43" y="-112.3" font-family="Helvetica,sans-Serif" font-size="10.00">8</text>
</a>
</g>
</g>
<!-- dir_8efbaa1056a51686757185dce0bc8da0&#45;&gt;dir_a4226c5615a06a31e6344f5f3fd917e1 -->
<g id="edge8" class="edge">
<title>dir_8efbaa1056a51686757185dce0bc8da0&#45;&gt;dir_a4226c5615a06a31e6344f5f3fd917e1</title>
<path fill="none" stroke="black" d="M86.4,-215.88C101.15,-206.66 119.53,-195.17 135.38,-185.26"/>
<polygon fill="black" stroke="black" points="137.26,-188.22 143.88,-179.95 133.55,-182.28 137.26,-188.22"/>
<g id="a_edge8&#45;headlabel"><a xlink:href="dir_000002_000016.html" target="_top" xlink:title="3">
<text text-anchor="middle" x="135.72" y="-190.03" font-family="Helvetica,sans-Serif" font-size="10.00">3</text>
</a>
</g>
</g>
<!-- dir_8efbaa1056a51686757185dce0bc8da0&#45;&gt;dir_1a5504e72c2ab618c124e6472b08d26c -->
<g id="edge9" class="edge">
<title>dir_8efbaa1056a51686757185dce0bc8da0&#45;&gt;dir_1a5504e72c2ab618c124e6472b08d26c</title>
<path fill="none" stroke="black" d="M59.54,-215.58C60.56,-186 63.11,-124.12 68,-72 68.79,-63.55 69.91,-54.38 71.02,-46.08"/>
<polygon fill="black" stroke="black" points="74.49,-46.53 72.4,-36.15 67.56,-45.57 74.49,-46.53"/>
<g id="a_edge9&#45;headlabel"><a xlink:href="dir_000002_000144.html" target="_top" xlink:title="1">
<text text-anchor="middle" x="76.81" y="-47.99" font-family="Helvetica,sans-Serif" font-size="10.00">1</text>
</a>
</g>
</g>
<!-- dir_8efbaa1056a51686757185dce0bc8da0&#45;&gt;dir_e185953657720ba3a67126696ef566c7 -->
<g id="edge10" class="edge">
<title>dir_8efbaa1056a51686757185dce0bc8da0&#45;&gt;dir_e185953657720ba3a67126696ef566c7</title>
<path fill="none" stroke="black" d="M65.15,-215.87C73.92,-191.46 90.09,-146.43 100.43,-117.64"/>
<polygon fill="black" stroke="black" points="103.74,-118.78 103.83,-108.19 97.15,-116.42 103.74,-118.78"/>
<g id="a_edge10&#45;headlabel"><a xlink:href="dir_000002_000093.html" target="_top" xlink:title="1">
<text text-anchor="middle" x="105.2" y="-120.63" font-family="Helvetica,sans-Serif" font-size="10.00">1</text>
</a>
</g>
</g>
<!-- dir_e185953657720ba3a67126696ef566c7&#45;&gt;dir_a4226c5615a06a31e6344f5f3fd917e1 -->
<g id="edge12" class="edge">
<title>dir_e185953657720ba3a67126696ef566c7&#45;&gt;dir_a4226c5615a06a31e6344f5f3fd917e1</title>
<path fill="none" stroke="black" d="M130.8,-108.1C138.88,-116.38 147.9,-126.49 155.42,-135.64"/>
<polygon fill="black" stroke="black" points="152.87,-138.06 161.84,-143.7 158.34,-133.69 152.87,-138.06"/>
<g id="a_edge12&#45;headlabel"><a xlink:href="dir_000093_000016.html" target="_top" xlink:title="23">
<text text-anchor="middle" x="148.41" y="-134.51" font-family="Helvetica,sans-Serif" font-size="10.00">23</text>
</a>
</g>
</g>
<!-- dir_e185953657720ba3a67126696ef566c7&#45;&gt;dir_1a5504e72c2ab618c124e6472b08d26c -->
<g id="edge13" class="edge">
<title>dir_e185953657720ba3a67126696ef566c7&#45;&gt;dir_1a5504e72c2ab618c124e6472b08d26c</title>
<path fill="none" stroke="black" d="M101.35,-71.7C97.36,-63.73 92.55,-54.1 88.13,-45.26"/>
<polygon fill="black" stroke="black" points="91.15,-43.48 83.55,-36.1 84.89,-46.61 91.15,-43.48"/>
<g id="a_edge13&#45;headlabel"><a xlink:href="dir_000093_000144.html" target="_top" xlink:title="15">
<text text-anchor="middle" x="95.3" y="-42.93" font-family="Helvetica,sans-Serif" font-size="10.00">15</text>
</a>
</g>
</g>
</g>
</svg>
