<?xml version="1.0" encoding="UTF-8" standalone="no"?>
<!DOCTYPE svg PUBLIC "-//W3C//DTD SVG 1.1//EN"
 "http://www.w3.org/Graphics/SVG/1.1/DTD/svg11.dtd">
<!-- Generated by graphviz version 2.43.0 (0)
 -->
<!-- Title: Components/Interfaces/SensorControllerBase Pages: 1 -->
<svg width="382pt" height="375pt"
 viewBox="0.00 0.00 382.05 375.00" xmlns="http://www.w3.org/2000/svg" xmlns:xlink="http://www.w3.org/1999/xlink">
<g id="graph0" class="graph" transform="scale(1 1) rotate(0) translate(4 371)">
<title>Components/Interfaces/SensorControllerBase</title>
<g id="clust1" class="cluster">
<title>clusterdir_e185953657720ba3a67126696ef566c7</title>
<g id="a_clust1"><a xlink:href="dir_e185953657720ba3a67126696ef566c7.html" target="_top" xlink:title="Interfaces">
<polygon fill="#ddddee" stroke="black" points="8,-200 8,-359 306,-359 306,-200 8,-200"/>
<text text-anchor="middle" x="157" y="-347" font-family="Helvetica,sans-Serif" font-size="10.00">Interfaces</text>
</a>
</g>
</g>
<g id="clust2" class="cluster">
<title>clusterdir_2ad1338e1cdce11c3a4014cab4fdb56f</title>
<g id="a_clust2"><a xlink:href="dir_2ad1338e1cdce11c3a4014cab4fdb56f.html" target="_top">
<polygon fill="#eeeeff" stroke="black" points="16,-208 16,-332 298,-332 298,-208 16,-208"/>
</a>
</g>
</g>
<!-- dir_2ad1338e1cdce11c3a4014cab4fdb56f -->
<g id="node1" class="node">
<title>dir_2ad1338e1cdce11c3a4014cab4fdb56f</title>
<text text-anchor="middle" x="229" y="-303.5" font-family="Helvetica,sans-Serif" font-size="10.00">SensorControllerBase</text>
</g>
<!-- dir_ebc01a984fabf86b7bd8d39710a233a5 -->
<g id="node2" class="node">
<title>dir_ebc01a984fabf86b7bd8d39710a233a5</title>
<g id="a_node2"><a xlink:href="dir_ebc01a984fabf86b7bd8d39710a233a5.html" target="_top" xlink:title="include">
<polygon fill="white" stroke="black" points="222,-252 168,-252 168,-216 222,-216 222,-252"/>
<text text-anchor="middle" x="195" y="-231.5" font-family="Helvetica,sans-Serif" font-size="10.00">include</text>
</a>
</g>
</g>
<!-- dir_a4226c5615a06a31e6344f5f3fd917e1 -->
<g id="node5" class="node">
<title>dir_a4226c5615a06a31e6344f5f3fd917e1</title>
<g id="a_node5"><a xlink:href="dir_a4226c5615a06a31e6344f5f3fd917e1.html" target="_top" xlink:title="Objects">
<polygon fill="none" stroke="red" points="368,-252 314,-252 314,-216 368,-216 368,-252"/>
<text text-anchor="middle" x="341" y="-231.5" font-family="Helvetica,sans-Serif" font-size="10.00">Objects</text>
</a>
</g>
</g>
<!-- dir_ebc01a984fabf86b7bd8d39710a233a5&#45;&gt;dir_a4226c5615a06a31e6344f5f3fd917e1 -->
<g id="edge5" class="edge">
<title>dir_ebc01a984fabf86b7bd8d39710a233a5&#45;&gt;dir_a4226c5615a06a31e6344f5f3fd917e1</title>
<path fill="none" stroke="black" d="M222.09,-234C249.26,-234 276.42,-234 303.59,-234"/>
<polygon fill="black" stroke="black" points="303.59,-237.5 313.59,-234 303.59,-230.5 303.59,-237.5"/>
<g id="a_edge5&#45;headlabel"><a xlink:href="dir_000149_000020.html" target="_top" xlink:title="2">
<text text-anchor="middle" x="300" y="-237.84" font-family="Helvetica,sans-Serif" font-size="10.00">2</text>
</a>
</g>
</g>
<!-- dir_1a5504e72c2ab618c124e6472b08d26c -->
<g id="node6" class="node">
<title>dir_1a5504e72c2ab618c124e6472b08d26c</title>
<g id="a_node6"><a xlink:href="dir_1a5504e72c2ab618c124e6472b08d26c.html" target="_top" xlink:title="Global_Include">
<polygon fill="none" stroke="black" points="344.5,-36 255.5,-36 255.5,0 344.5,0 344.5,-36"/>
<text text-anchor="middle" x="300" y="-15.5" font-family="Helvetica,sans-Serif" font-size="10.00">Global_Include</text>
</a>
</g>
</g>
<!-- dir_ebc01a984fabf86b7bd8d39710a233a5&#45;&gt;dir_1a5504e72c2ab618c124e6472b08d26c -->
<g id="edge6" class="edge">
<title>dir_ebc01a984fabf86b7bd8d39710a233a5&#45;&gt;dir_1a5504e72c2ab618c124e6472b08d26c</title>
<path fill="none" stroke="black" d="M194.8,-215.95C195.14,-197.55 197.35,-167.68 207,-144 222.86,-105.06 253.74,-67.33 275.56,-43.69"/>
<polygon fill="black" stroke="black" points="278.28,-45.91 282.58,-36.23 273.18,-41.12 278.28,-45.91"/>
<g id="a_edge6&#45;headlabel"><a xlink:href="dir_000149_000124.html" target="_top" xlink:title="1">
<text text-anchor="middle" x="277.88" y="-47.98" font-family="Helvetica,sans-Serif" font-size="10.00">1</text>
</a>
</g>
</g>
<!-- dir_4d0b0adf7e9fb892c3df556e9cbb05d0 -->
<g id="node7" class="node">
<title>dir_4d0b0adf7e9fb892c3df556e9cbb05d0</title>
<g id="a_node7"><a xlink:href="dir_4d0b0adf7e9fb892c3df556e9cbb05d0.html" target="_top" xlink:title="Protocols">
<polygon fill="none" stroke="red" points="304,-180 242,-180 242,-144 304,-144 304,-180"/>
<text text-anchor="middle" x="273" y="-159.5" font-family="Helvetica,sans-Serif" font-size="10.00">Protocols</text>
</a>
</g>
</g>
<!-- dir_ebc01a984fabf86b7bd8d39710a233a5&#45;&gt;dir_4d0b0adf7e9fb892c3df556e9cbb05d0 -->
<g id="edge7" class="edge">
<title>dir_ebc01a984fabf86b7bd8d39710a233a5&#45;&gt;dir_4d0b0adf7e9fb892c3df556e9cbb05d0</title>
<path fill="none" stroke="black" d="M214.28,-215.7C223.92,-207.05 235.73,-196.45 246.23,-187.03"/>
<polygon fill="black" stroke="black" points="248.84,-189.39 253.94,-180.1 244.16,-184.18 248.84,-189.39"/>
<g id="a_edge7&#45;headlabel"><a xlink:href="dir_000149_000063.html" target="_top" xlink:title="2">
<text text-anchor="middle" x="248.06" y="-191.4" font-family="Helvetica,sans-Serif" font-size="10.00">2</text>
</a>
</g>
</g>
<!-- dir_6a49a4a01df89ea000e629175e7db917 -->
<g id="node8" class="node">
<title>dir_6a49a4a01df89ea000e629175e7db917</title>
<g id="a_node8"><a xlink:href="dir_6a49a4a01df89ea000e629175e7db917.html" target="_top" xlink:title="RTOS">
<polygon fill="none" stroke="red" points="355,-108 301,-108 301,-72 355,-72 355,-108"/>
<text text-anchor="middle" x="328" y="-87.5" font-family="Helvetica,sans-Serif" font-size="10.00">RTOS</text>
</a>
</g>
</g>
<!-- dir_ebc01a984fabf86b7bd8d39710a233a5&#45;&gt;dir_6a49a4a01df89ea000e629175e7db917 -->
<g id="edge8" class="edge">
<title>dir_ebc01a984fabf86b7bd8d39710a233a5&#45;&gt;dir_6a49a4a01df89ea000e629175e7db917</title>
<path fill="none" stroke="black" d="M198.78,-215.77C203.78,-196.38 214.23,-164.86 233,-144 248.85,-126.39 271.98,-113.31 291.45,-104.55"/>
<polygon fill="black" stroke="black" points="292.86,-107.75 300.67,-100.59 290.1,-101.32 292.86,-107.75"/>
<g id="a_edge8&#45;headlabel"><a xlink:href="dir_000149_000070.html" target="_top" xlink:title="2">
<text text-anchor="middle" x="290.68" y="-109.28" font-family="Helvetica,sans-Serif" font-size="10.00">2</text>
</a>
</g>
</g>
<!-- dir_ef82cbca705c1aa3c5d9e2c99a64b0c6 -->
<g id="node3" class="node">
<title>dir_ef82cbca705c1aa3c5d9e2c99a64b0c6</title>
<g id="a_node3"><a xlink:href="dir_ef82cbca705c1aa3c5d9e2c99a64b0c6.html" target="_top" xlink:title="src">
<polygon fill="white" stroke="black" points="150,-324 96,-324 96,-288 150,-288 150,-324"/>
<text text-anchor="middle" x="123" y="-303.5" font-family="Helvetica,sans-Serif" font-size="10.00">src</text>
</a>
</g>
</g>
<!-- dir_ef82cbca705c1aa3c5d9e2c99a64b0c6&#45;&gt;dir_ebc01a984fabf86b7bd8d39710a233a5 -->
<g id="edge10" class="edge">
<title>dir_ef82cbca705c1aa3c5d9e2c99a64b0c6&#45;&gt;dir_ebc01a984fabf86b7bd8d39710a233a5</title>
<path fill="none" stroke="black" d="M140.8,-287.7C149.6,-279.14 160.38,-268.66 170,-259.3"/>
<polygon fill="black" stroke="black" points="172.68,-261.58 177.41,-252.1 167.8,-256.57 172.68,-261.58"/>
<g id="a_edge10&#45;headlabel"><a xlink:href="dir_000150_000149.html" target="_top" xlink:title="1">
<text text-anchor="middle" x="172.08" y="-263.63" font-family="Helvetica,sans-Serif" font-size="10.00">1</text>
</a>
</g>
</g>
<!-- dir_99cf4cc44413f96835cc1bfa61559b23 -->
<g id="node4" class="node">
<title>dir_99cf4cc44413f96835cc1bfa61559b23</title>
<g id="a_node4"><a xlink:href="dir_99cf4cc44413f96835cc1bfa61559b23.html" target="_top" xlink:title="test">
<polygon fill="white" stroke="red" points="78,-324 24,-324 24,-288 78,-288 78,-324"/>
<text text-anchor="middle" x="51" y="-303.5" font-family="Helvetica,sans-Serif" font-size="10.00">test</text>
</a>
</g>
</g>
<!-- dir_99cf4cc44413f96835cc1bfa61559b23&#45;&gt;dir_ebc01a984fabf86b7bd8d39710a233a5 -->
<g id="edge9" class="edge">
<title>dir_99cf4cc44413f96835cc1bfa61559b23&#45;&gt;dir_ebc01a984fabf86b7bd8d39710a233a5</title>
<path fill="none" stroke="black" d="M78.09,-291.83C100.77,-280.81 133.36,-264.97 158.37,-252.81"/>
<polygon fill="black" stroke="black" points="160.08,-255.87 167.55,-248.35 157.02,-249.57 160.08,-255.87"/>
<g id="a_edge9&#45;headlabel"><a xlink:href="dir_000099_000149.html" target="_top" xlink:title="2">
<text text-anchor="middle" x="158.09" y="-257.49" font-family="Helvetica,sans-Serif" font-size="10.00">2</text>
</a>
</g>
</g>
<!-- dir_a4226c5615a06a31e6344f5f3fd917e1&#45;&gt;dir_ebc01a984fabf86b7bd8d39710a233a5 -->
<g id="edge1" class="edge">
<title>dir_a4226c5615a06a31e6344f5f3fd917e1&#45;&gt;dir_ebc01a984fabf86b7bd8d39710a233a5</title>
<path fill="none" stroke="black" d="M313.59,-234C286.43,-234 259.26,-234 232.1,-234"/>
<polygon fill="black" stroke="black" points="232.09,-230.5 222.09,-234 232.09,-237.5 232.09,-230.5"/>
<g id="a_edge1&#45;headlabel"><a xlink:href="dir_000020_000149.html" target="_top" xlink:title="1">
<text text-anchor="middle" x="235.68" y="-225.16" font-family="Helvetica,sans-Serif" font-size="10.00">1</text>
</a>
</g>
</g>
<!-- dir_a4226c5615a06a31e6344f5f3fd917e1&#45;&gt;dir_1a5504e72c2ab618c124e6472b08d26c -->
<g id="edge2" class="edge">
<title>dir_a4226c5615a06a31e6344f5f3fd917e1&#45;&gt;dir_1a5504e72c2ab618c124e6472b08d26c</title>
<path fill="none" stroke="black" d="M349.57,-215.61C363.35,-185.03 386.71,-120.29 364,-72 358.48,-60.26 348.93,-50.22 338.88,-42.15"/>
<polygon fill="black" stroke="black" points="340.88,-39.27 330.77,-36.09 336.69,-44.88 340.88,-39.27"/>
<g id="a_edge2&#45;headlabel"><a xlink:href="dir_000020_000124.html" target="_top" xlink:title="26">
<text text-anchor="middle" x="345.46" y="-36.65" font-family="Helvetica,sans-Serif" font-size="10.00">26</text>
</a>
</g>
</g>
<!-- dir_a4226c5615a06a31e6344f5f3fd917e1&#45;&gt;dir_4d0b0adf7e9fb892c3df556e9cbb05d0 -->
<g id="edge3" class="edge">
<title>dir_a4226c5615a06a31e6344f5f3fd917e1&#45;&gt;dir_4d0b0adf7e9fb892c3df556e9cbb05d0</title>
<path fill="none" stroke="black" d="M318.28,-215.7C309.17,-207.22 298.92,-196.86 290.4,-187.58"/>
<polygon fill="black" stroke="black" points="292.99,-185.23 283.72,-180.1 287.77,-189.89 292.99,-185.23"/>
<g id="a_edge3&#45;headlabel"><a xlink:href="dir_000020_000063.html" target="_top" xlink:title="3">
<text text-anchor="middle" x="297.51" y="-183.52" font-family="Helvetica,sans-Serif" font-size="10.00">3</text>
</a>
</g>
</g>
<!-- dir_a4226c5615a06a31e6344f5f3fd917e1&#45;&gt;dir_6a49a4a01df89ea000e629175e7db917 -->
<g id="edge4" class="edge">
<title>dir_a4226c5615a06a31e6344f5f3fd917e1&#45;&gt;dir_6a49a4a01df89ea000e629175e7db917</title>
<path fill="none" stroke="black" d="M334.85,-215.87C330.07,-191.67 325.71,-147.21 325.05,-118.39"/>
<polygon fill="black" stroke="black" points="328.55,-118.17 324.98,-108.19 321.55,-118.21 328.55,-118.17"/>
<g id="a_edge4&#45;headlabel"><a xlink:href="dir_000020_000070.html" target="_top" xlink:title="4">
<text text-anchor="middle" x="331.41" y="-119.24" font-family="Helvetica,sans-Serif" font-size="10.00">4</text>
</a>
</g>
</g>
<!-- dir_4d0b0adf7e9fb892c3df556e9cbb05d0&#45;&gt;dir_a4226c5615a06a31e6344f5f3fd917e1 -->
<g id="edge11" class="edge">
<title>dir_4d0b0adf7e9fb892c3df556e9cbb05d0&#45;&gt;dir_a4226c5615a06a31e6344f5f3fd917e1</title>
<path fill="none" stroke="black" d="M295.51,-180.1C304.6,-188.55 314.85,-198.9 323.4,-208.2"/>
<polygon fill="black" stroke="black" points="320.83,-210.58 330.11,-215.7 326.05,-205.91 320.83,-210.58"/>
<g id="a_edge11&#45;headlabel"><a xlink:href="dir_000063_000020.html" target="_top" xlink:title="14">
<text text-anchor="middle" x="316.32" y="-207.29" font-family="Helvetica,sans-Serif" font-size="10.00">14</text>
</a>
</g>
</g>
<!-- dir_4d0b0adf7e9fb892c3df556e9cbb05d0&#45;&gt;dir_1a5504e72c2ab618c124e6472b08d26c -->
<g id="edge12" class="edge">
<title>dir_4d0b0adf7e9fb892c3df556e9cbb05d0&#45;&gt;dir_1a5504e72c2ab618c124e6472b08d26c</title>
<path fill="none" stroke="black" d="M276.26,-143.87C280.86,-119.67 289.31,-75.21 294.79,-46.39"/>
<polygon fill="black" stroke="black" points="298.3,-46.67 296.73,-36.19 291.43,-45.36 298.3,-46.67"/>
<g id="a_edge12&#45;headlabel"><a xlink:href="dir_000063_000124.html" target="_top" xlink:title="11">
<text text-anchor="middle" x="300.42" y="-48.23" font-family="Helvetica,sans-Serif" font-size="10.00">11</text>
</a>
</g>
</g>
<!-- dir_4d0b0adf7e9fb892c3df556e9cbb05d0&#45;&gt;dir_6a49a4a01df89ea000e629175e7db917 -->
<g id="edge13" class="edge">
<title>dir_4d0b0adf7e9fb892c3df556e9cbb05d0&#45;&gt;dir_6a49a4a01df89ea000e629175e7db917</title>
<path fill="none" stroke="black" d="M286.6,-143.7C293.12,-135.39 301.07,-125.28 308.25,-116.14"/>
<polygon fill="black" stroke="black" points="311.13,-118.13 314.56,-108.1 305.63,-113.81 311.13,-118.13"/>
<g id="a_edge13&#45;headlabel"><a xlink:href="dir_000063_000070.html" target="_top" xlink:title="3">
<text text-anchor="middle" x="311.15" y="-120.21" font-family="Helvetica,sans-Serif" font-size="10.00">3</text>
</a>
</g>
</g>
<!-- dir_6a49a4a01df89ea000e629175e7db917&#45;&gt;dir_a4226c5615a06a31e6344f5f3fd917e1 -->
<g id="edge14" class="edge">
<title>dir_6a49a4a01df89ea000e629175e7db917&#45;&gt;dir_a4226c5615a06a31e6344f5f3fd917e1</title>
<path fill="none" stroke="black" d="M334.16,-108.19C338.94,-132.42 343.3,-176.89 343.95,-205.68"/>
<polygon fill="black" stroke="black" points="340.45,-205.89 344.02,-215.87 347.45,-205.85 340.45,-205.89"/>
<g id="a_edge14&#45;headlabel"><a xlink:href="dir_000070_000020.html" target="_top" xlink:title="2">
<text text-anchor="middle" x="337.59" y="-199.82" font-family="Helvetica,sans-Serif" font-size="10.00">2</text>
</a>
</g>
</g>
<!-- dir_6a49a4a01df89ea000e629175e7db917&#45;&gt;dir_1a5504e72c2ab618c124e6472b08d26c -->
<g id="edge15" class="edge">
<title>dir_6a49a4a01df89ea000e629175e7db917&#45;&gt;dir_1a5504e72c2ab618c124e6472b08d26c</title>
<path fill="none" stroke="black" d="M321.08,-71.7C317.93,-63.81 314.12,-54.3 310.62,-45.55"/>
<polygon fill="black" stroke="black" points="313.81,-44.09 306.84,-36.1 307.31,-46.69 313.81,-44.09"/>
<g id="a_edge15&#45;headlabel"><a xlink:href="dir_000070_000124.html" target="_top" xlink:title="2">
<text text-anchor="middle" x="317.78" y="-43.87" font-family="Helvetica,sans-Serif" font-size="10.00">2</text>
</a>
</g>
</g>
</g>
</svg>
