<?xml version="1.0" encoding="UTF-8" standalone="no"?>
<!DOCTYPE svg PUBLIC "-//W3C//DTD SVG 1.1//EN"
 "http://www.w3.org/Graphics/SVG/1.1/DTD/svg11.dtd">
<!-- Generated by graphviz version 2.43.0 (0)
 -->
<!-- Title: Components/Service/WaterEstimator Pages: 1 -->
<svg width="292pt" height="447pt"
 viewBox="0.00 0.00 292.00 447.00" xmlns="http://www.w3.org/2000/svg" xmlns:xlink="http://www.w3.org/1999/xlink">
<g id="graph0" class="graph" transform="scale(1 1) rotate(0) translate(4 443)">
<title>Components/Service/WaterEstimator</title>
<g id="clust1" class="cluster">
<title>clusterdir_6164661bfb521e4b540c7b7052af2911</title>
<g id="a_clust1"><a xlink:href="dir_6164661bfb521e4b540c7b7052af2911.html" target="_top" xlink:title="Service">
<polygon fill="#ddddee" stroke="black" points="8,-272 8,-431 276,-431 276,-272 8,-272"/>
<text text-anchor="middle" x="142" y="-419" font-family="Helvetica,sans-Serif" font-size="10.00">Service</text>
</a>
</g>
</g>
<g id="clust2" class="cluster">
<title>clusterdir_e77af3bbaa4adbdd4c88bde744e7de0f</title>
<g id="a_clust2"><a xlink:href="dir_e77af3bbaa4adbdd4c88bde744e7de0f.html" target="_top">
<polygon fill="#eeeeff" stroke="black" points="16,-280 16,-404 268,-404 268,-280 16,-280"/>
</a>
</g>
</g>
<!-- dir_e77af3bbaa4adbdd4c88bde744e7de0f -->
<g id="node1" class="node">
<title>dir_e77af3bbaa4adbdd4c88bde744e7de0f</title>
<text text-anchor="middle" x="214" y="-375.5" font-family="Helvetica,sans-Serif" font-size="10.00">WaterEstimator</text>
</g>
<!-- dir_0cbcdbe4b8b1f5c823ca674f7be6ae41 -->
<g id="node2" class="node">
<title>dir_0cbcdbe4b8b1f5c823ca674f7be6ae41</title>
<g id="a_node2"><a xlink:href="dir_0cbcdbe4b8b1f5c823ca674f7be6ae41.html" target="_top" xlink:title="include">
<polygon fill="white" stroke="black" points="150,-324 96,-324 96,-288 150,-288 150,-324"/>
<text text-anchor="middle" x="123" y="-303.5" font-family="Helvetica,sans-Serif" font-size="10.00">include</text>
</a>
</g>
</g>
<!-- dir_a4226c5615a06a31e6344f5f3fd917e1 -->
<g id="node5" class="node">
<title>dir_a4226c5615a06a31e6344f5f3fd917e1</title>
<g id="a_node5"><a xlink:href="dir_a4226c5615a06a31e6344f5f3fd917e1.html" target="_top" xlink:title="Objects">
<polygon fill="none" stroke="red" points="126,-180 72,-180 72,-144 126,-144 126,-180"/>
<text text-anchor="middle" x="99" y="-159.5" font-family="Helvetica,sans-Serif" font-size="10.00">Objects</text>
</a>
</g>
</g>
<!-- dir_0cbcdbe4b8b1f5c823ca674f7be6ae41&#45;&gt;dir_a4226c5615a06a31e6344f5f3fd917e1 -->
<g id="edge6" class="edge">
<title>dir_0cbcdbe4b8b1f5c823ca674f7be6ae41&#45;&gt;dir_a4226c5615a06a31e6344f5f3fd917e1</title>
<path fill="none" stroke="black" d="M120.11,-287.87C116.01,-263.67 108.5,-219.21 103.63,-190.39"/>
<polygon fill="black" stroke="black" points="107.02,-189.47 101.91,-180.19 100.12,-190.63 107.02,-189.47"/>
<g id="a_edge6&#45;headlabel"><a xlink:href="dir_000247_000016.html" target="_top" xlink:title="1">
<text text-anchor="middle" x="110.42" y="-190.04" font-family="Helvetica,sans-Serif" font-size="10.00">1</text>
</a>
</g>
</g>
<!-- dir_1666c5f4940eb69dc85cb0f1045c5123 -->
<g id="node6" class="node">
<title>dir_1666c5f4940eb69dc85cb0f1045c5123</title>
<g id="a_node6"><a xlink:href="dir_1666c5f4940eb69dc85cb0f1045c5123.html" target="_top" xlink:title="AnalysisTools">
<polygon fill="none" stroke="red" points="255.5,-252 172.5,-252 172.5,-216 255.5,-216 255.5,-252"/>
<text text-anchor="middle" x="214" y="-231.5" font-family="Helvetica,sans-Serif" font-size="10.00">AnalysisTools</text>
</a>
</g>
</g>
<!-- dir_0cbcdbe4b8b1f5c823ca674f7be6ae41&#45;&gt;dir_1666c5f4940eb69dc85cb0f1045c5123 -->
<g id="edge7" class="edge">
<title>dir_0cbcdbe4b8b1f5c823ca674f7be6ae41&#45;&gt;dir_1666c5f4940eb69dc85cb0f1045c5123</title>
<path fill="none" stroke="black" d="M145.49,-287.7C156.96,-278.88 171.06,-268.03 183.48,-258.47"/>
<polygon fill="black" stroke="black" points="185.97,-260.98 191.76,-252.1 181.7,-255.43 185.97,-260.98"/>
<g id="a_edge7&#45;headlabel"><a xlink:href="dir_000247_000008.html" target="_top" xlink:title="1">
<text text-anchor="middle" x="184.85" y="-262.92" font-family="Helvetica,sans-Serif" font-size="10.00">1</text>
</a>
</g>
</g>
<!-- dir_1a5504e72c2ab618c124e6472b08d26c -->
<g id="node7" class="node">
<title>dir_1a5504e72c2ab618c124e6472b08d26c</title>
<g id="a_node7"><a xlink:href="dir_1a5504e72c2ab618c124e6472b08d26c.html" target="_top" xlink:title="Global_Include">
<polygon fill="none" stroke="black" points="160.5,-36 71.5,-36 71.5,0 160.5,0 160.5,-36"/>
<text text-anchor="middle" x="116" y="-15.5" font-family="Helvetica,sans-Serif" font-size="10.00">Global_Include</text>
</a>
</g>
</g>
<!-- dir_0cbcdbe4b8b1f5c823ca674f7be6ae41&#45;&gt;dir_1a5504e72c2ab618c124e6472b08d26c -->
<g id="edge8" class="edge">
<title>dir_0cbcdbe4b8b1f5c823ca674f7be6ae41&#45;&gt;dir_1a5504e72c2ab618c124e6472b08d26c</title>
<path fill="none" stroke="black" d="M111.59,-287.71C96.95,-264.41 72.35,-221.08 63,-180 51.89,-131.16 78.98,-76.1 98.38,-44.68"/>
<polygon fill="black" stroke="black" points="101.43,-46.4 103.86,-36.09 95.53,-42.64 101.43,-46.4"/>
<g id="a_edge8&#45;headlabel"><a xlink:href="dir_000247_000144.html" target="_top" xlink:title="1">
<text text-anchor="middle" x="101.89" y="-48.46" font-family="Helvetica,sans-Serif" font-size="10.00">1</text>
</a>
</g>
</g>
<!-- dir_e185953657720ba3a67126696ef566c7 -->
<g id="node8" class="node">
<title>dir_e185953657720ba3a67126696ef566c7</title>
<g id="a_node8"><a xlink:href="dir_e185953657720ba3a67126696ef566c7.html" target="_top" xlink:title="Interfaces">
<polygon fill="none" stroke="red" points="179.5,-108 114.5,-108 114.5,-72 179.5,-72 179.5,-108"/>
<text text-anchor="middle" x="147" y="-87.5" font-family="Helvetica,sans-Serif" font-size="10.00">Interfaces</text>
</a>
</g>
</g>
<!-- dir_0cbcdbe4b8b1f5c823ca674f7be6ae41&#45;&gt;dir_e185953657720ba3a67126696ef566c7 -->
<g id="edge9" class="edge">
<title>dir_0cbcdbe4b8b1f5c823ca674f7be6ae41&#45;&gt;dir_e185953657720ba3a67126696ef566c7</title>
<path fill="none" stroke="black" d="M124.92,-287.85C129.07,-250.83 138.9,-163.18 143.93,-118.39"/>
<polygon fill="black" stroke="black" points="147.43,-118.56 145.07,-108.23 140.47,-117.78 147.43,-118.56"/>
<g id="a_edge9&#45;headlabel"><a xlink:href="dir_000247_000093.html" target="_top" xlink:title="1">
<text text-anchor="middle" x="149.85" y="-119.95" font-family="Helvetica,sans-Serif" font-size="10.00">1</text>
</a>
</g>
</g>
<!-- dir_96986e640c559df93570f5675b50677d -->
<g id="node3" class="node">
<title>dir_96986e640c559df93570f5675b50677d</title>
<g id="a_node3"><a xlink:href="dir_96986e640c559df93570f5675b50677d.html" target="_top" xlink:title="src">
<polygon fill="white" stroke="black" points="150,-396 96,-396 96,-360 150,-360 150,-396"/>
<text text-anchor="middle" x="123" y="-375.5" font-family="Helvetica,sans-Serif" font-size="10.00">src</text>
</a>
</g>
</g>
<!-- dir_96986e640c559df93570f5675b50677d&#45;&gt;dir_0cbcdbe4b8b1f5c823ca674f7be6ae41 -->
<g id="edge5" class="edge">
<title>dir_96986e640c559df93570f5675b50677d&#45;&gt;dir_0cbcdbe4b8b1f5c823ca674f7be6ae41</title>
<path fill="none" stroke="black" d="M123,-359.7C123,-351.98 123,-342.71 123,-334.11"/>
<polygon fill="black" stroke="black" points="126.5,-334.1 123,-324.1 119.5,-334.1 126.5,-334.1"/>
<g id="a_edge5&#45;headlabel"><a xlink:href="dir_000248_000247.html" target="_top" xlink:title="1">
<text text-anchor="middle" x="129.34" y="-335.2" font-family="Helvetica,sans-Serif" font-size="10.00">1</text>
</a>
</g>
</g>
<!-- dir_5ffd3833b5571810cf9860b184a120b6 -->
<g id="node4" class="node">
<title>dir_5ffd3833b5571810cf9860b184a120b6</title>
<g id="a_node4"><a xlink:href="dir_5ffd3833b5571810cf9860b184a120b6.html" target="_top" xlink:title="test">
<polygon fill="white" stroke="red" points="78,-396 24,-396 24,-360 78,-360 78,-396"/>
<text text-anchor="middle" x="51" y="-375.5" font-family="Helvetica,sans-Serif" font-size="10.00">test</text>
</a>
</g>
</g>
<!-- dir_a4226c5615a06a31e6344f5f3fd917e1&#45;&gt;dir_1a5504e72c2ab618c124e6472b08d26c -->
<g id="edge1" class="edge">
<title>dir_a4226c5615a06a31e6344f5f3fd917e1&#45;&gt;dir_1a5504e72c2ab618c124e6472b08d26c</title>
<path fill="none" stroke="black" d="M99.46,-143.87C100.1,-125.89 101.6,-96.86 105,-72 106.16,-63.49 107.9,-54.3 109.65,-46"/>
<polygon fill="black" stroke="black" points="113.1,-46.6 111.83,-36.08 106.26,-45.1 113.1,-46.6"/>
<g id="a_edge1&#45;headlabel"><a xlink:href="dir_000016_000144.html" target="_top" xlink:title="26">
<text text-anchor="middle" x="115.1" y="-48.22" font-family="Helvetica,sans-Serif" font-size="10.00">26</text>
</a>
</g>
</g>
<!-- dir_a4226c5615a06a31e6344f5f3fd917e1&#45;&gt;dir_e185953657720ba3a67126696ef566c7 -->
<g id="edge2" class="edge">
<title>dir_a4226c5615a06a31e6344f5f3fd917e1&#45;&gt;dir_e185953657720ba3a67126696ef566c7</title>
<path fill="none" stroke="black" d="M104.95,-143.7C109.79,-135.39 116.53,-125.28 123.25,-116.14"/>
<polygon fill="black" stroke="black" points="126.1,-118.18 129.38,-108.1 120.53,-113.94 126.1,-118.18"/>
<g id="a_edge2&#45;headlabel"><a xlink:href="dir_000016_000093.html" target="_top" xlink:title="8">
<text text-anchor="middle" x="126.18" y="-120.26" font-family="Helvetica,sans-Serif" font-size="10.00">8</text>
</a>
</g>
</g>
<!-- dir_1666c5f4940eb69dc85cb0f1045c5123&#45;&gt;dir_a4226c5615a06a31e6344f5f3fd917e1 -->
<g id="edge3" class="edge">
<title>dir_1666c5f4940eb69dc85cb0f1045c5123&#45;&gt;dir_a4226c5615a06a31e6344f5f3fd917e1</title>
<path fill="none" stroke="black" d="M185.87,-215.88C170.49,-206.52 151.29,-194.83 134.86,-184.83"/>
<polygon fill="black" stroke="black" points="136.41,-181.67 126.05,-179.47 132.77,-187.65 136.41,-181.67"/>
<g id="a_edge3&#45;headlabel"><a xlink:href="dir_000008_000016.html" target="_top" xlink:title="6">
<text text-anchor="middle" x="140.96" y="-178.62" font-family="Helvetica,sans-Serif" font-size="10.00">6</text>
</a>
</g>
</g>
<!-- dir_1666c5f4940eb69dc85cb0f1045c5123&#45;&gt;dir_1a5504e72c2ab618c124e6472b08d26c -->
<g id="edge4" class="edge">
<title>dir_1666c5f4940eb69dc85cb0f1045c5123&#45;&gt;dir_1a5504e72c2ab618c124e6472b08d26c</title>
<path fill="none" stroke="black" d="M215.46,-215.56C217.22,-184.33 217.02,-117.86 189,-72 181.58,-59.85 170.22,-49.64 158.65,-41.53"/>
<polygon fill="black" stroke="black" points="160.53,-38.58 150.25,-36 156.68,-44.42 160.53,-38.58"/>
<g id="a_edge4&#45;headlabel"><a xlink:href="dir_000008_000144.html" target="_top" xlink:title="4">
<text text-anchor="middle" x="165.09" y="-35.68" font-family="Helvetica,sans-Serif" font-size="10.00">4</text>
</a>
</g>
</g>
<!-- dir_e185953657720ba3a67126696ef566c7&#45;&gt;dir_a4226c5615a06a31e6344f5f3fd917e1 -->
<g id="edge10" class="edge">
<title>dir_e185953657720ba3a67126696ef566c7&#45;&gt;dir_a4226c5615a06a31e6344f5f3fd917e1</title>
<path fill="none" stroke="black" d="M141.17,-108.1C136.36,-116.38 129.64,-126.49 122.91,-135.64"/>
<polygon fill="black" stroke="black" points="120.05,-133.62 116.78,-143.7 125.62,-137.85 120.05,-133.62"/>
<g id="a_edge10&#45;headlabel"><a xlink:href="dir_000093_000016.html" target="_top" xlink:title="23">
<text text-anchor="middle" x="119.96" y="-126.54" font-family="Helvetica,sans-Serif" font-size="10.00">23</text>
</a>
</g>
</g>
<!-- dir_e185953657720ba3a67126696ef566c7&#45;&gt;dir_1a5504e72c2ab618c124e6472b08d26c -->
<g id="edge11" class="edge">
<title>dir_e185953657720ba3a67126696ef566c7&#45;&gt;dir_1a5504e72c2ab618c124e6472b08d26c</title>
<path fill="none" stroke="black" d="M139.34,-71.7C135.81,-63.73 131.54,-54.1 127.63,-45.26"/>
<polygon fill="black" stroke="black" points="130.82,-43.83 123.57,-36.1 124.42,-46.67 130.82,-43.83"/>
<g id="a_edge11&#45;headlabel"><a xlink:href="dir_000093_000144.html" target="_top" xlink:title="15">
<text text-anchor="middle" x="134.88" y="-43.47" font-family="Helvetica,sans-Serif" font-size="10.00">15</text>
</a>
</g>
</g>
</g>
</svg>
