<?xml version="1.0" encoding="UTF-8" standalone="no"?>
<!DOCTYPE svg PUBLIC "-//W3C//DTD SVG 1.1//EN"
 "http://www.w3.org/Graphics/SVG/1.1/DTD/svg11.dtd">
<!-- Generated by graphviz version 2.43.0 (0)
 -->
<!-- Title: Components/Objects/Timeservice/include Pages: 1 -->
<svg width="127pt" height="223pt"
 viewBox="0.00 0.00 127.00 223.00" xmlns="http://www.w3.org/2000/svg" xmlns:xlink="http://www.w3.org/1999/xlink">
<g id="graph0" class="graph" transform="scale(1 1) rotate(0) translate(4 219)">
<title>Components/Objects/Timeservice/include</title>
<g id="clust1" class="cluster">
<title>clusterdir_82ae37b9d9d4852b543931d9ede35f57</title>
<g id="a_clust1"><a xlink:href="dir_82ae37b9d9d4852b543931d9ede35f57.html" target="_top" xlink:title="Timeservice">
<polygon fill="#ddddee" stroke="black" points="35,-136 35,-207 111,-207 111,-136 35,-136"/>
<text text-anchor="middle" x="73" y="-195" font-family="Helvetica,sans-Serif" font-size="10.00">Timeservice</text>
</a>
</g>
</g>
<!-- dir_9fe2c82a321e56c96b1dd2b87dfa4011 -->
<g id="node1" class="node">
<title>dir_9fe2c82a321e56c96b1dd2b87dfa4011</title>
<g id="a_node1"><a xlink:href="dir_9fe2c82a321e56c96b1dd2b87dfa4011.html" target="_top" xlink:title="include">
<polygon fill="#eeeeff" stroke="black" points="100,-180 46,-180 46,-144 100,-144 100,-180"/>
<text text-anchor="middle" x="73" y="-159.5" font-family="Helvetica,sans-Serif" font-size="10.00">include</text>
</a>
</g>
</g>
<!-- dir_4816d2fb8abcfd1fbfb7e56b67e0baa1 -->
<g id="node2" class="node">
<title>dir_4816d2fb8abcfd1fbfb7e56b67e0baa1</title>
<g id="a_node2"><a xlink:href="dir_4816d2fb8abcfd1fbfb7e56b67e0baa1.html" target="_top" xlink:title="ErrorHandler">
<polygon fill="none" stroke="red" points="78,-108 0,-108 0,-72 78,-72 78,-108"/>
<text text-anchor="middle" x="39" y="-87.5" font-family="Helvetica,sans-Serif" font-size="10.00">ErrorHandler</text>
</a>
</g>
</g>
<!-- dir_9fe2c82a321e56c96b1dd2b87dfa4011&#45;&gt;dir_4816d2fb8abcfd1fbfb7e56b67e0baa1 -->
<g id="edge1" class="edge">
<title>dir_9fe2c82a321e56c96b1dd2b87dfa4011&#45;&gt;dir_4816d2fb8abcfd1fbfb7e56b67e0baa1</title>
<path fill="none" stroke="black" d="M64.6,-143.7C60.73,-135.73 56.05,-126.1 51.76,-117.26"/>
<polygon fill="black" stroke="black" points="54.83,-115.57 47.31,-108.1 48.53,-118.63 54.83,-115.57"/>
<g id="a_edge1&#45;headlabel"><a xlink:href="dir_000180_000023.html" target="_top" xlink:title="2">
<text text-anchor="middle" x="58.95" y="-115.06" font-family="Helvetica,sans-Serif" font-size="10.00">2</text>
</a>
</g>
</g>
<!-- dir_1a5504e72c2ab618c124e6472b08d26c -->
<g id="node3" class="node">
<title>dir_1a5504e72c2ab618c124e6472b08d26c</title>
<g id="a_node3"><a xlink:href="dir_1a5504e72c2ab618c124e6472b08d26c.html" target="_top" xlink:title="Global_Include">
<polygon fill="none" stroke="black" points="116.5,-36 27.5,-36 27.5,0 116.5,0 116.5,-36"/>
<text text-anchor="middle" x="72" y="-15.5" font-family="Helvetica,sans-Serif" font-size="10.00">Global_Include</text>
</a>
</g>
</g>
<!-- dir_9fe2c82a321e56c96b1dd2b87dfa4011&#45;&gt;dir_1a5504e72c2ab618c124e6472b08d26c -->
<g id="edge2" class="edge">
<title>dir_9fe2c82a321e56c96b1dd2b87dfa4011&#45;&gt;dir_1a5504e72c2ab618c124e6472b08d26c</title>
<path fill="none" stroke="black" d="M78.82,-143.56C81.93,-133.33 85.43,-120.08 87,-108 89.06,-92.13 89.2,-87.85 87,-72 85.82,-63.48 83.61,-54.39 81.25,-46.2"/>
<polygon fill="black" stroke="black" points="84.52,-44.94 78.24,-36.41 77.83,-46.99 84.52,-44.94"/>
<g id="a_edge2&#45;headlabel"><a xlink:href="dir_000180_000125.html" target="_top" xlink:title="2">
<text text-anchor="middle" x="88.29" y="-45.04" font-family="Helvetica,sans-Serif" font-size="10.00">2</text>
</a>
</g>
</g>
<!-- dir_4816d2fb8abcfd1fbfb7e56b67e0baa1&#45;&gt;dir_1a5504e72c2ab618c124e6472b08d26c -->
<g id="edge3" class="edge">
<title>dir_4816d2fb8abcfd1fbfb7e56b67e0baa1&#45;&gt;dir_1a5504e72c2ab618c124e6472b08d26c</title>
<path fill="none" stroke="black" d="M47.16,-71.7C50.91,-63.73 55.45,-54.1 59.62,-45.26"/>
<polygon fill="black" stroke="black" points="62.84,-46.64 63.94,-36.1 56.51,-43.66 62.84,-46.64"/>
<g id="a_edge3&#45;headlabel"><a xlink:href="dir_000023_000125.html" target="_top" xlink:title="2">
<text text-anchor="middle" x="63.87" y="-48.6" font-family="Helvetica,sans-Serif" font-size="10.00">2</text>
</a>
</g>
</g>
</g>
</svg>
