<?xml version="1.0" encoding="UTF-8" standalone="no"?>
<!DOCTYPE svg PUBLIC "-//W3C//DTD SVG 1.1//EN"
 "http://www.w3.org/Graphics/SVG/1.1/DTD/svg11.dtd">
<!-- Generated by graphviz version 2.43.0 (0)
 -->
<!-- Title: Components/Objects/OTA/include Pages: 1 -->
<svg width="196pt" height="223pt"
 viewBox="0.00 0.00 195.50 223.00" xmlns="http://www.w3.org/2000/svg" xmlns:xlink="http://www.w3.org/1999/xlink">
<g id="graph0" class="graph" transform="scale(1 1) rotate(0) translate(4 219)">
<title>Components/Objects/OTA/include</title>
<g id="clust1" class="cluster">
<title>clusterdir_d2942b6148df0ab9010d67087a1cea59</title>
<g id="a_clust1"><a xlink:href="dir_d2942b6148df0ab9010d67087a1cea59.html" target="_top" xlink:title="OTA">
<polygon fill="#ddddee" stroke="black" points="55,-136 55,-207 125,-207 125,-136 55,-136"/>
<text text-anchor="middle" x="90" y="-195" font-family="Helvetica,sans-Serif" font-size="10.00">OTA</text>
</a>
</g>
</g>
<!-- dir_af2eb2b6b80ee2f77e4d3499be22d24a -->
<g id="node1" class="node">
<title>dir_af2eb2b6b80ee2f77e4d3499be22d24a</title>
<g id="a_node1"><a xlink:href="dir_af2eb2b6b80ee2f77e4d3499be22d24a.html" target="_top" xlink:title="include">
<polygon fill="#eeeeff" stroke="black" points="117,-180 63,-180 63,-144 117,-144 117,-180"/>
<text text-anchor="middle" x="90" y="-159.5" font-family="Helvetica,sans-Serif" font-size="10.00">include</text>
</a>
</g>
</g>
<!-- dir_4816d2fb8abcfd1fbfb7e56b67e0baa1 -->
<g id="node2" class="node">
<title>dir_4816d2fb8abcfd1fbfb7e56b67e0baa1</title>
<g id="a_node2"><a xlink:href="dir_4816d2fb8abcfd1fbfb7e56b67e0baa1.html" target="_top" xlink:title="ErrorHandler">
<polygon fill="none" stroke="red" points="78,-36 0,-36 0,0 78,0 78,-36"/>
<text text-anchor="middle" x="39" y="-15.5" font-family="Helvetica,sans-Serif" font-size="10.00">ErrorHandler</text>
</a>
</g>
</g>
<!-- dir_af2eb2b6b80ee2f77e4d3499be22d24a&#45;&gt;dir_4816d2fb8abcfd1fbfb7e56b67e0baa1 -->
<g id="edge1" class="edge">
<title>dir_af2eb2b6b80ee2f77e4d3499be22d24a&#45;&gt;dir_4816d2fb8abcfd1fbfb7e56b67e0baa1</title>
<path fill="none" stroke="black" d="M75.62,-143.94C68.02,-134.05 59.22,-121.01 54,-108 46.08,-88.28 42.34,-64.48 40.58,-46.45"/>
<polygon fill="black" stroke="black" points="44.05,-45.99 39.73,-36.32 37.08,-46.58 44.05,-45.99"/>
<g id="a_edge1&#45;headlabel"><a xlink:href="dir_000133_000019.html" target="_top" xlink:title="1">
<text text-anchor="middle" x="47.18" y="-46.84" font-family="Helvetica,sans-Serif" font-size="10.00">1</text>
</a>
</g>
</g>
<!-- dir_1a5504e72c2ab618c124e6472b08d26c -->
<g id="node3" class="node">
<title>dir_1a5504e72c2ab618c124e6472b08d26c</title>
<g id="a_node3"><a xlink:href="dir_1a5504e72c2ab618c124e6472b08d26c.html" target="_top" xlink:title="Global_Include">
<polygon fill="none" stroke="black" points="187.5,-36 98.5,-36 98.5,0 187.5,0 187.5,-36"/>
<text text-anchor="middle" x="143" y="-15.5" font-family="Helvetica,sans-Serif" font-size="10.00">Global_Include</text>
</a>
</g>
</g>
<!-- dir_af2eb2b6b80ee2f77e4d3499be22d24a&#45;&gt;dir_1a5504e72c2ab618c124e6472b08d26c -->
<g id="edge2" class="edge">
<title>dir_af2eb2b6b80ee2f77e4d3499be22d24a&#45;&gt;dir_1a5504e72c2ab618c124e6472b08d26c</title>
<path fill="none" stroke="black" d="M104.27,-143.9C111.83,-133.99 120.64,-120.95 126,-108 134.16,-88.29 138.45,-64.48 140.67,-46.46"/>
<polygon fill="black" stroke="black" points="144.17,-46.65 141.78,-36.32 137.22,-45.88 144.17,-46.65"/>
<g id="a_edge2&#45;headlabel"><a xlink:href="dir_000133_000095.html" target="_top" xlink:title="1">
<text text-anchor="middle" x="146.6" y="-48.03" font-family="Helvetica,sans-Serif" font-size="10.00">1</text>
</a>
</g>
</g>
<!-- dir_6a49a4a01df89ea000e629175e7db917 -->
<g id="node4" class="node">
<title>dir_6a49a4a01df89ea000e629175e7db917</title>
<g id="a_node4"><a xlink:href="dir_6a49a4a01df89ea000e629175e7db917.html" target="_top" xlink:title="RTOS">
<polygon fill="none" stroke="red" points="117,-108 63,-108 63,-72 117,-72 117,-108"/>
<text text-anchor="middle" x="90" y="-87.5" font-family="Helvetica,sans-Serif" font-size="10.00">RTOS</text>
</a>
</g>
</g>
<!-- dir_af2eb2b6b80ee2f77e4d3499be22d24a&#45;&gt;dir_6a49a4a01df89ea000e629175e7db917 -->
<g id="edge3" class="edge">
<title>dir_af2eb2b6b80ee2f77e4d3499be22d24a&#45;&gt;dir_6a49a4a01df89ea000e629175e7db917</title>
<path fill="none" stroke="black" d="M90,-143.7C90,-135.98 90,-126.71 90,-118.11"/>
<polygon fill="black" stroke="black" points="93.5,-118.1 90,-108.1 86.5,-118.1 93.5,-118.1"/>
<g id="a_edge3&#45;headlabel"><a xlink:href="dir_000133_000067.html" target="_top" xlink:title="1">
<text text-anchor="middle" x="96.34" y="-119.2" font-family="Helvetica,sans-Serif" font-size="10.00">1</text>
</a>
</g>
</g>
<!-- dir_6a49a4a01df89ea000e629175e7db917&#45;&gt;dir_4816d2fb8abcfd1fbfb7e56b67e0baa1 -->
<g id="edge4" class="edge">
<title>dir_6a49a4a01df89ea000e629175e7db917&#45;&gt;dir_4816d2fb8abcfd1fbfb7e56b67e0baa1</title>
<path fill="none" stroke="black" d="M77.39,-71.7C71.4,-63.47 64.12,-53.48 57.52,-44.42"/>
<polygon fill="black" stroke="black" points="60.18,-42.13 51.46,-36.1 54.52,-46.25 60.18,-42.13"/>
<g id="a_edge4&#45;headlabel"><a xlink:href="dir_000067_000019.html" target="_top" xlink:title="2">
<text text-anchor="middle" x="64.59" y="-40.86" font-family="Helvetica,sans-Serif" font-size="10.00">2</text>
</a>
</g>
</g>
<!-- dir_6a49a4a01df89ea000e629175e7db917&#45;&gt;dir_1a5504e72c2ab618c124e6472b08d26c -->
<g id="edge5" class="edge">
<title>dir_6a49a4a01df89ea000e629175e7db917&#45;&gt;dir_1a5504e72c2ab618c124e6472b08d26c</title>
<path fill="none" stroke="black" d="M103.1,-71.7C109.39,-63.39 117.05,-53.28 123.96,-44.14"/>
<polygon fill="black" stroke="black" points="126.8,-46.19 130.05,-36.1 121.22,-41.96 126.8,-46.19"/>
<g id="a_edge5&#45;headlabel"><a xlink:href="dir_000067_000095.html" target="_top" xlink:title="2">
<text text-anchor="middle" x="126.9" y="-48.27" font-family="Helvetica,sans-Serif" font-size="10.00">2</text>
</a>
</g>
</g>
</g>
</svg>
