<?xml version="1.0" encoding="UTF-8" standalone="no"?>
<!DOCTYPE svg PUBLIC "-//W3C//DTD SVG 1.1//EN"
 "http://www.w3.org/Graphics/SVG/1.1/DTD/svg11.dtd">
<!-- Generated by graphviz version 2.43.0 (0)
 -->
<!-- Title: Components Pages: 1 -->
<!--zoomable 508 -->
<svg id="main" version="1.1" xmlns="http://www.w3.org/2000/svg" xmlns:xlink="http://www.w3.org/1999/xlink" xml:space="preserve" onload="init(evt)">
<style type="text/css"><![CDATA[
.edge:hover path { stroke: red; }
.edge:hover polygon { stroke: red; fill: red; }
]]></style>
<script type="text/javascript"><![CDATA[
var edges = document.getElementsByTagName('g');
if (edges && edges.length) {
  for (var i=0;i<edges.length;i++) {
    if (edges[i].id.substr(0,4)=='edge') {
      edges[i].setAttribute('class','edge');
    }
  }
}
]]></script>
        <defs>
                <circle id="rim" cx="0" cy="0" r="7"/>
                <circle id="rim2" cx="0" cy="0" r="3.5"/>
                <g id="zoomPlus">
                        <use xlink:href="#rim" fill="#404040">
                                <set attributeName="fill" to="#808080" begin="zoomplus.mouseover" end="zoomplus.mouseout"/>
                        </use>
                        <path d="M-4,0h8M0,-4v8" fill="none" stroke="white" stroke-width="1.5" pointer-events="none"/>
                </g>
                <g id="zoomMin">
                        <use xlink:href="#rim" fill="#404040">
                                <set attributeName="fill" to="#808080" begin="zoomminus.mouseover" end="zoomminus.mouseout"/>
                        </use>
                        <path d="M-4,0h8" fill="none" stroke="white" stroke-width="1.5" pointer-events="none"/>
                </g>
                <g id="dirArrow">
                        <path fill="none" stroke="white" stroke-width="1.5" d="M0,-3.0v7 M-2.5,-0.5L0,-3.0L2.5,-0.5"/>
                </g>
               <g id="resetDef">
                       <use xlink:href="#rim2" fill="#404040">
                               <set attributeName="fill" to="#808080" begin="reset.mouseover" end="reset.mouseout"/>
                       </use>
               </g>
        </defs>

<script type="text/javascript">
var viewWidth = 596;
var viewHeight = 508;
var sectionId = 'dynsection-0';
</script>
<script xlink:href="svgpan.js"/>
<svg id="graph" class="graph">
<g id="viewport">
<title>Components</title>
<g id="clust1" class="cluster">
<title>clusterdir_08f45fe6822aeb4ce2bc268e3b1361be</title>
<g id="a_clust1"><a xlink:href="dir_08f45fe6822aeb4ce2bc268e3b1361be.html" target="_top">
<polygon fill="#eeeeff" stroke="black" points="8,-8 8,-492 580,-492 580,-8 8,-8"/>
</a>
</g>
</g>
<!-- dir_08f45fe6822aeb4ce2bc268e3b1361be -->
<g id="node1" class="node">
<title>dir_08f45fe6822aeb4ce2bc268e3b1361be</title>
<text text-anchor="middle" x="490" y="-463.5" font-family="Helvetica,sans-Serif" font-size="10.00">Components</text>
</g>
<!-- dir_8efbaa1056a51686757185dce0bc8da0 -->
<g id="node2" class="node">
<title>dir_8efbaa1056a51686757185dce0bc8da0</title>
<g id="a_node2"><a xlink:href="dir_8efbaa1056a51686757185dce0bc8da0.html" target="_top" xlink:title="Actuator">
<polygon fill="white" stroke="red" points="303,-412 245,-412 245,-376 303,-376 303,-412"/>
<text text-anchor="middle" x="274" y="-391.5" font-family="Helvetica,sans-Serif" font-size="10.00">Actuator</text>
</a>
</g>
</g>
<!-- dir_1a5504e72c2ab618c124e6472b08d26c -->
<g id="node7" class="node">
<title>dir_1a5504e72c2ab618c124e6472b08d26c</title>
<g id="a_node7"><a xlink:href="dir_1a5504e72c2ab618c124e6472b08d26c.html" target="_top" xlink:title="Global_Include">
<polygon fill="white" stroke="black" points="265.5,-52 176.5,-52 176.5,-16 265.5,-16 265.5,-52"/>
<text text-anchor="middle" x="221" y="-31.5" font-family="Helvetica,sans-Serif" font-size="10.00">Global_Include</text>
</a>
</g>
</g>
<!-- dir_8efbaa1056a51686757185dce0bc8da0&#45;&gt;dir_1a5504e72c2ab618c124e6472b08d26c -->
<g id="edge35" class="edge">
<title>dir_8efbaa1056a51686757185dce0bc8da0&#45;&gt;dir_1a5504e72c2ab618c124e6472b08d26c</title>
<path fill="none" stroke="black" d="M303,-382.93C346.73,-367.74 424.53,-340.65 425,-340 448.59,-307.68 437.75,-199.04 429,-160 421.26,-125.47 421.78,-111.14 395,-88 361.8,-59.31 313.39,-46.15 276.05,-40.12"/>
<polygon fill="black" stroke="black" points="276.24,-36.61 265.84,-38.6 275.21,-43.53 276.24,-36.61"/>
<g id="a_edge35&#45;headlabel"><a xlink:href="dir_000002_000132.html" target="_top" xlink:title="1">
<text text-anchor="middle" x="280.22" y="-31.83" font-family="Helvetica,sans-Serif" font-size="10.00">1</text>
</a>
</g>
</g>
<!-- dir_e185953657720ba3a67126696ef566c7 -->
<g id="node8" class="node">
<title>dir_e185953657720ba3a67126696ef566c7</title>
<g id="a_node8"><a xlink:href="dir_e185953657720ba3a67126696ef566c7.html" target="_top" xlink:title="Interfaces">
<polygon fill="white" stroke="red" points="323.5,-340 258.5,-340 258.5,-304 323.5,-304 323.5,-340"/>
<text text-anchor="middle" x="291" y="-319.5" font-family="Helvetica,sans-Serif" font-size="10.00">Interfaces</text>
</a>
</g>
</g>
<!-- dir_8efbaa1056a51686757185dce0bc8da0&#45;&gt;dir_e185953657720ba3a67126696ef566c7 -->
<g id="edge36" class="edge">
<title>dir_8efbaa1056a51686757185dce0bc8da0&#45;&gt;dir_e185953657720ba3a67126696ef566c7</title>
<path fill="none" stroke="black" d="M278.2,-375.7C280.1,-367.9 282.38,-358.51 284.48,-349.83"/>
<polygon fill="black" stroke="black" points="287.89,-350.65 286.85,-340.1 281.08,-349 287.89,-350.65"/>
<g id="a_edge36&#45;headlabel"><a xlink:href="dir_000002_000093.html" target="_top" xlink:title="1">
<text text-anchor="middle" x="289.8" y="-352.31" font-family="Helvetica,sans-Serif" font-size="10.00">1</text>
</a>
</g>
</g>
<!-- dir_a4226c5615a06a31e6344f5f3fd917e1 -->
<g id="node9" class="node">
<title>dir_a4226c5615a06a31e6344f5f3fd917e1</title>
<g id="a_node9"><a xlink:href="dir_a4226c5615a06a31e6344f5f3fd917e1.html" target="_top" xlink:title="Objects">
<polygon fill="white" stroke="red" points="266,-268 212,-268 212,-232 266,-232 266,-268"/>
<text text-anchor="middle" x="239" y="-247.5" font-family="Helvetica,sans-Serif" font-size="10.00">Objects</text>
</a>
</g>
</g>
<!-- dir_8efbaa1056a51686757185dce0bc8da0&#45;&gt;dir_a4226c5615a06a31e6344f5f3fd917e1 -->
<g id="edge34" class="edge">
<title>dir_8efbaa1056a51686757185dce0bc8da0&#45;&gt;dir_a4226c5615a06a31e6344f5f3fd917e1</title>
<path fill="none" stroke="black" d="M256.27,-375.6C247.76,-366 238.47,-353.34 234,-340 227.3,-320.01 229.15,-296.08 232.35,-278.08"/>
<polygon fill="black" stroke="black" points="235.78,-278.73 234.33,-268.23 228.92,-277.35 235.78,-278.73"/>
<g id="a_edge34&#45;headlabel"><a xlink:href="dir_000002_000016.html" target="_top" xlink:title="3">
<text text-anchor="middle" x="237.86" y="-280.31" font-family="Helvetica,sans-Serif" font-size="10.00">3</text>
</a>
</g>
</g>
<!-- dir_1666c5f4940eb69dc85cb0f1045c5123 -->
<g id="node3" class="node">
<title>dir_1666c5f4940eb69dc85cb0f1045c5123</title>
<g id="a_node3"><a xlink:href="dir_1666c5f4940eb69dc85cb0f1045c5123.html" target="_top" xlink:title="AnalysisTools">
<polygon fill="white" stroke="red" points="139.5,-340 56.5,-340 56.5,-304 139.5,-304 139.5,-340"/>
<text text-anchor="middle" x="98" y="-319.5" font-family="Helvetica,sans-Serif" font-size="10.00">AnalysisTools</text>
</a>
</g>
</g>
<!-- dir_1666c5f4940eb69dc85cb0f1045c5123&#45;&gt;dir_1a5504e72c2ab618c124e6472b08d26c -->
<g id="edge22" class="edge">
<title>dir_1666c5f4940eb69dc85cb0f1045c5123&#45;&gt;dir_1a5504e72c2ab618c124e6472b08d26c</title>
<path fill="none" stroke="black" d="M92.82,-303.9C81.42,-262.61 58.69,-155.86 105,-88 119.25,-67.12 143.87,-54.32 166.77,-46.55"/>
<polygon fill="black" stroke="black" points="167.95,-49.85 176.44,-43.52 165.85,-43.17 167.95,-49.85"/>
<g id="a_edge22&#45;headlabel"><a xlink:href="dir_000008_000132.html" target="_top" xlink:title="4">
<text text-anchor="middle" x="165.37" y="-51.13" font-family="Helvetica,sans-Serif" font-size="10.00">4</text>
</a>
</g>
</g>
<!-- dir_1666c5f4940eb69dc85cb0f1045c5123&#45;&gt;dir_a4226c5615a06a31e6344f5f3fd917e1 -->
<g id="edge21" class="edge">
<title>dir_1666c5f4940eb69dc85cb0f1045c5123&#45;&gt;dir_a4226c5615a06a31e6344f5f3fd917e1</title>
<path fill="none" stroke="black" d="M132.49,-303.88C153.8,-293.3 181.1,-279.74 202.73,-269.01"/>
<polygon fill="black" stroke="black" points="204.52,-272.03 211.92,-264.44 201.41,-265.76 204.52,-272.03"/>
<g id="a_edge21&#45;headlabel"><a xlink:href="dir_000008_000016.html" target="_top" xlink:title="6">
<text text-anchor="middle" x="202.56" y="-273.67" font-family="Helvetica,sans-Serif" font-size="10.00">6</text>
</a>
</g>
</g>
<!-- dir_d51af3390b888212b7370bb96b9206da -->
<g id="node4" class="node">
<title>dir_d51af3390b888212b7370bb96b9206da</title>
<g id="a_node4"><a xlink:href="dir_d51af3390b888212b7370bb96b9206da.html" target="_top" xlink:title="Boards">
<polygon fill="white" stroke="red" points="416,-340 362,-340 362,-304 416,-304 416,-340"/>
<text text-anchor="middle" x="389" y="-319.5" font-family="Helvetica,sans-Serif" font-size="10.00">Boards</text>
</a>
</g>
</g>
<!-- dir_d51af3390b888212b7370bb96b9206da&#45;&gt;dir_1a5504e72c2ab618c124e6472b08d26c -->
<g id="edge24" class="edge">
<title>dir_d51af3390b888212b7370bb96b9206da&#45;&gt;dir_1a5504e72c2ab618c124e6472b08d26c</title>
<path fill="none" stroke="black" d="M398.04,-303.82C412.46,-274.1 437.54,-211.34 422,-160 410.86,-123.19 404.43,-111.52 374,-88 345.3,-65.81 306.66,-52.53 275.4,-44.81"/>
<polygon fill="black" stroke="black" points="276.06,-41.37 265.52,-42.49 274.46,-48.18 276.06,-41.37"/>
<g id="a_edge24&#45;headlabel"><a xlink:href="dir_000012_000132.html" target="_top" xlink:title="2">
<text text-anchor="middle" x="280.21" y="-36.92" font-family="Helvetica,sans-Serif" font-size="10.00">2</text>
</a>
</g>
</g>
<!-- dir_d51af3390b888212b7370bb96b9206da&#45;&gt;dir_a4226c5615a06a31e6344f5f3fd917e1 -->
<g id="edge23" class="edge">
<title>dir_d51af3390b888212b7370bb96b9206da&#45;&gt;dir_a4226c5615a06a31e6344f5f3fd917e1</title>
<path fill="none" stroke="black" d="M361.84,-308.32C337.7,-297.06 302.22,-280.5 275.59,-268.07"/>
<polygon fill="black" stroke="black" points="276.76,-264.76 266.21,-263.7 273.8,-271.1 276.76,-264.76"/>
<g id="a_edge23&#45;headlabel"><a xlink:href="dir_000012_000016.html" target="_top" xlink:title="2">
<text text-anchor="middle" x="281.21" y="-261.2" font-family="Helvetica,sans-Serif" font-size="10.00">2</text>
</a>
</g>
</g>
<!-- dir_4ca6fec43e1013816363be86d31756d6 -->
<g id="node5" class="node">
<title>dir_4ca6fec43e1013816363be86d31756d6</title>
<g id="a_node5"><a xlink:href="dir_4ca6fec43e1013816363be86d31756d6.html" target="_top" xlink:title="Connector">
<polygon fill="white" stroke="red" points="306,-196 240,-196 240,-160 306,-160 306,-196"/>
<text text-anchor="middle" x="273" y="-175.5" font-family="Helvetica,sans-Serif" font-size="10.00">Connector</text>
</a>
</g>
</g>
<!-- dir_4ca6fec43e1013816363be86d31756d6&#45;&gt;dir_1a5504e72c2ab618c124e6472b08d26c -->
<g id="edge29" class="edge">
<title>dir_4ca6fec43e1013816363be86d31756d6&#45;&gt;dir_1a5504e72c2ab618c124e6472b08d26c</title>
<path fill="none" stroke="black" d="M272.03,-159.68C270.51,-141.3 266.66,-111.69 257,-88 253.07,-78.37 247.21,-68.7 241.35,-60.31"/>
<polygon fill="black" stroke="black" points="244.06,-58.08 235.33,-52.08 238.41,-62.22 244.06,-58.08"/>
<g id="a_edge29&#45;headlabel"><a xlink:href="dir_000087_000132.html" target="_top" xlink:title="2">
<text text-anchor="middle" x="248.47" y="-56.81" font-family="Helvetica,sans-Serif" font-size="10.00">2</text>
</a>
</g>
</g>
<!-- dir_4ca6fec43e1013816363be86d31756d6&#45;&gt;dir_e185953657720ba3a67126696ef566c7 -->
<g id="edge30" class="edge">
<title>dir_4ca6fec43e1013816363be86d31756d6&#45;&gt;dir_e185953657720ba3a67126696ef566c7</title>
<path fill="none" stroke="black" d="M275.18,-196.19C278.25,-220.42 283.89,-264.89 287.54,-293.68"/>
<polygon fill="black" stroke="black" points="284.1,-294.39 288.83,-303.87 291.04,-293.51 284.1,-294.39"/>
<g id="a_edge30&#45;headlabel"><a xlink:href="dir_000087_000093.html" target="_top" xlink:title="1">
<text text-anchor="middle" x="280.83" y="-288.68" font-family="Helvetica,sans-Serif" font-size="10.00">1</text>
</a>
</g>
</g>
<!-- dir_4ca6fec43e1013816363be86d31756d6&#45;&gt;dir_a4226c5615a06a31e6344f5f3fd917e1 -->
<g id="edge28" class="edge">
<title>dir_4ca6fec43e1013816363be86d31756d6&#45;&gt;dir_a4226c5615a06a31e6344f5f3fd917e1</title>
<path fill="none" stroke="black" d="M270.59,-196.1C267.53,-204.13 263.02,-213.87 258.28,-222.8"/>
<polygon fill="black" stroke="black" points="255.13,-221.26 253.32,-231.7 261.25,-224.67 255.13,-221.26"/>
<g id="a_edge28&#45;headlabel"><a xlink:href="dir_000087_000016.html" target="_top" xlink:title="3">
<text text-anchor="middle" x="254.41" y="-214.24" font-family="Helvetica,sans-Serif" font-size="10.00">3</text>
</a>
</g>
</g>
<!-- dir_410074523dc77f19fbc712633e7470ae -->
<g id="node6" class="node">
<title>dir_410074523dc77f19fbc712633e7470ae</title>
<g id="a_node6"><a xlink:href="dir_410074523dc77f19fbc712633e7470ae.html" target="_top" xlink:title="Controller">
<polygon fill="white" stroke="red" points="201.5,-196 136.5,-196 136.5,-160 201.5,-160 201.5,-196"/>
<text text-anchor="middle" x="169" y="-175.5" font-family="Helvetica,sans-Serif" font-size="10.00">Controller</text>
</a>
</g>
</g>
<!-- dir_410074523dc77f19fbc712633e7470ae&#45;&gt;dir_1a5504e72c2ab618c124e6472b08d26c -->
<g id="edge32" class="edge">
<title>dir_410074523dc77f19fbc712633e7470ae&#45;&gt;dir_1a5504e72c2ab618c124e6472b08d26c</title>
<path fill="none" stroke="black" d="M169.97,-159.68C171.49,-141.3 175.34,-111.69 185,-88 188.93,-78.37 194.79,-68.7 200.65,-60.31"/>
<polygon fill="black" stroke="black" points="203.59,-62.22 206.67,-52.08 197.94,-58.08 203.59,-62.22"/>
<g id="a_edge32&#45;headlabel"><a xlink:href="dir_000090_000132.html" target="_top" xlink:title="1">
<text text-anchor="middle" x="203.76" y="-64.3" font-family="Helvetica,sans-Serif" font-size="10.00">1</text>
</a>
</g>
</g>
<!-- dir_410074523dc77f19fbc712633e7470ae&#45;&gt;dir_e185953657720ba3a67126696ef566c7 -->
<g id="edge33" class="edge">
<title>dir_410074523dc77f19fbc712633e7470ae&#45;&gt;dir_e185953657720ba3a67126696ef566c7</title>
<path fill="none" stroke="black" d="M172.04,-196.11C176.21,-215.4 185.27,-246.82 203,-268 215.34,-282.75 232.9,-294.48 249.09,-303.11"/>
<polygon fill="black" stroke="black" points="247.92,-306.44 258.42,-307.84 251.08,-300.19 247.92,-306.44"/>
<g id="a_edge33&#45;headlabel"><a xlink:href="dir_000090_000093.html" target="_top" xlink:title="1">
<text text-anchor="middle" x="243.43" y="-304.85" font-family="Helvetica,sans-Serif" font-size="10.00">1</text>
</a>
</g>
</g>
<!-- dir_410074523dc77f19fbc712633e7470ae&#45;&gt;dir_a4226c5615a06a31e6344f5f3fd917e1 -->
<g id="edge31" class="edge">
<title>dir_410074523dc77f19fbc712633e7470ae&#45;&gt;dir_a4226c5615a06a31e6344f5f3fd917e1</title>
<path fill="none" stroke="black" d="M192,-196.1C201.33,-204.55 211.88,-214.9 220.69,-224.2"/>
<polygon fill="black" stroke="black" points="218.26,-226.73 227.61,-231.7 223.4,-221.98 218.26,-226.73"/>
<g id="a_edge31&#45;headlabel"><a xlink:href="dir_000090_000016.html" target="_top" xlink:title="3">
<text text-anchor="middle" x="213.73" y="-223.51" font-family="Helvetica,sans-Serif" font-size="10.00">3</text>
</a>
</g>
</g>
<!-- dir_e185953657720ba3a67126696ef566c7&#45;&gt;dir_1a5504e72c2ab618c124e6472b08d26c -->
<g id="edge43" class="edge">
<title>dir_e185953657720ba3a67126696ef566c7&#45;&gt;dir_1a5504e72c2ab618c124e6472b08d26c</title>
<path fill="none" stroke="black" d="M258.47,-310.65C214.39,-294.49 138.46,-258.45 115,-196 97.98,-150.69 100.87,-127.39 129,-88 138.67,-74.46 152.96,-63.88 167.41,-55.85"/>
<polygon fill="black" stroke="black" points="169.13,-58.9 176.38,-51.18 165.9,-52.69 169.13,-58.9"/>
<g id="a_edge43&#45;headlabel"><a xlink:href="dir_000093_000132.html" target="_top" xlink:title="13">
<text text-anchor="middle" x="167.25" y="-60.58" font-family="Helvetica,sans-Serif" font-size="10.00">13</text>
</a>
</g>
</g>
<!-- dir_e185953657720ba3a67126696ef566c7&#45;&gt;dir_a4226c5615a06a31e6344f5f3fd917e1 -->
<g id="edge42" class="edge">
<title>dir_e185953657720ba3a67126696ef566c7&#45;&gt;dir_a4226c5615a06a31e6344f5f3fd917e1</title>
<path fill="none" stroke="black" d="M272.23,-303.7C265.35,-295.56 257.81,-285.69 251.56,-276.7"/>
<polygon fill="black" stroke="black" points="254.28,-274.47 245.81,-268.1 248.46,-278.36 254.28,-274.47"/>
<g id="a_edge42&#45;headlabel"><a xlink:href="dir_000093_000016.html" target="_top" xlink:title="21">
<text text-anchor="middle" x="258.64" y="-273.38" font-family="Helvetica,sans-Serif" font-size="10.00">21</text>
</a>
</g>
</g>
<!-- dir_4d0b0adf7e9fb892c3df556e9cbb05d0 -->
<g id="node10" class="node">
<title>dir_4d0b0adf7e9fb892c3df556e9cbb05d0</title>
<g id="a_node10"><a xlink:href="dir_4d0b0adf7e9fb892c3df556e9cbb05d0.html" target="_top" xlink:title="Protocols">
<polygon fill="white" stroke="red" points="406,-196 344,-196 344,-160 406,-160 406,-196"/>
<text text-anchor="middle" x="375" y="-175.5" font-family="Helvetica,sans-Serif" font-size="10.00">Protocols</text>
</a>
</g>
</g>
<!-- dir_e185953657720ba3a67126696ef566c7&#45;&gt;dir_4d0b0adf7e9fb892c3df556e9cbb05d0 -->
<g id="edge44" class="edge">
<title>dir_e185953657720ba3a67126696ef566c7&#45;&gt;dir_4d0b0adf7e9fb892c3df556e9cbb05d0</title>
<path fill="none" stroke="black" d="M292.55,-303.92C299.17,-285.75 314.17,-256.32 329,-232 334.67,-222.71 341.35,-212.85 347.96,-204.18"/>
<polygon fill="black" stroke="black" points="350.74,-206.31 354.23,-196.3 345.27,-201.95 350.74,-206.31"/>
<g id="a_edge44&#45;headlabel"><a xlink:href="dir_000093_000059.html" target="_top" xlink:title="4">
<text text-anchor="middle" x="350.73" y="-208.39" font-family="Helvetica,sans-Serif" font-size="10.00">4</text>
</a>
</g>
</g>
<!-- dir_6a49a4a01df89ea000e629175e7db917 -->
<g id="node11" class="node">
<title>dir_6a49a4a01df89ea000e629175e7db917</title>
<g id="a_node11"><a xlink:href="dir_6a49a4a01df89ea000e629175e7db917.html" target="_top" xlink:title="RTOS">
<polygon fill="white" stroke="red" points="353,-124 299,-124 299,-88 353,-88 353,-124"/>
<text text-anchor="middle" x="326" y="-103.5" font-family="Helvetica,sans-Serif" font-size="10.00">RTOS</text>
</a>
</g>
</g>
<!-- dir_e185953657720ba3a67126696ef566c7&#45;&gt;dir_6a49a4a01df89ea000e629175e7db917 -->
<g id="edge45" class="edge">
<title>dir_e185953657720ba3a67126696ef566c7&#45;&gt;dir_6a49a4a01df89ea000e629175e7db917</title>
<path fill="none" stroke="black" d="M317.68,-303.86C347.87,-282.71 395.38,-243.63 415,-196 421.09,-181.21 422.91,-173.91 415,-160 403.75,-140.21 381.86,-127.03 362.6,-118.76"/>
<polygon fill="black" stroke="black" points="363.72,-115.44 353.13,-114.98 361.12,-121.94 363.72,-115.44"/>
<g id="a_edge45&#45;headlabel"><a xlink:href="dir_000093_000066.html" target="_top" xlink:title="4">
<text text-anchor="middle" x="368.11" y="-111.63" font-family="Helvetica,sans-Serif" font-size="10.00">4</text>
</a>
</g>
</g>
<!-- dir_a4226c5615a06a31e6344f5f3fd917e1&#45;&gt;dir_4ca6fec43e1013816363be86d31756d6 -->
<g id="edge2" class="edge">
<title>dir_a4226c5615a06a31e6344f5f3fd917e1&#45;&gt;dir_4ca6fec43e1013816363be86d31756d6</title>
<path fill="none" stroke="black" d="M241.49,-231.7C244.57,-223.64 249.09,-213.89 253.83,-204.98"/>
<polygon fill="black" stroke="black" points="256.97,-206.54 258.8,-196.1 250.86,-203.12 256.97,-206.54"/>
<g id="a_edge2&#45;headlabel"><a xlink:href="dir_000016_000087.html" target="_top" xlink:title="1">
<text text-anchor="middle" x="257.7" y="-208.56" font-family="Helvetica,sans-Serif" font-size="10.00">1</text>
</a>
</g>
</g>
<!-- dir_a4226c5615a06a31e6344f5f3fd917e1&#45;&gt;dir_410074523dc77f19fbc712633e7470ae -->
<g id="edge3" class="edge">
<title>dir_a4226c5615a06a31e6344f5f3fd917e1&#45;&gt;dir_410074523dc77f19fbc712633e7470ae</title>
<path fill="none" stroke="black" d="M215.78,-231.7C206.43,-223.22 195.89,-212.86 187.11,-203.58"/>
<polygon fill="black" stroke="black" points="189.56,-201.08 180.21,-196.1 184.42,-205.83 189.56,-201.08"/>
<g id="a_edge3&#45;headlabel"><a xlink:href="dir_000016_000090.html" target="_top" xlink:title="1">
<text text-anchor="middle" x="194.09" y="-199.3" font-family="Helvetica,sans-Serif" font-size="10.00">1</text>
</a>
</g>
</g>
<!-- dir_a4226c5615a06a31e6344f5f3fd917e1&#45;&gt;dir_1a5504e72c2ab618c124e6472b08d26c -->
<g id="edge4" class="edge">
<title>dir_a4226c5615a06a31e6344f5f3fd917e1&#45;&gt;dir_1a5504e72c2ab618c124e6472b08d26c</title>
<path fill="none" stroke="black" d="M211.57,-244.42C185.03,-238.38 146.23,-224.9 128,-196 97.9,-148.28 152.25,-90.67 189.77,-58.92"/>
<polygon fill="black" stroke="black" points="192.46,-61.24 197.95,-52.18 188.01,-55.84 192.46,-61.24"/>
<g id="a_edge4&#45;headlabel"><a xlink:href="dir_000016_000132.html" target="_top" xlink:title="26">
<text text-anchor="middle" x="191.49" y="-63.22" font-family="Helvetica,sans-Serif" font-size="10.00">26</text>
</a>
</g>
</g>
<!-- dir_a4226c5615a06a31e6344f5f3fd917e1&#45;&gt;dir_e185953657720ba3a67126696ef566c7 -->
<g id="edge6" class="edge">
<title>dir_a4226c5615a06a31e6344f5f3fd917e1&#45;&gt;dir_e185953657720ba3a67126696ef566c7</title>
<path fill="none" stroke="black" d="M257.6,-268.1C264.55,-276.3 272.18,-286.28 278.48,-295.36"/>
<polygon fill="black" stroke="black" points="275.59,-297.33 284.06,-303.7 281.41,-293.44 275.59,-297.33"/>
<g id="a_edge6&#45;headlabel"><a xlink:href="dir_000016_000093.html" target="_top" xlink:title="8">
<text text-anchor="middle" x="271.23" y="-293.42" font-family="Helvetica,sans-Serif" font-size="10.00">8</text>
</a>
</g>
</g>
<!-- dir_a4226c5615a06a31e6344f5f3fd917e1&#45;&gt;dir_4d0b0adf7e9fb892c3df556e9cbb05d0 -->
<g id="edge5" class="edge">
<title>dir_a4226c5615a06a31e6344f5f3fd917e1&#45;&gt;dir_4d0b0adf7e9fb892c3df556e9cbb05d0</title>
<path fill="none" stroke="black" d="M266.04,-232.05C285.68,-221.36 312.44,-207.57 334.58,-196.73"/>
<polygon fill="black" stroke="black" points="336.29,-199.8 343.76,-192.29 333.23,-193.5 336.29,-199.8"/>
<g id="a_edge5&#45;headlabel"><a xlink:href="dir_000016_000059.html" target="_top" xlink:title="3">
<text text-anchor="middle" x="334.29" y="-201.42" font-family="Helvetica,sans-Serif" font-size="10.00">3</text>
</a>
</g>
</g>
<!-- dir_a4226c5615a06a31e6344f5f3fd917e1&#45;&gt;dir_6a49a4a01df89ea000e629175e7db917 -->
<g id="edge7" class="edge">
<title>dir_a4226c5615a06a31e6344f5f3fd917e1&#45;&gt;dir_6a49a4a01df89ea000e629175e7db917</title>
<path fill="none" stroke="black" d="M266.27,-232.67C280.43,-223.93 296.53,-211.71 306,-196 317.15,-177.5 319.45,-152.9 320.64,-134.26"/>
<polygon fill="black" stroke="black" points="324.15,-134.26 321.28,-124.06 317.16,-133.82 324.15,-134.26"/>
<g id="a_edge7&#45;headlabel"><a xlink:href="dir_000016_000066.html" target="_top" xlink:title="4">
<text text-anchor="middle" x="326.76" y="-135.52" font-family="Helvetica,sans-Serif" font-size="10.00">4</text>
</a>
</g>
</g>
<!-- dir_c2cd4762e89f989d55fa2b0634ddfc81 -->
<g id="node17" class="node">
<title>dir_c2cd4762e89f989d55fa2b0634ddfc81</title>
<g id="a_node17"><a xlink:href="dir_c2cd4762e89f989d55fa2b0634ddfc81.html" target="_top" xlink:title="Utility">
<polygon fill="white" stroke="red" points="248,-124 194,-124 194,-88 248,-88 248,-124"/>
<text text-anchor="middle" x="221" y="-103.5" font-family="Helvetica,sans-Serif" font-size="10.00">Utility</text>
</a>
</g>
</g>
<!-- dir_a4226c5615a06a31e6344f5f3fd917e1&#45;&gt;dir_c2cd4762e89f989d55fa2b0634ddfc81 -->
<g id="edge1" class="edge">
<title>dir_a4226c5615a06a31e6344f5f3fd917e1&#45;&gt;dir_c2cd4762e89f989d55fa2b0634ddfc81</title>
<path fill="none" stroke="black" d="M228.42,-231.84C225.62,-221.47 223.58,-207.99 222,-196 219.28,-175.32 216.66,-151.87 216.09,-134.24"/>
<polygon fill="black" stroke="black" points="219.58,-134.06 216.01,-124.09 212.58,-134.11 219.58,-134.06"/>
<g id="a_edge1&#45;headlabel"><a xlink:href="dir_000016_000081.html" target="_top" xlink:title="2">
<text text-anchor="middle" x="222.45" y="-135.13" font-family="Helvetica,sans-Serif" font-size="10.00">2</text>
</a>
</g>
</g>
<!-- dir_4d0b0adf7e9fb892c3df556e9cbb05d0&#45;&gt;dir_1a5504e72c2ab618c124e6472b08d26c -->
<g id="edge39" class="edge">
<title>dir_4d0b0adf7e9fb892c3df556e9cbb05d0&#45;&gt;dir_1a5504e72c2ab618c124e6472b08d26c</title>
<path fill="none" stroke="black" d="M377.28,-159.92C378.91,-140.37 378.46,-108.43 362,-88 341,-61.93 305.74,-48.68 275.73,-41.95"/>
<polygon fill="black" stroke="black" points="276.28,-38.49 265.79,-39.9 274.88,-45.34 276.28,-38.49"/>
<g id="a_edge39&#45;headlabel"><a xlink:href="dir_000059_000132.html" target="_top" xlink:title="11">
<text text-anchor="middle" x="280.38" y="-33.93" font-family="Helvetica,sans-Serif" font-size="10.00">11</text>
</a>
</g>
</g>
<!-- dir_4d0b0adf7e9fb892c3df556e9cbb05d0&#45;&gt;dir_e185953657720ba3a67126696ef566c7 -->
<g id="edge40" class="edge">
<title>dir_4d0b0adf7e9fb892c3df556e9cbb05d0&#45;&gt;dir_e185953657720ba3a67126696ef566c7</title>
<path fill="none" stroke="black" d="M369.98,-196.3C363.73,-206.49 354.48,-219.74 347,-232 334.37,-252.71 321.62,-277.12 311.16,-295.14"/>
<polygon fill="black" stroke="black" points="308.03,-293.54 305.91,-303.92 314.04,-297.14 308.03,-293.54"/>
<g id="a_edge40&#45;headlabel"><a xlink:href="dir_000059_000093.html" target="_top" xlink:title="3">
<text text-anchor="middle" x="307.44" y="-286.5" font-family="Helvetica,sans-Serif" font-size="10.00">3</text>
</a>
</g>
</g>
<!-- dir_4d0b0adf7e9fb892c3df556e9cbb05d0&#45;&gt;dir_a4226c5615a06a31e6344f5f3fd917e1 -->
<g id="edge37" class="edge">
<title>dir_4d0b0adf7e9fb892c3df556e9cbb05d0&#45;&gt;dir_a4226c5615a06a31e6344f5f3fd917e1</title>
<path fill="none" stroke="black" d="M347.56,-196.16C326.72,-207.49 298.03,-222.24 275.31,-233.27"/>
<polygon fill="black" stroke="black" points="273.79,-230.11 266.29,-237.6 276.82,-236.42 273.79,-230.11"/>
<g id="a_edge37&#45;headlabel"><a xlink:href="dir_000059_000016.html" target="_top" xlink:title="14">
<text text-anchor="middle" x="275.8" y="-223.5" font-family="Helvetica,sans-Serif" font-size="10.00">14</text>
</a>
</g>
</g>
<!-- dir_4d0b0adf7e9fb892c3df556e9cbb05d0&#45;&gt;dir_6a49a4a01df89ea000e629175e7db917 -->
<g id="edge41" class="edge">
<title>dir_4d0b0adf7e9fb892c3df556e9cbb05d0&#45;&gt;dir_6a49a4a01df89ea000e629175e7db917</title>
<path fill="none" stroke="black" d="M362.89,-159.7C357.13,-151.47 350.14,-141.48 343.79,-132.42"/>
<polygon fill="black" stroke="black" points="346.58,-130.29 337.97,-124.1 340.84,-134.3 346.58,-130.29"/>
<g id="a_edge41&#45;headlabel"><a xlink:href="dir_000059_000066.html" target="_top" xlink:title="3">
<text text-anchor="middle" x="350.96" y="-129.11" font-family="Helvetica,sans-Serif" font-size="10.00">3</text>
</a>
</g>
</g>
<!-- dir_4d0b0adf7e9fb892c3df556e9cbb05d0&#45;&gt;dir_c2cd4762e89f989d55fa2b0634ddfc81 -->
<g id="edge38" class="edge">
<title>dir_4d0b0adf7e9fb892c3df556e9cbb05d0&#45;&gt;dir_c2cd4762e89f989d55fa2b0634ddfc81</title>
<path fill="none" stroke="black" d="M343.84,-162.83C318.79,-151.45 283.56,-135.44 257.26,-123.48"/>
<polygon fill="black" stroke="black" points="258.55,-120.22 248,-119.27 255.66,-126.6 258.55,-120.22"/>
<g id="a_edge38&#45;headlabel"><a xlink:href="dir_000059_000081.html" target="_top" xlink:title="1">
<text text-anchor="middle" x="263" y="-116.63" font-family="Helvetica,sans-Serif" font-size="10.00">1</text>
</a>
</g>
</g>
<!-- dir_6a49a4a01df89ea000e629175e7db917&#45;&gt;dir_1a5504e72c2ab618c124e6472b08d26c -->
<g id="edge47" class="edge">
<title>dir_6a49a4a01df89ea000e629175e7db917&#45;&gt;dir_1a5504e72c2ab618c124e6472b08d26c</title>
<path fill="none" stroke="black" d="M300.31,-87.88C286.71,-78.81 269.83,-67.55 255.14,-57.76"/>
<polygon fill="black" stroke="black" points="257.05,-54.82 246.78,-52.19 253.16,-60.65 257.05,-54.82"/>
<g id="a_edge47&#45;headlabel"><a xlink:href="dir_000066_000132.html" target="_top" xlink:title="2">
<text text-anchor="middle" x="261.61" y="-51.96" font-family="Helvetica,sans-Serif" font-size="10.00">2</text>
</a>
</g>
</g>
<!-- dir_6a49a4a01df89ea000e629175e7db917&#45;&gt;dir_a4226c5615a06a31e6344f5f3fd917e1 -->
<g id="edge46" class="edge">
<title>dir_6a49a4a01df89ea000e629175e7db917&#45;&gt;dir_a4226c5615a06a31e6344f5f3fd917e1</title>
<path fill="none" stroke="black" d="M334.37,-124.06C338.01,-143.01 337.34,-173.86 324,-196 313.04,-214.18 293.18,-227.71 275.27,-236.54"/>
<polygon fill="black" stroke="black" points="273.77,-233.38 266.15,-240.73 276.7,-239.74 273.77,-233.38"/>
<g id="a_edge46&#45;headlabel"><a xlink:href="dir_000066_000016.html" target="_top" xlink:title="2">
<text text-anchor="middle" x="275.86" y="-226.8" font-family="Helvetica,sans-Serif" font-size="10.00">2</text>
</a>
</g>
</g>
<!-- dir_82d83c9747486c2eb8d3c4c8f409d82b -->
<g id="node12" class="node">
<title>dir_82d83c9747486c2eb8d3c4c8f409d82b</title>
<g id="a_node12"><a xlink:href="dir_82d83c9747486c2eb8d3c4c8f409d82b.html" target="_top" xlink:title="Sensor">
<polygon fill="white" stroke="red" points="386,-412 332,-412 332,-376 386,-376 386,-412"/>
<text text-anchor="middle" x="359" y="-391.5" font-family="Helvetica,sans-Serif" font-size="10.00">Sensor</text>
</a>
</g>
</g>
<!-- dir_82d83c9747486c2eb8d3c4c8f409d82b&#45;&gt;dir_1a5504e72c2ab618c124e6472b08d26c -->
<g id="edge9" class="edge">
<title>dir_82d83c9747486c2eb8d3c4c8f409d82b&#45;&gt;dir_1a5504e72c2ab618c124e6472b08d26c</title>
<path fill="none" stroke="black" d="M386.29,-389.65C435.99,-382.98 538.23,-366.33 561,-340 587.04,-309.89 571,-290.8 571,-251 571,-251 571,-251 571,-177 571,-114.06 374.21,-65.67 275.75,-45.4"/>
<polygon fill="black" stroke="black" points="276.18,-41.91 265.68,-43.35 274.79,-48.77 276.18,-41.91"/>
<g id="a_edge9&#45;headlabel"><a xlink:href="dir_000070_000132.html" target="_top" xlink:title="4">
<text text-anchor="middle" x="280.27" y="-37.35" font-family="Helvetica,sans-Serif" font-size="10.00">4</text>
</a>
</g>
</g>
<!-- dir_82d83c9747486c2eb8d3c4c8f409d82b&#45;&gt;dir_e185953657720ba3a67126696ef566c7 -->
<g id="edge12" class="edge">
<title>dir_82d83c9747486c2eb8d3c4c8f409d82b&#45;&gt;dir_e185953657720ba3a67126696ef566c7</title>
<path fill="none" stroke="black" d="M342.19,-375.7C333.87,-367.14 323.69,-356.66 314.61,-347.3"/>
<polygon fill="black" stroke="black" points="317.09,-344.84 307.62,-340.1 312.07,-349.72 317.09,-344.84"/>
<g id="a_edge12&#45;headlabel"><a xlink:href="dir_000070_000093.html" target="_top" xlink:title="1">
<text text-anchor="middle" x="321.64" y="-342.94" font-family="Helvetica,sans-Serif" font-size="10.00">1</text>
</a>
</g>
</g>
<!-- dir_82d83c9747486c2eb8d3c4c8f409d82b&#45;&gt;dir_a4226c5615a06a31e6344f5f3fd917e1 -->
<g id="edge8" class="edge">
<title>dir_82d83c9747486c2eb8d3c4c8f409d82b&#45;&gt;dir_a4226c5615a06a31e6344f5f3fd917e1</title>
<path fill="none" stroke="black" d="M331.82,-383.22C302.97,-372.28 260.16,-354.21 250,-340 237.3,-322.24 235.22,-297.22 235.93,-278.23"/>
<polygon fill="black" stroke="black" points="239.43,-278.33 236.58,-268.12 232.44,-277.87 239.43,-278.33"/>
<g id="a_edge8&#45;headlabel"><a xlink:href="dir_000070_000016.html" target="_top" xlink:title="8">
<text text-anchor="middle" x="242.03" y="-279.6" font-family="Helvetica,sans-Serif" font-size="10.00">8</text>
</a>
</g>
</g>
<!-- dir_82d83c9747486c2eb8d3c4c8f409d82b&#45;&gt;dir_4d0b0adf7e9fb892c3df556e9cbb05d0 -->
<g id="edge10" class="edge">
<title>dir_82d83c9747486c2eb8d3c4c8f409d82b&#45;&gt;dir_4d0b0adf7e9fb892c3df556e9cbb05d0</title>
<path fill="none" stroke="black" d="M356.56,-375.86C355.21,-365.5 353.68,-352.02 353,-340 352.1,-324.03 351.61,-319.94 353,-304 355.97,-270 363.4,-231.39 368.8,-206.19"/>
<polygon fill="black" stroke="black" points="372.26,-206.78 370.98,-196.26 365.42,-205.28 372.26,-206.78"/>
<g id="a_edge10&#45;headlabel"><a xlink:href="dir_000070_000059.html" target="_top" xlink:title="2">
<text text-anchor="middle" x="374.26" y="-208.4" font-family="Helvetica,sans-Serif" font-size="10.00">2</text>
</a>
</g>
</g>
<!-- dir_82d83c9747486c2eb8d3c4c8f409d82b&#45;&gt;dir_6a49a4a01df89ea000e629175e7db917 -->
<g id="edge13" class="edge">
<title>dir_82d83c9747486c2eb8d3c4c8f409d82b&#45;&gt;dir_6a49a4a01df89ea000e629175e7db917</title>
<path fill="none" stroke="black" d="M386.13,-383.32C404.97,-375 428.65,-360.99 440,-340 447.61,-325.93 440.99,-319.97 440,-304 435.99,-239.63 458.17,-213.4 422,-160 408.08,-139.45 383.45,-126.09 362.62,-117.92"/>
<polygon fill="black" stroke="black" points="363.66,-114.57 353.07,-114.42 361.25,-121.15 363.66,-114.57"/>
<g id="a_edge13&#45;headlabel"><a xlink:href="dir_000070_000066.html" target="_top" xlink:title="2">
<text text-anchor="middle" x="368.01" y="-110.64" font-family="Helvetica,sans-Serif" font-size="10.00">2</text>
</a>
</g>
</g>
<!-- dir_b8146bf70b87a0f1c9cf6bdf4bac4dd2 -->
<g id="node15" class="node">
<title>dir_b8146bf70b87a0f1c9cf6bdf4bac4dd2</title>
<g id="a_node15"><a xlink:href="dir_b8146bf70b87a0f1c9cf6bdf4bac4dd2.html" target="_top" xlink:title="ThirdpartAPI">
<polygon fill="white" stroke="red" points="551.5,-340 474.5,-340 474.5,-304 551.5,-304 551.5,-340"/>
<text text-anchor="middle" x="513" y="-319.5" font-family="Helvetica,sans-Serif" font-size="10.00">ThirdpartAPI</text>
</a>
</g>
</g>
<!-- dir_82d83c9747486c2eb8d3c4c8f409d82b&#45;&gt;dir_b8146bf70b87a0f1c9cf6bdf4bac4dd2 -->
<g id="edge11" class="edge">
<title>dir_82d83c9747486c2eb8d3c4c8f409d82b&#45;&gt;dir_b8146bf70b87a0f1c9cf6bdf4bac4dd2</title>
<path fill="none" stroke="black" d="M386.18,-380.65C408.25,-370.61 439.89,-356.23 466.05,-344.34"/>
<polygon fill="black" stroke="black" points="467.75,-347.41 475.41,-340.09 464.86,-341.04 467.75,-347.41"/>
<g id="a_edge11&#45;headlabel"><a xlink:href="dir_000070_000230.html" target="_top" xlink:title="3">
<text text-anchor="middle" x="465.66" y="-348.98" font-family="Helvetica,sans-Serif" font-size="10.00">3</text>
</a>
</g>
</g>
<!-- dir_6164661bfb521e4b540c7b7052af2911 -->
<g id="node13" class="node">
<title>dir_6164661bfb521e4b540c7b7052af2911</title>
<g id="a_node13"><a xlink:href="dir_6164661bfb521e4b540c7b7052af2911.html" target="_top" xlink:title="Service">
<polygon fill="white" stroke="red" points="180,-412 126,-412 126,-376 180,-376 180,-412"/>
<text text-anchor="middle" x="153" y="-391.5" font-family="Helvetica,sans-Serif" font-size="10.00">Service</text>
</a>
</g>
</g>
<!-- dir_6164661bfb521e4b540c7b7052af2911&#45;&gt;dir_1666c5f4940eb69dc85cb0f1045c5123 -->
<g id="edge18" class="edge">
<title>dir_6164661bfb521e4b540c7b7052af2911&#45;&gt;dir_1666c5f4940eb69dc85cb0f1045c5123</title>
<path fill="none" stroke="black" d="M139.4,-375.7C132.88,-367.39 124.93,-357.28 117.75,-348.14"/>
<polygon fill="black" stroke="black" points="120.37,-345.81 111.44,-340.1 114.87,-350.13 120.37,-345.81"/>
<g id="a_edge18&#45;headlabel"><a xlink:href="dir_000108_000008.html" target="_top" xlink:title="1">
<text text-anchor="middle" x="124.82" y="-344.38" font-family="Helvetica,sans-Serif" font-size="10.00">1</text>
</a>
</g>
</g>
<!-- dir_6164661bfb521e4b540c7b7052af2911&#45;&gt;dir_1a5504e72c2ab618c124e6472b08d26c -->
<g id="edge19" class="edge">
<title>dir_6164661bfb521e4b540c7b7052af2911&#45;&gt;dir_1a5504e72c2ab618c124e6472b08d26c</title>
<path fill="none" stroke="black" d="M125.84,-386.98C101.31,-380.03 66.33,-366.05 48,-340 25.06,-307.4 37,-290.86 37,-251 37,-251 37,-251 37,-177 37,-132.27 50.58,-117.73 84,-88 107.16,-67.39 139.22,-54.41 166.51,-46.45"/>
<polygon fill="black" stroke="black" points="167.61,-49.78 176.32,-43.74 165.74,-43.03 167.61,-49.78"/>
<g id="a_edge19&#45;headlabel"><a xlink:href="dir_000108_000132.html" target="_top" xlink:title="2">
<text text-anchor="middle" x="164.9" y="-50.97" font-family="Helvetica,sans-Serif" font-size="10.00">2</text>
</a>
</g>
</g>
<!-- dir_6164661bfb521e4b540c7b7052af2911&#45;&gt;dir_e185953657720ba3a67126696ef566c7 -->
<g id="edge20" class="edge">
<title>dir_6164661bfb521e4b540c7b7052af2911&#45;&gt;dir_e185953657720ba3a67126696ef566c7</title>
<path fill="none" stroke="black" d="M180.26,-379.17C200.01,-369.15 227.06,-355.43 249.48,-344.06"/>
<polygon fill="black" stroke="black" points="251.12,-347.16 258.45,-339.51 247.95,-340.91 251.12,-347.16"/>
<g id="a_edge20&#45;headlabel"><a xlink:href="dir_000108_000093.html" target="_top" xlink:title="2">
<text text-anchor="middle" x="249.2" y="-348.81" font-family="Helvetica,sans-Serif" font-size="10.00">2</text>
</a>
</g>
</g>
<!-- dir_6164661bfb521e4b540c7b7052af2911&#45;&gt;dir_a4226c5615a06a31e6344f5f3fd917e1 -->
<g id="edge16" class="edge">
<title>dir_6164661bfb521e4b540c7b7052af2911&#45;&gt;dir_a4226c5615a06a31e6344f5f3fd917e1</title>
<path fill="none" stroke="black" d="M159.27,-375.89C166.39,-357.43 179,-327.52 194,-304 200.2,-294.28 208.03,-284.44 215.42,-275.92"/>
<polygon fill="black" stroke="black" points="218.26,-278 222.3,-268.2 213.03,-273.34 218.26,-278"/>
<g id="a_edge16&#45;headlabel"><a xlink:href="dir_000108_000016.html" target="_top" xlink:title="2">
<text text-anchor="middle" x="217.99" y="-280.07" font-family="Helvetica,sans-Serif" font-size="10.00">2</text>
</a>
</g>
</g>
<!-- dir_6164661bfb521e4b540c7b7052af2911&#45;&gt;dir_c2cd4762e89f989d55fa2b0634ddfc81 -->
<g id="edge17" class="edge">
<title>dir_6164661bfb521e4b540c7b7052af2911&#45;&gt;dir_c2cd4762e89f989d55fa2b0634ddfc81</title>
<path fill="none" stroke="black" d="M152.98,-375.88C152.78,-357.91 151.96,-328.88 149,-304 141.35,-239.78 95.5,-215.92 128,-160 140.09,-139.19 163.74,-125.88 184.17,-117.79"/>
<polygon fill="black" stroke="black" points="185.39,-121.07 193.57,-114.34 182.98,-114.5 185.39,-121.07"/>
<g id="a_edge17&#45;headlabel"><a xlink:href="dir_000108_000081.html" target="_top" xlink:title="2">
<text text-anchor="middle" x="183" y="-122.48" font-family="Helvetica,sans-Serif" font-size="10.00">2</text>
</a>
</g>
</g>
<!-- dir_6c63dd282651b43f4337d292845f5ec4 -->
<g id="node14" class="node">
<title>dir_6c63dd282651b43f4337d292845f5ec4</title>
<g id="a_node14"><a xlink:href="dir_6c63dd282651b43f4337d292845f5ec4.html" target="_top" xlink:title="Template">
<polygon fill="white" stroke="red" points="391,-484 329,-484 329,-448 391,-448 391,-484"/>
<text text-anchor="middle" x="360" y="-463.5" font-family="Helvetica,sans-Serif" font-size="10.00">Template</text>
</a>
</g>
</g>
<!-- dir_eec1bb706bd2e5107de375aec258065a -->
<g id="node16" class="node">
<title>dir_eec1bb706bd2e5107de375aec258065a</title>
<g id="a_node16"><a xlink:href="dir_eec1bb706bd2e5107de375aec258065a.html" target="_top" xlink:title="User">
<polygon fill="white" stroke="red" points="226,-484 172,-484 172,-448 226,-448 226,-484"/>
<text text-anchor="middle" x="199" y="-463.5" font-family="Helvetica,sans-Serif" font-size="10.00">User</text>
</a>
</g>
</g>
<!-- dir_eec1bb706bd2e5107de375aec258065a&#45;&gt;dir_8efbaa1056a51686757185dce0bc8da0 -->
<g id="edge26" class="edge">
<title>dir_eec1bb706bd2e5107de375aec258065a&#45;&gt;dir_8efbaa1056a51686757185dce0bc8da0</title>
<path fill="none" stroke="black" d="M217.54,-447.7C226.8,-439.05 238.16,-428.45 248.26,-419.03"/>
<polygon fill="black" stroke="black" points="250.75,-421.49 255.67,-412.1 245.98,-416.37 250.75,-421.49"/>
<g id="a_edge26&#45;headlabel"><a xlink:href="dir_000077_000002.html" target="_top" xlink:title="1">
<text text-anchor="middle" x="250.06" y="-423.51" font-family="Helvetica,sans-Serif" font-size="10.00">1</text>
</a>
</g>
</g>
<!-- dir_eec1bb706bd2e5107de375aec258065a&#45;&gt;dir_1a5504e72c2ab618c124e6472b08d26c -->
<g id="edge27" class="edge">
<title>dir_eec1bb706bd2e5107de375aec258065a&#45;&gt;dir_1a5504e72c2ab618c124e6472b08d26c</title>
<path fill="none" stroke="black" d="M171.75,-457.61C120.98,-441.99 17,-400.55 17,-323 17,-323 17,-323 17,-177 17,-135.53 15.5,-117.14 45,-88 77.2,-56.2 127.74,-43.36 166.42,-38.24"/>
<polygon fill="black" stroke="black" points="166.96,-41.7 176.48,-37.05 166.14,-34.75 166.96,-41.7"/>
<g id="a_edge27&#45;headlabel"><a xlink:href="dir_000077_000132.html" target="_top" xlink:title="1">
<text text-anchor="middle" x="163.73" y="-42.45" font-family="Helvetica,sans-Serif" font-size="10.00">1</text>
</a>
</g>
</g>
<!-- dir_eec1bb706bd2e5107de375aec258065a&#45;&gt;dir_a4226c5615a06a31e6344f5f3fd917e1 -->
<g id="edge25" class="edge">
<title>dir_eec1bb706bd2e5107de375aec258065a&#45;&gt;dir_a4226c5615a06a31e6344f5f3fd917e1</title>
<path fill="none" stroke="black" d="M201.19,-447.98C205.11,-418.49 213.95,-356.07 225,-304 226.81,-295.49 229.11,-286.3 231.32,-278"/>
<polygon fill="black" stroke="black" points="234.77,-278.65 234.03,-268.08 228.02,-276.81 234.77,-278.65"/>
<g id="a_edge25&#45;headlabel"><a xlink:href="dir_000077_000016.html" target="_top" xlink:title="2">
<text text-anchor="middle" x="236.56" y="-280.37" font-family="Helvetica,sans-Serif" font-size="10.00">2</text>
</a>
</g>
</g>
<!-- dir_c2cd4762e89f989d55fa2b0634ddfc81&#45;&gt;dir_1a5504e72c2ab618c124e6472b08d26c -->
<g id="edge15" class="edge">
<title>dir_c2cd4762e89f989d55fa2b0634ddfc81&#45;&gt;dir_1a5504e72c2ab618c124e6472b08d26c</title>
<path fill="none" stroke="black" d="M221,-87.7C221,-79.98 221,-70.71 221,-62.11"/>
<polygon fill="black" stroke="black" points="224.5,-62.1 221,-52.1 217.5,-62.1 224.5,-62.1"/>
<g id="a_edge15&#45;headlabel"><a xlink:href="dir_000081_000132.html" target="_top" xlink:title="3">
<text text-anchor="middle" x="227.34" y="-63.2" font-family="Helvetica,sans-Serif" font-size="10.00">3</text>
</a>
</g>
</g>
<!-- dir_c2cd4762e89f989d55fa2b0634ddfc81&#45;&gt;dir_a4226c5615a06a31e6344f5f3fd917e1 -->
<g id="edge14" class="edge">
<title>dir_c2cd4762e89f989d55fa2b0634ddfc81&#45;&gt;dir_a4226c5615a06a31e6344f5f3fd917e1</title>
<path fill="none" stroke="black" d="M229.44,-124.09C233.58,-142.02 236.71,-171.03 240,-196 241.1,-204.34 242.42,-213.4 243.27,-221.63"/>
<polygon fill="black" stroke="black" points="239.8,-222.14 244.06,-231.84 246.78,-221.6 239.8,-222.14"/>
<g id="a_edge14&#45;headlabel"><a xlink:href="dir_000081_000016.html" target="_top" xlink:title="4">
<text text-anchor="middle" x="236.69" y="-216.27" font-family="Helvetica,sans-Serif" font-size="10.00">4</text>
</a>
</g>
</g>
</g>
</svg>
        <g id="navigator" transform="translate(0 0)" fill="#404254">
                <rect fill="#f2f5e9" fill-opacity="0.5" stroke="#606060" stroke-width=".5" x="0" y="0" width="60" height="60"/>
                <use id="zoomplus" xlink:href="#zoomPlus" x="17" y="9" onmousedown="handleZoom(evt,'in')"/>
                <use id="zoomminus" xlink:href="#zoomMin" x="42" y="9" onmousedown="handleZoom(evt,'out')"/>
                <use id="reset" xlink:href="#resetDef" x="30" y="36" onmousedown="handleReset()"/>
                <g id="arrowUp" xlink:href="#dirArrow" transform="translate(30 24)" onmousedown="handlePan(0,-1)">
                  <use xlink:href="#rim" fill="#404040">
                        <set attributeName="fill" to="#808080" begin="arrowUp.mouseover" end="arrowUp.mouseout"/>
                  </use>
                  <path fill="none" stroke="white" stroke-width="1.5" d="M0,-3.0v7 M-2.5,-0.5L0,-3.0L2.5,-0.5"/>
                </g>
                <g id="arrowRight" xlink:href="#dirArrow" transform="rotate(90) translate(36 -43)" onmousedown="handlePan(1,0)">
                  <use xlink:href="#rim" fill="#404040">
                        <set attributeName="fill" to="#808080" begin="arrowRight.mouseover" end="arrowRight.mouseout"/>
                  </use>
                  <path fill="none" stroke="white" stroke-width="1.5" d="M0,-3.0v7 M-2.5,-0.5L0,-3.0L2.5,-0.5"/>
                </g>
                <g id="arrowDown" xlink:href="#dirArrow" transform="rotate(180) translate(-30 -48)" onmousedown="handlePan(0,1)">
                  <use xlink:href="#rim" fill="#404040">
                        <set attributeName="fill" to="#808080" begin="arrowDown.mouseover" end="arrowDown.mouseout"/>
                  </use>
                  <path fill="none" stroke="white" stroke-width="1.5" d="M0,-3.0v7 M-2.5,-0.5L0,-3.0L2.5,-0.5"/>
                </g>
                <g id="arrowLeft" xlink:href="#dirArrow" transform="rotate(270) translate(-36 17)" onmousedown="handlePan(-1,0)">
                  <use xlink:href="#rim" fill="#404040">
                        <set attributeName="fill" to="#808080" begin="arrowLeft.mouseover" end="arrowLeft.mouseout"/>
                  </use>
                  <path fill="none" stroke="white" stroke-width="1.5" d="M0,-3.0v7 M-2.5,-0.5L0,-3.0L2.5,-0.5"/>
                </g>
        </g>
        <svg viewBox="0 0 15 15" width="100%" height="30px" preserveAspectRatio="xMaxYMin meet">
         <g id="arrow_out" transform="scale(0.3 0.3)">
          <a xlink:href="dir_08f45fe6822aeb4ce2bc268e3b1361be_dep_org.svg" target="_base">
           <rect id="button" ry="5" rx="5" y="6" x="6" height="38" width="38"
                fill="#f2f5e9" fill-opacity="0.5" stroke="#606060" stroke-width="1.0"/>
           <path id="arrow"
             d="M 11.500037,31.436501 C 11.940474,20.09759 22.043105,11.32322 32.158766,21.979434 L 37.068811,17.246167 C 37.068811,17.246167 37.088388,32 37.088388,32 L 22.160133,31.978069 C 22.160133,31.978069 26.997745,27.140456 26.997745,27.140456 C 18.528582,18.264221 13.291696,25.230495 11.500037,31.436501 z"
             style="fill:#404040;"/>
          </a>
         </g>
        </svg>
</svg>
