<?xml version="1.0" encoding="UTF-8" standalone="no"?>
<!DOCTYPE svg PUBLIC "-//W3C//DTD SVG 1.1//EN"
 "http://www.w3.org/Graphics/SVG/1.1/DTD/svg11.dtd">
<!-- Generated by graphviz version 2.43.0 (0)
 -->
<!-- Title: Components/Objects/Logger Pages: 1 -->
<svg width="332pt" height="375pt"
 viewBox="0.00 0.00 332.00 375.00" xmlns="http://www.w3.org/2000/svg" xmlns:xlink="http://www.w3.org/1999/xlink">
<g id="graph0" class="graph" transform="scale(1 1) rotate(0) translate(4 371)">
<title>Components/Objects/Logger</title>
<g id="clust1" class="cluster">
<title>clusterdir_a4226c5615a06a31e6344f5f3fd917e1</title>
<g id="a_clust1"><a xlink:href="dir_a4226c5615a06a31e6344f5f3fd917e1.html" target="_top" xlink:title="Objects">
<polygon fill="#ddddee" stroke="black" points="8,-200 8,-359 238,-359 238,-200 8,-200"/>
<text text-anchor="middle" x="123" y="-347" font-family="Helvetica,sans-Serif" font-size="10.00">Objects</text>
</a>
</g>
</g>
<g id="clust2" class="cluster">
<title>clusterdir_e8f8d894d18fe9c445a3ad74b998aadb</title>
<g id="a_clust2"><a xlink:href="dir_e8f8d894d18fe9c445a3ad74b998aadb.html" target="_top">
<polygon fill="#eeeeff" stroke="black" points="16,-208 16,-332 230,-332 230,-208 16,-208"/>
</a>
</g>
</g>
<!-- dir_e8f8d894d18fe9c445a3ad74b998aadb -->
<g id="node1" class="node">
<title>dir_e8f8d894d18fe9c445a3ad74b998aadb</title>
<text text-anchor="middle" x="195" y="-303.5" font-family="Helvetica,sans-Serif" font-size="10.00">Logger</text>
</g>
<!-- dir_c0b9615ac60c18a42997af10dc9475f4 -->
<g id="node2" class="node">
<title>dir_c0b9615ac60c18a42997af10dc9475f4</title>
<g id="a_node2"><a xlink:href="dir_c0b9615ac60c18a42997af10dc9475f4.html" target="_top" xlink:title="include">
<polygon fill="white" stroke="black" points="167,-252 113,-252 113,-216 167,-216 167,-252"/>
<text text-anchor="middle" x="140" y="-231.5" font-family="Helvetica,sans-Serif" font-size="10.00">include</text>
</a>
</g>
</g>
<!-- dir_4816d2fb8abcfd1fbfb7e56b67e0baa1 -->
<g id="node5" class="node">
<title>dir_4816d2fb8abcfd1fbfb7e56b67e0baa1</title>
<g id="a_node5"><a xlink:href="dir_4816d2fb8abcfd1fbfb7e56b67e0baa1.html" target="_top" xlink:title="ErrorHandler">
<polygon fill="none" stroke="red" points="324,-252 246,-252 246,-216 324,-216 324,-252"/>
<text text-anchor="middle" x="285" y="-231.5" font-family="Helvetica,sans-Serif" font-size="10.00">ErrorHandler</text>
</a>
</g>
</g>
<!-- dir_c0b9615ac60c18a42997af10dc9475f4&#45;&gt;dir_4816d2fb8abcfd1fbfb7e56b67e0baa1 -->
<g id="edge1" class="edge">
<title>dir_c0b9615ac60c18a42997af10dc9475f4&#45;&gt;dir_4816d2fb8abcfd1fbfb7e56b67e0baa1</title>
<path fill="none" stroke="black" d="M167.19,-234C190.04,-234 212.89,-234 235.74,-234"/>
<polygon fill="black" stroke="black" points="235.88,-237.5 245.88,-234 235.88,-230.5 235.88,-237.5"/>
<g id="a_edge1&#45;headlabel"><a xlink:href="dir_000146_000019.html" target="_top" xlink:title="2">
<text text-anchor="middle" x="232.29" y="-237.84" font-family="Helvetica,sans-Serif" font-size="10.00">2</text>
</a>
</g>
</g>
<!-- dir_1a5504e72c2ab618c124e6472b08d26c -->
<g id="node6" class="node">
<title>dir_1a5504e72c2ab618c124e6472b08d26c</title>
<g id="a_node6"><a xlink:href="dir_1a5504e72c2ab618c124e6472b08d26c.html" target="_top" xlink:title="Global_Include">
<polygon fill="none" stroke="black" points="277.5,-36 188.5,-36 188.5,0 277.5,0 277.5,-36"/>
<text text-anchor="middle" x="233" y="-15.5" font-family="Helvetica,sans-Serif" font-size="10.00">Global_Include</text>
</a>
</g>
</g>
<!-- dir_c0b9615ac60c18a42997af10dc9475f4&#45;&gt;dir_1a5504e72c2ab618c124e6472b08d26c -->
<g id="edge2" class="edge">
<title>dir_c0b9615ac60c18a42997af10dc9475f4&#45;&gt;dir_1a5504e72c2ab618c124e6472b08d26c</title>
<path fill="none" stroke="black" d="M139.84,-215.73C140.19,-197.39 142.26,-167.82 151,-144 164.92,-106.08 192.23,-68.06 211.49,-44.08"/>
<polygon fill="black" stroke="black" points="214.31,-46.16 217.94,-36.21 208.9,-41.73 214.31,-46.16"/>
<g id="a_edge2&#45;headlabel"><a xlink:href="dir_000146_000108.html" target="_top" xlink:title="2">
<text text-anchor="middle" x="214.23" y="-48.24" font-family="Helvetica,sans-Serif" font-size="10.00">2</text>
</a>
</g>
</g>
<!-- dir_4d0b0adf7e9fb892c3df556e9cbb05d0 -->
<g id="node7" class="node">
<title>dir_4d0b0adf7e9fb892c3df556e9cbb05d0</title>
<g id="a_node7"><a xlink:href="dir_4d0b0adf7e9fb892c3df556e9cbb05d0.html" target="_top" xlink:title="Protocols">
<polygon fill="none" stroke="red" points="248,-180 186,-180 186,-144 248,-144 248,-180"/>
<text text-anchor="middle" x="217" y="-159.5" font-family="Helvetica,sans-Serif" font-size="10.00">Protocols</text>
</a>
</g>
</g>
<!-- dir_c0b9615ac60c18a42997af10dc9475f4&#45;&gt;dir_4d0b0adf7e9fb892c3df556e9cbb05d0 -->
<g id="edge3" class="edge">
<title>dir_c0b9615ac60c18a42997af10dc9475f4&#45;&gt;dir_4d0b0adf7e9fb892c3df556e9cbb05d0</title>
<path fill="none" stroke="black" d="M153.12,-215.7C161.82,-206.97 173.45,-196.24 184.44,-186.75"/>
<polygon fill="black" stroke="black" points="186.92,-189.24 192.29,-180.1 182.4,-183.9 186.92,-189.24"/>
<g id="a_edge3&#45;headlabel"><a xlink:href="dir_000146_000060.html" target="_top" xlink:title="1">
<text text-anchor="middle" x="186.01" y="-191.23" font-family="Helvetica,sans-Serif" font-size="10.00">1</text>
</a>
</g>
</g>
<!-- dir_82ae37b9d9d4852b543931d9ede35f57 -->
<g id="node8" class="node">
<title>dir_82ae37b9d9d4852b543931d9ede35f57</title>
<g id="a_node8"><a xlink:href="dir_82ae37b9d9d4852b543931d9ede35f57.html" target="_top" xlink:title="Timeservice">
<polygon fill="none" stroke="red" points="304,-108 228,-108 228,-72 304,-72 304,-108"/>
<text text-anchor="middle" x="266" y="-87.5" font-family="Helvetica,sans-Serif" font-size="10.00">Timeservice</text>
</a>
</g>
</g>
<!-- dir_c0b9615ac60c18a42997af10dc9475f4&#45;&gt;dir_82ae37b9d9d4852b543931d9ede35f57 -->
<g id="edge4" class="edge">
<title>dir_c0b9615ac60c18a42997af10dc9475f4&#45;&gt;dir_82ae37b9d9d4852b543931d9ede35f57</title>
<path fill="none" stroke="black" d="M143.67,-215.87C148.53,-196.56 158.7,-165.12 177,-144 188.41,-130.83 203.93,-120.04 218.82,-111.71"/>
<polygon fill="black" stroke="black" points="220.78,-114.63 227.96,-106.84 217.49,-108.45 220.78,-114.63"/>
<g id="a_edge4&#45;headlabel"><a xlink:href="dir_000146_000052.html" target="_top" xlink:title="1">
<text text-anchor="middle" x="218.94" y="-116.32" font-family="Helvetica,sans-Serif" font-size="10.00">1</text>
</a>
</g>
</g>
<!-- dir_e7101fc97bce6c0e45f04b09bafc966e -->
<g id="node3" class="node">
<title>dir_e7101fc97bce6c0e45f04b09bafc966e</title>
<g id="a_node3"><a xlink:href="dir_e7101fc97bce6c0e45f04b09bafc966e.html" target="_top" xlink:title="src">
<polygon fill="white" stroke="black" points="150,-324 96,-324 96,-288 150,-288 150,-324"/>
<text text-anchor="middle" x="123" y="-303.5" font-family="Helvetica,sans-Serif" font-size="10.00">src</text>
</a>
</g>
</g>
<!-- dir_e7101fc97bce6c0e45f04b09bafc966e&#45;&gt;dir_c0b9615ac60c18a42997af10dc9475f4 -->
<g id="edge5" class="edge">
<title>dir_e7101fc97bce6c0e45f04b09bafc966e&#45;&gt;dir_c0b9615ac60c18a42997af10dc9475f4</title>
<path fill="none" stroke="black" d="M127.2,-287.7C129.1,-279.9 131.38,-270.51 133.48,-261.83"/>
<polygon fill="black" stroke="black" points="136.89,-262.65 135.85,-252.1 130.08,-261 136.89,-262.65"/>
<g id="a_edge5&#45;headlabel"><a xlink:href="dir_000147_000146.html" target="_top" xlink:title="2">
<text text-anchor="middle" x="138.8" y="-264.31" font-family="Helvetica,sans-Serif" font-size="10.00">2</text>
</a>
</g>
</g>
<!-- dir_b7b53e38cf7f5d62fba7539ec5b4a1dc -->
<g id="node4" class="node">
<title>dir_b7b53e38cf7f5d62fba7539ec5b4a1dc</title>
<g id="a_node4"><a xlink:href="dir_b7b53e38cf7f5d62fba7539ec5b4a1dc.html" target="_top" xlink:title="test">
<polygon fill="white" stroke="red" points="78,-324 24,-324 24,-288 78,-288 78,-324"/>
<text text-anchor="middle" x="51" y="-303.5" font-family="Helvetica,sans-Serif" font-size="10.00">test</text>
</a>
</g>
</g>
<!-- dir_b7b53e38cf7f5d62fba7539ec5b4a1dc&#45;&gt;dir_c0b9615ac60c18a42997af10dc9475f4 -->
<g id="edge6" class="edge">
<title>dir_b7b53e38cf7f5d62fba7539ec5b4a1dc&#45;&gt;dir_c0b9615ac60c18a42997af10dc9475f4</title>
<path fill="none" stroke="black" d="M73,-287.7C84.21,-278.88 98,-268.03 110.15,-258.47"/>
<polygon fill="black" stroke="black" points="112.56,-261.04 118.25,-252.1 108.23,-255.54 112.56,-261.04"/>
<g id="a_edge6&#45;headlabel"><a xlink:href="dir_000032_000146.html" target="_top" xlink:title="1">
<text text-anchor="middle" x="111.49" y="-262.99" font-family="Helvetica,sans-Serif" font-size="10.00">1</text>
</a>
</g>
</g>
<!-- dir_4816d2fb8abcfd1fbfb7e56b67e0baa1&#45;&gt;dir_1a5504e72c2ab618c124e6472b08d26c -->
<g id="edge7" class="edge">
<title>dir_4816d2fb8abcfd1fbfb7e56b67e0baa1&#45;&gt;dir_1a5504e72c2ab618c124e6472b08d26c</title>
<path fill="none" stroke="black" d="M294.71,-215.88C310.73,-185.17 338.5,-119.49 313,-72 306.21,-59.36 294.94,-49.23 282.97,-41.35"/>
<polygon fill="black" stroke="black" points="284.55,-38.21 274.18,-36 280.91,-44.19 284.55,-38.21"/>
<g id="a_edge7&#45;headlabel"><a xlink:href="dir_000019_000108.html" target="_top" xlink:title="2">
<text text-anchor="middle" x="289.09" y="-35.15" font-family="Helvetica,sans-Serif" font-size="10.00">2</text>
</a>
</g>
</g>
<!-- dir_4816d2fb8abcfd1fbfb7e56b67e0baa1&#45;&gt;dir_4d0b0adf7e9fb892c3df556e9cbb05d0 -->
<g id="edge8" class="edge">
<title>dir_4816d2fb8abcfd1fbfb7e56b67e0baa1&#45;&gt;dir_4d0b0adf7e9fb892c3df556e9cbb05d0</title>
<path fill="none" stroke="black" d="M262.28,-215.7C253.17,-207.22 242.92,-196.86 234.4,-187.58"/>
<polygon fill="black" stroke="black" points="236.99,-185.23 227.72,-180.1 231.77,-189.89 236.99,-185.23"/>
<g id="a_edge8&#45;headlabel"><a xlink:href="dir_000019_000060.html" target="_top" xlink:title="1">
<text text-anchor="middle" x="241.51" y="-183.52" font-family="Helvetica,sans-Serif" font-size="10.00">1</text>
</a>
</g>
</g>
<!-- dir_4816d2fb8abcfd1fbfb7e56b67e0baa1&#45;&gt;dir_82ae37b9d9d4852b543931d9ede35f57 -->
<g id="edge9" class="edge">
<title>dir_4816d2fb8abcfd1fbfb7e56b67e0baa1&#45;&gt;dir_82ae37b9d9d4852b543931d9ede35f57</title>
<path fill="none" stroke="black" d="M278.12,-215.87C272.33,-191.67 266.09,-147.21 264.21,-118.39"/>
<polygon fill="black" stroke="black" points="267.69,-118.01 263.71,-108.19 260.7,-118.35 267.69,-118.01"/>
<g id="a_edge9&#45;headlabel"><a xlink:href="dir_000019_000052.html" target="_top" xlink:title="1">
<text text-anchor="middle" x="270.7" y="-118.96" font-family="Helvetica,sans-Serif" font-size="10.00">1</text>
</a>
</g>
</g>
<!-- dir_4d0b0adf7e9fb892c3df556e9cbb05d0&#45;&gt;dir_c0b9615ac60c18a42997af10dc9475f4 -->
<g id="edge10" class="edge">
<title>dir_4d0b0adf7e9fb892c3df556e9cbb05d0&#45;&gt;dir_c0b9615ac60c18a42997af10dc9475f4</title>
<path fill="none" stroke="black" d="M204.08,-180.1C195.42,-188.8 183.81,-199.52 172.81,-209.03"/>
<polygon fill="black" stroke="black" points="170.31,-206.56 164.95,-215.7 174.84,-211.9 170.31,-206.56"/>
<g id="a_edge10&#45;headlabel"><a xlink:href="dir_000060_000146.html" target="_top" xlink:title="1">
<text text-anchor="middle" x="171.22" y="-199.57" font-family="Helvetica,sans-Serif" font-size="10.00">1</text>
</a>
</g>
</g>
<!-- dir_4d0b0adf7e9fb892c3df556e9cbb05d0&#45;&gt;dir_4816d2fb8abcfd1fbfb7e56b67e0baa1 -->
<g id="edge11" class="edge">
<title>dir_4d0b0adf7e9fb892c3df556e9cbb05d0&#45;&gt;dir_4816d2fb8abcfd1fbfb7e56b67e0baa1</title>
<path fill="none" stroke="black" d="M239.51,-180.1C248.6,-188.55 258.85,-198.9 267.4,-208.2"/>
<polygon fill="black" stroke="black" points="264.83,-210.58 274.11,-215.7 270.05,-205.91 264.83,-210.58"/>
<g id="a_edge11&#45;headlabel"><a xlink:href="dir_000060_000019.html" target="_top" xlink:title="8">
<text text-anchor="middle" x="260.32" y="-207.29" font-family="Helvetica,sans-Serif" font-size="10.00">8</text>
</a>
</g>
</g>
<!-- dir_4d0b0adf7e9fb892c3df556e9cbb05d0&#45;&gt;dir_1a5504e72c2ab618c124e6472b08d26c -->
<g id="edge12" class="edge">
<title>dir_4d0b0adf7e9fb892c3df556e9cbb05d0&#45;&gt;dir_1a5504e72c2ab618c124e6472b08d26c</title>
<path fill="none" stroke="black" d="M216.19,-143.84C215.63,-125.85 215.5,-96.79 219,-72 220.2,-63.52 222.28,-54.45 224.49,-46.26"/>
<polygon fill="black" stroke="black" points="227.9,-47.03 227.28,-36.45 221.17,-45.11 227.9,-47.03"/>
<g id="a_edge12&#45;headlabel"><a xlink:href="dir_000060_000108.html" target="_top" xlink:title="8">
<text text-anchor="middle" x="229.65" y="-48.76" font-family="Helvetica,sans-Serif" font-size="10.00">8</text>
</a>
</g>
</g>
<!-- dir_4d0b0adf7e9fb892c3df556e9cbb05d0&#45;&gt;dir_82ae37b9d9d4852b543931d9ede35f57 -->
<g id="edge13" class="edge">
<title>dir_4d0b0adf7e9fb892c3df556e9cbb05d0&#45;&gt;dir_82ae37b9d9d4852b543931d9ede35f57</title>
<path fill="none" stroke="black" d="M229.11,-143.7C234.87,-135.47 241.86,-125.48 248.21,-116.42"/>
<polygon fill="black" stroke="black" points="251.16,-118.3 254.03,-108.1 245.42,-114.29 251.16,-118.3"/>
<g id="a_edge13&#45;headlabel"><a xlink:href="dir_000060_000052.html" target="_top" xlink:title="1">
<text text-anchor="middle" x="251.42" y="-120.38" font-family="Helvetica,sans-Serif" font-size="10.00">1</text>
</a>
</g>
</g>
<!-- dir_82ae37b9d9d4852b543931d9ede35f57&#45;&gt;dir_4816d2fb8abcfd1fbfb7e56b67e0baa1 -->
<g id="edge14" class="edge">
<title>dir_82ae37b9d9d4852b543931d9ede35f57&#45;&gt;dir_4816d2fb8abcfd1fbfb7e56b67e0baa1</title>
<path fill="none" stroke="black" d="M272.89,-108.19C278.69,-132.42 284.93,-176.89 286.8,-205.68"/>
<polygon fill="black" stroke="black" points="283.31,-206.05 287.29,-215.87 290.3,-205.71 283.31,-206.05"/>
<g id="a_edge14&#45;headlabel"><a xlink:href="dir_000052_000019.html" target="_top" xlink:title="2">
<text text-anchor="middle" x="280.3" y="-200.1" font-family="Helvetica,sans-Serif" font-size="10.00">2</text>
</a>
</g>
</g>
<!-- dir_82ae37b9d9d4852b543931d9ede35f57&#45;&gt;dir_1a5504e72c2ab618c124e6472b08d26c -->
<g id="edge15" class="edge">
<title>dir_82ae37b9d9d4852b543931d9ede35f57&#45;&gt;dir_1a5504e72c2ab618c124e6472b08d26c</title>
<path fill="none" stroke="black" d="M257.84,-71.7C254.09,-63.73 249.55,-54.1 245.38,-45.26"/>
<polygon fill="black" stroke="black" points="248.49,-43.66 241.06,-36.1 242.16,-46.64 248.49,-43.66"/>
<g id="a_edge15&#45;headlabel"><a xlink:href="dir_000052_000108.html" target="_top" xlink:title="2">
<text text-anchor="middle" x="252.59" y="-43.2" font-family="Helvetica,sans-Serif" font-size="10.00">2</text>
</a>
</g>
</g>
</g>
</svg>
