<?xml version="1.0" encoding="UTF-8" standalone="no"?>
<!DOCTYPE svg PUBLIC "-//W3C//DTD SVG 1.1//EN"
 "http://www.w3.org/Graphics/SVG/1.1/DTD/svg11.dtd">
<!-- Generated by graphviz version 2.43.0 (0)
 -->
<!-- Title: Graphical Class Hierarchy Pages: 1 -->
<svg width="647pt" height="434pt"
 viewBox="0.00 0.00 647.00 434.00" xmlns="http://www.w3.org/2000/svg" xmlns:xlink="http://www.w3.org/1999/xlink">
<g id="graph0" class="graph" transform="scale(1 1) rotate(0) translate(4 430)">
<title>Graphical Class Hierarchy</title>
<!-- Node0 -->
<g id="node1" class="node">
<title>Node0</title>
<g id="a_node1"><a xlink:href="d7/d6d/class_task.html" target="_top" xlink:title="Encapsulate a runnable task.">
<polygon fill="none" stroke="black" points="0,-311.5 0,-330.5 38,-330.5 38,-311.5 0,-311.5"/>
<text text-anchor="middle" x="19" y="-318.5" font-family="Helvetica,sans-Serif" font-size="10.00">Task</text>
</a>
</g>
</g>
<!-- Node1 -->
<g id="node2" class="node">
<title>Node1</title>
<g id="a_node2"><a xlink:href="d6/da0/class_active_current_sensor.html" target="_top" xlink:title=" ">
<polygon fill="none" stroke="black" points="104,-406.5 104,-425.5 220,-425.5 220,-406.5 104,-406.5"/>
<text text-anchor="middle" x="162" y="-413.5" font-family="Helvetica,sans-Serif" font-size="10.00">ActiveCurrentSensor</text>
</a>
</g>
</g>
<!-- Node0&#45;&gt;Node1 -->
<g id="edge1" class="edge">
<title>Node0&#45;&gt;Node1</title>
<path fill="none" stroke="midnightblue" d="M28.44,-339.97C37.26,-357.53 52.78,-382.97 74,-397 82.9,-402.88 93.32,-406.97 103.8,-409.81"/>
<polygon fill="midnightblue" stroke="midnightblue" points="31.49,-338.22 24.03,-330.69 25.16,-341.22 31.49,-338.22"/>
</g>
<!-- Node2 -->
<g id="node3" class="node">
<title>Node2</title>
<g id="a_node3"><a xlink:href="d9/db3/class_data_broker.html" target="_top" xlink:title=" ">
<polygon fill="none" stroke="black" points="126.5,-368.5 126.5,-387.5 197.5,-387.5 197.5,-368.5 126.5,-368.5"/>
<text text-anchor="middle" x="162" y="-375.5" font-family="Helvetica,sans-Serif" font-size="10.00">DataBroker</text>
</a>
</g>
</g>
<!-- Node0&#45;&gt;Node2 -->
<g id="edge2" class="edge">
<title>Node0&#45;&gt;Node2</title>
<path fill="none" stroke="midnightblue" d="M38.7,-336.97C48.62,-344.67 61.34,-353.43 74,-359 90.42,-366.22 109.82,-370.79 126.13,-373.64"/>
<polygon fill="midnightblue" stroke="midnightblue" points="40.77,-334.13 30.79,-330.57 36.37,-339.58 40.77,-334.13"/>
</g>
<!-- Node3 -->
<g id="node4" class="node">
<title>Node3</title>
<g id="a_node4"><a xlink:href="d6/d9b/class_maintainer.html" target="_top" xlink:title=" ">
<polygon fill="none" stroke="black" points="127.5,-330.5 127.5,-349.5 196.5,-349.5 196.5,-330.5 127.5,-330.5"/>
<text text-anchor="middle" x="162" y="-337.5" font-family="Helvetica,sans-Serif" font-size="10.00">Maintainer</text>
</a>
</g>
</g>
<!-- Node0&#45;&gt;Node3 -->
<g id="edge3" class="edge">
<title>Node0&#45;&gt;Node3</title>
<path fill="none" stroke="midnightblue" d="M48.2,-324.8C70.99,-327.87 103.14,-332.2 127.29,-335.46"/>
<polygon fill="midnightblue" stroke="midnightblue" points="48.52,-321.31 38.14,-323.45 47.59,-328.25 48.52,-321.31"/>
</g>
<!-- Node4 -->
<g id="node5" class="node">
<title>Node4</title>
<g id="a_node5"><a xlink:href="d9/d88/class_sensor_controller_base.html" target="_top" xlink:title=" ">
<polygon fill="none" stroke="black" points="101,-292.5 101,-311.5 223,-311.5 223,-292.5 101,-292.5"/>
<text text-anchor="middle" x="162" y="-299.5" font-family="Helvetica,sans-Serif" font-size="10.00">SensorControllerBase</text>
</a>
</g>
</g>
<!-- Node0&#45;&gt;Node4 -->
<g id="edge4" class="edge">
<title>Node0&#45;&gt;Node4</title>
<path fill="none" stroke="midnightblue" d="M48.33,-317.18C63.41,-315.15 82.56,-312.57 100.77,-310.12"/>
<polygon fill="midnightblue" stroke="midnightblue" points="47.59,-313.75 38.14,-318.55 48.52,-320.69 47.59,-313.75"/>
</g>
<!-- Node8 -->
<g id="node9" class="node">
<title>Node8</title>
<g id="a_node9"><a xlink:href="d4/d82/class_service_base.html" target="_top" xlink:title=" ">
<polygon fill="none" stroke="black" points="98.5,-243 98.5,-273 225.5,-273 225.5,-243 98.5,-243"/>
<text text-anchor="start" x="106.5" y="-261" font-family="Helvetica,sans-Serif" font-size="10.00">ServiceBase&lt; BUFFER</text>
<text text-anchor="middle" x="162" y="-250" font-family="Helvetica,sans-Serif" font-size="10.00">_TYPE &gt;</text>
</a>
</g>
</g>
<!-- Node0&#45;&gt;Node8 -->
<g id="edge8" class="edge">
<title>Node0&#45;&gt;Node8</title>
<path fill="none" stroke="midnightblue" d="M39.24,-305.08C49.14,-297.53 61.68,-288.9 74,-283 81.8,-279.27 90.26,-275.98 98.74,-273.13"/>
<polygon fill="midnightblue" stroke="midnightblue" points="36.99,-302.4 31.3,-311.34 41.32,-307.9 36.99,-302.4"/>
</g>
<!-- Node12 -->
<g id="node13" class="node">
<title>Node12</title>
<g id="a_node13"><a xlink:href="d4/d82/class_service_base.html" target="_top" xlink:title=" ">
<polygon fill="none" stroke="black" points="74,-124.5 74,-143.5 250,-143.5 250,-124.5 74,-124.5"/>
<text text-anchor="middle" x="162" y="-131.5" font-family="Helvetica,sans-Serif" font-size="10.00">ServiceBase&lt; MQTT_Message &gt;</text>
</a>
</g>
</g>
<!-- Node0&#45;&gt;Node12 -->
<g id="edge12" class="edge">
<title>Node0&#45;&gt;Node12</title>
<path fill="none" stroke="midnightblue" d="M30.39,-302.37C40.71,-284.37 57.35,-256.57 74,-234 99.82,-199 134.94,-161.18 151.55,-143.77"/>
<polygon fill="midnightblue" stroke="midnightblue" points="27.23,-300.85 25.35,-311.28 33.32,-304.3 27.23,-300.85"/>
</g>
<!-- Node5 -->
<g id="node6" class="node">
<title>Node5</title>
<g id="a_node6"><a xlink:href="d3/dab/class_distance_sensor_controller.html" target="_top" xlink:title=" ">
<polygon fill="none" stroke="black" points="304.5,-330.5 304.5,-349.5 444.5,-349.5 444.5,-330.5 304.5,-330.5"/>
<text text-anchor="middle" x="374.5" y="-337.5" font-family="Helvetica,sans-Serif" font-size="10.00">DistanceSensorController</text>
</a>
</g>
</g>
<!-- Node4&#45;&gt;Node5 -->
<g id="edge5" class="edge">
<title>Node4&#45;&gt;Node5</title>
<path fill="none" stroke="midnightblue" d="M225.86,-313.35C256.06,-318.8 291.85,-325.26 320.63,-330.46"/>
<polygon fill="midnightblue" stroke="midnightblue" points="226.31,-309.87 215.85,-311.54 225.07,-316.76 226.31,-309.87"/>
</g>
<!-- Node7 -->
<g id="node8" class="node">
<title>Node7</title>
<g id="a_node8"><a xlink:href="d3/d1b/class_sensor_controller_base___m_o_c_k.html" target="_top" xlink:title=" ">
<polygon fill="none" stroke="black" points="296,-292.5 296,-311.5 453,-311.5 453,-292.5 296,-292.5"/>
<text text-anchor="middle" x="374.5" y="-299.5" font-family="Helvetica,sans-Serif" font-size="10.00">SensorControllerBase_MOCK</text>
</a>
</g>
</g>
<!-- Node4&#45;&gt;Node7 -->
<g id="edge7" class="edge">
<title>Node4&#45;&gt;Node7</title>
<path fill="none" stroke="midnightblue" d="M233.31,-302C253.33,-302 275.24,-302 295.67,-302"/>
<polygon fill="midnightblue" stroke="midnightblue" points="233.04,-298.5 223.04,-302 233.04,-305.5 233.04,-298.5"/>
</g>
<!-- Node6 -->
<g id="node7" class="node">
<title>Node6</title>
<g id="a_node7"><a xlink:href="d8/d2b/class_distance_sensor_controller___h_w___t_e_s_t.html" target="_top" xlink:title=" ">
<polygon fill="none" stroke="black" points="499,-325 499,-355 639,-355 639,-325 499,-325"/>
<text text-anchor="start" x="507" y="-343" font-family="Helvetica,sans-Serif" font-size="10.00">DistanceSensorController</text>
<text text-anchor="middle" x="569" y="-332" font-family="Helvetica,sans-Serif" font-size="10.00">_HW_TEST</text>
</a>
</g>
</g>
<!-- Node5&#45;&gt;Node6 -->
<g id="edge6" class="edge">
<title>Node5&#45;&gt;Node6</title>
<path fill="none" stroke="midnightblue" d="M454.73,-340C469.33,-340 484.47,-340 498.74,-340"/>
<polygon fill="midnightblue" stroke="midnightblue" points="454.72,-336.5 444.72,-340 454.72,-343.5 454.72,-336.5"/>
</g>
<!-- Node9 -->
<g id="node10" class="node">
<title>Node9</title>
<g id="a_node10"><a xlink:href="da/d3e/class_service_queue_base.html" target="_top" xlink:title=" ">
<polygon fill="none" stroke="black" points="295.5,-243 295.5,-273 453.5,-273 453.5,-243 295.5,-243"/>
<text text-anchor="start" x="303.5" y="-261" font-family="Helvetica,sans-Serif" font-size="10.00">ServiceQueueBase&lt; BUFFER</text>
<text text-anchor="middle" x="374.5" y="-250" font-family="Helvetica,sans-Serif" font-size="10.00">_TYPE, QUEUE_TYPE &gt;</text>
</a>
</g>
</g>
<!-- Node8&#45;&gt;Node9 -->
<g id="edge9" class="edge">
<title>Node8&#45;&gt;Node9</title>
<path fill="none" stroke="midnightblue" d="M235.8,-258C255.07,-258 275.94,-258 295.48,-258"/>
<polygon fill="midnightblue" stroke="midnightblue" points="235.59,-254.5 225.59,-258 235.59,-261.5 235.59,-254.5"/>
</g>
<!-- Node10 -->
<g id="node11" class="node">
<title>Node10</title>
<g id="a_node11"><a xlink:href="da/d3e/class_service_queue_base.html" target="_top" xlink:title=" ">
<polygon fill="none" stroke="black" points="295.5,-194 295.5,-224 453.5,-224 453.5,-194 295.5,-194"/>
<text text-anchor="start" x="303.5" y="-212" font-family="Helvetica,sans-Serif" font-size="10.00">ServiceQueueBase&lt; BUFFER</text>
<text text-anchor="middle" x="374.5" y="-201" font-family="Helvetica,sans-Serif" font-size="10.00">_TYPE, FreeRTOS::Queue &gt;</text>
</a>
</g>
</g>
<!-- Node8&#45;&gt;Node10 -->
<g id="edge10" class="edge">
<title>Node8&#45;&gt;Node10</title>
<path fill="none" stroke="midnightblue" d="M235.63,-241.09C259.47,-235.54 285.77,-229.42 308.97,-224.02"/>
<polygon fill="midnightblue" stroke="midnightblue" points="234.53,-237.75 225.59,-243.43 236.12,-244.57 234.53,-237.75"/>
</g>
<!-- Node11 -->
<g id="node12" class="node">
<title>Node11</title>
<g id="a_node12"><a xlink:href="dc/d61/class_service_base___h_w___t_e_s_t.html" target="_top" xlink:title=" ">
<polygon fill="none" stroke="black" points="500.5,-190.5 500.5,-231.5 637.5,-231.5 637.5,-190.5 500.5,-190.5"/>
<text text-anchor="start" x="508.5" y="-219.5" font-family="Helvetica,sans-Serif" font-size="10.00">ServiceBase_HW_TEST</text>
<text text-anchor="start" x="508.5" y="-208.5" font-family="Helvetica,sans-Serif" font-size="10.00">&lt; BUFFER_TYPE, QUEUE</text>
<text text-anchor="middle" x="569" y="-197.5" font-family="Helvetica,sans-Serif" font-size="10.00">_TYPE &gt;</text>
</a>
</g>
</g>
<!-- Node10&#45;&gt;Node11 -->
<g id="edge11" class="edge">
<title>Node10&#45;&gt;Node11</title>
<path fill="none" stroke="midnightblue" d="M463.79,-209.92C476.08,-210.04 488.55,-210.17 500.38,-210.3"/>
<polygon fill="midnightblue" stroke="midnightblue" points="463.56,-206.41 453.52,-209.81 463.48,-213.41 463.56,-206.41"/>
</g>
<!-- Node13 -->
<g id="node14" class="node">
<title>Node13</title>
<g id="a_node14"><a xlink:href="da/d3e/class_service_queue_base.html" target="_top" xlink:title=" ">
<polygon fill="none" stroke="black" points="300.5,-143 300.5,-173 448.5,-173 448.5,-143 300.5,-143"/>
<text text-anchor="start" x="308.5" y="-161" font-family="Helvetica,sans-Serif" font-size="10.00">ServiceQueueBase&lt; MQTT</text>
<text text-anchor="middle" x="374.5" y="-150" font-family="Helvetica,sans-Serif" font-size="10.00">_Message &gt;</text>
</a>
</g>
</g>
<!-- Node12&#45;&gt;Node13 -->
<g id="edge13" class="edge">
<title>Node12&#45;&gt;Node13</title>
<path fill="none" stroke="midnightblue" d="M256.58,-144.67C271.24,-146.34 286.21,-148.05 300.32,-149.66"/>
<polygon fill="midnightblue" stroke="midnightblue" points="256.83,-141.18 246.5,-143.52 256.04,-148.13 256.83,-141.18"/>
</g>
<!-- Node16 -->
<g id="node17" class="node">
<title>Node16</title>
<g id="a_node17"><a xlink:href="d9/d28/class_service_time_base.html" target="_top" xlink:title=" ">
<polygon fill="none" stroke="black" points="295,-94 295,-124 454,-124 454,-94 295,-94"/>
<text text-anchor="start" x="303" y="-112" font-family="Helvetica,sans-Serif" font-size="10.00">ServiceTimeBase&lt; DELAY</text>
<text text-anchor="middle" x="374.5" y="-101" font-family="Helvetica,sans-Serif" font-size="10.00">_FUNCTION, BUFFER_TYPE &gt;</text>
</a>
</g>
</g>
<!-- Node12&#45;&gt;Node16 -->
<g id="edge16" class="edge">
<title>Node12&#45;&gt;Node16</title>
<path fill="none" stroke="midnightblue" d="M253.21,-123.29C267.09,-121.64 281.33,-119.95 294.93,-118.33"/>
<polygon fill="midnightblue" stroke="midnightblue" points="252.7,-119.82 243.18,-124.48 253.52,-126.77 252.7,-119.82"/>
</g>
<!-- Node17 -->
<g id="node18" class="node">
<title>Node17</title>
<g id="a_node18"><a xlink:href="d9/d28/class_service_time_base.html" target="_top" xlink:title=" ">
<polygon fill="none" stroke="black" points="286,-41 286,-71 463,-71 463,-41 286,-41"/>
<text text-anchor="start" x="294" y="-59" font-family="Helvetica,sans-Serif" font-size="10.00">ServiceTimeBase&lt;&amp;Timeservice</text>
<text text-anchor="middle" x="374.5" y="-48" font-family="Helvetica,sans-Serif" font-size="10.00">::wait_sec &gt;</text>
</a>
</g>
</g>
<!-- Node12&#45;&gt;Node17 -->
<g id="edge17" class="edge">
<title>Node12&#45;&gt;Node17</title>
<path fill="none" stroke="midnightblue" d="M194.26,-120.52C218.97,-110.06 254.43,-95.45 286,-84 298.3,-79.54 311.69,-75.07 324.22,-71.04"/>
<polygon fill="midnightblue" stroke="midnightblue" points="192.85,-117.32 185.02,-124.45 195.59,-123.76 192.85,-117.32"/>
</g>
<!-- Node14 -->
<g id="node15" class="node">
<title>Node14</title>
<g id="a_node15"><a xlink:href="db/db4/class_online_detector__service.html" target="_top" xlink:title=" ">
<polygon fill="none" stroke="black" points="503.5,-152.5 503.5,-171.5 634.5,-171.5 634.5,-152.5 503.5,-152.5"/>
<text text-anchor="middle" x="569" y="-159.5" font-family="Helvetica,sans-Serif" font-size="10.00">OnlineDetector_service</text>
</a>
</g>
</g>
<!-- Node13&#45;&gt;Node14 -->
<g id="edge14" class="edge">
<title>Node13&#45;&gt;Node14</title>
<path fill="none" stroke="midnightblue" d="M458.76,-159.73C473.64,-160.04 488.94,-160.36 503.2,-160.65"/>
<polygon fill="midnightblue" stroke="midnightblue" points="458.62,-156.23 448.55,-159.52 458.48,-163.23 458.62,-156.23"/>
</g>
<!-- Node15 -->
<g id="node16" class="node">
<title>Node15</title>
<g id="a_node16"><a xlink:href="d6/da4/class_water_estimator___service.html" target="_top" xlink:title=" ">
<polygon fill="none" stroke="black" points="502,-114.5 502,-133.5 636,-133.5 636,-114.5 502,-114.5"/>
<text text-anchor="middle" x="569" y="-121.5" font-family="Helvetica,sans-Serif" font-size="10.00">WaterEstimator_Service</text>
</a>
</g>
</g>
<!-- Node13&#45;&gt;Node15 -->
<g id="edge15" class="edge">
<title>Node13&#45;&gt;Node15</title>
<path fill="none" stroke="midnightblue" d="M458.62,-143.32C477.44,-140 496.95,-136.55 514.18,-133.51"/>
<polygon fill="midnightblue" stroke="midnightblue" points="457.79,-139.91 448.55,-145.1 459.01,-146.8 457.79,-139.91"/>
</g>
<!-- Node18 -->
<g id="node19" class="node">
<title>Node18</title>
<g id="a_node19"><a xlink:href="d8/d4a/class_aktiv_mus__service.html" target="_top" xlink:title=" ">
<polygon fill="none" stroke="black" points="517.5,-76.5 517.5,-95.5 620.5,-95.5 620.5,-76.5 517.5,-76.5"/>
<text text-anchor="middle" x="569" y="-83.5" font-family="Helvetica,sans-Serif" font-size="10.00">AktivMus_service</text>
</a>
</g>
</g>
<!-- Node17&#45;&gt;Node18 -->
<g id="edge18" class="edge">
<title>Node17&#45;&gt;Node18</title>
<path fill="none" stroke="midnightblue" d="M473.06,-71.2C488.35,-73.59 503.59,-75.96 517.25,-78.09"/>
<polygon fill="midnightblue" stroke="midnightblue" points="473.44,-67.72 463.02,-69.64 472.36,-74.64 473.44,-67.72"/>
</g>
<!-- Node19 -->
<g id="node20" class="node">
<title>Node19</title>
<g id="a_node20"><a xlink:href="df/ddc/class_env_sensing__service.html" target="_top" xlink:title=" ">
<polygon fill="none" stroke="black" points="512.5,-38.5 512.5,-57.5 625.5,-57.5 625.5,-38.5 512.5,-38.5"/>
<text text-anchor="middle" x="569" y="-45.5" font-family="Helvetica,sans-Serif" font-size="10.00">EnvSensing_service</text>
</a>
</g>
</g>
<!-- Node17&#45;&gt;Node19 -->
<g id="edge19" class="edge">
<title>Node17&#45;&gt;Node19</title>
<path fill="none" stroke="midnightblue" d="M473.27,-51.94C486.7,-51.38 500.08,-50.82 512.38,-50.31"/>
<polygon fill="midnightblue" stroke="midnightblue" points="472.87,-48.45 463.02,-52.36 473.16,-55.44 472.87,-48.45"/>
</g>
<!-- Node20 -->
<g id="node21" class="node">
<title>Node20</title>
<g id="a_node21"><a xlink:href="d3/d22/classis_alive__service.html" target="_top" xlink:title=" ">
<polygon fill="none" stroke="black" points="524,-0.5 524,-19.5 614,-19.5 614,-0.5 524,-0.5"/>
<text text-anchor="middle" x="569" y="-7.5" font-family="Helvetica,sans-Serif" font-size="10.00">isAlive_service</text>
</a>
</g>
</g>
<!-- Node17&#45;&gt;Node20 -->
<g id="edge20" class="edge">
<title>Node17&#45;&gt;Node20</title>
<path fill="none" stroke="midnightblue" d="M448.36,-38.59C475.42,-32.12 505.1,-25.03 528.12,-19.53"/>
<polygon fill="midnightblue" stroke="midnightblue" points="447.44,-35.21 438.53,-40.94 449.07,-42.02 447.44,-35.21"/>
</g>
</g>
</svg>
