<?xml version="1.0" encoding="UTF-8" standalone="no"?>
<!DOCTYPE svg PUBLIC "-//W3C//DTD SVG 1.1//EN"
 "http://www.w3.org/Graphics/SVG/1.1/DTD/svg11.dtd">
<!-- Generated by graphviz version 2.43.0 (0)
 -->
<!-- Title: Components/AnalysisTools/ImageAnalysis_OpenCV/src/Utility_Image.cpp Pages: 1 -->
<svg width="607pt" height="363pt"
 viewBox="0.00 0.00 607.00 363.00" xmlns="http://www.w3.org/2000/svg" xmlns:xlink="http://www.w3.org/1999/xlink">
<g id="graph0" class="graph" transform="scale(1 1) rotate(0) translate(4 359)">
<title>Components/AnalysisTools/ImageAnalysis_OpenCV/src/Utility_Image.cpp</title>
<!-- Node1 -->
<g id="node1" class="node">
<title>Node1</title>
<g id="a_node1"><a xlink:title=" ">
<polygon fill="#bfbfbf" stroke="black" points="298.5,-313.5 298.5,-354.5 451.5,-354.5 451.5,-313.5 298.5,-313.5"/>
<text text-anchor="start" x="306.5" y="-342.5" font-family="Helvetica,sans-Serif" font-size="10.00">Components/AnalysisTools</text>
<text text-anchor="start" x="306.5" y="-331.5" font-family="Helvetica,sans-Serif" font-size="10.00">/ImageAnalysis_OpenCV/src</text>
<text text-anchor="middle" x="375" y="-320.5" font-family="Helvetica,sans-Serif" font-size="10.00">/Utility_Image.cpp</text>
</a>
</g>
</g>
<!-- Node2 -->
<g id="node2" class="node">
<title>Node2</title>
<g id="a_node2"><a xlink:href="../../df/d30/_utility___image_8hpp.html" target="_top" xlink:title=" ">
<polygon fill="none" stroke="black" points="328,-246.5 328,-276.5 422,-276.5 422,-246.5 328,-246.5"/>
<text text-anchor="start" x="336" y="-264.5" font-family="Helvetica,sans-Serif" font-size="10.00">../include/Utility</text>
<text text-anchor="middle" x="375" y="-253.5" font-family="Helvetica,sans-Serif" font-size="10.00">_Image.hpp</text>
</a>
</g>
</g>
<!-- Node1&#45;&gt;Node2 -->
<g id="edge1" class="edge">
<title>Node1&#45;&gt;Node2</title>
<path fill="none" stroke="midnightblue" d="M375,-313.36C375,-305.23 375,-295.7 375,-287.11"/>
<polygon fill="midnightblue" stroke="midnightblue" points="378.5,-286.89 375,-276.89 371.5,-286.89 378.5,-286.89"/>
</g>
<!-- Node3 -->
<g id="node3" class="node">
<title>Node3</title>
<g id="a_node3"><a xlink:href="../../da/d5f/_b_a_s_i_c_8hpp.html" target="_top" xlink:title=" ">
<polygon fill="none" stroke="black" points="0,-56.5 0,-86.5 116,-86.5 116,-56.5 0,-56.5"/>
<text text-anchor="start" x="8" y="-74.5" font-family="Helvetica,sans-Serif" font-size="10.00">../../../Global_Include</text>
<text text-anchor="middle" x="58" y="-63.5" font-family="Helvetica,sans-Serif" font-size="10.00">/BASIC.hpp</text>
</a>
</g>
</g>
<!-- Node2&#45;&gt;Node3 -->
<g id="edge2" class="edge">
<title>Node2&#45;&gt;Node3</title>
<path fill="none" stroke="midnightblue" d="M327.86,-256.79C259.67,-248.71 134.79,-223.18 72,-143 61.88,-130.08 58.47,-111.84 57.53,-97.14"/>
<polygon fill="midnightblue" stroke="midnightblue" points="61.02,-96.64 57.24,-86.75 54.02,-96.84 61.02,-96.64"/>
</g>
<!-- Node4 -->
<g id="node4" class="node">
<title>Node4</title>
<g id="a_node4"><a xlink:href="../../d3/deb/_general___error_8hpp.html" target="_top" xlink:title=" ">
<polygon fill="none" stroke="black" points="344.5,-56.5 344.5,-86.5 489.5,-86.5 489.5,-56.5 344.5,-56.5"/>
<text text-anchor="start" x="352.5" y="-74.5" font-family="Helvetica,sans-Serif" font-size="10.00">../../../Objects/ErrorHandler</text>
<text text-anchor="middle" x="417" y="-63.5" font-family="Helvetica,sans-Serif" font-size="10.00">/include/General_Error.hpp</text>
</a>
</g>
</g>
<!-- Node2&#45;&gt;Node4 -->
<g id="edge3" class="edge">
<title>Node2&#45;&gt;Node4</title>
<path fill="none" stroke="midnightblue" d="M381.81,-246.46C391.88,-224.85 410.27,-181.85 417,-143 419.64,-127.77 419.68,-110.42 419.03,-96.74"/>
<polygon fill="midnightblue" stroke="midnightblue" points="422.52,-96.43 418.41,-86.67 415.54,-96.86 422.52,-96.43"/>
</g>
<!-- Node7 -->
<g id="node7" class="node">
<title>Node7</title>
<g id="a_node7"><a xlink:href="../../d7/d60/_timeservice_8hpp.html" target="_top" xlink:title=" ">
<polygon fill="none" stroke="black" points="223.5,-179.5 223.5,-209.5 366.5,-209.5 366.5,-179.5 223.5,-179.5"/>
<text text-anchor="start" x="231.5" y="-197.5" font-family="Helvetica,sans-Serif" font-size="10.00">../../../Objects/Timeservice</text>
<text text-anchor="middle" x="295" y="-186.5" font-family="Helvetica,sans-Serif" font-size="10.00">/include/Timeservice.hpp</text>
</a>
</g>
</g>
<!-- Node2&#45;&gt;Node7 -->
<g id="edge6" class="edge">
<title>Node2&#45;&gt;Node7</title>
<path fill="none" stroke="midnightblue" d="M357.64,-246.4C346.74,-237.54 332.49,-225.96 320.34,-216.09"/>
<polygon fill="midnightblue" stroke="midnightblue" points="322.29,-213.17 312.32,-209.58 317.88,-218.6 322.29,-213.17"/>
</g>
<!-- Node13 -->
<g id="node13" class="node">
<title>Node13</title>
<g id="a_node13"><a xlink:title=" ">
<polygon fill="none" stroke="#bfbfbf" points="483,-185 483,-204 599,-204 599,-185 483,-185"/>
<text text-anchor="middle" x="541" y="-192" font-family="Helvetica,sans-Serif" font-size="10.00">opencv2/opencv.hpp</text>
</a>
</g>
</g>
<!-- Node2&#45;&gt;Node13 -->
<g id="edge16" class="edge">
<title>Node2&#45;&gt;Node13</title>
<path fill="none" stroke="midnightblue" d="M411.02,-246.4C440.53,-234.84 481.86,-218.66 509.94,-207.66"/>
<polygon fill="midnightblue" stroke="midnightblue" points="511.24,-210.91 519.27,-204.01 508.69,-204.39 511.24,-210.91"/>
</g>
<!-- Node5 -->
<g id="node5" class="node">
<title>Node5</title>
<g id="a_node5"><a xlink:title=" ">
<polygon fill="none" stroke="#bfbfbf" points="360,-0.5 360,-19.5 404,-19.5 404,-0.5 360,-0.5"/>
<text text-anchor="middle" x="382" y="-7.5" font-family="Helvetica,sans-Serif" font-size="10.00">string</text>
</a>
</g>
</g>
<!-- Node4&#45;&gt;Node5 -->
<g id="edge4" class="edge">
<title>Node4&#45;&gt;Node5</title>
<path fill="none" stroke="midnightblue" d="M408.71,-56.4C403.78,-48.02 397.49,-37.33 392.25,-28.42"/>
<polygon fill="midnightblue" stroke="midnightblue" points="395.18,-26.5 387.09,-19.66 389.15,-30.05 395.18,-26.5"/>
</g>
<!-- Node6 -->
<g id="node6" class="node">
<title>Node6</title>
<g id="a_node6"><a xlink:title=" ">
<polygon fill="none" stroke="#bfbfbf" points="422,-0.5 422,-19.5 482,-19.5 482,-0.5 422,-0.5"/>
<text text-anchor="middle" x="452" y="-7.5" font-family="Helvetica,sans-Serif" font-size="10.00">iostream</text>
</a>
</g>
</g>
<!-- Node4&#45;&gt;Node6 -->
<g id="edge5" class="edge">
<title>Node4&#45;&gt;Node6</title>
<path fill="none" stroke="midnightblue" d="M425.29,-56.4C430.22,-48.02 436.51,-37.33 441.75,-28.42"/>
<polygon fill="midnightblue" stroke="midnightblue" points="444.85,-30.05 446.91,-19.66 438.82,-26.5 444.85,-30.05"/>
</g>
<!-- Node7&#45;&gt;Node3 -->
<g id="edge7" class="edge">
<title>Node7&#45;&gt;Node3</title>
<path fill="none" stroke="midnightblue" d="M223.47,-190.6C181.21,-185.53 128.91,-173.01 92,-143 77.61,-131.3 68.9,-112.03 63.9,-96.6"/>
<polygon fill="midnightblue" stroke="midnightblue" points="67.16,-95.28 61.01,-86.66 60.44,-97.24 67.16,-95.28"/>
</g>
<!-- Node7&#45;&gt;Node4 -->
<g id="edge8" class="edge">
<title>Node7&#45;&gt;Node4</title>
<path fill="none" stroke="midnightblue" d="M343.7,-179.46C363.09,-171.61 384.07,-159.91 398,-143 408.7,-130.01 413.41,-111.53 415.47,-96.75"/>
<polygon fill="midnightblue" stroke="midnightblue" points="418.95,-97.09 416.55,-86.77 411.99,-96.34 418.95,-97.09"/>
</g>
<!-- Node8 -->
<g id="node8" class="node">
<title>Node8</title>
<g id="a_node8"><a xlink:href="../../d6/d4b/_r_t_c___h_a_l_8hpp.html" target="_top" xlink:title=" ">
<polygon fill="none" stroke="black" points="101,-123.5 101,-142.5 181,-142.5 181,-123.5 101,-123.5"/>
<text text-anchor="middle" x="141" y="-130.5" font-family="Helvetica,sans-Serif" font-size="10.00">RTC_HAL.hpp</text>
</a>
</g>
</g>
<!-- Node7&#45;&gt;Node8 -->
<g id="edge9" class="edge">
<title>Node7&#45;&gt;Node8</title>
<path fill="none" stroke="midnightblue" d="M258.5,-179.4C232.43,-169.33 197.71,-155.91 172.78,-146.28"/>
<polygon fill="midnightblue" stroke="midnightblue" points="174,-143 163.41,-142.66 171.47,-149.53 174,-143"/>
</g>
<!-- Node10 -->
<g id="node10" class="node">
<title>Node10</title>
<g id="a_node10"><a xlink:title=" ">
<polygon fill="none" stroke="#bfbfbf" points="199,-123.5 199,-142.5 249,-142.5 249,-123.5 199,-123.5"/>
<text text-anchor="middle" x="224" y="-130.5" font-family="Helvetica,sans-Serif" font-size="10.00">chrono</text>
</a>
</g>
</g>
<!-- Node7&#45;&gt;Node10 -->
<g id="edge13" class="edge">
<title>Node7&#45;&gt;Node10</title>
<path fill="none" stroke="midnightblue" d="M278.17,-179.4C267.33,-170.31 253.22,-158.49 242.13,-149.19"/>
<polygon fill="midnightblue" stroke="midnightblue" points="244.24,-146.4 234.33,-142.66 239.75,-151.76 244.24,-146.4"/>
</g>
<!-- Node11 -->
<g id="node11" class="node">
<title>Node11</title>
<g id="a_node11"><a xlink:title=" ">
<polygon fill="none" stroke="#bfbfbf" points="267,-123.5 267,-142.5 323,-142.5 323,-123.5 267,-123.5"/>
<text text-anchor="middle" x="295" y="-130.5" font-family="Helvetica,sans-Serif" font-size="10.00">iomanip</text>
</a>
</g>
</g>
<!-- Node7&#45;&gt;Node11 -->
<g id="edge14" class="edge">
<title>Node7&#45;&gt;Node11</title>
<path fill="none" stroke="midnightblue" d="M295,-179.4C295,-171.47 295,-161.46 295,-152.86"/>
<polygon fill="midnightblue" stroke="midnightblue" points="298.5,-152.66 295,-142.66 291.5,-152.66 298.5,-152.66"/>
</g>
<!-- Node12 -->
<g id="node12" class="node">
<title>Node12</title>
<g id="a_node12"><a xlink:title=" ">
<polygon fill="none" stroke="#bfbfbf" points="341,-123.5 341,-142.5 389,-142.5 389,-123.5 341,-123.5"/>
<text text-anchor="middle" x="365" y="-130.5" font-family="Helvetica,sans-Serif" font-size="10.00">thread</text>
</a>
</g>
</g>
<!-- Node7&#45;&gt;Node12 -->
<g id="edge15" class="edge">
<title>Node7&#45;&gt;Node12</title>
<path fill="none" stroke="midnightblue" d="M311.59,-179.4C322.29,-170.31 336.19,-158.49 347.13,-149.19"/>
<polygon fill="midnightblue" stroke="midnightblue" points="349.46,-151.8 354.81,-142.66 344.93,-146.47 349.46,-151.8"/>
</g>
<!-- Node8&#45;&gt;Node3 -->
<g id="edge10" class="edge">
<title>Node8&#45;&gt;Node3</title>
<path fill="none" stroke="midnightblue" d="M129.11,-123.48C117.87,-115.42 100.58,-103.02 85.86,-92.47"/>
<polygon fill="midnightblue" stroke="midnightblue" points="87.73,-89.5 77.56,-86.52 83.65,-95.19 87.73,-89.5"/>
</g>
<!-- Node8&#45;&gt;Node4 -->
<g id="edge11" class="edge">
<title>Node8&#45;&gt;Node4</title>
<path fill="none" stroke="midnightblue" d="M180.54,-123.48C222.55,-114.42 289.96,-99.89 342.08,-88.65"/>
<polygon fill="midnightblue" stroke="midnightblue" points="342.91,-92.05 351.95,-86.52 341.44,-85.21 342.91,-92.05"/>
</g>
<!-- Node9 -->
<g id="node9" class="node">
<title>Node9</title>
<g id="a_node9"><a xlink:title=" ">
<polygon fill="none" stroke="#bfbfbf" points="134,-62 134,-81 178,-81 178,-62 134,-62"/>
<text text-anchor="middle" x="156" y="-69" font-family="Helvetica,sans-Serif" font-size="10.00">ctime</text>
</a>
</g>
</g>
<!-- Node8&#45;&gt;Node9 -->
<g id="edge12" class="edge">
<title>Node8&#45;&gt;Node9</title>
<path fill="none" stroke="midnightblue" d="M143.15,-123.48C145.29,-114.99 148.64,-101.7 151.38,-90.82"/>
<polygon fill="midnightblue" stroke="midnightblue" points="154.8,-91.56 153.85,-81.01 148.02,-89.85 154.8,-91.56"/>
</g>
</g>
</svg>
