<?xml version="1.0" encoding="UTF-8" standalone="no"?>
<!DOCTYPE svg PUBLIC "-//W3C//DTD SVG 1.1//EN"
 "http://www.w3.org/Graphics/SVG/1.1/DTD/svg11.dtd">
<!-- Generated by graphviz version 2.43.0 (0)
 -->
<!-- Title: Components/AnalysisTools/ImageAnalysis_OpenCV/src/Utility_Image.cpp Pages: 1 -->
<!--zoomable 363 -->
<svg id="main" version="1.1" xmlns="http://www.w3.org/2000/svg" xmlns:xlink="http://www.w3.org/1999/xlink" xml:space="preserve" onload="init(evt)">
<style type="text/css"><![CDATA[
.edge:hover path { stroke: red; }
.edge:hover polygon { stroke: red; fill: red; }
]]></style>
<script type="text/javascript"><![CDATA[
var edges = document.getElementsByTagName('g');
if (edges && edges.length) {
  for (var i=0;i<edges.length;i++) {
    if (edges[i].id.substr(0,4)=='edge') {
      edges[i].setAttribute('class','edge');
    }
  }
}
]]></script>
        <defs>
                <circle id="rim" cx="0" cy="0" r="7"/>
                <circle id="rim2" cx="0" cy="0" r="3.5"/>
                <g id="zoomPlus">
                        <use xlink:href="#rim" fill="#404040">
                                <set attributeName="fill" to="#808080" begin="zoomplus.mouseover" end="zoomplus.mouseout"/>
                        </use>
                        <path d="M-4,0h8M0,-4v8" fill="none" stroke="white" stroke-width="1.5" pointer-events="none"/>
                </g>
                <g id="zoomMin">
                        <use xlink:href="#rim" fill="#404040">
                                <set attributeName="fill" to="#808080" begin="zoomminus.mouseover" end="zoomminus.mouseout"/>
                        </use>
                        <path d="M-4,0h8" fill="none" stroke="white" stroke-width="1.5" pointer-events="none"/>
                </g>
                <g id="dirArrow">
                        <path fill="none" stroke="white" stroke-width="1.5" d="M0,-3.0v7 M-2.5,-0.5L0,-3.0L2.5,-0.5"/>
                </g>
               <g id="resetDef">
                       <use xlink:href="#rim2" fill="#404040">
                               <set attributeName="fill" to="#808080" begin="reset.mouseover" end="reset.mouseout"/>
                       </use>
               </g>
        </defs>

<script type="text/javascript">
var viewWidth = 609;
var viewHeight = 363;
var sectionId = 'dynsection-0';
</script>
<script xlink:href="../../svgpan.js"/>
<svg id="graph" class="graph">
<g id="viewport">
<title>Components/AnalysisTools/ImageAnalysis_OpenCV/src/Utility_Image.cpp</title>
<!-- Node1 -->
<g id="node1" class="node">
<title>Node1</title>
<g id="a_node1"><a xlink:title=" ">
<polygon fill="#bfbfbf" stroke="black" points="300.5,-313.5 300.5,-354.5 453.5,-354.5 453.5,-313.5 300.5,-313.5"/>
<text text-anchor="start" x="308.5" y="-342.5" font-family="Helvetica,sans-Serif" font-size="10.00">Components/AnalysisTools</text>
<text text-anchor="start" x="308.5" y="-331.5" font-family="Helvetica,sans-Serif" font-size="10.00">/ImageAnalysis_OpenCV/src</text>
<text text-anchor="middle" x="377" y="-320.5" font-family="Helvetica,sans-Serif" font-size="10.00">/Utility_Image.cpp</text>
</a>
</g>
</g>
<!-- Node2 -->
<g id="node2" class="node">
<title>Node2</title>
<g id="a_node2"><a xlink:href="../../df/d30/_utility___image_8hpp.html" target="_top" xlink:title=" ">
<polygon fill="none" stroke="black" points="330,-246.5 330,-276.5 424,-276.5 424,-246.5 330,-246.5"/>
<text text-anchor="start" x="338" y="-264.5" font-family="Helvetica,sans-Serif" font-size="10.00">../include/Utility</text>
<text text-anchor="middle" x="377" y="-253.5" font-family="Helvetica,sans-Serif" font-size="10.00">_Image.hpp</text>
</a>
</g>
</g>
<!-- Node1&#45;&gt;Node2 -->
<g id="edge1" class="edge">
<title>Node1&#45;&gt;Node2</title>
<path fill="none" stroke="midnightblue" d="M377,-313.36C377,-305.23 377,-295.7 377,-287.11"/>
<polygon fill="midnightblue" stroke="midnightblue" points="380.5,-286.89 377,-276.89 373.5,-286.89 380.5,-286.89"/>
</g>
<!-- Node3 -->
<g id="node3" class="node">
<title>Node3</title>
<g id="a_node3"><a xlink:href="../../da/d5f/_b_a_s_i_c_8hpp.html" target="_top" xlink:title=" ">
<polygon fill="none" stroke="black" points="0,-56.5 0,-86.5 116,-86.5 116,-56.5 0,-56.5"/>
<text text-anchor="start" x="8" y="-74.5" font-family="Helvetica,sans-Serif" font-size="10.00">../../../Global_Include</text>
<text text-anchor="middle" x="58" y="-63.5" font-family="Helvetica,sans-Serif" font-size="10.00">/BASIC.hpp</text>
</a>
</g>
</g>
<!-- Node2&#45;&gt;Node3 -->
<g id="edge2" class="edge">
<title>Node2&#45;&gt;Node3</title>
<path fill="none" stroke="midnightblue" d="M329.88,-256.9C261.35,-248.95 135.45,-223.59 72,-143 61.85,-130.11 58.43,-111.86 57.51,-97.16"/>
<polygon fill="midnightblue" stroke="midnightblue" points="61,-96.66 57.22,-86.76 54,-96.85 61,-96.66"/>
</g>
<!-- Node4 -->
<g id="node4" class="node">
<title>Node4</title>
<g id="a_node4"><a xlink:href="../../d3/deb/_general___error_8hpp.html" target="_top" xlink:title=" ">
<polygon fill="none" stroke="black" points="346,-56.5 346,-86.5 492,-86.5 492,-56.5 346,-56.5"/>
<text text-anchor="start" x="354" y="-74.5" font-family="Helvetica,sans-Serif" font-size="10.00">../../../Objects/ErrorHandler</text>
<text text-anchor="middle" x="419" y="-63.5" font-family="Helvetica,sans-Serif" font-size="10.00">/include/General_Error.hpp</text>
</a>
</g>
</g>
<!-- Node2&#45;&gt;Node4 -->
<g id="edge3" class="edge">
<title>Node2&#45;&gt;Node4</title>
<path fill="none" stroke="midnightblue" d="M383.81,-246.46C393.88,-224.85 412.27,-181.85 419,-143 421.64,-127.77 421.68,-110.42 421.03,-96.74"/>
<polygon fill="midnightblue" stroke="midnightblue" points="424.52,-96.43 420.41,-86.67 417.54,-96.86 424.52,-96.43"/>
</g>
<!-- Node7 -->
<g id="node7" class="node">
<title>Node7</title>
<g id="a_node7"><a xlink:href="../../d7/d60/_timeservice_8hpp.html" target="_top" xlink:title=" ">
<polygon fill="none" stroke="black" points="225.5,-179.5 225.5,-209.5 368.5,-209.5 368.5,-179.5 225.5,-179.5"/>
<text text-anchor="start" x="233.5" y="-197.5" font-family="Helvetica,sans-Serif" font-size="10.00">../../../Objects/Timeservice</text>
<text text-anchor="middle" x="297" y="-186.5" font-family="Helvetica,sans-Serif" font-size="10.00">/include/Timeservice.hpp</text>
</a>
</g>
</g>
<!-- Node2&#45;&gt;Node7 -->
<g id="edge6" class="edge">
<title>Node2&#45;&gt;Node7</title>
<path fill="none" stroke="midnightblue" d="M359.64,-246.4C348.74,-237.54 334.49,-225.96 322.34,-216.09"/>
<polygon fill="midnightblue" stroke="midnightblue" points="324.29,-213.17 314.32,-209.58 319.88,-218.6 324.29,-213.17"/>
</g>
<!-- Node13 -->
<g id="node13" class="node">
<title>Node13</title>
<g id="a_node13"><a xlink:title=" ">
<polygon fill="none" stroke="#bfbfbf" points="485,-185 485,-204 601,-204 601,-185 485,-185"/>
<text text-anchor="middle" x="543" y="-192" font-family="Helvetica,sans-Serif" font-size="10.00">opencv2/opencv.hpp</text>
</a>
</g>
</g>
<!-- Node2&#45;&gt;Node13 -->
<g id="edge16" class="edge">
<title>Node2&#45;&gt;Node13</title>
<path fill="none" stroke="midnightblue" d="M413.02,-246.4C442.53,-234.84 483.86,-218.66 511.94,-207.66"/>
<polygon fill="midnightblue" stroke="midnightblue" points="513.24,-210.91 521.27,-204.01 510.69,-204.39 513.24,-210.91"/>
</g>
<!-- Node5 -->
<g id="node5" class="node">
<title>Node5</title>
<g id="a_node5"><a xlink:title=" ">
<polygon fill="none" stroke="#bfbfbf" points="362,-0.5 362,-19.5 406,-19.5 406,-0.5 362,-0.5"/>
<text text-anchor="middle" x="384" y="-7.5" font-family="Helvetica,sans-Serif" font-size="10.00">string</text>
</a>
</g>
</g>
<!-- Node4&#45;&gt;Node5 -->
<g id="edge4" class="edge">
<title>Node4&#45;&gt;Node5</title>
<path fill="none" stroke="midnightblue" d="M410.71,-56.4C405.78,-48.02 399.49,-37.33 394.25,-28.42"/>
<polygon fill="midnightblue" stroke="midnightblue" points="397.18,-26.5 389.09,-19.66 391.15,-30.05 397.18,-26.5"/>
</g>
<!-- Node6 -->
<g id="node6" class="node">
<title>Node6</title>
<g id="a_node6"><a xlink:title=" ">
<polygon fill="none" stroke="#bfbfbf" points="424,-0.5 424,-19.5 484,-19.5 484,-0.5 424,-0.5"/>
<text text-anchor="middle" x="454" y="-7.5" font-family="Helvetica,sans-Serif" font-size="10.00">iostream</text>
</a>
</g>
</g>
<!-- Node4&#45;&gt;Node6 -->
<g id="edge5" class="edge">
<title>Node4&#45;&gt;Node6</title>
<path fill="none" stroke="midnightblue" d="M427.29,-56.4C432.22,-48.02 438.51,-37.33 443.75,-28.42"/>
<polygon fill="midnightblue" stroke="midnightblue" points="446.85,-30.05 448.91,-19.66 440.82,-26.5 446.85,-30.05"/>
</g>
<!-- Node7&#45;&gt;Node3 -->
<g id="edge7" class="edge">
<title>Node7&#45;&gt;Node3</title>
<path fill="none" stroke="midnightblue" d="M225.26,-190.83C182.5,-185.86 129.43,-173.36 92,-143 77.59,-131.32 68.88,-112.05 63.89,-96.61"/>
<polygon fill="midnightblue" stroke="midnightblue" points="67.16,-95.29 61.01,-86.67 60.43,-97.25 67.16,-95.29"/>
</g>
<!-- Node7&#45;&gt;Node4 -->
<g id="edge8" class="edge">
<title>Node7&#45;&gt;Node4</title>
<path fill="none" stroke="midnightblue" d="M345.7,-179.46C365.09,-171.61 386.07,-159.91 400,-143 410.7,-130.01 415.41,-111.53 417.47,-96.75"/>
<polygon fill="midnightblue" stroke="midnightblue" points="420.95,-97.09 418.55,-86.77 413.99,-96.34 420.95,-97.09"/>
</g>
<!-- Node8 -->
<g id="node8" class="node">
<title>Node8</title>
<g id="a_node8"><a xlink:href="../../d6/d4b/_r_t_c___h_a_l_8hpp.html" target="_top" xlink:title=" ">
<polygon fill="none" stroke="black" points="101.5,-123.5 101.5,-142.5 182.5,-142.5 182.5,-123.5 101.5,-123.5"/>
<text text-anchor="middle" x="142" y="-130.5" font-family="Helvetica,sans-Serif" font-size="10.00">RTC_HAL.hpp</text>
</a>
</g>
</g>
<!-- Node7&#45;&gt;Node8 -->
<g id="edge9" class="edge">
<title>Node7&#45;&gt;Node8</title>
<path fill="none" stroke="midnightblue" d="M260.27,-179.4C234.03,-169.33 199.07,-155.91 173.98,-146.28"/>
<polygon fill="midnightblue" stroke="midnightblue" points="175.14,-142.97 164.55,-142.66 172.64,-149.51 175.14,-142.97"/>
</g>
<!-- Node10 -->
<g id="node10" class="node">
<title>Node10</title>
<g id="a_node10"><a xlink:title=" ">
<polygon fill="none" stroke="#bfbfbf" points="201,-123.5 201,-142.5 251,-142.5 251,-123.5 201,-123.5"/>
<text text-anchor="middle" x="226" y="-130.5" font-family="Helvetica,sans-Serif" font-size="10.00">chrono</text>
</a>
</g>
</g>
<!-- Node7&#45;&gt;Node10 -->
<g id="edge13" class="edge">
<title>Node7&#45;&gt;Node10</title>
<path fill="none" stroke="midnightblue" d="M280.17,-179.4C269.33,-170.31 255.22,-158.49 244.13,-149.19"/>
<polygon fill="midnightblue" stroke="midnightblue" points="246.24,-146.4 236.33,-142.66 241.75,-151.76 246.24,-146.4"/>
</g>
<!-- Node11 -->
<g id="node11" class="node">
<title>Node11</title>
<g id="a_node11"><a xlink:title=" ">
<polygon fill="none" stroke="#bfbfbf" points="269,-123.5 269,-142.5 325,-142.5 325,-123.5 269,-123.5"/>
<text text-anchor="middle" x="297" y="-130.5" font-family="Helvetica,sans-Serif" font-size="10.00">iomanip</text>
</a>
</g>
</g>
<!-- Node7&#45;&gt;Node11 -->
<g id="edge14" class="edge">
<title>Node7&#45;&gt;Node11</title>
<path fill="none" stroke="midnightblue" d="M297,-179.4C297,-171.47 297,-161.46 297,-152.86"/>
<polygon fill="midnightblue" stroke="midnightblue" points="300.5,-152.66 297,-142.66 293.5,-152.66 300.5,-152.66"/>
</g>
<!-- Node12 -->
<g id="node12" class="node">
<title>Node12</title>
<g id="a_node12"><a xlink:title=" ">
<polygon fill="none" stroke="#bfbfbf" points="343,-123.5 343,-142.5 391,-142.5 391,-123.5 343,-123.5"/>
<text text-anchor="middle" x="367" y="-130.5" font-family="Helvetica,sans-Serif" font-size="10.00">thread</text>
</a>
</g>
</g>
<!-- Node7&#45;&gt;Node12 -->
<g id="edge15" class="edge">
<title>Node7&#45;&gt;Node12</title>
<path fill="none" stroke="midnightblue" d="M313.59,-179.4C324.29,-170.31 338.19,-158.49 349.13,-149.19"/>
<polygon fill="midnightblue" stroke="midnightblue" points="351.46,-151.8 356.81,-142.66 346.93,-146.47 351.46,-151.8"/>
</g>
<!-- Node8&#45;&gt;Node3 -->
<g id="edge10" class="edge">
<title>Node8&#45;&gt;Node3</title>
<path fill="none" stroke="midnightblue" d="M129.96,-123.48C118.59,-115.42 101.09,-103.02 86.2,-92.47"/>
<polygon fill="midnightblue" stroke="midnightblue" points="87.98,-89.45 77.8,-86.52 83.93,-95.16 87.98,-89.45"/>
</g>
<!-- Node8&#45;&gt;Node4 -->
<g id="edge11" class="edge">
<title>Node8&#45;&gt;Node4</title>
<path fill="none" stroke="midnightblue" d="M181.69,-123.48C223.85,-114.42 291.5,-99.89 343.81,-88.65"/>
<polygon fill="midnightblue" stroke="midnightblue" points="344.67,-92.05 353.72,-86.52 343.2,-85.2 344.67,-92.05"/>
</g>
<!-- Node9 -->
<g id="node9" class="node">
<title>Node9</title>
<g id="a_node9"><a xlink:title=" ">
<polygon fill="none" stroke="#bfbfbf" points="134,-62 134,-81 178,-81 178,-62 134,-62"/>
<text text-anchor="middle" x="156" y="-69" font-family="Helvetica,sans-Serif" font-size="10.00">ctime</text>
</a>
</g>
</g>
<!-- Node8&#45;&gt;Node9 -->
<g id="edge12" class="edge">
<title>Node8&#45;&gt;Node9</title>
<path fill="none" stroke="midnightblue" d="M144.01,-123.48C146,-114.99 149.13,-101.7 151.69,-90.82"/>
<polygon fill="midnightblue" stroke="midnightblue" points="155.11,-91.54 154,-81.01 148.3,-89.94 155.11,-91.54"/>
</g>
</g>
</svg>
        <g id="navigator" transform="translate(0 0)" fill="#404254">
                <rect fill="#f2f5e9" fill-opacity="0.5" stroke="#606060" stroke-width=".5" x="0" y="0" width="60" height="60"/>
                <use id="zoomplus" xlink:href="#zoomPlus" x="17" y="9" onmousedown="handleZoom(evt,'in')"/>
                <use id="zoomminus" xlink:href="#zoomMin" x="42" y="9" onmousedown="handleZoom(evt,'out')"/>
                <use id="reset" xlink:href="#resetDef" x="30" y="36" onmousedown="handleReset()"/>
                <g id="arrowUp" xlink:href="#dirArrow" transform="translate(30 24)" onmousedown="handlePan(0,-1)">
                  <use xlink:href="#rim" fill="#404040">
                        <set attributeName="fill" to="#808080" begin="arrowUp.mouseover" end="arrowUp.mouseout"/>
                  </use>
                  <path fill="none" stroke="white" stroke-width="1.5" d="M0,-3.0v7 M-2.5,-0.5L0,-3.0L2.5,-0.5"/>
                </g>
                <g id="arrowRight" xlink:href="#dirArrow" transform="rotate(90) translate(36 -43)" onmousedown="handlePan(1,0)">
                  <use xlink:href="#rim" fill="#404040">
                        <set attributeName="fill" to="#808080" begin="arrowRight.mouseover" end="arrowRight.mouseout"/>
                  </use>
                  <path fill="none" stroke="white" stroke-width="1.5" d="M0,-3.0v7 M-2.5,-0.5L0,-3.0L2.5,-0.5"/>
                </g>
                <g id="arrowDown" xlink:href="#dirArrow" transform="rotate(180) translate(-30 -48)" onmousedown="handlePan(0,1)">
                  <use xlink:href="#rim" fill="#404040">
                        <set attributeName="fill" to="#808080" begin="arrowDown.mouseover" end="arrowDown.mouseout"/>
                  </use>
                  <path fill="none" stroke="white" stroke-width="1.5" d="M0,-3.0v7 M-2.5,-0.5L0,-3.0L2.5,-0.5"/>
                </g>
                <g id="arrowLeft" xlink:href="#dirArrow" transform="rotate(270) translate(-36 17)" onmousedown="handlePan(-1,0)">
                  <use xlink:href="#rim" fill="#404040">
                        <set attributeName="fill" to="#808080" begin="arrowLeft.mouseover" end="arrowLeft.mouseout"/>
                  </use>
                  <path fill="none" stroke="white" stroke-width="1.5" d="M0,-3.0v7 M-2.5,-0.5L0,-3.0L2.5,-0.5"/>
                </g>
        </g>
        <svg viewBox="0 0 15 15" width="100%" height="30px" preserveAspectRatio="xMaxYMin meet">
         <g id="arrow_out" transform="scale(0.3 0.3)">
          <a xlink:href="_utility___image_8cpp__incl_org.svg" target="_base">
           <rect id="button" ry="5" rx="5" y="6" x="6" height="38" width="38"
                fill="#f2f5e9" fill-opacity="0.5" stroke="#606060" stroke-width="1.0"/>
           <path id="arrow"
             d="M 11.500037,31.436501 C 11.940474,20.09759 22.043105,11.32322 32.158766,21.979434 L 37.068811,17.246167 C 37.068811,17.246167 37.088388,32 37.088388,32 L 22.160133,31.978069 C 22.160133,31.978069 26.997745,27.140456 26.997745,27.140456 C 18.528582,18.264221 13.291696,25.230495 11.500037,31.436501 z"
             style="fill:#404040;"/>
          </a>
         </g>
        </svg>
</svg>
