<?xml version="1.0" encoding="UTF-8" standalone="no"?>
<!DOCTYPE svg PUBLIC "-//W3C//DTD SVG 1.1//EN"
 "http://www.w3.org/Graphics/SVG/1.1/DTD/svg11.dtd">
<!-- Generated by graphviz version 2.43.0 (0)
 -->
<!-- Title: Components/Interfaces/WatchdogBase/include/Watchdog_Base.hpp Pages: 1 -->
<svg width="390pt" height="206pt"
 viewBox="0.00 0.00 389.50 206.00" xmlns="http://www.w3.org/2000/svg" xmlns:xlink="http://www.w3.org/1999/xlink">
<g id="graph0" class="graph" transform="scale(1 1) rotate(0) translate(4 202)">
<title>Components/Interfaces/WatchdogBase/include/Watchdog_Base.hpp</title>
<!-- Node1 -->
<g id="node1" class="node">
<title>Node1</title>
<g id="a_node1"><a xlink:title=" ">
<polygon fill="#bfbfbf" stroke="black" points="99,-156.5 99,-197.5 230,-197.5 230,-156.5 99,-156.5"/>
<text text-anchor="start" x="107" y="-185.5" font-family="Helvetica,sans-Serif" font-size="10.00">Components/Interfaces</text>
<text text-anchor="start" x="107" y="-174.5" font-family="Helvetica,sans-Serif" font-size="10.00">/WatchdogBase/include</text>
<text text-anchor="middle" x="164.5" y="-163.5" font-family="Helvetica,sans-Serif" font-size="10.00">/Watchdog_Base.hpp</text>
</a>
</g>
</g>
<!-- Node2 -->
<g id="node2" class="node">
<title>Node2</title>
<g id="a_node2"><a xlink:href="../../de/da5/_watchdog___base_8cpp.html" target="_top" xlink:title=" ">
<polygon fill="none" stroke="black" points="0,-78.5 0,-119.5 161,-119.5 161,-78.5 0,-78.5"/>
<text text-anchor="start" x="8" y="-107.5" font-family="Helvetica,sans-Serif" font-size="10.00">Components/Interfaces</text>
<text text-anchor="start" x="8" y="-96.5" font-family="Helvetica,sans-Serif" font-size="10.00">/WatchdogBase/src/Watchdog</text>
<text text-anchor="middle" x="80.5" y="-85.5" font-family="Helvetica,sans-Serif" font-size="10.00">_Base.cpp</text>
</a>
</g>
</g>
<!-- Node1&#45;&gt;Node2 -->
<g id="edge1" class="edge">
<title>Node1&#45;&gt;Node2</title>
<path fill="none" stroke="midnightblue" d="M135.2,-149.49C124.3,-139.63 112.14,-128.63 102.06,-119.51"/>
<polygon fill="midnightblue" stroke="midnightblue" points="133.1,-152.31 142.87,-156.43 137.8,-147.12 133.1,-152.31"/>
</g>
<!-- Node3 -->
<g id="node3" class="node">
<title>Node3</title>
<g id="a_node3"><a xlink:href="../../d6/df4/_watch___clock_8hpp.html" target="_top" xlink:title=" ">
<polygon fill="none" stroke="black" points="179.5,-78.5 179.5,-119.5 319.5,-119.5 319.5,-78.5 179.5,-78.5"/>
<text text-anchor="start" x="187.5" y="-107.5" font-family="Helvetica,sans-Serif" font-size="10.00">Components/Objects</text>
<text text-anchor="start" x="187.5" y="-96.5" font-family="Helvetica,sans-Serif" font-size="10.00">/Watchdog/include/Watch</text>
<text text-anchor="middle" x="249.5" y="-85.5" font-family="Helvetica,sans-Serif" font-size="10.00">_Clock.hpp</text>
</a>
</g>
</g>
<!-- Node1&#45;&gt;Node3 -->
<g id="edge2" class="edge">
<title>Node1&#45;&gt;Node3</title>
<path fill="none" stroke="midnightblue" d="M194.15,-149.49C205.18,-139.63 217.48,-128.63 227.68,-119.51"/>
<polygon fill="midnightblue" stroke="midnightblue" points="191.51,-147.15 186.39,-156.43 196.18,-152.37 191.51,-147.15"/>
</g>
<!-- Node4 -->
<g id="node4" class="node">
<title>Node4</title>
<g id="a_node4"><a xlink:href="../../df/d5f/_watch___clock_8cpp.html" target="_top" xlink:title=" ">
<polygon fill="none" stroke="black" points="120,-0.5 120,-41.5 239,-41.5 239,-0.5 120,-0.5"/>
<text text-anchor="start" x="128" y="-29.5" font-family="Helvetica,sans-Serif" font-size="10.00">Components/Objects</text>
<text text-anchor="start" x="128" y="-18.5" font-family="Helvetica,sans-Serif" font-size="10.00">/Watchdog/src/Watch</text>
<text text-anchor="middle" x="179.5" y="-7.5" font-family="Helvetica,sans-Serif" font-size="10.00">_Clock.cpp</text>
</a>
</g>
</g>
<!-- Node3&#45;&gt;Node4 -->
<g id="edge3" class="edge">
<title>Node3&#45;&gt;Node4</title>
<path fill="none" stroke="midnightblue" d="M224.55,-70.92C215.61,-61.2 205.7,-50.45 197.47,-41.51"/>
<polygon fill="midnightblue" stroke="midnightblue" points="222.12,-73.44 231.47,-78.43 227.27,-68.7 222.12,-73.44"/>
</g>
<!-- Node5 -->
<g id="node5" class="node">
<title>Node5</title>
<g id="a_node5"><a xlink:href="../../de/d82/watch__clock__test_8cpp.html" target="_top" xlink:title=" ">
<polygon fill="none" stroke="black" points="257.5,-0.5 257.5,-41.5 381.5,-41.5 381.5,-0.5 257.5,-0.5"/>
<text text-anchor="start" x="265.5" y="-29.5" font-family="Helvetica,sans-Serif" font-size="10.00">Components/Objects</text>
<text text-anchor="start" x="265.5" y="-18.5" font-family="Helvetica,sans-Serif" font-size="10.00">/Watchdog/test/test</text>
<text text-anchor="middle" x="319.5" y="-7.5" font-family="Helvetica,sans-Serif" font-size="10.00">/watch_clock_test.cpp</text>
</a>
</g>
</g>
<!-- Node3&#45;&gt;Node5 -->
<g id="edge4" class="edge">
<title>Node3&#45;&gt;Node5</title>
<path fill="none" stroke="midnightblue" d="M274.45,-70.92C283.39,-61.2 293.3,-50.45 301.53,-41.51"/>
<polygon fill="midnightblue" stroke="midnightblue" points="271.73,-68.7 267.53,-78.43 276.88,-73.44 271.73,-68.7"/>
</g>
</g>
</svg>
