<?xml version="1.0" encoding="UTF-8" standalone="no"?>
<!DOCTYPE svg PUBLIC "-//W3C//DTD SVG 1.1//EN"
 "http://www.w3.org/Graphics/SVG/1.1/DTD/svg11.dtd">
<!-- Generated by graphviz version 2.43.0 (0)
 -->
<!-- Title: Components/ThirdpartAPI/OneWire/src/owb.c Pages: 1 -->
<svg width="546pt" height="151pt"
 viewBox="0.00 0.00 546.00 151.00" xmlns="http://www.w3.org/2000/svg" xmlns:xlink="http://www.w3.org/1999/xlink">
<g id="graph0" class="graph" transform="scale(1 1) rotate(0) translate(4 147)">
<title>Components/ThirdpartAPI/OneWire/src/owb.c</title>
<!-- Node1 -->
<g id="node1" class="node">
<title>Node1</title>
<g id="a_node1"><a xlink:title=" ">
<polygon fill="#bfbfbf" stroke="black" points="194,-112.5 194,-142.5 335,-142.5 335,-112.5 194,-112.5"/>
<text text-anchor="start" x="202" y="-130.5" font-family="Helvetica,sans-Serif" font-size="10.00">Components/ThirdpartAPI</text>
<text text-anchor="middle" x="264.5" y="-119.5" font-family="Helvetica,sans-Serif" font-size="10.00">/OneWire/src/owb.c</text>
</a>
</g>
</g>
<!-- Node2 -->
<g id="node2" class="node">
<title>Node2</title>
<g id="a_node2"><a xlink:title=" ">
<polygon fill="none" stroke="#bfbfbf" points="0,-56.5 0,-75.5 65,-75.5 65,-56.5 0,-56.5"/>
<text text-anchor="middle" x="32.5" y="-63.5" font-family="Helvetica,sans-Serif" font-size="10.00">inttypes.h</text>
</a>
</g>
</g>
<!-- Node1&#45;&gt;Node2 -->
<g id="edge1" class="edge">
<title>Node1&#45;&gt;Node2</title>
<path fill="none" stroke="midnightblue" d="M209.81,-112.47C168.62,-101.91 112.94,-87.63 75.04,-77.91"/>
<polygon fill="midnightblue" stroke="midnightblue" points="75.89,-74.51 65.33,-75.42 74.15,-81.29 75.89,-74.51"/>
</g>
<!-- Node3 -->
<g id="node3" class="node">
<title>Node3</title>
<g id="a_node3"><a xlink:title=" ">
<polygon fill="none" stroke="#bfbfbf" points="83.5,-56.5 83.5,-75.5 145.5,-75.5 145.5,-56.5 83.5,-56.5"/>
<text text-anchor="middle" x="114.5" y="-63.5" font-family="Helvetica,sans-Serif" font-size="10.00">stdbool.h</text>
</a>
</g>
</g>
<!-- Node1&#45;&gt;Node3 -->
<g id="edge2" class="edge">
<title>Node1&#45;&gt;Node3</title>
<path fill="none" stroke="midnightblue" d="M228.95,-112.4C203.67,-102.37 170.03,-89.03 145.77,-79.4"/>
<polygon fill="midnightblue" stroke="midnightblue" points="146.91,-76.09 136.33,-75.66 144.33,-82.6 146.91,-76.09"/>
</g>
<!-- Node4 -->
<g id="node4" class="node">
<title>Node4</title>
<g id="a_node4"><a xlink:title=" ">
<polygon fill="none" stroke="#bfbfbf" points="163.5,-56.5 163.5,-75.5 219.5,-75.5 219.5,-56.5 163.5,-56.5"/>
<text text-anchor="middle" x="191.5" y="-63.5" font-family="Helvetica,sans-Serif" font-size="10.00">stddef.h</text>
</a>
</g>
</g>
<!-- Node1&#45;&gt;Node4 -->
<g id="edge3" class="edge">
<title>Node1&#45;&gt;Node4</title>
<path fill="none" stroke="midnightblue" d="M247.2,-112.4C236.05,-103.31 221.55,-91.49 210.14,-82.19"/>
<polygon fill="midnightblue" stroke="midnightblue" points="212.08,-79.26 202.12,-75.66 207.66,-84.69 212.08,-79.26"/>
</g>
<!-- Node5 -->
<g id="node5" class="node">
<title>Node5</title>
<g id="a_node5"><a xlink:title=" ">
<polygon fill="none" stroke="#bfbfbf" points="238,-56.5 238,-75.5 291,-75.5 291,-56.5 238,-56.5"/>
<text text-anchor="middle" x="264.5" y="-63.5" font-family="Helvetica,sans-Serif" font-size="10.00">stdlib.h</text>
</a>
</g>
</g>
<!-- Node1&#45;&gt;Node5 -->
<g id="edge4" class="edge">
<title>Node1&#45;&gt;Node5</title>
<path fill="none" stroke="midnightblue" d="M264.5,-112.4C264.5,-104.47 264.5,-94.46 264.5,-85.86"/>
<polygon fill="midnightblue" stroke="midnightblue" points="268,-85.66 264.5,-75.66 261,-85.66 268,-85.66"/>
</g>
<!-- Node6 -->
<g id="node6" class="node">
<title>Node6</title>
<g id="a_node6"><a xlink:title=" ">
<polygon fill="none" stroke="#bfbfbf" points="309,-56.5 309,-75.5 362,-75.5 362,-56.5 309,-56.5"/>
<text text-anchor="middle" x="335.5" y="-63.5" font-family="Helvetica,sans-Serif" font-size="10.00">string.h</text>
</a>
</g>
</g>
<!-- Node1&#45;&gt;Node6 -->
<g id="edge5" class="edge">
<title>Node1&#45;&gt;Node6</title>
<path fill="none" stroke="midnightblue" d="M281.33,-112.4C292.17,-103.31 306.28,-91.49 317.37,-82.19"/>
<polygon fill="midnightblue" stroke="midnightblue" points="319.75,-84.76 325.17,-75.66 315.26,-79.4 319.75,-84.76"/>
</g>
<!-- Node7 -->
<g id="node7" class="node">
<title>Node7</title>
<g id="a_node7"><a xlink:href="../../de/d05/owb_8h.html" target="_top" xlink:title="Interface definitions for the 1&#45;Wire bus component.">
<polygon fill="none" stroke="black" points="388,-0.5 388,-19.5 481,-19.5 481,-0.5 388,-0.5"/>
<text text-anchor="middle" x="434.5" y="-7.5" font-family="Helvetica,sans-Serif" font-size="10.00">../include/owb.h</text>
</a>
</g>
</g>
<!-- Node1&#45;&gt;Node7 -->
<g id="edge6" class="edge">
<title>Node1&#45;&gt;Node7</title>
<path fill="none" stroke="midnightblue" d="M302.72,-112.41C323.99,-103.63 350.37,-91.12 371.5,-76 390.98,-62.07 409.59,-41.69 421.46,-27.48"/>
<polygon fill="midnightblue" stroke="midnightblue" points="424.33,-29.5 427.93,-19.54 418.9,-25.08 424.33,-29.5"/>
</g>
<!-- Node8 -->
<g id="node8" class="node">
<title>Node8</title>
<g id="a_node8"><a xlink:href="../../dd/dc8/owb__gpio_8h.html" target="_top" xlink:title="Interface definitions for the ESP32 GPIO driver used to communicate with devices on the One Wire Bus.">
<polygon fill="none" stroke="black" points="419,-56.5 419,-75.5 538,-75.5 538,-56.5 419,-56.5"/>
<text text-anchor="middle" x="478.5" y="-63.5" font-family="Helvetica,sans-Serif" font-size="10.00">../include/owb_gpio.h</text>
</a>
</g>
</g>
<!-- Node1&#45;&gt;Node8 -->
<g id="edge7" class="edge">
<title>Node1&#45;&gt;Node8</title>
<path fill="none" stroke="midnightblue" d="M314.94,-112.47C352.51,-102.03 403.12,-87.96 438.05,-78.25"/>
<polygon fill="midnightblue" stroke="midnightblue" points="439.21,-81.56 447.91,-75.51 437.33,-74.81 439.21,-81.56"/>
</g>
<!-- Node8&#45;&gt;Node7 -->
<g id="edge8" class="edge">
<title>Node8&#45;&gt;Node7</title>
<path fill="none" stroke="midnightblue" d="M471.23,-56.08C464.96,-48.38 455.71,-37.03 448.07,-27.65"/>
<polygon fill="midnightblue" stroke="midnightblue" points="450.66,-25.29 441.63,-19.75 445.23,-29.71 450.66,-25.29"/>
</g>
</g>
</svg>
