<?xml version="1.0" encoding="UTF-8" standalone="no"?>
<!DOCTYPE svg PUBLIC "-//W3C//DTD SVG 1.1//EN"
 "http://www.w3.org/Graphics/SVG/1.1/DTD/svg11.dtd">
<!-- Generated by graphviz version 2.43.0 (0)
 -->
<!-- Title: Components/Utility/Ping/include/Ping_SAL_esp32.hpp Pages: 1 -->
<svg width="496pt" height="296pt"
 viewBox="0.00 0.00 496.15 296.00" xmlns="http://www.w3.org/2000/svg" xmlns:xlink="http://www.w3.org/1999/xlink">
<g id="graph0" class="graph" transform="scale(1 1) rotate(0) translate(4 292)">
<title>Components/Utility/Ping/include/Ping_SAL_esp32.hpp</title>
<!-- Node1 -->
<g id="node1" class="node">
<title>Node1</title>
<g id="a_node1"><a xlink:title=" ">
<polygon fill="#bfbfbf" stroke="black" points="51.15,-246.5 51.15,-287.5 178.15,-287.5 178.15,-246.5 51.15,-246.5"/>
<text text-anchor="start" x="59.15" y="-275.5" font-family="Helvetica,sans-Serif" font-size="10.00">Components/Utility</text>
<text text-anchor="start" x="59.15" y="-264.5" font-family="Helvetica,sans-Serif" font-size="10.00">/Ping/include/Ping_SAL</text>
<text text-anchor="middle" x="114.65" y="-253.5" font-family="Helvetica,sans-Serif" font-size="10.00">_esp32.hpp</text>
</a>
</g>
</g>
<!-- Node2 -->
<g id="node2" class="node">
<title>Node2</title>
<g id="a_node2"><a xlink:href="../../da/d5f/_b_a_s_i_c_8hpp.html" target="_top" xlink:title=" ">
<polygon fill="none" stroke="black" points="23.65,-56.5 23.65,-86.5 139.65,-86.5 139.65,-56.5 23.65,-56.5"/>
<text text-anchor="start" x="31.65" y="-74.5" font-family="Helvetica,sans-Serif" font-size="10.00">../../../Global_Include</text>
<text text-anchor="middle" x="81.65" y="-63.5" font-family="Helvetica,sans-Serif" font-size="10.00">/BASIC.hpp</text>
</a>
</g>
</g>
<!-- Node1&#45;&gt;Node2 -->
<g id="edge1" class="edge">
<title>Node1&#45;&gt;Node2</title>
<path fill="none" stroke="midnightblue" d="M107.01,-246.36C98.13,-222.4 84.02,-180.44 78.65,-143 77.39,-134.2 78.39,-131.88 78.65,-123 78.9,-114.45 79.4,-105.11 79.91,-96.8"/>
<polygon fill="midnightblue" stroke="midnightblue" points="83.42,-96.85 80.59,-86.64 76.43,-96.39 83.42,-96.85"/>
</g>
<!-- Node3 -->
<g id="node3" class="node">
<title>Node3</title>
<g id="a_node3"><a xlink:href="../../d3/deb/_general___error_8hpp.html" target="_top" xlink:title=" ">
<polygon fill="none" stroke="black" points="343.15,-56.5 343.15,-86.5 488.15,-86.5 488.15,-56.5 343.15,-56.5"/>
<text text-anchor="start" x="351.15" y="-74.5" font-family="Helvetica,sans-Serif" font-size="10.00">../../../Objects/ErrorHandler</text>
<text text-anchor="middle" x="415.65" y="-63.5" font-family="Helvetica,sans-Serif" font-size="10.00">/include/General_Error.hpp</text>
</a>
</g>
</g>
<!-- Node1&#45;&gt;Node3 -->
<g id="edge2" class="edge">
<title>Node1&#45;&gt;Node3</title>
<path fill="none" stroke="midnightblue" d="M178.37,-261.07C251.03,-251.6 366.36,-223.92 417.65,-143 426.3,-129.35 425.5,-111.04 422.7,-96.5"/>
<polygon fill="midnightblue" stroke="midnightblue" points="426.09,-95.64 420.41,-86.7 419.27,-97.23 426.09,-95.64"/>
</g>
<!-- Node5 -->
<g id="node5" class="node">
<title>Node5</title>
<g id="a_node5"><a xlink:title=" ">
<polygon fill="none" stroke="#bfbfbf" points="140.65,-0.5 140.65,-19.5 200.65,-19.5 200.65,-0.5 140.65,-0.5"/>
<text text-anchor="middle" x="170.65" y="-7.5" font-family="Helvetica,sans-Serif" font-size="10.00">iostream</text>
</a>
</g>
</g>
<!-- Node1&#45;&gt;Node5 -->
<g id="edge15" class="edge">
<title>Node1&#45;&gt;Node5</title>
<path fill="none" stroke="midnightblue" d="M91.93,-246.33C49.69,-207.38 -32.57,-118.76 14.65,-56 28.59,-37.47 89.07,-24.17 130.49,-17.03"/>
<polygon fill="midnightblue" stroke="midnightblue" points="131.29,-20.45 140.57,-15.35 130.13,-13.54 131.29,-20.45"/>
</g>
<!-- Node6 -->
<g id="node6" class="node">
<title>Node6</title>
<g id="a_node6"><a xlink:href="../../d7/d60/_timeservice_8hpp.html" target="_top" xlink:title=" ">
<polygon fill="none" stroke="black" points="124.15,-179.5 124.15,-209.5 267.15,-209.5 267.15,-179.5 124.15,-179.5"/>
<text text-anchor="start" x="132.15" y="-197.5" font-family="Helvetica,sans-Serif" font-size="10.00">../../../Objects/Timeservice</text>
<text text-anchor="middle" x="195.65" y="-186.5" font-family="Helvetica,sans-Serif" font-size="10.00">/include/Timeservice.hpp</text>
</a>
</g>
</g>
<!-- Node1&#45;&gt;Node6 -->
<g id="edge5" class="edge">
<title>Node1&#45;&gt;Node6</title>
<path fill="none" stroke="midnightblue" d="M137.21,-246.36C147.99,-236.99 160.88,-225.76 171.81,-216.25"/>
<polygon fill="midnightblue" stroke="midnightblue" points="174.13,-218.88 179.37,-209.67 169.53,-213.6 174.13,-218.88"/>
</g>
<!-- Node4 -->
<g id="node4" class="node">
<title>Node4</title>
<g id="a_node4"><a xlink:title=" ">
<polygon fill="none" stroke="#bfbfbf" points="393.65,-0.5 393.65,-19.5 437.65,-19.5 437.65,-0.5 393.65,-0.5"/>
<text text-anchor="middle" x="415.65" y="-7.5" font-family="Helvetica,sans-Serif" font-size="10.00">string</text>
</a>
</g>
</g>
<!-- Node3&#45;&gt;Node4 -->
<g id="edge3" class="edge">
<title>Node3&#45;&gt;Node4</title>
<path fill="none" stroke="midnightblue" d="M415.65,-56.4C415.65,-48.47 415.65,-38.46 415.65,-29.86"/>
<polygon fill="midnightblue" stroke="midnightblue" points="419.15,-29.66 415.65,-19.66 412.15,-29.66 419.15,-29.66"/>
</g>
<!-- Node3&#45;&gt;Node5 -->
<g id="edge4" class="edge">
<title>Node3&#45;&gt;Node5</title>
<path fill="none" stroke="midnightblue" d="M357.9,-56.47C312.61,-45.48 250.75,-30.45 210.75,-20.74"/>
<polygon fill="midnightblue" stroke="midnightblue" points="211.37,-17.29 200.83,-18.33 209.72,-24.09 211.37,-17.29"/>
</g>
<!-- Node6&#45;&gt;Node2 -->
<g id="edge6" class="edge">
<title>Node6&#45;&gt;Node2</title>
<path fill="none" stroke="midnightblue" d="M142.12,-179.5C122.97,-171.82 103.07,-160.23 90.65,-143 81.16,-129.84 79.05,-111.6 79.23,-96.97"/>
<polygon fill="midnightblue" stroke="midnightblue" points="82.75,-96.79 79.74,-86.63 75.75,-96.45 82.75,-96.79"/>
</g>
<!-- Node6&#45;&gt;Node3 -->
<g id="edge7" class="edge">
<title>Node6&#45;&gt;Node3</title>
<path fill="none" stroke="midnightblue" d="M267.32,-183.3C317.31,-174.77 378.24,-161.1 396.65,-143 408.8,-131.06 413.43,-112.23 415.09,-97.03"/>
<polygon fill="midnightblue" stroke="midnightblue" points="418.6,-96.98 415.83,-86.76 411.62,-96.48 418.6,-96.98"/>
</g>
<!-- Node7 -->
<g id="node7" class="node">
<title>Node7</title>
<g id="a_node7"><a xlink:href="../../d6/d4b/_r_t_c___h_a_l_8hpp.html" target="_top" xlink:title=" ">
<polygon fill="none" stroke="black" points="307.65,-123.5 307.65,-142.5 387.65,-142.5 387.65,-123.5 307.65,-123.5"/>
<text text-anchor="middle" x="347.65" y="-130.5" font-family="Helvetica,sans-Serif" font-size="10.00">RTC_HAL.hpp</text>
</a>
</g>
</g>
<!-- Node6&#45;&gt;Node7 -->
<g id="edge8" class="edge">
<title>Node6&#45;&gt;Node7</title>
<path fill="none" stroke="midnightblue" d="M231.67,-179.4C257.29,-169.37 291.38,-156.03 315.96,-146.4"/>
<polygon fill="midnightblue" stroke="midnightblue" points="317.5,-149.56 325.53,-142.66 314.95,-143.04 317.5,-149.56"/>
</g>
<!-- Node9 -->
<g id="node9" class="node">
<title>Node9</title>
<g id="a_node9"><a xlink:title=" ">
<polygon fill="none" stroke="#bfbfbf" points="99.65,-123.5 99.65,-142.5 149.65,-142.5 149.65,-123.5 99.65,-123.5"/>
<text text-anchor="middle" x="124.65" y="-130.5" font-family="Helvetica,sans-Serif" font-size="10.00">chrono</text>
</a>
</g>
</g>
<!-- Node6&#45;&gt;Node9 -->
<g id="edge12" class="edge">
<title>Node6&#45;&gt;Node9</title>
<path fill="none" stroke="midnightblue" d="M178.82,-179.4C167.98,-170.31 153.87,-158.49 142.78,-149.19"/>
<polygon fill="midnightblue" stroke="midnightblue" points="144.89,-146.4 134.98,-142.66 140.4,-151.76 144.89,-146.4"/>
</g>
<!-- Node10 -->
<g id="node10" class="node">
<title>Node10</title>
<g id="a_node10"><a xlink:title=" ">
<polygon fill="none" stroke="#bfbfbf" points="167.65,-123.5 167.65,-142.5 223.65,-142.5 223.65,-123.5 167.65,-123.5"/>
<text text-anchor="middle" x="195.65" y="-130.5" font-family="Helvetica,sans-Serif" font-size="10.00">iomanip</text>
</a>
</g>
</g>
<!-- Node6&#45;&gt;Node10 -->
<g id="edge13" class="edge">
<title>Node6&#45;&gt;Node10</title>
<path fill="none" stroke="midnightblue" d="M195.65,-179.4C195.65,-171.47 195.65,-161.46 195.65,-152.86"/>
<polygon fill="midnightblue" stroke="midnightblue" points="199.15,-152.66 195.65,-142.66 192.15,-152.66 199.15,-152.66"/>
</g>
<!-- Node11 -->
<g id="node11" class="node">
<title>Node11</title>
<g id="a_node11"><a xlink:title=" ">
<polygon fill="none" stroke="#bfbfbf" points="241.65,-123.5 241.65,-142.5 289.65,-142.5 289.65,-123.5 241.65,-123.5"/>
<text text-anchor="middle" x="265.65" y="-130.5" font-family="Helvetica,sans-Serif" font-size="10.00">thread</text>
</a>
</g>
</g>
<!-- Node6&#45;&gt;Node11 -->
<g id="edge14" class="edge">
<title>Node6&#45;&gt;Node11</title>
<path fill="none" stroke="midnightblue" d="M212.24,-179.4C222.94,-170.31 236.84,-158.49 247.78,-149.19"/>
<polygon fill="midnightblue" stroke="midnightblue" points="250.11,-151.8 255.47,-142.66 245.58,-146.47 250.11,-151.8"/>
</g>
<!-- Node7&#45;&gt;Node2 -->
<g id="edge9" class="edge">
<title>Node7&#45;&gt;Node2</title>
<path fill="none" stroke="midnightblue" d="M309.54,-123.48C267.92,-114.17 200.45,-99.07 149.7,-87.72"/>
<polygon fill="midnightblue" stroke="midnightblue" points="150.3,-84.27 139.78,-85.5 148.78,-91.1 150.3,-84.27"/>
</g>
<!-- Node7&#45;&gt;Node3 -->
<g id="edge10" class="edge">
<title>Node7&#45;&gt;Node3</title>
<path fill="none" stroke="midnightblue" d="M357.39,-123.48C366.35,-115.64 379.98,-103.71 391.8,-93.37"/>
<polygon fill="midnightblue" stroke="midnightblue" points="394.4,-95.74 399.62,-86.52 389.79,-90.47 394.4,-95.74"/>
</g>
<!-- Node8 -->
<g id="node8" class="node">
<title>Node8</title>
<g id="a_node8"><a xlink:title=" ">
<polygon fill="none" stroke="#bfbfbf" points="280.65,-62 280.65,-81 324.65,-81 324.65,-62 280.65,-62"/>
<text text-anchor="middle" x="302.65" y="-69" font-family="Helvetica,sans-Serif" font-size="10.00">ctime</text>
</a>
</g>
</g>
<!-- Node7&#45;&gt;Node8 -->
<g id="edge11" class="edge">
<title>Node7&#45;&gt;Node8</title>
<path fill="none" stroke="midnightblue" d="M341.2,-123.48C334.45,-114.55 323.68,-100.31 315.24,-89.14"/>
<polygon fill="midnightblue" stroke="midnightblue" points="317.91,-86.87 309.09,-81.01 312.33,-91.1 317.91,-86.87"/>
</g>
</g>
</svg>
