<?xml version="1.0" encoding="UTF-8" standalone="no"?>
<!DOCTYPE svg PUBLIC "-//W3C//DTD SVG 1.1//EN"
 "http://www.w3.org/Graphics/SVG/1.1/DTD/svg11.dtd">
<!-- Generated by graphviz version 2.43.0 (0)
 -->
<!-- Title: Components/Utility/Ping/include/Ping_SAL_esp32.hpp Pages: 1 -->
<svg width="395pt" height="139pt"
 viewBox="0.00 0.00 394.50 139.00" xmlns="http://www.w3.org/2000/svg" xmlns:xlink="http://www.w3.org/1999/xlink">
<g id="graph0" class="graph" transform="scale(1 1) rotate(0) translate(4 135)">
<title>Components/Utility/Ping/include/Ping_SAL_esp32.hpp</title>
<!-- Node1 -->
<g id="node1" class="node">
<title>Node1</title>
<g id="a_node1"><a xlink:title=" ">
<polygon fill="#bfbfbf" stroke="black" points="172,-89.5 172,-130.5 299,-130.5 299,-89.5 172,-89.5"/>
<text text-anchor="start" x="180" y="-118.5" font-family="Helvetica,sans-Serif" font-size="10.00">Components/Utility</text>
<text text-anchor="start" x="180" y="-107.5" font-family="Helvetica,sans-Serif" font-size="10.00">/Ping/include/Ping_SAL</text>
<text text-anchor="middle" x="235.5" y="-96.5" font-family="Helvetica,sans-Serif" font-size="10.00">_esp32.hpp</text>
</a>
</g>
</g>
<!-- Node2 -->
<g id="node2" class="node">
<title>Node2</title>
<g id="a_node2"><a xlink:title=" ">
<polygon fill="none" stroke="#bfbfbf" points="0,-6 0,-47 145,-47 145,-6 0,-6"/>
<text text-anchor="start" x="8" y="-35" font-family="Helvetica,sans-Serif" font-size="10.00">../../Embedded_CPP</text>
<text text-anchor="start" x="8" y="-24" font-family="Helvetica,sans-Serif" font-size="10.00">_Library/Components</text>
<text text-anchor="middle" x="72.5" y="-13" font-family="Helvetica,sans-Serif" font-size="10.00">/Global_Include/BASIC.hpp</text>
</a>
</g>
</g>
<!-- Node1&#45;&gt;Node2 -->
<g id="edge1" class="edge">
<title>Node1&#45;&gt;Node2</title>
<path fill="none" stroke="midnightblue" d="M196.46,-89.48C173.66,-78.08 144.71,-63.6 120.52,-51.51"/>
<polygon fill="midnightblue" stroke="midnightblue" points="122.02,-48.34 111.51,-47 118.89,-54.61 122.02,-48.34"/>
</g>
<!-- Node3 -->
<g id="node3" class="node">
<title>Node3</title>
<g id="a_node3"><a xlink:title=" ">
<polygon fill="none" stroke="#bfbfbf" points="163,-0.5 163,-52.5 308,-52.5 308,-0.5 163,-0.5"/>
<text text-anchor="start" x="171" y="-40.5" font-family="Helvetica,sans-Serif" font-size="10.00">../../Embedded_CPP</text>
<text text-anchor="start" x="171" y="-29.5" font-family="Helvetica,sans-Serif" font-size="10.00">_Library/Components</text>
<text text-anchor="start" x="171" y="-18.5" font-family="Helvetica,sans-Serif" font-size="10.00">/Objects/ErrorHandler</text>
<text text-anchor="middle" x="235.5" y="-7.5" font-family="Helvetica,sans-Serif" font-size="10.00">/include/General_Error.hpp</text>
</a>
</g>
</g>
<!-- Node1&#45;&gt;Node3 -->
<g id="edge2" class="edge">
<title>Node1&#45;&gt;Node3</title>
<path fill="none" stroke="midnightblue" d="M235.5,-89.27C235.5,-81.26 235.5,-71.76 235.5,-62.64"/>
<polygon fill="midnightblue" stroke="midnightblue" points="239,-62.61 235.5,-52.61 232,-62.61 239,-62.61"/>
</g>
<!-- Node4 -->
<g id="node4" class="node">
<title>Node4</title>
<g id="a_node4"><a xlink:title=" ">
<polygon fill="none" stroke="#bfbfbf" points="326.5,-17 326.5,-36 386.5,-36 386.5,-17 326.5,-17"/>
<text text-anchor="middle" x="356.5" y="-24" font-family="Helvetica,sans-Serif" font-size="10.00">iostream</text>
</a>
</g>
</g>
<!-- Node1&#45;&gt;Node4 -->
<g id="edge3" class="edge">
<title>Node1&#45;&gt;Node4</title>
<path fill="none" stroke="midnightblue" d="M264.48,-89.48C286.21,-74.84 315.46,-55.14 335.1,-41.91"/>
<polygon fill="midnightblue" stroke="midnightblue" points="337.3,-44.65 343.64,-36.16 333.39,-38.85 337.3,-44.65"/>
</g>
</g>
</svg>
