<?xml version="1.0" encoding="UTF-8" standalone="no"?>
<!DOCTYPE svg PUBLIC "-//W3C//DTD SVG 1.1//EN"
 "http://www.w3.org/Graphics/SVG/1.1/DTD/svg11.dtd">
<!-- Generated by graphviz version 2.43.0 (0)
 -->
<!-- Title: DistanceSensorController_HW_TEST Pages: 1 -->
<svg width="886pt" height="1716pt"
 viewBox="0.00 0.00 886.00 1716.00" xmlns="http://www.w3.org/2000/svg" xmlns:xlink="http://www.w3.org/1999/xlink">
<g id="graph0" class="graph" transform="scale(1 1) rotate(0) translate(4 1712)">
<title>DistanceSensorController_HW_TEST</title>
<!-- Node1 -->
<g id="node1" class="node">
<title>Node1</title>
<g id="a_node1"><a xlink:title=" ">
<polygon fill="#bfbfbf" stroke="black" points="509,-0.5 509,-112.5 669,-112.5 669,-0.5 509,-0.5"/>
<text text-anchor="start" x="517" y="-100.5" font-family="Helvetica,sans-Serif" font-size="10.00">DistanceSensorController</text>
<text text-anchor="middle" x="589" y="-89.5" font-family="Helvetica,sans-Serif" font-size="10.00">_HW_TEST</text>
<polyline fill="none" stroke="black" points="509,-82.5 669,-82.5 "/>
<text text-anchor="middle" x="589" y="-70.5" font-family="Helvetica,sans-Serif" font-size="10.00"> </text>
<polyline fill="none" stroke="black" points="509,-63.5 669,-63.5 "/>
<text text-anchor="start" x="517" y="-51.5" font-family="Helvetica,sans-Serif" font-size="10.00">+ DistanceSensorController</text>
<text text-anchor="start" x="517" y="-40.5" font-family="Helvetica,sans-Serif" font-size="10.00">_HW_TEST()</text>
<text text-anchor="start" x="517" y="-29.5" font-family="Helvetica,sans-Serif" font-size="10.00">+ ~DistanceSensorController</text>
<text text-anchor="start" x="517" y="-18.5" font-family="Helvetica,sans-Serif" font-size="10.00">_HW_TEST()</text>
<text text-anchor="start" x="517" y="-7.5" font-family="Helvetica,sans-Serif" font-size="10.00">&#45; main_function()</text>
</a>
</g>
</g>
<!-- Node2 -->
<g id="node2" class="node">
<title>Node2</title>
<g id="a_node2"><a xlink:href="../../d3/dab/class_distance_sensor_controller.html" target="_top" xlink:title=" ">
<polygon fill="none" stroke="black" points="427.5,-215.5 427.5,-316.5 594.5,-316.5 594.5,-215.5 427.5,-215.5"/>
<text text-anchor="middle" x="511" y="-304.5" font-family="Helvetica,sans-Serif" font-size="10.00">DistanceSensorController</text>
<polyline fill="none" stroke="black" points="427.5,-297.5 594.5,-297.5 "/>
<text text-anchor="start" x="435.5" y="-285.5" font-family="Helvetica,sans-Serif" font-size="10.00">&#45; m_time_between_adc</text>
<text text-anchor="start" x="435.5" y="-274.5" font-family="Helvetica,sans-Serif" font-size="10.00">_measurements</text>
<polyline fill="none" stroke="black" points="427.5,-267.5 594.5,-267.5 "/>
<text text-anchor="start" x="435.5" y="-255.5" font-family="Helvetica,sans-Serif" font-size="10.00">+ DistanceSensorController()</text>
<text text-anchor="start" x="435.5" y="-244.5" font-family="Helvetica,sans-Serif" font-size="10.00">+ ~DistanceSensorController()</text>
<text text-anchor="start" x="435.5" y="-233.5" font-family="Helvetica,sans-Serif" font-size="10.00"># main_function()</text>
<text text-anchor="start" x="435.5" y="-222.5" font-family="Helvetica,sans-Serif" font-size="10.00">&#45; updateInternalBuffer()</text>
</a>
</g>
</g>
<!-- Node2&#45;&gt;Node1 -->
<g id="edge1" class="edge">
<title>Node2&#45;&gt;Node1</title>
<path fill="none" stroke="midnightblue" d="M533.32,-205.62C544.32,-176.36 557.5,-141.3 568.27,-112.64"/>
<polygon fill="none" stroke="midnightblue" points="529.93,-204.71 529.68,-215.3 536.48,-207.17 529.93,-204.71"/>
</g>
<!-- Node3 -->
<g id="node3" class="node">
<title>Node3</title>
<g id="a_node3"><a xlink:href="../../d9/d88/class_sensor_controller_base.html" target="_top" xlink:title=" ">
<polygon fill="none" stroke="black" points="536.5,-762.5 536.5,-951.5 685.5,-951.5 685.5,-762.5 536.5,-762.5"/>
<text text-anchor="middle" x="611" y="-939.5" font-family="Helvetica,sans-Serif" font-size="10.00">SensorControllerBase</text>
<polyline fill="none" stroke="black" points="536.5,-932.5 685.5,-932.5 "/>
<text text-anchor="start" x="544.5" y="-920.5" font-family="Helvetica,sans-Serif" font-size="10.00"># m_delay</text>
<text text-anchor="start" x="544.5" y="-909.5" font-family="Helvetica,sans-Serif" font-size="10.00"># m_error_id</text>
<polyline fill="none" stroke="black" points="536.5,-902.5 685.5,-902.5 "/>
<text text-anchor="start" x="544.5" y="-890.5" font-family="Helvetica,sans-Serif" font-size="10.00">+ SensorControllerBase()</text>
<text text-anchor="start" x="544.5" y="-879.5" font-family="Helvetica,sans-Serif" font-size="10.00">+ ~SensorControllerBase()</text>
<text text-anchor="start" x="544.5" y="-868.5" font-family="Helvetica,sans-Serif" font-size="10.00">+ setWantDataTrue()</text>
<text text-anchor="start" x="544.5" y="-857.5" font-family="Helvetica,sans-Serif" font-size="10.00">+ getSafeBuffer()</text>
<text text-anchor="start" x="544.5" y="-846.5" font-family="Helvetica,sans-Serif" font-size="10.00">+ isDataReady()</text>
<text text-anchor="start" x="544.5" y="-835.5" font-family="Helvetica,sans-Serif" font-size="10.00">+ setDataReady()</text>
<text text-anchor="start" x="544.5" y="-824.5" font-family="Helvetica,sans-Serif" font-size="10.00"># setDataReadyTrue()</text>
<text text-anchor="start" x="544.5" y="-813.5" font-family="Helvetica,sans-Serif" font-size="10.00"># postData()</text>
<text text-anchor="start" x="544.5" y="-802.5" font-family="Helvetica,sans-Serif" font-size="10.00"># postError()</text>
<text text-anchor="start" x="544.5" y="-791.5" font-family="Helvetica,sans-Serif" font-size="10.00"># main_function()</text>
<text text-anchor="start" x="544.5" y="-780.5" font-family="Helvetica,sans-Serif" font-size="10.00">&#45; setWantData()</text>
<text text-anchor="start" x="544.5" y="-769.5" font-family="Helvetica,sans-Serif" font-size="10.00">&#45; run()</text>
</a>
</g>
</g>
<!-- Node3&#45;&gt;Node2 -->
<g id="edge2" class="edge">
<title>Node3&#45;&gt;Node2</title>
<path fill="none" stroke="midnightblue" d="M593.37,-752.15C571.67,-624.36 535.72,-412.58 519.45,-316.79"/>
<polygon fill="none" stroke="midnightblue" points="589.97,-753.07 595.1,-762.35 596.88,-751.9 589.97,-753.07"/>
</g>
<!-- Node4 -->
<g id="node4" class="node">
<title>Node4</title>
<g id="a_node4"><a xlink:href="../../d7/d6d/class_task.html" target="_top" xlink:title="Encapsulate a runnable task.">
<polygon fill="none" stroke="black" points="325,-1079.5 325,-1290.5 423,-1290.5 423,-1079.5 325,-1079.5"/>
<text text-anchor="middle" x="374" y="-1278.5" font-family="Helvetica,sans-Serif" font-size="10.00">Task</text>
<polyline fill="none" stroke="black" points="325,-1271.5 423,-1271.5 "/>
<text text-anchor="start" x="333" y="-1259.5" font-family="Helvetica,sans-Serif" font-size="10.00">&#45; m_handle</text>
<text text-anchor="start" x="333" y="-1248.5" font-family="Helvetica,sans-Serif" font-size="10.00">&#45; m_stackSize</text>
<text text-anchor="start" x="333" y="-1237.5" font-family="Helvetica,sans-Serif" font-size="10.00">&#45; m_priority</text>
<text text-anchor="start" x="333" y="-1226.5" font-family="Helvetica,sans-Serif" font-size="10.00">&#45; m_taskData</text>
<text text-anchor="start" x="333" y="-1215.5" font-family="Helvetica,sans-Serif" font-size="10.00">&#45; m_coreId</text>
<polyline fill="none" stroke="black" points="325,-1208.5 423,-1208.5 "/>
<text text-anchor="start" x="333" y="-1196.5" font-family="Helvetica,sans-Serif" font-size="10.00">+ Task()</text>
<text text-anchor="start" x="333" y="-1185.5" font-family="Helvetica,sans-Serif" font-size="10.00">+ ~Task()</text>
<text text-anchor="start" x="333" y="-1174.5" font-family="Helvetica,sans-Serif" font-size="10.00">+ setStackSize()</text>
<text text-anchor="start" x="333" y="-1163.5" font-family="Helvetica,sans-Serif" font-size="10.00">+ setPriority()</text>
<text text-anchor="start" x="333" y="-1152.5" font-family="Helvetica,sans-Serif" font-size="10.00">+ setName()</text>
<text text-anchor="start" x="333" y="-1141.5" font-family="Helvetica,sans-Serif" font-size="10.00">+ setCore()</text>
<text text-anchor="start" x="333" y="-1130.5" font-family="Helvetica,sans-Serif" font-size="10.00">+ start()</text>
<text text-anchor="start" x="333" y="-1119.5" font-family="Helvetica,sans-Serif" font-size="10.00">+ stop()</text>
<text text-anchor="start" x="333" y="-1108.5" font-family="Helvetica,sans-Serif" font-size="10.00">+ run()</text>
<text text-anchor="start" x="333" y="-1097.5" font-family="Helvetica,sans-Serif" font-size="10.00">+ delay()</text>
<text text-anchor="start" x="333" y="-1086.5" font-family="Helvetica,sans-Serif" font-size="10.00">&#45; runTask()</text>
</a>
</g>
</g>
<!-- Node4&#45;&gt;Node3 -->
<g id="edge3" class="edge">
<title>Node4&#45;&gt;Node3</title>
<path fill="none" stroke="midnightblue" d="M428.32,-1073.69C429.53,-1071.77 430.76,-1069.87 432,-1068 441.02,-1054.37 491.32,-995.57 536.3,-943.65"/>
<polygon fill="none" stroke="midnightblue" points="425.3,-1071.92 423.04,-1082.27 431.26,-1075.59 425.3,-1071.92"/>
</g>
<!-- Node5 -->
<g id="node5" class="node">
<title>Node5</title>
<g id="a_node5"><a xlink:title="STL class.">
<polygon fill="none" stroke="#bfbfbf" points="341.5,-1407.5 341.5,-1464.5 406.5,-1464.5 406.5,-1407.5 341.5,-1407.5"/>
<text text-anchor="middle" x="374" y="-1452.5" font-family="Helvetica,sans-Serif" font-size="10.00">std::string</text>
<polyline fill="none" stroke="#bfbfbf" points="341.5,-1445.5 406.5,-1445.5 "/>
<text text-anchor="middle" x="374" y="-1433.5" font-family="Helvetica,sans-Serif" font-size="10.00"> </text>
<polyline fill="none" stroke="#bfbfbf" points="341.5,-1426.5 406.5,-1426.5 "/>
<text text-anchor="middle" x="374" y="-1414.5" font-family="Helvetica,sans-Serif" font-size="10.00"> </text>
</a>
</g>
</g>
<!-- Node5&#45;&gt;Node4 -->
<g id="edge4" class="edge">
<title>Node5&#45;&gt;Node4</title>
<path fill="none" stroke="#404040" d="M374,-1407.4C374,-1381.75 374,-1341.75 374,-1302.76"/>
<polygon fill="none" stroke="#404040" points="374,-1302.71 370,-1296.71 374,-1290.71 378,-1296.71 374,-1302.71"/>
<text text-anchor="middle" x="410.5" y="-1346.5" font-family="Helvetica,sans-Serif" font-size="10.00"> &#45;m_taskName</text>
</g>
<!-- Node10 -->
<g id="node10" class="node">
<title>Node10</title>
<g id="a_node10"><a xlink:href="../../d5/d81/class_m_q_t_t___message.html" target="_top" xlink:title=" ">
<polygon fill="none" stroke="black" points="563.5,-1068.5 563.5,-1301.5 724.5,-1301.5 724.5,-1068.5 563.5,-1068.5"/>
<text text-anchor="middle" x="644" y="-1289.5" font-family="Helvetica,sans-Serif" font-size="10.00">MQTT_Message</text>
<polyline fill="none" stroke="black" points="563.5,-1282.5 724.5,-1282.5 "/>
<text text-anchor="start" x="571.5" y="-1270.5" font-family="Helvetica,sans-Serif" font-size="10.00">&#45; m_entity_id</text>
<text text-anchor="start" x="571.5" y="-1259.5" font-family="Helvetica,sans-Serif" font-size="10.00">&#45; m_buffer_size</text>
<polyline fill="none" stroke="black" points="563.5,-1252.5 724.5,-1252.5 "/>
<text text-anchor="start" x="571.5" y="-1240.5" font-family="Helvetica,sans-Serif" font-size="10.00">+ MQTT_Message()</text>
<text text-anchor="start" x="571.5" y="-1229.5" font-family="Helvetica,sans-Serif" font-size="10.00">+ MQTT_Message()</text>
<text text-anchor="start" x="571.5" y="-1218.5" font-family="Helvetica,sans-Serif" font-size="10.00">+ ~MQTT_Message()</text>
<text text-anchor="start" x="571.5" y="-1207.5" font-family="Helvetica,sans-Serif" font-size="10.00">+ addData()</text>
<text text-anchor="start" x="571.5" y="-1196.5" font-family="Helvetica,sans-Serif" font-size="10.00">+ addData()</text>
<text text-anchor="start" x="571.5" y="-1185.5" font-family="Helvetica,sans-Serif" font-size="10.00">+ addData_f()</text>
<text text-anchor="start" x="571.5" y="-1174.5" font-family="Helvetica,sans-Serif" font-size="10.00">+ isEmpty()</text>
<text text-anchor="start" x="571.5" y="-1163.5" font-family="Helvetica,sans-Serif" font-size="10.00">+ toString()</text>
<text text-anchor="start" x="571.5" y="-1152.5" font-family="Helvetica,sans-Serif" font-size="10.00">+ clear()</text>
<text text-anchor="start" x="571.5" y="-1141.5" font-family="Helvetica,sans-Serif" font-size="10.00">+ getBufferSize()</text>
<text text-anchor="start" x="571.5" y="-1130.5" font-family="Helvetica,sans-Serif" font-size="10.00">+ append()</text>
<text text-anchor="start" x="571.5" y="-1119.5" font-family="Helvetica,sans-Serif" font-size="10.00">+ getData()</text>
<text text-anchor="start" x="571.5" y="-1108.5" font-family="Helvetica,sans-Serif" font-size="10.00">+ getMaxAllowedBufferSize()</text>
<text text-anchor="start" x="571.5" y="-1097.5" font-family="Helvetica,sans-Serif" font-size="10.00">+ getEntityId()</text>
<text text-anchor="start" x="571.5" y="-1086.5" font-family="Helvetica,sans-Serif" font-size="10.00">+ copyTo()</text>
<text text-anchor="start" x="571.5" y="-1075.5" font-family="Helvetica,sans-Serif" font-size="10.00">+ construct()</text>
</a>
</g>
</g>
<!-- Node5&#45;&gt;Node10 -->
<g id="edge10" class="edge">
<title>Node5&#45;&gt;Node10</title>
<path fill="none" stroke="#404040" d="M406.51,-1427.74C437.07,-1419.64 482.81,-1404.12 515,-1378 528.62,-1366.95 547.97,-1341.07 567.56,-1311.78"/>
<polygon fill="none" stroke="#404040" points="567.58,-1311.74 567.55,-1304.53 574.2,-1301.73 574.23,-1308.95 567.58,-1311.74"/>
<text text-anchor="middle" x="599.5" y="-1346.5" font-family="Helvetica,sans-Serif" font-size="10.00"> &#45;m_semaphore</text>
</g>
<!-- Node13 -->
<g id="node13" class="node">
<title>Node13</title>
<g id="a_node13"><a xlink:href="../../d5/de7/classmqtt__api__v2.html" target="_top" xlink:title=" ">
<polygon fill="none" stroke="black" points="441,-1112.5 441,-1257.5 545,-1257.5 545,-1112.5 441,-1112.5"/>
<text text-anchor="middle" x="493" y="-1245.5" font-family="Helvetica,sans-Serif" font-size="10.00">mqtt_api_v2</text>
<polyline fill="none" stroke="black" points="441,-1238.5 545,-1238.5 "/>
<text text-anchor="middle" x="493" y="-1226.5" font-family="Helvetica,sans-Serif" font-size="10.00"> </text>
<polyline fill="none" stroke="black" points="441,-1219.5 545,-1219.5 "/>
<text text-anchor="start" x="449" y="-1207.5" font-family="Helvetica,sans-Serif" font-size="10.00">+ mqtt_api_v2()</text>
<text text-anchor="start" x="449" y="-1196.5" font-family="Helvetica,sans-Serif" font-size="10.00">+ ~mqtt_api_v2()</text>
<text text-anchor="start" x="449" y="-1185.5" font-family="Helvetica,sans-Serif" font-size="10.00">+ publish()</text>
<text text-anchor="start" x="449" y="-1174.5" font-family="Helvetica,sans-Serif" font-size="10.00">+ subscribe()</text>
<text text-anchor="start" x="449" y="-1163.5" font-family="Helvetica,sans-Serif" font-size="10.00">+ subscribe()</text>
<text text-anchor="start" x="449" y="-1152.5" font-family="Helvetica,sans-Serif" font-size="10.00">+ getData()</text>
<text text-anchor="start" x="449" y="-1141.5" font-family="Helvetica,sans-Serif" font-size="10.00">&#45; connect()</text>
<text text-anchor="start" x="449" y="-1130.5" font-family="Helvetica,sans-Serif" font-size="10.00">&#45; disconnect()</text>
<text text-anchor="start" x="449" y="-1119.5" font-family="Helvetica,sans-Serif" font-size="10.00">&#45; handle_event()</text>
</a>
</g>
</g>
<!-- Node5&#45;&gt;Node13 -->
<g id="edge15" class="edge">
<title>Node5&#45;&gt;Node13</title>
<path fill="none" stroke="#404040" d="M406.53,-1418.26C422.26,-1408.55 440.06,-1394.89 451,-1378 471.65,-1346.1 482.28,-1305.62 487.7,-1270.06"/>
<polygon fill="none" stroke="#404040" points="487.77,-1269.59 484.63,-1263.1 489.41,-1257.71 492.55,-1264.2 487.77,-1269.59"/>
<text text-anchor="middle" x="493.5" y="-1346.5" font-family="Helvetica,sans-Serif" font-size="10.00"> &#45;m_uri</text>
</g>
<!-- Node16 -->
<g id="node16" class="node">
<title>Node16</title>
<g id="a_node16"><a xlink:href="../../dd/d84/class_fault___handler.html" target="_top" xlink:title=" ">
<polygon fill="none" stroke="black" points="185,-1112.5 185,-1257.5 307,-1257.5 307,-1112.5 185,-1112.5"/>
<text text-anchor="middle" x="246" y="-1245.5" font-family="Helvetica,sans-Serif" font-size="10.00">Fault_Handler</text>
<polyline fill="none" stroke="black" points="185,-1238.5 307,-1238.5 "/>
<text text-anchor="middle" x="246" y="-1226.5" font-family="Helvetica,sans-Serif" font-size="10.00"> </text>
<polyline fill="none" stroke="black" points="185,-1219.5 307,-1219.5 "/>
<text text-anchor="start" x="193" y="-1207.5" font-family="Helvetica,sans-Serif" font-size="10.00">+ Fault_Handler()</text>
<text text-anchor="start" x="193" y="-1196.5" font-family="Helvetica,sans-Serif" font-size="10.00">+ ~Fault_Handler()</text>
<text text-anchor="start" x="193" y="-1185.5" font-family="Helvetica,sans-Serif" font-size="10.00">+ handleFault()</text>
<text text-anchor="start" x="193" y="-1174.5" font-family="Helvetica,sans-Serif" font-size="10.00">+ resetFaultCounter()</text>
<text text-anchor="start" x="193" y="-1163.5" font-family="Helvetica,sans-Serif" font-size="10.00">&#45; countUp()</text>
<text text-anchor="start" x="193" y="-1152.5" font-family="Helvetica,sans-Serif" font-size="10.00">&#45; handle()</text>
<text text-anchor="start" x="193" y="-1141.5" font-family="Helvetica,sans-Serif" font-size="10.00">&#45; toString()</text>
<text text-anchor="start" x="193" y="-1130.5" font-family="Helvetica,sans-Serif" font-size="10.00">&#45; severity2string()</text>
<text text-anchor="start" x="193" y="-1119.5" font-family="Helvetica,sans-Serif" font-size="10.00">&#45; check_value()</text>
</a>
</g>
</g>
<!-- Node5&#45;&gt;Node16 -->
<g id="edge19" class="edge">
<title>Node5&#45;&gt;Node16</title>
<path fill="none" stroke="#404040" d="M343.59,-1407.27C335.17,-1398.5 326.55,-1388.37 320,-1378 298.93,-1344.62 282.26,-1304.28 270.12,-1269.21"/>
<polygon fill="none" stroke="#404040" points="270.01,-1268.91 264.3,-1264.5 266.17,-1257.54 271.88,-1261.94 270.01,-1268.91"/>
<text text-anchor="middle" x="345" y="-1346.5" font-family="Helvetica,sans-Serif" font-size="10.00"> &#45;m_name</text>
</g>
<!-- Node19 -->
<g id="node19" class="node">
<title>Node19</title>
<g id="a_node19"><a xlink:href="../../d4/d70/class_a_d_c___a_p_i___e_s_p32.html#d0/d55/struct_a_d_c___a_p_i___e_s_p32_1_1config" target="_top" xlink:title=" ">
<polygon fill="none" stroke="black" points="92.5,-970.5 92.5,-1049.5 221.5,-1049.5 221.5,-970.5 92.5,-970.5"/>
<text text-anchor="middle" x="157" y="-1037.5" font-family="Helvetica,sans-Serif" font-size="10.00">ADC_API_ESP32::config</text>
<polyline fill="none" stroke="black" points="92.5,-1030.5 221.5,-1030.5 "/>
<text text-anchor="start" x="100.5" y="-1018.5" font-family="Helvetica,sans-Serif" font-size="10.00">+ samples</text>
<text text-anchor="start" x="100.5" y="-1007.5" font-family="Helvetica,sans-Serif" font-size="10.00">+ channel</text>
<text text-anchor="start" x="100.5" y="-996.5" font-family="Helvetica,sans-Serif" font-size="10.00">+ vRef</text>
<polyline fill="none" stroke="black" points="92.5,-989.5 221.5,-989.5 "/>
<text text-anchor="middle" x="157" y="-977.5" font-family="Helvetica,sans-Serif" font-size="10.00"> </text>
</a>
</g>
</g>
<!-- Node5&#45;&gt;Node19 -->
<g id="edge24" class="edge">
<title>Node5&#45;&gt;Node19</title>
<path fill="none" stroke="#404040" d="M341.49,-1425.4C293.51,-1409.15 206.17,-1371.07 176,-1302 141.76,-1223.6 144.44,-1121.91 150.22,-1061.84"/>
<polygon fill="none" stroke="#404040" points="150.25,-1061.61 146.89,-1055.22 151.49,-1049.67 154.85,-1056.05 150.25,-1061.61"/>
<text text-anchor="middle" x="262" y="-1346.5" font-family="Helvetica,sans-Serif" font-size="10.00"> +name</text>
</g>
<!-- Node6 -->
<g id="node6" class="node">
<title>Node6</title>
<g id="a_node6"><a xlink:title="STL class.">
<polygon fill="none" stroke="#bfbfbf" points="322,-1534.5 322,-1602.5 426,-1602.5 426,-1534.5 322,-1534.5"/>
<text text-anchor="start" x="330" y="-1590.5" font-family="Helvetica,sans-Serif" font-size="10.00">std::basic_string&lt;</text>
<text text-anchor="middle" x="374" y="-1579.5" font-family="Helvetica,sans-Serif" font-size="10.00"> char &gt;</text>
<polyline fill="none" stroke="#bfbfbf" points="322,-1572.5 426,-1572.5 "/>
<text text-anchor="middle" x="374" y="-1560.5" font-family="Helvetica,sans-Serif" font-size="10.00"> </text>
<polyline fill="none" stroke="#bfbfbf" points="322,-1553.5 426,-1553.5 "/>
<text text-anchor="middle" x="374" y="-1541.5" font-family="Helvetica,sans-Serif" font-size="10.00"> </text>
</a>
</g>
</g>
<!-- Node6&#45;&gt;Node5 -->
<g id="edge5" class="edge">
<title>Node6&#45;&gt;Node5</title>
<path fill="none" stroke="midnightblue" d="M374,-1524.05C374,-1504.55 374,-1482.12 374,-1464.91"/>
<polygon fill="none" stroke="midnightblue" points="370.5,-1524.23 374,-1534.23 377.5,-1524.23 370.5,-1524.23"/>
</g>
<!-- Node7 -->
<g id="node7" class="node">
<title>Node7</title>
<g id="a_node7"><a xlink:title=" ">
<polygon fill="none" stroke="#bfbfbf" points="704.5,-1320.5 704.5,-1377.5 819.5,-1377.5 819.5,-1320.5 704.5,-1320.5"/>
<text text-anchor="middle" x="762" y="-1365.5" font-family="Helvetica,sans-Serif" font-size="10.00">std::atomic&lt; bool &gt;</text>
<polyline fill="none" stroke="#bfbfbf" points="704.5,-1358.5 819.5,-1358.5 "/>
<text text-anchor="start" x="712.5" y="-1346.5" font-family="Helvetica,sans-Serif" font-size="10.00">+ ptr</text>
<polyline fill="none" stroke="#bfbfbf" points="704.5,-1339.5 819.5,-1339.5 "/>
<text text-anchor="middle" x="762" y="-1327.5" font-family="Helvetica,sans-Serif" font-size="10.00"> </text>
</a>
</g>
</g>
<!-- Node7&#45;&gt;Node3 -->
<g id="edge6" class="edge">
<title>Node7&#45;&gt;Node3</title>
<path fill="none" stroke="#404040" d="M766.75,-1320.1C776.47,-1254.92 793.11,-1089.16 735,-970 725.4,-950.31 710.67,-932.49 694.68,-917.15"/>
<polygon fill="none" stroke="#404040" points="694.52,-917.01 687.4,-915.9 685.69,-908.89 692.81,-910 694.52,-917.01"/>
<text text-anchor="middle" x="827" y="-1188" font-family="Helvetica,sans-Serif" font-size="10.00"> #m_want_data_flag</text>
<text text-anchor="middle" x="827" y="-1177" font-family="Helvetica,sans-Serif" font-size="10.00">#m_data_ready_flag</text>
</g>
<!-- Node8 -->
<g id="node8" class="node">
<title>Node8</title>
<g id="a_node8"><a xlink:title="STL class.">
<polygon fill="none" stroke="#bfbfbf" points="711,-1540 711,-1597 811,-1597 811,-1540 711,-1540"/>
<text text-anchor="middle" x="761" y="-1585" font-family="Helvetica,sans-Serif" font-size="10.00">std::atomic&lt; T &gt;</text>
<polyline fill="none" stroke="#bfbfbf" points="711,-1578 811,-1578 "/>
<text text-anchor="middle" x="761" y="-1566" font-family="Helvetica,sans-Serif" font-size="10.00"> </text>
<polyline fill="none" stroke="#bfbfbf" points="711,-1559 811,-1559 "/>
<text text-anchor="middle" x="761" y="-1547" font-family="Helvetica,sans-Serif" font-size="10.00"> </text>
</a>
</g>
</g>
<!-- Node8&#45;&gt;Node7 -->
<g id="edge7" class="edge">
<title>Node8&#45;&gt;Node7</title>
<path fill="none" stroke="orange" d="M761.17,-1529.81C761.37,-1486.44 761.7,-1416.28 761.87,-1377.67"/>
<polygon fill="orange" stroke="orange" points="757.67,-1529.94 761.13,-1539.95 764.67,-1529.97 757.67,-1529.94"/>
<text text-anchor="middle" x="784.5" y="-1502.5" font-family="Helvetica,sans-Serif" font-size="10.00"> &lt; bool &gt;</text>
</g>
<!-- Node9 -->
<g id="node9" class="node">
<title>Node9</title>
<g id="a_node9"><a xlink:title=" ">
<polygon fill="none" stroke="#bfbfbf" points="686.5,-1650.5 686.5,-1707.5 715.5,-1707.5 715.5,-1650.5 686.5,-1650.5"/>
<text text-anchor="middle" x="701" y="-1695.5" font-family="Helvetica,sans-Serif" font-size="10.00">T</text>
<polyline fill="none" stroke="#bfbfbf" points="686.5,-1688.5 715.5,-1688.5 "/>
<text text-anchor="middle" x="701" y="-1676.5" font-family="Helvetica,sans-Serif" font-size="10.00"> </text>
<polyline fill="none" stroke="#bfbfbf" points="686.5,-1669.5 715.5,-1669.5 "/>
<text text-anchor="middle" x="701" y="-1657.5" font-family="Helvetica,sans-Serif" font-size="10.00"> </text>
</a>
</g>
</g>
<!-- Node9&#45;&gt;Node8 -->
<g id="edge8" class="edge">
<title>Node9&#45;&gt;Node8</title>
<path fill="none" stroke="#404040" d="M715.58,-1654.8C720,-1647.56 724.8,-1639.51 729,-1632 733.29,-1624.33 737.7,-1616.03 741.82,-1608.06"/>
<polygon fill="none" stroke="#404040" points="741.95,-1607.8 741.12,-1600.64 747.41,-1597.11 748.24,-1604.27 741.95,-1607.8"/>
<text text-anchor="middle" x="746.5" y="-1624" font-family="Helvetica,sans-Serif" font-size="10.00"> +ptr</text>
</g>
<!-- Node12 -->
<g id="node12" class="node">
<title>Node12</title>
<g id="a_node12"><a xlink:title="STL class.">
<polygon fill="none" stroke="#bfbfbf" points="594.5,-1540 594.5,-1597 691.5,-1597 691.5,-1540 594.5,-1540"/>
<text text-anchor="middle" x="643" y="-1585" font-family="Helvetica,sans-Serif" font-size="10.00">std::vector&lt; T &gt;</text>
<polyline fill="none" stroke="#bfbfbf" points="594.5,-1578 691.5,-1578 "/>
<text text-anchor="middle" x="643" y="-1566" font-family="Helvetica,sans-Serif" font-size="10.00"> </text>
<polyline fill="none" stroke="#bfbfbf" points="594.5,-1559 691.5,-1559 "/>
<text text-anchor="middle" x="643" y="-1547" font-family="Helvetica,sans-Serif" font-size="10.00"> </text>
</a>
</g>
</g>
<!-- Node9&#45;&gt;Node12 -->
<g id="edge13" class="edge">
<title>Node9&#45;&gt;Node12</title>
<path fill="none" stroke="#404040" d="M686.24,-1656.9C681.14,-1649.22 675.57,-1640.37 671,-1632 666.86,-1624.41 662.81,-1616.09 659.14,-1608.06"/>
<polygon fill="none" stroke="#404040" points="659.1,-1607.98 653.01,-1604.13 654.22,-1597.02 660.32,-1600.88 659.1,-1607.98"/>
<text text-anchor="middle" x="700" y="-1624" font-family="Helvetica,sans-Serif" font-size="10.00"> +elements</text>
</g>
<!-- Node10&#45;&gt;Node3 -->
<g id="edge9" class="edge">
<title>Node10&#45;&gt;Node3</title>
<path fill="none" stroke="#404040" d="M632.27,-1068.15C628.83,-1034.16 625.09,-997.19 621.72,-963.86"/>
<polygon fill="none" stroke="#404040" points="621.7,-963.7 617.12,-958.13 620.49,-951.76 625.07,-957.32 621.7,-963.7"/>
<text text-anchor="middle" x="680.5" y="-1013" font-family="Helvetica,sans-Serif" font-size="10.00"> #m_buffer_external</text>
<text text-anchor="middle" x="680.5" y="-1002" font-family="Helvetica,sans-Serif" font-size="10.00">#m_buffer_raw</text>
</g>
<!-- Node11 -->
<g id="node11" class="node">
<title>Node11</title>
<g id="a_node11"><a xlink:title=" ">
<polygon fill="none" stroke="#bfbfbf" points="575,-1402 575,-1470 711,-1470 711,-1402 575,-1402"/>
<text text-anchor="start" x="583" y="-1458" font-family="Helvetica,sans-Serif" font-size="10.00">std::vector&lt; std::pair</text>
<text text-anchor="middle" x="643" y="-1447" font-family="Helvetica,sans-Serif" font-size="10.00">&lt; uint64_t, uint64_t &gt; &gt;</text>
<polyline fill="none" stroke="#bfbfbf" points="575,-1440 711,-1440 "/>
<text text-anchor="start" x="583" y="-1428" font-family="Helvetica,sans-Serif" font-size="10.00">+ elements</text>
<polyline fill="none" stroke="#bfbfbf" points="575,-1421 711,-1421 "/>
<text text-anchor="middle" x="643" y="-1409" font-family="Helvetica,sans-Serif" font-size="10.00"> </text>
</a>
</g>
</g>
<!-- Node11&#45;&gt;Node10 -->
<g id="edge11" class="edge">
<title>Node11&#45;&gt;Node10</title>
<path fill="none" stroke="#404040" d="M643.13,-1401.93C643.23,-1378.84 643.36,-1346.39 643.49,-1313.66"/>
<polygon fill="none" stroke="#404040" points="643.49,-1313.6 639.51,-1307.58 643.54,-1301.6 647.51,-1307.62 643.49,-1313.6"/>
<text text-anchor="middle" x="666" y="-1346.5" font-family="Helvetica,sans-Serif" font-size="10.00"> &#45;m_data</text>
</g>
<!-- Node12&#45;&gt;Node11 -->
<g id="edge12" class="edge">
<title>Node12&#45;&gt;Node11</title>
<path fill="none" stroke="orange" d="M643,-1529.8C643,-1510.95 643,-1488.36 643,-1470.18"/>
<polygon fill="orange" stroke="orange" points="639.5,-1529.82 643,-1539.82 646.5,-1529.82 639.5,-1529.82"/>
<text text-anchor="start" x="643" y="-1508" font-family="Helvetica,sans-Serif" font-size="10.00"> &lt; std::pair&lt; uint64</text>
<text text-anchor="middle" x="691.5" y="-1497" font-family="Helvetica,sans-Serif" font-size="10.00">_t, uint64_t &gt; &gt;</text>
</g>
<!-- Node13&#45;&gt;Node3 -->
<g id="edge14" class="edge">
<title>Node13&#45;&gt;Node3</title>
<path fill="none" stroke="#404040" d="M518.9,-1112.46C534.72,-1068.73 555.25,-1012.02 572.91,-963.24"/>
<polygon fill="none" stroke="#404040" points="573.01,-962.95 571.29,-955.95 577.09,-951.67 578.81,-958.67 573.01,-962.95"/>
<text text-anchor="middle" x="593" y="-1007.5" font-family="Helvetica,sans-Serif" font-size="10.00"> &#45;m_mqtt</text>
</g>
<!-- Node14 -->
<g id="node14" class="node">
<title>Node14</title>
<g id="a_node14"><a xlink:href="../../d4/d70/class_a_d_c___a_p_i___e_s_p32.html" target="_top" xlink:title=" ">
<polygon fill="none" stroke="black" points="296.5,-447 296.5,-526 417.5,-526 417.5,-447 296.5,-447"/>
<text text-anchor="middle" x="357" y="-514" font-family="Helvetica,sans-Serif" font-size="10.00">ADC_API_ESP32</text>
<polyline fill="none" stroke="black" points="296.5,-507 417.5,-507 "/>
<text text-anchor="middle" x="357" y="-495" font-family="Helvetica,sans-Serif" font-size="10.00"> </text>
<polyline fill="none" stroke="black" points="296.5,-488 417.5,-488 "/>
<text text-anchor="start" x="304.5" y="-476" font-family="Helvetica,sans-Serif" font-size="10.00">+ ADC_API_ESP32()</text>
<text text-anchor="start" x="304.5" y="-465" font-family="Helvetica,sans-Serif" font-size="10.00">+ ~ADC_API_ESP32()</text>
<text text-anchor="start" x="304.5" y="-454" font-family="Helvetica,sans-Serif" font-size="10.00">+ measureValue()</text>
</a>
</g>
</g>
<!-- Node14&#45;&gt;Node2 -->
<g id="edge16" class="edge">
<title>Node14&#45;&gt;Node2</title>
<path fill="none" stroke="#404040" d="M384.18,-446.94C407.64,-413.65 441.92,-365.02 468.92,-326.7"/>
<polygon fill="none" stroke="#404040" points="469.06,-326.5 469.25,-319.29 475.98,-316.69 475.79,-323.9 469.06,-326.5"/>
<text text-anchor="middle" x="441" y="-393" font-family="Helvetica,sans-Serif" font-size="10.00"> &#45;m_adc</text>
</g>
<!-- Node15 -->
<g id="node15" class="node">
<title>Node15</title>
<g id="a_node15"><a xlink:href="../../dc/d23/class_a_d_c_base.html" target="_top" xlink:title=" ">
<polygon fill="none" stroke="black" points="268,-591.5 268,-714.5 446,-714.5 446,-591.5 268,-591.5"/>
<text text-anchor="middle" x="357" y="-702.5" font-family="Helvetica,sans-Serif" font-size="10.00">ADCBase&lt; uint32_t &gt;</text>
<polyline fill="none" stroke="black" points="268,-695.5 446,-695.5 "/>
<text text-anchor="start" x="276" y="-683.5" font-family="Helvetica,sans-Serif" font-size="10.00"># m_number_of_samples</text>
<text text-anchor="start" x="276" y="-672.5" font-family="Helvetica,sans-Serif" font-size="10.00">&#45; minimum_number_of_samples</text>
<text text-anchor="start" x="276" y="-661.5" font-family="Helvetica,sans-Serif" font-size="10.00">&#45; maximum_number_of_samples</text>
<polyline fill="none" stroke="black" points="268,-654.5 446,-654.5 "/>
<text text-anchor="start" x="276" y="-642.5" font-family="Helvetica,sans-Serif" font-size="10.00">+ ADCBase()</text>
<text text-anchor="start" x="276" y="-631.5" font-family="Helvetica,sans-Serif" font-size="10.00">+ ~ADCBase()</text>
<text text-anchor="start" x="276" y="-620.5" font-family="Helvetica,sans-Serif" font-size="10.00">+ measureValue()</text>
<text text-anchor="start" x="276" y="-609.5" font-family="Helvetica,sans-Serif" font-size="10.00">+ setSampleNumber()</text>
<text text-anchor="start" x="276" y="-598.5" font-family="Helvetica,sans-Serif" font-size="10.00">+ getSampleNumber()</text>
</a>
</g>
</g>
<!-- Node15&#45;&gt;Node14 -->
<g id="edge17" class="edge">
<title>Node15&#45;&gt;Node14</title>
<path fill="none" stroke="midnightblue" d="M357,-581.13C357,-562.24 357,-542.54 357,-526.1"/>
<polygon fill="none" stroke="midnightblue" points="353.5,-581.21 357,-591.21 360.5,-581.21 353.5,-581.21"/>
</g>
<!-- Node16&#45;&gt;Node15 -->
<g id="edge18" class="edge">
<title>Node16&#45;&gt;Node15</title>
<path fill="none" stroke="#404040" d="M239.36,-1112.29C230.89,-1008.74 220.21,-823.08 246,-762 251.78,-748.32 260.23,-735.51 269.93,-723.84"/>
<polygon fill="none" stroke="#404040" points="270.02,-723.74 270.99,-716.59 277.95,-714.73 276.99,-721.88 270.02,-723.74"/>
<text text-anchor="middle" x="289" y="-854.5" font-family="Helvetica,sans-Serif" font-size="10.00"> #m_faulthanlder</text>
</g>
<!-- Node18 -->
<g id="node18" class="node">
<title>Node18</title>
<g id="a_node18"><a xlink:href="../../dc/d23/class_a_d_c_base.html" target="_top" xlink:title=" ">
<polygon fill="none" stroke="black" points="341,-795.5 341,-918.5 519,-918.5 519,-795.5 341,-795.5"/>
<text text-anchor="middle" x="430" y="-906.5" font-family="Helvetica,sans-Serif" font-size="10.00">ADCBase&lt; T &gt;</text>
<polyline fill="none" stroke="black" points="341,-899.5 519,-899.5 "/>
<text text-anchor="start" x="349" y="-887.5" font-family="Helvetica,sans-Serif" font-size="10.00"># m_number_of_samples</text>
<text text-anchor="start" x="349" y="-876.5" font-family="Helvetica,sans-Serif" font-size="10.00">&#45; minimum_number_of_samples</text>
<text text-anchor="start" x="349" y="-865.5" font-family="Helvetica,sans-Serif" font-size="10.00">&#45; maximum_number_of_samples</text>
<polyline fill="none" stroke="black" points="341,-858.5 519,-858.5 "/>
<text text-anchor="start" x="349" y="-846.5" font-family="Helvetica,sans-Serif" font-size="10.00">+ ADCBase()</text>
<text text-anchor="start" x="349" y="-835.5" font-family="Helvetica,sans-Serif" font-size="10.00">+ ~ADCBase()</text>
<text text-anchor="start" x="349" y="-824.5" font-family="Helvetica,sans-Serif" font-size="10.00">+ measureValue()</text>
<text text-anchor="start" x="349" y="-813.5" font-family="Helvetica,sans-Serif" font-size="10.00">+ setSampleNumber()</text>
<text text-anchor="start" x="349" y="-802.5" font-family="Helvetica,sans-Serif" font-size="10.00">+ getSampleNumber()</text>
</a>
</g>
</g>
<!-- Node16&#45;&gt;Node18 -->
<g id="edge22" class="edge">
<title>Node16&#45;&gt;Node18</title>
<path fill="none" stroke="#404040" d="M260.8,-1112.43C271.88,-1069.02 289.87,-1013.75 317,-970 326.23,-955.12 337.81,-940.75 350.02,-927.54"/>
<polygon fill="none" stroke="#404040" points="350.27,-927.27 351.51,-920.17 358.55,-918.59 357.3,-925.69 350.27,-927.27"/>
<text text-anchor="middle" x="360" y="-1007.5" font-family="Helvetica,sans-Serif" font-size="10.00"> #m_faulthanlder</text>
</g>
<!-- Node17 -->
<g id="node17" class="node">
<title>Node17</title>
<g id="a_node17"><a xlink:href="../../dd/d84/class_fault___handler.html#da/dec/struct_fault___handler_1_1counters__t" target="_top" xlink:title=" ">
<polygon fill="none" stroke="black" points="0,-1396.5 0,-1475.5 140,-1475.5 140,-1396.5 0,-1396.5"/>
<text text-anchor="middle" x="70" y="-1463.5" font-family="Helvetica,sans-Serif" font-size="10.00">Fault_Handler::counters_t</text>
<polyline fill="none" stroke="black" points="0,-1456.5 140,-1456.5 "/>
<text text-anchor="start" x="8" y="-1444.5" font-family="Helvetica,sans-Serif" font-size="10.00">+ low</text>
<text text-anchor="start" x="8" y="-1433.5" font-family="Helvetica,sans-Serif" font-size="10.00">+ medium</text>
<text text-anchor="start" x="8" y="-1422.5" font-family="Helvetica,sans-Serif" font-size="10.00">+ high</text>
<polyline fill="none" stroke="black" points="0,-1415.5 140,-1415.5 "/>
<text text-anchor="middle" x="70" y="-1403.5" font-family="Helvetica,sans-Serif" font-size="10.00"> </text>
</a>
</g>
</g>
<!-- Node17&#45;&gt;Node16 -->
<g id="edge20" class="edge">
<title>Node17&#45;&gt;Node16</title>
<path fill="none" stroke="#404040" d="M62.13,-1396.26C59.33,-1372.97 59.32,-1343.4 71,-1320 92.71,-1276.5 135.98,-1243.17 174.06,-1220.63"/>
<polygon fill="none" stroke="#404040" points="174.23,-1220.54 177.44,-1214.08 184.64,-1214.56 181.42,-1221.02 174.23,-1220.54"/>
<text text-anchor="middle" x="103" y="-1346.5" font-family="Helvetica,sans-Serif" font-size="10.00"> &#45;m_counters</text>
</g>
<!-- Node18&#45;&gt;Node15 -->
<g id="edge21" class="edge">
<title>Node18&#45;&gt;Node15</title>
<path fill="none" stroke="orange" d="M404.68,-785.94C396.28,-762.69 387.01,-737.03 378.89,-714.56"/>
<polygon fill="orange" stroke="orange" points="401.41,-787.18 408.1,-795.39 407.99,-784.8 401.41,-787.18"/>
<text text-anchor="middle" x="423" y="-736" font-family="Helvetica,sans-Serif" font-size="10.00"> &lt; uint32_t &gt;</text>
</g>
<!-- Node19&#45;&gt;Node14 -->
<g id="edge23" class="edge">
<title>Node19&#45;&gt;Node14</title>
<path fill="none" stroke="#404040" d="M158.68,-970.28C163.63,-892.77 183.07,-715.31 259,-591 271.19,-571.04 287.73,-551.72 303.76,-535.28"/>
<polygon fill="none" stroke="#404040" points="304.09,-534.94 305.5,-527.87 312.57,-526.45 311.16,-533.52 304.09,-534.94"/>
<text text-anchor="middle" x="219.5" y="-736" font-family="Helvetica,sans-Serif" font-size="10.00"> &#45;m_conf</text>
</g>
<!-- Node20 -->
<g id="node20" class="node">
<title>Node20</title>
<g id="a_node20"><a xlink:href="../../d1/d2c/class_g_p_i_o___a_p_i.html" target="_top" xlink:title=" ">
<polygon fill="none" stroke="black" points="612.5,-160.5 612.5,-371.5 725.5,-371.5 725.5,-160.5 612.5,-160.5"/>
<text text-anchor="middle" x="669" y="-359.5" font-family="Helvetica,sans-Serif" font-size="10.00">GPIO_API</text>
<polyline fill="none" stroke="black" points="612.5,-352.5 725.5,-352.5 "/>
<text text-anchor="start" x="620.5" y="-340.5" font-family="Helvetica,sans-Serif" font-size="10.00">&#45; m_pin</text>
<text text-anchor="start" x="620.5" y="-329.5" font-family="Helvetica,sans-Serif" font-size="10.00">&#45; is_Output</text>
<text text-anchor="start" x="620.5" y="-318.5" font-family="Helvetica,sans-Serif" font-size="10.00">&#45; is_high</text>
<polyline fill="none" stroke="black" points="612.5,-311.5 725.5,-311.5 "/>
<text text-anchor="start" x="620.5" y="-299.5" font-family="Helvetica,sans-Serif" font-size="10.00">+ GPIO_API()</text>
<text text-anchor="start" x="620.5" y="-288.5" font-family="Helvetica,sans-Serif" font-size="10.00">+ GPIO_API()</text>
<text text-anchor="start" x="620.5" y="-277.5" font-family="Helvetica,sans-Serif" font-size="10.00">+ ~GPIO_API()</text>
<text text-anchor="start" x="620.5" y="-266.5" font-family="Helvetica,sans-Serif" font-size="10.00">+ toggle()</text>
<text text-anchor="start" x="620.5" y="-255.5" font-family="Helvetica,sans-Serif" font-size="10.00">+ setToInput()</text>
<text text-anchor="start" x="620.5" y="-244.5" font-family="Helvetica,sans-Serif" font-size="10.00">+ setToOutput()</text>
<text text-anchor="start" x="620.5" y="-233.5" font-family="Helvetica,sans-Serif" font-size="10.00">+ setHigh()</text>
<text text-anchor="start" x="620.5" y="-222.5" font-family="Helvetica,sans-Serif" font-size="10.00">+ setLow()</text>
<text text-anchor="start" x="620.5" y="-211.5" font-family="Helvetica,sans-Serif" font-size="10.00">+ isHigh()</text>
<text text-anchor="start" x="620.5" y="-200.5" font-family="Helvetica,sans-Serif" font-size="10.00">+ isLow()</text>
<text text-anchor="start" x="620.5" y="-189.5" font-family="Helvetica,sans-Serif" font-size="10.00">+ installInterrupt()</text>
<text text-anchor="start" x="620.5" y="-178.5" font-family="Helvetica,sans-Serif" font-size="10.00">+ enableInterrupt()</text>
<text text-anchor="start" x="620.5" y="-167.5" font-family="Helvetica,sans-Serif" font-size="10.00">+ disableInterrupt()</text>
</a>
</g>
</g>
<!-- Node20&#45;&gt;Node1 -->
<g id="edge25" class="edge">
<title>Node20&#45;&gt;Node1</title>
<path fill="none" stroke="#404040" d="M628.65,-160.34C623.87,-147.95 619.1,-135.58 614.61,-123.93"/>
<polygon fill="none" stroke="#404040" points="614.54,-123.75 608.65,-119.59 610.22,-112.55 616.12,-116.71 614.54,-123.75"/>
<text text-anchor="middle" x="650.5" y="-134" font-family="Helvetica,sans-Serif" font-size="10.00"> &#45;m_test_pin</text>
</g>
<!-- Node21 -->
<g id="node21" class="node">
<title>Node21</title>
<g id="a_node21"><a xlink:href="../../d4/d57/class_g_p_i_o___h_a_l.html" target="_top" xlink:title=" ">
<polygon fill="none" stroke="black" points="600.5,-419.5 600.5,-553.5 737.5,-553.5 737.5,-419.5 600.5,-419.5"/>
<text text-anchor="middle" x="669" y="-541.5" font-family="Helvetica,sans-Serif" font-size="10.00">GPIO_HAL</text>
<polyline fill="none" stroke="black" points="600.5,-534.5 737.5,-534.5 "/>
<text text-anchor="middle" x="669" y="-522.5" font-family="Helvetica,sans-Serif" font-size="10.00"> </text>
<polyline fill="none" stroke="black" points="600.5,-515.5 737.5,-515.5 "/>
<text text-anchor="start" x="608.5" y="-503.5" font-family="Helvetica,sans-Serif" font-size="10.00">+ GPIO_HAL()</text>
<text text-anchor="start" x="608.5" y="-492.5" font-family="Helvetica,sans-Serif" font-size="10.00">+ ~GPIO_HAL()</text>
<text text-anchor="start" x="608.5" y="-481.5" font-family="Helvetica,sans-Serif" font-size="10.00">+ setDirection()</text>
<text text-anchor="start" x="608.5" y="-470.5" font-family="Helvetica,sans-Serif" font-size="10.00">+ setValue()</text>
<text text-anchor="start" x="608.5" y="-459.5" font-family="Helvetica,sans-Serif" font-size="10.00">+ getValue()</text>
<text text-anchor="start" x="608.5" y="-448.5" font-family="Helvetica,sans-Serif" font-size="10.00">+ installInterruptDriver()</text>
<text text-anchor="start" x="608.5" y="-437.5" font-family="Helvetica,sans-Serif" font-size="10.00">+ enableInterrupt()</text>
<text text-anchor="start" x="608.5" y="-426.5" font-family="Helvetica,sans-Serif" font-size="10.00">+ disableInterrupt()</text>
</a>
</g>
</g>
<!-- Node21&#45;&gt;Node20 -->
<g id="edge26" class="edge">
<title>Node21&#45;&gt;Node20</title>
<path fill="none" stroke="#404040" d="M669,-419.35C669,-408.05 669,-396.01 669,-383.84"/>
<polygon fill="none" stroke="#404040" points="669,-383.66 665,-377.66 669,-371.66 673,-377.66 669,-383.66"/>
<text text-anchor="middle" x="687.5" y="-393" font-family="Helvetica,sans-Serif" font-size="10.00"> &#45;m_hal</text>
</g>
</g>
</svg>
