<?xml version="1.0" encoding="UTF-8" standalone="no"?>
<!DOCTYPE svg PUBLIC "-//W3C//DTD SVG 1.1//EN"
 "http://www.w3.org/Graphics/SVG/1.1/DTD/svg11.dtd">
<!-- Generated by graphviz version 2.43.0 (0)
 -->
<!-- Title: Components/Objects/Maintainer/src/Maintainer.cpp Pages: 1 -->
<svg width="1621pt" height="508pt"
 viewBox="0.00 0.00 1620.50 508.00" xmlns="http://www.w3.org/2000/svg" xmlns:xlink="http://www.w3.org/1999/xlink">
<g id="graph0" class="graph" transform="scale(1 1) rotate(0) translate(4 504)">
<title>Components/Objects/Maintainer/src/Maintainer.cpp</title>
<!-- Node1 -->
<g id="node1" class="node">
<title>Node1</title>
<g id="a_node1"><a xlink:title=" ">
<polygon fill="#bfbfbf" stroke="black" points="974,-469.5 974,-499.5 1138,-499.5 1138,-469.5 974,-469.5"/>
<text text-anchor="start" x="982" y="-487.5" font-family="Helvetica,sans-Serif" font-size="10.00">Components/Objects</text>
<text text-anchor="middle" x="1056" y="-476.5" font-family="Helvetica,sans-Serif" font-size="10.00">/Maintainer/src/Maintainer.cpp</text>
</a>
</g>
</g>
<!-- Node2 -->
<g id="node2" class="node">
<title>Node2</title>
<g id="a_node2"><a xlink:href="../../d0/d6a/_maintainer_8hpp.html" target="_top" xlink:title=" ">
<polygon fill="none" stroke="black" points="987.5,-413.5 987.5,-432.5 1124.5,-432.5 1124.5,-413.5 987.5,-413.5"/>
<text text-anchor="middle" x="1056" y="-420.5" font-family="Helvetica,sans-Serif" font-size="10.00">../include/Maintainer.hpp</text>
</a>
</g>
</g>
<!-- Node1&#45;&gt;Node2 -->
<g id="edge1" class="edge">
<title>Node1&#45;&gt;Node2</title>
<path fill="none" stroke="midnightblue" d="M1056,-469.4C1056,-461.47 1056,-451.46 1056,-442.86"/>
<polygon fill="midnightblue" stroke="midnightblue" points="1059.5,-442.66 1056,-432.66 1052.5,-442.66 1059.5,-442.66"/>
</g>
<!-- Node3 -->
<g id="node3" class="node">
<title>Node3</title>
<g id="a_node3"><a xlink:href="../../da/d5f/_b_a_s_i_c_8hpp.html" target="_top" xlink:title=" ">
<polygon fill="none" stroke="black" points="1068,-56.5 1068,-86.5 1184,-86.5 1184,-56.5 1068,-56.5"/>
<text text-anchor="start" x="1076" y="-74.5" font-family="Helvetica,sans-Serif" font-size="10.00">../../../Global_Include</text>
<text text-anchor="middle" x="1126" y="-63.5" font-family="Helvetica,sans-Serif" font-size="10.00">/BASIC.hpp</text>
</a>
</g>
</g>
<!-- Node2&#45;&gt;Node3 -->
<g id="edge2" class="edge">
<title>Node2&#45;&gt;Node3</title>
<path fill="none" stroke="midnightblue" d="M1124.87,-416.29C1242.56,-404.85 1473.99,-374.51 1518,-310 1573.53,-228.6 1479.63,-169.79 1401,-123 1366.86,-102.68 1263.93,-87.7 1194.15,-79.54"/>
<polygon fill="midnightblue" stroke="midnightblue" points="1194.44,-76.05 1184.11,-78.38 1193.64,-83 1194.44,-76.05"/>
</g>
<!-- Node4 -->
<g id="node4" class="node">
<title>Node4</title>
<g id="a_node4"><a xlink:href="../../d3/deb/_general___error_8hpp.html" target="_top" xlink:title=" ">
<polygon fill="none" stroke="black" points="318.5,-56.5 318.5,-86.5 463.5,-86.5 463.5,-56.5 318.5,-56.5"/>
<text text-anchor="start" x="326.5" y="-74.5" font-family="Helvetica,sans-Serif" font-size="10.00">../../../Objects/ErrorHandler</text>
<text text-anchor="middle" x="391" y="-63.5" font-family="Helvetica,sans-Serif" font-size="10.00">/include/General_Error.hpp</text>
</a>
</g>
</g>
<!-- Node2&#45;&gt;Node4 -->
<g id="edge3" class="edge">
<title>Node2&#45;&gt;Node4</title>
<path fill="none" stroke="midnightblue" d="M987.12,-420.66C752.65,-415.18 0,-389.83 0,-290 0,-290 0,-290 0,-215.5 0,-169.78 8.1,-149.99 45,-123 85.75,-93.19 219.62,-80.8 308.4,-75.78"/>
<polygon fill="midnightblue" stroke="midnightblue" points="308.66,-79.27 318.45,-75.23 308.28,-72.28 308.66,-79.27"/>
</g>
<!-- Node7 -->
<g id="node7" class="node">
<title>Node7</title>
<g id="a_node7"><a xlink:href="../../da/d81/_fault___handler_8hpp.html" target="_top" xlink:title=" ">
<polygon fill="none" stroke="black" points="927.5,-346.5 927.5,-376.5 1072.5,-376.5 1072.5,-346.5 927.5,-346.5"/>
<text text-anchor="start" x="935.5" y="-364.5" font-family="Helvetica,sans-Serif" font-size="10.00">../../../Objects/FaultHandler</text>
<text text-anchor="middle" x="1000" y="-353.5" font-family="Helvetica,sans-Serif" font-size="10.00">/include/Fault_Handler.hpp</text>
</a>
</g>
</g>
<!-- Node2&#45;&gt;Node7 -->
<g id="edge6" class="edge">
<title>Node2&#45;&gt;Node7</title>
<path fill="none" stroke="midnightblue" d="M1047.98,-413.48C1040.75,-405.79 1029.81,-394.17 1020.2,-383.96"/>
<polygon fill="midnightblue" stroke="midnightblue" points="1022.6,-381.41 1013.2,-376.52 1017.5,-386.2 1022.6,-381.41"/>
</g>
<!-- Node15 -->
<g id="node15" class="node">
<title>Node15</title>
<g id="a_node15"><a xlink:href="../../db/def/_wi_fi___s_a_l__esp32_8hpp.html" target="_top" xlink:title=" ">
<polygon fill="none" stroke="black" points="447,-268.5 447,-309.5 567,-309.5 567,-268.5 447,-268.5"/>
<text text-anchor="start" x="455" y="-297.5" font-family="Helvetica,sans-Serif" font-size="10.00">../../../Connector</text>
<text text-anchor="start" x="455" y="-286.5" font-family="Helvetica,sans-Serif" font-size="10.00">/WiFi_v2/include/WiFi</text>
<text text-anchor="middle" x="507" y="-275.5" font-family="Helvetica,sans-Serif" font-size="10.00">_SAL_esp32.hpp</text>
</a>
</g>
</g>
<!-- Node2&#45;&gt;Node15 -->
<g id="edge22" class="edge">
<title>Node2&#45;&gt;Node15</title>
<path fill="none" stroke="midnightblue" d="M1020.4,-413.44C931.05,-391.96 696.01,-335.44 577.48,-306.95"/>
<polygon fill="midnightblue" stroke="midnightblue" points="577.96,-303.46 567.42,-304.53 576.32,-310.27 577.96,-303.46"/>
</g>
<!-- Node19 -->
<g id="node19" class="node">
<title>Node19</title>
<g id="a_node19"><a xlink:href="../../d5/dc5/_task_8h.html" target="_top" xlink:title=" ">
<polygon fill="none" stroke="black" points="66.5,-129 66.5,-159 185.5,-159 185.5,-129 66.5,-129"/>
<text text-anchor="start" x="74.5" y="-147" font-family="Helvetica,sans-Serif" font-size="10.00">../../../RTOS/FreeRTOS</text>
<text text-anchor="middle" x="126" y="-136" font-family="Helvetica,sans-Serif" font-size="10.00">/include/Task.h</text>
</a>
</g>
</g>
<!-- Node2&#45;&gt;Node19 -->
<g id="edge37" class="edge">
<title>Node2&#45;&gt;Node19</title>
<path fill="none" stroke="midnightblue" d="M987.4,-420.6C843.41,-417.12 514.05,-406.14 406,-377 287.14,-344.94 248.2,-327.08 170,-232 154.21,-212.81 142.06,-187.02 134.57,-168.51"/>
<polygon fill="midnightblue" stroke="midnightblue" points="137.78,-167.11 130.89,-159.06 131.26,-169.65 137.78,-167.11"/>
</g>
<!-- Node20 -->
<g id="node20" class="node">
<title>Node20</title>
<g id="a_node20"><a xlink:href="../../d5/d40/_database___i_d___base_8hpp.html" target="_top" xlink:title=" ">
<polygon fill="none" stroke="black" points="1377,-274 1377,-304 1509,-304 1509,-274 1377,-274"/>
<text text-anchor="start" x="1385" y="-292" font-family="Helvetica,sans-Serif" font-size="10.00">../../../Global_Include</text>
<text text-anchor="middle" x="1443" y="-281" font-family="Helvetica,sans-Serif" font-size="10.00">/Database_ID_Base.hpp</text>
</a>
</g>
</g>
<!-- Node2&#45;&gt;Node20 -->
<g id="edge41" class="edge">
<title>Node2&#45;&gt;Node20</title>
<path fill="none" stroke="midnightblue" d="M1124.7,-416.46C1175.33,-410.72 1245.15,-399.31 1303,-377 1345.88,-360.46 1390.07,-330.43 1417.04,-310.34"/>
<polygon fill="midnightblue" stroke="midnightblue" points="1419.3,-313.02 1425.17,-304.2 1415.08,-307.44 1419.3,-313.02"/>
</g>
<!-- Node22 -->
<g id="node22" class="node">
<title>Node22</title>
<g id="a_node22"><a xlink:href="../../de/dd1/_o_t_a_8hpp.html" target="_top" xlink:title=" ">
<polygon fill="none" stroke="black" points="196.5,-201.5 196.5,-231.5 299.5,-231.5 299.5,-201.5 196.5,-201.5"/>
<text text-anchor="start" x="204.5" y="-219.5" font-family="Helvetica,sans-Serif" font-size="10.00">../../../Objects/OTA</text>
<text text-anchor="middle" x="248" y="-208.5" font-family="Helvetica,sans-Serif" font-size="10.00">/include/OTA.hpp</text>
</a>
</g>
</g>
<!-- Node2&#45;&gt;Node22 -->
<g id="edge43" class="edge">
<title>Node2&#45;&gt;Node22</title>
<path fill="none" stroke="midnightblue" d="M987.33,-418.46C825.69,-409.07 426.33,-379.31 314,-310 287.65,-293.74 268.8,-262.65 258.16,-241.02"/>
<polygon fill="midnightblue" stroke="midnightblue" points="261.27,-239.4 253.85,-231.84 254.93,-242.38 261.27,-239.4"/>
</g>
<!-- Node23 -->
<g id="node23" class="node">
<title>Node23</title>
<g id="a_node23"><a xlink:href="../../d4/d63/mqtt__api__v2_8hpp.html" target="_top" xlink:title=" ">
<polygon fill="none" stroke="black" points="1149.5,-268.5 1149.5,-309.5 1282.5,-309.5 1282.5,-268.5 1149.5,-268.5"/>
<text text-anchor="start" x="1157.5" y="-297.5" font-family="Helvetica,sans-Serif" font-size="10.00">../../../Protocols</text>
<text text-anchor="start" x="1157.5" y="-286.5" font-family="Helvetica,sans-Serif" font-size="10.00">/MQTT/include/mqtt_api</text>
<text text-anchor="middle" x="1216" y="-275.5" font-family="Helvetica,sans-Serif" font-size="10.00">_v2.hpp</text>
</a>
</g>
</g>
<!-- Node2&#45;&gt;Node23 -->
<g id="edge47" class="edge">
<title>Node2&#45;&gt;Node23</title>
<path fill="none" stroke="midnightblue" d="M1063.09,-413.39C1075.52,-398.6 1102.45,-367.86 1129,-346 1142.55,-334.84 1158.43,-324.05 1172.89,-314.96"/>
<polygon fill="midnightblue" stroke="midnightblue" points="1175.01,-317.76 1181.68,-309.53 1171.33,-311.81 1175.01,-317.76"/>
</g>
<!-- Node26 -->
<g id="node26" class="node">
<title>Node26</title>
<g id="a_node26"><a xlink:href="../../d3/d0d/_error_code_parser_8hpp.html" target="_top" xlink:title=" ">
<polygon fill="none" stroke="black" points="1138,-346.5 1138,-376.5 1294,-376.5 1294,-346.5 1138,-346.5"/>
<text text-anchor="start" x="1146" y="-364.5" font-family="Helvetica,sans-Serif" font-size="10.00">../../../Objects/ErrorHandler</text>
<text text-anchor="middle" x="1216" y="-353.5" font-family="Helvetica,sans-Serif" font-size="10.00">/include/ErrorCodeParser.hpp</text>
</a>
</g>
</g>
<!-- Node2&#45;&gt;Node26 -->
<g id="edge58" class="edge">
<title>Node2&#45;&gt;Node26</title>
<path fill="none" stroke="midnightblue" d="M1078.92,-413.48C1102.21,-404.81 1138.97,-391.15 1168.56,-380.14"/>
<polygon fill="midnightblue" stroke="midnightblue" points="1170.14,-383.29 1178.29,-376.52 1167.7,-376.73 1170.14,-383.29"/>
</g>
<!-- Node27 -->
<g id="node27" class="node">
<title>Node27</title>
<g id="a_node27"><a xlink:title=" ">
<polygon fill="none" stroke="#bfbfbf" points="1565.5,-352 1565.5,-371 1612.5,-371 1612.5,-352 1565.5,-352"/>
<text text-anchor="middle" x="1589" y="-359" font-family="Helvetica,sans-Serif" font-size="10.00">vector</text>
</a>
</g>
</g>
<!-- Node2&#45;&gt;Node27 -->
<g id="edge65" class="edge">
<title>Node2&#45;&gt;Node27</title>
<path fill="none" stroke="midnightblue" d="M1124.59,-421.66C1221.01,-419.85 1401.57,-411.61 1551,-377 1554,-376.31 1557.08,-375.43 1560.12,-374.45"/>
<polygon fill="midnightblue" stroke="midnightblue" points="1561.35,-377.73 1569.6,-371.07 1559,-371.13 1561.35,-377.73"/>
</g>
<!-- Node5 -->
<g id="node5" class="node">
<title>Node5</title>
<g id="a_node5"><a xlink:title=" ">
<polygon fill="none" stroke="#bfbfbf" points="104,-0.5 104,-19.5 148,-19.5 148,-0.5 104,-0.5"/>
<text text-anchor="middle" x="126" y="-7.5" font-family="Helvetica,sans-Serif" font-size="10.00">string</text>
</a>
</g>
</g>
<!-- Node4&#45;&gt;Node5 -->
<g id="edge4" class="edge">
<title>Node4&#45;&gt;Node5</title>
<path fill="none" stroke="midnightblue" d="M328.53,-56.47C275.07,-44.47 200.26,-27.67 158.13,-18.21"/>
<polygon fill="midnightblue" stroke="midnightblue" points="158.68,-14.75 148.16,-15.98 157.15,-21.58 158.68,-14.75"/>
</g>
<!-- Node6 -->
<g id="node6" class="node">
<title>Node6</title>
<g id="a_node6"><a xlink:title=" ">
<polygon fill="none" stroke="#bfbfbf" points="535,-0.5 535,-19.5 595,-19.5 595,-0.5 535,-0.5"/>
<text text-anchor="middle" x="565" y="-7.5" font-family="Helvetica,sans-Serif" font-size="10.00">iostream</text>
</a>
</g>
</g>
<!-- Node4&#45;&gt;Node6 -->
<g id="edge5" class="edge">
<title>Node4&#45;&gt;Node6</title>
<path fill="none" stroke="midnightblue" d="M432.24,-56.4C462.17,-46.16 502.21,-32.47 530.47,-22.81"/>
<polygon fill="midnightblue" stroke="midnightblue" points="531.61,-26.12 539.94,-19.57 529.34,-19.49 531.61,-26.12"/>
</g>
<!-- Node7&#45;&gt;Node3 -->
<g id="edge7" class="edge">
<title>Node7&#45;&gt;Node3</title>
<path fill="none" stroke="midnightblue" d="M1021.8,-346.3C1035.02,-337 1051.65,-324.01 1064,-310 1112.81,-254.63 1127.83,-236.79 1145,-165 1149.34,-146.85 1148.34,-141.37 1145,-123 1143.36,-113.96 1140.18,-104.43 1136.89,-96.12"/>
<polygon fill="midnightblue" stroke="midnightblue" points="1140.03,-94.54 1132.91,-86.69 1133.58,-97.26 1140.03,-94.54"/>
</g>
<!-- Node7&#45;&gt;Node4 -->
<g id="edge8" class="edge">
<title>Node7&#45;&gt;Node4</title>
<path fill="none" stroke="midnightblue" d="M927.21,-359C774.9,-355.24 427.31,-343.19 314,-310 188.14,-273.13 121.91,-278.96 57,-165 47.76,-148.78 44.83,-137.15 57,-123 88.81,-86.02 220.29,-75.78 308.49,-73.14"/>
<polygon fill="midnightblue" stroke="midnightblue" points="308.59,-76.64 318.49,-72.86 308.4,-69.64 308.59,-76.64"/>
</g>
<!-- Node8 -->
<g id="node8" class="node">
<title>Node8</title>
<g id="a_node8"><a xlink:href="../../d3/de3/_logger_8hpp.html" target="_top" xlink:title=" ">
<polygon fill="none" stroke="black" points="939,-274 939,-304 1055,-304 1055,-274 939,-274"/>
<text text-anchor="start" x="947" y="-292" font-family="Helvetica,sans-Serif" font-size="10.00">../../../Objects/Logger</text>
<text text-anchor="middle" x="997" y="-281" font-family="Helvetica,sans-Serif" font-size="10.00">/include/Logger.hpp</text>
</a>
</g>
</g>
<!-- Node7&#45;&gt;Node8 -->
<g id="edge9" class="edge">
<title>Node7&#45;&gt;Node8</title>
<path fill="none" stroke="midnightblue" d="M999.39,-346.23C999,-337.06 998.49,-324.91 998.03,-314.24"/>
<polygon fill="midnightblue" stroke="midnightblue" points="1001.53,-314.09 997.61,-304.25 994.53,-314.39 1001.53,-314.09"/>
</g>
<!-- Node8&#45;&gt;Node3 -->
<g id="edge10" class="edge">
<title>Node8&#45;&gt;Node3</title>
<path fill="none" stroke="midnightblue" d="M1023.96,-273.98C1057.33,-254.74 1111.88,-216.58 1129,-165 1136.4,-142.72 1134.37,-115.73 1131.27,-96.67"/>
<polygon fill="midnightblue" stroke="midnightblue" points="1134.69,-95.92 1129.44,-86.72 1127.81,-97.19 1134.69,-95.92"/>
</g>
<!-- Node8&#45;&gt;Node4 -->
<g id="edge11" class="edge">
<title>Node8&#45;&gt;Node4</title>
<path fill="none" stroke="midnightblue" d="M938.91,-284.86C824.99,-278.14 576.38,-260.65 496,-232 472.08,-223.47 469.46,-214.59 448,-201 422.37,-184.77 404.75,-191.51 390,-165 378.41,-144.16 380.6,-116.37 384.49,-96.71"/>
<polygon fill="midnightblue" stroke="midnightblue" points="387.95,-97.24 386.74,-86.72 381.13,-95.7 387.95,-97.24"/>
</g>
<!-- Node9 -->
<g id="node9" class="node">
<title>Node9</title>
<g id="a_node9"><a xlink:href="../../d7/d60/_timeservice_8hpp.html" target="_top" xlink:title=" ">
<polygon fill="none" stroke="black" points="926.5,-201.5 926.5,-231.5 1069.5,-231.5 1069.5,-201.5 926.5,-201.5"/>
<text text-anchor="start" x="934.5" y="-219.5" font-family="Helvetica,sans-Serif" font-size="10.00">../../../Objects/Timeservice</text>
<text text-anchor="middle" x="998" y="-208.5" font-family="Helvetica,sans-Serif" font-size="10.00">/include/Timeservice.hpp</text>
</a>
</g>
</g>
<!-- Node8&#45;&gt;Node9 -->
<g id="edge12" class="edge">
<title>Node8&#45;&gt;Node9</title>
<path fill="none" stroke="midnightblue" d="M997.2,-273.73C997.33,-264.66 997.5,-252.66 997.65,-242.08"/>
<polygon fill="midnightblue" stroke="midnightblue" points="1001.16,-241.79 997.8,-231.75 994.16,-241.69 1001.16,-241.79"/>
</g>
<!-- Node9&#45;&gt;Node3 -->
<g id="edge13" class="edge">
<title>Node9&#45;&gt;Node3</title>
<path fill="none" stroke="midnightblue" d="M1052.84,-201.44C1072.63,-193.75 1093.41,-182.17 1107,-165 1122.36,-145.61 1126.21,-116.94 1126.79,-96.67"/>
<polygon fill="midnightblue" stroke="midnightblue" points="1130.29,-96.67 1126.83,-86.66 1123.29,-96.64 1130.29,-96.67"/>
</g>
<!-- Node9&#45;&gt;Node4 -->
<g id="edge14" class="edge">
<title>Node9&#45;&gt;Node4</title>
<path fill="none" stroke="midnightblue" d="M926.32,-211.57C815.46,-204.82 607.89,-189.37 538,-165 513.33,-156.4 454.69,-117.05 419.38,-92.52"/>
<polygon fill="midnightblue" stroke="midnightblue" points="421.14,-89.49 410.94,-86.64 417.14,-95.23 421.14,-89.49"/>
</g>
<!-- Node10 -->
<g id="node10" class="node">
<title>Node10</title>
<g id="a_node10"><a xlink:href="../../d6/d4b/_r_t_c___h_a_l_8hpp.html" target="_top" xlink:title=" ">
<polygon fill="none" stroke="black" points="696,-134.5 696,-153.5 776,-153.5 776,-134.5 696,-134.5"/>
<text text-anchor="middle" x="736" y="-141.5" font-family="Helvetica,sans-Serif" font-size="10.00">RTC_HAL.hpp</text>
</a>
</g>
</g>
<!-- Node9&#45;&gt;Node10 -->
<g id="edge15" class="edge">
<title>Node9&#45;&gt;Node10</title>
<path fill="none" stroke="midnightblue" d="M945.92,-201.49C896.53,-188.2 823.28,-168.48 777.65,-156.21"/>
<polygon fill="midnightblue" stroke="midnightblue" points="778.36,-152.77 767.79,-153.55 776.54,-159.53 778.36,-152.77"/>
</g>
<!-- Node12 -->
<g id="node12" class="node">
<title>Node12</title>
<g id="a_node12"><a xlink:title=" ">
<polygon fill="none" stroke="#bfbfbf" points="974,-134.5 974,-153.5 1024,-153.5 1024,-134.5 974,-134.5"/>
<text text-anchor="middle" x="999" y="-141.5" font-family="Helvetica,sans-Serif" font-size="10.00">chrono</text>
</a>
</g>
</g>
<!-- Node9&#45;&gt;Node12 -->
<g id="edge19" class="edge">
<title>Node9&#45;&gt;Node12</title>
<path fill="none" stroke="midnightblue" d="M998.2,-201.23C998.35,-190.5 998.56,-175.69 998.73,-163.96"/>
<polygon fill="midnightblue" stroke="midnightblue" points="1002.23,-163.94 998.87,-153.89 995.23,-163.84 1002.23,-163.94"/>
</g>
<!-- Node13 -->
<g id="node13" class="node">
<title>Node13</title>
<g id="a_node13"><a xlink:title=" ">
<polygon fill="none" stroke="#bfbfbf" points="1042,-134.5 1042,-153.5 1098,-153.5 1098,-134.5 1042,-134.5"/>
<text text-anchor="middle" x="1070" y="-141.5" font-family="Helvetica,sans-Serif" font-size="10.00">iomanip</text>
</a>
</g>
</g>
<!-- Node9&#45;&gt;Node13 -->
<g id="edge20" class="edge">
<title>Node9&#45;&gt;Node13</title>
<path fill="none" stroke="midnightblue" d="M1012.57,-201.23C1024.44,-189.62 1041.18,-173.22 1053.53,-161.12"/>
<polygon fill="midnightblue" stroke="midnightblue" points="1056.22,-163.39 1060.92,-153.89 1051.32,-158.39 1056.22,-163.39"/>
</g>
<!-- Node14 -->
<g id="node14" class="node">
<title>Node14</title>
<g id="a_node14"><a xlink:title=" ">
<polygon fill="none" stroke="#bfbfbf" points="908,-134.5 908,-153.5 956,-153.5 956,-134.5 908,-134.5"/>
<text text-anchor="middle" x="932" y="-141.5" font-family="Helvetica,sans-Serif" font-size="10.00">thread</text>
</a>
</g>
</g>
<!-- Node9&#45;&gt;Node14 -->
<g id="edge21" class="edge">
<title>Node9&#45;&gt;Node14</title>
<path fill="none" stroke="midnightblue" d="M984.64,-201.23C973.87,-189.73 958.71,-173.53 947.42,-161.47"/>
<polygon fill="midnightblue" stroke="midnightblue" points="949.71,-158.8 940.33,-153.89 944.6,-163.59 949.71,-158.8"/>
</g>
<!-- Node10&#45;&gt;Node3 -->
<g id="edge16" class="edge">
<title>Node10&#45;&gt;Node3</title>
<path fill="none" stroke="midnightblue" d="M755.94,-134.5C766,-130.5 778.48,-125.97 790,-123 881.15,-99.54 989.2,-85.7 1057.68,-78.61"/>
<polygon fill="midnightblue" stroke="midnightblue" points="1058.31,-82.07 1067.91,-77.57 1057.6,-75.1 1058.31,-82.07"/>
</g>
<!-- Node10&#45;&gt;Node4 -->
<g id="edge17" class="edge">
<title>Node10&#45;&gt;Node4</title>
<path fill="none" stroke="midnightblue" d="M717.72,-134.43C708.65,-130.46 697.43,-125.98 687,-123 616.4,-102.83 533.88,-89.57 473.93,-81.72"/>
<polygon fill="midnightblue" stroke="midnightblue" points="474.13,-78.21 463.76,-80.41 473.23,-85.16 474.13,-78.21"/>
</g>
<!-- Node11 -->
<g id="node11" class="node">
<title>Node11</title>
<g id="a_node11"><a xlink:title=" ">
<polygon fill="none" stroke="#bfbfbf" points="714,-62 714,-81 758,-81 758,-62 714,-62"/>
<text text-anchor="middle" x="736" y="-69" font-family="Helvetica,sans-Serif" font-size="10.00">ctime</text>
</a>
</g>
</g>
<!-- Node10&#45;&gt;Node11 -->
<g id="edge18" class="edge">
<title>Node10&#45;&gt;Node11</title>
<path fill="none" stroke="midnightblue" d="M736,-134.36C736,-123.68 736,-105.22 736,-91.23"/>
<polygon fill="midnightblue" stroke="midnightblue" points="739.5,-91.22 736,-81.22 732.5,-91.22 739.5,-91.22"/>
</g>
<!-- Node15&#45;&gt;Node3 -->
<g id="edge23" class="edge">
<title>Node15&#45;&gt;Node3</title>
<path fill="none" stroke="midnightblue" d="M567.29,-275.21C639.78,-257.98 763.25,-222.66 856,-165 878.69,-150.89 875.51,-135.72 899,-123 948.28,-96.31 1010.86,-83.72 1057.83,-77.78"/>
<polygon fill="midnightblue" stroke="midnightblue" points="1058.39,-81.24 1067.91,-76.58 1057.56,-74.29 1058.39,-81.24"/>
</g>
<!-- Node15&#45;&gt;Node4 -->
<g id="edge24" class="edge">
<title>Node15&#45;&gt;Node4</title>
<path fill="none" stroke="midnightblue" d="M446.91,-286.32C363.83,-282.6 220.41,-270.59 188,-232 141.41,-176.52 226.9,-154.43 276,-123 296.3,-110 320.52,-98.81 341.48,-90.29"/>
<polygon fill="midnightblue" stroke="midnightblue" points="342.86,-93.51 350.86,-86.57 340.28,-87 342.86,-93.51"/>
</g>
<!-- Node15&#45;&gt;Node5 -->
<g id="edge36" class="edge">
<title>Node15&#45;&gt;Node5</title>
<path fill="none" stroke="midnightblue" d="M446.86,-284.71C378.11,-279.44 263.04,-265.96 170,-232 115.15,-211.98 85.9,-215.73 57,-165 29.43,-116.6 80.87,-55.15 109.17,-26.73"/>
<polygon fill="midnightblue" stroke="midnightblue" points="111.74,-29.11 116.45,-19.63 106.85,-24.1 111.74,-29.11"/>
</g>
<!-- Node15&#45;&gt;Node6 -->
<g id="edge35" class="edge">
<title>Node15&#45;&gt;Node6</title>
<path fill="none" stroke="midnightblue" d="M486.24,-268.37C449.69,-233.81 377.64,-165.67 377,-165 345.47,-131.92 325.88,-129.85 310,-87 305.21,-74.08 301.14,-66.56 310,-56 336.89,-23.95 459.49,-14.72 524.4,-12.06"/>
<polygon fill="midnightblue" stroke="midnightblue" points="524.82,-15.55 534.68,-11.68 524.55,-8.56 524.82,-15.55"/>
</g>
<!-- Node15&#45;&gt;Node9 -->
<g id="edge33" class="edge">
<title>Node15&#45;&gt;Node9</title>
<path fill="none" stroke="midnightblue" d="M567.21,-279.36C654.85,-266.77 817.81,-243.37 916.24,-229.24"/>
<polygon fill="midnightblue" stroke="midnightblue" points="916.74,-232.7 926.14,-227.82 915.75,-225.77 916.74,-232.7"/>
</g>
<!-- Node16 -->
<g id="node16" class="node">
<title>Node16</title>
<g id="a_node16"><a xlink:href="../../d9/de4/_wi_fi_base_8hpp.html" target="_top" xlink:title=" ">
<polygon fill="none" stroke="black" points="538.5,-207 538.5,-226 621.5,-226 621.5,-207 538.5,-207"/>
<text text-anchor="middle" x="580" y="-214" font-family="Helvetica,sans-Serif" font-size="10.00">WiFiBase.hpp</text>
</a>
</g>
</g>
<!-- Node15&#45;&gt;Node16 -->
<g id="edge25" class="edge">
<title>Node15&#45;&gt;Node16</title>
<path fill="none" stroke="midnightblue" d="M527.33,-268.36C538.76,-257.32 552.85,-243.72 563.57,-233.37"/>
<polygon fill="midnightblue" stroke="midnightblue" points="566.26,-235.64 571.02,-226.17 561.39,-230.6 566.26,-235.64"/>
</g>
<!-- Node18 -->
<g id="node18" class="node">
<title>Node18</title>
<g id="a_node18"><a xlink:title=" ">
<polygon fill="none" stroke="#bfbfbf" points="356,-207 356,-226 406,-226 406,-207 356,-207"/>
<text text-anchor="middle" x="381" y="-214" font-family="Helvetica,sans-Serif" font-size="10.00">cstring</text>
</a>
</g>
</g>
<!-- Node15&#45;&gt;Node18 -->
<g id="edge34" class="edge">
<title>Node15&#45;&gt;Node18</title>
<path fill="none" stroke="midnightblue" d="M471.9,-268.36C450.72,-256.51 424.27,-241.71 405.37,-231.14"/>
<polygon fill="midnightblue" stroke="midnightblue" points="406.94,-228 396.5,-226.17 403.52,-234.11 406.94,-228"/>
</g>
<!-- Node16&#45;&gt;Node3 -->
<g id="edge26" class="edge">
<title>Node16&#45;&gt;Node3</title>
<path fill="none" stroke="midnightblue" d="M621.66,-213.03C670.89,-208.72 754.16,-196.94 818,-165 843.35,-152.31 840.54,-135.47 866,-123 926.72,-93.27 1003.45,-81.03 1057.78,-76"/>
<polygon fill="midnightblue" stroke="midnightblue" points="1058.33,-79.47 1067.99,-75.11 1057.73,-72.49 1058.33,-79.47"/>
</g>
<!-- Node16&#45;&gt;Node4 -->
<g id="edge27" class="edge">
<title>Node16&#45;&gt;Node4</title>
<path fill="none" stroke="midnightblue" d="M550.81,-206.85C526.49,-198.68 491.78,-184.73 466,-165 440.54,-145.52 418.41,-115.7 404.91,-95.22"/>
<polygon fill="midnightblue" stroke="midnightblue" points="407.86,-93.32 399.51,-86.8 401.97,-97.1 407.86,-93.32"/>
</g>
<!-- Node16&#45;&gt;Node6 -->
<g id="edge32" class="edge">
<title>Node16&#45;&gt;Node6</title>
<path fill="none" stroke="midnightblue" d="M569.33,-206.76C559.06,-197.6 544.2,-182.16 538,-165 520.91,-117.71 542.69,-58.22 556.04,-28.95"/>
<polygon fill="midnightblue" stroke="midnightblue" points="559.34,-30.15 560.48,-19.61 553.02,-27.13 559.34,-30.15"/>
</g>
<!-- Node17 -->
<g id="node17" class="node">
<title>Node17</title>
<g id="a_node17"><a xlink:href="../../d5/d6f/_connector_base_8hpp.html" target="_top" xlink:title=" ">
<polygon fill="none" stroke="black" points="546.5,-123.5 546.5,-164.5 677.5,-164.5 677.5,-123.5 546.5,-123.5"/>
<text text-anchor="start" x="554.5" y="-152.5" font-family="Helvetica,sans-Serif" font-size="10.00">../../../Interfaces</text>
<text text-anchor="start" x="554.5" y="-141.5" font-family="Helvetica,sans-Serif" font-size="10.00">/ConnectorBase/include</text>
<text text-anchor="middle" x="612" y="-130.5" font-family="Helvetica,sans-Serif" font-size="10.00">/ConnectorBase.hpp</text>
</a>
</g>
</g>
<!-- Node16&#45;&gt;Node17 -->
<g id="edge28" class="edge">
<title>Node16&#45;&gt;Node17</title>
<path fill="none" stroke="midnightblue" d="M583.92,-206.86C587.66,-198.62 593.51,-185.74 598.9,-173.86"/>
<polygon fill="midnightblue" stroke="midnightblue" points="602.13,-175.21 603.08,-164.66 595.76,-172.32 602.13,-175.21"/>
</g>
<!-- Node17&#45;&gt;Node3 -->
<g id="edge29" class="edge">
<title>Node17&#45;&gt;Node3</title>
<path fill="none" stroke="midnightblue" d="M677.73,-124.89C680.85,-124.21 683.95,-123.58 687,-123 816.96,-98.33 971,-83.99 1057.74,-77.25"/>
<polygon fill="midnightblue" stroke="midnightblue" points="1058.01,-80.74 1067.71,-76.48 1057.48,-73.76 1058.01,-80.74"/>
</g>
<!-- Node17&#45;&gt;Node4 -->
<g id="edge30" class="edge">
<title>Node17&#45;&gt;Node4</title>
<path fill="none" stroke="midnightblue" d="M550.73,-123.46C517.51,-112.86 476.82,-99.88 444.82,-89.67"/>
<polygon fill="midnightblue" stroke="midnightblue" points="445.78,-86.3 435.19,-86.6 443.65,-92.97 445.78,-86.3"/>
</g>
<!-- Node17&#45;&gt;Node6 -->
<g id="edge31" class="edge">
<title>Node17&#45;&gt;Node6</title>
<path fill="none" stroke="midnightblue" d="M604.96,-123.24C595.91,-97.8 580.29,-53.95 571.5,-29.27"/>
<polygon fill="midnightblue" stroke="midnightblue" points="574.74,-27.93 568.09,-19.69 568.15,-30.28 574.74,-27.93"/>
</g>
<!-- Node19&#45;&gt;Node3 -->
<g id="edge38" class="edge">
<title>Node19&#45;&gt;Node3</title>
<path fill="none" stroke="midnightblue" d="M185.56,-138.8C360.43,-126.47 871.71,-90.43 1057.51,-77.33"/>
<polygon fill="midnightblue" stroke="midnightblue" points="1057.96,-80.81 1067.69,-76.61 1057.47,-73.82 1057.96,-80.81"/>
</g>
<!-- Node19&#45;&gt;Node4 -->
<g id="edge39" class="edge">
<title>Node19&#45;&gt;Node4</title>
<path fill="none" stroke="midnightblue" d="M177.74,-128.98C185.21,-126.96 192.8,-124.92 200,-123 242.58,-111.62 290.55,-98.93 327.76,-89.13"/>
<polygon fill="midnightblue" stroke="midnightblue" points="328.69,-92.5 337.46,-86.57 326.9,-85.73 328.69,-92.5"/>
</g>
<!-- Node19&#45;&gt;Node5 -->
<g id="edge40" class="edge">
<title>Node19&#45;&gt;Node5</title>
<path fill="none" stroke="midnightblue" d="M126,-128.87C126,-105 126,-56.68 126,-29.91"/>
<polygon fill="midnightblue" stroke="midnightblue" points="129.5,-29.6 126,-19.6 122.5,-29.6 129.5,-29.6"/>
</g>
<!-- Node21 -->
<g id="node21" class="node">
<title>Node21</title>
<g id="a_node21"><a xlink:title=" ">
<polygon fill="none" stroke="#bfbfbf" points="1350,-207 1350,-226 1388,-226 1388,-207 1350,-207"/>
<text text-anchor="middle" x="1369" y="-214" font-family="Helvetica,sans-Serif" font-size="10.00">map</text>
</a>
</g>
</g>
<!-- Node20&#45;&gt;Node21 -->
<g id="edge42" class="edge">
<title>Node20&#45;&gt;Node21</title>
<path fill="none" stroke="midnightblue" d="M1428.02,-273.73C1415.83,-262.12 1398.62,-245.72 1385.92,-233.62"/>
<polygon fill="midnightblue" stroke="midnightblue" points="1387.99,-230.76 1378.33,-226.39 1383.16,-235.83 1387.99,-230.76"/>
</g>
<!-- Node22&#45;&gt;Node3 -->
<g id="edge44" class="edge">
<title>Node22&#45;&gt;Node3</title>
<path fill="none" stroke="midnightblue" d="M299.56,-207.32C314.81,-205.07 331.55,-202.76 347,-201 444.03,-189.92 698.99,-211.26 785,-165 805.91,-153.76 797.56,-135.08 818,-123 857.51,-99.65 979.59,-85.09 1057.67,-77.91"/>
<polygon fill="midnightblue" stroke="midnightblue" points="1058.26,-81.37 1067.91,-76.99 1057.63,-74.4 1058.26,-81.37"/>
</g>
<!-- Node22&#45;&gt;Node4 -->
<g id="edge45" class="edge">
<title>Node22&#45;&gt;Node4</title>
<path fill="none" stroke="midnightblue" d="M255.79,-201.42C266.91,-182.16 288.83,-147.2 314,-123 326.29,-111.18 341.7,-100.45 355.5,-91.95"/>
<polygon fill="midnightblue" stroke="midnightblue" points="357.5,-94.83 364.29,-86.69 353.91,-88.82 357.5,-94.83"/>
</g>
<!-- Node22&#45;&gt;Node19 -->
<g id="edge46" class="edge">
<title>Node22&#45;&gt;Node19</title>
<path fill="none" stroke="midnightblue" d="M223.6,-201.4C205.15,-190.74 179.61,-175.98 159.28,-164.23"/>
<polygon fill="midnightblue" stroke="midnightblue" points="160.76,-161.05 150.35,-159.07 157.26,-167.11 160.76,-161.05"/>
</g>
<!-- Node23&#45;&gt;Node3 -->
<g id="edge48" class="edge">
<title>Node23&#45;&gt;Node3</title>
<path fill="none" stroke="midnightblue" d="M1251.58,-268.45C1268.05,-258.58 1287.38,-245.79 1303,-232 1343.83,-195.95 1393.19,-165.39 1359,-123 1338.57,-97.67 1255.33,-84.4 1194.15,-77.94"/>
<polygon fill="midnightblue" stroke="midnightblue" points="1194.45,-74.45 1184.15,-76.92 1193.74,-81.42 1194.45,-74.45"/>
</g>
<!-- Node23&#45;&gt;Node4 -->
<g id="edge49" class="edge">
<title>Node23&#45;&gt;Node4</title>
<path fill="none" stroke="midnightblue" d="M1149.14,-278.27C1122.67,-274.66 1091.94,-270.78 1064,-268 945.65,-256.24 642.11,-271.72 530,-232 507.45,-224.01 506.27,-213.7 486,-201 458.02,-183.46 442,-190.48 421,-165 404.8,-145.34 397.27,-116.72 393.83,-96.54"/>
<polygon fill="midnightblue" stroke="midnightblue" points="397.28,-95.94 392.34,-86.57 390.35,-96.98 397.28,-95.94"/>
</g>
<!-- Node23&#45;&gt;Node9 -->
<g id="edge55" class="edge">
<title>Node23&#45;&gt;Node9</title>
<path fill="none" stroke="midnightblue" d="M1155.56,-268.46C1122.93,-257.9 1083,-244.99 1051.5,-234.8"/>
<polygon fill="midnightblue" stroke="midnightblue" points="1052.18,-231.34 1041.59,-231.6 1050.03,-238 1052.18,-231.34"/>
</g>
<!-- Node23&#45;&gt;Node21 -->
<g id="edge57" class="edge">
<title>Node23&#45;&gt;Node21</title>
<path fill="none" stroke="midnightblue" d="M1258.62,-268.36C1284.92,-256.24 1317.93,-241.03 1340.96,-230.42"/>
<polygon fill="midnightblue" stroke="midnightblue" points="1342.56,-233.54 1350.18,-226.17 1339.63,-227.18 1342.56,-233.54"/>
</g>
<!-- Node23&#45;&gt;Node22 -->
<g id="edge50" class="edge">
<title>Node23&#45;&gt;Node22</title>
<path fill="none" stroke="midnightblue" d="M1149.16,-278.02C1122.7,-274.38 1091.97,-270.54 1064,-268 746.24,-239.16 664.54,-263.15 347,-232 334.91,-230.81 322.04,-229.19 309.72,-227.47"/>
<polygon fill="midnightblue" stroke="midnightblue" points="309.92,-223.96 299.52,-226 308.92,-230.89 309.92,-223.96"/>
</g>
<!-- Node24 -->
<g id="node24" class="node">
<title>Node24</title>
<g id="a_node24"><a xlink:href="../../d3/d1c/_free_r_t_o_s_8h.html" target="_top" xlink:title=" ">
<polygon fill="none" stroke="black" points="1230.5,-129 1230.5,-159 1349.5,-159 1349.5,-129 1230.5,-129"/>
<text text-anchor="start" x="1238.5" y="-147" font-family="Helvetica,sans-Serif" font-size="10.00">../../../RTOS/FreeRTOS</text>
<text text-anchor="middle" x="1290" y="-136" font-family="Helvetica,sans-Serif" font-size="10.00">/include/FreeRTOS.h</text>
</a>
</g>
</g>
<!-- Node23&#45;&gt;Node24 -->
<g id="edge51" class="edge">
<title>Node23&#45;&gt;Node24</title>
<path fill="none" stroke="midnightblue" d="M1217.18,-268.26C1218.98,-249.88 1223.53,-222.21 1235,-201 1242.13,-187.82 1253.28,-175.63 1263.69,-166.01"/>
<polygon fill="midnightblue" stroke="midnightblue" points="1266.24,-168.42 1271.42,-159.18 1261.6,-163.18 1266.24,-168.42"/>
</g>
<!-- Node25 -->
<g id="node25" class="node">
<title>Node25</title>
<g id="a_node25"><a xlink:title=" ">
<polygon fill="none" stroke="#bfbfbf" points="1244,-207 1244,-226 1294,-226 1294,-207 1244,-207"/>
<text text-anchor="middle" x="1269" y="-214" font-family="Helvetica,sans-Serif" font-size="10.00">atomic</text>
</a>
</g>
</g>
<!-- Node23&#45;&gt;Node25 -->
<g id="edge56" class="edge">
<title>Node23&#45;&gt;Node25</title>
<path fill="none" stroke="midnightblue" d="M1230.76,-268.36C1238.82,-257.65 1248.69,-244.52 1256.38,-234.29"/>
<polygon fill="midnightblue" stroke="midnightblue" points="1259.27,-236.27 1262.48,-226.17 1253.67,-232.06 1259.27,-236.27"/>
</g>
<!-- Node24&#45;&gt;Node3 -->
<g id="edge52" class="edge">
<title>Node24&#45;&gt;Node3</title>
<path fill="none" stroke="midnightblue" d="M1257.21,-128.9C1231.62,-117.9 1195.89,-102.54 1168.18,-90.63"/>
<polygon fill="midnightblue" stroke="midnightblue" points="1169.31,-87.31 1158.74,-86.57 1166.54,-93.74 1169.31,-87.31"/>
</g>
<!-- Node24&#45;&gt;Node4 -->
<g id="edge53" class="edge">
<title>Node24&#45;&gt;Node4</title>
<path fill="none" stroke="midnightblue" d="M1230.3,-135.89C1194.57,-131.78 1148.22,-126.7 1107,-123 878.08,-102.43 607.35,-85.28 473.89,-77.31"/>
<polygon fill="midnightblue" stroke="midnightblue" points="473.93,-73.8 463.74,-76.7 473.52,-80.79 473.93,-73.8"/>
</g>
<!-- Node24&#45;&gt;Node6 -->
<g id="edge54" class="edge">
<title>Node24&#45;&gt;Node6</title>
<path fill="none" stroke="midnightblue" d="M1279.34,-128.76C1263.21,-108.46 1230.48,-71.91 1193,-56 1086.53,-10.82 726.97,-9.59 605.49,-10.51"/>
<polygon fill="midnightblue" stroke="midnightblue" points="605.12,-7.02 595.15,-10.6 605.18,-14.02 605.12,-7.02"/>
</g>
<!-- Node26&#45;&gt;Node3 -->
<g id="edge59" class="edge">
<title>Node26&#45;&gt;Node3</title>
<path fill="none" stroke="midnightblue" d="M1239.74,-346.33C1255.15,-336.76 1275.37,-323.45 1292,-310 1312.77,-293.2 1313.73,-284.16 1335,-268 1360.37,-248.72 1381.1,-259.61 1397,-232 1412.68,-204.77 1390.01,-134.53 1378,-123 1352.18,-98.22 1259.77,-84.67 1194.36,-78"/>
<polygon fill="midnightblue" stroke="midnightblue" points="1194.4,-74.49 1184.11,-76.99 1193.71,-81.45 1194.4,-74.49"/>
</g>
<!-- Node26&#45;&gt;Node4 -->
<g id="edge60" class="edge">
<title>Node26&#45;&gt;Node4</title>
<path fill="none" stroke="midnightblue" d="M1137.77,-351.34C1119.49,-349.4 1100.07,-347.48 1082,-346 939.14,-334.29 570.99,-363.46 438,-310 388.58,-290.13 369.26,-280.4 347,-232 325.7,-185.68 355.08,-126.92 375.11,-95.24"/>
<polygon fill="midnightblue" stroke="midnightblue" points="378.16,-96.97 380.71,-86.68 372.3,-93.13 378.16,-96.97"/>
</g>
<!-- Node26&#45;&gt;Node6 -->
<g id="edge64" class="edge">
<title>Node26&#45;&gt;Node6</title>
<path fill="none" stroke="midnightblue" d="M1256.17,-346.41C1278.15,-337.7 1305.26,-325.27 1327,-310 1348.35,-295.01 1348.67,-285.51 1368,-268 1386.98,-250.8 1401.9,-255.08 1413,-232 1424.74,-207.57 1412.8,-137.71 1401,-123 1349.67,-59 1309.07,-73.87 1229,-56 1109.15,-29.26 730.57,-15.9 605.52,-12.14"/>
<polygon fill="midnightblue" stroke="midnightblue" points="605.35,-8.63 595.25,-11.83 605.14,-15.63 605.35,-8.63"/>
</g>
<!-- Node26&#45;&gt;Node9 -->
<g id="edge62" class="edge">
<title>Node26&#45;&gt;Node9</title>
<path fill="none" stroke="midnightblue" d="M1194.3,-346.27C1155.13,-320.57 1072.53,-266.39 1027.99,-237.17"/>
<polygon fill="midnightblue" stroke="midnightblue" points="1029.89,-234.23 1019.61,-231.68 1026.05,-240.09 1029.89,-234.23"/>
</g>
<!-- Node26&#45;&gt;Node20 -->
<g id="edge61" class="edge">
<title>Node26&#45;&gt;Node20</title>
<path fill="none" stroke="midnightblue" d="M1261.12,-346.49C1297.59,-335.16 1349.09,-319.17 1387.98,-307.09"/>
<polygon fill="midnightblue" stroke="midnightblue" points="1389.07,-310.42 1397.58,-304.11 1386.99,-303.73 1389.07,-310.42"/>
</g>
<!-- Node26&#45;&gt;Node23 -->
<g id="edge63" class="edge">
<title>Node26&#45;&gt;Node23</title>
<path fill="none" stroke="midnightblue" d="M1216,-346.23C1216,-338.57 1216,-328.84 1216,-319.63"/>
<polygon fill="midnightblue" stroke="midnightblue" points="1219.5,-319.59 1216,-309.59 1212.5,-319.59 1219.5,-319.59"/>
</g>
</g>
</svg>
