<?xml version="1.0" encoding="UTF-8" standalone="no"?>
<!DOCTYPE svg PUBLIC "-//W3C//DTD SVG 1.1//EN"
 "http://www.w3.org/Graphics/SVG/1.1/DTD/svg11.dtd">
<!-- Generated by graphviz version 2.43.0 (0)
 -->
<!-- Title: Components/Objects/Maintainer/src/Maintainer.cpp Pages: 1 -->
<!--zoomable 497 -->
<svg id="main" version="1.1" xmlns="http://www.w3.org/2000/svg" xmlns:xlink="http://www.w3.org/1999/xlink" xml:space="preserve" onload="init(evt)">
<style type="text/css"><![CDATA[
.edge:hover path { stroke: red; }
.edge:hover polygon { stroke: red; fill: red; }
]]></style>
<script type="text/javascript"><![CDATA[
var edges = document.getElementsByTagName('g');
if (edges && edges.length) {
  for (var i=0;i<edges.length;i++) {
    if (edges[i].id.substr(0,4)=='edge') {
      edges[i].setAttribute('class','edge');
    }
  }
}
]]></script>
        <defs>
                <circle id="rim" cx="0" cy="0" r="7"/>
                <circle id="rim2" cx="0" cy="0" r="3.5"/>
                <g id="zoomPlus">
                        <use xlink:href="#rim" fill="#404040">
                                <set attributeName="fill" to="#808080" begin="zoomplus.mouseover" end="zoomplus.mouseout"/>
                        </use>
                        <path d="M-4,0h8M0,-4v8" fill="none" stroke="white" stroke-width="1.5" pointer-events="none"/>
                </g>
                <g id="zoomMin">
                        <use xlink:href="#rim" fill="#404040">
                                <set attributeName="fill" to="#808080" begin="zoomminus.mouseover" end="zoomminus.mouseout"/>
                        </use>
                        <path d="M-4,0h8" fill="none" stroke="white" stroke-width="1.5" pointer-events="none"/>
                </g>
                <g id="dirArrow">
                        <path fill="none" stroke="white" stroke-width="1.5" d="M0,-3.0v7 M-2.5,-0.5L0,-3.0L2.5,-0.5"/>
                </g>
               <g id="resetDef">
                       <use xlink:href="#rim2" fill="#404040">
                               <set attributeName="fill" to="#808080" begin="reset.mouseover" end="reset.mouseout"/>
                       </use>
               </g>
        </defs>

<script type="text/javascript">
var viewWidth = 1465;
var viewHeight = 497;
var sectionId = 'dynsection-0';
</script>
<script xlink:href="../../svgpan.js"/>
<svg id="graph" class="graph">
<g id="viewport">
<title>Components/Objects/Maintainer/src/Maintainer.cpp</title>
<!-- Node1 -->
<g id="node1" class="node">
<title>Node1</title>
<g id="a_node1"><a xlink:title=" ">
<polygon fill="#bfbfbf" stroke="black" points="970.5,-458.5 970.5,-488.5 1135.5,-488.5 1135.5,-458.5 970.5,-458.5"/>
<text text-anchor="start" x="978.5" y="-476.5" font-family="Helvetica,sans-Serif" font-size="10.00">Components/Objects</text>
<text text-anchor="middle" x="1053" y="-465.5" font-family="Helvetica,sans-Serif" font-size="10.00">/Maintainer/src/Maintainer.cpp</text>
</a>
</g>
</g>
<!-- Node2 -->
<g id="node2" class="node">
<title>Node2</title>
<g id="a_node2"><a xlink:href="../../d0/d6a/_maintainer_8hpp.html" target="_top" xlink:title=" ">
<polygon fill="none" stroke="black" points="984.5,-402.5 984.5,-421.5 1121.5,-421.5 1121.5,-402.5 984.5,-402.5"/>
<text text-anchor="middle" x="1053" y="-409.5" font-family="Helvetica,sans-Serif" font-size="10.00">../include/Maintainer.hpp</text>
</a>
</g>
</g>
<!-- Node1&#45;&gt;Node2 -->
<g id="edge1" class="edge">
<title>Node1&#45;&gt;Node2</title>
<path fill="none" stroke="midnightblue" d="M1053,-458.4C1053,-450.47 1053,-440.46 1053,-431.86"/>
<polygon fill="midnightblue" stroke="midnightblue" points="1056.5,-431.66 1053,-421.66 1049.5,-431.66 1056.5,-431.66"/>
</g>
<!-- Node3 -->
<g id="node3" class="node">
<title>Node3</title>
<g id="a_node3"><a xlink:href="../../da/d5f/_b_a_s_i_c_8hpp.html" target="_top" xlink:title=" ">
<polygon fill="none" stroke="black" points="453,-56.5 453,-86.5 569,-86.5 569,-56.5 453,-56.5"/>
<text text-anchor="start" x="461" y="-74.5" font-family="Helvetica,sans-Serif" font-size="10.00">../../../Global_Include</text>
<text text-anchor="middle" x="511" y="-63.5" font-family="Helvetica,sans-Serif" font-size="10.00">/BASIC.hpp</text>
</a>
</g>
</g>
<!-- Node2&#45;&gt;Node3 -->
<g id="edge2" class="edge">
<title>Node2&#45;&gt;Node3</title>
<path fill="none" stroke="midnightblue" d="M984.32,-409.64C750.51,-404.09 0,-378.55 0,-279 0,-279 0,-279 0,-204.5 0,-160.55 18.3,-145.58 56,-123 88.42,-103.58 323.84,-85.14 442.71,-76.94"/>
<polygon fill="midnightblue" stroke="midnightblue" points="443.06,-80.43 452.8,-76.25 442.58,-73.44 443.06,-80.43"/>
</g>
<!-- Node4 -->
<g id="node4" class="node">
<title>Node4</title>
<g id="a_node4"><a xlink:href="../../d3/deb/_general___error_8hpp.html" target="_top" xlink:title=" ">
<polygon fill="none" stroke="black" points="872,-56.5 872,-86.5 1018,-86.5 1018,-56.5 872,-56.5"/>
<text text-anchor="start" x="880" y="-74.5" font-family="Helvetica,sans-Serif" font-size="10.00">../../../Objects/ErrorHandler</text>
<text text-anchor="middle" x="945" y="-63.5" font-family="Helvetica,sans-Serif" font-size="10.00">/include/General_Error.hpp</text>
</a>
</g>
</g>
<!-- Node2&#45;&gt;Node4 -->
<g id="edge3" class="edge">
<title>Node2&#45;&gt;Node4</title>
<path fill="none" stroke="midnightblue" d="M1098.95,-402.49C1189.22,-384.46 1381,-339.08 1381,-279 1381,-279 1381,-279 1381,-204.5 1381,-155.57 1350.26,-145.86 1307,-123 1260.09,-98.21 1119.99,-84.26 1028.47,-77.56"/>
<polygon fill="midnightblue" stroke="midnightblue" points="1028.62,-74.07 1018.39,-76.84 1028.11,-81.05 1028.62,-74.07"/>
</g>
<!-- Node7 -->
<g id="node7" class="node">
<title>Node7</title>
<g id="a_node7"><a xlink:href="../../da/d81/_fault___handler_8hpp.html" target="_top" xlink:title=" ">
<polygon fill="none" stroke="black" points="515,-335.5 515,-365.5 661,-365.5 661,-335.5 515,-335.5"/>
<text text-anchor="start" x="523" y="-353.5" font-family="Helvetica,sans-Serif" font-size="10.00">../../../Objects/FaultHandler</text>
<text text-anchor="middle" x="588" y="-342.5" font-family="Helvetica,sans-Serif" font-size="10.00">/include/Fault_Handler.hpp</text>
</a>
</g>
</g>
<!-- Node2&#45;&gt;Node7 -->
<g id="edge6" class="edge">
<title>Node2&#45;&gt;Node7</title>
<path fill="none" stroke="midnightblue" d="M986.38,-402.48C903.32,-391.85 761.32,-373.68 671.2,-362.15"/>
<polygon fill="midnightblue" stroke="midnightblue" points="671.38,-358.64 661.01,-360.84 670.49,-365.58 671.38,-358.64"/>
</g>
<!-- Node15 -->
<g id="node15" class="node">
<title>Node15</title>
<g id="a_node15"><a xlink:href="../../de/d7c/_wi_fi___a_p_i_8hpp.html" target="_top" xlink:title=" ">
<polygon fill="none" stroke="black" points="609.5,-263 609.5,-293 752.5,-293 752.5,-263 609.5,-263"/>
<text text-anchor="start" x="617.5" y="-281" font-family="Helvetica,sans-Serif" font-size="10.00">../../../Connector</text>
<text text-anchor="middle" x="681" y="-270" font-family="Helvetica,sans-Serif" font-size="10.00">/WiFi/include/WiFi_API.hpp</text>
</a>
</g>
</g>
<!-- Node2&#45;&gt;Node15 -->
<g id="edge22" class="edge">
<title>Node2&#45;&gt;Node15</title>
<path fill="none" stroke="midnightblue" d="M1028.88,-402.44C968.7,-381.09 810.96,-325.12 730.2,-296.46"/>
<polygon fill="midnightblue" stroke="midnightblue" points="731.34,-293.15 720.74,-293.1 728.99,-299.74 731.34,-293.15"/>
</g>
<!-- Node20 -->
<g id="node20" class="node">
<title>Node20</title>
<g id="a_node20"><a xlink:href="../../d5/dc5/_task_8h.html" target="_top" xlink:title=" ">
<polygon fill="none" stroke="black" points="986,-123.5 986,-153.5 1106,-153.5 1106,-123.5 986,-123.5"/>
<text text-anchor="start" x="994" y="-141.5" font-family="Helvetica,sans-Serif" font-size="10.00">../../../RTOS/FreeRTOS</text>
<text text-anchor="middle" x="1046" y="-130.5" font-family="Helvetica,sans-Serif" font-size="10.00">/include/Task.h</text>
</a>
</g>
</g>
<!-- Node2&#45;&gt;Node20 -->
<g id="edge36" class="edge">
<title>Node2&#45;&gt;Node20</title>
<path fill="none" stroke="midnightblue" d="M1051.73,-402.16C1047.61,-372.3 1035.12,-272.49 1040,-190 1040.51,-181.42 1041.5,-172.06 1042.53,-163.76"/>
<polygon fill="midnightblue" stroke="midnightblue" points="1046.03,-163.98 1043.87,-153.61 1039.09,-163.06 1046.03,-163.98"/>
</g>
<!-- Node21 -->
<g id="node21" class="node">
<title>Node21</title>
<g id="a_node21"><a xlink:href="../../de/dd1/_o_t_a_8hpp.html" target="_top" xlink:title=" ">
<polygon fill="none" stroke="black" points="1049,-190.5 1049,-220.5 1153,-220.5 1153,-190.5 1049,-190.5"/>
<text text-anchor="start" x="1057" y="-208.5" font-family="Helvetica,sans-Serif" font-size="10.00">../../../Objects/OTA</text>
<text text-anchor="middle" x="1101" y="-197.5" font-family="Helvetica,sans-Serif" font-size="10.00">/include/OTA.hpp</text>
</a>
</g>
</g>
<!-- Node2&#45;&gt;Node21 -->
<g id="edge40" class="edge">
<title>Node2&#45;&gt;Node21</title>
<path fill="none" stroke="midnightblue" d="M1055,-402.47C1061.87,-373.22 1084.63,-276.24 1095.34,-230.62"/>
<polygon fill="midnightblue" stroke="midnightblue" points="1098.79,-231.23 1097.67,-220.7 1091.98,-229.63 1098.79,-231.23"/>
</g>
<!-- Node22 -->
<g id="node22" class="node">
<title>Node22</title>
<g id="a_node22"><a xlink:href="../../d4/d63/mqtt__api__v2_8hpp.html" target="_top" xlink:title=" ">
<polygon fill="none" stroke="black" points="1114.5,-257.5 1114.5,-298.5 1247.5,-298.5 1247.5,-257.5 1114.5,-257.5"/>
<text text-anchor="start" x="1122.5" y="-286.5" font-family="Helvetica,sans-Serif" font-size="10.00">../../../Protocols</text>
<text text-anchor="start" x="1122.5" y="-275.5" font-family="Helvetica,sans-Serif" font-size="10.00">/MQTT/include/mqtt_api</text>
<text text-anchor="middle" x="1181" y="-264.5" font-family="Helvetica,sans-Serif" font-size="10.00">_v2.hpp</text>
</a>
</g>
</g>
<!-- Node2&#45;&gt;Node22 -->
<g id="edge44" class="edge">
<title>Node2&#45;&gt;Node22</title>
<path fill="none" stroke="midnightblue" d="M1061.4,-402.34C1080.06,-383.09 1125.64,-336.09 1154.83,-305.99"/>
<polygon fill="midnightblue" stroke="midnightblue" points="1157.42,-308.34 1161.87,-298.73 1152.4,-303.47 1157.42,-308.34"/>
</g>
<!-- Node26 -->
<g id="node26" class="node">
<title>Node26</title>
<g id="a_node26"><a xlink:title=" ">
<polygon fill="none" stroke="#bfbfbf" points="1409.5,-341 1409.5,-360 1456.5,-360 1456.5,-341 1409.5,-341"/>
<text text-anchor="middle" x="1433" y="-348" font-family="Helvetica,sans-Serif" font-size="10.00">vector</text>
</a>
</g>
</g>
<!-- Node2&#45;&gt;Node26 -->
<g id="edge54" class="edge">
<title>Node2&#45;&gt;Node26</title>
<path fill="none" stroke="midnightblue" d="M1121.69,-406.7C1191.39,-401.23 1301.96,-389.53 1395,-366 1397.82,-365.29 1400.72,-364.43 1403.6,-363.48"/>
<polygon fill="midnightblue" stroke="midnightblue" points="1404.93,-366.73 1413.17,-360.07 1402.57,-360.14 1404.93,-366.73"/>
</g>
<!-- Node5 -->
<g id="node5" class="node">
<title>Node5</title>
<g id="a_node5"><a xlink:title=" ">
<polygon fill="none" stroke="#bfbfbf" points="973,-0.5 973,-19.5 1017,-19.5 1017,-0.5 973,-0.5"/>
<text text-anchor="middle" x="995" y="-7.5" font-family="Helvetica,sans-Serif" font-size="10.00">string</text>
</a>
</g>
</g>
<!-- Node4&#45;&gt;Node5 -->
<g id="edge4" class="edge">
<title>Node4&#45;&gt;Node5</title>
<path fill="none" stroke="midnightblue" d="M956.85,-56.4C964.11,-47.75 973.45,-36.64 981.07,-27.58"/>
<polygon fill="midnightblue" stroke="midnightblue" points="983.97,-29.57 987.72,-19.66 978.61,-25.06 983.97,-29.57"/>
</g>
<!-- Node6 -->
<g id="node6" class="node">
<title>Node6</title>
<g id="a_node6"><a xlink:title=" ">
<polygon fill="none" stroke="#bfbfbf" points="1079,-0.5 1079,-19.5 1139,-19.5 1139,-0.5 1079,-0.5"/>
<text text-anchor="middle" x="1109" y="-7.5" font-family="Helvetica,sans-Serif" font-size="10.00">iostream</text>
</a>
</g>
</g>
<!-- Node4&#45;&gt;Node6 -->
<g id="edge5" class="edge">
<title>Node4&#45;&gt;Node6</title>
<path fill="none" stroke="midnightblue" d="M983.87,-56.4C1011.75,-46.28 1048.94,-32.79 1075.51,-23.15"/>
<polygon fill="midnightblue" stroke="midnightblue" points="1076.93,-26.36 1085.14,-19.66 1074.54,-19.78 1076.93,-26.36"/>
</g>
<!-- Node7&#45;&gt;Node3 -->
<g id="edge7" class="edge">
<title>Node7&#45;&gt;Node3</title>
<path fill="none" stroke="midnightblue" d="M514.91,-341.85C387.41,-326.85 132.75,-288.95 79,-221 51.98,-186.84 49.04,-155.54 78,-123 101.78,-96.28 326.56,-81.49 442.52,-75.57"/>
<polygon fill="midnightblue" stroke="midnightblue" points="442.9,-79.06 452.71,-75.06 442.55,-72.07 442.9,-79.06"/>
</g>
<!-- Node7&#45;&gt;Node4 -->
<g id="edge8" class="edge">
<title>Node7&#45;&gt;Node4</title>
<path fill="none" stroke="midnightblue" d="M655.41,-335.46C722.23,-318.49 823.92,-284.01 890,-221 915.96,-196.25 922.47,-187.61 935,-154 941.84,-135.66 944.22,-113.54 944.95,-96.98"/>
<polygon fill="midnightblue" stroke="midnightblue" points="948.46,-96.61 945.24,-86.52 941.47,-96.42 948.46,-96.61"/>
</g>
<!-- Node8 -->
<g id="node8" class="node">
<title>Node8</title>
<g id="a_node8"><a xlink:href="../../d3/de3/_logger_8hpp.html" target="_top" xlink:title=" ">
<polygon fill="none" stroke="black" points="397,-263 397,-293 513,-293 513,-263 397,-263"/>
<text text-anchor="start" x="405" y="-281" font-family="Helvetica,sans-Serif" font-size="10.00">../../../Objects/Logger</text>
<text text-anchor="middle" x="455" y="-270" font-family="Helvetica,sans-Serif" font-size="10.00">/include/Logger.hpp</text>
</a>
</g>
</g>
<!-- Node7&#45;&gt;Node8 -->
<g id="edge9" class="edge">
<title>Node7&#45;&gt;Node8</title>
<path fill="none" stroke="midnightblue" d="M561.41,-335.4C541.02,-324.6 512.69,-309.58 490.39,-297.76"/>
<polygon fill="midnightblue" stroke="midnightblue" points="492.02,-294.66 481.55,-293.07 488.75,-300.85 492.02,-294.66"/>
</g>
<!-- Node8&#45;&gt;Node3 -->
<g id="edge10" class="edge">
<title>Node8&#45;&gt;Node3</title>
<path fill="none" stroke="midnightblue" d="M396.88,-276.59C306.19,-274.58 137.5,-264.87 100,-221 71.7,-187.89 71.14,-155.62 100,-123 122.29,-97.81 331.66,-82.46 442.65,-76.03"/>
<polygon fill="midnightblue" stroke="midnightblue" points="442.97,-79.51 452.75,-75.45 442.57,-72.53 442.97,-79.51"/>
</g>
<!-- Node8&#45;&gt;Node4 -->
<g id="edge11" class="edge">
<title>Node8&#45;&gt;Node4</title>
<path fill="none" stroke="midnightblue" d="M513.29,-267.79C594.77,-254.67 735.23,-231.09 757,-221 776.78,-211.84 777.98,-203.61 795,-190 837.98,-155.64 888.45,-116.32 918.52,-92.99"/>
<polygon fill="midnightblue" stroke="midnightblue" points="920.67,-95.75 926.43,-86.85 916.39,-90.21 920.67,-95.75"/>
</g>
<!-- Node9 -->
<g id="node9" class="node">
<title>Node9</title>
<g id="a_node9"><a xlink:href="../../d7/d60/_timeservice_8hpp.html" target="_top" xlink:title=" ">
<polygon fill="none" stroke="black" points="339.5,-190.5 339.5,-220.5 482.5,-220.5 482.5,-190.5 339.5,-190.5"/>
<text text-anchor="start" x="347.5" y="-208.5" font-family="Helvetica,sans-Serif" font-size="10.00">../../../Objects/Timeservice</text>
<text text-anchor="middle" x="411" y="-197.5" font-family="Helvetica,sans-Serif" font-size="10.00">/include/Timeservice.hpp</text>
</a>
</g>
</g>
<!-- Node8&#45;&gt;Node9 -->
<g id="edge12" class="edge">
<title>Node8&#45;&gt;Node9</title>
<path fill="none" stroke="midnightblue" d="M446.1,-262.73C440.13,-253.18 432.15,-240.39 425.3,-229.42"/>
<polygon fill="midnightblue" stroke="midnightblue" points="428.15,-227.38 419.89,-220.75 422.22,-231.08 428.15,-227.38"/>
</g>
<!-- Node9&#45;&gt;Node3 -->
<g id="edge13" class="edge">
<title>Node9&#45;&gt;Node3</title>
<path fill="none" stroke="midnightblue" d="M343.27,-190.48C295.66,-177.51 244.77,-155.32 271,-123 292.28,-96.77 379.38,-83.66 442.53,-77.47"/>
<polygon fill="midnightblue" stroke="midnightblue" points="443.21,-80.93 452.84,-76.51 442.56,-73.96 443.21,-80.93"/>
</g>
<!-- Node9&#45;&gt;Node4 -->
<g id="edge14" class="edge">
<title>Node9&#45;&gt;Node4</title>
<path fill="none" stroke="midnightblue" d="M448.35,-190.46C474.83,-180.45 511.17,-166.58 543,-154 576.93,-140.59 583.85,-132.75 619,-123 699.97,-100.55 795.21,-87.24 861.77,-79.98"/>
<polygon fill="midnightblue" stroke="midnightblue" points="862.21,-83.45 871.78,-78.9 861.47,-76.49 862.21,-83.45"/>
</g>
<!-- Node10 -->
<g id="node10" class="node">
<title>Node10</title>
<g id="a_node10"><a xlink:href="../../d6/d4b/_r_t_c___h_a_l_8hpp.html" target="_top" xlink:title=" ">
<polygon fill="none" stroke="black" points="142.5,-129 142.5,-148 223.5,-148 223.5,-129 142.5,-129"/>
<text text-anchor="middle" x="183" y="-136" font-family="Helvetica,sans-Serif" font-size="10.00">RTC_HAL.hpp</text>
</a>
</g>
</g>
<!-- Node9&#45;&gt;Node10 -->
<g id="edge15" class="edge">
<title>Node9&#45;&gt;Node10</title>
<path fill="none" stroke="midnightblue" d="M361.81,-190.48C320.23,-178.62 261.43,-161.86 222.77,-150.84"/>
<polygon fill="midnightblue" stroke="midnightblue" points="223.49,-147.4 212.92,-148.03 221.57,-154.14 223.49,-147.4"/>
</g>
<!-- Node12 -->
<g id="node12" class="node">
<title>Node12</title>
<g id="a_node12"><a xlink:title=" ">
<polygon fill="none" stroke="#bfbfbf" points="280,-129 280,-148 330,-148 330,-129 280,-129"/>
<text text-anchor="middle" x="305" y="-136" font-family="Helvetica,sans-Serif" font-size="10.00">chrono</text>
</a>
</g>
</g>
<!-- Node9&#45;&gt;Node12 -->
<g id="edge19" class="edge">
<title>Node9&#45;&gt;Node12</title>
<path fill="none" stroke="midnightblue" d="M388,-190.4C370.06,-179.39 345.28,-164.2 327.48,-153.28"/>
<polygon fill="midnightblue" stroke="midnightblue" points="329.23,-150.25 318.87,-148.01 325.57,-156.22 329.23,-150.25"/>
</g>
<!-- Node13 -->
<g id="node13" class="node">
<title>Node13</title>
<g id="a_node13"><a xlink:title=" ">
<polygon fill="none" stroke="#bfbfbf" points="348,-129 348,-148 404,-148 404,-129 348,-129"/>
<text text-anchor="middle" x="376" y="-136" font-family="Helvetica,sans-Serif" font-size="10.00">iomanip</text>
</a>
</g>
</g>
<!-- Node9&#45;&gt;Node13 -->
<g id="edge20" class="edge">
<title>Node9&#45;&gt;Node13</title>
<path fill="none" stroke="midnightblue" d="M403.41,-190.4C398.16,-180.66 391.16,-167.65 385.54,-157.21"/>
<polygon fill="midnightblue" stroke="midnightblue" points="388.5,-155.34 380.68,-148.19 382.34,-158.66 388.5,-155.34"/>
</g>
<!-- Node14 -->
<g id="node14" class="node">
<title>Node14</title>
<g id="a_node14"><a xlink:title=" ">
<polygon fill="none" stroke="#bfbfbf" points="422,-129 422,-148 470,-148 470,-129 422,-129"/>
<text text-anchor="middle" x="446" y="-136" font-family="Helvetica,sans-Serif" font-size="10.00">thread</text>
</a>
</g>
</g>
<!-- Node9&#45;&gt;Node14 -->
<g id="edge21" class="edge">
<title>Node9&#45;&gt;Node14</title>
<path fill="none" stroke="midnightblue" d="M418.59,-190.4C423.84,-180.66 430.84,-167.65 436.46,-157.21"/>
<polygon fill="midnightblue" stroke="midnightblue" points="439.66,-158.66 441.32,-148.19 433.5,-155.34 439.66,-158.66"/>
</g>
<!-- Node10&#45;&gt;Node3 -->
<g id="edge16" class="edge">
<title>Node10&#45;&gt;Node3</title>
<path fill="none" stroke="midnightblue" d="M213.73,-128.96C221.62,-126.89 230.1,-124.77 238,-123 307.41,-107.45 387.51,-93.05 442.91,-83.64"/>
<polygon fill="midnightblue" stroke="midnightblue" points="443.68,-87.06 452.96,-81.94 442.52,-80.16 443.68,-87.06"/>
</g>
<!-- Node10&#45;&gt;Node4 -->
<g id="edge17" class="edge">
<title>Node10&#45;&gt;Node4</title>
<path fill="none" stroke="midnightblue" d="M223.64,-130.03C238.5,-127.51 255.47,-124.86 271,-123 483.13,-97.63 734.44,-82.8 861.91,-76.35"/>
<polygon fill="midnightblue" stroke="midnightblue" points="862.17,-79.85 871.99,-75.85 861.82,-72.85 862.17,-79.85"/>
</g>
<!-- Node11 -->
<g id="node11" class="node">
<title>Node11</title>
<g id="a_node11"><a xlink:title=" ">
<polygon fill="none" stroke="#bfbfbf" points="161,-62 161,-81 205,-81 205,-62 161,-62"/>
<text text-anchor="middle" x="183" y="-69" font-family="Helvetica,sans-Serif" font-size="10.00">ctime</text>
</a>
</g>
</g>
<!-- Node10&#45;&gt;Node11 -->
<g id="edge18" class="edge">
<title>Node10&#45;&gt;Node11</title>
<path fill="none" stroke="midnightblue" d="M183,-128.73C183,-119.18 183,-103.62 183,-91.28"/>
<polygon fill="midnightblue" stroke="midnightblue" points="186.5,-91.13 183,-81.13 179.5,-91.13 186.5,-91.13"/>
</g>
<!-- Node15&#45;&gt;Node3 -->
<g id="edge23" class="edge">
<title>Node15&#45;&gt;Node3</title>
<path fill="none" stroke="midnightblue" d="M609.44,-267.05C522.66,-254.72 381.58,-233.79 330,-221 240.24,-198.75 186.85,-229.19 133,-154 124.98,-142.8 123.93,-133.37 133,-123 153.05,-100.1 339.31,-84.04 442.67,-76.81"/>
<polygon fill="midnightblue" stroke="midnightblue" points="442.98,-80.3 452.71,-76.12 442.49,-73.32 442.98,-80.3"/>
</g>
<!-- Node15&#45;&gt;Node4 -->
<g id="edge24" class="edge">
<title>Node15&#45;&gt;Node4</title>
<path fill="none" stroke="midnightblue" d="M752.67,-267.94C788.9,-260.35 831.7,-246.44 863,-221 903.63,-187.98 927.37,-129.22 938.09,-96.38"/>
<polygon fill="midnightblue" stroke="midnightblue" points="941.47,-97.29 941.12,-86.7 934.79,-95.2 941.47,-97.29"/>
</g>
<!-- Node15&#45;&gt;Node9 -->
<g id="edge25" class="edge">
<title>Node15&#45;&gt;Node9</title>
<path fill="none" stroke="midnightblue" d="M627.33,-262.99C583.49,-251.54 521.4,-235.33 474.98,-223.21"/>
<polygon fill="midnightblue" stroke="midnightblue" points="475.59,-219.75 465.03,-220.61 473.82,-226.52 475.59,-219.75"/>
</g>
<!-- Node16 -->
<g id="node16" class="node">
<title>Node16</title>
<g id="a_node16"><a xlink:title=" ">
<polygon fill="none" stroke="#bfbfbf" points="804,-196 804,-215 854,-215 854,-196 804,-196"/>
<text text-anchor="middle" x="829" y="-203" font-family="Helvetica,sans-Serif" font-size="10.00">cstring</text>
</a>
</g>
</g>
<!-- Node15&#45;&gt;Node16 -->
<g id="edge26" class="edge">
<title>Node15&#45;&gt;Node16</title>
<path fill="none" stroke="midnightblue" d="M710.59,-262.9C737.22,-250.22 776.03,-231.73 801.87,-219.42"/>
<polygon fill="midnightblue" stroke="midnightblue" points="803.56,-222.49 811.09,-215.03 800.55,-216.17 803.56,-222.49"/>
</g>
<!-- Node17 -->
<g id="node17" class="node">
<title>Node17</title>
<g id="a_node17"><a xlink:href="../../d7/d2f/_wi_fi_8h.html" target="_top" xlink:title=" ">
<polygon fill="none" stroke="black" points="488,-129 488,-148 534,-148 534,-129 488,-129"/>
<text text-anchor="middle" x="511" y="-136" font-family="Helvetica,sans-Serif" font-size="10.00">WiFi.h</text>
</a>
</g>
</g>
<!-- Node15&#45;&gt;Node17 -->
<g id="edge27" class="edge">
<title>Node15&#45;&gt;Node17</title>
<path fill="none" stroke="midnightblue" d="M660.99,-262.92C645.48,-251.84 623.56,-235.84 605,-221 577.35,-198.89 546.58,-171.68 528.01,-154.97"/>
<polygon fill="midnightblue" stroke="midnightblue" points="530.16,-152.19 520.39,-148.09 525.47,-157.39 530.16,-152.19"/>
</g>
<!-- Node18 -->
<g id="node18" class="node">
<title>Node18</title>
<g id="a_node18"><a xlink:href="../../d0/db3/_wi_fi___event___handler_8hpp.html" target="_top" xlink:title=" ">
<polygon fill="none" stroke="black" points="614,-196 614,-215 748,-215 748,-196 614,-196"/>
<text text-anchor="middle" x="681" y="-203" font-family="Helvetica,sans-Serif" font-size="10.00">WiFi_Event_Handler.hpp</text>
</a>
</g>
</g>
<!-- Node15&#45;&gt;Node18 -->
<g id="edge30" class="edge">
<title>Node15&#45;&gt;Node18</title>
<path fill="none" stroke="midnightblue" d="M681,-262.73C681,-252 681,-237.19 681,-225.46"/>
<polygon fill="midnightblue" stroke="midnightblue" points="684.5,-225.39 681,-215.39 677.5,-225.39 684.5,-225.39"/>
</g>
<!-- Node17&#45;&gt;Node3 -->
<g id="edge28" class="edge">
<title>Node17&#45;&gt;Node3</title>
<path fill="none" stroke="midnightblue" d="M511,-128.73C511,-120.54 511,-107.92 511,-96.71"/>
<polygon fill="midnightblue" stroke="midnightblue" points="514.5,-96.59 511,-86.59 507.5,-96.59 514.5,-96.59"/>
</g>
<!-- Node17&#45;&gt;Node4 -->
<g id="edge29" class="edge">
<title>Node17&#45;&gt;Node4</title>
<path fill="none" stroke="midnightblue" d="M530.29,-128.9C535.91,-126.68 542.12,-124.5 548,-123 654.36,-95.84 780.65,-82.97 861.76,-77.1"/>
<polygon fill="midnightblue" stroke="midnightblue" points="862.18,-80.57 871.91,-76.38 861.69,-73.59 862.18,-80.57"/>
</g>
<!-- Node18&#45;&gt;Node3 -->
<g id="edge31" class="edge">
<title>Node18&#45;&gt;Node3</title>
<path fill="none" stroke="midnightblue" d="M669.85,-195.84C643.13,-175.1 574.9,-122.12 537.14,-92.8"/>
<polygon fill="midnightblue" stroke="midnightblue" points="539.17,-89.94 529.12,-86.57 534.87,-95.47 539.17,-89.94"/>
</g>
<!-- Node18&#45;&gt;Node4 -->
<g id="edge32" class="edge">
<title>Node18&#45;&gt;Node4</title>
<path fill="none" stroke="midnightblue" d="M692.54,-195.95C720.41,-175.32 789.29,-124.4 792,-123 819.12,-109.01 850.92,-97.78 878.47,-89.49"/>
<polygon fill="midnightblue" stroke="midnightblue" points="879.81,-92.74 888.42,-86.56 877.84,-86.03 879.81,-92.74"/>
</g>
<!-- Node19 -->
<g id="node19" class="node">
<title>Node19</title>
<g id="a_node19"><a xlink:href="../../d5/dca/_wi_fi_event_handler_8h.html" target="_top" xlink:title=" ">
<polygon fill="none" stroke="black" points="628,-129 628,-148 740,-148 740,-129 628,-129"/>
<text text-anchor="middle" x="684" y="-136" font-family="Helvetica,sans-Serif" font-size="10.00">WiFiEventHandler.h</text>
</a>
</g>
</g>
<!-- Node18&#45;&gt;Node19 -->
<g id="edge33" class="edge">
<title>Node18&#45;&gt;Node19</title>
<path fill="none" stroke="midnightblue" d="M681.4,-195.73C681.85,-186.18 682.56,-170.62 683.13,-158.28"/>
<polygon fill="midnightblue" stroke="midnightblue" points="686.64,-158.28 683.6,-148.13 679.64,-157.96 686.64,-158.28"/>
</g>
<!-- Node19&#45;&gt;Node3 -->
<g id="edge34" class="edge">
<title>Node19&#45;&gt;Node3</title>
<path fill="none" stroke="midnightblue" d="M661.03,-128.87C634.84,-119.03 591.35,-102.69 557.92,-90.13"/>
<polygon fill="midnightblue" stroke="midnightblue" points="558.93,-86.77 548.34,-86.53 556.47,-93.32 558.93,-86.77"/>
</g>
<!-- Node19&#45;&gt;Node4 -->
<g id="edge35" class="edge">
<title>Node19&#45;&gt;Node4</title>
<path fill="none" stroke="midnightblue" d="M718.39,-128.94C759.01,-118.82 827.5,-101.76 878.58,-89.04"/>
<polygon fill="midnightblue" stroke="midnightblue" points="879.69,-92.37 888.55,-86.56 878,-85.58 879.69,-92.37"/>
</g>
<!-- Node20&#45;&gt;Node3 -->
<g id="edge37" class="edge">
<title>Node20&#45;&gt;Node3</title>
<path fill="none" stroke="midnightblue" d="M985.85,-129.6C969.07,-127.43 950.83,-125.09 934,-123 808.94,-107.44 662.96,-90.22 579.32,-80.44"/>
<polygon fill="midnightblue" stroke="midnightblue" points="579.52,-76.94 569.18,-79.26 578.71,-83.9 579.52,-76.94"/>
</g>
<!-- Node20&#45;&gt;Node4 -->
<g id="edge38" class="edge">
<title>Node20&#45;&gt;Node4</title>
<path fill="none" stroke="midnightblue" d="M1024.08,-123.4C1009.92,-114.28 991.29,-102.29 975.67,-92.24"/>
<polygon fill="midnightblue" stroke="midnightblue" points="977.18,-89.05 966.87,-86.58 973.39,-94.93 977.18,-89.05"/>
</g>
<!-- Node20&#45;&gt;Node5 -->
<g id="edge39" class="edge">
<title>Node20&#45;&gt;Node5</title>
<path fill="none" stroke="midnightblue" d="M1044.41,-123.41C1042.14,-106.73 1037.09,-78.38 1027,-56 1022.43,-45.86 1015.43,-35.67 1009.14,-27.55"/>
<polygon fill="midnightblue" stroke="midnightblue" points="1011.76,-25.23 1002.74,-19.66 1006.32,-29.64 1011.76,-25.23"/>
</g>
<!-- Node21&#45;&gt;Node3 -->
<g id="edge41" class="edge">
<title>Node21&#45;&gt;Node3</title>
<path fill="none" stroke="midnightblue" d="M1065.76,-190.45C1019,-172.33 933.53,-141.01 858,-123 762.47,-100.22 649.55,-86.1 579.09,-78.77"/>
<polygon fill="midnightblue" stroke="midnightblue" points="579.31,-75.27 569.01,-77.73 578.6,-82.24 579.31,-75.27"/>
</g>
<!-- Node21&#45;&gt;Node4 -->
<g id="edge42" class="edge">
<title>Node21&#45;&gt;Node4</title>
<path fill="none" stroke="midnightblue" d="M1109.3,-190.33C1118.37,-172.78 1129.77,-142.79 1115,-123 1103.93,-108.16 1065.75,-96.12 1028.37,-87.52"/>
<polygon fill="midnightblue" stroke="midnightblue" points="1028.91,-84.06 1018.39,-85.3 1027.39,-90.89 1028.91,-84.06"/>
</g>
<!-- Node21&#45;&gt;Node20 -->
<g id="edge43" class="edge">
<title>Node21&#45;&gt;Node20</title>
<path fill="none" stroke="midnightblue" d="M1089.07,-190.4C1081.86,-181.88 1072.52,-170.85 1064.39,-161.23"/>
<polygon fill="midnightblue" stroke="midnightblue" points="1067.04,-158.95 1057.91,-153.58 1061.7,-163.47 1067.04,-158.95"/>
</g>
<!-- Node22&#45;&gt;Node3 -->
<g id="edge45" class="edge">
<title>Node22&#45;&gt;Node3</title>
<path fill="none" stroke="midnightblue" d="M1132.77,-257.42C1053.66,-225.84 890.93,-163.16 749,-123 692.46,-107 627.1,-93.48 579.19,-84.47"/>
<polygon fill="midnightblue" stroke="midnightblue" points="579.71,-81 569.24,-82.61 578.43,-87.88 579.71,-81"/>
</g>
<!-- Node22&#45;&gt;Node4 -->
<g id="edge46" class="edge">
<title>Node22&#45;&gt;Node4</title>
<path fill="none" stroke="midnightblue" d="M1190.87,-257.46C1200.97,-238.71 1217.99,-210.34 1238,-190 1257.97,-169.7 1277.67,-179.16 1291,-154 1297.45,-141.82 1300.01,-133.42 1291,-123 1257.7,-84.49 1119.53,-74.77 1028.19,-72.64"/>
<polygon fill="midnightblue" stroke="midnightblue" points="1028.19,-69.14 1018.12,-72.43 1028.05,-76.13 1028.19,-69.14"/>
</g>
<!-- Node22&#45;&gt;Node21 -->
<g id="edge47" class="edge">
<title>Node22&#45;&gt;Node21</title>
<path fill="none" stroke="midnightblue" d="M1158.72,-257.36C1148.18,-248.08 1135.59,-236.98 1124.86,-227.52"/>
<polygon fill="midnightblue" stroke="midnightblue" points="1126.9,-224.66 1117.08,-220.67 1122.27,-229.91 1126.9,-224.66"/>
</g>
<!-- Node23 -->
<g id="node23" class="node">
<title>Node23</title>
<g id="a_node23"><a xlink:href="../../d3/d1c/_free_r_t_o_s_8h.html" target="_top" xlink:title=" ">
<polygon fill="none" stroke="black" points="1162,-123.5 1162,-153.5 1282,-153.5 1282,-123.5 1162,-123.5"/>
<text text-anchor="start" x="1170" y="-141.5" font-family="Helvetica,sans-Serif" font-size="10.00">../../../RTOS/FreeRTOS</text>
<text text-anchor="middle" x="1222" y="-130.5" font-family="Helvetica,sans-Serif" font-size="10.00">/include/FreeRTOS.h</text>
</a>
</g>
</g>
<!-- Node22&#45;&gt;Node23 -->
<g id="edge48" class="edge">
<title>Node22&#45;&gt;Node23</title>
<path fill="none" stroke="midnightblue" d="M1186.12,-257.21C1190.78,-239.52 1197.99,-212.92 1205,-190 1207.69,-181.2 1210.86,-171.6 1213.73,-163.17"/>
<polygon fill="midnightblue" stroke="midnightblue" points="1217.08,-164.18 1217.03,-153.58 1210.46,-161.9 1217.08,-164.18"/>
</g>
<!-- Node24 -->
<g id="node24" class="node">
<title>Node24</title>
<g id="a_node24"><a xlink:title=" ">
<polygon fill="none" stroke="#bfbfbf" points="1303,-196 1303,-215 1353,-215 1353,-196 1303,-196"/>
<text text-anchor="middle" x="1328" y="-203" font-family="Helvetica,sans-Serif" font-size="10.00">atomic</text>
</a>
</g>
</g>
<!-- Node22&#45;&gt;Node24 -->
<g id="edge52" class="edge">
<title>Node22&#45;&gt;Node24</title>
<path fill="none" stroke="midnightblue" d="M1221.95,-257.36C1247.11,-245.29 1278.65,-230.17 1300.77,-219.56"/>
<polygon fill="midnightblue" stroke="midnightblue" points="1302.41,-222.65 1309.92,-215.17 1299.38,-216.34 1302.41,-222.65"/>
</g>
<!-- Node25 -->
<g id="node25" class="node">
<title>Node25</title>
<g id="a_node25"><a xlink:title=" ">
<polygon fill="none" stroke="#bfbfbf" points="1247,-196 1247,-215 1285,-215 1285,-196 1247,-196"/>
<text text-anchor="middle" x="1266" y="-203" font-family="Helvetica,sans-Serif" font-size="10.00">map</text>
</a>
</g>
</g>
<!-- Node22&#45;&gt;Node25 -->
<g id="edge53" class="edge">
<title>Node22&#45;&gt;Node25</title>
<path fill="none" stroke="midnightblue" d="M1204.68,-257.36C1218.25,-246.11 1235.03,-232.19 1247.6,-221.76"/>
<polygon fill="midnightblue" stroke="midnightblue" points="1250.08,-224.25 1255.54,-215.17 1245.61,-218.86 1250.08,-224.25"/>
</g>
<!-- Node23&#45;&gt;Node3 -->
<g id="edge49" class="edge">
<title>Node23&#45;&gt;Node3</title>
<path fill="none" stroke="midnightblue" d="M1161.8,-128.79C1146.55,-126.74 1130.19,-124.66 1115,-123 921.26,-101.79 691.69,-84.83 579.56,-77.08"/>
<polygon fill="midnightblue" stroke="midnightblue" points="579.62,-73.58 569.4,-76.38 579.14,-80.56 579.62,-73.58"/>
</g>
<!-- Node23&#45;&gt;Node4 -->
<g id="edge50" class="edge">
<title>Node23&#45;&gt;Node4</title>
<path fill="none" stroke="midnightblue" d="M1162.24,-123.48C1118.97,-113.32 1060.35,-99.57 1014.91,-88.91"/>
<polygon fill="midnightblue" stroke="midnightblue" points="1015.67,-85.49 1005.13,-86.61 1014.07,-92.3 1015.67,-85.49"/>
</g>
<!-- Node23&#45;&gt;Node6 -->
<g id="edge51" class="edge">
<title>Node23&#45;&gt;Node6</title>
<path fill="none" stroke="midnightblue" d="M1209.48,-123.48C1188.41,-99.9 1146.01,-52.43 1123.62,-27.36"/>
<polygon fill="midnightblue" stroke="midnightblue" points="1126.12,-24.91 1116.85,-19.79 1120.9,-29.58 1126.12,-24.91"/>
</g>
</g>
</svg>
        <g id="navigator" transform="translate(0 0)" fill="#404254">
                <rect fill="#f2f5e9" fill-opacity="0.5" stroke="#606060" stroke-width=".5" x="0" y="0" width="60" height="60"/>
                <use id="zoomplus" xlink:href="#zoomPlus" x="17" y="9" onmousedown="handleZoom(evt,'in')"/>
                <use id="zoomminus" xlink:href="#zoomMin" x="42" y="9" onmousedown="handleZoom(evt,'out')"/>
                <use id="reset" xlink:href="#resetDef" x="30" y="36" onmousedown="handleReset()"/>
                <g id="arrowUp" xlink:href="#dirArrow" transform="translate(30 24)" onmousedown="handlePan(0,-1)">
                  <use xlink:href="#rim" fill="#404040">
                        <set attributeName="fill" to="#808080" begin="arrowUp.mouseover" end="arrowUp.mouseout"/>
                  </use>
                  <path fill="none" stroke="white" stroke-width="1.5" d="M0,-3.0v7 M-2.5,-0.5L0,-3.0L2.5,-0.5"/>
                </g>
                <g id="arrowRight" xlink:href="#dirArrow" transform="rotate(90) translate(36 -43)" onmousedown="handlePan(1,0)">
                  <use xlink:href="#rim" fill="#404040">
                        <set attributeName="fill" to="#808080" begin="arrowRight.mouseover" end="arrowRight.mouseout"/>
                  </use>
                  <path fill="none" stroke="white" stroke-width="1.5" d="M0,-3.0v7 M-2.5,-0.5L0,-3.0L2.5,-0.5"/>
                </g>
                <g id="arrowDown" xlink:href="#dirArrow" transform="rotate(180) translate(-30 -48)" onmousedown="handlePan(0,1)">
                  <use xlink:href="#rim" fill="#404040">
                        <set attributeName="fill" to="#808080" begin="arrowDown.mouseover" end="arrowDown.mouseout"/>
                  </use>
                  <path fill="none" stroke="white" stroke-width="1.5" d="M0,-3.0v7 M-2.5,-0.5L0,-3.0L2.5,-0.5"/>
                </g>
                <g id="arrowLeft" xlink:href="#dirArrow" transform="rotate(270) translate(-36 17)" onmousedown="handlePan(-1,0)">
                  <use xlink:href="#rim" fill="#404040">
                        <set attributeName="fill" to="#808080" begin="arrowLeft.mouseover" end="arrowLeft.mouseout"/>
                  </use>
                  <path fill="none" stroke="white" stroke-width="1.5" d="M0,-3.0v7 M-2.5,-0.5L0,-3.0L2.5,-0.5"/>
                </g>
        </g>
        <svg viewBox="0 0 15 15" width="100%" height="30px" preserveAspectRatio="xMaxYMin meet">
         <g id="arrow_out" transform="scale(0.3 0.3)">
          <a xlink:href="_maintainer_8cpp__incl_org.svg" target="_base">
           <rect id="button" ry="5" rx="5" y="6" x="6" height="38" width="38"
                fill="#f2f5e9" fill-opacity="0.5" stroke="#606060" stroke-width="1.0"/>
           <path id="arrow"
             d="M 11.500037,31.436501 C 11.940474,20.09759 22.043105,11.32322 32.158766,21.979434 L 37.068811,17.246167 C 37.068811,17.246167 37.088388,32 37.088388,32 L 22.160133,31.978069 C 22.160133,31.978069 26.997745,27.140456 26.997745,27.140456 C 18.528582,18.264221 13.291696,25.230495 11.500037,31.436501 z"
             style="fill:#404040;"/>
          </a>
         </g>
        </svg>
</svg>
