<?xml version="1.0" encoding="UTF-8" standalone="no"?>
<!DOCTYPE svg PUBLIC "-//W3C//DTD SVG 1.1//EN"
 "http://www.w3.org/Graphics/SVG/1.1/DTD/svg11.dtd">
<!-- Generated by graphviz version 2.43.0 (0)
 -->
<!-- Title: AM2320_Humidity Pages: 1 -->
<svg width="142pt" height="259pt"
 viewBox="0.00 0.00 142.00 259.00" xmlns="http://www.w3.org/2000/svg" xmlns:xlink="http://www.w3.org/1999/xlink">
<g id="graph0" class="graph" transform="scale(1 1) rotate(0) translate(4 255)">
<title>AM2320_Humidity</title>
<!-- Node1 -->
<g id="node1" class="node">
<title>Node1</title>
<g id="a_node1"><a xlink:title=" ">
<polygon fill="#bfbfbf" stroke="black" points="0,-0.5 0,-90.5 134,-90.5 134,-0.5 0,-0.5"/>
<text text-anchor="middle" x="67" y="-78.5" font-family="Helvetica,sans-Serif" font-size="10.00">AM2320_Humidity</text>
<polyline fill="none" stroke="black" points="0,-71.5 134,-71.5 "/>
<text text-anchor="middle" x="67" y="-59.5" font-family="Helvetica,sans-Serif" font-size="10.00"> </text>
<polyline fill="none" stroke="black" points="0,-52.5 134,-52.5 "/>
<text text-anchor="start" x="8" y="-40.5" font-family="Helvetica,sans-Serif" font-size="10.00">+ AM2320_Humidity()</text>
<text text-anchor="start" x="8" y="-29.5" font-family="Helvetica,sans-Serif" font-size="10.00">+ ~AM2320_Humidity()</text>
<text text-anchor="start" x="8" y="-18.5" font-family="Helvetica,sans-Serif" font-size="10.00">&#45; getRaw()</text>
<text text-anchor="start" x="8" y="-7.5" font-family="Helvetica,sans-Serif" font-size="10.00">&#45; convert2SI()</text>
</a>
</g>
</g>
<!-- Node2 -->
<g id="node2" class="node">
<title>Node2</title>
<g id="a_node2"><a xlink:href="../../d6/db1/class_a_m2320___base.html" target="_top" xlink:title=" ">
<polygon fill="none" stroke="black" points="7.5,-127.5 7.5,-250.5 126.5,-250.5 126.5,-127.5 7.5,-127.5"/>
<text text-anchor="middle" x="67" y="-238.5" font-family="Helvetica,sans-Serif" font-size="10.00">AM2320_Base</text>
<polyline fill="none" stroke="black" points="7.5,-231.5 126.5,-231.5 "/>
<text text-anchor="start" x="15.5" y="-219.5" font-family="Helvetica,sans-Serif" font-size="10.00"># m_i2c</text>
<text text-anchor="start" x="15.5" y="-208.5" font-family="Helvetica,sans-Serif" font-size="10.00"># m_address</text>
<polyline fill="none" stroke="black" points="7.5,-201.5 126.5,-201.5 "/>
<text text-anchor="start" x="15.5" y="-189.5" font-family="Helvetica,sans-Serif" font-size="10.00">+ AM2320_Base()</text>
<text text-anchor="start" x="15.5" y="-178.5" font-family="Helvetica,sans-Serif" font-size="10.00">+ ~AM2320_Base()</text>
<text text-anchor="start" x="15.5" y="-167.5" font-family="Helvetica,sans-Serif" font-size="10.00">+ getMeasurement()</text>
<text text-anchor="start" x="15.5" y="-156.5" font-family="Helvetica,sans-Serif" font-size="10.00"># getRaw()</text>
<text text-anchor="start" x="15.5" y="-145.5" font-family="Helvetica,sans-Serif" font-size="10.00"># convert2SI()</text>
<text text-anchor="start" x="15.5" y="-134.5" font-family="Helvetica,sans-Serif" font-size="10.00">&#45; wakeUp()</text>
</a>
</g>
</g>
<!-- Node2&#45;&gt;Node1 -->
<g id="edge1" class="edge">
<title>Node2&#45;&gt;Node1</title>
<path fill="none" stroke="midnightblue" d="M67,-117.03C67,-108.03 67,-99.03 67,-90.62"/>
<polygon fill="none" stroke="midnightblue" points="63.5,-117.17 67,-127.17 70.5,-117.17 63.5,-117.17"/>
</g>
</g>
</svg>
