<?xml version="1.0" encoding="UTF-8" standalone="no"?>
<!DOCTYPE svg PUBLIC "-//W3C//DTD SVG 1.1//EN"
 "http://www.w3.org/Graphics/SVG/1.1/DTD/svg11.dtd">
<!-- Generated by graphviz version 2.43.0 (0)
 -->
<!-- Title: Components/ThirdpartAPI/esp32Cam_API/include/sensor.h Pages: 1 -->
<svg width="642pt" height="340pt"
 viewBox="0.00 0.00 641.50 340.00" xmlns="http://www.w3.org/2000/svg" xmlns:xlink="http://www.w3.org/1999/xlink">
<g id="graph0" class="graph" transform="scale(1 1) rotate(0) translate(4 336)">
<title>Components/ThirdpartAPI/esp32Cam_API/include/sensor.h</title>
<!-- Node1 -->
<g id="node1" class="node">
<title>Node1</title>
<g id="a_node1"><a xlink:title=" ">
<polygon fill="#bfbfbf" stroke="black" points="322,-290.5 322,-331.5 463,-331.5 463,-290.5 322,-290.5"/>
<text text-anchor="start" x="330" y="-319.5" font-family="Helvetica,sans-Serif" font-size="10.00">Components/ThirdpartAPI</text>
<text text-anchor="start" x="330" y="-308.5" font-family="Helvetica,sans-Serif" font-size="10.00">/esp32Cam_API/include</text>
<text text-anchor="middle" x="392.5" y="-297.5" font-family="Helvetica,sans-Serif" font-size="10.00">/sensor.h</text>
</a>
</g>
</g>
<!-- Node2 -->
<g id="node2" class="node">
<title>Node2</title>
<g id="a_node2"><a xlink:href="../../d9/d47/esp__camera_8h.html" target="_top" xlink:title=" ">
<polygon fill="none" stroke="black" points="163,-212.5 163,-253.5 304,-253.5 304,-212.5 163,-212.5"/>
<text text-anchor="start" x="171" y="-241.5" font-family="Helvetica,sans-Serif" font-size="10.00">Components/ThirdpartAPI</text>
<text text-anchor="start" x="171" y="-230.5" font-family="Helvetica,sans-Serif" font-size="10.00">/esp32Cam_API/include</text>
<text text-anchor="middle" x="233.5" y="-219.5" font-family="Helvetica,sans-Serif" font-size="10.00">/esp_camera.h</text>
</a>
</g>
</g>
<!-- Node1&#45;&gt;Node2 -->
<g id="edge1" class="edge">
<title>Node1&#45;&gt;Node2</title>
<path fill="none" stroke="midnightblue" d="M342.39,-286.05C320.46,-275.57 295.06,-263.42 274.31,-253.51"/>
<polygon fill="midnightblue" stroke="midnightblue" points="341.02,-289.27 351.55,-290.43 344.04,-282.96 341.02,-289.27"/>
</g>
<!-- Node8 -->
<g id="node8" class="node">
<title>Node8</title>
<g id="a_node8"><a xlink:href="../../d0/d2d/ov3660_8h.html" target="_top" xlink:title=" ">
<polygon fill="none" stroke="black" points="322,-212.5 322,-253.5 463,-253.5 463,-212.5 322,-212.5"/>
<text text-anchor="start" x="330" y="-241.5" font-family="Helvetica,sans-Serif" font-size="10.00">Components/ThirdpartAPI</text>
<text text-anchor="start" x="330" y="-230.5" font-family="Helvetica,sans-Serif" font-size="10.00">/esp32Cam_API/include</text>
<text text-anchor="middle" x="392.5" y="-219.5" font-family="Helvetica,sans-Serif" font-size="10.00">/ov3660.h</text>
</a>
</g>
</g>
<!-- Node1&#45;&gt;Node8 -->
<g id="edge8" class="edge">
<title>Node1&#45;&gt;Node8</title>
<path fill="none" stroke="midnightblue" d="M392.5,-280.3C392.5,-271.3 392.5,-261.65 392.5,-253.51"/>
<polygon fill="midnightblue" stroke="midnightblue" points="389,-280.43 392.5,-290.43 396,-280.43 389,-280.43"/>
</g>
<!-- Node9 -->
<g id="node9" class="node">
<title>Node9</title>
<g id="a_node9"><a xlink:href="../../d4/d52/sensor_8c.html" target="_top" xlink:title=" ">
<polygon fill="none" stroke="black" points="481.5,-218 481.5,-248 633.5,-248 633.5,-218 481.5,-218"/>
<text text-anchor="start" x="489.5" y="-236" font-family="Helvetica,sans-Serif" font-size="10.00">Components/ThirdpartAPI</text>
<text text-anchor="middle" x="557.5" y="-225" font-family="Helvetica,sans-Serif" font-size="10.00">/esp32Cam_API/src/sensor.c</text>
</a>
</g>
</g>
<!-- Node1&#45;&gt;Node9 -->
<g id="edge9" class="edge">
<title>Node1&#45;&gt;Node9</title>
<path fill="none" stroke="midnightblue" d="M444.35,-286.12C471.47,-273.63 503.75,-258.76 526.87,-248.11"/>
<polygon fill="midnightblue" stroke="midnightblue" points="442.61,-283.07 434.99,-290.43 445.54,-289.42 442.61,-283.07"/>
</g>
<!-- Node3 -->
<g id="node3" class="node">
<title>Node3</title>
<g id="a_node3"><a xlink:href="../../dc/dc2/esp32_cam_8hpp.html" target="_top" xlink:title=" ">
<polygon fill="none" stroke="black" points="93,-67.5 93,-97.5 262,-97.5 262,-67.5 93,-67.5"/>
<text text-anchor="start" x="101" y="-85.5" font-family="Helvetica,sans-Serif" font-size="10.00">Components/Sensor/esp32Cam</text>
<text text-anchor="middle" x="177.5" y="-74.5" font-family="Helvetica,sans-Serif" font-size="10.00">/include/esp32Cam.hpp</text>
</a>
</g>
</g>
<!-- Node2&#45;&gt;Node3 -->
<g id="edge2" class="edge">
<title>Node2&#45;&gt;Node3</title>
<path fill="none" stroke="midnightblue" d="M172.02,-207.24C159.43,-199.21 147.81,-188.93 140.5,-176 131.32,-159.75 134.7,-151.74 140.5,-134 145.03,-120.16 154.95,-106.97 163.39,-97.54"/>
<polygon fill="midnightblue" stroke="midnightblue" points="170.46,-210.38 180.85,-212.45 174.01,-204.35 170.46,-210.38"/>
</g>
<!-- Node6 -->
<g id="node6" class="node">
<title>Node6</title>
<g id="a_node6"><a xlink:href="../../d4/db0/m5stack__settings_8hpp.html" target="_top" xlink:title=" ">
<polygon fill="none" stroke="black" points="149,-140 149,-170 318,-170 318,-140 149,-140"/>
<text text-anchor="start" x="157" y="-158" font-family="Helvetica,sans-Serif" font-size="10.00">Components/Sensor/esp32Cam</text>
<text text-anchor="middle" x="233.5" y="-147" font-family="Helvetica,sans-Serif" font-size="10.00">/include/m5stack_settings.hpp</text>
</a>
</g>
</g>
<!-- Node2&#45;&gt;Node6 -->
<g id="edge5" class="edge">
<title>Node2&#45;&gt;Node6</title>
<path fill="none" stroke="midnightblue" d="M233.5,-202.28C233.5,-191.25 233.5,-179.25 233.5,-170.23"/>
<polygon fill="midnightblue" stroke="midnightblue" points="230,-202.43 233.5,-212.43 237,-202.43 230,-202.43"/>
</g>
<!-- Node7 -->
<g id="node7" class="node">
<title>Node7</title>
<g id="a_node7"><a xlink:href="../../d2/d0d/cam__hal_8h.html" target="_top" xlink:title=" ">
<polygon fill="none" stroke="black" points="336,-134.5 336,-175.5 477,-175.5 477,-134.5 336,-134.5"/>
<text text-anchor="start" x="344" y="-163.5" font-family="Helvetica,sans-Serif" font-size="10.00">Components/ThirdpartAPI</text>
<text text-anchor="start" x="344" y="-152.5" font-family="Helvetica,sans-Serif" font-size="10.00">/esp32Cam_API/include</text>
<text text-anchor="middle" x="406.5" y="-141.5" font-family="Helvetica,sans-Serif" font-size="10.00">/cam_hal.h</text>
</a>
</g>
</g>
<!-- Node2&#45;&gt;Node7 -->
<g id="edge7" class="edge">
<title>Node2&#45;&gt;Node7</title>
<path fill="none" stroke="midnightblue" d="M287.38,-208.33C311.39,-197.78 339.32,-185.51 362.1,-175.51"/>
<polygon fill="midnightblue" stroke="midnightblue" points="285.8,-205.2 278.05,-212.43 288.62,-211.61 285.8,-205.2"/>
</g>
<!-- Node4 -->
<g id="node4" class="node">
<title>Node4</title>
<g id="a_node4"><a xlink:href="../../d4/d54/esp32_cam_8cpp.html" target="_top" xlink:title=" ">
<polygon fill="none" stroke="black" points="0,-0.5 0,-30.5 169,-30.5 169,-0.5 0,-0.5"/>
<text text-anchor="start" x="8" y="-18.5" font-family="Helvetica,sans-Serif" font-size="10.00">Components/Sensor/esp32Cam</text>
<text text-anchor="middle" x="84.5" y="-7.5" font-family="Helvetica,sans-Serif" font-size="10.00">/src/esp32Cam.cpp</text>
</a>
</g>
</g>
<!-- Node3&#45;&gt;Node4 -->
<g id="edge3" class="edge">
<title>Node3&#45;&gt;Node4</title>
<path fill="none" stroke="midnightblue" d="M148.81,-61.45C134.51,-51.45 117.55,-39.6 104.64,-30.58"/>
<polygon fill="midnightblue" stroke="midnightblue" points="147.12,-64.54 157.32,-67.4 151.13,-58.8 147.12,-64.54"/>
</g>
<!-- Node5 -->
<g id="node5" class="node">
<title>Node5</title>
<g id="a_node5"><a xlink:href="../../dd/dbd/esp32_cam__test_8cpp.html" target="_top" xlink:title=" ">
<polygon fill="none" stroke="black" points="187,-0.5 187,-30.5 356,-30.5 356,-0.5 187,-0.5"/>
<text text-anchor="start" x="195" y="-18.5" font-family="Helvetica,sans-Serif" font-size="10.00">Components/Sensor/esp32Cam</text>
<text text-anchor="middle" x="271.5" y="-7.5" font-family="Helvetica,sans-Serif" font-size="10.00">/test/test/esp32Cam_test.cpp</text>
</a>
</g>
</g>
<!-- Node3&#45;&gt;Node5 -->
<g id="edge4" class="edge">
<title>Node3&#45;&gt;Node5</title>
<path fill="none" stroke="midnightblue" d="M206.49,-61.45C220.95,-51.45 238.09,-39.6 251.14,-30.58"/>
<polygon fill="midnightblue" stroke="midnightblue" points="204.13,-58.83 197.9,-67.4 208.11,-64.59 204.13,-58.83"/>
</g>
<!-- Node6&#45;&gt;Node3 -->
<g id="edge6" class="edge">
<title>Node6&#45;&gt;Node3</title>
<path fill="none" stroke="midnightblue" d="M215.8,-131.71C206.97,-120.6 196.55,-107.49 188.82,-97.75"/>
<polygon fill="midnightblue" stroke="midnightblue" points="213.21,-134.08 222.17,-139.73 218.69,-129.73 213.21,-134.08"/>
</g>
</g>
</svg>
