<?xml version="1.0" encoding="UTF-8" standalone="no"?>
<!DOCTYPE svg PUBLIC "-//W3C//DTD SVG 1.1//EN"
 "http://www.w3.org/Graphics/SVG/1.1/DTD/svg11.dtd">
<!-- Generated by graphviz version 2.43.0 (0)
 -->
<!-- Title: Components/Connector/WiFi/src/WiFiEventHandler.cpp Pages: 1 -->
<svg width="288pt" height="218pt"
 viewBox="0.00 0.00 287.50 218.00" xmlns="http://www.w3.org/2000/svg" xmlns:xlink="http://www.w3.org/1999/xlink">
<g id="graph0" class="graph" transform="scale(1 1) rotate(0) translate(4 214)">
<title>Components/Connector/WiFi/src/WiFiEventHandler.cpp</title>
<!-- Node1 -->
<g id="node1" class="node">
<title>Node1</title>
<g id="a_node1"><a xlink:title=" ">
<polygon fill="#bfbfbf" stroke="black" points="48.5,-179.5 48.5,-209.5 215.5,-209.5 215.5,-179.5 48.5,-179.5"/>
<text text-anchor="start" x="56.5" y="-197.5" font-family="Helvetica,sans-Serif" font-size="10.00">Components/Connector</text>
<text text-anchor="middle" x="132" y="-186.5" font-family="Helvetica,sans-Serif" font-size="10.00">/WiFi/src/WiFiEventHandler.cpp</text>
</a>
</g>
</g>
<!-- Node2 -->
<g id="node2" class="node">
<title>Node2</title>
<g id="a_node2"><a xlink:href="../../d5/dca/_wi_fi_event_handler_8h.html" target="_top" xlink:title=" ">
<polygon fill="none" stroke="black" points="52.5,-123.5 52.5,-142.5 211.5,-142.5 211.5,-123.5 52.5,-123.5"/>
<text text-anchor="middle" x="132" y="-130.5" font-family="Helvetica,sans-Serif" font-size="10.00">../include/WiFiEventHandler.h</text>
</a>
</g>
</g>
<!-- Node1&#45;&gt;Node2 -->
<g id="edge1" class="edge">
<title>Node1&#45;&gt;Node2</title>
<path fill="none" stroke="midnightblue" d="M132,-179.4C132,-171.47 132,-161.46 132,-152.86"/>
<polygon fill="midnightblue" stroke="midnightblue" points="135.5,-152.66 132,-142.66 128.5,-152.66 135.5,-152.66"/>
</g>
<!-- Node3 -->
<g id="node3" class="node">
<title>Node3</title>
<g id="a_node3"><a xlink:href="../../da/d5f/_b_a_s_i_c_8hpp.html" target="_top" xlink:title=" ">
<polygon fill="none" stroke="black" points="0,-56.5 0,-86.5 116,-86.5 116,-56.5 0,-56.5"/>
<text text-anchor="start" x="8" y="-74.5" font-family="Helvetica,sans-Serif" font-size="10.00">../../../Global_Include</text>
<text text-anchor="middle" x="58" y="-63.5" font-family="Helvetica,sans-Serif" font-size="10.00">/BASIC.hpp</text>
</a>
</g>
</g>
<!-- Node2&#45;&gt;Node3 -->
<g id="edge2" class="edge">
<title>Node2&#45;&gt;Node3</title>
<path fill="none" stroke="midnightblue" d="M121.4,-123.48C111.56,-115.57 96.54,-103.48 83.58,-93.07"/>
<polygon fill="midnightblue" stroke="midnightblue" points="85.43,-90.06 75.44,-86.52 81.04,-95.52 85.43,-90.06"/>
</g>
<!-- Node4 -->
<g id="node4" class="node">
<title>Node4</title>
<g id="a_node4"><a xlink:href="../../d3/deb/_general___error_8hpp.html" target="_top" xlink:title=" ">
<polygon fill="none" stroke="black" points="134.5,-56.5 134.5,-86.5 279.5,-86.5 279.5,-56.5 134.5,-56.5"/>
<text text-anchor="start" x="142.5" y="-74.5" font-family="Helvetica,sans-Serif" font-size="10.00">../../../Objects/ErrorHandler</text>
<text text-anchor="middle" x="207" y="-63.5" font-family="Helvetica,sans-Serif" font-size="10.00">/include/General_Error.hpp</text>
</a>
</g>
</g>
<!-- Node2&#45;&gt;Node4 -->
<g id="edge3" class="edge">
<title>Node2&#45;&gt;Node4</title>
<path fill="none" stroke="midnightblue" d="M142.75,-123.48C152.81,-115.49 168.23,-103.25 181.45,-92.77"/>
<polygon fill="midnightblue" stroke="midnightblue" points="183.67,-95.48 189.32,-86.52 179.31,-90 183.67,-95.48"/>
</g>
<!-- Node5 -->
<g id="node5" class="node">
<title>Node5</title>
<g id="a_node5"><a xlink:title=" ">
<polygon fill="none" stroke="#bfbfbf" points="150,-0.5 150,-19.5 194,-19.5 194,-0.5 150,-0.5"/>
<text text-anchor="middle" x="172" y="-7.5" font-family="Helvetica,sans-Serif" font-size="10.00">string</text>
</a>
</g>
</g>
<!-- Node4&#45;&gt;Node5 -->
<g id="edge4" class="edge">
<title>Node4&#45;&gt;Node5</title>
<path fill="none" stroke="midnightblue" d="M198.71,-56.4C193.78,-48.02 187.49,-37.33 182.25,-28.42"/>
<polygon fill="midnightblue" stroke="midnightblue" points="185.18,-26.5 177.09,-19.66 179.15,-30.05 185.18,-26.5"/>
</g>
<!-- Node6 -->
<g id="node6" class="node">
<title>Node6</title>
<g id="a_node6"><a xlink:title=" ">
<polygon fill="none" stroke="#bfbfbf" points="212,-0.5 212,-19.5 272,-19.5 272,-0.5 212,-0.5"/>
<text text-anchor="middle" x="242" y="-7.5" font-family="Helvetica,sans-Serif" font-size="10.00">iostream</text>
</a>
</g>
</g>
<!-- Node4&#45;&gt;Node6 -->
<g id="edge5" class="edge">
<title>Node4&#45;&gt;Node6</title>
<path fill="none" stroke="midnightblue" d="M215.29,-56.4C220.22,-48.02 226.51,-37.33 231.75,-28.42"/>
<polygon fill="midnightblue" stroke="midnightblue" points="234.85,-30.05 236.91,-19.66 228.82,-26.5 234.85,-30.05"/>
</g>
</g>
</svg>
