<?xml version="1.0" encoding="UTF-8" standalone="no"?>
<!DOCTYPE svg PUBLIC "-//W3C//DTD SVG 1.1//EN"
 "http://www.w3.org/Graphics/SVG/1.1/DTD/svg11.dtd">
<!-- Generated by graphviz version 2.43.0 (0)
 -->
<!-- Title: PWM_API_ESP32 Pages: 1 -->
<!--zoomable 890 -->
<svg id="main" version="1.1" xmlns="http://www.w3.org/2000/svg" xmlns:xlink="http://www.w3.org/1999/xlink" xml:space="preserve" onload="init(evt)">
<style type="text/css"><![CDATA[
.edge:hover path { stroke: red; }
.edge:hover polygon { stroke: red; fill: red; }
]]></style>
<script type="text/javascript"><![CDATA[
var edges = document.getElementsByTagName('g');
if (edges && edges.length) {
  for (var i=0;i<edges.length;i++) {
    if (edges[i].id.substr(0,4)=='edge') {
      edges[i].setAttribute('class','edge');
    }
  }
}
]]></script>
        <defs>
                <circle id="rim" cx="0" cy="0" r="7"/>
                <circle id="rim2" cx="0" cy="0" r="3.5"/>
                <g id="zoomPlus">
                        <use xlink:href="#rim" fill="#404040">
                                <set attributeName="fill" to="#808080" begin="zoomplus.mouseover" end="zoomplus.mouseout"/>
                        </use>
                        <path d="M-4,0h8M0,-4v8" fill="none" stroke="white" stroke-width="1.5" pointer-events="none"/>
                </g>
                <g id="zoomMin">
                        <use xlink:href="#rim" fill="#404040">
                                <set attributeName="fill" to="#808080" begin="zoomminus.mouseover" end="zoomminus.mouseout"/>
                        </use>
                        <path d="M-4,0h8" fill="none" stroke="white" stroke-width="1.5" pointer-events="none"/>
                </g>
                <g id="dirArrow">
                        <path fill="none" stroke="white" stroke-width="1.5" d="M0,-3.0v7 M-2.5,-0.5L0,-3.0L2.5,-0.5"/>
                </g>
               <g id="resetDef">
                       <use xlink:href="#rim2" fill="#404040">
                               <set attributeName="fill" to="#808080" begin="reset.mouseover" end="reset.mouseout"/>
                       </use>
               </g>
        </defs>

<script type="text/javascript">
var viewWidth = 463;
var viewHeight = 890;
var sectionId = 'dynsection-1';
</script>
<script xlink:href="../../svgpan.js"/>
<svg id="graph" class="graph">
<g id="viewport">
<title>PWM_API_ESP32</title>
<!-- Node1 -->
<g id="node1" class="node">
<title>Node1</title>
<g id="a_node1"><a xlink:title=" ">
<polygon fill="#bfbfbf" stroke="black" points="159.5,-0.5 159.5,-101.5 284.5,-101.5 284.5,-0.5 159.5,-0.5"/>
<text text-anchor="middle" x="222" y="-89.5" font-family="Helvetica,sans-Serif" font-size="10.00">PWM_API_ESP32</text>
<polyline fill="none" stroke="black" points="159.5,-82.5 284.5,-82.5 "/>
<text text-anchor="middle" x="222" y="-70.5" font-family="Helvetica,sans-Serif" font-size="10.00"> </text>
<polyline fill="none" stroke="black" points="159.5,-63.5 284.5,-63.5 "/>
<text text-anchor="start" x="167.5" y="-51.5" font-family="Helvetica,sans-Serif" font-size="10.00">+ PWM_API_ESP32()</text>
<text text-anchor="start" x="167.5" y="-40.5" font-family="Helvetica,sans-Serif" font-size="10.00">+ ~PWM_API_ESP32()</text>
<text text-anchor="start" x="167.5" y="-29.5" font-family="Helvetica,sans-Serif" font-size="10.00">+ setDutyCycle()</text>
<text text-anchor="start" x="167.5" y="-18.5" font-family="Helvetica,sans-Serif" font-size="10.00">+ setFrequency()</text>
<text text-anchor="start" x="167.5" y="-7.5" font-family="Helvetica,sans-Serif" font-size="10.00">&#45; stop()</text>
</a>
</g>
</g>
<!-- Node2 -->
<g id="node2" class="node">
<title>Node2</title>
<g id="a_node2"><a xlink:href="../../df/df9/class_p_w_m_base.html" target="_top" xlink:title=" ">
<polygon fill="none" stroke="black" points="156.5,-139.5 156.5,-251.5 287.5,-251.5 287.5,-139.5 156.5,-139.5"/>
<text text-anchor="start" x="164.5" y="-239.5" font-family="Helvetica,sans-Serif" font-size="10.00">PWMBase&lt; HAL_ESP32</text>
<text text-anchor="middle" x="222" y="-228.5" font-family="Helvetica,sans-Serif" font-size="10.00">::config, HAL_ESP32 &gt;</text>
<polyline fill="none" stroke="black" points="156.5,-221.5 287.5,-221.5 "/>
<text text-anchor="middle" x="222" y="-209.5" font-family="Helvetica,sans-Serif" font-size="10.00"> </text>
<polyline fill="none" stroke="black" points="156.5,-202.5 287.5,-202.5 "/>
<text text-anchor="start" x="164.5" y="-190.5" font-family="Helvetica,sans-Serif" font-size="10.00">+ PWMBase()</text>
<text text-anchor="start" x="164.5" y="-179.5" font-family="Helvetica,sans-Serif" font-size="10.00">+ ~PWMBase()</text>
<text text-anchor="start" x="164.5" y="-168.5" font-family="Helvetica,sans-Serif" font-size="10.00">+ setDutyCycle()</text>
<text text-anchor="start" x="164.5" y="-157.5" font-family="Helvetica,sans-Serif" font-size="10.00">+ setFrequency()</text>
<text text-anchor="start" x="164.5" y="-146.5" font-family="Helvetica,sans-Serif" font-size="10.00">&#45; stop()</text>
</a>
</g>
</g>
<!-- Node2&#45;&gt;Node1 -->
<g id="edge1" class="edge">
<title>Node2&#45;&gt;Node1</title>
<path fill="none" stroke="midnightblue" d="M222,-129.13C222,-119.96 222,-110.65 222,-101.83"/>
<polygon fill="none" stroke="midnightblue" points="218.5,-129.41 222,-139.41 225.5,-129.41 218.5,-129.41"/>
</g>
<!-- Node3 -->
<g id="node3" class="node">
<title>Node3</title>
<g id="a_node3"><a xlink:href="../../dd/d84/class_fault___handler.html" target="_top" xlink:title=" ">
<polygon fill="none" stroke="black" points="51,-503.5 51,-648.5 173,-648.5 173,-503.5 51,-503.5"/>
<text text-anchor="middle" x="112" y="-636.5" font-family="Helvetica,sans-Serif" font-size="10.00">Fault_Handler</text>
<polyline fill="none" stroke="black" points="51,-629.5 173,-629.5 "/>
<text text-anchor="middle" x="112" y="-617.5" font-family="Helvetica,sans-Serif" font-size="10.00"> </text>
<polyline fill="none" stroke="black" points="51,-610.5 173,-610.5 "/>
<text text-anchor="start" x="59" y="-598.5" font-family="Helvetica,sans-Serif" font-size="10.00">+ Fault_Handler()</text>
<text text-anchor="start" x="59" y="-587.5" font-family="Helvetica,sans-Serif" font-size="10.00">+ ~Fault_Handler()</text>
<text text-anchor="start" x="59" y="-576.5" font-family="Helvetica,sans-Serif" font-size="10.00">+ handleFault()</text>
<text text-anchor="start" x="59" y="-565.5" font-family="Helvetica,sans-Serif" font-size="10.00">+ resetFaultCounter()</text>
<text text-anchor="start" x="59" y="-554.5" font-family="Helvetica,sans-Serif" font-size="10.00">&#45; countUp()</text>
<text text-anchor="start" x="59" y="-543.5" font-family="Helvetica,sans-Serif" font-size="10.00">&#45; handle()</text>
<text text-anchor="start" x="59" y="-532.5" font-family="Helvetica,sans-Serif" font-size="10.00">&#45; toString()</text>
<text text-anchor="start" x="59" y="-521.5" font-family="Helvetica,sans-Serif" font-size="10.00">&#45; severity2string()</text>
<text text-anchor="start" x="59" y="-510.5" font-family="Helvetica,sans-Serif" font-size="10.00">&#45; check_value()</text>
</a>
</g>
</g>
<!-- Node3&#45;&gt;Node2 -->
<g id="edge2" class="edge">
<title>Node3&#45;&gt;Node2</title>
<path fill="none" stroke="#404040" d="M79.69,-503.39C59.67,-447.94 42.97,-370.63 73,-310 88.62,-278.47 117.66,-253.31 145.98,-234.78"/>
<polygon fill="none" stroke="#404040" points="146.2,-234.64 149.14,-228.06 156.35,-228.25 153.4,-234.83 146.2,-234.64"/>
<text text-anchor="middle" x="116" y="-380.5" font-family="Helvetica,sans-Serif" font-size="10.00"> #m_faulthanlder</text>
</g>
<!-- Node9 -->
<g id="node9" class="node">
<title>Node9</title>
<g id="a_node9"><a xlink:href="../../df/df9/class_p_w_m_base.html" target="_top" xlink:title=" ">
<polygon fill="none" stroke="black" points="168.5,-332.5 168.5,-433.5 275.5,-433.5 275.5,-332.5 168.5,-332.5"/>
<text text-anchor="middle" x="222" y="-421.5" font-family="Helvetica,sans-Serif" font-size="10.00">PWMBase&lt; T, U &gt;</text>
<polyline fill="none" stroke="black" points="168.5,-414.5 275.5,-414.5 "/>
<text text-anchor="start" x="176.5" y="-402.5" font-family="Helvetica,sans-Serif" font-size="10.00"># m_hal</text>
<polyline fill="none" stroke="black" points="168.5,-395.5 275.5,-395.5 "/>
<text text-anchor="start" x="176.5" y="-383.5" font-family="Helvetica,sans-Serif" font-size="10.00">+ PWMBase()</text>
<text text-anchor="start" x="176.5" y="-372.5" font-family="Helvetica,sans-Serif" font-size="10.00">+ ~PWMBase()</text>
<text text-anchor="start" x="176.5" y="-361.5" font-family="Helvetica,sans-Serif" font-size="10.00">+ setDutyCycle()</text>
<text text-anchor="start" x="176.5" y="-350.5" font-family="Helvetica,sans-Serif" font-size="10.00">+ setFrequency()</text>
<text text-anchor="start" x="176.5" y="-339.5" font-family="Helvetica,sans-Serif" font-size="10.00">&#45; stop()</text>
</a>
</g>
</g>
<!-- Node3&#45;&gt;Node9 -->
<g id="edge9" class="edge">
<title>Node3&#45;&gt;Node9</title>
<path fill="none" stroke="#404040" d="M153.27,-503.34C164.49,-483.87 176.51,-462.98 187.32,-444.22"/>
<polygon fill="none" stroke="#404040" points="187.37,-444.14 186.89,-436.94 193.36,-433.74 193.83,-440.93 187.37,-444.14"/>
<text text-anchor="middle" x="210" y="-477" font-family="Helvetica,sans-Serif" font-size="10.00"> #m_faulthanlder</text>
</g>
<!-- Node4 -->
<g id="node4" class="node">
<title>Node4</title>
<g id="a_node4"><a xlink:title="STL class.">
<polygon fill="none" stroke="#bfbfbf" points="19.5,-707.5 19.5,-764.5 84.5,-764.5 84.5,-707.5 19.5,-707.5"/>
<text text-anchor="middle" x="52" y="-752.5" font-family="Helvetica,sans-Serif" font-size="10.00">std::string</text>
<polyline fill="none" stroke="#bfbfbf" points="19.5,-745.5 84.5,-745.5 "/>
<text text-anchor="middle" x="52" y="-733.5" font-family="Helvetica,sans-Serif" font-size="10.00"> </text>
<polyline fill="none" stroke="#bfbfbf" points="19.5,-726.5 84.5,-726.5 "/>
<text text-anchor="middle" x="52" y="-714.5" font-family="Helvetica,sans-Serif" font-size="10.00"> </text>
</a>
</g>
</g>
<!-- Node4&#45;&gt;Node3 -->
<g id="edge3" class="edge">
<title>Node4&#45;&gt;Node3</title>
<path fill="none" stroke="#404040" d="M62.45,-707.48C67.55,-694.06 73.97,-677.13 80.5,-659.96"/>
<polygon fill="none" stroke="#404040" points="80.52,-659.89 78.91,-652.86 84.78,-648.67 86.39,-655.7 80.52,-659.89"/>
<text text-anchor="middle" x="102" y="-670" font-family="Helvetica,sans-Serif" font-size="10.00"> &#45;m_name</text>
</g>
<!-- Node5 -->
<g id="node5" class="node">
<title>Node5</title>
<g id="a_node5"><a xlink:title="STL class.">
<polygon fill="none" stroke="#bfbfbf" points="0,-813.5 0,-881.5 104,-881.5 104,-813.5 0,-813.5"/>
<text text-anchor="start" x="8" y="-869.5" font-family="Helvetica,sans-Serif" font-size="10.00">std::basic_string&lt;</text>
<text text-anchor="middle" x="52" y="-858.5" font-family="Helvetica,sans-Serif" font-size="10.00"> char &gt;</text>
<polyline fill="none" stroke="#bfbfbf" points="0,-851.5 104,-851.5 "/>
<text text-anchor="middle" x="52" y="-839.5" font-family="Helvetica,sans-Serif" font-size="10.00"> </text>
<polyline fill="none" stroke="#bfbfbf" points="0,-832.5 104,-832.5 "/>
<text text-anchor="middle" x="52" y="-820.5" font-family="Helvetica,sans-Serif" font-size="10.00"> </text>
</a>
</g>
</g>
<!-- Node5&#45;&gt;Node4 -->
<g id="edge4" class="edge">
<title>Node5&#45;&gt;Node4</title>
<path fill="none" stroke="midnightblue" d="M52,-803.16C52,-790.13 52,-776.21 52,-764.51"/>
<polygon fill="none" stroke="midnightblue" points="48.5,-803.35 52,-813.35 55.5,-803.35 48.5,-803.35"/>
</g>
<!-- Node6 -->
<g id="node6" class="node">
<title>Node6</title>
<g id="a_node6"><a xlink:href="../../dd/d84/class_fault___handler.html#da/dec/struct_fault___handler_1_1counters__t" target="_top" xlink:title=" ">
<polygon fill="none" stroke="black" points="102.5,-696.5 102.5,-775.5 243.5,-775.5 243.5,-696.5 102.5,-696.5"/>
<text text-anchor="middle" x="173" y="-763.5" font-family="Helvetica,sans-Serif" font-size="10.00">Fault_Handler::counters_t</text>
<polyline fill="none" stroke="black" points="102.5,-756.5 243.5,-756.5 "/>
<text text-anchor="start" x="110.5" y="-744.5" font-family="Helvetica,sans-Serif" font-size="10.00">+ low</text>
<text text-anchor="start" x="110.5" y="-733.5" font-family="Helvetica,sans-Serif" font-size="10.00">+ medium</text>
<text text-anchor="start" x="110.5" y="-722.5" font-family="Helvetica,sans-Serif" font-size="10.00">+ high</text>
<polyline fill="none" stroke="black" points="102.5,-715.5 243.5,-715.5 "/>
<text text-anchor="middle" x="173" y="-703.5" font-family="Helvetica,sans-Serif" font-size="10.00"> </text>
</a>
</g>
</g>
<!-- Node6&#45;&gt;Node3 -->
<g id="edge5" class="edge">
<title>Node6&#45;&gt;Node3</title>
<path fill="none" stroke="#404040" d="M158.08,-696.35C153.77,-685.18 148.89,-672.55 143.96,-659.78"/>
<polygon fill="none" stroke="#404040" points="143.95,-659.76 138.06,-655.6 139.63,-648.57 145.52,-652.72 143.95,-659.76"/>
<text text-anchor="middle" x="182" y="-670" font-family="Helvetica,sans-Serif" font-size="10.00"> &#45;m_counters</text>
</g>
<!-- Node7 -->
<g id="node7" class="node">
<title>Node7</title>
<g id="a_node7"><a xlink:href="../../d4/dc1/class_h_a_l___e_s_p32.html" target="_top" xlink:title=" ">
<polygon fill="none" stroke="black" points="293.5,-310.5 293.5,-455.5 454.5,-455.5 454.5,-310.5 293.5,-310.5"/>
<text text-anchor="middle" x="374" y="-443.5" font-family="Helvetica,sans-Serif" font-size="10.00">HAL_ESP32</text>
<polyline fill="none" stroke="black" points="293.5,-436.5 454.5,-436.5 "/>
<text text-anchor="middle" x="374" y="-424.5" font-family="Helvetica,sans-Serif" font-size="10.00"> </text>
<polyline fill="none" stroke="black" points="293.5,-417.5 454.5,-417.5 "/>
<text text-anchor="start" x="301.5" y="-405.5" font-family="Helvetica,sans-Serif" font-size="10.00">+ HAL_ESP32()</text>
<text text-anchor="start" x="301.5" y="-394.5" font-family="Helvetica,sans-Serif" font-size="10.00">+ ~HAL_ESP32()</text>
<text text-anchor="start" x="301.5" y="-383.5" font-family="Helvetica,sans-Serif" font-size="10.00">+ setDutyCycle()</text>
<text text-anchor="start" x="301.5" y="-372.5" font-family="Helvetica,sans-Serif" font-size="10.00">+ setFrequency()</text>
<text text-anchor="start" x="301.5" y="-361.5" font-family="Helvetica,sans-Serif" font-size="10.00">+ stop()</text>
<text text-anchor="start" x="301.5" y="-350.5" font-family="Helvetica,sans-Serif" font-size="10.00">+ destroy()</text>
<text text-anchor="start" x="301.5" y="-339.5" font-family="Helvetica,sans-Serif" font-size="10.00">+ getConfig()</text>
<text text-anchor="start" x="301.5" y="-328.5" font-family="Helvetica,sans-Serif" font-size="10.00">&#45; calculateDutyCycleBasedOn</text>
<text text-anchor="start" x="301.5" y="-317.5" font-family="Helvetica,sans-Serif" font-size="10.00">Resolution()</text>
</a>
</g>
</g>
<!-- Node7&#45;&gt;Node2 -->
<g id="edge6" class="edge">
<title>Node7&#45;&gt;Node2</title>
<path fill="none" stroke="#404040" d="M356.92,-310.27C351.42,-296.02 344.27,-281.83 335,-270 324.78,-256.95 311.57,-245.5 297.8,-235.76"/>
<polygon fill="none" stroke="#404040" points="297.67,-235.67 290.46,-235.64 287.71,-228.97 294.92,-229 297.67,-235.67"/>
<text text-anchor="middle" x="370" y="-278.5" font-family="Helvetica,sans-Serif" font-size="10.00"> #m_hal</text>
</g>
<!-- Node8 -->
<g id="node8" class="node">
<title>Node8</title>
<g id="a_node8"><a xlink:href="../../d4/dc1/class_h_a_l___e_s_p32.html#d2/d6b/struct_h_a_l___e_s_p32_1_1config" target="_top" xlink:title=" ">
<polygon fill="none" stroke="black" points="320.5,-525.5 320.5,-626.5 427.5,-626.5 427.5,-525.5 320.5,-525.5"/>
<text text-anchor="middle" x="374" y="-614.5" font-family="Helvetica,sans-Serif" font-size="10.00">HAL_ESP32::config</text>
<polyline fill="none" stroke="black" points="320.5,-607.5 427.5,-607.5 "/>
<text text-anchor="start" x="328.5" y="-595.5" font-family="Helvetica,sans-Serif" font-size="10.00">+ m_pin</text>
<text text-anchor="start" x="328.5" y="-584.5" font-family="Helvetica,sans-Serif" font-size="10.00">+ duty</text>
<text text-anchor="start" x="328.5" y="-573.5" font-family="Helvetica,sans-Serif" font-size="10.00">+ frequency</text>
<text text-anchor="start" x="328.5" y="-562.5" font-family="Helvetica,sans-Serif" font-size="10.00">+ channel</text>
<text text-anchor="start" x="328.5" y="-551.5" font-family="Helvetica,sans-Serif" font-size="10.00">+ mode</text>
<polyline fill="none" stroke="black" points="320.5,-544.5 427.5,-544.5 "/>
<text text-anchor="middle" x="374" y="-532.5" font-family="Helvetica,sans-Serif" font-size="10.00"> </text>
</a>
</g>
</g>
<!-- Node8&#45;&gt;Node7 -->
<g id="edge7" class="edge">
<title>Node8&#45;&gt;Node7</title>
<path fill="none" stroke="#404040" d="M374,-525.32C374,-507.74 374,-487.45 374,-467.83"/>
<polygon fill="none" stroke="#404040" points="374,-467.73 370,-461.73 374,-455.73 378,-461.73 374,-467.73"/>
<text text-anchor="middle" x="395.5" y="-477" font-family="Helvetica,sans-Serif" font-size="10.00"> &#45;m_conf</text>
</g>
<!-- Node9&#45;&gt;Node2 -->
<g id="edge8" class="edge">
<title>Node9&#45;&gt;Node2</title>
<path fill="none" stroke="orange" d="M222,-322.11C222,-299.45 222,-273.78 222,-251.58"/>
<polygon fill="orange" stroke="orange" points="218.5,-322.29 222,-332.29 225.5,-322.29 218.5,-322.29"/>
<text text-anchor="start" x="222" y="-284" font-family="Helvetica,sans-Serif" font-size="10.00"> &lt; HAL_ESP32::config,</text>
<text text-anchor="middle" x="276.5" y="-273" font-family="Helvetica,sans-Serif" font-size="10.00"> HAL_ESP32 &gt;</text>
</g>
</g>
</svg>
        <g id="navigator" transform="translate(0 0)" fill="#404254">
                <rect fill="#f2f5e9" fill-opacity="0.5" stroke="#606060" stroke-width=".5" x="0" y="0" width="60" height="60"/>
                <use id="zoomplus" xlink:href="#zoomPlus" x="17" y="9" onmousedown="handleZoom(evt,'in')"/>
                <use id="zoomminus" xlink:href="#zoomMin" x="42" y="9" onmousedown="handleZoom(evt,'out')"/>
                <use id="reset" xlink:href="#resetDef" x="30" y="36" onmousedown="handleReset()"/>
                <g id="arrowUp" xlink:href="#dirArrow" transform="translate(30 24)" onmousedown="handlePan(0,-1)">
                  <use xlink:href="#rim" fill="#404040">
                        <set attributeName="fill" to="#808080" begin="arrowUp.mouseover" end="arrowUp.mouseout"/>
                  </use>
                  <path fill="none" stroke="white" stroke-width="1.5" d="M0,-3.0v7 M-2.5,-0.5L0,-3.0L2.5,-0.5"/>
                </g>
                <g id="arrowRight" xlink:href="#dirArrow" transform="rotate(90) translate(36 -43)" onmousedown="handlePan(1,0)">
                  <use xlink:href="#rim" fill="#404040">
                        <set attributeName="fill" to="#808080" begin="arrowRight.mouseover" end="arrowRight.mouseout"/>
                  </use>
                  <path fill="none" stroke="white" stroke-width="1.5" d="M0,-3.0v7 M-2.5,-0.5L0,-3.0L2.5,-0.5"/>
                </g>
                <g id="arrowDown" xlink:href="#dirArrow" transform="rotate(180) translate(-30 -48)" onmousedown="handlePan(0,1)">
                  <use xlink:href="#rim" fill="#404040">
                        <set attributeName="fill" to="#808080" begin="arrowDown.mouseover" end="arrowDown.mouseout"/>
                  </use>
                  <path fill="none" stroke="white" stroke-width="1.5" d="M0,-3.0v7 M-2.5,-0.5L0,-3.0L2.5,-0.5"/>
                </g>
                <g id="arrowLeft" xlink:href="#dirArrow" transform="rotate(270) translate(-36 17)" onmousedown="handlePan(-1,0)">
                  <use xlink:href="#rim" fill="#404040">
                        <set attributeName="fill" to="#808080" begin="arrowLeft.mouseover" end="arrowLeft.mouseout"/>
                  </use>
                  <path fill="none" stroke="white" stroke-width="1.5" d="M0,-3.0v7 M-2.5,-0.5L0,-3.0L2.5,-0.5"/>
                </g>
        </g>
        <svg viewBox="0 0 15 15" width="100%" height="30px" preserveAspectRatio="xMaxYMin meet">
         <g id="arrow_out" transform="scale(0.3 0.3)">
          <a xlink:href="class_p_w_m___a_p_i___e_s_p32__coll__graph_org.svg" target="_base">
           <rect id="button" ry="5" rx="5" y="6" x="6" height="38" width="38"
                fill="#f2f5e9" fill-opacity="0.5" stroke="#606060" stroke-width="1.0"/>
           <path id="arrow"
             d="M 11.500037,31.436501 C 11.940474,20.09759 22.043105,11.32322 32.158766,21.979434 L 37.068811,17.246167 C 37.068811,17.246167 37.088388,32 37.088388,32 L 22.160133,31.978069 C 22.160133,31.978069 26.997745,27.140456 26.997745,27.140456 C 18.528582,18.264221 13.291696,25.230495 11.500037,31.436501 z"
             style="fill:#404040;"/>
          </a>
         </g>
        </svg>
</svg>
