<?xml version="1.0" encoding="UTF-8" standalone="no"?>
<!DOCTYPE svg PUBLIC "-//W3C//DTD SVG 1.1//EN"
 "http://www.w3.org/Graphics/SVG/1.1/DTD/svg11.dtd">
<!-- Generated by graphviz version 2.43.0 (0)
 -->
<!-- Title: Components/Objects/Gpio/include/GPIO_API.hpp Pages: 1 -->
<svg width="915pt" height="284pt"
 viewBox="0.00 0.00 914.50 284.00" xmlns="http://www.w3.org/2000/svg" xmlns:xlink="http://www.w3.org/1999/xlink">
<g id="graph0" class="graph" transform="scale(1 1) rotate(0) translate(4 280)">
<title>Components/Objects/Gpio/include/GPIO_API.hpp</title>
<!-- Node1 -->
<g id="node1" class="node">
<title>Node1</title>
<g id="a_node1"><a xlink:title=" ">
<polygon fill="#bfbfbf" stroke="black" points="558,-245.5 558,-275.5 707,-275.5 707,-245.5 558,-245.5"/>
<text text-anchor="start" x="566" y="-263.5" font-family="Helvetica,sans-Serif" font-size="10.00">Components/Objects</text>
<text text-anchor="middle" x="632.5" y="-252.5" font-family="Helvetica,sans-Serif" font-size="10.00">/Gpio/include/GPIO_API.hpp</text>
</a>
</g>
</g>
<!-- Node2 -->
<g id="node2" class="node">
<title>Node2</title>
<g id="a_node2"><a xlink:href="../../db/d12/_distance_sensor_controller_8hpp.html" target="_top" xlink:title=" ">
<polygon fill="none" stroke="black" points="259,-167.5 259,-208.5 462,-208.5 462,-167.5 259,-167.5"/>
<text text-anchor="start" x="267" y="-196.5" font-family="Helvetica,sans-Serif" font-size="10.00">Components/Controller</text>
<text text-anchor="start" x="267" y="-185.5" font-family="Helvetica,sans-Serif" font-size="10.00">/DistanceSensorController</text>
<text text-anchor="middle" x="360.5" y="-174.5" font-family="Helvetica,sans-Serif" font-size="10.00">/include/DistanceSensorController.hpp</text>
</a>
</g>
</g>
<!-- Node1&#45;&gt;Node2 -->
<g id="edge1" class="edge">
<title>Node1&#45;&gt;Node2</title>
<path fill="none" stroke="midnightblue" d="M568.59,-242.94C528.85,-232.63 477.55,-219.34 435.83,-208.53"/>
<polygon fill="midnightblue" stroke="midnightblue" points="567.88,-246.37 578.44,-245.49 569.63,-239.59 567.88,-246.37"/>
</g>
<!-- Node6 -->
<g id="node6" class="node">
<title>Node6</title>
<g id="a_node6"><a xlink:href="../../d2/dc5/_service_base_8hpp.html" target="_top" xlink:title=" ">
<polygon fill="none" stroke="black" points="494.5,-167.5 494.5,-208.5 624.5,-208.5 624.5,-167.5 494.5,-167.5"/>
<text text-anchor="start" x="502.5" y="-196.5" font-family="Helvetica,sans-Serif" font-size="10.00">Components/Interfaces</text>
<text text-anchor="start" x="502.5" y="-185.5" font-family="Helvetica,sans-Serif" font-size="10.00">/ServiceBase/include</text>
<text text-anchor="middle" x="559.5" y="-174.5" font-family="Helvetica,sans-Serif" font-size="10.00">/ServiceBase.hpp</text>
</a>
</g>
</g>
<!-- Node1&#45;&gt;Node6 -->
<g id="edge5" class="edge">
<title>Node1&#45;&gt;Node6</title>
<path fill="none" stroke="midnightblue" d="M610.34,-238.1C600.62,-228.71 589.28,-217.76 579.78,-208.59"/>
<polygon fill="midnightblue" stroke="midnightblue" points="608.1,-240.8 617.73,-245.23 612.97,-235.77 608.1,-240.8"/>
</g>
<!-- Node12 -->
<g id="node12" class="node">
<title>Node12</title>
<g id="a_node12"><a xlink:href="../../de/d31/_g_p_i_o___a_p_i_8cpp.html" target="_top" xlink:title=" ">
<polygon fill="none" stroke="black" points="642.5,-173 642.5,-203 770.5,-203 770.5,-173 642.5,-173"/>
<text text-anchor="start" x="650.5" y="-191" font-family="Helvetica,sans-Serif" font-size="10.00">Components/Objects</text>
<text text-anchor="middle" x="706.5" y="-180" font-family="Helvetica,sans-Serif" font-size="10.00">/Gpio/src/GPIO_API.cpp</text>
</a>
</g>
</g>
<!-- Node1&#45;&gt;Node12 -->
<g id="edge12" class="edge">
<title>Node1&#45;&gt;Node12</title>
<path fill="none" stroke="midnightblue" d="M654.87,-238.19C666.75,-226.87 681.02,-213.27 691.55,-203.25"/>
<polygon fill="midnightblue" stroke="midnightblue" points="652.3,-235.8 647.48,-245.23 657.13,-240.87 652.3,-235.8"/>
</g>
<!-- Node13 -->
<g id="node13" class="node">
<title>Node13</title>
<g id="a_node13"><a xlink:href="../../d4/d7c/gpio__test_8cpp.html" target="_top" xlink:title=" ">
<polygon fill="none" stroke="black" points="788.5,-167.5 788.5,-208.5 906.5,-208.5 906.5,-167.5 788.5,-167.5"/>
<text text-anchor="start" x="796.5" y="-196.5" font-family="Helvetica,sans-Serif" font-size="10.00">Components/Objects</text>
<text text-anchor="start" x="796.5" y="-185.5" font-family="Helvetica,sans-Serif" font-size="10.00">/Gpio/test/test/gpio</text>
<text text-anchor="middle" x="847.5" y="-174.5" font-family="Helvetica,sans-Serif" font-size="10.00">_test.cpp</text>
</a>
</g>
</g>
<!-- Node1&#45;&gt;Node13 -->
<g id="edge13" class="edge">
<title>Node1&#45;&gt;Node13</title>
<path fill="none" stroke="midnightblue" d="M685.04,-242.27C716.23,-232.05 755.85,-219.05 788.16,-208.46"/>
<polygon fill="midnightblue" stroke="midnightblue" points="683.65,-239.05 675.23,-245.49 685.83,-245.7 683.65,-239.05"/>
</g>
<!-- Node3 -->
<g id="node3" class="node">
<title>Node3</title>
<g id="a_node3"><a xlink:href="../../dd/dde/_distance_sensor_controller_8cpp.html" target="_top" xlink:title=" ">
<polygon fill="none" stroke="black" points="0,-84 0,-125 181,-125 181,-84 0,-84"/>
<text text-anchor="start" x="8" y="-113" font-family="Helvetica,sans-Serif" font-size="10.00">Components/Controller</text>
<text text-anchor="start" x="8" y="-102" font-family="Helvetica,sans-Serif" font-size="10.00">/DistanceSensorController</text>
<text text-anchor="middle" x="90.5" y="-91" font-family="Helvetica,sans-Serif" font-size="10.00">/src/DistanceSensorController.cpp</text>
</a>
</g>
</g>
<!-- Node2&#45;&gt;Node3 -->
<g id="edge2" class="edge">
<title>Node2&#45;&gt;Node3</title>
<path fill="none" stroke="midnightblue" d="M286.14,-164.55C245.06,-152.16 194.53,-136.9 155.11,-125"/>
<polygon fill="midnightblue" stroke="midnightblue" points="285.24,-167.94 295.83,-167.48 287.27,-161.24 285.24,-167.94"/>
</g>
<!-- Node4 -->
<g id="node4" class="node">
<title>Node4</title>
<g id="a_node4"><a xlink:href="../../d7/d91/_distance_sensor_controller__test_8cpp.html" target="_top" xlink:title=" ">
<polygon fill="none" stroke="black" points="199,-78.5 199,-130.5 386,-130.5 386,-78.5 199,-78.5"/>
<text text-anchor="start" x="207" y="-118.5" font-family="Helvetica,sans-Serif" font-size="10.00">Components/Controller</text>
<text text-anchor="start" x="207" y="-107.5" font-family="Helvetica,sans-Serif" font-size="10.00">/DistanceSensorController</text>
<text text-anchor="start" x="207" y="-96.5" font-family="Helvetica,sans-Serif" font-size="10.00">/test/test/DistanceSensorController</text>
<text text-anchor="middle" x="292.5" y="-85.5" font-family="Helvetica,sans-Serif" font-size="10.00">_test.cpp</text>
</a>
</g>
</g>
<!-- Node2&#45;&gt;Node4 -->
<g id="edge3" class="edge">
<title>Node2&#45;&gt;Node4</title>
<path fill="none" stroke="midnightblue" d="M337.47,-159.4C329.69,-150.08 321.06,-139.73 313.45,-130.61"/>
<polygon fill="midnightblue" stroke="midnightblue" points="334.95,-161.84 344.04,-167.27 340.32,-157.35 334.95,-161.84"/>
</g>
<!-- Node5 -->
<g id="node5" class="node">
<title>Node5</title>
<g id="a_node5"><a xlink:href="../../da/d75/_data_broker__test_8cpp.html" target="_top" xlink:title=" ">
<polygon fill="none" stroke="black" points="396,-0.5 396,-41.5 515,-41.5 515,-0.5 396,-0.5"/>
<text text-anchor="start" x="404" y="-29.5" font-family="Helvetica,sans-Serif" font-size="10.00">Components/Objects</text>
<text text-anchor="start" x="404" y="-18.5" font-family="Helvetica,sans-Serif" font-size="10.00">/DataBroker/test/test</text>
<text text-anchor="middle" x="455.5" y="-7.5" font-family="Helvetica,sans-Serif" font-size="10.00">/DataBroker_test.cpp</text>
</a>
</g>
</g>
<!-- Node2&#45;&gt;Node5 -->
<g id="edge4" class="edge">
<title>Node2&#45;&gt;Node5</title>
<path fill="none" stroke="midnightblue" d="M377.99,-158.64C383.35,-149.82 389.23,-140.04 394.5,-131 412.52,-100.09 432.65,-63.74 444.69,-41.81"/>
<polygon fill="midnightblue" stroke="midnightblue" points="374.86,-157.05 372.63,-167.41 380.83,-160.7 374.86,-157.05"/>
</g>
<!-- Node7 -->
<g id="node7" class="node">
<title>Node7</title>
<g id="a_node7"><a xlink:href="../../dc/d1d/_service__test_8cpp.html" target="_top" xlink:title=" ">
<polygon fill="none" stroke="black" points="441.5,-84 441.5,-125 571.5,-125 571.5,-84 441.5,-84"/>
<text text-anchor="start" x="449.5" y="-113" font-family="Helvetica,sans-Serif" font-size="10.00">Components/Interfaces</text>
<text text-anchor="start" x="449.5" y="-102" font-family="Helvetica,sans-Serif" font-size="10.00">/ServiceBase/test/test</text>
<text text-anchor="middle" x="506.5" y="-91" font-family="Helvetica,sans-Serif" font-size="10.00">/Service_test.cpp</text>
</a>
</g>
</g>
<!-- Node6&#45;&gt;Node7 -->
<g id="edge6" class="edge">
<title>Node6&#45;&gt;Node7</title>
<path fill="none" stroke="midnightblue" d="M541.11,-158.72C533.89,-147.61 525.77,-135.13 519.21,-125.05"/>
<polygon fill="midnightblue" stroke="midnightblue" points="538.28,-160.8 546.67,-167.27 544.15,-156.98 538.28,-160.8"/>
</g>
<!-- Node8 -->
<g id="node8" class="node">
<title>Node8</title>
<g id="a_node8"><a xlink:href="../../d0/dc1/_data_broker_8hpp.html" target="_top" xlink:title=" ">
<polygon fill="none" stroke="black" points="589.5,-84 589.5,-125 707.5,-125 707.5,-84 589.5,-84"/>
<text text-anchor="start" x="597.5" y="-113" font-family="Helvetica,sans-Serif" font-size="10.00">Components/Objects</text>
<text text-anchor="start" x="597.5" y="-102" font-family="Helvetica,sans-Serif" font-size="10.00">/DataBroker/include</text>
<text text-anchor="middle" x="648.5" y="-91" font-family="Helvetica,sans-Serif" font-size="10.00">/DataBroker.hpp</text>
</a>
</g>
</g>
<!-- Node6&#45;&gt;Node8 -->
<g id="edge7" class="edge">
<title>Node6&#45;&gt;Node8</title>
<path fill="none" stroke="midnightblue" d="M588.59,-160.36C601.16,-148.85 615.6,-135.63 627.15,-125.05"/>
<polygon fill="midnightblue" stroke="midnightblue" points="586.06,-157.94 581.04,-167.27 590.78,-163.1 586.06,-157.94"/>
</g>
<!-- Node10 -->
<g id="node10" class="node">
<title>Node10</title>
<g id="a_node10"><a xlink:href="../../dd/d22/_water_estimator___service_8hpp.html" target="_top" xlink:title=" ">
<polygon fill="none" stroke="black" points="738.5,-84 738.5,-125 896.5,-125 896.5,-84 738.5,-84"/>
<text text-anchor="start" x="746.5" y="-113" font-family="Helvetica,sans-Serif" font-size="10.00">Components/Service</text>
<text text-anchor="start" x="746.5" y="-102" font-family="Helvetica,sans-Serif" font-size="10.00">/WaterEstimator/include</text>
<text text-anchor="middle" x="817.5" y="-91" font-family="Helvetica,sans-Serif" font-size="10.00">/WaterEstimator_Service.hpp</text>
</a>
</g>
</g>
<!-- Node6&#45;&gt;Node10 -->
<g id="edge10" class="edge">
<title>Node6&#45;&gt;Node10</title>
<path fill="none" stroke="midnightblue" d="M631.05,-164.4C670.21,-152.03 718.25,-136.85 755.76,-125"/>
<polygon fill="midnightblue" stroke="midnightblue" points="629.78,-161.13 621.3,-167.48 631.89,-167.8 629.78,-161.13"/>
</g>
<!-- Node8&#45;&gt;Node5 -->
<g id="edge9" class="edge">
<title>Node8&#45;&gt;Node5</title>
<path fill="none" stroke="midnightblue" d="M592.73,-79.95C563.86,-67.76 529.03,-53.05 501.69,-41.5"/>
<polygon fill="midnightblue" stroke="midnightblue" points="591.7,-83.31 602.27,-83.98 594.42,-76.86 591.7,-83.31"/>
</g>
<!-- Node9 -->
<g id="node9" class="node">
<title>Node9</title>
<g id="a_node9"><a xlink:href="../../d4/ddc/_data_broker_8cpp.html" target="_top" xlink:title=" ">
<polygon fill="none" stroke="black" points="556.5,-6 556.5,-36 726.5,-36 726.5,-6 556.5,-6"/>
<text text-anchor="start" x="564.5" y="-24" font-family="Helvetica,sans-Serif" font-size="10.00">Components/Objects</text>
<text text-anchor="middle" x="641.5" y="-13" font-family="Helvetica,sans-Serif" font-size="10.00">/DataBroker/src/DataBroker.cpp</text>
</a>
</g>
</g>
<!-- Node8&#45;&gt;Node9 -->
<g id="edge8" class="edge">
<title>Node8&#45;&gt;Node9</title>
<path fill="none" stroke="midnightblue" d="M645.93,-73.53C644.83,-60.76 643.6,-46.47 642.72,-36.18"/>
<polygon fill="midnightblue" stroke="midnightblue" points="642.46,-74.11 646.81,-83.77 649.44,-73.51 642.46,-74.11"/>
</g>
<!-- Node11 -->
<g id="node11" class="node">
<title>Node11</title>
<g id="a_node11"><a xlink:href="../../dd/dd3/_water_estimator___service_8cpp.html" target="_top" xlink:title=" ">
<polygon fill="none" stroke="black" points="744.5,-0.5 744.5,-41.5 902.5,-41.5 902.5,-0.5 744.5,-0.5"/>
<text text-anchor="start" x="752.5" y="-29.5" font-family="Helvetica,sans-Serif" font-size="10.00">Components/Service</text>
<text text-anchor="start" x="752.5" y="-18.5" font-family="Helvetica,sans-Serif" font-size="10.00">/WaterEstimator/src</text>
<text text-anchor="middle" x="823.5" y="-7.5" font-family="Helvetica,sans-Serif" font-size="10.00">/WaterEstimator_Service.cpp</text>
</a>
</g>
</g>
<!-- Node10&#45;&gt;Node11 -->
<g id="edge11" class="edge">
<title>Node10&#45;&gt;Node11</title>
<path fill="none" stroke="midnightblue" d="M819.7,-73.56C820.49,-62.88 821.36,-51.13 822.06,-41.55"/>
<polygon fill="midnightblue" stroke="midnightblue" points="816.2,-73.54 818.95,-83.77 823.18,-74.06 816.2,-73.54"/>
</g>
</g>
</svg>
