<?xml version="1.0" encoding="UTF-8" standalone="no"?>
<!DOCTYPE svg PUBLIC "-//W3C//DTD SVG 1.1//EN"
 "http://www.w3.org/Graphics/SVG/1.1/DTD/svg11.dtd">
<!-- Generated by graphviz version 2.43.0 (0)
 -->
<!-- Title: Components/Objects/Gpio/include/GPIO_API.hpp Pages: 1 -->
<svg width="1065pt" height="284pt"
 viewBox="0.00 0.00 1065.00 284.00" xmlns="http://www.w3.org/2000/svg" xmlns:xlink="http://www.w3.org/1999/xlink">
<g id="graph0" class="graph" transform="scale(1 1) rotate(0) translate(4 280)">
<title>Components/Objects/Gpio/include/GPIO_API.hpp</title>
<!-- Node1 -->
<g id="node1" class="node">
<title>Node1</title>
<g id="a_node1"><a xlink:title=" ">
<polygon fill="#bfbfbf" stroke="black" points="646.5,-245.5 646.5,-275.5 795.5,-275.5 795.5,-245.5 646.5,-245.5"/>
<text text-anchor="start" x="654.5" y="-263.5" font-family="Helvetica,sans-Serif" font-size="10.00">Components/Objects</text>
<text text-anchor="middle" x="721" y="-252.5" font-family="Helvetica,sans-Serif" font-size="10.00">/Gpio/include/GPIO_API.hpp</text>
</a>
</g>
</g>
<!-- Node2 -->
<g id="node2" class="node">
<title>Node2</title>
<g id="a_node2"><a xlink:href="../../db/d12/_distance_sensor_controller_8hpp.html" target="_top" xlink:title=" ">
<polygon fill="none" stroke="black" points="252,-167.5 252,-208.5 454,-208.5 454,-167.5 252,-167.5"/>
<text text-anchor="start" x="260" y="-196.5" font-family="Helvetica,sans-Serif" font-size="10.00">Components/Controller</text>
<text text-anchor="start" x="260" y="-185.5" font-family="Helvetica,sans-Serif" font-size="10.00">/DistanceSensorController</text>
<text text-anchor="middle" x="353" y="-174.5" font-family="Helvetica,sans-Serif" font-size="10.00">/include/DistanceSensorController.hpp</text>
</a>
</g>
</g>
<!-- Node1&#45;&gt;Node2 -->
<g id="edge1" class="edge">
<title>Node1&#45;&gt;Node2</title>
<path fill="none" stroke="midnightblue" d="M637.9,-243.58C583.46,-233.15 511.97,-219.45 454.22,-208.39"/>
<polygon fill="midnightblue" stroke="midnightblue" points="637.38,-247.04 647.86,-245.49 638.69,-240.17 637.38,-247.04"/>
</g>
<!-- Node6 -->
<g id="node6" class="node">
<title>Node6</title>
<g id="a_node6"><a xlink:href="../../d2/dc5/_service_base_8hpp.html" target="_top" xlink:title=" ">
<polygon fill="none" stroke="black" points="583,-167.5 583,-208.5 713,-208.5 713,-167.5 583,-167.5"/>
<text text-anchor="start" x="591" y="-196.5" font-family="Helvetica,sans-Serif" font-size="10.00">Components/Interfaces</text>
<text text-anchor="start" x="591" y="-185.5" font-family="Helvetica,sans-Serif" font-size="10.00">/ServiceBase/include</text>
<text text-anchor="middle" x="648" y="-174.5" font-family="Helvetica,sans-Serif" font-size="10.00">/ServiceBase.hpp</text>
</a>
</g>
</g>
<!-- Node1&#45;&gt;Node6 -->
<g id="edge5" class="edge">
<title>Node1&#45;&gt;Node6</title>
<path fill="none" stroke="midnightblue" d="M698.84,-238.1C689.12,-228.71 677.78,-217.76 668.28,-208.59"/>
<polygon fill="midnightblue" stroke="midnightblue" points="696.6,-240.8 706.23,-245.23 701.47,-235.77 696.6,-240.8"/>
</g>
<!-- Node14 -->
<g id="node14" class="node">
<title>Node14</title>
<g id="a_node14"><a xlink:href="../../de/d31/_g_p_i_o___a_p_i_8cpp.html" target="_top" xlink:title=" ">
<polygon fill="none" stroke="black" points="731,-173 731,-203 859,-203 859,-173 731,-173"/>
<text text-anchor="start" x="739" y="-191" font-family="Helvetica,sans-Serif" font-size="10.00">Components/Objects</text>
<text text-anchor="middle" x="795" y="-180" font-family="Helvetica,sans-Serif" font-size="10.00">/Gpio/src/GPIO_API.cpp</text>
</a>
</g>
</g>
<!-- Node1&#45;&gt;Node14 -->
<g id="edge14" class="edge">
<title>Node1&#45;&gt;Node14</title>
<path fill="none" stroke="midnightblue" d="M743.37,-238.19C755.25,-226.87 769.52,-213.27 780.05,-203.25"/>
<polygon fill="midnightblue" stroke="midnightblue" points="740.8,-235.8 735.98,-245.23 745.63,-240.87 740.8,-235.8"/>
</g>
<!-- Node15 -->
<g id="node15" class="node">
<title>Node15</title>
<g id="a_node15"><a xlink:href="../../d4/d7c/gpio__test_8cpp.html" target="_top" xlink:title=" ">
<polygon fill="none" stroke="black" points="877,-167.5 877,-208.5 995,-208.5 995,-167.5 877,-167.5"/>
<text text-anchor="start" x="885" y="-196.5" font-family="Helvetica,sans-Serif" font-size="10.00">Components/Objects</text>
<text text-anchor="start" x="885" y="-185.5" font-family="Helvetica,sans-Serif" font-size="10.00">/Gpio/test/test/gpio</text>
<text text-anchor="middle" x="936" y="-174.5" font-family="Helvetica,sans-Serif" font-size="10.00">_test.cpp</text>
</a>
</g>
</g>
<!-- Node1&#45;&gt;Node15 -->
<g id="edge15" class="edge">
<title>Node1&#45;&gt;Node15</title>
<path fill="none" stroke="midnightblue" d="M773.54,-242.27C804.73,-232.05 844.35,-219.05 876.66,-208.46"/>
<polygon fill="midnightblue" stroke="midnightblue" points="772.15,-239.05 763.73,-245.49 774.33,-245.7 772.15,-239.05"/>
</g>
<!-- Node3 -->
<g id="node3" class="node">
<title>Node3</title>
<g id="a_node3"><a xlink:href="../../dd/dde/_distance_sensor_controller_8cpp.html" target="_top" xlink:title=" ">
<polygon fill="none" stroke="black" points="0,-84 0,-125 180,-125 180,-84 0,-84"/>
<text text-anchor="start" x="8" y="-113" font-family="Helvetica,sans-Serif" font-size="10.00">Components/Controller</text>
<text text-anchor="start" x="8" y="-102" font-family="Helvetica,sans-Serif" font-size="10.00">/DistanceSensorController</text>
<text text-anchor="middle" x="90" y="-91" font-family="Helvetica,sans-Serif" font-size="10.00">/src/DistanceSensorController.cpp</text>
</a>
</g>
</g>
<!-- Node2&#45;&gt;Node3 -->
<g id="edge2" class="edge">
<title>Node2&#45;&gt;Node3</title>
<path fill="none" stroke="midnightblue" d="M280.32,-164.48C240.35,-152.09 191.25,-136.88 152.94,-125"/>
<polygon fill="midnightblue" stroke="midnightblue" points="279.42,-167.86 290,-167.48 281.49,-161.18 279.42,-167.86"/>
</g>
<!-- Node4 -->
<g id="node4" class="node">
<title>Node4</title>
<g id="a_node4"><a xlink:href="../../d7/d91/_distance_sensor_controller__test_8cpp.html" target="_top" xlink:title=" ">
<polygon fill="none" stroke="black" points="198.5,-78.5 198.5,-130.5 385.5,-130.5 385.5,-78.5 198.5,-78.5"/>
<text text-anchor="start" x="206.5" y="-118.5" font-family="Helvetica,sans-Serif" font-size="10.00">Components/Controller</text>
<text text-anchor="start" x="206.5" y="-107.5" font-family="Helvetica,sans-Serif" font-size="10.00">/DistanceSensorController</text>
<text text-anchor="start" x="206.5" y="-96.5" font-family="Helvetica,sans-Serif" font-size="10.00">/test/test/DistanceSensorController</text>
<text text-anchor="middle" x="292" y="-85.5" font-family="Helvetica,sans-Serif" font-size="10.00">_test.cpp</text>
</a>
</g>
</g>
<!-- Node2&#45;&gt;Node4 -->
<g id="edge3" class="edge">
<title>Node2&#45;&gt;Node4</title>
<path fill="none" stroke="midnightblue" d="M332.13,-159.12C325.21,-149.87 317.55,-139.63 310.79,-130.61"/>
<polygon fill="midnightblue" stroke="midnightblue" points="329.44,-161.36 338.23,-167.27 335.04,-157.17 329.44,-161.36"/>
</g>
<!-- Node5 -->
<g id="node5" class="node">
<title>Node5</title>
<g id="a_node5"><a xlink:href="../../da/d75/_data_broker__test_8cpp.html" target="_top" xlink:title=" ">
<polygon fill="none" stroke="black" points="377.5,-0.5 377.5,-41.5 496.5,-41.5 496.5,-0.5 377.5,-0.5"/>
<text text-anchor="start" x="385.5" y="-29.5" font-family="Helvetica,sans-Serif" font-size="10.00">Components/Objects</text>
<text text-anchor="start" x="385.5" y="-18.5" font-family="Helvetica,sans-Serif" font-size="10.00">/DataBroker/test/test</text>
<text text-anchor="middle" x="437" y="-7.5" font-family="Helvetica,sans-Serif" font-size="10.00">/DataBroker_test.cpp</text>
</a>
</g>
</g>
<!-- Node2&#45;&gt;Node5 -->
<g id="edge4" class="edge">
<title>Node2&#45;&gt;Node5</title>
<path fill="none" stroke="midnightblue" d="M375.4,-159.36C381.89,-150.6 388.67,-140.68 394,-131 410.4,-101.25 423.7,-63.93 430.97,-41.58"/>
<polygon fill="midnightblue" stroke="midnightblue" points="372.58,-157.28 369.31,-167.36 378.15,-161.52 372.58,-157.28"/>
</g>
<!-- Node7 -->
<g id="node7" class="node">
<title>Node7</title>
<g id="a_node7"><a xlink:href="../../dc/d1d/_service__test_8cpp.html" target="_top" xlink:title=" ">
<polygon fill="none" stroke="black" points="441,-84 441,-125 571,-125 571,-84 441,-84"/>
<text text-anchor="start" x="449" y="-113" font-family="Helvetica,sans-Serif" font-size="10.00">Components/Interfaces</text>
<text text-anchor="start" x="449" y="-102" font-family="Helvetica,sans-Serif" font-size="10.00">/ServiceBase/test/test</text>
<text text-anchor="middle" x="506" y="-91" font-family="Helvetica,sans-Serif" font-size="10.00">/Service_test.cpp</text>
</a>
</g>
</g>
<!-- Node6&#45;&gt;Node7 -->
<g id="edge6" class="edge">
<title>Node6&#45;&gt;Node7</title>
<path fill="none" stroke="midnightblue" d="M605.05,-162.35C584.28,-150.43 559.71,-136.32 540.23,-125.14"/>
<polygon fill="midnightblue" stroke="midnightblue" points="603.57,-165.54 613.99,-167.48 607.06,-159.47 603.57,-165.54"/>
</g>
<!-- Node8 -->
<g id="node8" class="node">
<title>Node8</title>
<g id="a_node8"><a xlink:href="../../d0/dc1/_data_broker_8hpp.html" target="_top" xlink:title=" ">
<polygon fill="none" stroke="black" points="589,-84 589,-125 707,-125 707,-84 589,-84"/>
<text text-anchor="start" x="597" y="-113" font-family="Helvetica,sans-Serif" font-size="10.00">Components/Objects</text>
<text text-anchor="start" x="597" y="-102" font-family="Helvetica,sans-Serif" font-size="10.00">/DataBroker/include</text>
<text text-anchor="middle" x="648" y="-91" font-family="Helvetica,sans-Serif" font-size="10.00">/DataBroker.hpp</text>
</a>
</g>
</g>
<!-- Node6&#45;&gt;Node8 -->
<g id="edge7" class="edge">
<title>Node6&#45;&gt;Node8</title>
<path fill="none" stroke="midnightblue" d="M648,-157.06C648,-146.38 648,-134.63 648,-125.05"/>
<polygon fill="midnightblue" stroke="midnightblue" points="644.5,-157.27 648,-167.27 651.5,-157.27 644.5,-157.27"/>
</g>
<!-- Node10 -->
<g id="node10" class="node">
<title>Node10</title>
<g id="a_node10"><a xlink:href="../../d2/d1e/_online_detector__service_8hpp.html" target="_top" xlink:title=" ">
<polygon fill="none" stroke="black" points="725.5,-84 725.5,-125 880.5,-125 880.5,-84 725.5,-84"/>
<text text-anchor="start" x="733.5" y="-113" font-family="Helvetica,sans-Serif" font-size="10.00">Components/Service</text>
<text text-anchor="start" x="733.5" y="-102" font-family="Helvetica,sans-Serif" font-size="10.00">/OnlineDetector/include</text>
<text text-anchor="middle" x="803" y="-91" font-family="Helvetica,sans-Serif" font-size="10.00">/OnlineDetector_service.hpp</text>
</a>
</g>
</g>
<!-- Node6&#45;&gt;Node10 -->
<g id="edge10" class="edge">
<title>Node6&#45;&gt;Node10</title>
<path fill="none" stroke="midnightblue" d="M694,-162.81C716.95,-150.75 744.33,-136.35 765.91,-125"/>
<polygon fill="midnightblue" stroke="midnightblue" points="692.35,-159.73 685.13,-167.48 695.61,-165.92 692.35,-159.73"/>
</g>
<!-- Node12 -->
<g id="node12" class="node">
<title>Node12</title>
<g id="a_node12"><a xlink:href="../../dd/d22/_water_estimator___service_8hpp.html" target="_top" xlink:title=" ">
<polygon fill="none" stroke="black" points="899,-84 899,-125 1057,-125 1057,-84 899,-84"/>
<text text-anchor="start" x="907" y="-113" font-family="Helvetica,sans-Serif" font-size="10.00">Components/Service</text>
<text text-anchor="start" x="907" y="-102" font-family="Helvetica,sans-Serif" font-size="10.00">/WaterEstimator/include</text>
<text text-anchor="middle" x="978" y="-91" font-family="Helvetica,sans-Serif" font-size="10.00">/WaterEstimator_Service.hpp</text>
</a>
</g>
</g>
<!-- Node6&#45;&gt;Node12 -->
<g id="edge12" class="edge">
<title>Node6&#45;&gt;Node12</title>
<path fill="none" stroke="midnightblue" d="M723.21,-166.77C797.93,-149.05 818.99,-148.87 890,-131 897.25,-129.18 904.8,-127.16 912.31,-125.09"/>
<polygon fill="midnightblue" stroke="midnightblue" points="722.23,-163.41 713.32,-169.14 723.86,-170.21 722.23,-163.41"/>
</g>
<!-- Node8&#45;&gt;Node5 -->
<g id="edge9" class="edge">
<title>Node8&#45;&gt;Node5</title>
<path fill="none" stroke="midnightblue" d="M587.85,-80.27C556.13,-68.01 517.65,-53.15 487.49,-41.5"/>
<polygon fill="midnightblue" stroke="midnightblue" points="586.87,-83.64 597.46,-83.98 589.39,-77.11 586.87,-83.64"/>
</g>
<!-- Node9 -->
<g id="node9" class="node">
<title>Node9</title>
<g id="a_node9"><a xlink:href="../../d4/ddc/_data_broker_8cpp.html" target="_top" xlink:title=" ">
<polygon fill="none" stroke="black" points="538.5,-6 538.5,-36 707.5,-36 707.5,-6 538.5,-6"/>
<text text-anchor="start" x="546.5" y="-24" font-family="Helvetica,sans-Serif" font-size="10.00">Components/Objects</text>
<text text-anchor="middle" x="623" y="-13" font-family="Helvetica,sans-Serif" font-size="10.00">/DataBroker/src/DataBroker.cpp</text>
</a>
</g>
</g>
<!-- Node8&#45;&gt;Node9 -->
<g id="edge8" class="edge">
<title>Node8&#45;&gt;Node9</title>
<path fill="none" stroke="midnightblue" d="M638.92,-73.91C634.98,-61.04 630.54,-46.57 627.35,-36.18"/>
<polygon fill="midnightblue" stroke="midnightblue" points="635.67,-75.24 641.95,-83.77 642.36,-73.18 635.67,-75.24"/>
</g>
<!-- Node11 -->
<g id="node11" class="node">
<title>Node11</title>
<g id="a_node11"><a xlink:href="../../d7/d24/_online_detector__service_8cpp.html" target="_top" xlink:title=" ">
<polygon fill="none" stroke="black" points="726,-0.5 726,-41.5 880,-41.5 880,-0.5 726,-0.5"/>
<text text-anchor="start" x="734" y="-29.5" font-family="Helvetica,sans-Serif" font-size="10.00">Components/Service</text>
<text text-anchor="start" x="734" y="-18.5" font-family="Helvetica,sans-Serif" font-size="10.00">/OnlineDetector/src</text>
<text text-anchor="middle" x="803" y="-7.5" font-family="Helvetica,sans-Serif" font-size="10.00">/OnlineDetector_service.cpp</text>
</a>
</g>
</g>
<!-- Node10&#45;&gt;Node11 -->
<g id="edge11" class="edge">
<title>Node10&#45;&gt;Node11</title>
<path fill="none" stroke="midnightblue" d="M803,-73.56C803,-62.88 803,-51.13 803,-41.55"/>
<polygon fill="midnightblue" stroke="midnightblue" points="799.5,-73.77 803,-83.77 806.5,-73.77 799.5,-73.77"/>
</g>
<!-- Node13 -->
<g id="node13" class="node">
<title>Node13</title>
<g id="a_node13"><a xlink:href="../../dd/dd3/_water_estimator___service_8cpp.html" target="_top" xlink:title=" ">
<polygon fill="none" stroke="black" points="899.5,-0.5 899.5,-41.5 1056.5,-41.5 1056.5,-0.5 899.5,-0.5"/>
<text text-anchor="start" x="907.5" y="-29.5" font-family="Helvetica,sans-Serif" font-size="10.00">Components/Service</text>
<text text-anchor="start" x="907.5" y="-18.5" font-family="Helvetica,sans-Serif" font-size="10.00">/WaterEstimator/src</text>
<text text-anchor="middle" x="978" y="-7.5" font-family="Helvetica,sans-Serif" font-size="10.00">/WaterEstimator_Service.cpp</text>
</a>
</g>
</g>
<!-- Node12&#45;&gt;Node13 -->
<g id="edge13" class="edge">
<title>Node12&#45;&gt;Node13</title>
<path fill="none" stroke="midnightblue" d="M978,-73.56C978,-62.88 978,-51.13 978,-41.55"/>
<polygon fill="midnightblue" stroke="midnightblue" points="974.5,-73.77 978,-83.77 981.5,-73.77 974.5,-73.77"/>
</g>
</g>
</svg>
