<?xml version="1.0" encoding="UTF-8" standalone="no"?>
<!DOCTYPE svg PUBLIC "-//W3C//DTD SVG 1.1//EN"
 "http://www.w3.org/Graphics/SVG/1.1/DTD/svg11.dtd">
<!-- Generated by graphviz version 2.43.0 (0)
 -->
<!-- Title: Components/Objects/Gpio/include/GPIO_API.hpp Pages: 1 -->
<svg width="1409pt" height="362pt"
 viewBox="0.00 0.00 1409.00 362.00" xmlns="http://www.w3.org/2000/svg" xmlns:xlink="http://www.w3.org/1999/xlink">
<g id="graph0" class="graph" transform="scale(1 1) rotate(0) translate(4 358)">
<title>Components/Objects/Gpio/include/GPIO_API.hpp</title>
<!-- Node1 -->
<g id="node1" class="node">
<title>Node1</title>
<g id="a_node1"><a xlink:title=" ">
<polygon fill="#bfbfbf" stroke="black" points="802.5,-323.5 802.5,-353.5 951.5,-353.5 951.5,-323.5 802.5,-323.5"/>
<text text-anchor="start" x="810.5" y="-341.5" font-family="Helvetica,sans-Serif" font-size="10.00">Components/Objects</text>
<text text-anchor="middle" x="877" y="-330.5" font-family="Helvetica,sans-Serif" font-size="10.00">/Gpio/include/GPIO_API.hpp</text>
</a>
</g>
</g>
<!-- Node2 -->
<g id="node2" class="node">
<title>Node2</title>
<g id="a_node2"><a xlink:href="../../db/d12/_distance_sensor_controller_8hpp.html" target="_top" xlink:title=" ">
<polygon fill="none" stroke="black" points="252,-245.5 252,-286.5 454,-286.5 454,-245.5 252,-245.5"/>
<text text-anchor="start" x="260" y="-274.5" font-family="Helvetica,sans-Serif" font-size="10.00">Components/Controller</text>
<text text-anchor="start" x="260" y="-263.5" font-family="Helvetica,sans-Serif" font-size="10.00">/DistanceSensorController</text>
<text text-anchor="middle" x="353" y="-252.5" font-family="Helvetica,sans-Serif" font-size="10.00">/include/DistanceSensorController.hpp</text>
</a>
</g>
</g>
<!-- Node1&#45;&gt;Node2 -->
<g id="edge1" class="edge">
<title>Node1&#45;&gt;Node2</title>
<path fill="none" stroke="midnightblue" d="M792.34,-326.11C700.08,-313.7 552.53,-293.85 454.22,-280.62"/>
<polygon fill="midnightblue" stroke="midnightblue" points="792.1,-329.61 802.48,-327.47 793.04,-322.67 792.1,-329.61"/>
</g>
<!-- Node6 -->
<g id="node6" class="node">
<title>Node6</title>
<g id="a_node6"><a xlink:href="../../d2/dc5/_service_base_8hpp.html" target="_top" xlink:title=" ">
<polygon fill="none" stroke="black" points="739,-245.5 739,-286.5 869,-286.5 869,-245.5 739,-245.5"/>
<text text-anchor="start" x="747" y="-274.5" font-family="Helvetica,sans-Serif" font-size="10.00">Components/Interfaces</text>
<text text-anchor="start" x="747" y="-263.5" font-family="Helvetica,sans-Serif" font-size="10.00">/ServiceBase/include</text>
<text text-anchor="middle" x="804" y="-252.5" font-family="Helvetica,sans-Serif" font-size="10.00">/ServiceBase.hpp</text>
</a>
</g>
</g>
<!-- Node1&#45;&gt;Node6 -->
<g id="edge5" class="edge">
<title>Node1&#45;&gt;Node6</title>
<path fill="none" stroke="midnightblue" d="M854.84,-316.1C845.12,-306.71 833.78,-295.76 824.28,-286.59"/>
<polygon fill="midnightblue" stroke="midnightblue" points="852.6,-318.8 862.23,-323.23 857.47,-313.77 852.6,-318.8"/>
</g>
<!-- Node20 -->
<g id="node20" class="node">
<title>Node20</title>
<g id="a_node20"><a xlink:href="../../de/d31/_g_p_i_o___a_p_i_8cpp.html" target="_top" xlink:title=" ">
<polygon fill="none" stroke="black" points="887,-251 887,-281 1015,-281 1015,-251 887,-251"/>
<text text-anchor="start" x="895" y="-269" font-family="Helvetica,sans-Serif" font-size="10.00">Components/Objects</text>
<text text-anchor="middle" x="951" y="-258" font-family="Helvetica,sans-Serif" font-size="10.00">/Gpio/src/GPIO_API.cpp</text>
</a>
</g>
</g>
<!-- Node1&#45;&gt;Node20 -->
<g id="edge21" class="edge">
<title>Node1&#45;&gt;Node20</title>
<path fill="none" stroke="midnightblue" d="M899.37,-316.19C911.25,-304.87 925.52,-291.27 936.05,-281.25"/>
<polygon fill="midnightblue" stroke="midnightblue" points="896.8,-313.8 891.98,-323.23 901.63,-318.87 896.8,-313.8"/>
</g>
<!-- Node21 -->
<g id="node21" class="node">
<title>Node21</title>
<g id="a_node21"><a xlink:href="../../d4/d7c/gpio__test_8cpp.html" target="_top" xlink:title=" ">
<polygon fill="none" stroke="black" points="1033,-245.5 1033,-286.5 1151,-286.5 1151,-245.5 1033,-245.5"/>
<text text-anchor="start" x="1041" y="-274.5" font-family="Helvetica,sans-Serif" font-size="10.00">Components/Objects</text>
<text text-anchor="start" x="1041" y="-263.5" font-family="Helvetica,sans-Serif" font-size="10.00">/Gpio/test/test/gpio</text>
<text text-anchor="middle" x="1092" y="-252.5" font-family="Helvetica,sans-Serif" font-size="10.00">_test.cpp</text>
</a>
</g>
</g>
<!-- Node1&#45;&gt;Node21 -->
<g id="edge22" class="edge">
<title>Node1&#45;&gt;Node21</title>
<path fill="none" stroke="midnightblue" d="M929.54,-320.27C960.73,-310.05 1000.35,-297.05 1032.66,-286.46"/>
<polygon fill="midnightblue" stroke="midnightblue" points="928.15,-317.05 919.73,-323.49 930.33,-323.7 928.15,-317.05"/>
</g>
<!-- Node3 -->
<g id="node3" class="node">
<title>Node3</title>
<g id="a_node3"><a xlink:href="../../dd/dde/_distance_sensor_controller_8cpp.html" target="_top" xlink:title=" ">
<polygon fill="none" stroke="black" points="0,-162 0,-203 180,-203 180,-162 0,-162"/>
<text text-anchor="start" x="8" y="-191" font-family="Helvetica,sans-Serif" font-size="10.00">Components/Controller</text>
<text text-anchor="start" x="8" y="-180" font-family="Helvetica,sans-Serif" font-size="10.00">/DistanceSensorController</text>
<text text-anchor="middle" x="90" y="-169" font-family="Helvetica,sans-Serif" font-size="10.00">/src/DistanceSensorController.cpp</text>
</a>
</g>
</g>
<!-- Node2&#45;&gt;Node3 -->
<g id="edge2" class="edge">
<title>Node2&#45;&gt;Node3</title>
<path fill="none" stroke="midnightblue" d="M280.32,-242.48C240.35,-230.09 191.25,-214.88 152.94,-203"/>
<polygon fill="midnightblue" stroke="midnightblue" points="279.42,-245.86 290,-245.48 281.49,-239.18 279.42,-245.86"/>
</g>
<!-- Node4 -->
<g id="node4" class="node">
<title>Node4</title>
<g id="a_node4"><a xlink:href="../../d7/d91/_distance_sensor_controller__test_8cpp.html" target="_top" xlink:title=" ">
<polygon fill="none" stroke="black" points="198.5,-156.5 198.5,-208.5 385.5,-208.5 385.5,-156.5 198.5,-156.5"/>
<text text-anchor="start" x="206.5" y="-196.5" font-family="Helvetica,sans-Serif" font-size="10.00">Components/Controller</text>
<text text-anchor="start" x="206.5" y="-185.5" font-family="Helvetica,sans-Serif" font-size="10.00">/DistanceSensorController</text>
<text text-anchor="start" x="206.5" y="-174.5" font-family="Helvetica,sans-Serif" font-size="10.00">/test/test/DistanceSensorController</text>
<text text-anchor="middle" x="292" y="-163.5" font-family="Helvetica,sans-Serif" font-size="10.00">_test.cpp</text>
</a>
</g>
</g>
<!-- Node2&#45;&gt;Node4 -->
<g id="edge3" class="edge">
<title>Node2&#45;&gt;Node4</title>
<path fill="none" stroke="midnightblue" d="M332.13,-237.12C325.21,-227.87 317.55,-217.63 310.79,-208.61"/>
<polygon fill="midnightblue" stroke="midnightblue" points="329.44,-239.36 338.23,-245.27 335.04,-235.17 329.44,-239.36"/>
</g>
<!-- Node5 -->
<g id="node5" class="node">
<title>Node5</title>
<g id="a_node5"><a xlink:href="../../da/d75/_data_broker__test_8cpp.html" target="_top" xlink:title=" ">
<polygon fill="none" stroke="black" points="315.5,-0.5 315.5,-41.5 434.5,-41.5 434.5,-0.5 315.5,-0.5"/>
<text text-anchor="start" x="323.5" y="-29.5" font-family="Helvetica,sans-Serif" font-size="10.00">Components/Objects</text>
<text text-anchor="start" x="323.5" y="-18.5" font-family="Helvetica,sans-Serif" font-size="10.00">/DataBroker/test/test</text>
<text text-anchor="middle" x="375" y="-7.5" font-family="Helvetica,sans-Serif" font-size="10.00">/DataBroker_test.cpp</text>
</a>
</g>
</g>
<!-- Node2&#45;&gt;Node5 -->
<g id="edge4" class="edge">
<title>Node2&#45;&gt;Node5</title>
<path fill="none" stroke="midnightblue" d="M378.59,-237.25C384.86,-228.79 390.71,-219.05 394,-209 413.17,-150.38 393.68,-76.39 382.16,-41.68"/>
<polygon fill="midnightblue" stroke="midnightblue" points="375.72,-235.24 372.26,-245.25 381.21,-239.58 375.72,-235.24"/>
</g>
<!-- Node7 -->
<g id="node7" class="node">
<title>Node7</title>
<g id="a_node7"><a xlink:href="../../d2/dd8/_service_queue_base_8hpp.html" target="_top" xlink:title=" ">
<polygon fill="none" stroke="black" points="738,-162 738,-203 870,-203 870,-162 738,-162"/>
<text text-anchor="start" x="746" y="-191" font-family="Helvetica,sans-Serif" font-size="10.00">Components/Interfaces</text>
<text text-anchor="start" x="746" y="-180" font-family="Helvetica,sans-Serif" font-size="10.00">/ServiceBase/include</text>
<text text-anchor="middle" x="804" y="-169" font-family="Helvetica,sans-Serif" font-size="10.00">/ServiceQueueBase.hpp</text>
</a>
</g>
</g>
<!-- Node6&#45;&gt;Node7 -->
<g id="edge6" class="edge">
<title>Node6&#45;&gt;Node7</title>
<path fill="none" stroke="midnightblue" d="M804,-235.06C804,-224.38 804,-212.63 804,-203.05"/>
<polygon fill="midnightblue" stroke="midnightblue" points="800.5,-235.27 804,-245.27 807.5,-235.27 800.5,-235.27"/>
</g>
<!-- Node16 -->
<g id="node16" class="node">
<title>Node16</title>
<g id="a_node16"><a xlink:href="../../d8/deb/_service_time_base_8hpp.html" target="_top" xlink:title=" ">
<polygon fill="none" stroke="black" points="989,-162 989,-203 1119,-203 1119,-162 989,-162"/>
<text text-anchor="start" x="997" y="-191" font-family="Helvetica,sans-Serif" font-size="10.00">Components/Interfaces</text>
<text text-anchor="start" x="997" y="-180" font-family="Helvetica,sans-Serif" font-size="10.00">/ServiceBase/include</text>
<text text-anchor="middle" x="1054" y="-169" font-family="Helvetica,sans-Serif" font-size="10.00">/ServiceTimeBase.hpp</text>
</a>
</g>
</g>
<!-- Node6&#45;&gt;Node16 -->
<g id="edge16" class="edge">
<title>Node6&#45;&gt;Node16</title>
<path fill="none" stroke="midnightblue" d="M873.82,-242.24C911.67,-229.9 957.98,-214.8 994.17,-203"/>
<polygon fill="midnightblue" stroke="midnightblue" points="872.3,-239.05 863.88,-245.48 874.47,-245.71 872.3,-239.05"/>
</g>
<!-- Node8 -->
<g id="node8" class="node">
<title>Node8</title>
<g id="a_node8"><a xlink:href="../../dc/d1d/_service__test_8cpp.html" target="_top" xlink:title=" ">
<polygon fill="none" stroke="black" points="989,-78.5 989,-119.5 1119,-119.5 1119,-78.5 989,-78.5"/>
<text text-anchor="start" x="997" y="-107.5" font-family="Helvetica,sans-Serif" font-size="10.00">Components/Interfaces</text>
<text text-anchor="start" x="997" y="-96.5" font-family="Helvetica,sans-Serif" font-size="10.00">/ServiceBase/test/test</text>
<text text-anchor="middle" x="1054" y="-85.5" font-family="Helvetica,sans-Serif" font-size="10.00">/Service_test.cpp</text>
</a>
</g>
</g>
<!-- Node7&#45;&gt;Node8 -->
<g id="edge7" class="edge">
<title>Node7&#45;&gt;Node8</title>
<path fill="none" stroke="midnightblue" d="M873.82,-158.74C911.67,-146.4 957.98,-131.3 994.17,-119.5"/>
<polygon fill="midnightblue" stroke="midnightblue" points="872.3,-155.55 863.88,-161.98 874.47,-162.21 872.3,-155.55"/>
</g>
<!-- Node9 -->
<g id="node9" class="node">
<title>Node9</title>
<g id="a_node9"><a xlink:href="../../d0/dc1/_data_broker_8hpp.html" target="_top" xlink:title=" ">
<polygon fill="none" stroke="black" points="478,-78.5 478,-119.5 596,-119.5 596,-78.5 478,-78.5"/>
<text text-anchor="start" x="486" y="-107.5" font-family="Helvetica,sans-Serif" font-size="10.00">Components/Objects</text>
<text text-anchor="start" x="486" y="-96.5" font-family="Helvetica,sans-Serif" font-size="10.00">/DataBroker/include</text>
<text text-anchor="middle" x="537" y="-85.5" font-family="Helvetica,sans-Serif" font-size="10.00">/DataBroker.hpp</text>
</a>
</g>
</g>
<!-- Node7&#45;&gt;Node9 -->
<g id="edge8" class="edge">
<title>Node7&#45;&gt;Node9</title>
<path fill="none" stroke="midnightblue" d="M730.38,-159.03C688.16,-146.14 635.88,-130.18 596.32,-118.11"/>
<polygon fill="midnightblue" stroke="midnightblue" points="729.46,-162.41 740.05,-161.98 731.5,-155.71 729.46,-162.41"/>
</g>
<!-- Node11 -->
<g id="node11" class="node">
<title>Node11</title>
<g id="a_node11"><a xlink:href="../../d2/d1e/_online_detector__service_8hpp.html" target="_top" xlink:title=" ">
<polygon fill="none" stroke="black" points="639.5,-78.5 639.5,-119.5 794.5,-119.5 794.5,-78.5 639.5,-78.5"/>
<text text-anchor="start" x="647.5" y="-107.5" font-family="Helvetica,sans-Serif" font-size="10.00">Components/Service</text>
<text text-anchor="start" x="647.5" y="-96.5" font-family="Helvetica,sans-Serif" font-size="10.00">/OnlineDetector/include</text>
<text text-anchor="middle" x="717" y="-85.5" font-family="Helvetica,sans-Serif" font-size="10.00">/OnlineDetector_service.hpp</text>
</a>
</g>
</g>
<!-- Node7&#45;&gt;Node11 -->
<g id="edge11" class="edge">
<title>Node7&#45;&gt;Node11</title>
<path fill="none" stroke="midnightblue" d="M775.57,-154.86C763.28,-143.35 749.16,-130.13 737.87,-119.55"/>
<polygon fill="midnightblue" stroke="midnightblue" points="773.25,-157.49 782.94,-161.77 778.03,-152.38 773.25,-157.49"/>
</g>
<!-- Node14 -->
<g id="node14" class="node">
<title>Node14</title>
<g id="a_node14"><a xlink:href="../../dd/d22/_water_estimator___service_8hpp.html" target="_top" xlink:title=" ">
<polygon fill="none" stroke="black" points="813,-78.5 813,-119.5 971,-119.5 971,-78.5 813,-78.5"/>
<text text-anchor="start" x="821" y="-107.5" font-family="Helvetica,sans-Serif" font-size="10.00">Components/Service</text>
<text text-anchor="start" x="821" y="-96.5" font-family="Helvetica,sans-Serif" font-size="10.00">/WaterEstimator/include</text>
<text text-anchor="middle" x="892" y="-85.5" font-family="Helvetica,sans-Serif" font-size="10.00">/WaterEstimator_Service.hpp</text>
</a>
</g>
</g>
<!-- Node7&#45;&gt;Node14 -->
<g id="edge14" class="edge">
<title>Node7&#45;&gt;Node14</title>
<path fill="none" stroke="midnightblue" d="M832.76,-154.86C845.19,-143.35 859.47,-130.13 870.89,-119.55"/>
<polygon fill="midnightblue" stroke="midnightblue" points="830.26,-152.41 825.3,-161.77 835.02,-157.54 830.26,-152.41"/>
</g>
<!-- Node9&#45;&gt;Node5 -->
<g id="edge10" class="edge">
<title>Node9&#45;&gt;Node5</title>
<path fill="none" stroke="midnightblue" d="M485.95,-74.05C463.6,-63.57 437.72,-51.42 416.58,-41.51"/>
<polygon fill="midnightblue" stroke="midnightblue" points="484.74,-77.35 495.28,-78.43 487.71,-71.01 484.74,-77.35"/>
</g>
<!-- Node10 -->
<g id="node10" class="node">
<title>Node10</title>
<g id="a_node10"><a xlink:href="../../d4/ddc/_data_broker_8cpp.html" target="_top" xlink:title=" ">
<polygon fill="none" stroke="black" points="452.5,-6 452.5,-36 621.5,-36 621.5,-6 452.5,-6"/>
<text text-anchor="start" x="460.5" y="-24" font-family="Helvetica,sans-Serif" font-size="10.00">Components/Objects</text>
<text text-anchor="middle" x="537" y="-13" font-family="Helvetica,sans-Serif" font-size="10.00">/DataBroker/src/DataBroker.cpp</text>
</a>
</g>
</g>
<!-- Node9&#45;&gt;Node10 -->
<g id="edge9" class="edge">
<title>Node9&#45;&gt;Node10</title>
<path fill="none" stroke="midnightblue" d="M537,-68.28C537,-57.25 537,-45.25 537,-36.23"/>
<polygon fill="midnightblue" stroke="midnightblue" points="533.5,-68.43 537,-78.43 540.5,-68.43 533.5,-68.43"/>
</g>
<!-- Node12 -->
<g id="node12" class="node">
<title>Node12</title>
<g id="a_node12"><a xlink:href="../../d7/d24/_online_detector__service_8cpp.html" target="_top" xlink:title=" ">
<polygon fill="none" stroke="black" points="640,-0.5 640,-41.5 794,-41.5 794,-0.5 640,-0.5"/>
<text text-anchor="start" x="648" y="-29.5" font-family="Helvetica,sans-Serif" font-size="10.00">Components/Service</text>
<text text-anchor="start" x="648" y="-18.5" font-family="Helvetica,sans-Serif" font-size="10.00">/OnlineDetector/src</text>
<text text-anchor="middle" x="717" y="-7.5" font-family="Helvetica,sans-Serif" font-size="10.00">/OnlineDetector_service.cpp</text>
</a>
</g>
</g>
<!-- Node11&#45;&gt;Node12 -->
<g id="edge12" class="edge">
<title>Node11&#45;&gt;Node12</title>
<path fill="none" stroke="midnightblue" d="M717,-68.3C717,-59.3 717,-49.65 717,-41.51"/>
<polygon fill="midnightblue" stroke="midnightblue" points="713.5,-68.43 717,-78.43 720.5,-68.43 713.5,-68.43"/>
</g>
<!-- Node13 -->
<g id="node13" class="node">
<title>Node13</title>
<g id="a_node13"><a xlink:href="../../db/df8/_service_2_online_detector_2test_2test_2simple__test_8cpp.html" target="_top" xlink:title=" ">
<polygon fill="none" stroke="black" points="812.5,-0.5 812.5,-41.5 931.5,-41.5 931.5,-0.5 812.5,-0.5"/>
<text text-anchor="start" x="820.5" y="-29.5" font-family="Helvetica,sans-Serif" font-size="10.00">Components/Service</text>
<text text-anchor="start" x="820.5" y="-18.5" font-family="Helvetica,sans-Serif" font-size="10.00">/OnlineDetector/test</text>
<text text-anchor="middle" x="872" y="-7.5" font-family="Helvetica,sans-Serif" font-size="10.00">/test/simple_test.cpp</text>
</a>
</g>
</g>
<!-- Node11&#45;&gt;Node13 -->
<g id="edge13" class="edge">
<title>Node11&#45;&gt;Node13</title>
<path fill="none" stroke="midnightblue" d="M766.13,-73.91C787.45,-63.46 812.08,-51.38 832.22,-41.51"/>
<polygon fill="midnightblue" stroke="midnightblue" points="764.35,-70.88 756.92,-78.43 767.44,-77.17 764.35,-70.88"/>
</g>
<!-- Node15 -->
<g id="node15" class="node">
<title>Node15</title>
<g id="a_node15"><a xlink:href="../../dd/dd3/_water_estimator___service_8cpp.html" target="_top" xlink:title=" ">
<polygon fill="none" stroke="black" points="949.5,-0.5 949.5,-41.5 1106.5,-41.5 1106.5,-0.5 949.5,-0.5"/>
<text text-anchor="start" x="957.5" y="-29.5" font-family="Helvetica,sans-Serif" font-size="10.00">Components/Service</text>
<text text-anchor="start" x="957.5" y="-18.5" font-family="Helvetica,sans-Serif" font-size="10.00">/WaterEstimator/src</text>
<text text-anchor="middle" x="1028" y="-7.5" font-family="Helvetica,sans-Serif" font-size="10.00">/WaterEstimator_Service.cpp</text>
</a>
</g>
</g>
<!-- Node14&#45;&gt;Node15 -->
<g id="edge15" class="edge">
<title>Node14&#45;&gt;Node15</title>
<path fill="none" stroke="midnightblue" d="M935.87,-73.49C954.39,-63.13 975.66,-51.25 993.1,-41.51"/>
<polygon fill="midnightblue" stroke="midnightblue" points="934.05,-70.49 927.02,-78.43 937.46,-76.61 934.05,-70.49"/>
</g>
<!-- Node16&#45;&gt;Node8 -->
<g id="edge17" class="edge">
<title>Node16&#45;&gt;Node8</title>
<path fill="none" stroke="midnightblue" d="M1054,-151.56C1054,-140.88 1054,-129.13 1054,-119.55"/>
<polygon fill="midnightblue" stroke="midnightblue" points="1050.5,-151.77 1054,-161.77 1057.5,-151.77 1050.5,-151.77"/>
</g>
<!-- Node17 -->
<g id="node17" class="node">
<title>Node17</title>
<g id="a_node17"><a xlink:href="../../df/d40/is_alive__service_8hpp.html" target="_top" xlink:title=" ">
<polygon fill="none" stroke="black" points="1137.5,-78.5 1137.5,-119.5 1264.5,-119.5 1264.5,-78.5 1137.5,-78.5"/>
<text text-anchor="start" x="1145.5" y="-107.5" font-family="Helvetica,sans-Serif" font-size="10.00">Components/Service</text>
<text text-anchor="start" x="1145.5" y="-96.5" font-family="Helvetica,sans-Serif" font-size="10.00">/isAlive/include/isAlive</text>
<text text-anchor="middle" x="1201" y="-85.5" font-family="Helvetica,sans-Serif" font-size="10.00">_service.hpp</text>
</a>
</g>
</g>
<!-- Node16&#45;&gt;Node17 -->
<g id="edge18" class="edge">
<title>Node16&#45;&gt;Node17</title>
<path fill="none" stroke="midnightblue" d="M1098.21,-156.99C1119.85,-144.99 1145.54,-130.75 1165.82,-119.5"/>
<polygon fill="midnightblue" stroke="midnightblue" points="1096.26,-154.07 1089.21,-161.98 1099.65,-160.19 1096.26,-154.07"/>
</g>
<!-- Node18 -->
<g id="node18" class="node">
<title>Node18</title>
<g id="a_node18"><a xlink:href="../../de/da1/is_alive__service_8cpp.html" target="_top" xlink:title=" ">
<polygon fill="none" stroke="black" points="1133.5,-0.5 1133.5,-41.5 1250.5,-41.5 1250.5,-0.5 1133.5,-0.5"/>
<text text-anchor="start" x="1141.5" y="-29.5" font-family="Helvetica,sans-Serif" font-size="10.00">Components/Service</text>
<text text-anchor="start" x="1141.5" y="-18.5" font-family="Helvetica,sans-Serif" font-size="10.00">/isAlive/src/isAlive</text>
<text text-anchor="middle" x="1192" y="-7.5" font-family="Helvetica,sans-Serif" font-size="10.00">_service.cpp</text>
</a>
</g>
</g>
<!-- Node17&#45;&gt;Node18 -->
<g id="edge19" class="edge">
<title>Node17&#45;&gt;Node18</title>
<path fill="none" stroke="midnightblue" d="M1197.48,-68.3C1196.42,-59.3 1195.27,-49.65 1194.31,-41.51"/>
<polygon fill="midnightblue" stroke="midnightblue" points="1194.03,-68.91 1198.68,-78.43 1200.98,-68.09 1194.03,-68.91"/>
</g>
<!-- Node19 -->
<g id="node19" class="node">
<title>Node19</title>
<g id="a_node19"><a xlink:href="../../d4/d60/_service_2is_alive_2test_2test_2simple__test_8cpp.html" target="_top" xlink:title=" ">
<polygon fill="none" stroke="black" points="1269,-0.5 1269,-41.5 1401,-41.5 1401,-0.5 1269,-0.5"/>
<text text-anchor="start" x="1277" y="-29.5" font-family="Helvetica,sans-Serif" font-size="10.00">Components/Service</text>
<text text-anchor="start" x="1277" y="-18.5" font-family="Helvetica,sans-Serif" font-size="10.00">/isAlive/test/test/simple</text>
<text text-anchor="middle" x="1335" y="-7.5" font-family="Helvetica,sans-Serif" font-size="10.00">_test.cpp</text>
</a>
</g>
</g>
<!-- Node17&#45;&gt;Node19 -->
<g id="edge20" class="edge">
<title>Node17&#45;&gt;Node19</title>
<path fill="none" stroke="midnightblue" d="M1244.22,-73.49C1262.48,-63.13 1283.43,-51.25 1300.61,-41.51"/>
<polygon fill="midnightblue" stroke="midnightblue" points="1242.48,-70.45 1235.51,-78.43 1245.93,-76.54 1242.48,-70.45"/>
</g>
</g>
</svg>
