<?xml version="1.0" encoding="UTF-8" standalone="no"?>
<!DOCTYPE svg PUBLIC "-//W3C//DTD SVG 1.1//EN"
 "http://www.w3.org/Graphics/SVG/1.1/DTD/svg11.dtd">
<!-- Generated by graphviz version 2.43.0 (0)
 -->
<!-- Title: SensorControllerBase Pages: 1 -->
<!--zoomable 885 -->
<svg id="main" version="1.1" xmlns="http://www.w3.org/2000/svg" xmlns:xlink="http://www.w3.org/1999/xlink" xml:space="preserve" onload="init(evt)">
<style type="text/css"><![CDATA[
.edge:hover path { stroke: red; }
.edge:hover polygon { stroke: red; fill: red; }
]]></style>
<script type="text/javascript"><![CDATA[
var edges = document.getElementsByTagName('g');
if (edges && edges.length) {
  for (var i=0;i<edges.length;i++) {
    if (edges[i].id.substr(0,4)=='edge') {
      edges[i].setAttribute('class','edge');
    }
  }
}
]]></script>
        <defs>
                <circle id="rim" cx="0" cy="0" r="7"/>
                <circle id="rim2" cx="0" cy="0" r="3.5"/>
                <g id="zoomPlus">
                        <use xlink:href="#rim" fill="#404040">
                                <set attributeName="fill" to="#808080" begin="zoomplus.mouseover" end="zoomplus.mouseout"/>
                        </use>
                        <path d="M-4,0h8M0,-4v8" fill="none" stroke="white" stroke-width="1.5" pointer-events="none"/>
                </g>
                <g id="zoomMin">
                        <use xlink:href="#rim" fill="#404040">
                                <set attributeName="fill" to="#808080" begin="zoomminus.mouseover" end="zoomminus.mouseout"/>
                        </use>
                        <path d="M-4,0h8" fill="none" stroke="white" stroke-width="1.5" pointer-events="none"/>
                </g>
                <g id="dirArrow">
                        <path fill="none" stroke="white" stroke-width="1.5" d="M0,-3.0v7 M-2.5,-0.5L0,-3.0L2.5,-0.5"/>
                </g>
               <g id="resetDef">
                       <use xlink:href="#rim2" fill="#404040">
                               <set attributeName="fill" to="#808080" begin="reset.mouseover" end="reset.mouseout"/>
                       </use>
               </g>
        </defs>

<script type="text/javascript">
var viewWidth = 574;
var viewHeight = 885;
var sectionId = 'dynsection-1';
</script>
<script xlink:href="../../svgpan.js"/>
<svg id="graph" class="graph">
<g id="viewport">
<title>SensorControllerBase</title>
<!-- Node1 -->
<g id="node1" class="node">
<title>Node1</title>
<g id="a_node1"><a xlink:title=" ">
<polygon fill="#bfbfbf" stroke="black" points="238,-0.5 238,-189.5 387,-189.5 387,-0.5 238,-0.5"/>
<text text-anchor="middle" x="312.5" y="-177.5" font-family="Helvetica,sans-Serif" font-size="10.00">SensorControllerBase</text>
<polyline fill="none" stroke="black" points="238,-170.5 387,-170.5 "/>
<text text-anchor="start" x="246" y="-158.5" font-family="Helvetica,sans-Serif" font-size="10.00"># m_delay</text>
<text text-anchor="start" x="246" y="-147.5" font-family="Helvetica,sans-Serif" font-size="10.00"># m_error_id</text>
<polyline fill="none" stroke="black" points="238,-140.5 387,-140.5 "/>
<text text-anchor="start" x="246" y="-128.5" font-family="Helvetica,sans-Serif" font-size="10.00">+ SensorControllerBase()</text>
<text text-anchor="start" x="246" y="-117.5" font-family="Helvetica,sans-Serif" font-size="10.00">+ ~SensorControllerBase()</text>
<text text-anchor="start" x="246" y="-106.5" font-family="Helvetica,sans-Serif" font-size="10.00">+ setWantDataTrue()</text>
<text text-anchor="start" x="246" y="-95.5" font-family="Helvetica,sans-Serif" font-size="10.00">+ getSafeBuffer()</text>
<text text-anchor="start" x="246" y="-84.5" font-family="Helvetica,sans-Serif" font-size="10.00">+ isDataReady()</text>
<text text-anchor="start" x="246" y="-73.5" font-family="Helvetica,sans-Serif" font-size="10.00"># setDataReadyTrue()</text>
<text text-anchor="start" x="246" y="-62.5" font-family="Helvetica,sans-Serif" font-size="10.00"># postData()</text>
<text text-anchor="start" x="246" y="-51.5" font-family="Helvetica,sans-Serif" font-size="10.00"># postError()</text>
<text text-anchor="start" x="246" y="-40.5" font-family="Helvetica,sans-Serif" font-size="10.00"># main_function()</text>
<text text-anchor="start" x="246" y="-29.5" font-family="Helvetica,sans-Serif" font-size="10.00">&#45; setDataReady()</text>
<text text-anchor="start" x="246" y="-18.5" font-family="Helvetica,sans-Serif" font-size="10.00">&#45; setWantData()</text>
<text text-anchor="start" x="246" y="-7.5" font-family="Helvetica,sans-Serif" font-size="10.00">&#45; run()</text>
</a>
</g>
</g>
<!-- Node2 -->
<g id="node2" class="node">
<title>Node2</title>
<g id="a_node2"><a xlink:href="../../d7/d6d/class_task.html" target="_top" xlink:title="Encapsulate a runnable task.">
<polygon fill="none" stroke="black" points="345.5,-259.5 345.5,-470.5 443.5,-470.5 443.5,-259.5 345.5,-259.5"/>
<text text-anchor="middle" x="394.5" y="-458.5" font-family="Helvetica,sans-Serif" font-size="10.00">Task</text>
<polyline fill="none" stroke="black" points="345.5,-451.5 443.5,-451.5 "/>
<text text-anchor="start" x="353.5" y="-439.5" font-family="Helvetica,sans-Serif" font-size="10.00">&#45; m_handle</text>
<text text-anchor="start" x="353.5" y="-428.5" font-family="Helvetica,sans-Serif" font-size="10.00">&#45; m_stackSize</text>
<text text-anchor="start" x="353.5" y="-417.5" font-family="Helvetica,sans-Serif" font-size="10.00">&#45; m_priority</text>
<text text-anchor="start" x="353.5" y="-406.5" font-family="Helvetica,sans-Serif" font-size="10.00">&#45; m_taskData</text>
<text text-anchor="start" x="353.5" y="-395.5" font-family="Helvetica,sans-Serif" font-size="10.00">&#45; m_coreId</text>
<polyline fill="none" stroke="black" points="345.5,-388.5 443.5,-388.5 "/>
<text text-anchor="start" x="353.5" y="-376.5" font-family="Helvetica,sans-Serif" font-size="10.00">+ Task()</text>
<text text-anchor="start" x="353.5" y="-365.5" font-family="Helvetica,sans-Serif" font-size="10.00">+ ~Task()</text>
<text text-anchor="start" x="353.5" y="-354.5" font-family="Helvetica,sans-Serif" font-size="10.00">+ setStackSize()</text>
<text text-anchor="start" x="353.5" y="-343.5" font-family="Helvetica,sans-Serif" font-size="10.00">+ setPriority()</text>
<text text-anchor="start" x="353.5" y="-332.5" font-family="Helvetica,sans-Serif" font-size="10.00">+ setName()</text>
<text text-anchor="start" x="353.5" y="-321.5" font-family="Helvetica,sans-Serif" font-size="10.00">+ setCore()</text>
<text text-anchor="start" x="353.5" y="-310.5" font-family="Helvetica,sans-Serif" font-size="10.00">+ start()</text>
<text text-anchor="start" x="353.5" y="-299.5" font-family="Helvetica,sans-Serif" font-size="10.00">+ stop()</text>
<text text-anchor="start" x="353.5" y="-288.5" font-family="Helvetica,sans-Serif" font-size="10.00">+ run()</text>
<text text-anchor="start" x="353.5" y="-277.5" font-family="Helvetica,sans-Serif" font-size="10.00">+ delay()</text>
<text text-anchor="start" x="353.5" y="-266.5" font-family="Helvetica,sans-Serif" font-size="10.00">&#45; runTask()</text>
</a>
</g>
</g>
<!-- Node2&#45;&gt;Node1 -->
<g id="edge1" class="edge">
<title>Node2&#45;&gt;Node1</title>
<path fill="none" stroke="midnightblue" d="M382.99,-249.02C380.22,-235.03 376.77,-221.07 372.5,-208 370.51,-201.92 368.2,-195.78 365.68,-189.67"/>
<polygon fill="none" stroke="midnightblue" points="379.62,-250.02 384.9,-259.2 386.5,-248.73 379.62,-250.02"/>
</g>
<!-- Node3 -->
<g id="node3" class="node">
<title>Node3</title>
<g id="a_node3"><a xlink:title="STL class.">
<polygon fill="none" stroke="#bfbfbf" points="362,-582 362,-639 427,-639 427,-582 362,-582"/>
<text text-anchor="middle" x="394.5" y="-627" font-family="Helvetica,sans-Serif" font-size="10.00">std::string</text>
<polyline fill="none" stroke="#bfbfbf" points="362,-620 427,-620 "/>
<text text-anchor="middle" x="394.5" y="-608" font-family="Helvetica,sans-Serif" font-size="10.00"> </text>
<polyline fill="none" stroke="#bfbfbf" points="362,-601 427,-601 "/>
<text text-anchor="middle" x="394.5" y="-589" font-family="Helvetica,sans-Serif" font-size="10.00"> </text>
</a>
</g>
</g>
<!-- Node3&#45;&gt;Node2 -->
<g id="edge2" class="edge">
<title>Node3&#45;&gt;Node2</title>
<path fill="none" stroke="#404040" d="M394.5,-581.57C394.5,-557.1 394.5,-519.81 394.5,-483.08"/>
<polygon fill="none" stroke="#404040" points="394.5,-482.67 390.5,-476.67 394.5,-470.67 398.5,-476.67 394.5,-482.67"/>
<text text-anchor="middle" x="431" y="-526.5" font-family="Helvetica,sans-Serif" font-size="10.00"> &#45;m_taskName</text>
</g>
<!-- Node8 -->
<g id="node8" class="node">
<title>Node8</title>
<g id="a_node8"><a xlink:href="../../d5/d81/class_m_q_t_t___message.html" target="_top" xlink:title=" ">
<polygon fill="none" stroke="black" points="166,-248.5 166,-481.5 327,-481.5 327,-248.5 166,-248.5"/>
<text text-anchor="middle" x="246.5" y="-469.5" font-family="Helvetica,sans-Serif" font-size="10.00">MQTT_Message</text>
<polyline fill="none" stroke="black" points="166,-462.5 327,-462.5 "/>
<text text-anchor="start" x="174" y="-450.5" font-family="Helvetica,sans-Serif" font-size="10.00">&#45; m_entity_id</text>
<text text-anchor="start" x="174" y="-439.5" font-family="Helvetica,sans-Serif" font-size="10.00">&#45; m_buffer_size</text>
<polyline fill="none" stroke="black" points="166,-432.5 327,-432.5 "/>
<text text-anchor="start" x="174" y="-420.5" font-family="Helvetica,sans-Serif" font-size="10.00">+ MQTT_Message()</text>
<text text-anchor="start" x="174" y="-409.5" font-family="Helvetica,sans-Serif" font-size="10.00">+ MQTT_Message()</text>
<text text-anchor="start" x="174" y="-398.5" font-family="Helvetica,sans-Serif" font-size="10.00">+ ~MQTT_Message()</text>
<text text-anchor="start" x="174" y="-387.5" font-family="Helvetica,sans-Serif" font-size="10.00">+ addData()</text>
<text text-anchor="start" x="174" y="-376.5" font-family="Helvetica,sans-Serif" font-size="10.00">+ addData()</text>
<text text-anchor="start" x="174" y="-365.5" font-family="Helvetica,sans-Serif" font-size="10.00">+ addData_f()</text>
<text text-anchor="start" x="174" y="-354.5" font-family="Helvetica,sans-Serif" font-size="10.00">+ isEmpty()</text>
<text text-anchor="start" x="174" y="-343.5" font-family="Helvetica,sans-Serif" font-size="10.00">+ toString()</text>
<text text-anchor="start" x="174" y="-332.5" font-family="Helvetica,sans-Serif" font-size="10.00">+ clear()</text>
<text text-anchor="start" x="174" y="-321.5" font-family="Helvetica,sans-Serif" font-size="10.00">+ getBufferSize()</text>
<text text-anchor="start" x="174" y="-310.5" font-family="Helvetica,sans-Serif" font-size="10.00">+ append()</text>
<text text-anchor="start" x="174" y="-299.5" font-family="Helvetica,sans-Serif" font-size="10.00">+ getData()</text>
<text text-anchor="start" x="174" y="-288.5" font-family="Helvetica,sans-Serif" font-size="10.00">+ getMaxAllowedBufferSize()</text>
<text text-anchor="start" x="174" y="-277.5" font-family="Helvetica,sans-Serif" font-size="10.00">+ getEntityId()</text>
<text text-anchor="start" x="174" y="-266.5" font-family="Helvetica,sans-Serif" font-size="10.00">+ copyTo()</text>
<text text-anchor="start" x="174" y="-255.5" font-family="Helvetica,sans-Serif" font-size="10.00">+ construct()</text>
</a>
</g>
</g>
<!-- Node3&#45;&gt;Node8 -->
<g id="edge8" class="edge">
<title>Node3&#45;&gt;Node8</title>
<path fill="none" stroke="#404040" d="M361.94,-595.25C345.43,-586.58 326.23,-574.06 313.5,-558 298.33,-538.86 286.47,-516.04 277.23,-492.93"/>
<polygon fill="none" stroke="#404040" points="277.18,-492.79 271.3,-488.61 272.91,-481.58 278.78,-485.76 277.18,-492.79"/>
<text text-anchor="middle" x="352" y="-526.5" font-family="Helvetica,sans-Serif" font-size="10.00"> &#45;m_semaphore</text>
</g>
<!-- Node11 -->
<g id="node11" class="node">
<title>Node11</title>
<g id="a_node11"><a xlink:href="../../d5/de7/classmqtt__api__v2.html" target="_top" xlink:title=" ">
<polygon fill="none" stroke="black" points="461.5,-292.5 461.5,-437.5 565.5,-437.5 565.5,-292.5 461.5,-292.5"/>
<text text-anchor="middle" x="513.5" y="-425.5" font-family="Helvetica,sans-Serif" font-size="10.00">mqtt_api_v2</text>
<polyline fill="none" stroke="black" points="461.5,-418.5 565.5,-418.5 "/>
<text text-anchor="middle" x="513.5" y="-406.5" font-family="Helvetica,sans-Serif" font-size="10.00"> </text>
<polyline fill="none" stroke="black" points="461.5,-399.5 565.5,-399.5 "/>
<text text-anchor="start" x="469.5" y="-387.5" font-family="Helvetica,sans-Serif" font-size="10.00">+ mqtt_api_v2()</text>
<text text-anchor="start" x="469.5" y="-376.5" font-family="Helvetica,sans-Serif" font-size="10.00">+ ~mqtt_api_v2()</text>
<text text-anchor="start" x="469.5" y="-365.5" font-family="Helvetica,sans-Serif" font-size="10.00">+ publish()</text>
<text text-anchor="start" x="469.5" y="-354.5" font-family="Helvetica,sans-Serif" font-size="10.00">+ subscribe()</text>
<text text-anchor="start" x="469.5" y="-343.5" font-family="Helvetica,sans-Serif" font-size="10.00">+ subscribe()</text>
<text text-anchor="start" x="469.5" y="-332.5" font-family="Helvetica,sans-Serif" font-size="10.00">+ getData()</text>
<text text-anchor="start" x="469.5" y="-321.5" font-family="Helvetica,sans-Serif" font-size="10.00">&#45; connect()</text>
<text text-anchor="start" x="469.5" y="-310.5" font-family="Helvetica,sans-Serif" font-size="10.00">&#45; disconnect()</text>
<text text-anchor="start" x="469.5" y="-299.5" font-family="Helvetica,sans-Serif" font-size="10.00">&#45; handle_event()</text>
</a>
</g>
</g>
<!-- Node3&#45;&gt;Node11 -->
<g id="edge13" class="edge">
<title>Node3&#45;&gt;Node11</title>
<path fill="none" stroke="#404040" d="M427.01,-595.05C442.74,-586.46 460.54,-574.08 471.5,-558 493.08,-526.34 503.81,-485.5 509.06,-449.64"/>
<polygon fill="none" stroke="#404040" points="509.07,-449.59 505.88,-443.11 510.63,-437.69 513.82,-444.16 509.07,-449.59"/>
<text text-anchor="middle" x="515" y="-526.5" font-family="Helvetica,sans-Serif" font-size="10.00"> &#45;m_uri</text>
</g>
<!-- Node4 -->
<g id="node4" class="node">
<title>Node4</title>
<g id="a_node4"><a xlink:title="STL class.">
<polygon fill="none" stroke="#bfbfbf" points="342.5,-703.5 342.5,-771.5 446.5,-771.5 446.5,-703.5 342.5,-703.5"/>
<text text-anchor="start" x="350.5" y="-759.5" font-family="Helvetica,sans-Serif" font-size="10.00">std::basic_string&lt;</text>
<text text-anchor="middle" x="394.5" y="-748.5" font-family="Helvetica,sans-Serif" font-size="10.00"> char &gt;</text>
<polyline fill="none" stroke="#bfbfbf" points="342.5,-741.5 446.5,-741.5 "/>
<text text-anchor="middle" x="394.5" y="-729.5" font-family="Helvetica,sans-Serif" font-size="10.00"> </text>
<polyline fill="none" stroke="#bfbfbf" points="342.5,-722.5 446.5,-722.5 "/>
<text text-anchor="middle" x="394.5" y="-710.5" font-family="Helvetica,sans-Serif" font-size="10.00"> </text>
</a>
</g>
</g>
<!-- Node4&#45;&gt;Node3 -->
<g id="edge3" class="edge">
<title>Node4&#45;&gt;Node3</title>
<path fill="none" stroke="midnightblue" d="M394.5,-693.14C394.5,-675.29 394.5,-655.14 394.5,-639.32"/>
<polygon fill="none" stroke="midnightblue" points="391,-693.33 394.5,-703.33 398,-693.33 391,-693.33"/>
</g>
<!-- Node5 -->
<g id="node5" class="node">
<title>Node5</title>
<g id="a_node5"><a xlink:title=" ">
<polygon fill="none" stroke="#bfbfbf" points="0,-500.5 0,-557.5 115,-557.5 115,-500.5 0,-500.5"/>
<text text-anchor="middle" x="57.5" y="-545.5" font-family="Helvetica,sans-Serif" font-size="10.00">std::atomic&lt; bool &gt;</text>
<polyline fill="none" stroke="#bfbfbf" points="0,-538.5 115,-538.5 "/>
<text text-anchor="start" x="8" y="-526.5" font-family="Helvetica,sans-Serif" font-size="10.00">+ ptr</text>
<polyline fill="none" stroke="#bfbfbf" points="0,-519.5 115,-519.5 "/>
<text text-anchor="middle" x="57.5" y="-507.5" font-family="Helvetica,sans-Serif" font-size="10.00"> </text>
</a>
</g>
</g>
<!-- Node5&#45;&gt;Node1 -->
<g id="edge4" class="edge">
<title>Node5&#45;&gt;Node1</title>
<path fill="none" stroke="#404040" d="M48.42,-500.27C32.83,-447.22 6.87,-329.42 53.5,-248 90.37,-183.61 166.3,-143.83 226.46,-121.2"/>
<polygon fill="none" stroke="#404040" points="226.61,-121.15 230.88,-115.34 237.88,-117.04 233.62,-122.85 226.61,-121.15"/>
<text text-anchor="middle" x="105" y="-368" font-family="Helvetica,sans-Serif" font-size="10.00"> #m_want_data_flag</text>
<text text-anchor="middle" x="105" y="-357" font-family="Helvetica,sans-Serif" font-size="10.00">#m_data_ready_flag</text>
</g>
<!-- Node6 -->
<g id="node6" class="node">
<title>Node6</title>
<g id="a_node6"><a xlink:title="STL class.">
<polygon fill="none" stroke="#bfbfbf" points="20.5,-709 20.5,-766 120.5,-766 120.5,-709 20.5,-709"/>
<text text-anchor="middle" x="70.5" y="-754" font-family="Helvetica,sans-Serif" font-size="10.00">std::atomic&lt; T &gt;</text>
<polyline fill="none" stroke="#bfbfbf" points="20.5,-747 120.5,-747 "/>
<text text-anchor="middle" x="70.5" y="-735" font-family="Helvetica,sans-Serif" font-size="10.00"> </text>
<polyline fill="none" stroke="#bfbfbf" points="20.5,-728 120.5,-728 "/>
<text text-anchor="middle" x="70.5" y="-716" font-family="Helvetica,sans-Serif" font-size="10.00"> </text>
</a>
</g>
</g>
<!-- Node6&#45;&gt;Node5 -->
<g id="edge5" class="edge">
<title>Node6&#45;&gt;Node5</title>
<path fill="none" stroke="orange" d="M68.11,-698.57C65.55,-657.82 61.53,-594.04 59.25,-557.74"/>
<polygon fill="orange" stroke="orange" points="64.63,-698.89 68.75,-708.65 71.61,-698.45 64.63,-698.89"/>
<text text-anchor="middle" x="91" y="-671.5" font-family="Helvetica,sans-Serif" font-size="10.00"> &lt; bool &gt;</text>
</g>
<!-- Node7 -->
<g id="node7" class="node">
<title>Node7</title>
<g id="a_node7"><a xlink:title=" ">
<polygon fill="none" stroke="#bfbfbf" points="114,-819.5 114,-876.5 143,-876.5 143,-819.5 114,-819.5"/>
<text text-anchor="middle" x="128.5" y="-864.5" font-family="Helvetica,sans-Serif" font-size="10.00">T</text>
<polyline fill="none" stroke="#bfbfbf" points="114,-857.5 143,-857.5 "/>
<text text-anchor="middle" x="128.5" y="-845.5" font-family="Helvetica,sans-Serif" font-size="10.00"> </text>
<polyline fill="none" stroke="#bfbfbf" points="114,-838.5 143,-838.5 "/>
<text text-anchor="middle" x="128.5" y="-826.5" font-family="Helvetica,sans-Serif" font-size="10.00"> </text>
</a>
</g>
</g>
<!-- Node7&#45;&gt;Node6 -->
<g id="edge6" class="edge">
<title>Node7&#45;&gt;Node6</title>
<path fill="none" stroke="#404040" d="M113.86,-819.62C106.98,-806.74 98.65,-791.16 91.14,-777.11"/>
<polygon fill="none" stroke="#404040" points="90.99,-776.83 84.63,-773.42 85.33,-766.25 91.69,-769.65 90.99,-776.83"/>
<text text-anchor="middle" x="116" y="-793" font-family="Helvetica,sans-Serif" font-size="10.00"> +ptr</text>
</g>
<!-- Node10 -->
<g id="node10" class="node">
<title>Node10</title>
<g id="a_node10"><a xlink:title="STL class.">
<polygon fill="none" stroke="#bfbfbf" points="141,-709 141,-766 238,-766 238,-709 141,-709"/>
<text text-anchor="middle" x="189.5" y="-754" font-family="Helvetica,sans-Serif" font-size="10.00">std::vector&lt; T &gt;</text>
<polyline fill="none" stroke="#bfbfbf" points="141,-747 238,-747 "/>
<text text-anchor="middle" x="189.5" y="-735" font-family="Helvetica,sans-Serif" font-size="10.00"> </text>
<polyline fill="none" stroke="#bfbfbf" points="141,-728 238,-728 "/>
<text text-anchor="middle" x="189.5" y="-716" font-family="Helvetica,sans-Serif" font-size="10.00"> </text>
</a>
</g>
</g>
<!-- Node7&#45;&gt;Node10 -->
<g id="edge11" class="edge">
<title>Node7&#45;&gt;Node10</title>
<path fill="none" stroke="#404040" d="M143.11,-821.01C150.53,-807.82 159.68,-791.54 167.89,-776.94"/>
<polygon fill="none" stroke="#404040" points="168.06,-776.63 167.51,-769.44 173.94,-766.17 174.49,-773.36 168.06,-776.63"/>
<text text-anchor="middle" x="188.5" y="-793" font-family="Helvetica,sans-Serif" font-size="10.00"> +elements</text>
</g>
<!-- Node8&#45;&gt;Node1 -->
<g id="edge7" class="edge">
<title>Node8&#45;&gt;Node1</title>
<path fill="none" stroke="#404040" d="M261.54,-248.44C264.13,-234.72 267.1,-220.99 270.5,-208 271.09,-205.74 271.71,-203.46 272.36,-201.17"/>
<polygon fill="none" stroke="#404040" points="272.36,-201.16 270.24,-194.27 275.78,-189.65 277.9,-196.54 272.36,-201.16"/>
<text text-anchor="middle" x="321.5" y="-222" font-family="Helvetica,sans-Serif" font-size="10.00"> #m_buffer_external</text>
<text text-anchor="middle" x="321.5" y="-211" font-family="Helvetica,sans-Serif" font-size="10.00">#m_buffer_raw</text>
</g>
<!-- Node9 -->
<g id="node9" class="node">
<title>Node9</title>
<g id="a_node9"><a xlink:title=" ">
<polygon fill="none" stroke="#bfbfbf" points="123.5,-576.5 123.5,-644.5 259.5,-644.5 259.5,-576.5 123.5,-576.5"/>
<text text-anchor="start" x="131.5" y="-632.5" font-family="Helvetica,sans-Serif" font-size="10.00">std::vector&lt; std::pair</text>
<text text-anchor="middle" x="191.5" y="-621.5" font-family="Helvetica,sans-Serif" font-size="10.00">&lt; uint64_t, uint64_t &gt; &gt;</text>
<polyline fill="none" stroke="#bfbfbf" points="123.5,-614.5 259.5,-614.5 "/>
<text text-anchor="start" x="131.5" y="-602.5" font-family="Helvetica,sans-Serif" font-size="10.00">+ elements</text>
<polyline fill="none" stroke="#bfbfbf" points="123.5,-595.5 259.5,-595.5 "/>
<text text-anchor="middle" x="191.5" y="-583.5" font-family="Helvetica,sans-Serif" font-size="10.00"> </text>
</a>
</g>
</g>
<!-- Node9&#45;&gt;Node8 -->
<g id="edge9" class="edge">
<title>Node9&#45;&gt;Node8</title>
<path fill="none" stroke="#404040" d="M193.84,-576.17C195.77,-554.34 199.09,-525.27 204.5,-500 204.96,-497.86 205.44,-495.7 205.93,-493.53"/>
<polygon fill="none" stroke="#404040" points="205.93,-493.53 203.45,-486.76 208.74,-481.86 211.23,-488.63 205.93,-493.53"/>
<text text-anchor="middle" x="226.5" y="-526.5" font-family="Helvetica,sans-Serif" font-size="10.00"> &#45;m_data</text>
</g>
<!-- Node10&#45;&gt;Node9 -->
<g id="edge10" class="edge">
<title>Node10&#45;&gt;Node9</title>
<path fill="none" stroke="orange" d="M190.11,-698.55C190.38,-681.46 190.7,-661.46 190.96,-644.94"/>
<polygon fill="orange" stroke="orange" points="186.6,-698.7 189.94,-708.76 193.6,-698.82 186.6,-698.7"/>
<text text-anchor="start" x="191.5" y="-677" font-family="Helvetica,sans-Serif" font-size="10.00"> &lt; std::pair&lt; uint64</text>
<text text-anchor="middle" x="240" y="-666" font-family="Helvetica,sans-Serif" font-size="10.00">_t, uint64_t &gt; &gt;</text>
</g>
<!-- Node11&#45;&gt;Node1 -->
<g id="edge12" class="edge">
<title>Node11&#45;&gt;Node1</title>
<path fill="none" stroke="#404040" d="M479.56,-292.34C471.39,-277.26 462.2,-261.76 452.5,-248 435.6,-224.04 415.22,-199.88 395.3,-178.09"/>
<polygon fill="none" stroke="#404040" points="395.26,-178.04 388.24,-176.35 387.11,-169.23 394.12,-170.92 395.26,-178.04"/>
<text text-anchor="middle" x="461.5" y="-216.5" font-family="Helvetica,sans-Serif" font-size="10.00"> &#45;m_mqtt</text>
</g>
</g>
</svg>
        <g id="navigator" transform="translate(0 0)" fill="#404254">
                <rect fill="#f2f5e9" fill-opacity="0.5" stroke="#606060" stroke-width=".5" x="0" y="0" width="60" height="60"/>
                <use id="zoomplus" xlink:href="#zoomPlus" x="17" y="9" onmousedown="handleZoom(evt,'in')"/>
                <use id="zoomminus" xlink:href="#zoomMin" x="42" y="9" onmousedown="handleZoom(evt,'out')"/>
                <use id="reset" xlink:href="#resetDef" x="30" y="36" onmousedown="handleReset()"/>
                <g id="arrowUp" xlink:href="#dirArrow" transform="translate(30 24)" onmousedown="handlePan(0,-1)">
                  <use xlink:href="#rim" fill="#404040">
                        <set attributeName="fill" to="#808080" begin="arrowUp.mouseover" end="arrowUp.mouseout"/>
                  </use>
                  <path fill="none" stroke="white" stroke-width="1.5" d="M0,-3.0v7 M-2.5,-0.5L0,-3.0L2.5,-0.5"/>
                </g>
                <g id="arrowRight" xlink:href="#dirArrow" transform="rotate(90) translate(36 -43)" onmousedown="handlePan(1,0)">
                  <use xlink:href="#rim" fill="#404040">
                        <set attributeName="fill" to="#808080" begin="arrowRight.mouseover" end="arrowRight.mouseout"/>
                  </use>
                  <path fill="none" stroke="white" stroke-width="1.5" d="M0,-3.0v7 M-2.5,-0.5L0,-3.0L2.5,-0.5"/>
                </g>
                <g id="arrowDown" xlink:href="#dirArrow" transform="rotate(180) translate(-30 -48)" onmousedown="handlePan(0,1)">
                  <use xlink:href="#rim" fill="#404040">
                        <set attributeName="fill" to="#808080" begin="arrowDown.mouseover" end="arrowDown.mouseout"/>
                  </use>
                  <path fill="none" stroke="white" stroke-width="1.5" d="M0,-3.0v7 M-2.5,-0.5L0,-3.0L2.5,-0.5"/>
                </g>
                <g id="arrowLeft" xlink:href="#dirArrow" transform="rotate(270) translate(-36 17)" onmousedown="handlePan(-1,0)">
                  <use xlink:href="#rim" fill="#404040">
                        <set attributeName="fill" to="#808080" begin="arrowLeft.mouseover" end="arrowLeft.mouseout"/>
                  </use>
                  <path fill="none" stroke="white" stroke-width="1.5" d="M0,-3.0v7 M-2.5,-0.5L0,-3.0L2.5,-0.5"/>
                </g>
        </g>
        <svg viewBox="0 0 15 15" width="100%" height="30px" preserveAspectRatio="xMaxYMin meet">
         <g id="arrow_out" transform="scale(0.3 0.3)">
          <a xlink:href="class_sensor_controller_base__coll__graph_org.svg" target="_base">
           <rect id="button" ry="5" rx="5" y="6" x="6" height="38" width="38"
                fill="#f2f5e9" fill-opacity="0.5" stroke="#606060" stroke-width="1.0"/>
           <path id="arrow"
             d="M 11.500037,31.436501 C 11.940474,20.09759 22.043105,11.32322 32.158766,21.979434 L 37.068811,17.246167 C 37.068811,17.246167 37.088388,32 37.088388,32 L 22.160133,31.978069 C 22.160133,31.978069 26.997745,27.140456 26.997745,27.140456 C 18.528582,18.264221 13.291696,25.230495 11.500037,31.436501 z"
             style="fill:#404040;"/>
          </a>
         </g>
        </svg>
</svg>
