<?xml version="1.0" encoding="UTF-8" standalone="no"?>
<!DOCTYPE svg PUBLIC "-//W3C//DTD SVG 1.1//EN"
 "http://www.w3.org/Graphics/SVG/1.1/DTD/svg11.dtd">
<!-- Generated by graphviz version 2.43.0 (0)
 -->
<!-- Title: MOCK_WIFI Pages: 1 -->
<svg width="228pt" height="504pt"
 viewBox="0.00 0.00 227.50 504.00" xmlns="http://www.w3.org/2000/svg" xmlns:xlink="http://www.w3.org/1999/xlink">
<g id="graph0" class="graph" transform="scale(1 1) rotate(0) translate(4 500)">
<title>MOCK_WIFI</title>
<!-- Node1 -->
<g id="node1" class="node">
<title>Node1</title>
<g id="a_node1"><a xlink:title=" ">
<polygon fill="#bfbfbf" stroke="black" points="43,-0.5 43,-90.5 144,-90.5 144,-0.5 43,-0.5"/>
<text text-anchor="middle" x="93.5" y="-78.5" font-family="Helvetica,sans-Serif" font-size="10.00">MOCK_WIFI</text>
<polyline fill="none" stroke="black" points="43,-71.5 144,-71.5 "/>
<text text-anchor="middle" x="93.5" y="-59.5" font-family="Helvetica,sans-Serif" font-size="10.00"> </text>
<polyline fill="none" stroke="black" points="43,-52.5 144,-52.5 "/>
<text text-anchor="start" x="51" y="-40.5" font-family="Helvetica,sans-Serif" font-size="10.00">+ MOCK_WIFI()</text>
<text text-anchor="start" x="51" y="-29.5" font-family="Helvetica,sans-Serif" font-size="10.00">+ ~MOCK_WIFI()</text>
<text text-anchor="start" x="51" y="-18.5" font-family="Helvetica,sans-Serif" font-size="10.00">+ connect()</text>
<text text-anchor="start" x="51" y="-7.5" font-family="Helvetica,sans-Serif" font-size="10.00">+ disconnect()</text>
</a>
</g>
</g>
<!-- Node2 -->
<g id="node2" class="node">
<title>Node2</title>
<g id="a_node2"><a xlink:href="../../db/d7f/class_wi_fi_base.html" target="_top" xlink:title=" ">
<polygon fill="none" stroke="black" points="49,-128.5 49,-218.5 138,-218.5 138,-128.5 49,-128.5"/>
<text text-anchor="middle" x="93.5" y="-206.5" font-family="Helvetica,sans-Serif" font-size="10.00">WiFiBase</text>
<polyline fill="none" stroke="black" points="49,-199.5 138,-199.5 "/>
<text text-anchor="middle" x="93.5" y="-187.5" font-family="Helvetica,sans-Serif" font-size="10.00"> </text>
<polyline fill="none" stroke="black" points="49,-180.5 138,-180.5 "/>
<text text-anchor="start" x="57" y="-168.5" font-family="Helvetica,sans-Serif" font-size="10.00">+ WiFiBase()</text>
<text text-anchor="start" x="57" y="-157.5" font-family="Helvetica,sans-Serif" font-size="10.00">+ ~WiFiBase()</text>
<text text-anchor="start" x="57" y="-146.5" font-family="Helvetica,sans-Serif" font-size="10.00">&#45; WiFiBase()</text>
<text text-anchor="start" x="57" y="-135.5" font-family="Helvetica,sans-Serif" font-size="10.00">&#45; operator=()</text>
</a>
</g>
</g>
<!-- Node2&#45;&gt;Node1 -->
<g id="edge1" class="edge">
<title>Node2&#45;&gt;Node1</title>
<path fill="none" stroke="midnightblue" d="M93.5,-118.23C93.5,-109.06 93.5,-99.63 93.5,-90.76"/>
<polygon fill="none" stroke="midnightblue" points="90,-118.43 93.5,-128.43 97,-118.43 90,-118.43"/>
</g>
<!-- Node3 -->
<g id="node3" class="node">
<title>Node3</title>
<g id="a_node3"><a xlink:href="../../d0/d74/class_connector_base.html" target="_top" xlink:title=" ">
<polygon fill="none" stroke="black" points="0,-277.5 0,-389.5 117,-389.5 117,-277.5 0,-277.5"/>
<text text-anchor="middle" x="58.5" y="-377.5" font-family="Helvetica,sans-Serif" font-size="10.00">ConnectorBase</text>
<polyline fill="none" stroke="black" points="0,-370.5 117,-370.5 "/>
<text text-anchor="middle" x="58.5" y="-358.5" font-family="Helvetica,sans-Serif" font-size="10.00"> </text>
<polyline fill="none" stroke="black" points="0,-351.5 117,-351.5 "/>
<text text-anchor="start" x="8" y="-339.5" font-family="Helvetica,sans-Serif" font-size="10.00">+ ConnectorBase()</text>
<text text-anchor="start" x="8" y="-328.5" font-family="Helvetica,sans-Serif" font-size="10.00">+ ~ConnectorBase()</text>
<text text-anchor="start" x="8" y="-317.5" font-family="Helvetica,sans-Serif" font-size="10.00">+ connect()</text>
<text text-anchor="start" x="8" y="-306.5" font-family="Helvetica,sans-Serif" font-size="10.00">+ disconnect()</text>
<text text-anchor="start" x="8" y="-295.5" font-family="Helvetica,sans-Serif" font-size="10.00">&#45; ConnectorBase()</text>
<text text-anchor="start" x="8" y="-284.5" font-family="Helvetica,sans-Serif" font-size="10.00">&#45; operator=()</text>
</a>
</g>
</g>
<!-- Node3&#45;&gt;Node2 -->
<g id="edge2" class="edge">
<title>Node3&#45;&gt;Node2</title>
<path fill="none" stroke="midnightblue" d="M72.97,-267.17C76.6,-250.79 80.41,-233.6 83.74,-218.54"/>
<polygon fill="none" stroke="midnightblue" points="69.49,-266.72 70.74,-277.24 76.32,-268.23 69.49,-266.72"/>
</g>
<!-- Node4 -->
<g id="node4" class="node">
<title>Node4</title>
<g id="a_node4"><a xlink:title="STL class.">
<polygon fill="none" stroke="#bfbfbf" points="135,-305 135,-362 200,-362 200,-305 135,-305"/>
<text text-anchor="middle" x="167.5" y="-350" font-family="Helvetica,sans-Serif" font-size="10.00">std::string</text>
<polyline fill="none" stroke="#bfbfbf" points="135,-343 200,-343 "/>
<text text-anchor="middle" x="167.5" y="-331" font-family="Helvetica,sans-Serif" font-size="10.00"> </text>
<polyline fill="none" stroke="#bfbfbf" points="135,-324 200,-324 "/>
<text text-anchor="middle" x="167.5" y="-312" font-family="Helvetica,sans-Serif" font-size="10.00"> </text>
</a>
</g>
</g>
<!-- Node4&#45;&gt;Node2 -->
<g id="edge3" class="edge">
<title>Node4&#45;&gt;Node2</title>
<path fill="none" stroke="#404040" d="M154.61,-304.98C144.91,-284.26 131.29,-255.18 119.36,-229.72"/>
<polygon fill="none" stroke="#404040" points="119.29,-229.57 113.12,-225.83 114.2,-218.7 120.37,-222.44 119.29,-229.57"/>
<text text-anchor="middle" x="155.5" y="-251" font-family="Helvetica,sans-Serif" font-size="10.00"> #m_ssid</text>
<text text-anchor="middle" x="155.5" y="-240" font-family="Helvetica,sans-Serif" font-size="10.00">#m_pwd</text>
</g>
<!-- Node5 -->
<g id="node5" class="node">
<title>Node5</title>
<g id="a_node5"><a xlink:title="STL class.">
<polygon fill="none" stroke="#bfbfbf" points="115.5,-427.5 115.5,-495.5 219.5,-495.5 219.5,-427.5 115.5,-427.5"/>
<text text-anchor="start" x="123.5" y="-483.5" font-family="Helvetica,sans-Serif" font-size="10.00">std::basic_string&lt;</text>
<text text-anchor="middle" x="167.5" y="-472.5" font-family="Helvetica,sans-Serif" font-size="10.00"> char &gt;</text>
<polyline fill="none" stroke="#bfbfbf" points="115.5,-465.5 219.5,-465.5 "/>
<text text-anchor="middle" x="167.5" y="-453.5" font-family="Helvetica,sans-Serif" font-size="10.00"> </text>
<polyline fill="none" stroke="#bfbfbf" points="115.5,-446.5 219.5,-446.5 "/>
<text text-anchor="middle" x="167.5" y="-434.5" font-family="Helvetica,sans-Serif" font-size="10.00"> </text>
</a>
</g>
</g>
<!-- Node5&#45;&gt;Node4 -->
<g id="edge4" class="edge">
<title>Node5&#45;&gt;Node4</title>
<path fill="none" stroke="midnightblue" d="M167.5,-417.29C167.5,-399.08 167.5,-378.4 167.5,-362.27"/>
<polygon fill="none" stroke="midnightblue" points="164,-417.39 167.5,-427.39 171,-417.4 164,-417.39"/>
</g>
</g>
</svg>
