<?xml version="1.0" encoding="UTF-8" standalone="no"?>
<!DOCTYPE svg PUBLIC "-//W3C//DTD SVG 1.1//EN"
 "http://www.w3.org/Graphics/SVG/1.1/DTD/svg11.dtd">
<!-- Generated by graphviz version 2.43.0 (0)
 -->
<!-- Title: Components/Connector/WiFi/include/WiFi_API.hpp Pages: 1 -->
<!--zoomable 285 -->
<svg id="main" version="1.1" xmlns="http://www.w3.org/2000/svg" xmlns:xlink="http://www.w3.org/1999/xlink" xml:space="preserve" onload="init(evt)">
<style type="text/css"><![CDATA[
.edge:hover path { stroke: red; }
.edge:hover polygon { stroke: red; fill: red; }
]]></style>
<script type="text/javascript"><![CDATA[
var edges = document.getElementsByTagName('g');
if (edges && edges.length) {
  for (var i=0;i<edges.length;i++) {
    if (edges[i].id.substr(0,4)=='edge') {
      edges[i].setAttribute('class','edge');
    }
  }
}
]]></script>
        <defs>
                <circle id="rim" cx="0" cy="0" r="7"/>
                <circle id="rim2" cx="0" cy="0" r="3.5"/>
                <g id="zoomPlus">
                        <use xlink:href="#rim" fill="#404040">
                                <set attributeName="fill" to="#808080" begin="zoomplus.mouseover" end="zoomplus.mouseout"/>
                        </use>
                        <path d="M-4,0h8M0,-4v8" fill="none" stroke="white" stroke-width="1.5" pointer-events="none"/>
                </g>
                <g id="zoomMin">
                        <use xlink:href="#rim" fill="#404040">
                                <set attributeName="fill" to="#808080" begin="zoomminus.mouseover" end="zoomminus.mouseout"/>
                        </use>
                        <path d="M-4,0h8" fill="none" stroke="white" stroke-width="1.5" pointer-events="none"/>
                </g>
                <g id="dirArrow">
                        <path fill="none" stroke="white" stroke-width="1.5" d="M0,-3.0v7 M-2.5,-0.5L0,-3.0L2.5,-0.5"/>
                </g>
               <g id="resetDef">
                       <use xlink:href="#rim2" fill="#404040">
                               <set attributeName="fill" to="#808080" begin="reset.mouseover" end="reset.mouseout"/>
                       </use>
               </g>
        </defs>

<script type="text/javascript">
var viewWidth = 713;
var viewHeight = 285;
var sectionId = 'dynsection-0';
</script>
<script xlink:href="../../svgpan.js"/>
<svg id="graph" class="graph">
<g id="viewport">
<title>Components/Connector/WiFi/include/WiFi_API.hpp</title>
<!-- Node1 -->
<g id="node1" class="node">
<title>Node1</title>
<g id="a_node1"><a xlink:title=" ">
<polygon fill="#bfbfbf" stroke="black" points="477.52,-246.5 477.52,-276.5 622.52,-276.5 622.52,-246.5 477.52,-246.5"/>
<text text-anchor="start" x="485.52" y="-264.5" font-family="Helvetica,sans-Serif" font-size="10.00">Components/Connector</text>
<text text-anchor="middle" x="550.02" y="-253.5" font-family="Helvetica,sans-Serif" font-size="10.00">/WiFi/include/WiFi_API.hpp</text>
</a>
</g>
</g>
<!-- Node2 -->
<g id="node2" class="node">
<title>Node2</title>
<g id="a_node2"><a xlink:href="../../da/d5f/_b_a_s_i_c_8hpp.html" target="_top" xlink:title=" ">
<polygon fill="none" stroke="black" points="540.02,-56.5 540.02,-86.5 656.02,-86.5 656.02,-56.5 540.02,-56.5"/>
<text text-anchor="start" x="548.02" y="-74.5" font-family="Helvetica,sans-Serif" font-size="10.00">../../../Global_Include</text>
<text text-anchor="middle" x="598.02" y="-63.5" font-family="Helvetica,sans-Serif" font-size="10.00">/BASIC.hpp</text>
</a>
</g>
</g>
<!-- Node1&#45;&gt;Node2 -->
<g id="edge1" class="edge">
<title>Node1&#45;&gt;Node2</title>
<path fill="none" stroke="midnightblue" d="M596.53,-246.42C617.9,-238.27 642.55,-226.34 661.02,-210 687.17,-186.87 692.56,-176.6 702.02,-143 704.43,-134.44 706.74,-130.53 702.02,-123 693.07,-108.7 678.78,-98.35 663.63,-90.89"/>
<polygon fill="midnightblue" stroke="midnightblue" points="664.68,-87.52 654.13,-86.61 661.81,-93.91 664.68,-87.52"/>
</g>
<!-- Node3 -->
<g id="node3" class="node">
<title>Node3</title>
<g id="a_node3"><a xlink:href="../../d3/deb/_general___error_8hpp.html" target="_top" xlink:title=" ">
<polygon fill="none" stroke="black" points="338.52,-56.5 338.52,-86.5 483.52,-86.5 483.52,-56.5 338.52,-56.5"/>
<text text-anchor="start" x="346.52" y="-74.5" font-family="Helvetica,sans-Serif" font-size="10.00">../../../Objects/ErrorHandler</text>
<text text-anchor="middle" x="411.02" y="-63.5" font-family="Helvetica,sans-Serif" font-size="10.00">/include/General_Error.hpp</text>
</a>
</g>
</g>
<!-- Node1&#45;&gt;Node3 -->
<g id="edge2" class="edge">
<title>Node1&#45;&gt;Node3</title>
<path fill="none" stroke="midnightblue" d="M477.29,-255.45C349.56,-244.79 94.05,-214.76 48.02,-143 3.6,-73.73 -111.55,-153.18 328.02,-87.1"/>
<polygon fill="midnightblue" stroke="midnightblue" points="328.81,-90.52 338.17,-85.57 327.76,-83.6 328.81,-90.52"/>
</g>
<!-- Node6 -->
<g id="node6" class="node">
<title>Node6</title>
<g id="a_node6"><a xlink:href="../../d7/d60/_timeservice_8hpp.html" target="_top" xlink:title=" ">
<polygon fill="none" stroke="black" points="203.52,-179.5 203.52,-209.5 346.52,-209.5 346.52,-179.5 203.52,-179.5"/>
<text text-anchor="start" x="211.52" y="-197.5" font-family="Helvetica,sans-Serif" font-size="10.00">../../../Objects/Timeservice</text>
<text text-anchor="middle" x="275.02" y="-186.5" font-family="Helvetica,sans-Serif" font-size="10.00">/include/Timeservice.hpp</text>
</a>
</g>
</g>
<!-- Node1&#45;&gt;Node6 -->
<g id="edge5" class="edge">
<title>Node1&#45;&gt;Node6</title>
<path fill="none" stroke="midnightblue" d="M490.69,-246.48C447.83,-236.34 389.79,-222.63 344.71,-211.97"/>
<polygon fill="midnightblue" stroke="midnightblue" points="345.26,-208.51 334.72,-209.61 343.65,-215.32 345.26,-208.51"/>
</g>
<!-- Node12 -->
<g id="node12" class="node">
<title>Node12</title>
<g id="a_node12"><a xlink:title=" ">
<polygon fill="none" stroke="#bfbfbf" points="580.02,-185 580.02,-204 630.02,-204 630.02,-185 580.02,-185"/>
<text text-anchor="middle" x="605.02" y="-192" font-family="Helvetica,sans-Serif" font-size="10.00">cstring</text>
</a>
</g>
</g>
<!-- Node1&#45;&gt;Node12 -->
<g id="edge15" class="edge">
<title>Node1&#45;&gt;Node12</title>
<path fill="none" stroke="midnightblue" d="M561.96,-246.4C570.53,-236.26 582.12,-222.57 591.11,-211.94"/>
<polygon fill="midnightblue" stroke="midnightblue" points="593.88,-214.09 597.67,-204.19 588.53,-209.57 593.88,-214.09"/>
</g>
<!-- Node13 -->
<g id="node13" class="node">
<title>Node13</title>
<g id="a_node13"><a xlink:href="../../d7/d2f/_wi_fi_8h.html" target="_top" xlink:title=" ">
<polygon fill="none" stroke="black" points="645.52,-123.5 645.52,-142.5 692.52,-142.5 692.52,-123.5 645.52,-123.5"/>
<text text-anchor="middle" x="669.02" y="-130.5" font-family="Helvetica,sans-Serif" font-size="10.00">WiFi.h</text>
</a>
</g>
</g>
<!-- Node1&#45;&gt;Node13 -->
<g id="edge16" class="edge">
<title>Node1&#45;&gt;Node13</title>
<path fill="none" stroke="midnightblue" d="M587.3,-246.3C604.95,-237.99 625.16,-225.96 639.02,-210 653.23,-193.64 661.17,-169.75 665.25,-153.13"/>
<polygon fill="midnightblue" stroke="midnightblue" points="668.76,-153.5 667.5,-142.98 661.92,-151.99 668.76,-153.5"/>
</g>
<!-- Node14 -->
<g id="node14" class="node">
<title>Node14</title>
<g id="a_node14"><a xlink:href="../../d0/db3/_wi_fi___event___handler_8hpp.html" target="_top" xlink:title=" ">
<polygon fill="none" stroke="black" points="428.02,-185 428.02,-204 562.02,-204 562.02,-185 428.02,-185"/>
<text text-anchor="middle" x="495.02" y="-192" font-family="Helvetica,sans-Serif" font-size="10.00">WiFi_Event_Handler.hpp</text>
</a>
</g>
</g>
<!-- Node1&#45;&gt;Node14 -->
<g id="edge19" class="edge">
<title>Node1&#45;&gt;Node14</title>
<path fill="none" stroke="midnightblue" d="M538.09,-246.4C529.51,-236.26 517.93,-222.57 508.93,-211.94"/>
<polygon fill="midnightblue" stroke="midnightblue" points="511.51,-209.57 502.38,-204.19 506.17,-214.09 511.51,-209.57"/>
</g>
<!-- Node4 -->
<g id="node4" class="node">
<title>Node4</title>
<g id="a_node4"><a xlink:title=" ">
<polygon fill="none" stroke="#bfbfbf" points="354.02,-0.5 354.02,-19.5 398.02,-19.5 398.02,-0.5 354.02,-0.5"/>
<text text-anchor="middle" x="376.02" y="-7.5" font-family="Helvetica,sans-Serif" font-size="10.00">string</text>
</a>
</g>
</g>
<!-- Node3&#45;&gt;Node4 -->
<g id="edge3" class="edge">
<title>Node3&#45;&gt;Node4</title>
<path fill="none" stroke="midnightblue" d="M402.73,-56.4C397.8,-48.02 391.51,-37.33 386.27,-28.42"/>
<polygon fill="midnightblue" stroke="midnightblue" points="389.2,-26.5 381.12,-19.66 383.17,-30.05 389.2,-26.5"/>
</g>
<!-- Node5 -->
<g id="node5" class="node">
<title>Node5</title>
<g id="a_node5"><a xlink:title=" ">
<polygon fill="none" stroke="#bfbfbf" points="416.02,-0.5 416.02,-19.5 476.02,-19.5 476.02,-0.5 416.02,-0.5"/>
<text text-anchor="middle" x="446.02" y="-7.5" font-family="Helvetica,sans-Serif" font-size="10.00">iostream</text>
</a>
</g>
</g>
<!-- Node3&#45;&gt;Node5 -->
<g id="edge4" class="edge">
<title>Node3&#45;&gt;Node5</title>
<path fill="none" stroke="midnightblue" d="M419.32,-56.4C424.25,-48.02 430.54,-37.33 435.77,-28.42"/>
<polygon fill="midnightblue" stroke="midnightblue" points="438.88,-30.05 440.93,-19.66 432.84,-26.5 438.88,-30.05"/>
</g>
<!-- Node6&#45;&gt;Node2 -->
<g id="edge6" class="edge">
<title>Node6&#45;&gt;Node2</title>
<path fill="none" stroke="midnightblue" d="M346.84,-184.08C425.52,-173.25 542.92,-155.36 560.02,-143 575.64,-131.71 585.49,-111.97 591.24,-96.25"/>
<polygon fill="midnightblue" stroke="midnightblue" points="594.6,-97.22 594.44,-86.62 587.96,-95.01 594.6,-97.22"/>
</g>
<!-- Node6&#45;&gt;Node3 -->
<g id="edge7" class="edge">
<title>Node6&#45;&gt;Node3</title>
<path fill="none" stroke="midnightblue" d="M275.31,-179.39C276.35,-163.83 280.25,-138.91 294.02,-123 306.6,-108.46 324.13,-97.97 341.79,-90.46"/>
<polygon fill="midnightblue" stroke="midnightblue" points="343.57,-93.52 351.58,-86.59 340.99,-87.01 343.57,-93.52"/>
</g>
<!-- Node7 -->
<g id="node7" class="node">
<title>Node7</title>
<g id="a_node7"><a xlink:href="../../d6/d4b/_r_t_c___h_a_l_8hpp.html" target="_top" xlink:title=" ">
<polygon fill="none" stroke="black" points="303.02,-123.5 303.02,-142.5 383.02,-142.5 383.02,-123.5 303.02,-123.5"/>
<text text-anchor="middle" x="343.02" y="-130.5" font-family="Helvetica,sans-Serif" font-size="10.00">RTC_HAL.hpp</text>
</a>
</g>
</g>
<!-- Node6&#45;&gt;Node7 -->
<g id="edge8" class="edge">
<title>Node6&#45;&gt;Node7</title>
<path fill="none" stroke="midnightblue" d="M291.14,-179.4C301.43,-170.4 314.77,-158.72 325.35,-149.47"/>
<polygon fill="midnightblue" stroke="midnightblue" points="327.91,-151.88 333.13,-142.66 323.3,-146.61 327.91,-151.88"/>
</g>
<!-- Node9 -->
<g id="node9" class="node">
<title>Node9</title>
<g id="a_node9"><a xlink:title=" ">
<polygon fill="none" stroke="#bfbfbf" points="57.02,-123.5 57.02,-142.5 107.02,-142.5 107.02,-123.5 57.02,-123.5"/>
<text text-anchor="middle" x="82.02" y="-130.5" font-family="Helvetica,sans-Serif" font-size="10.00">chrono</text>
</a>
</g>
</g>
<!-- Node6&#45;&gt;Node9 -->
<g id="edge12" class="edge">
<title>Node6&#45;&gt;Node9</title>
<path fill="none" stroke="midnightblue" d="M229.28,-179.4C194.78,-168.76 148.18,-154.4 116.72,-144.7"/>
<polygon fill="midnightblue" stroke="midnightblue" points="117.65,-141.32 107.07,-141.72 115.59,-148.01 117.65,-141.32"/>
</g>
<!-- Node10 -->
<g id="node10" class="node">
<title>Node10</title>
<g id="a_node10"><a xlink:title=" ">
<polygon fill="none" stroke="#bfbfbf" points="125.02,-123.5 125.02,-142.5 181.02,-142.5 181.02,-123.5 125.02,-123.5"/>
<text text-anchor="middle" x="153.02" y="-130.5" font-family="Helvetica,sans-Serif" font-size="10.00">iomanip</text>
</a>
</g>
</g>
<!-- Node6&#45;&gt;Node10 -->
<g id="edge13" class="edge">
<title>Node6&#45;&gt;Node10</title>
<path fill="none" stroke="midnightblue" d="M246.11,-179.4C226.01,-169.59 199.4,-156.62 179.78,-147.05"/>
<polygon fill="midnightblue" stroke="midnightblue" points="181.3,-143.9 170.77,-142.66 178.23,-150.19 181.3,-143.9"/>
</g>
<!-- Node11 -->
<g id="node11" class="node">
<title>Node11</title>
<g id="a_node11"><a xlink:title=" ">
<polygon fill="none" stroke="#bfbfbf" points="199.02,-123.5 199.02,-142.5 247.02,-142.5 247.02,-123.5 199.02,-123.5"/>
<text text-anchor="middle" x="223.02" y="-130.5" font-family="Helvetica,sans-Serif" font-size="10.00">thread</text>
</a>
</g>
</g>
<!-- Node6&#45;&gt;Node11 -->
<g id="edge14" class="edge">
<title>Node6&#45;&gt;Node11</title>
<path fill="none" stroke="midnightblue" d="M262.7,-179.4C255.07,-170.66 245.23,-159.41 237.26,-150.3"/>
<polygon fill="midnightblue" stroke="midnightblue" points="239.81,-147.88 230.59,-142.66 234.53,-152.49 239.81,-147.88"/>
</g>
<!-- Node7&#45;&gt;Node2 -->
<g id="edge9" class="edge">
<title>Node7&#45;&gt;Node2</title>
<path fill="none" stroke="midnightblue" d="M379.56,-123.48C418.72,-114.34 481.79,-99.62 530.11,-88.35"/>
<polygon fill="midnightblue" stroke="midnightblue" points="530.94,-91.75 539.88,-86.07 529.35,-84.93 530.94,-91.75"/>
</g>
<!-- Node7&#45;&gt;Node3 -->
<g id="edge10" class="edge">
<title>Node7&#45;&gt;Node3</title>
<path fill="none" stroke="midnightblue" d="M352.77,-123.48C361.72,-115.64 375.35,-103.71 387.18,-93.37"/>
<polygon fill="midnightblue" stroke="midnightblue" points="389.78,-95.74 395,-86.52 385.17,-90.47 389.78,-95.74"/>
</g>
<!-- Node8 -->
<g id="node8" class="node">
<title>Node8</title>
<g id="a_node8"><a xlink:title=" ">
<polygon fill="none" stroke="#bfbfbf" points="276.02,-62 276.02,-81 320.02,-81 320.02,-62 276.02,-62"/>
<text text-anchor="middle" x="298.02" y="-69" font-family="Helvetica,sans-Serif" font-size="10.00">ctime</text>
</a>
</g>
</g>
<!-- Node7&#45;&gt;Node8 -->
<g id="edge11" class="edge">
<title>Node7&#45;&gt;Node8</title>
<path fill="none" stroke="midnightblue" d="M336.58,-123.48C329.83,-114.55 319.05,-100.31 310.61,-89.14"/>
<polygon fill="midnightblue" stroke="midnightblue" points="313.28,-86.87 304.46,-81.01 307.7,-91.1 313.28,-86.87"/>
</g>
<!-- Node13&#45;&gt;Node2 -->
<g id="edge17" class="edge">
<title>Node13&#45;&gt;Node2</title>
<path fill="none" stroke="midnightblue" d="M658.85,-123.48C649.41,-115.57 635,-103.48 622.57,-93.07"/>
<polygon fill="midnightblue" stroke="midnightblue" points="624.67,-90.26 614.76,-86.52 620.17,-95.63 624.67,-90.26"/>
</g>
<!-- Node13&#45;&gt;Node3 -->
<g id="edge18" class="edge">
<title>Node13&#45;&gt;Node3</title>
<path fill="none" stroke="midnightblue" d="M645.21,-126.51C608.46,-118.03 536.44,-101.42 481.92,-88.85"/>
<polygon fill="midnightblue" stroke="midnightblue" points="482.49,-85.39 471.96,-86.55 480.92,-92.21 482.49,-85.39"/>
</g>
<!-- Node14&#45;&gt;Node2 -->
<g id="edge20" class="edge">
<title>Node14&#45;&gt;Node2</title>
<path fill="none" stroke="midnightblue" d="M529.99,-184.94C551.93,-177.63 578.69,-164.73 593.02,-143 601.85,-129.61 602.97,-111.52 601.95,-97.02"/>
<polygon fill="midnightblue" stroke="midnightblue" points="605.39,-96.33 600.84,-86.76 598.43,-97.08 605.39,-96.33"/>
</g>
<!-- Node14&#45;&gt;Node3 -->
<g id="edge21" class="edge">
<title>Node14&#45;&gt;Node3</title>
<path fill="none" stroke="midnightblue" d="M478.67,-184.9C463.8,-176.26 442.37,-161.56 430.02,-143 420.85,-129.2 416.09,-111.12 413.63,-96.72"/>
<polygon fill="midnightblue" stroke="midnightblue" points="417.06,-95.96 412.16,-86.56 410.13,-96.96 417.06,-95.96"/>
</g>
<!-- Node15 -->
<g id="node15" class="node">
<title>Node15</title>
<g id="a_node15"><a xlink:href="../../d5/dca/_wi_fi_event_handler_8h.html" target="_top" xlink:title=" ">
<polygon fill="none" stroke="black" points="439.02,-123.5 439.02,-142.5 551.02,-142.5 551.02,-123.5 439.02,-123.5"/>
<text text-anchor="middle" x="495.02" y="-130.5" font-family="Helvetica,sans-Serif" font-size="10.00">WiFiEventHandler.h</text>
</a>
</g>
</g>
<!-- Node14&#45;&gt;Node15 -->
<g id="edge22" class="edge">
<title>Node14&#45;&gt;Node15</title>
<path fill="none" stroke="midnightblue" d="M495.02,-184.98C495.02,-176.58 495.02,-163.48 495.02,-152.66"/>
<polygon fill="midnightblue" stroke="midnightblue" points="498.52,-152.51 495.02,-142.51 491.52,-152.51 498.52,-152.51"/>
</g>
<!-- Node15&#45;&gt;Node2 -->
<g id="edge23" class="edge">
<title>Node15&#45;&gt;Node2</title>
<path fill="none" stroke="midnightblue" d="M509.78,-123.48C524.12,-115.19 546.39,-102.32 564.97,-91.59"/>
<polygon fill="midnightblue" stroke="midnightblue" points="566.84,-94.56 573.75,-86.52 563.34,-88.49 566.84,-94.56"/>
</g>
<!-- Node15&#45;&gt;Node3 -->
<g id="edge24" class="edge">
<title>Node15&#45;&gt;Node3</title>
<path fill="none" stroke="midnightblue" d="M482.99,-123.48C471.61,-115.42 454.11,-103.02 439.22,-92.47"/>
<polygon fill="midnightblue" stroke="midnightblue" points="441,-89.45 430.82,-86.52 436.96,-95.16 441,-89.45"/>
</g>
</g>
</svg>
        <g id="navigator" transform="translate(0 0)" fill="#404254">
                <rect fill="#f2f5e9" fill-opacity="0.5" stroke="#606060" stroke-width=".5" x="0" y="0" width="60" height="60"/>
                <use id="zoomplus" xlink:href="#zoomPlus" x="17" y="9" onmousedown="handleZoom(evt,'in')"/>
                <use id="zoomminus" xlink:href="#zoomMin" x="42" y="9" onmousedown="handleZoom(evt,'out')"/>
                <use id="reset" xlink:href="#resetDef" x="30" y="36" onmousedown="handleReset()"/>
                <g id="arrowUp" xlink:href="#dirArrow" transform="translate(30 24)" onmousedown="handlePan(0,-1)">
                  <use xlink:href="#rim" fill="#404040">
                        <set attributeName="fill" to="#808080" begin="arrowUp.mouseover" end="arrowUp.mouseout"/>
                  </use>
                  <path fill="none" stroke="white" stroke-width="1.5" d="M0,-3.0v7 M-2.5,-0.5L0,-3.0L2.5,-0.5"/>
                </g>
                <g id="arrowRight" xlink:href="#dirArrow" transform="rotate(90) translate(36 -43)" onmousedown="handlePan(1,0)">
                  <use xlink:href="#rim" fill="#404040">
                        <set attributeName="fill" to="#808080" begin="arrowRight.mouseover" end="arrowRight.mouseout"/>
                  </use>
                  <path fill="none" stroke="white" stroke-width="1.5" d="M0,-3.0v7 M-2.5,-0.5L0,-3.0L2.5,-0.5"/>
                </g>
                <g id="arrowDown" xlink:href="#dirArrow" transform="rotate(180) translate(-30 -48)" onmousedown="handlePan(0,1)">
                  <use xlink:href="#rim" fill="#404040">
                        <set attributeName="fill" to="#808080" begin="arrowDown.mouseover" end="arrowDown.mouseout"/>
                  </use>
                  <path fill="none" stroke="white" stroke-width="1.5" d="M0,-3.0v7 M-2.5,-0.5L0,-3.0L2.5,-0.5"/>
                </g>
                <g id="arrowLeft" xlink:href="#dirArrow" transform="rotate(270) translate(-36 17)" onmousedown="handlePan(-1,0)">
                  <use xlink:href="#rim" fill="#404040">
                        <set attributeName="fill" to="#808080" begin="arrowLeft.mouseover" end="arrowLeft.mouseout"/>
                  </use>
                  <path fill="none" stroke="white" stroke-width="1.5" d="M0,-3.0v7 M-2.5,-0.5L0,-3.0L2.5,-0.5"/>
                </g>
        </g>
        <svg viewBox="0 0 15 15" width="100%" height="30px" preserveAspectRatio="xMaxYMin meet">
         <g id="arrow_out" transform="scale(0.3 0.3)">
          <a xlink:href="_wi_fi___a_p_i_8hpp__incl_org.svg" target="_base">
           <rect id="button" ry="5" rx="5" y="6" x="6" height="38" width="38"
                fill="#f2f5e9" fill-opacity="0.5" stroke="#606060" stroke-width="1.0"/>
           <path id="arrow"
             d="M 11.500037,31.436501 C 11.940474,20.09759 22.043105,11.32322 32.158766,21.979434 L 37.068811,17.246167 C 37.068811,17.246167 37.088388,32 37.088388,32 L 22.160133,31.978069 C 22.160133,31.978069 26.997745,27.140456 26.997745,27.140456 C 18.528582,18.264221 13.291696,25.230495 11.500037,31.436501 z"
             style="fill:#404040;"/>
          </a>
         </g>
        </svg>
</svg>
