<?xml version="1.0" encoding="UTF-8" standalone="no"?>
<!DOCTYPE svg PUBLIC "-//W3C//DTD SVG 1.1//EN"
 "http://www.w3.org/Graphics/SVG/1.1/DTD/svg11.dtd">
<!-- Generated by graphviz version 2.43.0 (0)
 -->
<!-- Title: Components/Utility/utils/src/utils.cpp Pages: 1 -->
<!--zoomable 218 -->
<svg id="main" version="1.1" xmlns="http://www.w3.org/2000/svg" xmlns:xlink="http://www.w3.org/1999/xlink" xml:space="preserve" onload="init(evt)">
<style type="text/css"><![CDATA[
.edge:hover path { stroke: red; }
.edge:hover polygon { stroke: red; fill: red; }
]]></style>
<script type="text/javascript"><![CDATA[
var edges = document.getElementsByTagName('g');
if (edges && edges.length) {
  for (var i=0;i<edges.length;i++) {
    if (edges[i].id.substr(0,4)=='edge') {
      edges[i].setAttribute('class','edge');
    }
  }
}
]]></script>
        <defs>
                <circle id="rim" cx="0" cy="0" r="7"/>
                <circle id="rim2" cx="0" cy="0" r="3.5"/>
                <g id="zoomPlus">
                        <use xlink:href="#rim" fill="#404040">
                                <set attributeName="fill" to="#808080" begin="zoomplus.mouseover" end="zoomplus.mouseout"/>
                        </use>
                        <path d="M-4,0h8M0,-4v8" fill="none" stroke="white" stroke-width="1.5" pointer-events="none"/>
                </g>
                <g id="zoomMin">
                        <use xlink:href="#rim" fill="#404040">
                                <set attributeName="fill" to="#808080" begin="zoomminus.mouseover" end="zoomminus.mouseout"/>
                        </use>
                        <path d="M-4,0h8" fill="none" stroke="white" stroke-width="1.5" pointer-events="none"/>
                </g>
                <g id="dirArrow">
                        <path fill="none" stroke="white" stroke-width="1.5" d="M0,-3.0v7 M-2.5,-0.5L0,-3.0L2.5,-0.5"/>
                </g>
               <g id="resetDef">
                       <use xlink:href="#rim2" fill="#404040">
                               <set attributeName="fill" to="#808080" begin="reset.mouseover" end="reset.mouseout"/>
                       </use>
               </g>
        </defs>

<script type="text/javascript">
var viewWidth = 695;
var viewHeight = 218;
var sectionId = 'dynsection-0';
</script>
<script xlink:href="../../svgpan.js"/>
<svg id="graph" class="graph">
<g id="viewport">
<title>Components/Utility/utils/src/utils.cpp</title>
<!-- Node1 -->
<g id="node1" class="node">
<title>Node1</title>
<g id="a_node1"><a xlink:title=" ">
<polygon fill="#bfbfbf" stroke="black" points="520.87,-179.5 520.87,-209.5 631.87,-209.5 631.87,-179.5 520.87,-179.5"/>
<text text-anchor="start" x="528.87" y="-197.5" font-family="Helvetica,sans-Serif" font-size="10.00">Components/Utility</text>
<text text-anchor="middle" x="576.37" y="-186.5" font-family="Helvetica,sans-Serif" font-size="10.00">/utils/src/utils.cpp</text>
</a>
</g>
</g>
<!-- Node2 -->
<g id="node2" class="node">
<title>Node2</title>
<g id="a_node2"><a xlink:href="../../d5/d60/utils_8h.html" target="_top" xlink:title=" ">
<polygon fill="none" stroke="black" points="371.37,-123.5 371.37,-142.5 465.37,-142.5 465.37,-123.5 371.37,-123.5"/>
<text text-anchor="middle" x="418.37" y="-130.5" font-family="Helvetica,sans-Serif" font-size="10.00">../include/utils.h</text>
</a>
</g>
</g>
<!-- Node1&#45;&gt;Node2 -->
<g id="edge1" class="edge">
<title>Node1&#45;&gt;Node2</title>
<path fill="none" stroke="midnightblue" d="M538.93,-179.4C512.18,-169.33 476.55,-155.91 450.97,-146.28"/>
<polygon fill="midnightblue" stroke="midnightblue" points="451.95,-142.91 441.36,-142.66 449.49,-149.46 451.95,-142.91"/>
</g>
<!-- Node11 -->
<g id="node11" class="node">
<title>Node11</title>
<g id="a_node11"><a xlink:title=" ">
<polygon fill="none" stroke="#bfbfbf" points="631.37,-62 631.37,-81 687.37,-81 687.37,-62 631.37,-62"/>
<text text-anchor="middle" x="659.37" y="-69" font-family="Helvetica,sans-Serif" font-size="10.00">sstream</text>
</a>
</g>
</g>
<!-- Node1&#45;&gt;Node11 -->
<g id="edge14" class="edge">
<title>Node1&#45;&gt;Node11</title>
<path fill="none" stroke="midnightblue" d="M577.54,-179.45C579.35,-164.41 583.93,-140.36 595.37,-123 605.25,-108.02 621.03,-95.5 634.46,-86.67"/>
<polygon fill="midnightblue" stroke="midnightblue" points="636.64,-89.43 643.27,-81.16 632.93,-83.49 636.64,-89.43"/>
</g>
<!-- Node12 -->
<g id="node12" class="node">
<title>Node12</title>
<g id="a_node12"><a xlink:title=" ">
<polygon fill="none" stroke="#bfbfbf" points="604.37,-123.5 604.37,-142.5 660.37,-142.5 660.37,-123.5 604.37,-123.5"/>
<text text-anchor="middle" x="632.37" y="-130.5" font-family="Helvetica,sans-Serif" font-size="10.00">iomanip</text>
</a>
</g>
</g>
<!-- Node1&#45;&gt;Node12 -->
<g id="edge13" class="edge">
<title>Node1&#45;&gt;Node12</title>
<path fill="none" stroke="midnightblue" d="M589.64,-179.4C597.95,-170.58 608.67,-159.18 617.3,-150.02"/>
<polygon fill="midnightblue" stroke="midnightblue" points="619.92,-152.34 624.22,-142.66 614.82,-147.54 619.92,-152.34"/>
</g>
<!-- Node3 -->
<g id="node3" class="node">
<title>Node3</title>
<g id="a_node3"><a xlink:title=" ">
<polygon fill="none" stroke="#bfbfbf" points="133.37,-0.5 133.37,-19.5 177.37,-19.5 177.37,-0.5 133.37,-0.5"/>
<text text-anchor="middle" x="155.37" y="-7.5" font-family="Helvetica,sans-Serif" font-size="10.00">string</text>
</a>
</g>
</g>
<!-- Node2&#45;&gt;Node3 -->
<g id="edge2" class="edge">
<title>Node2&#45;&gt;Node3</title>
<path fill="none" stroke="midnightblue" d="M371.14,-130.29C268.48,-126.1 32.24,-113.63 8.37,-87 -27.94,-46.48 69.91,-24.32 123.31,-15.53"/>
<polygon fill="midnightblue" stroke="midnightblue" points="124.01,-18.96 133.34,-13.95 122.92,-12.05 124.01,-18.96"/>
</g>
<!-- Node4 -->
<g id="node4" class="node">
<title>Node4</title>
<g id="a_node4"><a xlink:title=" ">
<polygon fill="none" stroke="#bfbfbf" points="17.87,-62 17.87,-81 64.87,-81 64.87,-62 17.87,-62"/>
<text text-anchor="middle" x="41.37" y="-69" font-family="Helvetica,sans-Serif" font-size="10.00">vector</text>
</a>
</g>
</g>
<!-- Node2&#45;&gt;Node4 -->
<g id="edge3" class="edge">
<title>Node2&#45;&gt;Node4</title>
<path fill="none" stroke="midnightblue" d="M371.35,-130.07C304.32,-126.37 177.93,-115.89 74.37,-87 72.22,-86.4 70.02,-85.68 67.84,-84.9"/>
<polygon fill="midnightblue" stroke="midnightblue" points="69.08,-81.63 58.5,-81.13 66.46,-88.12 69.08,-81.63"/>
</g>
<!-- Node5 -->
<g id="node5" class="node">
<title>Node5</title>
<g id="a_node5"><a xlink:href="../../da/d5f/_b_a_s_i_c_8hpp.html" target="_top" xlink:title=" ">
<polygon fill="none" stroke="black" points="83.37,-56.5 83.37,-86.5 199.37,-86.5 199.37,-56.5 83.37,-56.5"/>
<text text-anchor="start" x="91.37" y="-74.5" font-family="Helvetica,sans-Serif" font-size="10.00">../../../Global_Include</text>
<text text-anchor="middle" x="141.37" y="-63.5" font-family="Helvetica,sans-Serif" font-size="10.00">/BASIC.hpp</text>
</a>
</g>
</g>
<!-- Node2&#45;&gt;Node5 -->
<g id="edge4" class="edge">
<title>Node2&#45;&gt;Node5</title>
<path fill="none" stroke="midnightblue" d="M378.5,-123.48C338.32,-114.89 274.25,-101.18 209.46,-87.23"/>
<polygon fill="midnightblue" stroke="midnightblue" points="209.99,-83.77 199.48,-85.08 208.51,-90.61 209.99,-83.77"/>
</g>
<!-- Node6 -->
<g id="node6" class="node">
<title>Node6</title>
<g id="a_node6"><a xlink:href="../../d3/deb/_general___error_8hpp.html" target="_top" xlink:title=" ">
<polygon fill="none" stroke="black" points="217.87,-56.5 217.87,-86.5 362.87,-86.5 362.87,-56.5 217.87,-56.5"/>
<text text-anchor="start" x="225.87" y="-74.5" font-family="Helvetica,sans-Serif" font-size="10.00">../../../Objects/ErrorHandler</text>
<text text-anchor="middle" x="290.37" y="-63.5" font-family="Helvetica,sans-Serif" font-size="10.00">/include/General_Error.hpp</text>
</a>
</g>
</g>
<!-- Node2&#45;&gt;Node6 -->
<g id="edge5" class="edge">
<title>Node2&#45;&gt;Node6</title>
<path fill="none" stroke="midnightblue" d="M400.03,-123.48C381.81,-115 353.27,-101.74 329.88,-90.86"/>
<polygon fill="midnightblue" stroke="midnightblue" points="331.08,-87.56 320.54,-86.52 328.13,-93.91 331.08,-87.56"/>
</g>
<!-- Node7 -->
<g id="node7" class="node">
<title>Node7</title>
<g id="a_node7"><a xlink:title=" ">
<polygon fill="none" stroke="#bfbfbf" points="310.37,-0.5 310.37,-19.5 370.37,-19.5 370.37,-0.5 310.37,-0.5"/>
<text text-anchor="middle" x="340.37" y="-7.5" font-family="Helvetica,sans-Serif" font-size="10.00">iostream</text>
</a>
</g>
</g>
<!-- Node2&#45;&gt;Node7 -->
<g id="edge11" class="edge">
<title>Node2&#45;&gt;Node7</title>
<path fill="none" stroke="midnightblue" d="M413.29,-123.48C404.81,-109.33 387.15,-80.16 371.37,-56 365.2,-46.55 358.07,-36.17 352.21,-27.75"/>
<polygon fill="midnightblue" stroke="midnightblue" points="355.05,-25.72 346.44,-19.54 349.32,-29.74 355.05,-25.72"/>
</g>
<!-- Node8 -->
<g id="node8" class="node">
<title>Node8</title>
<g id="a_node8"><a xlink:title=" ">
<polygon fill="none" stroke="#bfbfbf" points="419.87,-62 419.87,-81 472.87,-81 472.87,-62 419.87,-62"/>
<text text-anchor="middle" x="446.37" y="-69" font-family="Helvetica,sans-Serif" font-size="10.00">stdint.h</text>
</a>
</g>
</g>
<!-- Node2&#45;&gt;Node8 -->
<g id="edge8" class="edge">
<title>Node2&#45;&gt;Node8</title>
<path fill="none" stroke="midnightblue" d="M422.38,-123.48C426.46,-114.82 432.89,-101.15 438.07,-90.15"/>
<polygon fill="midnightblue" stroke="midnightblue" points="441.28,-91.55 442.37,-81.01 434.94,-88.57 441.28,-91.55"/>
</g>
<!-- Node9 -->
<g id="node9" class="node">
<title>Node9</title>
<g id="a_node9"><a xlink:title=" ">
<polygon fill="none" stroke="#bfbfbf" points="491.37,-62 491.37,-81 541.37,-81 541.37,-62 491.37,-62"/>
<text text-anchor="middle" x="516.37" y="-69" font-family="Helvetica,sans-Serif" font-size="10.00">stdio.h</text>
</a>
</g>
</g>
<!-- Node2&#45;&gt;Node9 -->
<g id="edge9" class="edge">
<title>Node2&#45;&gt;Node9</title>
<path fill="none" stroke="midnightblue" d="M432.41,-123.48C448.42,-113.75 474.82,-97.73 493.75,-86.24"/>
<polygon fill="midnightblue" stroke="midnightblue" points="495.63,-89.19 502.36,-81.01 491.99,-83.21 495.63,-89.19"/>
</g>
<!-- Node10 -->
<g id="node10" class="node">
<title>Node10</title>
<g id="a_node10"><a xlink:title=" ">
<polygon fill="none" stroke="#bfbfbf" points="559.87,-62 559.87,-81 612.87,-81 612.87,-62 559.87,-62"/>
<text text-anchor="middle" x="586.37" y="-69" font-family="Helvetica,sans-Serif" font-size="10.00">stdlib.h</text>
</a>
</g>
</g>
<!-- Node2&#45;&gt;Node10 -->
<g id="edge10" class="edge">
<title>Node2&#45;&gt;Node10</title>
<path fill="none" stroke="midnightblue" d="M444.82,-123.45C471.57,-114.7 514.06,-100.49 550.37,-87 552.22,-86.31 554.11,-85.59 556.02,-84.86"/>
<polygon fill="midnightblue" stroke="midnightblue" points="557.48,-88.05 565.51,-81.13 554.92,-81.53 557.48,-88.05"/>
</g>
<!-- Node2&#45;&gt;Node11 -->
<g id="edge12" class="edge">
<title>Node2&#45;&gt;Node11</title>
<path fill="none" stroke="midnightblue" d="M465.5,-123.77C507.19,-115.98 569.46,-103.1 622.37,-87 624.8,-86.26 627.29,-85.44 629.78,-84.57"/>
<polygon fill="midnightblue" stroke="midnightblue" points="631.06,-87.82 639.22,-81.06 628.62,-81.26 631.06,-87.82"/>
</g>
<!-- Node6&#45;&gt;Node3 -->
<g id="edge6" class="edge">
<title>Node6&#45;&gt;Node3</title>
<path fill="none" stroke="midnightblue" d="M258.38,-56.4C235.93,-46.51 206.16,-33.38 184.4,-23.79"/>
<polygon fill="midnightblue" stroke="midnightblue" points="185.58,-20.49 175.02,-19.66 182.76,-26.89 185.58,-20.49"/>
</g>
<!-- Node6&#45;&gt;Node7 -->
<g id="edge7" class="edge">
<title>Node6&#45;&gt;Node7</title>
<path fill="none" stroke="midnightblue" d="M302.22,-56.4C309.49,-47.75 318.82,-36.64 326.44,-27.58"/>
<polygon fill="midnightblue" stroke="midnightblue" points="329.34,-29.57 333.1,-19.66 323.98,-25.06 329.34,-29.57"/>
</g>
</g>
</svg>
        <g id="navigator" transform="translate(0 0)" fill="#404254">
                <rect fill="#f2f5e9" fill-opacity="0.5" stroke="#606060" stroke-width=".5" x="0" y="0" width="60" height="60"/>
                <use id="zoomplus" xlink:href="#zoomPlus" x="17" y="9" onmousedown="handleZoom(evt,'in')"/>
                <use id="zoomminus" xlink:href="#zoomMin" x="42" y="9" onmousedown="handleZoom(evt,'out')"/>
                <use id="reset" xlink:href="#resetDef" x="30" y="36" onmousedown="handleReset()"/>
                <g id="arrowUp" xlink:href="#dirArrow" transform="translate(30 24)" onmousedown="handlePan(0,-1)">
                  <use xlink:href="#rim" fill="#404040">
                        <set attributeName="fill" to="#808080" begin="arrowUp.mouseover" end="arrowUp.mouseout"/>
                  </use>
                  <path fill="none" stroke="white" stroke-width="1.5" d="M0,-3.0v7 M-2.5,-0.5L0,-3.0L2.5,-0.5"/>
                </g>
                <g id="arrowRight" xlink:href="#dirArrow" transform="rotate(90) translate(36 -43)" onmousedown="handlePan(1,0)">
                  <use xlink:href="#rim" fill="#404040">
                        <set attributeName="fill" to="#808080" begin="arrowRight.mouseover" end="arrowRight.mouseout"/>
                  </use>
                  <path fill="none" stroke="white" stroke-width="1.5" d="M0,-3.0v7 M-2.5,-0.5L0,-3.0L2.5,-0.5"/>
                </g>
                <g id="arrowDown" xlink:href="#dirArrow" transform="rotate(180) translate(-30 -48)" onmousedown="handlePan(0,1)">
                  <use xlink:href="#rim" fill="#404040">
                        <set attributeName="fill" to="#808080" begin="arrowDown.mouseover" end="arrowDown.mouseout"/>
                  </use>
                  <path fill="none" stroke="white" stroke-width="1.5" d="M0,-3.0v7 M-2.5,-0.5L0,-3.0L2.5,-0.5"/>
                </g>
                <g id="arrowLeft" xlink:href="#dirArrow" transform="rotate(270) translate(-36 17)" onmousedown="handlePan(-1,0)">
                  <use xlink:href="#rim" fill="#404040">
                        <set attributeName="fill" to="#808080" begin="arrowLeft.mouseover" end="arrowLeft.mouseout"/>
                  </use>
                  <path fill="none" stroke="white" stroke-width="1.5" d="M0,-3.0v7 M-2.5,-0.5L0,-3.0L2.5,-0.5"/>
                </g>
        </g>
        <svg viewBox="0 0 15 15" width="100%" height="30px" preserveAspectRatio="xMaxYMin meet">
         <g id="arrow_out" transform="scale(0.3 0.3)">
          <a xlink:href="utils_8cpp__incl_org.svg" target="_base">
           <rect id="button" ry="5" rx="5" y="6" x="6" height="38" width="38"
                fill="#f2f5e9" fill-opacity="0.5" stroke="#606060" stroke-width="1.0"/>
           <path id="arrow"
             d="M 11.500037,31.436501 C 11.940474,20.09759 22.043105,11.32322 32.158766,21.979434 L 37.068811,17.246167 C 37.068811,17.246167 37.088388,32 37.088388,32 L 22.160133,31.978069 C 22.160133,31.978069 26.997745,27.140456 26.997745,27.140456 C 18.528582,18.264221 13.291696,25.230495 11.500037,31.436501 z"
             style="fill:#404040;"/>
          </a>
         </g>
        </svg>
</svg>
