<?xml version="1.0" encoding="UTF-8" standalone="no"?>
<!DOCTYPE svg PUBLIC "-//W3C//DTD SVG 1.1//EN"
 "http://www.w3.org/Graphics/SVG/1.1/DTD/svg11.dtd">
<!-- Generated by graphviz version 2.43.0 (0)
 -->
<!-- Title: Components/Sensor/ds18b20/include/ds18b20.hpp Pages: 1 -->
<svg width="708pt" height="173pt"
 viewBox="0.00 0.00 707.50 173.00" xmlns="http://www.w3.org/2000/svg" xmlns:xlink="http://www.w3.org/1999/xlink">
<g id="graph0" class="graph" transform="scale(1 1) rotate(0) translate(4 169)">
<title>Components/Sensor/ds18b20/include/ds18b20.hpp</title>
<!-- Node1 -->
<g id="node1" class="node">
<title>Node1</title>
<g id="a_node1"><a xlink:title=" ">
<polygon fill="#bfbfbf" stroke="black" points="281,-134.5 281,-164.5 439,-164.5 439,-134.5 281,-134.5"/>
<text text-anchor="start" x="289" y="-152.5" font-family="Helvetica,sans-Serif" font-size="10.00">Components/Sensor/ds18b20</text>
<text text-anchor="middle" x="360" y="-141.5" font-family="Helvetica,sans-Serif" font-size="10.00">/include/ds18b20.hpp</text>
</a>
</g>
</g>
<!-- Node2 -->
<g id="node2" class="node">
<title>Node2</title>
<g id="a_node2"><a xlink:href="../../da/d5f/_b_a_s_i_c_8hpp.html" target="_top" xlink:title=" ">
<polygon fill="none" stroke="black" points="0,-67.5 0,-97.5 116,-97.5 116,-67.5 0,-67.5"/>
<text text-anchor="start" x="8" y="-85.5" font-family="Helvetica,sans-Serif" font-size="10.00">../../../Global_Include</text>
<text text-anchor="middle" x="58" y="-74.5" font-family="Helvetica,sans-Serif" font-size="10.00">/BASIC.hpp</text>
</a>
</g>
</g>
<!-- Node1&#45;&gt;Node2 -->
<g id="edge1" class="edge">
<title>Node1&#45;&gt;Node2</title>
<path fill="none" stroke="midnightblue" d="M294.66,-134.48C249.9,-124.88 188.89,-111.77 126.18,-98.25"/>
<polygon fill="midnightblue" stroke="midnightblue" points="126.62,-94.77 116.1,-96.08 125.14,-101.61 126.62,-94.77"/>
</g>
<!-- Node3 -->
<g id="node3" class="node">
<title>Node3</title>
<g id="a_node3"><a xlink:href="../../d3/deb/_general___error_8hpp.html" target="_top" xlink:title=" ">
<polygon fill="none" stroke="black" points="134.5,-67.5 134.5,-97.5 279.5,-97.5 279.5,-67.5 134.5,-67.5"/>
<text text-anchor="start" x="142.5" y="-85.5" font-family="Helvetica,sans-Serif" font-size="10.00">../../../Objects/ErrorHandler</text>
<text text-anchor="middle" x="207" y="-74.5" font-family="Helvetica,sans-Serif" font-size="10.00">/include/General_Error.hpp</text>
</a>
</g>
</g>
<!-- Node1&#45;&gt;Node3 -->
<g id="edge2" class="edge">
<title>Node1&#45;&gt;Node3</title>
<path fill="none" stroke="midnightblue" d="M326.8,-134.4C304.15,-124.77 273.93,-111.94 249.52,-101.56"/>
<polygon fill="midnightblue" stroke="midnightblue" points="250.71,-98.27 240.13,-97.58 247.97,-104.71 250.71,-98.27"/>
</g>
<!-- Node5 -->
<g id="node5" class="node">
<title>Node5</title>
<g id="a_node5"><a xlink:title=" ">
<polygon fill="none" stroke="#bfbfbf" points="270,-6 270,-25 330,-25 330,-6 270,-6"/>
<text text-anchor="middle" x="300" y="-13" font-family="Helvetica,sans-Serif" font-size="10.00">iostream</text>
</a>
</g>
</g>
<!-- Node1&#45;&gt;Node5 -->
<g id="edge9" class="edge">
<title>Node1&#45;&gt;Node5</title>
<path fill="none" stroke="midnightblue" d="M349.12,-134.07C342.11,-124.28 333.19,-110.83 327,-98 317.01,-77.29 309.26,-51.96 304.67,-35.09"/>
<polygon fill="midnightblue" stroke="midnightblue" points="308.05,-34.14 302.13,-25.35 301.27,-35.91 308.05,-34.14"/>
</g>
<!-- Node6 -->
<g id="node6" class="node">
<title>Node6</title>
<g id="a_node6"><a xlink:href="../../dc/d6e/ds18b20_8h.html" target="_top" xlink:title="Interface definitions for the Maxim Integrated DS18B20 Programmable Resolution 1&#45;Wire Digital Thermom...">
<polygon fill="none" stroke="black" points="336,-67.5 336,-97.5 488,-97.5 488,-67.5 336,-67.5"/>
<text text-anchor="start" x="344" y="-85.5" font-family="Helvetica,sans-Serif" font-size="10.00">../../../ThirdpartAPI</text>
<text text-anchor="middle" x="412" y="-74.5" font-family="Helvetica,sans-Serif" font-size="10.00">/ds18b20/include/ds18b20.h</text>
</a>
</g>
</g>
<!-- Node1&#45;&gt;Node6 -->
<g id="edge5" class="edge">
<title>Node1&#45;&gt;Node6</title>
<path fill="none" stroke="midnightblue" d="M371.28,-134.4C378.03,-125.96 386.75,-115.07 394.38,-105.52"/>
<polygon fill="midnightblue" stroke="midnightblue" points="397.22,-107.57 400.74,-97.58 391.76,-103.2 397.22,-107.57"/>
</g>
<!-- Node7 -->
<g id="node7" class="node">
<title>Node7</title>
<g id="a_node7"><a xlink:href="../../de/d05/owb_8h.html" target="_top" xlink:title="Interface definitions for the 1&#45;Wire bus component.">
<polygon fill="none" stroke="black" points="362.5,-0.5 362.5,-30.5 477.5,-30.5 477.5,-0.5 362.5,-0.5"/>
<text text-anchor="start" x="370.5" y="-18.5" font-family="Helvetica,sans-Serif" font-size="10.00">../../OneWire/include</text>
<text text-anchor="middle" x="420" y="-7.5" font-family="Helvetica,sans-Serif" font-size="10.00">/owb.h</text>
</a>
</g>
</g>
<!-- Node1&#45;&gt;Node7 -->
<g id="edge7" class="edge">
<title>Node1&#45;&gt;Node7</title>
<path fill="none" stroke="midnightblue" d="M439.14,-136.79C461.52,-129.42 483.45,-117.44 497,-98 504.88,-86.7 503.55,-79.12 497,-67 489.84,-53.74 477.52,-43.4 464.8,-35.63"/>
<polygon fill="midnightblue" stroke="midnightblue" points="466.42,-32.52 455.99,-30.65 462.98,-38.62 466.42,-32.52"/>
</g>
<!-- Node8 -->
<g id="node8" class="node">
<title>Node8</title>
<g id="a_node8"><a xlink:href="../../d5/d17/owb__rmt_8h.html" target="_top" xlink:title="Interface definitions for ESP32 RMT driver used to communicate with devices on the One Wire Bus.">
<polygon fill="none" stroke="black" points="544.5,-67.5 544.5,-97.5 699.5,-97.5 699.5,-67.5 544.5,-67.5"/>
<text text-anchor="start" x="552.5" y="-85.5" font-family="Helvetica,sans-Serif" font-size="10.00">../../../ThirdpartAPI</text>
<text text-anchor="middle" x="622" y="-74.5" font-family="Helvetica,sans-Serif" font-size="10.00">/OneWire/include/owb_rmt.h</text>
</a>
</g>
</g>
<!-- Node1&#45;&gt;Node8 -->
<g id="edge8" class="edge">
<title>Node1&#45;&gt;Node8</title>
<path fill="none" stroke="midnightblue" d="M416.53,-134.48C457.28,-124.37 512.43,-110.68 555.33,-100.04"/>
<polygon fill="midnightblue" stroke="midnightblue" points="556.26,-103.42 565.12,-97.61 554.57,-96.62 556.26,-103.42"/>
</g>
<!-- Node4 -->
<g id="node4" class="node">
<title>Node4</title>
<g id="a_node4"><a xlink:title=" ">
<polygon fill="none" stroke="#bfbfbf" points="185,-6 185,-25 229,-25 229,-6 185,-6"/>
<text text-anchor="middle" x="207" y="-13" font-family="Helvetica,sans-Serif" font-size="10.00">string</text>
</a>
</g>
</g>
<!-- Node3&#45;&gt;Node4 -->
<g id="edge3" class="edge">
<title>Node3&#45;&gt;Node4</title>
<path fill="none" stroke="midnightblue" d="M207,-67.4C207,-58.06 207,-45.71 207,-35.52"/>
<polygon fill="midnightblue" stroke="midnightblue" points="210.5,-35.19 207,-25.19 203.5,-35.19 210.5,-35.19"/>
</g>
<!-- Node3&#45;&gt;Node5 -->
<g id="edge4" class="edge">
<title>Node3&#45;&gt;Node5</title>
<path fill="none" stroke="midnightblue" d="M227.18,-67.4C242.63,-56.6 263.86,-41.76 279.42,-30.89"/>
<polygon fill="midnightblue" stroke="midnightblue" points="281.64,-33.6 287.83,-25.01 277.63,-27.87 281.64,-33.6"/>
</g>
<!-- Node6&#45;&gt;Node7 -->
<g id="edge6" class="edge">
<title>Node6&#45;&gt;Node7</title>
<path fill="none" stroke="midnightblue" d="M413.74,-67.4C414.7,-59.56 415.93,-49.6 417.04,-40.57"/>
<polygon fill="midnightblue" stroke="midnightblue" points="420.52,-40.93 418.27,-30.58 413.57,-40.07 420.52,-40.93"/>
</g>
</g>
</svg>
