<?xml version="1.0" encoding="UTF-8" standalone="no"?>
<!DOCTYPE svg PUBLIC "-//W3C//DTD SVG 1.1//EN"
 "http://www.w3.org/Graphics/SVG/1.1/DTD/svg11.dtd">
<!-- Generated by graphviz version 2.43.0 (0)
 -->
<!-- Title: Components/Interfaces/ServiceBase/include/ServiceBase.hpp Pages: 1 -->
<svg width="490pt" height="206pt"
 viewBox="0.00 0.00 489.50 206.00" xmlns="http://www.w3.org/2000/svg" xmlns:xlink="http://www.w3.org/1999/xlink">
<g id="graph0" class="graph" transform="scale(1 1) rotate(0) translate(4 202)">
<title>Components/Interfaces/ServiceBase/include/ServiceBase.hpp</title>
<!-- Node1 -->
<g id="node1" class="node">
<title>Node1</title>
<g id="a_node1"><a xlink:title=" ">
<polygon fill="#bfbfbf" stroke="black" points="181.5,-156.5 181.5,-197.5 311.5,-197.5 311.5,-156.5 181.5,-156.5"/>
<text text-anchor="start" x="189.5" y="-185.5" font-family="Helvetica,sans-Serif" font-size="10.00">Components/Interfaces</text>
<text text-anchor="start" x="189.5" y="-174.5" font-family="Helvetica,sans-Serif" font-size="10.00">/ServiceBase/include</text>
<text text-anchor="middle" x="246.5" y="-163.5" font-family="Helvetica,sans-Serif" font-size="10.00">/ServiceBase.hpp</text>
</a>
</g>
</g>
<!-- Node2 -->
<g id="node2" class="node">
<title>Node2</title>
<g id="a_node2"><a xlink:href="../../dc/d1d/_service__test_8cpp.html" target="_top" xlink:title=" ">
<polygon fill="none" stroke="black" points="39.5,-78.5 39.5,-119.5 169.5,-119.5 169.5,-78.5 39.5,-78.5"/>
<text text-anchor="start" x="47.5" y="-107.5" font-family="Helvetica,sans-Serif" font-size="10.00">Components/Interfaces</text>
<text text-anchor="start" x="47.5" y="-96.5" font-family="Helvetica,sans-Serif" font-size="10.00">/ServiceBase/test/test</text>
<text text-anchor="middle" x="104.5" y="-85.5" font-family="Helvetica,sans-Serif" font-size="10.00">/Service_test.cpp</text>
</a>
</g>
</g>
<!-- Node1&#45;&gt;Node2 -->
<g id="edge1" class="edge">
<title>Node1&#45;&gt;Node2</title>
<path fill="none" stroke="midnightblue" d="M200.96,-151.63C181.56,-141.24 159.23,-129.29 140.94,-119.51"/>
<polygon fill="midnightblue" stroke="midnightblue" points="199.46,-154.8 209.93,-156.43 202.77,-148.62 199.46,-154.8"/>
</g>
<!-- Node3 -->
<g id="node3" class="node">
<title>Node3</title>
<g id="a_node3"><a xlink:href="../../d0/dc1/_data_broker_8hpp.html" target="_top" xlink:title=" ">
<polygon fill="none" stroke="black" points="187.5,-78.5 187.5,-119.5 305.5,-119.5 305.5,-78.5 187.5,-78.5"/>
<text text-anchor="start" x="195.5" y="-107.5" font-family="Helvetica,sans-Serif" font-size="10.00">Components/Objects</text>
<text text-anchor="start" x="195.5" y="-96.5" font-family="Helvetica,sans-Serif" font-size="10.00">/DataBroker/include</text>
<text text-anchor="middle" x="246.5" y="-85.5" font-family="Helvetica,sans-Serif" font-size="10.00">/DataBroker.hpp</text>
</a>
</g>
</g>
<!-- Node1&#45;&gt;Node3 -->
<g id="edge2" class="edge">
<title>Node1&#45;&gt;Node3</title>
<path fill="none" stroke="midnightblue" d="M246.5,-146.3C246.5,-137.3 246.5,-127.65 246.5,-119.51"/>
<polygon fill="midnightblue" stroke="midnightblue" points="243,-146.43 246.5,-156.43 250,-146.43 243,-146.43"/>
</g>
<!-- Node6 -->
<g id="node6" class="node">
<title>Node6</title>
<g id="a_node6"><a xlink:href="../../dd/d22/_water_estimator___service_8hpp.html" target="_top" xlink:title=" ">
<polygon fill="none" stroke="black" points="323.5,-78.5 323.5,-119.5 481.5,-119.5 481.5,-78.5 323.5,-78.5"/>
<text text-anchor="start" x="331.5" y="-107.5" font-family="Helvetica,sans-Serif" font-size="10.00">Components/Service</text>
<text text-anchor="start" x="331.5" y="-96.5" font-family="Helvetica,sans-Serif" font-size="10.00">/WaterEstimator/include</text>
<text text-anchor="middle" x="402.5" y="-85.5" font-family="Helvetica,sans-Serif" font-size="10.00">/WaterEstimator_Service.hpp</text>
</a>
</g>
</g>
<!-- Node1&#45;&gt;Node6 -->
<g id="edge5" class="edge">
<title>Node1&#45;&gt;Node6</title>
<path fill="none" stroke="midnightblue" d="M295.95,-151.91C317.4,-141.46 342.19,-129.38 362.46,-119.51"/>
<polygon fill="midnightblue" stroke="midnightblue" points="294.13,-148.9 286.67,-156.43 297.2,-155.19 294.13,-148.9"/>
</g>
<!-- Node4 -->
<g id="node4" class="node">
<title>Node4</title>
<g id="a_node4"><a xlink:href="../../d4/ddc/_data_broker_8cpp.html" target="_top" xlink:title=" ">
<polygon fill="none" stroke="black" points="0,-6 0,-36 169,-36 169,-6 0,-6"/>
<text text-anchor="start" x="8" y="-24" font-family="Helvetica,sans-Serif" font-size="10.00">Components/Objects</text>
<text text-anchor="middle" x="84.5" y="-13" font-family="Helvetica,sans-Serif" font-size="10.00">/DataBroker/src/DataBroker.cpp</text>
</a>
</g>
</g>
<!-- Node3&#45;&gt;Node4 -->
<g id="edge3" class="edge">
<title>Node3&#45;&gt;Node4</title>
<path fill="none" stroke="midnightblue" d="M195.6,-74.12C168.96,-61.63 137.27,-46.76 114.57,-36.11"/>
<polygon fill="midnightblue" stroke="midnightblue" points="194.24,-77.35 204.78,-78.43 197.21,-71.01 194.24,-77.35"/>
</g>
<!-- Node5 -->
<g id="node5" class="node">
<title>Node5</title>
<g id="a_node5"><a xlink:href="../../da/d75/_data_broker__test_8cpp.html" target="_top" xlink:title=" ">
<polygon fill="none" stroke="black" points="187,-0.5 187,-41.5 306,-41.5 306,-0.5 187,-0.5"/>
<text text-anchor="start" x="195" y="-29.5" font-family="Helvetica,sans-Serif" font-size="10.00">Components/Objects</text>
<text text-anchor="start" x="195" y="-18.5" font-family="Helvetica,sans-Serif" font-size="10.00">/DataBroker/test/test</text>
<text text-anchor="middle" x="246.5" y="-7.5" font-family="Helvetica,sans-Serif" font-size="10.00">/DataBroker_test.cpp</text>
</a>
</g>
</g>
<!-- Node3&#45;&gt;Node5 -->
<g id="edge4" class="edge">
<title>Node3&#45;&gt;Node5</title>
<path fill="none" stroke="midnightblue" d="M246.5,-68.3C246.5,-59.3 246.5,-49.65 246.5,-41.51"/>
<polygon fill="midnightblue" stroke="midnightblue" points="243,-68.43 246.5,-78.43 250,-68.43 243,-68.43"/>
</g>
<!-- Node7 -->
<g id="node7" class="node">
<title>Node7</title>
<g id="a_node7"><a xlink:href="../../dd/dd3/_water_estimator___service_8cpp.html" target="_top" xlink:title=" ">
<polygon fill="none" stroke="black" points="324,-0.5 324,-41.5 481,-41.5 481,-0.5 324,-0.5"/>
<text text-anchor="start" x="332" y="-29.5" font-family="Helvetica,sans-Serif" font-size="10.00">Components/Service</text>
<text text-anchor="start" x="332" y="-18.5" font-family="Helvetica,sans-Serif" font-size="10.00">/WaterEstimator/src</text>
<text text-anchor="middle" x="402.5" y="-7.5" font-family="Helvetica,sans-Serif" font-size="10.00">/WaterEstimator_Service.cpp</text>
</a>
</g>
</g>
<!-- Node6&#45;&gt;Node7 -->
<g id="edge6" class="edge">
<title>Node6&#45;&gt;Node7</title>
<path fill="none" stroke="midnightblue" d="M402.5,-68.3C402.5,-59.3 402.5,-49.65 402.5,-41.51"/>
<polygon fill="midnightblue" stroke="midnightblue" points="399,-68.43 402.5,-78.43 406,-68.43 399,-68.43"/>
</g>
</g>
</svg>
