<?xml version="1.0" encoding="UTF-8" standalone="no"?>
<!DOCTYPE svg PUBLIC "-//W3C//DTD SVG 1.1//EN"
 "http://www.w3.org/Graphics/SVG/1.1/DTD/svg11.dtd">
<!-- Generated by graphviz version 2.43.0 (0)
 -->
<!-- Title: Components/Interfaces/ServiceBase/include/ServiceBase.hpp Pages: 1 -->
<svg width="1162pt" height="284pt"
 viewBox="0.00 0.00 1161.50 284.00" xmlns="http://www.w3.org/2000/svg" xmlns:xlink="http://www.w3.org/1999/xlink">
<g id="graph0" class="graph" transform="scale(1 1) rotate(0) translate(4 280)">
<title>Components/Interfaces/ServiceBase/include/ServiceBase.hpp</title>
<!-- Node1 -->
<g id="node1" class="node">
<title>Node1</title>
<g id="a_node1"><a xlink:title=" ">
<polygon fill="#bfbfbf" stroke="black" points="660.5,-234.5 660.5,-275.5 790.5,-275.5 790.5,-234.5 660.5,-234.5"/>
<text text-anchor="start" x="668.5" y="-263.5" font-family="Helvetica,sans-Serif" font-size="10.00">Components/Interfaces</text>
<text text-anchor="start" x="668.5" y="-252.5" font-family="Helvetica,sans-Serif" font-size="10.00">/ServiceBase/include</text>
<text text-anchor="middle" x="725.5" y="-241.5" font-family="Helvetica,sans-Serif" font-size="10.00">/ServiceBase.hpp</text>
</a>
</g>
</g>
<!-- Node2 -->
<g id="node2" class="node">
<title>Node2</title>
<g id="a_node2"><a xlink:href="../../d2/dd8/_service_queue_base_8hpp.html" target="_top" xlink:title=" ">
<polygon fill="none" stroke="black" points="578.5,-156.5 578.5,-197.5 710.5,-197.5 710.5,-156.5 578.5,-156.5"/>
<text text-anchor="start" x="586.5" y="-185.5" font-family="Helvetica,sans-Serif" font-size="10.00">Components/Interfaces</text>
<text text-anchor="start" x="586.5" y="-174.5" font-family="Helvetica,sans-Serif" font-size="10.00">/ServiceBase/include</text>
<text text-anchor="middle" x="644.5" y="-163.5" font-family="Helvetica,sans-Serif" font-size="10.00">/ServiceQueueBase.hpp</text>
</a>
</g>
</g>
<!-- Node1&#45;&gt;Node2 -->
<g id="edge1" class="edge">
<title>Node1&#45;&gt;Node2</title>
<path fill="none" stroke="midnightblue" d="M697.25,-227.49C686.74,-217.63 675.01,-206.63 665.29,-197.51"/>
<polygon fill="midnightblue" stroke="midnightblue" points="694.95,-230.14 704.64,-234.43 699.74,-225.03 694.95,-230.14"/>
</g>
<!-- Node12 -->
<g id="node12" class="node">
<title>Node12</title>
<g id="a_node12"><a xlink:href="../../d8/deb/_service_time_base_8hpp.html" target="_top" xlink:title=" ">
<polygon fill="none" stroke="black" points="741.5,-156.5 741.5,-197.5 871.5,-197.5 871.5,-156.5 741.5,-156.5"/>
<text text-anchor="start" x="749.5" y="-185.5" font-family="Helvetica,sans-Serif" font-size="10.00">Components/Interfaces</text>
<text text-anchor="start" x="749.5" y="-174.5" font-family="Helvetica,sans-Serif" font-size="10.00">/ServiceBase/include</text>
<text text-anchor="middle" x="806.5" y="-163.5" font-family="Helvetica,sans-Serif" font-size="10.00">/ServiceTimeBase.hpp</text>
</a>
</g>
</g>
<!-- Node1&#45;&gt;Node12 -->
<g id="edge11" class="edge">
<title>Node1&#45;&gt;Node12</title>
<path fill="none" stroke="midnightblue" d="M753.75,-227.49C764.26,-217.63 775.99,-206.63 785.71,-197.51"/>
<polygon fill="midnightblue" stroke="midnightblue" points="751.26,-225.03 746.36,-234.43 756.05,-230.14 751.26,-225.03"/>
</g>
<!-- Node3 -->
<g id="node3" class="node">
<title>Node3</title>
<g id="a_node3"><a xlink:href="../../dc/d1d/_service__test_8cpp.html" target="_top" xlink:title=" ">
<polygon fill="none" stroke="black" points="741.5,-78.5 741.5,-119.5 871.5,-119.5 871.5,-78.5 741.5,-78.5"/>
<text text-anchor="start" x="749.5" y="-107.5" font-family="Helvetica,sans-Serif" font-size="10.00">Components/Interfaces</text>
<text text-anchor="start" x="749.5" y="-96.5" font-family="Helvetica,sans-Serif" font-size="10.00">/ServiceBase/test/test</text>
<text text-anchor="middle" x="806.5" y="-85.5" font-family="Helvetica,sans-Serif" font-size="10.00">/Service_test.cpp</text>
</a>
</g>
</g>
<!-- Node2&#45;&gt;Node3 -->
<g id="edge2" class="edge">
<title>Node2&#45;&gt;Node3</title>
<path fill="none" stroke="midnightblue" d="M695.55,-152.05C717.9,-141.57 743.78,-129.42 764.92,-119.51"/>
<polygon fill="midnightblue" stroke="midnightblue" points="693.79,-149.01 686.22,-156.43 696.76,-155.35 693.79,-149.01"/>
</g>
<!-- Node4 -->
<g id="node4" class="node">
<title>Node4</title>
<g id="a_node4"><a xlink:href="../../d0/dc1/_data_broker_8hpp.html" target="_top" xlink:title=" ">
<polygon fill="none" stroke="black" points="187.5,-78.5 187.5,-119.5 305.5,-119.5 305.5,-78.5 187.5,-78.5"/>
<text text-anchor="start" x="195.5" y="-107.5" font-family="Helvetica,sans-Serif" font-size="10.00">Components/Objects</text>
<text text-anchor="start" x="195.5" y="-96.5" font-family="Helvetica,sans-Serif" font-size="10.00">/DataBroker/include</text>
<text text-anchor="middle" x="246.5" y="-85.5" font-family="Helvetica,sans-Serif" font-size="10.00">/DataBroker.hpp</text>
</a>
</g>
</g>
<!-- Node2&#45;&gt;Node4 -->
<g id="edge3" class="edge">
<title>Node2&#45;&gt;Node4</title>
<path fill="none" stroke="midnightblue" d="M568.27,-161.44C491.76,-146.83 375.5,-124.63 305.67,-111.3"/>
<polygon fill="midnightblue" stroke="midnightblue" points="567.85,-164.93 578.33,-163.36 569.17,-158.05 567.85,-164.93"/>
</g>
<!-- Node7 -->
<g id="node7" class="node">
<title>Node7</title>
<g id="a_node7"><a xlink:href="../../d2/d1e/_online_detector__service_8hpp.html" target="_top" xlink:title=" ">
<polygon fill="none" stroke="black" points="392,-78.5 392,-119.5 547,-119.5 547,-78.5 392,-78.5"/>
<text text-anchor="start" x="400" y="-107.5" font-family="Helvetica,sans-Serif" font-size="10.00">Components/Service</text>
<text text-anchor="start" x="400" y="-96.5" font-family="Helvetica,sans-Serif" font-size="10.00">/OnlineDetector/include</text>
<text text-anchor="middle" x="469.5" y="-85.5" font-family="Helvetica,sans-Serif" font-size="10.00">/OnlineDetector_service.hpp</text>
</a>
</g>
</g>
<!-- Node2&#45;&gt;Node7 -->
<g id="edge6" class="edge">
<title>Node2&#45;&gt;Node7</title>
<path fill="none" stroke="midnightblue" d="M589.99,-152.33C565.71,-141.78 537.46,-129.51 514.41,-119.51"/>
<polygon fill="midnightblue" stroke="midnightblue" points="588.87,-155.65 599.43,-156.43 591.65,-149.23 588.87,-155.65"/>
</g>
<!-- Node10 -->
<g id="node10" class="node">
<title>Node10</title>
<g id="a_node10"><a xlink:href="../../dd/d22/_water_estimator___service_8hpp.html" target="_top" xlink:title=" ">
<polygon fill="none" stroke="black" points="565.5,-78.5 565.5,-119.5 723.5,-119.5 723.5,-78.5 565.5,-78.5"/>
<text text-anchor="start" x="573.5" y="-107.5" font-family="Helvetica,sans-Serif" font-size="10.00">Components/Service</text>
<text text-anchor="start" x="573.5" y="-96.5" font-family="Helvetica,sans-Serif" font-size="10.00">/WaterEstimator/include</text>
<text text-anchor="middle" x="644.5" y="-85.5" font-family="Helvetica,sans-Serif" font-size="10.00">/WaterEstimator_Service.hpp</text>
</a>
</g>
</g>
<!-- Node2&#45;&gt;Node10 -->
<g id="edge9" class="edge">
<title>Node2&#45;&gt;Node10</title>
<path fill="none" stroke="midnightblue" d="M644.5,-146.3C644.5,-137.3 644.5,-127.65 644.5,-119.51"/>
<polygon fill="midnightblue" stroke="midnightblue" points="641,-146.43 644.5,-156.43 648,-146.43 641,-146.43"/>
</g>
<!-- Node5 -->
<g id="node5" class="node">
<title>Node5</title>
<g id="a_node5"><a xlink:href="../../d4/ddc/_data_broker_8cpp.html" target="_top" xlink:title=" ">
<polygon fill="none" stroke="black" points="0,-6 0,-36 169,-36 169,-6 0,-6"/>
<text text-anchor="start" x="8" y="-24" font-family="Helvetica,sans-Serif" font-size="10.00">Components/Objects</text>
<text text-anchor="middle" x="84.5" y="-13" font-family="Helvetica,sans-Serif" font-size="10.00">/DataBroker/src/DataBroker.cpp</text>
</a>
</g>
</g>
<!-- Node4&#45;&gt;Node5 -->
<g id="edge4" class="edge">
<title>Node4&#45;&gt;Node5</title>
<path fill="none" stroke="midnightblue" d="M195.6,-74.12C168.96,-61.63 137.27,-46.76 114.57,-36.11"/>
<polygon fill="midnightblue" stroke="midnightblue" points="194.24,-77.35 204.78,-78.43 197.21,-71.01 194.24,-77.35"/>
</g>
<!-- Node6 -->
<g id="node6" class="node">
<title>Node6</title>
<g id="a_node6"><a xlink:href="../../da/d75/_data_broker__test_8cpp.html" target="_top" xlink:title=" ">
<polygon fill="none" stroke="black" points="187,-0.5 187,-41.5 306,-41.5 306,-0.5 187,-0.5"/>
<text text-anchor="start" x="195" y="-29.5" font-family="Helvetica,sans-Serif" font-size="10.00">Components/Objects</text>
<text text-anchor="start" x="195" y="-18.5" font-family="Helvetica,sans-Serif" font-size="10.00">/DataBroker/test/test</text>
<text text-anchor="middle" x="246.5" y="-7.5" font-family="Helvetica,sans-Serif" font-size="10.00">/DataBroker_test.cpp</text>
</a>
</g>
</g>
<!-- Node4&#45;&gt;Node6 -->
<g id="edge5" class="edge">
<title>Node4&#45;&gt;Node6</title>
<path fill="none" stroke="midnightblue" d="M246.5,-68.3C246.5,-59.3 246.5,-49.65 246.5,-41.51"/>
<polygon fill="midnightblue" stroke="midnightblue" points="243,-68.43 246.5,-78.43 250,-68.43 243,-68.43"/>
</g>
<!-- Node8 -->
<g id="node8" class="node">
<title>Node8</title>
<g id="a_node8"><a xlink:href="../../d7/d24/_online_detector__service_8cpp.html" target="_top" xlink:title=" ">
<polygon fill="none" stroke="black" points="324.5,-0.5 324.5,-41.5 478.5,-41.5 478.5,-0.5 324.5,-0.5"/>
<text text-anchor="start" x="332.5" y="-29.5" font-family="Helvetica,sans-Serif" font-size="10.00">Components/Service</text>
<text text-anchor="start" x="332.5" y="-18.5" font-family="Helvetica,sans-Serif" font-size="10.00">/OnlineDetector/src</text>
<text text-anchor="middle" x="401.5" y="-7.5" font-family="Helvetica,sans-Serif" font-size="10.00">/OnlineDetector_service.cpp</text>
</a>
</g>
</g>
<!-- Node7&#45;&gt;Node8 -->
<g id="edge7" class="edge">
<title>Node7&#45;&gt;Node8</title>
<path fill="none" stroke="midnightblue" d="M445.27,-70.92C436.58,-61.2 426.96,-50.45 418.95,-41.51"/>
<polygon fill="midnightblue" stroke="midnightblue" points="442.71,-73.31 451.99,-78.43 447.93,-68.64 442.71,-73.31"/>
</g>
<!-- Node9 -->
<g id="node9" class="node">
<title>Node9</title>
<g id="a_node9"><a xlink:href="../../db/df8/_service_2_online_detector_2test_2test_2simple__test_8cpp.html" target="_top" xlink:title=" ">
<polygon fill="none" stroke="black" points="497,-0.5 497,-41.5 616,-41.5 616,-0.5 497,-0.5"/>
<text text-anchor="start" x="505" y="-29.5" font-family="Helvetica,sans-Serif" font-size="10.00">Components/Service</text>
<text text-anchor="start" x="505" y="-18.5" font-family="Helvetica,sans-Serif" font-size="10.00">/OnlineDetector/test</text>
<text text-anchor="middle" x="556.5" y="-7.5" font-family="Helvetica,sans-Serif" font-size="10.00">/test/simple_test.cpp</text>
</a>
</g>
</g>
<!-- Node7&#45;&gt;Node9 -->
<g id="edge8" class="edge">
<title>Node7&#45;&gt;Node9</title>
<path fill="none" stroke="midnightblue" d="M499.52,-71.78C510.89,-61.84 523.63,-50.72 534.17,-41.51"/>
<polygon fill="midnightblue" stroke="midnightblue" points="497.13,-69.21 491.9,-78.43 501.74,-74.49 497.13,-69.21"/>
</g>
<!-- Node11 -->
<g id="node11" class="node">
<title>Node11</title>
<g id="a_node11"><a xlink:href="../../dd/dd3/_water_estimator___service_8cpp.html" target="_top" xlink:title=" ">
<polygon fill="none" stroke="black" points="634,-0.5 634,-41.5 791,-41.5 791,-0.5 634,-0.5"/>
<text text-anchor="start" x="642" y="-29.5" font-family="Helvetica,sans-Serif" font-size="10.00">Components/Service</text>
<text text-anchor="start" x="642" y="-18.5" font-family="Helvetica,sans-Serif" font-size="10.00">/WaterEstimator/src</text>
<text text-anchor="middle" x="712.5" y="-7.5" font-family="Helvetica,sans-Serif" font-size="10.00">/WaterEstimator_Service.cpp</text>
</a>
</g>
</g>
<!-- Node10&#45;&gt;Node11 -->
<g id="edge10" class="edge">
<title>Node10&#45;&gt;Node11</title>
<path fill="none" stroke="midnightblue" d="M668.73,-70.92C677.42,-61.2 687.04,-50.45 695.05,-41.51"/>
<polygon fill="midnightblue" stroke="midnightblue" points="666.07,-68.64 662.01,-78.43 671.29,-73.31 666.07,-68.64"/>
</g>
<!-- Node12&#45;&gt;Node3 -->
<g id="edge12" class="edge">
<title>Node12&#45;&gt;Node3</title>
<path fill="none" stroke="midnightblue" d="M806.5,-146.3C806.5,-137.3 806.5,-127.65 806.5,-119.51"/>
<polygon fill="midnightblue" stroke="midnightblue" points="803,-146.43 806.5,-156.43 810,-146.43 803,-146.43"/>
</g>
<!-- Node13 -->
<g id="node13" class="node">
<title>Node13</title>
<g id="a_node13"><a xlink:href="../../df/d40/is_alive__service_8hpp.html" target="_top" xlink:title=" ">
<polygon fill="none" stroke="black" points="890,-78.5 890,-119.5 1017,-119.5 1017,-78.5 890,-78.5"/>
<text text-anchor="start" x="898" y="-107.5" font-family="Helvetica,sans-Serif" font-size="10.00">Components/Service</text>
<text text-anchor="start" x="898" y="-96.5" font-family="Helvetica,sans-Serif" font-size="10.00">/isAlive/include/isAlive</text>
<text text-anchor="middle" x="953.5" y="-85.5" font-family="Helvetica,sans-Serif" font-size="10.00">_service.hpp</text>
</a>
</g>
</g>
<!-- Node12&#45;&gt;Node13 -->
<g id="edge13" class="edge">
<title>Node12&#45;&gt;Node13</title>
<path fill="none" stroke="midnightblue" d="M853.37,-151.77C873.52,-141.35 896.76,-129.34 915.77,-119.51"/>
<polygon fill="midnightblue" stroke="midnightblue" points="851.63,-148.73 844.36,-156.43 854.85,-154.94 851.63,-148.73"/>
</g>
<!-- Node14 -->
<g id="node14" class="node">
<title>Node14</title>
<g id="a_node14"><a xlink:href="../../de/da1/is_alive__service_8cpp.html" target="_top" xlink:title=" ">
<polygon fill="none" stroke="black" points="886,-0.5 886,-41.5 1003,-41.5 1003,-0.5 886,-0.5"/>
<text text-anchor="start" x="894" y="-29.5" font-family="Helvetica,sans-Serif" font-size="10.00">Components/Service</text>
<text text-anchor="start" x="894" y="-18.5" font-family="Helvetica,sans-Serif" font-size="10.00">/isAlive/src/isAlive</text>
<text text-anchor="middle" x="944.5" y="-7.5" font-family="Helvetica,sans-Serif" font-size="10.00">_service.cpp</text>
</a>
</g>
</g>
<!-- Node13&#45;&gt;Node14 -->
<g id="edge14" class="edge">
<title>Node13&#45;&gt;Node14</title>
<path fill="none" stroke="midnightblue" d="M949.98,-68.3C948.92,-59.3 947.77,-49.65 946.81,-41.51"/>
<polygon fill="midnightblue" stroke="midnightblue" points="946.53,-68.91 951.18,-78.43 953.48,-68.09 946.53,-68.91"/>
</g>
<!-- Node15 -->
<g id="node15" class="node">
<title>Node15</title>
<g id="a_node15"><a xlink:href="../../d4/d60/_service_2is_alive_2test_2test_2simple__test_8cpp.html" target="_top" xlink:title=" ">
<polygon fill="none" stroke="black" points="1021.5,-0.5 1021.5,-41.5 1153.5,-41.5 1153.5,-0.5 1021.5,-0.5"/>
<text text-anchor="start" x="1029.5" y="-29.5" font-family="Helvetica,sans-Serif" font-size="10.00">Components/Service</text>
<text text-anchor="start" x="1029.5" y="-18.5" font-family="Helvetica,sans-Serif" font-size="10.00">/isAlive/test/test/simple</text>
<text text-anchor="middle" x="1087.5" y="-7.5" font-family="Helvetica,sans-Serif" font-size="10.00">_test.cpp</text>
</a>
</g>
</g>
<!-- Node13&#45;&gt;Node15 -->
<g id="edge15" class="edge">
<title>Node13&#45;&gt;Node15</title>
<path fill="none" stroke="midnightblue" d="M996.72,-73.49C1014.98,-63.13 1035.93,-51.25 1053.11,-41.51"/>
<polygon fill="midnightblue" stroke="midnightblue" points="994.98,-70.45 988.01,-78.43 998.43,-76.54 994.98,-70.45"/>
</g>
</g>
</svg>
