<?xml version="1.0" encoding="UTF-8" standalone="no"?>
<!DOCTYPE svg PUBLIC "-//W3C//DTD SVG 1.1//EN"
 "http://www.w3.org/Graphics/SVG/1.1/DTD/svg11.dtd">
<!-- Generated by graphviz version 2.43.0 (0)
 -->
<!-- Title: Components/Global_Include/Database_ID_Base.hpp Pages: 1 -->
<svg width="1209pt" height="373pt"
 viewBox="0.00 0.00 1209.00 373.00" xmlns="http://www.w3.org/2000/svg" xmlns:xlink="http://www.w3.org/1999/xlink">
<g id="graph0" class="graph" transform="scale(1 1) rotate(0) translate(4 369)">
<title>Components/Global_Include/Database_ID_Base.hpp</title>
<!-- Node1 -->
<g id="node1" class="node">
<title>Node1</title>
<g id="a_node1"><a xlink:title=" ">
<polygon fill="#bfbfbf" stroke="black" points="343,-334.5 343,-364.5 496,-364.5 496,-334.5 343,-334.5"/>
<text text-anchor="start" x="351" y="-352.5" font-family="Helvetica,sans-Serif" font-size="10.00">Components/Global_Include</text>
<text text-anchor="middle" x="419.5" y="-341.5" font-family="Helvetica,sans-Serif" font-size="10.00">/Database_ID_Base.hpp</text>
</a>
</g>
</g>
<!-- Node2 -->
<g id="node2" class="node">
<title>Node2</title>
<g id="a_node2"><a xlink:href="../../d3/d0d/_error_code_parser_8hpp.html" target="_top" xlink:title=" ">
<polygon fill="none" stroke="black" points="272,-256.5 272,-297.5 391,-297.5 391,-256.5 272,-256.5"/>
<text text-anchor="start" x="280" y="-285.5" font-family="Helvetica,sans-Serif" font-size="10.00">Components/Objects</text>
<text text-anchor="start" x="280" y="-274.5" font-family="Helvetica,sans-Serif" font-size="10.00">/ErrorHandler/include</text>
<text text-anchor="middle" x="331.5" y="-263.5" font-family="Helvetica,sans-Serif" font-size="10.00">/ErrorCodeParser.hpp</text>
</a>
</g>
</g>
<!-- Node1&#45;&gt;Node2 -->
<g id="edge1" class="edge">
<title>Node1&#45;&gt;Node2</title>
<path fill="none" stroke="midnightblue" d="M393.83,-327.93C381.88,-318.36 367.74,-307.03 355.95,-297.59"/>
<polygon fill="midnightblue" stroke="midnightblue" points="391.7,-330.71 401.69,-334.23 396.08,-325.25 391.7,-330.71"/>
</g>
<!-- Node14 -->
<g id="node14" class="node">
<title>Node14</title>
<g id="a_node14"><a xlink:href="../../d2/dc5/_service_base_8hpp.html" target="_top" xlink:title=" ">
<polygon fill="none" stroke="black" points="328.5,-178.5 328.5,-219.5 458.5,-219.5 458.5,-178.5 328.5,-178.5"/>
<text text-anchor="start" x="336.5" y="-207.5" font-family="Helvetica,sans-Serif" font-size="10.00">Components/Interfaces</text>
<text text-anchor="start" x="336.5" y="-196.5" font-family="Helvetica,sans-Serif" font-size="10.00">/ServiceBase/include</text>
<text text-anchor="middle" x="393.5" y="-185.5" font-family="Helvetica,sans-Serif" font-size="10.00">/ServiceBase.hpp</text>
</a>
</g>
</g>
<!-- Node1&#45;&gt;Node14 -->
<g id="edge25" class="edge">
<title>Node1&#45;&gt;Node14</title>
<path fill="none" stroke="midnightblue" d="M415.22,-324.08C410.1,-294.83 401.63,-246.44 396.92,-219.55"/>
<polygon fill="midnightblue" stroke="midnightblue" points="411.83,-325.01 417.01,-334.26 418.73,-323.81 411.83,-325.01"/>
</g>
<!-- Node17 -->
<g id="node17" class="node">
<title>Node17</title>
<g id="a_node17"><a xlink:href="../../d1/da7/_m_q_t_t___message_8hpp.html" target="_top" xlink:title=" ">
<polygon fill="none" stroke="black" points="570.5,-262 570.5,-292 758.5,-292 758.5,-262 570.5,-262"/>
<text text-anchor="start" x="578.5" y="-280" font-family="Helvetica,sans-Serif" font-size="10.00">Components/Protocols</text>
<text text-anchor="middle" x="664.5" y="-269" font-family="Helvetica,sans-Serif" font-size="10.00">/MQTT/include/MQTT_Message.hpp</text>
</a>
</g>
</g>
<!-- Node1&#45;&gt;Node17 -->
<g id="edge18" class="edge">
<title>Node1&#45;&gt;Node17</title>
<path fill="none" stroke="midnightblue" d="M478,-331.66C519.96,-319.59 575.85,-303.51 615.48,-292.11"/>
<polygon fill="midnightblue" stroke="midnightblue" points="476.84,-328.36 468.2,-334.49 478.77,-335.09 476.84,-328.36"/>
</g>
<!-- Node3 -->
<g id="node3" class="node">
<title>Node3</title>
<g id="a_node3"><a xlink:href="../../d9/d1c/_sensor_controller_base_8hpp.html" target="_top" xlink:title=" ">
<polygon fill="none" stroke="black" points="476.5,-178.5 476.5,-219.5 660.5,-219.5 660.5,-178.5 476.5,-178.5"/>
<text text-anchor="start" x="484.5" y="-207.5" font-family="Helvetica,sans-Serif" font-size="10.00">Components/Interfaces</text>
<text text-anchor="start" x="484.5" y="-196.5" font-family="Helvetica,sans-Serif" font-size="10.00">/SensorControllerBase</text>
<text text-anchor="middle" x="568.5" y="-185.5" font-family="Helvetica,sans-Serif" font-size="10.00">/include/SensorControllerBase.hpp</text>
</a>
</g>
</g>
<!-- Node2&#45;&gt;Node3 -->
<g id="edge2" class="edge">
<title>Node2&#45;&gt;Node3</title>
<path fill="none" stroke="midnightblue" d="M401.09,-253.68C434.82,-242.87 474.96,-230 507.48,-219.57"/>
<polygon fill="midnightblue" stroke="midnightblue" points="399.76,-250.44 391.31,-256.82 401.9,-257.1 399.76,-250.44"/>
</g>
<!-- Node2&#45;&gt;Node14 -->
<g id="edge15" class="edge">
<title>Node2&#45;&gt;Node14</title>
<path fill="none" stroke="midnightblue" d="M353.83,-248.63C361.69,-238.99 370.36,-228.36 377.59,-219.51"/>
<polygon fill="midnightblue" stroke="midnightblue" points="351.08,-246.47 347.47,-256.43 356.5,-250.89 351.08,-246.47"/>
</g>
<!-- Node15 -->
<g id="node15" class="node">
<title>Node15</title>
<g id="a_node15"><a xlink:href="../../d2/df5/_error_code_parser_8cpp.html" target="_top" xlink:title=" ">
<polygon fill="none" stroke="black" points="0,-178.5 0,-219.5 149,-219.5 149,-178.5 0,-178.5"/>
<text text-anchor="start" x="8" y="-207.5" font-family="Helvetica,sans-Serif" font-size="10.00">Components/Objects</text>
<text text-anchor="start" x="8" y="-196.5" font-family="Helvetica,sans-Serif" font-size="10.00">/ErrorHandler/src/ErrorCode</text>
<text text-anchor="middle" x="74.5" y="-185.5" font-family="Helvetica,sans-Serif" font-size="10.00">Parser.cpp</text>
</a>
</g>
</g>
<!-- Node2&#45;&gt;Node15 -->
<g id="edge16" class="edge">
<title>Node2&#45;&gt;Node15</title>
<path fill="none" stroke="midnightblue" d="M261.99,-255.44C224.22,-244.28 177.78,-230.54 140.56,-219.53"/>
<polygon fill="midnightblue" stroke="midnightblue" points="261.31,-258.89 271.89,-258.37 263.3,-252.18 261.31,-258.89"/>
</g>
<!-- Node16 -->
<g id="node16" class="node">
<title>Node16</title>
<g id="a_node16"><a xlink:href="../../d9/db8/_error_code_parser__test_8cpp.html" target="_top" xlink:title=" ">
<polygon fill="none" stroke="black" points="167,-178.5 167,-219.5 310,-219.5 310,-178.5 167,-178.5"/>
<text text-anchor="start" x="175" y="-207.5" font-family="Helvetica,sans-Serif" font-size="10.00">Components/Objects</text>
<text text-anchor="start" x="175" y="-196.5" font-family="Helvetica,sans-Serif" font-size="10.00">/ErrorHandler/test/test</text>
<text text-anchor="middle" x="238.5" y="-185.5" font-family="Helvetica,sans-Serif" font-size="10.00">/ErrorCodeParser_test.cpp</text>
</a>
</g>
</g>
<!-- Node2&#45;&gt;Node16 -->
<g id="edge17" class="edge">
<title>Node2&#45;&gt;Node16</title>
<path fill="none" stroke="midnightblue" d="M299.76,-250.06C287.52,-240.06 273.75,-228.8 262.37,-219.51"/>
<polygon fill="midnightblue" stroke="midnightblue" points="297.59,-252.81 307.55,-256.43 302.02,-247.39 297.59,-252.81"/>
</g>
<!-- Node4 -->
<g id="node4" class="node">
<title>Node4</title>
<g id="a_node4"><a xlink:href="../../db/d12/_distance_sensor_controller_8hpp.html" target="_top" xlink:title=" ">
<polygon fill="none" stroke="black" points="337,-95 337,-136 540,-136 540,-95 337,-95"/>
<text text-anchor="start" x="345" y="-124" font-family="Helvetica,sans-Serif" font-size="10.00">Components/Controller</text>
<text text-anchor="start" x="345" y="-113" font-family="Helvetica,sans-Serif" font-size="10.00">/DistanceSensorController</text>
<text text-anchor="middle" x="438.5" y="-102" font-family="Helvetica,sans-Serif" font-size="10.00">/include/DistanceSensorController.hpp</text>
</a>
</g>
</g>
<!-- Node3&#45;&gt;Node4 -->
<g id="edge3" class="edge">
<title>Node3&#45;&gt;Node4</title>
<path fill="none" stroke="midnightblue" d="M528.67,-173.03C509.77,-161.18 487.51,-147.22 469.83,-136.14"/>
<polygon fill="midnightblue" stroke="midnightblue" points="527.03,-176.13 537.36,-178.48 530.75,-170.2 527.03,-176.13"/>
</g>
<!-- Node8 -->
<g id="node8" class="node">
<title>Node8</title>
<g id="a_node8"><a xlink:href="../../d2/d8d/_sensor_controller_base_8cpp.html" target="_top" xlink:title=" ">
<polygon fill="none" stroke="black" points="596.5,-95 596.5,-136 758.5,-136 758.5,-95 596.5,-95"/>
<text text-anchor="start" x="604.5" y="-124" font-family="Helvetica,sans-Serif" font-size="10.00">Components/Interfaces</text>
<text text-anchor="start" x="604.5" y="-113" font-family="Helvetica,sans-Serif" font-size="10.00">/SensorControllerBase</text>
<text text-anchor="middle" x="677.5" y="-102" font-family="Helvetica,sans-Serif" font-size="10.00">/src/SensorControllerBase.cpp</text>
</a>
</g>
</g>
<!-- Node3&#45;&gt;Node8 -->
<g id="edge7" class="edge">
<title>Node3&#45;&gt;Node8</title>
<path fill="none" stroke="midnightblue" d="M602.98,-172.22C618.59,-160.55 636.74,-146.97 651.23,-136.14"/>
<polygon fill="midnightblue" stroke="midnightblue" points="600.52,-169.69 594.61,-178.48 604.71,-175.29 600.52,-169.69"/>
</g>
<!-- Node9 -->
<g id="node9" class="node">
<title>Node9</title>
<g id="a_node9"><a xlink:href="../../db/dc2/_sensor_controller_base___m_o_c_k_8hpp.html" target="_top" xlink:title=" ">
<polygon fill="none" stroke="black" points="776.5,-89.5 776.5,-141.5 952.5,-141.5 952.5,-89.5 776.5,-89.5"/>
<text text-anchor="start" x="784.5" y="-129.5" font-family="Helvetica,sans-Serif" font-size="10.00">Components/Interfaces</text>
<text text-anchor="start" x="784.5" y="-118.5" font-family="Helvetica,sans-Serif" font-size="10.00">/SensorControllerBase</text>
<text text-anchor="start" x="784.5" y="-107.5" font-family="Helvetica,sans-Serif" font-size="10.00">/test/mock/SensorControllerBase</text>
<text text-anchor="middle" x="864.5" y="-96.5" font-family="Helvetica,sans-Serif" font-size="10.00">_MOCK.hpp</text>
</a>
</g>
</g>
<!-- Node3&#45;&gt;Node9 -->
<g id="edge8" class="edge">
<title>Node3&#45;&gt;Node9</title>
<path fill="none" stroke="midnightblue" d="M649.23,-175.77C688.63,-164.92 736.11,-151.85 776.44,-140.75"/>
<polygon fill="midnightblue" stroke="midnightblue" points="648.11,-172.45 639.4,-178.48 649.97,-179.2 648.11,-172.45"/>
</g>
<!-- Node11 -->
<g id="node11" class="node">
<title>Node11</title>
<g id="a_node11"><a xlink:href="../../d8/d19/_sensor_controller_test_8cpp.html" target="_top" xlink:title=" ">
<polygon fill="none" stroke="black" points="745.5,-6 745.5,-47 929.5,-47 929.5,-6 745.5,-6"/>
<text text-anchor="start" x="753.5" y="-35" font-family="Helvetica,sans-Serif" font-size="10.00">Components/Interfaces</text>
<text text-anchor="start" x="753.5" y="-24" font-family="Helvetica,sans-Serif" font-size="10.00">/SensorControllerBase</text>
<text text-anchor="middle" x="837.5" y="-13" font-family="Helvetica,sans-Serif" font-size="10.00">/test/test/SensorControllerTest.cpp</text>
</a>
</g>
</g>
<!-- Node3&#45;&gt;Node11 -->
<g id="edge11" class="edge">
<title>Node3&#45;&gt;Node11</title>
<path fill="none" stroke="midnightblue" d="M565.44,-168.14C564.66,-143.75 567.82,-110 587.5,-89 634.1,-39.3 670.36,-69.34 736.5,-53 744.31,-51.07 752.46,-49.04 760.59,-47"/>
<polygon fill="midnightblue" stroke="midnightblue" points="561.95,-168.49 566,-178.28 568.94,-168.1 561.95,-168.49"/>
</g>
<!-- Node12 -->
<g id="node12" class="node">
<title>Node12</title>
<g id="a_node12"><a xlink:href="../../d0/dc1/_data_broker_8hpp.html" target="_top" xlink:title=" ">
<polygon fill="none" stroke="black" points="200.5,-95 200.5,-136 318.5,-136 318.5,-95 200.5,-95"/>
<text text-anchor="start" x="208.5" y="-124" font-family="Helvetica,sans-Serif" font-size="10.00">Components/Objects</text>
<text text-anchor="start" x="208.5" y="-113" font-family="Helvetica,sans-Serif" font-size="10.00">/DataBroker/include</text>
<text text-anchor="middle" x="259.5" y="-102" font-family="Helvetica,sans-Serif" font-size="10.00">/DataBroker.hpp</text>
</a>
</g>
</g>
<!-- Node3&#45;&gt;Node12 -->
<g id="edge12" class="edge">
<title>Node3&#45;&gt;Node12</title>
<path fill="none" stroke="midnightblue" d="M466.45,-177.14C423.53,-167.6 373.27,-155.44 328.5,-142 322.51,-140.2 316.28,-138.16 310.13,-136.03"/>
<polygon fill="midnightblue" stroke="midnightblue" points="465.82,-180.58 476.33,-179.32 467.32,-173.75 465.82,-180.58"/>
</g>
<!-- Node5 -->
<g id="node5" class="node">
<title>Node5</title>
<g id="a_node5"><a xlink:href="../../dd/dde/_distance_sensor_controller_8cpp.html" target="_top" xlink:title=" ">
<polygon fill="none" stroke="black" points="546,-6 546,-47 727,-47 727,-6 546,-6"/>
<text text-anchor="start" x="554" y="-35" font-family="Helvetica,sans-Serif" font-size="10.00">Components/Controller</text>
<text text-anchor="start" x="554" y="-24" font-family="Helvetica,sans-Serif" font-size="10.00">/DistanceSensorController</text>
<text text-anchor="middle" x="636.5" y="-13" font-family="Helvetica,sans-Serif" font-size="10.00">/src/DistanceSensorController.cpp</text>
</a>
</g>
</g>
<!-- Node4&#45;&gt;Node5 -->
<g id="edge4" class="edge">
<title>Node4&#45;&gt;Node5</title>
<path fill="none" stroke="midnightblue" d="M492.36,-90.84C523.56,-77.12 562.38,-60.07 591.87,-47.11"/>
<polygon fill="midnightblue" stroke="midnightblue" points="490.68,-87.75 482.94,-94.98 493.5,-94.16 490.68,-87.75"/>
</g>
<!-- Node6 -->
<g id="node6" class="node">
<title>Node6</title>
<g id="a_node6"><a xlink:href="../../d7/d91/_distance_sensor_controller__test_8cpp.html" target="_top" xlink:title=" ">
<polygon fill="none" stroke="black" points="341,-0.5 341,-52.5 528,-52.5 528,-0.5 341,-0.5"/>
<text text-anchor="start" x="349" y="-40.5" font-family="Helvetica,sans-Serif" font-size="10.00">Components/Controller</text>
<text text-anchor="start" x="349" y="-29.5" font-family="Helvetica,sans-Serif" font-size="10.00">/DistanceSensorController</text>
<text text-anchor="start" x="349" y="-18.5" font-family="Helvetica,sans-Serif" font-size="10.00">/test/test/DistanceSensorController</text>
<text text-anchor="middle" x="434.5" y="-7.5" font-family="Helvetica,sans-Serif" font-size="10.00">_test.cpp</text>
</a>
</g>
</g>
<!-- Node4&#45;&gt;Node6 -->
<g id="edge5" class="edge">
<title>Node4&#45;&gt;Node6</title>
<path fill="none" stroke="midnightblue" d="M437.12,-84.51C436.65,-74.17 436.12,-62.71 435.66,-52.79"/>
<polygon fill="midnightblue" stroke="midnightblue" points="433.64,-84.93 437.59,-94.76 440.63,-84.61 433.64,-84.93"/>
</g>
<!-- Node7 -->
<g id="node7" class="node">
<title>Node7</title>
<g id="a_node7"><a xlink:href="../../da/d75/_data_broker__test_8cpp.html" target="_top" xlink:title=" ">
<polygon fill="none" stroke="black" points="204,-6 204,-47 323,-47 323,-6 204,-6"/>
<text text-anchor="start" x="212" y="-35" font-family="Helvetica,sans-Serif" font-size="10.00">Components/Objects</text>
<text text-anchor="start" x="212" y="-24" font-family="Helvetica,sans-Serif" font-size="10.00">/DataBroker/test/test</text>
<text text-anchor="middle" x="263.5" y="-13" font-family="Helvetica,sans-Serif" font-size="10.00">/DataBroker_test.cpp</text>
</a>
</g>
</g>
<!-- Node4&#45;&gt;Node7 -->
<g id="edge6" class="edge">
<title>Node4&#45;&gt;Node7</title>
<path fill="none" stroke="midnightblue" d="M390.18,-90.48C362.73,-76.83 328.78,-59.96 302.94,-47.11"/>
<polygon fill="midnightblue" stroke="midnightblue" points="388.71,-93.66 399.23,-94.98 391.83,-87.39 388.71,-93.66"/>
</g>
<!-- Node10 -->
<g id="node10" class="node">
<title>Node10</title>
<g id="a_node10"><a xlink:href="../../dc/d0f/_sensor_controller_base___m_o_c_k_8cpp.html" target="_top" xlink:title=" ">
<polygon fill="none" stroke="black" points="947.5,-0.5 947.5,-52.5 1123.5,-52.5 1123.5,-0.5 947.5,-0.5"/>
<text text-anchor="start" x="955.5" y="-40.5" font-family="Helvetica,sans-Serif" font-size="10.00">Components/Interfaces</text>
<text text-anchor="start" x="955.5" y="-29.5" font-family="Helvetica,sans-Serif" font-size="10.00">/SensorControllerBase</text>
<text text-anchor="start" x="955.5" y="-18.5" font-family="Helvetica,sans-Serif" font-size="10.00">/test/mock/SensorControllerBase</text>
<text text-anchor="middle" x="1035.5" y="-7.5" font-family="Helvetica,sans-Serif" font-size="10.00">_MOCK.cpp</text>
</a>
</g>
</g>
<!-- Node9&#45;&gt;Node10 -->
<g id="edge9" class="edge">
<title>Node9&#45;&gt;Node10</title>
<path fill="none" stroke="midnightblue" d="M922.92,-84.78C943.5,-74.31 966.4,-62.66 986.15,-52.61"/>
<polygon fill="midnightblue" stroke="midnightblue" points="921.29,-81.68 913.96,-89.34 924.46,-87.92 921.29,-81.68"/>
</g>
<!-- Node9&#45;&gt;Node11 -->
<g id="edge10" class="edge">
<title>Node9&#45;&gt;Node11</title>
<path fill="none" stroke="midnightblue" d="M853.64,-79.49C850.21,-68.45 846.55,-56.65 843.58,-47.08"/>
<polygon fill="midnightblue" stroke="midnightblue" points="850.38,-80.82 856.69,-89.34 857.07,-78.75 850.38,-80.82"/>
</g>
<!-- Node12&#45;&gt;Node7 -->
<g id="edge14" class="edge">
<title>Node12&#45;&gt;Node7</title>
<path fill="none" stroke="midnightblue" d="M260.88,-84.44C261.45,-72.1 262.09,-58.16 262.6,-47.16"/>
<polygon fill="midnightblue" stroke="midnightblue" points="257.37,-84.61 260.41,-94.76 264.36,-84.93 257.37,-84.61"/>
</g>
<!-- Node13 -->
<g id="node13" class="node">
<title>Node13</title>
<g id="a_node13"><a xlink:href="../../d4/ddc/_data_broker_8cpp.html" target="_top" xlink:title=" ">
<polygon fill="none" stroke="black" points="15.5,-11.5 15.5,-41.5 185.5,-41.5 185.5,-11.5 15.5,-11.5"/>
<text text-anchor="start" x="23.5" y="-29.5" font-family="Helvetica,sans-Serif" font-size="10.00">Components/Objects</text>
<text text-anchor="middle" x="100.5" y="-18.5" font-family="Helvetica,sans-Serif" font-size="10.00">/DataBroker/src/DataBroker.cpp</text>
</a>
</g>
</g>
<!-- Node12&#45;&gt;Node13 -->
<g id="edge13" class="edge">
<title>Node12&#45;&gt;Node13</title>
<path fill="none" stroke="midnightblue" d="M214.81,-90.05C186.19,-74.39 150.06,-54.62 126.17,-41.55"/>
<polygon fill="midnightblue" stroke="midnightblue" points="213.36,-93.25 223.82,-94.98 216.72,-87.1 213.36,-93.25"/>
</g>
<!-- Node17&#45;&gt;Node3 -->
<g id="edge19" class="edge">
<title>Node17&#45;&gt;Node3</title>
<path fill="none" stroke="midnightblue" d="M638.59,-255.49C624.54,-244.36 607.25,-230.68 593.36,-219.68"/>
<polygon fill="midnightblue" stroke="midnightblue" points="636.43,-258.24 646.44,-261.7 640.78,-252.75 636.43,-258.24"/>
</g>
<!-- Node17&#45;&gt;Node14 -->
<g id="edge20" class="edge">
<title>Node17&#45;&gt;Node14</title>
<path fill="none" stroke="midnightblue" d="M604.66,-259.22C561.4,-247.09 503.01,-230.71 458.59,-218.25"/>
<polygon fill="midnightblue" stroke="midnightblue" points="603.9,-262.64 614.48,-261.97 605.8,-255.9 603.9,-262.64"/>
</g>
<!-- Node18 -->
<g id="node18" class="node">
<title>Node18</title>
<g id="a_node18"><a xlink:href="../../d2/d93/_m_q_t_t___message_8cpp.html" target="_top" xlink:title=" ">
<polygon fill="none" stroke="black" points="678.5,-184 678.5,-214 844.5,-214 844.5,-184 678.5,-184"/>
<text text-anchor="start" x="686.5" y="-202" font-family="Helvetica,sans-Serif" font-size="10.00">Components/Protocols</text>
<text text-anchor="middle" x="761.5" y="-191" font-family="Helvetica,sans-Serif" font-size="10.00">/MQTT/src/MQTT_Message.cpp</text>
</a>
</g>
</g>
<!-- Node17&#45;&gt;Node18 -->
<g id="edge21" class="edge">
<title>Node17&#45;&gt;Node18</title>
<path fill="none" stroke="midnightblue" d="M690.98,-255.25C707.6,-242.23 728.59,-225.78 743.34,-214.23"/>
<polygon fill="midnightblue" stroke="midnightblue" points="688.46,-252.78 682.74,-261.7 692.78,-258.29 688.46,-252.78"/>
</g>
<!-- Node19 -->
<g id="node19" class="node">
<title>Node19</title>
<g id="a_node19"><a xlink:href="../../d2/d40/msg__test_8cpp.html" target="_top" xlink:title=" ">
<polygon fill="none" stroke="black" points="862.5,-184 862.5,-214 1022.5,-214 1022.5,-184 862.5,-184"/>
<text text-anchor="start" x="870.5" y="-202" font-family="Helvetica,sans-Serif" font-size="10.00">Components/Protocols</text>
<text text-anchor="middle" x="942.5" y="-191" font-family="Helvetica,sans-Serif" font-size="10.00">/MQTT/test/test/msg_test.cpp</text>
</a>
</g>
</g>
<!-- Node17&#45;&gt;Node19 -->
<g id="edge22" class="edge">
<title>Node17&#45;&gt;Node19</title>
<path fill="none" stroke="midnightblue" d="M725.76,-259.25C775.31,-245.71 844.29,-226.85 891.02,-214.07"/>
<polygon fill="midnightblue" stroke="midnightblue" points="724.54,-255.96 715.81,-261.97 726.38,-262.71 724.54,-255.96"/>
</g>
<!-- Node20 -->
<g id="node20" class="node">
<title>Node20</title>
<g id="a_node20"><a xlink:href="../../dd/d82/_active_current_sensor_8hpp.html" target="_top" xlink:title=" ">
<polygon fill="none" stroke="black" points="1040.5,-178.5 1040.5,-219.5 1188.5,-219.5 1188.5,-178.5 1040.5,-178.5"/>
<text text-anchor="start" x="1048.5" y="-207.5" font-family="Helvetica,sans-Serif" font-size="10.00">Components/Sensor/Active</text>
<text text-anchor="start" x="1048.5" y="-196.5" font-family="Helvetica,sans-Serif" font-size="10.00">CurrentSensor/include</text>
<text text-anchor="middle" x="1114.5" y="-185.5" font-family="Helvetica,sans-Serif" font-size="10.00">/ActiveCurrentSensor.hpp</text>
</a>
</g>
</g>
<!-- Node17&#45;&gt;Node20 -->
<g id="edge23" class="edge">
<title>Node17&#45;&gt;Node20</title>
<path fill="none" stroke="midnightblue" d="M768.99,-262.46C842.65,-252.34 943.46,-237.29 1031.5,-220 1034.41,-219.43 1037.37,-218.82 1040.36,-218.2"/>
<polygon fill="midnightblue" stroke="midnightblue" points="768.22,-259.04 758.79,-263.86 769.17,-265.97 768.22,-259.04"/>
</g>
<!-- Node21 -->
<g id="node21" class="node">
<title>Node21</title>
<g id="a_node21"><a xlink:href="../../d2/d77/_active_current_sensor_8cpp.html" target="_top" xlink:title=" ">
<polygon fill="none" stroke="black" points="1028,-95 1028,-136 1201,-136 1201,-95 1028,-95"/>
<text text-anchor="start" x="1036" y="-124" font-family="Helvetica,sans-Serif" font-size="10.00">Components/Sensor/Active</text>
<text text-anchor="start" x="1036" y="-113" font-family="Helvetica,sans-Serif" font-size="10.00">CurrentSensor/src/ActiveCurrent</text>
<text text-anchor="middle" x="1114.5" y="-102" font-family="Helvetica,sans-Serif" font-size="10.00">Sensor.cpp</text>
</a>
</g>
</g>
<!-- Node20&#45;&gt;Node21 -->
<g id="edge24" class="edge">
<title>Node20&#45;&gt;Node21</title>
<path fill="none" stroke="midnightblue" d="M1114.5,-168.06C1114.5,-157.38 1114.5,-145.63 1114.5,-136.05"/>
<polygon fill="midnightblue" stroke="midnightblue" points="1111,-168.27 1114.5,-178.27 1118,-168.27 1111,-168.27"/>
</g>
</g>
</svg>
