<?xml version="1.0" encoding="UTF-8" standalone="no"?>
<!DOCTYPE svg PUBLIC "-//W3C//DTD SVG 1.1//EN"
 "http://www.w3.org/Graphics/SVG/1.1/DTD/svg11.dtd">
<!-- Generated by graphviz version 2.43.0 (0)
 -->
<!-- Title: Components/Global_Include/Database_ID_Base.hpp Pages: 1 -->
<!--zoomable 373 -->
<svg id="main" version="1.1" xmlns="http://www.w3.org/2000/svg" xmlns:xlink="http://www.w3.org/1999/xlink" xml:space="preserve" onload="init(evt)">
<style type="text/css"><![CDATA[
.edge:hover path { stroke: red; }
.edge:hover polygon { stroke: red; fill: red; }
]]></style>
<script type="text/javascript"><![CDATA[
var edges = document.getElementsByTagName('g');
if (edges && edges.length) {
  for (var i=0;i<edges.length;i++) {
    if (edges[i].id.substr(0,4)=='edge') {
      edges[i].setAttribute('class','edge');
    }
  }
}
]]></script>
        <defs>
                <circle id="rim" cx="0" cy="0" r="7"/>
                <circle id="rim2" cx="0" cy="0" r="3.5"/>
                <g id="zoomPlus">
                        <use xlink:href="#rim" fill="#404040">
                                <set attributeName="fill" to="#808080" begin="zoomplus.mouseover" end="zoomplus.mouseout"/>
                        </use>
                        <path d="M-4,0h8M0,-4v8" fill="none" stroke="white" stroke-width="1.5" pointer-events="none"/>
                </g>
                <g id="zoomMin">
                        <use xlink:href="#rim" fill="#404040">
                                <set attributeName="fill" to="#808080" begin="zoomminus.mouseover" end="zoomminus.mouseout"/>
                        </use>
                        <path d="M-4,0h8" fill="none" stroke="white" stroke-width="1.5" pointer-events="none"/>
                </g>
                <g id="dirArrow">
                        <path fill="none" stroke="white" stroke-width="1.5" d="M0,-3.0v7 M-2.5,-0.5L0,-3.0L2.5,-0.5"/>
                </g>
               <g id="resetDef">
                       <use xlink:href="#rim2" fill="#404040">
                               <set attributeName="fill" to="#808080" begin="reset.mouseover" end="reset.mouseout"/>
                       </use>
               </g>
        </defs>

<script type="text/javascript">
var viewWidth = 1600;
var viewHeight = 373;
var sectionId = 'dynsection-1';
</script>
<script xlink:href="../../svgpan.js"/>
<svg id="graph" class="graph">
<g id="viewport">
<title>Components/Global_Include/Database_ID_Base.hpp</title>
<!-- Node1 -->
<g id="node1" class="node">
<title>Node1</title>
<g id="a_node1"><a xlink:title=" ">
<polygon fill="#bfbfbf" stroke="black" points="711,-334.5 711,-364.5 864,-364.5 864,-334.5 711,-334.5"/>
<text text-anchor="start" x="719" y="-352.5" font-family="Helvetica,sans-Serif" font-size="10.00">Components/Global_Include</text>
<text text-anchor="middle" x="787.5" y="-341.5" font-family="Helvetica,sans-Serif" font-size="10.00">/Database_ID_Base.hpp</text>
</a>
</g>
</g>
<!-- Node2 -->
<g id="node2" class="node">
<title>Node2</title>
<g id="a_node2"><a xlink:href="../../d3/d0d/_error_code_parser_8hpp.html" target="_top" xlink:title=" ">
<polygon fill="none" stroke="black" points="870,-256.5 870,-297.5 989,-297.5 989,-256.5 870,-256.5"/>
<text text-anchor="start" x="878" y="-285.5" font-family="Helvetica,sans-Serif" font-size="10.00">Components/Objects</text>
<text text-anchor="start" x="878" y="-274.5" font-family="Helvetica,sans-Serif" font-size="10.00">/ErrorHandler/include</text>
<text text-anchor="middle" x="929.5" y="-263.5" font-family="Helvetica,sans-Serif" font-size="10.00">/ErrorCodeParser.hpp</text>
</a>
</g>
</g>
<!-- Node1&#45;&gt;Node2 -->
<g id="edge1" class="edge">
<title>Node1&#45;&gt;Node2</title>
<path fill="none" stroke="midnightblue" d="M825.04,-329.86C845.11,-319.9 869.79,-307.64 890.13,-297.55"/>
<polygon fill="midnightblue" stroke="midnightblue" points="823.29,-326.82 815.89,-334.4 826.41,-333.09 823.29,-326.82"/>
</g>
<!-- Node14 -->
<g id="node14" class="node">
<title>Node14</title>
<g id="a_node14"><a xlink:href="../../d2/dc5/_service_base_8hpp.html" target="_top" xlink:title=" ">
<polygon fill="none" stroke="black" points="216.5,-178.5 216.5,-219.5 346.5,-219.5 346.5,-178.5 216.5,-178.5"/>
<text text-anchor="start" x="224.5" y="-207.5" font-family="Helvetica,sans-Serif" font-size="10.00">Components/Interfaces</text>
<text text-anchor="start" x="224.5" y="-196.5" font-family="Helvetica,sans-Serif" font-size="10.00">/ServiceBase/include</text>
<text text-anchor="middle" x="281.5" y="-185.5" font-family="Helvetica,sans-Serif" font-size="10.00">/ServiceBase.hpp</text>
</a>
</g>
</g>
<!-- Node1&#45;&gt;Node14 -->
<g id="edge33" class="edge">
<title>Node1&#45;&gt;Node14</title>
<path fill="none" stroke="midnightblue" d="M718.79,-332.02C680.57,-322.59 632.23,-310.24 589.5,-298 501.7,-272.86 401.06,-240.08 339.38,-219.53"/>
<polygon fill="midnightblue" stroke="midnightblue" points="718.23,-335.49 728.78,-334.48 719.9,-328.69 718.23,-335.49"/>
</g>
<!-- Node20 -->
<g id="node20" class="node">
<title>Node20</title>
<g id="a_node20"><a xlink:href="../../d0/d6a/_maintainer_8hpp.html" target="_top" xlink:title=" ">
<polygon fill="none" stroke="black" points="1293.5,-178.5 1293.5,-219.5 1411.5,-219.5 1411.5,-178.5 1293.5,-178.5"/>
<text text-anchor="start" x="1301.5" y="-207.5" font-family="Helvetica,sans-Serif" font-size="10.00">Components/Objects</text>
<text text-anchor="start" x="1301.5" y="-196.5" font-family="Helvetica,sans-Serif" font-size="10.00">/Maintainer/include</text>
<text text-anchor="middle" x="1352.5" y="-185.5" font-family="Helvetica,sans-Serif" font-size="10.00">/Maintainer.hpp</text>
</a>
</g>
</g>
<!-- Node1&#45;&gt;Node20 -->
<g id="edge34" class="edge">
<title>Node1&#45;&gt;Node20</title>
<path fill="none" stroke="midnightblue" d="M857.68,-332.17C898.54,-322.52 951.02,-309.9 997.5,-298 1125.55,-265.21 1157.31,-255.98 1284.5,-220 1287.34,-219.2 1290.25,-218.37 1293.18,-217.52"/>
<polygon fill="midnightblue" stroke="midnightblue" points="856.74,-328.79 847.81,-334.49 858.35,-335.61 856.74,-328.79"/>
</g>
<!-- Node25 -->
<g id="node25" class="node">
<title>Node25</title>
<g id="a_node25"><a xlink:href="../../d1/da7/_m_q_t_t___message_8hpp.html" target="_top" xlink:title=" ">
<polygon fill="none" stroke="black" points="598.5,-262 598.5,-292 786.5,-292 786.5,-262 598.5,-262"/>
<text text-anchor="start" x="606.5" y="-280" font-family="Helvetica,sans-Serif" font-size="10.00">Components/Protocols</text>
<text text-anchor="middle" x="692.5" y="-269" font-family="Helvetica,sans-Serif" font-size="10.00">/MQTT/include/MQTT_Message.hpp</text>
</a>
</g>
</g>
<!-- Node1&#45;&gt;Node25 -->
<g id="edge27" class="edge">
<title>Node1&#45;&gt;Node25</title>
<path fill="none" stroke="midnightblue" d="M760.02,-328.11C744.42,-316.53 725.28,-302.33 711.37,-292"/>
<polygon fill="midnightblue" stroke="midnightblue" points="758.16,-331.08 768.28,-334.23 762.33,-325.46 758.16,-331.08"/>
</g>
<!-- Node3 -->
<g id="node3" class="node">
<title>Node3</title>
<g id="a_node3"><a xlink:href="../../d9/d1c/_sensor_controller_base_8hpp.html" target="_top" xlink:title=" ">
<polygon fill="none" stroke="black" points="726.5,-178.5 726.5,-219.5 910.5,-219.5 910.5,-178.5 726.5,-178.5"/>
<text text-anchor="start" x="734.5" y="-207.5" font-family="Helvetica,sans-Serif" font-size="10.00">Components/Interfaces</text>
<text text-anchor="start" x="734.5" y="-196.5" font-family="Helvetica,sans-Serif" font-size="10.00">/SensorControllerBase</text>
<text text-anchor="middle" x="818.5" y="-185.5" font-family="Helvetica,sans-Serif" font-size="10.00">/include/SensorControllerBase.hpp</text>
</a>
</g>
</g>
<!-- Node2&#45;&gt;Node3 -->
<g id="edge2" class="edge">
<title>Node2&#45;&gt;Node3</title>
<path fill="none" stroke="midnightblue" d="M892.45,-250.64C877.63,-240.49 860.83,-228.98 846.99,-219.51"/>
<polygon fill="midnightblue" stroke="midnightblue" points="890.69,-253.67 900.91,-256.43 894.64,-247.89 890.69,-253.67"/>
</g>
<!-- Node2&#45;&gt;Node14 -->
<g id="edge15" class="edge">
<title>Node2&#45;&gt;Node14</title>
<path fill="none" stroke="midnightblue" d="M859.93,-264.72C839.24,-261.61 816.48,-258.42 795.5,-256 600.58,-233.51 548.79,-253.74 355.5,-220 352.62,-219.5 349.68,-218.93 346.73,-218.32"/>
<polygon fill="midnightblue" stroke="midnightblue" points="859.5,-268.19 869.91,-266.24 860.55,-261.27 859.5,-268.19"/>
</g>
<!-- Node18 -->
<g id="node18" class="node">
<title>Node18</title>
<g id="a_node18"><a xlink:href="../../d2/df5/_error_code_parser_8cpp.html" target="_top" xlink:title=" ">
<polygon fill="none" stroke="black" points="966,-178.5 966,-219.5 1115,-219.5 1115,-178.5 966,-178.5"/>
<text text-anchor="start" x="974" y="-207.5" font-family="Helvetica,sans-Serif" font-size="10.00">Components/Objects</text>
<text text-anchor="start" x="974" y="-196.5" font-family="Helvetica,sans-Serif" font-size="10.00">/ErrorHandler/src/ErrorCode</text>
<text text-anchor="middle" x="1040.5" y="-185.5" font-family="Helvetica,sans-Serif" font-size="10.00">Parser.cpp</text>
</a>
</g>
</g>
<!-- Node2&#45;&gt;Node18 -->
<g id="edge20" class="edge">
<title>Node2&#45;&gt;Node18</title>
<path fill="none" stroke="midnightblue" d="M966.55,-250.64C981.37,-240.49 998.17,-228.98 1012.01,-219.51"/>
<polygon fill="midnightblue" stroke="midnightblue" points="964.36,-247.89 958.09,-256.43 968.31,-253.67 964.36,-247.89"/>
</g>
<!-- Node19 -->
<g id="node19" class="node">
<title>Node19</title>
<g id="a_node19"><a xlink:href="../../d9/db8/_error_code_parser__test_8cpp.html" target="_top" xlink:title=" ">
<polygon fill="none" stroke="black" points="1133.5,-178.5 1133.5,-219.5 1275.5,-219.5 1275.5,-178.5 1133.5,-178.5"/>
<text text-anchor="start" x="1141.5" y="-207.5" font-family="Helvetica,sans-Serif" font-size="10.00">Components/Objects</text>
<text text-anchor="start" x="1141.5" y="-196.5" font-family="Helvetica,sans-Serif" font-size="10.00">/ErrorHandler/test/test</text>
<text text-anchor="middle" x="1204.5" y="-185.5" font-family="Helvetica,sans-Serif" font-size="10.00">/ErrorCodeParser_test.cpp</text>
</a>
</g>
</g>
<!-- Node2&#45;&gt;Node19 -->
<g id="edge21" class="edge">
<title>Node2&#45;&gt;Node19</title>
<path fill="none" stroke="midnightblue" d="M998.87,-256.83C1040.1,-245.43 1092.27,-231.02 1133.74,-219.55"/>
<polygon fill="midnightblue" stroke="midnightblue" points="997.88,-253.47 989.17,-259.51 999.74,-260.22 997.88,-253.47"/>
</g>
<!-- Node2&#45;&gt;Node20 -->
<g id="edge22" class="edge">
<title>Node2&#45;&gt;Node20</title>
<path fill="none" stroke="midnightblue" d="M999.6,-267.67C1071.58,-258.48 1186.59,-242.02 1284.5,-220 1287.38,-219.35 1290.32,-218.65 1293.28,-217.91"/>
<polygon fill="midnightblue" stroke="midnightblue" points="998.79,-264.24 989.3,-268.97 999.66,-271.19 998.79,-264.24"/>
</g>
<!-- Node4 -->
<g id="node4" class="node">
<title>Node4</title>
<g id="a_node4"><a xlink:href="../../db/d12/_distance_sensor_controller_8hpp.html" target="_top" xlink:title=" ">
<polygon fill="none" stroke="black" points="493.5,-95 493.5,-136 695.5,-136 695.5,-95 493.5,-95"/>
<text text-anchor="start" x="501.5" y="-124" font-family="Helvetica,sans-Serif" font-size="10.00">Components/Controller</text>
<text text-anchor="start" x="501.5" y="-113" font-family="Helvetica,sans-Serif" font-size="10.00">/DistanceSensorController</text>
<text text-anchor="middle" x="594.5" y="-102" font-family="Helvetica,sans-Serif" font-size="10.00">/include/DistanceSensorController.hpp</text>
</a>
</g>
</g>
<!-- Node3&#45;&gt;Node4 -->
<g id="edge3" class="edge">
<title>Node3&#45;&gt;Node4</title>
<path fill="none" stroke="midnightblue" d="M755.08,-174.92C721.32,-162.64 680.25,-147.7 648.1,-136"/>
<polygon fill="midnightblue" stroke="midnightblue" points="754.25,-178.35 764.85,-178.48 756.65,-171.77 754.25,-178.35"/>
</g>
<!-- Node8 -->
<g id="node8" class="node">
<title>Node8</title>
<g id="a_node8"><a xlink:href="../../d2/d8d/_sensor_controller_base_8cpp.html" target="_top" xlink:title=" ">
<polygon fill="none" stroke="black" points="713.5,-95 713.5,-136 875.5,-136 875.5,-95 713.5,-95"/>
<text text-anchor="start" x="721.5" y="-124" font-family="Helvetica,sans-Serif" font-size="10.00">Components/Interfaces</text>
<text text-anchor="start" x="721.5" y="-113" font-family="Helvetica,sans-Serif" font-size="10.00">/SensorControllerBase</text>
<text text-anchor="middle" x="794.5" y="-102" font-family="Helvetica,sans-Serif" font-size="10.00">/src/SensorControllerBase.cpp</text>
</a>
</g>
</g>
<!-- Node3&#45;&gt;Node8 -->
<g id="edge7" class="edge">
<title>Node3&#45;&gt;Node8</title>
<path fill="none" stroke="midnightblue" d="M809.78,-168.4C806.61,-157.63 803.11,-145.73 800.26,-136.05"/>
<polygon fill="midnightblue" stroke="midnightblue" points="806.51,-169.67 812.69,-178.27 813.22,-167.69 806.51,-169.67"/>
</g>
<!-- Node9 -->
<g id="node9" class="node">
<title>Node9</title>
<g id="a_node9"><a xlink:href="../../db/dc2/_sensor_controller_base___m_o_c_k_8hpp.html" target="_top" xlink:title=" ">
<polygon fill="none" stroke="black" points="931.5,-89.5 931.5,-141.5 1107.5,-141.5 1107.5,-89.5 931.5,-89.5"/>
<text text-anchor="start" x="939.5" y="-129.5" font-family="Helvetica,sans-Serif" font-size="10.00">Components/Interfaces</text>
<text text-anchor="start" x="939.5" y="-118.5" font-family="Helvetica,sans-Serif" font-size="10.00">/SensorControllerBase</text>
<text text-anchor="start" x="939.5" y="-107.5" font-family="Helvetica,sans-Serif" font-size="10.00">/test/mock/SensorControllerBase</text>
<text text-anchor="middle" x="1019.5" y="-96.5" font-family="Helvetica,sans-Serif" font-size="10.00">_MOCK.hpp</text>
</a>
</g>
</g>
<!-- Node3&#45;&gt;Node9 -->
<g id="edge8" class="edge">
<title>Node3&#45;&gt;Node9</title>
<path fill="none" stroke="midnightblue" d="M876.18,-174.61C901.67,-164.28 931.69,-152.1 957.66,-141.58"/>
<polygon fill="midnightblue" stroke="midnightblue" points="874.6,-171.48 866.64,-178.48 877.23,-177.96 874.6,-171.48"/>
</g>
<!-- Node11 -->
<g id="node11" class="node">
<title>Node11</title>
<g id="a_node11"><a xlink:href="../../d8/d19/_sensor_controller_test_8cpp.html" target="_top" xlink:title=" ">
<polygon fill="none" stroke="black" points="903.5,-6 903.5,-47 1087.5,-47 1087.5,-6 903.5,-6"/>
<text text-anchor="start" x="911.5" y="-35" font-family="Helvetica,sans-Serif" font-size="10.00">Components/Interfaces</text>
<text text-anchor="start" x="911.5" y="-24" font-family="Helvetica,sans-Serif" font-size="10.00">/SensorControllerBase</text>
<text text-anchor="middle" x="995.5" y="-13" font-family="Helvetica,sans-Serif" font-size="10.00">/test/test/SensorControllerTest.cpp</text>
</a>
</g>
</g>
<!-- Node3&#45;&gt;Node11 -->
<g id="edge11" class="edge">
<title>Node3&#45;&gt;Node11</title>
<path fill="none" stroke="midnightblue" d="M852.56,-171.82C863.28,-162.88 874.84,-152.48 884.5,-142 904.14,-120.69 902.82,-110.28 922.5,-89 936.68,-73.67 954.58,-58.53 969.11,-47.11"/>
<polygon fill="midnightblue" stroke="midnightblue" points="850.09,-169.31 844.56,-178.35 854.52,-174.73 850.09,-169.31"/>
</g>
<!-- Node12 -->
<g id="node12" class="node">
<title>Node12</title>
<g id="a_node12"><a xlink:href="../../d0/dc1/_data_broker_8hpp.html" target="_top" xlink:title=" ">
<polygon fill="none" stroke="black" points="357.5,-95 357.5,-136 475.5,-136 475.5,-95 357.5,-95"/>
<text text-anchor="start" x="365.5" y="-124" font-family="Helvetica,sans-Serif" font-size="10.00">Components/Objects</text>
<text text-anchor="start" x="365.5" y="-113" font-family="Helvetica,sans-Serif" font-size="10.00">/DataBroker/include</text>
<text text-anchor="middle" x="416.5" y="-102" font-family="Helvetica,sans-Serif" font-size="10.00">/DataBroker.hpp</text>
</a>
</g>
</g>
<!-- Node3&#45;&gt;Node12 -->
<g id="edge12" class="edge">
<title>Node3&#45;&gt;Node12</title>
<path fill="none" stroke="midnightblue" d="M716.38,-177.86C612.52,-160.31 582.8,-167.73 484.5,-142 478.16,-140.34 471.59,-138.3 465.14,-136.11"/>
<polygon fill="midnightblue" stroke="midnightblue" points="715.88,-181.33 726.33,-179.58 717.07,-174.43 715.88,-181.33"/>
</g>
<!-- Node5 -->
<g id="node5" class="node">
<title>Node5</title>
<g id="a_node5"><a xlink:href="../../dd/dde/_distance_sensor_controller_8cpp.html" target="_top" xlink:title=" ">
<polygon fill="none" stroke="black" points="499.5,-6 499.5,-47 679.5,-47 679.5,-6 499.5,-6"/>
<text text-anchor="start" x="507.5" y="-35" font-family="Helvetica,sans-Serif" font-size="10.00">Components/Controller</text>
<text text-anchor="start" x="507.5" y="-24" font-family="Helvetica,sans-Serif" font-size="10.00">/DistanceSensorController</text>
<text text-anchor="middle" x="589.5" y="-13" font-family="Helvetica,sans-Serif" font-size="10.00">/src/DistanceSensorController.cpp</text>
</a>
</g>
</g>
<!-- Node4&#45;&gt;Node5 -->
<g id="edge4" class="edge">
<title>Node4&#45;&gt;Node5</title>
<path fill="none" stroke="midnightblue" d="M592.77,-84.44C592.06,-72.1 591.26,-58.16 590.63,-47.16"/>
<polygon fill="midnightblue" stroke="midnightblue" points="589.3,-84.98 593.37,-94.76 596.29,-84.57 589.3,-84.98"/>
</g>
<!-- Node6 -->
<g id="node6" class="node">
<title>Node6</title>
<g id="a_node6"><a xlink:href="../../d7/d91/_distance_sensor_controller__test_8cpp.html" target="_top" xlink:title=" ">
<polygon fill="none" stroke="black" points="698,-0.5 698,-52.5 885,-52.5 885,-0.5 698,-0.5"/>
<text text-anchor="start" x="706" y="-40.5" font-family="Helvetica,sans-Serif" font-size="10.00">Components/Controller</text>
<text text-anchor="start" x="706" y="-29.5" font-family="Helvetica,sans-Serif" font-size="10.00">/DistanceSensorController</text>
<text text-anchor="start" x="706" y="-18.5" font-family="Helvetica,sans-Serif" font-size="10.00">/test/test/DistanceSensorController</text>
<text text-anchor="middle" x="791.5" y="-7.5" font-family="Helvetica,sans-Serif" font-size="10.00">_test.cpp</text>
</a>
</g>
</g>
<!-- Node4&#45;&gt;Node6 -->
<g id="edge5" class="edge">
<title>Node4&#45;&gt;Node6</title>
<path fill="none" stroke="midnightblue" d="M647.96,-90.89C674.82,-79.03 707.38,-64.65 734.7,-52.58"/>
<polygon fill="midnightblue" stroke="midnightblue" points="646.44,-87.73 638.71,-94.98 649.27,-94.14 646.44,-87.73"/>
</g>
<!-- Node7 -->
<g id="node7" class="node">
<title>Node7</title>
<g id="a_node7"><a xlink:href="../../da/d75/_data_broker__test_8cpp.html" target="_top" xlink:title=" ">
<polygon fill="none" stroke="black" points="362,-6 362,-47 481,-47 481,-6 362,-6"/>
<text text-anchor="start" x="370" y="-35" font-family="Helvetica,sans-Serif" font-size="10.00">Components/Objects</text>
<text text-anchor="start" x="370" y="-24" font-family="Helvetica,sans-Serif" font-size="10.00">/DataBroker/test/test</text>
<text text-anchor="middle" x="421.5" y="-13" font-family="Helvetica,sans-Serif" font-size="10.00">/DataBroker_test.cpp</text>
</a>
</g>
</g>
<!-- Node4&#45;&gt;Node7 -->
<g id="edge6" class="edge">
<title>Node4&#45;&gt;Node7</title>
<path fill="none" stroke="midnightblue" d="M546.74,-90.48C519.59,-76.83 486.04,-59.96 460.49,-47.11"/>
<polygon fill="midnightblue" stroke="midnightblue" points="545.17,-93.61 555.68,-94.98 548.31,-87.36 545.17,-93.61"/>
</g>
<!-- Node10 -->
<g id="node10" class="node">
<title>Node10</title>
<g id="a_node10"><a xlink:href="../../dc/d0f/_sensor_controller_base___m_o_c_k_8cpp.html" target="_top" xlink:title=" ">
<polygon fill="none" stroke="black" points="1105.5,-0.5 1105.5,-52.5 1281.5,-52.5 1281.5,-0.5 1105.5,-0.5"/>
<text text-anchor="start" x="1113.5" y="-40.5" font-family="Helvetica,sans-Serif" font-size="10.00">Components/Interfaces</text>
<text text-anchor="start" x="1113.5" y="-29.5" font-family="Helvetica,sans-Serif" font-size="10.00">/SensorControllerBase</text>
<text text-anchor="start" x="1113.5" y="-18.5" font-family="Helvetica,sans-Serif" font-size="10.00">/test/mock/SensorControllerBase</text>
<text text-anchor="middle" x="1193.5" y="-7.5" font-family="Helvetica,sans-Serif" font-size="10.00">_MOCK.cpp</text>
</a>
</g>
</g>
<!-- Node9&#45;&gt;Node10 -->
<g id="edge9" class="edge">
<title>Node9&#45;&gt;Node10</title>
<path fill="none" stroke="midnightblue" d="M1078.95,-84.78C1099.88,-74.31 1123.19,-62.66 1143.29,-52.61"/>
<polygon fill="midnightblue" stroke="midnightblue" points="1077.21,-81.73 1069.83,-89.34 1080.34,-87.99 1077.21,-81.73"/>
</g>
<!-- Node9&#45;&gt;Node11 -->
<g id="edge10" class="edge">
<title>Node9&#45;&gt;Node11</title>
<path fill="none" stroke="midnightblue" d="M1009.84,-79.49C1006.8,-68.45 1003.54,-56.65 1000.9,-47.08"/>
<polygon fill="midnightblue" stroke="midnightblue" points="1006.52,-80.63 1012.56,-89.34 1013.27,-78.77 1006.52,-80.63"/>
</g>
<!-- Node12&#45;&gt;Node7 -->
<g id="edge14" class="edge">
<title>Node12&#45;&gt;Node7</title>
<path fill="none" stroke="midnightblue" d="M418.23,-84.44C418.94,-72.1 419.74,-58.16 420.37,-47.16"/>
<polygon fill="midnightblue" stroke="midnightblue" points="414.71,-84.57 417.63,-94.76 421.7,-84.98 414.71,-84.57"/>
</g>
<!-- Node13 -->
<g id="node13" class="node">
<title>Node13</title>
<g id="a_node13"><a xlink:href="../../d4/ddc/_data_broker_8cpp.html" target="_top" xlink:title=" ">
<polygon fill="none" stroke="black" points="175,-11.5 175,-41.5 344,-41.5 344,-11.5 175,-11.5"/>
<text text-anchor="start" x="183" y="-29.5" font-family="Helvetica,sans-Serif" font-size="10.00">Components/Objects</text>
<text text-anchor="middle" x="259.5" y="-18.5" font-family="Helvetica,sans-Serif" font-size="10.00">/DataBroker/src/DataBroker.cpp</text>
</a>
</g>
</g>
<!-- Node12&#45;&gt;Node13 -->
<g id="edge13" class="edge">
<title>Node12&#45;&gt;Node13</title>
<path fill="none" stroke="midnightblue" d="M372.37,-90.05C344.11,-74.39 308.44,-54.62 284.85,-41.55"/>
<polygon fill="midnightblue" stroke="midnightblue" points="370.82,-93.19 381.27,-94.98 374.22,-87.07 370.82,-93.19"/>
</g>
<!-- Node14&#45;&gt;Node12 -->
<g id="edge17" class="edge">
<title>Node14&#45;&gt;Node12</title>
<path fill="none" stroke="midnightblue" d="M322.6,-173.19C342.28,-161.3 365.53,-147.27 383.96,-136.14"/>
<polygon fill="midnightblue" stroke="midnightblue" points="320.59,-170.31 313.84,-178.48 324.21,-176.31 320.59,-170.31"/>
</g>
<!-- Node15 -->
<g id="node15" class="node">
<title>Node15</title>
<g id="a_node15"><a xlink:href="../../dc/d1d/_service__test_8cpp.html" target="_top" xlink:title=" ">
<polygon fill="none" stroke="black" points="33.5,-95 33.5,-136 163.5,-136 163.5,-95 33.5,-95"/>
<text text-anchor="start" x="41.5" y="-124" font-family="Helvetica,sans-Serif" font-size="10.00">Components/Interfaces</text>
<text text-anchor="start" x="41.5" y="-113" font-family="Helvetica,sans-Serif" font-size="10.00">/ServiceBase/test/test</text>
<text text-anchor="middle" x="98.5" y="-102" font-family="Helvetica,sans-Serif" font-size="10.00">/Service_test.cpp</text>
</a>
</g>
</g>
<!-- Node14&#45;&gt;Node15 -->
<g id="edge16" class="edge">
<title>Node14&#45;&gt;Node15</title>
<path fill="none" stroke="midnightblue" d="M228.26,-174.29C200.96,-162.13 168.11,-147.5 142.29,-136"/>
<polygon fill="midnightblue" stroke="midnightblue" points="227.11,-177.61 237.67,-178.48 229.96,-171.21 227.11,-177.61"/>
</g>
<!-- Node16 -->
<g id="node16" class="node">
<title>Node16</title>
<g id="a_node16"><a xlink:href="../../dd/d22/_water_estimator___service_8hpp.html" target="_top" xlink:title=" ">
<polygon fill="none" stroke="black" points="181.5,-95 181.5,-136 339.5,-136 339.5,-95 181.5,-95"/>
<text text-anchor="start" x="189.5" y="-124" font-family="Helvetica,sans-Serif" font-size="10.00">Components/Service</text>
<text text-anchor="start" x="189.5" y="-113" font-family="Helvetica,sans-Serif" font-size="10.00">/WaterEstimator/include</text>
<text text-anchor="middle" x="260.5" y="-102" font-family="Helvetica,sans-Serif" font-size="10.00">/WaterEstimator_Service.hpp</text>
</a>
</g>
</g>
<!-- Node14&#45;&gt;Node16 -->
<g id="edge18" class="edge">
<title>Node14&#45;&gt;Node16</title>
<path fill="none" stroke="midnightblue" d="M273.87,-168.4C271.1,-157.63 268.03,-145.73 265.54,-136.05"/>
<polygon fill="midnightblue" stroke="midnightblue" points="270.53,-169.46 276.42,-178.27 277.31,-167.71 270.53,-169.46"/>
</g>
<!-- Node17 -->
<g id="node17" class="node">
<title>Node17</title>
<g id="a_node17"><a xlink:href="../../dd/dd3/_water_estimator___service_8cpp.html" target="_top" xlink:title=" ">
<polygon fill="none" stroke="black" points="0,-6 0,-47 157,-47 157,-6 0,-6"/>
<text text-anchor="start" x="8" y="-35" font-family="Helvetica,sans-Serif" font-size="10.00">Components/Service</text>
<text text-anchor="start" x="8" y="-24" font-family="Helvetica,sans-Serif" font-size="10.00">/WaterEstimator/src</text>
<text text-anchor="middle" x="78.5" y="-13" font-family="Helvetica,sans-Serif" font-size="10.00">/WaterEstimator_Service.cpp</text>
</a>
</g>
</g>
<!-- Node16&#45;&gt;Node17 -->
<g id="edge19" class="edge">
<title>Node16&#45;&gt;Node17</title>
<path fill="none" stroke="midnightblue" d="M210.62,-90.66C182,-76.98 146.51,-60.01 119.52,-47.11"/>
<polygon fill="midnightblue" stroke="midnightblue" points="209.12,-93.82 219.66,-94.98 212.14,-87.5 209.12,-93.82"/>
</g>
<!-- Node21 -->
<g id="node21" class="node">
<title>Node21</title>
<g id="a_node21"><a xlink:href="../../dd/ddd/_maintainer_8cpp.html" target="_top" xlink:title=" ">
<polygon fill="none" stroke="black" points="1291.5,-100.5 1291.5,-130.5 1455.5,-130.5 1455.5,-100.5 1291.5,-100.5"/>
<text text-anchor="start" x="1299.5" y="-118.5" font-family="Helvetica,sans-Serif" font-size="10.00">Components/Objects</text>
<text text-anchor="middle" x="1373.5" y="-107.5" font-family="Helvetica,sans-Serif" font-size="10.00">/Maintainer/src/Maintainer.cpp</text>
</a>
</g>
</g>
<!-- Node20&#45;&gt;Node21 -->
<g id="edge23" class="edge">
<title>Node20&#45;&gt;Node21</title>
<path fill="none" stroke="midnightblue" d="M1360.12,-168.41C1363.44,-155.54 1367.17,-141.07 1369.85,-130.68"/>
<polygon fill="midnightblue" stroke="midnightblue" points="1356.69,-167.71 1357.58,-178.27 1363.47,-169.46 1356.69,-167.71"/>
</g>
<!-- Node22 -->
<g id="node22" class="node">
<title>Node22</title>
<g id="a_node22"><a xlink:href="../../d8/d4a/maintainer__test_8cpp.html" target="_top" xlink:title=" ">
<polygon fill="none" stroke="black" points="1473.5,-95 1473.5,-136 1591.5,-136 1591.5,-95 1473.5,-95"/>
<text text-anchor="start" x="1481.5" y="-124" font-family="Helvetica,sans-Serif" font-size="10.00">Components/Objects</text>
<text text-anchor="start" x="1481.5" y="-113" font-family="Helvetica,sans-Serif" font-size="10.00">/Maintainer/test/test</text>
<text text-anchor="middle" x="1532.5" y="-102" font-family="Helvetica,sans-Serif" font-size="10.00">/maintainer_test.cpp</text>
</a>
</g>
</g>
<!-- Node20&#45;&gt;Node22 -->
<g id="edge24" class="edge">
<title>Node20&#45;&gt;Node22</title>
<path fill="none" stroke="midnightblue" d="M1404.87,-174.29C1431.72,-162.13 1464.03,-147.5 1489.43,-136"/>
<polygon fill="midnightblue" stroke="midnightblue" points="1403.28,-171.17 1395.61,-178.48 1406.17,-177.54 1403.28,-171.17"/>
</g>
<!-- Node23 -->
<g id="node23" class="node">
<title>Node23</title>
<g id="a_node23"><a xlink:href="../../dd/d82/_active_current_sensor_8hpp.html" target="_top" xlink:title=" ">
<polygon fill="none" stroke="black" points="1125.5,-95 1125.5,-136 1273.5,-136 1273.5,-95 1125.5,-95"/>
<text text-anchor="start" x="1133.5" y="-124" font-family="Helvetica,sans-Serif" font-size="10.00">Components/Sensor/Active</text>
<text text-anchor="start" x="1133.5" y="-113" font-family="Helvetica,sans-Serif" font-size="10.00">CurrentSensor/include</text>
<text text-anchor="middle" x="1199.5" y="-102" font-family="Helvetica,sans-Serif" font-size="10.00">/ActiveCurrentSensor.hpp</text>
</a>
</g>
</g>
<!-- Node20&#45;&gt;Node23 -->
<g id="edge25" class="edge">
<title>Node20&#45;&gt;Node23</title>
<path fill="none" stroke="midnightblue" d="M1306.79,-173.65C1284.2,-161.62 1257.32,-147.3 1236.11,-136"/>
<polygon fill="midnightblue" stroke="midnightblue" points="1305.38,-176.87 1315.85,-178.48 1308.67,-170.69 1305.38,-176.87"/>
</g>
<!-- Node24 -->
<g id="node24" class="node">
<title>Node24</title>
<g id="a_node24"><a xlink:href="../../d2/d77/_active_current_sensor_8cpp.html" target="_top" xlink:title=" ">
<polygon fill="none" stroke="black" points="1300,-6 1300,-47 1473,-47 1473,-6 1300,-6"/>
<text text-anchor="start" x="1308" y="-35" font-family="Helvetica,sans-Serif" font-size="10.00">Components/Sensor/Active</text>
<text text-anchor="start" x="1308" y="-24" font-family="Helvetica,sans-Serif" font-size="10.00">CurrentSensor/src/ActiveCurrent</text>
<text text-anchor="middle" x="1386.5" y="-13" font-family="Helvetica,sans-Serif" font-size="10.00">Sensor.cpp</text>
</a>
</g>
</g>
<!-- Node23&#45;&gt;Node24 -->
<g id="edge26" class="edge">
<title>Node23&#45;&gt;Node24</title>
<path fill="none" stroke="midnightblue" d="M1250.75,-90.66C1280.15,-76.98 1316.62,-60.01 1344.35,-47.11"/>
<polygon fill="midnightblue" stroke="midnightblue" points="1249.06,-87.58 1241.47,-94.98 1252.01,-93.93 1249.06,-87.58"/>
</g>
<!-- Node25&#45;&gt;Node3 -->
<g id="edge28" class="edge">
<title>Node25&#45;&gt;Node3</title>
<path fill="none" stroke="midnightblue" d="M724.66,-256.6C743.37,-245.31 766.9,-231.12 785.72,-219.77"/>
<polygon fill="midnightblue" stroke="midnightblue" points="722.66,-253.72 715.9,-261.88 726.28,-259.72 722.66,-253.72"/>
</g>
<!-- Node25&#45;&gt;Node14 -->
<g id="edge29" class="edge">
<title>Node25&#45;&gt;Node14</title>
<path fill="none" stroke="midnightblue" d="M588.21,-261.4C521.37,-251.38 432.95,-236.86 355.5,-220 352.64,-219.38 349.72,-218.71 346.78,-218.02"/>
<polygon fill="midnightblue" stroke="midnightblue" points="587.92,-264.9 598.33,-262.91 588.95,-257.97 587.92,-264.9"/>
</g>
<!-- Node25&#45;&gt;Node23 -->
<g id="edge32" class="edge">
<title>Node25&#45;&gt;Node23</title>
<path fill="none" stroke="midnightblue" d="M796.66,-263.64C837.09,-255.53 882.48,-242.12 919.5,-220 941.11,-207.09 935.77,-190.7 957.5,-178 1020.05,-141.43 1046.49,-160.65 1116.5,-142 1123.35,-140.18 1130.48,-138.16 1137.56,-136.09"/>
<polygon fill="midnightblue" stroke="midnightblue" points="795.92,-260.22 786.76,-265.54 797.24,-267.09 795.92,-260.22"/>
</g>
<!-- Node26 -->
<g id="node26" class="node">
<title>Node26</title>
<g id="a_node26"><a xlink:href="../../d2/d93/_m_q_t_t___message_8cpp.html" target="_top" xlink:title=" ">
<polygon fill="none" stroke="black" points="364.5,-184 364.5,-214 530.5,-214 530.5,-184 364.5,-184"/>
<text text-anchor="start" x="372.5" y="-202" font-family="Helvetica,sans-Serif" font-size="10.00">Components/Protocols</text>
<text text-anchor="middle" x="447.5" y="-191" font-family="Helvetica,sans-Serif" font-size="10.00">/MQTT/src/MQTT_Message.cpp</text>
</a>
</g>
</g>
<!-- Node25&#45;&gt;Node26 -->
<g id="edge30" class="edge">
<title>Node25&#45;&gt;Node26</title>
<path fill="none" stroke="midnightblue" d="M637.69,-259C594.08,-245.47 533.8,-226.77 492.87,-214.07"/>
<polygon fill="midnightblue" stroke="midnightblue" points="636.69,-262.35 647.28,-261.97 638.76,-255.67 636.69,-262.35"/>
</g>
<!-- Node27 -->
<g id="node27" class="node">
<title>Node27</title>
<g id="a_node27"><a xlink:href="../../d2/d40/msg__test_8cpp.html" target="_top" xlink:title=" ">
<polygon fill="none" stroke="black" points="548.5,-184 548.5,-214 708.5,-214 708.5,-184 548.5,-184"/>
<text text-anchor="start" x="556.5" y="-202" font-family="Helvetica,sans-Serif" font-size="10.00">Components/Protocols</text>
<text text-anchor="middle" x="628.5" y="-191" font-family="Helvetica,sans-Serif" font-size="10.00">/MQTT/test/test/msg_test.cpp</text>
</a>
</g>
</g>
<!-- Node25&#45;&gt;Node27 -->
<g id="edge31" class="edge">
<title>Node25&#45;&gt;Node27</title>
<path fill="none" stroke="midnightblue" d="M673.81,-253.81C663.05,-241.03 649.86,-225.36 640.48,-214.23"/>
<polygon fill="midnightblue" stroke="midnightblue" points="671.34,-256.31 680.46,-261.7 676.7,-251.8 671.34,-256.31"/>
</g>
</g>
</svg>
        <g id="navigator" transform="translate(0 0)" fill="#404254">
                <rect fill="#f2f5e9" fill-opacity="0.5" stroke="#606060" stroke-width=".5" x="0" y="0" width="60" height="60"/>
                <use id="zoomplus" xlink:href="#zoomPlus" x="17" y="9" onmousedown="handleZoom(evt,'in')"/>
                <use id="zoomminus" xlink:href="#zoomMin" x="42" y="9" onmousedown="handleZoom(evt,'out')"/>
                <use id="reset" xlink:href="#resetDef" x="30" y="36" onmousedown="handleReset()"/>
                <g id="arrowUp" xlink:href="#dirArrow" transform="translate(30 24)" onmousedown="handlePan(0,-1)">
                  <use xlink:href="#rim" fill="#404040">
                        <set attributeName="fill" to="#808080" begin="arrowUp.mouseover" end="arrowUp.mouseout"/>
                  </use>
                  <path fill="none" stroke="white" stroke-width="1.5" d="M0,-3.0v7 M-2.5,-0.5L0,-3.0L2.5,-0.5"/>
                </g>
                <g id="arrowRight" xlink:href="#dirArrow" transform="rotate(90) translate(36 -43)" onmousedown="handlePan(1,0)">
                  <use xlink:href="#rim" fill="#404040">
                        <set attributeName="fill" to="#808080" begin="arrowRight.mouseover" end="arrowRight.mouseout"/>
                  </use>
                  <path fill="none" stroke="white" stroke-width="1.5" d="M0,-3.0v7 M-2.5,-0.5L0,-3.0L2.5,-0.5"/>
                </g>
                <g id="arrowDown" xlink:href="#dirArrow" transform="rotate(180) translate(-30 -48)" onmousedown="handlePan(0,1)">
                  <use xlink:href="#rim" fill="#404040">
                        <set attributeName="fill" to="#808080" begin="arrowDown.mouseover" end="arrowDown.mouseout"/>
                  </use>
                  <path fill="none" stroke="white" stroke-width="1.5" d="M0,-3.0v7 M-2.5,-0.5L0,-3.0L2.5,-0.5"/>
                </g>
                <g id="arrowLeft" xlink:href="#dirArrow" transform="rotate(270) translate(-36 17)" onmousedown="handlePan(-1,0)">
                  <use xlink:href="#rim" fill="#404040">
                        <set attributeName="fill" to="#808080" begin="arrowLeft.mouseover" end="arrowLeft.mouseout"/>
                  </use>
                  <path fill="none" stroke="white" stroke-width="1.5" d="M0,-3.0v7 M-2.5,-0.5L0,-3.0L2.5,-0.5"/>
                </g>
        </g>
        <svg viewBox="0 0 15 15" width="100%" height="30px" preserveAspectRatio="xMaxYMin meet">
         <g id="arrow_out" transform="scale(0.3 0.3)">
          <a xlink:href="_database___i_d___base_8hpp__dep__incl_org.svg" target="_base">
           <rect id="button" ry="5" rx="5" y="6" x="6" height="38" width="38"
                fill="#f2f5e9" fill-opacity="0.5" stroke="#606060" stroke-width="1.0"/>
           <path id="arrow"
             d="M 11.500037,31.436501 C 11.940474,20.09759 22.043105,11.32322 32.158766,21.979434 L 37.068811,17.246167 C 37.068811,17.246167 37.088388,32 37.088388,32 L 22.160133,31.978069 C 22.160133,31.978069 26.997745,27.140456 26.997745,27.140456 C 18.528582,18.264221 13.291696,25.230495 11.500037,31.436501 z"
             style="fill:#404040;"/>
          </a>
         </g>
        </svg>
</svg>
