<?xml version="1.0" encoding="UTF-8" standalone="no"?>
<!DOCTYPE svg PUBLIC "-//W3C//DTD SVG 1.1//EN"
 "http://www.w3.org/Graphics/SVG/1.1/DTD/svg11.dtd">
<!-- Generated by graphviz version 2.43.0 (0)
 -->
<!-- Title: Components/Global_Include/Database_ID_Base.hpp Pages: 1 -->
<svg width="2308pt" height="451pt"
 viewBox="0.00 0.00 2308.00 451.00" xmlns="http://www.w3.org/2000/svg" xmlns:xlink="http://www.w3.org/1999/xlink">
<g id="graph0" class="graph" transform="scale(1 1) rotate(0) translate(4 447)">
<title>Components/Global_Include/Database_ID_Base.hpp</title>
<!-- Node1 -->
<g id="node1" class="node">
<title>Node1</title>
<g id="a_node1"><a xlink:title=" ">
<polygon fill="#bfbfbf" stroke="black" points="1385.5,-412.5 1385.5,-442.5 1538.5,-442.5 1538.5,-412.5 1385.5,-412.5"/>
<text text-anchor="start" x="1393.5" y="-430.5" font-family="Helvetica,sans-Serif" font-size="10.00">Components/Global_Include</text>
<text text-anchor="middle" x="1462" y="-419.5" font-family="Helvetica,sans-Serif" font-size="10.00">/Database_ID_Base.hpp</text>
</a>
</g>
</g>
<!-- Node2 -->
<g id="node2" class="node">
<title>Node2</title>
<g id="a_node2"><a xlink:href="../../d3/d0d/_error_code_parser_8hpp.html" target="_top" xlink:title=" ">
<polygon fill="none" stroke="black" points="1520.5,-334.5 1520.5,-375.5 1639.5,-375.5 1639.5,-334.5 1520.5,-334.5"/>
<text text-anchor="start" x="1528.5" y="-363.5" font-family="Helvetica,sans-Serif" font-size="10.00">Components/Objects</text>
<text text-anchor="start" x="1528.5" y="-352.5" font-family="Helvetica,sans-Serif" font-size="10.00">/ErrorHandler/include</text>
<text text-anchor="middle" x="1580" y="-341.5" font-family="Helvetica,sans-Serif" font-size="10.00">/ErrorCodeParser.hpp</text>
</a>
</g>
</g>
<!-- Node1&#45;&gt;Node2 -->
<g id="edge1" class="edge">
<title>Node1&#45;&gt;Node2</title>
<path fill="none" stroke="midnightblue" d="M1494.3,-407.2C1510.7,-397.41 1530.58,-385.53 1547.06,-375.68"/>
<polygon fill="midnightblue" stroke="midnightblue" points="1492.38,-404.27 1485.6,-412.4 1495.98,-410.28 1492.38,-404.27"/>
</g>
<!-- Node14 -->
<g id="node14" class="node">
<title>Node14</title>
<g id="a_node14"><a xlink:href="../../d2/dc5/_service_base_8hpp.html" target="_top" xlink:title=" ">
<polygon fill="none" stroke="black" points="1150,-256.5 1150,-297.5 1280,-297.5 1280,-256.5 1150,-256.5"/>
<text text-anchor="start" x="1158" y="-285.5" font-family="Helvetica,sans-Serif" font-size="10.00">Components/Interfaces</text>
<text text-anchor="start" x="1158" y="-274.5" font-family="Helvetica,sans-Serif" font-size="10.00">/ServiceBase/include</text>
<text text-anchor="middle" x="1215" y="-263.5" font-family="Helvetica,sans-Serif" font-size="10.00">/ServiceBase.hpp</text>
</a>
</g>
</g>
<!-- Node1&#45;&gt;Node14 -->
<g id="edge44" class="edge">
<title>Node1&#45;&gt;Node14</title>
<path fill="none" stroke="midnightblue" d="M1375.13,-417.66C1340.65,-410.68 1302.31,-398.23 1273,-376 1246.53,-355.93 1229.83,-320 1221.47,-297.67"/>
<polygon fill="midnightblue" stroke="midnightblue" points="1374.74,-421.15 1385.22,-419.57 1376.05,-414.27 1374.74,-421.15"/>
</g>
<!-- Node30 -->
<g id="node30" class="node">
<title>Node30</title>
<g id="a_node30"><a xlink:href="../../d0/d6a/_maintainer_8hpp.html" target="_top" xlink:title=" ">
<polygon fill="none" stroke="black" points="1865,-256.5 1865,-297.5 1983,-297.5 1983,-256.5 1865,-256.5"/>
<text text-anchor="start" x="1873" y="-285.5" font-family="Helvetica,sans-Serif" font-size="10.00">Components/Objects</text>
<text text-anchor="start" x="1873" y="-274.5" font-family="Helvetica,sans-Serif" font-size="10.00">/Maintainer/include</text>
<text text-anchor="middle" x="1924" y="-263.5" font-family="Helvetica,sans-Serif" font-size="10.00">/Maintainer.hpp</text>
</a>
</g>
</g>
<!-- Node1&#45;&gt;Node30 -->
<g id="edge45" class="edge">
<title>Node1&#45;&gt;Node30</title>
<path fill="none" stroke="midnightblue" d="M1528.66,-409.86C1564.52,-400.56 1609.39,-388.38 1649,-376 1727.97,-351.31 1818.05,-318.26 1872.96,-297.55"/>
<polygon fill="midnightblue" stroke="midnightblue" points="1527.61,-406.51 1518.8,-412.4 1529.35,-413.29 1527.61,-406.51"/>
</g>
<!-- Node35 -->
<g id="node35" class="node">
<title>Node35</title>
<g id="a_node35"><a xlink:href="../../d1/da7/_m_q_t_t___message_8hpp.html" target="_top" xlink:title=" ">
<polygon fill="none" stroke="black" points="1282,-340 1282,-370 1470,-370 1470,-340 1282,-340"/>
<text text-anchor="start" x="1290" y="-358" font-family="Helvetica,sans-Serif" font-size="10.00">Components/Protocols</text>
<text text-anchor="middle" x="1376" y="-347" font-family="Helvetica,sans-Serif" font-size="10.00">/MQTT/include/MQTT_Message.hpp</text>
</a>
</g>
</g>
<!-- Node1&#45;&gt;Node35 -->
<g id="edge38" class="edge">
<title>Node1&#45;&gt;Node35</title>
<path fill="none" stroke="midnightblue" d="M1436.73,-405.79C1422.68,-394.27 1405.56,-380.23 1393.08,-370"/>
<polygon fill="midnightblue" stroke="midnightblue" points="1434.64,-408.6 1444.6,-412.23 1439.08,-403.19 1434.64,-408.6"/>
</g>
<!-- Node3 -->
<g id="node3" class="node">
<title>Node3</title>
<g id="a_node3"><a xlink:href="../../d9/d1c/_sensor_controller_base_8hpp.html" target="_top" xlink:title=" ">
<polygon fill="none" stroke="black" points="1298,-256.5 1298,-297.5 1482,-297.5 1482,-256.5 1298,-256.5"/>
<text text-anchor="start" x="1306" y="-285.5" font-family="Helvetica,sans-Serif" font-size="10.00">Components/Interfaces</text>
<text text-anchor="start" x="1306" y="-274.5" font-family="Helvetica,sans-Serif" font-size="10.00">/SensorControllerBase</text>
<text text-anchor="middle" x="1390" y="-263.5" font-family="Helvetica,sans-Serif" font-size="10.00">/include/SensorControllerBase.hpp</text>
</a>
</g>
</g>
<!-- Node2&#45;&gt;Node3 -->
<g id="edge2" class="edge">
<title>Node2&#45;&gt;Node3</title>
<path fill="none" stroke="midnightblue" d="M1521.52,-330.61C1495,-320 1464,-307.6 1438.76,-297.51"/>
<polygon fill="midnightblue" stroke="midnightblue" points="1520.49,-333.96 1531.07,-334.43 1523.09,-327.46 1520.49,-333.96"/>
</g>
<!-- Node2&#45;&gt;Node14 -->
<g id="edge15" class="edge">
<title>Node2&#45;&gt;Node14</title>
<path fill="none" stroke="midnightblue" d="M1510.46,-340.15C1499.92,-338.08 1489.17,-335.97 1479,-334 1394.62,-317.65 1372.77,-317.23 1289,-298 1286.15,-297.35 1283.24,-296.65 1280.3,-295.94"/>
<polygon fill="midnightblue" stroke="midnightblue" points="1509.98,-343.62 1520.47,-342.13 1511.33,-336.76 1509.98,-343.62"/>
</g>
<!-- Node28 -->
<g id="node28" class="node">
<title>Node28</title>
<g id="a_node28"><a xlink:href="../../d2/df5/_error_code_parser_8cpp.html" target="_top" xlink:title=" ">
<polygon fill="none" stroke="black" points="1537.5,-256.5 1537.5,-297.5 1686.5,-297.5 1686.5,-256.5 1537.5,-256.5"/>
<text text-anchor="start" x="1545.5" y="-285.5" font-family="Helvetica,sans-Serif" font-size="10.00">Components/Objects</text>
<text text-anchor="start" x="1545.5" y="-274.5" font-family="Helvetica,sans-Serif" font-size="10.00">/ErrorHandler/src/ErrorCode</text>
<text text-anchor="middle" x="1612" y="-263.5" font-family="Helvetica,sans-Serif" font-size="10.00">Parser.cpp</text>
</a>
</g>
</g>
<!-- Node2&#45;&gt;Node28 -->
<g id="edge31" class="edge">
<title>Node2&#45;&gt;Node28</title>
<path fill="none" stroke="midnightblue" d="M1592.14,-325.17C1596.03,-315.93 1600.24,-305.92 1603.79,-297.51"/>
<polygon fill="midnightblue" stroke="midnightblue" points="1588.9,-323.85 1588.24,-334.43 1595.35,-326.57 1588.9,-323.85"/>
</g>
<!-- Node29 -->
<g id="node29" class="node">
<title>Node29</title>
<g id="a_node29"><a xlink:href="../../d9/db8/_error_code_parser__test_8cpp.html" target="_top" xlink:title=" ">
<polygon fill="none" stroke="black" points="1705,-256.5 1705,-297.5 1847,-297.5 1847,-256.5 1705,-256.5"/>
<text text-anchor="start" x="1713" y="-285.5" font-family="Helvetica,sans-Serif" font-size="10.00">Components/Objects</text>
<text text-anchor="start" x="1713" y="-274.5" font-family="Helvetica,sans-Serif" font-size="10.00">/ErrorHandler/test/test</text>
<text text-anchor="middle" x="1776" y="-263.5" font-family="Helvetica,sans-Serif" font-size="10.00">/ErrorCodeParser_test.cpp</text>
</a>
</g>
</g>
<!-- Node2&#45;&gt;Node29 -->
<g id="edge32" class="edge">
<title>Node2&#45;&gt;Node29</title>
<path fill="none" stroke="midnightblue" d="M1639.97,-330.75C1667.4,-320.11 1699.55,-307.65 1725.7,-297.51"/>
<polygon fill="midnightblue" stroke="midnightblue" points="1638.53,-327.55 1630.47,-334.43 1641.06,-334.08 1638.53,-327.55"/>
</g>
<!-- Node2&#45;&gt;Node30 -->
<g id="edge33" class="edge">
<title>Node2&#45;&gt;Node30</title>
<path fill="none" stroke="midnightblue" d="M1649.72,-341.57C1705.75,-331.17 1786.31,-315.29 1856,-298 1858.87,-297.29 1861.79,-296.54 1864.74,-295.75"/>
<polygon fill="midnightblue" stroke="midnightblue" points="1648.75,-338.19 1639.55,-343.45 1650.02,-345.07 1648.75,-338.19"/>
</g>
<!-- Node4 -->
<g id="node4" class="node">
<title>Node4</title>
<g id="a_node4"><a xlink:href="../../db/d12/_distance_sensor_controller_8hpp.html" target="_top" xlink:title=" ">
<polygon fill="none" stroke="black" points="1434,-173 1434,-214 1636,-214 1636,-173 1434,-173"/>
<text text-anchor="start" x="1442" y="-202" font-family="Helvetica,sans-Serif" font-size="10.00">Components/Controller</text>
<text text-anchor="start" x="1442" y="-191" font-family="Helvetica,sans-Serif" font-size="10.00">/DistanceSensorController</text>
<text text-anchor="middle" x="1535" y="-180" font-family="Helvetica,sans-Serif" font-size="10.00">/include/DistanceSensorController.hpp</text>
</a>
</g>
</g>
<!-- Node3&#45;&gt;Node4 -->
<g id="edge3" class="edge">
<title>Node3&#45;&gt;Node4</title>
<path fill="none" stroke="midnightblue" d="M1433.61,-251.49C1454.95,-239.49 1480.29,-225.25 1500.3,-214"/>
<polygon fill="midnightblue" stroke="midnightblue" points="1431.73,-248.53 1424.73,-256.48 1435.16,-254.63 1431.73,-248.53"/>
</g>
<!-- Node8 -->
<g id="node8" class="node">
<title>Node8</title>
<g id="a_node8"><a xlink:href="../../d2/d8d/_sensor_controller_base_8cpp.html" target="_top" xlink:title=" ">
<polygon fill="none" stroke="black" points="1654,-173 1654,-214 1816,-214 1816,-173 1654,-173"/>
<text text-anchor="start" x="1662" y="-202" font-family="Helvetica,sans-Serif" font-size="10.00">Components/Interfaces</text>
<text text-anchor="start" x="1662" y="-191" font-family="Helvetica,sans-Serif" font-size="10.00">/SensorControllerBase</text>
<text text-anchor="middle" x="1735" y="-180" font-family="Helvetica,sans-Serif" font-size="10.00">/src/SensorControllerBase.cpp</text>
</a>
</g>
</g>
<!-- Node3&#45;&gt;Node8 -->
<g id="edge7" class="edge">
<title>Node3&#45;&gt;Node8</title>
<path fill="none" stroke="midnightblue" d="M1491.92,-255.08C1538.71,-245.1 1594.83,-232.6 1645,-220 1652.4,-218.14 1660.12,-216.1 1667.79,-214.02"/>
<polygon fill="midnightblue" stroke="midnightblue" points="1491.13,-251.67 1482.08,-257.17 1492.59,-258.52 1491.13,-251.67"/>
</g>
<!-- Node9 -->
<g id="node9" class="node">
<title>Node9</title>
<g id="a_node9"><a xlink:href="../../db/dc2/_sensor_controller_base___m_o_c_k_8hpp.html" target="_top" xlink:title=" ">
<polygon fill="none" stroke="black" points="1186,-167.5 1186,-219.5 1362,-219.5 1362,-167.5 1186,-167.5"/>
<text text-anchor="start" x="1194" y="-207.5" font-family="Helvetica,sans-Serif" font-size="10.00">Components/Interfaces</text>
<text text-anchor="start" x="1194" y="-196.5" font-family="Helvetica,sans-Serif" font-size="10.00">/SensorControllerBase</text>
<text text-anchor="start" x="1194" y="-185.5" font-family="Helvetica,sans-Serif" font-size="10.00">/test/mock/SensorControllerBase</text>
<text text-anchor="middle" x="1274" y="-174.5" font-family="Helvetica,sans-Serif" font-size="10.00">_MOCK.hpp</text>
</a>
</g>
</g>
<!-- Node3&#45;&gt;Node9 -->
<g id="edge8" class="edge">
<title>Node3&#45;&gt;Node9</title>
<path fill="none" stroke="midnightblue" d="M1353.8,-250.57C1339.82,-240.74 1323.86,-229.53 1309.91,-219.73"/>
<polygon fill="midnightblue" stroke="midnightblue" points="1352.02,-253.59 1362.22,-256.48 1356.04,-247.87 1352.02,-253.59"/>
</g>
<!-- Node11 -->
<g id="node11" class="node">
<title>Node11</title>
<g id="a_node11"><a xlink:href="../../d8/d19/_sensor_controller_test_8cpp.html" target="_top" xlink:title=" ">
<polygon fill="none" stroke="black" points="1271,-84 1271,-125 1455,-125 1455,-84 1271,-84"/>
<text text-anchor="start" x="1279" y="-113" font-family="Helvetica,sans-Serif" font-size="10.00">Components/Interfaces</text>
<text text-anchor="start" x="1279" y="-102" font-family="Helvetica,sans-Serif" font-size="10.00">/SensorControllerBase</text>
<text text-anchor="middle" x="1363" y="-91" font-family="Helvetica,sans-Serif" font-size="10.00">/test/test/SensorControllerTest.cpp</text>
</a>
</g>
</g>
<!-- Node3&#45;&gt;Node11 -->
<g id="edge11" class="edge">
<title>Node3&#45;&gt;Node11</title>
<path fill="none" stroke="midnightblue" d="M1385.31,-246.4C1379.8,-211.61 1370.81,-154.84 1366.1,-125.09"/>
<polygon fill="midnightblue" stroke="midnightblue" points="1381.88,-247.11 1386.9,-256.44 1388.8,-246.02 1381.88,-247.11"/>
</g>
<!-- Node12 -->
<g id="node12" class="node">
<title>Node12</title>
<g id="a_node12"><a xlink:href="../../d0/dc1/_data_broker_8hpp.html" target="_top" xlink:title=" ">
<polygon fill="none" stroke="black" points="941,-84 941,-125 1059,-125 1059,-84 941,-84"/>
<text text-anchor="start" x="949" y="-113" font-family="Helvetica,sans-Serif" font-size="10.00">Components/Objects</text>
<text text-anchor="start" x="949" y="-102" font-family="Helvetica,sans-Serif" font-size="10.00">/DataBroker/include</text>
<text text-anchor="middle" x="1000" y="-91" font-family="Helvetica,sans-Serif" font-size="10.00">/DataBroker.hpp</text>
</a>
</g>
</g>
<!-- Node3&#45;&gt;Node12 -->
<g id="edge12" class="edge">
<title>Node3&#45;&gt;Node12</title>
<path fill="none" stroke="midnightblue" d="M1294.95,-254.11C1248.72,-242.84 1198.55,-229.51 1177,-220 1118.57,-194.21 1057.56,-150.38 1024.63,-125.08"/>
<polygon fill="midnightblue" stroke="midnightblue" points="1294.2,-257.53 1304.74,-256.48 1295.84,-250.73 1294.2,-257.53"/>
</g>
<!-- Node5 -->
<g id="node5" class="node">
<title>Node5</title>
<g id="a_node5"><a xlink:href="../../dd/dde/_distance_sensor_controller_8cpp.html" target="_top" xlink:title=" ">
<polygon fill="none" stroke="black" points="1473,-84 1473,-125 1653,-125 1653,-84 1473,-84"/>
<text text-anchor="start" x="1481" y="-113" font-family="Helvetica,sans-Serif" font-size="10.00">Components/Controller</text>
<text text-anchor="start" x="1481" y="-102" font-family="Helvetica,sans-Serif" font-size="10.00">/DistanceSensorController</text>
<text text-anchor="middle" x="1563" y="-91" font-family="Helvetica,sans-Serif" font-size="10.00">/src/DistanceSensorController.cpp</text>
</a>
</g>
</g>
<!-- Node4&#45;&gt;Node5 -->
<g id="edge4" class="edge">
<title>Node4&#45;&gt;Node5</title>
<path fill="none" stroke="midnightblue" d="M1544.43,-163.19C1548.46,-150.67 1553.06,-136.38 1556.67,-125.16"/>
<polygon fill="midnightblue" stroke="midnightblue" points="1541.09,-162.17 1541.35,-172.76 1547.75,-164.31 1541.09,-162.17"/>
</g>
<!-- Node6 -->
<g id="node6" class="node">
<title>Node6</title>
<g id="a_node6"><a xlink:href="../../d7/d91/_distance_sensor_controller__test_8cpp.html" target="_top" xlink:title=" ">
<polygon fill="none" stroke="black" points="1671.5,-78.5 1671.5,-130.5 1858.5,-130.5 1858.5,-78.5 1671.5,-78.5"/>
<text text-anchor="start" x="1679.5" y="-118.5" font-family="Helvetica,sans-Serif" font-size="10.00">Components/Controller</text>
<text text-anchor="start" x="1679.5" y="-107.5" font-family="Helvetica,sans-Serif" font-size="10.00">/DistanceSensorController</text>
<text text-anchor="start" x="1679.5" y="-96.5" font-family="Helvetica,sans-Serif" font-size="10.00">/test/test/DistanceSensorController</text>
<text text-anchor="middle" x="1765" y="-85.5" font-family="Helvetica,sans-Serif" font-size="10.00">_test.cpp</text>
</a>
</g>
</g>
<!-- Node4&#45;&gt;Node6 -->
<g id="edge5" class="edge">
<title>Node4&#45;&gt;Node6</title>
<path fill="none" stroke="midnightblue" d="M1596.18,-169.36C1627.78,-157.4 1666.38,-142.81 1698.68,-130.58"/>
<polygon fill="midnightblue" stroke="midnightblue" points="1594.73,-166.16 1586.62,-172.98 1597.21,-172.71 1594.73,-166.16"/>
</g>
<!-- Node7 -->
<g id="node7" class="node">
<title>Node7</title>
<g id="a_node7"><a xlink:href="../../da/d75/_data_broker__test_8cpp.html" target="_top" xlink:title=" ">
<polygon fill="none" stroke="black" points="1476.5,-0.5 1476.5,-41.5 1595.5,-41.5 1595.5,-0.5 1476.5,-0.5"/>
<text text-anchor="start" x="1484.5" y="-29.5" font-family="Helvetica,sans-Serif" font-size="10.00">Components/Objects</text>
<text text-anchor="start" x="1484.5" y="-18.5" font-family="Helvetica,sans-Serif" font-size="10.00">/DataBroker/test/test</text>
<text text-anchor="middle" x="1536" y="-7.5" font-family="Helvetica,sans-Serif" font-size="10.00">/DataBroker_test.cpp</text>
</a>
</g>
</g>
<!-- Node4&#45;&gt;Node7 -->
<g id="edge6" class="edge">
<title>Node4&#45;&gt;Node7</title>
<path fill="none" stroke="midnightblue" d="M1626.43,-170.81C1632.71,-169.47 1638.94,-168.19 1645,-167 1694.26,-157.33 1835.46,-169.22 1868,-131 1883.27,-113.07 1883.21,-95.99 1868,-78 1833.8,-37.55 1681.6,-26.3 1595.64,-23.19"/>
<polygon fill="midnightblue" stroke="midnightblue" points="1625.6,-167.41 1616.56,-172.94 1627.08,-174.25 1625.6,-167.41"/>
</g>
<!-- Node10 -->
<g id="node10" class="node">
<title>Node10</title>
<g id="a_node10"><a xlink:href="../../dc/d0f/_sensor_controller_base___m_o_c_k_8cpp.html" target="_top" xlink:title=" ">
<polygon fill="none" stroke="black" points="1077,-78.5 1077,-130.5 1253,-130.5 1253,-78.5 1077,-78.5"/>
<text text-anchor="start" x="1085" y="-118.5" font-family="Helvetica,sans-Serif" font-size="10.00">Components/Interfaces</text>
<text text-anchor="start" x="1085" y="-107.5" font-family="Helvetica,sans-Serif" font-size="10.00">/SensorControllerBase</text>
<text text-anchor="start" x="1085" y="-96.5" font-family="Helvetica,sans-Serif" font-size="10.00">/test/mock/SensorControllerBase</text>
<text text-anchor="middle" x="1165" y="-85.5" font-family="Helvetica,sans-Serif" font-size="10.00">_MOCK.cpp</text>
</a>
</g>
</g>
<!-- Node9&#45;&gt;Node10 -->
<g id="edge9" class="edge">
<title>Node9&#45;&gt;Node10</title>
<path fill="none" stroke="midnightblue" d="M1234.45,-160.93C1221.95,-150.96 1208.31,-140.07 1196.46,-130.61"/>
<polygon fill="midnightblue" stroke="midnightblue" points="1232.47,-163.83 1242.47,-167.34 1236.84,-158.36 1232.47,-163.83"/>
</g>
<!-- Node9&#45;&gt;Node11 -->
<g id="edge10" class="edge">
<title>Node9&#45;&gt;Node11</title>
<path fill="none" stroke="midnightblue" d="M1307.06,-160.18C1319.12,-148.39 1332.38,-135.43 1342.97,-125.08"/>
<polygon fill="midnightblue" stroke="midnightblue" points="1304.45,-157.84 1299.74,-167.34 1309.34,-162.85 1304.45,-157.84"/>
</g>
<!-- Node12&#45;&gt;Node7 -->
<g id="edge14" class="edge">
<title>Node12&#45;&gt;Node7</title>
<path fill="none" stroke="midnightblue" d="M1057.63,-80.82C1061.12,-79.78 1064.59,-78.83 1068,-78 1212.1,-42.9 1386.75,-29.43 1476.46,-24.56"/>
<polygon fill="midnightblue" stroke="midnightblue" points="1056.31,-77.57 1047.84,-83.93 1058.43,-84.24 1056.31,-77.57"/>
</g>
<!-- Node13 -->
<g id="node13" class="node">
<title>Node13</title>
<g id="a_node13"><a xlink:href="../../d4/ddc/_data_broker_8cpp.html" target="_top" xlink:title=" ">
<polygon fill="none" stroke="black" points="940.5,-6 940.5,-36 1109.5,-36 1109.5,-6 940.5,-6"/>
<text text-anchor="start" x="948.5" y="-24" font-family="Helvetica,sans-Serif" font-size="10.00">Components/Objects</text>
<text text-anchor="middle" x="1025" y="-13" font-family="Helvetica,sans-Serif" font-size="10.00">/DataBroker/src/DataBroker.cpp</text>
</a>
</g>
</g>
<!-- Node12&#45;&gt;Node13 -->
<g id="edge13" class="edge">
<title>Node12&#45;&gt;Node13</title>
<path fill="none" stroke="midnightblue" d="M1009.08,-73.91C1013.02,-61.04 1017.46,-46.57 1020.65,-36.18"/>
<polygon fill="midnightblue" stroke="midnightblue" points="1005.64,-73.18 1006.05,-83.77 1012.33,-75.24 1005.64,-73.18"/>
</g>
<!-- Node15 -->
<g id="node15" class="node">
<title>Node15</title>
<g id="a_node15"><a xlink:href="../../d2/dd8/_service_queue_base_8hpp.html" target="_top" xlink:title=" ">
<polygon fill="none" stroke="black" points="778,-173 778,-214 910,-214 910,-173 778,-173"/>
<text text-anchor="start" x="786" y="-202" font-family="Helvetica,sans-Serif" font-size="10.00">Components/Interfaces</text>
<text text-anchor="start" x="786" y="-191" font-family="Helvetica,sans-Serif" font-size="10.00">/ServiceBase/include</text>
<text text-anchor="middle" x="844" y="-180" font-family="Helvetica,sans-Serif" font-size="10.00">/ServiceQueueBase.hpp</text>
</a>
</g>
</g>
<!-- Node14&#45;&gt;Node15 -->
<g id="edge16" class="edge">
<title>Node14&#45;&gt;Node15</title>
<path fill="none" stroke="midnightblue" d="M1139.91,-255.8C1055.24,-235.8 968.13,-218.26 910.02,-207"/>
<polygon fill="midnightblue" stroke="midnightblue" points="1139.15,-259.21 1149.68,-258.12 1140.76,-252.4 1139.15,-259.21"/>
</g>
<!-- Node22 -->
<g id="node22" class="node">
<title>Node22</title>
<g id="a_node22"><a xlink:href="../../d8/deb/_service_time_base_8hpp.html" target="_top" xlink:title=" ">
<polygon fill="none" stroke="black" points="370,-173 370,-214 500,-214 500,-173 370,-173"/>
<text text-anchor="start" x="378" y="-202" font-family="Helvetica,sans-Serif" font-size="10.00">Components/Interfaces</text>
<text text-anchor="start" x="378" y="-191" font-family="Helvetica,sans-Serif" font-size="10.00">/ServiceBase/include</text>
<text text-anchor="middle" x="435" y="-180" font-family="Helvetica,sans-Serif" font-size="10.00">/ServiceTimeBase.hpp</text>
</a>
</g>
</g>
<!-- Node14&#45;&gt;Node22 -->
<g id="edge24" class="edge">
<title>Node14&#45;&gt;Node22</title>
<path fill="none" stroke="midnightblue" d="M1139.64,-256.08C1045.98,-242.39 656.51,-211.63 500.2,-199.52"/>
<polygon fill="midnightblue" stroke="midnightblue" points="1139.34,-259.58 1149.77,-257.7 1140.45,-252.66 1139.34,-259.58"/>
</g>
<!-- Node15&#45;&gt;Node12 -->
<g id="edge18" class="edge">
<title>Node15&#45;&gt;Node12</title>
<path fill="none" stroke="midnightblue" d="M888.03,-167.94C912.33,-154.39 942.1,-137.79 964.84,-125.11"/>
<polygon fill="midnightblue" stroke="midnightblue" points="886.04,-165.05 879.01,-172.98 889.45,-171.16 886.04,-165.05"/>
</g>
<!-- Node16 -->
<g id="node16" class="node">
<title>Node16</title>
<g id="a_node16"><a xlink:href="../../dc/d1d/_service__test_8cpp.html" target="_top" xlink:title=" ">
<polygon fill="none" stroke="black" points="443,-84 443,-125 573,-125 573,-84 443,-84"/>
<text text-anchor="start" x="451" y="-113" font-family="Helvetica,sans-Serif" font-size="10.00">Components/Interfaces</text>
<text text-anchor="start" x="451" y="-102" font-family="Helvetica,sans-Serif" font-size="10.00">/ServiceBase/test/test</text>
<text text-anchor="middle" x="508" y="-91" font-family="Helvetica,sans-Serif" font-size="10.00">/Service_test.cpp</text>
</a>
</g>
</g>
<!-- Node15&#45;&gt;Node16 -->
<g id="edge17" class="edge">
<title>Node15&#45;&gt;Node16</title>
<path fill="none" stroke="midnightblue" d="M767.92,-176.78C715.34,-165.39 643.99,-148.91 582,-131 575.73,-129.19 569.22,-127.16 562.76,-125.06"/>
<polygon fill="midnightblue" stroke="midnightblue" points="767.33,-180.23 777.84,-178.91 768.8,-173.39 767.33,-180.23"/>
</g>
<!-- Node17 -->
<g id="node17" class="node">
<title>Node17</title>
<g id="a_node17"><a xlink:href="../../d2/d1e/_online_detector__service_8hpp.html" target="_top" xlink:title=" ">
<polygon fill="none" stroke="black" points="591.5,-84 591.5,-125 746.5,-125 746.5,-84 591.5,-84"/>
<text text-anchor="start" x="599.5" y="-113" font-family="Helvetica,sans-Serif" font-size="10.00">Components/Service</text>
<text text-anchor="start" x="599.5" y="-102" font-family="Helvetica,sans-Serif" font-size="10.00">/OnlineDetector/include</text>
<text text-anchor="middle" x="669" y="-91" font-family="Helvetica,sans-Serif" font-size="10.00">/OnlineDetector_service.hpp</text>
</a>
</g>
</g>
<!-- Node15&#45;&gt;Node17 -->
<g id="edge19" class="edge">
<title>Node15&#45;&gt;Node17</title>
<path fill="none" stroke="midnightblue" d="M795.68,-168.48C768.23,-154.83 734.28,-137.96 708.44,-125.11"/>
<polygon fill="midnightblue" stroke="midnightblue" points="794.21,-171.66 804.73,-172.98 797.33,-165.39 794.21,-171.66"/>
</g>
<!-- Node20 -->
<g id="node20" class="node">
<title>Node20</title>
<g id="a_node20"><a xlink:href="../../dd/d22/_water_estimator___service_8hpp.html" target="_top" xlink:title=" ">
<polygon fill="none" stroke="black" points="765,-84 765,-125 923,-125 923,-84 765,-84"/>
<text text-anchor="start" x="773" y="-113" font-family="Helvetica,sans-Serif" font-size="10.00">Components/Service</text>
<text text-anchor="start" x="773" y="-102" font-family="Helvetica,sans-Serif" font-size="10.00">/WaterEstimator/include</text>
<text text-anchor="middle" x="844" y="-91" font-family="Helvetica,sans-Serif" font-size="10.00">/WaterEstimator_Service.hpp</text>
</a>
</g>
</g>
<!-- Node15&#45;&gt;Node20 -->
<g id="edge22" class="edge">
<title>Node15&#45;&gt;Node20</title>
<path fill="none" stroke="midnightblue" d="M844,-162.44C844,-150.1 844,-136.16 844,-125.16"/>
<polygon fill="midnightblue" stroke="midnightblue" points="840.5,-162.76 844,-172.76 847.5,-162.76 840.5,-162.76"/>
</g>
<!-- Node18 -->
<g id="node18" class="node">
<title>Node18</title>
<g id="a_node18"><a xlink:href="../../d7/d24/_online_detector__service_8cpp.html" target="_top" xlink:title=" ">
<polygon fill="none" stroke="black" points="456,-0.5 456,-41.5 610,-41.5 610,-0.5 456,-0.5"/>
<text text-anchor="start" x="464" y="-29.5" font-family="Helvetica,sans-Serif" font-size="10.00">Components/Service</text>
<text text-anchor="start" x="464" y="-18.5" font-family="Helvetica,sans-Serif" font-size="10.00">/OnlineDetector/src</text>
<text text-anchor="middle" x="533" y="-7.5" font-family="Helvetica,sans-Serif" font-size="10.00">/OnlineDetector_service.cpp</text>
</a>
</g>
</g>
<!-- Node17&#45;&gt;Node18 -->
<g id="edge20" class="edge">
<title>Node17&#45;&gt;Node18</title>
<path fill="none" stroke="midnightblue" d="M627.6,-78.69C607.77,-66.8 584.35,-52.77 565.78,-41.64"/>
<polygon fill="midnightblue" stroke="midnightblue" points="626.05,-81.84 636.42,-83.98 629.65,-75.84 626.05,-81.84"/>
</g>
<!-- Node19 -->
<g id="node19" class="node">
<title>Node19</title>
<g id="a_node19"><a xlink:href="../../db/df8/_service_2_online_detector_2test_2test_2simple__test_8cpp.html" target="_top" xlink:title=" ">
<polygon fill="none" stroke="black" points="628.5,-0.5 628.5,-41.5 747.5,-41.5 747.5,-0.5 628.5,-0.5"/>
<text text-anchor="start" x="636.5" y="-29.5" font-family="Helvetica,sans-Serif" font-size="10.00">Components/Service</text>
<text text-anchor="start" x="636.5" y="-18.5" font-family="Helvetica,sans-Serif" font-size="10.00">/OnlineDetector/test</text>
<text text-anchor="middle" x="688" y="-7.5" font-family="Helvetica,sans-Serif" font-size="10.00">/test/simple_test.cpp</text>
</a>
</g>
</g>
<!-- Node17&#45;&gt;Node19 -->
<g id="edge21" class="edge">
<title>Node17&#45;&gt;Node19</title>
<path fill="none" stroke="midnightblue" d="M675.9,-73.9C678.41,-63.13 681.19,-51.23 683.44,-41.55"/>
<polygon fill="midnightblue" stroke="midnightblue" points="672.46,-73.24 673.6,-83.77 679.28,-74.83 672.46,-73.24"/>
</g>
<!-- Node21 -->
<g id="node21" class="node">
<title>Node21</title>
<g id="a_node21"><a xlink:href="../../dd/dd3/_water_estimator___service_8cpp.html" target="_top" xlink:title=" ">
<polygon fill="none" stroke="black" points="765.5,-0.5 765.5,-41.5 922.5,-41.5 922.5,-0.5 765.5,-0.5"/>
<text text-anchor="start" x="773.5" y="-29.5" font-family="Helvetica,sans-Serif" font-size="10.00">Components/Service</text>
<text text-anchor="start" x="773.5" y="-18.5" font-family="Helvetica,sans-Serif" font-size="10.00">/WaterEstimator/src</text>
<text text-anchor="middle" x="844" y="-7.5" font-family="Helvetica,sans-Serif" font-size="10.00">/WaterEstimator_Service.cpp</text>
</a>
</g>
</g>
<!-- Node20&#45;&gt;Node21 -->
<g id="edge23" class="edge">
<title>Node20&#45;&gt;Node21</title>
<path fill="none" stroke="midnightblue" d="M844,-73.56C844,-62.88 844,-51.13 844,-41.55"/>
<polygon fill="midnightblue" stroke="midnightblue" points="840.5,-73.77 844,-83.77 847.5,-73.77 840.5,-73.77"/>
</g>
<!-- Node22&#45;&gt;Node16 -->
<g id="edge25" class="edge">
<title>Node22&#45;&gt;Node16</title>
<path fill="none" stroke="midnightblue" d="M458.05,-165.03C468.91,-152.09 481.62,-136.94 491.5,-125.16"/>
<polygon fill="midnightblue" stroke="midnightblue" points="455.31,-162.85 451.56,-172.76 460.67,-167.35 455.31,-162.85"/>
</g>
<!-- Node23 -->
<g id="node23" class="node">
<title>Node23</title>
<g id="a_node23"><a xlink:href="../../d6/d72/_env_sensing__service_8hpp.html" target="_top" xlink:title=" ">
<polygon fill="none" stroke="black" points="75.5,-84 75.5,-125 212.5,-125 212.5,-84 75.5,-84"/>
<text text-anchor="start" x="83.5" y="-113" font-family="Helvetica,sans-Serif" font-size="10.00">Components/Service</text>
<text text-anchor="start" x="83.5" y="-102" font-family="Helvetica,sans-Serif" font-size="10.00">/EnvSensing/include</text>
<text text-anchor="middle" x="144" y="-91" font-family="Helvetica,sans-Serif" font-size="10.00">/EnvSensing_service.hpp</text>
</a>
</g>
</g>
<!-- Node22&#45;&gt;Node23 -->
<g id="edge26" class="edge">
<title>Node22&#45;&gt;Node23</title>
<path fill="none" stroke="midnightblue" d="M359.95,-170.06C313.34,-156.13 254.01,-138.39 209.34,-125.03"/>
<polygon fill="midnightblue" stroke="midnightblue" points="359.11,-173.46 369.69,-172.98 361.12,-166.76 359.11,-173.46"/>
</g>
<!-- Node25 -->
<g id="node25" class="node">
<title>Node25</title>
<g id="a_node25"><a xlink:href="../../df/d40/is_alive__service_8hpp.html" target="_top" xlink:title=" ">
<polygon fill="none" stroke="black" points="297.5,-84 297.5,-125 424.5,-125 424.5,-84 297.5,-84"/>
<text text-anchor="start" x="305.5" y="-113" font-family="Helvetica,sans-Serif" font-size="10.00">Components/Service</text>
<text text-anchor="start" x="305.5" y="-102" font-family="Helvetica,sans-Serif" font-size="10.00">/isAlive/include/isAlive</text>
<text text-anchor="middle" x="361" y="-91" font-family="Helvetica,sans-Serif" font-size="10.00">_service.hpp</text>
</a>
</g>
</g>
<!-- Node22&#45;&gt;Node25 -->
<g id="edge28" class="edge">
<title>Node22&#45;&gt;Node25</title>
<path fill="none" stroke="midnightblue" d="M411.64,-165.03C400.63,-152.09 387.74,-136.94 377.73,-125.16"/>
<polygon fill="midnightblue" stroke="midnightblue" points="409.06,-167.41 418.21,-172.76 414.4,-162.87 409.06,-167.41"/>
</g>
<!-- Node24 -->
<g id="node24" class="node">
<title>Node24</title>
<g id="a_node24"><a xlink:href="../../d8/d34/_env_sensing__service_8cpp.html" target="_top" xlink:title=" ">
<polygon fill="none" stroke="black" points="0,-0.5 0,-41.5 152,-41.5 152,-0.5 0,-0.5"/>
<text text-anchor="start" x="8" y="-29.5" font-family="Helvetica,sans-Serif" font-size="10.00">Components/Service</text>
<text text-anchor="start" x="8" y="-18.5" font-family="Helvetica,sans-Serif" font-size="10.00">/EnvSensing/src/EnvSensing</text>
<text text-anchor="middle" x="76" y="-7.5" font-family="Helvetica,sans-Serif" font-size="10.00">_service.cpp</text>
</a>
</g>
</g>
<!-- Node23&#45;&gt;Node24 -->
<g id="edge27" class="edge">
<title>Node23&#45;&gt;Node24</title>
<path fill="none" stroke="midnightblue" d="M120.96,-75.88C111.55,-64.61 100.89,-51.83 92.31,-41.55"/>
<polygon fill="midnightblue" stroke="midnightblue" points="118.45,-78.34 127.54,-83.77 123.82,-73.85 118.45,-78.34"/>
</g>
<!-- Node26 -->
<g id="node26" class="node">
<title>Node26</title>
<g id="a_node26"><a xlink:href="../../de/da1/is_alive__service_8cpp.html" target="_top" xlink:title=" ">
<polygon fill="none" stroke="black" points="170.5,-0.5 170.5,-41.5 287.5,-41.5 287.5,-0.5 170.5,-0.5"/>
<text text-anchor="start" x="178.5" y="-29.5" font-family="Helvetica,sans-Serif" font-size="10.00">Components/Service</text>
<text text-anchor="start" x="178.5" y="-18.5" font-family="Helvetica,sans-Serif" font-size="10.00">/isAlive/src/isAlive</text>
<text text-anchor="middle" x="229" y="-7.5" font-family="Helvetica,sans-Serif" font-size="10.00">_service.cpp</text>
</a>
</g>
</g>
<!-- Node25&#45;&gt;Node26 -->
<g id="edge29" class="edge">
<title>Node25&#45;&gt;Node26</title>
<path fill="none" stroke="midnightblue" d="M320.81,-78.69C301.57,-66.8 278.84,-52.77 260.82,-41.64"/>
<polygon fill="midnightblue" stroke="midnightblue" points="319.04,-81.7 329.38,-83.98 322.71,-75.75 319.04,-81.7"/>
</g>
<!-- Node27 -->
<g id="node27" class="node">
<title>Node27</title>
<g id="a_node27"><a xlink:href="../../d4/d60/_service_2is_alive_2test_2test_2simple__test_8cpp.html" target="_top" xlink:title=" ">
<polygon fill="none" stroke="black" points="306,-0.5 306,-41.5 438,-41.5 438,-0.5 306,-0.5"/>
<text text-anchor="start" x="314" y="-29.5" font-family="Helvetica,sans-Serif" font-size="10.00">Components/Service</text>
<text text-anchor="start" x="314" y="-18.5" font-family="Helvetica,sans-Serif" font-size="10.00">/isAlive/test/test/simple</text>
<text text-anchor="middle" x="372" y="-7.5" font-family="Helvetica,sans-Serif" font-size="10.00">_test.cpp</text>
</a>
</g>
</g>
<!-- Node25&#45;&gt;Node27 -->
<g id="edge30" class="edge">
<title>Node25&#45;&gt;Node27</title>
<path fill="none" stroke="midnightblue" d="M365.04,-73.56C366.48,-62.88 368.07,-51.13 369.36,-41.55"/>
<polygon fill="midnightblue" stroke="midnightblue" points="361.53,-73.39 363.66,-83.77 368.47,-74.33 361.53,-73.39"/>
</g>
<!-- Node31 -->
<g id="node31" class="node">
<title>Node31</title>
<g id="a_node31"><a xlink:href="../../dd/ddd/_maintainer_8cpp.html" target="_top" xlink:title=" ">
<polygon fill="none" stroke="black" points="2000,-178.5 2000,-208.5 2164,-208.5 2164,-178.5 2000,-178.5"/>
<text text-anchor="start" x="2008" y="-196.5" font-family="Helvetica,sans-Serif" font-size="10.00">Components/Objects</text>
<text text-anchor="middle" x="2082" y="-185.5" font-family="Helvetica,sans-Serif" font-size="10.00">/Maintainer/src/Maintainer.cpp</text>
</a>
</g>
</g>
<!-- Node30&#45;&gt;Node31 -->
<g id="edge34" class="edge">
<title>Node30&#45;&gt;Node31</title>
<path fill="none" stroke="midnightblue" d="M1970.87,-251.83C1998.24,-237.71 2031.81,-220.39 2054.85,-208.5"/>
<polygon fill="midnightblue" stroke="midnightblue" points="1969.13,-248.78 1961.84,-256.48 1972.34,-255 1969.13,-248.78"/>
</g>
<!-- Node32 -->
<g id="node32" class="node">
<title>Node32</title>
<g id="a_node32"><a xlink:href="../../d8/d4a/maintainer__test_8cpp.html" target="_top" xlink:title=" ">
<polygon fill="none" stroke="black" points="2182,-173 2182,-214 2300,-214 2300,-173 2182,-173"/>
<text text-anchor="start" x="2190" y="-202" font-family="Helvetica,sans-Serif" font-size="10.00">Components/Objects</text>
<text text-anchor="start" x="2190" y="-191" font-family="Helvetica,sans-Serif" font-size="10.00">/Maintainer/test/test</text>
<text text-anchor="middle" x="2241" y="-180" font-family="Helvetica,sans-Serif" font-size="10.00">/maintainer_test.cpp</text>
</a>
</g>
</g>
<!-- Node30&#45;&gt;Node32 -->
<g id="edge35" class="edge">
<title>Node30&#45;&gt;Node32</title>
<path fill="none" stroke="midnightblue" d="M1993.32,-263.07C2043.64,-253.05 2113.12,-237.87 2173,-220 2178.92,-218.23 2185.07,-216.21 2191.13,-214.09"/>
<polygon fill="midnightblue" stroke="midnightblue" points="1992.33,-259.7 1983.2,-265.07 1993.69,-266.57 1992.33,-259.7"/>
</g>
<!-- Node33 -->
<g id="node33" class="node">
<title>Node33</title>
<g id="a_node33"><a xlink:href="../../dd/d82/_active_current_sensor_8hpp.html" target="_top" xlink:title=" ">
<polygon fill="none" stroke="black" points="1834,-173 1834,-214 1982,-214 1982,-173 1834,-173"/>
<text text-anchor="start" x="1842" y="-202" font-family="Helvetica,sans-Serif" font-size="10.00">Components/Sensor/Active</text>
<text text-anchor="start" x="1842" y="-191" font-family="Helvetica,sans-Serif" font-size="10.00">CurrentSensor/include</text>
<text text-anchor="middle" x="1908" y="-180" font-family="Helvetica,sans-Serif" font-size="10.00">/ActiveCurrentSensor.hpp</text>
</a>
</g>
</g>
<!-- Node30&#45;&gt;Node33 -->
<g id="edge36" class="edge">
<title>Node30&#45;&gt;Node33</title>
<path fill="none" stroke="midnightblue" d="M1918.19,-246.4C1916.07,-235.63 1913.74,-223.73 1911.84,-214.05"/>
<polygon fill="midnightblue" stroke="midnightblue" points="1914.77,-247.13 1920.13,-256.27 1921.63,-245.78 1914.77,-247.13"/>
</g>
<!-- Node34 -->
<g id="node34" class="node">
<title>Node34</title>
<g id="a_node34"><a xlink:href="../../d2/d77/_active_current_sensor_8cpp.html" target="_top" xlink:title=" ">
<polygon fill="none" stroke="black" points="1914.5,-84 1914.5,-125 2087.5,-125 2087.5,-84 1914.5,-84"/>
<text text-anchor="start" x="1922.5" y="-113" font-family="Helvetica,sans-Serif" font-size="10.00">Components/Sensor/Active</text>
<text text-anchor="start" x="1922.5" y="-102" font-family="Helvetica,sans-Serif" font-size="10.00">CurrentSensor/src/ActiveCurrent</text>
<text text-anchor="middle" x="2001" y="-91" font-family="Helvetica,sans-Serif" font-size="10.00">Sensor.cpp</text>
</a>
</g>
</g>
<!-- Node33&#45;&gt;Node34 -->
<g id="edge37" class="edge">
<title>Node33&#45;&gt;Node34</title>
<path fill="none" stroke="midnightblue" d="M1936.58,-165.76C1950.59,-152.66 1967.15,-137.16 1979.98,-125.16"/>
<polygon fill="midnightblue" stroke="midnightblue" points="1934.01,-163.37 1929.1,-172.76 1938.8,-168.48 1934.01,-163.37"/>
</g>
<!-- Node35&#45;&gt;Node3 -->
<g id="edge39" class="edge">
<title>Node35&#45;&gt;Node3</title>
<path fill="none" stroke="midnightblue" d="M1380.48,-329.66C1382.39,-319.33 1384.58,-307.44 1386.37,-297.68"/>
<polygon fill="midnightblue" stroke="midnightblue" points="1377,-329.24 1378.63,-339.7 1383.89,-330.5 1377,-329.24"/>
</g>
<!-- Node35&#45;&gt;Node14 -->
<g id="edge40" class="edge">
<title>Node35&#45;&gt;Node14</title>
<path fill="none" stroke="midnightblue" d="M1336.81,-335.5C1312.51,-324.03 1281.32,-309.3 1256.58,-297.63"/>
<polygon fill="midnightblue" stroke="midnightblue" points="1335.56,-338.78 1346.09,-339.88 1338.55,-332.45 1335.56,-338.78"/>
</g>
<!-- Node35&#45;&gt;Node33 -->
<g id="edge43" class="edge">
<title>Node35&#45;&gt;Node33</title>
<path fill="none" stroke="midnightblue" d="M1423.16,-335.92C1444.92,-326.39 1470.43,-313.45 1491,-298 1511.13,-282.88 1506.65,-267.58 1529,-256 1646.66,-195.02 1695.37,-247.57 1825,-220 1832.81,-218.34 1840.95,-216.27 1848.94,-214.04"/>
<polygon fill="midnightblue" stroke="midnightblue" points="1421.6,-332.78 1413.78,-339.92 1424.35,-339.22 1421.6,-332.78"/>
</g>
<!-- Node36 -->
<g id="node36" class="node">
<title>Node36</title>
<g id="a_node36"><a xlink:href="../../d2/d93/_m_q_t_t___message_8cpp.html" target="_top" xlink:title=" ">
<polygon fill="none" stroke="black" points="788,-262 788,-292 954,-292 954,-262 788,-262"/>
<text text-anchor="start" x="796" y="-280" font-family="Helvetica,sans-Serif" font-size="10.00">Components/Protocols</text>
<text text-anchor="middle" x="871" y="-269" font-family="Helvetica,sans-Serif" font-size="10.00">/MQTT/src/MQTT_Message.cpp</text>
</a>
</g>
</g>
<!-- Node35&#45;&gt;Node36 -->
<g id="edge41" class="edge">
<title>Node35&#45;&gt;Node36</title>
<path fill="none" stroke="midnightblue" d="M1271.74,-342.18C1188.02,-332.14 1067.6,-316.43 963,-298 953.02,-296.24 942.48,-294.16 932.23,-292.02"/>
<polygon fill="midnightblue" stroke="midnightblue" points="1271.42,-345.67 1281.77,-343.38 1272.25,-338.72 1271.42,-345.67"/>
</g>
<!-- Node37 -->
<g id="node37" class="node">
<title>Node37</title>
<g id="a_node37"><a xlink:href="../../d2/d40/msg__test_8cpp.html" target="_top" xlink:title=" ">
<polygon fill="none" stroke="black" points="972,-262 972,-292 1132,-292 1132,-262 972,-262"/>
<text text-anchor="start" x="980" y="-280" font-family="Helvetica,sans-Serif" font-size="10.00">Components/Protocols</text>
<text text-anchor="middle" x="1052" y="-269" font-family="Helvetica,sans-Serif" font-size="10.00">/MQTT/test/test/msg_test.cpp</text>
</a>
</g>
</g>
<!-- Node35&#45;&gt;Node37 -->
<g id="edge42" class="edge">
<title>Node35&#45;&gt;Node37</title>
<path fill="none" stroke="midnightblue" d="M1306.38,-337.67C1248.42,-324.07 1166.76,-304.92 1111.73,-292.01"/>
<polygon fill="midnightblue" stroke="midnightblue" points="1305.66,-341.1 1316.2,-339.97 1307.26,-334.28 1305.66,-341.1"/>
</g>
</g>
</svg>
