<?xml version="1.0" encoding="UTF-8" standalone="no"?>
<!DOCTYPE svg PUBLIC "-//W3C//DTD SVG 1.1//EN"
 "http://www.w3.org/Graphics/SVG/1.1/DTD/svg11.dtd">
<!-- Generated by graphviz version 2.43.0 (0)
 -->
<!-- Title: Components/Global_Include/Database_ID_Base.hpp Pages: 1 -->
<svg width="1138pt" height="373pt"
 viewBox="0.00 0.00 1138.00 373.00" xmlns="http://www.w3.org/2000/svg" xmlns:xlink="http://www.w3.org/1999/xlink">
<g id="graph0" class="graph" transform="scale(1 1) rotate(0) translate(4 369)">
<title>Components/Global_Include/Database_ID_Base.hpp</title>
<!-- Node1 -->
<g id="node1" class="node">
<title>Node1</title>
<g id="a_node1"><a xlink:title=" ">
<polygon fill="#bfbfbf" stroke="black" points="349,-334.5 349,-364.5 502,-364.5 502,-334.5 349,-334.5"/>
<text text-anchor="start" x="357" y="-352.5" font-family="Helvetica,sans-Serif" font-size="10.00">Components/Global_Include</text>
<text text-anchor="middle" x="425.5" y="-341.5" font-family="Helvetica,sans-Serif" font-size="10.00">/Database_ID_Base.hpp</text>
</a>
</g>
</g>
<!-- Node2 -->
<g id="node2" class="node">
<title>Node2</title>
<g id="a_node2"><a xlink:href="../../d3/d0d/_error_code_parser_8hpp.html" target="_top" xlink:title=" ">
<polygon fill="none" stroke="black" points="270,-256.5 270,-297.5 389,-297.5 389,-256.5 270,-256.5"/>
<text text-anchor="start" x="278" y="-285.5" font-family="Helvetica,sans-Serif" font-size="10.00">Components/Objects</text>
<text text-anchor="start" x="278" y="-274.5" font-family="Helvetica,sans-Serif" font-size="10.00">/ErrorHandler/include</text>
<text text-anchor="middle" x="329.5" y="-263.5" font-family="Helvetica,sans-Serif" font-size="10.00">/ErrorCodeParser.hpp</text>
</a>
</g>
</g>
<!-- Node1&#45;&gt;Node2 -->
<g id="edge1" class="edge">
<title>Node1&#45;&gt;Node2</title>
<path fill="none" stroke="midnightblue" d="M397.87,-328.21C384.76,-318.58 369.16,-307.12 356.17,-297.59"/>
<polygon fill="midnightblue" stroke="midnightblue" points="395.94,-331.14 406.07,-334.23 400.08,-325.49 395.94,-331.14"/>
</g>
<!-- Node16 -->
<g id="node16" class="node">
<title>Node16</title>
<g id="a_node16"><a xlink:href="../../d1/da7/_m_q_t_t___message_8hpp.html" target="_top" xlink:title=" ">
<polygon fill="none" stroke="black" points="519.5,-262 519.5,-292 707.5,-292 707.5,-262 519.5,-262"/>
<text text-anchor="start" x="527.5" y="-280" font-family="Helvetica,sans-Serif" font-size="10.00">Components/Protocols</text>
<text text-anchor="middle" x="613.5" y="-269" font-family="Helvetica,sans-Serif" font-size="10.00">/MQTT/include/MQTT_Message.hpp</text>
</a>
</g>
</g>
<!-- Node1&#45;&gt;Node16 -->
<g id="edge17" class="edge">
<title>Node1&#45;&gt;Node16</title>
<path fill="none" stroke="midnightblue" d="M472.67,-330.81C504.63,-318.83 546.27,-303.21 575.97,-292.07"/>
<polygon fill="midnightblue" stroke="midnightblue" points="471.23,-327.61 463.09,-334.4 473.69,-334.17 471.23,-327.61"/>
</g>
<!-- Node3 -->
<g id="node3" class="node">
<title>Node3</title>
<g id="a_node3"><a xlink:href="../../d9/d1c/_sensor_controller_base_8hpp.html" target="_top" xlink:title=" ">
<polygon fill="none" stroke="black" points="328.5,-178.5 328.5,-219.5 512.5,-219.5 512.5,-178.5 328.5,-178.5"/>
<text text-anchor="start" x="336.5" y="-207.5" font-family="Helvetica,sans-Serif" font-size="10.00">Components/Interfaces</text>
<text text-anchor="start" x="336.5" y="-196.5" font-family="Helvetica,sans-Serif" font-size="10.00">/SensorControllerBase</text>
<text text-anchor="middle" x="420.5" y="-185.5" font-family="Helvetica,sans-Serif" font-size="10.00">/include/SensorControllerBase.hpp</text>
</a>
</g>
</g>
<!-- Node2&#45;&gt;Node3 -->
<g id="edge2" class="edge">
<title>Node2&#45;&gt;Node3</title>
<path fill="none" stroke="midnightblue" d="M360.9,-249.78C372.79,-239.84 386.12,-228.72 397.14,-219.51"/>
<polygon fill="midnightblue" stroke="midnightblue" points="358.37,-247.33 352.93,-256.43 362.85,-252.7 358.37,-247.33"/>
</g>
<!-- Node14 -->
<g id="node14" class="node">
<title>Node14</title>
<g id="a_node14"><a xlink:href="../../d2/df5/_error_code_parser_8cpp.html" target="_top" xlink:title=" ">
<polygon fill="none" stroke="black" points="0,-178.5 0,-219.5 149,-219.5 149,-178.5 0,-178.5"/>
<text text-anchor="start" x="8" y="-207.5" font-family="Helvetica,sans-Serif" font-size="10.00">Components/Objects</text>
<text text-anchor="start" x="8" y="-196.5" font-family="Helvetica,sans-Serif" font-size="10.00">/ErrorHandler/src/ErrorCode</text>
<text text-anchor="middle" x="74.5" y="-185.5" font-family="Helvetica,sans-Serif" font-size="10.00">Parser.cpp</text>
</a>
</g>
</g>
<!-- Node2&#45;&gt;Node14 -->
<g id="edge15" class="edge">
<title>Node2&#45;&gt;Node14</title>
<path fill="none" stroke="midnightblue" d="M259.92,-255.26C222.61,-244.14 176.88,-230.51 140.18,-219.57"/>
<polygon fill="midnightblue" stroke="midnightblue" points="259.13,-258.68 269.71,-258.18 261.13,-251.97 259.13,-258.68"/>
</g>
<!-- Node15 -->
<g id="node15" class="node">
<title>Node15</title>
<g id="a_node15"><a xlink:href="../../d9/db8/_error_code_parser__test_8cpp.html" target="_top" xlink:title=" ">
<polygon fill="none" stroke="black" points="167,-178.5 167,-219.5 310,-219.5 310,-178.5 167,-178.5"/>
<text text-anchor="start" x="175" y="-207.5" font-family="Helvetica,sans-Serif" font-size="10.00">Components/Objects</text>
<text text-anchor="start" x="175" y="-196.5" font-family="Helvetica,sans-Serif" font-size="10.00">/ErrorHandler/test/test</text>
<text text-anchor="middle" x="238.5" y="-185.5" font-family="Helvetica,sans-Serif" font-size="10.00">/ErrorCodeParser_test.cpp</text>
</a>
</g>
</g>
<!-- Node2&#45;&gt;Node15 -->
<g id="edge16" class="edge">
<title>Node2&#45;&gt;Node15</title>
<path fill="none" stroke="midnightblue" d="M298.1,-249.78C286.21,-239.84 272.88,-228.72 261.86,-219.51"/>
<polygon fill="midnightblue" stroke="midnightblue" points="296.15,-252.7 306.07,-256.43 300.63,-247.33 296.15,-252.7"/>
</g>
<!-- Node4 -->
<g id="node4" class="node">
<title>Node4</title>
<g id="a_node4"><a xlink:href="../../db/d12/_distance_sensor_controller_8hpp.html" target="_top" xlink:title=" ">
<polygon fill="none" stroke="black" points="622,-95 622,-136 825,-136 825,-95 622,-95"/>
<text text-anchor="start" x="630" y="-124" font-family="Helvetica,sans-Serif" font-size="10.00">Components/Controller</text>
<text text-anchor="start" x="630" y="-113" font-family="Helvetica,sans-Serif" font-size="10.00">/DistanceSensorController</text>
<text text-anchor="middle" x="723.5" y="-102" font-family="Helvetica,sans-Serif" font-size="10.00">/include/DistanceSensorController.hpp</text>
</a>
</g>
</g>
<!-- Node3&#45;&gt;Node4 -->
<g id="edge3" class="edge">
<title>Node3&#45;&gt;Node4</title>
<path fill="none" stroke="midnightblue" d="M502.78,-175.87C549.09,-163.41 606.38,-148 650.99,-136"/>
<polygon fill="midnightblue" stroke="midnightblue" points="501.82,-172.5 493.08,-178.48 503.64,-179.26 501.82,-172.5"/>
</g>
<!-- Node8 -->
<g id="node8" class="node">
<title>Node8</title>
<g id="a_node8"><a xlink:href="../../d2/d8d/_sensor_controller_base_8cpp.html" target="_top" xlink:title=" ">
<polygon fill="none" stroke="black" points="36.5,-95 36.5,-136 198.5,-136 198.5,-95 36.5,-95"/>
<text text-anchor="start" x="44.5" y="-124" font-family="Helvetica,sans-Serif" font-size="10.00">Components/Interfaces</text>
<text text-anchor="start" x="44.5" y="-113" font-family="Helvetica,sans-Serif" font-size="10.00">/SensorControllerBase</text>
<text text-anchor="middle" x="117.5" y="-102" font-family="Helvetica,sans-Serif" font-size="10.00">/src/SensorControllerBase.cpp</text>
</a>
</g>
</g>
<!-- Node3&#45;&gt;Node8 -->
<g id="edge7" class="edge">
<title>Node3&#45;&gt;Node8</title>
<path fill="none" stroke="midnightblue" d="M334.78,-175.86C295.89,-165.71 249.32,-153.42 207.5,-142 200.61,-140.12 193.42,-138.13 186.26,-136.13"/>
<polygon fill="midnightblue" stroke="midnightblue" points="333.94,-179.26 344.5,-178.39 335.71,-172.48 333.94,-179.26"/>
</g>
<!-- Node9 -->
<g id="node9" class="node">
<title>Node9</title>
<g id="a_node9"><a xlink:href="../../db/dc2/_sensor_controller_base___m_o_c_k_8hpp.html" target="_top" xlink:title=" ">
<polygon fill="none" stroke="black" points="216.5,-89.5 216.5,-141.5 392.5,-141.5 392.5,-89.5 216.5,-89.5"/>
<text text-anchor="start" x="224.5" y="-129.5" font-family="Helvetica,sans-Serif" font-size="10.00">Components/Interfaces</text>
<text text-anchor="start" x="224.5" y="-118.5" font-family="Helvetica,sans-Serif" font-size="10.00">/SensorControllerBase</text>
<text text-anchor="start" x="224.5" y="-107.5" font-family="Helvetica,sans-Serif" font-size="10.00">/test/mock/SensorControllerBase</text>
<text text-anchor="middle" x="304.5" y="-96.5" font-family="Helvetica,sans-Serif" font-size="10.00">_MOCK.hpp</text>
</a>
</g>
</g>
<!-- Node3&#45;&gt;Node9 -->
<g id="edge8" class="edge">
<title>Node3&#45;&gt;Node9</title>
<path fill="none" stroke="midnightblue" d="M384.3,-172.57C370.32,-162.74 354.36,-151.53 340.41,-141.73"/>
<polygon fill="midnightblue" stroke="midnightblue" points="382.52,-175.59 392.72,-178.48 386.54,-169.87 382.52,-175.59"/>
</g>
<!-- Node11 -->
<g id="node11" class="node">
<title>Node11</title>
<g id="a_node11"><a xlink:href="../../d8/d19/_sensor_controller_test_8cpp.html" target="_top" xlink:title=" ">
<polygon fill="none" stroke="black" points="216.5,-6 216.5,-47 400.5,-47 400.5,-6 216.5,-6"/>
<text text-anchor="start" x="224.5" y="-35" font-family="Helvetica,sans-Serif" font-size="10.00">Components/Interfaces</text>
<text text-anchor="start" x="224.5" y="-24" font-family="Helvetica,sans-Serif" font-size="10.00">/SensorControllerBase</text>
<text text-anchor="middle" x="308.5" y="-13" font-family="Helvetica,sans-Serif" font-size="10.00">/test/test/SensorControllerTest.cpp</text>
</a>
</g>
</g>
<!-- Node3&#45;&gt;Node11 -->
<g id="edge11" class="edge">
<title>Node3&#45;&gt;Node11</title>
<path fill="none" stroke="midnightblue" d="M421.5,-168.18C420.91,-144.86 416.92,-112.55 401.5,-89 389.73,-71.02 370.69,-57.07 352.88,-47.04"/>
<polygon fill="midnightblue" stroke="midnightblue" points="418,-168.22 421.57,-178.2 425,-168.18 418,-168.22"/>
</g>
<!-- Node12 -->
<g id="node12" class="node">
<title>Node12</title>
<g id="a_node12"><a xlink:href="../../d0/dc1/_data_broker_8hpp.html" target="_top" xlink:title=" ">
<polygon fill="none" stroke="black" points="448.5,-95 448.5,-136 566.5,-136 566.5,-95 448.5,-95"/>
<text text-anchor="start" x="456.5" y="-124" font-family="Helvetica,sans-Serif" font-size="10.00">Components/Objects</text>
<text text-anchor="start" x="456.5" y="-113" font-family="Helvetica,sans-Serif" font-size="10.00">/DataBroker/include</text>
<text text-anchor="middle" x="507.5" y="-102" font-family="Helvetica,sans-Serif" font-size="10.00">/DataBroker.hpp</text>
</a>
</g>
</g>
<!-- Node3&#45;&gt;Node12 -->
<g id="edge12" class="edge">
<title>Node3&#45;&gt;Node12</title>
<path fill="none" stroke="midnightblue" d="M448.93,-171.36C461.22,-159.85 475.34,-146.63 486.63,-136.05"/>
<polygon fill="midnightblue" stroke="midnightblue" points="446.47,-168.88 441.56,-178.27 451.25,-173.99 446.47,-168.88"/>
</g>
<!-- Node5 -->
<g id="node5" class="node">
<title>Node5</title>
<g id="a_node5"><a xlink:href="../../dd/dde/_distance_sensor_controller_8cpp.html" target="_top" xlink:title=" ">
<polygon fill="none" stroke="black" points="744,-6 744,-47 925,-47 925,-6 744,-6"/>
<text text-anchor="start" x="752" y="-35" font-family="Helvetica,sans-Serif" font-size="10.00">Components/Controller</text>
<text text-anchor="start" x="752" y="-24" font-family="Helvetica,sans-Serif" font-size="10.00">/DistanceSensorController</text>
<text text-anchor="middle" x="834.5" y="-13" font-family="Helvetica,sans-Serif" font-size="10.00">/src/DistanceSensorController.cpp</text>
</a>
</g>
</g>
<!-- Node4&#45;&gt;Node5 -->
<g id="edge4" class="edge">
<title>Node4&#45;&gt;Node5</title>
<path fill="none" stroke="midnightblue" d="M756.41,-88.71C773.33,-75.44 793.63,-59.53 809.29,-47.26"/>
<polygon fill="midnightblue" stroke="midnightblue" points="754.12,-86.05 748.41,-94.98 758.44,-91.56 754.12,-86.05"/>
</g>
<!-- Node6 -->
<g id="node6" class="node">
<title>Node6</title>
<g id="a_node6"><a xlink:href="../../d7/d91/_distance_sensor_controller__test_8cpp.html" target="_top" xlink:title=" ">
<polygon fill="none" stroke="black" points="943,-0.5 943,-52.5 1130,-52.5 1130,-0.5 943,-0.5"/>
<text text-anchor="start" x="951" y="-40.5" font-family="Helvetica,sans-Serif" font-size="10.00">Components/Controller</text>
<text text-anchor="start" x="951" y="-29.5" font-family="Helvetica,sans-Serif" font-size="10.00">/DistanceSensorController</text>
<text text-anchor="start" x="951" y="-18.5" font-family="Helvetica,sans-Serif" font-size="10.00">/test/test/DistanceSensorController</text>
<text text-anchor="middle" x="1036.5" y="-7.5" font-family="Helvetica,sans-Serif" font-size="10.00">_test.cpp</text>
</a>
</g>
</g>
<!-- Node4&#45;&gt;Node6 -->
<g id="edge5" class="edge">
<title>Node4&#45;&gt;Node6</title>
<path fill="none" stroke="midnightblue" d="M803.47,-92.27C847.15,-80.13 901.39,-65.06 946.54,-52.5"/>
<polygon fill="midnightblue" stroke="midnightblue" points="802.44,-88.93 793.74,-94.98 804.32,-95.67 802.44,-88.93"/>
</g>
<!-- Node7 -->
<g id="node7" class="node">
<title>Node7</title>
<g id="a_node7"><a xlink:href="../../da/d75/_data_broker__test_8cpp.html" target="_top" xlink:title=" ">
<polygon fill="none" stroke="black" points="607,-6 607,-47 726,-47 726,-6 607,-6"/>
<text text-anchor="start" x="615" y="-35" font-family="Helvetica,sans-Serif" font-size="10.00">Components/Objects</text>
<text text-anchor="start" x="615" y="-24" font-family="Helvetica,sans-Serif" font-size="10.00">/DataBroker/test/test</text>
<text text-anchor="middle" x="666.5" y="-13" font-family="Helvetica,sans-Serif" font-size="10.00">/DataBroker_test.cpp</text>
</a>
</g>
</g>
<!-- Node4&#45;&gt;Node7 -->
<g id="edge6" class="edge">
<title>Node4&#45;&gt;Node7</title>
<path fill="none" stroke="midnightblue" d="M705.02,-86.3C696.65,-73.52 686.95,-58.72 679.38,-47.16"/>
<polygon fill="midnightblue" stroke="midnightblue" points="702.16,-88.31 710.57,-94.76 708.01,-84.48 702.16,-88.31"/>
</g>
<!-- Node10 -->
<g id="node10" class="node">
<title>Node10</title>
<g id="a_node10"><a xlink:href="../../dc/d0f/_sensor_controller_base___m_o_c_k_8cpp.html" target="_top" xlink:title=" ">
<polygon fill="none" stroke="black" points="22.5,-0.5 22.5,-52.5 198.5,-52.5 198.5,-0.5 22.5,-0.5"/>
<text text-anchor="start" x="30.5" y="-40.5" font-family="Helvetica,sans-Serif" font-size="10.00">Components/Interfaces</text>
<text text-anchor="start" x="30.5" y="-29.5" font-family="Helvetica,sans-Serif" font-size="10.00">/SensorControllerBase</text>
<text text-anchor="start" x="30.5" y="-18.5" font-family="Helvetica,sans-Serif" font-size="10.00">/test/mock/SensorControllerBase</text>
<text text-anchor="middle" x="110.5" y="-7.5" font-family="Helvetica,sans-Serif" font-size="10.00">_MOCK.cpp</text>
</a>
</g>
</g>
<!-- Node9&#45;&gt;Node10 -->
<g id="edge9" class="edge">
<title>Node9&#45;&gt;Node10</title>
<path fill="none" stroke="midnightblue" d="M239.38,-85.29C215.67,-74.67 189.11,-62.76 166.29,-52.52"/>
<polygon fill="midnightblue" stroke="midnightblue" points="238.09,-88.55 248.65,-89.45 240.96,-82.17 238.09,-88.55"/>
</g>
<!-- Node9&#45;&gt;Node11 -->
<g id="edge10" class="edge">
<title>Node9&#45;&gt;Node11</title>
<path fill="none" stroke="midnightblue" d="M306.13,-79.16C306.63,-68.21 307.16,-56.55 307.6,-47.08"/>
<polygon fill="midnightblue" stroke="midnightblue" points="302.62,-79.19 305.66,-89.34 309.61,-79.51 302.62,-79.19"/>
</g>
<!-- Node12&#45;&gt;Node7 -->
<g id="edge14" class="edge">
<title>Node12&#45;&gt;Node7</title>
<path fill="none" stroke="midnightblue" d="M552.05,-90.12C576.88,-76.54 607.39,-59.84 630.66,-47.11"/>
<polygon fill="midnightblue" stroke="midnightblue" points="550.28,-87.1 543.18,-94.98 553.64,-93.25 550.28,-87.1"/>
</g>
<!-- Node13 -->
<g id="node13" class="node">
<title>Node13</title>
<g id="a_node13"><a xlink:href="../../d4/ddc/_data_broker_8cpp.html" target="_top" xlink:title=" ">
<polygon fill="none" stroke="black" points="418.5,-11.5 418.5,-41.5 588.5,-41.5 588.5,-11.5 418.5,-11.5"/>
<text text-anchor="start" x="426.5" y="-29.5" font-family="Helvetica,sans-Serif" font-size="10.00">Components/Objects</text>
<text text-anchor="middle" x="503.5" y="-18.5" font-family="Helvetica,sans-Serif" font-size="10.00">/DataBroker/src/DataBroker.cpp</text>
</a>
</g>
</g>
<!-- Node12&#45;&gt;Node13 -->
<g id="edge13" class="edge">
<title>Node12&#45;&gt;Node13</title>
<path fill="none" stroke="midnightblue" d="M506.13,-84.69C505.46,-70.15 504.69,-53.36 504.15,-41.74"/>
<polygon fill="midnightblue" stroke="midnightblue" points="502.64,-84.93 506.59,-94.76 509.63,-84.61 502.64,-84.93"/>
</g>
<!-- Node16&#45;&gt;Node3 -->
<g id="edge18" class="edge">
<title>Node16&#45;&gt;Node3</title>
<path fill="none" stroke="midnightblue" d="M568.06,-258.11C538.72,-246.55 500.52,-231.51 470.34,-219.63"/>
<polygon fill="midnightblue" stroke="midnightblue" points="567.06,-261.48 577.65,-261.88 569.63,-254.96 567.06,-261.48"/>
</g>
<!-- Node17 -->
<g id="node17" class="node">
<title>Node17</title>
<g id="a_node17"><a xlink:href="../../d2/d93/_m_q_t_t___message_8cpp.html" target="_top" xlink:title=" ">
<polygon fill="none" stroke="black" points="530.5,-184 530.5,-214 696.5,-214 696.5,-184 530.5,-184"/>
<text text-anchor="start" x="538.5" y="-202" font-family="Helvetica,sans-Serif" font-size="10.00">Components/Protocols</text>
<text text-anchor="middle" x="613.5" y="-191" font-family="Helvetica,sans-Serif" font-size="10.00">/MQTT/src/MQTT_Message.cpp</text>
</a>
</g>
</g>
<!-- Node16&#45;&gt;Node17 -->
<g id="edge19" class="edge">
<title>Node16&#45;&gt;Node17</title>
<path fill="none" stroke="midnightblue" d="M613.5,-251.59C613.5,-239.26 613.5,-224.72 613.5,-214.23"/>
<polygon fill="midnightblue" stroke="midnightblue" points="610,-251.7 613.5,-261.7 617,-251.71 610,-251.7"/>
</g>
<!-- Node18 -->
<g id="node18" class="node">
<title>Node18</title>
<g id="a_node18"><a xlink:href="../../d2/d40/msg__test_8cpp.html" target="_top" xlink:title=" ">
<polygon fill="none" stroke="black" points="714.5,-184 714.5,-214 874.5,-214 874.5,-184 714.5,-184"/>
<text text-anchor="start" x="722.5" y="-202" font-family="Helvetica,sans-Serif" font-size="10.00">Components/Protocols</text>
<text text-anchor="middle" x="794.5" y="-191" font-family="Helvetica,sans-Serif" font-size="10.00">/MQTT/test/test/msg_test.cpp</text>
</a>
</g>
</g>
<!-- Node16&#45;&gt;Node18 -->
<g id="edge20" class="edge">
<title>Node16&#45;&gt;Node18</title>
<path fill="none" stroke="midnightblue" d="M656.67,-257.87C688.67,-244.44 731.65,-226.39 761.06,-214.04"/>
<polygon fill="midnightblue" stroke="midnightblue" points="654.99,-254.78 647.12,-261.88 657.7,-261.24 654.99,-254.78"/>
</g>
<!-- Node19 -->
<g id="node19" class="node">
<title>Node19</title>
<g id="a_node19"><a xlink:href="../../dd/d82/_active_current_sensor_8hpp.html" target="_top" xlink:title=" ">
<polygon fill="none" stroke="black" points="892.5,-178.5 892.5,-219.5 1040.5,-219.5 1040.5,-178.5 892.5,-178.5"/>
<text text-anchor="start" x="900.5" y="-207.5" font-family="Helvetica,sans-Serif" font-size="10.00">Components/Sensor/Active</text>
<text text-anchor="start" x="900.5" y="-196.5" font-family="Helvetica,sans-Serif" font-size="10.00">CurrentSensor/include</text>
<text text-anchor="middle" x="966.5" y="-185.5" font-family="Helvetica,sans-Serif" font-size="10.00">/ActiveCurrentSensor.hpp</text>
</a>
</g>
</g>
<!-- Node16&#45;&gt;Node19 -->
<g id="edge21" class="edge">
<title>Node16&#45;&gt;Node19</title>
<path fill="none" stroke="midnightblue" d="M693.94,-260.02C747.7,-249.16 819.95,-234.24 883.5,-220 886.39,-219.35 889.34,-218.68 892.32,-218"/>
<polygon fill="midnightblue" stroke="midnightblue" points="693.24,-256.59 684.13,-261.99 694.62,-263.45 693.24,-256.59"/>
</g>
<!-- Node20 -->
<g id="node20" class="node">
<title>Node20</title>
<g id="a_node20"><a xlink:href="../../d2/d77/_active_current_sensor_8cpp.html" target="_top" xlink:title=" ">
<polygon fill="none" stroke="black" points="880,-95 880,-136 1053,-136 1053,-95 880,-95"/>
<text text-anchor="start" x="888" y="-124" font-family="Helvetica,sans-Serif" font-size="10.00">Components/Sensor/Active</text>
<text text-anchor="start" x="888" y="-113" font-family="Helvetica,sans-Serif" font-size="10.00">CurrentSensor/src/ActiveCurrent</text>
<text text-anchor="middle" x="966.5" y="-102" font-family="Helvetica,sans-Serif" font-size="10.00">Sensor.cpp</text>
</a>
</g>
</g>
<!-- Node19&#45;&gt;Node20 -->
<g id="edge22" class="edge">
<title>Node19&#45;&gt;Node20</title>
<path fill="none" stroke="midnightblue" d="M966.5,-168.06C966.5,-157.38 966.5,-145.63 966.5,-136.05"/>
<polygon fill="midnightblue" stroke="midnightblue" points="963,-168.27 966.5,-178.27 970,-168.27 963,-168.27"/>
</g>
</g>
</svg>
