<?xml version="1.0" encoding="UTF-8" standalone="no"?>
<!DOCTYPE svg PUBLIC "-//W3C//DTD SVG 1.1//EN"
 "http://www.w3.org/Graphics/SVG/1.1/DTD/svg11.dtd">
<!-- Generated by graphviz version 2.43.0 (0)
 -->
<!-- Title: Components/Global_Include/Database_ID_Base.hpp Pages: 1 -->
<svg width="1317pt" height="373pt"
 viewBox="0.00 0.00 1316.50 373.00" xmlns="http://www.w3.org/2000/svg" xmlns:xlink="http://www.w3.org/1999/xlink">
<g id="graph0" class="graph" transform="scale(1 1) rotate(0) translate(4 369)">
<title>Components/Global_Include/Database_ID_Base.hpp</title>
<!-- Node1 -->
<g id="node1" class="node">
<title>Node1</title>
<g id="a_node1"><a xlink:title=" ">
<polygon fill="#bfbfbf" stroke="black" points="762,-334.5 762,-364.5 915,-364.5 915,-334.5 762,-334.5"/>
<text text-anchor="start" x="770" y="-352.5" font-family="Helvetica,sans-Serif" font-size="10.00">Components/Global_Include</text>
<text text-anchor="middle" x="838.5" y="-341.5" font-family="Helvetica,sans-Serif" font-size="10.00">/Database_ID_Base.hpp</text>
</a>
</g>
</g>
<!-- Node2 -->
<g id="node2" class="node">
<title>Node2</title>
<g id="a_node2"><a xlink:href="../../d3/d0d/_error_code_parser_8hpp.html" target="_top" xlink:title=" ">
<polygon fill="none" stroke="black" points="867,-256.5 867,-297.5 986,-297.5 986,-256.5 867,-256.5"/>
<text text-anchor="start" x="875" y="-285.5" font-family="Helvetica,sans-Serif" font-size="10.00">Components/Objects</text>
<text text-anchor="start" x="875" y="-274.5" font-family="Helvetica,sans-Serif" font-size="10.00">/ErrorHandler/include</text>
<text text-anchor="middle" x="926.5" y="-263.5" font-family="Helvetica,sans-Serif" font-size="10.00">/ErrorCodeParser.hpp</text>
</a>
</g>
</g>
<!-- Node1&#45;&gt;Node2 -->
<g id="edge1" class="edge">
<title>Node1&#45;&gt;Node2</title>
<path fill="none" stroke="midnightblue" d="M864.17,-327.93C876.12,-318.36 890.26,-307.03 902.05,-297.59"/>
<polygon fill="midnightblue" stroke="midnightblue" points="861.92,-325.25 856.31,-334.23 866.3,-330.71 861.92,-325.25"/>
</g>
<!-- Node14 -->
<g id="node14" class="node">
<title>Node14</title>
<g id="a_node14"><a xlink:href="../../d2/dc5/_service_base_8hpp.html" target="_top" xlink:title=" ">
<polygon fill="none" stroke="black" points="817.5,-178.5 817.5,-219.5 947.5,-219.5 947.5,-178.5 817.5,-178.5"/>
<text text-anchor="start" x="825.5" y="-207.5" font-family="Helvetica,sans-Serif" font-size="10.00">Components/Interfaces</text>
<text text-anchor="start" x="825.5" y="-196.5" font-family="Helvetica,sans-Serif" font-size="10.00">/ServiceBase/include</text>
<text text-anchor="middle" x="882.5" y="-185.5" font-family="Helvetica,sans-Serif" font-size="10.00">/ServiceBase.hpp</text>
</a>
</g>
</g>
<!-- Node1&#45;&gt;Node14 -->
<g id="edge29" class="edge">
<title>Node1&#45;&gt;Node14</title>
<path fill="none" stroke="midnightblue" d="M842.4,-324.39C845.77,-305.52 851.23,-278.77 858.5,-256 862.46,-243.61 868.15,-230.19 873,-219.6"/>
<polygon fill="midnightblue" stroke="midnightblue" points="838.91,-324.04 840.67,-334.49 845.81,-325.23 838.91,-324.04"/>
</g>
<!-- Node20 -->
<g id="node20" class="node">
<title>Node20</title>
<g id="a_node20"><a xlink:href="../../d1/da7/_m_q_t_t___message_8hpp.html" target="_top" xlink:title=" ">
<polygon fill="none" stroke="black" points="547.5,-262 547.5,-292 735.5,-292 735.5,-262 547.5,-262"/>
<text text-anchor="start" x="555.5" y="-280" font-family="Helvetica,sans-Serif" font-size="10.00">Components/Protocols</text>
<text text-anchor="middle" x="641.5" y="-269" font-family="Helvetica,sans-Serif" font-size="10.00">/MQTT/include/MQTT_Message.hpp</text>
</a>
</g>
</g>
<!-- Node1&#45;&gt;Node20 -->
<g id="edge22" class="edge">
<title>Node1&#45;&gt;Node20</title>
<path fill="none" stroke="midnightblue" d="M789.5,-330.96C755.96,-318.96 712.08,-303.26 680.82,-292.07"/>
<polygon fill="midnightblue" stroke="midnightblue" points="788.51,-334.33 799.11,-334.4 790.87,-327.74 788.51,-334.33"/>
</g>
<!-- Node3 -->
<g id="node3" class="node">
<title>Node3</title>
<g id="a_node3"><a xlink:href="../../d9/d1c/_sensor_controller_base_8hpp.html" target="_top" xlink:title=" ">
<polygon fill="none" stroke="black" points="613.5,-178.5 613.5,-219.5 797.5,-219.5 797.5,-178.5 613.5,-178.5"/>
<text text-anchor="start" x="621.5" y="-207.5" font-family="Helvetica,sans-Serif" font-size="10.00">Components/Interfaces</text>
<text text-anchor="start" x="621.5" y="-196.5" font-family="Helvetica,sans-Serif" font-size="10.00">/SensorControllerBase</text>
<text text-anchor="middle" x="705.5" y="-185.5" font-family="Helvetica,sans-Serif" font-size="10.00">/include/SensorControllerBase.hpp</text>
</a>
</g>
</g>
<!-- Node2&#45;&gt;Node3 -->
<g id="edge2" class="edge">
<title>Node2&#45;&gt;Node3</title>
<path fill="none" stroke="midnightblue" d="M860.1,-253.17C828.9,-242.44 792.09,-229.78 762.22,-219.51"/>
<polygon fill="midnightblue" stroke="midnightblue" points="858.99,-256.49 869.59,-256.43 861.27,-249.87 858.99,-256.49"/>
</g>
<!-- Node2&#45;&gt;Node14 -->
<g id="edge15" class="edge">
<title>Node2&#45;&gt;Node14</title>
<path fill="none" stroke="midnightblue" d="M910.15,-247.76C904.7,-238.35 898.77,-228.1 893.79,-219.51"/>
<polygon fill="midnightblue" stroke="midnightblue" points="907.13,-249.53 915.17,-256.43 913.19,-246.02 907.13,-249.53"/>
</g>
<!-- Node18 -->
<g id="node18" class="node">
<title>Node18</title>
<g id="a_node18"><a xlink:href="../../d2/df5/_error_code_parser_8cpp.html" target="_top" xlink:title=" ">
<polygon fill="none" stroke="black" points="966,-178.5 966,-219.5 1115,-219.5 1115,-178.5 966,-178.5"/>
<text text-anchor="start" x="974" y="-207.5" font-family="Helvetica,sans-Serif" font-size="10.00">Components/Objects</text>
<text text-anchor="start" x="974" y="-196.5" font-family="Helvetica,sans-Serif" font-size="10.00">/ErrorHandler/src/ErrorCode</text>
<text text-anchor="middle" x="1040.5" y="-185.5" font-family="Helvetica,sans-Serif" font-size="10.00">Parser.cpp</text>
</a>
</g>
</g>
<!-- Node2&#45;&gt;Node18 -->
<g id="edge20" class="edge">
<title>Node2&#45;&gt;Node18</title>
<path fill="none" stroke="midnightblue" d="M964.55,-250.64C979.77,-240.49 997.03,-228.98 1011.24,-219.51"/>
<polygon fill="midnightblue" stroke="midnightblue" points="962.24,-247.97 955.86,-256.43 966.12,-253.79 962.24,-247.97"/>
</g>
<!-- Node19 -->
<g id="node19" class="node">
<title>Node19</title>
<g id="a_node19"><a xlink:href="../../d9/db8/_error_code_parser__test_8cpp.html" target="_top" xlink:title=" ">
<polygon fill="none" stroke="black" points="1133,-178.5 1133,-219.5 1276,-219.5 1276,-178.5 1133,-178.5"/>
<text text-anchor="start" x="1141" y="-207.5" font-family="Helvetica,sans-Serif" font-size="10.00">Components/Objects</text>
<text text-anchor="start" x="1141" y="-196.5" font-family="Helvetica,sans-Serif" font-size="10.00">/ErrorHandler/test/test</text>
<text text-anchor="middle" x="1204.5" y="-185.5" font-family="Helvetica,sans-Serif" font-size="10.00">/ErrorCodeParser_test.cpp</text>
</a>
</g>
</g>
<!-- Node2&#45;&gt;Node19 -->
<g id="edge21" class="edge">
<title>Node2&#45;&gt;Node19</title>
<path fill="none" stroke="midnightblue" d="M995.97,-257.01C1037.81,-245.57 1090.96,-231.04 1133.14,-219.51"/>
<polygon fill="midnightblue" stroke="midnightblue" points="994.86,-253.68 986.14,-259.7 996.71,-260.44 994.86,-253.68"/>
</g>
<!-- Node4 -->
<g id="node4" class="node">
<title>Node4</title>
<g id="a_node4"><a xlink:href="../../db/d12/_distance_sensor_controller_8hpp.html" target="_top" xlink:title=" ">
<polygon fill="none" stroke="black" points="604,-95 604,-136 807,-136 807,-95 604,-95"/>
<text text-anchor="start" x="612" y="-124" font-family="Helvetica,sans-Serif" font-size="10.00">Components/Controller</text>
<text text-anchor="start" x="612" y="-113" font-family="Helvetica,sans-Serif" font-size="10.00">/DistanceSensorController</text>
<text text-anchor="middle" x="705.5" y="-102" font-family="Helvetica,sans-Serif" font-size="10.00">/include/DistanceSensorController.hpp</text>
</a>
</g>
</g>
<!-- Node3&#45;&gt;Node4 -->
<g id="edge3" class="edge">
<title>Node3&#45;&gt;Node4</title>
<path fill="none" stroke="midnightblue" d="M705.5,-168.06C705.5,-157.38 705.5,-145.63 705.5,-136.05"/>
<polygon fill="midnightblue" stroke="midnightblue" points="702,-168.27 705.5,-178.27 709,-168.27 702,-168.27"/>
</g>
<!-- Node8 -->
<g id="node8" class="node">
<title>Node8</title>
<g id="a_node8"><a xlink:href="../../d2/d8d/_sensor_controller_base_8cpp.html" target="_top" xlink:title=" ">
<polygon fill="none" stroke="black" points="191.5,-95 191.5,-136 353.5,-136 353.5,-95 191.5,-95"/>
<text text-anchor="start" x="199.5" y="-124" font-family="Helvetica,sans-Serif" font-size="10.00">Components/Interfaces</text>
<text text-anchor="start" x="199.5" y="-113" font-family="Helvetica,sans-Serif" font-size="10.00">/SensorControllerBase</text>
<text text-anchor="middle" x="272.5" y="-102" font-family="Helvetica,sans-Serif" font-size="10.00">/src/SensorControllerBase.cpp</text>
</a>
</g>
</g>
<!-- Node3&#45;&gt;Node8 -->
<g id="edge7" class="edge">
<title>Node3&#45;&gt;Node8</title>
<path fill="none" stroke="midnightblue" d="M603.36,-177.86C495.62,-159.73 465.69,-164.2 362.5,-142 354.4,-140.26 345.96,-138.2 337.63,-136.02"/>
<polygon fill="midnightblue" stroke="midnightblue" points="602.89,-181.33 613.34,-179.56 604.07,-174.43 602.89,-181.33"/>
</g>
<!-- Node9 -->
<g id="node9" class="node">
<title>Node9</title>
<g id="a_node9"><a xlink:href="../../db/dc2/_sensor_controller_base___m_o_c_k_8hpp.html" target="_top" xlink:title=" ">
<polygon fill="none" stroke="black" points="371.5,-89.5 371.5,-141.5 547.5,-141.5 547.5,-89.5 371.5,-89.5"/>
<text text-anchor="start" x="379.5" y="-129.5" font-family="Helvetica,sans-Serif" font-size="10.00">Components/Interfaces</text>
<text text-anchor="start" x="379.5" y="-118.5" font-family="Helvetica,sans-Serif" font-size="10.00">/SensorControllerBase</text>
<text text-anchor="start" x="379.5" y="-107.5" font-family="Helvetica,sans-Serif" font-size="10.00">/test/mock/SensorControllerBase</text>
<text text-anchor="middle" x="459.5" y="-96.5" font-family="Helvetica,sans-Serif" font-size="10.00">_MOCK.hpp</text>
</a>
</g>
</g>
<!-- Node3&#45;&gt;Node9 -->
<g id="edge8" class="edge">
<title>Node3&#45;&gt;Node9</title>
<path fill="none" stroke="midnightblue" d="M636.96,-175.29C605.33,-164.81 567.66,-152.33 535.19,-141.58"/>
<polygon fill="midnightblue" stroke="midnightblue" points="635.98,-178.66 646.58,-178.48 638.19,-172.01 635.98,-178.66"/>
</g>
<!-- Node11 -->
<g id="node11" class="node">
<title>Node11</title>
<g id="a_node11"><a xlink:href="../../d8/d19/_sensor_controller_test_8cpp.html" target="_top" xlink:title=" ">
<polygon fill="none" stroke="black" points="218.5,-6 218.5,-47 402.5,-47 402.5,-6 218.5,-6"/>
<text text-anchor="start" x="226.5" y="-35" font-family="Helvetica,sans-Serif" font-size="10.00">Components/Interfaces</text>
<text text-anchor="start" x="226.5" y="-24" font-family="Helvetica,sans-Serif" font-size="10.00">/SensorControllerBase</text>
<text text-anchor="middle" x="310.5" y="-13" font-family="Helvetica,sans-Serif" font-size="10.00">/test/test/SensorControllerTest.cpp</text>
</a>
</g>
</g>
<!-- Node3&#45;&gt;Node11 -->
<g id="edge11" class="edge">
<title>Node3&#45;&gt;Node11</title>
<path fill="none" stroke="midnightblue" d="M645.68,-173.84C628.45,-165.27 610.32,-154.58 595.5,-142 573.2,-123.08 580.79,-105.29 556.5,-89 556.5,-89 460.71,-65.05 388.67,-47.04"/>
<polygon fill="midnightblue" stroke="midnightblue" points="644.6,-177.2 655.13,-178.38 647.63,-170.89 644.6,-177.2"/>
</g>
<!-- Node12 -->
<g id="node12" class="node">
<title>Node12</title>
<g id="a_node12"><a xlink:href="../../d0/dc1/_data_broker_8hpp.html" target="_top" xlink:title=" ">
<polygon fill="none" stroke="black" points="825.5,-95 825.5,-136 943.5,-136 943.5,-95 825.5,-95"/>
<text text-anchor="start" x="833.5" y="-124" font-family="Helvetica,sans-Serif" font-size="10.00">Components/Objects</text>
<text text-anchor="start" x="833.5" y="-113" font-family="Helvetica,sans-Serif" font-size="10.00">/DataBroker/include</text>
<text text-anchor="middle" x="884.5" y="-102" font-family="Helvetica,sans-Serif" font-size="10.00">/DataBroker.hpp</text>
</a>
</g>
</g>
<!-- Node3&#45;&gt;Node12 -->
<g id="edge12" class="edge">
<title>Node3&#45;&gt;Node12</title>
<path fill="none" stroke="midnightblue" d="M757.58,-174.29C784.28,-162.13 816.41,-147.5 841.67,-136"/>
<polygon fill="midnightblue" stroke="midnightblue" points="756.03,-171.15 748.37,-178.48 758.93,-177.52 756.03,-171.15"/>
</g>
<!-- Node5 -->
<g id="node5" class="node">
<title>Node5</title>
<g id="a_node5"><a xlink:href="../../dd/dde/_distance_sensor_controller_8cpp.html" target="_top" xlink:title=" ">
<polygon fill="none" stroke="black" points="626,-6 626,-47 807,-47 807,-6 626,-6"/>
<text text-anchor="start" x="634" y="-35" font-family="Helvetica,sans-Serif" font-size="10.00">Components/Controller</text>
<text text-anchor="start" x="634" y="-24" font-family="Helvetica,sans-Serif" font-size="10.00">/DistanceSensorController</text>
<text text-anchor="middle" x="716.5" y="-13" font-family="Helvetica,sans-Serif" font-size="10.00">/src/DistanceSensorController.cpp</text>
</a>
</g>
</g>
<!-- Node4&#45;&gt;Node5 -->
<g id="edge4" class="edge">
<title>Node4&#45;&gt;Node5</title>
<path fill="none" stroke="midnightblue" d="M709.25,-84.81C710.83,-72.38 712.61,-58.27 714.01,-47.16"/>
<polygon fill="midnightblue" stroke="midnightblue" points="705.78,-84.4 708,-94.76 712.72,-85.28 705.78,-84.4"/>
</g>
<!-- Node6 -->
<g id="node6" class="node">
<title>Node6</title>
<g id="a_node6"><a xlink:href="../../d7/d91/_distance_sensor_controller__test_8cpp.html" target="_top" xlink:title=" ">
<polygon fill="none" stroke="black" points="421,-0.5 421,-52.5 608,-52.5 608,-0.5 421,-0.5"/>
<text text-anchor="start" x="429" y="-40.5" font-family="Helvetica,sans-Serif" font-size="10.00">Components/Controller</text>
<text text-anchor="start" x="429" y="-29.5" font-family="Helvetica,sans-Serif" font-size="10.00">/DistanceSensorController</text>
<text text-anchor="start" x="429" y="-18.5" font-family="Helvetica,sans-Serif" font-size="10.00">/test/test/DistanceSensorController</text>
<text text-anchor="middle" x="514.5" y="-7.5" font-family="Helvetica,sans-Serif" font-size="10.00">_test.cpp</text>
</a>
</g>
</g>
<!-- Node4&#45;&gt;Node6 -->
<g id="edge5" class="edge">
<title>Node4&#45;&gt;Node6</title>
<path fill="none" stroke="midnightblue" d="M653.33,-90.74C627.35,-78.9 595.94,-64.59 569.57,-52.58"/>
<polygon fill="midnightblue" stroke="midnightblue" points="652.08,-94.02 662.64,-94.98 654.99,-87.65 652.08,-94.02"/>
</g>
<!-- Node7 -->
<g id="node7" class="node">
<title>Node7</title>
<g id="a_node7"><a xlink:href="../../da/d75/_data_broker__test_8cpp.html" target="_top" xlink:title=" ">
<polygon fill="none" stroke="black" points="825,-6 825,-47 944,-47 944,-6 825,-6"/>
<text text-anchor="start" x="833" y="-35" font-family="Helvetica,sans-Serif" font-size="10.00">Components/Objects</text>
<text text-anchor="start" x="833" y="-24" font-family="Helvetica,sans-Serif" font-size="10.00">/DataBroker/test/test</text>
<text text-anchor="middle" x="884.5" y="-13" font-family="Helvetica,sans-Serif" font-size="10.00">/DataBroker_test.cpp</text>
</a>
</g>
</g>
<!-- Node4&#45;&gt;Node7 -->
<g id="edge6" class="edge">
<title>Node4&#45;&gt;Node7</title>
<path fill="none" stroke="midnightblue" d="M754.92,-90.48C783,-76.83 817.72,-59.96 844.15,-47.11"/>
<polygon fill="midnightblue" stroke="midnightblue" points="753.14,-87.46 745.67,-94.98 756.2,-93.75 753.14,-87.46"/>
</g>
<!-- Node10 -->
<g id="node10" class="node">
<title>Node10</title>
<g id="a_node10"><a xlink:href="../../dc/d0f/_sensor_controller_base___m_o_c_k_8cpp.html" target="_top" xlink:title=" ">
<polygon fill="none" stroke="black" points="24.5,-0.5 24.5,-52.5 200.5,-52.5 200.5,-0.5 24.5,-0.5"/>
<text text-anchor="start" x="32.5" y="-40.5" font-family="Helvetica,sans-Serif" font-size="10.00">Components/Interfaces</text>
<text text-anchor="start" x="32.5" y="-29.5" font-family="Helvetica,sans-Serif" font-size="10.00">/SensorControllerBase</text>
<text text-anchor="start" x="32.5" y="-18.5" font-family="Helvetica,sans-Serif" font-size="10.00">/test/mock/SensorControllerBase</text>
<text text-anchor="middle" x="112.5" y="-7.5" font-family="Helvetica,sans-Serif" font-size="10.00">_MOCK.cpp</text>
</a>
</g>
</g>
<!-- Node9&#45;&gt;Node10 -->
<g id="edge9" class="edge">
<title>Node9&#45;&gt;Node10</title>
<path fill="none" stroke="midnightblue" d="M361.5,-88.78C293.05,-71.89 274.24,-69.12 209.5,-53 206.54,-52.26 203.54,-51.51 200.5,-50.74"/>
<polygon fill="midnightblue" stroke="midnightblue" points="360.95,-92.25 371.5,-91.26 362.63,-85.45 360.95,-92.25"/>
</g>
<!-- Node9&#45;&gt;Node11 -->
<g id="edge10" class="edge">
<title>Node9&#45;&gt;Node11</title>
<path fill="none" stroke="midnightblue" d="M407.56,-84.17C386.49,-71.87 362.76,-58.01 344.04,-47.08"/>
<polygon fill="midnightblue" stroke="midnightblue" points="406,-87.32 416.4,-89.34 409.53,-81.27 406,-87.32"/>
</g>
<!-- Node12&#45;&gt;Node7 -->
<g id="edge14" class="edge">
<title>Node12&#45;&gt;Node7</title>
<path fill="none" stroke="midnightblue" d="M884.5,-84.44C884.5,-72.1 884.5,-58.16 884.5,-47.16"/>
<polygon fill="midnightblue" stroke="midnightblue" points="881,-84.76 884.5,-94.76 888,-84.76 881,-84.76"/>
</g>
<!-- Node13 -->
<g id="node13" class="node">
<title>Node13</title>
<g id="a_node13"><a xlink:href="../../d4/ddc/_data_broker_8cpp.html" target="_top" xlink:title=" ">
<polygon fill="none" stroke="black" points="962.5,-11.5 962.5,-41.5 1132.5,-41.5 1132.5,-11.5 962.5,-11.5"/>
<text text-anchor="start" x="970.5" y="-29.5" font-family="Helvetica,sans-Serif" font-size="10.00">Components/Objects</text>
<text text-anchor="middle" x="1047.5" y="-18.5" font-family="Helvetica,sans-Serif" font-size="10.00">/DataBroker/src/DataBroker.cpp</text>
</a>
</g>
</g>
<!-- Node12&#45;&gt;Node13 -->
<g id="edge13" class="edge">
<title>Node12&#45;&gt;Node13</title>
<path fill="none" stroke="midnightblue" d="M929.93,-90.25C959.33,-74.56 996.58,-54.68 1021.18,-41.55"/>
<polygon fill="midnightblue" stroke="midnightblue" points="928.25,-87.18 921.08,-94.98 931.55,-93.35 928.25,-87.18"/>
</g>
<!-- Node14&#45;&gt;Node12 -->
<g id="edge17" class="edge">
<title>Node14&#45;&gt;Node12</title>
<path fill="none" stroke="midnightblue" d="M883.23,-168.06C883.5,-157.38 883.79,-145.63 884.02,-136.05"/>
<polygon fill="midnightblue" stroke="midnightblue" points="879.73,-168.19 882.98,-178.27 886.73,-168.36 879.73,-168.19"/>
</g>
<!-- Node15 -->
<g id="node15" class="node">
<title>Node15</title>
<g id="a_node15"><a xlink:href="../../dc/d1d/_service__test_8cpp.html" target="_top" xlink:title=" ">
<polygon fill="none" stroke="black" points="961.5,-95 961.5,-136 1091.5,-136 1091.5,-95 961.5,-95"/>
<text text-anchor="start" x="969.5" y="-124" font-family="Helvetica,sans-Serif" font-size="10.00">Components/Interfaces</text>
<text text-anchor="start" x="969.5" y="-113" font-family="Helvetica,sans-Serif" font-size="10.00">/ServiceBase/test/test</text>
<text text-anchor="middle" x="1026.5" y="-102" font-family="Helvetica,sans-Serif" font-size="10.00">/Service_test.cpp</text>
</a>
</g>
</g>
<!-- Node14&#45;&gt;Node15 -->
<g id="edge16" class="edge">
<title>Node14&#45;&gt;Node15</title>
<path fill="none" stroke="midnightblue" d="M925.77,-173.51C946.89,-161.56 971.95,-147.37 991.79,-136.14"/>
<polygon fill="midnightblue" stroke="midnightblue" points="923.97,-170.51 916.99,-178.48 927.42,-176.6 923.97,-170.51"/>
</g>
<!-- Node16 -->
<g id="node16" class="node">
<title>Node16</title>
<g id="a_node16"><a xlink:href="../../dd/d22/_water_estimator___service_8hpp.html" target="_top" xlink:title=" ">
<polygon fill="none" stroke="black" points="1130.5,-95 1130.5,-136 1288.5,-136 1288.5,-95 1130.5,-95"/>
<text text-anchor="start" x="1138.5" y="-124" font-family="Helvetica,sans-Serif" font-size="10.00">Components/Service</text>
<text text-anchor="start" x="1138.5" y="-113" font-family="Helvetica,sans-Serif" font-size="10.00">/WaterEstimator/include</text>
<text text-anchor="middle" x="1209.5" y="-102" font-family="Helvetica,sans-Serif" font-size="10.00">/WaterEstimator_Service.hpp</text>
</a>
</g>
</g>
<!-- Node14&#45;&gt;Node16 -->
<g id="edge18" class="edge">
<title>Node14&#45;&gt;Node16</title>
<path fill="none" stroke="midnightblue" d="M957.19,-178.08C957.3,-178.05 957.4,-178.03 957.5,-178 1015.21,-163.27 1080.54,-147.34 1130.23,-135.39"/>
<polygon fill="midnightblue" stroke="midnightblue" points="956.33,-174.69 947.52,-180.57 958.08,-181.46 956.33,-174.69"/>
</g>
<!-- Node17 -->
<g id="node17" class="node">
<title>Node17</title>
<g id="a_node17"><a xlink:href="../../dd/dd3/_water_estimator___service_8cpp.html" target="_top" xlink:title=" ">
<polygon fill="none" stroke="black" points="1150.5,-6 1150.5,-47 1308.5,-47 1308.5,-6 1150.5,-6"/>
<text text-anchor="start" x="1158.5" y="-35" font-family="Helvetica,sans-Serif" font-size="10.00">Components/Service</text>
<text text-anchor="start" x="1158.5" y="-24" font-family="Helvetica,sans-Serif" font-size="10.00">/WaterEstimator/src</text>
<text text-anchor="middle" x="1229.5" y="-13" font-family="Helvetica,sans-Serif" font-size="10.00">/WaterEstimator_Service.cpp</text>
</a>
</g>
</g>
<!-- Node16&#45;&gt;Node17 -->
<g id="edge19" class="edge">
<title>Node16&#45;&gt;Node17</title>
<path fill="none" stroke="midnightblue" d="M1216.32,-84.81C1219.18,-72.38 1222.43,-58.27 1224.98,-47.16"/>
<polygon fill="midnightblue" stroke="midnightblue" points="1212.87,-84.23 1214.04,-94.76 1219.69,-85.8 1212.87,-84.23"/>
</g>
<!-- Node20&#45;&gt;Node3 -->
<g id="edge23" class="edge">
<title>Node20&#45;&gt;Node3</title>
<path fill="none" stroke="midnightblue" d="M660.1,-253.91C669.21,-243.09 680.1,-230.16 688.93,-219.68"/>
<polygon fill="midnightblue" stroke="midnightblue" points="657.3,-251.8 653.54,-261.7 662.66,-256.31 657.3,-251.8"/>
</g>
<!-- Node20&#45;&gt;Node14 -->
<g id="edge24" class="edge">
<title>Node20&#45;&gt;Node14</title>
<path fill="none" stroke="midnightblue" d="M695.61,-258.94C732.68,-247.25 781.93,-231.71 820.57,-219.53"/>
<polygon fill="midnightblue" stroke="midnightblue" points="694.47,-255.63 685.98,-261.97 696.57,-262.3 694.47,-255.63"/>
</g>
<!-- Node21 -->
<g id="node21" class="node">
<title>Node21</title>
<g id="a_node21"><a xlink:href="../../d2/d93/_m_q_t_t___message_8cpp.html" target="_top" xlink:title=" ">
<polygon fill="none" stroke="black" points="85.5,-184 85.5,-214 251.5,-214 251.5,-184 85.5,-184"/>
<text text-anchor="start" x="93.5" y="-202" font-family="Helvetica,sans-Serif" font-size="10.00">Components/Protocols</text>
<text text-anchor="middle" x="168.5" y="-191" font-family="Helvetica,sans-Serif" font-size="10.00">/MQTT/src/MQTT_Message.cpp</text>
</a>
</g>
</g>
<!-- Node20&#45;&gt;Node21 -->
<g id="edge25" class="edge">
<title>Node20&#45;&gt;Node21</title>
<path fill="none" stroke="midnightblue" d="M537.11,-262.61C460.37,-252.29 353.67,-236.95 260.5,-220 250.69,-218.21 240.33,-216.15 230.24,-214.03"/>
<polygon fill="midnightblue" stroke="midnightblue" points="536.89,-266.11 547.26,-263.97 537.82,-259.17 536.89,-266.11"/>
</g>
<!-- Node22 -->
<g id="node22" class="node">
<title>Node22</title>
<g id="a_node22"><a xlink:href="../../d2/d40/msg__test_8cpp.html" target="_top" xlink:title=" ">
<polygon fill="none" stroke="black" points="269.5,-184 269.5,-214 429.5,-214 429.5,-184 269.5,-184"/>
<text text-anchor="start" x="277.5" y="-202" font-family="Helvetica,sans-Serif" font-size="10.00">Components/Protocols</text>
<text text-anchor="middle" x="349.5" y="-191" font-family="Helvetica,sans-Serif" font-size="10.00">/MQTT/test/test/msg_test.cpp</text>
</a>
</g>
</g>
<!-- Node20&#45;&gt;Node22 -->
<g id="edge26" class="edge">
<title>Node20&#45;&gt;Node22</title>
<path fill="none" stroke="midnightblue" d="M577.8,-259.42C525.71,-245.86 452.86,-226.9 403.58,-214.07"/>
<polygon fill="midnightblue" stroke="midnightblue" points="577.04,-262.84 587.6,-261.97 578.81,-256.07 577.04,-262.84"/>
</g>
<!-- Node23 -->
<g id="node23" class="node">
<title>Node23</title>
<g id="a_node23"><a xlink:href="../../dd/d82/_active_current_sensor_8hpp.html" target="_top" xlink:title=" ">
<polygon fill="none" stroke="black" points="447.5,-178.5 447.5,-219.5 595.5,-219.5 595.5,-178.5 447.5,-178.5"/>
<text text-anchor="start" x="455.5" y="-207.5" font-family="Helvetica,sans-Serif" font-size="10.00">Components/Sensor/Active</text>
<text text-anchor="start" x="455.5" y="-196.5" font-family="Helvetica,sans-Serif" font-size="10.00">CurrentSensor/include</text>
<text text-anchor="middle" x="521.5" y="-185.5" font-family="Helvetica,sans-Serif" font-size="10.00">/ActiveCurrentSensor.hpp</text>
</a>
</g>
</g>
<!-- Node20&#45;&gt;Node23 -->
<g id="edge27" class="edge">
<title>Node20&#45;&gt;Node23</title>
<path fill="none" stroke="midnightblue" d="M610.38,-256.29C592.64,-245.06 570.48,-231.02 552.72,-219.77"/>
<polygon fill="midnightblue" stroke="midnightblue" points="608.89,-259.49 619.21,-261.88 612.63,-253.58 608.89,-259.49"/>
</g>
<!-- Node24 -->
<g id="node24" class="node">
<title>Node24</title>
<g id="a_node24"><a xlink:href="../../d2/d77/_active_current_sensor_8cpp.html" target="_top" xlink:title=" ">
<polygon fill="none" stroke="black" points="0,-95 0,-136 173,-136 173,-95 0,-95"/>
<text text-anchor="start" x="8" y="-124" font-family="Helvetica,sans-Serif" font-size="10.00">Components/Sensor/Active</text>
<text text-anchor="start" x="8" y="-113" font-family="Helvetica,sans-Serif" font-size="10.00">CurrentSensor/src/ActiveCurrent</text>
<text text-anchor="middle" x="86.5" y="-102" font-family="Helvetica,sans-Serif" font-size="10.00">Sensor.cpp</text>
</a>
</g>
</g>
<!-- Node23&#45;&gt;Node24 -->
<g id="edge28" class="edge">
<title>Node23&#45;&gt;Node24</title>
<path fill="none" stroke="midnightblue" d="M437.24,-177.86C323.83,-156.96 291.93,-164.14 182.5,-142 173.88,-140.26 164.88,-138.19 156.01,-136.01"/>
<polygon fill="midnightblue" stroke="midnightblue" points="436.89,-181.36 447.37,-179.76 438.18,-174.48 436.89,-181.36"/>
</g>
</g>
</svg>
