<?xml version="1.0" encoding="UTF-8" standalone="no"?>
<!DOCTYPE svg PUBLIC "-//W3C//DTD SVG 1.1//EN"
 "http://www.w3.org/Graphics/SVG/1.1/DTD/svg11.dtd">
<!-- Generated by graphviz version 2.43.0 (0)
 -->
<!-- Title: OnlineDetector_service Pages: 1 -->
<svg width="360pt" height="950pt"
 viewBox="0.00 0.00 360.00 950.00" xmlns="http://www.w3.org/2000/svg" xmlns:xlink="http://www.w3.org/1999/xlink">
<g id="graph0" class="graph" transform="scale(1 1) rotate(0) translate(4 946)">
<title>OnlineDetector_service</title>
<!-- Node1 -->
<g id="node1" class="node">
<title>Node1</title>
<g id="a_node1"><a xlink:title=" ">
<polygon fill="#bfbfbf" stroke="black" points="101,-0.5 101,-90.5 259,-90.5 259,-0.5 101,-0.5"/>
<text text-anchor="middle" x="180" y="-78.5" font-family="Helvetica,sans-Serif" font-size="10.00">OnlineDetector_service</text>
<polyline fill="none" stroke="black" points="101,-71.5 259,-71.5 "/>
<text text-anchor="start" x="109" y="-59.5" font-family="Helvetica,sans-Serif" font-size="10.00">&#45; msg_sucess</text>
<text text-anchor="start" x="109" y="-48.5" font-family="Helvetica,sans-Serif" font-size="10.00">&#45; msg_fail</text>
<polyline fill="none" stroke="black" points="101,-41.5 259,-41.5 "/>
<text text-anchor="start" x="109" y="-29.5" font-family="Helvetica,sans-Serif" font-size="10.00">+ OnlineDetector_service()</text>
<text text-anchor="start" x="109" y="-18.5" font-family="Helvetica,sans-Serif" font-size="10.00">+ ~OnlineDetector_service()</text>
<text text-anchor="start" x="109" y="-7.5" font-family="Helvetica,sans-Serif" font-size="10.00">&#45; mainFunction()</text>
</a>
</g>
</g>
<!-- Node2 -->
<g id="node2" class="node">
<title>Node2</title>
<g id="a_node2"><a xlink:href="../../da/d3e/class_service_queue_base.html" target="_top" xlink:title=" ">
<polygon fill="none" stroke="black" points="106,-128.5 106,-240.5 254,-240.5 254,-128.5 106,-128.5"/>
<text text-anchor="start" x="114" y="-228.5" font-family="Helvetica,sans-Serif" font-size="10.00">ServiceQueueBase&lt; MQTT</text>
<text text-anchor="middle" x="180" y="-217.5" font-family="Helvetica,sans-Serif" font-size="10.00">_Message &gt;</text>
<polyline fill="none" stroke="black" points="106,-210.5 254,-210.5 "/>
<text text-anchor="start" x="114" y="-198.5" font-family="Helvetica,sans-Serif" font-size="10.00"># m_queue</text>
<polyline fill="none" stroke="black" points="106,-191.5 254,-191.5 "/>
<text text-anchor="start" x="114" y="-179.5" font-family="Helvetica,sans-Serif" font-size="10.00">+ ServiceQueueBase()</text>
<text text-anchor="start" x="114" y="-168.5" font-family="Helvetica,sans-Serif" font-size="10.00">+ ~ServiceQueueBase()</text>
<text text-anchor="start" x="114" y="-157.5" font-family="Helvetica,sans-Serif" font-size="10.00">+ getQueue()</text>
<text text-anchor="start" x="114" y="-146.5" font-family="Helvetica,sans-Serif" font-size="10.00"># mainFunction()</text>
<text text-anchor="start" x="114" y="-135.5" font-family="Helvetica,sans-Serif" font-size="10.00"># run()</text>
</a>
</g>
</g>
<!-- Node2&#45;&gt;Node1 -->
<g id="edge1" class="edge">
<title>Node2&#45;&gt;Node1</title>
<path fill="none" stroke="midnightblue" d="M180,-118.13C180,-108.83 180,-99.44 180,-90.67"/>
<polygon fill="none" stroke="midnightblue" points="176.5,-118.17 180,-128.17 183.5,-118.17 176.5,-118.17"/>
</g>
<!-- Node3 -->
<g id="node3" class="node">
<title>Node3</title>
<g id="a_node3"><a xlink:href="../../d4/d82/class_service_base.html" target="_top" xlink:title=" ">
<polygon fill="none" stroke="black" points="0,-288.5 0,-455.5 176,-455.5 176,-288.5 0,-288.5"/>
<text text-anchor="middle" x="88" y="-443.5" font-family="Helvetica,sans-Serif" font-size="10.00">ServiceBase&lt; MQTT_Message &gt;</text>
<polyline fill="none" stroke="black" points="0,-436.5 176,-436.5 "/>
<text text-anchor="start" x="8" y="-424.5" font-family="Helvetica,sans-Serif" font-size="10.00"># m_test_pin</text>
<text text-anchor="start" x="8" y="-413.5" font-family="Helvetica,sans-Serif" font-size="10.00"># m_buffer</text>
<text text-anchor="start" x="8" y="-402.5" font-family="Helvetica,sans-Serif" font-size="10.00"># m_error_id</text>
<text text-anchor="start" x="8" y="-391.5" font-family="Helvetica,sans-Serif" font-size="10.00">&#45; m_isActive</text>
<text text-anchor="start" x="8" y="-380.5" font-family="Helvetica,sans-Serif" font-size="10.00">&#45; m_mqtt</text>
<polyline fill="none" stroke="black" points="0,-373.5 176,-373.5 "/>
<text text-anchor="start" x="8" y="-361.5" font-family="Helvetica,sans-Serif" font-size="10.00">+ ServiceBase()</text>
<text text-anchor="start" x="8" y="-350.5" font-family="Helvetica,sans-Serif" font-size="10.00">+ ~ServiceBase()</text>
<text text-anchor="start" x="8" y="-339.5" font-family="Helvetica,sans-Serif" font-size="10.00">+ isActive()</text>
<text text-anchor="start" x="8" y="-328.5" font-family="Helvetica,sans-Serif" font-size="10.00"># mainFunction()</text>
<text text-anchor="start" x="8" y="-317.5" font-family="Helvetica,sans-Serif" font-size="10.00"># setIsActive()</text>
<text text-anchor="start" x="8" y="-306.5" font-family="Helvetica,sans-Serif" font-size="10.00"># postData()</text>
<text text-anchor="start" x="8" y="-295.5" font-family="Helvetica,sans-Serif" font-size="10.00"># postError()</text>
</a>
</g>
</g>
<!-- Node3&#45;&gt;Node2 -->
<g id="edge2" class="edge">
<title>Node3&#45;&gt;Node2</title>
<path fill="none" stroke="midnightblue" d="M133.54,-279.18C140.07,-266 146.62,-252.8 152.65,-240.64"/>
<polygon fill="none" stroke="midnightblue" points="130.33,-277.77 129.02,-288.29 136.6,-280.88 130.33,-277.77"/>
</g>
<!-- Node4 -->
<g id="node4" class="node">
<title>Node4</title>
<g id="a_node4"><a xlink:href="../../d7/d6d/class_task.html" target="_top" xlink:title="Encapsulate a runnable task.">
<polygon fill="none" stroke="black" points="51,-719.5 51,-941.5 149,-941.5 149,-719.5 51,-719.5"/>
<text text-anchor="middle" x="100" y="-929.5" font-family="Helvetica,sans-Serif" font-size="10.00">Task</text>
<polyline fill="none" stroke="black" points="51,-922.5 149,-922.5 "/>
<text text-anchor="start" x="59" y="-910.5" font-family="Helvetica,sans-Serif" font-size="10.00">&#45; m_handle</text>
<text text-anchor="start" x="59" y="-899.5" font-family="Helvetica,sans-Serif" font-size="10.00">&#45; m_taskName</text>
<text text-anchor="start" x="59" y="-888.5" font-family="Helvetica,sans-Serif" font-size="10.00">&#45; m_stackSize</text>
<text text-anchor="start" x="59" y="-877.5" font-family="Helvetica,sans-Serif" font-size="10.00">&#45; m_priority</text>
<text text-anchor="start" x="59" y="-866.5" font-family="Helvetica,sans-Serif" font-size="10.00">&#45; m_taskData</text>
<text text-anchor="start" x="59" y="-855.5" font-family="Helvetica,sans-Serif" font-size="10.00">&#45; m_coreId</text>
<polyline fill="none" stroke="black" points="51,-848.5 149,-848.5 "/>
<text text-anchor="start" x="59" y="-836.5" font-family="Helvetica,sans-Serif" font-size="10.00">+ Task()</text>
<text text-anchor="start" x="59" y="-825.5" font-family="Helvetica,sans-Serif" font-size="10.00">+ ~Task()</text>
<text text-anchor="start" x="59" y="-814.5" font-family="Helvetica,sans-Serif" font-size="10.00">+ setStackSize()</text>
<text text-anchor="start" x="59" y="-803.5" font-family="Helvetica,sans-Serif" font-size="10.00">+ setPriority()</text>
<text text-anchor="start" x="59" y="-792.5" font-family="Helvetica,sans-Serif" font-size="10.00">+ setName()</text>
<text text-anchor="start" x="59" y="-781.5" font-family="Helvetica,sans-Serif" font-size="10.00">+ setCore()</text>
<text text-anchor="start" x="59" y="-770.5" font-family="Helvetica,sans-Serif" font-size="10.00">+ start()</text>
<text text-anchor="start" x="59" y="-759.5" font-family="Helvetica,sans-Serif" font-size="10.00">+ stop()</text>
<text text-anchor="start" x="59" y="-748.5" font-family="Helvetica,sans-Serif" font-size="10.00">+ run()</text>
<text text-anchor="start" x="59" y="-737.5" font-family="Helvetica,sans-Serif" font-size="10.00">+ delay()</text>
<text text-anchor="start" x="59" y="-726.5" font-family="Helvetica,sans-Serif" font-size="10.00">&#45; runTask()</text>
</a>
</g>
</g>
<!-- Node4&#45;&gt;Node3 -->
<g id="edge3" class="edge">
<title>Node4&#45;&gt;Node3</title>
<path fill="none" stroke="midnightblue" d="M96.84,-709.17C94.74,-629.3 92.04,-526.54 90.18,-455.77"/>
<polygon fill="none" stroke="midnightblue" points="93.34,-709.38 97.1,-719.29 100.34,-709.2 93.34,-709.38"/>
</g>
<!-- Node5 -->
<g id="node5" class="node">
<title>Node5</title>
<g id="a_node5"><a xlink:href="../../d4/d82/class_service_base.html" target="_top" xlink:title=" ">
<polygon fill="none" stroke="black" points="116.5,-503.5 116.5,-681.5 243.5,-681.5 243.5,-503.5 116.5,-503.5"/>
<text text-anchor="start" x="124.5" y="-669.5" font-family="Helvetica,sans-Serif" font-size="10.00">ServiceBase&lt; BUFFER</text>
<text text-anchor="middle" x="180" y="-658.5" font-family="Helvetica,sans-Serif" font-size="10.00">_TYPE &gt;</text>
<polyline fill="none" stroke="black" points="116.5,-651.5 243.5,-651.5 "/>
<text text-anchor="start" x="124.5" y="-639.5" font-family="Helvetica,sans-Serif" font-size="10.00"># m_test_pin</text>
<text text-anchor="start" x="124.5" y="-628.5" font-family="Helvetica,sans-Serif" font-size="10.00"># m_buffer</text>
<text text-anchor="start" x="124.5" y="-617.5" font-family="Helvetica,sans-Serif" font-size="10.00"># m_error_id</text>
<text text-anchor="start" x="124.5" y="-606.5" font-family="Helvetica,sans-Serif" font-size="10.00">&#45; m_isActive</text>
<text text-anchor="start" x="124.5" y="-595.5" font-family="Helvetica,sans-Serif" font-size="10.00">&#45; m_mqtt</text>
<polyline fill="none" stroke="black" points="116.5,-588.5 243.5,-588.5 "/>
<text text-anchor="start" x="124.5" y="-576.5" font-family="Helvetica,sans-Serif" font-size="10.00">+ ServiceBase()</text>
<text text-anchor="start" x="124.5" y="-565.5" font-family="Helvetica,sans-Serif" font-size="10.00">+ ~ServiceBase()</text>
<text text-anchor="start" x="124.5" y="-554.5" font-family="Helvetica,sans-Serif" font-size="10.00">+ isActive()</text>
<text text-anchor="start" x="124.5" y="-543.5" font-family="Helvetica,sans-Serif" font-size="10.00"># mainFunction()</text>
<text text-anchor="start" x="124.5" y="-532.5" font-family="Helvetica,sans-Serif" font-size="10.00"># setIsActive()</text>
<text text-anchor="start" x="124.5" y="-521.5" font-family="Helvetica,sans-Serif" font-size="10.00"># postData()</text>
<text text-anchor="start" x="124.5" y="-510.5" font-family="Helvetica,sans-Serif" font-size="10.00"># postError()</text>
</a>
</g>
</g>
<!-- Node4&#45;&gt;Node5 -->
<g id="edge5" class="edge">
<title>Node4&#45;&gt;Node5</title>
<path fill="none" stroke="midnightblue" d="M140.52,-709.97C143.73,-700.49 146.94,-691.02 150.06,-681.81"/>
<polygon fill="none" stroke="midnightblue" points="137.2,-708.85 137.31,-719.45 143.83,-711.1 137.2,-708.85"/>
</g>
<!-- Node5&#45;&gt;Node3 -->
<g id="edge4" class="edge">
<title>Node5&#45;&gt;Node3</title>
<path fill="none" stroke="orange" d="M138.93,-493.97C133.53,-481.14 128.04,-468.1 122.76,-455.56"/>
<polygon fill="orange" stroke="orange" points="135.74,-495.4 142.85,-503.26 142.19,-492.68 135.74,-495.4"/>
<text text-anchor="middle" x="185.5" y="-477" font-family="Helvetica,sans-Serif" font-size="10.00"> &lt; MQTT_Message &gt;</text>
</g>
<!-- Node6 -->
<g id="node6" class="node">
<title>Node6</title>
<g id="a_node6"><a xlink:href="../../da/d3e/class_service_queue_base.html" target="_top" xlink:title=" ">
<polygon fill="none" stroke="black" points="194,-316 194,-428 352,-428 352,-316 194,-316"/>
<text text-anchor="start" x="202" y="-416" font-family="Helvetica,sans-Serif" font-size="10.00">ServiceQueueBase&lt; BUFFER</text>
<text text-anchor="middle" x="273" y="-405" font-family="Helvetica,sans-Serif" font-size="10.00">_TYPE, QUEUE_TYPE &gt;</text>
<polyline fill="none" stroke="black" points="194,-398 352,-398 "/>
<text text-anchor="start" x="202" y="-386" font-family="Helvetica,sans-Serif" font-size="10.00"># m_queue</text>
<polyline fill="none" stroke="black" points="194,-379 352,-379 "/>
<text text-anchor="start" x="202" y="-367" font-family="Helvetica,sans-Serif" font-size="10.00">+ ServiceQueueBase()</text>
<text text-anchor="start" x="202" y="-356" font-family="Helvetica,sans-Serif" font-size="10.00">+ ~ServiceQueueBase()</text>
<text text-anchor="start" x="202" y="-345" font-family="Helvetica,sans-Serif" font-size="10.00">+ getQueue()</text>
<text text-anchor="start" x="202" y="-334" font-family="Helvetica,sans-Serif" font-size="10.00"># mainFunction()</text>
<text text-anchor="start" x="202" y="-323" font-family="Helvetica,sans-Serif" font-size="10.00"># run()</text>
</a>
</g>
</g>
<!-- Node5&#45;&gt;Node6 -->
<g id="edge7" class="edge">
<title>Node5&#45;&gt;Node6</title>
<path fill="none" stroke="midnightblue" d="M236.96,-494.18C238.36,-491.11 239.72,-488.04 241,-485 248.62,-466.93 255.07,-446.47 260.13,-428.03"/>
<polygon fill="none" stroke="midnightblue" points="233.7,-492.88 232.58,-503.41 240.03,-495.87 233.7,-492.88"/>
</g>
<!-- Node6&#45;&gt;Node2 -->
<g id="edge6" class="edge">
<title>Node6&#45;&gt;Node2</title>
<path fill="none" stroke="orange" d="M240.81,-306.79C230.03,-285.28 218.11,-261.52 207.71,-240.76"/>
<polygon fill="orange" stroke="orange" points="237.74,-308.48 245.35,-315.85 244,-305.34 237.74,-308.48"/>
<text text-anchor="middle" x="271.5" y="-262" font-family="Helvetica,sans-Serif" font-size="10.00"> &lt; MQTT_Message &gt;</text>
</g>
</g>
</svg>
