<?xml version="1.0" encoding="UTF-8" standalone="no"?>
<!DOCTYPE svg PUBLIC "-//W3C//DTD SVG 1.1//EN"
 "http://www.w3.org/Graphics/SVG/1.1/DTD/svg11.dtd">
<!-- Generated by graphviz version 2.43.0 (0)
 -->
<!-- Title: QueryURIMessage Pages: 1 -->
<!--zoomable 801 -->
<svg id="main" version="1.1" xmlns="http://www.w3.org/2000/svg" xmlns:xlink="http://www.w3.org/1999/xlink" xml:space="preserve" onload="init(evt)">
<style type="text/css"><![CDATA[
.edge:hover path { stroke: red; }
.edge:hover polygon { stroke: red; fill: red; }
]]></style>
<script type="text/javascript"><![CDATA[
var edges = document.getElementsByTagName('g');
if (edges && edges.length) {
  for (var i=0;i<edges.length;i++) {
    if (edges[i].id.substr(0,4)=='edge') {
      edges[i].setAttribute('class','edge');
    }
  }
}
]]></script>
        <defs>
                <circle id="rim" cx="0" cy="0" r="7"/>
                <circle id="rim2" cx="0" cy="0" r="3.5"/>
                <g id="zoomPlus">
                        <use xlink:href="#rim" fill="#404040">
                                <set attributeName="fill" to="#808080" begin="zoomplus.mouseover" end="zoomplus.mouseout"/>
                        </use>
                        <path d="M-4,0h8M0,-4v8" fill="none" stroke="white" stroke-width="1.5" pointer-events="none"/>
                </g>
                <g id="zoomMin">
                        <use xlink:href="#rim" fill="#404040">
                                <set attributeName="fill" to="#808080" begin="zoomminus.mouseover" end="zoomminus.mouseout"/>
                        </use>
                        <path d="M-4,0h8" fill="none" stroke="white" stroke-width="1.5" pointer-events="none"/>
                </g>
                <g id="dirArrow">
                        <path fill="none" stroke="white" stroke-width="1.5" d="M0,-3.0v7 M-2.5,-0.5L0,-3.0L2.5,-0.5"/>
                </g>
               <g id="resetDef">
                       <use xlink:href="#rim2" fill="#404040">
                               <set attributeName="fill" to="#808080" begin="reset.mouseover" end="reset.mouseout"/>
                       </use>
               </g>
        </defs>

<script type="text/javascript">
var viewWidth = 339;
var viewHeight = 801;
var sectionId = 'dynsection-1';
</script>
<script xlink:href="../../svgpan.js"/>
<svg id="graph" class="graph">
<g id="viewport">
<title>QueryURIMessage</title>
<!-- Node1 -->
<g id="node1" class="node">
<title>Node1</title>
<g id="a_node1"><a xlink:title=" ">
<polygon fill="#bfbfbf" stroke="black" points="63.5,-0.5 63.5,-79.5 197.5,-79.5 197.5,-0.5 63.5,-0.5"/>
<text text-anchor="middle" x="130.5" y="-67.5" font-family="Helvetica,sans-Serif" font-size="10.00">QueryURIMessage</text>
<polyline fill="none" stroke="black" points="63.5,-60.5 197.5,-60.5 "/>
<text text-anchor="middle" x="130.5" y="-48.5" font-family="Helvetica,sans-Serif" font-size="10.00"> </text>
<polyline fill="none" stroke="black" points="63.5,-41.5 197.5,-41.5 "/>
<text text-anchor="start" x="71.5" y="-29.5" font-family="Helvetica,sans-Serif" font-size="10.00">+ QueryURIMessage()</text>
<text text-anchor="start" x="71.5" y="-18.5" font-family="Helvetica,sans-Serif" font-size="10.00">+ QueryURIMessage()</text>
<text text-anchor="start" x="71.5" y="-7.5" font-family="Helvetica,sans-Serif" font-size="10.00">+ ~QueryURIMessage()</text>
</a>
</g>
</g>
<!-- Node2 -->
<g id="node2" class="node">
<title>Node2</title>
<g id="a_node2"><a xlink:href="../../d2/d8d/class_query_message_base.html" target="_top" xlink:title=" ">
<polygon fill="none" stroke="black" points="60.5,-117.5 60.5,-262.5 200.5,-262.5 200.5,-117.5 60.5,-117.5"/>
<text text-anchor="start" x="68.5" y="-250.5" font-family="Helvetica,sans-Serif" font-size="10.00">QueryMessageBase&lt; std</text>
<text text-anchor="middle" x="130.5" y="-239.5" font-family="Helvetica,sans-Serif" font-size="10.00">::string &gt;</text>
<polyline fill="none" stroke="black" points="60.5,-232.5 200.5,-232.5 "/>
<text text-anchor="start" x="68.5" y="-220.5" font-family="Helvetica,sans-Serif" font-size="10.00">&#45; m_entity_id</text>
<polyline fill="none" stroke="black" points="60.5,-213.5 200.5,-213.5 "/>
<text text-anchor="start" x="68.5" y="-201.5" font-family="Helvetica,sans-Serif" font-size="10.00">+ QueryMessageBase()</text>
<text text-anchor="start" x="68.5" y="-190.5" font-family="Helvetica,sans-Serif" font-size="10.00">+ QueryMessageBase()</text>
<text text-anchor="start" x="68.5" y="-179.5" font-family="Helvetica,sans-Serif" font-size="10.00">+ ~QueryMessageBase()</text>
<text text-anchor="start" x="68.5" y="-168.5" font-family="Helvetica,sans-Serif" font-size="10.00">+ addData()</text>
<text text-anchor="start" x="68.5" y="-157.5" font-family="Helvetica,sans-Serif" font-size="10.00">+ addData()</text>
<text text-anchor="start" x="68.5" y="-146.5" font-family="Helvetica,sans-Serif" font-size="10.00">+ getBuffer()</text>
<text text-anchor="start" x="68.5" y="-135.5" font-family="Helvetica,sans-Serif" font-size="10.00">+ getId()</text>
<text text-anchor="start" x="68.5" y="-124.5" font-family="Helvetica,sans-Serif" font-size="10.00">+ isEmpty()</text>
</a>
</g>
</g>
<!-- Node2&#45;&gt;Node1 -->
<g id="edge1" class="edge">
<title>Node2&#45;&gt;Node1</title>
<path fill="none" stroke="midnightblue" d="M130.5,-107.15C130.5,-97.58 130.5,-88.18 130.5,-79.61"/>
<polygon fill="none" stroke="midnightblue" points="127,-107.17 130.5,-117.17 134,-107.17 127,-107.17"/>
</g>
<!-- Node3 -->
<g id="node3" class="node">
<title>Node3</title>
<g id="a_node3"><a xlink:title=" ">
<polygon fill="none" stroke="#bfbfbf" points="54.5,-492.5 54.5,-560.5 206.5,-560.5 206.5,-492.5 54.5,-492.5"/>
<text text-anchor="start" x="62.5" y="-548.5" font-family="Helvetica,sans-Serif" font-size="10.00">std::vector&lt; QueryMessage</text>
<text text-anchor="middle" x="130.5" y="-537.5" font-family="Helvetica,sans-Serif" font-size="10.00">Base::msg_data_t &gt;</text>
<polyline fill="none" stroke="#bfbfbf" points="54.5,-530.5 206.5,-530.5 "/>
<text text-anchor="middle" x="130.5" y="-518.5" font-family="Helvetica,sans-Serif" font-size="10.00"> </text>
<polyline fill="none" stroke="#bfbfbf" points="54.5,-511.5 206.5,-511.5 "/>
<text text-anchor="middle" x="130.5" y="-499.5" font-family="Helvetica,sans-Serif" font-size="10.00"> </text>
</a>
</g>
</g>
<!-- Node3&#45;&gt;Node2 -->
<g id="edge2" class="edge">
<title>Node3&#45;&gt;Node2</title>
<path fill="none" stroke="#404040" d="M126.96,-492.25C125.58,-477.76 124.18,-460.56 123.5,-445 120.9,-385.06 121.74,-369.97 123.5,-310 123.83,-298.64 124.35,-286.67 124.95,-274.89"/>
<polygon fill="none" stroke="#404040" points="124.96,-274.69 121.28,-268.48 125.6,-262.71 129.27,-268.91 124.96,-274.69"/>
<text text-anchor="middle" x="151.5" y="-375" font-family="Helvetica,sans-Serif" font-size="10.00"> #m_buffer</text>
</g>
<!-- Node7 -->
<g id="node7" class="node">
<title>Node7</title>
<g id="a_node7"><a xlink:href="../../d2/d8d/class_query_message_base.html" target="_top" xlink:title=" ">
<polygon fill="none" stroke="black" points="188.5,-310.5 188.5,-444.5 330.5,-444.5 330.5,-310.5 188.5,-310.5"/>
<text text-anchor="middle" x="259.5" y="-432.5" font-family="Helvetica,sans-Serif" font-size="10.00">QueryMessageBase&lt; T &gt;</text>
<polyline fill="none" stroke="black" points="188.5,-425.5 330.5,-425.5 "/>
<text text-anchor="start" x="196.5" y="-413.5" font-family="Helvetica,sans-Serif" font-size="10.00">&#45; m_entity_id</text>
<polyline fill="none" stroke="black" points="188.5,-406.5 330.5,-406.5 "/>
<text text-anchor="start" x="196.5" y="-394.5" font-family="Helvetica,sans-Serif" font-size="10.00">+ QueryMessageBase()</text>
<text text-anchor="start" x="196.5" y="-383.5" font-family="Helvetica,sans-Serif" font-size="10.00">+ QueryMessageBase()</text>
<text text-anchor="start" x="196.5" y="-372.5" font-family="Helvetica,sans-Serif" font-size="10.00">+ ~QueryMessageBase()</text>
<text text-anchor="start" x="196.5" y="-361.5" font-family="Helvetica,sans-Serif" font-size="10.00">+ addData()</text>
<text text-anchor="start" x="196.5" y="-350.5" font-family="Helvetica,sans-Serif" font-size="10.00">+ addData()</text>
<text text-anchor="start" x="196.5" y="-339.5" font-family="Helvetica,sans-Serif" font-size="10.00">+ getBuffer()</text>
<text text-anchor="start" x="196.5" y="-328.5" font-family="Helvetica,sans-Serif" font-size="10.00">+ getId()</text>
<text text-anchor="start" x="196.5" y="-317.5" font-family="Helvetica,sans-Serif" font-size="10.00">+ isEmpty()</text>
</a>
</g>
</g>
<!-- Node3&#45;&gt;Node7 -->
<g id="edge8" class="edge">
<title>Node3&#45;&gt;Node7</title>
<path fill="none" stroke="#404040" d="M159.77,-492.14C169.8,-480.72 181.46,-467.43 193.21,-454.04"/>
<polygon fill="none" stroke="#404040" points="193.41,-453.81 194.37,-446.66 201.33,-444.79 200.38,-451.93 193.41,-453.81"/>
<text text-anchor="middle" x="210.5" y="-466" font-family="Helvetica,sans-Serif" font-size="10.00"> #m_buffer</text>
</g>
<!-- Node4 -->
<g id="node4" class="node">
<title>Node4</title>
<g id="a_node4"><a xlink:href="../../d2/d8d/class_query_message_base.html#d4/df2/struct_query_message_base_1_1msg__data__t" target="_top" xlink:title=" ">
<polygon fill="none" stroke="black" points="0,-619.5 0,-687.5 131,-687.5 131,-619.5 0,-619.5"/>
<text text-anchor="start" x="8" y="-675.5" font-family="Helvetica,sans-Serif" font-size="10.00">QueryMessageBase&lt; T</text>
<text text-anchor="middle" x="65.5" y="-664.5" font-family="Helvetica,sans-Serif" font-size="10.00"> &gt;::msg_data_t</text>
<polyline fill="none" stroke="black" points="0,-657.5 131,-657.5 "/>
<text text-anchor="start" x="8" y="-645.5" font-family="Helvetica,sans-Serif" font-size="10.00">+ time_stamp</text>
<polyline fill="none" stroke="black" points="0,-638.5 131,-638.5 "/>
<text text-anchor="middle" x="65.5" y="-626.5" font-family="Helvetica,sans-Serif" font-size="10.00"> </text>
</a>
</g>
</g>
<!-- Node4&#45;&gt;Node3 -->
<g id="edge3" class="edge">
<title>Node4&#45;&gt;Node3</title>
<path fill="none" stroke="#404040" d="M82.75,-619.33C90.31,-604.78 99.31,-587.49 107.44,-571.85"/>
<polygon fill="none" stroke="#404040" points="107.63,-571.47 106.85,-564.3 113.17,-560.82 113.95,-567.99 107.63,-571.47"/>
<text text-anchor="middle" x="131.5" y="-587.5" font-family="Helvetica,sans-Serif" font-size="10.00"> +elements</text>
</g>
<!-- Node5 -->
<g id="node5" class="node">
<title>Node5</title>
<g id="a_node5"><a xlink:title=" ">
<polygon fill="none" stroke="#bfbfbf" points="116,-735.5 116,-792.5 145,-792.5 145,-735.5 116,-735.5"/>
<text text-anchor="middle" x="130.5" y="-780.5" font-family="Helvetica,sans-Serif" font-size="10.00">T</text>
<polyline fill="none" stroke="#bfbfbf" points="116,-773.5 145,-773.5 "/>
<text text-anchor="middle" x="130.5" y="-761.5" font-family="Helvetica,sans-Serif" font-size="10.00"> </text>
<polyline fill="none" stroke="#bfbfbf" points="116,-754.5 145,-754.5 "/>
<text text-anchor="middle" x="130.5" y="-742.5" font-family="Helvetica,sans-Serif" font-size="10.00"> </text>
</a>
</g>
</g>
<!-- Node5&#45;&gt;Node4 -->
<g id="edge4" class="edge">
<title>Node5&#45;&gt;Node4</title>
<path fill="none" stroke="#404040" d="M115.91,-738.65C108.75,-726.7 99.91,-711.94 91.64,-698.13"/>
<polygon fill="none" stroke="#404040" points="91.63,-698.11 85.11,-695.02 85.46,-687.82 91.98,-690.91 91.63,-698.11"/>
<text text-anchor="middle" x="119.5" y="-709" font-family="Helvetica,sans-Serif" font-size="10.00"> +data</text>
</g>
<!-- Node6 -->
<g id="node6" class="node">
<title>Node6</title>
<g id="a_node6"><a xlink:title="STL class.">
<polygon fill="none" stroke="#bfbfbf" points="149,-625 149,-682 246,-682 246,-625 149,-625"/>
<text text-anchor="middle" x="197.5" y="-670" font-family="Helvetica,sans-Serif" font-size="10.00">std::vector&lt; T &gt;</text>
<polyline fill="none" stroke="#bfbfbf" points="149,-663 246,-663 "/>
<text text-anchor="middle" x="197.5" y="-651" font-family="Helvetica,sans-Serif" font-size="10.00"> </text>
<polyline fill="none" stroke="#bfbfbf" points="149,-644 246,-644 "/>
<text text-anchor="middle" x="197.5" y="-632" font-family="Helvetica,sans-Serif" font-size="10.00"> </text>
</a>
</g>
</g>
<!-- Node5&#45;&gt;Node6 -->
<g id="edge6" class="edge">
<title>Node5&#45;&gt;Node6</title>
<path fill="none" stroke="#404040" d="M145.04,-739.46C153.48,-725.78 164.32,-708.23 173.95,-692.63"/>
<polygon fill="none" stroke="#404040" points="174.08,-692.43 173.83,-685.22 180.38,-682.22 180.63,-689.43 174.08,-692.43"/>
<text text-anchor="middle" x="192.5" y="-709" font-family="Helvetica,sans-Serif" font-size="10.00"> +elements</text>
</g>
<!-- Node6&#45;&gt;Node3 -->
<g id="edge5" class="edge">
<title>Node6&#45;&gt;Node3</title>
<path fill="none" stroke="orange" d="M180.97,-615.72C175.38,-603.85 168.92,-590.74 162.5,-579 159.22,-573 155.54,-566.72 151.88,-560.7"/>
<polygon fill="orange" stroke="orange" points="177.85,-617.32 185.25,-624.91 184.2,-614.37 177.85,-617.32"/>
<text text-anchor="start" x="173.5" y="-593" font-family="Helvetica,sans-Serif" font-size="10.00"> &lt; QueryMessageBase</text>
<text text-anchor="middle" x="229.5" y="-582" font-family="Helvetica,sans-Serif" font-size="10.00">::msg_data_t &gt;</text>
</g>
<!-- Node7&#45;&gt;Node2 -->
<g id="edge7" class="edge">
<title>Node7&#45;&gt;Node2</title>
<path fill="none" stroke="orange" d="M207.6,-301.87C198.57,-288.88 189.19,-275.4 180.23,-262.5"/>
<polygon fill="orange" stroke="orange" points="204.89,-304.1 213.47,-310.32 210.64,-300.11 204.89,-304.1"/>
<text text-anchor="middle" x="236" y="-284" font-family="Helvetica,sans-Serif" font-size="10.00"> &lt; std::string &gt;</text>
</g>
</g>
</svg>
        <g id="navigator" transform="translate(0 0)" fill="#404254">
                <rect fill="#f2f5e9" fill-opacity="0.5" stroke="#606060" stroke-width=".5" x="0" y="0" width="60" height="60"/>
                <use id="zoomplus" xlink:href="#zoomPlus" x="17" y="9" onmousedown="handleZoom(evt,'in')"/>
                <use id="zoomminus" xlink:href="#zoomMin" x="42" y="9" onmousedown="handleZoom(evt,'out')"/>
                <use id="reset" xlink:href="#resetDef" x="30" y="36" onmousedown="handleReset()"/>
                <g id="arrowUp" xlink:href="#dirArrow" transform="translate(30 24)" onmousedown="handlePan(0,-1)">
                  <use xlink:href="#rim" fill="#404040">
                        <set attributeName="fill" to="#808080" begin="arrowUp.mouseover" end="arrowUp.mouseout"/>
                  </use>
                  <path fill="none" stroke="white" stroke-width="1.5" d="M0,-3.0v7 M-2.5,-0.5L0,-3.0L2.5,-0.5"/>
                </g>
                <g id="arrowRight" xlink:href="#dirArrow" transform="rotate(90) translate(36 -43)" onmousedown="handlePan(1,0)">
                  <use xlink:href="#rim" fill="#404040">
                        <set attributeName="fill" to="#808080" begin="arrowRight.mouseover" end="arrowRight.mouseout"/>
                  </use>
                  <path fill="none" stroke="white" stroke-width="1.5" d="M0,-3.0v7 M-2.5,-0.5L0,-3.0L2.5,-0.5"/>
                </g>
                <g id="arrowDown" xlink:href="#dirArrow" transform="rotate(180) translate(-30 -48)" onmousedown="handlePan(0,1)">
                  <use xlink:href="#rim" fill="#404040">
                        <set attributeName="fill" to="#808080" begin="arrowDown.mouseover" end="arrowDown.mouseout"/>
                  </use>
                  <path fill="none" stroke="white" stroke-width="1.5" d="M0,-3.0v7 M-2.5,-0.5L0,-3.0L2.5,-0.5"/>
                </g>
                <g id="arrowLeft" xlink:href="#dirArrow" transform="rotate(270) translate(-36 17)" onmousedown="handlePan(-1,0)">
                  <use xlink:href="#rim" fill="#404040">
                        <set attributeName="fill" to="#808080" begin="arrowLeft.mouseover" end="arrowLeft.mouseout"/>
                  </use>
                  <path fill="none" stroke="white" stroke-width="1.5" d="M0,-3.0v7 M-2.5,-0.5L0,-3.0L2.5,-0.5"/>
                </g>
        </g>
        <svg viewBox="0 0 15 15" width="100%" height="30px" preserveAspectRatio="xMaxYMin meet">
         <g id="arrow_out" transform="scale(0.3 0.3)">
          <a xlink:href="class_query_u_r_i_message__coll__graph_org.svg" target="_base">
           <rect id="button" ry="5" rx="5" y="6" x="6" height="38" width="38"
                fill="#f2f5e9" fill-opacity="0.5" stroke="#606060" stroke-width="1.0"/>
           <path id="arrow"
             d="M 11.500037,31.436501 C 11.940474,20.09759 22.043105,11.32322 32.158766,21.979434 L 37.068811,17.246167 C 37.068811,17.246167 37.088388,32 37.088388,32 L 22.160133,31.978069 C 22.160133,31.978069 26.997745,27.140456 26.997745,27.140456 C 18.528582,18.264221 13.291696,25.230495 11.500037,31.436501 z"
             style="fill:#404040;"/>
          </a>
         </g>
        </svg>
</svg>
