<?xml version="1.0" encoding="UTF-8" standalone="no"?>
<!DOCTYPE svg PUBLIC "-//W3C//DTD SVG 1.1//EN"
 "http://www.w3.org/Graphics/SVG/1.1/DTD/svg11.dtd">
<!-- Generated by graphviz version 2.43.0 (0)
 -->
<!-- Title: Components/Interfaces/QueryBase/include/QueryMessageBase.hpp Pages: 1 -->
<svg width="593pt" height="284pt"
 viewBox="0.00 0.00 593.00 284.00" xmlns="http://www.w3.org/2000/svg" xmlns:xlink="http://www.w3.org/1999/xlink">
<g id="graph0" class="graph" transform="scale(1 1) rotate(0) translate(4 280)">
<title>Components/Interfaces/QueryBase/include/QueryMessageBase.hpp</title>
<!-- Node1 -->
<g id="node1" class="node">
<title>Node1</title>
<g id="a_node1"><a xlink:title=" ">
<polygon fill="#bfbfbf" stroke="black" points="215.5,-234.5 215.5,-275.5 402.5,-275.5 402.5,-234.5 215.5,-234.5"/>
<text text-anchor="start" x="223.5" y="-263.5" font-family="Helvetica,sans-Serif" font-size="10.00">Components/Interfaces</text>
<text text-anchor="start" x="223.5" y="-252.5" font-family="Helvetica,sans-Serif" font-size="10.00">/QueryBase/include/QueryMessage</text>
<text text-anchor="middle" x="309" y="-241.5" font-family="Helvetica,sans-Serif" font-size="10.00">Base.hpp</text>
</a>
</g>
</g>
<!-- Node2 -->
<g id="node2" class="node">
<title>Node2</title>
<g id="a_node2"><a xlink:href="../../d7/dfc/_query_message_8hpp.html" target="_top" xlink:title=" ">
<polygon fill="none" stroke="black" points="250,-156.5 250,-197.5 368,-197.5 368,-156.5 250,-156.5"/>
<text text-anchor="start" x="258" y="-185.5" font-family="Helvetica,sans-Serif" font-size="10.00">Components/Objects</text>
<text text-anchor="start" x="258" y="-174.5" font-family="Helvetica,sans-Serif" font-size="10.00">/QueryTools/include</text>
<text text-anchor="middle" x="309" y="-163.5" font-family="Helvetica,sans-Serif" font-size="10.00">/QueryMessage.hpp</text>
</a>
</g>
</g>
<!-- Node1&#45;&gt;Node2 -->
<g id="edge1" class="edge">
<title>Node1&#45;&gt;Node2</title>
<path fill="none" stroke="midnightblue" d="M309,-224.3C309,-215.3 309,-205.65 309,-197.51"/>
<polygon fill="midnightblue" stroke="midnightblue" points="305.5,-224.43 309,-234.43 312.5,-224.43 305.5,-224.43"/>
</g>
<!-- Node3 -->
<g id="node3" class="node">
<title>Node3</title>
<g id="a_node3"><a xlink:href="../../d3/d31/_query_add_external_resources_8hpp.html" target="_top" xlink:title=" ">
<polygon fill="none" stroke="black" points="51.5,-78.5 51.5,-119.5 230.5,-119.5 230.5,-78.5 51.5,-78.5"/>
<text text-anchor="start" x="59.5" y="-107.5" font-family="Helvetica,sans-Serif" font-size="10.00">Components/Objects</text>
<text text-anchor="start" x="59.5" y="-96.5" font-family="Helvetica,sans-Serif" font-size="10.00">/QueryTools/include</text>
<text text-anchor="middle" x="141" y="-85.5" font-family="Helvetica,sans-Serif" font-size="10.00">/QueryAddExternalResources.hpp</text>
</a>
</g>
</g>
<!-- Node2&#45;&gt;Node3 -->
<g id="edge2" class="edge">
<title>Node2&#45;&gt;Node3</title>
<path fill="none" stroke="midnightblue" d="M256.37,-152.19C233.12,-141.67 206.14,-129.47 184.12,-119.51"/>
<polygon fill="midnightblue" stroke="midnightblue" points="255.18,-155.5 265.74,-156.43 258.07,-149.12 255.18,-155.5"/>
</g>
<!-- Node5 -->
<g id="node5" class="node">
<title>Node5</title>
<g id="a_node5"><a xlink:href="../../d5/d7e/querytools__test_8cpp.html" target="_top" xlink:title=" ">
<polygon fill="none" stroke="black" points="200,-0.5 200,-41.5 318,-41.5 318,-0.5 200,-0.5"/>
<text text-anchor="start" x="208" y="-29.5" font-family="Helvetica,sans-Serif" font-size="10.00">Components/Objects</text>
<text text-anchor="start" x="208" y="-18.5" font-family="Helvetica,sans-Serif" font-size="10.00">/QueryTools/test/test</text>
<text text-anchor="middle" x="259" y="-7.5" font-family="Helvetica,sans-Serif" font-size="10.00">/querytools_test.cpp</text>
</a>
</g>
</g>
<!-- Node2&#45;&gt;Node5 -->
<g id="edge9" class="edge">
<title>Node2&#45;&gt;Node5</title>
<path fill="none" stroke="midnightblue" d="M290.92,-147.43C286.14,-138.87 281.37,-129.28 278,-120 268.47,-93.78 263.41,-61.78 260.97,-41.64"/>
<polygon fill="midnightblue" stroke="midnightblue" points="288.01,-149.37 296.06,-156.25 294.05,-145.85 288.01,-149.37"/>
</g>
<!-- Node6 -->
<g id="node6" class="node">
<title>Node6</title>
<g id="a_node6"><a xlink:href="../../d7/d6e/_query_add_sensor_data_8hpp.html" target="_top" xlink:title=" ">
<polygon fill="none" stroke="black" points="287.5,-78.5 287.5,-119.5 432.5,-119.5 432.5,-78.5 287.5,-78.5"/>
<text text-anchor="start" x="295.5" y="-107.5" font-family="Helvetica,sans-Serif" font-size="10.00">Components/Objects</text>
<text text-anchor="start" x="295.5" y="-96.5" font-family="Helvetica,sans-Serif" font-size="10.00">/QueryTools/include</text>
<text text-anchor="middle" x="360" y="-85.5" font-family="Helvetica,sans-Serif" font-size="10.00">/QueryAddSensorData.hpp</text>
</a>
</g>
</g>
<!-- Node2&#45;&gt;Node6 -->
<g id="edge5" class="edge">
<title>Node2&#45;&gt;Node6</title>
<path fill="none" stroke="midnightblue" d="M327.76,-148.05C334.12,-138.57 341.09,-128.18 346.91,-119.51"/>
<polygon fill="midnightblue" stroke="midnightblue" points="324.8,-146.17 322.13,-156.43 330.61,-150.07 324.8,-146.17"/>
</g>
<!-- Node8 -->
<g id="node8" class="node">
<title>Node8</title>
<g id="a_node8"><a xlink:href="../../d6/da4/querydatamsg__test_8cpp.html" target="_top" xlink:title=" ">
<polygon fill="none" stroke="black" points="451,-78.5 451,-119.5 585,-119.5 585,-78.5 451,-78.5"/>
<text text-anchor="start" x="459" y="-107.5" font-family="Helvetica,sans-Serif" font-size="10.00">Components/Objects</text>
<text text-anchor="start" x="459" y="-96.5" font-family="Helvetica,sans-Serif" font-size="10.00">/QueryTools/test/test</text>
<text text-anchor="middle" x="518" y="-85.5" font-family="Helvetica,sans-Serif" font-size="10.00">/querydatamsg_test.cpp</text>
</a>
</g>
</g>
<!-- Node2&#45;&gt;Node8 -->
<g id="edge8" class="edge">
<title>Node2&#45;&gt;Node8</title>
<path fill="none" stroke="midnightblue" d="M372.56,-152.89C401.9,-142.22 436.35,-129.69 464.36,-119.51"/>
<polygon fill="midnightblue" stroke="midnightblue" points="371.02,-149.72 362.82,-156.43 373.42,-156.3 371.02,-149.72"/>
</g>
<!-- Node4 -->
<g id="node4" class="node">
<title>Node4</title>
<g id="a_node4"><a xlink:href="../../df/d91/_query_add_external_resources_8cpp.html" target="_top" xlink:title=" ">
<polygon fill="none" stroke="black" points="0,-0.5 0,-41.5 182,-41.5 182,-0.5 0,-0.5"/>
<text text-anchor="start" x="8" y="-29.5" font-family="Helvetica,sans-Serif" font-size="10.00">Components/Objects</text>
<text text-anchor="start" x="8" y="-18.5" font-family="Helvetica,sans-Serif" font-size="10.00">/QueryTools/src/QueryAddExternal</text>
<text text-anchor="middle" x="91" y="-7.5" font-family="Helvetica,sans-Serif" font-size="10.00">Resources.cpp</text>
</a>
</g>
</g>
<!-- Node3&#45;&gt;Node4 -->
<g id="edge3" class="edge">
<title>Node3&#45;&gt;Node4</title>
<path fill="none" stroke="midnightblue" d="M122.61,-70.05C116.37,-60.57 109.54,-50.18 103.83,-41.51"/>
<polygon fill="midnightblue" stroke="midnightblue" points="119.7,-72 128.12,-78.43 125.55,-68.15 119.7,-72"/>
</g>
<!-- Node3&#45;&gt;Node5 -->
<g id="edge4" class="edge">
<title>Node3&#45;&gt;Node5</title>
<path fill="none" stroke="midnightblue" d="M179.94,-72.92C195.8,-62.7 213.86,-51.07 228.72,-41.51"/>
<polygon fill="midnightblue" stroke="midnightblue" points="177.9,-70.07 171.39,-78.43 181.69,-75.96 177.9,-70.07"/>
</g>
<!-- Node6&#45;&gt;Node5 -->
<g id="edge7" class="edge">
<title>Node6&#45;&gt;Node5</title>
<path fill="none" stroke="midnightblue" d="M325.91,-72.35C312.52,-62.27 297.4,-50.89 284.92,-41.51"/>
<polygon fill="midnightblue" stroke="midnightblue" points="323.9,-75.21 333.99,-78.43 328.1,-69.62 323.9,-75.21"/>
</g>
<!-- Node7 -->
<g id="node7" class="node">
<title>Node7</title>
<g id="a_node7"><a xlink:href="../../d5/d5f/_query_add_sensor_data_8cpp.html" target="_top" xlink:title=" ">
<polygon fill="none" stroke="black" points="336.5,-0.5 336.5,-41.5 511.5,-41.5 511.5,-0.5 336.5,-0.5"/>
<text text-anchor="start" x="344.5" y="-29.5" font-family="Helvetica,sans-Serif" font-size="10.00">Components/Objects</text>
<text text-anchor="start" x="344.5" y="-18.5" font-family="Helvetica,sans-Serif" font-size="10.00">/QueryTools/src/QueryAddSensor</text>
<text text-anchor="middle" x="424" y="-7.5" font-family="Helvetica,sans-Serif" font-size="10.00">Data.cpp</text>
</a>
</g>
</g>
<!-- Node6&#45;&gt;Node7 -->
<g id="edge6" class="edge">
<title>Node6&#45;&gt;Node7</title>
<path fill="none" stroke="midnightblue" d="M383.05,-70.63C391.17,-60.99 400.12,-50.36 407.57,-41.51"/>
<polygon fill="midnightblue" stroke="midnightblue" points="380.25,-68.52 376.48,-78.43 385.6,-73.03 380.25,-68.52"/>
</g>
</g>
</svg>
