<?xml version="1.0" encoding="UTF-8" standalone="no"?>
<!DOCTYPE svg PUBLIC "-//W3C//DTD SVG 1.1//EN"
 "http://www.w3.org/Graphics/SVG/1.1/DTD/svg11.dtd">
<!-- Generated by graphviz version 2.43.0 (0)
 -->
<!-- Title: Components/Protocols/MQTT/src/mqtt_api_v2.cpp Pages: 1 -->
<svg width="551pt" height="363pt"
 viewBox="0.00 0.00 551.00 363.00" xmlns="http://www.w3.org/2000/svg" xmlns:xlink="http://www.w3.org/1999/xlink">
<g id="graph0" class="graph" transform="scale(1 1) rotate(0) translate(4 359)">
<title>Components/Protocols/MQTT/src/mqtt_api_v2.cpp</title>
<!-- Node1 -->
<g id="node1" class="node">
<title>Node1</title>
<g id="a_node1"><a xlink:title=" ">
<polygon fill="#bfbfbf" stroke="black" points="312.5,-324.5 312.5,-354.5 461.5,-354.5 461.5,-324.5 312.5,-324.5"/>
<text text-anchor="start" x="320.5" y="-342.5" font-family="Helvetica,sans-Serif" font-size="10.00">Components/Protocols</text>
<text text-anchor="middle" x="387" y="-331.5" font-family="Helvetica,sans-Serif" font-size="10.00">/MQTT/src/mqtt_api_v2.cpp</text>
</a>
</g>
</g>
<!-- Node2 -->
<g id="node2" class="node">
<title>Node2</title>
<g id="a_node2"><a xlink:href="../../d4/d63/mqtt__api__v2_8hpp.html" target="_top" xlink:title=" ">
<polygon fill="none" stroke="black" points="333.5,-257.5 333.5,-287.5 440.5,-287.5 440.5,-257.5 333.5,-257.5"/>
<text text-anchor="start" x="341.5" y="-275.5" font-family="Helvetica,sans-Serif" font-size="10.00">../include/mqtt_api</text>
<text text-anchor="middle" x="387" y="-264.5" font-family="Helvetica,sans-Serif" font-size="10.00">_v2.hpp</text>
</a>
</g>
</g>
<!-- Node1&#45;&gt;Node2 -->
<g id="edge1" class="edge">
<title>Node1&#45;&gt;Node2</title>
<path fill="none" stroke="midnightblue" d="M387,-324.4C387,-316.64 387,-306.81 387,-297.86"/>
<polygon fill="midnightblue" stroke="midnightblue" points="390.5,-297.58 387,-287.58 383.5,-297.58 390.5,-297.58"/>
</g>
<!-- Node3 -->
<g id="node3" class="node">
<title>Node3</title>
<g id="a_node3"><a xlink:href="../../da/d5f/_b_a_s_i_c_8hpp.html" target="_top" xlink:title=" ">
<polygon fill="none" stroke="black" points="0,-56.5 0,-86.5 116,-86.5 116,-56.5 0,-56.5"/>
<text text-anchor="start" x="8" y="-74.5" font-family="Helvetica,sans-Serif" font-size="10.00">../../../Global_Include</text>
<text text-anchor="middle" x="58" y="-63.5" font-family="Helvetica,sans-Serif" font-size="10.00">/BASIC.hpp</text>
</a>
</g>
</g>
<!-- Node2&#45;&gt;Node3 -->
<g id="edge2" class="edge">
<title>Node2&#45;&gt;Node3</title>
<path fill="none" stroke="midnightblue" d="M333.27,-269.8C278.78,-266.12 193.39,-254.88 128,-221 89.76,-201.19 74.91,-193.6 58,-154 50.3,-135.96 50.94,-113.56 53.14,-96.81"/>
<polygon fill="midnightblue" stroke="midnightblue" points="56.63,-97.15 54.75,-86.72 49.72,-96.05 56.63,-97.15"/>
</g>
<!-- Node4 -->
<g id="node4" class="node">
<title>Node4</title>
<g id="a_node4"><a xlink:href="../../d3/deb/_general___error_8hpp.html" target="_top" xlink:title=" ">
<polygon fill="none" stroke="black" points="172.5,-56.5 172.5,-86.5 317.5,-86.5 317.5,-56.5 172.5,-56.5"/>
<text text-anchor="start" x="180.5" y="-74.5" font-family="Helvetica,sans-Serif" font-size="10.00">../../../Objects/ErrorHandler</text>
<text text-anchor="middle" x="245" y="-63.5" font-family="Helvetica,sans-Serif" font-size="10.00">/include/General_Error.hpp</text>
</a>
</g>
</g>
<!-- Node2&#45;&gt;Node4 -->
<g id="edge3" class="edge">
<title>Node2&#45;&gt;Node4</title>
<path fill="none" stroke="midnightblue" d="M392.24,-257.21C401.7,-228.71 418.08,-164.01 389,-123 374.52,-102.58 351.12,-90.35 327.34,-83.06"/>
<polygon fill="midnightblue" stroke="midnightblue" points="328.09,-79.63 317.52,-80.31 326.21,-86.37 328.09,-79.63"/>
</g>
<!-- Node7 -->
<g id="node7" class="node">
<title>Node7</title>
<g id="a_node7"><a xlink:href="../../de/dd1/_o_t_a_8hpp.html" target="_top" xlink:title=" ">
<polygon fill="none" stroke="black" points="137.5,-190.5 137.5,-220.5 240.5,-220.5 240.5,-190.5 137.5,-190.5"/>
<text text-anchor="start" x="145.5" y="-208.5" font-family="Helvetica,sans-Serif" font-size="10.00">../../../Objects/OTA</text>
<text text-anchor="middle" x="189" y="-197.5" font-family="Helvetica,sans-Serif" font-size="10.00">/include/OTA.hpp</text>
</a>
</g>
</g>
<!-- Node2&#45;&gt;Node7 -->
<g id="edge6" class="edge">
<title>Node2&#45;&gt;Node7</title>
<path fill="none" stroke="midnightblue" d="M344.04,-257.4C313.94,-247.52 273.54,-234.25 241.52,-223.74"/>
<polygon fill="midnightblue" stroke="midnightblue" points="242.47,-220.37 231.88,-220.58 240.29,-227.02 242.47,-220.37"/>
</g>
<!-- Node9 -->
<g id="node9" class="node">
<title>Node9</title>
<g id="a_node9"><a xlink:href="../../d3/d1c/_free_r_t_o_s_8h.html" target="_top" xlink:title=" ">
<polygon fill="none" stroke="black" points="261.5,-123.5 261.5,-153.5 380.5,-153.5 380.5,-123.5 261.5,-123.5"/>
<text text-anchor="start" x="269.5" y="-141.5" font-family="Helvetica,sans-Serif" font-size="10.00">../../../RTOS/FreeRTOS</text>
<text text-anchor="middle" x="321" y="-130.5" font-family="Helvetica,sans-Serif" font-size="10.00">/include/FreeRTOS.h</text>
</a>
</g>
</g>
<!-- Node2&#45;&gt;Node9 -->
<g id="edge13" class="edge">
<title>Node2&#45;&gt;Node9</title>
<path fill="none" stroke="midnightblue" d="M379.94,-257.37C368.62,-234.75 346.32,-190.14 332.63,-162.76"/>
<polygon fill="midnightblue" stroke="midnightblue" points="335.62,-160.9 328.01,-153.52 329.35,-164.03 335.62,-160.9"/>
</g>
<!-- Node10 -->
<g id="node10" class="node">
<title>Node10</title>
<g id="a_node10"><a xlink:title=" ">
<polygon fill="none" stroke="#bfbfbf" points="437,-196 437,-215 487,-215 487,-196 437,-196"/>
<text text-anchor="middle" x="462" y="-203" font-family="Helvetica,sans-Serif" font-size="10.00">atomic</text>
</a>
</g>
</g>
<!-- Node2&#45;&gt;Node10 -->
<g id="edge17" class="edge">
<title>Node2&#45;&gt;Node10</title>
<path fill="none" stroke="midnightblue" d="M403.27,-257.4C415.32,-246.96 431.71,-232.75 444.12,-222"/>
<polygon fill="midnightblue" stroke="midnightblue" points="446.7,-224.39 451.97,-215.19 442.12,-219.1 446.7,-224.39"/>
</g>
<!-- Node11 -->
<g id="node11" class="node">
<title>Node11</title>
<g id="a_node11"><a xlink:title=" ">
<polygon fill="none" stroke="#bfbfbf" points="505,-196 505,-215 543,-215 543,-196 505,-196"/>
<text text-anchor="middle" x="524" y="-203" font-family="Helvetica,sans-Serif" font-size="10.00">map</text>
</a>
</g>
</g>
<!-- Node2&#45;&gt;Node11 -->
<g id="edge18" class="edge">
<title>Node2&#45;&gt;Node11</title>
<path fill="none" stroke="midnightblue" d="M418.18,-257.49C440.07,-247.55 469.97,-233.76 496,-221 496.84,-220.59 497.69,-220.17 498.55,-219.74"/>
<polygon fill="midnightblue" stroke="midnightblue" points="500.44,-222.7 507.77,-215.06 497.27,-216.46 500.44,-222.7"/>
</g>
<!-- Node5 -->
<g id="node5" class="node">
<title>Node5</title>
<g id="a_node5"><a xlink:title=" ">
<polygon fill="none" stroke="#bfbfbf" points="180,-0.5 180,-19.5 224,-19.5 224,-0.5 180,-0.5"/>
<text text-anchor="middle" x="202" y="-7.5" font-family="Helvetica,sans-Serif" font-size="10.00">string</text>
</a>
</g>
</g>
<!-- Node4&#45;&gt;Node5 -->
<g id="edge4" class="edge">
<title>Node4&#45;&gt;Node5</title>
<path fill="none" stroke="midnightblue" d="M234.81,-56.4C228.63,-47.84 220.7,-36.87 214.18,-27.86"/>
<polygon fill="midnightblue" stroke="midnightblue" points="216.95,-25.71 208.26,-19.66 211.28,-29.81 216.95,-25.71"/>
</g>
<!-- Node6 -->
<g id="node6" class="node">
<title>Node6</title>
<g id="a_node6"><a xlink:title=" ">
<polygon fill="none" stroke="#bfbfbf" points="257,-0.5 257,-19.5 317,-19.5 317,-0.5 257,-0.5"/>
<text text-anchor="middle" x="287" y="-7.5" font-family="Helvetica,sans-Serif" font-size="10.00">iostream</text>
</a>
</g>
</g>
<!-- Node4&#45;&gt;Node6 -->
<g id="edge5" class="edge">
<title>Node4&#45;&gt;Node6</title>
<path fill="none" stroke="midnightblue" d="M254.95,-56.4C260.99,-47.84 268.74,-36.87 275.1,-27.86"/>
<polygon fill="midnightblue" stroke="midnightblue" points="277.98,-29.85 280.89,-19.66 272.26,-25.81 277.98,-29.85"/>
</g>
<!-- Node7&#45;&gt;Node3 -->
<g id="edge7" class="edge">
<title>Node7&#45;&gt;Node3</title>
<path fill="none" stroke="midnightblue" d="M137.27,-192.55C115.37,-184.97 91.41,-172.9 76,-154 62.88,-137.91 58.81,-114.3 57.77,-96.63"/>
<polygon fill="midnightblue" stroke="midnightblue" points="61.26,-96.41 57.45,-86.52 54.26,-96.62 61.26,-96.41"/>
</g>
<!-- Node7&#45;&gt;Node4 -->
<g id="edge8" class="edge">
<title>Node7&#45;&gt;Node4</title>
<path fill="none" stroke="midnightblue" d="M195.99,-190.47C200.93,-180.4 207.6,-166.47 213,-154 221.28,-134.89 229.86,-112.9 236.05,-96.58"/>
<polygon fill="midnightblue" stroke="midnightblue" points="239.5,-97.35 239.75,-86.76 232.95,-94.88 239.5,-97.35"/>
</g>
<!-- Node8 -->
<g id="node8" class="node">
<title>Node8</title>
<g id="a_node8"><a xlink:href="../../d5/dc5/_task_8h.html" target="_top" xlink:title=" ">
<polygon fill="none" stroke="black" points="85.5,-123.5 85.5,-153.5 204.5,-153.5 204.5,-123.5 85.5,-123.5"/>
<text text-anchor="start" x="93.5" y="-141.5" font-family="Helvetica,sans-Serif" font-size="10.00">../../../RTOS/FreeRTOS</text>
<text text-anchor="middle" x="145" y="-130.5" font-family="Helvetica,sans-Serif" font-size="10.00">/include/Task.h</text>
</a>
</g>
</g>
<!-- Node7&#45;&gt;Node8 -->
<g id="edge9" class="edge">
<title>Node7&#45;&gt;Node8</title>
<path fill="none" stroke="midnightblue" d="M179.45,-190.4C173.86,-182.13 166.67,-171.51 160.3,-162.1"/>
<polygon fill="midnightblue" stroke="midnightblue" points="163.03,-159.9 154.53,-153.58 157.24,-163.82 163.03,-159.9"/>
</g>
<!-- Node8&#45;&gt;Node3 -->
<g id="edge10" class="edge">
<title>Node8&#45;&gt;Node3</title>
<path fill="none" stroke="midnightblue" d="M126.12,-123.4C114.15,-114.45 98.47,-102.74 85.17,-92.8"/>
<polygon fill="midnightblue" stroke="midnightblue" points="86.95,-89.76 76.84,-86.58 82.76,-95.37 86.95,-89.76"/>
</g>
<!-- Node8&#45;&gt;Node4 -->
<g id="edge11" class="edge">
<title>Node8&#45;&gt;Node4</title>
<path fill="none" stroke="midnightblue" d="M166.7,-123.4C180.72,-114.28 199.17,-102.29 214.64,-92.24"/>
<polygon fill="midnightblue" stroke="midnightblue" points="216.87,-94.96 223.34,-86.58 213.05,-89.09 216.87,-94.96"/>
</g>
<!-- Node8&#45;&gt;Node5 -->
<g id="edge12" class="edge">
<title>Node8&#45;&gt;Node5</title>
<path fill="none" stroke="midnightblue" d="M146.01,-123.24C147.68,-106.39 152,-77.88 163,-56 168.43,-45.19 177.04,-34.86 184.8,-26.83"/>
<polygon fill="midnightblue" stroke="midnightblue" points="187.44,-29.15 192.11,-19.64 182.53,-24.16 187.44,-29.15"/>
</g>
<!-- Node9&#45;&gt;Node3 -->
<g id="edge14" class="edge">
<title>Node9&#45;&gt;Node3</title>
<path fill="none" stroke="midnightblue" d="M264.26,-123.48C223.35,-113.37 167.99,-99.68 124.92,-89.04"/>
<polygon fill="midnightblue" stroke="midnightblue" points="125.64,-85.61 115.09,-86.61 123.96,-92.41 125.64,-85.61"/>
</g>
<!-- Node9&#45;&gt;Node4 -->
<g id="edge15" class="edge">
<title>Node9&#45;&gt;Node4</title>
<path fill="none" stroke="midnightblue" d="M304.51,-123.4C294.15,-114.54 280.62,-102.96 269.07,-93.09"/>
<polygon fill="midnightblue" stroke="midnightblue" points="271.33,-90.42 261.46,-86.58 266.78,-95.74 271.33,-90.42"/>
</g>
<!-- Node9&#45;&gt;Node6 -->
<g id="edge16" class="edge">
<title>Node9&#45;&gt;Node6</title>
<path fill="none" stroke="midnightblue" d="M325.24,-123.44C329.51,-106.77 334.37,-78.45 326,-56 321.83,-44.81 313.48,-34.56 305.58,-26.68"/>
<polygon fill="midnightblue" stroke="midnightblue" points="307.7,-23.87 297.99,-19.63 302.94,-29 307.7,-23.87"/>
</g>
</g>
</svg>
