<?xml version="1.0" encoding="UTF-8" standalone="no"?>
<!DOCTYPE svg PUBLIC "-//W3C//DTD SVG 1.1//EN"
 "http://www.w3.org/Graphics/SVG/1.1/DTD/svg11.dtd">
<!-- Generated by graphviz version 2.43.0 (0)
 -->
<!-- Title: HAL_ESP32 Pages: 1 -->
<svg width="169pt" height="303pt"
 viewBox="0.00 0.00 169.00 303.00" xmlns="http://www.w3.org/2000/svg" xmlns:xlink="http://www.w3.org/1999/xlink">
<g id="graph0" class="graph" transform="scale(1 1) rotate(0) translate(4 299)">
<title>HAL_ESP32</title>
<!-- Node1 -->
<g id="node1" class="node">
<title>Node1</title>
<g id="a_node1"><a xlink:title=" ">
<polygon fill="#bfbfbf" stroke="black" points="0,-0.5 0,-145.5 161,-145.5 161,-0.5 0,-0.5"/>
<text text-anchor="middle" x="80.5" y="-133.5" font-family="Helvetica,sans-Serif" font-size="10.00">HAL_ESP32</text>
<polyline fill="none" stroke="black" points="0,-126.5 161,-126.5 "/>
<text text-anchor="middle" x="80.5" y="-114.5" font-family="Helvetica,sans-Serif" font-size="10.00"> </text>
<polyline fill="none" stroke="black" points="0,-107.5 161,-107.5 "/>
<text text-anchor="start" x="8" y="-95.5" font-family="Helvetica,sans-Serif" font-size="10.00">+ HAL_ESP32()</text>
<text text-anchor="start" x="8" y="-84.5" font-family="Helvetica,sans-Serif" font-size="10.00">+ ~HAL_ESP32()</text>
<text text-anchor="start" x="8" y="-73.5" font-family="Helvetica,sans-Serif" font-size="10.00">+ setDutyCycle()</text>
<text text-anchor="start" x="8" y="-62.5" font-family="Helvetica,sans-Serif" font-size="10.00">+ setFrequency()</text>
<text text-anchor="start" x="8" y="-51.5" font-family="Helvetica,sans-Serif" font-size="10.00">+ stop()</text>
<text text-anchor="start" x="8" y="-40.5" font-family="Helvetica,sans-Serif" font-size="10.00">+ destroy()</text>
<text text-anchor="start" x="8" y="-29.5" font-family="Helvetica,sans-Serif" font-size="10.00">+ getConfig()</text>
<text text-anchor="start" x="8" y="-18.5" font-family="Helvetica,sans-Serif" font-size="10.00">&#45; calculateDutyCycleBasedOn</text>
<text text-anchor="start" x="8" y="-7.5" font-family="Helvetica,sans-Serif" font-size="10.00">Resolution()</text>
</a>
</g>
</g>
<!-- Node2 -->
<g id="node2" class="node">
<title>Node2</title>
<g id="a_node2"><a xlink:href="../../d4/dc1/class_h_a_l___e_s_p32.html#d2/d6b/struct_h_a_l___e_s_p32_1_1config" target="_top" xlink:title=" ">
<polygon fill="none" stroke="black" points="27,-193.5 27,-294.5 134,-294.5 134,-193.5 27,-193.5"/>
<text text-anchor="middle" x="80.5" y="-282.5" font-family="Helvetica,sans-Serif" font-size="10.00">HAL_ESP32::config</text>
<polyline fill="none" stroke="black" points="27,-275.5 134,-275.5 "/>
<text text-anchor="start" x="35" y="-263.5" font-family="Helvetica,sans-Serif" font-size="10.00">+ m_pin</text>
<text text-anchor="start" x="35" y="-252.5" font-family="Helvetica,sans-Serif" font-size="10.00">+ duty</text>
<text text-anchor="start" x="35" y="-241.5" font-family="Helvetica,sans-Serif" font-size="10.00">+ frequency</text>
<text text-anchor="start" x="35" y="-230.5" font-family="Helvetica,sans-Serif" font-size="10.00">+ channel</text>
<text text-anchor="start" x="35" y="-219.5" font-family="Helvetica,sans-Serif" font-size="10.00">+ mode</text>
<polyline fill="none" stroke="black" points="27,-212.5 134,-212.5 "/>
<text text-anchor="middle" x="80.5" y="-200.5" font-family="Helvetica,sans-Serif" font-size="10.00"> </text>
</a>
</g>
</g>
<!-- Node2&#45;&gt;Node1 -->
<g id="edge1" class="edge">
<title>Node2&#45;&gt;Node1</title>
<path fill="none" stroke="#404040" d="M80.5,-193.21C80.5,-182.04 80.5,-169.88 80.5,-157.75"/>
<polygon fill="none" stroke="#404040" points="80.5,-157.66 76.5,-151.66 80.5,-145.66 84.5,-151.66 80.5,-157.66"/>
<text text-anchor="middle" x="102" y="-167" font-family="Helvetica,sans-Serif" font-size="10.00"> &#45;m_conf</text>
</g>
</g>
</svg>
