<?xml version="1.0" encoding="UTF-8" standalone="no"?>
<!DOCTYPE svg PUBLIC "-//W3C//DTD SVG 1.1//EN"
 "http://www.w3.org/Graphics/SVG/1.1/DTD/svg11.dtd">
<!-- Generated by graphviz version 2.43.0 (0)
 -->
<!-- Title: Components/ThirdpartAPI/esp32Cam_API/include/ov3660.h Pages: 1 -->
<svg width="149pt" height="162pt"
 viewBox="0.00 0.00 149.00 162.00" xmlns="http://www.w3.org/2000/svg" xmlns:xlink="http://www.w3.org/1999/xlink">
<g id="graph0" class="graph" transform="scale(1 1) rotate(0) translate(4 158)">
<title>Components/ThirdpartAPI/esp32Cam_API/include/ov3660.h</title>
<!-- Node1 -->
<g id="node1" class="node">
<title>Node1</title>
<g id="a_node1"><a xlink:title=" ">
<polygon fill="#bfbfbf" stroke="black" points="0,-112.5 0,-153.5 141,-153.5 141,-112.5 0,-112.5"/>
<text text-anchor="start" x="8" y="-141.5" font-family="Helvetica,sans-Serif" font-size="10.00">Components/ThirdpartAPI</text>
<text text-anchor="start" x="8" y="-130.5" font-family="Helvetica,sans-Serif" font-size="10.00">/esp32Cam_API/include</text>
<text text-anchor="middle" x="70.5" y="-119.5" font-family="Helvetica,sans-Serif" font-size="10.00">/ov3660.h</text>
</a>
</g>
</g>
<!-- Node2 -->
<g id="node2" class="node">
<title>Node2</title>
<g id="a_node2"><a xlink:href="../../d5/d2e/sensor_8h.html" target="_top" xlink:title=" ">
<polygon fill="none" stroke="black" points="42,-56.5 42,-75.5 99,-75.5 99,-56.5 42,-56.5"/>
<text text-anchor="middle" x="70.5" y="-63.5" font-family="Helvetica,sans-Serif" font-size="10.00">sensor.h</text>
</a>
</g>
</g>
<!-- Node1&#45;&gt;Node2 -->
<g id="edge1" class="edge">
<title>Node1&#45;&gt;Node2</title>
<path fill="none" stroke="midnightblue" d="M70.5,-112.5C70.5,-104.07 70.5,-94.24 70.5,-85.87"/>
<polygon fill="midnightblue" stroke="midnightblue" points="74,-85.65 70.5,-75.65 67,-85.65 74,-85.65"/>
</g>
<!-- Node3 -->
<g id="node3" class="node">
<title>Node3</title>
<g id="a_node3"><a xlink:title=" ">
<polygon fill="none" stroke="#bfbfbf" points="1.5,-0.5 1.5,-19.5 63.5,-19.5 63.5,-0.5 1.5,-0.5"/>
<text text-anchor="middle" x="32.5" y="-7.5" font-family="Helvetica,sans-Serif" font-size="10.00">stdbool.h</text>
</a>
</g>
</g>
<!-- Node2&#45;&gt;Node3 -->
<g id="edge2" class="edge">
<title>Node2&#45;&gt;Node3</title>
<path fill="none" stroke="midnightblue" d="M64.23,-56.08C58.86,-48.46 50.98,-37.26 44.42,-27.94"/>
<polygon fill="midnightblue" stroke="midnightblue" points="47.28,-25.91 38.66,-19.75 41.55,-29.94 47.28,-25.91"/>
</g>
<!-- Node4 -->
<g id="node4" class="node">
<title>Node4</title>
<g id="a_node4"><a xlink:title=" ">
<polygon fill="none" stroke="#bfbfbf" points="82,-0.5 82,-19.5 135,-19.5 135,-0.5 82,-0.5"/>
<text text-anchor="middle" x="108.5" y="-7.5" font-family="Helvetica,sans-Serif" font-size="10.00">stdint.h</text>
</a>
</g>
</g>
<!-- Node2&#45;&gt;Node4 -->
<g id="edge3" class="edge">
<title>Node2&#45;&gt;Node4</title>
<path fill="none" stroke="midnightblue" d="M76.77,-56.08C82.14,-48.46 90.02,-37.26 96.58,-27.94"/>
<polygon fill="midnightblue" stroke="midnightblue" points="99.45,-29.94 102.34,-19.75 93.72,-25.91 99.45,-29.94"/>
</g>
</g>
</svg>
