<?xml version="1.0" encoding="UTF-8" standalone="no"?>
<!DOCTYPE svg PUBLIC "-//W3C//DTD SVG 1.1//EN"
 "http://www.w3.org/Graphics/SVG/1.1/DTD/svg11.dtd">
<!-- Generated by graphviz version 2.43.0 (0)
 -->
<!-- Title: _sensor Pages: 1 -->
<svg width="196pt" height="391pt"
 viewBox="0.00 0.00 196.00 391.00" xmlns="http://www.w3.org/2000/svg" xmlns:xlink="http://www.w3.org/1999/xlink">
<g id="graph0" class="graph" transform="scale(1 1) rotate(0) translate(4 387)">
<title>_sensor</title>
<!-- Node1 -->
<g id="node1" class="node">
<title>Node1</title>
<g id="a_node1"><a xlink:title=" ">
<polygon fill="#bfbfbf" stroke="black" points="37.5,-0.5 37.5,-167.5 136.5,-167.5 136.5,-0.5 37.5,-0.5"/>
<text text-anchor="middle" x="87" y="-155.5" font-family="Helvetica,sans-Serif" font-size="10.00">_sensor</text>
<polyline fill="none" stroke="black" points="37.5,-148.5 136.5,-148.5 "/>
<text text-anchor="start" x="45.5" y="-136.5" font-family="Helvetica,sans-Serif" font-size="10.00">+ slv_addr</text>
<text text-anchor="start" x="45.5" y="-125.5" font-family="Helvetica,sans-Serif" font-size="10.00">+ pixformat</text>
<text text-anchor="start" x="45.5" y="-114.5" font-family="Helvetica,sans-Serif" font-size="10.00">+ xclk_freq_hz</text>
<text text-anchor="start" x="45.5" y="-103.5" font-family="Helvetica,sans-Serif" font-size="10.00">+ init_status</text>
<text text-anchor="start" x="45.5" y="-92.5" font-family="Helvetica,sans-Serif" font-size="10.00">+ reset</text>
<text text-anchor="start" x="45.5" y="-81.5" font-family="Helvetica,sans-Serif" font-size="10.00">+ set_pixformat</text>
<text text-anchor="start" x="45.5" y="-70.5" font-family="Helvetica,sans-Serif" font-size="10.00">+ set_framesize</text>
<text text-anchor="start" x="45.5" y="-59.5" font-family="Helvetica,sans-Serif" font-size="10.00">+ set_contrast</text>
<text text-anchor="start" x="45.5" y="-48.5" font-family="Helvetica,sans-Serif" font-size="10.00">+ set_brightness</text>
<text text-anchor="start" x="45.5" y="-37.5" font-family="Helvetica,sans-Serif" font-size="10.00">+ set_saturation</text>
<text text-anchor="start" x="45.5" y="-26.5" font-family="Helvetica,sans-Serif" font-size="10.00">and 27 more...</text>
<polyline fill="none" stroke="black" points="37.5,-19.5 136.5,-19.5 "/>
<text text-anchor="middle" x="87" y="-7.5" font-family="Helvetica,sans-Serif" font-size="10.00"> </text>
</a>
</g>
</g>
<!-- Node2 -->
<g id="node2" class="node">
<title>Node2</title>
<g id="a_node2"><a xlink:href="../../d5/d2e/sensor_8h.html#dd/d9e/structsensor__id__t" target="_top" xlink:title=" ">
<polygon fill="none" stroke="black" points="0,-254 0,-344 72,-344 72,-254 0,-254"/>
<text text-anchor="middle" x="36" y="-332" font-family="Helvetica,sans-Serif" font-size="10.00">sensor_id_t</text>
<polyline fill="none" stroke="black" points="0,-325 72,-325 "/>
<text text-anchor="start" x="8" y="-313" font-family="Helvetica,sans-Serif" font-size="10.00">+ MIDH</text>
<text text-anchor="start" x="8" y="-302" font-family="Helvetica,sans-Serif" font-size="10.00">+ MIDL</text>
<text text-anchor="start" x="8" y="-291" font-family="Helvetica,sans-Serif" font-size="10.00">+ PID</text>
<text text-anchor="start" x="8" y="-280" font-family="Helvetica,sans-Serif" font-size="10.00">+ VER</text>
<polyline fill="none" stroke="black" points="0,-273 72,-273 "/>
<text text-anchor="middle" x="36" y="-261" font-family="Helvetica,sans-Serif" font-size="10.00"> </text>
</a>
</g>
</g>
<!-- Node2&#45;&gt;Node1 -->
<g id="edge1" class="edge">
<title>Node2&#45;&gt;Node1</title>
<path fill="none" stroke="#404040" d="M46.57,-253.87C51.73,-232.31 58.15,-205.49 64.35,-179.62"/>
<polygon fill="none" stroke="#404040" points="64.38,-179.49 61.88,-172.72 67.17,-167.82 69.66,-174.58 64.38,-179.49"/>
<text text-anchor="middle" x="72.5" y="-189" font-family="Helvetica,sans-Serif" font-size="10.00"> +id</text>
</g>
<!-- Node3 -->
<g id="node3" class="node">
<title>Node3</title>
<g id="a_node3"><a xlink:href="../../d5/d2e/sensor_8h.html#df/dc0/structcamera__status__t" target="_top" xlink:title=" ">
<polygon fill="none" stroke="black" points="90,-215.5 90,-382.5 188,-382.5 188,-215.5 90,-215.5"/>
<text text-anchor="middle" x="139" y="-370.5" font-family="Helvetica,sans-Serif" font-size="10.00">camera_status_t</text>
<polyline fill="none" stroke="black" points="90,-363.5 188,-363.5 "/>
<text text-anchor="start" x="98" y="-351.5" font-family="Helvetica,sans-Serif" font-size="10.00">+ framesize</text>
<text text-anchor="start" x="98" y="-340.5" font-family="Helvetica,sans-Serif" font-size="10.00">+ scale</text>
<text text-anchor="start" x="98" y="-329.5" font-family="Helvetica,sans-Serif" font-size="10.00">+ binning</text>
<text text-anchor="start" x="98" y="-318.5" font-family="Helvetica,sans-Serif" font-size="10.00">+ quality</text>
<text text-anchor="start" x="98" y="-307.5" font-family="Helvetica,sans-Serif" font-size="10.00">+ brightness</text>
<text text-anchor="start" x="98" y="-296.5" font-family="Helvetica,sans-Serif" font-size="10.00">+ contrast</text>
<text text-anchor="start" x="98" y="-285.5" font-family="Helvetica,sans-Serif" font-size="10.00">+ saturation</text>
<text text-anchor="start" x="98" y="-274.5" font-family="Helvetica,sans-Serif" font-size="10.00">+ sharpness</text>
<text text-anchor="start" x="98" y="-263.5" font-family="Helvetica,sans-Serif" font-size="10.00">+ denoise</text>
<text text-anchor="start" x="98" y="-252.5" font-family="Helvetica,sans-Serif" font-size="10.00">+ special_effect</text>
<text text-anchor="start" x="98" y="-241.5" font-family="Helvetica,sans-Serif" font-size="10.00">and 18 more...</text>
<polyline fill="none" stroke="black" points="90,-234.5 188,-234.5 "/>
<text text-anchor="middle" x="139" y="-222.5" font-family="Helvetica,sans-Serif" font-size="10.00"> </text>
</a>
</g>
</g>
<!-- Node3&#45;&gt;Node1 -->
<g id="edge2" class="edge">
<title>Node3&#45;&gt;Node1</title>
<path fill="none" stroke="#404040" d="M118.82,-215.34C115.95,-203.59 112.98,-191.43 110.06,-179.47"/>
<polygon fill="none" stroke="#404040" points="110.01,-179.27 104.7,-174.39 107.17,-167.61 112.48,-172.49 110.01,-179.27"/>
<text text-anchor="middle" x="134" y="-189" font-family="Helvetica,sans-Serif" font-size="10.00"> +status</text>
</g>
</g>
</svg>
