<?xml version="1.0" encoding="UTF-8" standalone="no"?>
<!DOCTYPE svg PUBLIC "-//W3C//DTD SVG 1.1//EN"
 "http://www.w3.org/Graphics/SVG/1.1/DTD/svg11.dtd">
<!-- Generated by graphviz version 2.43.0 (0)
 -->
<!-- Title: Components/Protocols/HTTP/include/esp32_http_sal.hpp Pages: 1 -->
<svg width="390pt" height="240pt"
 viewBox="0.00 0.00 389.50 240.00" xmlns="http://www.w3.org/2000/svg" xmlns:xlink="http://www.w3.org/1999/xlink">
<g id="graph0" class="graph" transform="scale(1 1) rotate(0) translate(4 236)">
<title>Components/Protocols/HTTP/include/esp32_http_sal.hpp</title>
<!-- Node1 -->
<g id="node1" class="node">
<title>Node1</title>
<g id="a_node1"><a xlink:title=" ">
<polygon fill="#bfbfbf" stroke="black" points="138,-190.5 138,-231.5 278,-231.5 278,-190.5 138,-190.5"/>
<text text-anchor="start" x="146" y="-219.5" font-family="Helvetica,sans-Serif" font-size="10.00">Components/Protocols</text>
<text text-anchor="start" x="146" y="-208.5" font-family="Helvetica,sans-Serif" font-size="10.00">/HTTP/include/esp32_http</text>
<text text-anchor="middle" x="208" y="-197.5" font-family="Helvetica,sans-Serif" font-size="10.00">_sal.hpp</text>
</a>
</g>
</g>
<!-- Node2 -->
<g id="node2" class="node">
<title>Node2</title>
<g id="a_node2"><a xlink:href="../../da/d5f/_b_a_s_i_c_8hpp.html" target="_top" xlink:title=" ">
<polygon fill="none" stroke="black" points="0,-56.5 0,-86.5 116,-86.5 116,-56.5 0,-56.5"/>
<text text-anchor="start" x="8" y="-74.5" font-family="Helvetica,sans-Serif" font-size="10.00">../../../Global_Include</text>
<text text-anchor="middle" x="58" y="-63.5" font-family="Helvetica,sans-Serif" font-size="10.00">/BASIC.hpp</text>
</a>
</g>
</g>
<!-- Node1&#45;&gt;Node2 -->
<g id="edge1" class="edge">
<title>Node1&#45;&gt;Node2</title>
<path fill="none" stroke="midnightblue" d="M137.88,-203.15C105.87,-196.11 70.76,-182.03 51,-154 39.23,-137.31 42.89,-113.66 48.36,-96.13"/>
<polygon fill="midnightblue" stroke="midnightblue" points="51.69,-97.21 51.69,-86.62 45.08,-94.9 51.69,-97.21"/>
</g>
<!-- Node3 -->
<g id="node3" class="node">
<title>Node3</title>
<g id="a_node3"><a xlink:href="../../d3/deb/_general___error_8hpp.html" target="_top" xlink:title=" ">
<polygon fill="none" stroke="black" points="236.5,-56.5 236.5,-86.5 381.5,-86.5 381.5,-56.5 236.5,-56.5"/>
<text text-anchor="start" x="244.5" y="-74.5" font-family="Helvetica,sans-Serif" font-size="10.00">../../../Objects/ErrorHandler</text>
<text text-anchor="middle" x="309" y="-63.5" font-family="Helvetica,sans-Serif" font-size="10.00">/include/General_Error.hpp</text>
</a>
</g>
</g>
<!-- Node1&#45;&gt;Node3 -->
<g id="edge2" class="edge">
<title>Node1&#45;&gt;Node3</title>
<path fill="none" stroke="midnightblue" d="M219.72,-190.48C230.77,-172.5 248.1,-145.31 265,-123 272.42,-113.21 281.21,-102.9 288.97,-94.16"/>
<polygon fill="midnightblue" stroke="midnightblue" points="291.65,-96.42 295.75,-86.64 286.45,-91.73 291.65,-96.42"/>
</g>
<!-- Node5 -->
<g id="node5" class="node">
<title>Node5</title>
<g id="a_node5"><a xlink:title=" ">
<polygon fill="none" stroke="#bfbfbf" points="178,-0.5 178,-19.5 238,-19.5 238,-0.5 178,-0.5"/>
<text text-anchor="middle" x="208" y="-7.5" font-family="Helvetica,sans-Serif" font-size="10.00">iostream</text>
</a>
</g>
</g>
<!-- Node1&#45;&gt;Node5 -->
<g id="edge10" class="edge">
<title>Node1&#45;&gt;Node5</title>
<path fill="none" stroke="midnightblue" d="M208,-190.19C208,-151.7 208,-67.3 208,-29.71"/>
<polygon fill="midnightblue" stroke="midnightblue" points="211.5,-29.65 208,-19.65 204.5,-29.65 211.5,-29.65"/>
</g>
<!-- Node6 -->
<g id="node6" class="node">
<title>Node6</title>
<g id="a_node6"><a xlink:href="../../d3/d1c/_free_r_t_o_s_8h.html" target="_top" xlink:title=" ">
<polygon fill="none" stroke="black" points="60.5,-123.5 60.5,-153.5 179.5,-153.5 179.5,-123.5 60.5,-123.5"/>
<text text-anchor="start" x="68.5" y="-141.5" font-family="Helvetica,sans-Serif" font-size="10.00">../../../RTOS/FreeRTOS</text>
<text text-anchor="middle" x="120" y="-130.5" font-family="Helvetica,sans-Serif" font-size="10.00">/include/FreeRTOS.h</text>
</a>
</g>
</g>
<!-- Node1&#45;&gt;Node6 -->
<g id="edge5" class="edge">
<title>Node1&#45;&gt;Node6</title>
<path fill="none" stroke="midnightblue" d="M183.49,-190.36C171.67,-180.89 157.5,-169.54 145.55,-159.97"/>
<polygon fill="midnightblue" stroke="midnightblue" points="147.68,-157.19 137.69,-153.67 143.3,-162.65 147.68,-157.19"/>
</g>
<!-- Node7 -->
<g id="node7" class="node">
<title>Node7</title>
<g id="a_node7"><a xlink:title=" ">
<polygon fill="none" stroke="#bfbfbf" points="274,-129 274,-148 316,-148 316,-129 274,-129"/>
<text text-anchor="middle" x="295" y="-136" font-family="Helvetica,sans-Serif" font-size="10.00">array</text>
</a>
</g>
</g>
<!-- Node1&#45;&gt;Node7 -->
<g id="edge9" class="edge">
<title>Node1&#45;&gt;Node7</title>
<path fill="none" stroke="midnightblue" d="M232.23,-190.36C246.12,-179.11 263.3,-165.19 276.17,-154.76"/>
<polygon fill="midnightblue" stroke="midnightblue" points="278.73,-157.19 284.3,-148.17 274.32,-151.75 278.73,-157.19"/>
</g>
<!-- Node4 -->
<g id="node4" class="node">
<title>Node4</title>
<g id="a_node4"><a xlink:title=" ">
<polygon fill="none" stroke="#bfbfbf" points="287,-0.5 287,-19.5 331,-19.5 331,-0.5 287,-0.5"/>
<text text-anchor="middle" x="309" y="-7.5" font-family="Helvetica,sans-Serif" font-size="10.00">string</text>
</a>
</g>
</g>
<!-- Node3&#45;&gt;Node4 -->
<g id="edge3" class="edge">
<title>Node3&#45;&gt;Node4</title>
<path fill="none" stroke="midnightblue" d="M309,-56.4C309,-48.47 309,-38.46 309,-29.86"/>
<polygon fill="midnightblue" stroke="midnightblue" points="312.5,-29.66 309,-19.66 305.5,-29.66 312.5,-29.66"/>
</g>
<!-- Node3&#45;&gt;Node5 -->
<g id="edge4" class="edge">
<title>Node3&#45;&gt;Node5</title>
<path fill="none" stroke="midnightblue" d="M285.06,-56.4C268.87,-46.86 247.59,-34.32 231.5,-24.84"/>
<polygon fill="midnightblue" stroke="midnightblue" points="233.09,-21.72 222.7,-19.66 229.54,-27.75 233.09,-21.72"/>
</g>
<!-- Node6&#45;&gt;Node2 -->
<g id="edge6" class="edge">
<title>Node6&#45;&gt;Node2</title>
<path fill="none" stroke="midnightblue" d="M106.55,-123.4C98.34,-114.79 87.69,-103.63 78.45,-93.94"/>
<polygon fill="midnightblue" stroke="midnightblue" points="80.86,-91.4 71.43,-86.58 75.8,-96.23 80.86,-91.4"/>
</g>
<!-- Node6&#45;&gt;Node3 -->
<g id="edge7" class="edge">
<title>Node6&#45;&gt;Node3</title>
<path fill="none" stroke="midnightblue" d="M161.01,-123.4C189.62,-113.56 227.97,-100.37 258.47,-89.88"/>
<polygon fill="midnightblue" stroke="midnightblue" points="259.75,-93.14 268.07,-86.58 257.48,-86.52 259.75,-93.14"/>
</g>
<!-- Node6&#45;&gt;Node5 -->
<g id="edge8" class="edge">
<title>Node6&#45;&gt;Node5</title>
<path fill="none" stroke="midnightblue" d="M129.75,-123.48C146.01,-100.1 178.61,-53.25 196.16,-28.02"/>
<polygon fill="midnightblue" stroke="midnightblue" points="199.05,-30 201.89,-19.79 193.3,-26 199.05,-30"/>
</g>
</g>
</svg>
