<?xml version="1.0" encoding="UTF-8" standalone="no"?>
<!DOCTYPE svg PUBLIC "-//W3C//DTD SVG 1.1//EN"
 "http://www.w3.org/Graphics/SVG/1.1/DTD/svg11.dtd">
<!-- Generated by graphviz version 2.43.0 (0)
 -->
<!-- Title: Components/Utility/utils/include/utils.h Pages: 1 -->
<svg width="2136pt" height="451pt"
 viewBox="0.00 0.00 2136.00 451.00" xmlns="http://www.w3.org/2000/svg" xmlns:xlink="http://www.w3.org/1999/xlink">
<g id="graph0" class="graph" transform="scale(1 1) rotate(0) translate(4 447)">
<title>Components/Utility/utils/include/utils.h</title>
<!-- Node1 -->
<g id="node1" class="node">
<title>Node1</title>
<g id="a_node1"><a xlink:title=" ">
<polygon fill="#bfbfbf" stroke="black" points="1655,-412.5 1655,-442.5 1767,-442.5 1767,-412.5 1655,-412.5"/>
<text text-anchor="start" x="1663" y="-430.5" font-family="Helvetica,sans-Serif" font-size="10.00">Components/Utility</text>
<text text-anchor="middle" x="1711" y="-419.5" font-family="Helvetica,sans-Serif" font-size="10.00">/utils/include/utils.h</text>
</a>
</g>
</g>
<!-- Node2 -->
<g id="node2" class="node">
<title>Node2</title>
<g id="a_node2"><a xlink:href="../../d1/da7/_m_q_t_t___message_8hpp.html" target="_top" xlink:title=" ">
<polygon fill="none" stroke="black" points="1059,-340 1059,-370 1247,-370 1247,-340 1059,-340"/>
<text text-anchor="start" x="1067" y="-358" font-family="Helvetica,sans-Serif" font-size="10.00">Components/Protocols</text>
<text text-anchor="middle" x="1153" y="-347" font-family="Helvetica,sans-Serif" font-size="10.00">/MQTT/include/MQTT_Message.hpp</text>
</a>
</g>
</g>
<!-- Node1&#45;&gt;Node2 -->
<g id="edge1" class="edge">
<title>Node1&#45;&gt;Node2</title>
<path fill="none" stroke="midnightblue" d="M1644.8,-418.14C1546.12,-405.67 1360,-382.15 1247.17,-367.9"/>
<polygon fill="midnightblue" stroke="midnightblue" points="1644.58,-421.64 1654.94,-419.42 1645.46,-414.69 1644.58,-421.64"/>
</g>
<!-- Node30 -->
<g id="node30" class="node">
<title>Node30</title>
<g id="a_node30"><a xlink:href="../../d2/df7/src_2time__test_8cpp.html" target="_top" xlink:title=" ">
<polygon fill="none" stroke="black" points="1433.5,-334.5 1433.5,-375.5 1552.5,-375.5 1552.5,-334.5 1433.5,-334.5"/>
<text text-anchor="start" x="1441.5" y="-363.5" font-family="Helvetica,sans-Serif" font-size="10.00">Components/Objects</text>
<text text-anchor="start" x="1441.5" y="-352.5" font-family="Helvetica,sans-Serif" font-size="10.00">/Timeservice/test/src</text>
<text text-anchor="middle" x="1493" y="-341.5" font-family="Helvetica,sans-Serif" font-size="10.00">/time_test.cpp</text>
</a>
</g>
</g>
<!-- Node1&#45;&gt;Node30 -->
<g id="edge33" class="edge">
<title>Node1&#45;&gt;Node30</title>
<path fill="none" stroke="midnightblue" d="M1658.1,-409.39C1626.29,-399.1 1585.72,-385.98 1552.76,-375.33"/>
<polygon fill="midnightblue" stroke="midnightblue" points="1657.08,-412.74 1667.67,-412.49 1659.23,-406.08 1657.08,-412.74"/>
</g>
<!-- Node31 -->
<g id="node31" class="node">
<title>Node31</title>
<g id="a_node31"><a xlink:href="../../d4/d6a/test_2time__test_8cpp.html" target="_top" xlink:title=" ">
<polygon fill="none" stroke="black" points="1570.5,-334.5 1570.5,-375.5 1693.5,-375.5 1693.5,-334.5 1570.5,-334.5"/>
<text text-anchor="start" x="1578.5" y="-363.5" font-family="Helvetica,sans-Serif" font-size="10.00">Components/Objects</text>
<text text-anchor="start" x="1578.5" y="-352.5" font-family="Helvetica,sans-Serif" font-size="10.00">/Timeservice/test/test</text>
<text text-anchor="middle" x="1632" y="-341.5" font-family="Helvetica,sans-Serif" font-size="10.00">/time_test.cpp</text>
</a>
</g>
</g>
<!-- Node1&#45;&gt;Node31 -->
<g id="edge34" class="edge">
<title>Node1&#45;&gt;Node31</title>
<path fill="none" stroke="midnightblue" d="M1687.33,-405.38C1676.74,-395.93 1664.33,-384.85 1653.95,-375.59"/>
<polygon fill="midnightblue" stroke="midnightblue" points="1685.22,-408.19 1695.01,-412.23 1689.88,-402.96 1685.22,-408.19"/>
</g>
<!-- Node32 -->
<g id="node32" class="node">
<title>Node32</title>
<g id="a_node32"><a xlink:href="../../db/d89/_a_m2320___base_8hpp.html" target="_top" xlink:title=" ">
<polygon fill="none" stroke="black" points="1711.5,-340 1711.5,-370 1868.5,-370 1868.5,-340 1711.5,-340"/>
<text text-anchor="start" x="1719.5" y="-358" font-family="Helvetica,sans-Serif" font-size="10.00">Components/Sensor/AM2320</text>
<text text-anchor="middle" x="1790" y="-347" font-family="Helvetica,sans-Serif" font-size="10.00">/include/AM2320_Base.hpp</text>
</a>
</g>
</g>
<!-- Node1&#45;&gt;Node32 -->
<g id="edge35" class="edge">
<title>Node1&#45;&gt;Node32</title>
<path fill="none" stroke="midnightblue" d="M1734.57,-405.46C1747.41,-394 1762.95,-380.14 1774.31,-370"/>
<polygon fill="midnightblue" stroke="midnightblue" points="1732.12,-402.96 1726.99,-412.23 1736.78,-408.19 1732.12,-402.96"/>
</g>
<!-- Node39 -->
<g id="node39" class="node">
<title>Node39</title>
<g id="a_node39"><a xlink:href="../../de/d06/utils_8cpp.html" target="_top" xlink:title=" ">
<polygon fill="none" stroke="black" points="1886.5,-340 1886.5,-370 1997.5,-370 1997.5,-340 1886.5,-340"/>
<text text-anchor="start" x="1894.5" y="-358" font-family="Helvetica,sans-Serif" font-size="10.00">Components/Utility</text>
<text text-anchor="middle" x="1942" y="-347" font-family="Helvetica,sans-Serif" font-size="10.00">/utils/src/utils.cpp</text>
</a>
</g>
</g>
<!-- Node1&#45;&gt;Node39 -->
<g id="edge44" class="edge">
<title>Node1&#45;&gt;Node39</title>
<path fill="none" stroke="midnightblue" d="M1767.56,-409.54C1799.92,-399.8 1841.27,-387.29 1878,-376 1884.23,-374.08 1890.8,-372.05 1897.26,-370.04"/>
<polygon fill="midnightblue" stroke="midnightblue" points="1766.39,-406.23 1757.83,-412.47 1768.41,-412.94 1766.39,-406.23"/>
</g>
<!-- Node40 -->
<g id="node40" class="node">
<title>Node40</title>
<g id="a_node40"><a xlink:href="../../d5/d38/utils__test_8cpp.html" target="_top" xlink:title=" ">
<polygon fill="none" stroke="black" points="2015.5,-334.5 2015.5,-375.5 2126.5,-375.5 2126.5,-334.5 2015.5,-334.5"/>
<text text-anchor="start" x="2023.5" y="-363.5" font-family="Helvetica,sans-Serif" font-size="10.00">Components/Utility</text>
<text text-anchor="start" x="2023.5" y="-352.5" font-family="Helvetica,sans-Serif" font-size="10.00">/utils/test/test/utils</text>
<text text-anchor="middle" x="2071" y="-341.5" font-family="Helvetica,sans-Serif" font-size="10.00">_test.cpp</text>
</a>
</g>
</g>
<!-- Node1&#45;&gt;Node40 -->
<g id="edge45" class="edge">
<title>Node1&#45;&gt;Node40</title>
<path fill="none" stroke="midnightblue" d="M1777.25,-417.79C1837.58,-409.25 1928.9,-394.78 2007,-376 2009.72,-375.35 2012.49,-374.64 2015.27,-373.9"/>
<polygon fill="midnightblue" stroke="midnightblue" points="1776.52,-414.36 1767.1,-419.21 1777.49,-421.29 1776.52,-414.36"/>
</g>
<!-- Node3 -->
<g id="node3" class="node">
<title>Node3</title>
<g id="a_node3"><a xlink:href="../../d9/d1c/_sensor_controller_base_8hpp.html" target="_top" xlink:title=" ">
<polygon fill="none" stroke="black" points="774,-178.5 774,-219.5 958,-219.5 958,-178.5 774,-178.5"/>
<text text-anchor="start" x="782" y="-207.5" font-family="Helvetica,sans-Serif" font-size="10.00">Components/Interfaces</text>
<text text-anchor="start" x="782" y="-196.5" font-family="Helvetica,sans-Serif" font-size="10.00">/SensorControllerBase</text>
<text text-anchor="middle" x="866" y="-185.5" font-family="Helvetica,sans-Serif" font-size="10.00">/include/SensorControllerBase.hpp</text>
</a>
</g>
</g>
<!-- Node2&#45;&gt;Node3 -->
<g id="edge2" class="edge">
<title>Node2&#45;&gt;Node3</title>
<path fill="none" stroke="midnightblue" d="M1140.05,-330.89C1125.21,-305.17 1101.12,-265.93 1087,-256 1049.37,-229.52 1000.34,-215.54 958.03,-208.17"/>
<polygon fill="midnightblue" stroke="midnightblue" points="1137.06,-332.72 1145.06,-339.67 1143.14,-329.25 1137.06,-332.72"/>
</g>
<!-- Node14 -->
<g id="node14" class="node">
<title>Node14</title>
<g id="a_node14"><a xlink:href="../../d2/dc5/_service_base_8hpp.html" target="_top" xlink:title=" ">
<polygon fill="none" stroke="black" points="1134,-256.5 1134,-297.5 1264,-297.5 1264,-256.5 1134,-256.5"/>
<text text-anchor="start" x="1142" y="-285.5" font-family="Helvetica,sans-Serif" font-size="10.00">Components/Interfaces</text>
<text text-anchor="start" x="1142" y="-274.5" font-family="Helvetica,sans-Serif" font-size="10.00">/ServiceBase/include</text>
<text text-anchor="middle" x="1199" y="-263.5" font-family="Helvetica,sans-Serif" font-size="10.00">/ServiceBase.hpp</text>
</a>
</g>
</g>
<!-- Node2&#45;&gt;Node14 -->
<g id="edge15" class="edge">
<title>Node2&#45;&gt;Node14</title>
<path fill="none" stroke="midnightblue" d="M1166.95,-330.95C1173.38,-320.33 1180.93,-307.85 1187.09,-297.68"/>
<polygon fill="midnightblue" stroke="midnightblue" points="1163.84,-329.34 1161.65,-339.7 1169.82,-332.96 1163.84,-329.34"/>
</g>
<!-- Node26 -->
<g id="node26" class="node">
<title>Node26</title>
<g id="a_node26"><a xlink:href="../../d2/d93/_m_q_t_t___message_8cpp.html" target="_top" xlink:title=" ">
<polygon fill="none" stroke="black" points="1282,-262 1282,-292 1448,-292 1448,-262 1282,-262"/>
<text text-anchor="start" x="1290" y="-280" font-family="Helvetica,sans-Serif" font-size="10.00">Components/Protocols</text>
<text text-anchor="middle" x="1365" y="-269" font-family="Helvetica,sans-Serif" font-size="10.00">/MQTT/src/MQTT_Message.cpp</text>
</a>
</g>
</g>
<!-- Node2&#45;&gt;Node26 -->
<g id="edge29" class="edge">
<title>Node2&#45;&gt;Node26</title>
<path fill="none" stroke="midnightblue" d="M1202.12,-336.39C1239.74,-322.9 1290.94,-304.55 1325.83,-292.04"/>
<polygon fill="midnightblue" stroke="midnightblue" points="1200.61,-333.21 1192.38,-339.88 1202.97,-339.8 1200.61,-333.21"/>
</g>
<!-- Node27 -->
<g id="node27" class="node">
<title>Node27</title>
<g id="a_node27"><a xlink:href="../../d2/d40/msg__test_8cpp.html" target="_top" xlink:title=" ">
<polygon fill="none" stroke="black" points="752,-262 752,-292 912,-292 912,-262 752,-262"/>
<text text-anchor="start" x="760" y="-280" font-family="Helvetica,sans-Serif" font-size="10.00">Components/Protocols</text>
<text text-anchor="middle" x="832" y="-269" font-family="Helvetica,sans-Serif" font-size="10.00">/MQTT/test/test/msg_test.cpp</text>
</a>
</g>
</g>
<!-- Node2&#45;&gt;Node27 -->
<g id="edge30" class="edge">
<title>Node2&#45;&gt;Node27</title>
<path fill="none" stroke="midnightblue" d="M1083.67,-337.59C1026.27,-323.99 945.58,-304.89 891.18,-292.01"/>
<polygon fill="midnightblue" stroke="midnightblue" points="1083.21,-341.07 1093.75,-339.97 1084.82,-334.26 1083.21,-341.07"/>
</g>
<!-- Node28 -->
<g id="node28" class="node">
<title>Node28</title>
<g id="a_node28"><a xlink:href="../../dd/d82/_active_current_sensor_8hpp.html" target="_top" xlink:title=" ">
<polygon fill="none" stroke="black" points="930,-256.5 930,-297.5 1078,-297.5 1078,-256.5 930,-256.5"/>
<text text-anchor="start" x="938" y="-285.5" font-family="Helvetica,sans-Serif" font-size="10.00">Components/Sensor/Active</text>
<text text-anchor="start" x="938" y="-274.5" font-family="Helvetica,sans-Serif" font-size="10.00">CurrentSensor/include</text>
<text text-anchor="middle" x="1004" y="-263.5" font-family="Helvetica,sans-Serif" font-size="10.00">/ActiveCurrentSensor.hpp</text>
</a>
</g>
</g>
<!-- Node2&#45;&gt;Node28 -->
<g id="edge31" class="edge">
<title>Node2&#45;&gt;Node28</title>
<path fill="none" stroke="midnightblue" d="M1116.13,-335.2C1093.73,-323.77 1065.17,-309.2 1042.48,-297.63"/>
<polygon fill="midnightblue" stroke="midnightblue" points="1114.82,-338.46 1125.32,-339.88 1118.01,-332.22 1114.82,-338.46"/>
</g>
<!-- Node4 -->
<g id="node4" class="node">
<title>Node4</title>
<g id="a_node4"><a xlink:href="../../db/d12/_distance_sensor_controller_8hpp.html" target="_top" xlink:title=" ">
<polygon fill="none" stroke="black" points="565,-95 565,-136 767,-136 767,-95 565,-95"/>
<text text-anchor="start" x="573" y="-124" font-family="Helvetica,sans-Serif" font-size="10.00">Components/Controller</text>
<text text-anchor="start" x="573" y="-113" font-family="Helvetica,sans-Serif" font-size="10.00">/DistanceSensorController</text>
<text text-anchor="middle" x="666" y="-102" font-family="Helvetica,sans-Serif" font-size="10.00">/include/DistanceSensorController.hpp</text>
</a>
</g>
</g>
<!-- Node3&#45;&gt;Node4 -->
<g id="edge3" class="edge">
<title>Node3&#45;&gt;Node4</title>
<path fill="none" stroke="midnightblue" d="M808.6,-174.61C778.6,-162.39 742.32,-147.6 713.86,-136"/>
<polygon fill="midnightblue" stroke="midnightblue" points="807.51,-177.95 818.1,-178.48 810.16,-171.46 807.51,-177.95"/>
</g>
<!-- Node8 -->
<g id="node8" class="node">
<title>Node8</title>
<g id="a_node8"><a xlink:href="../../d2/d8d/_sensor_controller_base_8cpp.html" target="_top" xlink:title=" ">
<polygon fill="none" stroke="black" points="785,-95 785,-136 947,-136 947,-95 785,-95"/>
<text text-anchor="start" x="793" y="-124" font-family="Helvetica,sans-Serif" font-size="10.00">Components/Interfaces</text>
<text text-anchor="start" x="793" y="-113" font-family="Helvetica,sans-Serif" font-size="10.00">/SensorControllerBase</text>
<text text-anchor="middle" x="866" y="-102" font-family="Helvetica,sans-Serif" font-size="10.00">/src/SensorControllerBase.cpp</text>
</a>
</g>
</g>
<!-- Node3&#45;&gt;Node8 -->
<g id="edge7" class="edge">
<title>Node3&#45;&gt;Node8</title>
<path fill="none" stroke="midnightblue" d="M866,-168.06C866,-157.38 866,-145.63 866,-136.05"/>
<polygon fill="midnightblue" stroke="midnightblue" points="862.5,-168.27 866,-178.27 869.5,-168.27 862.5,-168.27"/>
</g>
<!-- Node9 -->
<g id="node9" class="node">
<title>Node9</title>
<g id="a_node9"><a xlink:href="../../db/dc2/_sensor_controller_base___m_o_c_k_8hpp.html" target="_top" xlink:title=" ">
<polygon fill="none" stroke="black" points="198,-89.5 198,-141.5 374,-141.5 374,-89.5 198,-89.5"/>
<text text-anchor="start" x="206" y="-129.5" font-family="Helvetica,sans-Serif" font-size="10.00">Components/Interfaces</text>
<text text-anchor="start" x="206" y="-118.5" font-family="Helvetica,sans-Serif" font-size="10.00">/SensorControllerBase</text>
<text text-anchor="start" x="206" y="-107.5" font-family="Helvetica,sans-Serif" font-size="10.00">/test/mock/SensorControllerBase</text>
<text text-anchor="middle" x="286" y="-96.5" font-family="Helvetica,sans-Serif" font-size="10.00">_MOCK.hpp</text>
</a>
</g>
</g>
<!-- Node3&#45;&gt;Node9 -->
<g id="edge8" class="edge">
<title>Node3&#45;&gt;Node9</title>
<path fill="none" stroke="midnightblue" d="M763.71,-178.02C626.57,-156.91 589.99,-159.71 457,-142 430.07,-138.41 400.81,-134.18 374.24,-130.2"/>
<polygon fill="midnightblue" stroke="midnightblue" points="763.34,-181.51 773.76,-179.58 764.42,-174.59 763.34,-181.51"/>
</g>
<!-- Node11 -->
<g id="node11" class="node">
<title>Node11</title>
<g id="a_node11"><a xlink:href="../../d8/d19/_sensor_controller_test_8cpp.html" target="_top" xlink:title=" ">
<polygon fill="none" stroke="black" points="194,-6 194,-47 378,-47 378,-6 194,-6"/>
<text text-anchor="start" x="202" y="-35" font-family="Helvetica,sans-Serif" font-size="10.00">Components/Interfaces</text>
<text text-anchor="start" x="202" y="-24" font-family="Helvetica,sans-Serif" font-size="10.00">/SensorControllerBase</text>
<text text-anchor="middle" x="286" y="-13" font-family="Helvetica,sans-Serif" font-size="10.00">/test/test/SensorControllerTest.cpp</text>
</a>
</g>
</g>
<!-- Node3&#45;&gt;Node11 -->
<g id="edge11" class="edge">
<title>Node3&#45;&gt;Node11</title>
<path fill="none" stroke="midnightblue" d="M764.31,-178.06C764.21,-178.04 764.1,-178.02 764,-178 671.74,-160.97 646,-168.49 556,-142 470.52,-116.84 375.74,-72.57 324.31,-47.08"/>
<polygon fill="midnightblue" stroke="midnightblue" points="763.53,-181.47 774,-179.86 764.81,-174.59 763.53,-181.47"/>
</g>
<!-- Node12 -->
<g id="node12" class="node">
<title>Node12</title>
<g id="a_node12"><a xlink:href="../../d0/dc1/_data_broker_8hpp.html" target="_top" xlink:title=" ">
<polygon fill="none" stroke="black" points="965,-95 965,-136 1083,-136 1083,-95 965,-95"/>
<text text-anchor="start" x="973" y="-124" font-family="Helvetica,sans-Serif" font-size="10.00">Components/Objects</text>
<text text-anchor="start" x="973" y="-113" font-family="Helvetica,sans-Serif" font-size="10.00">/DataBroker/include</text>
<text text-anchor="middle" x="1024" y="-102" font-family="Helvetica,sans-Serif" font-size="10.00">/DataBroker.hpp</text>
</a>
</g>
</g>
<!-- Node3&#45;&gt;Node12 -->
<g id="edge12" class="edge">
<title>Node3&#45;&gt;Node12</title>
<path fill="none" stroke="midnightblue" d="M912.9,-173.81C936.28,-161.75 964.19,-147.35 986.19,-136"/>
<polygon fill="midnightblue" stroke="midnightblue" points="911.13,-170.78 903.84,-178.48 914.34,-177 911.13,-170.78"/>
</g>
<!-- Node5 -->
<g id="node5" class="node">
<title>Node5</title>
<g id="a_node5"><a xlink:href="../../dd/dde/_distance_sensor_controller_8cpp.html" target="_top" xlink:title=" ">
<polygon fill="none" stroke="black" points="396,-6 396,-47 576,-47 576,-6 396,-6"/>
<text text-anchor="start" x="404" y="-35" font-family="Helvetica,sans-Serif" font-size="10.00">Components/Controller</text>
<text text-anchor="start" x="404" y="-24" font-family="Helvetica,sans-Serif" font-size="10.00">/DistanceSensorController</text>
<text text-anchor="middle" x="486" y="-13" font-family="Helvetica,sans-Serif" font-size="10.00">/src/DistanceSensorController.cpp</text>
</a>
</g>
</g>
<!-- Node4&#45;&gt;Node5 -->
<g id="edge4" class="edge">
<title>Node4&#45;&gt;Node5</title>
<path fill="none" stroke="midnightblue" d="M616.3,-90.48C588.06,-76.83 553.15,-59.96 526.57,-47.11"/>
<polygon fill="midnightblue" stroke="midnightblue" points="615.08,-93.77 625.6,-94.98 618.12,-87.47 615.08,-93.77"/>
</g>
<!-- Node6 -->
<g id="node6" class="node">
<title>Node6</title>
<g id="a_node6"><a xlink:href="../../d7/d91/_distance_sensor_controller__test_8cpp.html" target="_top" xlink:title=" ">
<polygon fill="none" stroke="black" points="594.5,-0.5 594.5,-52.5 781.5,-52.5 781.5,-0.5 594.5,-0.5"/>
<text text-anchor="start" x="602.5" y="-40.5" font-family="Helvetica,sans-Serif" font-size="10.00">Components/Controller</text>
<text text-anchor="start" x="602.5" y="-29.5" font-family="Helvetica,sans-Serif" font-size="10.00">/DistanceSensorController</text>
<text text-anchor="start" x="602.5" y="-18.5" font-family="Helvetica,sans-Serif" font-size="10.00">/test/test/DistanceSensorController</text>
<text text-anchor="middle" x="688" y="-7.5" font-family="Helvetica,sans-Serif" font-size="10.00">_test.cpp</text>
</a>
</g>
</g>
<!-- Node4&#45;&gt;Node6 -->
<g id="edge5" class="edge">
<title>Node4&#45;&gt;Node6</title>
<path fill="none" stroke="midnightblue" d="M673.5,-84.84C676.14,-74.42 679.07,-62.81 681.61,-52.79"/>
<polygon fill="midnightblue" stroke="midnightblue" points="670.05,-84.21 670.99,-94.76 676.84,-85.92 670.05,-84.21"/>
</g>
<!-- Node7 -->
<g id="node7" class="node">
<title>Node7</title>
<g id="a_node7"><a xlink:href="../../da/d75/_data_broker__test_8cpp.html" target="_top" xlink:title=" ">
<polygon fill="none" stroke="black" points="799.5,-6 799.5,-47 918.5,-47 918.5,-6 799.5,-6"/>
<text text-anchor="start" x="807.5" y="-35" font-family="Helvetica,sans-Serif" font-size="10.00">Components/Objects</text>
<text text-anchor="start" x="807.5" y="-24" font-family="Helvetica,sans-Serif" font-size="10.00">/DataBroker/test/test</text>
<text text-anchor="middle" x="859" y="-13" font-family="Helvetica,sans-Serif" font-size="10.00">/DataBroker_test.cpp</text>
</a>
</g>
</g>
<!-- Node4&#45;&gt;Node7 -->
<g id="edge6" class="edge">
<title>Node4&#45;&gt;Node7</title>
<path fill="none" stroke="midnightblue" d="M718.5,-90.84C748.91,-77.12 786.75,-60.07 815.5,-47.11"/>
<polygon fill="midnightblue" stroke="midnightblue" points="716.99,-87.68 709.31,-94.98 719.87,-94.06 716.99,-87.68"/>
</g>
<!-- Node10 -->
<g id="node10" class="node">
<title>Node10</title>
<g id="a_node10"><a xlink:href="../../dc/d0f/_sensor_controller_base___m_o_c_k_8cpp.html" target="_top" xlink:title=" ">
<polygon fill="none" stroke="black" points="0,-0.5 0,-52.5 176,-52.5 176,-0.5 0,-0.5"/>
<text text-anchor="start" x="8" y="-40.5" font-family="Helvetica,sans-Serif" font-size="10.00">Components/Interfaces</text>
<text text-anchor="start" x="8" y="-29.5" font-family="Helvetica,sans-Serif" font-size="10.00">/SensorControllerBase</text>
<text text-anchor="start" x="8" y="-18.5" font-family="Helvetica,sans-Serif" font-size="10.00">/test/mock/SensorControllerBase</text>
<text text-anchor="middle" x="88" y="-7.5" font-family="Helvetica,sans-Serif" font-size="10.00">_MOCK.cpp</text>
</a>
</g>
</g>
<!-- Node9&#45;&gt;Node10 -->
<g id="edge9" class="edge">
<title>Node9&#45;&gt;Node10</title>
<path fill="none" stroke="midnightblue" d="M219.53,-85.29C195.34,-74.67 168.24,-62.76 144.94,-52.52"/>
<polygon fill="midnightblue" stroke="midnightblue" points="218.43,-88.63 229,-89.45 221.25,-82.23 218.43,-88.63"/>
</g>
<!-- Node9&#45;&gt;Node11 -->
<g id="edge10" class="edge">
<title>Node9&#45;&gt;Node11</title>
<path fill="none" stroke="midnightblue" d="M286,-79.16C286,-68.21 286,-56.55 286,-47.08"/>
<polygon fill="midnightblue" stroke="midnightblue" points="282.5,-79.34 286,-89.34 289.5,-79.34 282.5,-79.34"/>
</g>
<!-- Node12&#45;&gt;Node7 -->
<g id="edge14" class="edge">
<title>Node12&#45;&gt;Node7</title>
<path fill="none" stroke="midnightblue" d="M978.11,-90.3C952.28,-76.68 920.45,-59.9 896.19,-47.11"/>
<polygon fill="midnightblue" stroke="midnightblue" points="976.49,-93.41 986.97,-94.98 979.76,-87.22 976.49,-93.41"/>
</g>
<!-- Node13 -->
<g id="node13" class="node">
<title>Node13</title>
<g id="a_node13"><a xlink:href="../../d4/ddc/_data_broker_8cpp.html" target="_top" xlink:title=" ">
<polygon fill="none" stroke="black" points="936.5,-11.5 936.5,-41.5 1105.5,-41.5 1105.5,-11.5 936.5,-11.5"/>
<text text-anchor="start" x="944.5" y="-29.5" font-family="Helvetica,sans-Serif" font-size="10.00">Components/Objects</text>
<text text-anchor="middle" x="1021" y="-18.5" font-family="Helvetica,sans-Serif" font-size="10.00">/DataBroker/src/DataBroker.cpp</text>
</a>
</g>
</g>
<!-- Node12&#45;&gt;Node13 -->
<g id="edge13" class="edge">
<title>Node12&#45;&gt;Node13</title>
<path fill="none" stroke="midnightblue" d="M1022.97,-84.69C1022.47,-70.15 1021.89,-53.36 1021.49,-41.74"/>
<polygon fill="midnightblue" stroke="midnightblue" points="1019.48,-84.88 1023.32,-94.76 1026.47,-84.64 1019.48,-84.88"/>
</g>
<!-- Node15 -->
<g id="node15" class="node">
<title>Node15</title>
<g id="a_node15"><a xlink:href="../../d2/dd8/_service_queue_base_8hpp.html" target="_top" xlink:title=" ">
<polygon fill="none" stroke="black" points="1133,-178.5 1133,-219.5 1265,-219.5 1265,-178.5 1133,-178.5"/>
<text text-anchor="start" x="1141" y="-207.5" font-family="Helvetica,sans-Serif" font-size="10.00">Components/Interfaces</text>
<text text-anchor="start" x="1141" y="-196.5" font-family="Helvetica,sans-Serif" font-size="10.00">/ServiceBase/include</text>
<text text-anchor="middle" x="1199" y="-185.5" font-family="Helvetica,sans-Serif" font-size="10.00">/ServiceQueueBase.hpp</text>
</a>
</g>
</g>
<!-- Node14&#45;&gt;Node15 -->
<g id="edge16" class="edge">
<title>Node14&#45;&gt;Node15</title>
<path fill="none" stroke="midnightblue" d="M1199,-246.3C1199,-237.3 1199,-227.65 1199,-219.51"/>
<polygon fill="midnightblue" stroke="midnightblue" points="1195.5,-246.43 1199,-256.43 1202.5,-246.43 1195.5,-246.43"/>
</g>
<!-- Node22 -->
<g id="node22" class="node">
<title>Node22</title>
<g id="a_node22"><a xlink:href="../../d8/deb/_service_time_base_8hpp.html" target="_top" xlink:title=" ">
<polygon fill="none" stroke="black" points="1439,-178.5 1439,-219.5 1569,-219.5 1569,-178.5 1439,-178.5"/>
<text text-anchor="start" x="1447" y="-207.5" font-family="Helvetica,sans-Serif" font-size="10.00">Components/Interfaces</text>
<text text-anchor="start" x="1447" y="-196.5" font-family="Helvetica,sans-Serif" font-size="10.00">/ServiceBase/include</text>
<text text-anchor="middle" x="1504" y="-185.5" font-family="Helvetica,sans-Serif" font-size="10.00">/ServiceTimeBase.hpp</text>
</a>
</g>
</g>
<!-- Node14&#45;&gt;Node22 -->
<g id="edge24" class="edge">
<title>Node14&#45;&gt;Node22</title>
<path fill="none" stroke="midnightblue" d="M1274.15,-255.73C1335.18,-240.16 1394.7,-225.8 1438.67,-215.36"/>
<polygon fill="midnightblue" stroke="midnightblue" points="1273.17,-252.37 1264.35,-258.24 1274.9,-259.15 1273.17,-252.37"/>
</g>
<!-- Node15&#45;&gt;Node12 -->
<g id="edge18" class="edge">
<title>Node15&#45;&gt;Node12</title>
<path fill="none" stroke="midnightblue" d="M1147.75,-174.13C1121.7,-162 1090.46,-147.45 1065.88,-136"/>
<polygon fill="midnightblue" stroke="midnightblue" points="1146.54,-177.43 1157.08,-178.48 1149.5,-171.08 1146.54,-177.43"/>
</g>
<!-- Node16 -->
<g id="node16" class="node">
<title>Node16</title>
<g id="a_node16"><a xlink:href="../../dc/d1d/_service__test_8cpp.html" target="_top" xlink:title=" ">
<polygon fill="none" stroke="black" points="1455,-95 1455,-136 1585,-136 1585,-95 1455,-95"/>
<text text-anchor="start" x="1463" y="-124" font-family="Helvetica,sans-Serif" font-size="10.00">Components/Interfaces</text>
<text text-anchor="start" x="1463" y="-113" font-family="Helvetica,sans-Serif" font-size="10.00">/ServiceBase/test/test</text>
<text text-anchor="middle" x="1520" y="-102" font-family="Helvetica,sans-Serif" font-size="10.00">/Service_test.cpp</text>
</a>
</g>
</g>
<!-- Node15&#45;&gt;Node16 -->
<g id="edge17" class="edge">
<title>Node15&#45;&gt;Node16</title>
<path fill="none" stroke="midnightblue" d="M1274.94,-183.02C1324.07,-172.78 1389.23,-158.17 1446,-142 1452.27,-140.21 1458.8,-138.2 1465.25,-136.11"/>
<polygon fill="midnightblue" stroke="midnightblue" points="1274.1,-179.62 1265.02,-185.07 1275.52,-186.47 1274.1,-179.62"/>
</g>
<!-- Node17 -->
<g id="node17" class="node">
<title>Node17</title>
<g id="a_node17"><a xlink:href="../../d2/d1e/_online_detector__service_8hpp.html" target="_top" xlink:title=" ">
<polygon fill="none" stroke="black" points="1105.5,-95 1105.5,-136 1260.5,-136 1260.5,-95 1105.5,-95"/>
<text text-anchor="start" x="1113.5" y="-124" font-family="Helvetica,sans-Serif" font-size="10.00">Components/Service</text>
<text text-anchor="start" x="1113.5" y="-113" font-family="Helvetica,sans-Serif" font-size="10.00">/OnlineDetector/include</text>
<text text-anchor="middle" x="1183" y="-102" font-family="Helvetica,sans-Serif" font-size="10.00">/OnlineDetector_service.hpp</text>
</a>
</g>
</g>
<!-- Node15&#45;&gt;Node17 -->
<g id="edge19" class="edge">
<title>Node15&#45;&gt;Node17</title>
<path fill="none" stroke="midnightblue" d="M1193.19,-168.4C1191.07,-157.63 1188.74,-145.73 1186.84,-136.05"/>
<polygon fill="midnightblue" stroke="midnightblue" points="1189.77,-169.13 1195.13,-178.27 1196.63,-167.78 1189.77,-169.13"/>
</g>
<!-- Node20 -->
<g id="node20" class="node">
<title>Node20</title>
<g id="a_node20"><a xlink:href="../../dd/d22/_water_estimator___service_8hpp.html" target="_top" xlink:title=" ">
<polygon fill="none" stroke="black" points="1279,-95 1279,-136 1437,-136 1437,-95 1279,-95"/>
<text text-anchor="start" x="1287" y="-124" font-family="Helvetica,sans-Serif" font-size="10.00">Components/Service</text>
<text text-anchor="start" x="1287" y="-113" font-family="Helvetica,sans-Serif" font-size="10.00">/WaterEstimator/include</text>
<text text-anchor="middle" x="1358" y="-102" font-family="Helvetica,sans-Serif" font-size="10.00">/WaterEstimator_Service.hpp</text>
</a>
</g>
</g>
<!-- Node15&#45;&gt;Node20 -->
<g id="edge22" class="edge">
<title>Node15&#45;&gt;Node20</title>
<path fill="none" stroke="midnightblue" d="M1246.19,-173.81C1269.73,-161.75 1297.82,-147.35 1319.95,-136"/>
<polygon fill="midnightblue" stroke="midnightblue" points="1244.39,-170.8 1237.08,-178.48 1247.58,-177.03 1244.39,-170.8"/>
</g>
<!-- Node18 -->
<g id="node18" class="node">
<title>Node18</title>
<g id="a_node18"><a xlink:href="../../d7/d24/_online_detector__service_8cpp.html" target="_top" xlink:title=" ">
<polygon fill="none" stroke="black" points="1261,-6 1261,-47 1415,-47 1415,-6 1261,-6"/>
<text text-anchor="start" x="1269" y="-35" font-family="Helvetica,sans-Serif" font-size="10.00">Components/Service</text>
<text text-anchor="start" x="1269" y="-24" font-family="Helvetica,sans-Serif" font-size="10.00">/OnlineDetector/src</text>
<text text-anchor="middle" x="1338" y="-13" font-family="Helvetica,sans-Serif" font-size="10.00">/OnlineDetector_service.cpp</text>
</a>
</g>
</g>
<!-- Node17&#45;&gt;Node18 -->
<g id="edge20" class="edge">
<title>Node17&#45;&gt;Node18</title>
<path fill="none" stroke="midnightblue" d="M1226.75,-89.94C1250.9,-76.39 1280.48,-59.79 1303.06,-47.11"/>
<polygon fill="midnightblue" stroke="midnightblue" points="1224.79,-87.03 1217.79,-94.98 1228.22,-93.13 1224.79,-87.03"/>
</g>
<!-- Node19 -->
<g id="node19" class="node">
<title>Node19</title>
<g id="a_node19"><a xlink:href="../../db/df8/_service_2_online_detector_2test_2test_2simple__test_8cpp.html" target="_top" xlink:title=" ">
<polygon fill="none" stroke="black" points="1123.5,-6 1123.5,-47 1242.5,-47 1242.5,-6 1123.5,-6"/>
<text text-anchor="start" x="1131.5" y="-35" font-family="Helvetica,sans-Serif" font-size="10.00">Components/Service</text>
<text text-anchor="start" x="1131.5" y="-24" font-family="Helvetica,sans-Serif" font-size="10.00">/OnlineDetector/test</text>
<text text-anchor="middle" x="1183" y="-13" font-family="Helvetica,sans-Serif" font-size="10.00">/test/simple_test.cpp</text>
</a>
</g>
</g>
<!-- Node17&#45;&gt;Node19 -->
<g id="edge21" class="edge">
<title>Node17&#45;&gt;Node19</title>
<path fill="none" stroke="midnightblue" d="M1183,-84.44C1183,-72.1 1183,-58.16 1183,-47.16"/>
<polygon fill="midnightblue" stroke="midnightblue" points="1179.5,-84.76 1183,-94.76 1186.5,-84.76 1179.5,-84.76"/>
</g>
<!-- Node21 -->
<g id="node21" class="node">
<title>Node21</title>
<g id="a_node21"><a xlink:href="../../dd/dd3/_water_estimator___service_8cpp.html" target="_top" xlink:title=" ">
<polygon fill="none" stroke="black" points="1433.5,-6 1433.5,-47 1590.5,-47 1590.5,-6 1433.5,-6"/>
<text text-anchor="start" x="1441.5" y="-35" font-family="Helvetica,sans-Serif" font-size="10.00">Components/Service</text>
<text text-anchor="start" x="1441.5" y="-24" font-family="Helvetica,sans-Serif" font-size="10.00">/WaterEstimator/src</text>
<text text-anchor="middle" x="1512" y="-13" font-family="Helvetica,sans-Serif" font-size="10.00">/WaterEstimator_Service.cpp</text>
</a>
</g>
</g>
<!-- Node20&#45;&gt;Node21 -->
<g id="edge23" class="edge">
<title>Node20&#45;&gt;Node21</title>
<path fill="none" stroke="midnightblue" d="M1401.47,-89.94C1425.46,-76.39 1454.85,-59.79 1477.29,-47.11"/>
<polygon fill="midnightblue" stroke="midnightblue" points="1399.55,-87.01 1392.56,-94.98 1402.99,-93.1 1399.55,-87.01"/>
</g>
<!-- Node22&#45;&gt;Node16 -->
<g id="edge25" class="edge">
<title>Node22&#45;&gt;Node16</title>
<path fill="none" stroke="midnightblue" d="M1509.81,-168.4C1511.93,-157.63 1514.26,-145.73 1516.16,-136.05"/>
<polygon fill="midnightblue" stroke="midnightblue" points="1506.37,-167.78 1507.87,-178.27 1513.23,-169.13 1506.37,-167.78"/>
</g>
<!-- Node23 -->
<g id="node23" class="node">
<title>Node23</title>
<g id="a_node23"><a xlink:href="../../df/d40/is_alive__service_8hpp.html" target="_top" xlink:title=" ">
<polygon fill="none" stroke="black" points="1611.5,-95 1611.5,-136 1738.5,-136 1738.5,-95 1611.5,-95"/>
<text text-anchor="start" x="1619.5" y="-124" font-family="Helvetica,sans-Serif" font-size="10.00">Components/Service</text>
<text text-anchor="start" x="1619.5" y="-113" font-family="Helvetica,sans-Serif" font-size="10.00">/isAlive/include/isAlive</text>
<text text-anchor="middle" x="1675" y="-102" font-family="Helvetica,sans-Serif" font-size="10.00">_service.hpp</text>
</a>
</g>
</g>
<!-- Node22&#45;&gt;Node23 -->
<g id="edge26" class="edge">
<title>Node22&#45;&gt;Node23</title>
<path fill="none" stroke="midnightblue" d="M1554.08,-174.13C1579.53,-162 1610.06,-147.45 1634.08,-136"/>
<polygon fill="midnightblue" stroke="midnightblue" points="1552.48,-171.02 1544.96,-178.48 1555.49,-177.34 1552.48,-171.02"/>
</g>
<!-- Node24 -->
<g id="node24" class="node">
<title>Node24</title>
<g id="a_node24"><a xlink:href="../../de/da1/is_alive__service_8cpp.html" target="_top" xlink:title=" ">
<polygon fill="none" stroke="black" points="1759.5,-6 1759.5,-47 1876.5,-47 1876.5,-6 1759.5,-6"/>
<text text-anchor="start" x="1767.5" y="-35" font-family="Helvetica,sans-Serif" font-size="10.00">Components/Service</text>
<text text-anchor="start" x="1767.5" y="-24" font-family="Helvetica,sans-Serif" font-size="10.00">/isAlive/src/isAlive</text>
<text text-anchor="middle" x="1818" y="-13" font-family="Helvetica,sans-Serif" font-size="10.00">_service.cpp</text>
</a>
</g>
</g>
<!-- Node23&#45;&gt;Node24 -->
<g id="edge27" class="edge">
<title>Node23&#45;&gt;Node24</title>
<path fill="none" stroke="midnightblue" d="M1715.92,-89.61C1738,-76.17 1764.89,-59.81 1785.52,-47.26"/>
<polygon fill="midnightblue" stroke="midnightblue" points="1713.82,-86.79 1707.09,-94.98 1717.45,-92.77 1713.82,-86.79"/>
</g>
<!-- Node25 -->
<g id="node25" class="node">
<title>Node25</title>
<g id="a_node25"><a xlink:href="../../d4/d60/_service_2is_alive_2test_2test_2simple__test_8cpp.html" target="_top" xlink:title=" ">
<polygon fill="none" stroke="black" points="1609,-6 1609,-47 1741,-47 1741,-6 1609,-6"/>
<text text-anchor="start" x="1617" y="-35" font-family="Helvetica,sans-Serif" font-size="10.00">Components/Service</text>
<text text-anchor="start" x="1617" y="-24" font-family="Helvetica,sans-Serif" font-size="10.00">/isAlive/test/test/simple</text>
<text text-anchor="middle" x="1675" y="-13" font-family="Helvetica,sans-Serif" font-size="10.00">_test.cpp</text>
</a>
</g>
</g>
<!-- Node23&#45;&gt;Node25 -->
<g id="edge28" class="edge">
<title>Node23&#45;&gt;Node25</title>
<path fill="none" stroke="midnightblue" d="M1675,-84.44C1675,-72.1 1675,-58.16 1675,-47.16"/>
<polygon fill="midnightblue" stroke="midnightblue" points="1671.5,-84.76 1675,-94.76 1678.5,-84.76 1671.5,-84.76"/>
</g>
<!-- Node29 -->
<g id="node29" class="node">
<title>Node29</title>
<g id="a_node29"><a xlink:href="../../d2/d77/_active_current_sensor_8cpp.html" target="_top" xlink:title=" ">
<polygon fill="none" stroke="black" points="582.5,-178.5 582.5,-219.5 755.5,-219.5 755.5,-178.5 582.5,-178.5"/>
<text text-anchor="start" x="590.5" y="-207.5" font-family="Helvetica,sans-Serif" font-size="10.00">Components/Sensor/Active</text>
<text text-anchor="start" x="590.5" y="-196.5" font-family="Helvetica,sans-Serif" font-size="10.00">CurrentSensor/src/ActiveCurrent</text>
<text text-anchor="middle" x="669" y="-185.5" font-family="Helvetica,sans-Serif" font-size="10.00">Sensor.cpp</text>
</a>
</g>
</g>
<!-- Node28&#45;&gt;Node29 -->
<g id="edge32" class="edge">
<title>Node28&#45;&gt;Node29</title>
<path fill="none" stroke="midnightblue" d="M919.74,-255.73C859.62,-241.85 801.76,-228.99 755.68,-218.86"/>
<polygon fill="midnightblue" stroke="midnightblue" points="919.27,-259.21 929.8,-258.05 920.85,-252.39 919.27,-259.21"/>
</g>
<!-- Node33 -->
<g id="node33" class="node">
<title>Node33</title>
<g id="a_node33"><a xlink:href="../../d4/de2/_a_m2320___humidity_8hpp.html" target="_top" xlink:title=" ">
<polygon fill="none" stroke="black" points="1526.5,-262 1526.5,-292 1693.5,-292 1693.5,-262 1526.5,-262"/>
<text text-anchor="start" x="1534.5" y="-280" font-family="Helvetica,sans-Serif" font-size="10.00">Components/Sensor/AM2320</text>
<text text-anchor="middle" x="1610" y="-269" font-family="Helvetica,sans-Serif" font-size="10.00">/include/AM2320_Humidity.hpp</text>
</a>
</g>
</g>
<!-- Node32&#45;&gt;Node33 -->
<g id="edge36" class="edge">
<title>Node32&#45;&gt;Node33</title>
<path fill="none" stroke="midnightblue" d="M1747.07,-335.87C1715.25,-322.44 1672.5,-304.39 1643.26,-292.04"/>
<polygon fill="midnightblue" stroke="midnightblue" points="1745.99,-339.22 1756.57,-339.88 1748.71,-332.77 1745.99,-339.22"/>
</g>
<!-- Node35 -->
<g id="node35" class="node">
<title>Node35</title>
<g id="a_node35"><a xlink:href="../../d6/d80/_sensor_2_a_m2320_2test_2test_2simple__test_8cpp.html" target="_top" xlink:title=" ">
<polygon fill="none" stroke="black" points="1788.5,-184 1788.5,-214 1945.5,-214 1945.5,-184 1788.5,-184"/>
<text text-anchor="start" x="1796.5" y="-202" font-family="Helvetica,sans-Serif" font-size="10.00">Components/Sensor/AM2320</text>
<text text-anchor="middle" x="1867" y="-191" font-family="Helvetica,sans-Serif" font-size="10.00">/test/test/simple_test.cpp</text>
</a>
</g>
</g>
<!-- Node32&#45;&gt;Node35 -->
<g id="edge43" class="edge">
<title>Node32&#45;&gt;Node35</title>
<path fill="none" stroke="midnightblue" d="M1837.58,-335.16C1853.34,-326.37 1869.11,-314.19 1878,-298 1892.66,-271.29 1881.62,-234.34 1873.53,-214.31"/>
<polygon fill="midnightblue" stroke="midnightblue" points="1835.61,-332.24 1828.35,-339.95 1838.84,-338.45 1835.61,-332.24"/>
</g>
<!-- Node36 -->
<g id="node36" class="node">
<title>Node36</title>
<g id="a_node36"><a xlink:href="../../df/d33/_a_m2320___temperature_8hpp.html" target="_top" xlink:title=" ">
<polygon fill="none" stroke="black" points="1924.5,-262 1924.5,-292 2109.5,-292 2109.5,-262 1924.5,-262"/>
<text text-anchor="start" x="1932.5" y="-280" font-family="Helvetica,sans-Serif" font-size="10.00">Components/Sensor/AM2320</text>
<text text-anchor="middle" x="2017" y="-269" font-family="Helvetica,sans-Serif" font-size="10.00">/include/AM2320_Temperature.hpp</text>
</a>
</g>
</g>
<!-- Node32&#45;&gt;Node36 -->
<g id="edge39" class="edge">
<title>Node32&#45;&gt;Node36</title>
<path fill="none" stroke="midnightblue" d="M1841.55,-336.74C1881.89,-323.23 1937.28,-304.69 1974.96,-292.07"/>
<polygon fill="midnightblue" stroke="midnightblue" points="1840.27,-333.48 1831.9,-339.97 1842.49,-340.12 1840.27,-333.48"/>
</g>
<!-- Node38 -->
<g id="node38" class="node">
<title>Node38</title>
<g id="a_node38"><a xlink:href="../../db/ddd/_a_m2320___base_8cpp.html" target="_top" xlink:title=" ">
<polygon fill="none" stroke="black" points="1711.5,-262 1711.5,-292 1868.5,-292 1868.5,-262 1711.5,-262"/>
<text text-anchor="start" x="1719.5" y="-280" font-family="Helvetica,sans-Serif" font-size="10.00">Components/Sensor/AM2320</text>
<text text-anchor="middle" x="1790" y="-269" font-family="Helvetica,sans-Serif" font-size="10.00">/src/AM2320_Base.cpp</text>
</a>
</g>
</g>
<!-- Node32&#45;&gt;Node38 -->
<g id="edge42" class="edge">
<title>Node32&#45;&gt;Node38</title>
<path fill="none" stroke="midnightblue" d="M1790,-329.59C1790,-317.26 1790,-302.72 1790,-292.23"/>
<polygon fill="midnightblue" stroke="midnightblue" points="1786.5,-329.7 1790,-339.7 1793.5,-329.71 1786.5,-329.7"/>
</g>
<!-- Node34 -->
<g id="node34" class="node">
<title>Node34</title>
<g id="a_node34"><a xlink:href="../../dd/d78/_a_m2320___humidity_8cpp.html" target="_top" xlink:title=" ">
<polygon fill="none" stroke="black" points="1587.5,-184 1587.5,-214 1744.5,-214 1744.5,-184 1587.5,-184"/>
<text text-anchor="start" x="1595.5" y="-202" font-family="Helvetica,sans-Serif" font-size="10.00">Components/Sensor/AM2320</text>
<text text-anchor="middle" x="1666" y="-191" font-family="Helvetica,sans-Serif" font-size="10.00">/src/AM2320_Humidity.cpp</text>
</a>
</g>
</g>
<!-- Node33&#45;&gt;Node34 -->
<g id="edge37" class="edge">
<title>Node33&#45;&gt;Node34</title>
<path fill="none" stroke="midnightblue" d="M1626.62,-253.44C1635.98,-240.73 1647.39,-225.25 1655.51,-214.23"/>
<polygon fill="midnightblue" stroke="midnightblue" points="1623.65,-251.58 1620.53,-261.7 1629.28,-255.73 1623.65,-251.58"/>
</g>
<!-- Node33&#45;&gt;Node35 -->
<g id="edge38" class="edge">
<title>Node33&#45;&gt;Node35</title>
<path fill="none" stroke="midnightblue" d="M1667.21,-259.08C1712.97,-245.55 1776.39,-226.8 1819.4,-214.07"/>
<polygon fill="midnightblue" stroke="midnightblue" points="1666.03,-255.78 1657.44,-261.97 1668.02,-262.49 1666.03,-255.78"/>
</g>
<!-- Node36&#45;&gt;Node35 -->
<g id="edge41" class="edge">
<title>Node36&#45;&gt;Node35</title>
<path fill="none" stroke="midnightblue" d="M1980.19,-257.35C1953.79,-243.97 1918.77,-226.23 1894.71,-214.04"/>
<polygon fill="midnightblue" stroke="midnightblue" points="1978.64,-260.49 1989.14,-261.88 1981.8,-254.24 1978.64,-260.49"/>
</g>
<!-- Node37 -->
<g id="node37" class="node">
<title>Node37</title>
<g id="a_node37"><a xlink:href="../../d0/dc8/_a_m2320___temperature_8cpp.html" target="_top" xlink:title=" ">
<polygon fill="none" stroke="black" points="1964,-184 1964,-214 2128,-214 2128,-184 1964,-184"/>
<text text-anchor="start" x="1972" y="-202" font-family="Helvetica,sans-Serif" font-size="10.00">Components/Sensor/AM2320</text>
<text text-anchor="middle" x="2046" y="-191" font-family="Helvetica,sans-Serif" font-size="10.00">/src/AM2320_Temperature.cpp</text>
</a>
</g>
</g>
<!-- Node36&#45;&gt;Node37 -->
<g id="edge40" class="edge">
<title>Node36&#45;&gt;Node37</title>
<path fill="none" stroke="midnightblue" d="M2026.03,-252.33C2030.8,-239.85 2036.49,-224.94 2040.57,-214.23"/>
<polygon fill="midnightblue" stroke="midnightblue" points="2022.75,-251.11 2022.45,-261.7 2029.29,-253.61 2022.75,-251.11"/>
</g>
</g>
</svg>
