<?xml version="1.0" encoding="UTF-8" standalone="no"?>
<!DOCTYPE svg PUBLIC "-//W3C//DTD SVG 1.1//EN"
 "http://www.w3.org/Graphics/SVG/1.1/DTD/svg11.dtd">
<!-- Generated by graphviz version 2.43.0 (0)
 -->
<!-- Title: Components/Utility/utils/include/utils.h Pages: 1 -->
<!--zoomable 451 -->
<svg id="main" version="1.1" xmlns="http://www.w3.org/2000/svg" xmlns:xlink="http://www.w3.org/1999/xlink" xml:space="preserve" onload="init(evt)">
<style type="text/css"><![CDATA[
.edge:hover path { stroke: red; }
.edge:hover polygon { stroke: red; fill: red; }
]]></style>
<script type="text/javascript"><![CDATA[
var edges = document.getElementsByTagName('g');
if (edges && edges.length) {
  for (var i=0;i<edges.length;i++) {
    if (edges[i].id.substr(0,4)=='edge') {
      edges[i].setAttribute('class','edge');
    }
  }
}
]]></script>
        <defs>
                <circle id="rim" cx="0" cy="0" r="7"/>
                <circle id="rim2" cx="0" cy="0" r="3.5"/>
                <g id="zoomPlus">
                        <use xlink:href="#rim" fill="#404040">
                                <set attributeName="fill" to="#808080" begin="zoomplus.mouseover" end="zoomplus.mouseout"/>
                        </use>
                        <path d="M-4,0h8M0,-4v8" fill="none" stroke="white" stroke-width="1.5" pointer-events="none"/>
                </g>
                <g id="zoomMin">
                        <use xlink:href="#rim" fill="#404040">
                                <set attributeName="fill" to="#808080" begin="zoomminus.mouseover" end="zoomminus.mouseout"/>
                        </use>
                        <path d="M-4,0h8" fill="none" stroke="white" stroke-width="1.5" pointer-events="none"/>
                </g>
                <g id="dirArrow">
                        <path fill="none" stroke="white" stroke-width="1.5" d="M0,-3.0v7 M-2.5,-0.5L0,-3.0L2.5,-0.5"/>
                </g>
               <g id="resetDef">
                       <use xlink:href="#rim2" fill="#404040">
                               <set attributeName="fill" to="#808080" begin="reset.mouseover" end="reset.mouseout"/>
                       </use>
               </g>
        </defs>

<script type="text/javascript">
var viewWidth = 2427;
var viewHeight = 451;
var sectionId = 'dynsection-1';
</script>
<script xlink:href="../../svgpan.js"/>
<svg id="graph" class="graph">
<g id="viewport">
<title>Components/Utility/utils/include/utils.h</title>
<!-- Node1 -->
<g id="node1" class="node">
<title>Node1</title>
<g id="a_node1"><a xlink:title=" ">
<polygon fill="#bfbfbf" stroke="black" points="1731,-412.5 1731,-442.5 1843,-442.5 1843,-412.5 1731,-412.5"/>
<text text-anchor="start" x="1739" y="-430.5" font-family="Helvetica,sans-Serif" font-size="10.00">Components/Utility</text>
<text text-anchor="middle" x="1787" y="-419.5" font-family="Helvetica,sans-Serif" font-size="10.00">/utils/include/utils.h</text>
</a>
</g>
</g>
<!-- Node2 -->
<g id="node2" class="node">
<title>Node2</title>
<g id="a_node2"><a xlink:href="../../d1/da7/_m_q_t_t___message_8hpp.html" target="_top" xlink:title=" ">
<polygon fill="none" stroke="black" points="1131,-340 1131,-370 1319,-370 1319,-340 1131,-340"/>
<text text-anchor="start" x="1139" y="-358" font-family="Helvetica,sans-Serif" font-size="10.00">Components/Protocols</text>
<text text-anchor="middle" x="1225" y="-347" font-family="Helvetica,sans-Serif" font-size="10.00">/MQTT/include/MQTT_Message.hpp</text>
</a>
</g>
</g>
<!-- Node1&#45;&gt;Node2 -->
<g id="edge1" class="edge">
<title>Node1&#45;&gt;Node2</title>
<path fill="none" stroke="midnightblue" d="M1720.88,-418.21C1621.44,-405.73 1432.96,-382.09 1319.19,-367.82"/>
<polygon fill="midnightblue" stroke="midnightblue" points="1720.44,-421.68 1730.8,-419.45 1721.31,-414.73 1720.44,-421.68"/>
</g>
<!-- Node32 -->
<g id="node32" class="node">
<title>Node32</title>
<g id="a_node32"><a xlink:href="../../d2/df7/src_2time__test_8cpp.html" target="_top" xlink:title=" ">
<polygon fill="none" stroke="black" points="1543.5,-334.5 1543.5,-375.5 1662.5,-375.5 1662.5,-334.5 1543.5,-334.5"/>
<text text-anchor="start" x="1551.5" y="-363.5" font-family="Helvetica,sans-Serif" font-size="10.00">Components/Objects</text>
<text text-anchor="start" x="1551.5" y="-352.5" font-family="Helvetica,sans-Serif" font-size="10.00">/Timeservice/test/src</text>
<text text-anchor="middle" x="1603" y="-341.5" font-family="Helvetica,sans-Serif" font-size="10.00">/time_test.cpp</text>
</a>
</g>
</g>
<!-- Node1&#45;&gt;Node32 -->
<g id="edge35" class="edge">
<title>Node1&#45;&gt;Node32</title>
<path fill="none" stroke="midnightblue" d="M1740.8,-408.8C1714.38,-398.68 1681.2,-385.96 1654.01,-375.55"/>
<polygon fill="midnightblue" stroke="midnightblue" points="1739.62,-412.09 1750.21,-412.4 1742.12,-405.56 1739.62,-412.09"/>
</g>
<!-- Node33 -->
<g id="node33" class="node">
<title>Node33</title>
<g id="a_node33"><a xlink:href="../../d4/d6a/test_2time__test_8cpp.html" target="_top" xlink:title=" ">
<polygon fill="none" stroke="black" points="1680.5,-334.5 1680.5,-375.5 1803.5,-375.5 1803.5,-334.5 1680.5,-334.5"/>
<text text-anchor="start" x="1688.5" y="-363.5" font-family="Helvetica,sans-Serif" font-size="10.00">Components/Objects</text>
<text text-anchor="start" x="1688.5" y="-352.5" font-family="Helvetica,sans-Serif" font-size="10.00">/Timeservice/test/test</text>
<text text-anchor="middle" x="1742" y="-341.5" font-family="Helvetica,sans-Serif" font-size="10.00">/time_test.cpp</text>
</a>
</g>
</g>
<!-- Node1&#45;&gt;Node33 -->
<g id="edge36" class="edge">
<title>Node1&#45;&gt;Node33</title>
<path fill="none" stroke="midnightblue" d="M1772.44,-403.7C1766.66,-394.63 1760.07,-384.31 1754.5,-375.59"/>
<polygon fill="midnightblue" stroke="midnightblue" points="1769.56,-405.69 1777.89,-412.23 1775.46,-401.92 1769.56,-405.69"/>
</g>
<!-- Node34 -->
<g id="node34" class="node">
<title>Node34</title>
<g id="a_node34"><a xlink:href="../../db/d89/_a_m2320___base_8hpp.html" target="_top" xlink:title=" ">
<polygon fill="none" stroke="black" points="2019.5,-262 2019.5,-292 2176.5,-292 2176.5,-262 2019.5,-262"/>
<text text-anchor="start" x="2027.5" y="-280" font-family="Helvetica,sans-Serif" font-size="10.00">Components/Sensor/AM2320</text>
<text text-anchor="middle" x="2098" y="-269" font-family="Helvetica,sans-Serif" font-size="10.00">/include/AM2320_Base.hpp</text>
</a>
</g>
</g>
<!-- Node1&#45;&gt;Node34 -->
<g id="edge37" class="edge">
<title>Node1&#45;&gt;Node34</title>
<path fill="none" stroke="midnightblue" d="M1800.49,-403.53C1815.21,-379.2 1838.49,-343.07 1852,-334 1901.55,-300.75 1968.04,-287.03 2019.4,-281.47"/>
<polygon fill="midnightblue" stroke="midnightblue" points="1797.43,-401.81 1795.3,-412.19 1803.44,-405.41 1797.43,-401.81"/>
</g>
<!-- Node41 -->
<g id="node41" class="node">
<title>Node41</title>
<g id="a_node41"><a xlink:href="../../de/d06/utils_8cpp.html" target="_top" xlink:title=" ">
<polygon fill="none" stroke="black" points="1860.5,-340 1860.5,-370 1971.5,-370 1971.5,-340 1860.5,-340"/>
<text text-anchor="start" x="1868.5" y="-358" font-family="Helvetica,sans-Serif" font-size="10.00">Components/Utility</text>
<text text-anchor="middle" x="1916" y="-347" font-family="Helvetica,sans-Serif" font-size="10.00">/utils/src/utils.cpp</text>
</a>
</g>
</g>
<!-- Node1&#45;&gt;Node41 -->
<g id="edge48" class="edge">
<title>Node1&#45;&gt;Node41</title>
<path fill="none" stroke="midnightblue" d="M1821.66,-407.56C1843.26,-395.76 1870.57,-380.83 1890.25,-370.07"/>
<polygon fill="midnightblue" stroke="midnightblue" points="1819.89,-404.54 1812.8,-412.4 1823.25,-410.68 1819.89,-404.54"/>
</g>
<!-- Node42 -->
<g id="node42" class="node">
<title>Node42</title>
<g id="a_node42"><a xlink:href="../../d5/d38/utils__test_8cpp.html" target="_top" xlink:title=" ">
<polygon fill="none" stroke="black" points="1989.5,-334.5 1989.5,-375.5 2100.5,-375.5 2100.5,-334.5 1989.5,-334.5"/>
<text text-anchor="start" x="1997.5" y="-363.5" font-family="Helvetica,sans-Serif" font-size="10.00">Components/Utility</text>
<text text-anchor="start" x="1997.5" y="-352.5" font-family="Helvetica,sans-Serif" font-size="10.00">/utils/test/test/utils</text>
<text text-anchor="middle" x="2045" y="-341.5" font-family="Helvetica,sans-Serif" font-size="10.00">_test.cpp</text>
</a>
</g>
</g>
<!-- Node1&#45;&gt;Node42 -->
<g id="edge49" class="edge">
<title>Node1&#45;&gt;Node42</title>
<path fill="none" stroke="midnightblue" d="M1853.05,-410.15C1890.67,-400.62 1938.61,-388.13 1981,-376 1983.69,-375.23 1986.43,-374.43 1989.2,-373.61"/>
<polygon fill="midnightblue" stroke="midnightblue" points="1852.06,-406.79 1843.23,-412.63 1853.78,-413.57 1852.06,-406.79"/>
</g>
<!-- Node3 -->
<g id="node3" class="node">
<title>Node3</title>
<g id="a_node3"><a xlink:href="../../d9/d1c/_sensor_controller_base_8hpp.html" target="_top" xlink:title=" ">
<polygon fill="none" stroke="black" points="775,-178.5 775,-219.5 959,-219.5 959,-178.5 775,-178.5"/>
<text text-anchor="start" x="783" y="-207.5" font-family="Helvetica,sans-Serif" font-size="10.00">Components/Interfaces</text>
<text text-anchor="start" x="783" y="-196.5" font-family="Helvetica,sans-Serif" font-size="10.00">/SensorControllerBase</text>
<text text-anchor="middle" x="867" y="-185.5" font-family="Helvetica,sans-Serif" font-size="10.00">/include/SensorControllerBase.hpp</text>
</a>
</g>
</g>
<!-- Node2&#45;&gt;Node3 -->
<g id="edge2" class="edge">
<title>Node2&#45;&gt;Node3</title>
<path fill="none" stroke="midnightblue" d="M1212.61,-331.15C1198.15,-305.31 1174.38,-265.57 1160,-256 1127.61,-234.45 1032.31,-218.91 959.1,-209.74"/>
<polygon fill="midnightblue" stroke="midnightblue" points="1209.58,-332.9 1217.49,-339.96 1215.71,-329.51 1209.58,-332.9"/>
</g>
<!-- Node14 -->
<g id="node14" class="node">
<title>Node14</title>
<g id="a_node14"><a xlink:href="../../d2/dc5/_service_base_8hpp.html" target="_top" xlink:title=" ">
<polygon fill="none" stroke="black" points="1207,-256.5 1207,-297.5 1337,-297.5 1337,-256.5 1207,-256.5"/>
<text text-anchor="start" x="1215" y="-285.5" font-family="Helvetica,sans-Serif" font-size="10.00">Components/Interfaces</text>
<text text-anchor="start" x="1215" y="-274.5" font-family="Helvetica,sans-Serif" font-size="10.00">/ServiceBase/include</text>
<text text-anchor="middle" x="1272" y="-263.5" font-family="Helvetica,sans-Serif" font-size="10.00">/ServiceBase.hpp</text>
</a>
</g>
</g>
<!-- Node2&#45;&gt;Node14 -->
<g id="edge15" class="edge">
<title>Node2&#45;&gt;Node14</title>
<path fill="none" stroke="midnightblue" d="M1239.25,-330.95C1245.82,-320.33 1253.54,-307.85 1259.83,-297.68"/>
<polygon fill="midnightblue" stroke="midnightblue" points="1236.12,-329.36 1233.84,-339.7 1242.08,-333.04 1236.12,-329.36"/>
</g>
<!-- Node28 -->
<g id="node28" class="node">
<title>Node28</title>
<g id="a_node28"><a xlink:href="../../d2/d93/_m_q_t_t___message_8cpp.html" target="_top" xlink:title=" ">
<polygon fill="none" stroke="black" points="1355,-262 1355,-292 1521,-292 1521,-262 1355,-262"/>
<text text-anchor="start" x="1363" y="-280" font-family="Helvetica,sans-Serif" font-size="10.00">Components/Protocols</text>
<text text-anchor="middle" x="1438" y="-269" font-family="Helvetica,sans-Serif" font-size="10.00">/MQTT/src/MQTT_Message.cpp</text>
</a>
</g>
</g>
<!-- Node2&#45;&gt;Node28 -->
<g id="edge31" class="edge">
<title>Node2&#45;&gt;Node28</title>
<path fill="none" stroke="midnightblue" d="M1274.35,-336.39C1312.15,-322.9 1363.59,-304.55 1398.65,-292.04"/>
<polygon fill="midnightblue" stroke="midnightblue" points="1272.81,-333.23 1264.56,-339.88 1275.16,-339.82 1272.81,-333.23"/>
</g>
<!-- Node29 -->
<g id="node29" class="node">
<title>Node29</title>
<g id="a_node29"><a xlink:href="../../d2/d40/msg__test_8cpp.html" target="_top" xlink:title=" ">
<polygon fill="none" stroke="black" points="825,-262 825,-292 985,-292 985,-262 825,-262"/>
<text text-anchor="start" x="833" y="-280" font-family="Helvetica,sans-Serif" font-size="10.00">Components/Protocols</text>
<text text-anchor="middle" x="905" y="-269" font-family="Helvetica,sans-Serif" font-size="10.00">/MQTT/test/test/msg_test.cpp</text>
</a>
</g>
</g>
<!-- Node2&#45;&gt;Node29 -->
<g id="edge32" class="edge">
<title>Node2&#45;&gt;Node29</title>
<path fill="none" stroke="midnightblue" d="M1155.89,-337.59C1098.66,-323.99 1018.23,-304.89 963.99,-292.01"/>
<polygon fill="midnightblue" stroke="midnightblue" points="1155.4,-341.07 1165.93,-339.97 1157.01,-334.26 1155.4,-341.07"/>
</g>
<!-- Node30 -->
<g id="node30" class="node">
<title>Node30</title>
<g id="a_node30"><a xlink:href="../../dd/d82/_active_current_sensor_8hpp.html" target="_top" xlink:title=" ">
<polygon fill="none" stroke="black" points="1003,-256.5 1003,-297.5 1151,-297.5 1151,-256.5 1003,-256.5"/>
<text text-anchor="start" x="1011" y="-285.5" font-family="Helvetica,sans-Serif" font-size="10.00">Components/Sensor/Active</text>
<text text-anchor="start" x="1011" y="-274.5" font-family="Helvetica,sans-Serif" font-size="10.00">CurrentSensor/include</text>
<text text-anchor="middle" x="1077" y="-263.5" font-family="Helvetica,sans-Serif" font-size="10.00">/ActiveCurrentSensor.hpp</text>
</a>
</g>
</g>
<!-- Node2&#45;&gt;Node30 -->
<g id="edge33" class="edge">
<title>Node2&#45;&gt;Node30</title>
<path fill="none" stroke="midnightblue" d="M1188.38,-335.2C1166.13,-323.77 1137.76,-309.2 1115.22,-297.63"/>
<polygon fill="midnightblue" stroke="midnightblue" points="1187.01,-338.43 1197.51,-339.88 1190.21,-332.2 1187.01,-338.43"/>
</g>
<!-- Node4 -->
<g id="node4" class="node">
<title>Node4</title>
<g id="a_node4"><a xlink:href="../../db/d12/_distance_sensor_controller_8hpp.html" target="_top" xlink:title=" ">
<polygon fill="none" stroke="black" points="566,-95 566,-136 768,-136 768,-95 566,-95"/>
<text text-anchor="start" x="574" y="-124" font-family="Helvetica,sans-Serif" font-size="10.00">Components/Controller</text>
<text text-anchor="start" x="574" y="-113" font-family="Helvetica,sans-Serif" font-size="10.00">/DistanceSensorController</text>
<text text-anchor="middle" x="667" y="-102" font-family="Helvetica,sans-Serif" font-size="10.00">/include/DistanceSensorController.hpp</text>
</a>
</g>
</g>
<!-- Node3&#45;&gt;Node4 -->
<g id="edge3" class="edge">
<title>Node3&#45;&gt;Node4</title>
<path fill="none" stroke="midnightblue" d="M809.6,-174.61C779.6,-162.39 743.32,-147.6 714.86,-136"/>
<polygon fill="midnightblue" stroke="midnightblue" points="808.51,-177.95 819.1,-178.48 811.16,-171.46 808.51,-177.95"/>
</g>
<!-- Node8 -->
<g id="node8" class="node">
<title>Node8</title>
<g id="a_node8"><a xlink:href="../../d2/d8d/_sensor_controller_base_8cpp.html" target="_top" xlink:title=" ">
<polygon fill="none" stroke="black" points="786,-95 786,-136 948,-136 948,-95 786,-95"/>
<text text-anchor="start" x="794" y="-124" font-family="Helvetica,sans-Serif" font-size="10.00">Components/Interfaces</text>
<text text-anchor="start" x="794" y="-113" font-family="Helvetica,sans-Serif" font-size="10.00">/SensorControllerBase</text>
<text text-anchor="middle" x="867" y="-102" font-family="Helvetica,sans-Serif" font-size="10.00">/src/SensorControllerBase.cpp</text>
</a>
</g>
</g>
<!-- Node3&#45;&gt;Node8 -->
<g id="edge7" class="edge">
<title>Node3&#45;&gt;Node8</title>
<path fill="none" stroke="midnightblue" d="M867,-168.06C867,-157.38 867,-145.63 867,-136.05"/>
<polygon fill="midnightblue" stroke="midnightblue" points="863.5,-168.27 867,-178.27 870.5,-168.27 863.5,-168.27"/>
</g>
<!-- Node9 -->
<g id="node9" class="node">
<title>Node9</title>
<g id="a_node9"><a xlink:href="../../db/dc2/_sensor_controller_base___m_o_c_k_8hpp.html" target="_top" xlink:title=" ">
<polygon fill="none" stroke="black" points="198,-89.5 198,-141.5 374,-141.5 374,-89.5 198,-89.5"/>
<text text-anchor="start" x="206" y="-129.5" font-family="Helvetica,sans-Serif" font-size="10.00">Components/Interfaces</text>
<text text-anchor="start" x="206" y="-118.5" font-family="Helvetica,sans-Serif" font-size="10.00">/SensorControllerBase</text>
<text text-anchor="start" x="206" y="-107.5" font-family="Helvetica,sans-Serif" font-size="10.00">/test/mock/SensorControllerBase</text>
<text text-anchor="middle" x="286" y="-96.5" font-family="Helvetica,sans-Serif" font-size="10.00">_MOCK.hpp</text>
</a>
</g>
</g>
<!-- Node3&#45;&gt;Node9 -->
<g id="edge8" class="edge">
<title>Node3&#45;&gt;Node9</title>
<path fill="none" stroke="midnightblue" d="M764.71,-178.02C627.57,-156.91 590.99,-159.65 458,-142 430.77,-138.39 401.16,-134.12 374.31,-130.12"/>
<polygon fill="midnightblue" stroke="midnightblue" points="764.34,-181.51 774.76,-179.58 765.42,-174.59 764.34,-181.51"/>
</g>
<!-- Node11 -->
<g id="node11" class="node">
<title>Node11</title>
<g id="a_node11"><a xlink:href="../../d8/d19/_sensor_controller_test_8cpp.html" target="_top" xlink:title=" ">
<polygon fill="none" stroke="black" points="194,-6 194,-47 378,-47 378,-6 194,-6"/>
<text text-anchor="start" x="202" y="-35" font-family="Helvetica,sans-Serif" font-size="10.00">Components/Interfaces</text>
<text text-anchor="start" x="202" y="-24" font-family="Helvetica,sans-Serif" font-size="10.00">/SensorControllerBase</text>
<text text-anchor="middle" x="286" y="-13" font-family="Helvetica,sans-Serif" font-size="10.00">/test/test/SensorControllerTest.cpp</text>
</a>
</g>
</g>
<!-- Node3&#45;&gt;Node11 -->
<g id="edge11" class="edge">
<title>Node3&#45;&gt;Node11</title>
<path fill="none" stroke="midnightblue" d="M765.31,-178.06C765.21,-178.04 765.1,-178.02 765,-178 672.74,-160.97 647.02,-168.43 557,-142 471.24,-116.82 376.09,-72.56 324.47,-47.07"/>
<polygon fill="midnightblue" stroke="midnightblue" points="764.53,-181.47 775,-179.86 765.81,-174.59 764.53,-181.47"/>
</g>
<!-- Node12 -->
<g id="node12" class="node">
<title>Node12</title>
<g id="a_node12"><a xlink:href="../../d0/dc1/_data_broker_8hpp.html" target="_top" xlink:title=" ">
<polygon fill="none" stroke="black" points="966,-95 966,-136 1084,-136 1084,-95 966,-95"/>
<text text-anchor="start" x="974" y="-124" font-family="Helvetica,sans-Serif" font-size="10.00">Components/Objects</text>
<text text-anchor="start" x="974" y="-113" font-family="Helvetica,sans-Serif" font-size="10.00">/DataBroker/include</text>
<text text-anchor="middle" x="1025" y="-102" font-family="Helvetica,sans-Serif" font-size="10.00">/DataBroker.hpp</text>
</a>
</g>
</g>
<!-- Node3&#45;&gt;Node12 -->
<g id="edge12" class="edge">
<title>Node3&#45;&gt;Node12</title>
<path fill="none" stroke="midnightblue" d="M913.9,-173.81C937.28,-161.75 965.19,-147.35 987.19,-136"/>
<polygon fill="midnightblue" stroke="midnightblue" points="912.13,-170.78 904.84,-178.48 915.34,-177 912.13,-170.78"/>
</g>
<!-- Node5 -->
<g id="node5" class="node">
<title>Node5</title>
<g id="a_node5"><a xlink:href="../../dd/dde/_distance_sensor_controller_8cpp.html" target="_top" xlink:title=" ">
<polygon fill="none" stroke="black" points="602,-6 602,-47 782,-47 782,-6 602,-6"/>
<text text-anchor="start" x="610" y="-35" font-family="Helvetica,sans-Serif" font-size="10.00">Components/Controller</text>
<text text-anchor="start" x="610" y="-24" font-family="Helvetica,sans-Serif" font-size="10.00">/DistanceSensorController</text>
<text text-anchor="middle" x="692" y="-13" font-family="Helvetica,sans-Serif" font-size="10.00">/src/DistanceSensorController.cpp</text>
</a>
</g>
</g>
<!-- Node4&#45;&gt;Node5 -->
<g id="edge4" class="edge">
<title>Node4&#45;&gt;Node5</title>
<path fill="none" stroke="midnightblue" d="M675.53,-84.81C679.1,-72.38 683.16,-58.27 686.35,-47.16"/>
<polygon fill="midnightblue" stroke="midnightblue" points="672.07,-84.18 672.67,-94.76 678.8,-86.11 672.07,-84.18"/>
</g>
<!-- Node6 -->
<g id="node6" class="node">
<title>Node6</title>
<g id="a_node6"><a xlink:href="../../d7/d91/_distance_sensor_controller__test_8cpp.html" target="_top" xlink:title=" ">
<polygon fill="none" stroke="black" points="396.5,-0.5 396.5,-52.5 583.5,-52.5 583.5,-0.5 396.5,-0.5"/>
<text text-anchor="start" x="404.5" y="-40.5" font-family="Helvetica,sans-Serif" font-size="10.00">Components/Controller</text>
<text text-anchor="start" x="404.5" y="-29.5" font-family="Helvetica,sans-Serif" font-size="10.00">/DistanceSensorController</text>
<text text-anchor="start" x="404.5" y="-18.5" font-family="Helvetica,sans-Serif" font-size="10.00">/test/test/DistanceSensorController</text>
<text text-anchor="middle" x="490" y="-7.5" font-family="Helvetica,sans-Serif" font-size="10.00">_test.cpp</text>
</a>
</g>
</g>
<!-- Node4&#45;&gt;Node6 -->
<g id="edge5" class="edge">
<title>Node4&#45;&gt;Node6</title>
<path fill="none" stroke="midnightblue" d="M618.02,-90.42C594.07,-78.65 565.25,-64.49 541.03,-52.58"/>
<polygon fill="midnightblue" stroke="midnightblue" points="616.76,-93.71 627.28,-94.98 619.85,-87.42 616.76,-93.71"/>
</g>
<!-- Node7 -->
<g id="node7" class="node">
<title>Node7</title>
<g id="a_node7"><a xlink:href="../../da/d75/_data_broker__test_8cpp.html" target="_top" xlink:title=" ">
<polygon fill="none" stroke="black" points="800.5,-6 800.5,-47 919.5,-47 919.5,-6 800.5,-6"/>
<text text-anchor="start" x="808.5" y="-35" font-family="Helvetica,sans-Serif" font-size="10.00">Components/Objects</text>
<text text-anchor="start" x="808.5" y="-24" font-family="Helvetica,sans-Serif" font-size="10.00">/DataBroker/test/test</text>
<text text-anchor="middle" x="860" y="-13" font-family="Helvetica,sans-Serif" font-size="10.00">/DataBroker_test.cpp</text>
</a>
</g>
</g>
<!-- Node4&#45;&gt;Node7 -->
<g id="edge6" class="edge">
<title>Node4&#45;&gt;Node7</title>
<path fill="none" stroke="midnightblue" d="M719.5,-90.84C749.91,-77.12 787.75,-60.07 816.5,-47.11"/>
<polygon fill="midnightblue" stroke="midnightblue" points="717.99,-87.68 710.31,-94.98 720.87,-94.06 717.99,-87.68"/>
</g>
<!-- Node10 -->
<g id="node10" class="node">
<title>Node10</title>
<g id="a_node10"><a xlink:href="../../dc/d0f/_sensor_controller_base___m_o_c_k_8cpp.html" target="_top" xlink:title=" ">
<polygon fill="none" stroke="black" points="0,-0.5 0,-52.5 176,-52.5 176,-0.5 0,-0.5"/>
<text text-anchor="start" x="8" y="-40.5" font-family="Helvetica,sans-Serif" font-size="10.00">Components/Interfaces</text>
<text text-anchor="start" x="8" y="-29.5" font-family="Helvetica,sans-Serif" font-size="10.00">/SensorControllerBase</text>
<text text-anchor="start" x="8" y="-18.5" font-family="Helvetica,sans-Serif" font-size="10.00">/test/mock/SensorControllerBase</text>
<text text-anchor="middle" x="88" y="-7.5" font-family="Helvetica,sans-Serif" font-size="10.00">_MOCK.cpp</text>
</a>
</g>
</g>
<!-- Node9&#45;&gt;Node10 -->
<g id="edge9" class="edge">
<title>Node9&#45;&gt;Node10</title>
<path fill="none" stroke="midnightblue" d="M219.53,-85.29C195.34,-74.67 168.24,-62.76 144.94,-52.52"/>
<polygon fill="midnightblue" stroke="midnightblue" points="218.43,-88.63 229,-89.45 221.25,-82.23 218.43,-88.63"/>
</g>
<!-- Node9&#45;&gt;Node11 -->
<g id="edge10" class="edge">
<title>Node9&#45;&gt;Node11</title>
<path fill="none" stroke="midnightblue" d="M286,-79.16C286,-68.21 286,-56.55 286,-47.08"/>
<polygon fill="midnightblue" stroke="midnightblue" points="282.5,-79.34 286,-89.34 289.5,-79.34 282.5,-79.34"/>
</g>
<!-- Node12&#45;&gt;Node7 -->
<g id="edge14" class="edge">
<title>Node12&#45;&gt;Node7</title>
<path fill="none" stroke="midnightblue" d="M979.11,-90.3C953.28,-76.68 921.45,-59.9 897.19,-47.11"/>
<polygon fill="midnightblue" stroke="midnightblue" points="977.49,-93.41 987.97,-94.98 980.76,-87.22 977.49,-93.41"/>
</g>
<!-- Node13 -->
<g id="node13" class="node">
<title>Node13</title>
<g id="a_node13"><a xlink:href="../../d4/ddc/_data_broker_8cpp.html" target="_top" xlink:title=" ">
<polygon fill="none" stroke="black" points="937.5,-11.5 937.5,-41.5 1106.5,-41.5 1106.5,-11.5 937.5,-11.5"/>
<text text-anchor="start" x="945.5" y="-29.5" font-family="Helvetica,sans-Serif" font-size="10.00">Components/Objects</text>
<text text-anchor="middle" x="1022" y="-18.5" font-family="Helvetica,sans-Serif" font-size="10.00">/DataBroker/src/DataBroker.cpp</text>
</a>
</g>
</g>
<!-- Node12&#45;&gt;Node13 -->
<g id="edge13" class="edge">
<title>Node12&#45;&gt;Node13</title>
<path fill="none" stroke="midnightblue" d="M1023.97,-84.69C1023.47,-70.15 1022.89,-53.36 1022.49,-41.74"/>
<polygon fill="midnightblue" stroke="midnightblue" points="1020.48,-84.88 1024.32,-94.76 1027.47,-84.64 1020.48,-84.88"/>
</g>
<!-- Node15 -->
<g id="node15" class="node">
<title>Node15</title>
<g id="a_node15"><a xlink:href="../../d2/dd8/_service_queue_base_8hpp.html" target="_top" xlink:title=" ">
<polygon fill="none" stroke="black" points="1206,-178.5 1206,-219.5 1338,-219.5 1338,-178.5 1206,-178.5"/>
<text text-anchor="start" x="1214" y="-207.5" font-family="Helvetica,sans-Serif" font-size="10.00">Components/Interfaces</text>
<text text-anchor="start" x="1214" y="-196.5" font-family="Helvetica,sans-Serif" font-size="10.00">/ServiceBase/include</text>
<text text-anchor="middle" x="1272" y="-185.5" font-family="Helvetica,sans-Serif" font-size="10.00">/ServiceQueueBase.hpp</text>
</a>
</g>
</g>
<!-- Node14&#45;&gt;Node15 -->
<g id="edge16" class="edge">
<title>Node14&#45;&gt;Node15</title>
<path fill="none" stroke="midnightblue" d="M1272,-246.3C1272,-237.3 1272,-227.65 1272,-219.51"/>
<polygon fill="midnightblue" stroke="midnightblue" points="1268.5,-246.43 1272,-256.43 1275.5,-246.43 1268.5,-246.43"/>
</g>
<!-- Node22 -->
<g id="node22" class="node">
<title>Node22</title>
<g id="a_node22"><a xlink:href="../../d8/deb/_service_time_base_8hpp.html" target="_top" xlink:title=" ">
<polygon fill="none" stroke="black" points="1529,-178.5 1529,-219.5 1659,-219.5 1659,-178.5 1529,-178.5"/>
<text text-anchor="start" x="1537" y="-207.5" font-family="Helvetica,sans-Serif" font-size="10.00">Components/Interfaces</text>
<text text-anchor="start" x="1537" y="-196.5" font-family="Helvetica,sans-Serif" font-size="10.00">/ServiceBase/include</text>
<text text-anchor="middle" x="1594" y="-185.5" font-family="Helvetica,sans-Serif" font-size="10.00">/ServiceTimeBase.hpp</text>
</a>
</g>
</g>
<!-- Node14&#45;&gt;Node22 -->
<g id="edge24" class="edge">
<title>Node14&#45;&gt;Node22</title>
<path fill="none" stroke="midnightblue" d="M1347.24,-255.73C1414.4,-239.2 1481.05,-224.33 1528.82,-213.94"/>
<polygon fill="midnightblue" stroke="midnightblue" points="1346.2,-252.39 1337.33,-258.18 1347.88,-259.18 1346.2,-252.39"/>
</g>
<!-- Node15&#45;&gt;Node12 -->
<g id="edge18" class="edge">
<title>Node15&#45;&gt;Node12</title>
<path fill="none" stroke="midnightblue" d="M1200.31,-175.37C1168.86,-165.32 1131.54,-153.25 1098,-142 1092.4,-140.12 1086.57,-138.13 1080.75,-136.13"/>
<polygon fill="midnightblue" stroke="midnightblue" points="1199.28,-178.71 1209.87,-178.41 1201.41,-172.04 1199.28,-178.71"/>
</g>
<!-- Node16 -->
<g id="node16" class="node">
<title>Node16</title>
<g id="a_node16"><a xlink:href="../../dc/d1d/_service__test_8cpp.html" target="_top" xlink:title=" ">
<polygon fill="none" stroke="black" points="1456,-95 1456,-136 1586,-136 1586,-95 1456,-95"/>
<text text-anchor="start" x="1464" y="-124" font-family="Helvetica,sans-Serif" font-size="10.00">Components/Interfaces</text>
<text text-anchor="start" x="1464" y="-113" font-family="Helvetica,sans-Serif" font-size="10.00">/ServiceBase/test/test</text>
<text text-anchor="middle" x="1521" y="-102" font-family="Helvetica,sans-Serif" font-size="10.00">/Service_test.cpp</text>
</a>
</g>
</g>
<!-- Node15&#45;&gt;Node16 -->
<g id="edge17" class="edge">
<title>Node15&#45;&gt;Node16</title>
<path fill="none" stroke="midnightblue" d="M1344.09,-175.33C1375.72,-165.28 1413.26,-153.21 1447,-142 1452.67,-140.11 1458.58,-138.12 1464.48,-136.12"/>
<polygon fill="midnightblue" stroke="midnightblue" points="1342.95,-172.02 1334.47,-178.38 1345.06,-178.69 1342.95,-172.02"/>
</g>
<!-- Node17 -->
<g id="node17" class="node">
<title>Node17</title>
<g id="a_node17"><a xlink:href="../../d2/d1e/_online_detector__service_8hpp.html" target="_top" xlink:title=" ">
<polygon fill="none" stroke="black" points="1106.5,-95 1106.5,-136 1261.5,-136 1261.5,-95 1106.5,-95"/>
<text text-anchor="start" x="1114.5" y="-124" font-family="Helvetica,sans-Serif" font-size="10.00">Components/Service</text>
<text text-anchor="start" x="1114.5" y="-113" font-family="Helvetica,sans-Serif" font-size="10.00">/OnlineDetector/include</text>
<text text-anchor="middle" x="1184" y="-102" font-family="Helvetica,sans-Serif" font-size="10.00">/OnlineDetector_service.hpp</text>
</a>
</g>
</g>
<!-- Node15&#45;&gt;Node17 -->
<g id="edge19" class="edge">
<title>Node15&#45;&gt;Node17</title>
<path fill="none" stroke="midnightblue" d="M1243.24,-171.36C1230.81,-159.85 1216.53,-146.63 1205.11,-136.05"/>
<polygon fill="midnightblue" stroke="midnightblue" points="1240.98,-174.04 1250.7,-178.27 1245.74,-168.91 1240.98,-174.04"/>
</g>
<!-- Node20 -->
<g id="node20" class="node">
<title>Node20</title>
<g id="a_node20"><a xlink:href="../../dd/d22/_water_estimator___service_8hpp.html" target="_top" xlink:title=" ">
<polygon fill="none" stroke="black" points="1280,-95 1280,-136 1438,-136 1438,-95 1280,-95"/>
<text text-anchor="start" x="1288" y="-124" font-family="Helvetica,sans-Serif" font-size="10.00">Components/Service</text>
<text text-anchor="start" x="1288" y="-113" font-family="Helvetica,sans-Serif" font-size="10.00">/WaterEstimator/include</text>
<text text-anchor="middle" x="1359" y="-102" font-family="Helvetica,sans-Serif" font-size="10.00">/WaterEstimator_Service.hpp</text>
</a>
</g>
</g>
<!-- Node15&#45;&gt;Node20 -->
<g id="edge22" class="edge">
<title>Node15&#45;&gt;Node20</title>
<path fill="none" stroke="midnightblue" d="M1300.43,-171.36C1312.72,-159.85 1326.84,-146.63 1338.13,-136.05"/>
<polygon fill="midnightblue" stroke="midnightblue" points="1297.97,-168.88 1293.06,-178.27 1302.75,-173.99 1297.97,-168.88"/>
</g>
<!-- Node18 -->
<g id="node18" class="node">
<title>Node18</title>
<g id="a_node18"><a xlink:href="../../d7/d24/_online_detector__service_8cpp.html" target="_top" xlink:title=" ">
<polygon fill="none" stroke="black" points="1262,-6 1262,-47 1416,-47 1416,-6 1262,-6"/>
<text text-anchor="start" x="1270" y="-35" font-family="Helvetica,sans-Serif" font-size="10.00">Components/Service</text>
<text text-anchor="start" x="1270" y="-24" font-family="Helvetica,sans-Serif" font-size="10.00">/OnlineDetector/src</text>
<text text-anchor="middle" x="1339" y="-13" font-family="Helvetica,sans-Serif" font-size="10.00">/OnlineDetector_service.cpp</text>
</a>
</g>
</g>
<!-- Node17&#45;&gt;Node18 -->
<g id="edge20" class="edge">
<title>Node17&#45;&gt;Node18</title>
<path fill="none" stroke="midnightblue" d="M1227.75,-89.94C1251.9,-76.39 1281.48,-59.79 1304.06,-47.11"/>
<polygon fill="midnightblue" stroke="midnightblue" points="1225.79,-87.03 1218.79,-94.98 1229.22,-93.13 1225.79,-87.03"/>
</g>
<!-- Node19 -->
<g id="node19" class="node">
<title>Node19</title>
<g id="a_node19"><a xlink:href="../../db/df8/_service_2_online_detector_2test_2test_2simple__test_8cpp.html" target="_top" xlink:title=" ">
<polygon fill="none" stroke="black" points="1124.5,-6 1124.5,-47 1243.5,-47 1243.5,-6 1124.5,-6"/>
<text text-anchor="start" x="1132.5" y="-35" font-family="Helvetica,sans-Serif" font-size="10.00">Components/Service</text>
<text text-anchor="start" x="1132.5" y="-24" font-family="Helvetica,sans-Serif" font-size="10.00">/OnlineDetector/test</text>
<text text-anchor="middle" x="1184" y="-13" font-family="Helvetica,sans-Serif" font-size="10.00">/test/simple_test.cpp</text>
</a>
</g>
</g>
<!-- Node17&#45;&gt;Node19 -->
<g id="edge21" class="edge">
<title>Node17&#45;&gt;Node19</title>
<path fill="none" stroke="midnightblue" d="M1184,-84.44C1184,-72.1 1184,-58.16 1184,-47.16"/>
<polygon fill="midnightblue" stroke="midnightblue" points="1180.5,-84.76 1184,-94.76 1187.5,-84.76 1180.5,-84.76"/>
</g>
<!-- Node21 -->
<g id="node21" class="node">
<title>Node21</title>
<g id="a_node21"><a xlink:href="../../dd/dd3/_water_estimator___service_8cpp.html" target="_top" xlink:title=" ">
<polygon fill="none" stroke="black" points="1434.5,-6 1434.5,-47 1591.5,-47 1591.5,-6 1434.5,-6"/>
<text text-anchor="start" x="1442.5" y="-35" font-family="Helvetica,sans-Serif" font-size="10.00">Components/Service</text>
<text text-anchor="start" x="1442.5" y="-24" font-family="Helvetica,sans-Serif" font-size="10.00">/WaterEstimator/src</text>
<text text-anchor="middle" x="1513" y="-13" font-family="Helvetica,sans-Serif" font-size="10.00">/WaterEstimator_Service.cpp</text>
</a>
</g>
</g>
<!-- Node20&#45;&gt;Node21 -->
<g id="edge23" class="edge">
<title>Node20&#45;&gt;Node21</title>
<path fill="none" stroke="midnightblue" d="M1402.47,-89.94C1426.46,-76.39 1455.85,-59.79 1478.29,-47.11"/>
<polygon fill="midnightblue" stroke="midnightblue" points="1400.55,-87.01 1393.56,-94.98 1403.99,-93.1 1400.55,-87.01"/>
</g>
<!-- Node22&#45;&gt;Node16 -->
<g id="edge25" class="edge">
<title>Node22&#45;&gt;Node16</title>
<path fill="none" stroke="midnightblue" d="M1569.56,-170.71C1559.39,-159.36 1547.81,-146.43 1538.51,-136.05"/>
<polygon fill="midnightblue" stroke="midnightblue" points="1567.05,-173.16 1576.33,-178.27 1572.26,-168.49 1567.05,-173.16"/>
</g>
<!-- Node23 -->
<g id="node23" class="node">
<title>Node23</title>
<g id="a_node23"><a xlink:href="../../d6/d72/_env_sensing__service_8hpp.html" target="_top" xlink:title=" ">
<polygon fill="none" stroke="black" points="1924.5,-95 1924.5,-136 2061.5,-136 2061.5,-95 1924.5,-95"/>
<text text-anchor="start" x="1932.5" y="-124" font-family="Helvetica,sans-Serif" font-size="10.00">Components/Service</text>
<text text-anchor="start" x="1932.5" y="-113" font-family="Helvetica,sans-Serif" font-size="10.00">/EnvSensing/include</text>
<text text-anchor="middle" x="1993" y="-102" font-family="Helvetica,sans-Serif" font-size="10.00">/EnvSensing_service.hpp</text>
</a>
</g>
</g>
<!-- Node22&#45;&gt;Node23 -->
<g id="edge26" class="edge">
<title>Node22&#45;&gt;Node23</title>
<path fill="none" stroke="midnightblue" d="M1669.3,-188.11C1734.98,-178.73 1832.55,-162.95 1916,-142 1922.97,-140.25 1930.21,-138.19 1937.35,-136"/>
<polygon fill="midnightblue" stroke="midnightblue" points="1668.45,-184.7 1659.04,-189.57 1669.43,-191.63 1668.45,-184.7"/>
</g>
<!-- Node25 -->
<g id="node25" class="node">
<title>Node25</title>
<g id="a_node25"><a xlink:href="../../df/d40/is_alive__service_8hpp.html" target="_top" xlink:title=" ">
<polygon fill="none" stroke="black" points="1604.5,-95 1604.5,-136 1731.5,-136 1731.5,-95 1604.5,-95"/>
<text text-anchor="start" x="1612.5" y="-124" font-family="Helvetica,sans-Serif" font-size="10.00">Components/Service</text>
<text text-anchor="start" x="1612.5" y="-113" font-family="Helvetica,sans-Serif" font-size="10.00">/isAlive/include/isAlive</text>
<text text-anchor="middle" x="1668" y="-102" font-family="Helvetica,sans-Serif" font-size="10.00">_service.hpp</text>
</a>
</g>
</g>
<!-- Node22&#45;&gt;Node25 -->
<g id="edge28" class="edge">
<title>Node22&#45;&gt;Node25</title>
<path fill="none" stroke="midnightblue" d="M1618.78,-170.71C1629.09,-159.36 1640.83,-146.43 1650.25,-136.05"/>
<polygon fill="midnightblue" stroke="midnightblue" points="1616.04,-168.51 1611.91,-178.27 1621.23,-173.22 1616.04,-168.51"/>
</g>
<!-- Node24 -->
<g id="node24" class="node">
<title>Node24</title>
<g id="a_node24"><a xlink:href="../../d8/d34/_env_sensing__service_8cpp.html" target="_top" xlink:title=" ">
<polygon fill="none" stroke="black" points="1917,-6 1917,-47 2069,-47 2069,-6 1917,-6"/>
<text text-anchor="start" x="1925" y="-35" font-family="Helvetica,sans-Serif" font-size="10.00">Components/Service</text>
<text text-anchor="start" x="1925" y="-24" font-family="Helvetica,sans-Serif" font-size="10.00">/EnvSensing/src/EnvSensing</text>
<text text-anchor="middle" x="1993" y="-13" font-family="Helvetica,sans-Serif" font-size="10.00">_service.cpp</text>
</a>
</g>
</g>
<!-- Node23&#45;&gt;Node24 -->
<g id="edge27" class="edge">
<title>Node23&#45;&gt;Node24</title>
<path fill="none" stroke="midnightblue" d="M1993,-84.44C1993,-72.1 1993,-58.16 1993,-47.16"/>
<polygon fill="midnightblue" stroke="midnightblue" points="1989.5,-84.76 1993,-94.76 1996.5,-84.76 1989.5,-84.76"/>
</g>
<!-- Node26 -->
<g id="node26" class="node">
<title>Node26</title>
<g id="a_node26"><a xlink:href="../../de/da1/is_alive__service_8cpp.html" target="_top" xlink:title=" ">
<polygon fill="none" stroke="black" points="1609.5,-6 1609.5,-47 1726.5,-47 1726.5,-6 1609.5,-6"/>
<text text-anchor="start" x="1617.5" y="-35" font-family="Helvetica,sans-Serif" font-size="10.00">Components/Service</text>
<text text-anchor="start" x="1617.5" y="-24" font-family="Helvetica,sans-Serif" font-size="10.00">/isAlive/src/isAlive</text>
<text text-anchor="middle" x="1668" y="-13" font-family="Helvetica,sans-Serif" font-size="10.00">_service.cpp</text>
</a>
</g>
</g>
<!-- Node25&#45;&gt;Node26 -->
<g id="edge29" class="edge">
<title>Node25&#45;&gt;Node26</title>
<path fill="none" stroke="midnightblue" d="M1668,-84.44C1668,-72.1 1668,-58.16 1668,-47.16"/>
<polygon fill="midnightblue" stroke="midnightblue" points="1664.5,-84.76 1668,-94.76 1671.5,-84.76 1664.5,-84.76"/>
</g>
<!-- Node27 -->
<g id="node27" class="node">
<title>Node27</title>
<g id="a_node27"><a xlink:href="../../d4/d60/_service_2is_alive_2test_2test_2simple__test_8cpp.html" target="_top" xlink:title=" ">
<polygon fill="none" stroke="black" points="1745,-6 1745,-47 1877,-47 1877,-6 1745,-6"/>
<text text-anchor="start" x="1753" y="-35" font-family="Helvetica,sans-Serif" font-size="10.00">Components/Service</text>
<text text-anchor="start" x="1753" y="-24" font-family="Helvetica,sans-Serif" font-size="10.00">/isAlive/test/test/simple</text>
<text text-anchor="middle" x="1811" y="-13" font-family="Helvetica,sans-Serif" font-size="10.00">_test.cpp</text>
</a>
</g>
</g>
<!-- Node25&#45;&gt;Node27 -->
<g id="edge30" class="edge">
<title>Node25&#45;&gt;Node27</title>
<path fill="none" stroke="midnightblue" d="M1708.92,-89.61C1731,-76.17 1757.89,-59.81 1778.52,-47.26"/>
<polygon fill="midnightblue" stroke="midnightblue" points="1706.82,-86.79 1700.09,-94.98 1710.45,-92.77 1706.82,-86.79"/>
</g>
<!-- Node31 -->
<g id="node31" class="node">
<title>Node31</title>
<g id="a_node31"><a xlink:href="../../d2/d77/_active_current_sensor_8cpp.html" target="_top" xlink:title=" ">
<polygon fill="none" stroke="black" points="583.5,-178.5 583.5,-219.5 756.5,-219.5 756.5,-178.5 583.5,-178.5"/>
<text text-anchor="start" x="591.5" y="-207.5" font-family="Helvetica,sans-Serif" font-size="10.00">Components/Sensor/Active</text>
<text text-anchor="start" x="591.5" y="-196.5" font-family="Helvetica,sans-Serif" font-size="10.00">CurrentSensor/src/ActiveCurrent</text>
<text text-anchor="middle" x="670" y="-185.5" font-family="Helvetica,sans-Serif" font-size="10.00">Sensor.cpp</text>
</a>
</g>
</g>
<!-- Node30&#45;&gt;Node31 -->
<g id="edge34" class="edge">
<title>Node30&#45;&gt;Node31</title>
<path fill="none" stroke="midnightblue" d="M992.83,-255.84C891.66,-236.1 863.76,-237.89 766,-220 762.9,-219.43 759.75,-218.84 756.57,-218.24"/>
<polygon fill="midnightblue" stroke="midnightblue" points="992.36,-259.32 1002.85,-257.82 993.72,-252.45 992.36,-259.32"/>
</g>
<!-- Node35 -->
<g id="node35" class="node">
<title>Node35</title>
<g id="a_node35"><a xlink:href="../../d4/de2/_a_m2320___humidity_8hpp.html" target="_top" xlink:title=" ">
<polygon fill="none" stroke="black" points="1820.5,-184 1820.5,-214 1987.5,-214 1987.5,-184 1820.5,-184"/>
<text text-anchor="start" x="1828.5" y="-202" font-family="Helvetica,sans-Serif" font-size="10.00">Components/Sensor/AM2320</text>
<text text-anchor="middle" x="1904" y="-191" font-family="Helvetica,sans-Serif" font-size="10.00">/include/AM2320_Humidity.hpp</text>
</a>
</g>
</g>
<!-- Node34&#45;&gt;Node35 -->
<g id="edge38" class="edge">
<title>Node34&#45;&gt;Node35</title>
<path fill="none" stroke="midnightblue" d="M2052.61,-258.22C2018.23,-244.75 1971.63,-226.5 1939.84,-214.04"/>
<polygon fill="midnightblue" stroke="midnightblue" points="2051.38,-261.49 2061.96,-261.88 2053.93,-254.98 2051.38,-261.49"/>
</g>
<!-- Node37 -->
<g id="node37" class="node">
<title>Node37</title>
<g id="a_node37"><a xlink:href="../../d6/d80/_sensor_2_a_m2320_2test_2test_2simple__test_8cpp.html" target="_top" xlink:title=" ">
<polygon fill="none" stroke="black" points="2079.5,-100.5 2079.5,-130.5 2236.5,-130.5 2236.5,-100.5 2079.5,-100.5"/>
<text text-anchor="start" x="2087.5" y="-118.5" font-family="Helvetica,sans-Serif" font-size="10.00">Components/Sensor/AM2320</text>
<text text-anchor="middle" x="2158" y="-107.5" font-family="Helvetica,sans-Serif" font-size="10.00">/test/test/simple_test.cpp</text>
</a>
</g>
</g>
<!-- Node34&#45;&gt;Node37 -->
<g id="edge47" class="edge">
<title>Node34&#45;&gt;Node37</title>
<path fill="none" stroke="midnightblue" d="M2155.12,-257.79C2172.63,-249.22 2189.92,-237.03 2200,-220 2217.78,-189.96 2189.79,-151 2171.61,-130.51"/>
<polygon fill="midnightblue" stroke="midnightblue" points="2153.63,-254.62 2145.98,-261.94 2156.53,-260.99 2153.63,-254.62"/>
</g>
<!-- Node38 -->
<g id="node38" class="node">
<title>Node38</title>
<g id="a_node38"><a xlink:href="../../df/d33/_a_m2320___temperature_8hpp.html" target="_top" xlink:title=" ">
<polygon fill="none" stroke="black" points="2005.5,-184 2005.5,-214 2190.5,-214 2190.5,-184 2005.5,-184"/>
<text text-anchor="start" x="2013.5" y="-202" font-family="Helvetica,sans-Serif" font-size="10.00">Components/Sensor/AM2320</text>
<text text-anchor="middle" x="2098" y="-191" font-family="Helvetica,sans-Serif" font-size="10.00">/include/AM2320_Temperature.hpp</text>
</a>
</g>
</g>
<!-- Node34&#45;&gt;Node38 -->
<g id="edge42" class="edge">
<title>Node34&#45;&gt;Node38</title>
<path fill="none" stroke="midnightblue" d="M2098,-251.59C2098,-239.26 2098,-224.72 2098,-214.23"/>
<polygon fill="midnightblue" stroke="midnightblue" points="2094.5,-251.7 2098,-261.7 2101.5,-251.71 2094.5,-251.7"/>
</g>
<!-- Node40 -->
<g id="node40" class="node">
<title>Node40</title>
<g id="a_node40"><a xlink:href="../../db/ddd/_a_m2320___base_8cpp.html" target="_top" xlink:title=" ">
<polygon fill="none" stroke="black" points="2246.5,-184 2246.5,-214 2403.5,-214 2403.5,-184 2246.5,-184"/>
<text text-anchor="start" x="2254.5" y="-202" font-family="Helvetica,sans-Serif" font-size="10.00">Components/Sensor/AM2320</text>
<text text-anchor="middle" x="2325" y="-191" font-family="Helvetica,sans-Serif" font-size="10.00">/src/AM2320_Base.cpp</text>
</a>
</g>
</g>
<!-- Node34&#45;&gt;Node40 -->
<g id="edge46" class="edge">
<title>Node34&#45;&gt;Node40</title>
<path fill="none" stroke="midnightblue" d="M2149.55,-258.74C2189.89,-245.23 2245.28,-226.69 2282.96,-214.07"/>
<polygon fill="midnightblue" stroke="midnightblue" points="2148.27,-255.48 2139.9,-261.97 2150.49,-262.12 2148.27,-255.48"/>
</g>
<!-- Node35&#45;&gt;Node23 -->
<g id="edge41" class="edge">
<title>Node35&#45;&gt;Node23</title>
<path fill="none" stroke="midnightblue" d="M1927.14,-176.81C1940.9,-164.21 1958.24,-148.33 1971.68,-136.03"/>
<polygon fill="midnightblue" stroke="midnightblue" points="1924.51,-174.47 1919.5,-183.8 1929.24,-179.63 1924.51,-174.47"/>
</g>
<!-- Node36 -->
<g id="node36" class="node">
<title>Node36</title>
<g id="a_node36"><a xlink:href="../../dd/d78/_a_m2320___humidity_8cpp.html" target="_top" xlink:title=" ">
<polygon fill="none" stroke="black" points="1749.5,-100.5 1749.5,-130.5 1906.5,-130.5 1906.5,-100.5 1749.5,-100.5"/>
<text text-anchor="start" x="1757.5" y="-118.5" font-family="Helvetica,sans-Serif" font-size="10.00">Components/Sensor/AM2320</text>
<text text-anchor="middle" x="1828" y="-107.5" font-family="Helvetica,sans-Serif" font-size="10.00">/src/AM2320_Humidity.cpp</text>
</a>
</g>
</g>
<!-- Node35&#45;&gt;Node36 -->
<g id="edge39" class="edge">
<title>Node35&#45;&gt;Node36</title>
<path fill="none" stroke="midnightblue" d="M1883.71,-176.24C1870.18,-161.74 1852.81,-143.1 1841.09,-130.53"/>
<polygon fill="midnightblue" stroke="midnightblue" points="1881.38,-178.88 1890.76,-183.8 1886.5,-174.1 1881.38,-178.88"/>
</g>
<!-- Node35&#45;&gt;Node37 -->
<g id="edge40" class="edge">
<title>Node35&#45;&gt;Node37</title>
<path fill="none" stroke="midnightblue" d="M1957.27,-180.91C2003.8,-165.98 2070.52,-144.57 2114.06,-130.6"/>
<polygon fill="midnightblue" stroke="midnightblue" points="1956.12,-177.6 1947.66,-183.99 1958.26,-184.27 1956.12,-177.6"/>
</g>
<!-- Node38&#45;&gt;Node23 -->
<g id="edge45" class="edge">
<title>Node38&#45;&gt;Node23</title>
<path fill="none" stroke="midnightblue" d="M2071.61,-177.52C2055.23,-164.8 2034.3,-148.56 2018.16,-136.03"/>
<polygon fill="midnightblue" stroke="midnightblue" points="2069.66,-180.44 2079.71,-183.8 2073.96,-174.91 2069.66,-180.44"/>
</g>
<!-- Node38&#45;&gt;Node37 -->
<g id="edge44" class="edge">
<title>Node38&#45;&gt;Node37</title>
<path fill="none" stroke="midnightblue" d="M2114.62,-175.43C2125.2,-161.05 2138.59,-142.87 2147.67,-130.53"/>
<polygon fill="midnightblue" stroke="midnightblue" points="2111.56,-173.68 2108.45,-183.8 2117.2,-177.83 2111.56,-173.68"/>
</g>
<!-- Node39 -->
<g id="node39" class="node">
<title>Node39</title>
<g id="a_node39"><a xlink:href="../../d0/dc8/_a_m2320___temperature_8cpp.html" target="_top" xlink:title=" ">
<polygon fill="none" stroke="black" points="2255,-100.5 2255,-130.5 2419,-130.5 2419,-100.5 2255,-100.5"/>
<text text-anchor="start" x="2263" y="-118.5" font-family="Helvetica,sans-Serif" font-size="10.00">Components/Sensor/AM2320</text>
<text text-anchor="middle" x="2337" y="-107.5" font-family="Helvetica,sans-Serif" font-size="10.00">/src/AM2320_Temperature.cpp</text>
</a>
</g>
</g>
<!-- Node38&#45;&gt;Node39 -->
<g id="edge43" class="edge">
<title>Node38&#45;&gt;Node39</title>
<path fill="none" stroke="midnightblue" d="M2148.67,-180.72C2192.43,-165.8 2254.86,-144.51 2295.65,-130.6"/>
<polygon fill="midnightblue" stroke="midnightblue" points="2147.42,-177.45 2139.09,-183.99 2149.68,-184.07 2147.42,-177.45"/>
</g>
</g>
</svg>
        <g id="navigator" transform="translate(0 0)" fill="#404254">
                <rect fill="#f2f5e9" fill-opacity="0.5" stroke="#606060" stroke-width=".5" x="0" y="0" width="60" height="60"/>
                <use id="zoomplus" xlink:href="#zoomPlus" x="17" y="9" onmousedown="handleZoom(evt,'in')"/>
                <use id="zoomminus" xlink:href="#zoomMin" x="42" y="9" onmousedown="handleZoom(evt,'out')"/>
                <use id="reset" xlink:href="#resetDef" x="30" y="36" onmousedown="handleReset()"/>
                <g id="arrowUp" xlink:href="#dirArrow" transform="translate(30 24)" onmousedown="handlePan(0,-1)">
                  <use xlink:href="#rim" fill="#404040">
                        <set attributeName="fill" to="#808080" begin="arrowUp.mouseover" end="arrowUp.mouseout"/>
                  </use>
                  <path fill="none" stroke="white" stroke-width="1.5" d="M0,-3.0v7 M-2.5,-0.5L0,-3.0L2.5,-0.5"/>
                </g>
                <g id="arrowRight" xlink:href="#dirArrow" transform="rotate(90) translate(36 -43)" onmousedown="handlePan(1,0)">
                  <use xlink:href="#rim" fill="#404040">
                        <set attributeName="fill" to="#808080" begin="arrowRight.mouseover" end="arrowRight.mouseout"/>
                  </use>
                  <path fill="none" stroke="white" stroke-width="1.5" d="M0,-3.0v7 M-2.5,-0.5L0,-3.0L2.5,-0.5"/>
                </g>
                <g id="arrowDown" xlink:href="#dirArrow" transform="rotate(180) translate(-30 -48)" onmousedown="handlePan(0,1)">
                  <use xlink:href="#rim" fill="#404040">
                        <set attributeName="fill" to="#808080" begin="arrowDown.mouseover" end="arrowDown.mouseout"/>
                  </use>
                  <path fill="none" stroke="white" stroke-width="1.5" d="M0,-3.0v7 M-2.5,-0.5L0,-3.0L2.5,-0.5"/>
                </g>
                <g id="arrowLeft" xlink:href="#dirArrow" transform="rotate(270) translate(-36 17)" onmousedown="handlePan(-1,0)">
                  <use xlink:href="#rim" fill="#404040">
                        <set attributeName="fill" to="#808080" begin="arrowLeft.mouseover" end="arrowLeft.mouseout"/>
                  </use>
                  <path fill="none" stroke="white" stroke-width="1.5" d="M0,-3.0v7 M-2.5,-0.5L0,-3.0L2.5,-0.5"/>
                </g>
        </g>
        <svg viewBox="0 0 15 15" width="100%" height="30px" preserveAspectRatio="xMaxYMin meet">
         <g id="arrow_out" transform="scale(0.3 0.3)">
          <a xlink:href="utils_8h__dep__incl_org.svg" target="_base">
           <rect id="button" ry="5" rx="5" y="6" x="6" height="38" width="38"
                fill="#f2f5e9" fill-opacity="0.5" stroke="#606060" stroke-width="1.0"/>
           <path id="arrow"
             d="M 11.500037,31.436501 C 11.940474,20.09759 22.043105,11.32322 32.158766,21.979434 L 37.068811,17.246167 C 37.068811,17.246167 37.088388,32 37.088388,32 L 22.160133,31.978069 C 22.160133,31.978069 26.997745,27.140456 26.997745,27.140456 C 18.528582,18.264221 13.291696,25.230495 11.500037,31.436501 z"
             style="fill:#404040;"/>
          </a>
         </g>
        </svg>
</svg>
