<?xml version="1.0" encoding="UTF-8" standalone="no"?>
<!DOCTYPE svg PUBLIC "-//W3C//DTD SVG 1.1//EN"
 "http://www.w3.org/Graphics/SVG/1.1/DTD/svg11.dtd">
<!-- Generated by graphviz version 2.43.0 (0)
 -->
<!-- Title: ConnectedComponents::container_t Pages: 1 -->
<svg width="152pt" height="237pt"
 viewBox="0.00 0.00 152.00 237.00" xmlns="http://www.w3.org/2000/svg" xmlns:xlink="http://www.w3.org/1999/xlink">
<g id="graph0" class="graph" transform="scale(1 1) rotate(0) translate(4 233)">
<title>ConnectedComponents::container_t</title>
<!-- Node1 -->
<g id="node1" class="node">
<title>Node1</title>
<g id="a_node1"><a xlink:title=" ">
<polygon fill="#bfbfbf" stroke="black" points="0,-0.5 0,-79.5 144,-79.5 144,-0.5 0,-0.5"/>
<text text-anchor="start" x="8" y="-67.5" font-family="Helvetica,sans-Serif" font-size="10.00">ConnectedComponents</text>
<text text-anchor="middle" x="72" y="-56.5" font-family="Helvetica,sans-Serif" font-size="10.00">::container_t</text>
<polyline fill="none" stroke="black" points="0,-49.5 144,-49.5 "/>
<text text-anchor="start" x="8" y="-37.5" font-family="Helvetica,sans-Serif" font-size="10.00">+ maxConnected</text>
<text text-anchor="start" x="8" y="-26.5" font-family="Helvetica,sans-Serif" font-size="10.00">+ amount_of_connections</text>
<polyline fill="none" stroke="black" points="0,-19.5 144,-19.5 "/>
<text text-anchor="middle" x="72" y="-7.5" font-family="Helvetica,sans-Serif" font-size="10.00"> </text>
</a>
</g>
</g>
<!-- Node2 -->
<g id="node2" class="node">
<title>Node2</title>
<g id="a_node2"><a xlink:href="../../d5/d8a/class_connected_components.html#d2/d33/struct_connected_components_1_1ellipse__data__t" target="_top" xlink:title=" ">
<polygon fill="none" stroke="black" points="7,-127.5 7,-228.5 137,-228.5 137,-127.5 7,-127.5"/>
<text text-anchor="start" x="15" y="-216.5" font-family="Helvetica,sans-Serif" font-size="10.00">ConnectedComponents</text>
<text text-anchor="middle" x="72" y="-205.5" font-family="Helvetica,sans-Serif" font-size="10.00">::ellipse_data_t</text>
<polyline fill="none" stroke="black" points="7,-198.5 137,-198.5 "/>
<text text-anchor="start" x="15" y="-186.5" font-family="Helvetica,sans-Serif" font-size="10.00">+ height</text>
<text text-anchor="start" x="15" y="-175.5" font-family="Helvetica,sans-Serif" font-size="10.00">+ width</text>
<text text-anchor="start" x="15" y="-164.5" font-family="Helvetica,sans-Serif" font-size="10.00">+ aspect_ratio</text>
<text text-anchor="start" x="15" y="-153.5" font-family="Helvetica,sans-Serif" font-size="10.00">+ area</text>
<polyline fill="none" stroke="black" points="7,-146.5 137,-146.5 "/>
<text text-anchor="middle" x="72" y="-134.5" font-family="Helvetica,sans-Serif" font-size="10.00"> </text>
</a>
</g>
</g>
<!-- Node2&#45;&gt;Node1 -->
<g id="edge1" class="edge">
<title>Node2&#45;&gt;Node1</title>
<path fill="none" stroke="#404040" d="M72,-127.13C72,-115.66 72,-103.45 72,-91.94"/>
<polygon fill="none" stroke="#404040" points="72,-91.79 68,-85.79 72,-79.79 76,-85.79 72,-91.79"/>
<text text-anchor="middle" x="94" y="-101" font-family="Helvetica,sans-Serif" font-size="10.00"> +ellipse</text>
</g>
</g>
</svg>
