<?xml version="1.0" encoding="UTF-8" standalone="no"?>
<!DOCTYPE svg PUBLIC "-//W3C//DTD SVG 1.1//EN"
 "http://www.w3.org/Graphics/SVG/1.1/DTD/svg11.dtd">
<!-- Generated by graphviz version 2.43.0 (0)
 -->
<!-- Title: WaterEstimator_Service Pages: 1 -->
<!--zoomable 1155 -->
<svg id="main" version="1.1" xmlns="http://www.w3.org/2000/svg" xmlns:xlink="http://www.w3.org/1999/xlink" xml:space="preserve" onload="init(evt)">
<style type="text/css"><![CDATA[
.edge:hover path { stroke: red; }
.edge:hover polygon { stroke: red; fill: red; }
]]></style>
<script type="text/javascript"><![CDATA[
var edges = document.getElementsByTagName('g');
if (edges && edges.length) {
  for (var i=0;i<edges.length;i++) {
    if (edges[i].id.substr(0,4)=='edge') {
      edges[i].setAttribute('class','edge');
    }
  }
}
]]></script>
        <defs>
                <circle id="rim" cx="0" cy="0" r="7"/>
                <circle id="rim2" cx="0" cy="0" r="3.5"/>
                <g id="zoomPlus">
                        <use xlink:href="#rim" fill="#404040">
                                <set attributeName="fill" to="#808080" begin="zoomplus.mouseover" end="zoomplus.mouseout"/>
                        </use>
                        <path d="M-4,0h8M0,-4v8" fill="none" stroke="white" stroke-width="1.5" pointer-events="none"/>
                </g>
                <g id="zoomMin">
                        <use xlink:href="#rim" fill="#404040">
                                <set attributeName="fill" to="#808080" begin="zoomminus.mouseover" end="zoomminus.mouseout"/>
                        </use>
                        <path d="M-4,0h8" fill="none" stroke="white" stroke-width="1.5" pointer-events="none"/>
                </g>
                <g id="dirArrow">
                        <path fill="none" stroke="white" stroke-width="1.5" d="M0,-3.0v7 M-2.5,-0.5L0,-3.0L2.5,-0.5"/>
                </g>
               <g id="resetDef">
                       <use xlink:href="#rim2" fill="#404040">
                               <set attributeName="fill" to="#808080" begin="reset.mouseover" end="reset.mouseout"/>
                       </use>
               </g>
        </defs>

<script type="text/javascript">
var viewWidth = 389;
var viewHeight = 1155;
var sectionId = 'dynsection-0';
</script>
<script xlink:href="../../svgpan.js"/>
<svg id="graph" class="graph">
<g id="viewport">
<title>WaterEstimator_Service</title>
<!-- Node1 -->
<g id="node1" class="node">
<title>Node1</title>
<g id="a_node1"><a xlink:title=" ">
<polygon fill="#bfbfbf" stroke="black" points="54.5,-0.5 54.5,-112.5 215.5,-112.5 215.5,-0.5 54.5,-0.5"/>
<text text-anchor="middle" x="135" y="-100.5" font-family="Helvetica,sans-Serif" font-size="10.00">WaterEstimator_Service</text>
<polyline fill="none" stroke="black" points="54.5,-93.5 215.5,-93.5 "/>
<text text-anchor="start" x="62.5" y="-81.5" font-family="Helvetica,sans-Serif" font-size="10.00">&#45; msg_max</text>
<text text-anchor="start" x="62.5" y="-70.5" font-family="Helvetica,sans-Serif" font-size="10.00">&#45; msg_min</text>
<text text-anchor="start" x="62.5" y="-59.5" font-family="Helvetica,sans-Serif" font-size="10.00">&#45; msg_count</text>
<text text-anchor="start" x="62.5" y="-48.5" font-family="Helvetica,sans-Serif" font-size="10.00">&#45; m_estimator</text>
<polyline fill="none" stroke="black" points="54.5,-41.5 215.5,-41.5 "/>
<text text-anchor="start" x="62.5" y="-29.5" font-family="Helvetica,sans-Serif" font-size="10.00">+ WaterEstimator_Service()</text>
<text text-anchor="start" x="62.5" y="-18.5" font-family="Helvetica,sans-Serif" font-size="10.00">+ ~WaterEstimator_Service()</text>
<text text-anchor="start" x="62.5" y="-7.5" font-family="Helvetica,sans-Serif" font-size="10.00">&#45; mainFunction()</text>
</a>
</g>
</g>
<!-- Node2 -->
<g id="node2" class="node">
<title>Node2</title>
<g id="a_node2"><a xlink:href="../../dc/d61/class_service_base___h_w___t_e_s_t.html" target="_top" xlink:title=" ">
<polygon fill="none" stroke="black" points="57.5,-150.5 57.5,-240.5 212.5,-240.5 212.5,-150.5 57.5,-150.5"/>
<text text-anchor="start" x="65.5" y="-228.5" font-family="Helvetica,sans-Serif" font-size="10.00">ServiceBase_HW_TEST</text>
<text text-anchor="middle" x="135" y="-217.5" font-family="Helvetica,sans-Serif" font-size="10.00">&lt; MQTT_Message &gt;</text>
<polyline fill="none" stroke="black" points="57.5,-210.5 212.5,-210.5 "/>
<text text-anchor="start" x="65.5" y="-198.5" font-family="Helvetica,sans-Serif" font-size="10.00">&#45; m_test_pin</text>
<polyline fill="none" stroke="black" points="57.5,-191.5 212.5,-191.5 "/>
<text text-anchor="start" x="65.5" y="-179.5" font-family="Helvetica,sans-Serif" font-size="10.00">+ ServiceBase_HW_TEST()</text>
<text text-anchor="start" x="65.5" y="-168.5" font-family="Helvetica,sans-Serif" font-size="10.00">+ ~ServiceBase_HW_TEST()</text>
<text text-anchor="start" x="65.5" y="-157.5" font-family="Helvetica,sans-Serif" font-size="10.00">&#45; setIsActive()</text>
</a>
</g>
</g>
<!-- Node2&#45;&gt;Node1 -->
<g id="edge1" class="edge">
<title>Node2&#45;&gt;Node1</title>
<path fill="none" stroke="midnightblue" d="M135,-140.29C135,-131.18 135,-121.71 135,-112.57"/>
<polygon fill="none" stroke="midnightblue" points="131.5,-140.4 135,-150.4 138.5,-140.4 131.5,-140.4"/>
</g>
<!-- Node3 -->
<g id="node3" class="node">
<title>Node3</title>
<g id="a_node3"><a xlink:href="../../d4/d82/class_service_base.html" target="_top" xlink:title=" ">
<polygon fill="none" stroke="black" points="0,-427.5 0,-627.5 168,-627.5 168,-427.5 0,-427.5"/>
<text text-anchor="start" x="8" y="-615.5" font-family="Helvetica,sans-Serif" font-size="10.00">ServiceBase&lt; MQTT_Message,</text>
<text text-anchor="middle" x="84" y="-604.5" font-family="Helvetica,sans-Serif" font-size="10.00"> FreeRTOS::Queue &gt;</text>
<polyline fill="none" stroke="black" points="0,-597.5 168,-597.5 "/>
<text text-anchor="start" x="8" y="-585.5" font-family="Helvetica,sans-Serif" font-size="10.00"># m_queue</text>
<text text-anchor="start" x="8" y="-574.5" font-family="Helvetica,sans-Serif" font-size="10.00"># m_test_pin</text>
<text text-anchor="start" x="8" y="-563.5" font-family="Helvetica,sans-Serif" font-size="10.00"># m_buffer</text>
<text text-anchor="start" x="8" y="-552.5" font-family="Helvetica,sans-Serif" font-size="10.00">&#45; m_isActive</text>
<text text-anchor="start" x="8" y="-541.5" font-family="Helvetica,sans-Serif" font-size="10.00">&#45; m_mqtt</text>
<text text-anchor="start" x="8" y="-530.5" font-family="Helvetica,sans-Serif" font-size="10.00">&#45; m_error_id</text>
<polyline fill="none" stroke="black" points="0,-523.5 168,-523.5 "/>
<text text-anchor="start" x="8" y="-511.5" font-family="Helvetica,sans-Serif" font-size="10.00">+ ServiceBase()</text>
<text text-anchor="start" x="8" y="-500.5" font-family="Helvetica,sans-Serif" font-size="10.00">+ ~ServiceBase()</text>
<text text-anchor="start" x="8" y="-489.5" font-family="Helvetica,sans-Serif" font-size="10.00">+ isActive()</text>
<text text-anchor="start" x="8" y="-478.5" font-family="Helvetica,sans-Serif" font-size="10.00">+ getQueue()</text>
<text text-anchor="start" x="8" y="-467.5" font-family="Helvetica,sans-Serif" font-size="10.00"># mainFunction()</text>
<text text-anchor="start" x="8" y="-456.5" font-family="Helvetica,sans-Serif" font-size="10.00"># setIsActive()</text>
<text text-anchor="start" x="8" y="-445.5" font-family="Helvetica,sans-Serif" font-size="10.00"># postData()</text>
<text text-anchor="start" x="8" y="-434.5" font-family="Helvetica,sans-Serif" font-size="10.00"># run()</text>
</a>
</g>
</g>
<!-- Node3&#45;&gt;Node2 -->
<g id="edge2" class="edge">
<title>Node3&#45;&gt;Node2</title>
<path fill="none" stroke="midnightblue" d="M100.84,-417.55C110.14,-357.37 121.18,-285.9 128.14,-240.86"/>
<polygon fill="none" stroke="midnightblue" points="97.37,-417.07 99.3,-427.49 104.29,-418.14 97.37,-417.07"/>
</g>
<!-- Node4 -->
<g id="node4" class="node">
<title>Node4</title>
<g id="a_node4"><a xlink:href="../../d7/d6d/class_task.html" target="_top" xlink:title="Encapsulate a runnable task.">
<polygon fill="none" stroke="black" points="152,-924.5 152,-1146.5 250,-1146.5 250,-924.5 152,-924.5"/>
<text text-anchor="middle" x="201" y="-1134.5" font-family="Helvetica,sans-Serif" font-size="10.00">Task</text>
<polyline fill="none" stroke="black" points="152,-1127.5 250,-1127.5 "/>
<text text-anchor="start" x="160" y="-1115.5" font-family="Helvetica,sans-Serif" font-size="10.00">&#45; m_handle</text>
<text text-anchor="start" x="160" y="-1104.5" font-family="Helvetica,sans-Serif" font-size="10.00">&#45; m_taskName</text>
<text text-anchor="start" x="160" y="-1093.5" font-family="Helvetica,sans-Serif" font-size="10.00">&#45; m_stackSize</text>
<text text-anchor="start" x="160" y="-1082.5" font-family="Helvetica,sans-Serif" font-size="10.00">&#45; m_priority</text>
<text text-anchor="start" x="160" y="-1071.5" font-family="Helvetica,sans-Serif" font-size="10.00">&#45; m_taskData</text>
<text text-anchor="start" x="160" y="-1060.5" font-family="Helvetica,sans-Serif" font-size="10.00">&#45; m_coreId</text>
<polyline fill="none" stroke="black" points="152,-1053.5 250,-1053.5 "/>
<text text-anchor="start" x="160" y="-1041.5" font-family="Helvetica,sans-Serif" font-size="10.00">+ Task()</text>
<text text-anchor="start" x="160" y="-1030.5" font-family="Helvetica,sans-Serif" font-size="10.00">+ ~Task()</text>
<text text-anchor="start" x="160" y="-1019.5" font-family="Helvetica,sans-Serif" font-size="10.00">+ setStackSize()</text>
<text text-anchor="start" x="160" y="-1008.5" font-family="Helvetica,sans-Serif" font-size="10.00">+ setPriority()</text>
<text text-anchor="start" x="160" y="-997.5" font-family="Helvetica,sans-Serif" font-size="10.00">+ setName()</text>
<text text-anchor="start" x="160" y="-986.5" font-family="Helvetica,sans-Serif" font-size="10.00">+ setCore()</text>
<text text-anchor="start" x="160" y="-975.5" font-family="Helvetica,sans-Serif" font-size="10.00">+ start()</text>
<text text-anchor="start" x="160" y="-964.5" font-family="Helvetica,sans-Serif" font-size="10.00">+ stop()</text>
<text text-anchor="start" x="160" y="-953.5" font-family="Helvetica,sans-Serif" font-size="10.00">+ run()</text>
<text text-anchor="start" x="160" y="-942.5" font-family="Helvetica,sans-Serif" font-size="10.00">+ delay()</text>
<text text-anchor="start" x="160" y="-931.5" font-family="Helvetica,sans-Serif" font-size="10.00">&#45; runTask()</text>
</a>
</g>
</g>
<!-- Node4&#45;&gt;Node3 -->
<g id="edge3" class="edge">
<title>Node4&#45;&gt;Node3</title>
<path fill="none" stroke="midnightblue" d="M147.58,-933.98C140.43,-918.49 133.63,-902.49 128,-887 93.8,-792.88 86.86,-767.44 75,-668 73.45,-654.99 72.95,-641.26 73.13,-627.69"/>
<polygon fill="none" stroke="midnightblue" points="144.41,-935.46 151.83,-943.03 150.75,-932.49 144.41,-935.46"/>
</g>
<!-- Node5 -->
<g id="node5" class="node">
<title>Node5</title>
<g id="a_node5"><a xlink:href="../../d4/d82/class_service_base.html" target="_top" xlink:title=" ">
<polygon fill="none" stroke="black" points="137.5,-686.5 137.5,-886.5 264.5,-886.5 264.5,-686.5 137.5,-686.5"/>
<text text-anchor="start" x="145.5" y="-874.5" font-family="Helvetica,sans-Serif" font-size="10.00">ServiceBase&lt; BUFFER</text>
<text text-anchor="middle" x="201" y="-863.5" font-family="Helvetica,sans-Serif" font-size="10.00">_TYPE, QUEUE_TYPE &gt;</text>
<polyline fill="none" stroke="black" points="137.5,-856.5 264.5,-856.5 "/>
<text text-anchor="start" x="145.5" y="-844.5" font-family="Helvetica,sans-Serif" font-size="10.00"># m_queue</text>
<text text-anchor="start" x="145.5" y="-833.5" font-family="Helvetica,sans-Serif" font-size="10.00"># m_test_pin</text>
<text text-anchor="start" x="145.5" y="-822.5" font-family="Helvetica,sans-Serif" font-size="10.00"># m_buffer</text>
<text text-anchor="start" x="145.5" y="-811.5" font-family="Helvetica,sans-Serif" font-size="10.00">&#45; m_isActive</text>
<text text-anchor="start" x="145.5" y="-800.5" font-family="Helvetica,sans-Serif" font-size="10.00">&#45; m_mqtt</text>
<text text-anchor="start" x="145.5" y="-789.5" font-family="Helvetica,sans-Serif" font-size="10.00">&#45; m_error_id</text>
<polyline fill="none" stroke="black" points="137.5,-782.5 264.5,-782.5 "/>
<text text-anchor="start" x="145.5" y="-770.5" font-family="Helvetica,sans-Serif" font-size="10.00">+ ServiceBase()</text>
<text text-anchor="start" x="145.5" y="-759.5" font-family="Helvetica,sans-Serif" font-size="10.00">+ ~ServiceBase()</text>
<text text-anchor="start" x="145.5" y="-748.5" font-family="Helvetica,sans-Serif" font-size="10.00">+ isActive()</text>
<text text-anchor="start" x="145.5" y="-737.5" font-family="Helvetica,sans-Serif" font-size="10.00">+ getQueue()</text>
<text text-anchor="start" x="145.5" y="-726.5" font-family="Helvetica,sans-Serif" font-size="10.00"># mainFunction()</text>
<text text-anchor="start" x="145.5" y="-715.5" font-family="Helvetica,sans-Serif" font-size="10.00"># setIsActive()</text>
<text text-anchor="start" x="145.5" y="-704.5" font-family="Helvetica,sans-Serif" font-size="10.00"># postData()</text>
<text text-anchor="start" x="145.5" y="-693.5" font-family="Helvetica,sans-Serif" font-size="10.00"># run()</text>
</a>
</g>
</g>
<!-- Node4&#45;&gt;Node5 -->
<g id="edge5" class="edge">
<title>Node4&#45;&gt;Node5</title>
<path fill="none" stroke="midnightblue" d="M201,-914.29C201,-904.98 201,-895.65 201,-886.51"/>
<polygon fill="none" stroke="midnightblue" points="197.5,-914.36 201,-924.36 204.5,-914.36 197.5,-914.36"/>
</g>
<!-- Node7 -->
<g id="node7" class="node">
<title>Node7</title>
<g id="a_node7"><a xlink:href="../../d4/d82/class_service_base.html" target="_top" xlink:title=" ">
<polygon fill="none" stroke="black" points="186,-427.5 186,-627.5 334,-627.5 334,-427.5 186,-427.5"/>
<text text-anchor="start" x="194" y="-615.5" font-family="Helvetica,sans-Serif" font-size="10.00">ServiceBase&lt; BUFFER</text>
<text text-anchor="middle" x="260" y="-604.5" font-family="Helvetica,sans-Serif" font-size="10.00">_TYPE, FreeRTOS::Queue &gt;</text>
<polyline fill="none" stroke="black" points="186,-597.5 334,-597.5 "/>
<text text-anchor="start" x="194" y="-585.5" font-family="Helvetica,sans-Serif" font-size="10.00"># m_queue</text>
<text text-anchor="start" x="194" y="-574.5" font-family="Helvetica,sans-Serif" font-size="10.00"># m_test_pin</text>
<text text-anchor="start" x="194" y="-563.5" font-family="Helvetica,sans-Serif" font-size="10.00"># m_buffer</text>
<text text-anchor="start" x="194" y="-552.5" font-family="Helvetica,sans-Serif" font-size="10.00">&#45; m_isActive</text>
<text text-anchor="start" x="194" y="-541.5" font-family="Helvetica,sans-Serif" font-size="10.00">&#45; m_mqtt</text>
<text text-anchor="start" x="194" y="-530.5" font-family="Helvetica,sans-Serif" font-size="10.00">&#45; m_error_id</text>
<polyline fill="none" stroke="black" points="186,-523.5 334,-523.5 "/>
<text text-anchor="start" x="194" y="-511.5" font-family="Helvetica,sans-Serif" font-size="10.00">+ ServiceBase()</text>
<text text-anchor="start" x="194" y="-500.5" font-family="Helvetica,sans-Serif" font-size="10.00">+ ~ServiceBase()</text>
<text text-anchor="start" x="194" y="-489.5" font-family="Helvetica,sans-Serif" font-size="10.00">+ isActive()</text>
<text text-anchor="start" x="194" y="-478.5" font-family="Helvetica,sans-Serif" font-size="10.00">+ getQueue()</text>
<text text-anchor="start" x="194" y="-467.5" font-family="Helvetica,sans-Serif" font-size="10.00"># mainFunction()</text>
<text text-anchor="start" x="194" y="-456.5" font-family="Helvetica,sans-Serif" font-size="10.00"># setIsActive()</text>
<text text-anchor="start" x="194" y="-445.5" font-family="Helvetica,sans-Serif" font-size="10.00"># postData()</text>
<text text-anchor="start" x="194" y="-434.5" font-family="Helvetica,sans-Serif" font-size="10.00"># run()</text>
</a>
</g>
</g>
<!-- Node4&#45;&gt;Node7 -->
<g id="edge8" class="edge">
<title>Node4&#45;&gt;Node7</title>
<path fill="none" stroke="midnightblue" d="M255.37,-950.74C298.51,-878.99 355.34,-771.19 379,-668 387.36,-631.54 362.98,-599.16 334.15,-574.8"/>
<polygon fill="none" stroke="midnightblue" points="252.37,-948.94 250.18,-959.31 258.36,-952.57 252.37,-948.94"/>
</g>
<!-- Node5&#45;&gt;Node3 -->
<g id="edge4" class="edge">
<title>Node5&#45;&gt;Node3</title>
<path fill="none" stroke="orange" d="M130.16,-731.18C112,-713.24 94.84,-691.73 85,-668 79.76,-655.36 76.78,-641.5 75.33,-627.58"/>
<polygon fill="orange" stroke="orange" points="127.78,-733.75 137.42,-738.13 132.62,-728.69 127.78,-733.75"/>
<text text-anchor="start" x="85" y="-660" font-family="Helvetica,sans-Serif" font-size="10.00"> &lt; MQTT_Message, FreeRTOS</text>
<text text-anchor="middle" x="157.5" y="-649" font-family="Helvetica,sans-Serif" font-size="10.00">::Queue &gt;</text>
</g>
<!-- Node5&#45;&gt;Node7 -->
<g id="edge9" class="edge">
<title>Node5&#45;&gt;Node7</title>
<path fill="none" stroke="orange" d="M231.97,-676.5C232.67,-673.64 233.35,-670.81 234,-668 237.02,-655.04 239.92,-641.35 242.62,-627.8"/>
<polygon fill="orange" stroke="orange" points="228.55,-675.75 229.53,-686.3 235.35,-677.44 228.55,-675.75"/>
<text text-anchor="start" x="239" y="-660" font-family="Helvetica,sans-Serif" font-size="10.00"> &lt; BUFFER_TYPE, FreeRTOS</text>
<text text-anchor="middle" x="307" y="-649" font-family="Helvetica,sans-Serif" font-size="10.00">::Queue &gt;</text>
</g>
<!-- Node6 -->
<g id="node6" class="node">
<title>Node6</title>
<g id="a_node6"><a xlink:href="../../dc/d61/class_service_base___h_w___t_e_s_t.html" target="_top" xlink:title=" ">
<polygon fill="none" stroke="black" points="164.5,-288.5 164.5,-389.5 319.5,-389.5 319.5,-288.5 164.5,-288.5"/>
<text text-anchor="start" x="172.5" y="-377.5" font-family="Helvetica,sans-Serif" font-size="10.00">ServiceBase_HW_TEST</text>
<text text-anchor="start" x="172.5" y="-366.5" font-family="Helvetica,sans-Serif" font-size="10.00">&lt; BUFFER_TYPE, QUEUE</text>
<text text-anchor="middle" x="242" y="-355.5" font-family="Helvetica,sans-Serif" font-size="10.00">_TYPE &gt;</text>
<polyline fill="none" stroke="black" points="164.5,-348.5 319.5,-348.5 "/>
<text text-anchor="start" x="172.5" y="-336.5" font-family="Helvetica,sans-Serif" font-size="10.00">&#45; m_test_pin</text>
<polyline fill="none" stroke="black" points="164.5,-329.5 319.5,-329.5 "/>
<text text-anchor="start" x="172.5" y="-317.5" font-family="Helvetica,sans-Serif" font-size="10.00">+ ServiceBase_HW_TEST()</text>
<text text-anchor="start" x="172.5" y="-306.5" font-family="Helvetica,sans-Serif" font-size="10.00">+ ~ServiceBase_HW_TEST()</text>
<text text-anchor="start" x="172.5" y="-295.5" font-family="Helvetica,sans-Serif" font-size="10.00">&#45; setIsActive()</text>
</a>
</g>
</g>
<!-- Node6&#45;&gt;Node2 -->
<g id="edge6" class="edge">
<title>Node6&#45;&gt;Node2</title>
<path fill="none" stroke="orange" d="M198.17,-280.04C188.25,-266.92 177.88,-253.2 168.47,-240.76"/>
<polygon fill="orange" stroke="orange" points="195.45,-282.25 204.28,-288.11 201.04,-278.03 195.45,-282.25"/>
<text text-anchor="middle" x="240.5" y="-262" font-family="Helvetica,sans-Serif" font-size="10.00"> &lt; MQTT_Message &gt;</text>
</g>
<!-- Node7&#45;&gt;Node6 -->
<g id="edge7" class="edge">
<title>Node7&#45;&gt;Node6</title>
<path fill="none" stroke="midnightblue" d="M249.45,-417.2C248.53,-407.63 247.63,-398.29 246.79,-389.6"/>
<polygon fill="none" stroke="midnightblue" points="245.98,-417.63 250.42,-427.24 252.94,-416.95 245.98,-417.63"/>
</g>
</g>
</svg>
        <g id="navigator" transform="translate(0 0)" fill="#404254">
                <rect fill="#f2f5e9" fill-opacity="0.5" stroke="#606060" stroke-width=".5" x="0" y="0" width="60" height="60"/>
                <use id="zoomplus" xlink:href="#zoomPlus" x="17" y="9" onmousedown="handleZoom(evt,'in')"/>
                <use id="zoomminus" xlink:href="#zoomMin" x="42" y="9" onmousedown="handleZoom(evt,'out')"/>
                <use id="reset" xlink:href="#resetDef" x="30" y="36" onmousedown="handleReset()"/>
                <g id="arrowUp" xlink:href="#dirArrow" transform="translate(30 24)" onmousedown="handlePan(0,-1)">
                  <use xlink:href="#rim" fill="#404040">
                        <set attributeName="fill" to="#808080" begin="arrowUp.mouseover" end="arrowUp.mouseout"/>
                  </use>
                  <path fill="none" stroke="white" stroke-width="1.5" d="M0,-3.0v7 M-2.5,-0.5L0,-3.0L2.5,-0.5"/>
                </g>
                <g id="arrowRight" xlink:href="#dirArrow" transform="rotate(90) translate(36 -43)" onmousedown="handlePan(1,0)">
                  <use xlink:href="#rim" fill="#404040">
                        <set attributeName="fill" to="#808080" begin="arrowRight.mouseover" end="arrowRight.mouseout"/>
                  </use>
                  <path fill="none" stroke="white" stroke-width="1.5" d="M0,-3.0v7 M-2.5,-0.5L0,-3.0L2.5,-0.5"/>
                </g>
                <g id="arrowDown" xlink:href="#dirArrow" transform="rotate(180) translate(-30 -48)" onmousedown="handlePan(0,1)">
                  <use xlink:href="#rim" fill="#404040">
                        <set attributeName="fill" to="#808080" begin="arrowDown.mouseover" end="arrowDown.mouseout"/>
                  </use>
                  <path fill="none" stroke="white" stroke-width="1.5" d="M0,-3.0v7 M-2.5,-0.5L0,-3.0L2.5,-0.5"/>
                </g>
                <g id="arrowLeft" xlink:href="#dirArrow" transform="rotate(270) translate(-36 17)" onmousedown="handlePan(-1,0)">
                  <use xlink:href="#rim" fill="#404040">
                        <set attributeName="fill" to="#808080" begin="arrowLeft.mouseover" end="arrowLeft.mouseout"/>
                  </use>
                  <path fill="none" stroke="white" stroke-width="1.5" d="M0,-3.0v7 M-2.5,-0.5L0,-3.0L2.5,-0.5"/>
                </g>
        </g>
        <svg viewBox="0 0 15 15" width="100%" height="30px" preserveAspectRatio="xMaxYMin meet">
         <g id="arrow_out" transform="scale(0.3 0.3)">
          <a xlink:href="class_water_estimator___service__inherit__graph_org.svg" target="_base">
           <rect id="button" ry="5" rx="5" y="6" x="6" height="38" width="38"
                fill="#f2f5e9" fill-opacity="0.5" stroke="#606060" stroke-width="1.0"/>
           <path id="arrow"
             d="M 11.500037,31.436501 C 11.940474,20.09759 22.043105,11.32322 32.158766,21.979434 L 37.068811,17.246167 C 37.068811,17.246167 37.088388,32 37.088388,32 L 22.160133,31.978069 C 22.160133,31.978069 26.997745,27.140456 26.997745,27.140456 C 18.528582,18.264221 13.291696,25.230495 11.500037,31.436501 z"
             style="fill:#404040;"/>
          </a>
         </g>
        </svg>
</svg>
