<?xml version="1.0" encoding="UTF-8" standalone="no"?>
<!DOCTYPE svg PUBLIC "-//W3C//DTD SVG 1.1//EN"
 "http://www.w3.org/Graphics/SVG/1.1/DTD/svg11.dtd">
<!-- Generated by graphviz version 2.43.0 (0)
 -->
<!-- Title: WaterEstimator_Service Pages: 1 -->
<svg width="360pt" height="972pt"
 viewBox="0.00 0.00 360.00 972.00" xmlns="http://www.w3.org/2000/svg" xmlns:xlink="http://www.w3.org/1999/xlink">
<g id="graph0" class="graph" transform="scale(1 1) rotate(0) translate(4 968)">
<title>WaterEstimator_Service</title>
<!-- Node1 -->
<g id="node1" class="node">
<title>Node1</title>
<g id="a_node1"><a xlink:title=" ">
<polygon fill="#bfbfbf" stroke="black" points="99.5,-0.5 99.5,-112.5 260.5,-112.5 260.5,-0.5 99.5,-0.5"/>
<text text-anchor="middle" x="180" y="-100.5" font-family="Helvetica,sans-Serif" font-size="10.00">WaterEstimator_Service</text>
<polyline fill="none" stroke="black" points="99.5,-93.5 260.5,-93.5 "/>
<text text-anchor="start" x="107.5" y="-81.5" font-family="Helvetica,sans-Serif" font-size="10.00">&#45; msg_max</text>
<text text-anchor="start" x="107.5" y="-70.5" font-family="Helvetica,sans-Serif" font-size="10.00">&#45; msg_min</text>
<text text-anchor="start" x="107.5" y="-59.5" font-family="Helvetica,sans-Serif" font-size="10.00">&#45; msg_count</text>
<text text-anchor="start" x="107.5" y="-48.5" font-family="Helvetica,sans-Serif" font-size="10.00">&#45; m_estimator</text>
<polyline fill="none" stroke="black" points="99.5,-41.5 260.5,-41.5 "/>
<text text-anchor="start" x="107.5" y="-29.5" font-family="Helvetica,sans-Serif" font-size="10.00">+ WaterEstimator_Service()</text>
<text text-anchor="start" x="107.5" y="-18.5" font-family="Helvetica,sans-Serif" font-size="10.00">+ ~WaterEstimator_Service()</text>
<text text-anchor="start" x="107.5" y="-7.5" font-family="Helvetica,sans-Serif" font-size="10.00">&#45; mainFunction()</text>
</a>
</g>
</g>
<!-- Node2 -->
<g id="node2" class="node">
<title>Node2</title>
<g id="a_node2"><a xlink:href="../../da/d3e/class_service_queue_base.html" target="_top" xlink:title=" ">
<polygon fill="none" stroke="black" points="106,-150.5 106,-262.5 254,-262.5 254,-150.5 106,-150.5"/>
<text text-anchor="start" x="114" y="-250.5" font-family="Helvetica,sans-Serif" font-size="10.00">ServiceQueueBase&lt; MQTT</text>
<text text-anchor="middle" x="180" y="-239.5" font-family="Helvetica,sans-Serif" font-size="10.00">_Message &gt;</text>
<polyline fill="none" stroke="black" points="106,-232.5 254,-232.5 "/>
<text text-anchor="start" x="114" y="-220.5" font-family="Helvetica,sans-Serif" font-size="10.00"># m_queue</text>
<polyline fill="none" stroke="black" points="106,-213.5 254,-213.5 "/>
<text text-anchor="start" x="114" y="-201.5" font-family="Helvetica,sans-Serif" font-size="10.00">+ ServiceQueueBase()</text>
<text text-anchor="start" x="114" y="-190.5" font-family="Helvetica,sans-Serif" font-size="10.00">+ ~ServiceQueueBase()</text>
<text text-anchor="start" x="114" y="-179.5" font-family="Helvetica,sans-Serif" font-size="10.00">+ getQueue()</text>
<text text-anchor="start" x="114" y="-168.5" font-family="Helvetica,sans-Serif" font-size="10.00"># mainFunction()</text>
<text text-anchor="start" x="114" y="-157.5" font-family="Helvetica,sans-Serif" font-size="10.00"># run()</text>
</a>
</g>
</g>
<!-- Node2&#45;&gt;Node1 -->
<g id="edge1" class="edge">
<title>Node2&#45;&gt;Node1</title>
<path fill="none" stroke="midnightblue" d="M180,-140.14C180,-130.97 180,-121.61 180,-112.66"/>
<polygon fill="none" stroke="midnightblue" points="176.5,-140.39 180,-150.39 183.5,-140.39 176.5,-140.39"/>
</g>
<!-- Node3 -->
<g id="node3" class="node">
<title>Node3</title>
<g id="a_node3"><a xlink:href="../../d4/d82/class_service_base.html" target="_top" xlink:title=" ">
<polygon fill="none" stroke="black" points="0,-310.5 0,-477.5 176,-477.5 176,-310.5 0,-310.5"/>
<text text-anchor="middle" x="88" y="-465.5" font-family="Helvetica,sans-Serif" font-size="10.00">ServiceBase&lt; MQTT_Message &gt;</text>
<polyline fill="none" stroke="black" points="0,-458.5 176,-458.5 "/>
<text text-anchor="start" x="8" y="-446.5" font-family="Helvetica,sans-Serif" font-size="10.00"># m_test_pin</text>
<text text-anchor="start" x="8" y="-435.5" font-family="Helvetica,sans-Serif" font-size="10.00"># m_buffer</text>
<text text-anchor="start" x="8" y="-424.5" font-family="Helvetica,sans-Serif" font-size="10.00"># m_error_id</text>
<text text-anchor="start" x="8" y="-413.5" font-family="Helvetica,sans-Serif" font-size="10.00">&#45; m_isActive</text>
<text text-anchor="start" x="8" y="-402.5" font-family="Helvetica,sans-Serif" font-size="10.00">&#45; m_mqtt</text>
<polyline fill="none" stroke="black" points="0,-395.5 176,-395.5 "/>
<text text-anchor="start" x="8" y="-383.5" font-family="Helvetica,sans-Serif" font-size="10.00">+ ServiceBase()</text>
<text text-anchor="start" x="8" y="-372.5" font-family="Helvetica,sans-Serif" font-size="10.00">+ ~ServiceBase()</text>
<text text-anchor="start" x="8" y="-361.5" font-family="Helvetica,sans-Serif" font-size="10.00">+ isActive()</text>
<text text-anchor="start" x="8" y="-350.5" font-family="Helvetica,sans-Serif" font-size="10.00"># mainFunction()</text>
<text text-anchor="start" x="8" y="-339.5" font-family="Helvetica,sans-Serif" font-size="10.00"># setIsActive()</text>
<text text-anchor="start" x="8" y="-328.5" font-family="Helvetica,sans-Serif" font-size="10.00"># postData()</text>
<text text-anchor="start" x="8" y="-317.5" font-family="Helvetica,sans-Serif" font-size="10.00"># postError()</text>
</a>
</g>
</g>
<!-- Node3&#45;&gt;Node2 -->
<g id="edge2" class="edge">
<title>Node3&#45;&gt;Node2</title>
<path fill="none" stroke="midnightblue" d="M133.54,-301.18C140.07,-288 146.62,-274.8 152.65,-262.64"/>
<polygon fill="none" stroke="midnightblue" points="130.33,-299.77 129.02,-310.29 136.6,-302.88 130.33,-299.77"/>
</g>
<!-- Node4 -->
<g id="node4" class="node">
<title>Node4</title>
<g id="a_node4"><a xlink:href="../../d7/d6d/class_task.html" target="_top" xlink:title="Encapsulate a runnable task.">
<polygon fill="none" stroke="black" points="51,-741.5 51,-963.5 149,-963.5 149,-741.5 51,-741.5"/>
<text text-anchor="middle" x="100" y="-951.5" font-family="Helvetica,sans-Serif" font-size="10.00">Task</text>
<polyline fill="none" stroke="black" points="51,-944.5 149,-944.5 "/>
<text text-anchor="start" x="59" y="-932.5" font-family="Helvetica,sans-Serif" font-size="10.00">&#45; m_handle</text>
<text text-anchor="start" x="59" y="-921.5" font-family="Helvetica,sans-Serif" font-size="10.00">&#45; m_taskName</text>
<text text-anchor="start" x="59" y="-910.5" font-family="Helvetica,sans-Serif" font-size="10.00">&#45; m_stackSize</text>
<text text-anchor="start" x="59" y="-899.5" font-family="Helvetica,sans-Serif" font-size="10.00">&#45; m_priority</text>
<text text-anchor="start" x="59" y="-888.5" font-family="Helvetica,sans-Serif" font-size="10.00">&#45; m_taskData</text>
<text text-anchor="start" x="59" y="-877.5" font-family="Helvetica,sans-Serif" font-size="10.00">&#45; m_coreId</text>
<polyline fill="none" stroke="black" points="51,-870.5 149,-870.5 "/>
<text text-anchor="start" x="59" y="-858.5" font-family="Helvetica,sans-Serif" font-size="10.00">+ Task()</text>
<text text-anchor="start" x="59" y="-847.5" font-family="Helvetica,sans-Serif" font-size="10.00">+ ~Task()</text>
<text text-anchor="start" x="59" y="-836.5" font-family="Helvetica,sans-Serif" font-size="10.00">+ setStackSize()</text>
<text text-anchor="start" x="59" y="-825.5" font-family="Helvetica,sans-Serif" font-size="10.00">+ setPriority()</text>
<text text-anchor="start" x="59" y="-814.5" font-family="Helvetica,sans-Serif" font-size="10.00">+ setName()</text>
<text text-anchor="start" x="59" y="-803.5" font-family="Helvetica,sans-Serif" font-size="10.00">+ setCore()</text>
<text text-anchor="start" x="59" y="-792.5" font-family="Helvetica,sans-Serif" font-size="10.00">+ start()</text>
<text text-anchor="start" x="59" y="-781.5" font-family="Helvetica,sans-Serif" font-size="10.00">+ stop()</text>
<text text-anchor="start" x="59" y="-770.5" font-family="Helvetica,sans-Serif" font-size="10.00">+ run()</text>
<text text-anchor="start" x="59" y="-759.5" font-family="Helvetica,sans-Serif" font-size="10.00">+ delay()</text>
<text text-anchor="start" x="59" y="-748.5" font-family="Helvetica,sans-Serif" font-size="10.00">&#45; runTask()</text>
</a>
</g>
</g>
<!-- Node4&#45;&gt;Node3 -->
<g id="edge3" class="edge">
<title>Node4&#45;&gt;Node3</title>
<path fill="none" stroke="midnightblue" d="M96.84,-731.17C94.74,-651.3 92.04,-548.54 90.18,-477.77"/>
<polygon fill="none" stroke="midnightblue" points="93.34,-731.38 97.1,-741.29 100.34,-731.2 93.34,-731.38"/>
</g>
<!-- Node5 -->
<g id="node5" class="node">
<title>Node5</title>
<g id="a_node5"><a xlink:href="../../d4/d82/class_service_base.html" target="_top" xlink:title=" ">
<polygon fill="none" stroke="black" points="116.5,-525.5 116.5,-703.5 243.5,-703.5 243.5,-525.5 116.5,-525.5"/>
<text text-anchor="start" x="124.5" y="-691.5" font-family="Helvetica,sans-Serif" font-size="10.00">ServiceBase&lt; BUFFER</text>
<text text-anchor="middle" x="180" y="-680.5" font-family="Helvetica,sans-Serif" font-size="10.00">_TYPE &gt;</text>
<polyline fill="none" stroke="black" points="116.5,-673.5 243.5,-673.5 "/>
<text text-anchor="start" x="124.5" y="-661.5" font-family="Helvetica,sans-Serif" font-size="10.00"># m_test_pin</text>
<text text-anchor="start" x="124.5" y="-650.5" font-family="Helvetica,sans-Serif" font-size="10.00"># m_buffer</text>
<text text-anchor="start" x="124.5" y="-639.5" font-family="Helvetica,sans-Serif" font-size="10.00"># m_error_id</text>
<text text-anchor="start" x="124.5" y="-628.5" font-family="Helvetica,sans-Serif" font-size="10.00">&#45; m_isActive</text>
<text text-anchor="start" x="124.5" y="-617.5" font-family="Helvetica,sans-Serif" font-size="10.00">&#45; m_mqtt</text>
<polyline fill="none" stroke="black" points="116.5,-610.5 243.5,-610.5 "/>
<text text-anchor="start" x="124.5" y="-598.5" font-family="Helvetica,sans-Serif" font-size="10.00">+ ServiceBase()</text>
<text text-anchor="start" x="124.5" y="-587.5" font-family="Helvetica,sans-Serif" font-size="10.00">+ ~ServiceBase()</text>
<text text-anchor="start" x="124.5" y="-576.5" font-family="Helvetica,sans-Serif" font-size="10.00">+ isActive()</text>
<text text-anchor="start" x="124.5" y="-565.5" font-family="Helvetica,sans-Serif" font-size="10.00"># mainFunction()</text>
<text text-anchor="start" x="124.5" y="-554.5" font-family="Helvetica,sans-Serif" font-size="10.00"># setIsActive()</text>
<text text-anchor="start" x="124.5" y="-543.5" font-family="Helvetica,sans-Serif" font-size="10.00"># postData()</text>
<text text-anchor="start" x="124.5" y="-532.5" font-family="Helvetica,sans-Serif" font-size="10.00"># postError()</text>
</a>
</g>
</g>
<!-- Node4&#45;&gt;Node5 -->
<g id="edge5" class="edge">
<title>Node4&#45;&gt;Node5</title>
<path fill="none" stroke="midnightblue" d="M140.52,-731.97C143.73,-722.49 146.94,-713.02 150.06,-703.81"/>
<polygon fill="none" stroke="midnightblue" points="137.2,-730.85 137.31,-741.45 143.83,-733.1 137.2,-730.85"/>
</g>
<!-- Node5&#45;&gt;Node3 -->
<g id="edge4" class="edge">
<title>Node5&#45;&gt;Node3</title>
<path fill="none" stroke="orange" d="M138.93,-515.97C133.53,-503.14 128.04,-490.1 122.76,-477.56"/>
<polygon fill="orange" stroke="orange" points="135.74,-517.4 142.85,-525.26 142.19,-514.68 135.74,-517.4"/>
<text text-anchor="middle" x="185.5" y="-499" font-family="Helvetica,sans-Serif" font-size="10.00"> &lt; MQTT_Message &gt;</text>
</g>
<!-- Node6 -->
<g id="node6" class="node">
<title>Node6</title>
<g id="a_node6"><a xlink:href="../../da/d3e/class_service_queue_base.html" target="_top" xlink:title=" ">
<polygon fill="none" stroke="black" points="194,-338 194,-450 352,-450 352,-338 194,-338"/>
<text text-anchor="start" x="202" y="-438" font-family="Helvetica,sans-Serif" font-size="10.00">ServiceQueueBase&lt; BUFFER</text>
<text text-anchor="middle" x="273" y="-427" font-family="Helvetica,sans-Serif" font-size="10.00">_TYPE, QUEUE_TYPE &gt;</text>
<polyline fill="none" stroke="black" points="194,-420 352,-420 "/>
<text text-anchor="start" x="202" y="-408" font-family="Helvetica,sans-Serif" font-size="10.00"># m_queue</text>
<polyline fill="none" stroke="black" points="194,-401 352,-401 "/>
<text text-anchor="start" x="202" y="-389" font-family="Helvetica,sans-Serif" font-size="10.00">+ ServiceQueueBase()</text>
<text text-anchor="start" x="202" y="-378" font-family="Helvetica,sans-Serif" font-size="10.00">+ ~ServiceQueueBase()</text>
<text text-anchor="start" x="202" y="-367" font-family="Helvetica,sans-Serif" font-size="10.00">+ getQueue()</text>
<text text-anchor="start" x="202" y="-356" font-family="Helvetica,sans-Serif" font-size="10.00"># mainFunction()</text>
<text text-anchor="start" x="202" y="-345" font-family="Helvetica,sans-Serif" font-size="10.00"># run()</text>
</a>
</g>
</g>
<!-- Node5&#45;&gt;Node6 -->
<g id="edge7" class="edge">
<title>Node5&#45;&gt;Node6</title>
<path fill="none" stroke="midnightblue" d="M236.96,-516.18C238.36,-513.11 239.72,-510.04 241,-507 248.62,-488.93 255.07,-468.47 260.13,-450.03"/>
<polygon fill="none" stroke="midnightblue" points="233.7,-514.88 232.58,-525.41 240.03,-517.87 233.7,-514.88"/>
</g>
<!-- Node6&#45;&gt;Node2 -->
<g id="edge6" class="edge">
<title>Node6&#45;&gt;Node2</title>
<path fill="none" stroke="orange" d="M240.81,-328.79C230.03,-307.28 218.11,-283.52 207.71,-262.76"/>
<polygon fill="orange" stroke="orange" points="237.74,-330.48 245.35,-337.85 244,-327.34 237.74,-330.48"/>
<text text-anchor="middle" x="271.5" y="-284" font-family="Helvetica,sans-Serif" font-size="10.00"> &lt; MQTT_Message &gt;</text>
</g>
</g>
</svg>
