<?xml version="1.0" encoding="UTF-8" standalone="no"?>
<!DOCTYPE svg PUBLIC "-//W3C//DTD SVG 1.1//EN"
 "http://www.w3.org/Graphics/SVG/1.1/DTD/svg11.dtd">
<!-- Generated by graphviz version 2.43.0 (0)
 -->
<!-- Title: SensorControllerBase Pages: 1 -->
<svg width="378pt" height="810pt"
 viewBox="0.00 0.00 377.50 810.00" xmlns="http://www.w3.org/2000/svg" xmlns:xlink="http://www.w3.org/1999/xlink">
<g id="graph0" class="graph" transform="scale(1 1) rotate(0) translate(4 806)">
<title>SensorControllerBase</title>
<!-- Node1 -->
<g id="node1" class="node">
<title>Node1</title>
<g id="a_node1"><a xlink:title=" ">
<polygon fill="#bfbfbf" stroke="black" points="106,-298.5 106,-542.5 255,-542.5 255,-298.5 106,-298.5"/>
<text text-anchor="middle" x="180.5" y="-530.5" font-family="Helvetica,sans-Serif" font-size="10.00">SensorControllerBase</text>
<polyline fill="none" stroke="black" points="106,-523.5 255,-523.5 "/>
<text text-anchor="start" x="114" y="-511.5" font-family="Helvetica,sans-Serif" font-size="10.00"># m_buffer_raw</text>
<text text-anchor="start" x="114" y="-500.5" font-family="Helvetica,sans-Serif" font-size="10.00"># m_buffer_external</text>
<text text-anchor="start" x="114" y="-489.5" font-family="Helvetica,sans-Serif" font-size="10.00"># m_want_data_flag</text>
<text text-anchor="start" x="114" y="-478.5" font-family="Helvetica,sans-Serif" font-size="10.00"># m_data_ready_flag</text>
<text text-anchor="start" x="114" y="-467.5" font-family="Helvetica,sans-Serif" font-size="10.00"># m_delay</text>
<text text-anchor="start" x="114" y="-456.5" font-family="Helvetica,sans-Serif" font-size="10.00"># m_error_id</text>
<text text-anchor="start" x="114" y="-445.5" font-family="Helvetica,sans-Serif" font-size="10.00">&#45; m_mqtt</text>
<polyline fill="none" stroke="black" points="106,-438.5 255,-438.5 "/>
<text text-anchor="start" x="114" y="-426.5" font-family="Helvetica,sans-Serif" font-size="10.00">+ SensorControllerBase()</text>
<text text-anchor="start" x="114" y="-415.5" font-family="Helvetica,sans-Serif" font-size="10.00">+ ~SensorControllerBase()</text>
<text text-anchor="start" x="114" y="-404.5" font-family="Helvetica,sans-Serif" font-size="10.00">+ setWantDataTrue()</text>
<text text-anchor="start" x="114" y="-393.5" font-family="Helvetica,sans-Serif" font-size="10.00">+ getSafeBuffer()</text>
<text text-anchor="start" x="114" y="-382.5" font-family="Helvetica,sans-Serif" font-size="10.00">+ isDataReady()</text>
<text text-anchor="start" x="114" y="-371.5" font-family="Helvetica,sans-Serif" font-size="10.00">+ setDataReady()</text>
<text text-anchor="start" x="114" y="-360.5" font-family="Helvetica,sans-Serif" font-size="10.00"># setDataReadyTrue()</text>
<text text-anchor="start" x="114" y="-349.5" font-family="Helvetica,sans-Serif" font-size="10.00"># postData()</text>
<text text-anchor="start" x="114" y="-338.5" font-family="Helvetica,sans-Serif" font-size="10.00"># postError()</text>
<text text-anchor="start" x="114" y="-327.5" font-family="Helvetica,sans-Serif" font-size="10.00"># main_function()</text>
<text text-anchor="start" x="114" y="-316.5" font-family="Helvetica,sans-Serif" font-size="10.00">&#45; setWantData()</text>
<text text-anchor="start" x="114" y="-305.5" font-family="Helvetica,sans-Serif" font-size="10.00">&#45; run()</text>
</a>
</g>
</g>
<!-- Node3 -->
<g id="node3" class="node">
<title>Node3</title>
<g id="a_node3"><a xlink:href="../../d3/dab/class_distance_sensor_controller.html" target="_top" xlink:title=" ">
<polygon fill="none" stroke="black" points="0,-149.5 0,-261.5 167,-261.5 167,-149.5 0,-149.5"/>
<text text-anchor="middle" x="83.5" y="-249.5" font-family="Helvetica,sans-Serif" font-size="10.00">DistanceSensorController</text>
<polyline fill="none" stroke="black" points="0,-242.5 167,-242.5 "/>
<text text-anchor="start" x="8" y="-230.5" font-family="Helvetica,sans-Serif" font-size="10.00">&#45; m_time_between_adc</text>
<text text-anchor="start" x="8" y="-219.5" font-family="Helvetica,sans-Serif" font-size="10.00">_measurements</text>
<text text-anchor="start" x="8" y="-208.5" font-family="Helvetica,sans-Serif" font-size="10.00">&#45; m_adc</text>
<polyline fill="none" stroke="black" points="0,-201.5 167,-201.5 "/>
<text text-anchor="start" x="8" y="-189.5" font-family="Helvetica,sans-Serif" font-size="10.00">+ DistanceSensorController()</text>
<text text-anchor="start" x="8" y="-178.5" font-family="Helvetica,sans-Serif" font-size="10.00">+ ~DistanceSensorController()</text>
<text text-anchor="start" x="8" y="-167.5" font-family="Helvetica,sans-Serif" font-size="10.00"># main_function()</text>
<text text-anchor="start" x="8" y="-156.5" font-family="Helvetica,sans-Serif" font-size="10.00">&#45; updateInternalBuffer()</text>
</a>
</g>
</g>
<!-- Node1&#45;&gt;Node3 -->
<g id="edge2" class="edge">
<title>Node1&#45;&gt;Node3</title>
<path fill="none" stroke="midnightblue" d="M121.12,-289.12C116.76,-279.53 112.52,-270.22 108.55,-261.51"/>
<polygon fill="none" stroke="midnightblue" points="118.01,-290.73 125.34,-298.38 124.38,-287.83 118.01,-290.73"/>
</g>
<!-- Node5 -->
<g id="node5" class="node">
<title>Node5</title>
<g id="a_node5"><a xlink:href="../../d3/d1b/class_sensor_controller_base___m_o_c_k.html" target="_top" xlink:title=" ">
<polygon fill="none" stroke="black" points="185.5,-166 185.5,-245 369.5,-245 369.5,-166 185.5,-166"/>
<text text-anchor="middle" x="277.5" y="-233" font-family="Helvetica,sans-Serif" font-size="10.00">SensorControllerBase_MOCK</text>
<polyline fill="none" stroke="black" points="185.5,-226 369.5,-226 "/>
<text text-anchor="middle" x="277.5" y="-214" font-family="Helvetica,sans-Serif" font-size="10.00"> </text>
<polyline fill="none" stroke="black" points="185.5,-207 369.5,-207 "/>
<text text-anchor="start" x="193.5" y="-195" font-family="Helvetica,sans-Serif" font-size="10.00">+ SensorControllerBase_MOCK()</text>
<text text-anchor="start" x="193.5" y="-184" font-family="Helvetica,sans-Serif" font-size="10.00">+ ~SensorControllerBase_MOCK()</text>
<text text-anchor="start" x="193.5" y="-173" font-family="Helvetica,sans-Serif" font-size="10.00">&#45; main_function()</text>
</a>
</g>
</g>
<!-- Node1&#45;&gt;Node5 -->
<g id="edge4" class="edge">
<title>Node1&#45;&gt;Node5</title>
<path fill="none" stroke="midnightblue" d="M239.95,-288.94C247.19,-273.05 254.09,-257.92 259.94,-245.05"/>
<polygon fill="none" stroke="midnightblue" points="236.62,-287.83 235.66,-298.38 242.99,-290.73 236.62,-287.83"/>
</g>
<!-- Node2 -->
<g id="node2" class="node">
<title>Node2</title>
<g id="a_node2"><a xlink:href="../../d7/d6d/class_task.html" target="_top" xlink:title="Encapsulate a runnable task.">
<polygon fill="none" stroke="black" points="131.5,-579.5 131.5,-801.5 229.5,-801.5 229.5,-579.5 131.5,-579.5"/>
<text text-anchor="middle" x="180.5" y="-789.5" font-family="Helvetica,sans-Serif" font-size="10.00">Task</text>
<polyline fill="none" stroke="black" points="131.5,-782.5 229.5,-782.5 "/>
<text text-anchor="start" x="139.5" y="-770.5" font-family="Helvetica,sans-Serif" font-size="10.00">&#45; m_handle</text>
<text text-anchor="start" x="139.5" y="-759.5" font-family="Helvetica,sans-Serif" font-size="10.00">&#45; m_taskName</text>
<text text-anchor="start" x="139.5" y="-748.5" font-family="Helvetica,sans-Serif" font-size="10.00">&#45; m_stackSize</text>
<text text-anchor="start" x="139.5" y="-737.5" font-family="Helvetica,sans-Serif" font-size="10.00">&#45; m_priority</text>
<text text-anchor="start" x="139.5" y="-726.5" font-family="Helvetica,sans-Serif" font-size="10.00">&#45; m_taskData</text>
<text text-anchor="start" x="139.5" y="-715.5" font-family="Helvetica,sans-Serif" font-size="10.00">&#45; m_coreId</text>
<polyline fill="none" stroke="black" points="131.5,-708.5 229.5,-708.5 "/>
<text text-anchor="start" x="139.5" y="-696.5" font-family="Helvetica,sans-Serif" font-size="10.00">+ Task()</text>
<text text-anchor="start" x="139.5" y="-685.5" font-family="Helvetica,sans-Serif" font-size="10.00">+ ~Task()</text>
<text text-anchor="start" x="139.5" y="-674.5" font-family="Helvetica,sans-Serif" font-size="10.00">+ setStackSize()</text>
<text text-anchor="start" x="139.5" y="-663.5" font-family="Helvetica,sans-Serif" font-size="10.00">+ setPriority()</text>
<text text-anchor="start" x="139.5" y="-652.5" font-family="Helvetica,sans-Serif" font-size="10.00">+ setName()</text>
<text text-anchor="start" x="139.5" y="-641.5" font-family="Helvetica,sans-Serif" font-size="10.00">+ setCore()</text>
<text text-anchor="start" x="139.5" y="-630.5" font-family="Helvetica,sans-Serif" font-size="10.00">+ start()</text>
<text text-anchor="start" x="139.5" y="-619.5" font-family="Helvetica,sans-Serif" font-size="10.00">+ stop()</text>
<text text-anchor="start" x="139.5" y="-608.5" font-family="Helvetica,sans-Serif" font-size="10.00">+ run()</text>
<text text-anchor="start" x="139.5" y="-597.5" font-family="Helvetica,sans-Serif" font-size="10.00">+ delay()</text>
<text text-anchor="start" x="139.5" y="-586.5" font-family="Helvetica,sans-Serif" font-size="10.00">&#45; runTask()</text>
</a>
</g>
</g>
<!-- Node2&#45;&gt;Node1 -->
<g id="edge1" class="edge">
<title>Node2&#45;&gt;Node1</title>
<path fill="none" stroke="midnightblue" d="M180.5,-569.05C180.5,-560.25 180.5,-551.36 180.5,-542.56"/>
<polygon fill="none" stroke="midnightblue" points="177,-569.33 180.5,-579.33 184,-569.33 177,-569.33"/>
</g>
<!-- Node4 -->
<g id="node4" class="node">
<title>Node4</title>
<g id="a_node4"><a xlink:href="../../d8/d2b/class_distance_sensor_controller___h_w___t_e_s_t.html" target="_top" xlink:title=" ">
<polygon fill="none" stroke="black" points="3.5,-0.5 3.5,-112.5 163.5,-112.5 163.5,-0.5 3.5,-0.5"/>
<text text-anchor="start" x="11.5" y="-100.5" font-family="Helvetica,sans-Serif" font-size="10.00">DistanceSensorController</text>
<text text-anchor="middle" x="83.5" y="-89.5" font-family="Helvetica,sans-Serif" font-size="10.00">_HW_TEST</text>
<polyline fill="none" stroke="black" points="3.5,-82.5 163.5,-82.5 "/>
<text text-anchor="start" x="11.5" y="-70.5" font-family="Helvetica,sans-Serif" font-size="10.00">&#45; m_test_pin</text>
<polyline fill="none" stroke="black" points="3.5,-63.5 163.5,-63.5 "/>
<text text-anchor="start" x="11.5" y="-51.5" font-family="Helvetica,sans-Serif" font-size="10.00">+ DistanceSensorController</text>
<text text-anchor="start" x="11.5" y="-40.5" font-family="Helvetica,sans-Serif" font-size="10.00">_HW_TEST()</text>
<text text-anchor="start" x="11.5" y="-29.5" font-family="Helvetica,sans-Serif" font-size="10.00">+ ~DistanceSensorController</text>
<text text-anchor="start" x="11.5" y="-18.5" font-family="Helvetica,sans-Serif" font-size="10.00">_HW_TEST()</text>
<text text-anchor="start" x="11.5" y="-7.5" font-family="Helvetica,sans-Serif" font-size="10.00">&#45; main_function()</text>
</a>
</g>
</g>
<!-- Node3&#45;&gt;Node4 -->
<g id="edge3" class="edge">
<title>Node3&#45;&gt;Node4</title>
<path fill="none" stroke="midnightblue" d="M83.5,-139.18C83.5,-130.43 83.5,-121.52 83.5,-112.96"/>
<polygon fill="none" stroke="midnightblue" points="80,-139.34 83.5,-149.34 87,-139.34 80,-139.34"/>
</g>
</g>
</svg>
