<?xml version="1.0" encoding="UTF-8" standalone="no"?>
<!DOCTYPE svg PUBLIC "-//W3C//DTD SVG 1.1//EN"
 "http://www.w3.org/Graphics/SVG/1.1/DTD/svg11.dtd">
<!-- Generated by graphviz version 2.43.0 (0)
 -->
<!-- Title: PWMBase&lt; T, U &gt; Pages: 1 -->
<svg width="252pt" height="536pt"
 viewBox="0.00 0.00 251.50 536.00" xmlns="http://www.w3.org/2000/svg" xmlns:xlink="http://www.w3.org/1999/xlink">
<g id="graph0" class="graph" transform="scale(1 1) rotate(0) translate(4 532)">
<title>PWMBase&lt; T, U &gt;</title>
<!-- Node1 -->
<g id="node1" class="node">
<title>Node1</title>
<g id="a_node1"><a xlink:title=" ">
<polygon fill="#bfbfbf" stroke="black" points="82.5,-0.5 82.5,-101.5 189.5,-101.5 189.5,-0.5 82.5,-0.5"/>
<text text-anchor="middle" x="136" y="-89.5" font-family="Helvetica,sans-Serif" font-size="10.00">PWMBase&lt; T, U &gt;</text>
<polyline fill="none" stroke="black" points="82.5,-82.5 189.5,-82.5 "/>
<text text-anchor="start" x="90.5" y="-70.5" font-family="Helvetica,sans-Serif" font-size="10.00"># m_hal</text>
<polyline fill="none" stroke="black" points="82.5,-63.5 189.5,-63.5 "/>
<text text-anchor="start" x="90.5" y="-51.5" font-family="Helvetica,sans-Serif" font-size="10.00">+ PWMBase()</text>
<text text-anchor="start" x="90.5" y="-40.5" font-family="Helvetica,sans-Serif" font-size="10.00">+ ~PWMBase()</text>
<text text-anchor="start" x="90.5" y="-29.5" font-family="Helvetica,sans-Serif" font-size="10.00">+ setDutyCycle()</text>
<text text-anchor="start" x="90.5" y="-18.5" font-family="Helvetica,sans-Serif" font-size="10.00">+ setFrequency()</text>
<text text-anchor="start" x="90.5" y="-7.5" font-family="Helvetica,sans-Serif" font-size="10.00">&#45; stop()</text>
</a>
</g>
</g>
<!-- Node2 -->
<g id="node2" class="node">
<title>Node2</title>
<g id="a_node2"><a xlink:href="../../dd/d84/class_fault___handler.html" target="_top" xlink:title=" ">
<polygon fill="none" stroke="black" points="75,-149.5 75,-294.5 197,-294.5 197,-149.5 75,-149.5"/>
<text text-anchor="middle" x="136" y="-282.5" font-family="Helvetica,sans-Serif" font-size="10.00">Fault_Handler</text>
<polyline fill="none" stroke="black" points="75,-275.5 197,-275.5 "/>
<text text-anchor="middle" x="136" y="-263.5" font-family="Helvetica,sans-Serif" font-size="10.00"> </text>
<polyline fill="none" stroke="black" points="75,-256.5 197,-256.5 "/>
<text text-anchor="start" x="83" y="-244.5" font-family="Helvetica,sans-Serif" font-size="10.00">+ Fault_Handler()</text>
<text text-anchor="start" x="83" y="-233.5" font-family="Helvetica,sans-Serif" font-size="10.00">+ ~Fault_Handler()</text>
<text text-anchor="start" x="83" y="-222.5" font-family="Helvetica,sans-Serif" font-size="10.00">+ handleFault()</text>
<text text-anchor="start" x="83" y="-211.5" font-family="Helvetica,sans-Serif" font-size="10.00">+ resetFaultCounter()</text>
<text text-anchor="start" x="83" y="-200.5" font-family="Helvetica,sans-Serif" font-size="10.00">&#45; countUp()</text>
<text text-anchor="start" x="83" y="-189.5" font-family="Helvetica,sans-Serif" font-size="10.00">&#45; handle()</text>
<text text-anchor="start" x="83" y="-178.5" font-family="Helvetica,sans-Serif" font-size="10.00">&#45; toString()</text>
<text text-anchor="start" x="83" y="-167.5" font-family="Helvetica,sans-Serif" font-size="10.00">&#45; severity2string()</text>
<text text-anchor="start" x="83" y="-156.5" font-family="Helvetica,sans-Serif" font-size="10.00">&#45; check_value()</text>
</a>
</g>
</g>
<!-- Node2&#45;&gt;Node1 -->
<g id="edge1" class="edge">
<title>Node2&#45;&gt;Node1</title>
<path fill="none" stroke="#404040" d="M136,-149.33C136,-137.5 136,-125.33 136,-113.78"/>
<polygon fill="none" stroke="#404040" points="136,-113.52 132,-107.52 136,-101.52 140,-107.52 136,-113.52"/>
<text text-anchor="middle" x="179" y="-123" font-family="Helvetica,sans-Serif" font-size="10.00"> #m_faulthanlder</text>
</g>
<!-- Node3 -->
<g id="node3" class="node">
<title>Node3</title>
<g id="a_node3"><a xlink:title="STL class.">
<polygon fill="none" stroke="#bfbfbf" points="19.5,-353.5 19.5,-410.5 84.5,-410.5 84.5,-353.5 19.5,-353.5"/>
<text text-anchor="middle" x="52" y="-398.5" font-family="Helvetica,sans-Serif" font-size="10.00">std::string</text>
<polyline fill="none" stroke="#bfbfbf" points="19.5,-391.5 84.5,-391.5 "/>
<text text-anchor="middle" x="52" y="-379.5" font-family="Helvetica,sans-Serif" font-size="10.00"> </text>
<polyline fill="none" stroke="#bfbfbf" points="19.5,-372.5 84.5,-372.5 "/>
<text text-anchor="middle" x="52" y="-360.5" font-family="Helvetica,sans-Serif" font-size="10.00"> </text>
</a>
</g>
</g>
<!-- Node3&#45;&gt;Node2 -->
<g id="edge2" class="edge">
<title>Node3&#45;&gt;Node2</title>
<path fill="none" stroke="#404040" d="M66.63,-353.48C73.83,-339.93 82.94,-322.81 92.16,-305.47"/>
<polygon fill="none" stroke="#404040" points="92.26,-305.26 91.55,-298.09 97.9,-294.67 98.61,-301.84 92.26,-305.26"/>
<text text-anchor="middle" x="112" y="-316" font-family="Helvetica,sans-Serif" font-size="10.00"> &#45;m_name</text>
</g>
<!-- Node4 -->
<g id="node4" class="node">
<title>Node4</title>
<g id="a_node4"><a xlink:title="STL class.">
<polygon fill="none" stroke="#bfbfbf" points="0,-459.5 0,-527.5 104,-527.5 104,-459.5 0,-459.5"/>
<text text-anchor="start" x="8" y="-515.5" font-family="Helvetica,sans-Serif" font-size="10.00">std::basic_string&lt;</text>
<text text-anchor="middle" x="52" y="-504.5" font-family="Helvetica,sans-Serif" font-size="10.00"> char &gt;</text>
<polyline fill="none" stroke="#bfbfbf" points="0,-497.5 104,-497.5 "/>
<text text-anchor="middle" x="52" y="-485.5" font-family="Helvetica,sans-Serif" font-size="10.00"> </text>
<polyline fill="none" stroke="#bfbfbf" points="0,-478.5 104,-478.5 "/>
<text text-anchor="middle" x="52" y="-466.5" font-family="Helvetica,sans-Serif" font-size="10.00"> </text>
</a>
</g>
</g>
<!-- Node4&#45;&gt;Node3 -->
<g id="edge3" class="edge">
<title>Node4&#45;&gt;Node3</title>
<path fill="none" stroke="midnightblue" d="M52,-449.16C52,-436.13 52,-422.21 52,-410.51"/>
<polygon fill="none" stroke="midnightblue" points="48.5,-449.35 52,-459.35 55.5,-449.35 48.5,-449.35"/>
</g>
<!-- Node5 -->
<g id="node5" class="node">
<title>Node5</title>
<g id="a_node5"><a xlink:href="../../dd/d84/class_fault___handler.html#da/dec/struct_fault___handler_1_1counters__t" target="_top" xlink:title=" ">
<polygon fill="none" stroke="black" points="102.5,-342.5 102.5,-421.5 243.5,-421.5 243.5,-342.5 102.5,-342.5"/>
<text text-anchor="middle" x="173" y="-409.5" font-family="Helvetica,sans-Serif" font-size="10.00">Fault_Handler::counters_t</text>
<polyline fill="none" stroke="black" points="102.5,-402.5 243.5,-402.5 "/>
<text text-anchor="start" x="110.5" y="-390.5" font-family="Helvetica,sans-Serif" font-size="10.00">+ low</text>
<text text-anchor="start" x="110.5" y="-379.5" font-family="Helvetica,sans-Serif" font-size="10.00">+ medium</text>
<text text-anchor="start" x="110.5" y="-368.5" font-family="Helvetica,sans-Serif" font-size="10.00">+ high</text>
<polyline fill="none" stroke="black" points="102.5,-361.5 243.5,-361.5 "/>
<text text-anchor="middle" x="173" y="-349.5" font-family="Helvetica,sans-Serif" font-size="10.00"> </text>
</a>
</g>
</g>
<!-- Node5&#45;&gt;Node2 -->
<g id="edge4" class="edge">
<title>Node5&#45;&gt;Node2</title>
<path fill="none" stroke="#404040" d="M163.95,-342.35C161.39,-331.41 158.5,-319.06 155.57,-306.56"/>
<polygon fill="none" stroke="#404040" points="155.5,-306.25 150.23,-301.32 152.76,-294.57 158.02,-299.5 155.5,-306.25"/>
<text text-anchor="middle" x="190" y="-316" font-family="Helvetica,sans-Serif" font-size="10.00"> &#45;m_counters</text>
</g>
</g>
</svg>
