<?xml version="1.0" encoding="UTF-8" standalone="no"?>
<!DOCTYPE svg PUBLIC "-//W3C//DTD SVG 1.1//EN"
 "http://www.w3.org/Graphics/SVG/1.1/DTD/svg11.dtd">
<!-- Generated by graphviz version 2.43.0 (0)
 -->
<!-- Title: ActiveCurrentSensor Pages: 1 -->
<!--zoomable 1575 -->
<svg id="main" version="1.1" xmlns="http://www.w3.org/2000/svg" xmlns:xlink="http://www.w3.org/1999/xlink" xml:space="preserve" onload="init(evt)">
<style type="text/css"><![CDATA[
.edge:hover path { stroke: red; }
.edge:hover polygon { stroke: red; fill: red; }
]]></style>
<script type="text/javascript"><![CDATA[
var edges = document.getElementsByTagName('g');
if (edges && edges.length) {
  for (var i=0;i<edges.length;i++) {
    if (edges[i].id.substr(0,4)=='edge') {
      edges[i].setAttribute('class','edge');
    }
  }
}
]]></script>
        <defs>
                <circle id="rim" cx="0" cy="0" r="7"/>
                <circle id="rim2" cx="0" cy="0" r="3.5"/>
                <g id="zoomPlus">
                        <use xlink:href="#rim" fill="#404040">
                                <set attributeName="fill" to="#808080" begin="zoomplus.mouseover" end="zoomplus.mouseout"/>
                        </use>
                        <path d="M-4,0h8M0,-4v8" fill="none" stroke="white" stroke-width="1.5" pointer-events="none"/>
                </g>
                <g id="zoomMin">
                        <use xlink:href="#rim" fill="#404040">
                                <set attributeName="fill" to="#808080" begin="zoomminus.mouseover" end="zoomminus.mouseout"/>
                        </use>
                        <path d="M-4,0h8" fill="none" stroke="white" stroke-width="1.5" pointer-events="none"/>
                </g>
                <g id="dirArrow">
                        <path fill="none" stroke="white" stroke-width="1.5" d="M0,-3.0v7 M-2.5,-0.5L0,-3.0L2.5,-0.5"/>
                </g>
               <g id="resetDef">
                       <use xlink:href="#rim2" fill="#404040">
                               <set attributeName="fill" to="#808080" begin="reset.mouseover" end="reset.mouseout"/>
                       </use>
               </g>
        </defs>

<script type="text/javascript">
var viewWidth = 1052;
var viewHeight = 1575;
var sectionId = 'dynsection-1';
</script>
<script xlink:href="../../svgpan.js"/>
<svg id="graph" class="graph">
<g id="viewport">
<title>ActiveCurrentSensor</title>
<!-- Node1 -->
<g id="node1" class="node">
<title>Node1</title>
<g id="a_node1"><a xlink:title=" ">
<polygon fill="#bfbfbf" stroke="black" points="739,-0.5 739,-112.5 882,-112.5 882,-0.5 739,-0.5"/>
<text text-anchor="middle" x="810.5" y="-100.5" font-family="Helvetica,sans-Serif" font-size="10.00">ActiveCurrentSensor</text>
<polyline fill="none" stroke="black" points="739,-93.5 882,-93.5 "/>
<text text-anchor="middle" x="810.5" y="-81.5" font-family="Helvetica,sans-Serif" font-size="10.00"> </text>
<polyline fill="none" stroke="black" points="739,-74.5 882,-74.5 "/>
<text text-anchor="start" x="747" y="-62.5" font-family="Helvetica,sans-Serif" font-size="10.00">+ ActiveCurrentSensor()</text>
<text text-anchor="start" x="747" y="-51.5" font-family="Helvetica,sans-Serif" font-size="10.00">+ ~ActiveCurrentSensor()</text>
<text text-anchor="start" x="747" y="-40.5" font-family="Helvetica,sans-Serif" font-size="10.00">+ run()</text>
<text text-anchor="start" x="747" y="-29.5" font-family="Helvetica,sans-Serif" font-size="10.00">+ activateQueue()</text>
<text text-anchor="start" x="747" y="-18.5" font-family="Helvetica,sans-Serif" font-size="10.00">+ isRunning()</text>
<text text-anchor="start" x="747" y="-7.5" font-family="Helvetica,sans-Serif" font-size="10.00">&#45; main_function()</text>
</a>
</g>
</g>
<!-- Node2 -->
<g id="node2" class="node">
<title>Node2</title>
<g id="a_node2"><a xlink:href="../../d7/d6d/class_task.html" target="_top" xlink:title="Encapsulate a runnable task.">
<polygon fill="none" stroke="black" points="892.5,-958.5 892.5,-1169.5 990.5,-1169.5 990.5,-958.5 892.5,-958.5"/>
<text text-anchor="middle" x="941.5" y="-1157.5" font-family="Helvetica,sans-Serif" font-size="10.00">Task</text>
<polyline fill="none" stroke="black" points="892.5,-1150.5 990.5,-1150.5 "/>
<text text-anchor="start" x="900.5" y="-1138.5" font-family="Helvetica,sans-Serif" font-size="10.00">&#45; m_handle</text>
<text text-anchor="start" x="900.5" y="-1127.5" font-family="Helvetica,sans-Serif" font-size="10.00">&#45; m_stackSize</text>
<text text-anchor="start" x="900.5" y="-1116.5" font-family="Helvetica,sans-Serif" font-size="10.00">&#45; m_priority</text>
<text text-anchor="start" x="900.5" y="-1105.5" font-family="Helvetica,sans-Serif" font-size="10.00">&#45; m_taskData</text>
<text text-anchor="start" x="900.5" y="-1094.5" font-family="Helvetica,sans-Serif" font-size="10.00">&#45; m_coreId</text>
<polyline fill="none" stroke="black" points="892.5,-1087.5 990.5,-1087.5 "/>
<text text-anchor="start" x="900.5" y="-1075.5" font-family="Helvetica,sans-Serif" font-size="10.00">+ Task()</text>
<text text-anchor="start" x="900.5" y="-1064.5" font-family="Helvetica,sans-Serif" font-size="10.00">+ ~Task()</text>
<text text-anchor="start" x="900.5" y="-1053.5" font-family="Helvetica,sans-Serif" font-size="10.00">+ setStackSize()</text>
<text text-anchor="start" x="900.5" y="-1042.5" font-family="Helvetica,sans-Serif" font-size="10.00">+ setPriority()</text>
<text text-anchor="start" x="900.5" y="-1031.5" font-family="Helvetica,sans-Serif" font-size="10.00">+ setName()</text>
<text text-anchor="start" x="900.5" y="-1020.5" font-family="Helvetica,sans-Serif" font-size="10.00">+ setCore()</text>
<text text-anchor="start" x="900.5" y="-1009.5" font-family="Helvetica,sans-Serif" font-size="10.00">+ start()</text>
<text text-anchor="start" x="900.5" y="-998.5" font-family="Helvetica,sans-Serif" font-size="10.00">+ stop()</text>
<text text-anchor="start" x="900.5" y="-987.5" font-family="Helvetica,sans-Serif" font-size="10.00">+ run()</text>
<text text-anchor="start" x="900.5" y="-976.5" font-family="Helvetica,sans-Serif" font-size="10.00">+ delay()</text>
<text text-anchor="start" x="900.5" y="-965.5" font-family="Helvetica,sans-Serif" font-size="10.00">&#45; runTask()</text>
</a>
</g>
</g>
<!-- Node2&#45;&gt;Node1 -->
<g id="edge1" class="edge">
<title>Node2&#45;&gt;Node1</title>
<path fill="none" stroke="midnightblue" d="M926.48,-948.29C920.27,-891.46 914.5,-821.73 914.5,-759 914.5,-759 914.5,-759 914.5,-276 914.5,-223.53 914.43,-207.67 892.5,-160 884.88,-143.44 874.02,-127.22 862.68,-112.74"/>
<polygon fill="none" stroke="midnightblue" points="923.02,-948.84 927.6,-958.39 929.98,-948.06 923.02,-948.84"/>
</g>
<!-- Node3 -->
<g id="node3" class="node">
<title>Node3</title>
<g id="a_node3"><a xlink:title="STL class.">
<polygon fill="none" stroke="#bfbfbf" points="715,-1392.5 715,-1449.5 780,-1449.5 780,-1392.5 715,-1392.5"/>
<text text-anchor="middle" x="747.5" y="-1437.5" font-family="Helvetica,sans-Serif" font-size="10.00">std::string</text>
<polyline fill="none" stroke="#bfbfbf" points="715,-1430.5 780,-1430.5 "/>
<text text-anchor="middle" x="747.5" y="-1418.5" font-family="Helvetica,sans-Serif" font-size="10.00"> </text>
<polyline fill="none" stroke="#bfbfbf" points="715,-1411.5 780,-1411.5 "/>
<text text-anchor="middle" x="747.5" y="-1399.5" font-family="Helvetica,sans-Serif" font-size="10.00"> </text>
</a>
</g>
</g>
<!-- Node3&#45;&gt;Node2 -->
<g id="edge2" class="edge">
<title>Node3&#45;&gt;Node2</title>
<path fill="none" stroke="#404040" d="M780.09,-1412.61C807.14,-1404.8 844.61,-1389.78 866.5,-1363 907.96,-1312.28 926.9,-1241.66 935.39,-1181.89"/>
<polygon fill="none" stroke="#404040" points="935.43,-1181.6 932.25,-1175.13 937,-1169.71 940.18,-1176.18 935.43,-1181.6"/>
<text text-anchor="middle" x="910" y="-1355" font-family="Helvetica,sans-Serif" font-size="10.00"> &#45;m_taskName</text>
</g>
<!-- Node10 -->
<g id="node10" class="node">
<title>Node10</title>
<g id="a_node10"><a xlink:href="../../dd/d84/class_fault___handler.html" target="_top" xlink:title=" ">
<polygon fill="none" stroke="black" points="267.5,-1188.5 267.5,-1333.5 389.5,-1333.5 389.5,-1188.5 267.5,-1188.5"/>
<text text-anchor="middle" x="328.5" y="-1321.5" font-family="Helvetica,sans-Serif" font-size="10.00">Fault_Handler</text>
<polyline fill="none" stroke="black" points="267.5,-1314.5 389.5,-1314.5 "/>
<text text-anchor="middle" x="328.5" y="-1302.5" font-family="Helvetica,sans-Serif" font-size="10.00"> </text>
<polyline fill="none" stroke="black" points="267.5,-1295.5 389.5,-1295.5 "/>
<text text-anchor="start" x="275.5" y="-1283.5" font-family="Helvetica,sans-Serif" font-size="10.00">+ Fault_Handler()</text>
<text text-anchor="start" x="275.5" y="-1272.5" font-family="Helvetica,sans-Serif" font-size="10.00">+ ~Fault_Handler()</text>
<text text-anchor="start" x="275.5" y="-1261.5" font-family="Helvetica,sans-Serif" font-size="10.00">+ handleFault()</text>
<text text-anchor="start" x="275.5" y="-1250.5" font-family="Helvetica,sans-Serif" font-size="10.00">+ resetFaultCounter()</text>
<text text-anchor="start" x="275.5" y="-1239.5" font-family="Helvetica,sans-Serif" font-size="10.00">&#45; countUp()</text>
<text text-anchor="start" x="275.5" y="-1228.5" font-family="Helvetica,sans-Serif" font-size="10.00">&#45; handle()</text>
<text text-anchor="start" x="275.5" y="-1217.5" font-family="Helvetica,sans-Serif" font-size="10.00">&#45; toString()</text>
<text text-anchor="start" x="275.5" y="-1206.5" font-family="Helvetica,sans-Serif" font-size="10.00">&#45; severity2string()</text>
<text text-anchor="start" x="275.5" y="-1195.5" font-family="Helvetica,sans-Serif" font-size="10.00">&#45; check_value()</text>
</a>
</g>
</g>
<!-- Node3&#45;&gt;Node10 -->
<g id="edge10" class="edge">
<title>Node3&#45;&gt;Node10</title>
<path fill="none" stroke="#404040" d="M714.97,-1407.73C647.94,-1382.46 493.04,-1324.05 400.99,-1289.33"/>
<polygon fill="none" stroke="#404040" points="400.76,-1289.25 393.74,-1290.88 389.54,-1285.02 396.56,-1283.39 400.76,-1289.25"/>
<text text-anchor="middle" x="613.5" y="-1355" font-family="Helvetica,sans-Serif" font-size="10.00"> &#45;m_name</text>
</g>
<!-- Node13 -->
<g id="node13" class="node">
<title>Node13</title>
<g id="a_node13"><a xlink:href="../../d4/d70/class_a_d_c___a_p_i___e_s_p32.html#d0/d55/struct_a_d_c___a_p_i___e_s_p32_1_1config" target="_top" xlink:title=" ">
<polygon fill="none" stroke="black" points="50.5,-718.5 50.5,-797.5 180.5,-797.5 180.5,-718.5 50.5,-718.5"/>
<text text-anchor="middle" x="115.5" y="-785.5" font-family="Helvetica,sans-Serif" font-size="10.00">ADC_API_ESP32::config</text>
<polyline fill="none" stroke="black" points="50.5,-778.5 180.5,-778.5 "/>
<text text-anchor="start" x="58.5" y="-766.5" font-family="Helvetica,sans-Serif" font-size="10.00">+ samples</text>
<text text-anchor="start" x="58.5" y="-755.5" font-family="Helvetica,sans-Serif" font-size="10.00">+ channel</text>
<text text-anchor="start" x="58.5" y="-744.5" font-family="Helvetica,sans-Serif" font-size="10.00">+ vRef</text>
<polyline fill="none" stroke="black" points="50.5,-737.5 180.5,-737.5 "/>
<text text-anchor="middle" x="115.5" y="-725.5" font-family="Helvetica,sans-Serif" font-size="10.00"> </text>
</a>
</g>
</g>
<!-- Node3&#45;&gt;Node13 -->
<g id="edge15" class="edge">
<title>Node3&#45;&gt;Node13</title>
<path fill="none" stroke="#404040" d="M714.82,-1419.45C610.69,-1416.98 289.38,-1403.75 218.5,-1334 74.1,-1191.91 92.34,-921.45 107.32,-809.48"/>
<polygon fill="none" stroke="#404040" points="107.33,-809.46 104.19,-802.96 108.98,-797.57 112.12,-804.07 107.33,-809.46"/>
<text text-anchor="middle" x="238.5" y="-1258.5" font-family="Helvetica,sans-Serif" font-size="10.00"> +name</text>
</g>
<!-- Node14 -->
<g id="node14" class="node">
<title>Node14</title>
<g id="a_node14"><a xlink:href="../../d5/d81/class_m_q_t_t___message.html" target="_top" xlink:title=" ">
<polygon fill="none" stroke="black" points="643,-160.5 643,-393.5 804,-393.5 804,-160.5 643,-160.5"/>
<text text-anchor="middle" x="723.5" y="-381.5" font-family="Helvetica,sans-Serif" font-size="10.00">MQTT_Message</text>
<polyline fill="none" stroke="black" points="643,-374.5 804,-374.5 "/>
<text text-anchor="start" x="651" y="-362.5" font-family="Helvetica,sans-Serif" font-size="10.00">&#45; m_entity_id</text>
<text text-anchor="start" x="651" y="-351.5" font-family="Helvetica,sans-Serif" font-size="10.00">&#45; m_buffer_size</text>
<polyline fill="none" stroke="black" points="643,-344.5 804,-344.5 "/>
<text text-anchor="start" x="651" y="-332.5" font-family="Helvetica,sans-Serif" font-size="10.00">+ MQTT_Message()</text>
<text text-anchor="start" x="651" y="-321.5" font-family="Helvetica,sans-Serif" font-size="10.00">+ MQTT_Message()</text>
<text text-anchor="start" x="651" y="-310.5" font-family="Helvetica,sans-Serif" font-size="10.00">+ ~MQTT_Message()</text>
<text text-anchor="start" x="651" y="-299.5" font-family="Helvetica,sans-Serif" font-size="10.00">+ addData()</text>
<text text-anchor="start" x="651" y="-288.5" font-family="Helvetica,sans-Serif" font-size="10.00">+ addData()</text>
<text text-anchor="start" x="651" y="-277.5" font-family="Helvetica,sans-Serif" font-size="10.00">+ addData_f()</text>
<text text-anchor="start" x="651" y="-266.5" font-family="Helvetica,sans-Serif" font-size="10.00">+ isEmpty()</text>
<text text-anchor="start" x="651" y="-255.5" font-family="Helvetica,sans-Serif" font-size="10.00">+ toString()</text>
<text text-anchor="start" x="651" y="-244.5" font-family="Helvetica,sans-Serif" font-size="10.00">+ clear()</text>
<text text-anchor="start" x="651" y="-233.5" font-family="Helvetica,sans-Serif" font-size="10.00">+ getBufferSize()</text>
<text text-anchor="start" x="651" y="-222.5" font-family="Helvetica,sans-Serif" font-size="10.00">+ append()</text>
<text text-anchor="start" x="651" y="-211.5" font-family="Helvetica,sans-Serif" font-size="10.00">+ getData()</text>
<text text-anchor="start" x="651" y="-200.5" font-family="Helvetica,sans-Serif" font-size="10.00">+ getMaxAllowedBufferSize()</text>
<text text-anchor="start" x="651" y="-189.5" font-family="Helvetica,sans-Serif" font-size="10.00">+ getEntityId()</text>
<text text-anchor="start" x="651" y="-178.5" font-family="Helvetica,sans-Serif" font-size="10.00">+ copyTo()</text>
<text text-anchor="start" x="651" y="-167.5" font-family="Helvetica,sans-Serif" font-size="10.00">+ construct()</text>
</a>
</g>
</g>
<!-- Node3&#45;&gt;Node14 -->
<g id="edge17" class="edge">
<title>Node3&#45;&gt;Node14</title>
<path fill="none" stroke="#404040" d="M747.5,-1392.31C747.5,-1360.77 747.5,-1307.67 747.5,-1262 747.5,-1262 747.5,-1262 747.5,-637 747.5,-560.25 741.97,-474.47 736.22,-406.01"/>
<polygon fill="none" stroke="#404040" points="736.21,-405.83 731.71,-400.19 735.18,-393.87 739.68,-399.51 736.21,-405.83"/>
<text text-anchor="middle" x="786" y="-875.5" font-family="Helvetica,sans-Serif" font-size="10.00"> &#45;m_semaphore</text>
</g>
<!-- Node17 -->
<g id="node17" class="node">
<title>Node17</title>
<g id="a_node17"><a xlink:href="../../d5/de7/classmqtt__api__v2.html" target="_top" xlink:title=" ">
<polygon fill="none" stroke="black" points="791.5,-412.5 791.5,-557.5 895.5,-557.5 895.5,-412.5 791.5,-412.5"/>
<text text-anchor="middle" x="843.5" y="-545.5" font-family="Helvetica,sans-Serif" font-size="10.00">mqtt_api_v2</text>
<polyline fill="none" stroke="black" points="791.5,-538.5 895.5,-538.5 "/>
<text text-anchor="middle" x="843.5" y="-526.5" font-family="Helvetica,sans-Serif" font-size="10.00"> </text>
<polyline fill="none" stroke="black" points="791.5,-519.5 895.5,-519.5 "/>
<text text-anchor="start" x="799.5" y="-507.5" font-family="Helvetica,sans-Serif" font-size="10.00">+ mqtt_api_v2()</text>
<text text-anchor="start" x="799.5" y="-496.5" font-family="Helvetica,sans-Serif" font-size="10.00">+ ~mqtt_api_v2()</text>
<text text-anchor="start" x="799.5" y="-485.5" font-family="Helvetica,sans-Serif" font-size="10.00">+ publish()</text>
<text text-anchor="start" x="799.5" y="-474.5" font-family="Helvetica,sans-Serif" font-size="10.00">+ subscribe()</text>
<text text-anchor="start" x="799.5" y="-463.5" font-family="Helvetica,sans-Serif" font-size="10.00">+ subscribe()</text>
<text text-anchor="start" x="799.5" y="-452.5" font-family="Helvetica,sans-Serif" font-size="10.00">+ getData()</text>
<text text-anchor="start" x="799.5" y="-441.5" font-family="Helvetica,sans-Serif" font-size="10.00">&#45; connect()</text>
<text text-anchor="start" x="799.5" y="-430.5" font-family="Helvetica,sans-Serif" font-size="10.00">&#45; disconnect()</text>
<text text-anchor="start" x="799.5" y="-419.5" font-family="Helvetica,sans-Serif" font-size="10.00">&#45; handle_event()</text>
</a>
</g>
</g>
<!-- Node3&#45;&gt;Node17 -->
<g id="edge22" class="edge">
<title>Node3&#45;&gt;Node17</title>
<path fill="none" stroke="#404040" d="M780.15,-1392.78C810.97,-1363.85 852.5,-1315.03 852.5,-1262 852.5,-1262 852.5,-1262 852.5,-757 852.5,-694.22 850.06,-623.31 847.72,-569.77"/>
<polygon fill="none" stroke="#404040" points="847.71,-569.57 843.45,-563.76 847.17,-557.59 851.44,-563.4 847.71,-569.57"/>
<text text-anchor="middle" x="870" y="-1061.5" font-family="Helvetica,sans-Serif" font-size="10.00"> &#45;m_uri</text>
</g>
<!-- Node4 -->
<g id="node4" class="node">
<title>Node4</title>
<g id="a_node4"><a xlink:title="STL class.">
<polygon fill="none" stroke="#bfbfbf" points="695.5,-1498.5 695.5,-1566.5 799.5,-1566.5 799.5,-1498.5 695.5,-1498.5"/>
<text text-anchor="start" x="703.5" y="-1554.5" font-family="Helvetica,sans-Serif" font-size="10.00">std::basic_string&lt;</text>
<text text-anchor="middle" x="747.5" y="-1543.5" font-family="Helvetica,sans-Serif" font-size="10.00"> char &gt;</text>
<polyline fill="none" stroke="#bfbfbf" points="695.5,-1536.5 799.5,-1536.5 "/>
<text text-anchor="middle" x="747.5" y="-1524.5" font-family="Helvetica,sans-Serif" font-size="10.00"> </text>
<polyline fill="none" stroke="#bfbfbf" points="695.5,-1517.5 799.5,-1517.5 "/>
<text text-anchor="middle" x="747.5" y="-1505.5" font-family="Helvetica,sans-Serif" font-size="10.00"> </text>
</a>
</g>
</g>
<!-- Node4&#45;&gt;Node3 -->
<g id="edge3" class="edge">
<title>Node4&#45;&gt;Node3</title>
<path fill="none" stroke="midnightblue" d="M747.5,-1488.16C747.5,-1475.13 747.5,-1461.21 747.5,-1449.51"/>
<polygon fill="none" stroke="midnightblue" points="744,-1488.35 747.5,-1498.35 751,-1488.35 744,-1488.35"/>
</g>
<!-- Node5 -->
<g id="node5" class="node">
<title>Node5</title>
<g id="a_node5"><a xlink:title=" ">
<polygon fill="none" stroke="#bfbfbf" points="493,-456.5 493,-513.5 608,-513.5 608,-456.5 493,-456.5"/>
<text text-anchor="middle" x="550.5" y="-501.5" font-family="Helvetica,sans-Serif" font-size="10.00">std::atomic&lt; bool &gt;</text>
<polyline fill="none" stroke="#bfbfbf" points="493,-494.5 608,-494.5 "/>
<text text-anchor="start" x="501" y="-482.5" font-family="Helvetica,sans-Serif" font-size="10.00">+ ptr</text>
<polyline fill="none" stroke="#bfbfbf" points="493,-475.5 608,-475.5 "/>
<text text-anchor="middle" x="550.5" y="-463.5" font-family="Helvetica,sans-Serif" font-size="10.00"> </text>
</a>
</g>
</g>
<!-- Node5&#45;&gt;Node1 -->
<g id="edge4" class="edge">
<title>Node5&#45;&gt;Node1</title>
<path fill="none" stroke="#404040" d="M542.5,-456.18C526.98,-395.98 499.6,-251.67 563.5,-160 600.54,-106.86 670.57,-81.2 726.63,-68.85"/>
<polygon fill="none" stroke="#404040" points="726.97,-68.78 732.03,-63.64 738.72,-66.34 733.66,-71.47 726.97,-68.78"/>
<text text-anchor="middle" x="598.5" y="-274.5" font-family="Helvetica,sans-Serif" font-size="10.00"> &#45;m_isRunning</text>
</g>
<!-- Node6 -->
<g id="node6" class="node">
<title>Node6</title>
<g id="a_node6"><a xlink:title="STL class.">
<polygon fill="none" stroke="#bfbfbf" points="495.5,-849.5 495.5,-906.5 595.5,-906.5 595.5,-849.5 495.5,-849.5"/>
<text text-anchor="middle" x="545.5" y="-894.5" font-family="Helvetica,sans-Serif" font-size="10.00">std::atomic&lt; T &gt;</text>
<polyline fill="none" stroke="#bfbfbf" points="495.5,-887.5 595.5,-887.5 "/>
<text text-anchor="middle" x="545.5" y="-875.5" font-family="Helvetica,sans-Serif" font-size="10.00"> </text>
<polyline fill="none" stroke="#bfbfbf" points="495.5,-868.5 595.5,-868.5 "/>
<text text-anchor="middle" x="545.5" y="-856.5" font-family="Helvetica,sans-Serif" font-size="10.00"> </text>
</a>
</g>
</g>
<!-- Node6&#45;&gt;Node5 -->
<g id="edge5" class="edge">
<title>Node6&#45;&gt;Node5</title>
<path fill="none" stroke="orange" d="M545.99,-838.79C546.99,-760.24 549.27,-582.25 550.15,-513.66"/>
<polygon fill="orange" stroke="orange" points="542.48,-839.15 545.86,-849.19 549.48,-839.24 542.48,-839.15"/>
<text text-anchor="middle" x="571" y="-755.5" font-family="Helvetica,sans-Serif" font-size="10.00"> &lt; bool &gt;</text>
</g>
<!-- Node7 -->
<g id="node7" class="node">
<title>Node7</title>
<g id="a_node7"><a xlink:title=" ">
<polygon fill="none" stroke="#bfbfbf" points="561,-1232.5 561,-1289.5 590,-1289.5 590,-1232.5 561,-1232.5"/>
<text text-anchor="middle" x="575.5" y="-1277.5" font-family="Helvetica,sans-Serif" font-size="10.00">T</text>
<polyline fill="none" stroke="#bfbfbf" points="561,-1270.5 590,-1270.5 "/>
<text text-anchor="middle" x="575.5" y="-1258.5" font-family="Helvetica,sans-Serif" font-size="10.00"> </text>
<polyline fill="none" stroke="#bfbfbf" points="561,-1251.5 590,-1251.5 "/>
<text text-anchor="middle" x="575.5" y="-1239.5" font-family="Helvetica,sans-Serif" font-size="10.00"> </text>
</a>
</g>
</g>
<!-- Node7&#45;&gt;Node6 -->
<g id="edge6" class="edge">
<title>Node7&#45;&gt;Node6</title>
<path fill="none" stroke="#404040" d="M573.32,-1232.29C568.07,-1165.62 554.72,-996.07 548.62,-918.64"/>
<polygon fill="none" stroke="#404040" points="548.62,-918.57 544.16,-912.9 547.67,-906.6 552.13,-912.27 548.62,-918.57"/>
<text text-anchor="middle" x="581" y="-1061.5" font-family="Helvetica,sans-Serif" font-size="10.00"> +ptr</text>
</g>
<!-- Node16 -->
<g id="node16" class="node">
<title>Node16</title>
<g id="a_node16"><a xlink:title="STL class.">
<polygon fill="none" stroke="#bfbfbf" points="614,-849.5 614,-906.5 711,-906.5 711,-849.5 614,-849.5"/>
<text text-anchor="middle" x="662.5" y="-894.5" font-family="Helvetica,sans-Serif" font-size="10.00">std::vector&lt; T &gt;</text>
<polyline fill="none" stroke="#bfbfbf" points="614,-887.5 711,-887.5 "/>
<text text-anchor="middle" x="662.5" y="-875.5" font-family="Helvetica,sans-Serif" font-size="10.00"> </text>
<polyline fill="none" stroke="#bfbfbf" points="614,-868.5 711,-868.5 "/>
<text text-anchor="middle" x="662.5" y="-856.5" font-family="Helvetica,sans-Serif" font-size="10.00"> </text>
</a>
</g>
</g>
<!-- Node7&#45;&gt;Node16 -->
<g id="edge20" class="edge">
<title>Node7&#45;&gt;Node16</title>
<path fill="none" stroke="#404040" d="M582.38,-1232.46C586.79,-1214.66 592.59,-1190.99 597.5,-1170 618.49,-1080.26 641.72,-974.6 653.93,-918.56"/>
<polygon fill="none" stroke="#404040" points="653.95,-918.45 651.32,-911.74 656.5,-906.73 659.13,-913.44 653.95,-918.45"/>
<text text-anchor="middle" x="673.5" y="-1061.5" font-family="Helvetica,sans-Serif" font-size="10.00"> +elements</text>
</g>
<!-- Node8 -->
<g id="node8" class="node">
<title>Node8</title>
<g id="a_node8"><a xlink:href="../../d4/d70/class_a_d_c___a_p_i___e_s_p32.html" target="_top" xlink:title=" ">
<polygon fill="none" stroke="black" points="236,-237.5 236,-316.5 357,-316.5 357,-237.5 236,-237.5"/>
<text text-anchor="middle" x="296.5" y="-304.5" font-family="Helvetica,sans-Serif" font-size="10.00">ADC_API_ESP32</text>
<polyline fill="none" stroke="black" points="236,-297.5 357,-297.5 "/>
<text text-anchor="middle" x="296.5" y="-285.5" font-family="Helvetica,sans-Serif" font-size="10.00"> </text>
<polyline fill="none" stroke="black" points="236,-278.5 357,-278.5 "/>
<text text-anchor="start" x="244" y="-266.5" font-family="Helvetica,sans-Serif" font-size="10.00">+ ADC_API_ESP32()</text>
<text text-anchor="start" x="244" y="-255.5" font-family="Helvetica,sans-Serif" font-size="10.00">+ ~ADC_API_ESP32()</text>
<text text-anchor="start" x="244" y="-244.5" font-family="Helvetica,sans-Serif" font-size="10.00">+ measureValue()</text>
</a>
</g>
</g>
<!-- Node8&#45;&gt;Node1 -->
<g id="edge7" class="edge">
<title>Node8&#45;&gt;Node1</title>
<path fill="none" stroke="#404040" d="M339.47,-237.43C378.36,-204.5 438.58,-158.26 498.5,-131 571.9,-97.6 662.18,-78.47 726.7,-68.14"/>
<polygon fill="none" stroke="#404040" points="726.99,-68.1 732.3,-63.23 738.84,-66.26 733.53,-71.13 726.99,-68.1"/>
<text text-anchor="middle" x="518.5" y="-134" font-family="Helvetica,sans-Serif" font-size="10.00"> &#45;m_adc</text>
</g>
<!-- Node9 -->
<g id="node9" class="node">
<title>Node9</title>
<g id="a_node9"><a xlink:href="../../dc/d23/class_a_d_c_base.html" target="_top" xlink:title=" ">
<polygon fill="none" stroke="black" points="207.5,-576.5 207.5,-699.5 385.5,-699.5 385.5,-576.5 207.5,-576.5"/>
<text text-anchor="middle" x="296.5" y="-687.5" font-family="Helvetica,sans-Serif" font-size="10.00">ADCBase&lt; uint32_t &gt;</text>
<polyline fill="none" stroke="black" points="207.5,-680.5 385.5,-680.5 "/>
<text text-anchor="start" x="215.5" y="-668.5" font-family="Helvetica,sans-Serif" font-size="10.00"># m_number_of_samples</text>
<text text-anchor="start" x="215.5" y="-657.5" font-family="Helvetica,sans-Serif" font-size="10.00">&#45; minimum_number_of_samples</text>
<text text-anchor="start" x="215.5" y="-646.5" font-family="Helvetica,sans-Serif" font-size="10.00">&#45; maximum_number_of_samples</text>
<polyline fill="none" stroke="black" points="207.5,-639.5 385.5,-639.5 "/>
<text text-anchor="start" x="215.5" y="-627.5" font-family="Helvetica,sans-Serif" font-size="10.00">+ ADCBase()</text>
<text text-anchor="start" x="215.5" y="-616.5" font-family="Helvetica,sans-Serif" font-size="10.00">+ ~ADCBase()</text>
<text text-anchor="start" x="215.5" y="-605.5" font-family="Helvetica,sans-Serif" font-size="10.00">+ measureValue()</text>
<text text-anchor="start" x="215.5" y="-594.5" font-family="Helvetica,sans-Serif" font-size="10.00">+ setSampleNumber()</text>
<text text-anchor="start" x="215.5" y="-583.5" font-family="Helvetica,sans-Serif" font-size="10.00">+ getSampleNumber()</text>
</a>
</g>
</g>
<!-- Node9&#45;&gt;Node8 -->
<g id="edge8" class="edge">
<title>Node9&#45;&gt;Node8</title>
<path fill="none" stroke="midnightblue" d="M296.5,-565.83C296.5,-491.06 296.5,-376.24 296.5,-316.74"/>
<polygon fill="none" stroke="midnightblue" points="293,-566.1 296.5,-576.1 300,-566.1 293,-566.1"/>
</g>
<!-- Node10&#45;&gt;Node9 -->
<g id="edge9" class="edge">
<title>Node10&#45;&gt;Node9</title>
<path fill="none" stroke="#404040" d="M285.2,-1188.48C237.67,-1101.04 172.16,-948.36 204.5,-816 213.51,-779.13 231.66,-741.4 249.48,-710.29"/>
<polygon fill="none" stroke="#404040" points="249.69,-709.93 249.27,-702.74 255.75,-699.58 256.17,-706.78 249.69,-709.93"/>
<text text-anchor="middle" x="247.5" y="-875.5" font-family="Helvetica,sans-Serif" font-size="10.00"> #m_faulthanlder</text>
</g>
<!-- Node12 -->
<g id="node12" class="node">
<title>Node12</title>
<g id="a_node12"><a xlink:href="../../dc/d23/class_a_d_c_base.html" target="_top" xlink:title=" ">
<polygon fill="none" stroke="black" points="299.5,-816.5 299.5,-939.5 477.5,-939.5 477.5,-816.5 299.5,-816.5"/>
<text text-anchor="middle" x="388.5" y="-927.5" font-family="Helvetica,sans-Serif" font-size="10.00">ADCBase&lt; T &gt;</text>
<polyline fill="none" stroke="black" points="299.5,-920.5 477.5,-920.5 "/>
<text text-anchor="start" x="307.5" y="-908.5" font-family="Helvetica,sans-Serif" font-size="10.00"># m_number_of_samples</text>
<text text-anchor="start" x="307.5" y="-897.5" font-family="Helvetica,sans-Serif" font-size="10.00">&#45; minimum_number_of_samples</text>
<text text-anchor="start" x="307.5" y="-886.5" font-family="Helvetica,sans-Serif" font-size="10.00">&#45; maximum_number_of_samples</text>
<polyline fill="none" stroke="black" points="299.5,-879.5 477.5,-879.5 "/>
<text text-anchor="start" x="307.5" y="-867.5" font-family="Helvetica,sans-Serif" font-size="10.00">+ ADCBase()</text>
<text text-anchor="start" x="307.5" y="-856.5" font-family="Helvetica,sans-Serif" font-size="10.00">+ ~ADCBase()</text>
<text text-anchor="start" x="307.5" y="-845.5" font-family="Helvetica,sans-Serif" font-size="10.00">+ measureValue()</text>
<text text-anchor="start" x="307.5" y="-834.5" font-family="Helvetica,sans-Serif" font-size="10.00">+ setSampleNumber()</text>
<text text-anchor="start" x="307.5" y="-823.5" font-family="Helvetica,sans-Serif" font-size="10.00">+ getSampleNumber()</text>
</a>
</g>
</g>
<!-- Node10&#45;&gt;Node12 -->
<g id="edge13" class="edge">
<title>Node10&#45;&gt;Node12</title>
<path fill="none" stroke="#404040" d="M339.79,-1188.34C350.45,-1120.62 366.37,-1019.55 377.08,-951.55"/>
<polygon fill="none" stroke="#404040" points="377.08,-951.52 374.06,-944.97 378.95,-939.67 381.96,-946.22 377.08,-951.52"/>
<text text-anchor="middle" x="419.5" y="-1061.5" font-family="Helvetica,sans-Serif" font-size="10.00"> #m_faulthanlder</text>
</g>
<!-- Node11 -->
<g id="node11" class="node">
<title>Node11</title>
<g id="a_node11"><a xlink:href="../../dd/d84/class_fault___handler.html#da/dec/struct_fault___handler_1_1counters__t" target="_top" xlink:title=" ">
<polygon fill="none" stroke="black" points="0,-1381.5 0,-1460.5 141,-1460.5 141,-1381.5 0,-1381.5"/>
<text text-anchor="middle" x="70.5" y="-1448.5" font-family="Helvetica,sans-Serif" font-size="10.00">Fault_Handler::counters_t</text>
<polyline fill="none" stroke="black" points="0,-1441.5 141,-1441.5 "/>
<text text-anchor="start" x="8" y="-1429.5" font-family="Helvetica,sans-Serif" font-size="10.00">+ low</text>
<text text-anchor="start" x="8" y="-1418.5" font-family="Helvetica,sans-Serif" font-size="10.00">+ medium</text>
<text text-anchor="start" x="8" y="-1407.5" font-family="Helvetica,sans-Serif" font-size="10.00">+ high</text>
<polyline fill="none" stroke="black" points="0,-1400.5 141,-1400.5 "/>
<text text-anchor="middle" x="70.5" y="-1388.5" font-family="Helvetica,sans-Serif" font-size="10.00"> </text>
</a>
</g>
</g>
<!-- Node11&#45;&gt;Node10 -->
<g id="edge11" class="edge">
<title>Node11&#45;&gt;Node10</title>
<path fill="none" stroke="#404040" d="M133.61,-1381.35C170.84,-1358.55 218.07,-1329.63 256.72,-1305.96"/>
<polygon fill="none" stroke="#404040" points="257.14,-1305.7 260.17,-1299.16 267.37,-1299.44 264.34,-1305.98 257.14,-1305.7"/>
<text text-anchor="middle" x="208.5" y="-1355" font-family="Helvetica,sans-Serif" font-size="10.00"> &#45;m_counters</text>
</g>
<!-- Node12&#45;&gt;Node9 -->
<g id="edge12" class="edge">
<title>Node12&#45;&gt;Node9</title>
<path fill="none" stroke="orange" d="M361.4,-806.9C348.23,-772.83 332.56,-732.28 319.91,-699.56"/>
<polygon fill="orange" stroke="orange" points="358.18,-808.26 365.05,-816.33 364.71,-805.74 358.18,-808.26"/>
<text text-anchor="middle" x="389.5" y="-755.5" font-family="Helvetica,sans-Serif" font-size="10.00"> &lt; uint32_t &gt;</text>
</g>
<!-- Node13&#45;&gt;Node8 -->
<g id="edge14" class="edge">
<title>Node13&#45;&gt;Node8</title>
<path fill="none" stroke="#404040" d="M121.48,-718.18C127.8,-681.05 139.14,-623.8 155.5,-576 186.58,-485.19 237.44,-385.48 268.83,-327.5"/>
<polygon fill="none" stroke="#404040" points="268.91,-327.36 268.27,-320.18 274.65,-316.82 275.29,-324 268.91,-327.36"/>
<text text-anchor="middle" x="177" y="-635.5" font-family="Helvetica,sans-Serif" font-size="10.00"> &#45;m_conf</text>
</g>
<!-- Node14&#45;&gt;Node1 -->
<g id="edge16" class="edge">
<title>Node14&#45;&gt;Node1</title>
<path fill="none" stroke="#404040" d="M769.55,-160.35C774.5,-147.91 779.41,-135.59 784.01,-124.02"/>
<polygon fill="none" stroke="#404040" points="784.07,-123.88 782.57,-116.82 788.51,-112.73 790.01,-119.78 784.07,-123.88"/>
<text text-anchor="middle" x="802" y="-134" font-family="Helvetica,sans-Serif" font-size="10.00"> &#45;m_msg</text>
</g>
<!-- Node15 -->
<g id="node15" class="node">
<title>Node15</title>
<g id="a_node15"><a xlink:title=" ">
<polygon fill="none" stroke="#bfbfbf" points="578.5,-604 578.5,-672 714.5,-672 714.5,-604 578.5,-604"/>
<text text-anchor="start" x="586.5" y="-660" font-family="Helvetica,sans-Serif" font-size="10.00">std::vector&lt; std::pair</text>
<text text-anchor="middle" x="646.5" y="-649" font-family="Helvetica,sans-Serif" font-size="10.00">&lt; uint64_t, uint64_t &gt; &gt;</text>
<polyline fill="none" stroke="#bfbfbf" points="578.5,-642 714.5,-642 "/>
<text text-anchor="start" x="586.5" y="-630" font-family="Helvetica,sans-Serif" font-size="10.00">+ elements</text>
<polyline fill="none" stroke="#bfbfbf" points="578.5,-623 714.5,-623 "/>
<text text-anchor="middle" x="646.5" y="-611" font-family="Helvetica,sans-Serif" font-size="10.00"> </text>
</a>
</g>
</g>
<!-- Node15&#45;&gt;Node14 -->
<g id="edge18" class="edge">
<title>Node15&#45;&gt;Node14</title>
<path fill="none" stroke="#404040" d="M652.22,-603.71C659.94,-559.68 674.45,-479.75 689.5,-412 689.98,-409.85 690.46,-407.69 690.96,-405.51"/>
<polygon fill="none" stroke="#404040" points="690.97,-405.44 688.43,-398.69 693.67,-393.75 696.22,-400.49 690.97,-405.44"/>
<text text-anchor="middle" x="711.5" y="-482.5" font-family="Helvetica,sans-Serif" font-size="10.00"> &#45;m_data</text>
</g>
<!-- Node16&#45;&gt;Node15 -->
<g id="edge19" class="edge">
<title>Node16&#45;&gt;Node15</title>
<path fill="none" stroke="orange" d="M647.58,-839.84C643.08,-826.83 638.74,-811.97 636.5,-798 629.58,-754.85 635.01,-704.4 640.18,-672.09"/>
<polygon fill="orange" stroke="orange" points="644.33,-841.16 651.02,-849.39 650.92,-838.79 644.33,-841.16"/>
<text text-anchor="start" x="636.5" y="-761" font-family="Helvetica,sans-Serif" font-size="10.00"> &lt; std::pair&lt; uint64</text>
<text text-anchor="middle" x="685" y="-750" font-family="Helvetica,sans-Serif" font-size="10.00">_t, uint64_t &gt; &gt;</text>
</g>
<!-- Node17&#45;&gt;Node1 -->
<g id="edge21" class="edge">
<title>Node17&#45;&gt;Node1</title>
<path fill="none" stroke="#404040" d="M843.53,-412.36C842.74,-340.82 839.29,-227.87 826.5,-131 826.23,-128.95 825.93,-126.88 825.61,-124.79"/>
<polygon fill="none" stroke="#404040" points="825.57,-124.54 820.62,-119.3 823.55,-112.71 828.5,-117.95 825.57,-124.54"/>
<text text-anchor="middle" x="865.5" y="-274.5" font-family="Helvetica,sans-Serif" font-size="10.00"> &#45;m_mqtt</text>
</g>
<!-- Node18 -->
<g id="node18" class="node">
<title>Node18</title>
<g id="a_node18"><a xlink:href="../../dd/d1c/class_free_r_t_o_s_1_1_queue.html" target="_top" xlink:title=" ">
<polygon fill="none" stroke="black" points="943,-232 943,-322 1044,-322 1044,-232 943,-232"/>
<text text-anchor="middle" x="993.5" y="-310" font-family="Helvetica,sans-Serif" font-size="10.00">FreeRTOS::Queue</text>
<polyline fill="none" stroke="black" points="943,-303 1044,-303 "/>
<text text-anchor="start" x="951" y="-291" font-family="Helvetica,sans-Serif" font-size="10.00">&#45; m_handle</text>
<polyline fill="none" stroke="black" points="943,-284 1044,-284 "/>
<text text-anchor="start" x="951" y="-272" font-family="Helvetica,sans-Serif" font-size="10.00">+ Queue()</text>
<text text-anchor="start" x="951" y="-261" font-family="Helvetica,sans-Serif" font-size="10.00">+ ~Queue()</text>
<text text-anchor="start" x="951" y="-250" font-family="Helvetica,sans-Serif" font-size="10.00">+ send()</text>
<text text-anchor="start" x="951" y="-239" font-family="Helvetica,sans-Serif" font-size="10.00">+ recieve()</text>
</a>
</g>
</g>
<!-- Node18&#45;&gt;Node1 -->
<g id="edge23" class="edge">
<title>Node18&#45;&gt;Node1</title>
<path fill="none" stroke="#404040" d="M981.31,-231.92C971.08,-201.03 953.99,-160.2 928.5,-131 918.19,-119.19 905.52,-108.64 892.35,-99.48"/>
<polygon fill="none" stroke="#404040" points="892.2,-99.38 884.99,-99.39 882.21,-92.74 889.42,-92.73 892.2,-99.38"/>
<text text-anchor="middle" x="962.5" y="-134" font-family="Helvetica,sans-Serif" font-size="10.00"> &#45;m_queue</text>
</g>
</g>
</svg>
        <g id="navigator" transform="translate(0 0)" fill="#404254">
                <rect fill="#f2f5e9" fill-opacity="0.5" stroke="#606060" stroke-width=".5" x="0" y="0" width="60" height="60"/>
                <use id="zoomplus" xlink:href="#zoomPlus" x="17" y="9" onmousedown="handleZoom(evt,'in')"/>
                <use id="zoomminus" xlink:href="#zoomMin" x="42" y="9" onmousedown="handleZoom(evt,'out')"/>
                <use id="reset" xlink:href="#resetDef" x="30" y="36" onmousedown="handleReset()"/>
                <g id="arrowUp" xlink:href="#dirArrow" transform="translate(30 24)" onmousedown="handlePan(0,-1)">
                  <use xlink:href="#rim" fill="#404040">
                        <set attributeName="fill" to="#808080" begin="arrowUp.mouseover" end="arrowUp.mouseout"/>
                  </use>
                  <path fill="none" stroke="white" stroke-width="1.5" d="M0,-3.0v7 M-2.5,-0.5L0,-3.0L2.5,-0.5"/>
                </g>
                <g id="arrowRight" xlink:href="#dirArrow" transform="rotate(90) translate(36 -43)" onmousedown="handlePan(1,0)">
                  <use xlink:href="#rim" fill="#404040">
                        <set attributeName="fill" to="#808080" begin="arrowRight.mouseover" end="arrowRight.mouseout"/>
                  </use>
                  <path fill="none" stroke="white" stroke-width="1.5" d="M0,-3.0v7 M-2.5,-0.5L0,-3.0L2.5,-0.5"/>
                </g>
                <g id="arrowDown" xlink:href="#dirArrow" transform="rotate(180) translate(-30 -48)" onmousedown="handlePan(0,1)">
                  <use xlink:href="#rim" fill="#404040">
                        <set attributeName="fill" to="#808080" begin="arrowDown.mouseover" end="arrowDown.mouseout"/>
                  </use>
                  <path fill="none" stroke="white" stroke-width="1.5" d="M0,-3.0v7 M-2.5,-0.5L0,-3.0L2.5,-0.5"/>
                </g>
                <g id="arrowLeft" xlink:href="#dirArrow" transform="rotate(270) translate(-36 17)" onmousedown="handlePan(-1,0)">
                  <use xlink:href="#rim" fill="#404040">
                        <set attributeName="fill" to="#808080" begin="arrowLeft.mouseover" end="arrowLeft.mouseout"/>
                  </use>
                  <path fill="none" stroke="white" stroke-width="1.5" d="M0,-3.0v7 M-2.5,-0.5L0,-3.0L2.5,-0.5"/>
                </g>
        </g>
        <svg viewBox="0 0 15 15" width="100%" height="30px" preserveAspectRatio="xMaxYMin meet">
         <g id="arrow_out" transform="scale(0.3 0.3)">
          <a xlink:href="class_active_current_sensor__coll__graph_org.svg" target="_base">
           <rect id="button" ry="5" rx="5" y="6" x="6" height="38" width="38"
                fill="#f2f5e9" fill-opacity="0.5" stroke="#606060" stroke-width="1.0"/>
           <path id="arrow"
             d="M 11.500037,31.436501 C 11.940474,20.09759 22.043105,11.32322 32.158766,21.979434 L 37.068811,17.246167 C 37.068811,17.246167 37.088388,32 37.088388,32 L 22.160133,31.978069 C 22.160133,31.978069 26.997745,27.140456 26.997745,27.140456 C 18.528582,18.264221 13.291696,25.230495 11.500037,31.436501 z"
             style="fill:#404040;"/>
          </a>
         </g>
        </svg>
</svg>
