<?xml version="1.0" encoding="UTF-8" standalone="no"?>
<!DOCTYPE svg PUBLIC "-//W3C//DTD SVG 1.1//EN"
 "http://www.w3.org/Graphics/SVG/1.1/DTD/svg11.dtd">
<!-- Generated by graphviz version 2.43.0 (0)
 -->
<!-- Title: Components/Objects/Rulebase/include/Timebased_rules.hpp Pages: 1 -->
<svg width="284pt" height="128pt"
 viewBox="0.00 0.00 283.50 128.00" xmlns="http://www.w3.org/2000/svg" xmlns:xlink="http://www.w3.org/1999/xlink">
<g id="graph0" class="graph" transform="scale(1 1) rotate(0) translate(4 124)">
<title>Components/Objects/Rulebase/include/Timebased_rules.hpp</title>
<!-- Node1 -->
<g id="node1" class="node">
<title>Node1</title>
<g id="a_node1"><a xlink:title=" ">
<polygon fill="#bfbfbf" stroke="black" points="62.5,-78.5 62.5,-119.5 222.5,-119.5 222.5,-78.5 62.5,-78.5"/>
<text text-anchor="start" x="70.5" y="-107.5" font-family="Helvetica,sans-Serif" font-size="10.00">Components/Objects</text>
<text text-anchor="start" x="70.5" y="-96.5" font-family="Helvetica,sans-Serif" font-size="10.00">/Rulebase/include/Timebased</text>
<text text-anchor="middle" x="142.5" y="-85.5" font-family="Helvetica,sans-Serif" font-size="10.00">_rules.hpp</text>
</a>
</g>
</g>
<!-- Node2 -->
<g id="node2" class="node">
<title>Node2</title>
<g id="a_node2"><a xlink:href="../../d8/d61/_timebased__rules_8cpp.html" target="_top" xlink:title=" ">
<polygon fill="none" stroke="black" points="0,-0.5 0,-41.5 139,-41.5 139,-0.5 0,-0.5"/>
<text text-anchor="start" x="8" y="-29.5" font-family="Helvetica,sans-Serif" font-size="10.00">Components/Objects</text>
<text text-anchor="start" x="8" y="-18.5" font-family="Helvetica,sans-Serif" font-size="10.00">/Rulebase/src/Timebased</text>
<text text-anchor="middle" x="69.5" y="-7.5" font-family="Helvetica,sans-Serif" font-size="10.00">_rules.cpp</text>
</a>
</g>
</g>
<!-- Node1&#45;&gt;Node2 -->
<g id="edge1" class="edge">
<title>Node1&#45;&gt;Node2</title>
<path fill="none" stroke="midnightblue" d="M116.76,-71.2C107.36,-61.42 96.91,-50.54 88.24,-41.51"/>
<polygon fill="midnightblue" stroke="midnightblue" points="114.25,-73.64 123.7,-78.43 119.3,-68.79 114.25,-73.64"/>
</g>
<!-- Node3 -->
<g id="node3" class="node">
<title>Node3</title>
<g id="a_node3"><a xlink:href="../../d1/def/rules__test_8cpp.html" target="_top" xlink:title=" ">
<polygon fill="none" stroke="black" points="157.5,-0.5 157.5,-41.5 275.5,-41.5 275.5,-0.5 157.5,-0.5"/>
<text text-anchor="start" x="165.5" y="-29.5" font-family="Helvetica,sans-Serif" font-size="10.00">Components/Objects</text>
<text text-anchor="start" x="165.5" y="-18.5" font-family="Helvetica,sans-Serif" font-size="10.00">/Rulebase/test/test</text>
<text text-anchor="middle" x="216.5" y="-7.5" font-family="Helvetica,sans-Serif" font-size="10.00">/rules_test.cpp</text>
</a>
</g>
</g>
<!-- Node1&#45;&gt;Node3 -->
<g id="edge2" class="edge">
<title>Node1&#45;&gt;Node3</title>
<path fill="none" stroke="midnightblue" d="M168.59,-71.2C178.12,-61.42 188.71,-50.54 197.51,-41.51"/>
<polygon fill="midnightblue" stroke="midnightblue" points="166.03,-68.82 161.56,-78.43 171.04,-73.71 166.03,-68.82"/>
</g>
</g>
</svg>
