<?xml version="1.0" encoding="UTF-8" standalone="no"?>
<!DOCTYPE svg PUBLIC "-//W3C//DTD SVG 1.1//EN"
 "http://www.w3.org/Graphics/SVG/1.1/DTD/svg11.dtd">
<!-- Generated by graphviz version 2.43.0 (0)
 -->
<!-- Title: Components/Sensor/esp32Cam/include/esp32Cam.hpp Pages: 1 -->
<svg width="364pt" height="106pt"
 viewBox="0.00 0.00 364.00 106.00" xmlns="http://www.w3.org/2000/svg" xmlns:xlink="http://www.w3.org/1999/xlink">
<g id="graph0" class="graph" transform="scale(1 1) rotate(0) translate(4 102)">
<title>Components/Sensor/esp32Cam/include/esp32Cam.hpp</title>
<!-- Node1 -->
<g id="node1" class="node">
<title>Node1</title>
<g id="a_node1"><a xlink:title=" ">
<polygon fill="#bfbfbf" stroke="black" points="93,-67.5 93,-97.5 262,-97.5 262,-67.5 93,-67.5"/>
<text text-anchor="start" x="101" y="-85.5" font-family="Helvetica,sans-Serif" font-size="10.00">Components/Sensor/esp32Cam</text>
<text text-anchor="middle" x="177.5" y="-74.5" font-family="Helvetica,sans-Serif" font-size="10.00">/include/esp32Cam.hpp</text>
</a>
</g>
</g>
<!-- Node2 -->
<g id="node2" class="node">
<title>Node2</title>
<g id="a_node2"><a xlink:href="../../d4/d54/esp32_cam_8cpp.html" target="_top" xlink:title=" ">
<polygon fill="none" stroke="black" points="0,-0.5 0,-30.5 169,-30.5 169,-0.5 0,-0.5"/>
<text text-anchor="start" x="8" y="-18.5" font-family="Helvetica,sans-Serif" font-size="10.00">Components/Sensor/esp32Cam</text>
<text text-anchor="middle" x="84.5" y="-7.5" font-family="Helvetica,sans-Serif" font-size="10.00">/src/esp32Cam.cpp</text>
</a>
</g>
</g>
<!-- Node1&#45;&gt;Node2 -->
<g id="edge1" class="edge">
<title>Node1&#45;&gt;Node2</title>
<path fill="none" stroke="midnightblue" d="M148.81,-61.45C134.51,-51.45 117.55,-39.6 104.64,-30.58"/>
<polygon fill="midnightblue" stroke="midnightblue" points="147.12,-64.54 157.32,-67.4 151.13,-58.8 147.12,-64.54"/>
</g>
<!-- Node3 -->
<g id="node3" class="node">
<title>Node3</title>
<g id="a_node3"><a xlink:href="../../dd/dbd/esp32_cam__test_8cpp.html" target="_top" xlink:title=" ">
<polygon fill="none" stroke="black" points="187,-0.5 187,-30.5 356,-30.5 356,-0.5 187,-0.5"/>
<text text-anchor="start" x="195" y="-18.5" font-family="Helvetica,sans-Serif" font-size="10.00">Components/Sensor/esp32Cam</text>
<text text-anchor="middle" x="271.5" y="-7.5" font-family="Helvetica,sans-Serif" font-size="10.00">/test/test/esp32Cam_test.cpp</text>
</a>
</g>
</g>
<!-- Node1&#45;&gt;Node3 -->
<g id="edge2" class="edge">
<title>Node1&#45;&gt;Node3</title>
<path fill="none" stroke="midnightblue" d="M206.49,-61.45C220.95,-51.45 238.09,-39.6 251.14,-30.58"/>
<polygon fill="midnightblue" stroke="midnightblue" points="204.13,-58.83 197.9,-67.4 208.11,-64.59 204.13,-58.83"/>
</g>
</g>
</svg>
