<?xml version="1.0" encoding="UTF-8" standalone="no"?>
<!DOCTYPE svg PUBLIC "-//W3C//DTD SVG 1.1//EN"
 "http://www.w3.org/Graphics/SVG/1.1/DTD/svg11.dtd">
<!-- Generated by graphviz version 2.43.0 (0)
 -->
<!-- Title: Components/Objects/DataBroker/include/DataBroker.hpp Pages: 1 -->
<!--zoomable 530 -->
<svg id="main" version="1.1" xmlns="http://www.w3.org/2000/svg" xmlns:xlink="http://www.w3.org/1999/xlink" xml:space="preserve" onload="init(evt)">
<style type="text/css"><![CDATA[
.edge:hover path { stroke: red; }
.edge:hover polygon { stroke: red; fill: red; }
]]></style>
<script type="text/javascript"><![CDATA[
var edges = document.getElementsByTagName('g');
if (edges && edges.length) {
  for (var i=0;i<edges.length;i++) {
    if (edges[i].id.substr(0,4)=='edge') {
      edges[i].setAttribute('class','edge');
    }
  }
}
]]></script>
        <defs>
                <circle id="rim" cx="0" cy="0" r="7"/>
                <circle id="rim2" cx="0" cy="0" r="3.5"/>
                <g id="zoomPlus">
                        <use xlink:href="#rim" fill="#404040">
                                <set attributeName="fill" to="#808080" begin="zoomplus.mouseover" end="zoomplus.mouseout"/>
                        </use>
                        <path d="M-4,0h8M0,-4v8" fill="none" stroke="white" stroke-width="1.5" pointer-events="none"/>
                </g>
                <g id="zoomMin">
                        <use xlink:href="#rim" fill="#404040">
                                <set attributeName="fill" to="#808080" begin="zoomminus.mouseover" end="zoomminus.mouseout"/>
                        </use>
                        <path d="M-4,0h8" fill="none" stroke="white" stroke-width="1.5" pointer-events="none"/>
                </g>
                <g id="dirArrow">
                        <path fill="none" stroke="white" stroke-width="1.5" d="M0,-3.0v7 M-2.5,-0.5L0,-3.0L2.5,-0.5"/>
                </g>
               <g id="resetDef">
                       <use xlink:href="#rim2" fill="#404040">
                               <set attributeName="fill" to="#808080" begin="reset.mouseover" end="reset.mouseout"/>
                       </use>
               </g>
        </defs>

<script type="text/javascript">
var viewWidth = 1674;
var viewHeight = 530;
var sectionId = 'dynsection-0';
</script>
<script xlink:href="../../svgpan.js"/>
<svg id="graph" class="graph">
<g id="viewport">
<title>Components/Objects/DataBroker/include/DataBroker.hpp</title>
<!-- Node1 -->
<g id="node1" class="node">
<title>Node1</title>
<g id="a_node1"><a xlink:title=" ">
<polygon fill="#bfbfbf" stroke="black" points="1071.5,-480.5 1071.5,-521.5 1189.5,-521.5 1189.5,-480.5 1071.5,-480.5"/>
<text text-anchor="start" x="1079.5" y="-509.5" font-family="Helvetica,sans-Serif" font-size="10.00">Components/Objects</text>
<text text-anchor="start" x="1079.5" y="-498.5" font-family="Helvetica,sans-Serif" font-size="10.00">/DataBroker/include</text>
<text text-anchor="middle" x="1130.5" y="-487.5" font-family="Helvetica,sans-Serif" font-size="10.00">/DataBroker.hpp</text>
</a>
</g>
</g>
<!-- Node2 -->
<g id="node2" class="node">
<title>Node2</title>
<g id="a_node2"><a xlink:href="../../da/d5f/_b_a_s_i_c_8hpp.html" target="_top" xlink:title=" ">
<polygon fill="none" stroke="black" points="1064.5,-56.5 1064.5,-86.5 1180.5,-86.5 1180.5,-56.5 1064.5,-56.5"/>
<text text-anchor="start" x="1072.5" y="-74.5" font-family="Helvetica,sans-Serif" font-size="10.00">../../../Global_Include</text>
<text text-anchor="middle" x="1122.5" y="-63.5" font-family="Helvetica,sans-Serif" font-size="10.00">/BASIC.hpp</text>
</a>
</g>
</g>
<!-- Node1&#45;&gt;Node2 -->
<g id="edge1" class="edge">
<title>Node1&#45;&gt;Node2</title>
<path fill="none" stroke="midnightblue" d="M1189.79,-490.12C1227.98,-481.9 1277.58,-467.62 1316.5,-444 1423.9,-378.83 1502.47,-299.28 1440.5,-190 1391.46,-103.52 1268.69,-80.01 1190.83,-74.02"/>
<polygon fill="midnightblue" stroke="midnightblue" points="1190.85,-70.51 1180.63,-73.31 1190.37,-77.49 1190.85,-70.51"/>
</g>
<!-- Node3 -->
<g id="node3" class="node">
<title>Node3</title>
<g id="a_node3"><a xlink:href="../../d3/deb/_general___error_8hpp.html" target="_top" xlink:title=" ">
<polygon fill="none" stroke="black" points="465.5,-56.5 465.5,-86.5 611.5,-86.5 611.5,-56.5 465.5,-56.5"/>
<text text-anchor="start" x="473.5" y="-74.5" font-family="Helvetica,sans-Serif" font-size="10.00">../../../Objects/ErrorHandler</text>
<text text-anchor="middle" x="538.5" y="-63.5" font-family="Helvetica,sans-Serif" font-size="10.00">/include/General_Error.hpp</text>
</a>
</g>
</g>
<!-- Node1&#45;&gt;Node3 -->
<g id="edge2" class="edge">
<title>Node1&#45;&gt;Node3</title>
<path fill="none" stroke="midnightblue" d="M1071.48,-499.56C955.77,-497.7 691.45,-488.46 474.5,-444 346.11,-417.69 194.5,-482.56 194.5,-351.5 194.5,-351.5 194.5,-351.5 194.5,-277 194.5,-202.88 200.76,-169.47 258.5,-123 266.26,-116.75 375.47,-98.32 455.16,-85.54"/>
<polygon fill="midnightblue" stroke="midnightblue" points="455.89,-88.97 465.21,-83.94 454.78,-82.06 455.89,-88.97"/>
</g>
<!-- Node5 -->
<g id="node5" class="node">
<title>Node5</title>
<g id="a_node5"><a xlink:title=" ">
<polygon fill="none" stroke="#bfbfbf" points="1448.5,-0.5 1448.5,-19.5 1508.5,-19.5 1508.5,-0.5 1448.5,-0.5"/>
<text text-anchor="middle" x="1478.5" y="-7.5" font-family="Helvetica,sans-Serif" font-size="10.00">iostream</text>
</a>
</g>
</g>
<!-- Node1&#45;&gt;Node5 -->
<g id="edge71" class="edge">
<title>Node1&#45;&gt;Node5</title>
<path fill="none" stroke="midnightblue" d="M1189.79,-492.77C1310.5,-476.38 1573.5,-431.5 1573.5,-351.5 1573.5,-351.5 1573.5,-351.5 1573.5,-137.5 1573.5,-88.93 1528.16,-47.09 1500.12,-25.87"/>
<polygon fill="midnightblue" stroke="midnightblue" points="1501.85,-22.79 1491.71,-19.72 1497.72,-28.44 1501.85,-22.79"/>
</g>
<!-- Node6 -->
<g id="node6" class="node">
<title>Node6</title>
<g id="a_node6"><a xlink:href="../../d9/d1c/_sensor_controller_base_8hpp.html" target="_top" xlink:title=" ">
<polygon fill="none" stroke="black" points="1038.5,-402.5 1038.5,-443.5 1222.5,-443.5 1222.5,-402.5 1038.5,-402.5"/>
<text text-anchor="start" x="1046.5" y="-431.5" font-family="Helvetica,sans-Serif" font-size="10.00">../../../Interfaces</text>
<text text-anchor="start" x="1046.5" y="-420.5" font-family="Helvetica,sans-Serif" font-size="10.00">/SensorControllerBase</text>
<text text-anchor="middle" x="1130.5" y="-409.5" font-family="Helvetica,sans-Serif" font-size="10.00">/include/SensorControllerBase.hpp</text>
</a>
</g>
</g>
<!-- Node1&#45;&gt;Node6 -->
<g id="edge5" class="edge">
<title>Node1&#45;&gt;Node6</title>
<path fill="none" stroke="midnightblue" d="M1130.5,-480.43C1130.5,-472.27 1130.5,-462.62 1130.5,-453.63"/>
<polygon fill="midnightblue" stroke="midnightblue" points="1134,-453.51 1130.5,-443.51 1127,-453.51 1134,-453.51"/>
</g>
<!-- Node10 -->
<g id="node10" class="node">
<title>Node10</title>
<g id="a_node10"><a xlink:href="../../d7/d60/_timeservice_8hpp.html" target="_top" xlink:title=" ">
<polygon fill="none" stroke="black" points="636,-190.5 636,-220.5 779,-220.5 779,-190.5 636,-190.5"/>
<text text-anchor="start" x="644" y="-208.5" font-family="Helvetica,sans-Serif" font-size="10.00">../../../Objects/Timeservice</text>
<text text-anchor="middle" x="707.5" y="-197.5" font-family="Helvetica,sans-Serif" font-size="10.00">/include/Timeservice.hpp</text>
</a>
</g>
</g>
<!-- Node1&#45;&gt;Node10 -->
<g id="edge67" class="edge">
<title>Node1&#45;&gt;Node10</title>
<path fill="none" stroke="midnightblue" d="M1071.29,-491.41C926.36,-468.89 561.84,-402.61 510.5,-299 502.21,-282.27 499.06,-271.75 510.5,-257 525,-238.32 578.27,-225.36 625.77,-217.25"/>
<polygon fill="midnightblue" stroke="midnightblue" points="626.51,-220.67 635.8,-215.59 625.37,-213.77 626.51,-220.67"/>
</g>
<!-- Node18 -->
<g id="node18" class="node">
<title>Node18</title>
<g id="a_node18"><a xlink:href="../../d5/dc5/_task_8h.html" target="_top" xlink:title=" ">
<polygon fill="none" stroke="black" points="267.5,-123.5 267.5,-153.5 387.5,-153.5 387.5,-123.5 267.5,-123.5"/>
<text text-anchor="start" x="275.5" y="-141.5" font-family="Helvetica,sans-Serif" font-size="10.00">../../../RTOS/FreeRTOS</text>
<text text-anchor="middle" x="327.5" y="-130.5" font-family="Helvetica,sans-Serif" font-size="10.00">/include/Task.h</text>
</a>
</g>
</g>
<!-- Node1&#45;&gt;Node18 -->
<g id="edge69" class="edge">
<title>Node1&#45;&gt;Node18</title>
<path fill="none" stroke="midnightblue" d="M1071.38,-495.59C917.59,-483.14 509.46,-443.45 401.5,-366 335.86,-318.91 327.3,-211.86 326.94,-163.73"/>
<polygon fill="midnightblue" stroke="midnightblue" points="330.44,-163.63 326.98,-153.61 323.44,-163.6 330.44,-163.63"/>
</g>
<!-- Node19 -->
<g id="node19" class="node">
<title>Node19</title>
<g id="a_node19"><a xlink:href="../../d3/d1c/_free_r_t_o_s_8h.html" target="_top" xlink:title=" ">
<polygon fill="none" stroke="black" points="1311.5,-190.5 1311.5,-220.5 1431.5,-220.5 1431.5,-190.5 1311.5,-190.5"/>
<text text-anchor="start" x="1319.5" y="-208.5" font-family="Helvetica,sans-Serif" font-size="10.00">../../../RTOS/FreeRTOS</text>
<text text-anchor="middle" x="1371.5" y="-197.5" font-family="Helvetica,sans-Serif" font-size="10.00">/include/FreeRTOS.h</text>
</a>
</g>
</g>
<!-- Node1&#45;&gt;Node19 -->
<g id="edge68" class="edge">
<title>Node1&#45;&gt;Node19</title>
<path fill="none" stroke="midnightblue" d="M1189.71,-481.39C1244.1,-461.32 1323.08,-424.2 1369.5,-366 1400.21,-327.49 1397.89,-305.53 1389.5,-257 1387.94,-248 1384.94,-238.48 1381.82,-230.17"/>
<polygon fill="midnightblue" stroke="midnightblue" points="1385.01,-228.72 1378.05,-220.73 1378.51,-231.31 1385.01,-228.72"/>
</g>
<!-- Node23 -->
<g id="node23" class="node">
<title>Node23</title>
<g id="a_node23"><a xlink:title=" ">
<polygon fill="none" stroke="#bfbfbf" points="0,-62 0,-81 47,-81 47,-62 0,-62"/>
<text text-anchor="middle" x="23.5" y="-69" font-family="Helvetica,sans-Serif" font-size="10.00">vector</text>
</a>
</g>
</g>
<!-- Node1&#45;&gt;Node23 -->
<g id="edge72" class="edge">
<title>Node1&#45;&gt;Node23</title>
<path fill="none" stroke="midnightblue" d="M1071.35,-499.89C893.71,-499.01 367.13,-492.28 203.5,-444 123.24,-420.32 39.5,-435.18 39.5,-351.5 39.5,-351.5 39.5,-351.5 39.5,-204.5 39.5,-163.86 31.93,-116.7 27.21,-91.2"/>
<polygon fill="midnightblue" stroke="midnightblue" points="30.59,-90.27 25.27,-81.1 23.72,-91.59 30.59,-90.27"/>
</g>
<!-- Node30 -->
<g id="node30" class="node">
<title>Node30</title>
<g id="a_node30"><a xlink:title=" ">
<polygon fill="none" stroke="#bfbfbf" points="1601.5,-413.5 1601.5,-432.5 1665.5,-432.5 1665.5,-413.5 1601.5,-413.5"/>
<text text-anchor="middle" x="1633.5" y="-420.5" font-family="Helvetica,sans-Serif" font-size="10.00">algorithm</text>
</a>
</g>
</g>
<!-- Node1&#45;&gt;Node30 -->
<g id="edge70" class="edge">
<title>Node1&#45;&gt;Node30</title>
<path fill="none" stroke="midnightblue" d="M1189.61,-498.17C1277.73,-494.25 1448.1,-481.98 1587.5,-444 1594.12,-442.2 1601.02,-439.61 1607.4,-436.89"/>
<polygon fill="midnightblue" stroke="midnightblue" points="1609.21,-439.92 1616.88,-432.61 1606.33,-433.54 1609.21,-439.92"/>
</g>
<!-- Node4 -->
<g id="node4" class="node">
<title>Node4</title>
<g id="a_node4"><a xlink:title=" ">
<polygon fill="none" stroke="#bfbfbf" points="415.5,-0.5 415.5,-19.5 459.5,-19.5 459.5,-0.5 415.5,-0.5"/>
<text text-anchor="middle" x="437.5" y="-7.5" font-family="Helvetica,sans-Serif" font-size="10.00">string</text>
</a>
</g>
</g>
<!-- Node3&#45;&gt;Node4 -->
<g id="edge3" class="edge">
<title>Node3&#45;&gt;Node4</title>
<path fill="none" stroke="midnightblue" d="M514.56,-56.4C498.37,-46.86 477.09,-34.32 461,-24.84"/>
<polygon fill="midnightblue" stroke="midnightblue" points="462.59,-21.72 452.2,-19.66 459.04,-27.75 462.59,-21.72"/>
</g>
<!-- Node3&#45;&gt;Node5 -->
<g id="edge4" class="edge">
<title>Node3&#45;&gt;Node5</title>
<path fill="none" stroke="midnightblue" d="M611.87,-65.86C799.66,-53.97 1293.11,-22.73 1437.97,-13.57"/>
<polygon fill="midnightblue" stroke="midnightblue" points="1438.42,-17.04 1448.18,-12.92 1437.98,-10.06 1438.42,-17.04"/>
</g>
<!-- Node6&#45;&gt;Node2 -->
<g id="edge6" class="edge">
<title>Node6&#45;&gt;Node2</title>
<path fill="none" stroke="midnightblue" d="M1156.52,-402.5C1205.29,-363.42 1302.26,-272.21 1264.5,-190 1243.66,-144.62 1195.46,-110.91 1161,-91.49"/>
<polygon fill="midnightblue" stroke="midnightblue" points="1162.57,-88.37 1152.12,-86.64 1159.21,-94.51 1162.57,-88.37"/>
</g>
<!-- Node6&#45;&gt;Node3 -->
<g id="edge7" class="edge">
<title>Node6&#45;&gt;Node3</title>
<path fill="none" stroke="midnightblue" d="M1038.49,-421.56C853.39,-418.17 453.5,-397.18 453.5,-279 453.5,-279 453.5,-279 453.5,-204.5 453.5,-159.54 488.78,-117.72 513.89,-93.66"/>
<polygon fill="midnightblue" stroke="midnightblue" points="516.35,-96.15 521.3,-86.78 511.59,-91.02 516.35,-96.15"/>
</g>
<!-- Node6&#45;&gt;Node5 -->
<g id="edge66" class="edge">
<title>Node6&#45;&gt;Node5</title>
<path fill="none" stroke="midnightblue" d="M1222.57,-416.74C1270.01,-410.2 1326.71,-396.09 1369.5,-366 1457.88,-303.84 1463.8,-259.19 1488.5,-154 1498.48,-111.49 1503.34,-98.96 1495.5,-56 1493.81,-46.76 1490.33,-36.95 1486.95,-28.85"/>
<polygon fill="midnightblue" stroke="midnightblue" points="1490.13,-27.4 1482.87,-19.69 1483.74,-30.25 1490.13,-27.4"/>
</g>
<!-- Node7 -->
<g id="node7" class="node">
<title>Node7</title>
<g id="a_node7"><a xlink:href="../../d3/d0d/_error_code_parser_8hpp.html" target="_top" xlink:title=" ">
<polygon fill="none" stroke="black" points="944.5,-335.5 944.5,-365.5 1102.5,-365.5 1102.5,-335.5 944.5,-335.5"/>
<text text-anchor="start" x="952.5" y="-353.5" font-family="Helvetica,sans-Serif" font-size="10.00">../../../Objects/ErrorHandler</text>
<text text-anchor="middle" x="1023.5" y="-342.5" font-family="Helvetica,sans-Serif" font-size="10.00">/include/ErrorCodeParser.hpp</text>
</a>
</g>
</g>
<!-- Node6&#45;&gt;Node7 -->
<g id="edge8" class="edge">
<title>Node6&#45;&gt;Node7</title>
<path fill="none" stroke="midnightblue" d="M1100.69,-402.36C1086.05,-392.71 1068.43,-381.11 1053.73,-371.42"/>
<polygon fill="midnightblue" stroke="midnightblue" points="1055.28,-368.25 1045.01,-365.67 1051.43,-374.09 1055.28,-368.25"/>
</g>
<!-- Node16 -->
<g id="node16" class="node">
<title>Node16</title>
<g id="a_node16"><a xlink:href="../../d4/d63/mqtt__api__v2_8hpp.html" target="_top" xlink:title=" ">
<polygon fill="none" stroke="black" points="1058,-257.5 1058,-298.5 1191,-298.5 1191,-257.5 1058,-257.5"/>
<text text-anchor="start" x="1066" y="-286.5" font-family="Helvetica,sans-Serif" font-size="10.00">../../../Protocols</text>
<text text-anchor="start" x="1066" y="-275.5" font-family="Helvetica,sans-Serif" font-size="10.00">/MQTT/include/mqtt_api</text>
<text text-anchor="middle" x="1124.5" y="-264.5" font-family="Helvetica,sans-Serif" font-size="10.00">_v2.hpp</text>
</a>
</g>
</g>
<!-- Node6&#45;&gt;Node16 -->
<g id="edge62" class="edge">
<title>Node6&#45;&gt;Node16</title>
<path fill="none" stroke="midnightblue" d="M1129.68,-402.42C1128.67,-378.27 1126.93,-336.98 1125.75,-308.87"/>
<polygon fill="midnightblue" stroke="midnightblue" points="1129.25,-308.65 1125.33,-298.81 1122.25,-308.94 1129.25,-308.65"/>
</g>
<!-- Node6&#45;&gt;Node18 -->
<g id="edge64" class="edge">
<title>Node6&#45;&gt;Node18</title>
<path fill="none" stroke="midnightblue" d="M1038.41,-419.55C861.64,-414.12 487.93,-398.86 439.5,-366 368.61,-317.9 340.7,-211.38 331.45,-163.56"/>
<polygon fill="midnightblue" stroke="midnightblue" points="334.85,-162.72 329.62,-153.51 327.97,-163.97 334.85,-162.72"/>
</g>
<!-- Node6&#45;&gt;Node19 -->
<g id="edge63" class="edge">
<title>Node6&#45;&gt;Node19</title>
<path fill="none" stroke="midnightblue" d="M1222.69,-408.57C1273.79,-399.2 1330.4,-384.96 1347.5,-366 1381.17,-328.66 1379.42,-265.23 1375.36,-230.68"/>
<polygon fill="midnightblue" stroke="midnightblue" points="1378.8,-229.99 1374.01,-220.55 1371.87,-230.92 1378.8,-229.99"/>
</g>
<!-- Node20 -->
<g id="node20" class="node">
<title>Node20</title>
<g id="a_node20"><a xlink:title=" ">
<polygon fill="none" stroke="#bfbfbf" points="1205.5,-196 1205.5,-215 1255.5,-215 1255.5,-196 1205.5,-196"/>
<text text-anchor="middle" x="1230.5" y="-203" font-family="Helvetica,sans-Serif" font-size="10.00">atomic</text>
</a>
</g>
</g>
<!-- Node6&#45;&gt;Node20 -->
<g id="edge65" class="edge">
<title>Node6&#45;&gt;Node20</title>
<path fill="none" stroke="midnightblue" d="M1143.45,-402.2C1158.6,-378.43 1183.74,-336.99 1200.5,-299 1211.49,-274.08 1220.55,-243.83 1225.74,-224.87"/>
<polygon fill="midnightblue" stroke="midnightblue" points="1229.14,-225.7 1228.33,-215.13 1222.38,-223.89 1229.14,-225.7"/>
</g>
<!-- Node21 -->
<g id="node21" class="node">
<title>Node21</title>
<g id="a_node21"><a xlink:href="../../d1/da7/_m_q_t_t___message_8hpp.html" target="_top" xlink:title=" ">
<polygon fill="none" stroke="black" points="607.5,-335.5 607.5,-365.5 795.5,-365.5 795.5,-335.5 607.5,-335.5"/>
<text text-anchor="start" x="615.5" y="-353.5" font-family="Helvetica,sans-Serif" font-size="10.00">../../../Protocols</text>
<text text-anchor="middle" x="701.5" y="-342.5" font-family="Helvetica,sans-Serif" font-size="10.00">/MQTT/include/MQTT_Message.hpp</text>
</a>
</g>
</g>
<!-- Node6&#45;&gt;Node21 -->
<g id="edge40" class="edge">
<title>Node6&#45;&gt;Node21</title>
<path fill="none" stroke="midnightblue" d="M1038.47,-406.88C967.22,-395.17 868.86,-379 796.8,-367.16"/>
<polygon fill="midnightblue" stroke="midnightblue" points="797.25,-363.69 786.82,-365.52 796.12,-370.6 797.25,-363.69"/>
</g>
<!-- Node7&#45;&gt;Node2 -->
<g id="edge9" class="edge">
<title>Node7&#45;&gt;Node2</title>
<path fill="none" stroke="midnightblue" d="M1025.26,-335.22C1026.89,-315.72 1026.98,-280.5 1010.5,-257 990.86,-229.01 960.14,-250.3 942.5,-221 935.39,-209.2 933.79,-200.68 942.5,-190 992.67,-128.45 1065.46,-213.98 1117.5,-154 1130.87,-138.59 1130.79,-114.74 1128.15,-96.82"/>
<polygon fill="midnightblue" stroke="midnightblue" points="1131.56,-96.02 1126.33,-86.8 1124.68,-97.27 1131.56,-96.02"/>
</g>
<!-- Node7&#45;&gt;Node3 -->
<g id="edge10" class="edge">
<title>Node7&#45;&gt;Node3</title>
<path fill="none" stroke="midnightblue" d="M944.42,-339.89C895.72,-332.34 832.65,-319.56 779.5,-299 745.31,-285.77 741.08,-273.81 708.5,-257 673.49,-238.94 660.22,-242.95 627.5,-221 591.74,-197.01 578.83,-191.41 557.5,-154 547.47,-136.4 542.72,-113.79 540.49,-96.85"/>
<polygon fill="midnightblue" stroke="midnightblue" points="543.94,-96.2 539.35,-86.65 536.98,-96.98 543.94,-96.2"/>
</g>
<!-- Node7&#45;&gt;Node5 -->
<g id="edge39" class="edge">
<title>Node7&#45;&gt;Node5</title>
<path fill="none" stroke="midnightblue" d="M1102.91,-335.87C1211.59,-315.49 1398.07,-273.76 1440.5,-221 1486.36,-163.98 1484.08,-69.95 1480.64,-29.95"/>
<polygon fill="midnightblue" stroke="midnightblue" points="1484.1,-29.38 1479.63,-19.77 1477.13,-30.07 1484.1,-29.38"/>
</g>
<!-- Node8 -->
<g id="node8" class="node">
<title>Node8</title>
<g id="a_node8"><a xlink:href="../../d5/d40/_database___i_d___base_8hpp.html" target="_top" xlink:title=" ">
<polygon fill="none" stroke="black" points="869.5,-263 869.5,-293 1001.5,-293 1001.5,-263 869.5,-263"/>
<text text-anchor="start" x="877.5" y="-281" font-family="Helvetica,sans-Serif" font-size="10.00">../../../Global_Include</text>
<text text-anchor="middle" x="935.5" y="-270" font-family="Helvetica,sans-Serif" font-size="10.00">/Database_ID_Base.hpp</text>
</a>
</g>
</g>
<!-- Node7&#45;&gt;Node8 -->
<g id="edge11" class="edge">
<title>Node7&#45;&gt;Node8</title>
<path fill="none" stroke="midnightblue" d="M1005.69,-335.23C992.85,-324.94 975.31,-310.9 960.99,-299.42"/>
<polygon fill="midnightblue" stroke="midnightblue" points="962.97,-296.53 952.98,-293 958.6,-301.99 962.97,-296.53"/>
</g>
<!-- Node7&#45;&gt;Node10 -->
<g id="edge13" class="edge">
<title>Node7&#45;&gt;Node10</title>
<path fill="none" stroke="midnightblue" d="M966.43,-335.49C934.57,-326.77 894.55,-314.29 860.5,-299 814.63,-278.4 765.54,-246.83 735.68,-226.42"/>
<polygon fill="midnightblue" stroke="midnightblue" points="737.64,-223.52 727.42,-220.72 733.66,-229.28 737.64,-223.52"/>
</g>
<!-- Node7&#45;&gt;Node16 -->
<g id="edge23" class="edge">
<title>Node7&#45;&gt;Node16</title>
<path fill="none" stroke="midnightblue" d="M1043.94,-335.23C1056.56,-326.42 1073.13,-314.86 1087.95,-304.51"/>
<polygon fill="midnightblue" stroke="midnightblue" points="1090.24,-307.18 1096.44,-298.59 1086.23,-301.44 1090.24,-307.18"/>
</g>
<!-- Node9 -->
<g id="node9" class="node">
<title>Node9</title>
<g id="a_node9"><a xlink:title=" ">
<polygon fill="none" stroke="#bfbfbf" points="951.5,-196 951.5,-215 989.5,-215 989.5,-196 951.5,-196"/>
<text text-anchor="middle" x="970.5" y="-203" font-family="Helvetica,sans-Serif" font-size="10.00">map</text>
</a>
</g>
</g>
<!-- Node8&#45;&gt;Node9 -->
<g id="edge12" class="edge">
<title>Node8&#45;&gt;Node9</title>
<path fill="none" stroke="midnightblue" d="M942.58,-262.73C948.08,-251.67 955.72,-236.27 961.62,-224.38"/>
<polygon fill="midnightblue" stroke="midnightblue" points="964.77,-225.91 966.08,-215.39 958.5,-222.79 964.77,-225.91"/>
</g>
<!-- Node10&#45;&gt;Node2 -->
<g id="edge14" class="edge">
<title>Node10&#45;&gt;Node2</title>
<path fill="none" stroke="midnightblue" d="M779.27,-196.28C854.78,-186.95 968.16,-170.84 1008.5,-154 1030.24,-144.92 1032.34,-136.72 1051.5,-123 1065.62,-112.89 1081.36,-101.68 1094.43,-92.4"/>
<polygon fill="midnightblue" stroke="midnightblue" points="1096.46,-95.26 1102.58,-86.62 1092.4,-89.55 1096.46,-95.26"/>
</g>
<!-- Node10&#45;&gt;Node3 -->
<g id="edge15" class="edge">
<title>Node10&#45;&gt;Node3</title>
<path fill="none" stroke="midnightblue" d="M653.96,-190.44C631.28,-182.51 605.72,-170.75 586.5,-154 568.43,-138.25 555.36,-113.96 547.47,-96"/>
<polygon fill="midnightblue" stroke="midnightblue" points="550.69,-94.64 543.61,-86.76 544.23,-97.34 550.69,-94.64"/>
</g>
<!-- Node11 -->
<g id="node11" class="node">
<title>Node11</title>
<g id="a_node11"><a xlink:href="../../d6/d4b/_r_t_c___h_a_l_8hpp.html" target="_top" xlink:title=" ">
<polygon fill="none" stroke="black" points="918,-129 918,-148 999,-148 999,-129 918,-129"/>
<text text-anchor="middle" x="958.5" y="-136" font-family="Helvetica,sans-Serif" font-size="10.00">RTC_HAL.hpp</text>
</a>
</g>
</g>
<!-- Node10&#45;&gt;Node11 -->
<g id="edge16" class="edge">
<title>Node10&#45;&gt;Node11</title>
<path fill="none" stroke="midnightblue" d="M761.65,-190.48C807.82,-178.52 873.27,-161.57 915.8,-150.56"/>
<polygon fill="midnightblue" stroke="midnightblue" points="916.76,-153.92 925.57,-148.03 915.01,-147.15 916.76,-153.92"/>
</g>
<!-- Node13 -->
<g id="node13" class="node">
<title>Node13</title>
<g id="a_node13"><a xlink:title=" ">
<polygon fill="none" stroke="#bfbfbf" points="661.5,-129 661.5,-148 711.5,-148 711.5,-129 661.5,-129"/>
<text text-anchor="middle" x="686.5" y="-136" font-family="Helvetica,sans-Serif" font-size="10.00">chrono</text>
</a>
</g>
</g>
<!-- Node10&#45;&gt;Node13 -->
<g id="edge20" class="edge">
<title>Node10&#45;&gt;Node13</title>
<path fill="none" stroke="midnightblue" d="M702.94,-190.4C699.86,-180.86 695.77,-168.18 692.43,-157.86"/>
<polygon fill="midnightblue" stroke="midnightblue" points="695.71,-156.63 689.31,-148.19 689.05,-158.79 695.71,-156.63"/>
</g>
<!-- Node14 -->
<g id="node14" class="node">
<title>Node14</title>
<g id="a_node14"><a xlink:title=" ">
<polygon fill="none" stroke="#bfbfbf" points="729.5,-129 729.5,-148 785.5,-148 785.5,-129 729.5,-129"/>
<text text-anchor="middle" x="757.5" y="-136" font-family="Helvetica,sans-Serif" font-size="10.00">iomanip</text>
</a>
</g>
</g>
<!-- Node10&#45;&gt;Node14 -->
<g id="edge21" class="edge">
<title>Node10&#45;&gt;Node14</title>
<path fill="none" stroke="midnightblue" d="M718.35,-190.4C726.07,-180.36 736.47,-166.84 744.61,-156.25"/>
<polygon fill="midnightblue" stroke="midnightblue" points="747.49,-158.25 750.81,-148.19 741.94,-153.99 747.49,-158.25"/>
</g>
<!-- Node15 -->
<g id="node15" class="node">
<title>Node15</title>
<g id="a_node15"><a xlink:title=" ">
<polygon fill="none" stroke="#bfbfbf" points="595.5,-129 595.5,-148 643.5,-148 643.5,-129 595.5,-129"/>
<text text-anchor="middle" x="619.5" y="-136" font-family="Helvetica,sans-Serif" font-size="10.00">thread</text>
</a>
</g>
</g>
<!-- Node10&#45;&gt;Node15 -->
<g id="edge22" class="edge">
<title>Node10&#45;&gt;Node15</title>
<path fill="none" stroke="midnightblue" d="M688.41,-190.4C673.92,-179.7 654.07,-165.03 639.39,-154.19"/>
<polygon fill="midnightblue" stroke="midnightblue" points="641.14,-151.13 631.02,-148.01 636.98,-156.76 641.14,-151.13"/>
</g>
<!-- Node11&#45;&gt;Node2 -->
<g id="edge17" class="edge">
<title>Node11&#45;&gt;Node2</title>
<path fill="none" stroke="midnightblue" d="M980.28,-128.87C1004.99,-119.07 1045.98,-102.83 1077.62,-90.29"/>
<polygon fill="midnightblue" stroke="midnightblue" points="1079.1,-93.47 1087.11,-86.53 1076.52,-86.96 1079.1,-93.47"/>
</g>
<!-- Node11&#45;&gt;Node3 -->
<g id="edge18" class="edge">
<title>Node11&#45;&gt;Node3</title>
<path fill="none" stroke="midnightblue" d="M928.68,-128.94C920.56,-126.8 911.73,-124.65 903.5,-123 807.65,-103.81 696.17,-89.53 621.88,-81.14"/>
<polygon fill="midnightblue" stroke="midnightblue" points="621.98,-77.63 611.65,-80 621.2,-84.59 621.98,-77.63"/>
</g>
<!-- Node12 -->
<g id="node12" class="node">
<title>Node12</title>
<g id="a_node12"><a xlink:title=" ">
<polygon fill="none" stroke="#bfbfbf" points="936.5,-62 936.5,-81 980.5,-81 980.5,-62 936.5,-62"/>
<text text-anchor="middle" x="958.5" y="-69" font-family="Helvetica,sans-Serif" font-size="10.00">ctime</text>
</a>
</g>
</g>
<!-- Node11&#45;&gt;Node12 -->
<g id="edge19" class="edge">
<title>Node11&#45;&gt;Node12</title>
<path fill="none" stroke="midnightblue" d="M958.5,-128.73C958.5,-119.18 958.5,-103.62 958.5,-91.28"/>
<polygon fill="midnightblue" stroke="midnightblue" points="962,-91.13 958.5,-81.13 955,-91.13 962,-91.13"/>
</g>
<!-- Node16&#45;&gt;Node2 -->
<g id="edge24" class="edge">
<title>Node16&#45;&gt;Node2</title>
<path fill="none" stroke="midnightblue" d="M1138.86,-257.17C1158.48,-227.47 1189.23,-169.9 1170.5,-123 1166.03,-111.82 1157.79,-101.7 1149.37,-93.5"/>
<polygon fill="midnightblue" stroke="midnightblue" points="1151.46,-90.67 1141.7,-86.55 1146.75,-95.86 1151.46,-90.67"/>
</g>
<!-- Node16&#45;&gt;Node3 -->
<g id="edge25" class="edge">
<title>Node16&#45;&gt;Node3</title>
<path fill="none" stroke="midnightblue" d="M1091.71,-257.41C1074.89,-247.04 1054.26,-233.83 1036.5,-221 1018.83,-208.24 1018.16,-199.4 998.5,-190 928.43,-156.51 896.36,-189.92 827.5,-154 809.66,-144.69 812.4,-132.19 794.5,-123 740.85,-95.45 673.78,-82.9 621.74,-77.19"/>
<polygon fill="midnightblue" stroke="midnightblue" points="621.85,-73.68 611.54,-76.14 621.13,-80.65 621.85,-73.68"/>
</g>
<!-- Node16&#45;&gt;Node9 -->
<g id="edge38" class="edge">
<title>Node16&#45;&gt;Node9</title>
<path fill="none" stroke="midnightblue" d="M1081.6,-257.36C1055.13,-245.24 1021.91,-230.03 998.72,-219.42"/>
<polygon fill="midnightblue" stroke="midnightblue" points="1000,-216.15 989.45,-215.17 997.08,-222.52 1000,-216.15"/>
</g>
<!-- Node17 -->
<g id="node17" class="node">
<title>Node17</title>
<g id="a_node17"><a xlink:href="../../de/dd1/_o_t_a_8hpp.html" target="_top" xlink:title=" ">
<polygon fill="none" stroke="black" points="1045.5,-190.5 1045.5,-220.5 1149.5,-220.5 1149.5,-190.5 1045.5,-190.5"/>
<text text-anchor="start" x="1053.5" y="-208.5" font-family="Helvetica,sans-Serif" font-size="10.00">../../../Objects/OTA</text>
<text text-anchor="middle" x="1097.5" y="-197.5" font-family="Helvetica,sans-Serif" font-size="10.00">/include/OTA.hpp</text>
</a>
</g>
</g>
<!-- Node16&#45;&gt;Node17 -->
<g id="edge26" class="edge">
<title>Node16&#45;&gt;Node17</title>
<path fill="none" stroke="midnightblue" d="M1116.98,-257.36C1113.76,-248.95 1109.97,-239.06 1106.6,-230.25"/>
<polygon fill="midnightblue" stroke="midnightblue" points="1109.86,-228.98 1103.01,-220.89 1103.32,-231.48 1109.86,-228.98"/>
</g>
<!-- Node16&#45;&gt;Node19 -->
<g id="edge33" class="edge">
<title>Node16&#45;&gt;Node19</title>
<path fill="none" stroke="midnightblue" d="M1191.02,-258.01C1228.76,-247.24 1275.6,-233.87 1312.11,-223.45"/>
<polygon fill="midnightblue" stroke="midnightblue" points="1313.46,-226.71 1322.11,-220.6 1311.53,-219.98 1313.46,-226.71"/>
</g>
<!-- Node16&#45;&gt;Node20 -->
<g id="edge37" class="edge">
<title>Node16&#45;&gt;Node20</title>
<path fill="none" stroke="midnightblue" d="M1154.03,-257.36C1171.44,-245.78 1193.08,-231.39 1208.9,-220.87"/>
<polygon fill="midnightblue" stroke="midnightblue" points="1211.07,-223.63 1217.46,-215.17 1207.19,-217.8 1211.07,-223.63"/>
</g>
<!-- Node17&#45;&gt;Node2 -->
<g id="edge27" class="edge">
<title>Node17&#45;&gt;Node2</title>
<path fill="none" stroke="midnightblue" d="M1122.09,-190.29C1134.59,-181.59 1148.59,-169.19 1155.5,-154 1164.49,-134.24 1153.31,-111.29 1141.59,-94.78"/>
<polygon fill="midnightblue" stroke="midnightblue" points="1144.36,-92.63 1135.52,-86.79 1138.79,-96.87 1144.36,-92.63"/>
</g>
<!-- Node17&#45;&gt;Node3 -->
<g id="edge28" class="edge">
<title>Node17&#45;&gt;Node3</title>
<path fill="none" stroke="midnightblue" d="M1045.26,-192.85C980.89,-178.46 879.47,-155.67 875.5,-154 852.09,-144.14 851.15,-132.26 827.5,-123 761.03,-96.97 680.73,-84.31 621.66,-78.18"/>
<polygon fill="midnightblue" stroke="midnightblue" points="621.93,-74.69 611.63,-77.18 621.23,-81.65 621.93,-74.69"/>
</g>
<!-- Node17&#45;&gt;Node18 -->
<g id="edge29" class="edge">
<title>Node17&#45;&gt;Node18</title>
<path fill="none" stroke="midnightblue" d="M1045.44,-196.17C1030.33,-193.95 1013.78,-191.69 998.5,-190 779.97,-165.8 520.08,-149.89 397.77,-143.16"/>
<polygon fill="midnightblue" stroke="midnightblue" points="397.96,-139.66 387.78,-142.61 397.57,-146.65 397.96,-139.66"/>
</g>
<!-- Node18&#45;&gt;Node2 -->
<g id="edge30" class="edge">
<title>Node18&#45;&gt;Node2</title>
<path fill="none" stroke="midnightblue" d="M387.8,-133.56C504.21,-125.8 767.99,-107.52 989.5,-87 1010.57,-85.05 1033.48,-82.65 1054.26,-80.37"/>
<polygon fill="midnightblue" stroke="midnightblue" points="1054.72,-83.84 1064.27,-79.26 1053.95,-76.88 1054.72,-83.84"/>
</g>
<!-- Node18&#45;&gt;Node3 -->
<g id="edge31" class="edge">
<title>Node18&#45;&gt;Node3</title>
<path fill="none" stroke="midnightblue" d="M373.02,-123.48C405.22,-113.56 448.58,-100.2 482.83,-89.65"/>
<polygon fill="midnightblue" stroke="midnightblue" points="484.17,-92.9 492.69,-86.61 482.11,-86.21 484.17,-92.9"/>
</g>
<!-- Node18&#45;&gt;Node4 -->
<g id="edge32" class="edge">
<title>Node18&#45;&gt;Node4</title>
<path fill="none" stroke="midnightblue" d="M343.95,-123.13C354.78,-113.37 369.02,-99.92 380.5,-87 397.53,-67.83 414.9,-43.91 425.92,-28.08"/>
<polygon fill="midnightblue" stroke="midnightblue" points="428.83,-30.02 431.62,-19.8 423.07,-26.05 428.83,-30.02"/>
</g>
<!-- Node19&#45;&gt;Node2 -->
<g id="edge34" class="edge">
<title>Node19&#45;&gt;Node2</title>
<path fill="none" stroke="midnightblue" d="M1362.49,-190.5C1350.04,-172.28 1325.89,-140.69 1297.5,-123 1265.14,-102.83 1224.43,-90.46 1190.42,-83.01"/>
<polygon fill="midnightblue" stroke="midnightblue" points="1191.07,-79.57 1180.56,-80.95 1189.63,-86.42 1191.07,-79.57"/>
</g>
<!-- Node19&#45;&gt;Node3 -->
<g id="edge35" class="edge">
<title>Node19&#45;&gt;Node3</title>
<path fill="none" stroke="midnightblue" d="M1311.28,-195.98C1296.03,-193.92 1279.67,-191.8 1264.5,-190 1107.01,-171.35 1058.06,-209.48 909.5,-154 887.09,-145.63 887.68,-131.95 865.5,-123 786.71,-91.21 689.81,-79.3 622.02,-74.9"/>
<polygon fill="midnightblue" stroke="midnightblue" points="622.01,-71.4 611.82,-74.29 621.59,-78.38 622.01,-71.4"/>
</g>
<!-- Node19&#45;&gt;Node5 -->
<g id="edge36" class="edge">
<title>Node19&#45;&gt;Node5</title>
<path fill="none" stroke="midnightblue" d="M1379.37,-190.27C1398.6,-155.5 1447.92,-66.3 1468.86,-28.42"/>
<polygon fill="midnightblue" stroke="midnightblue" points="1471.98,-30.02 1473.76,-19.58 1465.86,-26.63 1471.98,-30.02"/>
</g>
<!-- Node21&#45;&gt;Node2 -->
<g id="edge41" class="edge">
<title>Node21&#45;&gt;Node2</title>
<path fill="none" stroke="midnightblue" d="M717.34,-335.48C753.11,-304.55 843.91,-230.06 932.5,-190 992.61,-162.82 1024.02,-193.97 1076.5,-154 1095.58,-139.46 1107.96,-114.58 1115.01,-96.13"/>
<polygon fill="midnightblue" stroke="midnightblue" points="1118.33,-97.23 1118.39,-86.64 1111.74,-94.88 1118.33,-97.23"/>
</g>
<!-- Node21&#45;&gt;Node3 -->
<g id="edge42" class="edge">
<title>Node21&#45;&gt;Node3</title>
<path fill="none" stroke="midnightblue" d="M607.16,-340.85C573.72,-333.83 537.68,-321.3 510.5,-299 445.29,-245.51 395.45,-194.93 439.5,-123 448.22,-108.76 462.36,-98.38 477.25,-90.87"/>
<polygon fill="midnightblue" stroke="midnightblue" points="478.98,-93.93 486.59,-86.56 476.04,-87.58 478.98,-93.93"/>
</g>
<!-- Node21&#45;&gt;Node8 -->
<g id="edge43" class="edge">
<title>Node21&#45;&gt;Node8</title>
<path fill="none" stroke="midnightblue" d="M748.01,-335.49C785.69,-324.14 838.92,-308.1 879.04,-296.01"/>
<polygon fill="midnightblue" stroke="midnightblue" points="880.11,-299.34 888.68,-293.11 878.09,-292.64 880.11,-299.34"/>
</g>
<!-- Node21&#45;&gt;Node10 -->
<g id="edge44" class="edge">
<title>Node21&#45;&gt;Node10</title>
<path fill="none" stroke="midnightblue" d="M703.98,-335.41C705.63,-325.31 707.65,-311.36 708.5,-299 710.1,-275.83 709.57,-249.32 708.81,-230.64"/>
<polygon fill="midnightblue" stroke="midnightblue" points="712.31,-230.45 708.35,-220.62 705.31,-230.77 712.31,-230.45"/>
</g>
<!-- Node21&#45;&gt;Node19 -->
<g id="edge45" class="edge">
<title>Node21&#45;&gt;Node19</title>
<path fill="none" stroke="midnightblue" d="M795.52,-344.4C918.57,-336.97 1127.21,-321.54 1200.5,-299 1207.77,-296.76 1289.69,-251.76 1337.45,-225.36"/>
<polygon fill="midnightblue" stroke="midnightblue" points="1339.18,-228.41 1346.23,-220.51 1335.79,-222.28 1339.18,-228.41"/>
</g>
<!-- Node22 -->
<g id="node22" class="node">
<title>Node22</title>
<g id="a_node22"><a xlink:href="../../d5/d60/utils_8h.html" target="_top" xlink:title=" ">
<polygon fill="none" stroke="black" points="113.5,-123.5 113.5,-153.5 211.5,-153.5 211.5,-123.5 113.5,-123.5"/>
<text text-anchor="start" x="121.5" y="-141.5" font-family="Helvetica,sans-Serif" font-size="10.00">../../../Utility/utils</text>
<text text-anchor="middle" x="162.5" y="-130.5" font-family="Helvetica,sans-Serif" font-size="10.00">/include/utils.h</text>
</a>
</g>
</g>
<!-- Node21&#45;&gt;Node22 -->
<g id="edge46" class="edge">
<title>Node21&#45;&gt;Node22</title>
<path fill="none" stroke="midnightblue" d="M607.31,-346.82C546.13,-341.97 466.04,-329.61 401.5,-299 375.89,-286.85 376.25,-273.91 353.5,-257 308.47,-223.53 294.32,-219.35 246.5,-190 229.53,-179.59 210.52,-168.14 194.88,-158.78"/>
<polygon fill="midnightblue" stroke="midnightblue" points="196.48,-155.66 186.1,-153.54 192.89,-161.67 196.48,-155.66"/>
</g>
<!-- Node21&#45;&gt;Node23 -->
<g id="edge61" class="edge">
<title>Node21&#45;&gt;Node23</title>
<path fill="none" stroke="midnightblue" d="M607.25,-345.56C535.89,-340.28 436.36,-327.91 353.5,-299 232.59,-256.81 205.83,-232.31 104.5,-154 78.59,-133.98 52.61,-106.13 37.3,-88.72"/>
<polygon fill="midnightblue" stroke="midnightblue" points="39.88,-86.35 30.68,-81.09 34.59,-90.94 39.88,-86.35"/>
</g>
<!-- Node28 -->
<g id="node28" class="node">
<title>Node28</title>
<g id="a_node28"><a xlink:href="../../d3/de3/_logger_8hpp.html" target="_top" xlink:title=" ">
<polygon fill="none" stroke="black" points="519.5,-263 519.5,-293 635.5,-293 635.5,-263 519.5,-263"/>
<text text-anchor="start" x="527.5" y="-281" font-family="Helvetica,sans-Serif" font-size="10.00">../../../Objects/Logger</text>
<text text-anchor="middle" x="577.5" y="-270" font-family="Helvetica,sans-Serif" font-size="10.00">/include/Logger.hpp</text>
</a>
</g>
</g>
<!-- Node21&#45;&gt;Node28 -->
<g id="edge56" class="edge">
<title>Node21&#45;&gt;Node28</title>
<path fill="none" stroke="midnightblue" d="M676.7,-335.4C657.87,-324.69 631.75,-309.85 611.05,-298.07"/>
<polygon fill="midnightblue" stroke="midnightblue" points="612.68,-294.97 602.25,-293.07 609.22,-301.06 612.68,-294.97"/>
</g>
<!-- Node29 -->
<g id="node29" class="node">
<title>Node29</title>
<g id="a_node29"><a xlink:title=" ">
<polygon fill="none" stroke="#bfbfbf" points="654,-268.5 654,-287.5 699,-287.5 699,-268.5 654,-268.5"/>
<text text-anchor="middle" x="676.5" y="-275.5" font-family="Helvetica,sans-Serif" font-size="10.00">utility</text>
</a>
</g>
</g>
<!-- Node21&#45;&gt;Node29 -->
<g id="edge60" class="edge">
<title>Node21&#45;&gt;Node29</title>
<path fill="none" stroke="midnightblue" d="M696.44,-335.23C692.6,-324.39 687.27,-309.38 683.09,-297.6"/>
<polygon fill="midnightblue" stroke="midnightblue" points="686.29,-296.15 679.65,-287.89 679.7,-298.49 686.29,-296.15"/>
</g>
<!-- Node22&#45;&gt;Node2 -->
<g id="edge49" class="edge">
<title>Node22&#45;&gt;Node2</title>
<path fill="none" stroke="midnightblue" d="M211.71,-129.09C226.7,-126.8 243.24,-124.52 258.5,-123 582.17,-90.67 665.23,-112.64 989.5,-87 1010.59,-85.33 1033.51,-83.02 1054.29,-80.72"/>
<polygon fill="midnightblue" stroke="midnightblue" points="1054.76,-84.19 1064.3,-79.6 1053.98,-77.24 1054.76,-84.19"/>
</g>
<!-- Node22&#45;&gt;Node3 -->
<g id="edge50" class="edge">
<title>Node22&#45;&gt;Node3</title>
<path fill="none" stroke="midnightblue" d="M211.61,-125.87C216.3,-124.86 220.98,-123.88 225.5,-123 303.06,-107.84 392.07,-93.8 455.29,-84.39"/>
<polygon fill="midnightblue" stroke="midnightblue" points="455.83,-87.85 465.21,-82.92 454.81,-80.92 455.83,-87.85"/>
</g>
<!-- Node22&#45;&gt;Node4 -->
<g id="edge47" class="edge">
<title>Node22&#45;&gt;Node4</title>
<path fill="none" stroke="midnightblue" d="M136.68,-123.48C109.75,-107.1 74.08,-79.27 94.5,-56 114.85,-32.8 323.6,-17.85 405.13,-12.85"/>
<polygon fill="midnightblue" stroke="midnightblue" points="405.54,-16.33 415.31,-12.24 405.12,-9.35 405.54,-16.33"/>
</g>
<!-- Node22&#45;&gt;Node5 -->
<g id="edge54" class="edge">
<title>Node22&#45;&gt;Node5</title>
<path fill="none" stroke="midnightblue" d="M211.65,-126.16C275.31,-111.48 378.45,-87.65 380.5,-87 415.27,-75.96 420.87,-63.81 456.5,-56 648.54,-13.93 1272.76,-10.97 1438.04,-10.94"/>
<polygon fill="midnightblue" stroke="midnightblue" points="1438.25,-14.44 1448.25,-10.94 1438.25,-7.44 1438.25,-14.44"/>
</g>
<!-- Node22&#45;&gt;Node23 -->
<g id="edge48" class="edge">
<title>Node22&#45;&gt;Node23</title>
<path fill="none" stroke="midnightblue" d="M132.34,-123.4C108.06,-112.04 74.22,-96.22 50.75,-85.24"/>
<polygon fill="midnightblue" stroke="midnightblue" points="52.23,-82.07 41.69,-81.01 49.27,-88.41 52.23,-82.07"/>
</g>
<!-- Node24 -->
<g id="node24" class="node">
<title>Node24</title>
<g id="a_node24"><a xlink:title=" ">
<polygon fill="none" stroke="#bfbfbf" points="104,-62 104,-81 157,-81 157,-62 104,-62"/>
<text text-anchor="middle" x="130.5" y="-69" font-family="Helvetica,sans-Serif" font-size="10.00">stdint.h</text>
</a>
</g>
</g>
<!-- Node22&#45;&gt;Node24 -->
<g id="edge51" class="edge">
<title>Node22&#45;&gt;Node24</title>
<path fill="none" stroke="midnightblue" d="M155.56,-123.4C150.76,-113.66 144.36,-100.65 139.22,-90.21"/>
<polygon fill="midnightblue" stroke="midnightblue" points="142.34,-88.62 134.78,-81.19 136.06,-91.71 142.34,-88.62"/>
</g>
<!-- Node25 -->
<g id="node25" class="node">
<title>Node25</title>
<g id="a_node25"><a xlink:title=" ">
<polygon fill="none" stroke="#bfbfbf" points="175.5,-62 175.5,-81 225.5,-81 225.5,-62 175.5,-62"/>
<text text-anchor="middle" x="200.5" y="-69" font-family="Helvetica,sans-Serif" font-size="10.00">stdio.h</text>
</a>
</g>
</g>
<!-- Node22&#45;&gt;Node25 -->
<g id="edge52" class="edge">
<title>Node22&#45;&gt;Node25</title>
<path fill="none" stroke="midnightblue" d="M170.75,-123.4C176.49,-113.56 184.2,-100.38 190.33,-89.89"/>
<polygon fill="midnightblue" stroke="midnightblue" points="193.39,-91.59 195.42,-81.19 187.35,-88.06 193.39,-91.59"/>
</g>
<!-- Node26 -->
<g id="node26" class="node">
<title>Node26</title>
<g id="a_node26"><a xlink:title=" ">
<polygon fill="none" stroke="#bfbfbf" points="244,-62 244,-81 297,-81 297,-62 244,-62"/>
<text text-anchor="middle" x="270.5" y="-69" font-family="Helvetica,sans-Serif" font-size="10.00">stdlib.h</text>
</a>
</g>
</g>
<!-- Node22&#45;&gt;Node26 -->
<g id="edge53" class="edge">
<title>Node22&#45;&gt;Node26</title>
<path fill="none" stroke="midnightblue" d="M185.93,-123.4C204.21,-112.39 229.46,-97.2 247.6,-86.28"/>
<polygon fill="midnightblue" stroke="midnightblue" points="249.6,-89.16 256.37,-81.01 245.99,-83.16 249.6,-89.16"/>
</g>
<!-- Node27 -->
<g id="node27" class="node">
<title>Node27</title>
<g id="a_node27"><a xlink:title=" ">
<polygon fill="none" stroke="#bfbfbf" points="315.5,-62 315.5,-81 371.5,-81 371.5,-62 315.5,-62"/>
<text text-anchor="middle" x="343.5" y="-69" font-family="Helvetica,sans-Serif" font-size="10.00">sstream</text>
</a>
</g>
</g>
<!-- Node22&#45;&gt;Node27 -->
<g id="edge55" class="edge">
<title>Node22&#45;&gt;Node27</title>
<path fill="none" stroke="midnightblue" d="M203.92,-123.42C232.77,-113.5 272.1,-99.77 306.5,-87 308.39,-86.3 310.33,-85.57 312.29,-84.82"/>
<polygon fill="midnightblue" stroke="midnightblue" points="313.96,-87.93 322.03,-81.07 311.44,-81.4 313.96,-87.93"/>
</g>
<!-- Node28&#45;&gt;Node2 -->
<g id="edge57" class="edge">
<title>Node28&#45;&gt;Node2</title>
<path fill="none" stroke="midnightblue" d="M624.25,-262.99C631.36,-260.93 638.61,-258.88 645.5,-257 708.73,-239.75 725.93,-240.5 788.5,-221 826.1,-209.29 833.68,-200.95 871.5,-190 946.52,-168.27 975.1,-191.69 1043.5,-154 1069.69,-139.57 1092.59,-113.61 1106.9,-94.86"/>
<polygon fill="midnightblue" stroke="midnightblue" points="1109.71,-96.94 1112.85,-86.82 1104.09,-92.77 1109.71,-96.94"/>
</g>
<!-- Node28&#45;&gt;Node3 -->
<g id="edge58" class="edge">
<title>Node28&#45;&gt;Node3</title>
<path fill="none" stroke="midnightblue" d="M567.17,-262.79C551.94,-240.81 524.33,-196.62 515.5,-154 512.71,-140.51 512.58,-136.46 515.5,-123 517.53,-113.66 521.44,-103.98 525.46,-95.62"/>
<polygon fill="midnightblue" stroke="midnightblue" points="528.68,-97.01 530.14,-86.52 522.46,-93.81 528.68,-97.01"/>
</g>
<!-- Node28&#45;&gt;Node10 -->
<g id="edge59" class="edge">
<title>Node28&#45;&gt;Node10</title>
<path fill="none" stroke="midnightblue" d="M603.49,-262.9C623.33,-252.14 650.87,-237.21 672.62,-225.42"/>
<polygon fill="midnightblue" stroke="midnightblue" points="674.43,-228.42 681.55,-220.57 671.09,-222.26 674.43,-228.42"/>
</g>
</g>
</svg>
        <g id="navigator" transform="translate(0 0)" fill="#404254">
                <rect fill="#f2f5e9" fill-opacity="0.5" stroke="#606060" stroke-width=".5" x="0" y="0" width="60" height="60"/>
                <use id="zoomplus" xlink:href="#zoomPlus" x="17" y="9" onmousedown="handleZoom(evt,'in')"/>
                <use id="zoomminus" xlink:href="#zoomMin" x="42" y="9" onmousedown="handleZoom(evt,'out')"/>
                <use id="reset" xlink:href="#resetDef" x="30" y="36" onmousedown="handleReset()"/>
                <g id="arrowUp" xlink:href="#dirArrow" transform="translate(30 24)" onmousedown="handlePan(0,-1)">
                  <use xlink:href="#rim" fill="#404040">
                        <set attributeName="fill" to="#808080" begin="arrowUp.mouseover" end="arrowUp.mouseout"/>
                  </use>
                  <path fill="none" stroke="white" stroke-width="1.5" d="M0,-3.0v7 M-2.5,-0.5L0,-3.0L2.5,-0.5"/>
                </g>
                <g id="arrowRight" xlink:href="#dirArrow" transform="rotate(90) translate(36 -43)" onmousedown="handlePan(1,0)">
                  <use xlink:href="#rim" fill="#404040">
                        <set attributeName="fill" to="#808080" begin="arrowRight.mouseover" end="arrowRight.mouseout"/>
                  </use>
                  <path fill="none" stroke="white" stroke-width="1.5" d="M0,-3.0v7 M-2.5,-0.5L0,-3.0L2.5,-0.5"/>
                </g>
                <g id="arrowDown" xlink:href="#dirArrow" transform="rotate(180) translate(-30 -48)" onmousedown="handlePan(0,1)">
                  <use xlink:href="#rim" fill="#404040">
                        <set attributeName="fill" to="#808080" begin="arrowDown.mouseover" end="arrowDown.mouseout"/>
                  </use>
                  <path fill="none" stroke="white" stroke-width="1.5" d="M0,-3.0v7 M-2.5,-0.5L0,-3.0L2.5,-0.5"/>
                </g>
                <g id="arrowLeft" xlink:href="#dirArrow" transform="rotate(270) translate(-36 17)" onmousedown="handlePan(-1,0)">
                  <use xlink:href="#rim" fill="#404040">
                        <set attributeName="fill" to="#808080" begin="arrowLeft.mouseover" end="arrowLeft.mouseout"/>
                  </use>
                  <path fill="none" stroke="white" stroke-width="1.5" d="M0,-3.0v7 M-2.5,-0.5L0,-3.0L2.5,-0.5"/>
                </g>
        </g>
        <svg viewBox="0 0 15 15" width="100%" height="30px" preserveAspectRatio="xMaxYMin meet">
         <g id="arrow_out" transform="scale(0.3 0.3)">
          <a xlink:href="_data_broker_8hpp__incl_org.svg" target="_base">
           <rect id="button" ry="5" rx="5" y="6" x="6" height="38" width="38"
                fill="#f2f5e9" fill-opacity="0.5" stroke="#606060" stroke-width="1.0"/>
           <path id="arrow"
             d="M 11.500037,31.436501 C 11.940474,20.09759 22.043105,11.32322 32.158766,21.979434 L 37.068811,17.246167 C 37.068811,17.246167 37.088388,32 37.088388,32 L 22.160133,31.978069 C 22.160133,31.978069 26.997745,27.140456 26.997745,27.140456 C 18.528582,18.264221 13.291696,25.230495 11.500037,31.436501 z"
             style="fill:#404040;"/>
          </a>
         </g>
        </svg>
</svg>
