<?xml version="1.0" encoding="UTF-8" standalone="no"?>
<!DOCTYPE svg PUBLIC "-//W3C//DTD SVG 1.1//EN"
 "http://www.w3.org/Graphics/SVG/1.1/DTD/svg11.dtd">
<!-- Generated by graphviz version 2.43.0 (0)
 -->
<!-- Title: postgresql_interface Pages: 1 -->
<svg width="151pt" height="471pt"
 viewBox="0.00 0.00 151.00 471.00" xmlns="http://www.w3.org/2000/svg" xmlns:xlink="http://www.w3.org/1999/xlink">
<g id="graph0" class="graph" transform="scale(1 1) rotate(0) translate(4 467)">
<title>postgresql_interface</title>
<!-- Node1 -->
<g id="node1" class="node">
<title>Node1</title>
<g id="a_node1"><a xlink:title=" ">
<polygon fill="#bfbfbf" stroke="black" points="0,-0.5 0,-101.5 143,-101.5 143,-0.5 0,-0.5"/>
<text text-anchor="middle" x="71.5" y="-89.5" font-family="Helvetica,sans-Serif" font-size="10.00">postgresql_interface</text>
<polyline fill="none" stroke="black" points="0,-82.5 143,-82.5 "/>
<text text-anchor="start" x="8" y="-70.5" font-family="Helvetica,sans-Serif" font-size="10.00">&#45; m_open</text>
<polyline fill="none" stroke="black" points="0,-63.5 143,-63.5 "/>
<text text-anchor="start" x="8" y="-51.5" font-family="Helvetica,sans-Serif" font-size="10.00">+ postgresql_interface()</text>
<text text-anchor="start" x="8" y="-40.5" font-family="Helvetica,sans-Serif" font-size="10.00">+ ~postgresql_interface()</text>
<text text-anchor="start" x="8" y="-29.5" font-family="Helvetica,sans-Serif" font-size="10.00">+ open()</text>
<text text-anchor="start" x="8" y="-18.5" font-family="Helvetica,sans-Serif" font-size="10.00">+ post()</text>
<text text-anchor="start" x="8" y="-7.5" font-family="Helvetica,sans-Serif" font-size="10.00">+ close()</text>
</a>
</g>
</g>
<!-- Node2 -->
<g id="node2" class="node">
<title>Node2</title>
<g id="a_node2"><a xlink:href="../../dc/d12/class_protocol_base.html" target="_top" xlink:title=" ">
<polygon fill="none" stroke="black" points="18,-139.5 18,-251.5 125,-251.5 125,-139.5 18,-139.5"/>
<text text-anchor="middle" x="71.5" y="-239.5" font-family="Helvetica,sans-Serif" font-size="10.00">ProtocolBase</text>
<polyline fill="none" stroke="black" points="18,-232.5 125,-232.5 "/>
<text text-anchor="middle" x="71.5" y="-220.5" font-family="Helvetica,sans-Serif" font-size="10.00"> </text>
<polyline fill="none" stroke="black" points="18,-213.5 125,-213.5 "/>
<text text-anchor="start" x="26" y="-201.5" font-family="Helvetica,sans-Serif" font-size="10.00">+ ProtocolBase()</text>
<text text-anchor="start" x="26" y="-190.5" font-family="Helvetica,sans-Serif" font-size="10.00">+ ~ProtocolBase()</text>
<text text-anchor="start" x="26" y="-179.5" font-family="Helvetica,sans-Serif" font-size="10.00">+ open()</text>
<text text-anchor="start" x="26" y="-168.5" font-family="Helvetica,sans-Serif" font-size="10.00">+ post()</text>
<text text-anchor="start" x="26" y="-157.5" font-family="Helvetica,sans-Serif" font-size="10.00">+ close()</text>
<text text-anchor="start" x="26" y="-146.5" font-family="Helvetica,sans-Serif" font-size="10.00">+ getResponse()</text>
</a>
</g>
</g>
<!-- Node2&#45;&gt;Node1 -->
<g id="edge1" class="edge">
<title>Node2&#45;&gt;Node1</title>
<path fill="none" stroke="midnightblue" d="M71.5,-129.13C71.5,-119.96 71.5,-110.65 71.5,-101.83"/>
<polygon fill="none" stroke="midnightblue" points="68,-129.41 71.5,-139.41 75,-129.41 68,-129.41"/>
</g>
<!-- Node3 -->
<g id="node3" class="node">
<title>Node3</title>
<g id="a_node3"><a xlink:title="STL class.">
<polygon fill="none" stroke="#bfbfbf" points="39,-299.5 39,-356.5 104,-356.5 104,-299.5 39,-299.5"/>
<text text-anchor="middle" x="71.5" y="-344.5" font-family="Helvetica,sans-Serif" font-size="10.00">std::string</text>
<polyline fill="none" stroke="#bfbfbf" points="39,-337.5 104,-337.5 "/>
<text text-anchor="middle" x="71.5" y="-325.5" font-family="Helvetica,sans-Serif" font-size="10.00"> </text>
<polyline fill="none" stroke="#bfbfbf" points="39,-318.5 104,-318.5 "/>
<text text-anchor="middle" x="71.5" y="-306.5" font-family="Helvetica,sans-Serif" font-size="10.00"> </text>
</a>
</g>
</g>
<!-- Node3&#45;&gt;Node2 -->
<g id="edge2" class="edge">
<title>Node3&#45;&gt;Node2</title>
<path fill="none" stroke="#404040" d="M71.5,-299.32C71.5,-288.78 71.5,-276.25 71.5,-263.62"/>
<polygon fill="none" stroke="#404040" points="71.5,-263.55 67.5,-257.55 71.5,-251.55 75.5,-257.55 71.5,-263.55"/>
<text text-anchor="middle" x="97.5" y="-273" font-family="Helvetica,sans-Serif" font-size="10.00"> &#45;response</text>
</g>
<!-- Node4 -->
<g id="node4" class="node">
<title>Node4</title>
<g id="a_node4"><a xlink:title="STL class.">
<polygon fill="none" stroke="#bfbfbf" points="19.5,-394.5 19.5,-462.5 123.5,-462.5 123.5,-394.5 19.5,-394.5"/>
<text text-anchor="start" x="27.5" y="-450.5" font-family="Helvetica,sans-Serif" font-size="10.00">std::basic_string&lt;</text>
<text text-anchor="middle" x="71.5" y="-439.5" font-family="Helvetica,sans-Serif" font-size="10.00"> char &gt;</text>
<polyline fill="none" stroke="#bfbfbf" points="19.5,-432.5 123.5,-432.5 "/>
<text text-anchor="middle" x="71.5" y="-420.5" font-family="Helvetica,sans-Serif" font-size="10.00"> </text>
<polyline fill="none" stroke="#bfbfbf" points="19.5,-413.5 123.5,-413.5 "/>
<text text-anchor="middle" x="71.5" y="-401.5" font-family="Helvetica,sans-Serif" font-size="10.00"> </text>
</a>
</g>
</g>
<!-- Node4&#45;&gt;Node3 -->
<g id="edge3" class="edge">
<title>Node4&#45;&gt;Node3</title>
<path fill="none" stroke="midnightblue" d="M71.5,-384.38C71.5,-374.94 71.5,-365.2 71.5,-356.57"/>
<polygon fill="none" stroke="midnightblue" points="68,-384.43 71.5,-394.43 75,-384.43 68,-384.43"/>
</g>
</g>
</svg>
