<?xml version="1.0" encoding="UTF-8" standalone="no"?>
<!DOCTYPE svg PUBLIC "-//W3C//DTD SVG 1.1//EN"
 "http://www.w3.org/Graphics/SVG/1.1/DTD/svg11.dtd">
<!-- Generated by graphviz version 2.43.0 (0)
 -->
<!-- Title: Components/Sensor/esp32Cam/src/esp32Cam.cpp Pages: 1 -->
<!--zoomable 374 -->
<svg id="main" version="1.1" xmlns="http://www.w3.org/2000/svg" xmlns:xlink="http://www.w3.org/1999/xlink" xml:space="preserve" onload="init(evt)">
<style type="text/css"><![CDATA[
.edge:hover path { stroke: red; }
.edge:hover polygon { stroke: red; fill: red; }
]]></style>
<script type="text/javascript"><![CDATA[
var edges = document.getElementsByTagName('g');
if (edges && edges.length) {
  for (var i=0;i<edges.length;i++) {
    if (edges[i].id.substr(0,4)=='edge') {
      edges[i].setAttribute('class','edge');
    }
  }
}
]]></script>
        <defs>
                <circle id="rim" cx="0" cy="0" r="7"/>
                <circle id="rim2" cx="0" cy="0" r="3.5"/>
                <g id="zoomPlus">
                        <use xlink:href="#rim" fill="#404040">
                                <set attributeName="fill" to="#808080" begin="zoomplus.mouseover" end="zoomplus.mouseout"/>
                        </use>
                        <path d="M-4,0h8M0,-4v8" fill="none" stroke="white" stroke-width="1.5" pointer-events="none"/>
                </g>
                <g id="zoomMin">
                        <use xlink:href="#rim" fill="#404040">
                                <set attributeName="fill" to="#808080" begin="zoomminus.mouseover" end="zoomminus.mouseout"/>
                        </use>
                        <path d="M-4,0h8" fill="none" stroke="white" stroke-width="1.5" pointer-events="none"/>
                </g>
                <g id="dirArrow">
                        <path fill="none" stroke="white" stroke-width="1.5" d="M0,-3.0v7 M-2.5,-0.5L0,-3.0L2.5,-0.5"/>
                </g>
               <g id="resetDef">
                       <use xlink:href="#rim2" fill="#404040">
                               <set attributeName="fill" to="#808080" begin="reset.mouseover" end="reset.mouseout"/>
                       </use>
               </g>
        </defs>

<script type="text/javascript">
var viewWidth = 802;
var viewHeight = 374;
var sectionId = 'dynsection-0';
</script>
<script xlink:href="../../svgpan.js"/>
<svg id="graph" class="graph">
<g id="viewport">
<title>Components/Sensor/esp32Cam/src/esp32Cam.cpp</title>
<!-- Node1 -->
<g id="node1" class="node">
<title>Node1</title>
<g id="a_node1"><a xlink:title=" ">
<polygon fill="#bfbfbf" stroke="black" points="407.57,-335.5 407.57,-365.5 576.57,-365.5 576.57,-335.5 407.57,-335.5"/>
<text text-anchor="start" x="415.57" y="-353.5" font-family="Helvetica,sans-Serif" font-size="10.00">Components/Sensor/esp32Cam</text>
<text text-anchor="middle" x="492.07" y="-342.5" font-family="Helvetica,sans-Serif" font-size="10.00">/src/esp32Cam.cpp</text>
</a>
</g>
</g>
<!-- Node2 -->
<g id="node2" class="node">
<title>Node2</title>
<g id="a_node2"><a xlink:href="../../dc/dc2/esp32_cam_8hpp.html" target="_top" xlink:title=" ">
<polygon fill="none" stroke="black" points="423.57,-279.5 423.57,-298.5 560.57,-298.5 560.57,-279.5 423.57,-279.5"/>
<text text-anchor="middle" x="492.07" y="-286.5" font-family="Helvetica,sans-Serif" font-size="10.00">../include/esp32Cam.hpp</text>
</a>
</g>
</g>
<!-- Node1&#45;&gt;Node2 -->
<g id="edge1" class="edge">
<title>Node1&#45;&gt;Node2</title>
<path fill="none" stroke="midnightblue" d="M492.07,-335.4C492.07,-327.47 492.07,-317.46 492.07,-308.86"/>
<polygon fill="midnightblue" stroke="midnightblue" points="495.57,-308.66 492.07,-298.66 488.57,-308.66 495.57,-308.66"/>
</g>
<!-- Node3 -->
<g id="node3" class="node">
<title>Node3</title>
<g id="a_node3"><a xlink:href="../../da/d5f/_b_a_s_i_c_8hpp.html" target="_top" xlink:title=" ">
<polygon fill="none" stroke="black" points="160.07,-62 160.07,-92 276.07,-92 276.07,-62 160.07,-62"/>
<text text-anchor="start" x="168.07" y="-80" font-family="Helvetica,sans-Serif" font-size="10.00">../../../Global_Include</text>
<text text-anchor="middle" x="218.07" y="-69" font-family="Helvetica,sans-Serif" font-size="10.00">/BASIC.hpp</text>
</a>
</g>
</g>
<!-- Node2&#45;&gt;Node3 -->
<g id="edge2" class="edge">
<title>Node2&#45;&gt;Node3</title>
<path fill="none" stroke="midnightblue" d="M423.39,-283.45C300.72,-273.63 52.6,-245.42 8.07,-176 -28.75,-118.59 75.29,-94.24 149.77,-84.34"/>
<polygon fill="midnightblue" stroke="midnightblue" points="150.59,-87.76 160.07,-83.04 149.71,-80.82 150.59,-87.76"/>
</g>
<!-- Node4 -->
<g id="node4" class="node">
<title>Node4</title>
<g id="a_node4"><a xlink:href="../../d3/deb/_general___error_8hpp.html" target="_top" xlink:title=" ">
<polygon fill="none" stroke="black" points="356.57,-62 356.57,-92 501.57,-92 501.57,-62 356.57,-62"/>
<text text-anchor="start" x="364.57" y="-80" font-family="Helvetica,sans-Serif" font-size="10.00">../../../Objects/ErrorHandler</text>
<text text-anchor="middle" x="429.07" y="-69" font-family="Helvetica,sans-Serif" font-size="10.00">/include/General_Error.hpp</text>
</a>
</g>
</g>
<!-- Node2&#45;&gt;Node4 -->
<g id="edge3" class="edge">
<title>Node2&#45;&gt;Node4</title>
<path fill="none" stroke="midnightblue" d="M490.06,-279.05C486.79,-264.79 480.01,-236.04 473.07,-212 461.86,-173.16 446.81,-128.69 437.54,-102"/>
<polygon fill="midnightblue" stroke="midnightblue" points="440.77,-100.66 434.17,-92.37 434.16,-102.96 440.77,-100.66"/>
</g>
<!-- Node6 -->
<g id="node6" class="node">
<title>Node6</title>
<g id="a_node6"><a xlink:title=" ">
<polygon fill="none" stroke="#bfbfbf" points="477.07,-0.5 477.07,-19.5 537.07,-19.5 537.07,-0.5 477.07,-0.5"/>
<text text-anchor="middle" x="507.07" y="-7.5" font-family="Helvetica,sans-Serif" font-size="10.00">iostream</text>
</a>
</g>
</g>
<!-- Node2&#45;&gt;Node6 -->
<g id="edge26" class="edge">
<title>Node2&#45;&gt;Node6</title>
<path fill="none" stroke="midnightblue" d="M493.47,-279.17C498.17,-248.42 512.98,-143.21 510.07,-56 509.79,-47.38 509.19,-37.85 508.6,-29.79"/>
<polygon fill="midnightblue" stroke="midnightblue" points="512.08,-29.32 507.82,-19.62 505.1,-29.86 512.08,-29.32"/>
</g>
<!-- Node7 -->
<g id="node7" class="node">
<title>Node7</title>
<g id="a_node7"><a xlink:href="../../df/d0f/img__converters_8h.html" target="_top" xlink:title=" ">
<polygon fill="none" stroke="black" points="642.07,-56.5 642.07,-97.5 794.07,-97.5 794.07,-56.5 642.07,-56.5"/>
<text text-anchor="start" x="650.07" y="-85.5" font-family="Helvetica,sans-Serif" font-size="10.00">../../../ThirdpartAPI</text>
<text text-anchor="start" x="650.07" y="-74.5" font-family="Helvetica,sans-Serif" font-size="10.00">/image_conversions/include</text>
<text text-anchor="middle" x="718.07" y="-63.5" font-family="Helvetica,sans-Serif" font-size="10.00">/img_converters.h</text>
</a>
</g>
</g>
<!-- Node2&#45;&gt;Node7 -->
<g id="edge6" class="edge">
<title>Node2&#45;&gt;Node7</title>
<path fill="none" stroke="midnightblue" d="M526.03,-279.47C572.77,-265.88 656.04,-234.63 699.07,-176 713.48,-156.37 717.8,-128.77 718.76,-107.85"/>
<polygon fill="midnightblue" stroke="midnightblue" points="722.26,-107.68 718.99,-97.61 715.26,-107.52 722.26,-107.68"/>
</g>
<!-- Node8 -->
<g id="node8" class="node">
<title>Node8</title>
<g id="a_node8"><a xlink:href="../../d7/d60/_timeservice_8hpp.html" target="_top" xlink:title=" ">
<polygon fill="none" stroke="black" points="163.57,-212.5 163.57,-242.5 306.57,-242.5 306.57,-212.5 163.57,-212.5"/>
<text text-anchor="start" x="171.57" y="-230.5" font-family="Helvetica,sans-Serif" font-size="10.00">../../../Objects/Timeservice</text>
<text text-anchor="middle" x="235.07" y="-219.5" font-family="Helvetica,sans-Serif" font-size="10.00">/include/Timeservice.hpp</text>
</a>
</g>
</g>
<!-- Node2&#45;&gt;Node8 -->
<g id="edge7" class="edge">
<title>Node2&#45;&gt;Node8</title>
<path fill="none" stroke="midnightblue" d="M455.25,-279.48C416.3,-270.46 353.89,-256.01 305.44,-244.79"/>
<polygon fill="midnightblue" stroke="midnightblue" points="306.17,-241.37 295.64,-242.52 304.59,-248.19 306.17,-241.37"/>
</g>
<!-- Node14 -->
<g id="node14" class="node">
<title>Node14</title>
<g id="a_node14"><a xlink:href="../../d9/d47/esp__camera_8h.html" target="_top" xlink:title=" ">
<polygon fill="none" stroke="black" points="558.57,-134.5 558.57,-175.5 689.57,-175.5 689.57,-134.5 558.57,-134.5"/>
<text text-anchor="start" x="566.57" y="-163.5" font-family="Helvetica,sans-Serif" font-size="10.00">../../../ThirdpartAPI</text>
<text text-anchor="start" x="566.57" y="-152.5" font-family="Helvetica,sans-Serif" font-size="10.00">/esp32Cam_API/include</text>
<text text-anchor="middle" x="624.07" y="-141.5" font-family="Helvetica,sans-Serif" font-size="10.00">/esp_camera.h</text>
</a>
</g>
</g>
<!-- Node2&#45;&gt;Node14 -->
<g id="edge17" class="edge">
<title>Node2&#45;&gt;Node14</title>
<path fill="none" stroke="midnightblue" d="M502.74,-279.37C513.48,-270.55 530.36,-256.3 544.07,-243 563.87,-223.79 584.93,-200.77 600.47,-183.24"/>
<polygon fill="midnightblue" stroke="midnightblue" points="603.22,-185.42 607.2,-175.6 597.96,-180.79 603.22,-185.42"/>
</g>
<!-- Node18 -->
<g id="node18" class="node">
<title>Node18</title>
<g id="a_node18"><a xlink:href="../../d4/db0/m5stack__settings_8hpp.html" target="_top" xlink:title=" ">
<polygon fill="none" stroke="black" points="340.07,-218 340.07,-237 464.07,-237 464.07,-218 340.07,-218"/>
<text text-anchor="middle" x="402.07" y="-225" font-family="Helvetica,sans-Serif" font-size="10.00">m5stack_settings.hpp</text>
</a>
</g>
</g>
<!-- Node2&#45;&gt;Node18 -->
<g id="edge22" class="edge">
<title>Node2&#45;&gt;Node18</title>
<path fill="none" stroke="midnightblue" d="M479.18,-279.48C464.61,-269.84 440.67,-254.02 423.33,-242.55"/>
<polygon fill="midnightblue" stroke="midnightblue" points="425.22,-239.6 414.94,-237.01 421.35,-245.44 425.22,-239.6"/>
</g>
<!-- Node5 -->
<g id="node5" class="node">
<title>Node5</title>
<g id="a_node5"><a xlink:title=" ">
<polygon fill="none" stroke="#bfbfbf" points="407.07,-0.5 407.07,-19.5 451.07,-19.5 451.07,-0.5 407.07,-0.5"/>
<text text-anchor="middle" x="429.07" y="-7.5" font-family="Helvetica,sans-Serif" font-size="10.00">string</text>
</a>
</g>
</g>
<!-- Node4&#45;&gt;Node5 -->
<g id="edge4" class="edge">
<title>Node4&#45;&gt;Node5</title>
<path fill="none" stroke="midnightblue" d="M429.07,-61.9C429.07,-52.56 429.07,-40.21 429.07,-30.02"/>
<polygon fill="midnightblue" stroke="midnightblue" points="432.57,-29.69 429.07,-19.69 425.57,-29.69 432.57,-29.69"/>
</g>
<!-- Node4&#45;&gt;Node6 -->
<g id="edge5" class="edge">
<title>Node4&#45;&gt;Node6</title>
<path fill="none" stroke="midnightblue" d="M446,-61.9C458.64,-51.36 475.9,-36.98 488.85,-26.19"/>
<polygon fill="midnightblue" stroke="midnightblue" points="491.2,-28.79 496.64,-19.69 486.72,-23.41 491.2,-28.79"/>
</g>
<!-- Node8&#45;&gt;Node3 -->
<g id="edge8" class="edge">
<title>Node8&#45;&gt;Node3</title>
<path fill="none" stroke="midnightblue" d="M233.44,-212.26C230.54,-186.94 224.46,-133.79 220.88,-102.49"/>
<polygon fill="midnightblue" stroke="midnightblue" points="224.34,-101.95 219.72,-92.41 217.38,-102.75 224.34,-101.95"/>
</g>
<!-- Node8&#45;&gt;Node4 -->
<g id="edge9" class="edge">
<title>Node8&#45;&gt;Node4</title>
<path fill="none" stroke="midnightblue" d="M281.52,-212.5C304.24,-204.2 331.12,-192.13 352.07,-176 379.22,-155.09 402.25,-122.55 415.87,-100.76"/>
<polygon fill="midnightblue" stroke="midnightblue" points="418.9,-102.52 421.11,-92.15 412.92,-98.87 418.9,-102.52"/>
</g>
<!-- Node9 -->
<g id="node9" class="node">
<title>Node9</title>
<g id="a_node9"><a xlink:href="../../d6/d4b/_r_t_c___h_a_l_8hpp.html" target="_top" xlink:title=" ">
<polygon fill="none" stroke="black" points="263.07,-145.5 263.07,-164.5 343.07,-164.5 343.07,-145.5 263.07,-145.5"/>
<text text-anchor="middle" x="303.07" y="-152.5" font-family="Helvetica,sans-Serif" font-size="10.00">RTC_HAL.hpp</text>
</a>
</g>
</g>
<!-- Node8&#45;&gt;Node9 -->
<g id="edge10" class="edge">
<title>Node8&#45;&gt;Node9</title>
<path fill="none" stroke="midnightblue" d="M248.83,-212.23C260.04,-200.62 275.86,-184.22 287.52,-172.12"/>
<polygon fill="midnightblue" stroke="midnightblue" points="290.07,-174.52 294.49,-164.89 285.03,-169.66 290.07,-174.52"/>
</g>
<!-- Node11 -->
<g id="node11" class="node">
<title>Node11</title>
<g id="a_node11"><a xlink:title=" ">
<polygon fill="none" stroke="#bfbfbf" points="157.07,-145.5 157.07,-164.5 207.07,-164.5 207.07,-145.5 157.07,-145.5"/>
<text text-anchor="middle" x="182.07" y="-152.5" font-family="Helvetica,sans-Serif" font-size="10.00">chrono</text>
</a>
</g>
</g>
<!-- Node8&#45;&gt;Node11 -->
<g id="edge14" class="edge">
<title>Node8&#45;&gt;Node11</title>
<path fill="none" stroke="midnightblue" d="M224.35,-212.23C215.86,-200.95 203.99,-185.15 194.98,-173.17"/>
<polygon fill="midnightblue" stroke="midnightblue" points="197.56,-170.78 188.76,-164.89 191.97,-174.99 197.56,-170.78"/>
</g>
<!-- Node12 -->
<g id="node12" class="node">
<title>Node12</title>
<g id="a_node12"><a xlink:title=" ">
<polygon fill="none" stroke="#bfbfbf" points="17.07,-145.5 17.07,-164.5 73.07,-164.5 73.07,-145.5 17.07,-145.5"/>
<text text-anchor="middle" x="45.07" y="-152.5" font-family="Helvetica,sans-Serif" font-size="10.00">iomanip</text>
</a>
</g>
</g>
<!-- Node8&#45;&gt;Node12 -->
<g id="edge15" class="edge">
<title>Node8&#45;&gt;Node12</title>
<path fill="none" stroke="midnightblue" d="M184.98,-212.41C154.7,-203.3 115.59,-190.46 82.07,-176 77.65,-174.09 73.06,-171.84 68.67,-169.55"/>
<polygon fill="midnightblue" stroke="midnightblue" points="70,-166.29 59.54,-164.59 66.65,-172.44 70,-166.29"/>
</g>
<!-- Node13 -->
<g id="node13" class="node">
<title>Node13</title>
<g id="a_node13"><a xlink:title=" ">
<polygon fill="none" stroke="#bfbfbf" points="91.07,-145.5 91.07,-164.5 139.07,-164.5 139.07,-145.5 91.07,-145.5"/>
<text text-anchor="middle" x="115.07" y="-152.5" font-family="Helvetica,sans-Serif" font-size="10.00">thread</text>
</a>
</g>
</g>
<!-- Node8&#45;&gt;Node13 -->
<g id="edge16" class="edge">
<title>Node8&#45;&gt;Node13</title>
<path fill="none" stroke="midnightblue" d="M210.62,-212.47C193.15,-202.41 169.1,-188.47 148.07,-176 144.77,-174.04 141.28,-171.95 137.87,-169.9"/>
<polygon fill="midnightblue" stroke="midnightblue" points="139.54,-166.81 129.17,-164.62 135.91,-172.8 139.54,-166.81"/>
</g>
<!-- Node9&#45;&gt;Node3 -->
<g id="edge11" class="edge">
<title>Node9&#45;&gt;Node3</title>
<path fill="none" stroke="midnightblue" d="M293.32,-145.28C280.8,-134.09 258.67,-114.3 241.64,-99.07"/>
<polygon fill="midnightblue" stroke="midnightblue" points="243.54,-96.08 233.75,-92.02 238.87,-101.29 243.54,-96.08"/>
</g>
<!-- Node9&#45;&gt;Node4 -->
<g id="edge12" class="edge">
<title>Node9&#45;&gt;Node4</title>
<path fill="none" stroke="midnightblue" d="M317.53,-145.28C336.84,-133.63 371.6,-112.67 397.2,-97.23"/>
<polygon fill="midnightblue" stroke="midnightblue" points="399.07,-100.18 405.83,-92.02 395.46,-94.19 399.07,-100.18"/>
</g>
<!-- Node10 -->
<g id="node10" class="node">
<title>Node10</title>
<g id="a_node10"><a xlink:title=" ">
<polygon fill="none" stroke="#bfbfbf" points="294.07,-67.5 294.07,-86.5 338.07,-86.5 338.07,-67.5 294.07,-67.5"/>
<text text-anchor="middle" x="316.07" y="-74.5" font-family="Helvetica,sans-Serif" font-size="10.00">ctime</text>
</a>
</g>
</g>
<!-- Node9&#45;&gt;Node10 -->
<g id="edge13" class="edge">
<title>Node9&#45;&gt;Node10</title>
<path fill="none" stroke="midnightblue" d="M304.56,-145.28C306.58,-133.49 310.23,-112.13 312.88,-96.64"/>
<polygon fill="midnightblue" stroke="midnightblue" points="316.36,-97.06 314.6,-86.62 309.46,-95.88 316.36,-97.06"/>
</g>
<!-- Node14&#45;&gt;Node7 -->
<g id="edge21" class="edge">
<title>Node14&#45;&gt;Node7</title>
<path fill="none" stroke="midnightblue" d="M648.28,-134.43C659.79,-125.12 673.71,-113.87 686.08,-103.86"/>
<polygon fill="midnightblue" stroke="midnightblue" points="688.37,-106.51 693.95,-97.51 683.97,-101.07 688.37,-106.51"/>
</g>
<!-- Node15 -->
<g id="node15" class="node">
<title>Node15</title>
<g id="a_node15"><a xlink:href="../../d5/d2e/sensor_8h.html" target="_top" xlink:title=" ">
<polygon fill="none" stroke="black" points="566.57,-67.5 566.57,-86.5 623.57,-86.5 623.57,-67.5 566.57,-67.5"/>
<text text-anchor="middle" x="595.07" y="-74.5" font-family="Helvetica,sans-Serif" font-size="10.00">sensor.h</text>
</a>
</g>
</g>
<!-- Node14&#45;&gt;Node15 -->
<g id="edge18" class="edge">
<title>Node14&#45;&gt;Node15</title>
<path fill="none" stroke="midnightblue" d="M616.6,-134.43C612.08,-122.58 606.35,-107.57 601.94,-96.01"/>
<polygon fill="midnightblue" stroke="midnightblue" points="605.17,-94.65 598.34,-86.55 598.63,-97.14 605.17,-94.65"/>
</g>
<!-- Node16 -->
<g id="node16" class="node">
<title>Node16</title>
<g id="a_node16"><a xlink:title=" ">
<polygon fill="none" stroke="#bfbfbf" points="559.07,-0.5 559.07,-19.5 621.07,-19.5 621.07,-0.5 559.07,-0.5"/>
<text text-anchor="middle" x="590.07" y="-7.5" font-family="Helvetica,sans-Serif" font-size="10.00">stdbool.h</text>
</a>
</g>
</g>
<!-- Node15&#45;&gt;Node16 -->
<g id="edge19" class="edge">
<title>Node15&#45;&gt;Node16</title>
<path fill="none" stroke="midnightblue" d="M594.4,-67.23C593.66,-57.68 592.47,-42.12 591.52,-29.78"/>
<polygon fill="midnightblue" stroke="midnightblue" points="594.99,-29.33 590.74,-19.63 588.01,-29.87 594.99,-29.33"/>
</g>
<!-- Node17 -->
<g id="node17" class="node">
<title>Node17</title>
<g id="a_node17"><a xlink:title=" ">
<polygon fill="none" stroke="#bfbfbf" points="639.57,-0.5 639.57,-19.5 692.57,-19.5 692.57,-0.5 639.57,-0.5"/>
<text text-anchor="middle" x="666.07" y="-7.5" font-family="Helvetica,sans-Serif" font-size="10.00">stdint.h</text>
</a>
</g>
</g>
<!-- Node15&#45;&gt;Node17 -->
<g id="edge20" class="edge">
<title>Node15&#45;&gt;Node17</title>
<path fill="none" stroke="midnightblue" d="M604.65,-67.23C616.04,-56.81 635.26,-39.21 649.17,-26.47"/>
<polygon fill="midnightblue" stroke="midnightblue" points="651.64,-28.96 656.65,-19.63 646.91,-23.8 651.64,-28.96"/>
</g>
<!-- Node18&#45;&gt;Node3 -->
<g id="edge23" class="edge">
<title>Node18&#45;&gt;Node3</title>
<path fill="none" stroke="midnightblue" d="M399.58,-217.87C393.97,-199.9 378.74,-158.13 352.07,-134 339.28,-122.42 301.88,-107.22 269.83,-95.58"/>
<polygon fill="midnightblue" stroke="midnightblue" points="270.68,-92.17 260.08,-92.09 268.32,-98.76 270.68,-92.17"/>
</g>
<!-- Node18&#45;&gt;Node4 -->
<g id="edge24" class="edge">
<title>Node18&#45;&gt;Node4</title>
<path fill="none" stroke="midnightblue" d="M406.71,-217.86C411.74,-208.03 419.52,-191.36 423.07,-176 428.78,-151.34 429.89,-122.31 429.81,-102.28"/>
<polygon fill="midnightblue" stroke="midnightblue" points="433.31,-102.12 429.66,-92.17 426.31,-102.22 433.31,-102.12"/>
</g>
<!-- Node18&#45;&gt;Node14 -->
<g id="edge25" class="edge">
<title>Node18&#45;&gt;Node14</title>
<path fill="none" stroke="midnightblue" d="M428.85,-218C459.34,-208.31 510.4,-192.1 552.66,-178.68"/>
<polygon fill="midnightblue" stroke="midnightblue" points="553.89,-181.96 562.36,-175.6 551.77,-175.29 553.89,-181.96"/>
</g>
</g>
</svg>
        <g id="navigator" transform="translate(0 0)" fill="#404254">
                <rect fill="#f2f5e9" fill-opacity="0.5" stroke="#606060" stroke-width=".5" x="0" y="0" width="60" height="60"/>
                <use id="zoomplus" xlink:href="#zoomPlus" x="17" y="9" onmousedown="handleZoom(evt,'in')"/>
                <use id="zoomminus" xlink:href="#zoomMin" x="42" y="9" onmousedown="handleZoom(evt,'out')"/>
                <use id="reset" xlink:href="#resetDef" x="30" y="36" onmousedown="handleReset()"/>
                <g id="arrowUp" xlink:href="#dirArrow" transform="translate(30 24)" onmousedown="handlePan(0,-1)">
                  <use xlink:href="#rim" fill="#404040">
                        <set attributeName="fill" to="#808080" begin="arrowUp.mouseover" end="arrowUp.mouseout"/>
                  </use>
                  <path fill="none" stroke="white" stroke-width="1.5" d="M0,-3.0v7 M-2.5,-0.5L0,-3.0L2.5,-0.5"/>
                </g>
                <g id="arrowRight" xlink:href="#dirArrow" transform="rotate(90) translate(36 -43)" onmousedown="handlePan(1,0)">
                  <use xlink:href="#rim" fill="#404040">
                        <set attributeName="fill" to="#808080" begin="arrowRight.mouseover" end="arrowRight.mouseout"/>
                  </use>
                  <path fill="none" stroke="white" stroke-width="1.5" d="M0,-3.0v7 M-2.5,-0.5L0,-3.0L2.5,-0.5"/>
                </g>
                <g id="arrowDown" xlink:href="#dirArrow" transform="rotate(180) translate(-30 -48)" onmousedown="handlePan(0,1)">
                  <use xlink:href="#rim" fill="#404040">
                        <set attributeName="fill" to="#808080" begin="arrowDown.mouseover" end="arrowDown.mouseout"/>
                  </use>
                  <path fill="none" stroke="white" stroke-width="1.5" d="M0,-3.0v7 M-2.5,-0.5L0,-3.0L2.5,-0.5"/>
                </g>
                <g id="arrowLeft" xlink:href="#dirArrow" transform="rotate(270) translate(-36 17)" onmousedown="handlePan(-1,0)">
                  <use xlink:href="#rim" fill="#404040">
                        <set attributeName="fill" to="#808080" begin="arrowLeft.mouseover" end="arrowLeft.mouseout"/>
                  </use>
                  <path fill="none" stroke="white" stroke-width="1.5" d="M0,-3.0v7 M-2.5,-0.5L0,-3.0L2.5,-0.5"/>
                </g>
        </g>
        <svg viewBox="0 0 15 15" width="100%" height="30px" preserveAspectRatio="xMaxYMin meet">
         <g id="arrow_out" transform="scale(0.3 0.3)">
          <a xlink:href="esp32_cam_8cpp__incl_org.svg" target="_base">
           <rect id="button" ry="5" rx="5" y="6" x="6" height="38" width="38"
                fill="#f2f5e9" fill-opacity="0.5" stroke="#606060" stroke-width="1.0"/>
           <path id="arrow"
             d="M 11.500037,31.436501 C 11.940474,20.09759 22.043105,11.32322 32.158766,21.979434 L 37.068811,17.246167 C 37.068811,17.246167 37.088388,32 37.088388,32 L 22.160133,31.978069 C 22.160133,31.978069 26.997745,27.140456 26.997745,27.140456 C 18.528582,18.264221 13.291696,25.230495 11.500037,31.436501 z"
             style="fill:#404040;"/>
          </a>
         </g>
        </svg>
</svg>
