<?xml version="1.0" encoding="UTF-8" standalone="no"?>
<!DOCTYPE svg PUBLIC "-//W3C//DTD SVG 1.1//EN"
 "http://www.w3.org/Graphics/SVG/1.1/DTD/svg11.dtd">
<!-- Generated by graphviz version 2.43.0 (0)
 -->
<!-- Title: Components/Objects/QueryTools/src/QueryAddExternalResources.cpp Pages: 1 -->
<!--zoomable 508 -->
<svg id="main" version="1.1" xmlns="http://www.w3.org/2000/svg" xmlns:xlink="http://www.w3.org/1999/xlink" xml:space="preserve" onload="init(evt)">
<style type="text/css"><![CDATA[
.edge:hover path { stroke: red; }
.edge:hover polygon { stroke: red; fill: red; }
]]></style>
<script type="text/javascript"><![CDATA[
var edges = document.getElementsByTagName('g');
if (edges && edges.length) {
  for (var i=0;i<edges.length;i++) {
    if (edges[i].id.substr(0,4)=='edge') {
      edges[i].setAttribute('class','edge');
    }
  }
}
]]></script>
        <defs>
                <circle id="rim" cx="0" cy="0" r="7"/>
                <circle id="rim2" cx="0" cy="0" r="3.5"/>
                <g id="zoomPlus">
                        <use xlink:href="#rim" fill="#404040">
                                <set attributeName="fill" to="#808080" begin="zoomplus.mouseover" end="zoomplus.mouseout"/>
                        </use>
                        <path d="M-4,0h8M0,-4v8" fill="none" stroke="white" stroke-width="1.5" pointer-events="none"/>
                </g>
                <g id="zoomMin">
                        <use xlink:href="#rim" fill="#404040">
                                <set attributeName="fill" to="#808080" begin="zoomminus.mouseover" end="zoomminus.mouseout"/>
                        </use>
                        <path d="M-4,0h8" fill="none" stroke="white" stroke-width="1.5" pointer-events="none"/>
                </g>
                <g id="dirArrow">
                        <path fill="none" stroke="white" stroke-width="1.5" d="M0,-3.0v7 M-2.5,-0.5L0,-3.0L2.5,-0.5"/>
                </g>
               <g id="resetDef">
                       <use xlink:href="#rim2" fill="#404040">
                               <set attributeName="fill" to="#808080" begin="reset.mouseover" end="reset.mouseout"/>
                       </use>
               </g>
        </defs>

<script type="text/javascript">
var viewWidth = 786;
var viewHeight = 508;
var sectionId = 'dynsection-0';
</script>
<script xlink:href="../../svgpan.js"/>
<svg id="graph" class="graph">
<g id="viewport">
<title>Components/Objects/QueryTools/src/QueryAddExternalResources.cpp</title>
<!-- Node1 -->
<g id="node1" class="node">
<title>Node1</title>
<g id="a_node1"><a xlink:title=" ">
<polygon fill="#bfbfbf" stroke="black" points="541,-458.5 541,-499.5 723,-499.5 723,-458.5 541,-458.5"/>
<text text-anchor="start" x="549" y="-487.5" font-family="Helvetica,sans-Serif" font-size="10.00">Components/Objects</text>
<text text-anchor="start" x="549" y="-476.5" font-family="Helvetica,sans-Serif" font-size="10.00">/QueryTools/src/QueryAddExternal</text>
<text text-anchor="middle" x="632" y="-465.5" font-family="Helvetica,sans-Serif" font-size="10.00">Resources.cpp</text>
</a>
</g>
</g>
<!-- Node2 -->
<g id="node2" class="node">
<title>Node2</title>
<g id="a_node2"><a xlink:href="../../d3/d31/_query_add_external_resources_8hpp.html" target="_top" xlink:title=" ">
<polygon fill="none" stroke="black" points="556,-391.5 556,-421.5 708,-421.5 708,-391.5 556,-391.5"/>
<text text-anchor="start" x="564" y="-409.5" font-family="Helvetica,sans-Serif" font-size="10.00">../include/QueryAddExternal</text>
<text text-anchor="middle" x="632" y="-398.5" font-family="Helvetica,sans-Serif" font-size="10.00">Resources.hpp</text>
</a>
</g>
</g>
<!-- Node1&#45;&gt;Node2 -->
<g id="edge1" class="edge">
<title>Node1&#45;&gt;Node2</title>
<path fill="none" stroke="midnightblue" d="M632,-458.36C632,-450.23 632,-440.7 632,-432.11"/>
<polygon fill="midnightblue" stroke="midnightblue" points="635.5,-431.89 632,-421.89 628.5,-431.89 635.5,-431.89"/>
</g>
<!-- Node3 -->
<g id="node3" class="node">
<title>Node3</title>
<g id="a_node3"><a xlink:href="../../da/d5f/_b_a_s_i_c_8hpp.html" target="_top" xlink:title=" ">
<polygon fill="none" stroke="black" points="37,-56.5 37,-86.5 153,-86.5 153,-56.5 37,-56.5"/>
<text text-anchor="start" x="45" y="-74.5" font-family="Helvetica,sans-Serif" font-size="10.00">../../../Global_Include</text>
<text text-anchor="middle" x="95" y="-63.5" font-family="Helvetica,sans-Serif" font-size="10.00">/BASIC.hpp</text>
</a>
</g>
</g>
<!-- Node2&#45;&gt;Node3 -->
<g id="edge2" class="edge">
<title>Node2&#45;&gt;Node3</title>
<path fill="none" stroke="midnightblue" d="M555.77,-406.06C387.67,-405.24 0,-391.18 0,-279 0,-279 0,-279 0,-204.5 0,-157.99 39.34,-116.68 67.39,-93.13"/>
<polygon fill="midnightblue" stroke="midnightblue" points="69.76,-95.71 75.32,-86.69 65.35,-90.28 69.76,-95.71"/>
</g>
<!-- Node4 -->
<g id="node4" class="node">
<title>Node4</title>
<g id="a_node4"><a xlink:href="../../d3/deb/_general___error_8hpp.html" target="_top" xlink:title=" ">
<polygon fill="none" stroke="black" points="487.5,-56.5 487.5,-86.5 632.5,-86.5 632.5,-56.5 487.5,-56.5"/>
<text text-anchor="start" x="495.5" y="-74.5" font-family="Helvetica,sans-Serif" font-size="10.00">../../../Objects/ErrorHandler</text>
<text text-anchor="middle" x="560" y="-63.5" font-family="Helvetica,sans-Serif" font-size="10.00">/include/General_Error.hpp</text>
</a>
</g>
</g>
<!-- Node2&#45;&gt;Node4 -->
<g id="edge3" class="edge">
<title>Node2&#45;&gt;Node4</title>
<path fill="none" stroke="midnightblue" d="M670.74,-391.4C714,-372.87 778,-335.85 778,-279 778,-279 778,-279 778,-204.5 778,-164.15 768.98,-148.85 738,-123 711.29,-100.71 675.33,-88.24 642.72,-81.27"/>
<polygon fill="midnightblue" stroke="midnightblue" points="643.21,-77.8 632.72,-79.28 641.84,-84.67 643.21,-77.8"/>
</g>
<!-- Node7 -->
<g id="node7" class="node">
<title>Node7</title>
<g id="a_node7"><a xlink:href="../../d1/dc6/_query_base_8hpp.html" target="_top" xlink:title=" ">
<polygon fill="none" stroke="black" points="524,-123.5 524,-153.5 712,-153.5 712,-123.5 524,-123.5"/>
<text text-anchor="start" x="532" y="-141.5" font-family="Helvetica,sans-Serif" font-size="10.00">../../../Interfaces</text>
<text text-anchor="middle" x="618" y="-130.5" font-family="Helvetica,sans-Serif" font-size="10.00">/QueryBase/include/QueryBase.hpp</text>
</a>
</g>
</g>
<!-- Node2&#45;&gt;Node7 -->
<g id="edge6" class="edge">
<title>Node2&#45;&gt;Node7</title>
<path fill="none" stroke="midnightblue" d="M631.25,-391.2C628.97,-347.89 622.12,-217.82 619.27,-163.62"/>
<polygon fill="midnightblue" stroke="midnightblue" points="622.76,-163.35 618.74,-153.55 615.77,-163.72 622.76,-163.35"/>
</g>
<!-- Node8 -->
<g id="node8" class="node">
<title>Node8</title>
<g id="a_node8"><a xlink:href="../../d7/dfc/_query_message_8hpp.html" target="_top" xlink:title=" ">
<polygon fill="none" stroke="black" points="361,-335.5 361,-354.5 471,-354.5 471,-335.5 361,-335.5"/>
<text text-anchor="middle" x="416" y="-342.5" font-family="Helvetica,sans-Serif" font-size="10.00">QueryMessage.hpp</text>
</a>
</g>
</g>
<!-- Node2&#45;&gt;Node8 -->
<g id="edge9" class="edge">
<title>Node2&#45;&gt;Node8</title>
<path fill="none" stroke="midnightblue" d="M581.08,-391.47C543.17,-381.03 492.08,-366.96 456.83,-357.25"/>
<polygon fill="midnightblue" stroke="midnightblue" points="457.45,-353.79 446.88,-354.51 455.59,-360.54 457.45,-353.79"/>
</g>
<!-- Node5 -->
<g id="node5" class="node">
<title>Node5</title>
<g id="a_node5"><a xlink:title=" ">
<polygon fill="none" stroke="#bfbfbf" points="503,-0.5 503,-19.5 547,-19.5 547,-0.5 503,-0.5"/>
<text text-anchor="middle" x="525" y="-7.5" font-family="Helvetica,sans-Serif" font-size="10.00">string</text>
</a>
</g>
</g>
<!-- Node4&#45;&gt;Node5 -->
<g id="edge4" class="edge">
<title>Node4&#45;&gt;Node5</title>
<path fill="none" stroke="midnightblue" d="M551.71,-56.4C546.78,-48.02 540.49,-37.33 535.25,-28.42"/>
<polygon fill="midnightblue" stroke="midnightblue" points="538.18,-26.5 530.09,-19.66 532.15,-30.05 538.18,-26.5"/>
</g>
<!-- Node6 -->
<g id="node6" class="node">
<title>Node6</title>
<g id="a_node6"><a xlink:title=" ">
<polygon fill="none" stroke="#bfbfbf" points="565,-0.5 565,-19.5 625,-19.5 625,-0.5 565,-0.5"/>
<text text-anchor="middle" x="595" y="-7.5" font-family="Helvetica,sans-Serif" font-size="10.00">iostream</text>
</a>
</g>
</g>
<!-- Node4&#45;&gt;Node6 -->
<g id="edge5" class="edge">
<title>Node4&#45;&gt;Node6</title>
<path fill="none" stroke="midnightblue" d="M568.29,-56.4C573.22,-48.02 579.51,-37.33 584.75,-28.42"/>
<polygon fill="midnightblue" stroke="midnightblue" points="587.85,-30.05 589.91,-19.66 581.82,-26.5 587.85,-30.05"/>
</g>
<!-- Node7&#45;&gt;Node3 -->
<g id="edge7" class="edge">
<title>Node7&#45;&gt;Node3</title>
<path fill="none" stroke="midnightblue" d="M523.89,-125.8C420,-112.89 255.3,-92.42 163.16,-80.97"/>
<polygon fill="midnightblue" stroke="midnightblue" points="163.47,-77.48 153.11,-79.72 162.6,-84.43 163.47,-77.48"/>
</g>
<!-- Node7&#45;&gt;Node4 -->
<g id="edge8" class="edge">
<title>Node7&#45;&gt;Node4</title>
<path fill="none" stroke="midnightblue" d="M605.41,-123.4C597.81,-114.88 587.97,-103.85 579.39,-94.23"/>
<polygon fill="midnightblue" stroke="midnightblue" points="581.83,-91.71 572.56,-86.58 576.61,-96.37 581.83,-91.71"/>
</g>
<!-- Node8&#45;&gt;Node3 -->
<g id="edge10" class="edge">
<title>Node8&#45;&gt;Node3</title>
<path fill="none" stroke="midnightblue" d="M360.71,-340.57C316.4,-335.91 253.79,-324.92 205,-299 133.56,-261.05 111.41,-233.21 95,-154 91.08,-135.09 91.34,-113.17 92.44,-96.83"/>
<polygon fill="midnightblue" stroke="midnightblue" points="95.96,-96.77 93.29,-86.52 88.98,-96.2 95.96,-96.77"/>
</g>
<!-- Node8&#45;&gt;Node4 -->
<g id="edge11" class="edge">
<title>Node8&#45;&gt;Node4</title>
<path fill="none" stroke="midnightblue" d="M447.63,-335.5C512.89,-316.04 661.34,-261.45 721,-154 742.24,-115.74 692.37,-94.97 642.66,-83.99"/>
<polygon fill="midnightblue" stroke="midnightblue" points="643.25,-80.54 632.74,-81.92 641.82,-87.39 643.25,-80.54"/>
</g>
<!-- Node9 -->
<g id="node9" class="node">
<title>Node9</title>
<g id="a_node9"><a xlink:href="../../d7/dc6/_query_message_base_8hpp.html" target="_top" xlink:title=" ">
<polygon fill="none" stroke="black" points="214.5,-257.5 214.5,-298.5 401.5,-298.5 401.5,-257.5 214.5,-257.5"/>
<text text-anchor="start" x="222.5" y="-286.5" font-family="Helvetica,sans-Serif" font-size="10.00">../../../Interfaces</text>
<text text-anchor="start" x="222.5" y="-275.5" font-family="Helvetica,sans-Serif" font-size="10.00">/QueryBase/include/QueryMessage</text>
<text text-anchor="middle" x="308" y="-264.5" font-family="Helvetica,sans-Serif" font-size="10.00">Base.hpp</text>
</a>
</g>
</g>
<!-- Node8&#45;&gt;Node9 -->
<g id="edge12" class="edge">
<title>Node8&#45;&gt;Node9</title>
<path fill="none" stroke="midnightblue" d="M401.43,-335.23C388.07,-327.19 367.63,-314.89 349.28,-303.84"/>
<polygon fill="midnightblue" stroke="midnightblue" points="350.84,-300.7 340.47,-298.54 347.23,-306.7 350.84,-300.7"/>
</g>
<!-- Node9&#45;&gt;Node3 -->
<g id="edge13" class="edge">
<title>Node9&#45;&gt;Node3</title>
<path fill="none" stroke="midnightblue" d="M235.13,-257.5C210.48,-248.78 183.73,-236.82 162,-221 131.08,-198.49 123.53,-188.95 108,-154 99.93,-135.85 96.79,-113.46 95.6,-96.74"/>
<polygon fill="midnightblue" stroke="midnightblue" points="99.1,-96.48 95.08,-86.67 92.11,-96.84 99.1,-96.48"/>
</g>
<!-- Node9&#45;&gt;Node4 -->
<g id="edge14" class="edge">
<title>Node9&#45;&gt;Node4</title>
<path fill="none" stroke="midnightblue" d="M336.73,-257.36C352.07,-246.75 371.19,-233.34 388,-221 427.33,-192.11 438,-185.82 475,-154 497.72,-134.46 522.28,-110.58 539.13,-93.74"/>
<polygon fill="midnightblue" stroke="midnightblue" points="541.73,-96.09 546.3,-86.53 536.76,-91.16 541.73,-96.09"/>
</g>
<!-- Node10 -->
<g id="node10" class="node">
<title>Node10</title>
<g id="a_node10"><a xlink:href="../../d7/d60/_timeservice_8hpp.html" target="_top" xlink:title=" ">
<polygon fill="none" stroke="black" points="236.5,-190.5 236.5,-220.5 379.5,-220.5 379.5,-190.5 236.5,-190.5"/>
<text text-anchor="start" x="244.5" y="-208.5" font-family="Helvetica,sans-Serif" font-size="10.00">../../../Objects/Timeservice</text>
<text text-anchor="middle" x="308" y="-197.5" font-family="Helvetica,sans-Serif" font-size="10.00">/include/Timeservice.hpp</text>
</a>
</g>
</g>
<!-- Node9&#45;&gt;Node10 -->
<g id="edge15" class="edge">
<title>Node9&#45;&gt;Node10</title>
<path fill="none" stroke="midnightblue" d="M308,-257.36C308,-249.23 308,-239.7 308,-231.11"/>
<polygon fill="midnightblue" stroke="midnightblue" points="311.5,-230.89 308,-220.89 304.5,-230.89 311.5,-230.89"/>
</g>
<!-- Node16 -->
<g id="node16" class="node">
<title>Node16</title>
<g id="a_node16"><a xlink:title=" ">
<polygon fill="none" stroke="#bfbfbf" points="171.5,-196 171.5,-215 218.5,-215 218.5,-196 171.5,-196"/>
<text text-anchor="middle" x="195" y="-203" font-family="Helvetica,sans-Serif" font-size="10.00">vector</text>
</a>
</g>
</g>
<!-- Node9&#45;&gt;Node16 -->
<g id="edge25" class="edge">
<title>Node9&#45;&gt;Node16</title>
<path fill="none" stroke="midnightblue" d="M276.52,-257.36C257.79,-245.67 234.46,-231.12 217.56,-220.57"/>
<polygon fill="midnightblue" stroke="midnightblue" points="219.24,-217.5 208.9,-215.17 215.53,-223.44 219.24,-217.5"/>
</g>
<!-- Node10&#45;&gt;Node3 -->
<g id="edge16" class="edge">
<title>Node10&#45;&gt;Node3</title>
<path fill="none" stroke="midnightblue" d="M237.62,-190.41C196.29,-180.96 149.1,-167.77 133,-154 115.75,-139.24 105.83,-114.94 100.49,-96.71"/>
<polygon fill="midnightblue" stroke="midnightblue" points="103.8,-95.56 97.85,-86.79 97.04,-97.36 103.8,-95.56"/>
</g>
<!-- Node10&#45;&gt;Node4 -->
<g id="edge17" class="edge">
<title>Node10&#45;&gt;Node4</title>
<path fill="none" stroke="midnightblue" d="M352.62,-190.5C378.56,-181.58 411.46,-168.91 439,-154 459.72,-142.78 462.55,-136.3 482,-123 497.33,-112.52 514.64,-101.26 529.06,-92.03"/>
<polygon fill="midnightblue" stroke="midnightblue" points="531.06,-94.9 537.62,-86.57 527.3,-89 531.06,-94.9"/>
</g>
<!-- Node11 -->
<g id="node11" class="node">
<title>Node11</title>
<g id="a_node11"><a xlink:href="../../d6/d4b/_r_t_c___h_a_l_8hpp.html" target="_top" xlink:title=" ">
<polygon fill="none" stroke="black" points="350,-129 350,-148 430,-148 430,-129 350,-129"/>
<text text-anchor="middle" x="390" y="-136" font-family="Helvetica,sans-Serif" font-size="10.00">RTC_HAL.hpp</text>
</a>
</g>
</g>
<!-- Node10&#45;&gt;Node11 -->
<g id="edge18" class="edge">
<title>Node10&#45;&gt;Node11</title>
<path fill="none" stroke="midnightblue" d="M325.79,-190.4C339.08,-179.86 357.23,-165.48 370.84,-154.69"/>
<polygon fill="midnightblue" stroke="midnightblue" points="373.37,-157.15 379.03,-148.19 369.02,-151.66 373.37,-157.15"/>
</g>
<!-- Node13 -->
<g id="node13" class="node">
<title>Node13</title>
<g id="a_node13"><a xlink:title=" ">
<polygon fill="none" stroke="#bfbfbf" points="142,-129 142,-148 192,-148 192,-129 142,-129"/>
<text text-anchor="middle" x="167" y="-136" font-family="Helvetica,sans-Serif" font-size="10.00">chrono</text>
</a>
</g>
</g>
<!-- Node10&#45;&gt;Node13 -->
<g id="edge22" class="edge">
<title>Node10&#45;&gt;Node13</title>
<path fill="none" stroke="midnightblue" d="M277.41,-190.4C252.77,-179.04 218.45,-163.22 194.64,-152.24"/>
<polygon fill="midnightblue" stroke="midnightblue" points="196,-149.02 185.45,-148.01 193.07,-155.37 196,-149.02"/>
</g>
<!-- Node14 -->
<g id="node14" class="node">
<title>Node14</title>
<g id="a_node14"><a xlink:title=" ">
<polygon fill="none" stroke="#bfbfbf" points="210,-129 210,-148 266,-148 266,-129 210,-129"/>
<text text-anchor="middle" x="238" y="-136" font-family="Helvetica,sans-Serif" font-size="10.00">iomanip</text>
</a>
</g>
</g>
<!-- Node10&#45;&gt;Node14 -->
<g id="edge23" class="edge">
<title>Node10&#45;&gt;Node14</title>
<path fill="none" stroke="midnightblue" d="M292.81,-190.4C281.68,-180.06 266.56,-166.02 255.03,-155.31"/>
<polygon fill="midnightblue" stroke="midnightblue" points="257.07,-152.43 247.36,-148.19 252.31,-157.56 257.07,-152.43"/>
</g>
<!-- Node15 -->
<g id="node15" class="node">
<title>Node15</title>
<g id="a_node15"><a xlink:title=" ">
<polygon fill="none" stroke="#bfbfbf" points="284,-129 284,-148 332,-148 332,-129 284,-129"/>
<text text-anchor="middle" x="308" y="-136" font-family="Helvetica,sans-Serif" font-size="10.00">thread</text>
</a>
</g>
</g>
<!-- Node10&#45;&gt;Node15 -->
<g id="edge24" class="edge">
<title>Node10&#45;&gt;Node15</title>
<path fill="none" stroke="midnightblue" d="M308,-190.4C308,-181.06 308,-168.71 308,-158.52"/>
<polygon fill="midnightblue" stroke="midnightblue" points="311.5,-158.19 308,-148.19 304.5,-158.19 311.5,-158.19"/>
</g>
<!-- Node11&#45;&gt;Node3 -->
<g id="edge19" class="edge">
<title>Node11&#45;&gt;Node3</title>
<path fill="none" stroke="midnightblue" d="M362.64,-128.96C355.62,-126.89 348.06,-124.77 341,-123 281.45,-108.1 212.99,-94.32 163.43,-84.93"/>
<polygon fill="midnightblue" stroke="midnightblue" points="163.94,-81.46 153.47,-83.05 162.65,-88.34 163.94,-81.46"/>
</g>
<!-- Node11&#45;&gt;Node4 -->
<g id="edge20" class="edge">
<title>Node11&#45;&gt;Node4</title>
<path fill="none" stroke="midnightblue" d="M412.57,-128.87C438.3,-119.03 481.04,-102.69 513.9,-90.13"/>
<polygon fill="midnightblue" stroke="midnightblue" points="515.22,-93.37 523.31,-86.53 512.72,-86.83 515.22,-93.37"/>
</g>
<!-- Node12 -->
<g id="node12" class="node">
<title>Node12</title>
<g id="a_node12"><a xlink:title=" ">
<polygon fill="none" stroke="#bfbfbf" points="368,-62 368,-81 412,-81 412,-62 368,-62"/>
<text text-anchor="middle" x="390" y="-69" font-family="Helvetica,sans-Serif" font-size="10.00">ctime</text>
</a>
</g>
</g>
<!-- Node11&#45;&gt;Node12 -->
<g id="edge21" class="edge">
<title>Node11&#45;&gt;Node12</title>
<path fill="none" stroke="midnightblue" d="M390,-128.73C390,-119.18 390,-103.62 390,-91.28"/>
<polygon fill="midnightblue" stroke="midnightblue" points="393.5,-91.13 390,-81.13 386.5,-91.13 393.5,-91.13"/>
</g>
</g>
</svg>
        <g id="navigator" transform="translate(0 0)" fill="#404254">
                <rect fill="#f2f5e9" fill-opacity="0.5" stroke="#606060" stroke-width=".5" x="0" y="0" width="60" height="60"/>
                <use id="zoomplus" xlink:href="#zoomPlus" x="17" y="9" onmousedown="handleZoom(evt,'in')"/>
                <use id="zoomminus" xlink:href="#zoomMin" x="42" y="9" onmousedown="handleZoom(evt,'out')"/>
                <use id="reset" xlink:href="#resetDef" x="30" y="36" onmousedown="handleReset()"/>
                <g id="arrowUp" xlink:href="#dirArrow" transform="translate(30 24)" onmousedown="handlePan(0,-1)">
                  <use xlink:href="#rim" fill="#404040">
                        <set attributeName="fill" to="#808080" begin="arrowUp.mouseover" end="arrowUp.mouseout"/>
                  </use>
                  <path fill="none" stroke="white" stroke-width="1.5" d="M0,-3.0v7 M-2.5,-0.5L0,-3.0L2.5,-0.5"/>
                </g>
                <g id="arrowRight" xlink:href="#dirArrow" transform="rotate(90) translate(36 -43)" onmousedown="handlePan(1,0)">
                  <use xlink:href="#rim" fill="#404040">
                        <set attributeName="fill" to="#808080" begin="arrowRight.mouseover" end="arrowRight.mouseout"/>
                  </use>
                  <path fill="none" stroke="white" stroke-width="1.5" d="M0,-3.0v7 M-2.5,-0.5L0,-3.0L2.5,-0.5"/>
                </g>
                <g id="arrowDown" xlink:href="#dirArrow" transform="rotate(180) translate(-30 -48)" onmousedown="handlePan(0,1)">
                  <use xlink:href="#rim" fill="#404040">
                        <set attributeName="fill" to="#808080" begin="arrowDown.mouseover" end="arrowDown.mouseout"/>
                  </use>
                  <path fill="none" stroke="white" stroke-width="1.5" d="M0,-3.0v7 M-2.5,-0.5L0,-3.0L2.5,-0.5"/>
                </g>
                <g id="arrowLeft" xlink:href="#dirArrow" transform="rotate(270) translate(-36 17)" onmousedown="handlePan(-1,0)">
                  <use xlink:href="#rim" fill="#404040">
                        <set attributeName="fill" to="#808080" begin="arrowLeft.mouseover" end="arrowLeft.mouseout"/>
                  </use>
                  <path fill="none" stroke="white" stroke-width="1.5" d="M0,-3.0v7 M-2.5,-0.5L0,-3.0L2.5,-0.5"/>
                </g>
        </g>
        <svg viewBox="0 0 15 15" width="100%" height="30px" preserveAspectRatio="xMaxYMin meet">
         <g id="arrow_out" transform="scale(0.3 0.3)">
          <a xlink:href="_query_add_external_resources_8cpp__incl_org.svg" target="_base">
           <rect id="button" ry="5" rx="5" y="6" x="6" height="38" width="38"
                fill="#f2f5e9" fill-opacity="0.5" stroke="#606060" stroke-width="1.0"/>
           <path id="arrow"
             d="M 11.500037,31.436501 C 11.940474,20.09759 22.043105,11.32322 32.158766,21.979434 L 37.068811,17.246167 C 37.068811,17.246167 37.088388,32 37.088388,32 L 22.160133,31.978069 C 22.160133,31.978069 26.997745,27.140456 26.997745,27.140456 C 18.528582,18.264221 13.291696,25.230495 11.500037,31.436501 z"
             style="fill:#404040;"/>
          </a>
         </g>
        </svg>
</svg>
