<?xml version="1.0" encoding="UTF-8" standalone="no"?>
<!DOCTYPE svg PUBLIC "-//W3C//DTD SVG 1.1//EN"
 "http://www.w3.org/Graphics/SVG/1.1/DTD/svg11.dtd">
<!-- Generated by graphviz version 2.43.0 (0)
 -->
<!-- Title: Components/RTOS/FreeRTOS/include/Task.h Pages: 1 -->
<!--zoomable 518 -->
<svg id="main" version="1.1" xmlns="http://www.w3.org/2000/svg" xmlns:xlink="http://www.w3.org/1999/xlink" xml:space="preserve" onload="init(evt)">
<style type="text/css"><![CDATA[
.edge:hover path { stroke: red; }
.edge:hover polygon { stroke: red; fill: red; }
]]></style>
<script type="text/javascript"><![CDATA[
var edges = document.getElementsByTagName('g');
if (edges && edges.length) {
  for (var i=0;i<edges.length;i++) {
    if (edges[i].id.substr(0,4)=='edge') {
      edges[i].setAttribute('class','edge');
    }
  }
}
]]></script>
        <defs>
                <circle id="rim" cx="0" cy="0" r="7"/>
                <circle id="rim2" cx="0" cy="0" r="3.5"/>
                <g id="zoomPlus">
                        <use xlink:href="#rim" fill="#404040">
                                <set attributeName="fill" to="#808080" begin="zoomplus.mouseover" end="zoomplus.mouseout"/>
                        </use>
                        <path d="M-4,0h8M0,-4v8" fill="none" stroke="white" stroke-width="1.5" pointer-events="none"/>
                </g>
                <g id="zoomMin">
                        <use xlink:href="#rim" fill="#404040">
                                <set attributeName="fill" to="#808080" begin="zoomminus.mouseover" end="zoomminus.mouseout"/>
                        </use>
                        <path d="M-4,0h8" fill="none" stroke="white" stroke-width="1.5" pointer-events="none"/>
                </g>
                <g id="dirArrow">
                        <path fill="none" stroke="white" stroke-width="1.5" d="M0,-3.0v7 M-2.5,-0.5L0,-3.0L2.5,-0.5"/>
                </g>
               <g id="resetDef">
                       <use xlink:href="#rim2" fill="#404040">
                               <set attributeName="fill" to="#808080" begin="reset.mouseover" end="reset.mouseout"/>
                       </use>
               </g>
        </defs>

<script type="text/javascript">
var viewWidth = 1603;
var viewHeight = 518;
var sectionId = 'dynsection-1';
</script>
<script xlink:href="../../svgpan.js"/>
<svg id="graph" class="graph">
<g id="viewport">
<title>Components/RTOS/FreeRTOS/include/Task.h</title>
<!-- Node1 -->
<g id="node1" class="node">
<title>Node1</title>
<g id="a_node1"><a xlink:title=" ">
<polygon fill="#bfbfbf" stroke="black" points="737.5,-479.5 737.5,-509.5 895.5,-509.5 895.5,-479.5 737.5,-479.5"/>
<text text-anchor="start" x="745.5" y="-497.5" font-family="Helvetica,sans-Serif" font-size="10.00">Components/RTOS/FreeRTOS</text>
<text text-anchor="middle" x="816.5" y="-486.5" font-family="Helvetica,sans-Serif" font-size="10.00">/include/Task.h</text>
</a>
</g>
</g>
<!-- Node2 -->
<g id="node2" class="node">
<title>Node2</title>
<g id="a_node2"><a xlink:href="../../de/dd1/_o_t_a_8hpp.html" target="_top" xlink:title=" ">
<polygon fill="none" stroke="black" points="460.5,-412.5 460.5,-442.5 582.5,-442.5 582.5,-412.5 460.5,-412.5"/>
<text text-anchor="start" x="468.5" y="-430.5" font-family="Helvetica,sans-Serif" font-size="10.00">Components/Objects</text>
<text text-anchor="middle" x="521.5" y="-419.5" font-family="Helvetica,sans-Serif" font-size="10.00">/OTA/include/OTA.hpp</text>
</a>
</g>
</g>
<!-- Node1&#45;&gt;Node2 -->
<g id="edge1" class="edge">
<title>Node1&#45;&gt;Node2</title>
<path fill="none" stroke="midnightblue" d="M742.86,-477.27C693.43,-466.38 629.08,-452.2 582.51,-441.94"/>
<polygon fill="midnightblue" stroke="midnightblue" points="742.33,-480.74 752.85,-479.48 743.84,-473.91 742.33,-480.74"/>
</g>
<!-- Node5 -->
<g id="node5" class="node">
<title>Node5</title>
<g id="a_node5"><a xlink:href="../../d9/d1c/_sensor_controller_base_8hpp.html" target="_top" xlink:title=" ">
<polygon fill="none" stroke="black" points="962.5,-178.5 962.5,-219.5 1146.5,-219.5 1146.5,-178.5 962.5,-178.5"/>
<text text-anchor="start" x="970.5" y="-207.5" font-family="Helvetica,sans-Serif" font-size="10.00">Components/Interfaces</text>
<text text-anchor="start" x="970.5" y="-196.5" font-family="Helvetica,sans-Serif" font-size="10.00">/SensorControllerBase</text>
<text text-anchor="middle" x="1054.5" y="-185.5" font-family="Helvetica,sans-Serif" font-size="10.00">/include/SensorControllerBase.hpp</text>
</a>
</g>
</g>
<!-- Node1&#45;&gt;Node5 -->
<g id="edge35" class="edge">
<title>Node1&#45;&gt;Node5</title>
<path fill="none" stroke="midnightblue" d="M841.71,-472.81C881.27,-439.36 958.55,-369.83 1008.5,-298 1025.88,-273 1039.69,-240.4 1047.48,-219.82"/>
<polygon fill="midnightblue" stroke="midnightblue" points="839.28,-470.29 833.87,-479.39 843.78,-475.65 839.28,-470.29"/>
</g>
<!-- Node14 -->
<g id="node14" class="node">
<title>Node14</title>
<g id="a_node14"><a xlink:href="../../d0/dc1/_data_broker_8hpp.html" target="_top" xlink:title=" ">
<polygon fill="none" stroke="black" points="1302.5,-95 1302.5,-136 1420.5,-136 1420.5,-95 1302.5,-95"/>
<text text-anchor="start" x="1310.5" y="-124" font-family="Helvetica,sans-Serif" font-size="10.00">Components/Objects</text>
<text text-anchor="start" x="1310.5" y="-113" font-family="Helvetica,sans-Serif" font-size="10.00">/DataBroker/include</text>
<text text-anchor="middle" x="1361.5" y="-102" font-family="Helvetica,sans-Serif" font-size="10.00">/DataBroker.hpp</text>
</a>
</g>
</g>
<!-- Node1&#45;&gt;Node14 -->
<g id="edge37" class="edge">
<title>Node1&#45;&gt;Node14</title>
<path fill="none" stroke="midnightblue" d="M905.63,-486.99C1047.91,-474.11 1310.5,-439.08 1310.5,-356 1310.5,-356 1310.5,-356 1310.5,-276 1310.5,-223.67 1335.71,-166.07 1350.68,-136.49"/>
<polygon fill="midnightblue" stroke="midnightblue" points="905.25,-483.51 895.6,-487.87 905.87,-490.48 905.25,-483.51"/>
</g>
<!-- Node16 -->
<g id="node16" class="node">
<title>Node16</title>
<g id="a_node16"><a xlink:href="../../d2/dc5/_service_base_8hpp.html" target="_top" xlink:title=" ">
<polygon fill="none" stroke="black" points="485.5,-178.5 485.5,-219.5 615.5,-219.5 615.5,-178.5 485.5,-178.5"/>
<text text-anchor="start" x="493.5" y="-207.5" font-family="Helvetica,sans-Serif" font-size="10.00">Components/Interfaces</text>
<text text-anchor="start" x="493.5" y="-196.5" font-family="Helvetica,sans-Serif" font-size="10.00">/ServiceBase/include</text>
<text text-anchor="middle" x="550.5" y="-185.5" font-family="Helvetica,sans-Serif" font-size="10.00">/ServiceBase.hpp</text>
</a>
</g>
</g>
<!-- Node1&#45;&gt;Node16 -->
<g id="edge36" class="edge">
<title>Node1&#45;&gt;Node16</title>
<path fill="none" stroke="midnightblue" d="M820.27,-469.14C826.25,-420.57 831.72,-311.59 771.5,-256 722.39,-210.67 690.24,-236.61 625.5,-220 622.24,-219.16 618.9,-218.3 615.52,-217.42"/>
<polygon fill="midnightblue" stroke="midnightblue" points="816.76,-468.96 818.89,-479.34 823.7,-469.9 816.76,-468.96"/>
</g>
<!-- Node21 -->
<g id="node21" class="node">
<title>Node21</title>
<g id="a_node21"><a xlink:href="../../d0/d6a/_maintainer_8hpp.html" target="_top" xlink:title=" ">
<polygon fill="none" stroke="black" points="199.5,-256.5 199.5,-297.5 317.5,-297.5 317.5,-256.5 199.5,-256.5"/>
<text text-anchor="start" x="207.5" y="-285.5" font-family="Helvetica,sans-Serif" font-size="10.00">Components/Objects</text>
<text text-anchor="start" x="207.5" y="-274.5" font-family="Helvetica,sans-Serif" font-size="10.00">/Maintainer/include</text>
<text text-anchor="middle" x="258.5" y="-263.5" font-family="Helvetica,sans-Serif" font-size="10.00">/Maintainer.hpp</text>
</a>
</g>
</g>
<!-- Node1&#45;&gt;Node21 -->
<g id="edge38" class="edge">
<title>Node1&#45;&gt;Node21</title>
<path fill="none" stroke="midnightblue" d="M727.14,-489.16C581.33,-479.91 302.85,-452.44 247.5,-376 230.93,-353.12 240.29,-319.02 249.04,-297.67"/>
<polygon fill="midnightblue" stroke="midnightblue" points="727.21,-492.67 737.41,-489.8 727.64,-485.69 727.21,-492.67"/>
</g>
<!-- Node24 -->
<g id="node24" class="node">
<title>Node24</title>
<g id="a_node24"><a xlink:href="../../dd/d82/_active_current_sensor_8hpp.html" target="_top" xlink:title=" ">
<polygon fill="none" stroke="black" points="319.5,-178.5 319.5,-219.5 467.5,-219.5 467.5,-178.5 319.5,-178.5"/>
<text text-anchor="start" x="327.5" y="-207.5" font-family="Helvetica,sans-Serif" font-size="10.00">Components/Sensor/Active</text>
<text text-anchor="start" x="327.5" y="-196.5" font-family="Helvetica,sans-Serif" font-size="10.00">CurrentSensor/include</text>
<text text-anchor="middle" x="393.5" y="-185.5" font-family="Helvetica,sans-Serif" font-size="10.00">/ActiveCurrentSensor.hpp</text>
</a>
</g>
</g>
<!-- Node1&#45;&gt;Node24 -->
<g id="edge40" class="edge">
<title>Node1&#45;&gt;Node24</title>
<path fill="none" stroke="midnightblue" d="M788.37,-473.44C734.05,-435.02 616.07,-353.14 570.5,-334 502.9,-305.61 459.82,-351.33 409.5,-298 389.74,-277.06 388.95,-241.74 390.79,-219.71"/>
<polygon fill="midnightblue" stroke="midnightblue" points="786.65,-476.51 796.83,-479.44 790.69,-470.8 786.65,-476.51"/>
</g>
<!-- Node30 -->
<g id="node30" class="node">
<title>Node30</title>
<g id="a_node30"><a xlink:href="../../d5/dbf/_task_8cpp.html" target="_top" xlink:title=" ">
<polygon fill="none" stroke="black" points="1338.5,-412.5 1338.5,-442.5 1496.5,-442.5 1496.5,-412.5 1338.5,-412.5"/>
<text text-anchor="start" x="1346.5" y="-430.5" font-family="Helvetica,sans-Serif" font-size="10.00">Components/RTOS/FreeRTOS</text>
<text text-anchor="middle" x="1417.5" y="-419.5" font-family="Helvetica,sans-Serif" font-size="10.00">/src/Task.cpp</text>
</a>
</g>
</g>
<!-- Node1&#45;&gt;Node30 -->
<g id="edge39" class="edge">
<title>Node1&#45;&gt;Node30</title>
<path fill="none" stroke="midnightblue" d="M906.07,-486.11C1007.69,-477.38 1178.3,-461.65 1324.5,-443 1329.04,-442.42 1333.7,-441.8 1338.39,-441.14"/>
<polygon fill="midnightblue" stroke="midnightblue" points="905.51,-482.65 895.85,-486.99 906.11,-489.62 905.51,-482.65"/>
</g>
<!-- Node3 -->
<g id="node3" class="node">
<title>Node3</title>
<g id="a_node3"><a xlink:href="../../d4/d63/mqtt__api__v2_8hpp.html" target="_top" xlink:title=" ">
<polygon fill="none" stroke="black" points="655,-334.5 655,-375.5 788,-375.5 788,-334.5 655,-334.5"/>
<text text-anchor="start" x="663" y="-363.5" font-family="Helvetica,sans-Serif" font-size="10.00">Components/Protocols</text>
<text text-anchor="start" x="663" y="-352.5" font-family="Helvetica,sans-Serif" font-size="10.00">/MQTT/include/mqtt_api</text>
<text text-anchor="middle" x="721.5" y="-341.5" font-family="Helvetica,sans-Serif" font-size="10.00">_v2.hpp</text>
</a>
</g>
</g>
<!-- Node2&#45;&gt;Node3 -->
<g id="edge2" class="edge">
<title>Node2&#45;&gt;Node3</title>
<path fill="none" stroke="midnightblue" d="M570.96,-409.07C599.8,-398.9 636.24,-386.05 666.05,-375.55"/>
<polygon fill="midnightblue" stroke="midnightblue" points="569.76,-405.78 561.49,-412.4 572.09,-412.38 569.76,-405.78"/>
</g>
<!-- Node2&#45;&gt;Node21 -->
<g id="edge32" class="edge">
<title>Node2&#45;&gt;Node21</title>
<path fill="none" stroke="midnightblue" d="M539.78,-404.4C554.2,-384.16 569.32,-354.32 552.5,-334 548.74,-329.46 402.53,-303.21 317.75,-288.31"/>
<polygon fill="midnightblue" stroke="midnightblue" points="536.95,-402.34 533.73,-412.44 542.54,-406.55 536.95,-402.34"/>
</g>
<!-- Node28 -->
<g id="node28" class="node">
<title>Node28</title>
<g id="a_node28"><a xlink:href="../../d9/d42/_o_t_a_8cpp.html" target="_top" xlink:title=" ">
<polygon fill="none" stroke="black" points="256.5,-340 256.5,-370 374.5,-370 374.5,-340 256.5,-340"/>
<text text-anchor="start" x="264.5" y="-358" font-family="Helvetica,sans-Serif" font-size="10.00">Components/Objects</text>
<text text-anchor="middle" x="315.5" y="-347" font-family="Helvetica,sans-Serif" font-size="10.00">/OTA/src/OTA.cpp</text>
</a>
</g>
</g>
<!-- Node2&#45;&gt;Node28 -->
<g id="edge33" class="edge">
<title>Node2&#45;&gt;Node28</title>
<path fill="none" stroke="midnightblue" d="M470.71,-409.12C435.59,-397.1 389.44,-381.31 356.62,-370.07"/>
<polygon fill="midnightblue" stroke="midnightblue" points="469.71,-412.48 480.31,-412.4 471.98,-405.85 469.71,-412.48"/>
</g>
<!-- Node29 -->
<g id="node29" class="node">
<title>Node29</title>
<g id="a_node29"><a xlink:href="../../d8/d80/_o_t_a__test_8cpp.html" target="_top" xlink:title=" ">
<polygon fill="none" stroke="black" points="393,-340 393,-370 544,-370 544,-340 393,-340"/>
<text text-anchor="start" x="401" y="-358" font-family="Helvetica,sans-Serif" font-size="10.00">Components/Objects</text>
<text text-anchor="middle" x="468.5" y="-347" font-family="Helvetica,sans-Serif" font-size="10.00">/OTA/test/test/OTA_test.cpp</text>
</a>
</g>
</g>
<!-- Node2&#45;&gt;Node29 -->
<g id="edge34" class="edge">
<title>Node2&#45;&gt;Node29</title>
<path fill="none" stroke="midnightblue" d="M504.74,-404.21C496.39,-393.1 486.53,-379.99 479.21,-370.25"/>
<polygon fill="midnightblue" stroke="midnightblue" points="501.97,-406.34 510.77,-412.23 507.56,-402.14 501.97,-406.34"/>
</g>
<!-- Node4 -->
<g id="node4" class="node">
<title>Node4</title>
<g id="a_node4"><a xlink:href="../../d3/d0d/_error_code_parser_8hpp.html" target="_top" xlink:title=" ">
<polygon fill="none" stroke="black" points="845,-256.5 845,-297.5 964,-297.5 964,-256.5 845,-256.5"/>
<text text-anchor="start" x="853" y="-285.5" font-family="Helvetica,sans-Serif" font-size="10.00">Components/Objects</text>
<text text-anchor="start" x="853" y="-274.5" font-family="Helvetica,sans-Serif" font-size="10.00">/ErrorHandler/include</text>
<text text-anchor="middle" x="904.5" y="-263.5" font-family="Helvetica,sans-Serif" font-size="10.00">/ErrorCodeParser.hpp</text>
</a>
</g>
</g>
<!-- Node3&#45;&gt;Node4 -->
<g id="edge3" class="edge">
<title>Node3&#45;&gt;Node4</title>
<path fill="none" stroke="midnightblue" d="M778.16,-330.47C803.63,-319.89 833.33,-307.56 857.53,-297.51"/>
<polygon fill="midnightblue" stroke="midnightblue" points="776.52,-327.36 768.63,-334.43 779.2,-333.82 776.52,-327.36"/>
</g>
<!-- Node3&#45;&gt;Node5 -->
<g id="edge20" class="edge">
<title>Node3&#45;&gt;Node5</title>
<path fill="none" stroke="midnightblue" d="M797.96,-349.99C850.6,-344.25 920.36,-330.54 973.5,-298 1005.31,-278.52 1030.42,-242.05 1043.82,-219.51"/>
<polygon fill="midnightblue" stroke="midnightblue" points="797.6,-346.51 788,-351 798.31,-353.47 797.6,-346.51"/>
</g>
<!-- Node3&#45;&gt;Node16 -->
<g id="edge21" class="edge">
<title>Node3&#45;&gt;Node16</title>
<path fill="none" stroke="midnightblue" d="M743.88,-326.01C757.75,-305.05 770.19,-276.58 754.5,-256 753.39,-254.55 674.97,-233.3 615.69,-217.4"/>
<polygon fill="midnightblue" stroke="midnightblue" points="741.01,-324 738.14,-334.2 746.75,-328.02 741.01,-324"/>
</g>
<!-- Node19 -->
<g id="node19" class="node">
<title>Node19</title>
<g id="a_node19"><a xlink:href="../../d7/d44/hal__mqtt__log_8hpp.html" target="_top" xlink:title=" ">
<polygon fill="none" stroke="black" points="1117.5,-256.5 1117.5,-297.5 1235.5,-297.5 1235.5,-256.5 1117.5,-256.5"/>
<text text-anchor="start" x="1125.5" y="-285.5" font-family="Helvetica,sans-Serif" font-size="10.00">Components/Objects</text>
<text text-anchor="start" x="1125.5" y="-274.5" font-family="Helvetica,sans-Serif" font-size="10.00">/Logger/include/hal</text>
<text text-anchor="middle" x="1176.5" y="-263.5" font-family="Helvetica,sans-Serif" font-size="10.00">_mqtt_log.hpp</text>
</a>
</g>
</g>
<!-- Node3&#45;&gt;Node19 -->
<g id="edge22" class="edge">
<title>Node3&#45;&gt;Node19</title>
<path fill="none" stroke="midnightblue" d="M798.02,-341.22C888.04,-326.18 1035.54,-301.55 1117.28,-287.89"/>
<polygon fill="midnightblue" stroke="midnightblue" points="797.43,-337.77 788.15,-342.87 798.59,-344.67 797.43,-337.77"/>
</g>
<!-- Node3&#45;&gt;Node21 -->
<g id="edge24" class="edge">
<title>Node3&#45;&gt;Node21</title>
<path fill="none" stroke="midnightblue" d="M644.59,-341.38C552.66,-326.29 400.83,-301.36 317.6,-287.7"/>
<polygon fill="midnightblue" stroke="midnightblue" points="644.24,-344.86 654.67,-343.03 645.37,-337.96 644.24,-344.86"/>
</g>
<!-- Node3&#45;&gt;Node24 -->
<g id="edge31" class="edge">
<title>Node3&#45;&gt;Node24</title>
<path fill="none" stroke="midnightblue" d="M730.74,-324.57C735.53,-303.04 737.46,-274.48 721.5,-256 685.53,-214.36 530.53,-230.46 476.5,-220 473.59,-219.44 470.63,-218.84 467.64,-218.22"/>
<polygon fill="midnightblue" stroke="midnightblue" points="727.29,-323.95 728.23,-334.5 734.08,-325.66 727.29,-323.95"/>
</g>
<!-- Node26 -->
<g id="node26" class="node">
<title>Node26</title>
<g id="a_node26"><a xlink:href="../../d3/dc1/mqtt__api__v2_8cpp.html" target="_top" xlink:title=" ">
<polygon fill="none" stroke="black" points="419,-262 419,-292 568,-292 568,-262 419,-262"/>
<text text-anchor="start" x="427" y="-280" font-family="Helvetica,sans-Serif" font-size="10.00">Components/Protocols</text>
<text text-anchor="middle" x="493.5" y="-269" font-family="Helvetica,sans-Serif" font-size="10.00">/MQTT/src/mqtt_api_v2.cpp</text>
</a>
</g>
</g>
<!-- Node3&#45;&gt;Node26 -->
<g id="edge29" class="edge">
<title>Node3&#45;&gt;Node26</title>
<path fill="none" stroke="midnightblue" d="M653.27,-331.26C615.12,-318.54 568.75,-303.08 535.82,-292.11"/>
<polygon fill="midnightblue" stroke="midnightblue" points="652.19,-334.59 662.78,-334.43 654.4,-327.95 652.19,-334.59"/>
</g>
<!-- Node27 -->
<g id="node27" class="node">
<title>Node27</title>
<g id="a_node27"><a xlink:href="../../df/df3/mqtt__v2__test_8cpp.html" target="_top" xlink:title=" ">
<polygon fill="none" stroke="black" points="586.5,-256.5 586.5,-297.5 712.5,-297.5 712.5,-256.5 586.5,-256.5"/>
<text text-anchor="start" x="594.5" y="-285.5" font-family="Helvetica,sans-Serif" font-size="10.00">Components/Protocols</text>
<text text-anchor="start" x="594.5" y="-274.5" font-family="Helvetica,sans-Serif" font-size="10.00">/MQTT/test/test/mqtt</text>
<text text-anchor="middle" x="649.5" y="-263.5" font-family="Helvetica,sans-Serif" font-size="10.00">_v2_test.cpp</text>
</a>
</g>
</g>
<!-- Node3&#45;&gt;Node27 -->
<g id="edge30" class="edge">
<title>Node3&#45;&gt;Node27</title>
<path fill="none" stroke="midnightblue" d="M695.84,-326.92C686.64,-317.2 676.45,-306.45 667.98,-297.51"/>
<polygon fill="midnightblue" stroke="midnightblue" points="693.54,-329.58 702.96,-334.43 698.62,-324.76 693.54,-329.58"/>
</g>
<!-- Node4&#45;&gt;Node5 -->
<g id="edge4" class="edge">
<title>Node4&#45;&gt;Node5</title>
<path fill="none" stroke="midnightblue" d="M952.05,-251.91C972.67,-241.46 996.51,-229.38 1016,-219.51"/>
<polygon fill="midnightblue" stroke="midnightblue" points="950.47,-248.79 943.13,-256.43 953.63,-255.03 950.47,-248.79"/>
</g>
<!-- Node4&#45;&gt;Node16 -->
<g id="edge17" class="edge">
<title>Node4&#45;&gt;Node16</title>
<path fill="none" stroke="midnightblue" d="M834.92,-257C833.44,-256.66 831.96,-256.33 830.5,-256 740.2,-235.91 715.83,-239.94 625.5,-220 622.34,-219.3 619.12,-218.56 615.86,-217.79"/>
<polygon fill="midnightblue" stroke="midnightblue" points="834.3,-260.45 844.84,-259.38 835.93,-253.65 834.3,-260.45"/>
</g>
<!-- Node17 -->
<g id="node17" class="node">
<title>Node17</title>
<g id="a_node17"><a xlink:href="../../d2/df5/_error_code_parser_8cpp.html" target="_top" xlink:title=" ">
<polygon fill="none" stroke="black" points="634,-178.5 634,-219.5 783,-219.5 783,-178.5 634,-178.5"/>
<text text-anchor="start" x="642" y="-207.5" font-family="Helvetica,sans-Serif" font-size="10.00">Components/Objects</text>
<text text-anchor="start" x="642" y="-196.5" font-family="Helvetica,sans-Serif" font-size="10.00">/ErrorHandler/src/ErrorCode</text>
<text text-anchor="middle" x="708.5" y="-185.5" font-family="Helvetica,sans-Serif" font-size="10.00">Parser.cpp</text>
</a>
</g>
</g>
<!-- Node4&#45;&gt;Node17 -->
<g id="edge18" class="edge">
<title>Node4&#45;&gt;Node17</title>
<path fill="none" stroke="midnightblue" d="M844.53,-252.75C817.1,-242.11 784.95,-229.65 758.8,-219.51"/>
<polygon fill="midnightblue" stroke="midnightblue" points="843.44,-256.08 854.03,-256.43 845.97,-249.55 843.44,-256.08"/>
</g>
<!-- Node18 -->
<g id="node18" class="node">
<title>Node18</title>
<g id="a_node18"><a xlink:href="../../d9/db8/_error_code_parser__test_8cpp.html" target="_top" xlink:title=" ">
<polygon fill="none" stroke="black" points="801,-178.5 801,-219.5 944,-219.5 944,-178.5 801,-178.5"/>
<text text-anchor="start" x="809" y="-207.5" font-family="Helvetica,sans-Serif" font-size="10.00">Components/Objects</text>
<text text-anchor="start" x="809" y="-196.5" font-family="Helvetica,sans-Serif" font-size="10.00">/ErrorHandler/test/test</text>
<text text-anchor="middle" x="872.5" y="-185.5" font-family="Helvetica,sans-Serif" font-size="10.00">/ErrorCodeParser_test.cpp</text>
</a>
</g>
</g>
<!-- Node4&#45;&gt;Node18 -->
<g id="edge19" class="edge">
<title>Node4&#45;&gt;Node18</title>
<path fill="none" stroke="midnightblue" d="M892.36,-247.17C888.47,-237.93 884.26,-227.92 880.71,-219.51"/>
<polygon fill="midnightblue" stroke="midnightblue" points="889.15,-248.57 896.26,-256.43 895.6,-245.85 889.15,-248.57"/>
</g>
<!-- Node6 -->
<g id="node6" class="node">
<title>Node6</title>
<g id="a_node6"><a xlink:href="../../db/d12/_distance_sensor_controller_8hpp.html" target="_top" xlink:title=" ">
<polygon fill="none" stroke="black" points="901,-95 901,-136 1104,-136 1104,-95 901,-95"/>
<text text-anchor="start" x="909" y="-124" font-family="Helvetica,sans-Serif" font-size="10.00">Components/Controller</text>
<text text-anchor="start" x="909" y="-113" font-family="Helvetica,sans-Serif" font-size="10.00">/DistanceSensorController</text>
<text text-anchor="middle" x="1002.5" y="-102" font-family="Helvetica,sans-Serif" font-size="10.00">/include/DistanceSensorController.hpp</text>
</a>
</g>
</g>
<!-- Node5&#45;&gt;Node6 -->
<g id="edge5" class="edge">
<title>Node5&#45;&gt;Node6</title>
<path fill="none" stroke="midnightblue" d="M1036.46,-169.72C1029.37,-158.61 1021.4,-146.13 1014.97,-136.05"/>
<polygon fill="midnightblue" stroke="midnightblue" points="1033.58,-171.72 1041.91,-178.27 1039.48,-167.96 1033.58,-171.72"/>
</g>
<!-- Node10 -->
<g id="node10" class="node">
<title>Node10</title>
<g id="a_node10"><a xlink:href="../../d2/d8d/_sensor_controller_base_8cpp.html" target="_top" xlink:title=" ">
<polygon fill="none" stroke="black" points="1122.5,-95 1122.5,-136 1284.5,-136 1284.5,-95 1122.5,-95"/>
<text text-anchor="start" x="1130.5" y="-124" font-family="Helvetica,sans-Serif" font-size="10.00">Components/Interfaces</text>
<text text-anchor="start" x="1130.5" y="-113" font-family="Helvetica,sans-Serif" font-size="10.00">/SensorControllerBase</text>
<text text-anchor="middle" x="1203.5" y="-102" font-family="Helvetica,sans-Serif" font-size="10.00">/src/SensorControllerBase.cpp</text>
</a>
</g>
</g>
<!-- Node5&#45;&gt;Node10 -->
<g id="edge9" class="edge">
<title>Node5&#45;&gt;Node10</title>
<path fill="none" stroke="midnightblue" d="M1099.02,-173.65C1121.01,-161.62 1147.19,-147.3 1167.84,-136"/>
<polygon fill="midnightblue" stroke="midnightblue" points="1097.28,-170.61 1090.19,-178.48 1100.64,-176.75 1097.28,-170.61"/>
</g>
<!-- Node11 -->
<g id="node11" class="node">
<title>Node11</title>
<g id="a_node11"><a xlink:href="../../db/dc2/_sensor_controller_base___m_o_c_k_8hpp.html" target="_top" xlink:title=" ">
<polygon fill="none" stroke="black" points="668.5,-89.5 668.5,-141.5 844.5,-141.5 844.5,-89.5 668.5,-89.5"/>
<text text-anchor="start" x="676.5" y="-129.5" font-family="Helvetica,sans-Serif" font-size="10.00">Components/Interfaces</text>
<text text-anchor="start" x="676.5" y="-118.5" font-family="Helvetica,sans-Serif" font-size="10.00">/SensorControllerBase</text>
<text text-anchor="start" x="676.5" y="-107.5" font-family="Helvetica,sans-Serif" font-size="10.00">/test/mock/SensorControllerBase</text>
<text text-anchor="middle" x="756.5" y="-96.5" font-family="Helvetica,sans-Serif" font-size="10.00">_MOCK.hpp</text>
</a>
</g>
</g>
<!-- Node5&#45;&gt;Node11 -->
<g id="edge10" class="edge">
<title>Node5&#45;&gt;Node11</title>
<path fill="none" stroke="midnightblue" d="M973.43,-175.83C933.55,-164.92 885.4,-151.75 844.61,-140.6"/>
<polygon fill="midnightblue" stroke="midnightblue" points="972.55,-179.22 983.12,-178.48 974.4,-172.46 972.55,-179.22"/>
</g>
<!-- Node13 -->
<g id="node13" class="node">
<title>Node13</title>
<g id="a_node13"><a xlink:href="../../d8/d19/_sensor_controller_test_8cpp.html" target="_top" xlink:title=" ">
<polygon fill="none" stroke="black" points="680.5,-6 680.5,-47 864.5,-47 864.5,-6 680.5,-6"/>
<text text-anchor="start" x="688.5" y="-35" font-family="Helvetica,sans-Serif" font-size="10.00">Components/Interfaces</text>
<text text-anchor="start" x="688.5" y="-24" font-family="Helvetica,sans-Serif" font-size="10.00">/SensorControllerBase</text>
<text text-anchor="middle" x="772.5" y="-13" font-family="Helvetica,sans-Serif" font-size="10.00">/test/test/SensorControllerTest.cpp</text>
</a>
</g>
</g>
<!-- Node5&#45;&gt;Node13 -->
<g id="edge13" class="edge">
<title>Node5&#45;&gt;Node13</title>
<path fill="none" stroke="midnightblue" d="M957.68,-175.15C934.97,-167.01 911.79,-156.2 892.5,-142 868.95,-124.66 874.02,-109.83 853.5,-89 838.14,-73.4 818.65,-58.49 802.64,-47.25"/>
<polygon fill="midnightblue" stroke="midnightblue" points="956.78,-178.54 967.37,-178.48 959.05,-171.92 956.78,-178.54"/>
</g>
<!-- Node5&#45;&gt;Node14 -->
<g id="edge14" class="edge">
<title>Node5&#45;&gt;Node14</title>
<path fill="none" stroke="midnightblue" d="M1156.43,-177.15C1199.11,-167.64 1249.04,-155.48 1293.5,-142 1299.41,-140.21 1305.55,-138.17 1311.62,-136.04"/>
<polygon fill="midnightblue" stroke="midnightblue" points="1155.6,-173.75 1146.59,-179.32 1157.11,-180.58 1155.6,-173.75"/>
</g>
<!-- Node7 -->
<g id="node7" class="node">
<title>Node7</title>
<g id="a_node7"><a xlink:href="../../dd/dde/_distance_sensor_controller_8cpp.html" target="_top" xlink:title=" ">
<polygon fill="none" stroke="black" points="883,-6 883,-47 1064,-47 1064,-6 883,-6"/>
<text text-anchor="start" x="891" y="-35" font-family="Helvetica,sans-Serif" font-size="10.00">Components/Controller</text>
<text text-anchor="start" x="891" y="-24" font-family="Helvetica,sans-Serif" font-size="10.00">/DistanceSensorController</text>
<text text-anchor="middle" x="973.5" y="-13" font-family="Helvetica,sans-Serif" font-size="10.00">/src/DistanceSensorController.cpp</text>
</a>
</g>
</g>
<!-- Node6&#45;&gt;Node7 -->
<g id="edge6" class="edge">
<title>Node6&#45;&gt;Node7</title>
<path fill="none" stroke="midnightblue" d="M992.73,-85.19C988.56,-72.67 983.79,-58.38 980.05,-47.16"/>
<polygon fill="midnightblue" stroke="midnightblue" points="989.44,-86.38 995.92,-94.76 996.08,-84.16 989.44,-86.38"/>
</g>
<!-- Node8 -->
<g id="node8" class="node">
<title>Node8</title>
<g id="a_node8"><a xlink:href="../../d7/d91/_distance_sensor_controller__test_8cpp.html" target="_top" xlink:title=" ">
<polygon fill="none" stroke="black" points="1082,-0.5 1082,-52.5 1269,-52.5 1269,-0.5 1082,-0.5"/>
<text text-anchor="start" x="1090" y="-40.5" font-family="Helvetica,sans-Serif" font-size="10.00">Components/Controller</text>
<text text-anchor="start" x="1090" y="-29.5" font-family="Helvetica,sans-Serif" font-size="10.00">/DistanceSensorController</text>
<text text-anchor="start" x="1090" y="-18.5" font-family="Helvetica,sans-Serif" font-size="10.00">/test/test/DistanceSensorController</text>
<text text-anchor="middle" x="1175.5" y="-7.5" font-family="Helvetica,sans-Serif" font-size="10.00">_test.cpp</text>
</a>
</g>
</g>
<!-- Node6&#45;&gt;Node8 -->
<g id="edge7" class="edge">
<title>Node6&#45;&gt;Node8</title>
<path fill="none" stroke="midnightblue" d="M1050.37,-90.42C1073.79,-78.65 1101.95,-64.49 1125.62,-52.58"/>
<polygon fill="midnightblue" stroke="midnightblue" points="1048.69,-87.36 1041.32,-94.98 1051.83,-93.61 1048.69,-87.36"/>
</g>
<!-- Node9 -->
<g id="node9" class="node">
<title>Node9</title>
<g id="a_node9"><a xlink:href="../../da/d75/_data_broker__test_8cpp.html" target="_top" xlink:title=" ">
<polygon fill="none" stroke="black" points="1287,-6 1287,-47 1406,-47 1406,-6 1287,-6"/>
<text text-anchor="start" x="1295" y="-35" font-family="Helvetica,sans-Serif" font-size="10.00">Components/Objects</text>
<text text-anchor="start" x="1295" y="-24" font-family="Helvetica,sans-Serif" font-size="10.00">/DataBroker/test/test</text>
<text text-anchor="middle" x="1346.5" y="-13" font-family="Helvetica,sans-Serif" font-size="10.00">/DataBroker_test.cpp</text>
</a>
</g>
</g>
<!-- Node6&#45;&gt;Node9 -->
<g id="edge8" class="edge">
<title>Node6&#45;&gt;Node9</title>
<path fill="none" stroke="midnightblue" d="M1097.06,-92.7C1102.62,-91.44 1108.13,-90.2 1113.5,-89 1186.74,-72.6 1206.51,-74.23 1278.5,-53 1284.43,-51.25 1290.57,-49.24 1296.64,-47.13"/>
<polygon fill="midnightblue" stroke="midnightblue" points="1096,-89.35 1087.02,-94.98 1097.55,-96.18 1096,-89.35"/>
</g>
<!-- Node12 -->
<g id="node12" class="node">
<title>Node12</title>
<g id="a_node12"><a xlink:href="../../dc/d0f/_sensor_controller_base___m_o_c_k_8cpp.html" target="_top" xlink:title=" ">
<polygon fill="none" stroke="black" points="486.5,-0.5 486.5,-52.5 662.5,-52.5 662.5,-0.5 486.5,-0.5"/>
<text text-anchor="start" x="494.5" y="-40.5" font-family="Helvetica,sans-Serif" font-size="10.00">Components/Interfaces</text>
<text text-anchor="start" x="494.5" y="-29.5" font-family="Helvetica,sans-Serif" font-size="10.00">/SensorControllerBase</text>
<text text-anchor="start" x="494.5" y="-18.5" font-family="Helvetica,sans-Serif" font-size="10.00">/test/mock/SensorControllerBase</text>
<text text-anchor="middle" x="574.5" y="-7.5" font-family="Helvetica,sans-Serif" font-size="10.00">_MOCK.cpp</text>
</a>
</g>
</g>
<!-- Node11&#45;&gt;Node12 -->
<g id="edge11" class="edge">
<title>Node11&#45;&gt;Node12</title>
<path fill="none" stroke="midnightblue" d="M694.61,-84.92C672.64,-74.41 648.14,-62.7 627.02,-52.61"/>
<polygon fill="midnightblue" stroke="midnightblue" points="693.33,-88.18 703.86,-89.34 696.35,-81.87 693.33,-88.18"/>
</g>
<!-- Node11&#45;&gt;Node13 -->
<g id="edge12" class="edge">
<title>Node11&#45;&gt;Node13</title>
<path fill="none" stroke="midnightblue" d="M762.94,-79.49C764.97,-68.45 767.14,-56.65 768.9,-47.08"/>
<polygon fill="midnightblue" stroke="midnightblue" points="759.49,-78.87 761.13,-89.34 766.38,-80.13 759.49,-78.87"/>
</g>
<!-- Node14&#45;&gt;Node9 -->
<g id="edge16" class="edge">
<title>Node14&#45;&gt;Node9</title>
<path fill="none" stroke="midnightblue" d="M1356.38,-84.81C1354.24,-72.38 1351.81,-58.27 1349.89,-47.16"/>
<polygon fill="midnightblue" stroke="midnightblue" points="1352.95,-85.5 1358.1,-94.76 1359.85,-84.31 1352.95,-85.5"/>
</g>
<!-- Node15 -->
<g id="node15" class="node">
<title>Node15</title>
<g id="a_node15"><a xlink:href="../../d4/ddc/_data_broker_8cpp.html" target="_top" xlink:title=" ">
<polygon fill="none" stroke="black" points="1424.5,-11.5 1424.5,-41.5 1594.5,-41.5 1594.5,-11.5 1424.5,-11.5"/>
<text text-anchor="start" x="1432.5" y="-29.5" font-family="Helvetica,sans-Serif" font-size="10.00">Components/Objects</text>
<text text-anchor="middle" x="1509.5" y="-18.5" font-family="Helvetica,sans-Serif" font-size="10.00">/DataBroker/src/DataBroker.cpp</text>
</a>
</g>
</g>
<!-- Node14&#45;&gt;Node15 -->
<g id="edge15" class="edge">
<title>Node14&#45;&gt;Node15</title>
<path fill="none" stroke="midnightblue" d="M1403.44,-89.84C1430.03,-74.22 1463.46,-54.56 1485.61,-41.55"/>
<polygon fill="midnightblue" stroke="midnightblue" points="1401.56,-86.89 1394.71,-94.98 1405.11,-92.93 1401.56,-86.89"/>
</g>
<!-- Node20 -->
<g id="node20" class="node">
<title>Node20</title>
<g id="a_node20"><a xlink:href="../../d0/db0/hal__mqtt__log_8cpp.html" target="_top" xlink:title=" ">
<polygon fill="none" stroke="black" points="1164.5,-178.5 1164.5,-219.5 1282.5,-219.5 1282.5,-178.5 1164.5,-178.5"/>
<text text-anchor="start" x="1172.5" y="-207.5" font-family="Helvetica,sans-Serif" font-size="10.00">Components/Objects</text>
<text text-anchor="start" x="1172.5" y="-196.5" font-family="Helvetica,sans-Serif" font-size="10.00">/Logger/src/hal_mqtt</text>
<text text-anchor="middle" x="1223.5" y="-185.5" font-family="Helvetica,sans-Serif" font-size="10.00">_log.cpp</text>
</a>
</g>
</g>
<!-- Node19&#45;&gt;Node20 -->
<g id="edge23" class="edge">
<title>Node19&#45;&gt;Node20</title>
<path fill="none" stroke="midnightblue" d="M1193.97,-247.76C1199.78,-238.35 1206.12,-228.1 1211.44,-219.51"/>
<polygon fill="midnightblue" stroke="midnightblue" points="1190.89,-246.08 1188.6,-256.43 1196.84,-249.76 1190.89,-246.08"/>
</g>
<!-- Node22 -->
<g id="node22" class="node">
<title>Node22</title>
<g id="a_node22"><a xlink:href="../../dd/ddd/_maintainer_8cpp.html" target="_top" xlink:title=" ">
<polygon fill="none" stroke="black" points="0,-184 0,-214 165,-214 165,-184 0,-184"/>
<text text-anchor="start" x="8" y="-202" font-family="Helvetica,sans-Serif" font-size="10.00">Components/Objects</text>
<text text-anchor="middle" x="82.5" y="-191" font-family="Helvetica,sans-Serif" font-size="10.00">/Maintainer/src/Maintainer.cpp</text>
</a>
</g>
</g>
<!-- Node21&#45;&gt;Node22 -->
<g id="edge25" class="edge">
<title>Node21&#45;&gt;Node22</title>
<path fill="none" stroke="midnightblue" d="M203.95,-252.45C174.87,-239.89 140.05,-224.85 115.17,-214.11"/>
<polygon fill="midnightblue" stroke="midnightblue" points="202.61,-255.68 213.18,-256.43 205.38,-249.25 202.61,-255.68"/>
</g>
<!-- Node23 -->
<g id="node23" class="node">
<title>Node23</title>
<g id="a_node23"><a xlink:href="../../d8/d4a/maintainer__test_8cpp.html" target="_top" xlink:title=" ">
<polygon fill="none" stroke="black" points="183.5,-178.5 183.5,-219.5 301.5,-219.5 301.5,-178.5 183.5,-178.5"/>
<text text-anchor="start" x="191.5" y="-207.5" font-family="Helvetica,sans-Serif" font-size="10.00">Components/Objects</text>
<text text-anchor="start" x="191.5" y="-196.5" font-family="Helvetica,sans-Serif" font-size="10.00">/Maintainer/test/test</text>
<text text-anchor="middle" x="242.5" y="-185.5" font-family="Helvetica,sans-Serif" font-size="10.00">/maintainer_test.cpp</text>
</a>
</g>
</g>
<!-- Node21&#45;&gt;Node23 -->
<g id="edge26" class="edge">
<title>Node21&#45;&gt;Node23</title>
<path fill="none" stroke="midnightblue" d="M252.31,-246.59C250.4,-237.51 248.34,-227.74 246.61,-219.51"/>
<polygon fill="midnightblue" stroke="midnightblue" points="248.89,-247.36 254.38,-256.43 255.74,-245.92 248.89,-247.36"/>
</g>
<!-- Node21&#45;&gt;Node24 -->
<g id="edge27" class="edge">
<title>Node21&#45;&gt;Node24</title>
<path fill="none" stroke="midnightblue" d="M302.05,-251.49C320.43,-241.13 341.55,-229.25 358.85,-219.51"/>
<polygon fill="midnightblue" stroke="midnightblue" points="300.26,-248.47 293.27,-256.43 303.7,-254.57 300.26,-248.47"/>
</g>
<!-- Node25 -->
<g id="node25" class="node">
<title>Node25</title>
<g id="a_node25"><a xlink:href="../../d2/d77/_active_current_sensor_8cpp.html" target="_top" xlink:title=" ">
<polygon fill="none" stroke="black" points="307,-95 307,-136 480,-136 480,-95 307,-95"/>
<text text-anchor="start" x="315" y="-124" font-family="Helvetica,sans-Serif" font-size="10.00">Components/Sensor/Active</text>
<text text-anchor="start" x="315" y="-113" font-family="Helvetica,sans-Serif" font-size="10.00">CurrentSensor/src/ActiveCurrent</text>
<text text-anchor="middle" x="393.5" y="-102" font-family="Helvetica,sans-Serif" font-size="10.00">Sensor.cpp</text>
</a>
</g>
</g>
<!-- Node24&#45;&gt;Node25 -->
<g id="edge28" class="edge">
<title>Node24&#45;&gt;Node25</title>
<path fill="none" stroke="midnightblue" d="M393.5,-168.06C393.5,-157.38 393.5,-145.63 393.5,-136.05"/>
<polygon fill="midnightblue" stroke="midnightblue" points="390,-168.27 393.5,-178.27 397,-168.27 390,-168.27"/>
</g>
</g>
</svg>
        <g id="navigator" transform="translate(0 0)" fill="#404254">
                <rect fill="#f2f5e9" fill-opacity="0.5" stroke="#606060" stroke-width=".5" x="0" y="0" width="60" height="60"/>
                <use id="zoomplus" xlink:href="#zoomPlus" x="17" y="9" onmousedown="handleZoom(evt,'in')"/>
                <use id="zoomminus" xlink:href="#zoomMin" x="42" y="9" onmousedown="handleZoom(evt,'out')"/>
                <use id="reset" xlink:href="#resetDef" x="30" y="36" onmousedown="handleReset()"/>
                <g id="arrowUp" xlink:href="#dirArrow" transform="translate(30 24)" onmousedown="handlePan(0,-1)">
                  <use xlink:href="#rim" fill="#404040">
                        <set attributeName="fill" to="#808080" begin="arrowUp.mouseover" end="arrowUp.mouseout"/>
                  </use>
                  <path fill="none" stroke="white" stroke-width="1.5" d="M0,-3.0v7 M-2.5,-0.5L0,-3.0L2.5,-0.5"/>
                </g>
                <g id="arrowRight" xlink:href="#dirArrow" transform="rotate(90) translate(36 -43)" onmousedown="handlePan(1,0)">
                  <use xlink:href="#rim" fill="#404040">
                        <set attributeName="fill" to="#808080" begin="arrowRight.mouseover" end="arrowRight.mouseout"/>
                  </use>
                  <path fill="none" stroke="white" stroke-width="1.5" d="M0,-3.0v7 M-2.5,-0.5L0,-3.0L2.5,-0.5"/>
                </g>
                <g id="arrowDown" xlink:href="#dirArrow" transform="rotate(180) translate(-30 -48)" onmousedown="handlePan(0,1)">
                  <use xlink:href="#rim" fill="#404040">
                        <set attributeName="fill" to="#808080" begin="arrowDown.mouseover" end="arrowDown.mouseout"/>
                  </use>
                  <path fill="none" stroke="white" stroke-width="1.5" d="M0,-3.0v7 M-2.5,-0.5L0,-3.0L2.5,-0.5"/>
                </g>
                <g id="arrowLeft" xlink:href="#dirArrow" transform="rotate(270) translate(-36 17)" onmousedown="handlePan(-1,0)">
                  <use xlink:href="#rim" fill="#404040">
                        <set attributeName="fill" to="#808080" begin="arrowLeft.mouseover" end="arrowLeft.mouseout"/>
                  </use>
                  <path fill="none" stroke="white" stroke-width="1.5" d="M0,-3.0v7 M-2.5,-0.5L0,-3.0L2.5,-0.5"/>
                </g>
        </g>
        <svg viewBox="0 0 15 15" width="100%" height="30px" preserveAspectRatio="xMaxYMin meet">
         <g id="arrow_out" transform="scale(0.3 0.3)">
          <a xlink:href="_task_8h__dep__incl_org.svg" target="_base">
           <rect id="button" ry="5" rx="5" y="6" x="6" height="38" width="38"
                fill="#f2f5e9" fill-opacity="0.5" stroke="#606060" stroke-width="1.0"/>
           <path id="arrow"
             d="M 11.500037,31.436501 C 11.940474,20.09759 22.043105,11.32322 32.158766,21.979434 L 37.068811,17.246167 C 37.068811,17.246167 37.088388,32 37.088388,32 L 22.160133,31.978069 C 22.160133,31.978069 26.997745,27.140456 26.997745,27.140456 C 18.528582,18.264221 13.291696,25.230495 11.500037,31.436501 z"
             style="fill:#404040;"/>
          </a>
         </g>
        </svg>
</svg>
