<?xml version="1.0" encoding="UTF-8" standalone="no"?>
<!DOCTYPE svg PUBLIC "-//W3C//DTD SVG 1.1//EN"
 "http://www.w3.org/Graphics/SVG/1.1/DTD/svg11.dtd">
<!-- Generated by graphviz version 2.43.0 (0)
 -->
<!-- Title: Components/RTOS/FreeRTOS/include/Task.h Pages: 1 -->
<svg width="1461pt" height="518pt"
 viewBox="0.00 0.00 1461.00 518.00" xmlns="http://www.w3.org/2000/svg" xmlns:xlink="http://www.w3.org/1999/xlink">
<g id="graph0" class="graph" transform="scale(1 1) rotate(0) translate(4 514)">
<title>Components/RTOS/FreeRTOS/include/Task.h</title>
<!-- Node1 -->
<g id="node1" class="node">
<title>Node1</title>
<g id="a_node1"><a xlink:title=" ">
<polygon fill="#bfbfbf" stroke="black" points="1056,-479.5 1056,-509.5 1214,-509.5 1214,-479.5 1056,-479.5"/>
<text text-anchor="start" x="1064" y="-497.5" font-family="Helvetica,sans-Serif" font-size="10.00">Components/RTOS/FreeRTOS</text>
<text text-anchor="middle" x="1135" y="-486.5" font-family="Helvetica,sans-Serif" font-size="10.00">/include/Task.h</text>
</a>
</g>
</g>
<!-- Node2 -->
<g id="node2" class="node">
<title>Node2</title>
<g id="a_node2"><a xlink:href="../../de/dd1/_o_t_a_8hpp.html" target="_top" xlink:title=" ">
<polygon fill="none" stroke="black" points="913,-412.5 913,-442.5 1035,-442.5 1035,-412.5 913,-412.5"/>
<text text-anchor="start" x="921" y="-430.5" font-family="Helvetica,sans-Serif" font-size="10.00">Components/Objects</text>
<text text-anchor="middle" x="974" y="-419.5" font-family="Helvetica,sans-Serif" font-size="10.00">/OTA/include/OTA.hpp</text>
</a>
</g>
</g>
<!-- Node1&#45;&gt;Node2 -->
<g id="edge1" class="edge">
<title>Node1&#45;&gt;Node2</title>
<path fill="none" stroke="midnightblue" d="M1090.52,-475.54C1064.76,-465.14 1032.8,-452.24 1008.87,-442.58"/>
<polygon fill="midnightblue" stroke="midnightblue" points="1089.48,-478.9 1100.07,-479.4 1092.1,-472.41 1089.48,-478.9"/>
</g>
<!-- Node5 -->
<g id="node5" class="node">
<title>Node5</title>
<g id="a_node5"><a xlink:href="../../d9/d1c/_sensor_controller_base_8hpp.html" target="_top" xlink:title=" ">
<polygon fill="none" stroke="black" points="424,-178.5 424,-219.5 608,-219.5 608,-178.5 424,-178.5"/>
<text text-anchor="start" x="432" y="-207.5" font-family="Helvetica,sans-Serif" font-size="10.00">Components/Interfaces</text>
<text text-anchor="start" x="432" y="-196.5" font-family="Helvetica,sans-Serif" font-size="10.00">/SensorControllerBase</text>
<text text-anchor="middle" x="516" y="-185.5" font-family="Helvetica,sans-Serif" font-size="10.00">/include/SensorControllerBase.hpp</text>
</a>
</g>
</g>
<!-- Node1&#45;&gt;Node5 -->
<g id="edge33" class="edge">
<title>Node1&#45;&gt;Node5</title>
<path fill="none" stroke="midnightblue" d="M1045.8,-483.11C872.72,-460.79 502.49,-401.66 437,-298 427.03,-282.22 428.43,-272.58 437,-256 444.95,-240.62 459.29,-228.55 473.6,-219.62"/>
<polygon fill="midnightblue" stroke="midnightblue" points="1045.55,-486.61 1055.91,-484.4 1046.43,-479.67 1045.55,-486.61"/>
</g>
<!-- Node14 -->
<g id="node14" class="node">
<title>Node14</title>
<g id="a_node14"><a xlink:href="../../d0/dc1/_data_broker_8hpp.html" target="_top" xlink:title=" ">
<polygon fill="none" stroke="black" points="816,-95 816,-136 934,-136 934,-95 816,-95"/>
<text text-anchor="start" x="824" y="-124" font-family="Helvetica,sans-Serif" font-size="10.00">Components/Objects</text>
<text text-anchor="start" x="824" y="-113" font-family="Helvetica,sans-Serif" font-size="10.00">/DataBroker/include</text>
<text text-anchor="middle" x="875" y="-102" font-family="Helvetica,sans-Serif" font-size="10.00">/DataBroker.hpp</text>
</a>
</g>
</g>
<!-- Node1&#45;&gt;Node14 -->
<g id="edge34" class="edge">
<title>Node1&#45;&gt;Node14</title>
<path fill="none" stroke="midnightblue" d="M1173.33,-474.34C1212.3,-451.83 1267,-410.53 1267,-356 1267,-356 1267,-356 1267,-276 1267,-231.63 1280.51,-208.2 1248,-178 1198.16,-131.7 1010.14,-157.9 944,-142 937.29,-140.39 930.35,-138.32 923.56,-136.06"/>
<polygon fill="midnightblue" stroke="midnightblue" points="1171.32,-471.46 1164.3,-479.39 1174.73,-477.57 1171.32,-471.46"/>
</g>
<!-- Node20 -->
<g id="node20" class="node">
<title>Node20</title>
<g id="a_node20"><a xlink:href="../../d0/d6a/_maintainer_8hpp.html" target="_top" xlink:title=" ">
<polygon fill="none" stroke="black" points="998,-256.5 998,-297.5 1116,-297.5 1116,-256.5 998,-256.5"/>
<text text-anchor="start" x="1006" y="-285.5" font-family="Helvetica,sans-Serif" font-size="10.00">Components/Objects</text>
<text text-anchor="start" x="1006" y="-274.5" font-family="Helvetica,sans-Serif" font-size="10.00">/Maintainer/include</text>
<text text-anchor="middle" x="1057" y="-263.5" font-family="Helvetica,sans-Serif" font-size="10.00">/Maintainer.hpp</text>
</a>
</g>
</g>
<!-- Node1&#45;&gt;Node20 -->
<g id="edge35" class="edge">
<title>Node1&#45;&gt;Node20</title>
<path fill="none" stroke="midnightblue" d="M1126.41,-469.76C1110.89,-426.89 1078.47,-337.31 1064.11,-297.64"/>
<polygon fill="midnightblue" stroke="midnightblue" points="1123.19,-471.15 1129.88,-479.36 1129.77,-468.77 1123.19,-471.15"/>
</g>
<!-- Node23 -->
<g id="node23" class="node">
<title>Node23</title>
<g id="a_node23"><a xlink:href="../../dd/d82/_active_current_sensor_8hpp.html" target="_top" xlink:title=" ">
<polygon fill="none" stroke="black" points="955,-178.5 955,-219.5 1103,-219.5 1103,-178.5 955,-178.5"/>
<text text-anchor="start" x="963" y="-207.5" font-family="Helvetica,sans-Serif" font-size="10.00">Components/Sensor/Active</text>
<text text-anchor="start" x="963" y="-196.5" font-family="Helvetica,sans-Serif" font-size="10.00">CurrentSensor/include</text>
<text text-anchor="middle" x="1029" y="-185.5" font-family="Helvetica,sans-Serif" font-size="10.00">/ActiveCurrentSensor.hpp</text>
</a>
</g>
</g>
<!-- Node1&#45;&gt;Node23 -->
<g id="edge37" class="edge">
<title>Node1&#45;&gt;Node23</title>
<path fill="none" stroke="midnightblue" d="M1141.02,-469.51C1150.99,-424.11 1166.02,-324.06 1125,-256 1115.39,-240.05 1099.38,-228.17 1083.17,-219.56"/>
<polygon fill="midnightblue" stroke="midnightblue" points="1137.59,-468.81 1138.75,-479.34 1144.41,-470.38 1137.59,-468.81"/>
</g>
<!-- Node29 -->
<g id="node29" class="node">
<title>Node29</title>
<g id="a_node29"><a xlink:href="../../d5/dbf/_task_8cpp.html" target="_top" xlink:title=" ">
<polygon fill="none" stroke="black" points="1295,-412.5 1295,-442.5 1453,-442.5 1453,-412.5 1295,-412.5"/>
<text text-anchor="start" x="1303" y="-430.5" font-family="Helvetica,sans-Serif" font-size="10.00">Components/RTOS/FreeRTOS</text>
<text text-anchor="middle" x="1374" y="-419.5" font-family="Helvetica,sans-Serif" font-size="10.00">/src/Task.cpp</text>
</a>
</g>
</g>
<!-- Node1&#45;&gt;Node29 -->
<g id="edge36" class="edge">
<title>Node1&#45;&gt;Node29</title>
<path fill="none" stroke="midnightblue" d="M1196.22,-476.85C1235.19,-466.25 1285.1,-452.68 1322.12,-442.61"/>
<polygon fill="midnightblue" stroke="midnightblue" points="1195.3,-473.47 1186.57,-479.48 1197.13,-480.23 1195.3,-473.47"/>
</g>
<!-- Node3 -->
<g id="node3" class="node">
<title>Node3</title>
<g id="a_node3"><a xlink:href="../../d4/d63/mqtt__api__v2_8hpp.html" target="_top" xlink:title=" ">
<polygon fill="none" stroke="black" points="610.5,-334.5 610.5,-375.5 743.5,-375.5 743.5,-334.5 610.5,-334.5"/>
<text text-anchor="start" x="618.5" y="-363.5" font-family="Helvetica,sans-Serif" font-size="10.00">Components/Protocols</text>
<text text-anchor="start" x="618.5" y="-352.5" font-family="Helvetica,sans-Serif" font-size="10.00">/MQTT/include/mqtt_api</text>
<text text-anchor="middle" x="677" y="-341.5" font-family="Helvetica,sans-Serif" font-size="10.00">_v2.hpp</text>
</a>
</g>
</g>
<!-- Node2&#45;&gt;Node3 -->
<g id="edge2" class="edge">
<title>Node2&#45;&gt;Node3</title>
<path fill="none" stroke="midnightblue" d="M903.01,-410.9C859.6,-401.2 803,-388.29 753,-376 749.95,-375.25 746.84,-374.48 743.7,-373.68"/>
<polygon fill="midnightblue" stroke="midnightblue" points="902.38,-414.34 912.9,-413.1 903.9,-407.51 902.38,-414.34"/>
</g>
<!-- Node2&#45;&gt;Node20 -->
<g id="edge30" class="edge">
<title>Node2&#45;&gt;Node20</title>
<path fill="none" stroke="midnightblue" d="M1024.4,-407.75C1038.05,-400.08 1051.2,-389.71 1059,-376 1072.72,-351.89 1068.16,-318.75 1063.03,-297.86"/>
<polygon fill="midnightblue" stroke="midnightblue" points="1022.67,-404.7 1015.4,-412.4 1025.89,-410.91 1022.67,-404.7"/>
</g>
<!-- Node27 -->
<g id="node27" class="node">
<title>Node27</title>
<g id="a_node27"><a xlink:href="../../d9/d42/_o_t_a_8cpp.html" target="_top" xlink:title=" ">
<polygon fill="none" stroke="black" points="762,-340 762,-370 880,-370 880,-340 762,-340"/>
<text text-anchor="start" x="770" y="-358" font-family="Helvetica,sans-Serif" font-size="10.00">Components/Objects</text>
<text text-anchor="middle" x="821" y="-347" font-family="Helvetica,sans-Serif" font-size="10.00">/OTA/src/OTA.cpp</text>
</a>
</g>
</g>
<!-- Node2&#45;&gt;Node27 -->
<g id="edge31" class="edge">
<title>Node2&#45;&gt;Node27</title>
<path fill="none" stroke="midnightblue" d="M934.26,-408.19C908.44,-396.29 875.29,-381.02 851.54,-370.07"/>
<polygon fill="midnightblue" stroke="midnightblue" points="932.86,-411.4 943.41,-412.4 935.79,-405.04 932.86,-411.4"/>
</g>
<!-- Node28 -->
<g id="node28" class="node">
<title>Node28</title>
<g id="a_node28"><a xlink:href="../../d8/d80/_o_t_a__test_8cpp.html" target="_top" xlink:title=" ">
<polygon fill="none" stroke="black" points="898.5,-340 898.5,-370 1049.5,-370 1049.5,-340 898.5,-340"/>
<text text-anchor="start" x="906.5" y="-358" font-family="Helvetica,sans-Serif" font-size="10.00">Components/Objects</text>
<text text-anchor="middle" x="974" y="-347" font-family="Helvetica,sans-Serif" font-size="10.00">/OTA/test/test/OTA_test.cpp</text>
</a>
</g>
</g>
<!-- Node2&#45;&gt;Node28 -->
<g id="edge32" class="edge">
<title>Node2&#45;&gt;Node28</title>
<path fill="none" stroke="midnightblue" d="M974,-402.23C974,-391.57 974,-379.41 974,-370.25"/>
<polygon fill="midnightblue" stroke="midnightblue" points="970.5,-402.23 974,-412.23 977.5,-402.23 970.5,-402.23"/>
</g>
<!-- Node4 -->
<g id="node4" class="node">
<title>Node4</title>
<g id="a_node4"><a xlink:href="../../d3/d0d/_error_code_parser_8hpp.html" target="_top" xlink:title=" ">
<polygon fill="none" stroke="black" points="271.5,-256.5 271.5,-297.5 390.5,-297.5 390.5,-256.5 271.5,-256.5"/>
<text text-anchor="start" x="279.5" y="-285.5" font-family="Helvetica,sans-Serif" font-size="10.00">Components/Objects</text>
<text text-anchor="start" x="279.5" y="-274.5" font-family="Helvetica,sans-Serif" font-size="10.00">/ErrorHandler/include</text>
<text text-anchor="middle" x="331" y="-263.5" font-family="Helvetica,sans-Serif" font-size="10.00">/ErrorCodeParser.hpp</text>
</a>
</g>
</g>
<!-- Node3&#45;&gt;Node4 -->
<g id="edge3" class="edge">
<title>Node3&#45;&gt;Node4</title>
<path fill="none" stroke="midnightblue" d="M600.36,-337.17C537.11,-323.27 448.62,-303.83 390.58,-291.09"/>
<polygon fill="midnightblue" stroke="midnightblue" points="599.77,-340.62 610.29,-339.35 601.27,-333.78 599.77,-340.62"/>
</g>
<!-- Node3&#45;&gt;Node5 -->
<g id="edge19" class="edge">
<title>Node3&#45;&gt;Node5</title>
<path fill="none" stroke="midnightblue" d="M722.74,-328.45C733.29,-320.2 743.12,-310.02 749,-298 757.2,-281.23 760.55,-270.66 749,-256 739.86,-244.4 669.17,-228.44 608.02,-216.52"/>
<polygon fill="midnightblue" stroke="midnightblue" points="720.62,-325.67 714.59,-334.38 724.74,-331.33 720.62,-325.67"/>
</g>
<!-- Node18 -->
<g id="node18" class="node">
<title>Node18</title>
<g id="a_node18"><a xlink:href="../../d7/d44/hal__mqtt__log_8hpp.html" target="_top" xlink:title=" ">
<polygon fill="none" stroke="black" points="796,-256.5 796,-297.5 914,-297.5 914,-256.5 796,-256.5"/>
<text text-anchor="start" x="804" y="-285.5" font-family="Helvetica,sans-Serif" font-size="10.00">Components/Objects</text>
<text text-anchor="start" x="804" y="-274.5" font-family="Helvetica,sans-Serif" font-size="10.00">/Logger/include/hal</text>
<text text-anchor="middle" x="855" y="-263.5" font-family="Helvetica,sans-Serif" font-size="10.00">_mqtt_log.hpp</text>
</a>
</g>
</g>
<!-- Node3&#45;&gt;Node18 -->
<g id="edge20" class="edge">
<title>Node3&#45;&gt;Node18</title>
<path fill="none" stroke="midnightblue" d="M732.11,-330.47C756.88,-319.89 785.77,-307.56 809.32,-297.51"/>
<polygon fill="midnightblue" stroke="midnightblue" points="730.66,-327.28 722.84,-334.43 733.41,-333.72 730.66,-327.28"/>
</g>
<!-- Node3&#45;&gt;Node20 -->
<g id="edge22" class="edge">
<title>Node3&#45;&gt;Node20</title>
<path fill="none" stroke="midnightblue" d="M753.45,-334.01C852.49,-313.52 880.1,-317.24 975,-298 982.32,-296.52 989.98,-294.83 997.56,-293.08"/>
<polygon fill="midnightblue" stroke="midnightblue" points="752.71,-330.59 743.64,-336.07 754.15,-337.44 752.71,-330.59"/>
</g>
<!-- Node3&#45;&gt;Node23 -->
<g id="edge29" class="edge">
<title>Node3&#45;&gt;Node23</title>
<path fill="none" stroke="midnightblue" d="M753.79,-333.97C830.37,-317.5 857.22,-332.03 923,-298 960.62,-278.54 994.76,-242.06 1013.63,-219.52"/>
<polygon fill="midnightblue" stroke="midnightblue" points="752.66,-330.63 743.68,-336.26 754.21,-337.46 752.66,-330.63"/>
</g>
<!-- Node25 -->
<g id="node25" class="node">
<title>Node25</title>
<g id="a_node25"><a xlink:href="../../d3/dc1/mqtt__api__v2_8cpp.html" target="_top" xlink:title=" ">
<polygon fill="none" stroke="black" points="446.5,-262 446.5,-292 595.5,-292 595.5,-262 446.5,-262"/>
<text text-anchor="start" x="454.5" y="-280" font-family="Helvetica,sans-Serif" font-size="10.00">Components/Protocols</text>
<text text-anchor="middle" x="521" y="-269" font-family="Helvetica,sans-Serif" font-size="10.00">/MQTT/src/mqtt_api_v2.cpp</text>
</a>
</g>
</g>
<!-- Node3&#45;&gt;Node25 -->
<g id="edge27" class="edge">
<title>Node3&#45;&gt;Node25</title>
<path fill="none" stroke="midnightblue" d="M627.68,-329.97C602.19,-317.55 571.96,-302.83 550.2,-292.23"/>
<polygon fill="midnightblue" stroke="midnightblue" points="626.3,-333.19 636.83,-334.43 629.37,-326.9 626.3,-333.19"/>
</g>
<!-- Node26 -->
<g id="node26" class="node">
<title>Node26</title>
<g id="a_node26"><a xlink:href="../../df/df3/mqtt__v2__test_8cpp.html" target="_top" xlink:title=" ">
<polygon fill="none" stroke="black" points="614,-256.5 614,-297.5 740,-297.5 740,-256.5 614,-256.5"/>
<text text-anchor="start" x="622" y="-285.5" font-family="Helvetica,sans-Serif" font-size="10.00">Components/Protocols</text>
<text text-anchor="start" x="622" y="-274.5" font-family="Helvetica,sans-Serif" font-size="10.00">/MQTT/test/test/mqtt</text>
<text text-anchor="middle" x="677" y="-263.5" font-family="Helvetica,sans-Serif" font-size="10.00">_v2_test.cpp</text>
</a>
</g>
</g>
<!-- Node3&#45;&gt;Node26 -->
<g id="edge28" class="edge">
<title>Node3&#45;&gt;Node26</title>
<path fill="none" stroke="midnightblue" d="M677,-324.3C677,-315.3 677,-305.65 677,-297.51"/>
<polygon fill="midnightblue" stroke="midnightblue" points="673.5,-324.43 677,-334.43 680.5,-324.43 673.5,-324.43"/>
</g>
<!-- Node4&#45;&gt;Node5 -->
<g id="edge4" class="edge">
<title>Node4&#45;&gt;Node5</title>
<path fill="none" stroke="midnightblue" d="M387.94,-252.61C413.76,-242 443.94,-229.6 468.52,-219.51"/>
<polygon fill="midnightblue" stroke="midnightblue" points="386.56,-249.39 378.64,-256.43 389.22,-255.87 386.56,-249.39"/>
</g>
<!-- Node16 -->
<g id="node16" class="node">
<title>Node16</title>
<g id="a_node16"><a xlink:href="../../d2/df5/_error_code_parser_8cpp.html" target="_top" xlink:title=" ">
<polygon fill="none" stroke="black" points="256.5,-178.5 256.5,-219.5 405.5,-219.5 405.5,-178.5 256.5,-178.5"/>
<text text-anchor="start" x="264.5" y="-207.5" font-family="Helvetica,sans-Serif" font-size="10.00">Components/Objects</text>
<text text-anchor="start" x="264.5" y="-196.5" font-family="Helvetica,sans-Serif" font-size="10.00">/ErrorHandler/src/ErrorCode</text>
<text text-anchor="middle" x="331" y="-185.5" font-family="Helvetica,sans-Serif" font-size="10.00">Parser.cpp</text>
</a>
</g>
</g>
<!-- Node4&#45;&gt;Node16 -->
<g id="edge17" class="edge">
<title>Node4&#45;&gt;Node16</title>
<path fill="none" stroke="midnightblue" d="M331,-246.3C331,-237.3 331,-227.65 331,-219.51"/>
<polygon fill="midnightblue" stroke="midnightblue" points="327.5,-246.43 331,-256.43 334.5,-246.43 327.5,-246.43"/>
</g>
<!-- Node17 -->
<g id="node17" class="node">
<title>Node17</title>
<g id="a_node17"><a xlink:href="../../d9/db8/_error_code_parser__test_8cpp.html" target="_top" xlink:title=" ">
<polygon fill="none" stroke="black" points="95.5,-178.5 95.5,-219.5 238.5,-219.5 238.5,-178.5 95.5,-178.5"/>
<text text-anchor="start" x="103.5" y="-207.5" font-family="Helvetica,sans-Serif" font-size="10.00">Components/Objects</text>
<text text-anchor="start" x="103.5" y="-196.5" font-family="Helvetica,sans-Serif" font-size="10.00">/ErrorHandler/test/test</text>
<text text-anchor="middle" x="167" y="-185.5" font-family="Helvetica,sans-Serif" font-size="10.00">/ErrorCodeParser_test.cpp</text>
</a>
</g>
</g>
<!-- Node4&#45;&gt;Node17 -->
<g id="edge18" class="edge">
<title>Node4&#45;&gt;Node17</title>
<path fill="none" stroke="midnightblue" d="M279.62,-252.19C256.93,-241.67 230.59,-229.47 209.09,-219.51"/>
<polygon fill="midnightblue" stroke="midnightblue" points="278.22,-255.4 288.77,-256.43 281.16,-249.05 278.22,-255.4"/>
</g>
<!-- Node6 -->
<g id="node6" class="node">
<title>Node6</title>
<g id="a_node6"><a xlink:href="../../db/d12/_distance_sensor_controller_8hpp.html" target="_top" xlink:title=" ">
<polygon fill="none" stroke="black" points="414.5,-95 414.5,-136 617.5,-136 617.5,-95 414.5,-95"/>
<text text-anchor="start" x="422.5" y="-124" font-family="Helvetica,sans-Serif" font-size="10.00">Components/Controller</text>
<text text-anchor="start" x="422.5" y="-113" font-family="Helvetica,sans-Serif" font-size="10.00">/DistanceSensorController</text>
<text text-anchor="middle" x="516" y="-102" font-family="Helvetica,sans-Serif" font-size="10.00">/include/DistanceSensorController.hpp</text>
</a>
</g>
</g>
<!-- Node5&#45;&gt;Node6 -->
<g id="edge5" class="edge">
<title>Node5&#45;&gt;Node6</title>
<path fill="none" stroke="midnightblue" d="M516,-168.06C516,-157.38 516,-145.63 516,-136.05"/>
<polygon fill="midnightblue" stroke="midnightblue" points="512.5,-168.27 516,-178.27 519.5,-168.27 512.5,-168.27"/>
</g>
<!-- Node10 -->
<g id="node10" class="node">
<title>Node10</title>
<g id="a_node10"><a xlink:href="../../d2/d8d/_sensor_controller_base_8cpp.html" target="_top" xlink:title=" ">
<polygon fill="none" stroke="black" points="636,-95 636,-136 798,-136 798,-95 636,-95"/>
<text text-anchor="start" x="644" y="-124" font-family="Helvetica,sans-Serif" font-size="10.00">Components/Interfaces</text>
<text text-anchor="start" x="644" y="-113" font-family="Helvetica,sans-Serif" font-size="10.00">/SensorControllerBase</text>
<text text-anchor="middle" x="717" y="-102" font-family="Helvetica,sans-Serif" font-size="10.00">/src/SensorControllerBase.cpp</text>
</a>
</g>
</g>
<!-- Node5&#45;&gt;Node10 -->
<g id="edge9" class="edge">
<title>Node5&#45;&gt;Node10</title>
<path fill="none" stroke="midnightblue" d="M573.69,-174.61C603.84,-162.39 640.3,-147.6 668.9,-136"/>
<polygon fill="midnightblue" stroke="midnightblue" points="572.1,-171.48 564.14,-178.48 574.73,-177.96 572.1,-171.48"/>
</g>
<!-- Node11 -->
<g id="node11" class="node">
<title>Node11</title>
<g id="a_node11"><a xlink:href="../../db/dc2/_sensor_controller_base___m_o_c_k_8hpp.html" target="_top" xlink:title=" ">
<polygon fill="none" stroke="black" points="182,-89.5 182,-141.5 358,-141.5 358,-89.5 182,-89.5"/>
<text text-anchor="start" x="190" y="-129.5" font-family="Helvetica,sans-Serif" font-size="10.00">Components/Interfaces</text>
<text text-anchor="start" x="190" y="-118.5" font-family="Helvetica,sans-Serif" font-size="10.00">/SensorControllerBase</text>
<text text-anchor="start" x="190" y="-107.5" font-family="Helvetica,sans-Serif" font-size="10.00">/test/mock/SensorControllerBase</text>
<text text-anchor="middle" x="270" y="-96.5" font-family="Helvetica,sans-Serif" font-size="10.00">_MOCK.hpp</text>
</a>
</g>
</g>
<!-- Node5&#45;&gt;Node11 -->
<g id="edge10" class="edge">
<title>Node5&#45;&gt;Node11</title>
<path fill="none" stroke="midnightblue" d="M447.46,-175.29C415.83,-164.81 378.16,-152.33 345.69,-141.58"/>
<polygon fill="midnightblue" stroke="midnightblue" points="446.48,-178.66 457.08,-178.48 448.69,-172.01 446.48,-178.66"/>
</g>
<!-- Node13 -->
<g id="node13" class="node">
<title>Node13</title>
<g id="a_node13"><a xlink:href="../../d8/d19/_sensor_controller_test_8cpp.html" target="_top" xlink:title=" ">
<polygon fill="none" stroke="black" points="194,-6 194,-47 378,-47 378,-6 194,-6"/>
<text text-anchor="start" x="202" y="-35" font-family="Helvetica,sans-Serif" font-size="10.00">Components/Interfaces</text>
<text text-anchor="start" x="202" y="-24" font-family="Helvetica,sans-Serif" font-size="10.00">/SensorControllerBase</text>
<text text-anchor="middle" x="286" y="-13" font-family="Helvetica,sans-Serif" font-size="10.00">/test/test/SensorControllerTest.cpp</text>
</a>
</g>
</g>
<!-- Node5&#45;&gt;Node13 -->
<g id="edge13" class="edge">
<title>Node5&#45;&gt;Node13</title>
<path fill="none" stroke="midnightblue" d="M455.29,-173.91C437.97,-165.37 419.8,-154.67 405,-142 382.98,-123.15 387.21,-109.77 367,-89 351.73,-73.31 332.25,-58.39 316.22,-47.17"/>
<polygon fill="midnightblue" stroke="midnightblue" points="454.26,-177.3 464.79,-178.44 457.27,-170.98 454.26,-177.3"/>
</g>
<!-- Node5&#45;&gt;Node14 -->
<g id="edge14" class="edge">
<title>Node5&#45;&gt;Node14</title>
<path fill="none" stroke="midnightblue" d="M618.48,-179.15C694.76,-164.98 788.72,-147.15 807,-142 813.19,-140.26 819.61,-138.2 825.93,-136.01"/>
<polygon fill="midnightblue" stroke="midnightblue" points="617.51,-175.77 608.32,-181.04 618.79,-182.66 617.51,-175.77"/>
</g>
<!-- Node7 -->
<g id="node7" class="node">
<title>Node7</title>
<g id="a_node7"><a xlink:href="../../dd/dde/_distance_sensor_controller_8cpp.html" target="_top" xlink:title=" ">
<polygon fill="none" stroke="black" points="396.5,-6 396.5,-47 577.5,-47 577.5,-6 396.5,-6"/>
<text text-anchor="start" x="404.5" y="-35" font-family="Helvetica,sans-Serif" font-size="10.00">Components/Controller</text>
<text text-anchor="start" x="404.5" y="-24" font-family="Helvetica,sans-Serif" font-size="10.00">/DistanceSensorController</text>
<text text-anchor="middle" x="487" y="-13" font-family="Helvetica,sans-Serif" font-size="10.00">/src/DistanceSensorController.cpp</text>
</a>
</g>
</g>
<!-- Node6&#45;&gt;Node7 -->
<g id="edge6" class="edge">
<title>Node6&#45;&gt;Node7</title>
<path fill="none" stroke="midnightblue" d="M506.23,-85.19C502.06,-72.67 497.29,-58.38 493.55,-47.16"/>
<polygon fill="midnightblue" stroke="midnightblue" points="502.94,-86.38 509.42,-94.76 509.58,-84.16 502.94,-86.38"/>
</g>
<!-- Node8 -->
<g id="node8" class="node">
<title>Node8</title>
<g id="a_node8"><a xlink:href="../../d7/d91/_distance_sensor_controller__test_8cpp.html" target="_top" xlink:title=" ">
<polygon fill="none" stroke="black" points="595.5,-0.5 595.5,-52.5 782.5,-52.5 782.5,-0.5 595.5,-0.5"/>
<text text-anchor="start" x="603.5" y="-40.5" font-family="Helvetica,sans-Serif" font-size="10.00">Components/Controller</text>
<text text-anchor="start" x="603.5" y="-29.5" font-family="Helvetica,sans-Serif" font-size="10.00">/DistanceSensorController</text>
<text text-anchor="start" x="603.5" y="-18.5" font-family="Helvetica,sans-Serif" font-size="10.00">/test/test/DistanceSensorController</text>
<text text-anchor="middle" x="689" y="-7.5" font-family="Helvetica,sans-Serif" font-size="10.00">_test.cpp</text>
</a>
</g>
</g>
<!-- Node6&#45;&gt;Node8 -->
<g id="edge7" class="edge">
<title>Node6&#45;&gt;Node8</title>
<path fill="none" stroke="midnightblue" d="M563.87,-90.42C587.29,-78.65 615.45,-64.49 639.12,-52.58"/>
<polygon fill="midnightblue" stroke="midnightblue" points="562.19,-87.36 554.82,-94.98 565.33,-93.61 562.19,-87.36"/>
</g>
<!-- Node9 -->
<g id="node9" class="node">
<title>Node9</title>
<g id="a_node9"><a xlink:href="../../da/d75/_data_broker__test_8cpp.html" target="_top" xlink:title=" ">
<polygon fill="none" stroke="black" points="800.5,-6 800.5,-47 919.5,-47 919.5,-6 800.5,-6"/>
<text text-anchor="start" x="808.5" y="-35" font-family="Helvetica,sans-Serif" font-size="10.00">Components/Objects</text>
<text text-anchor="start" x="808.5" y="-24" font-family="Helvetica,sans-Serif" font-size="10.00">/DataBroker/test/test</text>
<text text-anchor="middle" x="860" y="-13" font-family="Helvetica,sans-Serif" font-size="10.00">/DataBroker_test.cpp</text>
</a>
</g>
</g>
<!-- Node6&#45;&gt;Node9 -->
<g id="edge8" class="edge">
<title>Node6&#45;&gt;Node9</title>
<path fill="none" stroke="midnightblue" d="M610.56,-92.71C616.12,-91.45 621.63,-90.21 627,-89 699.81,-72.65 719.39,-73.98 791,-53 797.01,-51.24 803.24,-49.22 809.4,-47.1"/>
<polygon fill="midnightblue" stroke="midnightblue" points="609.5,-89.36 600.52,-94.99 611.05,-96.19 609.5,-89.36"/>
</g>
<!-- Node12 -->
<g id="node12" class="node">
<title>Node12</title>
<g id="a_node12"><a xlink:href="../../dc/d0f/_sensor_controller_base___m_o_c_k_8cpp.html" target="_top" xlink:title=" ">
<polygon fill="none" stroke="black" points="0,-0.5 0,-52.5 176,-52.5 176,-0.5 0,-0.5"/>
<text text-anchor="start" x="8" y="-40.5" font-family="Helvetica,sans-Serif" font-size="10.00">Components/Interfaces</text>
<text text-anchor="start" x="8" y="-29.5" font-family="Helvetica,sans-Serif" font-size="10.00">/SensorControllerBase</text>
<text text-anchor="start" x="8" y="-18.5" font-family="Helvetica,sans-Serif" font-size="10.00">/test/mock/SensorControllerBase</text>
<text text-anchor="middle" x="88" y="-7.5" font-family="Helvetica,sans-Serif" font-size="10.00">_MOCK.cpp</text>
</a>
</g>
</g>
<!-- Node11&#45;&gt;Node12 -->
<g id="edge11" class="edge">
<title>Node11&#45;&gt;Node12</title>
<path fill="none" stroke="midnightblue" d="M208.11,-84.92C186.14,-74.41 161.64,-62.7 140.52,-52.61"/>
<polygon fill="midnightblue" stroke="midnightblue" points="206.83,-88.18 217.36,-89.34 209.85,-81.87 206.83,-88.18"/>
</g>
<!-- Node11&#45;&gt;Node13 -->
<g id="edge12" class="edge">
<title>Node11&#45;&gt;Node13</title>
<path fill="none" stroke="midnightblue" d="M276.44,-79.49C278.47,-68.45 280.64,-56.65 282.4,-47.08"/>
<polygon fill="midnightblue" stroke="midnightblue" points="272.99,-78.87 274.63,-89.34 279.88,-80.13 272.99,-78.87"/>
</g>
<!-- Node14&#45;&gt;Node9 -->
<g id="edge16" class="edge">
<title>Node14&#45;&gt;Node9</title>
<path fill="none" stroke="midnightblue" d="M869.88,-84.81C867.74,-72.38 865.31,-58.27 863.39,-47.16"/>
<polygon fill="midnightblue" stroke="midnightblue" points="866.45,-85.5 871.6,-94.76 873.35,-84.31 866.45,-85.5"/>
</g>
<!-- Node15 -->
<g id="node15" class="node">
<title>Node15</title>
<g id="a_node15"><a xlink:href="../../d4/ddc/_data_broker_8cpp.html" target="_top" xlink:title=" ">
<polygon fill="none" stroke="black" points="938,-11.5 938,-41.5 1108,-41.5 1108,-11.5 938,-11.5"/>
<text text-anchor="start" x="946" y="-29.5" font-family="Helvetica,sans-Serif" font-size="10.00">Components/Objects</text>
<text text-anchor="middle" x="1023" y="-18.5" font-family="Helvetica,sans-Serif" font-size="10.00">/DataBroker/src/DataBroker.cpp</text>
</a>
</g>
</g>
<!-- Node14&#45;&gt;Node15 -->
<g id="edge15" class="edge">
<title>Node14&#45;&gt;Node15</title>
<path fill="none" stroke="midnightblue" d="M916.94,-89.84C943.53,-74.22 976.96,-54.56 999.11,-41.55"/>
<polygon fill="midnightblue" stroke="midnightblue" points="915.06,-86.89 908.21,-94.98 918.61,-92.93 915.06,-86.89"/>
</g>
<!-- Node19 -->
<g id="node19" class="node">
<title>Node19</title>
<g id="a_node19"><a xlink:href="../../d0/db0/hal__mqtt__log_8cpp.html" target="_top" xlink:title=" ">
<polygon fill="none" stroke="black" points="635,-178.5 635,-219.5 753,-219.5 753,-178.5 635,-178.5"/>
<text text-anchor="start" x="643" y="-207.5" font-family="Helvetica,sans-Serif" font-size="10.00">Components/Objects</text>
<text text-anchor="start" x="643" y="-196.5" font-family="Helvetica,sans-Serif" font-size="10.00">/Logger/src/hal_mqtt</text>
<text text-anchor="middle" x="694" y="-185.5" font-family="Helvetica,sans-Serif" font-size="10.00">_log.cpp</text>
</a>
</g>
</g>
<!-- Node18&#45;&gt;Node19 -->
<g id="edge21" class="edge">
<title>Node18&#45;&gt;Node19</title>
<path fill="none" stroke="midnightblue" d="M804.26,-252.05C782.06,-241.57 756.33,-229.42 735.32,-219.51"/>
<polygon fill="midnightblue" stroke="midnightblue" points="803,-255.32 813.54,-256.43 805.99,-248.99 803,-255.32"/>
</g>
<!-- Node21 -->
<g id="node21" class="node">
<title>Node21</title>
<g id="a_node21"><a xlink:href="../../dd/ddd/_maintainer_8cpp.html" target="_top" xlink:title=" ">
<polygon fill="none" stroke="black" points="771.5,-184 771.5,-214 936.5,-214 936.5,-184 771.5,-184"/>
<text text-anchor="start" x="779.5" y="-202" font-family="Helvetica,sans-Serif" font-size="10.00">Components/Objects</text>
<text text-anchor="middle" x="854" y="-191" font-family="Helvetica,sans-Serif" font-size="10.00">/Maintainer/src/Maintainer.cpp</text>
</a>
</g>
</g>
<!-- Node20&#45;&gt;Node21 -->
<g id="edge23" class="edge">
<title>Node20&#45;&gt;Node21</title>
<path fill="none" stroke="midnightblue" d="M994.95,-252.77C961.23,-240.15 920.63,-224.94 891.68,-214.11"/>
<polygon fill="midnightblue" stroke="midnightblue" points="994.13,-256.2 1004.72,-256.43 996.58,-249.64 994.13,-256.2"/>
</g>
<!-- Node22 -->
<g id="node22" class="node">
<title>Node22</title>
<g id="a_node22"><a xlink:href="../../d8/d4a/maintainer__test_8cpp.html" target="_top" xlink:title=" ">
<polygon fill="none" stroke="black" points="1121,-178.5 1121,-219.5 1239,-219.5 1239,-178.5 1121,-178.5"/>
<text text-anchor="start" x="1129" y="-207.5" font-family="Helvetica,sans-Serif" font-size="10.00">Components/Objects</text>
<text text-anchor="start" x="1129" y="-196.5" font-family="Helvetica,sans-Serif" font-size="10.00">/Maintainer/test/test</text>
<text text-anchor="middle" x="1180" y="-185.5" font-family="Helvetica,sans-Serif" font-size="10.00">/maintainer_test.cpp</text>
</a>
</g>
</g>
<!-- Node20&#45;&gt;Node22 -->
<g id="edge24" class="edge">
<title>Node20&#45;&gt;Node22</title>
<path fill="none" stroke="midnightblue" d="M1097.59,-250.92C1114.13,-240.7 1132.95,-229.07 1148.43,-219.51"/>
<polygon fill="midnightblue" stroke="midnightblue" points="1095.34,-248.19 1088.68,-256.43 1099.02,-254.15 1095.34,-248.19"/>
</g>
<!-- Node20&#45;&gt;Node23 -->
<g id="edge25" class="edge">
<title>Node20&#45;&gt;Node23</title>
<path fill="none" stroke="midnightblue" d="M1046.27,-246.88C1042.9,-237.72 1039.25,-227.83 1036.19,-219.51"/>
<polygon fill="midnightblue" stroke="midnightblue" points="1043.05,-248.25 1049.79,-256.43 1049.62,-245.83 1043.05,-248.25"/>
</g>
<!-- Node24 -->
<g id="node24" class="node">
<title>Node24</title>
<g id="a_node24"><a xlink:href="../../d2/d77/_active_current_sensor_8cpp.html" target="_top" xlink:title=" ">
<polygon fill="none" stroke="black" points="952.5,-95 952.5,-136 1125.5,-136 1125.5,-95 952.5,-95"/>
<text text-anchor="start" x="960.5" y="-124" font-family="Helvetica,sans-Serif" font-size="10.00">Components/Sensor/Active</text>
<text text-anchor="start" x="960.5" y="-113" font-family="Helvetica,sans-Serif" font-size="10.00">CurrentSensor/src/ActiveCurrent</text>
<text text-anchor="middle" x="1039" y="-102" font-family="Helvetica,sans-Serif" font-size="10.00">Sensor.cpp</text>
</a>
</g>
</g>
<!-- Node23&#45;&gt;Node24 -->
<g id="edge26" class="edge">
<title>Node23&#45;&gt;Node24</title>
<path fill="none" stroke="midnightblue" d="M1032.67,-168.06C1033.98,-157.38 1035.43,-145.63 1036.6,-136.05"/>
<polygon fill="midnightblue" stroke="midnightblue" points="1029.16,-167.92 1031.42,-178.27 1036.11,-168.77 1029.16,-167.92"/>
</g>
</g>
</svg>
