<?xml version="1.0" encoding="UTF-8" standalone="no"?>
<!DOCTYPE svg PUBLIC "-//W3C//DTD SVG 1.1//EN"
 "http://www.w3.org/Graphics/SVG/1.1/DTD/svg11.dtd">
<!-- Generated by graphviz version 2.43.0 (0)
 -->
<!-- Title: Curl_SAL Pages: 1 -->
<svg width="113pt" height="332pt"
 viewBox="0.00 0.00 113.00 332.00" xmlns="http://www.w3.org/2000/svg" xmlns:xlink="http://www.w3.org/1999/xlink">
<g id="graph0" class="graph" transform="scale(1 1) rotate(0) translate(4 328)">
<title>Curl_SAL</title>
<!-- Node1 -->
<g id="node1" class="node">
<title>Node1</title>
<g id="a_node1"><a xlink:title=" ">
<polygon fill="#bfbfbf" stroke="black" points="8.5,-0.5 8.5,-112.5 95.5,-112.5 95.5,-0.5 8.5,-0.5"/>
<text text-anchor="middle" x="52" y="-100.5" font-family="Helvetica,sans-Serif" font-size="10.00">Curl_SAL</text>
<polyline fill="none" stroke="black" points="8.5,-93.5 95.5,-93.5 "/>
<text text-anchor="middle" x="52" y="-81.5" font-family="Helvetica,sans-Serif" font-size="10.00"> </text>
<polyline fill="none" stroke="black" points="8.5,-74.5 95.5,-74.5 "/>
<text text-anchor="start" x="16.5" y="-62.5" font-family="Helvetica,sans-Serif" font-size="10.00">+ Curl_SAL()</text>
<text text-anchor="start" x="16.5" y="-51.5" font-family="Helvetica,sans-Serif" font-size="10.00">+ ~Curl_SAL()</text>
<text text-anchor="start" x="16.5" y="-40.5" font-family="Helvetica,sans-Serif" font-size="10.00">+ initialize()</text>
<text text-anchor="start" x="16.5" y="-29.5" font-family="Helvetica,sans-Serif" font-size="10.00">+ open()</text>
<text text-anchor="start" x="16.5" y="-18.5" font-family="Helvetica,sans-Serif" font-size="10.00">+ close()</text>
<text text-anchor="start" x="16.5" y="-7.5" font-family="Helvetica,sans-Serif" font-size="10.00">+ post()</text>
</a>
</g>
</g>
<!-- Node2 -->
<g id="node2" class="node">
<title>Node2</title>
<g id="a_node2"><a xlink:title="STL class.">
<polygon fill="none" stroke="#bfbfbf" points="19.5,-160.5 19.5,-217.5 84.5,-217.5 84.5,-160.5 19.5,-160.5"/>
<text text-anchor="middle" x="52" y="-205.5" font-family="Helvetica,sans-Serif" font-size="10.00">std::string</text>
<polyline fill="none" stroke="#bfbfbf" points="19.5,-198.5 84.5,-198.5 "/>
<text text-anchor="middle" x="52" y="-186.5" font-family="Helvetica,sans-Serif" font-size="10.00"> </text>
<polyline fill="none" stroke="#bfbfbf" points="19.5,-179.5 84.5,-179.5 "/>
<text text-anchor="middle" x="52" y="-167.5" font-family="Helvetica,sans-Serif" font-size="10.00"> </text>
</a>
</g>
</g>
<!-- Node2&#45;&gt;Node1 -->
<g id="edge1" class="edge">
<title>Node2&#45;&gt;Node1</title>
<path fill="none" stroke="#404040" d="M52,-160.32C52,-149.78 52,-137.25 52,-124.62"/>
<polygon fill="none" stroke="#404040" points="52,-124.55 48,-118.55 52,-112.55 56,-118.55 52,-124.55"/>
<text text-anchor="middle" x="78.5" y="-134" font-family="Helvetica,sans-Serif" font-size="10.00"> &#45;m_server</text>
</g>
<!-- Node3 -->
<g id="node3" class="node">
<title>Node3</title>
<g id="a_node3"><a xlink:title="STL class.">
<polygon fill="none" stroke="#bfbfbf" points="0,-255.5 0,-323.5 104,-323.5 104,-255.5 0,-255.5"/>
<text text-anchor="start" x="8" y="-311.5" font-family="Helvetica,sans-Serif" font-size="10.00">std::basic_string&lt;</text>
<text text-anchor="middle" x="52" y="-300.5" font-family="Helvetica,sans-Serif" font-size="10.00"> char &gt;</text>
<polyline fill="none" stroke="#bfbfbf" points="0,-293.5 104,-293.5 "/>
<text text-anchor="middle" x="52" y="-281.5" font-family="Helvetica,sans-Serif" font-size="10.00"> </text>
<polyline fill="none" stroke="#bfbfbf" points="0,-274.5 104,-274.5 "/>
<text text-anchor="middle" x="52" y="-262.5" font-family="Helvetica,sans-Serif" font-size="10.00"> </text>
</a>
</g>
</g>
<!-- Node3&#45;&gt;Node2 -->
<g id="edge2" class="edge">
<title>Node3&#45;&gt;Node2</title>
<path fill="none" stroke="midnightblue" d="M52,-245.38C52,-235.94 52,-226.2 52,-217.57"/>
<polygon fill="none" stroke="midnightblue" points="48.5,-245.43 52,-255.43 55.5,-245.43 48.5,-245.43"/>
</g>
</g>
</svg>
