<?xml version="1.0" encoding="UTF-8" standalone="no"?>
<!DOCTYPE svg PUBLIC "-//W3C//DTD SVG 1.1//EN"
 "http://www.w3.org/Graphics/SVG/1.1/DTD/svg11.dtd">
<!-- Generated by graphviz version 2.43.0 (0)
 -->
<!-- Title: i2c_mock Pages: 1 -->
<!--zoomable 623 -->
<svg id="main" version="1.1" xmlns="http://www.w3.org/2000/svg" xmlns:xlink="http://www.w3.org/1999/xlink" xml:space="preserve" onload="init(evt)">
<style type="text/css"><![CDATA[
.edge:hover path { stroke: red; }
.edge:hover polygon { stroke: red; fill: red; }
]]></style>
<script type="text/javascript"><![CDATA[
var edges = document.getElementsByTagName('g');
if (edges && edges.length) {
  for (var i=0;i<edges.length;i++) {
    if (edges[i].id.substr(0,4)=='edge') {
      edges[i].setAttribute('class','edge');
    }
  }
}
]]></script>
        <defs>
                <circle id="rim" cx="0" cy="0" r="7"/>
                <circle id="rim2" cx="0" cy="0" r="3.5"/>
                <g id="zoomPlus">
                        <use xlink:href="#rim" fill="#404040">
                                <set attributeName="fill" to="#808080" begin="zoomplus.mouseover" end="zoomplus.mouseout"/>
                        </use>
                        <path d="M-4,0h8M0,-4v8" fill="none" stroke="white" stroke-width="1.5" pointer-events="none"/>
                </g>
                <g id="zoomMin">
                        <use xlink:href="#rim" fill="#404040">
                                <set attributeName="fill" to="#808080" begin="zoomminus.mouseover" end="zoomminus.mouseout"/>
                        </use>
                        <path d="M-4,0h8" fill="none" stroke="white" stroke-width="1.5" pointer-events="none"/>
                </g>
                <g id="dirArrow">
                        <path fill="none" stroke="white" stroke-width="1.5" d="M0,-3.0v7 M-2.5,-0.5L0,-3.0L2.5,-0.5"/>
                </g>
               <g id="resetDef">
                       <use xlink:href="#rim2" fill="#404040">
                               <set attributeName="fill" to="#808080" begin="reset.mouseover" end="reset.mouseout"/>
                       </use>
               </g>
        </defs>

<script type="text/javascript">
var viewWidth = 282;
var viewHeight = 623;
var sectionId = 'dynsection-0';
</script>
<script xlink:href="../../svgpan.js"/>
<svg id="graph" class="graph">
<g id="viewport">
<title>i2c_mock</title>
<!-- Node1 -->
<g id="node1" class="node">
<title>Node1</title>
<g id="a_node1"><a xlink:title=" ">
<polygon fill="#bfbfbf" stroke="black" points="68,-0.5 68,-299.5 207,-299.5 207,-0.5 68,-0.5"/>
<text text-anchor="middle" x="137.5" y="-287.5" font-family="Helvetica,sans-Serif" font-size="10.00">i2c_mock</text>
<polyline fill="none" stroke="black" points="68,-280.5 207,-280.5 "/>
<text text-anchor="start" x="76" y="-268.5" font-family="Helvetica,sans-Serif" font-size="10.00">+ hasBeenCalledAmount</text>
<text text-anchor="start" x="76" y="-257.5" font-family="Helvetica,sans-Serif" font-size="10.00">_slavePresent</text>
<text text-anchor="start" x="76" y="-246.5" font-family="Helvetica,sans-Serif" font-size="10.00">+ hasBeenCalledAmount</text>
<text text-anchor="start" x="76" y="-235.5" font-family="Helvetica,sans-Serif" font-size="10.00">_writeByte</text>
<text text-anchor="start" x="76" y="-224.5" font-family="Helvetica,sans-Serif" font-size="10.00">+ hasBeenCalledAmount</text>
<text text-anchor="start" x="76" y="-213.5" font-family="Helvetica,sans-Serif" font-size="10.00">_writeWord</text>
<text text-anchor="start" x="76" y="-202.5" font-family="Helvetica,sans-Serif" font-size="10.00">+ hasBeenCalledAmount</text>
<text text-anchor="start" x="76" y="-191.5" font-family="Helvetica,sans-Serif" font-size="10.00">_readByte</text>
<text text-anchor="start" x="76" y="-180.5" font-family="Helvetica,sans-Serif" font-size="10.00">+ hasBeenCalledAmount</text>
<text text-anchor="start" x="76" y="-169.5" font-family="Helvetica,sans-Serif" font-size="10.00">_readWord</text>
<polyline fill="none" stroke="black" points="68,-162.5 207,-162.5 "/>
<text text-anchor="start" x="76" y="-150.5" font-family="Helvetica,sans-Serif" font-size="10.00">+ i2c_mock()</text>
<text text-anchor="start" x="76" y="-139.5" font-family="Helvetica,sans-Serif" font-size="10.00">+ ~i2c_mock()</text>
<text text-anchor="start" x="76" y="-128.5" font-family="Helvetica,sans-Serif" font-size="10.00">+ slavePresent()</text>
<text text-anchor="start" x="76" y="-117.5" font-family="Helvetica,sans-Serif" font-size="10.00">+ writeByte()</text>
<text text-anchor="start" x="76" y="-106.5" font-family="Helvetica,sans-Serif" font-size="10.00">+ writeMultiBytes()</text>
<text text-anchor="start" x="76" y="-95.5" font-family="Helvetica,sans-Serif" font-size="10.00">+ writeWord()</text>
<text text-anchor="start" x="76" y="-84.5" font-family="Helvetica,sans-Serif" font-size="10.00">+ readByte()</text>
<text text-anchor="start" x="76" y="-73.5" font-family="Helvetica,sans-Serif" font-size="10.00">+ readMultiBytes()</text>
<text text-anchor="start" x="76" y="-62.5" font-family="Helvetica,sans-Serif" font-size="10.00">+ readWord()</text>
<text text-anchor="start" x="76" y="-51.5" font-family="Helvetica,sans-Serif" font-size="10.00">+ reset()</text>
<text text-anchor="start" x="76" y="-40.5" font-family="Helvetica,sans-Serif" font-size="10.00">&#45; initialize_transaction()</text>
<text text-anchor="start" x="76" y="-29.5" font-family="Helvetica,sans-Serif" font-size="10.00">&#45; execute_transaction()</text>
<text text-anchor="start" x="76" y="-18.5" font-family="Helvetica,sans-Serif" font-size="10.00">&#45; insert_start_bit()</text>
<text text-anchor="start" x="76" y="-7.5" font-family="Helvetica,sans-Serif" font-size="10.00">&#45; insert_stop_bit()</text>
</a>
</g>
</g>
<!-- Node2 -->
<g id="node2" class="node">
<title>Node2</title>
<g id="a_node2"><a xlink:title=" ">
<polygon fill="none" stroke="#bfbfbf" points="0,-347.5 0,-404.5 131,-404.5 131,-347.5 0,-347.5"/>
<text text-anchor="middle" x="65.5" y="-392.5" font-family="Helvetica,sans-Serif" font-size="10.00">std::array&lt; uint8_t, 5 &gt;</text>
<polyline fill="none" stroke="#bfbfbf" points="0,-385.5 131,-385.5 "/>
<text text-anchor="start" x="8" y="-373.5" font-family="Helvetica,sans-Serif" font-size="10.00">+ elements</text>
<polyline fill="none" stroke="#bfbfbf" points="0,-366.5 131,-366.5 "/>
<text text-anchor="middle" x="65.5" y="-354.5" font-family="Helvetica,sans-Serif" font-size="10.00"> </text>
</a>
</g>
</g>
<!-- Node2&#45;&gt;Node1 -->
<g id="edge1" class="edge">
<title>Node2&#45;&gt;Node1</title>
<path fill="none" stroke="#404040" d="M74.47,-347.08C77.71,-337 81.64,-324.78 85.93,-311.43"/>
<polygon fill="none" stroke="#404040" points="85.95,-311.39 83.98,-304.45 89.62,-299.96 91.59,-306.9 85.95,-311.39"/>
<text text-anchor="middle" x="115.5" y="-321" font-family="Helvetica,sans-Serif" font-size="10.00"> +read_array</text>
</g>
<!-- Node3 -->
<g id="node3" class="node">
<title>Node3</title>
<g id="a_node3"><a xlink:title="STL class.">
<polygon fill="none" stroke="#bfbfbf" points="43.5,-452.5 43.5,-509.5 135.5,-509.5 135.5,-452.5 43.5,-452.5"/>
<text text-anchor="middle" x="89.5" y="-497.5" font-family="Helvetica,sans-Serif" font-size="10.00">std::array&lt; T &gt;</text>
<polyline fill="none" stroke="#bfbfbf" points="43.5,-490.5 135.5,-490.5 "/>
<text text-anchor="middle" x="89.5" y="-478.5" font-family="Helvetica,sans-Serif" font-size="10.00"> </text>
<polyline fill="none" stroke="#bfbfbf" points="43.5,-471.5 135.5,-471.5 "/>
<text text-anchor="middle" x="89.5" y="-459.5" font-family="Helvetica,sans-Serif" font-size="10.00"> </text>
</a>
</g>
</g>
<!-- Node3&#45;&gt;Node2 -->
<g id="edge2" class="edge">
<title>Node3&#45;&gt;Node2</title>
<path fill="none" stroke="orange" d="M80.71,-442.29C77.81,-429.84 74.64,-416.23 71.95,-404.68"/>
<polygon fill="orange" stroke="orange" points="77.39,-443.45 83.07,-452.4 84.21,-441.86 77.39,-443.45"/>
<text text-anchor="middle" x="114.5" y="-426" font-family="Helvetica,sans-Serif" font-size="10.00"> &lt; uint8_t, 5 &gt;</text>
</g>
<!-- Node4 -->
<g id="node4" class="node">
<title>Node4</title>
<g id="a_node4"><a xlink:title=" ">
<polygon fill="none" stroke="#bfbfbf" points="131,-557.5 131,-614.5 160,-614.5 160,-557.5 131,-557.5"/>
<text text-anchor="middle" x="145.5" y="-602.5" font-family="Helvetica,sans-Serif" font-size="10.00">T</text>
<polyline fill="none" stroke="#bfbfbf" points="131,-595.5 160,-595.5 "/>
<text text-anchor="middle" x="145.5" y="-583.5" font-family="Helvetica,sans-Serif" font-size="10.00"> </text>
<polyline fill="none" stroke="#bfbfbf" points="131,-576.5 160,-576.5 "/>
<text text-anchor="middle" x="145.5" y="-564.5" font-family="Helvetica,sans-Serif" font-size="10.00"> </text>
</a>
</g>
</g>
<!-- Node4&#45;&gt;Node3 -->
<g id="edge3" class="edge">
<title>Node4&#45;&gt;Node3</title>
<path fill="none" stroke="#404040" d="M130.8,-564.89C125.35,-557.01 119.33,-547.77 114.5,-539 111.31,-533.2 108.21,-526.92 105.35,-520.71"/>
<polygon fill="none" stroke="#404040" points="105.35,-520.7 99.26,-516.84 100.48,-509.73 106.57,-513.59 105.35,-520.7"/>
<text text-anchor="middle" x="143.5" y="-531" font-family="Helvetica,sans-Serif" font-size="10.00"> +elements</text>
</g>
<!-- Node6 -->
<g id="node6" class="node">
<title>Node6</title>
<g id="a_node6"><a xlink:title="STL class.">
<polygon fill="none" stroke="#bfbfbf" points="158,-452.5 158,-509.5 255,-509.5 255,-452.5 158,-452.5"/>
<text text-anchor="middle" x="206.5" y="-497.5" font-family="Helvetica,sans-Serif" font-size="10.00">std::vector&lt; T &gt;</text>
<polyline fill="none" stroke="#bfbfbf" points="158,-490.5 255,-490.5 "/>
<text text-anchor="middle" x="206.5" y="-478.5" font-family="Helvetica,sans-Serif" font-size="10.00"> </text>
<polyline fill="none" stroke="#bfbfbf" points="158,-471.5 255,-471.5 "/>
<text text-anchor="middle" x="206.5" y="-459.5" font-family="Helvetica,sans-Serif" font-size="10.00"> </text>
</a>
</g>
</g>
<!-- Node4&#45;&gt;Node6 -->
<g id="edge6" class="edge">
<title>Node4&#45;&gt;Node6</title>
<path fill="none" stroke="#404040" d="M160.11,-560.33C167.23,-548.31 175.95,-533.58 183.91,-520.15"/>
<polygon fill="none" stroke="#404040" points="183.96,-520.06 183.57,-512.86 190.07,-509.74 190.46,-516.94 183.96,-520.06"/>
<text text-anchor="middle" x="207.5" y="-531" font-family="Helvetica,sans-Serif" font-size="10.00"> +elements</text>
</g>
<!-- Node5 -->
<g id="node5" class="node">
<title>Node5</title>
<g id="a_node5"><a xlink:title=" ">
<polygon fill="none" stroke="#bfbfbf" points="149,-347.5 149,-404.5 274,-404.5 274,-347.5 149,-347.5"/>
<text text-anchor="middle" x="211.5" y="-392.5" font-family="Helvetica,sans-Serif" font-size="10.00">std::vector&lt; uint8_t &gt;</text>
<polyline fill="none" stroke="#bfbfbf" points="149,-385.5 274,-385.5 "/>
<text text-anchor="start" x="157" y="-373.5" font-family="Helvetica,sans-Serif" font-size="10.00">+ elements</text>
<polyline fill="none" stroke="#bfbfbf" points="149,-366.5 274,-366.5 "/>
<text text-anchor="middle" x="211.5" y="-354.5" font-family="Helvetica,sans-Serif" font-size="10.00"> </text>
</a>
</g>
</g>
<!-- Node5&#45;&gt;Node1 -->
<g id="edge4" class="edge">
<title>Node5&#45;&gt;Node1</title>
<path fill="none" stroke="#404040" d="M202.28,-347.08C198.95,-337 194.91,-324.78 190.5,-311.43"/>
<polygon fill="none" stroke="#404040" points="190.47,-311.36 184.79,-306.91 186.71,-299.96 192.39,-304.4 190.47,-311.36"/>
<text text-anchor="middle" x="228.5" y="-321" font-family="Helvetica,sans-Serif" font-size="10.00"> +data_array</text>
</g>
<!-- Node6&#45;&gt;Node5 -->
<g id="edge5" class="edge">
<title>Node6&#45;&gt;Node5</title>
<path fill="none" stroke="orange" d="M208.33,-442.29C208.93,-429.84 209.6,-416.23 210.16,-404.68"/>
<polygon fill="orange" stroke="orange" points="204.83,-442.24 207.84,-452.4 211.82,-442.58 204.83,-442.24"/>
<text text-anchor="middle" x="239.5" y="-426" font-family="Helvetica,sans-Serif" font-size="10.00"> &lt; uint8_t &gt;</text>
</g>
</g>
</svg>
        <g id="navigator" transform="translate(0 0)" fill="#404254">
                <rect fill="#f2f5e9" fill-opacity="0.5" stroke="#606060" stroke-width=".5" x="0" y="0" width="60" height="60"/>
                <use id="zoomplus" xlink:href="#zoomPlus" x="17" y="9" onmousedown="handleZoom(evt,'in')"/>
                <use id="zoomminus" xlink:href="#zoomMin" x="42" y="9" onmousedown="handleZoom(evt,'out')"/>
                <use id="reset" xlink:href="#resetDef" x="30" y="36" onmousedown="handleReset()"/>
                <g id="arrowUp" xlink:href="#dirArrow" transform="translate(30 24)" onmousedown="handlePan(0,-1)">
                  <use xlink:href="#rim" fill="#404040">
                        <set attributeName="fill" to="#808080" begin="arrowUp.mouseover" end="arrowUp.mouseout"/>
                  </use>
                  <path fill="none" stroke="white" stroke-width="1.5" d="M0,-3.0v7 M-2.5,-0.5L0,-3.0L2.5,-0.5"/>
                </g>
                <g id="arrowRight" xlink:href="#dirArrow" transform="rotate(90) translate(36 -43)" onmousedown="handlePan(1,0)">
                  <use xlink:href="#rim" fill="#404040">
                        <set attributeName="fill" to="#808080" begin="arrowRight.mouseover" end="arrowRight.mouseout"/>
                  </use>
                  <path fill="none" stroke="white" stroke-width="1.5" d="M0,-3.0v7 M-2.5,-0.5L0,-3.0L2.5,-0.5"/>
                </g>
                <g id="arrowDown" xlink:href="#dirArrow" transform="rotate(180) translate(-30 -48)" onmousedown="handlePan(0,1)">
                  <use xlink:href="#rim" fill="#404040">
                        <set attributeName="fill" to="#808080" begin="arrowDown.mouseover" end="arrowDown.mouseout"/>
                  </use>
                  <path fill="none" stroke="white" stroke-width="1.5" d="M0,-3.0v7 M-2.5,-0.5L0,-3.0L2.5,-0.5"/>
                </g>
                <g id="arrowLeft" xlink:href="#dirArrow" transform="rotate(270) translate(-36 17)" onmousedown="handlePan(-1,0)">
                  <use xlink:href="#rim" fill="#404040">
                        <set attributeName="fill" to="#808080" begin="arrowLeft.mouseover" end="arrowLeft.mouseout"/>
                  </use>
                  <path fill="none" stroke="white" stroke-width="1.5" d="M0,-3.0v7 M-2.5,-0.5L0,-3.0L2.5,-0.5"/>
                </g>
        </g>
        <svg viewBox="0 0 15 15" width="100%" height="30px" preserveAspectRatio="xMaxYMin meet">
         <g id="arrow_out" transform="scale(0.3 0.3)">
          <a xlink:href="classi2c__mock__coll__graph_org.svg" target="_base">
           <rect id="button" ry="5" rx="5" y="6" x="6" height="38" width="38"
                fill="#f2f5e9" fill-opacity="0.5" stroke="#606060" stroke-width="1.0"/>
           <path id="arrow"
             d="M 11.500037,31.436501 C 11.940474,20.09759 22.043105,11.32322 32.158766,21.979434 L 37.068811,17.246167 C 37.068811,17.246167 37.088388,32 37.088388,32 L 22.160133,31.978069 C 22.160133,31.978069 26.997745,27.140456 26.997745,27.140456 C 18.528582,18.264221 13.291696,25.230495 11.500037,31.436501 z"
             style="fill:#404040;"/>
          </a>
         </g>
        </svg>
</svg>
