<?xml version="1.0" encoding="UTF-8" standalone="no"?>
<!DOCTYPE svg PUBLIC "-//W3C//DTD SVG 1.1//EN"
 "http://www.w3.org/Graphics/SVG/1.1/DTD/svg11.dtd">
<!-- Generated by graphviz version 2.43.0 (0)
 -->
<!-- Title: Components/Interfaces/SensorControllerBase/test/mock/SensorControllerBase_MOCK.hpp Pages: 1 -->
<svg width="1438pt" height="530pt"
 viewBox="0.00 0.00 1437.50 530.00" xmlns="http://www.w3.org/2000/svg" xmlns:xlink="http://www.w3.org/1999/xlink">
<g id="graph0" class="graph" transform="scale(1 1) rotate(0) translate(4 526)">
<title>Components/Interfaces/SensorControllerBase/test/mock/SensorControllerBase_MOCK.hpp</title>
<!-- Node1 -->
<g id="node1" class="node">
<title>Node1</title>
<g id="a_node1"><a xlink:title=" ">
<polygon fill="#bfbfbf" stroke="black" points="20,-469.5 20,-521.5 196,-521.5 196,-469.5 20,-469.5"/>
<text text-anchor="start" x="28" y="-509.5" font-family="Helvetica,sans-Serif" font-size="10.00">Components/Interfaces</text>
<text text-anchor="start" x="28" y="-498.5" font-family="Helvetica,sans-Serif" font-size="10.00">/SensorControllerBase</text>
<text text-anchor="start" x="28" y="-487.5" font-family="Helvetica,sans-Serif" font-size="10.00">/test/mock/SensorControllerBase</text>
<text text-anchor="middle" x="108" y="-476.5" font-family="Helvetica,sans-Serif" font-size="10.00">_MOCK.hpp</text>
</a>
</g>
</g>
<!-- Node2 -->
<g id="node2" class="node">
<title>Node2</title>
<g id="a_node2"><a xlink:href="../../d9/d1c/_sensor_controller_base_8hpp.html" target="_top" xlink:title=" ">
<polygon fill="none" stroke="black" points="193,-402.5 193,-432.5 347,-432.5 347,-402.5 193,-402.5"/>
<text text-anchor="start" x="201" y="-420.5" font-family="Helvetica,sans-Serif" font-size="10.00">../../include/SensorController</text>
<text text-anchor="middle" x="270" y="-409.5" font-family="Helvetica,sans-Serif" font-size="10.00">Base.hpp</text>
</a>
</g>
</g>
<!-- Node1&#45;&gt;Node2 -->
<g id="edge1" class="edge">
<title>Node1&#45;&gt;Node2</title>
<path fill="none" stroke="midnightblue" d="M161.49,-469.4C184.03,-458.83 209.79,-446.74 230.56,-437"/>
<polygon fill="midnightblue" stroke="midnightblue" points="232.15,-440.12 239.72,-432.71 229.18,-433.79 232.15,-440.12"/>
</g>
<!-- Node6 -->
<g id="node6" class="node">
<title>Node6</title>
<g id="a_node6"><a xlink:title=" ">
<polygon fill="none" stroke="#bfbfbf" points="84,-0.5 84,-19.5 144,-19.5 144,-0.5 84,-0.5"/>
<text text-anchor="middle" x="114" y="-7.5" font-family="Helvetica,sans-Serif" font-size="10.00">iostream</text>
</a>
</g>
</g>
<!-- Node1&#45;&gt;Node6 -->
<g id="edge66" class="edge">
<title>Node1&#45;&gt;Node6</title>
<path fill="none" stroke="midnightblue" d="M72.64,-469.29C41.14,-443.61 0,-400.66 0,-351.5 0,-351.5 0,-351.5 0,-137.5 0,-85.07 54.7,-44.58 88.32,-24.64"/>
<polygon fill="midnightblue" stroke="midnightblue" points="90.24,-27.58 97.18,-19.57 86.76,-21.5 90.24,-27.58"/>
</g>
<!-- Node3 -->
<g id="node3" class="node">
<title>Node3</title>
<g id="a_node3"><a xlink:href="../../da/d5f/_b_a_s_i_c_8hpp.html" target="_top" xlink:title=" ">
<polygon fill="none" stroke="black" points="284,-56.5 284,-86.5 400,-86.5 400,-56.5 284,-56.5"/>
<text text-anchor="start" x="292" y="-74.5" font-family="Helvetica,sans-Serif" font-size="10.00">../../../Global_Include</text>
<text text-anchor="middle" x="342" y="-63.5" font-family="Helvetica,sans-Serif" font-size="10.00">/BASIC.hpp</text>
</a>
</g>
</g>
<!-- Node2&#45;&gt;Node3 -->
<g id="edge2" class="edge">
<title>Node2&#45;&gt;Node3</title>
<path fill="none" stroke="midnightblue" d="M230.88,-402.48C214.57,-394.47 197.29,-382.64 188,-366 149.85,-297.7 179.07,-267.32 191,-190 195.72,-159.41 189.11,-145.84 210,-123 226.81,-104.62 251.04,-92.88 274.16,-85.4"/>
<polygon fill="midnightblue" stroke="midnightblue" points="275.41,-88.68 283.98,-82.45 273.4,-81.97 275.41,-88.68"/>
</g>
<!-- Node4 -->
<g id="node4" class="node">
<title>Node4</title>
<g id="a_node4"><a xlink:href="../../d3/deb/_general___error_8hpp.html" target="_top" xlink:title=" ">
<polygon fill="none" stroke="black" points="819.5,-56.5 819.5,-86.5 964.5,-86.5 964.5,-56.5 819.5,-56.5"/>
<text text-anchor="start" x="827.5" y="-74.5" font-family="Helvetica,sans-Serif" font-size="10.00">../../../Objects/ErrorHandler</text>
<text text-anchor="middle" x="892" y="-63.5" font-family="Helvetica,sans-Serif" font-size="10.00">/include/General_Error.hpp</text>
</a>
</g>
</g>
<!-- Node2&#45;&gt;Node4 -->
<g id="edge3" class="edge">
<title>Node2&#45;&gt;Node4</title>
<path fill="none" stroke="midnightblue" d="M347.09,-413.52C498.38,-407.2 829.04,-390.97 940,-366 1045,-342.37 1166,-386.63 1166,-279 1166,-279 1166,-279 1166,-204.5 1166,-167.2 1172.95,-148.78 1146,-123 1144.4,-121.47 1048.52,-102.69 975.04,-88.47"/>
<polygon fill="midnightblue" stroke="midnightblue" points="975.31,-84.96 964.83,-86.5 973.99,-91.83 975.31,-84.96"/>
</g>
<!-- Node2&#45;&gt;Node6 -->
<g id="edge65" class="edge">
<title>Node2&#45;&gt;Node6</title>
<path fill="none" stroke="midnightblue" d="M192.75,-403.69C125.26,-387.57 38,-352.51 38,-279 38,-279 38,-279 38,-137.5 38,-92.12 74.38,-48.98 96.8,-26.7"/>
<polygon fill="midnightblue" stroke="midnightblue" points="99.28,-29.18 104.06,-19.73 94.43,-24.13 99.28,-29.18"/>
</g>
<!-- Node7 -->
<g id="node7" class="node">
<title>Node7</title>
<g id="a_node7"><a xlink:href="../../d3/d0d/_error_code_parser_8hpp.html" target="_top" xlink:title=" ">
<polygon fill="none" stroke="black" points="245,-335.5 245,-365.5 401,-365.5 401,-335.5 245,-335.5"/>
<text text-anchor="start" x="253" y="-353.5" font-family="Helvetica,sans-Serif" font-size="10.00">../../../Objects/ErrorHandler</text>
<text text-anchor="middle" x="323" y="-342.5" font-family="Helvetica,sans-Serif" font-size="10.00">/include/ErrorCodeParser.hpp</text>
</a>
</g>
</g>
<!-- Node2&#45;&gt;Node7 -->
<g id="edge6" class="edge">
<title>Node2&#45;&gt;Node7</title>
<path fill="none" stroke="midnightblue" d="M281.5,-402.4C288.38,-393.96 297.26,-383.07 305.04,-373.52"/>
<polygon fill="midnightblue" stroke="midnightblue" points="307.92,-375.54 311.52,-365.58 302.49,-371.11 307.92,-375.54"/>
</g>
<!-- Node16 -->
<g id="node16" class="node">
<title>Node16</title>
<g id="a_node16"><a xlink:href="../../d4/d63/mqtt__api__v2_8hpp.html" target="_top" xlink:title=" ">
<polygon fill="none" stroke="black" points="363.5,-257.5 363.5,-298.5 496.5,-298.5 496.5,-257.5 363.5,-257.5"/>
<text text-anchor="start" x="371.5" y="-286.5" font-family="Helvetica,sans-Serif" font-size="10.00">../../../Protocols</text>
<text text-anchor="start" x="371.5" y="-275.5" font-family="Helvetica,sans-Serif" font-size="10.00">/MQTT/include/mqtt_api</text>
<text text-anchor="middle" x="430" y="-264.5" font-family="Helvetica,sans-Serif" font-size="10.00">_v2.hpp</text>
</a>
</g>
</g>
<!-- Node2&#45;&gt;Node16 -->
<g id="edge61" class="edge">
<title>Node2&#45;&gt;Node16</title>
<path fill="none" stroke="midnightblue" d="M347.15,-403.5C370.24,-396.06 393.72,-384.37 410,-366 423.81,-350.42 428.64,-327.22 430.1,-308.7"/>
<polygon fill="midnightblue" stroke="midnightblue" points="433.6,-308.86 430.61,-298.7 426.61,-308.51 433.6,-308.86"/>
</g>
<!-- Node18 -->
<g id="node18" class="node">
<title>Node18</title>
<g id="a_node18"><a xlink:href="../../d5/dc5/_task_8h.html" target="_top" xlink:title=" ">
<polygon fill="none" stroke="black" points="1018.5,-123.5 1018.5,-153.5 1137.5,-153.5 1137.5,-123.5 1018.5,-123.5"/>
<text text-anchor="start" x="1026.5" y="-141.5" font-family="Helvetica,sans-Serif" font-size="10.00">../../../RTOS/FreeRTOS</text>
<text text-anchor="middle" x="1078" y="-130.5" font-family="Helvetica,sans-Serif" font-size="10.00">/include/Task.h</text>
</a>
</g>
</g>
<!-- Node2&#45;&gt;Node18 -->
<g id="edge63" class="edge">
<title>Node2&#45;&gt;Node18</title>
<path fill="none" stroke="midnightblue" d="M347.01,-415.54C491.64,-412.87 798.21,-402.9 897,-366 944.05,-348.42 954.7,-336.59 988,-299 1025.64,-256.51 1054.55,-195.71 1068.6,-162.81"/>
<polygon fill="midnightblue" stroke="midnightblue" points="1071.85,-164.12 1072.48,-153.54 1065.39,-161.41 1071.85,-164.12"/>
</g>
<!-- Node19 -->
<g id="node19" class="node">
<title>Node19</title>
<g id="a_node19"><a xlink:href="../../d3/d1c/_free_r_t_o_s_8h.html" target="_top" xlink:title=" ">
<polygon fill="none" stroke="black" points="275.5,-190.5 275.5,-220.5 394.5,-220.5 394.5,-190.5 275.5,-190.5"/>
<text text-anchor="start" x="283.5" y="-208.5" font-family="Helvetica,sans-Serif" font-size="10.00">../../../RTOS/FreeRTOS</text>
<text text-anchor="middle" x="335" y="-197.5" font-family="Helvetica,sans-Serif" font-size="10.00">/include/FreeRTOS.h</text>
</a>
</g>
</g>
<!-- Node2&#45;&gt;Node19 -->
<g id="edge62" class="edge">
<title>Node2&#45;&gt;Node19</title>
<path fill="none" stroke="midnightblue" d="M257.01,-402.25C249.26,-392.75 240.14,-379.55 236,-366 231.98,-352.82 232.31,-348.27 236,-335 248.25,-290.93 284.81,-251.05 309.9,-227.79"/>
<polygon fill="midnightblue" stroke="midnightblue" points="312.52,-230.14 317.59,-220.84 307.83,-224.94 312.52,-230.14"/>
</g>
<!-- Node20 -->
<g id="node20" class="node">
<title>Node20</title>
<g id="a_node20"><a xlink:title=" ">
<polygon fill="none" stroke="#bfbfbf" points="207,-196 207,-215 257,-215 257,-196 207,-196"/>
<text text-anchor="middle" x="232" y="-203" font-family="Helvetica,sans-Serif" font-size="10.00">atomic</text>
</a>
</g>
</g>
<!-- Node2&#45;&gt;Node20 -->
<g id="edge64" class="edge">
<title>Node2&#45;&gt;Node20</title>
<path fill="none" stroke="midnightblue" d="M240.31,-402.34C226.26,-393.92 210.86,-381.77 203,-366 181.39,-322.64 190.52,-303.81 203,-257 206.2,-244.98 213.02,-232.86 219.25,-223.5"/>
<polygon fill="midnightblue" stroke="midnightblue" points="222.21,-225.36 225.11,-215.17 216.49,-221.33 222.21,-225.36"/>
</g>
<!-- Node21 -->
<g id="node21" class="node">
<title>Node21</title>
<g id="a_node21"><a xlink:href="../../d1/da7/_m_q_t_t___message_8hpp.html" target="_top" xlink:title=" ">
<polygon fill="none" stroke="black" points="700,-335.5 700,-365.5 888,-365.5 888,-335.5 700,-335.5"/>
<text text-anchor="start" x="708" y="-353.5" font-family="Helvetica,sans-Serif" font-size="10.00">../../../Protocols</text>
<text text-anchor="middle" x="794" y="-342.5" font-family="Helvetica,sans-Serif" font-size="10.00">/MQTT/include/MQTT_Message.hpp</text>
</a>
</g>
</g>
<!-- Node2&#45;&gt;Node21 -->
<g id="edge39" class="edge">
<title>Node2&#45;&gt;Node21</title>
<path fill="none" stroke="midnightblue" d="M347.04,-406.94C437.75,-395.69 588.85,-376.95 689.92,-364.41"/>
<polygon fill="midnightblue" stroke="midnightblue" points="690.35,-367.88 699.85,-363.18 689.49,-360.94 690.35,-367.88"/>
</g>
<!-- Node5 -->
<g id="node5" class="node">
<title>Node5</title>
<g id="a_node5"><a xlink:title=" ">
<polygon fill="none" stroke="#bfbfbf" points="1009,-0.5 1009,-19.5 1053,-19.5 1053,-0.5 1009,-0.5"/>
<text text-anchor="middle" x="1031" y="-7.5" font-family="Helvetica,sans-Serif" font-size="10.00">string</text>
</a>
</g>
</g>
<!-- Node4&#45;&gt;Node5 -->
<g id="edge4" class="edge">
<title>Node4&#45;&gt;Node5</title>
<path fill="none" stroke="midnightblue" d="M924.94,-56.4C948.16,-46.46 978.99,-33.26 1001.42,-23.66"/>
<polygon fill="midnightblue" stroke="midnightblue" points="1002.96,-26.81 1010.77,-19.66 1000.2,-20.38 1002.96,-26.81"/>
</g>
<!-- Node4&#45;&gt;Node6 -->
<g id="edge5" class="edge">
<title>Node4&#45;&gt;Node6</title>
<path fill="none" stroke="midnightblue" d="M819.16,-64.93C658.76,-52.66 279.4,-23.65 154.59,-14.1"/>
<polygon fill="midnightblue" stroke="midnightblue" points="154.57,-10.59 144.33,-13.32 154.04,-17.57 154.57,-10.59"/>
</g>
<!-- Node7&#45;&gt;Node3 -->
<g id="edge7" class="edge">
<title>Node7&#45;&gt;Node3</title>
<path fill="none" stroke="midnightblue" d="M297.48,-335.31C255.58,-309.93 178.67,-253.44 198,-190 208.45,-155.69 216.16,-146.8 243,-123 257.86,-109.82 276.78,-99.08 294.08,-90.94"/>
<polygon fill="midnightblue" stroke="midnightblue" points="295.82,-93.99 303.5,-86.69 292.94,-87.61 295.82,-93.99"/>
</g>
<!-- Node7&#45;&gt;Node4 -->
<g id="edge8" class="edge">
<title>Node7&#45;&gt;Node4</title>
<path fill="none" stroke="midnightblue" d="M324.31,-335.25C326.82,-315.46 334,-279.56 354,-257 389.42,-217.06 526.47,-183.43 571,-154 588.34,-142.54 587.29,-132.04 606,-123 669.95,-92.12 750.11,-79.93 809.28,-75.22"/>
<polygon fill="midnightblue" stroke="midnightblue" points="809.62,-78.7 819.33,-74.47 809.1,-71.72 809.62,-78.7"/>
</g>
<!-- Node7&#45;&gt;Node6 -->
<g id="edge38" class="edge">
<title>Node7&#45;&gt;Node6</title>
<path fill="none" stroke="midnightblue" d="M266,-335.46C245,-327.77 222.56,-316.17 207,-299 133.99,-218.44 118.25,-79.97 114.89,-29.82"/>
<polygon fill="midnightblue" stroke="midnightblue" points="118.37,-29.32 114.3,-19.54 111.38,-29.72 118.37,-29.32"/>
</g>
<!-- Node8 -->
<g id="node8" class="node">
<title>Node8</title>
<g id="a_node8"><a xlink:href="../../d5/d40/_database___i_d___base_8hpp.html" target="_top" xlink:title=" ">
<polygon fill="none" stroke="black" points="515,-263 515,-293 647,-293 647,-263 515,-263"/>
<text text-anchor="start" x="523" y="-281" font-family="Helvetica,sans-Serif" font-size="10.00">../../../Global_Include</text>
<text text-anchor="middle" x="581" y="-270" font-family="Helvetica,sans-Serif" font-size="10.00">/Database_ID_Base.hpp</text>
</a>
</g>
</g>
<!-- Node7&#45;&gt;Node8 -->
<g id="edge9" class="edge">
<title>Node7&#45;&gt;Node8</title>
<path fill="none" stroke="midnightblue" d="M374.28,-335.49C416.09,-324.06 475.26,-307.9 519.59,-295.78"/>
<polygon fill="midnightblue" stroke="midnightblue" points="520.65,-299.12 529.37,-293.11 518.81,-292.37 520.65,-299.12"/>
</g>
<!-- Node10 -->
<g id="node10" class="node">
<title>Node10</title>
<g id="a_node10"><a xlink:href="../../d7/d60/_timeservice_8hpp.html" target="_top" xlink:title=" ">
<polygon fill="none" stroke="black" points="659.5,-190.5 659.5,-220.5 802.5,-220.5 802.5,-190.5 659.5,-190.5"/>
<text text-anchor="start" x="667.5" y="-208.5" font-family="Helvetica,sans-Serif" font-size="10.00">../../../Objects/Timeservice</text>
<text text-anchor="middle" x="731" y="-197.5" font-family="Helvetica,sans-Serif" font-size="10.00">/include/Timeservice.hpp</text>
</a>
</g>
</g>
<!-- Node7&#45;&gt;Node10 -->
<g id="edge11" class="edge">
<title>Node7&#45;&gt;Node10</title>
<path fill="none" stroke="midnightblue" d="M401.15,-344.17C485.6,-337.27 613.76,-323.19 656,-299 684.44,-282.71 706.42,-251.12 719.03,-229.43"/>
<polygon fill="midnightblue" stroke="midnightblue" points="722.18,-230.97 724.01,-220.53 716.07,-227.55 722.18,-230.97"/>
</g>
<!-- Node7&#45;&gt;Node16 -->
<g id="edge21" class="edge">
<title>Node7&#45;&gt;Node16</title>
<path fill="none" stroke="midnightblue" d="M344.4,-335.4C357.88,-326.52 375.68,-314.79 391.55,-304.33"/>
<polygon fill="midnightblue" stroke="midnightblue" points="393.71,-307.1 400.13,-298.68 389.86,-301.26 393.71,-307.1"/>
</g>
<!-- Node9 -->
<g id="node9" class="node">
<title>Node9</title>
<g id="a_node9"><a xlink:title=" ">
<polygon fill="none" stroke="#bfbfbf" points="565,-196 565,-215 603,-215 603,-196 565,-196"/>
<text text-anchor="middle" x="584" y="-203" font-family="Helvetica,sans-Serif" font-size="10.00">map</text>
</a>
</g>
</g>
<!-- Node8&#45;&gt;Node9 -->
<g id="edge10" class="edge">
<title>Node8&#45;&gt;Node9</title>
<path fill="none" stroke="midnightblue" d="M581.61,-262.73C582.06,-252 582.69,-237.19 583.19,-225.46"/>
<polygon fill="midnightblue" stroke="midnightblue" points="586.69,-225.53 583.62,-215.39 579.7,-225.24 586.69,-225.53"/>
</g>
<!-- Node10&#45;&gt;Node3 -->
<g id="edge12" class="edge">
<title>Node10&#45;&gt;Node3</title>
<path fill="none" stroke="midnightblue" d="M659.22,-192.29C654.41,-191.51 649.64,-190.74 645,-190 538.04,-173 497.2,-209.16 404,-154 380.96,-140.37 363.58,-114.58 353.17,-95.65"/>
<polygon fill="midnightblue" stroke="midnightblue" points="356.23,-93.97 348.49,-86.73 350.03,-97.22 356.23,-93.97"/>
</g>
<!-- Node10&#45;&gt;Node4 -->
<g id="edge13" class="edge">
<title>Node10&#45;&gt;Node4</title>
<path fill="none" stroke="midnightblue" d="M792.64,-190.45C815.14,-182.77 839.37,-171.2 857,-154 872.94,-138.45 882.04,-114.46 886.94,-96.53"/>
<polygon fill="midnightblue" stroke="midnightblue" points="890.35,-97.33 889.36,-86.78 883.55,-95.64 890.35,-97.33"/>
</g>
<!-- Node11 -->
<g id="node11" class="node">
<title>Node11</title>
<g id="a_node11"><a xlink:href="../../d6/d4b/_r_t_c___h_a_l_8hpp.html" target="_top" xlink:title=" ">
<polygon fill="none" stroke="black" points="446,-129 446,-148 526,-148 526,-129 446,-129"/>
<text text-anchor="middle" x="486" y="-136" font-family="Helvetica,sans-Serif" font-size="10.00">RTC_HAL.hpp</text>
</a>
</g>
</g>
<!-- Node10&#45;&gt;Node11 -->
<g id="edge14" class="edge">
<title>Node10&#45;&gt;Node11</title>
<path fill="none" stroke="midnightblue" d="M678.14,-190.48C633.18,-178.55 569.47,-161.64 527.94,-150.63"/>
<polygon fill="midnightblue" stroke="midnightblue" points="528.71,-147.21 518.15,-148.03 526.91,-153.98 528.71,-147.21"/>
</g>
<!-- Node13 -->
<g id="node13" class="node">
<title>Node13</title>
<g id="a_node13"><a xlink:title=" ">
<polygon fill="none" stroke="#bfbfbf" points="658,-129 658,-148 708,-148 708,-129 658,-129"/>
<text text-anchor="middle" x="683" y="-136" font-family="Helvetica,sans-Serif" font-size="10.00">chrono</text>
</a>
</g>
</g>
<!-- Node10&#45;&gt;Node13 -->
<g id="edge18" class="edge">
<title>Node10&#45;&gt;Node13</title>
<path fill="none" stroke="midnightblue" d="M720.58,-190.4C713.17,-180.36 703.19,-166.84 695.37,-156.25"/>
<polygon fill="midnightblue" stroke="midnightblue" points="698.18,-154.16 689.42,-148.19 692.55,-158.32 698.18,-154.16"/>
</g>
<!-- Node14 -->
<g id="node14" class="node">
<title>Node14</title>
<g id="a_node14"><a xlink:title=" ">
<polygon fill="none" stroke="#bfbfbf" points="726,-129 726,-148 782,-148 782,-129 726,-129"/>
<text text-anchor="middle" x="754" y="-136" font-family="Helvetica,sans-Serif" font-size="10.00">iomanip</text>
</a>
</g>
</g>
<!-- Node10&#45;&gt;Node14 -->
<g id="edge19" class="edge">
<title>Node10&#45;&gt;Node14</title>
<path fill="none" stroke="midnightblue" d="M735.99,-190.4C739.36,-180.86 743.85,-168.18 747.5,-157.86"/>
<polygon fill="midnightblue" stroke="midnightblue" points="750.89,-158.79 750.92,-148.19 744.29,-156.45 750.89,-158.79"/>
</g>
<!-- Node15 -->
<g id="node15" class="node">
<title>Node15</title>
<g id="a_node15"><a xlink:title=" ">
<polygon fill="none" stroke="#bfbfbf" points="800,-129 800,-148 848,-148 848,-129 800,-129"/>
<text text-anchor="middle" x="824" y="-136" font-family="Helvetica,sans-Serif" font-size="10.00">thread</text>
</a>
</g>
</g>
<!-- Node10&#45;&gt;Node15 -->
<g id="edge20" class="edge">
<title>Node10&#45;&gt;Node15</title>
<path fill="none" stroke="midnightblue" d="M751.18,-190.4C766.63,-179.6 787.86,-164.76 803.42,-153.89"/>
<polygon fill="midnightblue" stroke="midnightblue" points="805.64,-156.6 811.83,-148.01 801.63,-150.87 805.64,-156.6"/>
</g>
<!-- Node11&#45;&gt;Node3 -->
<g id="edge15" class="edge">
<title>Node11&#45;&gt;Node3</title>
<path fill="none" stroke="midnightblue" d="M466.88,-128.87C445.46,-119.2 410.12,-103.25 382.49,-90.78"/>
<polygon fill="midnightblue" stroke="midnightblue" points="383.63,-87.45 373.08,-86.53 380.75,-93.83 383.63,-87.45"/>
</g>
<!-- Node11&#45;&gt;Node4 -->
<g id="edge16" class="edge">
<title>Node11&#45;&gt;Node4</title>
<path fill="none" stroke="midnightblue" d="M515.27,-128.95C523.25,-126.81 531.92,-124.66 540,-123 631.36,-104.25 737.48,-90.04 809.11,-81.55"/>
<polygon fill="midnightblue" stroke="midnightblue" points="809.91,-84.98 819.43,-80.34 809.09,-78.03 809.91,-84.98"/>
</g>
<!-- Node12 -->
<g id="node12" class="node">
<title>Node12</title>
<g id="a_node12"><a xlink:title=" ">
<polygon fill="none" stroke="#bfbfbf" points="464,-62 464,-81 508,-81 508,-62 464,-62"/>
<text text-anchor="middle" x="486" y="-69" font-family="Helvetica,sans-Serif" font-size="10.00">ctime</text>
</a>
</g>
</g>
<!-- Node11&#45;&gt;Node12 -->
<g id="edge17" class="edge">
<title>Node11&#45;&gt;Node12</title>
<path fill="none" stroke="midnightblue" d="M486,-128.73C486,-119.18 486,-103.62 486,-91.28"/>
<polygon fill="midnightblue" stroke="midnightblue" points="489.5,-91.13 486,-81.13 482.5,-91.13 489.5,-91.13"/>
</g>
<!-- Node16&#45;&gt;Node3 -->
<g id="edge22" class="edge">
<title>Node16&#45;&gt;Node3</title>
<path fill="none" stroke="midnightblue" d="M429.02,-257.42C426.99,-237.82 420.94,-208.07 403,-190 365.87,-152.59 321.1,-196.55 290,-154 275.38,-133.99 294.92,-109.95 314.08,-93.19"/>
<polygon fill="midnightblue" stroke="midnightblue" points="316.44,-95.78 321.89,-86.7 311.96,-90.4 316.44,-95.78"/>
</g>
<!-- Node16&#45;&gt;Node4 -->
<g id="edge23" class="edge">
<title>Node16&#45;&gt;Node4</title>
<path fill="none" stroke="midnightblue" d="M458.44,-257.32C493.31,-233.13 554.17,-190.79 606,-154 625.21,-140.36 627.44,-132.49 649,-123 699.81,-100.63 761.02,-87.98 809.3,-80.94"/>
<polygon fill="midnightblue" stroke="midnightblue" points="809.98,-84.38 819.4,-79.52 809.01,-77.45 809.98,-84.38"/>
</g>
<!-- Node16&#45;&gt;Node9 -->
<g id="edge37" class="edge">
<title>Node16&#45;&gt;Node9</title>
<path fill="none" stroke="midnightblue" d="M472.9,-257.36C499.37,-245.24 532.59,-230.03 555.78,-219.42"/>
<polygon fill="midnightblue" stroke="midnightblue" points="557.42,-222.52 565.05,-215.17 554.5,-216.15 557.42,-222.52"/>
</g>
<!-- Node16&#45;&gt;Node10 -->
<g id="edge35" class="edge">
<title>Node16&#45;&gt;Node10</title>
<path fill="none" stroke="midnightblue" d="M496.69,-259.3C499.84,-258.51 502.95,-257.74 506,-257 555.62,-244.91 611.65,-232.33 655.39,-222.75"/>
<polygon fill="midnightblue" stroke="midnightblue" points="656.36,-226.12 665.38,-220.57 654.86,-219.28 656.36,-226.12"/>
</g>
<!-- Node17 -->
<g id="node17" class="node">
<title>Node17</title>
<g id="a_node17"><a xlink:href="../../de/dd1/_o_t_a_8hpp.html" target="_top" xlink:title=" ">
<polygon fill="none" stroke="black" points="820.5,-190.5 820.5,-220.5 923.5,-220.5 923.5,-190.5 820.5,-190.5"/>
<text text-anchor="start" x="828.5" y="-208.5" font-family="Helvetica,sans-Serif" font-size="10.00">../../../Objects/OTA</text>
<text text-anchor="middle" x="872" y="-197.5" font-family="Helvetica,sans-Serif" font-size="10.00">/include/OTA.hpp</text>
</a>
</g>
</g>
<!-- Node16&#45;&gt;Node17 -->
<g id="edge24" class="edge">
<title>Node16&#45;&gt;Node17</title>
<path fill="none" stroke="midnightblue" d="M496.61,-258.91C499.77,-258.23 502.92,-257.58 506,-257 636.96,-232.17 674.83,-244.22 810.25,-220.99"/>
<polygon fill="midnightblue" stroke="midnightblue" points="810.92,-224.42 820.17,-219.25 809.72,-217.53 810.92,-224.42"/>
</g>
<!-- Node16&#45;&gt;Node19 -->
<g id="edge31" class="edge">
<title>Node16&#45;&gt;Node19</title>
<path fill="none" stroke="midnightblue" d="M403.54,-257.36C390.66,-247.8 375.19,-236.33 362.21,-226.69"/>
<polygon fill="midnightblue" stroke="midnightblue" points="364.21,-223.82 354.09,-220.67 360.04,-229.44 364.21,-223.82"/>
</g>
<!-- Node16&#45;&gt;Node20 -->
<g id="edge36" class="edge">
<title>Node16&#45;&gt;Node20</title>
<path fill="none" stroke="midnightblue" d="M369.25,-257.45C338.17,-247.15 299.85,-233.98 266,-221 264.35,-220.37 262.67,-219.7 260.97,-219.02"/>
<polygon fill="midnightblue" stroke="midnightblue" points="261.9,-215.62 251.32,-215.03 259.22,-222.09 261.9,-215.62"/>
</g>
<!-- Node17&#45;&gt;Node3 -->
<g id="edge25" class="edge">
<title>Node17&#45;&gt;Node3</title>
<path fill="none" stroke="midnightblue" d="M820.18,-191.67C817.09,-191.06 814.01,-190.5 811,-190 646.27,-162.63 590.12,-220.63 437,-154 417.95,-145.71 417.73,-136.58 402,-123 390.5,-113.07 377.63,-102.21 366.77,-93.11"/>
<polygon fill="midnightblue" stroke="midnightblue" points="368.82,-90.26 358.91,-86.54 364.33,-95.64 368.82,-90.26"/>
</g>
<!-- Node17&#45;&gt;Node4 -->
<g id="edge26" class="edge">
<title>Node17&#45;&gt;Node4</title>
<path fill="none" stroke="midnightblue" d="M878.45,-190.25C882.61,-180.32 887.66,-166.63 890,-154 893.5,-135.12 893.86,-113.36 893.41,-97.07"/>
<polygon fill="midnightblue" stroke="midnightblue" points="896.9,-96.63 893.01,-86.78 889.9,-96.91 896.9,-96.63"/>
</g>
<!-- Node17&#45;&gt;Node18 -->
<g id="edge27" class="edge">
<title>Node17&#45;&gt;Node18</title>
<path fill="none" stroke="midnightblue" d="M916.45,-190.48C947.88,-180.56 990.21,-167.2 1023.65,-156.65"/>
<polygon fill="midnightblue" stroke="midnightblue" points="1024.8,-159.96 1033.28,-153.61 1022.69,-153.28 1024.8,-159.96"/>
</g>
<!-- Node18&#45;&gt;Node3 -->
<g id="edge28" class="edge">
<title>Node18&#45;&gt;Node3</title>
<path fill="none" stroke="midnightblue" d="M1018.21,-133.59C907.12,-126.11 661.41,-108.6 455,-87 440.46,-85.48 424.89,-83.63 410.1,-81.76"/>
<polygon fill="midnightblue" stroke="midnightblue" points="410.37,-78.27 400.01,-80.47 409.48,-85.21 410.37,-78.27"/>
</g>
<!-- Node18&#45;&gt;Node4 -->
<g id="edge29" class="edge">
<title>Node18&#45;&gt;Node4</title>
<path fill="none" stroke="midnightblue" d="M1037.64,-123.4C1009.49,-113.56 971.74,-100.37 941.73,-89.88"/>
<polygon fill="midnightblue" stroke="midnightblue" points="942.88,-86.57 932.28,-86.58 940.57,-93.18 942.88,-86.57"/>
</g>
<!-- Node18&#45;&gt;Node5 -->
<g id="edge30" class="edge">
<title>Node18&#45;&gt;Node5</title>
<path fill="none" stroke="midnightblue" d="M1068.87,-123.41C1062.82,-113.54 1055.08,-99.87 1050,-87 1042.53,-68.06 1037.3,-45.29 1034.25,-29.64"/>
<polygon fill="midnightblue" stroke="midnightblue" points="1037.66,-28.86 1032.4,-19.66 1030.78,-30.13 1037.66,-28.86"/>
</g>
<!-- Node19&#45;&gt;Node3 -->
<g id="edge32" class="edge">
<title>Node19&#45;&gt;Node3</title>
<path fill="none" stroke="midnightblue" d="M294.98,-190.38C278.61,-182.4 261.34,-170.62 252,-154 245.25,-141.99 245.04,-134.89 252,-123 260.09,-109.18 273.51,-98.85 287.55,-91.26"/>
<polygon fill="midnightblue" stroke="midnightblue" points="289.42,-94.24 296.82,-86.66 286.3,-87.97 289.42,-94.24"/>
</g>
<!-- Node19&#45;&gt;Node4 -->
<g id="edge33" class="edge">
<title>Node19&#45;&gt;Node4</title>
<path fill="none" stroke="midnightblue" d="M394.75,-195.51C435.58,-187.91 490.2,-174.87 535,-154 556.36,-144.05 556.23,-132 578,-123 652.47,-92.21 744.08,-80.11 809.09,-75.4"/>
<polygon fill="midnightblue" stroke="midnightblue" points="809.54,-78.88 819.28,-74.71 809.07,-71.9 809.54,-78.88"/>
</g>
<!-- Node19&#45;&gt;Node6 -->
<g id="edge34" class="edge">
<title>Node19&#45;&gt;Node6</title>
<path fill="none" stroke="midnightblue" d="M303.15,-190.31C284.65,-181.29 261.43,-168.58 243,-154 193.79,-115.06 147.4,-56.35 126.14,-27.79"/>
<polygon fill="midnightblue" stroke="midnightblue" points="128.9,-25.63 120.15,-19.65 123.25,-29.78 128.9,-25.63"/>
</g>
<!-- Node21&#45;&gt;Node3 -->
<g id="edge40" class="edge">
<title>Node21&#45;&gt;Node3</title>
<path fill="none" stroke="midnightblue" d="M776.21,-335.26C750.81,-315.49 702.1,-279.59 656,-257 623.41,-241.03 367.95,-182.9 346,-154 333.8,-137.93 333.93,-114.51 336.46,-96.9"/>
<polygon fill="midnightblue" stroke="midnightblue" points="339.95,-97.26 338.25,-86.8 333.06,-96.03 339.95,-97.26"/>
</g>
<!-- Node21&#45;&gt;Node4 -->
<g id="edge41" class="edge">
<title>Node21&#45;&gt;Node4</title>
<path fill="none" stroke="midnightblue" d="M875.27,-335.45C914.41,-326.85 955.36,-314.52 967,-299 990.04,-268.27 987.14,-202.75 945,-123 938.97,-111.59 929.38,-101.28 920.01,-93"/>
<polygon fill="midnightblue" stroke="midnightblue" points="922.19,-90.26 912.27,-86.54 917.7,-95.64 922.19,-90.26"/>
</g>
<!-- Node21&#45;&gt;Node8 -->
<g id="edge42" class="edge">
<title>Node21&#45;&gt;Node8</title>
<path fill="none" stroke="midnightblue" d="M751.66,-335.49C717.73,-324.26 669.94,-308.44 633.56,-296.4"/>
<polygon fill="midnightblue" stroke="midnightblue" points="634.21,-292.93 623.62,-293.11 632.01,-299.57 634.21,-292.93"/>
</g>
<!-- Node21&#45;&gt;Node10 -->
<g id="edge43" class="edge">
<title>Node21&#45;&gt;Node10</title>
<path fill="none" stroke="midnightblue" d="M787.11,-335.43C782.21,-325.34 775.56,-311.4 770,-299 759.55,-275.68 748.27,-248.72 740.55,-229.95"/>
<polygon fill="midnightblue" stroke="midnightblue" points="743.78,-228.61 736.75,-220.69 737.31,-231.27 743.78,-228.61"/>
</g>
<!-- Node21&#45;&gt;Node19 -->
<g id="edge44" class="edge">
<title>Node21&#45;&gt;Node19</title>
<path fill="none" stroke="midnightblue" d="M699.78,-344.51C578.13,-337.19 378.99,-321.88 354,-299 335.36,-281.94 332.28,-251.89 332.78,-230.68"/>
<polygon fill="midnightblue" stroke="midnightblue" points="336.28,-230.67 333.3,-220.51 329.29,-230.31 336.28,-230.67"/>
</g>
<!-- Node22 -->
<g id="node22" class="node">
<title>Node22</title>
<g id="a_node22"><a xlink:href="../../d5/d60/utils_8h.html" target="_top" xlink:title=" ">
<polygon fill="none" stroke="black" points="1194,-123.5 1194,-153.5 1292,-153.5 1292,-123.5 1194,-123.5"/>
<text text-anchor="start" x="1202" y="-141.5" font-family="Helvetica,sans-Serif" font-size="10.00">../../../Utility/utils</text>
<text text-anchor="middle" x="1243" y="-130.5" font-family="Helvetica,sans-Serif" font-size="10.00">/include/utils.h</text>
</a>
</g>
</g>
<!-- Node21&#45;&gt;Node22 -->
<g id="edge45" class="edge">
<title>Node21&#45;&gt;Node22</title>
<path fill="none" stroke="midnightblue" d="M882.32,-335.46C920.72,-327.54 965.61,-315.79 1004,-299 1089.31,-261.7 1177.26,-194.01 1218.66,-160.06"/>
<polygon fill="midnightblue" stroke="midnightblue" points="1221.06,-162.62 1226.54,-153.55 1216.6,-157.23 1221.06,-162.62"/>
</g>
<!-- Node23 -->
<g id="node23" class="node">
<title>Node23</title>
<g id="a_node23"><a xlink:title=" ">
<polygon fill="none" stroke="#bfbfbf" points="1382.5,-62 1382.5,-81 1429.5,-81 1429.5,-62 1382.5,-62"/>
<text text-anchor="middle" x="1406" y="-69" font-family="Helvetica,sans-Serif" font-size="10.00">vector</text>
</a>
</g>
</g>
<!-- Node21&#45;&gt;Node23 -->
<g id="edge60" class="edge">
<title>Node21&#45;&gt;Node23</title>
<path fill="none" stroke="midnightblue" d="M888.3,-339.31C939.14,-331.85 1002.29,-319.36 1056,-299 1174.31,-254.14 1196.37,-225.15 1301,-154 1332.72,-132.43 1367.53,-104.5 1388.03,-87.57"/>
<polygon fill="midnightblue" stroke="midnightblue" points="1390.44,-90.12 1395.89,-81.04 1385.96,-84.74 1390.44,-90.12"/>
</g>
<!-- Node28 -->
<g id="node28" class="node">
<title>Node28</title>
<g id="a_node28"><a xlink:href="../../d3/de3/_logger_8hpp.html" target="_top" xlink:title=" ">
<polygon fill="none" stroke="black" points="779,-263 779,-293 895,-293 895,-263 779,-263"/>
<text text-anchor="start" x="787" y="-281" font-family="Helvetica,sans-Serif" font-size="10.00">../../../Objects/Logger</text>
<text text-anchor="middle" x="837" y="-270" font-family="Helvetica,sans-Serif" font-size="10.00">/include/Logger.hpp</text>
</a>
</g>
</g>
<!-- Node21&#45;&gt;Node28 -->
<g id="edge55" class="edge">
<title>Node21&#45;&gt;Node28</title>
<path fill="none" stroke="midnightblue" d="M802.7,-335.23C808.53,-325.68 816.33,-312.89 823.02,-301.92"/>
<polygon fill="midnightblue" stroke="midnightblue" points="826.09,-303.61 828.31,-293.25 820.12,-299.96 826.09,-303.61"/>
</g>
<!-- Node29 -->
<g id="node29" class="node">
<title>Node29</title>
<g id="a_node29"><a xlink:title=" ">
<polygon fill="none" stroke="#bfbfbf" points="913.5,-268.5 913.5,-287.5 958.5,-287.5 958.5,-268.5 913.5,-268.5"/>
<text text-anchor="middle" x="936" y="-275.5" font-family="Helvetica,sans-Serif" font-size="10.00">utility</text>
</a>
</g>
</g>
<!-- Node21&#45;&gt;Node29 -->
<g id="edge59" class="edge">
<title>Node21&#45;&gt;Node29</title>
<path fill="none" stroke="midnightblue" d="M827.76,-335.34C849.81,-325.77 879.03,-312.46 904,-299 907.43,-297.15 911,-295.08 914.45,-292.99"/>
<polygon fill="midnightblue" stroke="midnightblue" points="916.52,-295.82 923.15,-287.56 912.81,-289.89 916.52,-295.82"/>
</g>
<!-- Node22&#45;&gt;Node3 -->
<g id="edge48" class="edge">
<title>Node22&#45;&gt;Node3</title>
<path fill="none" stroke="midnightblue" d="M1193.77,-129.2C1178.5,-126.88 1161.59,-124.57 1146,-123 840.02,-92.23 761.29,-114.59 455,-87 440.51,-85.7 425.03,-83.94 410.31,-82.11"/>
<polygon fill="midnightblue" stroke="midnightblue" points="410.63,-78.62 400.27,-80.83 409.74,-85.57 410.63,-78.62"/>
</g>
<!-- Node22&#45;&gt;Node4 -->
<g id="edge49" class="edge">
<title>Node22&#45;&gt;Node4</title>
<path fill="none" stroke="midnightblue" d="M1193.87,-125.93C1189.19,-124.91 1184.51,-123.91 1180,-123 1141.77,-115.25 1045.64,-98.61 974.91,-86.54"/>
<polygon fill="midnightblue" stroke="midnightblue" points="975.11,-83.02 964.67,-84.79 973.94,-89.92 975.11,-83.02"/>
</g>
<!-- Node22&#45;&gt;Node5 -->
<g id="edge46" class="edge">
<title>Node22&#45;&gt;Node5</title>
<path fill="none" stroke="midnightblue" d="M1253.47,-123.19C1265.02,-105.51 1280,-75.38 1264,-56 1238.88,-25.56 1120.87,-15.48 1063.07,-12.33"/>
<polygon fill="midnightblue" stroke="midnightblue" points="1063.18,-8.83 1053.01,-11.82 1062.82,-15.82 1063.18,-8.83"/>
</g>
<!-- Node22&#45;&gt;Node6 -->
<g id="edge53" class="edge">
<title>Node22&#45;&gt;Node6</title>
<path fill="none" stroke="midnightblue" d="M1193.93,-125.41C1145.98,-113.47 1076.47,-95.75 1050,-87 1014.97,-75.42 1009.02,-63.96 973,-56 814.03,-20.86 302.7,-12.93 154.57,-11.36"/>
<polygon fill="midnightblue" stroke="midnightblue" points="154.18,-7.85 144.14,-11.25 154.1,-14.85 154.18,-7.85"/>
</g>
<!-- Node22&#45;&gt;Node23 -->
<g id="edge47" class="edge">
<title>Node22&#45;&gt;Node23</title>
<path fill="none" stroke="midnightblue" d="M1280.44,-123.45C1306.5,-113.55 1342.01,-99.82 1373,-87 1374.41,-86.42 1375.85,-85.81 1377.3,-85.2"/>
<polygon fill="midnightblue" stroke="midnightblue" points="1379.07,-88.25 1386.87,-81.08 1376.3,-81.82 1379.07,-88.25"/>
</g>
<!-- Node24 -->
<g id="node24" class="node">
<title>Node24</title>
<g id="a_node24"><a xlink:title=" ">
<polygon fill="none" stroke="#bfbfbf" points="1311.5,-62 1311.5,-81 1364.5,-81 1364.5,-62 1311.5,-62"/>
<text text-anchor="middle" x="1338" y="-69" font-family="Helvetica,sans-Serif" font-size="10.00">stdint.h</text>
</a>
</g>
</g>
<!-- Node22&#45;&gt;Node24 -->
<g id="edge50" class="edge">
<title>Node22&#45;&gt;Node24</title>
<path fill="none" stroke="midnightblue" d="M1263.61,-123.4C1279.4,-112.6 1301.09,-97.76 1316.97,-86.89"/>
<polygon fill="midnightblue" stroke="midnightblue" points="1319.29,-89.54 1325.57,-81.01 1315.34,-83.77 1319.29,-89.54"/>
</g>
<!-- Node25 -->
<g id="node25" class="node">
<title>Node25</title>
<g id="a_node25"><a xlink:title=" ">
<polygon fill="none" stroke="#bfbfbf" points="1059,-62 1059,-81 1109,-81 1109,-62 1059,-62"/>
<text text-anchor="middle" x="1084" y="-69" font-family="Helvetica,sans-Serif" font-size="10.00">stdio.h</text>
</a>
</g>
</g>
<!-- Node22&#45;&gt;Node25 -->
<g id="edge51" class="edge">
<title>Node22&#45;&gt;Node25</title>
<path fill="none" stroke="midnightblue" d="M1207.64,-123.42C1182.56,-113.39 1148.15,-99.52 1118,-87 1116.59,-86.42 1115.15,-85.81 1113.7,-85.21"/>
<polygon fill="midnightblue" stroke="midnightblue" points="1114.68,-81.82 1104.11,-81.15 1111.96,-88.27 1114.68,-81.82"/>
</g>
<!-- Node26 -->
<g id="node26" class="node">
<title>Node26</title>
<g id="a_node26"><a xlink:title=" ">
<polygon fill="none" stroke="#bfbfbf" points="1127.5,-62 1127.5,-81 1180.5,-81 1180.5,-62 1127.5,-62"/>
<text text-anchor="middle" x="1154" y="-69" font-family="Helvetica,sans-Serif" font-size="10.00">stdlib.h</text>
</a>
</g>
</g>
<!-- Node22&#45;&gt;Node26 -->
<g id="edge52" class="edge">
<title>Node22&#45;&gt;Node26</title>
<path fill="none" stroke="midnightblue" d="M1223.69,-123.4C1209.04,-112.7 1188.96,-98.03 1174.12,-87.19"/>
<polygon fill="midnightblue" stroke="midnightblue" points="1175.79,-84.08 1165.65,-81.01 1171.66,-89.73 1175.79,-84.08"/>
</g>
<!-- Node27 -->
<g id="node27" class="node">
<title>Node27</title>
<g id="a_node27"><a xlink:title=" ">
<polygon fill="none" stroke="#bfbfbf" points="1199,-62 1199,-81 1255,-81 1255,-62 1199,-62"/>
<text text-anchor="middle" x="1227" y="-69" font-family="Helvetica,sans-Serif" font-size="10.00">sstream</text>
</a>
</g>
</g>
<!-- Node22&#45;&gt;Node27 -->
<g id="edge54" class="edge">
<title>Node22&#45;&gt;Node27</title>
<path fill="none" stroke="midnightblue" d="M1239.53,-123.4C1237.21,-113.96 1234.13,-101.45 1231.6,-91.19"/>
<polygon fill="midnightblue" stroke="midnightblue" points="1234.93,-90.07 1229.14,-81.19 1228.13,-91.74 1234.93,-90.07"/>
</g>
<!-- Node28&#45;&gt;Node3 -->
<g id="edge56" class="edge">
<title>Node28&#45;&gt;Node3</title>
<path fill="none" stroke="midnightblue" d="M778.67,-265.76C740.58,-256.94 690.57,-242.52 650,-221 630.74,-210.79 631.94,-198.8 612,-190 511.7,-145.76 451.54,-224.97 368,-154 351.44,-139.93 345.32,-115.33 343.11,-96.82"/>
<polygon fill="midnightblue" stroke="midnightblue" points="346.59,-96.41 342.21,-86.76 339.61,-97.03 346.59,-96.41"/>
</g>
<!-- Node28&#45;&gt;Node4 -->
<g id="edge57" class="edge">
<title>Node28&#45;&gt;Node4</title>
<path fill="none" stroke="midnightblue" d="M880.29,-262.83C899.73,-254.05 920.79,-240.62 932,-221 955.17,-180.45 928.01,-125.99 908.47,-95.56"/>
<polygon fill="midnightblue" stroke="midnightblue" points="911.18,-93.3 902.72,-86.92 905.35,-97.19 911.18,-93.3"/>
</g>
<!-- Node28&#45;&gt;Node10 -->
<g id="edge58" class="edge">
<title>Node28&#45;&gt;Node10</title>
<path fill="none" stroke="midnightblue" d="M815.8,-262.9C800.06,-252.43 778.38,-238.01 760.88,-226.37"/>
<polygon fill="midnightblue" stroke="midnightblue" points="762.42,-223.2 752.16,-220.57 758.55,-229.03 762.42,-223.2"/>
</g>
</g>
</svg>
