<?xml version="1.0" encoding="UTF-8" standalone="no"?>
<!DOCTYPE svg PUBLIC "-//W3C//DTD SVG 1.1//EN"
 "http://www.w3.org/Graphics/SVG/1.1/DTD/svg11.dtd">
<!-- Generated by graphviz version 2.43.0 (0)
 -->
<!-- Title: Components/Controller/DistanceSensorController/src/DistanceSensorController.cpp Pages: 1 -->
<svg width="1983pt" height="664pt"
 viewBox="0.00 0.00 1982.68 664.00" xmlns="http://www.w3.org/2000/svg" xmlns:xlink="http://www.w3.org/1999/xlink">
<g id="graph0" class="graph" transform="scale(1 1) rotate(0) translate(4 660)">
<title>Components/Controller/DistanceSensorController/src/DistanceSensorController.cpp</title>
<!-- Node1 -->
<g id="node1" class="node">
<title>Node1</title>
<g id="a_node1"><a xlink:title=" ">
<polygon fill="#bfbfbf" stroke="black" points="717,-614.5 717,-655.5 897,-655.5 897,-614.5 717,-614.5"/>
<text text-anchor="start" x="725" y="-643.5" font-family="Helvetica,sans-Serif" font-size="10.00">Components/Controller</text>
<text text-anchor="start" x="725" y="-632.5" font-family="Helvetica,sans-Serif" font-size="10.00">/DistanceSensorController</text>
<text text-anchor="middle" x="807" y="-621.5" font-family="Helvetica,sans-Serif" font-size="10.00">/src/DistanceSensorController.cpp</text>
</a>
</g>
</g>
<!-- Node2 -->
<g id="node2" class="node">
<title>Node2</title>
<g id="a_node2"><a xlink:href="../../db/d12/_distance_sensor_controller_8hpp.html" target="_top" xlink:title=" ">
<polygon fill="none" stroke="black" points="737,-547.5 737,-577.5 877,-577.5 877,-547.5 737,-547.5"/>
<text text-anchor="start" x="745" y="-565.5" font-family="Helvetica,sans-Serif" font-size="10.00">../include/DistanceSensor</text>
<text text-anchor="middle" x="807" y="-554.5" font-family="Helvetica,sans-Serif" font-size="10.00">Controller.hpp</text>
</a>
</g>
</g>
<!-- Node1&#45;&gt;Node2 -->
<g id="edge1" class="edge">
<title>Node1&#45;&gt;Node2</title>
<path fill="none" stroke="midnightblue" d="M807,-614.36C807,-606.23 807,-596.7 807,-588.11"/>
<polygon fill="midnightblue" stroke="midnightblue" points="810.5,-587.89 807,-577.89 803.5,-587.89 810.5,-587.89"/>
</g>
<!-- Node3 -->
<g id="node3" class="node">
<title>Node3</title>
<g id="a_node3"><a xlink:href="../../da/d5f/_b_a_s_i_c_8hpp.html" target="_top" xlink:title=" ">
<polygon fill="none" stroke="black" points="482,-56.5 482,-86.5 598,-86.5 598,-56.5 482,-56.5"/>
<text text-anchor="start" x="490" y="-74.5" font-family="Helvetica,sans-Serif" font-size="10.00">../../../Global_Include</text>
<text text-anchor="middle" x="540" y="-63.5" font-family="Helvetica,sans-Serif" font-size="10.00">/BASIC.hpp</text>
</a>
</g>
</g>
<!-- Node2&#45;&gt;Node3 -->
<g id="edge2" class="edge">
<title>Node2&#45;&gt;Node3</title>
<path fill="none" stroke="midnightblue" d="M736.72,-556.3C546.88,-541.33 38,-494.61 38,-424 38,-424 38,-424 38,-277 38,-158.01 147.16,-168.76 257,-123 326.65,-93.99 412.72,-81.63 471.54,-76.37"/>
<polygon fill="midnightblue" stroke="midnightblue" points="472.16,-79.83 481.83,-75.5 471.57,-72.86 472.16,-79.83"/>
</g>
<!-- Node4 -->
<g id="node4" class="node">
<title>Node4</title>
<g id="a_node4"><a xlink:href="../../d3/deb/_general___error_8hpp.html" target="_top" xlink:title=" ">
<polygon fill="none" stroke="black" points="1348.5,-56.5 1348.5,-86.5 1493.5,-86.5 1493.5,-56.5 1348.5,-56.5"/>
<text text-anchor="start" x="1356.5" y="-74.5" font-family="Helvetica,sans-Serif" font-size="10.00">../../../Objects/ErrorHandler</text>
<text text-anchor="middle" x="1421" y="-63.5" font-family="Helvetica,sans-Serif" font-size="10.00">/include/General_Error.hpp</text>
</a>
</g>
</g>
<!-- Node2&#45;&gt;Node4 -->
<g id="edge3" class="edge">
<title>Node2&#45;&gt;Node4</title>
<path fill="none" stroke="midnightblue" d="M877.04,-558.59C1094.58,-548.64 1744,-511.6 1744,-424 1744,-424 1744,-424 1744,-204.5 1744,-160.8 1725.51,-147.01 1689,-123 1659.09,-103.33 1570.98,-89.27 1503.88,-81.07"/>
<polygon fill="midnightblue" stroke="midnightblue" points="1504.07,-77.56 1493.73,-79.85 1503.24,-84.51 1504.07,-77.56"/>
</g>
<!-- Node6 -->
<g id="node6" class="node">
<title>Node6</title>
<g id="a_node6"><a xlink:title=" ">
<polygon fill="none" stroke="#bfbfbf" points="122,-0.5 122,-19.5 182,-19.5 182,-0.5 122,-0.5"/>
<text text-anchor="middle" x="152" y="-7.5" font-family="Helvetica,sans-Serif" font-size="10.00">iostream</text>
</a>
</g>
</g>
<!-- Node2&#45;&gt;Node6 -->
<g id="edge84" class="edge">
<title>Node2&#45;&gt;Node6</title>
<path fill="none" stroke="midnightblue" d="M736.76,-560.18C589.78,-556.77 254.48,-545.37 146,-511 73.99,-488.19 0,-499.54 0,-424 0,-424 0,-424 0,-137.5 0,-77.69 70.4,-40.7 115.37,-23.17"/>
<polygon fill="midnightblue" stroke="midnightblue" points="116.69,-26.41 124.83,-19.62 114.23,-19.86 116.69,-26.41"/>
</g>
<!-- Node7 -->
<g id="node7" class="node">
<title>Node7</title>
<g id="a_node7"><a xlink:href="../../d9/d1c/_sensor_controller_base_8hpp.html" target="_top" xlink:title=" ">
<polygon fill="none" stroke="black" points="322,-402.5 322,-443.5 506,-443.5 506,-402.5 322,-402.5"/>
<text text-anchor="start" x="330" y="-431.5" font-family="Helvetica,sans-Serif" font-size="10.00">../../../Interfaces</text>
<text text-anchor="start" x="330" y="-420.5" font-family="Helvetica,sans-Serif" font-size="10.00">/SensorControllerBase</text>
<text text-anchor="middle" x="414" y="-409.5" font-family="Helvetica,sans-Serif" font-size="10.00">/include/SensorControllerBase.hpp</text>
</a>
</g>
</g>
<!-- Node2&#45;&gt;Node7 -->
<g id="edge6" class="edge">
<title>Node2&#45;&gt;Node7</title>
<path fill="none" stroke="midnightblue" d="M766.79,-547.43C699.02,-523.72 561.45,-475.59 479.56,-446.94"/>
<polygon fill="midnightblue" stroke="midnightblue" points="480.46,-443.54 469.86,-443.54 478.14,-450.15 480.46,-443.54"/>
</g>
<!-- Node31 -->
<g id="node31" class="node">
<title>Node31</title>
<g id="a_node31"><a xlink:href="../../d0/dd5/_a_d_c___a_p_i___e_s_p32_8hpp.html" target="_top" xlink:title=" ">
<polygon fill="none" stroke="black" points="764,-480.5 764,-510.5 920,-510.5 920,-480.5 764,-480.5"/>
<text text-anchor="start" x="772" y="-498.5" font-family="Helvetica,sans-Serif" font-size="10.00">../../../Objects/ADC</text>
<text text-anchor="middle" x="842" y="-487.5" font-family="Helvetica,sans-Serif" font-size="10.00">/include/ADC_API_ESP32.hpp</text>
</a>
</g>
</g>
<!-- Node2&#45;&gt;Node31 -->
<g id="edge68" class="edge">
<title>Node2&#45;&gt;Node31</title>
<path fill="none" stroke="midnightblue" d="M814.59,-547.4C819,-539.22 824.65,-528.73 829.67,-519.39"/>
<polygon fill="midnightblue" stroke="midnightblue" points="832.76,-521.04 834.42,-510.58 826.6,-517.72 832.76,-521.04"/>
</g>
<!-- Node34 -->
<g id="node34" class="node">
<title>Node34</title>
<g id="a_node34"><a xlink:href="../../d5/dbf/_g_p_i_o___a_p_i_8hpp.html" target="_top" xlink:title=" ">
<polygon fill="none" stroke="black" points="1039,-190.5 1039,-220.5 1163,-220.5 1163,-190.5 1039,-190.5"/>
<text text-anchor="start" x="1047" y="-208.5" font-family="Helvetica,sans-Serif" font-size="10.00">../../../Objects/Gpio</text>
<text text-anchor="middle" x="1101" y="-197.5" font-family="Helvetica,sans-Serif" font-size="10.00">/include/GPIO_API.hpp</text>
</a>
</g>
</g>
<!-- Node2&#45;&gt;Node34 -->
<g id="edge78" class="edge">
<title>Node2&#45;&gt;Node34</title>
<path fill="none" stroke="midnightblue" d="M877.25,-555.23C1056.35,-538.32 1516,-488.61 1516,-424 1516,-424 1516,-424 1516,-349.5 1516,-313.36 1288.07,-252.25 1170.05,-223.02"/>
<polygon fill="midnightblue" stroke="midnightblue" points="1170.57,-219.55 1160.02,-220.55 1168.89,-226.34 1170.57,-219.55"/>
</g>
<!-- Node5 -->
<g id="node5" class="node">
<title>Node5</title>
<g id="a_node5"><a xlink:title=" ">
<polygon fill="none" stroke="#bfbfbf" points="1399,-0.5 1399,-19.5 1443,-19.5 1443,-0.5 1399,-0.5"/>
<text text-anchor="middle" x="1421" y="-7.5" font-family="Helvetica,sans-Serif" font-size="10.00">string</text>
</a>
</g>
</g>
<!-- Node4&#45;&gt;Node5 -->
<g id="edge4" class="edge">
<title>Node4&#45;&gt;Node5</title>
<path fill="none" stroke="midnightblue" d="M1421,-56.4C1421,-48.47 1421,-38.46 1421,-29.86"/>
<polygon fill="midnightblue" stroke="midnightblue" points="1424.5,-29.66 1421,-19.66 1417.5,-29.66 1424.5,-29.66"/>
</g>
<!-- Node4&#45;&gt;Node6 -->
<g id="edge5" class="edge">
<title>Node4&#45;&gt;Node6</title>
<path fill="none" stroke="midnightblue" d="M1348.22,-67.09C1112.24,-56.02 373.13,-21.37 192.25,-12.89"/>
<polygon fill="midnightblue" stroke="midnightblue" points="192.27,-9.38 182.11,-12.41 191.94,-16.38 192.27,-9.38"/>
</g>
<!-- Node7&#45;&gt;Node3 -->
<g id="edge7" class="edge">
<title>Node7&#45;&gt;Node3</title>
<path fill="none" stroke="midnightblue" d="M321.82,-403.91C300.95,-395.63 280.88,-383.57 267,-366 218.23,-304.26 226.26,-265.61 248,-190 257.71,-156.22 261.1,-142.99 290,-123 318.95,-102.98 408.37,-88.35 471.99,-80.13"/>
<polygon fill="midnightblue" stroke="midnightblue" points="472.48,-83.6 481.96,-78.87 471.6,-76.65 472.48,-83.6"/>
</g>
<!-- Node7&#45;&gt;Node4 -->
<g id="edge8" class="edge">
<title>Node7&#45;&gt;Node4</title>
<path fill="none" stroke="midnightblue" d="M506.07,-416.52C676.75,-406.12 1036.16,-383.05 1160,-366 1354.02,-339.29 1592,-474.85 1592,-279 1592,-279 1592,-279 1592,-204.5 1592,-163.75 1580.26,-150.3 1550,-123 1533.66,-108.26 1512.52,-97.6 1492.1,-89.99"/>
<polygon fill="midnightblue" stroke="midnightblue" points="1493.06,-86.63 1482.47,-86.61 1490.74,-93.23 1493.06,-86.63"/>
</g>
<!-- Node7&#45;&gt;Node6 -->
<g id="edge67" class="edge">
<title>Node7&#45;&gt;Node6</title>
<path fill="none" stroke="midnightblue" d="M321.64,-420.87C221.56,-414.18 76,-386.04 76,-279 76,-279 76,-279 76,-137.5 76,-92.12 112.38,-48.98 134.8,-26.7"/>
<polygon fill="midnightblue" stroke="midnightblue" points="137.28,-29.18 142.06,-19.73 132.43,-24.13 137.28,-29.18"/>
</g>
<!-- Node8 -->
<g id="node8" class="node">
<title>Node8</title>
<g id="a_node8"><a xlink:href="../../d3/d0d/_error_code_parser_8hpp.html" target="_top" xlink:title=" ">
<polygon fill="none" stroke="black" points="389,-335.5 389,-365.5 545,-365.5 545,-335.5 389,-335.5"/>
<text text-anchor="start" x="397" y="-353.5" font-family="Helvetica,sans-Serif" font-size="10.00">../../../Objects/ErrorHandler</text>
<text text-anchor="middle" x="467" y="-342.5" font-family="Helvetica,sans-Serif" font-size="10.00">/include/ErrorCodeParser.hpp</text>
</a>
</g>
</g>
<!-- Node7&#45;&gt;Node8 -->
<g id="edge9" class="edge">
<title>Node7&#45;&gt;Node8</title>
<path fill="none" stroke="midnightblue" d="M428.76,-402.36C435.36,-393.59 443.16,-383.21 450,-374.12"/>
<polygon fill="midnightblue" stroke="midnightblue" points="452.97,-375.99 456.18,-365.89 447.37,-371.78 452.97,-375.99"/>
</g>
<!-- Node17 -->
<g id="node17" class="node">
<title>Node17</title>
<g id="a_node17"><a xlink:href="../../d4/d63/mqtt__api__v2_8hpp.html" target="_top" xlink:title=" ">
<polygon fill="none" stroke="black" points="294.5,-257.5 294.5,-298.5 427.5,-298.5 427.5,-257.5 294.5,-257.5"/>
<text text-anchor="start" x="302.5" y="-286.5" font-family="Helvetica,sans-Serif" font-size="10.00">../../../Protocols</text>
<text text-anchor="start" x="302.5" y="-275.5" font-family="Helvetica,sans-Serif" font-size="10.00">/MQTT/include/mqtt_api</text>
<text text-anchor="middle" x="361" y="-264.5" font-family="Helvetica,sans-Serif" font-size="10.00">_v2.hpp</text>
</a>
</g>
</g>
<!-- Node7&#45;&gt;Node17 -->
<g id="edge63" class="edge">
<title>Node7&#45;&gt;Node17</title>
<path fill="none" stroke="midnightblue" d="M399.87,-402.37C392.98,-391.99 385.11,-378.78 380,-366 372.63,-347.57 367.88,-325.75 364.97,-308.57"/>
<polygon fill="midnightblue" stroke="midnightblue" points="368.4,-307.88 363.38,-298.55 361.49,-308.97 368.4,-307.88"/>
</g>
<!-- Node19 -->
<g id="node19" class="node">
<title>Node19</title>
<g id="a_node19"><a xlink:href="../../d5/dc5/_task_8h.html" target="_top" xlink:title=" ">
<polygon fill="none" stroke="black" points="1178.5,-123.5 1178.5,-153.5 1297.5,-153.5 1297.5,-123.5 1178.5,-123.5"/>
<text text-anchor="start" x="1186.5" y="-141.5" font-family="Helvetica,sans-Serif" font-size="10.00">../../../RTOS/FreeRTOS</text>
<text text-anchor="middle" x="1238" y="-130.5" font-family="Helvetica,sans-Serif" font-size="10.00">/include/Task.h</text>
</a>
</g>
</g>
<!-- Node7&#45;&gt;Node19 -->
<g id="edge65" class="edge">
<title>Node7&#45;&gt;Node19</title>
<path fill="none" stroke="midnightblue" d="M506.24,-417.51C682.41,-408.5 1054.19,-387.26 1109,-366 1207.05,-327.97 1249.72,-315.44 1296,-221 1302.06,-208.63 1301.71,-202.54 1296,-190 1290.54,-178.01 1280.68,-167.77 1270.62,-159.7"/>
<polygon fill="midnightblue" stroke="midnightblue" points="1272.69,-156.88 1262.59,-153.71 1268.51,-162.49 1272.69,-156.88"/>
</g>
<!-- Node20 -->
<g id="node20" class="node">
<title>Node20</title>
<g id="a_node20"><a xlink:href="../../d3/d1c/_free_r_t_o_s_8h.html" target="_top" xlink:title=" ">
<polygon fill="none" stroke="black" points="378.5,-190.5 378.5,-220.5 497.5,-220.5 497.5,-190.5 378.5,-190.5"/>
<text text-anchor="start" x="386.5" y="-208.5" font-family="Helvetica,sans-Serif" font-size="10.00">../../../RTOS/FreeRTOS</text>
<text text-anchor="middle" x="438" y="-197.5" font-family="Helvetica,sans-Serif" font-size="10.00">/include/FreeRTOS.h</text>
</a>
</g>
</g>
<!-- Node7&#45;&gt;Node20 -->
<g id="edge64" class="edge">
<title>Node7&#45;&gt;Node20</title>
<path fill="none" stroke="midnightblue" d="M378.59,-402.31C328.23,-371.73 246.12,-310.78 285,-257 304.15,-230.51 337.7,-217.68 368.51,-211.56"/>
<polygon fill="midnightblue" stroke="midnightblue" points="369.16,-215 378.39,-209.8 367.93,-208.11 369.16,-215"/>
</g>
<!-- Node21 -->
<g id="node21" class="node">
<title>Node21</title>
<g id="a_node21"><a xlink:title=" ">
<polygon fill="none" stroke="#bfbfbf" points="272,-196 272,-215 322,-215 322,-196 272,-196"/>
<text text-anchor="middle" x="297" y="-203" font-family="Helvetica,sans-Serif" font-size="10.00">atomic</text>
</a>
</g>
</g>
<!-- Node7&#45;&gt;Node21 -->
<g id="edge66" class="edge">
<title>Node7&#45;&gt;Node21</title>
<path fill="none" stroke="midnightblue" d="M345.71,-402.45C326.13,-393.97 306.25,-382.18 292,-366 259.39,-328.98 259.38,-304.95 271,-257 273.83,-245.33 279.84,-233.35 285.38,-223.98"/>
<polygon fill="midnightblue" stroke="midnightblue" points="288.48,-225.62 290.82,-215.29 282.54,-221.91 288.48,-225.62"/>
</g>
<!-- Node22 -->
<g id="node22" class="node">
<title>Node22</title>
<g id="a_node22"><a xlink:href="../../d1/da7/_m_q_t_t___message_8hpp.html" target="_top" xlink:title=" ">
<polygon fill="none" stroke="black" points="748,-335.5 748,-365.5 936,-365.5 936,-335.5 748,-335.5"/>
<text text-anchor="start" x="756" y="-353.5" font-family="Helvetica,sans-Serif" font-size="10.00">../../../Protocols</text>
<text text-anchor="middle" x="842" y="-342.5" font-family="Helvetica,sans-Serif" font-size="10.00">/MQTT/include/MQTT_Message.hpp</text>
</a>
</g>
</g>
<!-- Node7&#45;&gt;Node22 -->
<g id="edge41" class="edge">
<title>Node7&#45;&gt;Node22</title>
<path fill="none" stroke="midnightblue" d="M506.08,-406.83C577.18,-395.12 675.22,-378.97 747.03,-367.14"/>
<polygon fill="midnightblue" stroke="midnightblue" points="747.69,-370.58 756.99,-365.5 746.55,-363.68 747.69,-370.58"/>
</g>
<!-- Node8&#45;&gt;Node3 -->
<g id="edge10" class="edge">
<title>Node8&#45;&gt;Node3</title>
<path fill="none" stroke="midnightblue" d="M388.8,-345.02C352.88,-339.06 312.3,-326.19 285,-299 249.98,-264.13 238.37,-232.85 263,-190 305.03,-116.87 404.23,-89.25 471.77,-78.82"/>
<polygon fill="midnightblue" stroke="midnightblue" points="472.51,-82.25 481.91,-77.34 471.51,-75.32 472.51,-82.25"/>
</g>
<!-- Node8&#45;&gt;Node4 -->
<g id="edge11" class="edge">
<title>Node8&#45;&gt;Node4</title>
<path fill="none" stroke="midnightblue" d="M539.26,-335.45C583.87,-326.26 642.11,-313.33 693,-299 748.6,-283.34 759.38,-268.44 816,-257 928.89,-234.2 1228.2,-268.74 1333,-221 1371.32,-203.54 1379.12,-190.57 1400,-154 1410.1,-136.3 1415.43,-113.7 1418.19,-96.79"/>
<polygon fill="midnightblue" stroke="midnightblue" points="1421.69,-97.01 1419.65,-86.61 1414.76,-96.01 1421.69,-97.01"/>
</g>
<!-- Node8&#45;&gt;Node6 -->
<g id="edge40" class="edge">
<title>Node8&#45;&gt;Node6</title>
<path fill="none" stroke="midnightblue" d="M388.82,-339.18C335.93,-330.72 272.18,-317.2 252,-299 170.31,-225.35 155.35,-81.49 152.61,-29.94"/>
<polygon fill="midnightblue" stroke="midnightblue" points="156.1,-29.49 152.17,-19.65 149.1,-29.8 156.1,-29.49"/>
</g>
<!-- Node9 -->
<g id="node9" class="node">
<title>Node9</title>
<g id="a_node9"><a xlink:href="../../d5/d40/_database___i_d___base_8hpp.html" target="_top" xlink:title=" ">
<polygon fill="none" stroke="black" points="446,-263 446,-293 578,-293 578,-263 446,-263"/>
<text text-anchor="start" x="454" y="-281" font-family="Helvetica,sans-Serif" font-size="10.00">../../../Global_Include</text>
<text text-anchor="middle" x="512" y="-270" font-family="Helvetica,sans-Serif" font-size="10.00">/Database_ID_Base.hpp</text>
</a>
</g>
</g>
<!-- Node8&#45;&gt;Node9 -->
<g id="edge12" class="edge">
<title>Node8&#45;&gt;Node9</title>
<path fill="none" stroke="midnightblue" d="M476.11,-335.23C482.21,-325.68 490.37,-312.89 497.37,-301.92"/>
<polygon fill="midnightblue" stroke="midnightblue" points="500.48,-303.56 502.91,-293.25 494.58,-299.79 500.48,-303.56"/>
</g>
<!-- Node11 -->
<g id="node11" class="node">
<title>Node11</title>
<g id="a_node11"><a xlink:href="../../d7/d60/_timeservice_8hpp.html" target="_top" xlink:title=" ">
<polygon fill="none" stroke="black" points="864.5,-190.5 864.5,-220.5 1007.5,-220.5 1007.5,-190.5 864.5,-190.5"/>
<text text-anchor="start" x="872.5" y="-208.5" font-family="Helvetica,sans-Serif" font-size="10.00">../../../Objects/Timeservice</text>
<text text-anchor="middle" x="936" y="-197.5" font-family="Helvetica,sans-Serif" font-size="10.00">/include/Timeservice.hpp</text>
</a>
</g>
</g>
<!-- Node8&#45;&gt;Node11 -->
<g id="edge14" class="edge">
<title>Node8&#45;&gt;Node11</title>
<path fill="none" stroke="midnightblue" d="M506.65,-335.35C560.19,-316.46 658.73,-282.42 744,-257 785.06,-244.76 831.52,-232.5 868.45,-223.12"/>
<polygon fill="midnightblue" stroke="midnightblue" points="869.76,-226.4 878.6,-220.56 868.05,-219.61 869.76,-226.4"/>
</g>
<!-- Node8&#45;&gt;Node17 -->
<g id="edge24" class="edge">
<title>Node8&#45;&gt;Node17</title>
<path fill="none" stroke="midnightblue" d="M445.8,-335.4C432.45,-326.52 414.82,-314.79 399.09,-304.33"/>
<polygon fill="midnightblue" stroke="midnightblue" points="400.85,-301.3 390.59,-298.68 396.98,-307.13 400.85,-301.3"/>
</g>
<!-- Node10 -->
<g id="node10" class="node">
<title>Node10</title>
<g id="a_node10"><a xlink:title=" ">
<polygon fill="none" stroke="#bfbfbf" points="516,-196 516,-215 554,-215 554,-196 516,-196"/>
<text text-anchor="middle" x="535" y="-203" font-family="Helvetica,sans-Serif" font-size="10.00">map</text>
</a>
</g>
</g>
<!-- Node9&#45;&gt;Node10 -->
<g id="edge13" class="edge">
<title>Node9&#45;&gt;Node10</title>
<path fill="none" stroke="midnightblue" d="M516.65,-262.73C520.19,-251.89 525.09,-236.88 528.93,-225.1"/>
<polygon fill="midnightblue" stroke="midnightblue" points="532.32,-225.99 532.1,-215.39 525.67,-223.81 532.32,-225.99"/>
</g>
<!-- Node11&#45;&gt;Node3 -->
<g id="edge15" class="edge">
<title>Node11&#45;&gt;Node3</title>
<path fill="none" stroke="midnightblue" d="M864.25,-202.45C802.37,-198.35 711.91,-186.67 640,-154 623.24,-146.39 586.76,-114.93 562.8,-93.41"/>
<polygon fill="midnightblue" stroke="midnightblue" points="564.97,-90.65 555.21,-86.53 560.27,-95.84 564.97,-90.65"/>
</g>
<!-- Node11&#45;&gt;Node4 -->
<g id="edge16" class="edge">
<title>Node11&#45;&gt;Node4</title>
<path fill="none" stroke="midnightblue" d="M1007.58,-193.41C1045.61,-185.7 1092.35,-173.27 1131,-154 1150.82,-144.12 1149.92,-132.33 1170,-123 1222.98,-98.37 1287.73,-85.72 1338.19,-79.24"/>
<polygon fill="midnightblue" stroke="midnightblue" points="1338.91,-82.68 1348.41,-77.99 1338.06,-75.73 1338.91,-82.68"/>
</g>
<!-- Node12 -->
<g id="node12" class="node">
<title>Node12</title>
<g id="a_node12"><a xlink:href="../../d6/d4b/_r_t_c___h_a_l_8hpp.html" target="_top" xlink:title=" ">
<polygon fill="none" stroke="black" points="720,-129 720,-148 800,-148 800,-129 720,-129"/>
<text text-anchor="middle" x="760" y="-136" font-family="Helvetica,sans-Serif" font-size="10.00">RTC_HAL.hpp</text>
</a>
</g>
</g>
<!-- Node11&#45;&gt;Node12 -->
<g id="edge17" class="edge">
<title>Node11&#45;&gt;Node12</title>
<path fill="none" stroke="midnightblue" d="M897.81,-190.4C866.38,-178.79 822.32,-162.51 792.54,-151.52"/>
<polygon fill="midnightblue" stroke="midnightblue" points="793.63,-148.19 783.03,-148.01 791.2,-154.75 793.63,-148.19"/>
</g>
<!-- Node14 -->
<g id="node14" class="node">
<title>Node14</title>
<g id="a_node14"><a xlink:title=" ">
<polygon fill="none" stroke="#bfbfbf" points="922,-129 922,-148 972,-148 972,-129 922,-129"/>
<text text-anchor="middle" x="947" y="-136" font-family="Helvetica,sans-Serif" font-size="10.00">chrono</text>
</a>
</g>
</g>
<!-- Node11&#45;&gt;Node14 -->
<g id="edge21" class="edge">
<title>Node11&#45;&gt;Node14</title>
<path fill="none" stroke="midnightblue" d="M938.39,-190.4C939.98,-180.96 942.1,-168.45 943.84,-158.19"/>
<polygon fill="midnightblue" stroke="midnightblue" points="947.31,-158.64 945.53,-148.19 940.41,-157.47 947.31,-158.64"/>
</g>
<!-- Node15 -->
<g id="node15" class="node">
<title>Node15</title>
<g id="a_node15"><a xlink:title=" ">
<polygon fill="none" stroke="#bfbfbf" points="990,-129 990,-148 1046,-148 1046,-129 990,-129"/>
<text text-anchor="middle" x="1018" y="-136" font-family="Helvetica,sans-Serif" font-size="10.00">iomanip</text>
</a>
</g>
</g>
<!-- Node11&#45;&gt;Node15 -->
<g id="edge22" class="edge">
<title>Node11&#45;&gt;Node15</title>
<path fill="none" stroke="midnightblue" d="M953.79,-190.4C967.08,-179.86 985.23,-165.48 998.84,-154.69"/>
<polygon fill="midnightblue" stroke="midnightblue" points="1001.37,-157.15 1007.03,-148.19 997.02,-151.66 1001.37,-157.15"/>
</g>
<!-- Node16 -->
<g id="node16" class="node">
<title>Node16</title>
<g id="a_node16"><a xlink:title=" ">
<polygon fill="none" stroke="#bfbfbf" points="856,-129 856,-148 904,-148 904,-129 856,-129"/>
<text text-anchor="middle" x="880" y="-136" font-family="Helvetica,sans-Serif" font-size="10.00">thread</text>
</a>
</g>
</g>
<!-- Node11&#45;&gt;Node16 -->
<g id="edge23" class="edge">
<title>Node11&#45;&gt;Node16</title>
<path fill="none" stroke="midnightblue" d="M923.85,-190.4C915.12,-180.26 903.32,-166.57 894.16,-155.94"/>
<polygon fill="midnightblue" stroke="midnightblue" points="896.67,-153.49 887.49,-148.19 891.37,-158.06 896.67,-153.49"/>
</g>
<!-- Node12&#45;&gt;Node3 -->
<g id="edge18" class="edge">
<title>Node12&#45;&gt;Node3</title>
<path fill="none" stroke="midnightblue" d="M730.79,-128.87C696.84,-118.84 640.04,-102.06 597.21,-89.4"/>
<polygon fill="midnightblue" stroke="midnightblue" points="598.06,-86.01 587.48,-86.53 596.08,-92.72 598.06,-86.01"/>
</g>
<!-- Node12&#45;&gt;Node4 -->
<g id="edge19" class="edge">
<title>Node12&#45;&gt;Node4</title>
<path fill="none" stroke="midnightblue" d="M788.09,-128.93C796.37,-126.69 805.49,-124.48 814,-123 999.49,-90.65 1220.61,-78.87 1338.05,-74.7"/>
<polygon fill="midnightblue" stroke="midnightblue" points="1338.18,-78.19 1348.05,-74.35 1337.94,-71.2 1338.18,-78.19"/>
</g>
<!-- Node13 -->
<g id="node13" class="node">
<title>Node13</title>
<g id="a_node13"><a xlink:title=" ">
<polygon fill="none" stroke="#bfbfbf" points="738,-62 738,-81 782,-81 782,-62 738,-62"/>
<text text-anchor="middle" x="760" y="-69" font-family="Helvetica,sans-Serif" font-size="10.00">ctime</text>
</a>
</g>
</g>
<!-- Node12&#45;&gt;Node13 -->
<g id="edge20" class="edge">
<title>Node12&#45;&gt;Node13</title>
<path fill="none" stroke="midnightblue" d="M760,-128.73C760,-119.18 760,-103.62 760,-91.28"/>
<polygon fill="midnightblue" stroke="midnightblue" points="763.5,-91.13 760,-81.13 756.5,-91.13 763.5,-91.13"/>
</g>
<!-- Node17&#45;&gt;Node3 -->
<g id="edge25" class="edge">
<title>Node17&#45;&gt;Node3</title>
<path fill="none" stroke="midnightblue" d="M360.07,-257.24C359.7,-224.1 364.18,-157.54 403,-123 422.39,-105.75 448.19,-94.21 472.16,-86.59"/>
<polygon fill="midnightblue" stroke="midnightblue" points="473.37,-89.88 481.95,-83.66 471.36,-83.18 473.37,-89.88"/>
</g>
<!-- Node17&#45;&gt;Node4 -->
<g id="edge26" class="edge">
<title>Node17&#45;&gt;Node4</title>
<path fill="none" stroke="midnightblue" d="M427.56,-258.62C430.74,-258.01 433.9,-257.47 437,-257 625.92,-228.52 1118.97,-292.84 1296,-221 1353.37,-197.72 1392.78,-131.37 1410.45,-95.76"/>
<polygon fill="midnightblue" stroke="midnightblue" points="1413.68,-97.12 1414.86,-86.59 1407.37,-94.09 1413.68,-97.12"/>
</g>
<!-- Node17&#45;&gt;Node10 -->
<g id="edge39" class="edge">
<title>Node17&#45;&gt;Node10</title>
<path fill="none" stroke="midnightblue" d="M415.21,-257.46C442.67,-247.21 476.38,-234.09 506,-221 507.16,-220.49 508.34,-219.95 509.52,-219.41"/>
<polygon fill="midnightblue" stroke="midnightblue" points="511.07,-222.55 518.57,-215.06 508.04,-216.24 511.07,-222.55"/>
</g>
<!-- Node18 -->
<g id="node18" class="node">
<title>Node18</title>
<g id="a_node18"><a xlink:href="../../de/dd1/_o_t_a_8hpp.html" target="_top" xlink:title=" ">
<polygon fill="none" stroke="black" points="1183.5,-190.5 1183.5,-220.5 1286.5,-220.5 1286.5,-190.5 1183.5,-190.5"/>
<text text-anchor="start" x="1191.5" y="-208.5" font-family="Helvetica,sans-Serif" font-size="10.00">../../../Objects/OTA</text>
<text text-anchor="middle" x="1235" y="-197.5" font-family="Helvetica,sans-Serif" font-size="10.00">/include/OTA.hpp</text>
</a>
</g>
</g>
<!-- Node17&#45;&gt;Node18 -->
<g id="edge27" class="edge">
<title>Node17&#45;&gt;Node18</title>
<path fill="none" stroke="midnightblue" d="M427.56,-258.64C430.74,-258.03 433.9,-257.48 437,-257 760.23,-207.11 848.03,-265.85 1172,-221 1172.34,-220.95 1172.69,-220.9 1173.03,-220.85"/>
<polygon fill="midnightblue" stroke="midnightblue" points="1173.92,-224.26 1183.22,-219.18 1172.79,-217.35 1173.92,-224.26"/>
</g>
<!-- Node17&#45;&gt;Node20 -->
<g id="edge34" class="edge">
<title>Node17&#45;&gt;Node20</title>
<path fill="none" stroke="midnightblue" d="M382.45,-257.36C392.52,-248.14 404.54,-237.13 414.82,-227.72"/>
<polygon fill="midnightblue" stroke="midnightblue" points="417.27,-230.23 422.28,-220.89 412.54,-225.06 417.27,-230.23"/>
</g>
<!-- Node17&#45;&gt;Node21 -->
<g id="edge38" class="edge">
<title>Node17&#45;&gt;Node21</title>
<path fill="none" stroke="midnightblue" d="M343.17,-257.36C333.25,-246.43 321.05,-232.99 311.68,-222.67"/>
<polygon fill="midnightblue" stroke="midnightblue" points="314.19,-220.23 304.87,-215.17 309,-224.93 314.19,-220.23"/>
</g>
<!-- Node18&#45;&gt;Node3 -->
<g id="edge28" class="edge">
<title>Node18&#45;&gt;Node3</title>
<path fill="none" stroke="midnightblue" d="M1183.2,-191.94C1179.42,-191.22 1175.66,-190.56 1172,-190 968.86,-158.87 903.15,-226.91 711,-154 689.64,-145.9 689.95,-134.13 670,-123 646.31,-109.78 618.45,-98.46 594.61,-89.9"/>
<polygon fill="midnightblue" stroke="midnightblue" points="595.6,-86.54 585,-86.53 593.28,-93.15 595.6,-86.54"/>
</g>
<!-- Node18&#45;&gt;Node4 -->
<g id="edge29" class="edge">
<title>Node18&#45;&gt;Node4</title>
<path fill="none" stroke="midnightblue" d="M1272.17,-190.3C1293.06,-181.44 1319.07,-168.89 1340,-154 1364.03,-136.91 1387.31,-112.38 1402.7,-94.71"/>
<polygon fill="midnightblue" stroke="midnightblue" points="1405.76,-96.52 1409.59,-86.64 1400.43,-91.97 1405.76,-96.52"/>
</g>
<!-- Node18&#45;&gt;Node19 -->
<g id="edge30" class="edge">
<title>Node18&#45;&gt;Node19</title>
<path fill="none" stroke="midnightblue" d="M1235.65,-190.4C1236.01,-182.64 1236.46,-172.81 1236.88,-163.86"/>
<polygon fill="midnightblue" stroke="midnightblue" points="1240.39,-163.73 1237.35,-153.58 1233.39,-163.4 1240.39,-163.73"/>
</g>
<!-- Node19&#45;&gt;Node3 -->
<g id="edge31" class="edge">
<title>Node19&#45;&gt;Node3</title>
<path fill="none" stroke="midnightblue" d="M1178.36,-128.89C1162.95,-126.81 1146.37,-124.7 1131,-123 1031.37,-112 741.49,-88.53 608.34,-77.91"/>
<polygon fill="midnightblue" stroke="midnightblue" points="608.5,-74.41 598.25,-77.11 607.94,-81.39 608.5,-74.41"/>
</g>
<!-- Node19&#45;&gt;Node4 -->
<g id="edge32" class="edge">
<title>Node19&#45;&gt;Node4</title>
<path fill="none" stroke="midnightblue" d="M1277.71,-123.4C1305.29,-113.6 1342.22,-100.48 1371.69,-90.02"/>
<polygon fill="midnightblue" stroke="midnightblue" points="1373.12,-93.22 1381.37,-86.58 1370.77,-86.63 1373.12,-93.22"/>
</g>
<!-- Node19&#45;&gt;Node5 -->
<g id="edge33" class="edge">
<title>Node19&#45;&gt;Node5</title>
<path fill="none" stroke="midnightblue" d="M1253.96,-123.35C1273.52,-106.36 1307.99,-77.46 1340,-56 1357.65,-44.17 1378.65,-32.57 1394.84,-24.11"/>
<polygon fill="midnightblue" stroke="midnightblue" points="1396.47,-27.2 1403.76,-19.51 1393.27,-20.98 1396.47,-27.2"/>
</g>
<!-- Node20&#45;&gt;Node3 -->
<g id="edge35" class="edge">
<title>Node20&#45;&gt;Node3</title>
<path fill="none" stroke="midnightblue" d="M426.58,-190.46C414.11,-173.31 397.71,-144 412,-123 425.76,-102.78 448.98,-90.66 471.9,-83.39"/>
<polygon fill="midnightblue" stroke="midnightblue" points="473.04,-86.7 481.68,-80.56 471.1,-79.98 473.04,-86.7"/>
</g>
<!-- Node20&#45;&gt;Node4 -->
<g id="edge36" class="edge">
<title>Node20&#45;&gt;Node4</title>
<path fill="none" stroke="midnightblue" d="M497.78,-191.6C500.89,-191.03 503.98,-190.5 507,-190 640.38,-168.08 684.58,-206.82 809,-154 829.06,-145.48 826.81,-131.21 847,-123 933.85,-87.7 1201.23,-77.02 1338.22,-73.83"/>
<polygon fill="midnightblue" stroke="midnightblue" points="1338.34,-77.33 1348.26,-73.61 1338.18,-70.33 1338.34,-77.33"/>
</g>
<!-- Node20&#45;&gt;Node6 -->
<g id="edge37" class="edge">
<title>Node20&#45;&gt;Node6</title>
<path fill="none" stroke="midnightblue" d="M416.97,-190.27C364.15,-154.54 226.38,-61.32 173.29,-25.4"/>
<polygon fill="midnightblue" stroke="midnightblue" points="174.92,-22.28 164.68,-19.58 171,-28.08 174.92,-22.28"/>
</g>
<!-- Node22&#45;&gt;Node3 -->
<g id="edge42" class="edge">
<title>Node22&#45;&gt;Node3</title>
<path fill="none" stroke="midnightblue" d="M825.12,-335.38C783.27,-300.56 675.1,-211.81 634,-190 589.31,-166.28 555.58,-195.05 526,-154 513.93,-137.25 519.83,-113.61 527.33,-96.1"/>
<polygon fill="midnightblue" stroke="midnightblue" points="530.71,-97.13 531.8,-86.6 524.38,-94.15 530.71,-97.13"/>
</g>
<!-- Node22&#45;&gt;Node4 -->
<g id="edge43" class="edge">
<title>Node22&#45;&gt;Node4</title>
<path fill="none" stroke="midnightblue" d="M936.12,-335.98C1076.87,-314.5 1334.11,-269.96 1413,-221 1455.62,-194.55 1487.61,-169.59 1469,-123 1464.53,-111.82 1456.29,-101.7 1447.87,-93.5"/>
<polygon fill="midnightblue" stroke="midnightblue" points="1449.96,-90.67 1440.2,-86.55 1445.25,-95.86 1449.96,-90.67"/>
</g>
<!-- Node22&#45;&gt;Node9 -->
<g id="edge44" class="edge">
<title>Node22&#45;&gt;Node9</title>
<path fill="none" stroke="midnightblue" d="M776.41,-335.49C722.06,-323.88 644.77,-307.36 587.79,-295.19"/>
<polygon fill="midnightblue" stroke="midnightblue" points="588.26,-291.71 577.75,-293.05 586.8,-298.56 588.26,-291.71"/>
</g>
<!-- Node22&#45;&gt;Node11 -->
<g id="edge45" class="edge">
<title>Node22&#45;&gt;Node11</title>
<path fill="none" stroke="midnightblue" d="M853,-335.13C860.53,-325.15 870.63,-311.44 879,-299 894.67,-275.7 911.39,-248.23 922.64,-229.31"/>
<polygon fill="midnightblue" stroke="midnightblue" points="925.76,-230.9 927.84,-220.51 919.74,-227.34 925.76,-230.9"/>
</g>
<!-- Node22&#45;&gt;Node20 -->
<g id="edge46" class="edge">
<title>Node22&#45;&gt;Node20</title>
<path fill="none" stroke="midnightblue" d="M804.07,-335.46C754.34,-317.11 664.32,-284.12 587,-257 554.84,-245.72 518.63,-233.44 489.96,-223.81"/>
<polygon fill="midnightblue" stroke="midnightblue" points="490.74,-220.38 480.15,-220.52 488.52,-227.02 490.74,-220.38"/>
</g>
<!-- Node23 -->
<g id="node23" class="node">
<title>Node23</title>
<g id="a_node23"><a xlink:href="../../d5/d60/utils_8h.html" target="_top" xlink:title=" ">
<polygon fill="none" stroke="black" points="1772,-123.5 1772,-153.5 1870,-153.5 1870,-123.5 1772,-123.5"/>
<text text-anchor="start" x="1780" y="-141.5" font-family="Helvetica,sans-Serif" font-size="10.00">../../../Utility/utils</text>
<text text-anchor="middle" x="1821" y="-130.5" font-family="Helvetica,sans-Serif" font-size="10.00">/include/utils.h</text>
</a>
</g>
</g>
<!-- Node22&#45;&gt;Node23 -->
<g id="edge47" class="edge">
<title>Node22&#45;&gt;Node23</title>
<path fill="none" stroke="midnightblue" d="M936.07,-336.09C939.42,-335.71 942.74,-335.34 946,-335 1171.11,-311.36 1234.16,-352.88 1454,-299 1583.32,-267.3 1724.71,-193.67 1787.61,-158.65"/>
<polygon fill="midnightblue" stroke="midnightblue" points="1789.66,-161.52 1796.67,-153.58 1786.23,-155.41 1789.66,-161.52"/>
</g>
<!-- Node24 -->
<g id="node24" class="node">
<title>Node24</title>
<g id="a_node24"><a xlink:title=" ">
<polygon fill="none" stroke="#bfbfbf" points="1585.5,-62 1585.5,-81 1632.5,-81 1632.5,-62 1585.5,-62"/>
<text text-anchor="middle" x="1609" y="-69" font-family="Helvetica,sans-Serif" font-size="10.00">vector</text>
</a>
</g>
</g>
<!-- Node22&#45;&gt;Node24 -->
<g id="edge62" class="edge">
<title>Node22&#45;&gt;Node24</title>
<path fill="none" stroke="midnightblue" d="M936.09,-336.29C939.43,-335.85 942.75,-335.42 946,-335 1172.48,-305.8 1253.46,-342.2 1447,-221 1508.81,-182.3 1568.63,-118.61 1594.97,-88.82"/>
<polygon fill="midnightblue" stroke="midnightblue" points="1597.82,-90.88 1601.77,-81.04 1592.55,-86.27 1597.82,-90.88"/>
</g>
<!-- Node29 -->
<g id="node29" class="node">
<title>Node29</title>
<g id="a_node29"><a xlink:href="../../d3/de3/_logger_8hpp.html" target="_top" xlink:title=" ">
<polygon fill="none" stroke="black" points="964,-263 964,-293 1080,-293 1080,-263 964,-263"/>
<text text-anchor="start" x="972" y="-281" font-family="Helvetica,sans-Serif" font-size="10.00">../../../Objects/Logger</text>
<text text-anchor="middle" x="1022" y="-270" font-family="Helvetica,sans-Serif" font-size="10.00">/include/Logger.hpp</text>
</a>
</g>
</g>
<!-- Node22&#45;&gt;Node29 -->
<g id="edge57" class="edge">
<title>Node22&#45;&gt;Node29</title>
<path fill="none" stroke="midnightblue" d="M877.99,-335.4C906.32,-324.31 945.98,-308.78 976.5,-296.82"/>
<polygon fill="midnightblue" stroke="midnightblue" points="978.03,-299.98 986.07,-293.07 975.48,-293.46 978.03,-299.98"/>
</g>
<!-- Node30 -->
<g id="node30" class="node">
<title>Node30</title>
<g id="a_node30"><a xlink:title=" ">
<polygon fill="none" stroke="#bfbfbf" points="824.5,-268.5 824.5,-287.5 869.5,-287.5 869.5,-268.5 824.5,-268.5"/>
<text text-anchor="middle" x="847" y="-275.5" font-family="Helvetica,sans-Serif" font-size="10.00">utility</text>
</a>
</g>
</g>
<!-- Node22&#45;&gt;Node30 -->
<g id="edge61" class="edge">
<title>Node22&#45;&gt;Node30</title>
<path fill="none" stroke="midnightblue" d="M843.01,-335.23C843.77,-324.5 844.82,-309.69 845.66,-297.96"/>
<polygon fill="midnightblue" stroke="midnightblue" points="849.15,-298.12 846.37,-287.89 842.17,-297.62 849.15,-298.12"/>
</g>
<!-- Node23&#45;&gt;Node3 -->
<g id="edge50" class="edge">
<title>Node23&#45;&gt;Node3</title>
<path fill="none" stroke="midnightblue" d="M1771.99,-135.76C1618.22,-130.2 1131.54,-111.74 729,-87 689.09,-84.55 644.49,-81.16 608.64,-78.27"/>
<polygon fill="midnightblue" stroke="midnightblue" points="608.54,-74.75 598.29,-77.43 607.98,-81.73 608.54,-74.75"/>
</g>
<!-- Node23&#45;&gt;Node4 -->
<g id="edge51" class="edge">
<title>Node23&#45;&gt;Node4</title>
<path fill="none" stroke="midnightblue" d="M1771.9,-125.81C1767.21,-124.81 1762.52,-123.86 1758,-123 1671.75,-106.64 1572.27,-92.28 1503.87,-83.1"/>
<polygon fill="midnightblue" stroke="midnightblue" points="1503.96,-79.58 1493.59,-81.72 1503.04,-86.52 1503.96,-79.58"/>
</g>
<!-- Node23&#45;&gt;Node5 -->
<g id="edge48" class="edge">
<title>Node23&#45;&gt;Node5</title>
<path fill="none" stroke="midnightblue" d="M1870.36,-128.31C1924.4,-116.2 1999.25,-92.11 1966,-56 1931.19,-18.19 1565.33,-12.15 1453.37,-11.18"/>
<polygon fill="midnightblue" stroke="midnightblue" points="1453.08,-7.68 1443.06,-11.1 1453.03,-14.68 1453.08,-7.68"/>
</g>
<!-- Node23&#45;&gt;Node6 -->
<g id="edge55" class="edge">
<title>Node23&#45;&gt;Node6</title>
<path fill="none" stroke="midnightblue" d="M1771.91,-124.42C1743.95,-115.89 1708.87,-103.3 1680,-87 1661.02,-76.28 1662.42,-63.62 1642,-56 1572.26,-29.97 424.15,-14.38 192.53,-11.49"/>
<polygon fill="midnightblue" stroke="midnightblue" points="192.25,-7.99 182.2,-11.36 192.16,-14.99 192.25,-7.99"/>
</g>
<!-- Node23&#45;&gt;Node24 -->
<g id="edge49" class="edge">
<title>Node23&#45;&gt;Node24</title>
<path fill="none" stroke="midnightblue" d="M1771.92,-124.41C1736.88,-114.79 1688.75,-101 1647,-87 1644.74,-86.24 1642.42,-85.43 1640.08,-84.6"/>
<polygon fill="midnightblue" stroke="midnightblue" points="1641.19,-81.27 1630.59,-81.09 1638.76,-87.84 1641.19,-81.27"/>
</g>
<!-- Node25 -->
<g id="node25" class="node">
<title>Node25</title>
<g id="a_node25"><a xlink:title=" ">
<polygon fill="none" stroke="#bfbfbf" points="1903.5,-62 1903.5,-81 1956.5,-81 1956.5,-62 1903.5,-62"/>
<text text-anchor="middle" x="1930" y="-69" font-family="Helvetica,sans-Serif" font-size="10.00">stdint.h</text>
</a>
</g>
</g>
<!-- Node23&#45;&gt;Node25 -->
<g id="edge52" class="edge">
<title>Node23&#45;&gt;Node25</title>
<path fill="none" stroke="midnightblue" d="M1844.65,-123.4C1863.18,-112.34 1888.81,-97.06 1907.14,-86.13"/>
<polygon fill="midnightblue" stroke="midnightblue" points="1908.94,-89.13 1915.73,-81.01 1905.35,-83.12 1908.94,-89.13"/>
</g>
<!-- Node26 -->
<g id="node26" class="node">
<title>Node26</title>
<g id="a_node26"><a xlink:title=" ">
<polygon fill="none" stroke="#bfbfbf" points="1689,-62 1689,-81 1739,-81 1739,-62 1689,-62"/>
<text text-anchor="middle" x="1714" y="-69" font-family="Helvetica,sans-Serif" font-size="10.00">stdio.h</text>
</a>
</g>
</g>
<!-- Node23&#45;&gt;Node26 -->
<g id="edge53" class="edge">
<title>Node23&#45;&gt;Node26</title>
<path fill="none" stroke="midnightblue" d="M1797.78,-123.4C1779.67,-112.39 1754.66,-97.2 1736.69,-86.28"/>
<polygon fill="midnightblue" stroke="midnightblue" points="1738.37,-83.21 1728,-81.01 1734.73,-89.19 1738.37,-83.21"/>
</g>
<!-- Node27 -->
<g id="node27" class="node">
<title>Node27</title>
<g id="a_node27"><a xlink:title=" ">
<polygon fill="none" stroke="#bfbfbf" points="1757.5,-62 1757.5,-81 1810.5,-81 1810.5,-62 1757.5,-62"/>
<text text-anchor="middle" x="1784" y="-69" font-family="Helvetica,sans-Serif" font-size="10.00">stdlib.h</text>
</a>
</g>
</g>
<!-- Node23&#45;&gt;Node27 -->
<g id="edge54" class="edge">
<title>Node23&#45;&gt;Node27</title>
<path fill="none" stroke="midnightblue" d="M1812.97,-123.4C1807.37,-113.56 1799.87,-100.38 1793.9,-89.89"/>
<polygon fill="midnightblue" stroke="midnightblue" points="1796.94,-88.15 1788.95,-81.19 1790.85,-91.62 1796.94,-88.15"/>
</g>
<!-- Node28 -->
<g id="node28" class="node">
<title>Node28</title>
<g id="a_node28"><a xlink:title=" ">
<polygon fill="none" stroke="#bfbfbf" points="1829,-62 1829,-81 1885,-81 1885,-62 1829,-62"/>
<text text-anchor="middle" x="1857" y="-69" font-family="Helvetica,sans-Serif" font-size="10.00">sstream</text>
</a>
</g>
</g>
<!-- Node23&#45;&gt;Node28 -->
<g id="edge56" class="edge">
<title>Node23&#45;&gt;Node28</title>
<path fill="none" stroke="midnightblue" d="M1828.81,-123.4C1834.2,-113.66 1841.41,-100.65 1847.19,-90.21"/>
<polygon fill="midnightblue" stroke="midnightblue" points="1850.4,-91.64 1852.18,-81.19 1844.28,-88.25 1850.4,-91.64"/>
</g>
<!-- Node29&#45;&gt;Node3 -->
<g id="edge58" class="edge">
<title>Node29&#45;&gt;Node3</title>
<path fill="none" stroke="midnightblue" d="M971.6,-262.97C860.31,-231.91 602.82,-159.69 595,-154 574.52,-139.11 559.31,-114.11 550.14,-95.72"/>
<polygon fill="midnightblue" stroke="midnightblue" points="553.23,-94.07 545.78,-86.54 546.9,-97.07 553.23,-94.07"/>
</g>
<!-- Node29&#45;&gt;Node4 -->
<g id="edge59" class="edge">
<title>Node29&#45;&gt;Node4</title>
<path fill="none" stroke="midnightblue" d="M1080.06,-277.66C1153.01,-276.34 1280.46,-266.83 1378,-221 1398.38,-211.42 1444.73,-174.52 1454,-154 1462.93,-134.21 1451.76,-111.26 1440.06,-94.76"/>
<polygon fill="midnightblue" stroke="midnightblue" points="1442.83,-92.63 1434,-86.78 1437.25,-96.86 1442.83,-92.63"/>
</g>
<!-- Node29&#45;&gt;Node11 -->
<g id="edge60" class="edge">
<title>Node29&#45;&gt;Node11</title>
<path fill="none" stroke="midnightblue" d="M1004.6,-262.73C992.04,-252.44 974.91,-238.4 960.91,-226.92"/>
<polygon fill="midnightblue" stroke="midnightblue" points="963.04,-224.14 953.08,-220.5 958.6,-229.55 963.04,-224.14"/>
</g>
<!-- Node31&#45;&gt;Node3 -->
<g id="edge69" class="edge">
<title>Node31&#45;&gt;Node3</title>
<path fill="none" stroke="midnightblue" d="M824.35,-480.47C812.01,-470.52 795.25,-456.73 781,-444 743.73,-410.71 733.43,-403.15 700,-366 633.68,-292.32 636.18,-256.87 563,-190 541.16,-170.04 521.18,-179.97 507,-154 496.54,-134.83 508.07,-111.64 520.29,-94.9"/>
<polygon fill="midnightblue" stroke="midnightblue" points="523.23,-96.83 526.63,-86.79 517.71,-92.51 523.23,-96.83"/>
</g>
<!-- Node31&#45;&gt;Node4 -->
<g id="edge70" class="edge">
<title>Node31&#45;&gt;Node4</title>
<path fill="none" stroke="midnightblue" d="M920.2,-491.64C1132.88,-481.76 1706,-440.17 1706,-279 1706,-279 1706,-279 1706,-204.5 1706,-114.64 1587.89,-85.77 1503.74,-76.61"/>
<polygon fill="midnightblue" stroke="midnightblue" points="1503.96,-73.11 1493.65,-75.58 1503.25,-80.08 1503.96,-73.11"/>
</g>
<!-- Node32 -->
<g id="node32" class="node">
<title>Node32</title>
<g id="a_node32"><a xlink:href="../../d8/da0/_a_d_c_base_8hpp.html" target="_top" xlink:title=" ">
<polygon fill="none" stroke="black" points="790,-408 790,-438 962,-438 962,-408 790,-408"/>
<text text-anchor="start" x="798" y="-426" font-family="Helvetica,sans-Serif" font-size="10.00">../../../Interfaces</text>
<text text-anchor="middle" x="876" y="-415" font-family="Helvetica,sans-Serif" font-size="10.00">/ADCBase/include/ADCBase.hpp</text>
</a>
</g>
</g>
<!-- Node31&#45;&gt;Node32 -->
<g id="edge71" class="edge">
<title>Node31&#45;&gt;Node32</title>
<path fill="none" stroke="midnightblue" d="M848.88,-480.23C853.4,-470.87 859.41,-458.4 864.63,-447.58"/>
<polygon fill="midnightblue" stroke="midnightblue" points="867.94,-448.77 869.13,-438.25 861.63,-445.73 867.94,-448.77"/>
</g>
<!-- Node32&#45;&gt;Node3 -->
<g id="edge72" class="edge">
<title>Node32&#45;&gt;Node3</title>
<path fill="none" stroke="midnightblue" d="M825.03,-407.94C797.8,-398.83 764.69,-385.06 739,-366 658.05,-305.95 675.89,-251.45 596,-190 565.1,-166.23 537.17,-186.74 516,-154 504.51,-136.23 513.43,-112.79 523.5,-95.61"/>
<polygon fill="midnightblue" stroke="midnightblue" points="526.69,-97.11 529.08,-86.78 520.78,-93.36 526.69,-97.11"/>
</g>
<!-- Node32&#45;&gt;Node4 -->
<g id="edge73" class="edge">
<title>Node32&#45;&gt;Node4</title>
<path fill="none" stroke="midnightblue" d="M962.06,-421.81C1145.75,-420.5 1563.03,-412.39 1606,-366 1679.39,-286.77 1671.55,-208.84 1606,-123 1593.07,-106.06 1546.8,-93.43 1503.77,-85.04"/>
<polygon fill="midnightblue" stroke="midnightblue" points="1504.27,-81.58 1493.8,-83.16 1502.97,-88.45 1504.27,-81.58"/>
</g>
<!-- Node33 -->
<g id="node33" class="node">
<title>Node33</title>
<g id="a_node33"><a xlink:href="../../da/d81/_fault___handler_8hpp.html" target="_top" xlink:title=" ">
<polygon fill="none" stroke="black" points="954.5,-335.5 954.5,-365.5 1099.5,-365.5 1099.5,-335.5 954.5,-335.5"/>
<text text-anchor="start" x="962.5" y="-353.5" font-family="Helvetica,sans-Serif" font-size="10.00">../../../Objects/FaultHandler</text>
<text text-anchor="middle" x="1027" y="-342.5" font-family="Helvetica,sans-Serif" font-size="10.00">/include/Fault_Handler.hpp</text>
</a>
</g>
</g>
<!-- Node32&#45;&gt;Node33 -->
<g id="edge74" class="edge">
<title>Node32&#45;&gt;Node33</title>
<path fill="none" stroke="midnightblue" d="M906.19,-407.9C929.55,-397 962.08,-381.81 987.5,-369.94"/>
<polygon fill="midnightblue" stroke="midnightblue" points="989.28,-372.97 996.86,-365.57 986.32,-366.63 989.28,-372.97"/>
</g>
<!-- Node33&#45;&gt;Node3 -->
<g id="edge75" class="edge">
<title>Node33&#45;&gt;Node3</title>
<path fill="none" stroke="midnightblue" d="M1006.54,-335.47C972.48,-312.33 905.33,-267.66 879,-257 808.22,-228.33 780.43,-252.78 711,-221 690.23,-211.49 690.2,-200.67 670,-190 625.63,-166.56 597.59,-190.35 563,-154 548.33,-138.58 542.89,-114.54 540.94,-96.55"/>
<polygon fill="midnightblue" stroke="midnightblue" points="544.43,-96.21 540.14,-86.53 537.45,-96.77 544.43,-96.21"/>
</g>
<!-- Node33&#45;&gt;Node4 -->
<g id="edge76" class="edge">
<title>Node33&#45;&gt;Node4</title>
<path fill="none" stroke="midnightblue" d="M1099.89,-346.57C1197.23,-341.56 1363.53,-328.82 1416,-299 1497.03,-252.95 1580.17,-201.54 1530,-123 1520.71,-108.45 1506.03,-98.04 1490.43,-90.6"/>
<polygon fill="midnightblue" stroke="midnightblue" points="1491.73,-87.35 1481.16,-86.55 1488.93,-93.76 1491.73,-87.35"/>
</g>
<!-- Node33&#45;&gt;Node29 -->
<g id="edge77" class="edge">
<title>Node33&#45;&gt;Node29</title>
<path fill="none" stroke="midnightblue" d="M1025.99,-335.23C1025.34,-326.06 1024.48,-313.91 1023.72,-303.24"/>
<polygon fill="midnightblue" stroke="midnightblue" points="1027.21,-302.97 1023.01,-293.25 1020.23,-303.47 1027.21,-302.97"/>
</g>
<!-- Node34&#45;&gt;Node3 -->
<g id="edge79" class="edge">
<title>Node34&#45;&gt;Node3</title>
<path fill="none" stroke="midnightblue" d="M1038.69,-193.28C1031.39,-192.1 1024.04,-190.98 1017,-190 866.93,-169.1 819.81,-207.34 678,-154 655.61,-145.58 654.35,-135.57 634,-123 615.91,-111.83 595.16,-100.52 577.75,-91.45"/>
<polygon fill="midnightblue" stroke="midnightblue" points="578.96,-88.14 568.47,-86.66 575.75,-94.36 578.96,-88.14"/>
</g>
<!-- Node34&#45;&gt;Node4 -->
<g id="edge80" class="edge">
<title>Node34&#45;&gt;Node4</title>
<path fill="none" stroke="midnightblue" d="M1163.1,-190.96C1218.98,-178.49 1294.24,-160.93 1307,-154 1324.69,-144.4 1324.05,-135.27 1340,-123 1354.68,-111.7 1371.99,-100.64 1386.83,-91.76"/>
<polygon fill="midnightblue" stroke="midnightblue" points="1388.86,-94.63 1395.7,-86.54 1385.31,-88.6 1388.86,-94.63"/>
</g>
<!-- Node35 -->
<g id="node35" class="node">
<title>Node35</title>
<g id="a_node35"><a xlink:href="../../de/da6/_gpio_2include_2_h_a_l_8hpp.html" target="_top" xlink:title=" ">
<polygon fill="none" stroke="black" points="1064.5,-129 1064.5,-148 1121.5,-148 1121.5,-129 1064.5,-129"/>
<text text-anchor="middle" x="1093" y="-136" font-family="Helvetica,sans-Serif" font-size="10.00">HAL.hpp</text>
</a>
</g>
</g>
<!-- Node34&#45;&gt;Node35 -->
<g id="edge81" class="edge">
<title>Node34&#45;&gt;Node35</title>
<path fill="none" stroke="midnightblue" d="M1099.26,-190.4C1098.1,-180.96 1096.56,-168.45 1095.3,-158.19"/>
<polygon fill="midnightblue" stroke="midnightblue" points="1098.77,-157.69 1094.07,-148.19 1091.82,-158.55 1098.77,-157.69"/>
</g>
<!-- Node35&#45;&gt;Node3 -->
<g id="edge82" class="edge">
<title>Node35&#45;&gt;Node3</title>
<path fill="none" stroke="midnightblue" d="M1073.59,-128.95C1067.72,-126.68 1061.19,-124.46 1055,-123 1012.59,-113.02 738.71,-89.16 608.53,-78.2"/>
<polygon fill="midnightblue" stroke="midnightblue" points="608.54,-74.68 598.28,-77.33 607.95,-81.66 608.54,-74.68"/>
</g>
<!-- Node35&#45;&gt;Node4 -->
<g id="edge83" class="edge">
<title>Node35&#45;&gt;Node4</title>
<path fill="none" stroke="midnightblue" d="M1116.47,-128.88C1122.75,-126.76 1129.59,-124.64 1136,-123 1203.28,-105.8 1280.98,-92.45 1338.24,-83.81"/>
<polygon fill="midnightblue" stroke="midnightblue" points="1338.95,-87.24 1348.32,-82.31 1337.92,-80.32 1338.95,-87.24"/>
</g>
</g>
</svg>
