<?xml version="1.0" encoding="UTF-8" standalone="no"?>
<!DOCTYPE svg PUBLIC "-//W3C//DTD SVG 1.1//EN"
 "http://www.w3.org/Graphics/SVG/1.1/DTD/svg11.dtd">
<!-- Generated by graphviz version 2.43.0 (0)
 -->
<!-- Title: Components/Objects/OTA/include/OTA.hpp Pages: 1 -->
<svg width="326pt" height="229pt"
 viewBox="0.00 0.00 326.00 229.00" xmlns="http://www.w3.org/2000/svg" xmlns:xlink="http://www.w3.org/1999/xlink">
<g id="graph0" class="graph" transform="scale(1 1) rotate(0) translate(4 225)">
<title>Components/Objects/OTA/include/OTA.hpp</title>
<!-- Node1 -->
<g id="node1" class="node">
<title>Node1</title>
<g id="a_node1"><a xlink:title=" ">
<polygon fill="#bfbfbf" stroke="black" points="85,-190.5 85,-220.5 207,-220.5 207,-190.5 85,-190.5"/>
<text text-anchor="start" x="93" y="-208.5" font-family="Helvetica,sans-Serif" font-size="10.00">Components/Objects</text>
<text text-anchor="middle" x="146" y="-197.5" font-family="Helvetica,sans-Serif" font-size="10.00">/OTA/include/OTA.hpp</text>
</a>
</g>
</g>
<!-- Node2 -->
<g id="node2" class="node">
<title>Node2</title>
<g id="a_node2"><a xlink:href="../../da/d5f/_b_a_s_i_c_8hpp.html" target="_top" xlink:title=" ">
<polygon fill="none" stroke="black" points="0,-56.5 0,-86.5 116,-86.5 116,-56.5 0,-56.5"/>
<text text-anchor="start" x="8" y="-74.5" font-family="Helvetica,sans-Serif" font-size="10.00">../../../Global_Include</text>
<text text-anchor="middle" x="58" y="-63.5" font-family="Helvetica,sans-Serif" font-size="10.00">/BASIC.hpp</text>
</a>
</g>
</g>
<!-- Node1&#45;&gt;Node2 -->
<g id="edge1" class="edge">
<title>Node1&#45;&gt;Node2</title>
<path fill="none" stroke="midnightblue" d="M117.98,-190.32C103.66,-181.68 87.15,-169.36 77,-154 65.76,-137 61.14,-114.16 59.25,-96.98"/>
<polygon fill="midnightblue" stroke="midnightblue" points="62.7,-96.3 58.36,-86.63 55.73,-96.9 62.7,-96.3"/>
</g>
<!-- Node3 -->
<g id="node3" class="node">
<title>Node3</title>
<g id="a_node3"><a xlink:href="../../d3/deb/_general___error_8hpp.html" target="_top" xlink:title=" ">
<polygon fill="none" stroke="black" points="172,-56.5 172,-86.5 318,-86.5 318,-56.5 172,-56.5"/>
<text text-anchor="start" x="180" y="-74.5" font-family="Helvetica,sans-Serif" font-size="10.00">../../../Objects/ErrorHandler</text>
<text text-anchor="middle" x="245" y="-63.5" font-family="Helvetica,sans-Serif" font-size="10.00">/include/General_Error.hpp</text>
</a>
</g>
</g>
<!-- Node1&#45;&gt;Node3 -->
<g id="edge2" class="edge">
<title>Node1&#45;&gt;Node3</title>
<path fill="none" stroke="midnightblue" d="M172.26,-190.42C186.58,-181.6 203.65,-169.06 215,-154 227.85,-136.95 235.66,-113.82 240.08,-96.56"/>
<polygon fill="midnightblue" stroke="midnightblue" points="243.52,-97.21 242.41,-86.68 236.71,-95.61 243.52,-97.21"/>
</g>
<!-- Node6 -->
<g id="node6" class="node">
<title>Node6</title>
<g id="a_node6"><a xlink:href="../../d5/dc5/_task_8h.html" target="_top" xlink:title=" ">
<polygon fill="none" stroke="black" points="86,-123.5 86,-153.5 206,-153.5 206,-123.5 86,-123.5"/>
<text text-anchor="start" x="94" y="-141.5" font-family="Helvetica,sans-Serif" font-size="10.00">../../../RTOS/FreeRTOS</text>
<text text-anchor="middle" x="146" y="-130.5" font-family="Helvetica,sans-Serif" font-size="10.00">/include/Task.h</text>
</a>
</g>
</g>
<!-- Node1&#45;&gt;Node6 -->
<g id="edge5" class="edge">
<title>Node1&#45;&gt;Node6</title>
<path fill="none" stroke="midnightblue" d="M146,-190.4C146,-182.64 146,-172.81 146,-163.86"/>
<polygon fill="midnightblue" stroke="midnightblue" points="149.5,-163.58 146,-153.58 142.5,-163.58 149.5,-163.58"/>
</g>
<!-- Node4 -->
<g id="node4" class="node">
<title>Node4</title>
<g id="a_node4"><a xlink:title=" ">
<polygon fill="none" stroke="#bfbfbf" points="138,-0.5 138,-19.5 182,-19.5 182,-0.5 138,-0.5"/>
<text text-anchor="middle" x="160" y="-7.5" font-family="Helvetica,sans-Serif" font-size="10.00">string</text>
</a>
</g>
</g>
<!-- Node3&#45;&gt;Node4 -->
<g id="edge3" class="edge">
<title>Node3&#45;&gt;Node4</title>
<path fill="none" stroke="midnightblue" d="M224.86,-56.4C211.61,-47.13 194.32,-35.03 180.92,-25.65"/>
<polygon fill="midnightblue" stroke="midnightblue" points="182.57,-22.53 172.37,-19.66 178.55,-28.26 182.57,-22.53"/>
</g>
<!-- Node5 -->
<g id="node5" class="node">
<title>Node5</title>
<g id="a_node5"><a xlink:title=" ">
<polygon fill="none" stroke="#bfbfbf" points="215,-0.5 215,-19.5 275,-19.5 275,-0.5 215,-0.5"/>
<text text-anchor="middle" x="245" y="-7.5" font-family="Helvetica,sans-Serif" font-size="10.00">iostream</text>
</a>
</g>
</g>
<!-- Node3&#45;&gt;Node5 -->
<g id="edge4" class="edge">
<title>Node3&#45;&gt;Node5</title>
<path fill="none" stroke="midnightblue" d="M245,-56.4C245,-48.47 245,-38.46 245,-29.86"/>
<polygon fill="midnightblue" stroke="midnightblue" points="248.5,-29.66 245,-19.66 241.5,-29.66 248.5,-29.66"/>
</g>
<!-- Node6&#45;&gt;Node2 -->
<g id="edge6" class="edge">
<title>Node6&#45;&gt;Node2</title>
<path fill="none" stroke="midnightblue" d="M126.91,-123.4C114.68,-114.37 98.63,-102.51 85.1,-92.52"/>
<polygon fill="midnightblue" stroke="midnightblue" points="87.18,-89.7 77.06,-86.58 83.02,-95.33 87.18,-89.7"/>
</g>
<!-- Node6&#45;&gt;Node3 -->
<g id="edge7" class="edge">
<title>Node6&#45;&gt;Node3</title>
<path fill="none" stroke="midnightblue" d="M167.48,-123.4C181.36,-114.28 199.63,-102.29 214.94,-92.24"/>
<polygon fill="midnightblue" stroke="midnightblue" points="217.12,-94.99 223.56,-86.58 213.28,-89.14 217.12,-94.99"/>
</g>
<!-- Node6&#45;&gt;Node4 -->
<g id="edge8" class="edge">
<title>Node6&#45;&gt;Node4</title>
<path fill="none" stroke="midnightblue" d="M147.55,-123.48C150.07,-100.72 155.05,-55.7 157.89,-30.06"/>
<polygon fill="midnightblue" stroke="midnightblue" points="161.41,-30.11 159.03,-19.79 154.45,-29.34 161.41,-30.11"/>
</g>
</g>
</svg>
