<?xml version="1.0" encoding="UTF-8" standalone="no"?>
<!DOCTYPE svg PUBLIC "-//W3C//DTD SVG 1.1//EN"
 "http://www.w3.org/Graphics/SVG/1.1/DTD/svg11.dtd">
<!-- Generated by graphviz version 2.43.0 (0)
 -->
<!-- Title: ServiceBase&lt; BUFFER_TYPE &gt; Pages: 1 -->
<!--zoomable 1121 -->
<svg id="main" version="1.1" xmlns="http://www.w3.org/2000/svg" xmlns:xlink="http://www.w3.org/1999/xlink" xml:space="preserve" onload="init(evt)">
<style type="text/css"><![CDATA[
.edge:hover path { stroke: red; }
.edge:hover polygon { stroke: red; fill: red; }
]]></style>
<script type="text/javascript"><![CDATA[
var edges = document.getElementsByTagName('g');
if (edges && edges.length) {
  for (var i=0;i<edges.length;i++) {
    if (edges[i].id.substr(0,4)=='edge') {
      edges[i].setAttribute('class','edge');
    }
  }
}
]]></script>
        <defs>
                <circle id="rim" cx="0" cy="0" r="7"/>
                <circle id="rim2" cx="0" cy="0" r="3.5"/>
                <g id="zoomPlus">
                        <use xlink:href="#rim" fill="#404040">
                                <set attributeName="fill" to="#808080" begin="zoomplus.mouseover" end="zoomplus.mouseout"/>
                        </use>
                        <path d="M-4,0h8M0,-4v8" fill="none" stroke="white" stroke-width="1.5" pointer-events="none"/>
                </g>
                <g id="zoomMin">
                        <use xlink:href="#rim" fill="#404040">
                                <set attributeName="fill" to="#808080" begin="zoomminus.mouseover" end="zoomminus.mouseout"/>
                        </use>
                        <path d="M-4,0h8" fill="none" stroke="white" stroke-width="1.5" pointer-events="none"/>
                </g>
                <g id="dirArrow">
                        <path fill="none" stroke="white" stroke-width="1.5" d="M0,-3.0v7 M-2.5,-0.5L0,-3.0L2.5,-0.5"/>
                </g>
               <g id="resetDef">
                       <use xlink:href="#rim2" fill="#404040">
                               <set attributeName="fill" to="#808080" begin="reset.mouseover" end="reset.mouseout"/>
                       </use>
               </g>
        </defs>

<script type="text/javascript">
var viewWidth = 731;
var viewHeight = 1121;
var sectionId = 'dynsection-0';
</script>
<script xlink:href="../../svgpan.js"/>
<svg id="graph" class="graph">
<g id="viewport">
<title>ServiceBase&lt; BUFFER_TYPE &gt;</title>
<!-- Node1 -->
<g id="node1" class="node">
<title>Node1</title>
<g id="a_node1"><a xlink:title=" ">
<polygon fill="#bfbfbf" stroke="black" points="227,-674.5 227,-852.5 354,-852.5 354,-674.5 227,-674.5"/>
<text text-anchor="start" x="235" y="-840.5" font-family="Helvetica,sans-Serif" font-size="10.00">ServiceBase&lt; BUFFER</text>
<text text-anchor="middle" x="290.5" y="-829.5" font-family="Helvetica,sans-Serif" font-size="10.00">_TYPE &gt;</text>
<polyline fill="none" stroke="black" points="227,-822.5 354,-822.5 "/>
<text text-anchor="start" x="235" y="-810.5" font-family="Helvetica,sans-Serif" font-size="10.00"># m_test_pin</text>
<text text-anchor="start" x="235" y="-799.5" font-family="Helvetica,sans-Serif" font-size="10.00"># m_buffer</text>
<text text-anchor="start" x="235" y="-788.5" font-family="Helvetica,sans-Serif" font-size="10.00"># m_error_id</text>
<text text-anchor="start" x="235" y="-777.5" font-family="Helvetica,sans-Serif" font-size="10.00">&#45; m_isActive</text>
<text text-anchor="start" x="235" y="-766.5" font-family="Helvetica,sans-Serif" font-size="10.00">&#45; m_mqtt</text>
<polyline fill="none" stroke="black" points="227,-759.5 354,-759.5 "/>
<text text-anchor="start" x="235" y="-747.5" font-family="Helvetica,sans-Serif" font-size="10.00">+ ServiceBase()</text>
<text text-anchor="start" x="235" y="-736.5" font-family="Helvetica,sans-Serif" font-size="10.00">+ ~ServiceBase()</text>
<text text-anchor="start" x="235" y="-725.5" font-family="Helvetica,sans-Serif" font-size="10.00">+ isActive()</text>
<text text-anchor="start" x="235" y="-714.5" font-family="Helvetica,sans-Serif" font-size="10.00"># mainFunction()</text>
<text text-anchor="start" x="235" y="-703.5" font-family="Helvetica,sans-Serif" font-size="10.00"># setIsActive()</text>
<text text-anchor="start" x="235" y="-692.5" font-family="Helvetica,sans-Serif" font-size="10.00"># postData()</text>
<text text-anchor="start" x="235" y="-681.5" font-family="Helvetica,sans-Serif" font-size="10.00"># postError()</text>
</a>
</g>
</g>
<!-- Node3 -->
<g id="node3" class="node">
<title>Node3</title>
<g id="a_node3"><a xlink:href="../../da/d3e/class_service_queue_base.html" target="_top" xlink:title=" ">
<polygon fill="none" stroke="black" points="211.5,-487 211.5,-599 369.5,-599 369.5,-487 211.5,-487"/>
<text text-anchor="start" x="219.5" y="-587" font-family="Helvetica,sans-Serif" font-size="10.00">ServiceQueueBase&lt; BUFFER</text>
<text text-anchor="middle" x="290.5" y="-576" font-family="Helvetica,sans-Serif" font-size="10.00">_TYPE &gt;</text>
<polyline fill="none" stroke="black" points="211.5,-569 369.5,-569 "/>
<text text-anchor="start" x="219.5" y="-557" font-family="Helvetica,sans-Serif" font-size="10.00"># m_queue</text>
<polyline fill="none" stroke="black" points="211.5,-550 369.5,-550 "/>
<text text-anchor="start" x="219.5" y="-538" font-family="Helvetica,sans-Serif" font-size="10.00">+ ServiceQueueBase()</text>
<text text-anchor="start" x="219.5" y="-527" font-family="Helvetica,sans-Serif" font-size="10.00">+ ~ServiceQueueBase()</text>
<text text-anchor="start" x="219.5" y="-516" font-family="Helvetica,sans-Serif" font-size="10.00">+ getQueue()</text>
<text text-anchor="start" x="219.5" y="-505" font-family="Helvetica,sans-Serif" font-size="10.00"># mainFunction()</text>
<text text-anchor="start" x="219.5" y="-494" font-family="Helvetica,sans-Serif" font-size="10.00"># run()</text>
</a>
</g>
</g>
<!-- Node1&#45;&gt;Node3 -->
<g id="edge2" class="edge">
<title>Node1&#45;&gt;Node3</title>
<path fill="none" stroke="midnightblue" d="M290.5,-664.09C290.5,-641.84 290.5,-618.98 290.5,-599.25"/>
<polygon fill="none" stroke="midnightblue" points="287,-664.26 290.5,-674.26 294,-664.26 287,-664.26"/>
</g>
<!-- Node4 -->
<g id="node4" class="node">
<title>Node4</title>
<g id="a_node4"><a xlink:href="../../da/d3e/class_service_queue_base.html" target="_top" xlink:title=" ">
<polygon fill="none" stroke="black" points="95.5,-288.5 95.5,-400.5 253.5,-400.5 253.5,-288.5 95.5,-288.5"/>
<text text-anchor="start" x="103.5" y="-388.5" font-family="Helvetica,sans-Serif" font-size="10.00">ServiceQueueBase&lt; BUFFER</text>
<text text-anchor="middle" x="174.5" y="-377.5" font-family="Helvetica,sans-Serif" font-size="10.00">_TYPE, FreeRTOS::Queue &gt;</text>
<polyline fill="none" stroke="black" points="95.5,-370.5 253.5,-370.5 "/>
<text text-anchor="start" x="103.5" y="-358.5" font-family="Helvetica,sans-Serif" font-size="10.00"># m_queue</text>
<polyline fill="none" stroke="black" points="95.5,-351.5 253.5,-351.5 "/>
<text text-anchor="start" x="103.5" y="-339.5" font-family="Helvetica,sans-Serif" font-size="10.00">+ ServiceQueueBase()</text>
<text text-anchor="start" x="103.5" y="-328.5" font-family="Helvetica,sans-Serif" font-size="10.00">+ ~ServiceQueueBase()</text>
<text text-anchor="start" x="103.5" y="-317.5" font-family="Helvetica,sans-Serif" font-size="10.00">+ getQueue()</text>
<text text-anchor="start" x="103.5" y="-306.5" font-family="Helvetica,sans-Serif" font-size="10.00"># mainFunction()</text>
<text text-anchor="start" x="103.5" y="-295.5" font-family="Helvetica,sans-Serif" font-size="10.00"># run()</text>
</a>
</g>
</g>
<!-- Node1&#45;&gt;Node4 -->
<g id="edge8" class="edge">
<title>Node1&#45;&gt;Node4</title>
<path fill="none" stroke="midnightblue" d="M221.85,-669.03C214.26,-655.44 207.49,-641.22 202.5,-627 176.07,-551.7 171.91,-458.57 172.4,-400.59"/>
<polygon fill="none" stroke="midnightblue" points="218.92,-670.95 226.94,-677.87 224.98,-667.46 218.92,-670.95"/>
</g>
<!-- Node9 -->
<g id="node9" class="node">
<title>Node9</title>
<g id="a_node9"><a xlink:href="../../d4/d82/class_service_base.html" target="_top" xlink:title=" ">
<polygon fill="none" stroke="black" points="408.5,-459.5 408.5,-626.5 584.5,-626.5 584.5,-459.5 408.5,-459.5"/>
<text text-anchor="middle" x="496.5" y="-614.5" font-family="Helvetica,sans-Serif" font-size="10.00">ServiceBase&lt; MQTT_Message &gt;</text>
<polyline fill="none" stroke="black" points="408.5,-607.5 584.5,-607.5 "/>
<text text-anchor="start" x="416.5" y="-595.5" font-family="Helvetica,sans-Serif" font-size="10.00"># m_test_pin</text>
<text text-anchor="start" x="416.5" y="-584.5" font-family="Helvetica,sans-Serif" font-size="10.00"># m_buffer</text>
<text text-anchor="start" x="416.5" y="-573.5" font-family="Helvetica,sans-Serif" font-size="10.00"># m_error_id</text>
<text text-anchor="start" x="416.5" y="-562.5" font-family="Helvetica,sans-Serif" font-size="10.00">&#45; m_isActive</text>
<text text-anchor="start" x="416.5" y="-551.5" font-family="Helvetica,sans-Serif" font-size="10.00">&#45; m_mqtt</text>
<polyline fill="none" stroke="black" points="408.5,-544.5 584.5,-544.5 "/>
<text text-anchor="start" x="416.5" y="-532.5" font-family="Helvetica,sans-Serif" font-size="10.00">+ ServiceBase()</text>
<text text-anchor="start" x="416.5" y="-521.5" font-family="Helvetica,sans-Serif" font-size="10.00">+ ~ServiceBase()</text>
<text text-anchor="start" x="416.5" y="-510.5" font-family="Helvetica,sans-Serif" font-size="10.00">+ isActive()</text>
<text text-anchor="start" x="416.5" y="-499.5" font-family="Helvetica,sans-Serif" font-size="10.00"># mainFunction()</text>
<text text-anchor="start" x="416.5" y="-488.5" font-family="Helvetica,sans-Serif" font-size="10.00"># setIsActive()</text>
<text text-anchor="start" x="416.5" y="-477.5" font-family="Helvetica,sans-Serif" font-size="10.00"># postData()</text>
<text text-anchor="start" x="416.5" y="-466.5" font-family="Helvetica,sans-Serif" font-size="10.00"># postError()</text>
</a>
</g>
</g>
<!-- Node1&#45;&gt;Node9 -->
<g id="edge9" class="edge">
<title>Node1&#45;&gt;Node9</title>
<path fill="none" stroke="orange" d="M361.26,-687.44C379.72,-667.86 399.72,-646.66 418.53,-626.71"/>
<polygon fill="orange" stroke="orange" points="358.58,-685.18 354.27,-694.86 363.68,-689.99 358.58,-685.18"/>
<text text-anchor="middle" x="451" y="-648" font-family="Helvetica,sans-Serif" font-size="10.00"> &lt; MQTT_Message &gt;</text>
</g>
<!-- Node2 -->
<g id="node2" class="node">
<title>Node2</title>
<g id="a_node2"><a xlink:href="../../d7/d6d/class_task.html" target="_top" xlink:title="Encapsulate a runnable task.">
<polygon fill="none" stroke="black" points="241.5,-890.5 241.5,-1112.5 339.5,-1112.5 339.5,-890.5 241.5,-890.5"/>
<text text-anchor="middle" x="290.5" y="-1100.5" font-family="Helvetica,sans-Serif" font-size="10.00">Task</text>
<polyline fill="none" stroke="black" points="241.5,-1093.5 339.5,-1093.5 "/>
<text text-anchor="start" x="249.5" y="-1081.5" font-family="Helvetica,sans-Serif" font-size="10.00">&#45; m_handle</text>
<text text-anchor="start" x="249.5" y="-1070.5" font-family="Helvetica,sans-Serif" font-size="10.00">&#45; m_taskName</text>
<text text-anchor="start" x="249.5" y="-1059.5" font-family="Helvetica,sans-Serif" font-size="10.00">&#45; m_stackSize</text>
<text text-anchor="start" x="249.5" y="-1048.5" font-family="Helvetica,sans-Serif" font-size="10.00">&#45; m_priority</text>
<text text-anchor="start" x="249.5" y="-1037.5" font-family="Helvetica,sans-Serif" font-size="10.00">&#45; m_taskData</text>
<text text-anchor="start" x="249.5" y="-1026.5" font-family="Helvetica,sans-Serif" font-size="10.00">&#45; m_coreId</text>
<polyline fill="none" stroke="black" points="241.5,-1019.5 339.5,-1019.5 "/>
<text text-anchor="start" x="249.5" y="-1007.5" font-family="Helvetica,sans-Serif" font-size="10.00">+ Task()</text>
<text text-anchor="start" x="249.5" y="-996.5" font-family="Helvetica,sans-Serif" font-size="10.00">+ ~Task()</text>
<text text-anchor="start" x="249.5" y="-985.5" font-family="Helvetica,sans-Serif" font-size="10.00">+ setStackSize()</text>
<text text-anchor="start" x="249.5" y="-974.5" font-family="Helvetica,sans-Serif" font-size="10.00">+ setPriority()</text>
<text text-anchor="start" x="249.5" y="-963.5" font-family="Helvetica,sans-Serif" font-size="10.00">+ setName()</text>
<text text-anchor="start" x="249.5" y="-952.5" font-family="Helvetica,sans-Serif" font-size="10.00">+ setCore()</text>
<text text-anchor="start" x="249.5" y="-941.5" font-family="Helvetica,sans-Serif" font-size="10.00">+ start()</text>
<text text-anchor="start" x="249.5" y="-930.5" font-family="Helvetica,sans-Serif" font-size="10.00">+ stop()</text>
<text text-anchor="start" x="249.5" y="-919.5" font-family="Helvetica,sans-Serif" font-size="10.00">+ run()</text>
<text text-anchor="start" x="249.5" y="-908.5" font-family="Helvetica,sans-Serif" font-size="10.00">+ delay()</text>
<text text-anchor="start" x="249.5" y="-897.5" font-family="Helvetica,sans-Serif" font-size="10.00">&#45; runTask()</text>
</a>
</g>
</g>
<!-- Node2&#45;&gt;Node1 -->
<g id="edge1" class="edge">
<title>Node2&#45;&gt;Node1</title>
<path fill="none" stroke="midnightblue" d="M290.5,-880.38C290.5,-871.09 290.5,-861.83 290.5,-852.81"/>
<polygon fill="none" stroke="midnightblue" points="287,-880.45 290.5,-890.45 294,-880.45 287,-880.45"/>
</g>
<!-- Node3&#45;&gt;Node4 -->
<g id="edge3" class="edge">
<title>Node3&#45;&gt;Node4</title>
<path fill="none" stroke="orange" d="M230.32,-479C220.79,-466.98 211.72,-454.06 204.5,-441 197.61,-428.53 192.05,-414.25 187.68,-400.6"/>
<polygon fill="orange" stroke="orange" points="227.61,-481.21 236.64,-486.76 233.04,-476.79 227.61,-481.21"/>
<text text-anchor="start" x="204.5" y="-433" font-family="Helvetica,sans-Serif" font-size="10.00"> &lt; BUFFER_TYPE, FreeRTOS</text>
<text text-anchor="middle" x="272.5" y="-422" font-family="Helvetica,sans-Serif" font-size="10.00">::Queue &gt;</text>
</g>
<!-- Node6 -->
<g id="node6" class="node">
<title>Node6</title>
<g id="a_node6"><a xlink:href="../../da/d3e/class_service_queue_base.html" target="_top" xlink:title=" ">
<polygon fill="none" stroke="black" points="312.5,-288.5 312.5,-400.5 460.5,-400.5 460.5,-288.5 312.5,-288.5"/>
<text text-anchor="start" x="320.5" y="-388.5" font-family="Helvetica,sans-Serif" font-size="10.00">ServiceQueueBase&lt; MQTT</text>
<text text-anchor="middle" x="386.5" y="-377.5" font-family="Helvetica,sans-Serif" font-size="10.00">_Message &gt;</text>
<polyline fill="none" stroke="black" points="312.5,-370.5 460.5,-370.5 "/>
<text text-anchor="start" x="320.5" y="-358.5" font-family="Helvetica,sans-Serif" font-size="10.00"># m_queue</text>
<polyline fill="none" stroke="black" points="312.5,-351.5 460.5,-351.5 "/>
<text text-anchor="start" x="320.5" y="-339.5" font-family="Helvetica,sans-Serif" font-size="10.00">+ ServiceQueueBase()</text>
<text text-anchor="start" x="320.5" y="-328.5" font-family="Helvetica,sans-Serif" font-size="10.00">+ ~ServiceQueueBase()</text>
<text text-anchor="start" x="320.5" y="-317.5" font-family="Helvetica,sans-Serif" font-size="10.00">+ getQueue()</text>
<text text-anchor="start" x="320.5" y="-306.5" font-family="Helvetica,sans-Serif" font-size="10.00"># mainFunction()</text>
<text text-anchor="start" x="320.5" y="-295.5" font-family="Helvetica,sans-Serif" font-size="10.00"># run()</text>
</a>
</g>
</g>
<!-- Node3&#45;&gt;Node6 -->
<g id="edge5" class="edge">
<title>Node3&#45;&gt;Node6</title>
<path fill="none" stroke="orange" d="M325.83,-477.69C332.21,-465.58 338.68,-452.97 344.5,-441 350.8,-428.05 357.23,-413.93 363.12,-400.62"/>
<polygon fill="orange" stroke="orange" points="322.58,-476.35 320.98,-486.83 328.76,-479.63 322.58,-476.35"/>
<text text-anchor="middle" x="405" y="-427.5" font-family="Helvetica,sans-Serif" font-size="10.00"> &lt; MQTT_Message &gt;</text>
</g>
<!-- Node5 -->
<g id="node5" class="node">
<title>Node5</title>
<g id="a_node5"><a xlink:href="../../dc/d61/class_service_base___h_w___t_e_s_t.html" target="_top" xlink:title=" ">
<polygon fill="none" stroke="black" points="0,-123 0,-224 155,-224 155,-123 0,-123"/>
<text text-anchor="start" x="8" y="-212" font-family="Helvetica,sans-Serif" font-size="10.00">ServiceBase_HW_TEST</text>
<text text-anchor="start" x="8" y="-201" font-family="Helvetica,sans-Serif" font-size="10.00">&lt; BUFFER_TYPE, QUEUE</text>
<text text-anchor="middle" x="77.5" y="-190" font-family="Helvetica,sans-Serif" font-size="10.00">_TYPE &gt;</text>
<polyline fill="none" stroke="black" points="0,-183 155,-183 "/>
<text text-anchor="start" x="8" y="-171" font-family="Helvetica,sans-Serif" font-size="10.00">&#45; m_test_pin</text>
<polyline fill="none" stroke="black" points="0,-164 155,-164 "/>
<text text-anchor="start" x="8" y="-152" font-family="Helvetica,sans-Serif" font-size="10.00">+ ServiceBase_HW_TEST()</text>
<text text-anchor="start" x="8" y="-141" font-family="Helvetica,sans-Serif" font-size="10.00">+ ~ServiceBase_HW_TEST()</text>
<text text-anchor="start" x="8" y="-130" font-family="Helvetica,sans-Serif" font-size="10.00">&#45; setIsActive()</text>
</a>
</g>
</g>
<!-- Node4&#45;&gt;Node5 -->
<g id="edge4" class="edge">
<title>Node4&#45;&gt;Node5</title>
<path fill="none" stroke="midnightblue" d="M137.67,-279.33C127.2,-261.09 115.96,-241.5 106.06,-224.26"/>
<polygon fill="none" stroke="midnightblue" points="134.73,-281.23 142.74,-288.16 140.8,-277.75 134.73,-281.23"/>
</g>
<!-- Node7 -->
<g id="node7" class="node">
<title>Node7</title>
<g id="a_node7"><a xlink:href="../../db/db4/class_online_detector__service.html" target="_top" xlink:title=" ">
<polygon fill="none" stroke="black" points="352.5,-128.5 352.5,-218.5 510.5,-218.5 510.5,-128.5 352.5,-128.5"/>
<text text-anchor="middle" x="431.5" y="-206.5" font-family="Helvetica,sans-Serif" font-size="10.00">OnlineDetector_service</text>
<polyline fill="none" stroke="black" points="352.5,-199.5 510.5,-199.5 "/>
<text text-anchor="start" x="360.5" y="-187.5" font-family="Helvetica,sans-Serif" font-size="10.00">&#45; msg_sucess</text>
<text text-anchor="start" x="360.5" y="-176.5" font-family="Helvetica,sans-Serif" font-size="10.00">&#45; msg_fail</text>
<polyline fill="none" stroke="black" points="352.5,-169.5 510.5,-169.5 "/>
<text text-anchor="start" x="360.5" y="-157.5" font-family="Helvetica,sans-Serif" font-size="10.00">+ OnlineDetector_service()</text>
<text text-anchor="start" x="360.5" y="-146.5" font-family="Helvetica,sans-Serif" font-size="10.00">+ ~OnlineDetector_service()</text>
<text text-anchor="start" x="360.5" y="-135.5" font-family="Helvetica,sans-Serif" font-size="10.00">&#45; mainFunction()</text>
</a>
</g>
</g>
<!-- Node6&#45;&gt;Node7 -->
<g id="edge6" class="edge">
<title>Node6&#45;&gt;Node7</title>
<path fill="none" stroke="midnightblue" d="M403.81,-278.49C409.13,-258.5 414.87,-236.97 419.73,-218.72"/>
<polygon fill="none" stroke="midnightblue" points="400.43,-277.6 401.23,-288.16 407.19,-279.4 400.43,-277.6"/>
</g>
<!-- Node8 -->
<g id="node8" class="node">
<title>Node8</title>
<g id="a_node8"><a xlink:href="../../d6/da4/class_water_estimator___service.html" target="_top" xlink:title=" ">
<polygon fill="none" stroke="black" points="173,-117.5 173,-229.5 334,-229.5 334,-117.5 173,-117.5"/>
<text text-anchor="middle" x="253.5" y="-217.5" font-family="Helvetica,sans-Serif" font-size="10.00">WaterEstimator_Service</text>
<polyline fill="none" stroke="black" points="173,-210.5 334,-210.5 "/>
<text text-anchor="start" x="181" y="-198.5" font-family="Helvetica,sans-Serif" font-size="10.00">&#45; msg_max</text>
<text text-anchor="start" x="181" y="-187.5" font-family="Helvetica,sans-Serif" font-size="10.00">&#45; msg_min</text>
<text text-anchor="start" x="181" y="-176.5" font-family="Helvetica,sans-Serif" font-size="10.00">&#45; msg_count</text>
<text text-anchor="start" x="181" y="-165.5" font-family="Helvetica,sans-Serif" font-size="10.00">&#45; m_estimator</text>
<polyline fill="none" stroke="black" points="173,-158.5 334,-158.5 "/>
<text text-anchor="start" x="181" y="-146.5" font-family="Helvetica,sans-Serif" font-size="10.00">+ WaterEstimator_Service()</text>
<text text-anchor="start" x="181" y="-135.5" font-family="Helvetica,sans-Serif" font-size="10.00">+ ~WaterEstimator_Service()</text>
<text text-anchor="start" x="181" y="-124.5" font-family="Helvetica,sans-Serif" font-size="10.00">&#45; mainFunction()</text>
</a>
</g>
</g>
<!-- Node6&#45;&gt;Node8 -->
<g id="edge7" class="edge">
<title>Node6&#45;&gt;Node8</title>
<path fill="none" stroke="midnightblue" d="M336.63,-280.13C323.57,-263.54 309.61,-245.79 296.92,-229.67"/>
<polygon fill="none" stroke="midnightblue" points="334.02,-282.47 342.95,-288.16 339.52,-278.14 334.02,-282.47"/>
</g>
<!-- Node9&#45;&gt;Node6 -->
<g id="edge10" class="edge">
<title>Node9&#45;&gt;Node6</title>
<path fill="none" stroke="midnightblue" d="M475.11,-449.74C471.01,-439.03 466.18,-428.54 460.5,-419 456.8,-412.78 452.44,-406.7 447.73,-400.88"/>
<polygon fill="none" stroke="midnightblue" points="471.83,-450.98 478.52,-459.19 478.41,-448.6 471.83,-450.98"/>
</g>
<!-- Node10 -->
<g id="node10" class="node">
<title>Node10</title>
<g id="a_node10"><a xlink:href="../../d9/d28/class_service_time_base.html" target="_top" xlink:title=" ">
<polygon fill="none" stroke="black" points="537,-294 537,-395 696,-395 696,-294 537,-294"/>
<text text-anchor="start" x="545" y="-383" font-family="Helvetica,sans-Serif" font-size="10.00">ServiceTimeBase&lt; DELAY</text>
<text text-anchor="middle" x="616.5" y="-372" font-family="Helvetica,sans-Serif" font-size="10.00">_FUNCTION, BUFFER_TYPE &gt;</text>
<polyline fill="none" stroke="black" points="537,-365 696,-365 "/>
<text text-anchor="start" x="545" y="-353" font-family="Helvetica,sans-Serif" font-size="10.00">&#45; m_delay</text>
<polyline fill="none" stroke="black" points="537,-346 696,-346 "/>
<text text-anchor="start" x="545" y="-334" font-family="Helvetica,sans-Serif" font-size="10.00">+ ServiceTimeBase()</text>
<text text-anchor="start" x="545" y="-323" font-family="Helvetica,sans-Serif" font-size="10.00">+ ~ServiceTimeBase()</text>
<text text-anchor="start" x="545" y="-312" font-family="Helvetica,sans-Serif" font-size="10.00"># mainFunction()</text>
<text text-anchor="start" x="545" y="-301" font-family="Helvetica,sans-Serif" font-size="10.00"># run()</text>
</a>
</g>
</g>
<!-- Node9&#45;&gt;Node10 -->
<g id="edge11" class="edge">
<title>Node9&#45;&gt;Node10</title>
<path fill="none" stroke="midnightblue" d="M552.38,-450.5C564.04,-431.41 575.91,-411.97 586.21,-395.1"/>
<polygon fill="none" stroke="midnightblue" points="549.27,-448.88 547.04,-459.24 555.24,-452.53 549.27,-448.88"/>
</g>
<!-- Node11 -->
<g id="node11" class="node">
<title>Node11</title>
<g id="a_node11"><a xlink:href="../../d9/d28/class_service_time_base.html" target="_top" xlink:title=" ">
<polygon fill="none" stroke="black" points="528,-123 528,-224 705,-224 705,-123 528,-123"/>
<text text-anchor="start" x="536" y="-212" font-family="Helvetica,sans-Serif" font-size="10.00">ServiceTimeBase&lt;&amp;Timeservice</text>
<text text-anchor="middle" x="616.5" y="-201" font-family="Helvetica,sans-Serif" font-size="10.00">::wait_sec &gt;</text>
<polyline fill="none" stroke="black" points="528,-194 705,-194 "/>
<text text-anchor="start" x="536" y="-182" font-family="Helvetica,sans-Serif" font-size="10.00">&#45; m_delay</text>
<polyline fill="none" stroke="black" points="528,-175 705,-175 "/>
<text text-anchor="start" x="536" y="-163" font-family="Helvetica,sans-Serif" font-size="10.00">+ ServiceTimeBase()</text>
<text text-anchor="start" x="536" y="-152" font-family="Helvetica,sans-Serif" font-size="10.00">+ ~ServiceTimeBase()</text>
<text text-anchor="start" x="536" y="-141" font-family="Helvetica,sans-Serif" font-size="10.00"># mainFunction()</text>
<text text-anchor="start" x="536" y="-130" font-family="Helvetica,sans-Serif" font-size="10.00"># run()</text>
</a>
</g>
</g>
<!-- Node9&#45;&gt;Node11 -->
<g id="edge14" class="edge">
<title>Node9&#45;&gt;Node11</title>
<path fill="none" stroke="midnightblue" d="M496.46,-449.34C499.29,-399.84 507.47,-338.81 528.5,-288 537.99,-265.08 553.39,-242.83 568.68,-224.19"/>
<polygon fill="none" stroke="midnightblue" points="492.96,-449.23 495.95,-459.4 499.95,-449.59 492.96,-449.23"/>
</g>
<!-- Node10&#45;&gt;Node11 -->
<g id="edge12" class="edge">
<title>Node10&#45;&gt;Node11</title>
<path fill="none" stroke="orange" d="M616.5,-283.46C616.5,-264.07 616.5,-242.79 616.5,-224.23"/>
<polygon fill="orange" stroke="orange" points="613,-283.71 616.5,-293.71 620,-283.71 613,-283.71"/>
<text text-anchor="start" x="616.5" y="-262" font-family="Helvetica,sans-Serif" font-size="10.00"> &lt;&amp;Timeservice::wait</text>
<text text-anchor="middle" x="669.5" y="-251" font-family="Helvetica,sans-Serif" font-size="10.00">_sec &gt;</text>
</g>
<!-- Node12 -->
<g id="node12" class="node">
<title>Node12</title>
<g id="a_node12"><a xlink:href="../../d3/d22/classis_alive__service.html" target="_top" xlink:title=" ">
<polygon fill="none" stroke="black" points="558,-0.5 558,-79.5 675,-79.5 675,-0.5 558,-0.5"/>
<text text-anchor="middle" x="616.5" y="-67.5" font-family="Helvetica,sans-Serif" font-size="10.00">isAlive_service</text>
<polyline fill="none" stroke="black" points="558,-60.5 675,-60.5 "/>
<text text-anchor="start" x="566" y="-48.5" font-family="Helvetica,sans-Serif" font-size="10.00">&#45; msg_alive</text>
<polyline fill="none" stroke="black" points="558,-41.5 675,-41.5 "/>
<text text-anchor="start" x="566" y="-29.5" font-family="Helvetica,sans-Serif" font-size="10.00">+ isAlive_service()</text>
<text text-anchor="start" x="566" y="-18.5" font-family="Helvetica,sans-Serif" font-size="10.00">+ ~isAlive_service()</text>
<text text-anchor="start" x="566" y="-7.5" font-family="Helvetica,sans-Serif" font-size="10.00">&#45; mainFunction()</text>
</a>
</g>
</g>
<!-- Node11&#45;&gt;Node12 -->
<g id="edge13" class="edge">
<title>Node11&#45;&gt;Node12</title>
<path fill="none" stroke="midnightblue" d="M616.5,-112.62C616.5,-101.45 616.5,-90.04 616.5,-79.72"/>
<polygon fill="none" stroke="midnightblue" points="613,-112.79 616.5,-122.79 620,-112.79 613,-112.79"/>
</g>
</g>
</svg>
        <g id="navigator" transform="translate(0 0)" fill="#404254">
                <rect fill="#f2f5e9" fill-opacity="0.5" stroke="#606060" stroke-width=".5" x="0" y="0" width="60" height="60"/>
                <use id="zoomplus" xlink:href="#zoomPlus" x="17" y="9" onmousedown="handleZoom(evt,'in')"/>
                <use id="zoomminus" xlink:href="#zoomMin" x="42" y="9" onmousedown="handleZoom(evt,'out')"/>
                <use id="reset" xlink:href="#resetDef" x="30" y="36" onmousedown="handleReset()"/>
                <g id="arrowUp" xlink:href="#dirArrow" transform="translate(30 24)" onmousedown="handlePan(0,-1)">
                  <use xlink:href="#rim" fill="#404040">
                        <set attributeName="fill" to="#808080" begin="arrowUp.mouseover" end="arrowUp.mouseout"/>
                  </use>
                  <path fill="none" stroke="white" stroke-width="1.5" d="M0,-3.0v7 M-2.5,-0.5L0,-3.0L2.5,-0.5"/>
                </g>
                <g id="arrowRight" xlink:href="#dirArrow" transform="rotate(90) translate(36 -43)" onmousedown="handlePan(1,0)">
                  <use xlink:href="#rim" fill="#404040">
                        <set attributeName="fill" to="#808080" begin="arrowRight.mouseover" end="arrowRight.mouseout"/>
                  </use>
                  <path fill="none" stroke="white" stroke-width="1.5" d="M0,-3.0v7 M-2.5,-0.5L0,-3.0L2.5,-0.5"/>
                </g>
                <g id="arrowDown" xlink:href="#dirArrow" transform="rotate(180) translate(-30 -48)" onmousedown="handlePan(0,1)">
                  <use xlink:href="#rim" fill="#404040">
                        <set attributeName="fill" to="#808080" begin="arrowDown.mouseover" end="arrowDown.mouseout"/>
                  </use>
                  <path fill="none" stroke="white" stroke-width="1.5" d="M0,-3.0v7 M-2.5,-0.5L0,-3.0L2.5,-0.5"/>
                </g>
                <g id="arrowLeft" xlink:href="#dirArrow" transform="rotate(270) translate(-36 17)" onmousedown="handlePan(-1,0)">
                  <use xlink:href="#rim" fill="#404040">
                        <set attributeName="fill" to="#808080" begin="arrowLeft.mouseover" end="arrowLeft.mouseout"/>
                  </use>
                  <path fill="none" stroke="white" stroke-width="1.5" d="M0,-3.0v7 M-2.5,-0.5L0,-3.0L2.5,-0.5"/>
                </g>
        </g>
        <svg viewBox="0 0 15 15" width="100%" height="30px" preserveAspectRatio="xMaxYMin meet">
         <g id="arrow_out" transform="scale(0.3 0.3)">
          <a xlink:href="class_service_base__inherit__graph_org.svg" target="_base">
           <rect id="button" ry="5" rx="5" y="6" x="6" height="38" width="38"
                fill="#f2f5e9" fill-opacity="0.5" stroke="#606060" stroke-width="1.0"/>
           <path id="arrow"
             d="M 11.500037,31.436501 C 11.940474,20.09759 22.043105,11.32322 32.158766,21.979434 L 37.068811,17.246167 C 37.068811,17.246167 37.088388,32 37.088388,32 L 22.160133,31.978069 C 22.160133,31.978069 26.997745,27.140456 26.997745,27.140456 C 18.528582,18.264221 13.291696,25.230495 11.500037,31.436501 z"
             style="fill:#404040;"/>
          </a>
         </g>
        </svg>
</svg>
