<?xml version="1.0" encoding="UTF-8" standalone="no"?>
<!DOCTYPE svg PUBLIC "-//W3C//DTD SVG 1.1//EN"
 "http://www.w3.org/Graphics/SVG/1.1/DTD/svg11.dtd">
<!-- Generated by graphviz version 2.43.0 (0)
 -->
<!-- Title: ServiceBase&lt; BUFFER_TYPE &gt; Pages: 1 -->
<svg width="830pt" height="1154pt"
 viewBox="0.00 0.00 830.00 1154.00" xmlns="http://www.w3.org/2000/svg" xmlns:xlink="http://www.w3.org/1999/xlink">
<g id="graph0" class="graph" transform="scale(1 1) rotate(0) translate(4 1150)">
<title>ServiceBase&lt; BUFFER_TYPE &gt;</title>
<!-- Node1 -->
<g id="node1" class="node">
<title>Node1</title>
<g id="a_node1"><a xlink:title=" ">
<polygon fill="#bfbfbf" stroke="black" points="227,-707.5 227,-885.5 354,-885.5 354,-707.5 227,-707.5"/>
<text text-anchor="start" x="235" y="-873.5" font-family="Helvetica,sans-Serif" font-size="10.00">ServiceBase&lt; BUFFER</text>
<text text-anchor="middle" x="290.5" y="-862.5" font-family="Helvetica,sans-Serif" font-size="10.00">_TYPE &gt;</text>
<polyline fill="none" stroke="black" points="227,-855.5 354,-855.5 "/>
<text text-anchor="start" x="235" y="-843.5" font-family="Helvetica,sans-Serif" font-size="10.00"># m_test_pin</text>
<text text-anchor="start" x="235" y="-832.5" font-family="Helvetica,sans-Serif" font-size="10.00"># m_buffer</text>
<text text-anchor="start" x="235" y="-821.5" font-family="Helvetica,sans-Serif" font-size="10.00"># m_error_id</text>
<text text-anchor="start" x="235" y="-810.5" font-family="Helvetica,sans-Serif" font-size="10.00">&#45; m_isActive</text>
<text text-anchor="start" x="235" y="-799.5" font-family="Helvetica,sans-Serif" font-size="10.00">&#45; m_mqtt</text>
<polyline fill="none" stroke="black" points="227,-792.5 354,-792.5 "/>
<text text-anchor="start" x="235" y="-780.5" font-family="Helvetica,sans-Serif" font-size="10.00">+ ServiceBase()</text>
<text text-anchor="start" x="235" y="-769.5" font-family="Helvetica,sans-Serif" font-size="10.00">+ ~ServiceBase()</text>
<text text-anchor="start" x="235" y="-758.5" font-family="Helvetica,sans-Serif" font-size="10.00">+ isActive()</text>
<text text-anchor="start" x="235" y="-747.5" font-family="Helvetica,sans-Serif" font-size="10.00"># mainFunction()</text>
<text text-anchor="start" x="235" y="-736.5" font-family="Helvetica,sans-Serif" font-size="10.00"># setIsActive()</text>
<text text-anchor="start" x="235" y="-725.5" font-family="Helvetica,sans-Serif" font-size="10.00"># postData()</text>
<text text-anchor="start" x="235" y="-714.5" font-family="Helvetica,sans-Serif" font-size="10.00"># postError()</text>
</a>
</g>
</g>
<!-- Node3 -->
<g id="node3" class="node">
<title>Node3</title>
<g id="a_node3"><a xlink:href="../../da/d3e/class_service_queue_base.html" target="_top" xlink:title=" ">
<polygon fill="none" stroke="black" points="211.5,-520 211.5,-632 369.5,-632 369.5,-520 211.5,-520"/>
<text text-anchor="start" x="219.5" y="-620" font-family="Helvetica,sans-Serif" font-size="10.00">ServiceQueueBase&lt; BUFFER</text>
<text text-anchor="middle" x="290.5" y="-609" font-family="Helvetica,sans-Serif" font-size="10.00">_TYPE &gt;</text>
<polyline fill="none" stroke="black" points="211.5,-602 369.5,-602 "/>
<text text-anchor="start" x="219.5" y="-590" font-family="Helvetica,sans-Serif" font-size="10.00"># m_queue</text>
<polyline fill="none" stroke="black" points="211.5,-583 369.5,-583 "/>
<text text-anchor="start" x="219.5" y="-571" font-family="Helvetica,sans-Serif" font-size="10.00">+ ServiceQueueBase()</text>
<text text-anchor="start" x="219.5" y="-560" font-family="Helvetica,sans-Serif" font-size="10.00">+ ~ServiceQueueBase()</text>
<text text-anchor="start" x="219.5" y="-549" font-family="Helvetica,sans-Serif" font-size="10.00">+ getQueue()</text>
<text text-anchor="start" x="219.5" y="-538" font-family="Helvetica,sans-Serif" font-size="10.00"># mainFunction()</text>
<text text-anchor="start" x="219.5" y="-527" font-family="Helvetica,sans-Serif" font-size="10.00"># run()</text>
</a>
</g>
</g>
<!-- Node1&#45;&gt;Node3 -->
<g id="edge2" class="edge">
<title>Node1&#45;&gt;Node3</title>
<path fill="none" stroke="midnightblue" d="M290.5,-697.09C290.5,-674.84 290.5,-651.98 290.5,-632.25"/>
<polygon fill="none" stroke="midnightblue" points="287,-697.26 290.5,-707.26 294,-697.26 287,-697.26"/>
</g>
<!-- Node4 -->
<g id="node4" class="node">
<title>Node4</title>
<g id="a_node4"><a xlink:href="../../da/d3e/class_service_queue_base.html" target="_top" xlink:title=" ">
<polygon fill="none" stroke="black" points="95.5,-321.5 95.5,-433.5 253.5,-433.5 253.5,-321.5 95.5,-321.5"/>
<text text-anchor="start" x="103.5" y="-421.5" font-family="Helvetica,sans-Serif" font-size="10.00">ServiceQueueBase&lt; BUFFER</text>
<text text-anchor="middle" x="174.5" y="-410.5" font-family="Helvetica,sans-Serif" font-size="10.00">_TYPE, FreeRTOS::Queue &gt;</text>
<polyline fill="none" stroke="black" points="95.5,-403.5 253.5,-403.5 "/>
<text text-anchor="start" x="103.5" y="-391.5" font-family="Helvetica,sans-Serif" font-size="10.00"># m_queue</text>
<polyline fill="none" stroke="black" points="95.5,-384.5 253.5,-384.5 "/>
<text text-anchor="start" x="103.5" y="-372.5" font-family="Helvetica,sans-Serif" font-size="10.00">+ ServiceQueueBase()</text>
<text text-anchor="start" x="103.5" y="-361.5" font-family="Helvetica,sans-Serif" font-size="10.00">+ ~ServiceQueueBase()</text>
<text text-anchor="start" x="103.5" y="-350.5" font-family="Helvetica,sans-Serif" font-size="10.00">+ getQueue()</text>
<text text-anchor="start" x="103.5" y="-339.5" font-family="Helvetica,sans-Serif" font-size="10.00"># mainFunction()</text>
<text text-anchor="start" x="103.5" y="-328.5" font-family="Helvetica,sans-Serif" font-size="10.00"># run()</text>
</a>
</g>
</g>
<!-- Node1&#45;&gt;Node4 -->
<g id="edge8" class="edge">
<title>Node1&#45;&gt;Node4</title>
<path fill="none" stroke="midnightblue" d="M221.85,-702.03C214.26,-688.44 207.49,-674.22 202.5,-660 176.07,-584.7 171.91,-491.57 172.4,-433.59"/>
<polygon fill="none" stroke="midnightblue" points="218.92,-703.95 226.94,-710.87 224.98,-700.46 218.92,-703.95"/>
</g>
<!-- Node9 -->
<g id="node9" class="node">
<title>Node9</title>
<g id="a_node9"><a xlink:href="../../d4/d82/class_service_base.html" target="_top" xlink:title=" ">
<polygon fill="none" stroke="black" points="408.5,-492.5 408.5,-659.5 584.5,-659.5 584.5,-492.5 408.5,-492.5"/>
<text text-anchor="middle" x="496.5" y="-647.5" font-family="Helvetica,sans-Serif" font-size="10.00">ServiceBase&lt; MQTT_Message &gt;</text>
<polyline fill="none" stroke="black" points="408.5,-640.5 584.5,-640.5 "/>
<text text-anchor="start" x="416.5" y="-628.5" font-family="Helvetica,sans-Serif" font-size="10.00"># m_test_pin</text>
<text text-anchor="start" x="416.5" y="-617.5" font-family="Helvetica,sans-Serif" font-size="10.00"># m_buffer</text>
<text text-anchor="start" x="416.5" y="-606.5" font-family="Helvetica,sans-Serif" font-size="10.00"># m_error_id</text>
<text text-anchor="start" x="416.5" y="-595.5" font-family="Helvetica,sans-Serif" font-size="10.00">&#45; m_isActive</text>
<text text-anchor="start" x="416.5" y="-584.5" font-family="Helvetica,sans-Serif" font-size="10.00">&#45; m_mqtt</text>
<polyline fill="none" stroke="black" points="408.5,-577.5 584.5,-577.5 "/>
<text text-anchor="start" x="416.5" y="-565.5" font-family="Helvetica,sans-Serif" font-size="10.00">+ ServiceBase()</text>
<text text-anchor="start" x="416.5" y="-554.5" font-family="Helvetica,sans-Serif" font-size="10.00">+ ~ServiceBase()</text>
<text text-anchor="start" x="416.5" y="-543.5" font-family="Helvetica,sans-Serif" font-size="10.00">+ isActive()</text>
<text text-anchor="start" x="416.5" y="-532.5" font-family="Helvetica,sans-Serif" font-size="10.00"># mainFunction()</text>
<text text-anchor="start" x="416.5" y="-521.5" font-family="Helvetica,sans-Serif" font-size="10.00"># setIsActive()</text>
<text text-anchor="start" x="416.5" y="-510.5" font-family="Helvetica,sans-Serif" font-size="10.00"># postData()</text>
<text text-anchor="start" x="416.5" y="-499.5" font-family="Helvetica,sans-Serif" font-size="10.00"># postError()</text>
</a>
</g>
</g>
<!-- Node1&#45;&gt;Node9 -->
<g id="edge9" class="edge">
<title>Node1&#45;&gt;Node9</title>
<path fill="none" stroke="orange" d="M361.26,-720.44C379.72,-700.86 399.72,-679.66 418.53,-659.71"/>
<polygon fill="orange" stroke="orange" points="358.58,-718.18 354.27,-727.86 363.68,-722.99 358.58,-718.18"/>
<text text-anchor="middle" x="451" y="-681" font-family="Helvetica,sans-Serif" font-size="10.00"> &lt; MQTT_Message &gt;</text>
</g>
<!-- Node2 -->
<g id="node2" class="node">
<title>Node2</title>
<g id="a_node2"><a xlink:href="../../d7/d6d/class_task.html" target="_top" xlink:title="Encapsulate a runnable task.">
<polygon fill="none" stroke="black" points="241.5,-923.5 241.5,-1145.5 339.5,-1145.5 339.5,-923.5 241.5,-923.5"/>
<text text-anchor="middle" x="290.5" y="-1133.5" font-family="Helvetica,sans-Serif" font-size="10.00">Task</text>
<polyline fill="none" stroke="black" points="241.5,-1126.5 339.5,-1126.5 "/>
<text text-anchor="start" x="249.5" y="-1114.5" font-family="Helvetica,sans-Serif" font-size="10.00">&#45; m_handle</text>
<text text-anchor="start" x="249.5" y="-1103.5" font-family="Helvetica,sans-Serif" font-size="10.00">&#45; m_taskName</text>
<text text-anchor="start" x="249.5" y="-1092.5" font-family="Helvetica,sans-Serif" font-size="10.00">&#45; m_stackSize</text>
<text text-anchor="start" x="249.5" y="-1081.5" font-family="Helvetica,sans-Serif" font-size="10.00">&#45; m_priority</text>
<text text-anchor="start" x="249.5" y="-1070.5" font-family="Helvetica,sans-Serif" font-size="10.00">&#45; m_taskData</text>
<text text-anchor="start" x="249.5" y="-1059.5" font-family="Helvetica,sans-Serif" font-size="10.00">&#45; m_coreId</text>
<polyline fill="none" stroke="black" points="241.5,-1052.5 339.5,-1052.5 "/>
<text text-anchor="start" x="249.5" y="-1040.5" font-family="Helvetica,sans-Serif" font-size="10.00">+ Task()</text>
<text text-anchor="start" x="249.5" y="-1029.5" font-family="Helvetica,sans-Serif" font-size="10.00">+ ~Task()</text>
<text text-anchor="start" x="249.5" y="-1018.5" font-family="Helvetica,sans-Serif" font-size="10.00">+ setStackSize()</text>
<text text-anchor="start" x="249.5" y="-1007.5" font-family="Helvetica,sans-Serif" font-size="10.00">+ setPriority()</text>
<text text-anchor="start" x="249.5" y="-996.5" font-family="Helvetica,sans-Serif" font-size="10.00">+ setName()</text>
<text text-anchor="start" x="249.5" y="-985.5" font-family="Helvetica,sans-Serif" font-size="10.00">+ setCore()</text>
<text text-anchor="start" x="249.5" y="-974.5" font-family="Helvetica,sans-Serif" font-size="10.00">+ start()</text>
<text text-anchor="start" x="249.5" y="-963.5" font-family="Helvetica,sans-Serif" font-size="10.00">+ stop()</text>
<text text-anchor="start" x="249.5" y="-952.5" font-family="Helvetica,sans-Serif" font-size="10.00">+ run()</text>
<text text-anchor="start" x="249.5" y="-941.5" font-family="Helvetica,sans-Serif" font-size="10.00">+ delay()</text>
<text text-anchor="start" x="249.5" y="-930.5" font-family="Helvetica,sans-Serif" font-size="10.00">&#45; runTask()</text>
</a>
</g>
</g>
<!-- Node2&#45;&gt;Node1 -->
<g id="edge1" class="edge">
<title>Node2&#45;&gt;Node1</title>
<path fill="none" stroke="midnightblue" d="M290.5,-913.38C290.5,-904.09 290.5,-894.83 290.5,-885.81"/>
<polygon fill="none" stroke="midnightblue" points="287,-913.45 290.5,-923.45 294,-913.45 287,-913.45"/>
</g>
<!-- Node3&#45;&gt;Node4 -->
<g id="edge3" class="edge">
<title>Node3&#45;&gt;Node4</title>
<path fill="none" stroke="orange" d="M230.32,-512C220.79,-499.98 211.72,-487.06 204.5,-474 197.61,-461.53 192.05,-447.25 187.68,-433.6"/>
<polygon fill="orange" stroke="orange" points="227.61,-514.21 236.64,-519.76 233.04,-509.79 227.61,-514.21"/>
<text text-anchor="start" x="204.5" y="-466" font-family="Helvetica,sans-Serif" font-size="10.00"> &lt; BUFFER_TYPE, FreeRTOS</text>
<text text-anchor="middle" x="272.5" y="-455" font-family="Helvetica,sans-Serif" font-size="10.00">::Queue &gt;</text>
</g>
<!-- Node6 -->
<g id="node6" class="node">
<title>Node6</title>
<g id="a_node6"><a xlink:href="../../da/d3e/class_service_queue_base.html" target="_top" xlink:title=" ">
<polygon fill="none" stroke="black" points="312.5,-321.5 312.5,-433.5 460.5,-433.5 460.5,-321.5 312.5,-321.5"/>
<text text-anchor="start" x="320.5" y="-421.5" font-family="Helvetica,sans-Serif" font-size="10.00">ServiceQueueBase&lt; MQTT</text>
<text text-anchor="middle" x="386.5" y="-410.5" font-family="Helvetica,sans-Serif" font-size="10.00">_Message &gt;</text>
<polyline fill="none" stroke="black" points="312.5,-403.5 460.5,-403.5 "/>
<text text-anchor="start" x="320.5" y="-391.5" font-family="Helvetica,sans-Serif" font-size="10.00"># m_queue</text>
<polyline fill="none" stroke="black" points="312.5,-384.5 460.5,-384.5 "/>
<text text-anchor="start" x="320.5" y="-372.5" font-family="Helvetica,sans-Serif" font-size="10.00">+ ServiceQueueBase()</text>
<text text-anchor="start" x="320.5" y="-361.5" font-family="Helvetica,sans-Serif" font-size="10.00">+ ~ServiceQueueBase()</text>
<text text-anchor="start" x="320.5" y="-350.5" font-family="Helvetica,sans-Serif" font-size="10.00">+ getQueue()</text>
<text text-anchor="start" x="320.5" y="-339.5" font-family="Helvetica,sans-Serif" font-size="10.00"># mainFunction()</text>
<text text-anchor="start" x="320.5" y="-328.5" font-family="Helvetica,sans-Serif" font-size="10.00"># run()</text>
</a>
</g>
</g>
<!-- Node3&#45;&gt;Node6 -->
<g id="edge5" class="edge">
<title>Node3&#45;&gt;Node6</title>
<path fill="none" stroke="orange" d="M325.83,-510.69C332.21,-498.58 338.68,-485.97 344.5,-474 350.8,-461.05 357.23,-446.93 363.12,-433.62"/>
<polygon fill="orange" stroke="orange" points="322.58,-509.35 320.98,-519.83 328.76,-512.63 322.58,-509.35"/>
<text text-anchor="middle" x="405" y="-460.5" font-family="Helvetica,sans-Serif" font-size="10.00"> &lt; MQTT_Message &gt;</text>
</g>
<!-- Node5 -->
<g id="node5" class="node">
<title>Node5</title>
<g id="a_node5"><a xlink:href="../../dc/d61/class_service_base___h_w___t_e_s_t.html" target="_top" xlink:title=" ">
<polygon fill="none" stroke="black" points="0,-156 0,-257 155,-257 155,-156 0,-156"/>
<text text-anchor="start" x="8" y="-245" font-family="Helvetica,sans-Serif" font-size="10.00">ServiceBase_HW_TEST</text>
<text text-anchor="start" x="8" y="-234" font-family="Helvetica,sans-Serif" font-size="10.00">&lt; BUFFER_TYPE, QUEUE</text>
<text text-anchor="middle" x="77.5" y="-223" font-family="Helvetica,sans-Serif" font-size="10.00">_TYPE &gt;</text>
<polyline fill="none" stroke="black" points="0,-216 155,-216 "/>
<text text-anchor="start" x="8" y="-204" font-family="Helvetica,sans-Serif" font-size="10.00">&#45; m_test_pin</text>
<polyline fill="none" stroke="black" points="0,-197 155,-197 "/>
<text text-anchor="start" x="8" y="-185" font-family="Helvetica,sans-Serif" font-size="10.00">+ ServiceBase_HW_TEST()</text>
<text text-anchor="start" x="8" y="-174" font-family="Helvetica,sans-Serif" font-size="10.00">+ ~ServiceBase_HW_TEST()</text>
<text text-anchor="start" x="8" y="-163" font-family="Helvetica,sans-Serif" font-size="10.00">&#45; setIsActive()</text>
</a>
</g>
</g>
<!-- Node4&#45;&gt;Node5 -->
<g id="edge4" class="edge">
<title>Node4&#45;&gt;Node5</title>
<path fill="none" stroke="midnightblue" d="M137.67,-312.33C127.2,-294.09 115.96,-274.5 106.06,-257.26"/>
<polygon fill="none" stroke="midnightblue" points="134.73,-314.23 142.74,-321.16 140.8,-310.75 134.73,-314.23"/>
</g>
<!-- Node7 -->
<g id="node7" class="node">
<title>Node7</title>
<g id="a_node7"><a xlink:href="../../db/db4/class_online_detector__service.html" target="_top" xlink:title=" ">
<polygon fill="none" stroke="black" points="352.5,-161.5 352.5,-251.5 510.5,-251.5 510.5,-161.5 352.5,-161.5"/>
<text text-anchor="middle" x="431.5" y="-239.5" font-family="Helvetica,sans-Serif" font-size="10.00">OnlineDetector_service</text>
<polyline fill="none" stroke="black" points="352.5,-232.5 510.5,-232.5 "/>
<text text-anchor="start" x="360.5" y="-220.5" font-family="Helvetica,sans-Serif" font-size="10.00">&#45; msg_sucess</text>
<text text-anchor="start" x="360.5" y="-209.5" font-family="Helvetica,sans-Serif" font-size="10.00">&#45; msg_fail</text>
<polyline fill="none" stroke="black" points="352.5,-202.5 510.5,-202.5 "/>
<text text-anchor="start" x="360.5" y="-190.5" font-family="Helvetica,sans-Serif" font-size="10.00">+ OnlineDetector_service()</text>
<text text-anchor="start" x="360.5" y="-179.5" font-family="Helvetica,sans-Serif" font-size="10.00">+ ~OnlineDetector_service()</text>
<text text-anchor="start" x="360.5" y="-168.5" font-family="Helvetica,sans-Serif" font-size="10.00">&#45; mainFunction()</text>
</a>
</g>
</g>
<!-- Node6&#45;&gt;Node7 -->
<g id="edge6" class="edge">
<title>Node6&#45;&gt;Node7</title>
<path fill="none" stroke="midnightblue" d="M403.81,-311.49C409.13,-291.5 414.87,-269.97 419.73,-251.72"/>
<polygon fill="none" stroke="midnightblue" points="400.43,-310.6 401.23,-321.16 407.19,-312.4 400.43,-310.6"/>
</g>
<!-- Node8 -->
<g id="node8" class="node">
<title>Node8</title>
<g id="a_node8"><a xlink:href="../../d6/da4/class_water_estimator___service.html" target="_top" xlink:title=" ">
<polygon fill="none" stroke="black" points="173,-150.5 173,-262.5 334,-262.5 334,-150.5 173,-150.5"/>
<text text-anchor="middle" x="253.5" y="-250.5" font-family="Helvetica,sans-Serif" font-size="10.00">WaterEstimator_Service</text>
<polyline fill="none" stroke="black" points="173,-243.5 334,-243.5 "/>
<text text-anchor="start" x="181" y="-231.5" font-family="Helvetica,sans-Serif" font-size="10.00">&#45; msg_max</text>
<text text-anchor="start" x="181" y="-220.5" font-family="Helvetica,sans-Serif" font-size="10.00">&#45; msg_min</text>
<text text-anchor="start" x="181" y="-209.5" font-family="Helvetica,sans-Serif" font-size="10.00">&#45; msg_count</text>
<text text-anchor="start" x="181" y="-198.5" font-family="Helvetica,sans-Serif" font-size="10.00">&#45; m_estimator</text>
<polyline fill="none" stroke="black" points="173,-191.5 334,-191.5 "/>
<text text-anchor="start" x="181" y="-179.5" font-family="Helvetica,sans-Serif" font-size="10.00">+ WaterEstimator_Service()</text>
<text text-anchor="start" x="181" y="-168.5" font-family="Helvetica,sans-Serif" font-size="10.00">+ ~WaterEstimator_Service()</text>
<text text-anchor="start" x="181" y="-157.5" font-family="Helvetica,sans-Serif" font-size="10.00">&#45; mainFunction()</text>
</a>
</g>
</g>
<!-- Node6&#45;&gt;Node8 -->
<g id="edge7" class="edge">
<title>Node6&#45;&gt;Node8</title>
<path fill="none" stroke="midnightblue" d="M336.63,-313.13C323.57,-296.54 309.61,-278.79 296.92,-262.67"/>
<polygon fill="none" stroke="midnightblue" points="334.02,-315.47 342.95,-321.16 339.52,-311.14 334.02,-315.47"/>
</g>
<!-- Node9&#45;&gt;Node6 -->
<g id="edge10" class="edge">
<title>Node9&#45;&gt;Node6</title>
<path fill="none" stroke="midnightblue" d="M475.11,-482.74C471.01,-472.03 466.18,-461.54 460.5,-452 456.8,-445.78 452.44,-439.7 447.73,-433.88"/>
<polygon fill="none" stroke="midnightblue" points="471.83,-483.98 478.52,-492.19 478.41,-481.6 471.83,-483.98"/>
</g>
<!-- Node10 -->
<g id="node10" class="node">
<title>Node10</title>
<g id="a_node10"><a xlink:href="../../d9/d28/class_service_time_base.html" target="_top" xlink:title=" ">
<polygon fill="none" stroke="black" points="537,-327 537,-428 696,-428 696,-327 537,-327"/>
<text text-anchor="start" x="545" y="-416" font-family="Helvetica,sans-Serif" font-size="10.00">ServiceTimeBase&lt; DELAY</text>
<text text-anchor="middle" x="616.5" y="-405" font-family="Helvetica,sans-Serif" font-size="10.00">_FUNCTION, BUFFER_TYPE &gt;</text>
<polyline fill="none" stroke="black" points="537,-398 696,-398 "/>
<text text-anchor="start" x="545" y="-386" font-family="Helvetica,sans-Serif" font-size="10.00">&#45; m_delay</text>
<polyline fill="none" stroke="black" points="537,-379 696,-379 "/>
<text text-anchor="start" x="545" y="-367" font-family="Helvetica,sans-Serif" font-size="10.00">+ ServiceTimeBase()</text>
<text text-anchor="start" x="545" y="-356" font-family="Helvetica,sans-Serif" font-size="10.00">+ ~ServiceTimeBase()</text>
<text text-anchor="start" x="545" y="-345" font-family="Helvetica,sans-Serif" font-size="10.00"># mainFunction()</text>
<text text-anchor="start" x="545" y="-334" font-family="Helvetica,sans-Serif" font-size="10.00"># run()</text>
</a>
</g>
</g>
<!-- Node9&#45;&gt;Node10 -->
<g id="edge11" class="edge">
<title>Node9&#45;&gt;Node10</title>
<path fill="none" stroke="midnightblue" d="M552.38,-483.5C564.04,-464.41 575.91,-444.97 586.21,-428.1"/>
<polygon fill="none" stroke="midnightblue" points="549.27,-481.88 547.04,-492.24 555.24,-485.53 549.27,-481.88"/>
</g>
<!-- Node11 -->
<g id="node11" class="node">
<title>Node11</title>
<g id="a_node11"><a xlink:href="../../d9/d28/class_service_time_base.html" target="_top" xlink:title=" ">
<polygon fill="none" stroke="black" points="528,-156 528,-257 705,-257 705,-156 528,-156"/>
<text text-anchor="start" x="536" y="-245" font-family="Helvetica,sans-Serif" font-size="10.00">ServiceTimeBase&lt;&amp;Timeservice</text>
<text text-anchor="middle" x="616.5" y="-234" font-family="Helvetica,sans-Serif" font-size="10.00">::wait_sec &gt;</text>
<polyline fill="none" stroke="black" points="528,-227 705,-227 "/>
<text text-anchor="start" x="536" y="-215" font-family="Helvetica,sans-Serif" font-size="10.00">&#45; m_delay</text>
<polyline fill="none" stroke="black" points="528,-208 705,-208 "/>
<text text-anchor="start" x="536" y="-196" font-family="Helvetica,sans-Serif" font-size="10.00">+ ServiceTimeBase()</text>
<text text-anchor="start" x="536" y="-185" font-family="Helvetica,sans-Serif" font-size="10.00">+ ~ServiceTimeBase()</text>
<text text-anchor="start" x="536" y="-174" font-family="Helvetica,sans-Serif" font-size="10.00"># mainFunction()</text>
<text text-anchor="start" x="536" y="-163" font-family="Helvetica,sans-Serif" font-size="10.00"># run()</text>
</a>
</g>
</g>
<!-- Node9&#45;&gt;Node11 -->
<g id="edge16" class="edge">
<title>Node9&#45;&gt;Node11</title>
<path fill="none" stroke="midnightblue" d="M496.46,-482.34C499.29,-432.84 507.47,-371.81 528.5,-321 537.99,-298.08 553.39,-275.83 568.68,-257.19"/>
<polygon fill="none" stroke="midnightblue" points="492.96,-482.23 495.95,-492.4 499.95,-482.59 492.96,-482.23"/>
</g>
<!-- Node10&#45;&gt;Node11 -->
<g id="edge12" class="edge">
<title>Node10&#45;&gt;Node11</title>
<path fill="none" stroke="orange" d="M616.5,-316.46C616.5,-297.07 616.5,-275.79 616.5,-257.23"/>
<polygon fill="orange" stroke="orange" points="613,-316.71 616.5,-326.71 620,-316.71 613,-316.71"/>
<text text-anchor="start" x="616.5" y="-295" font-family="Helvetica,sans-Serif" font-size="10.00"> &lt;&amp;Timeservice::wait</text>
<text text-anchor="middle" x="669.5" y="-284" font-family="Helvetica,sans-Serif" font-size="10.00">_sec &gt;</text>
</g>
<!-- Node12 -->
<g id="node12" class="node">
<title>Node12</title>
<g id="a_node12"><a xlink:href="../../d8/d4a/class_aktiv_mus__service.html" target="_top" xlink:title=" ">
<polygon fill="none" stroke="black" points="398.5,-11.5 398.5,-101.5 528.5,-101.5 528.5,-11.5 398.5,-11.5"/>
<text text-anchor="middle" x="463.5" y="-89.5" font-family="Helvetica,sans-Serif" font-size="10.00">AktivMus_service</text>
<polyline fill="none" stroke="black" points="398.5,-82.5 528.5,-82.5 "/>
<text text-anchor="start" x="406.5" y="-70.5" font-family="Helvetica,sans-Serif" font-size="10.00">&#45; msg_alive</text>
<text text-anchor="start" x="406.5" y="-59.5" font-family="Helvetica,sans-Serif" font-size="10.00">&#45; m_motor</text>
<polyline fill="none" stroke="black" points="398.5,-52.5 528.5,-52.5 "/>
<text text-anchor="start" x="406.5" y="-40.5" font-family="Helvetica,sans-Serif" font-size="10.00">+ AktivMus_service()</text>
<text text-anchor="start" x="406.5" y="-29.5" font-family="Helvetica,sans-Serif" font-size="10.00">+ ~AktivMus_service()</text>
<text text-anchor="start" x="406.5" y="-18.5" font-family="Helvetica,sans-Serif" font-size="10.00">&#45; mainFunction()</text>
</a>
</g>
</g>
<!-- Node11&#45;&gt;Node12 -->
<g id="edge13" class="edge">
<title>Node11&#45;&gt;Node12</title>
<path fill="none" stroke="midnightblue" d="M557.8,-148.72C541.65,-133.09 524.38,-116.39 509.09,-101.6"/>
<polygon fill="none" stroke="midnightblue" points="555.51,-151.37 565.13,-155.81 560.37,-146.34 555.51,-151.37"/>
</g>
<!-- Node13 -->
<g id="node13" class="node">
<title>Node13</title>
<g id="a_node13"><a xlink:href="../../df/ddc/class_env_sensing__service.html" target="_top" xlink:title=" ">
<polygon fill="none" stroke="black" points="546.5,-0.5 546.5,-112.5 686.5,-112.5 686.5,-0.5 546.5,-0.5"/>
<text text-anchor="middle" x="616.5" y="-100.5" font-family="Helvetica,sans-Serif" font-size="10.00">EnvSensing_service</text>
<polyline fill="none" stroke="black" points="546.5,-93.5 686.5,-93.5 "/>
<text text-anchor="start" x="554.5" y="-81.5" font-family="Helvetica,sans-Serif" font-size="10.00">&#45; msg_temperature</text>
<text text-anchor="start" x="554.5" y="-70.5" font-family="Helvetica,sans-Serif" font-size="10.00">&#45; msg_humidity</text>
<text text-anchor="start" x="554.5" y="-59.5" font-family="Helvetica,sans-Serif" font-size="10.00">&#45; m_humidity_sensor</text>
<text text-anchor="start" x="554.5" y="-48.5" font-family="Helvetica,sans-Serif" font-size="10.00">&#45; m_temperature_sensor</text>
<polyline fill="none" stroke="black" points="546.5,-41.5 686.5,-41.5 "/>
<text text-anchor="start" x="554.5" y="-29.5" font-family="Helvetica,sans-Serif" font-size="10.00">+ EnvSensing_service()</text>
<text text-anchor="start" x="554.5" y="-18.5" font-family="Helvetica,sans-Serif" font-size="10.00">+ ~EnvSensing_service()</text>
<text text-anchor="start" x="554.5" y="-7.5" font-family="Helvetica,sans-Serif" font-size="10.00">&#45; mainFunction()</text>
</a>
</g>
</g>
<!-- Node11&#45;&gt;Node13 -->
<g id="edge14" class="edge">
<title>Node11&#45;&gt;Node13</title>
<path fill="none" stroke="midnightblue" d="M616.5,-145.55C616.5,-134.68 616.5,-123.39 616.5,-112.66"/>
<polygon fill="none" stroke="midnightblue" points="613,-145.81 616.5,-155.81 620,-145.81 613,-145.81"/>
</g>
<!-- Node14 -->
<g id="node14" class="node">
<title>Node14</title>
<g id="a_node14"><a xlink:href="../../d3/d22/classis_alive__service.html" target="_top" xlink:title=" ">
<polygon fill="none" stroke="black" points="705,-17 705,-96 822,-96 822,-17 705,-17"/>
<text text-anchor="middle" x="763.5" y="-84" font-family="Helvetica,sans-Serif" font-size="10.00">isAlive_service</text>
<polyline fill="none" stroke="black" points="705,-77 822,-77 "/>
<text text-anchor="start" x="713" y="-65" font-family="Helvetica,sans-Serif" font-size="10.00">&#45; msg_alive</text>
<polyline fill="none" stroke="black" points="705,-58 822,-58 "/>
<text text-anchor="start" x="713" y="-46" font-family="Helvetica,sans-Serif" font-size="10.00">+ isAlive_service()</text>
<text text-anchor="start" x="713" y="-35" font-family="Helvetica,sans-Serif" font-size="10.00">+ ~isAlive_service()</text>
<text text-anchor="start" x="713" y="-24" font-family="Helvetica,sans-Serif" font-size="10.00">&#45; mainFunction()</text>
</a>
</g>
</g>
<!-- Node11&#45;&gt;Node14 -->
<g id="edge15" class="edge">
<title>Node11&#45;&gt;Node14</title>
<path fill="none" stroke="midnightblue" d="M673.22,-148.39C690.62,-130.88 709.34,-112.03 725.2,-96.07"/>
<polygon fill="none" stroke="midnightblue" points="670.42,-146.24 665.86,-155.81 675.39,-151.18 670.42,-146.24"/>
</g>
</g>
</svg>
