<?xml version="1.0" encoding="UTF-8" standalone="no"?>
<!DOCTYPE svg PUBLIC "-//W3C//DTD SVG 1.1//EN"
 "http://www.w3.org/Graphics/SVG/1.1/DTD/svg11.dtd">
<!-- Generated by graphviz version 2.43.0 (0)
 -->
<!-- Title: Components/AnalysisTools/PeriodEstimator/include/PeriodeEstimator.hpp Pages: 1 -->
<svg width="330pt" height="173pt"
 viewBox="0.00 0.00 330.00 173.00" xmlns="http://www.w3.org/2000/svg" xmlns:xlink="http://www.w3.org/1999/xlink">
<g id="graph0" class="graph" transform="scale(1 1) rotate(0) translate(4 169)">
<title>Components/AnalysisTools/PeriodEstimator/include/PeriodeEstimator.hpp</title>
<!-- Node1 -->
<g id="node1" class="node">
<title>Node1</title>
<g id="a_node1"><a xlink:title=" ">
<polygon fill="#bfbfbf" stroke="black" points="133.5,-123.5 133.5,-164.5 280.5,-164.5 280.5,-123.5 133.5,-123.5"/>
<text text-anchor="start" x="141.5" y="-152.5" font-family="Helvetica,sans-Serif" font-size="10.00">Components/AnalysisTools</text>
<text text-anchor="start" x="141.5" y="-141.5" font-family="Helvetica,sans-Serif" font-size="10.00">/PeriodEstimator/include</text>
<text text-anchor="middle" x="207" y="-130.5" font-family="Helvetica,sans-Serif" font-size="10.00">/PeriodeEstimator.hpp</text>
</a>
</g>
</g>
<!-- Node2 -->
<g id="node2" class="node">
<title>Node2</title>
<g id="a_node2"><a xlink:href="../../da/d5f/_b_a_s_i_c_8hpp.html" target="_top" xlink:title=" ">
<polygon fill="none" stroke="black" points="0,-56.5 0,-86.5 116,-86.5 116,-56.5 0,-56.5"/>
<text text-anchor="start" x="8" y="-74.5" font-family="Helvetica,sans-Serif" font-size="10.00">../../../Global_Include</text>
<text text-anchor="middle" x="58" y="-63.5" font-family="Helvetica,sans-Serif" font-size="10.00">/BASIC.hpp</text>
</a>
</g>
</g>
<!-- Node1&#45;&gt;Node2 -->
<g id="edge1" class="edge">
<title>Node1&#45;&gt;Node2</title>
<path fill="none" stroke="midnightblue" d="M165.5,-123.36C144.14,-113.26 118.25,-101.01 97.23,-91.06"/>
<polygon fill="midnightblue" stroke="midnightblue" points="98.48,-87.78 87.95,-86.67 95.49,-94.11 98.48,-87.78"/>
</g>
<!-- Node3 -->
<g id="node3" class="node">
<title>Node3</title>
<g id="a_node3"><a xlink:href="../../d3/deb/_general___error_8hpp.html" target="_top" xlink:title=" ">
<polygon fill="none" stroke="black" points="134,-56.5 134,-86.5 280,-86.5 280,-56.5 134,-56.5"/>
<text text-anchor="start" x="142" y="-74.5" font-family="Helvetica,sans-Serif" font-size="10.00">../../../Objects/ErrorHandler</text>
<text text-anchor="middle" x="207" y="-63.5" font-family="Helvetica,sans-Serif" font-size="10.00">/include/General_Error.hpp</text>
</a>
</g>
</g>
<!-- Node1&#45;&gt;Node3 -->
<g id="edge2" class="edge">
<title>Node1&#45;&gt;Node3</title>
<path fill="none" stroke="midnightblue" d="M207,-123.36C207,-115.23 207,-105.7 207,-97.11"/>
<polygon fill="midnightblue" stroke="midnightblue" points="210.5,-96.89 207,-86.89 203.5,-96.89 210.5,-96.89"/>
</g>
<!-- Node5 -->
<g id="node5" class="node">
<title>Node5</title>
<g id="a_node5"><a xlink:title=" ">
<polygon fill="none" stroke="#bfbfbf" points="262,-0.5 262,-19.5 322,-19.5 322,-0.5 262,-0.5"/>
<text text-anchor="middle" x="292" y="-7.5" font-family="Helvetica,sans-Serif" font-size="10.00">iostream</text>
</a>
</g>
</g>
<!-- Node1&#45;&gt;Node5 -->
<g id="edge5" class="edge">
<title>Node1&#45;&gt;Node5</title>
<path fill="none" stroke="midnightblue" d="M251.08,-123.29C265.74,-114.4 280.48,-102.38 289,-87 298.77,-69.35 297.95,-45.71 295.7,-29.5"/>
<polygon fill="midnightblue" stroke="midnightblue" points="299.15,-28.91 294.02,-19.64 292.25,-30.09 299.15,-28.91"/>
</g>
<!-- Node4 -->
<g id="node4" class="node">
<title>Node4</title>
<g id="a_node4"><a xlink:title=" ">
<polygon fill="none" stroke="#bfbfbf" points="185,-0.5 185,-19.5 229,-19.5 229,-0.5 185,-0.5"/>
<text text-anchor="middle" x="207" y="-7.5" font-family="Helvetica,sans-Serif" font-size="10.00">string</text>
</a>
</g>
</g>
<!-- Node3&#45;&gt;Node4 -->
<g id="edge3" class="edge">
<title>Node3&#45;&gt;Node4</title>
<path fill="none" stroke="midnightblue" d="M207,-56.4C207,-48.47 207,-38.46 207,-29.86"/>
<polygon fill="midnightblue" stroke="midnightblue" points="210.5,-29.66 207,-19.66 203.5,-29.66 210.5,-29.66"/>
</g>
<!-- Node3&#45;&gt;Node5 -->
<g id="edge4" class="edge">
<title>Node3&#45;&gt;Node5</title>
<path fill="none" stroke="midnightblue" d="M227.14,-56.4C240.39,-47.13 257.68,-35.03 271.08,-25.65"/>
<polygon fill="midnightblue" stroke="midnightblue" points="273.45,-28.26 279.63,-19.66 269.43,-22.53 273.45,-28.26"/>
</g>
</g>
</svg>
