<?xml version="1.0" encoding="UTF-8" standalone="no"?>
<!DOCTYPE svg PUBLIC "-//W3C//DTD SVG 1.1//EN"
 "http://www.w3.org/Graphics/SVG/1.1/DTD/svg11.dtd">
<!-- Generated by graphviz version 2.43.0 (0)
 -->
<!-- Title: Components/Interfaces/SensorBase/include/Sensor_Base.hpp Pages: 1 -->
<svg width="582pt" height="430pt"
 viewBox="0.00 0.00 582.00 430.00" xmlns="http://www.w3.org/2000/svg" xmlns:xlink="http://www.w3.org/1999/xlink">
<g id="graph0" class="graph" transform="scale(1 1) rotate(0) translate(4 426)">
<title>Components/Interfaces/SensorBase/include/Sensor_Base.hpp</title>
<!-- Node1 -->
<g id="node1" class="node">
<title>Node1</title>
<g id="a_node1"><a xlink:title=" ">
<polygon fill="#bfbfbf" stroke="black" points="227.5,-380.5 227.5,-421.5 378.5,-421.5 378.5,-380.5 227.5,-380.5"/>
<text text-anchor="start" x="235.5" y="-409.5" font-family="Helvetica,sans-Serif" font-size="10.00">Components/Interfaces</text>
<text text-anchor="start" x="235.5" y="-398.5" font-family="Helvetica,sans-Serif" font-size="10.00">/SensorBase/include/Sensor</text>
<text text-anchor="middle" x="303" y="-387.5" font-family="Helvetica,sans-Serif" font-size="10.00">_Base.hpp</text>
</a>
</g>
</g>
<!-- Node2 -->
<g id="node2" class="node">
<title>Node2</title>
<g id="a_node2"><a xlink:href="../../da/d5f/_b_a_s_i_c_8hpp.html" target="_top" xlink:title=" ">
<polygon fill="none" stroke="black" points="18,-56.5 18,-86.5 134,-86.5 134,-56.5 18,-56.5"/>
<text text-anchor="start" x="26" y="-74.5" font-family="Helvetica,sans-Serif" font-size="10.00">../../../Global_Include</text>
<text text-anchor="middle" x="76" y="-63.5" font-family="Helvetica,sans-Serif" font-size="10.00">/BASIC.hpp</text>
</a>
</g>
</g>
<!-- Node1&#45;&gt;Node2 -->
<g id="edge1" class="edge">
<title>Node1&#45;&gt;Node2</title>
<path fill="none" stroke="midnightblue" d="M227.32,-397.46C137.58,-389.94 0,-362.15 0,-262.5 0,-262.5 0,-262.5 0,-193.5 0,-153.61 29.99,-116.08 52.29,-93.7"/>
<polygon fill="midnightblue" stroke="midnightblue" points="54.77,-96.18 59.51,-86.7 49.89,-91.15 54.77,-96.18"/>
</g>
<!-- Node3 -->
<g id="node3" class="node">
<title>Node3</title>
<g id="a_node3"><a xlink:href="../../d3/deb/_general___error_8hpp.html" target="_top" xlink:title=" ">
<polygon fill="none" stroke="black" points="425,-56.5 425,-86.5 571,-86.5 571,-56.5 425,-56.5"/>
<text text-anchor="start" x="433" y="-74.5" font-family="Helvetica,sans-Serif" font-size="10.00">../../../Objects/ErrorHandler</text>
<text text-anchor="middle" x="498" y="-63.5" font-family="Helvetica,sans-Serif" font-size="10.00">/include/General_Error.hpp</text>
</a>
</g>
</g>
<!-- Node1&#45;&gt;Node3 -->
<g id="edge2" class="edge">
<title>Node1&#45;&gt;Node3</title>
<path fill="none" stroke="midnightblue" d="M378.85,-393.59C459.02,-382.18 574,-350.47 574,-262.5 574,-262.5 574,-262.5 574,-193.5 574,-153.61 544.01,-116.08 521.71,-93.7"/>
<polygon fill="midnightblue" stroke="midnightblue" points="524.11,-91.15 514.49,-86.7 519.23,-96.18 524.11,-91.15"/>
</g>
<!-- Node6 -->
<g id="node6" class="node">
<title>Node6</title>
<g id="a_node6"><a xlink:href="../../da/d81/_fault___handler_8hpp.html" target="_top" xlink:title=" ">
<polygon fill="none" stroke="black" points="230,-313.5 230,-343.5 376,-343.5 376,-313.5 230,-313.5"/>
<text text-anchor="start" x="238" y="-331.5" font-family="Helvetica,sans-Serif" font-size="10.00">../../../Objects/FaultHandler</text>
<text text-anchor="middle" x="303" y="-320.5" font-family="Helvetica,sans-Serif" font-size="10.00">/include/Fault_Handler.hpp</text>
</a>
</g>
</g>
<!-- Node1&#45;&gt;Node6 -->
<g id="edge5" class="edge">
<title>Node1&#45;&gt;Node6</title>
<path fill="none" stroke="midnightblue" d="M303,-380.36C303,-372.23 303,-362.7 303,-354.11"/>
<polygon fill="midnightblue" stroke="midnightblue" points="306.5,-353.89 303,-343.89 299.5,-353.89 306.5,-353.89"/>
</g>
<!-- Node4 -->
<g id="node4" class="node">
<title>Node4</title>
<g id="a_node4"><a xlink:title=" ">
<polygon fill="none" stroke="#bfbfbf" points="441,-0.5 441,-19.5 485,-19.5 485,-0.5 441,-0.5"/>
<text text-anchor="middle" x="463" y="-7.5" font-family="Helvetica,sans-Serif" font-size="10.00">string</text>
</a>
</g>
</g>
<!-- Node3&#45;&gt;Node4 -->
<g id="edge3" class="edge">
<title>Node3&#45;&gt;Node4</title>
<path fill="none" stroke="midnightblue" d="M489.71,-56.4C484.78,-48.02 478.49,-37.33 473.25,-28.42"/>
<polygon fill="midnightblue" stroke="midnightblue" points="476.18,-26.5 468.09,-19.66 470.15,-30.05 476.18,-26.5"/>
</g>
<!-- Node5 -->
<g id="node5" class="node">
<title>Node5</title>
<g id="a_node5"><a xlink:title=" ">
<polygon fill="none" stroke="#bfbfbf" points="503,-0.5 503,-19.5 563,-19.5 563,-0.5 503,-0.5"/>
<text text-anchor="middle" x="533" y="-7.5" font-family="Helvetica,sans-Serif" font-size="10.00">iostream</text>
</a>
</g>
</g>
<!-- Node3&#45;&gt;Node5 -->
<g id="edge4" class="edge">
<title>Node3&#45;&gt;Node5</title>
<path fill="none" stroke="midnightblue" d="M506.29,-56.4C511.22,-48.02 517.51,-37.33 522.75,-28.42"/>
<polygon fill="midnightblue" stroke="midnightblue" points="525.85,-30.05 527.91,-19.66 519.82,-26.5 525.85,-30.05"/>
</g>
<!-- Node6&#45;&gt;Node2 -->
<g id="edge6" class="edge">
<title>Node6&#45;&gt;Node2</title>
<path fill="none" stroke="midnightblue" d="M274.83,-313.45C226.39,-287.5 128.77,-226.94 90,-143 83.31,-128.52 79.81,-110.92 77.98,-96.93"/>
<polygon fill="midnightblue" stroke="midnightblue" points="81.42,-96.17 76.85,-86.61 74.46,-96.94 81.42,-96.17"/>
</g>
<!-- Node6&#45;&gt;Node3 -->
<g id="edge7" class="edge">
<title>Node6&#45;&gt;Node3</title>
<path fill="none" stroke="midnightblue" d="M324.45,-313.29C364,-285.75 447.75,-220.94 485,-143 491.86,-128.65 495.11,-111.05 496.65,-97.03"/>
<polygon fill="midnightblue" stroke="midnightblue" points="500.17,-96.94 497.55,-86.68 493.19,-96.34 500.17,-96.94"/>
</g>
<!-- Node7 -->
<g id="node7" class="node">
<title>Node7</title>
<g id="a_node7"><a xlink:href="../../d3/de3/_logger_8hpp.html" target="_top" xlink:title=" ">
<polygon fill="none" stroke="black" points="245,-246.5 245,-276.5 361,-276.5 361,-246.5 245,-246.5"/>
<text text-anchor="start" x="253" y="-264.5" font-family="Helvetica,sans-Serif" font-size="10.00">../../../Objects/Logger</text>
<text text-anchor="middle" x="303" y="-253.5" font-family="Helvetica,sans-Serif" font-size="10.00">/include/Logger.hpp</text>
</a>
</g>
</g>
<!-- Node6&#45;&gt;Node7 -->
<g id="edge8" class="edge">
<title>Node6&#45;&gt;Node7</title>
<path fill="none" stroke="midnightblue" d="M303,-313.4C303,-305.64 303,-295.81 303,-286.86"/>
<polygon fill="midnightblue" stroke="midnightblue" points="306.5,-286.58 303,-276.58 299.5,-286.58 306.5,-286.58"/>
</g>
<!-- Node7&#45;&gt;Node2 -->
<g id="edge9" class="edge">
<title>Node7&#45;&gt;Node2</title>
<path fill="none" stroke="midnightblue" d="M265.84,-246.44C222.55,-228.39 151.34,-193.3 107,-143 95.26,-129.68 87.36,-111.22 82.47,-96.52"/>
<polygon fill="midnightblue" stroke="midnightblue" points="85.71,-95.15 79.44,-86.62 79.02,-97.2 85.71,-95.15"/>
</g>
<!-- Node7&#45;&gt;Node3 -->
<g id="edge10" class="edge">
<title>Node7&#45;&gt;Node3</title>
<path fill="none" stroke="midnightblue" d="M331.44,-246.44C367.16,-227.48 428.21,-190.53 465,-143 475.85,-128.98 484.25,-110.82 489.85,-96.44"/>
<polygon fill="midnightblue" stroke="midnightblue" points="493.25,-97.35 493.44,-86.76 486.68,-94.92 493.25,-97.35"/>
</g>
<!-- Node8 -->
<g id="node8" class="node">
<title>Node8</title>
<g id="a_node8"><a xlink:href="../../d7/d60/_timeservice_8hpp.html" target="_top" xlink:title=" ">
<polygon fill="none" stroke="black" points="231.5,-179.5 231.5,-209.5 374.5,-209.5 374.5,-179.5 231.5,-179.5"/>
<text text-anchor="start" x="239.5" y="-197.5" font-family="Helvetica,sans-Serif" font-size="10.00">../../../Objects/Timeservice</text>
<text text-anchor="middle" x="303" y="-186.5" font-family="Helvetica,sans-Serif" font-size="10.00">/include/Timeservice.hpp</text>
</a>
</g>
</g>
<!-- Node7&#45;&gt;Node8 -->
<g id="edge11" class="edge">
<title>Node7&#45;&gt;Node8</title>
<path fill="none" stroke="midnightblue" d="M303,-246.4C303,-238.64 303,-228.81 303,-219.86"/>
<polygon fill="midnightblue" stroke="midnightblue" points="306.5,-219.58 303,-209.58 299.5,-219.58 306.5,-219.58"/>
</g>
<!-- Node8&#45;&gt;Node2 -->
<g id="edge12" class="edge">
<title>Node8&#45;&gt;Node2</title>
<path fill="none" stroke="midnightblue" d="M231.45,-182.24C199.39,-174.78 162.3,-162.61 133,-143 114.63,-130.71 99.26,-110.68 89.13,-95.11"/>
<polygon fill="midnightblue" stroke="midnightblue" points="92.05,-93.18 83.79,-86.55 86.11,-96.89 92.05,-93.18"/>
</g>
<!-- Node8&#45;&gt;Node3 -->
<g id="edge13" class="edge">
<title>Node8&#45;&gt;Node3</title>
<path fill="none" stroke="midnightblue" d="M362.47,-179.42C388.18,-171.47 417.65,-159.7 441,-143 458.87,-130.22 474.2,-110.41 484.45,-95.04"/>
<polygon fill="midnightblue" stroke="midnightblue" points="487.42,-96.9 489.87,-86.59 481.53,-93.12 487.42,-96.9"/>
</g>
<!-- Node9 -->
<g id="node9" class="node">
<title>Node9</title>
<g id="a_node9"><a xlink:href="../../d6/d4b/_r_t_c___h_a_l_8hpp.html" target="_top" xlink:title=" ">
<polygon fill="none" stroke="black" points="142.5,-123.5 142.5,-142.5 223.5,-142.5 223.5,-123.5 142.5,-123.5"/>
<text text-anchor="middle" x="183" y="-130.5" font-family="Helvetica,sans-Serif" font-size="10.00">RTC_HAL.hpp</text>
</a>
</g>
</g>
<!-- Node8&#45;&gt;Node9 -->
<g id="edge14" class="edge">
<title>Node8&#45;&gt;Node9</title>
<path fill="none" stroke="midnightblue" d="M274.56,-179.4C254.88,-169.64 228.86,-156.74 209.59,-147.18"/>
<polygon fill="midnightblue" stroke="midnightblue" points="210.98,-143.96 200.46,-142.66 207.87,-150.24 210.98,-143.96"/>
</g>
<!-- Node11 -->
<g id="node11" class="node">
<title>Node11</title>
<g id="a_node11"><a xlink:title=" ">
<polygon fill="none" stroke="#bfbfbf" points="242,-123.5 242,-142.5 292,-142.5 292,-123.5 242,-123.5"/>
<text text-anchor="middle" x="267" y="-130.5" font-family="Helvetica,sans-Serif" font-size="10.00">chrono</text>
</a>
</g>
</g>
<!-- Node8&#45;&gt;Node11 -->
<g id="edge18" class="edge">
<title>Node8&#45;&gt;Node11</title>
<path fill="none" stroke="midnightblue" d="M294.47,-179.4C289.4,-171.02 282.93,-160.33 277.54,-151.42"/>
<polygon fill="midnightblue" stroke="midnightblue" points="280.41,-149.4 272.24,-142.66 274.42,-153.03 280.41,-149.4"/>
</g>
<!-- Node12 -->
<g id="node12" class="node">
<title>Node12</title>
<g id="a_node12"><a xlink:title=" ">
<polygon fill="none" stroke="#bfbfbf" points="310,-123.5 310,-142.5 366,-142.5 366,-123.5 310,-123.5"/>
<text text-anchor="middle" x="338" y="-130.5" font-family="Helvetica,sans-Serif" font-size="10.00">iomanip</text>
</a>
</g>
</g>
<!-- Node8&#45;&gt;Node12 -->
<g id="edge19" class="edge">
<title>Node8&#45;&gt;Node12</title>
<path fill="none" stroke="midnightblue" d="M311.29,-179.4C316.22,-171.02 322.51,-160.33 327.75,-151.42"/>
<polygon fill="midnightblue" stroke="midnightblue" points="330.85,-153.05 332.91,-142.66 324.82,-149.5 330.85,-153.05"/>
</g>
<!-- Node13 -->
<g id="node13" class="node">
<title>Node13</title>
<g id="a_node13"><a xlink:title=" ">
<polygon fill="none" stroke="#bfbfbf" points="384,-123.5 384,-142.5 432,-142.5 432,-123.5 384,-123.5"/>
<text text-anchor="middle" x="408" y="-130.5" font-family="Helvetica,sans-Serif" font-size="10.00">thread</text>
</a>
</g>
</g>
<!-- Node8&#45;&gt;Node13 -->
<g id="edge20" class="edge">
<title>Node8&#45;&gt;Node13</title>
<path fill="none" stroke="midnightblue" d="M327.88,-179.4C344.71,-169.86 366.84,-157.32 383.57,-147.84"/>
<polygon fill="midnightblue" stroke="midnightblue" points="385.75,-150.63 392.72,-142.66 382.3,-144.54 385.75,-150.63"/>
</g>
<!-- Node9&#45;&gt;Node2 -->
<g id="edge15" class="edge">
<title>Node9&#45;&gt;Node2</title>
<path fill="none" stroke="midnightblue" d="M167.67,-123.48C152.7,-115.15 129.42,-102.21 110.07,-91.45"/>
<polygon fill="midnightblue" stroke="midnightblue" points="111.66,-88.32 101.22,-86.52 108.26,-94.44 111.66,-88.32"/>
</g>
<!-- Node9&#45;&gt;Node3 -->
<g id="edge16" class="edge">
<title>Node9&#45;&gt;Node3</title>
<path fill="none" stroke="midnightblue" d="M223.54,-124.34C271.62,-115.26 353.03,-99.88 414.73,-88.23"/>
<polygon fill="midnightblue" stroke="midnightblue" points="415.67,-91.61 424.85,-86.32 414.37,-84.73 415.67,-91.61"/>
</g>
<!-- Node10 -->
<g id="node10" class="node">
<title>Node10</title>
<g id="a_node10"><a xlink:title=" ">
<polygon fill="none" stroke="#bfbfbf" points="161,-62 161,-81 205,-81 205,-62 161,-62"/>
<text text-anchor="middle" x="183" y="-69" font-family="Helvetica,sans-Serif" font-size="10.00">ctime</text>
</a>
</g>
</g>
<!-- Node9&#45;&gt;Node10 -->
<g id="edge17" class="edge">
<title>Node9&#45;&gt;Node10</title>
<path fill="none" stroke="midnightblue" d="M183,-123.48C183,-115.08 183,-101.98 183,-91.16"/>
<polygon fill="midnightblue" stroke="midnightblue" points="186.5,-91.01 183,-81.01 179.5,-91.01 186.5,-91.01"/>
</g>
</g>
</svg>
