<?xml version="1.0" encoding="UTF-8" standalone="no"?>
<!DOCTYPE svg PUBLIC "-//W3C//DTD SVG 1.1//EN"
 "http://www.w3.org/Graphics/SVG/1.1/DTD/svg11.dtd">
<!-- Generated by graphviz version 2.43.0 (0)
 -->
<!-- Title: Components/Actuator/ServoMotor/src/MG996R.cpp Pages: 1 -->
<!--zoomable 620 -->
<svg id="main" version="1.1" xmlns="http://www.w3.org/2000/svg" xmlns:xlink="http://www.w3.org/1999/xlink" xml:space="preserve" onload="init(evt)">
<style type="text/css"><![CDATA[
.edge:hover path { stroke: red; }
.edge:hover polygon { stroke: red; fill: red; }
]]></style>
<script type="text/javascript"><![CDATA[
var edges = document.getElementsByTagName('g');
if (edges && edges.length) {
  for (var i=0;i<edges.length;i++) {
    if (edges[i].id.substr(0,4)=='edge') {
      edges[i].setAttribute('class','edge');
    }
  }
}
]]></script>
        <defs>
                <circle id="rim" cx="0" cy="0" r="7"/>
                <circle id="rim2" cx="0" cy="0" r="3.5"/>
                <g id="zoomPlus">
                        <use xlink:href="#rim" fill="#404040">
                                <set attributeName="fill" to="#808080" begin="zoomplus.mouseover" end="zoomplus.mouseout"/>
                        </use>
                        <path d="M-4,0h8M0,-4v8" fill="none" stroke="white" stroke-width="1.5" pointer-events="none"/>
                </g>
                <g id="zoomMin">
                        <use xlink:href="#rim" fill="#404040">
                                <set attributeName="fill" to="#808080" begin="zoomminus.mouseover" end="zoomminus.mouseout"/>
                        </use>
                        <path d="M-4,0h8" fill="none" stroke="white" stroke-width="1.5" pointer-events="none"/>
                </g>
                <g id="dirArrow">
                        <path fill="none" stroke="white" stroke-width="1.5" d="M0,-3.0v7 M-2.5,-0.5L0,-3.0L2.5,-0.5"/>
                </g>
               <g id="resetDef">
                       <use xlink:href="#rim2" fill="#404040">
                               <set attributeName="fill" to="#808080" begin="reset.mouseover" end="reset.mouseout"/>
                       </use>
               </g>
        </defs>

<script type="text/javascript">
var viewWidth = 898;
var viewHeight = 620;
var sectionId = 'dynsection-0';
</script>
<script xlink:href="../../svgpan.js"/>
<svg id="graph" class="graph">
<g id="viewport">
<title>Components/Actuator/ServoMotor/src/MG996R.cpp</title>
<!-- Node1 -->
<g id="node1" class="node">
<title>Node1</title>
<g id="a_node1"><a xlink:title=" ">
<polygon fill="#bfbfbf" stroke="black" points="456,-581.5 456,-611.5 614,-611.5 614,-581.5 456,-581.5"/>
<text text-anchor="start" x="464" y="-599.5" font-family="Helvetica,sans-Serif" font-size="10.00">Components/Actuator</text>
<text text-anchor="middle" x="535" y="-588.5" font-family="Helvetica,sans-Serif" font-size="10.00">/ServoMotor/src/MG996R.cpp</text>
</a>
</g>
</g>
<!-- Node2 -->
<g id="node2" class="node">
<title>Node2</title>
<g id="a_node2"><a xlink:href="../../dc/d07/_m_g996_r_8hpp.html" target="_top" xlink:title=" ">
<polygon fill="none" stroke="black" points="472,-525.5 472,-544.5 598,-544.5 598,-525.5 472,-525.5"/>
<text text-anchor="middle" x="535" y="-532.5" font-family="Helvetica,sans-Serif" font-size="10.00">../include/MG996R.hpp</text>
</a>
</g>
</g>
<!-- Node1&#45;&gt;Node2 -->
<g id="edge1" class="edge">
<title>Node1&#45;&gt;Node2</title>
<path fill="none" stroke="midnightblue" d="M535,-581.4C535,-573.47 535,-563.46 535,-554.86"/>
<polygon fill="midnightblue" stroke="midnightblue" points="538.5,-554.66 535,-544.66 531.5,-554.66 538.5,-554.66"/>
</g>
<!-- Node3 -->
<g id="node3" class="node">
<title>Node3</title>
<g id="a_node3"><a xlink:href="../../da/d5f/_b_a_s_i_c_8hpp.html" target="_top" xlink:title=" ">
<polygon fill="none" stroke="black" points="362,-56.5 362,-86.5 478,-86.5 478,-56.5 362,-56.5"/>
<text text-anchor="start" x="370" y="-74.5" font-family="Helvetica,sans-Serif" font-size="10.00">../../../Global_Include</text>
<text text-anchor="middle" x="420" y="-63.5" font-family="Helvetica,sans-Serif" font-size="10.00">/BASIC.hpp</text>
</a>
</g>
</g>
<!-- Node2&#45;&gt;Node3 -->
<g id="edge2" class="edge">
<title>Node2&#45;&gt;Node3</title>
<path fill="none" stroke="midnightblue" d="M471.65,-530.68C373.69,-524.93 190.33,-511.52 129,-489 64.08,-465.17 0,-471.15 0,-402 0,-402 0,-402 0,-193.5 0,-153.21 21.92,-142.83 57,-123 106,-95.3 260.66,-81.77 351.53,-76.05"/>
<polygon fill="midnightblue" stroke="midnightblue" points="351.97,-79.53 361.74,-75.42 351.54,-72.54 351.97,-79.53"/>
</g>
<!-- Node4 -->
<g id="node4" class="node">
<title>Node4</title>
<g id="a_node4"><a xlink:href="../../d3/deb/_general___error_8hpp.html" target="_top" xlink:title=" ">
<polygon fill="none" stroke="black" points="613.5,-56.5 613.5,-86.5 758.5,-86.5 758.5,-56.5 613.5,-56.5"/>
<text text-anchor="start" x="621.5" y="-74.5" font-family="Helvetica,sans-Serif" font-size="10.00">../../../Objects/ErrorHandler</text>
<text text-anchor="middle" x="686" y="-63.5" font-family="Helvetica,sans-Serif" font-size="10.00">/include/General_Error.hpp</text>
</a>
</g>
</g>
<!-- Node2&#45;&gt;Node4 -->
<g id="edge3" class="edge">
<title>Node2&#45;&gt;Node4</title>
<path fill="none" stroke="midnightblue" d="M588.92,-525.48C688.23,-508.26 890,-465.45 890,-402 890,-402 890,-402 890,-193.5 890,-134.04 825.1,-103.16 768.51,-87.54"/>
<polygon fill="midnightblue" stroke="midnightblue" points="769.35,-84.14 758.78,-84.98 767.56,-90.91 769.35,-84.14"/>
</g>
<!-- Node7 -->
<g id="node7" class="node">
<title>Node7</title>
<g id="a_node7"><a xlink:href="../../d7/daf/_actuator___base_8hpp.html" target="_top" xlink:title=" ">
<polygon fill="none" stroke="black" points="738.5,-380.5 738.5,-421.5 861.5,-421.5 861.5,-380.5 738.5,-380.5"/>
<text text-anchor="start" x="746.5" y="-409.5" font-family="Helvetica,sans-Serif" font-size="10.00">../../../Interfaces</text>
<text text-anchor="start" x="746.5" y="-398.5" font-family="Helvetica,sans-Serif" font-size="10.00">/ActuatorBase/include</text>
<text text-anchor="middle" x="800" y="-387.5" font-family="Helvetica,sans-Serif" font-size="10.00">/Actuator_Base.hpp</text>
</a>
</g>
</g>
<!-- Node2&#45;&gt;Node7 -->
<g id="edge6" class="edge">
<title>Node2&#45;&gt;Node7</title>
<path fill="none" stroke="midnightblue" d="M552.39,-525.34C592.17,-505.52 691.02,-456.28 751.1,-426.36"/>
<polygon fill="midnightblue" stroke="midnightblue" points="753.01,-429.32 760.4,-421.73 749.89,-423.05 753.01,-429.32"/>
</g>
<!-- Node10 -->
<g id="node10" class="node">
<title>Node10</title>
<g id="a_node10"><a xlink:href="../../d7/d60/_timeservice_8hpp.html" target="_top" xlink:title=" ">
<polygon fill="none" stroke="black" points="256.5,-179.5 256.5,-209.5 399.5,-209.5 399.5,-179.5 256.5,-179.5"/>
<text text-anchor="start" x="264.5" y="-197.5" font-family="Helvetica,sans-Serif" font-size="10.00">../../../Objects/Timeservice</text>
<text text-anchor="middle" x="328" y="-186.5" font-family="Helvetica,sans-Serif" font-size="10.00">/include/Timeservice.hpp</text>
</a>
</g>
</g>
<!-- Node2&#45;&gt;Node10 -->
<g id="edge35" class="edge">
<title>Node2&#45;&gt;Node10</title>
<path fill="none" stroke="midnightblue" d="M471.66,-529.08C345.74,-517.55 76,-483.36 76,-402 76,-402 76,-402 76,-327.5 76,-249.2 172.65,-217.25 246.24,-204.28"/>
<polygon fill="midnightblue" stroke="midnightblue" points="247.17,-207.67 256.46,-202.57 246.02,-200.77 247.17,-207.67"/>
</g>
<!-- Node16 -->
<g id="node16" class="node">
<title>Node16</title>
<g id="a_node16"><a xlink:href="../../d3/d4e/_p_w_m___a_p_i___e_s_p32_8hpp.html" target="_top" xlink:title=" ">
<polygon fill="none" stroke="black" points="455,-458.5 455,-488.5 615,-488.5 615,-458.5 455,-458.5"/>
<text text-anchor="start" x="463" y="-476.5" font-family="Helvetica,sans-Serif" font-size="10.00">../../../Objects/PWM</text>
<text text-anchor="middle" x="535" y="-465.5" font-family="Helvetica,sans-Serif" font-size="10.00">/include/PWM_API_ESP32.hpp</text>
</a>
</g>
</g>
<!-- Node2&#45;&gt;Node16 -->
<g id="edge25" class="edge">
<title>Node2&#45;&gt;Node16</title>
<path fill="none" stroke="midnightblue" d="M535,-525.48C535,-518.47 535,-508.19 535,-498.7"/>
<polygon fill="midnightblue" stroke="midnightblue" points="538.5,-498.52 535,-488.52 531.5,-498.52 538.5,-498.52"/>
</g>
<!-- Node5 -->
<g id="node5" class="node">
<title>Node5</title>
<g id="a_node5"><a xlink:title=" ">
<polygon fill="none" stroke="#bfbfbf" points="629,-0.5 629,-19.5 673,-19.5 673,-0.5 629,-0.5"/>
<text text-anchor="middle" x="651" y="-7.5" font-family="Helvetica,sans-Serif" font-size="10.00">string</text>
</a>
</g>
</g>
<!-- Node4&#45;&gt;Node5 -->
<g id="edge4" class="edge">
<title>Node4&#45;&gt;Node5</title>
<path fill="none" stroke="midnightblue" d="M677.71,-56.4C672.78,-48.02 666.49,-37.33 661.25,-28.42"/>
<polygon fill="midnightblue" stroke="midnightblue" points="664.18,-26.5 656.09,-19.66 658.15,-30.05 664.18,-26.5"/>
</g>
<!-- Node6 -->
<g id="node6" class="node">
<title>Node6</title>
<g id="a_node6"><a xlink:title=" ">
<polygon fill="none" stroke="#bfbfbf" points="691,-0.5 691,-19.5 751,-19.5 751,-0.5 691,-0.5"/>
<text text-anchor="middle" x="721" y="-7.5" font-family="Helvetica,sans-Serif" font-size="10.00">iostream</text>
</a>
</g>
</g>
<!-- Node4&#45;&gt;Node6 -->
<g id="edge5" class="edge">
<title>Node4&#45;&gt;Node6</title>
<path fill="none" stroke="midnightblue" d="M694.29,-56.4C699.22,-48.02 705.51,-37.33 710.75,-28.42"/>
<polygon fill="midnightblue" stroke="midnightblue" points="713.85,-30.05 715.91,-19.66 707.82,-26.5 713.85,-30.05"/>
</g>
<!-- Node7&#45;&gt;Node3 -->
<g id="edge7" class="edge">
<title>Node7&#45;&gt;Node3</title>
<path fill="none" stroke="midnightblue" d="M800,-380.42C800,-353.75 800,-304.51 800,-262.5 800,-262.5 800,-262.5 800,-193.5 800,-128.79 597.42,-94.07 488.09,-80.04"/>
<polygon fill="midnightblue" stroke="midnightblue" points="488.49,-76.57 478.13,-78.79 487.61,-83.51 488.49,-76.57"/>
</g>
<!-- Node7&#45;&gt;Node4 -->
<g id="edge8" class="edge">
<title>Node7&#45;&gt;Node4</title>
<path fill="none" stroke="midnightblue" d="M809.01,-380.43C820.24,-354.18 838,-305.84 838,-262.5 838,-262.5 838,-262.5 838,-193.5 838,-160.4 836.84,-146.96 814,-123 799.76,-108.07 780.56,-97.46 761.37,-89.96"/>
<polygon fill="midnightblue" stroke="midnightblue" points="762.56,-86.67 751.97,-86.53 760.16,-93.25 762.56,-86.67"/>
</g>
<!-- Node8 -->
<g id="node8" class="node">
<title>Node8</title>
<g id="a_node8"><a xlink:href="../../da/d81/_fault___handler_8hpp.html" target="_top" xlink:title=" ">
<polygon fill="none" stroke="black" points="423.5,-313.5 423.5,-343.5 568.5,-343.5 568.5,-313.5 423.5,-313.5"/>
<text text-anchor="start" x="431.5" y="-331.5" font-family="Helvetica,sans-Serif" font-size="10.00">../../../Objects/FaultHandler</text>
<text text-anchor="middle" x="496" y="-320.5" font-family="Helvetica,sans-Serif" font-size="10.00">/include/Fault_Handler.hpp</text>
</a>
</g>
</g>
<!-- Node7&#45;&gt;Node8 -->
<g id="edge9" class="edge">
<title>Node7&#45;&gt;Node8</title>
<path fill="none" stroke="midnightblue" d="M738.48,-385.73C688.61,-374.17 618.3,-357.86 566.22,-345.78"/>
<polygon fill="midnightblue" stroke="midnightblue" points="566.92,-342.35 556.39,-343.5 565.34,-349.17 566.92,-342.35"/>
</g>
<!-- Node8&#45;&gt;Node3 -->
<g id="edge10" class="edge">
<title>Node8&#45;&gt;Node3</title>
<path fill="none" stroke="midnightblue" d="M493.08,-313.27C489.64,-296.93 483.55,-269.36 477,-246 461.87,-192.01 440.44,-129.81 428.64,-96.51"/>
<polygon fill="midnightblue" stroke="midnightblue" points="431.82,-95.01 425.16,-86.76 425.22,-97.36 431.82,-95.01"/>
</g>
<!-- Node8&#45;&gt;Node4 -->
<g id="edge11" class="edge">
<title>Node8&#45;&gt;Node4</title>
<path fill="none" stroke="midnightblue" d="M509.08,-313.37C536.5,-283.37 601.26,-210.5 647,-143 657.26,-127.85 667.22,-109.78 674.51,-95.72"/>
<polygon fill="midnightblue" stroke="midnightblue" points="677.67,-97.22 679.09,-86.72 671.44,-94.04 677.67,-97.22"/>
</g>
<!-- Node9 -->
<g id="node9" class="node">
<title>Node9</title>
<g id="a_node9"><a xlink:href="../../d3/de3/_logger_8hpp.html" target="_top" xlink:title=" ">
<polygon fill="none" stroke="black" points="352,-246.5 352,-276.5 468,-276.5 468,-246.5 352,-246.5"/>
<text text-anchor="start" x="360" y="-264.5" font-family="Helvetica,sans-Serif" font-size="10.00">../../../Objects/Logger</text>
<text text-anchor="middle" x="410" y="-253.5" font-family="Helvetica,sans-Serif" font-size="10.00">/include/Logger.hpp</text>
</a>
</g>
</g>
<!-- Node8&#45;&gt;Node9 -->
<g id="edge12" class="edge">
<title>Node8&#45;&gt;Node9</title>
<path fill="none" stroke="midnightblue" d="M477.34,-313.4C465.51,-304.45 450.01,-292.74 436.86,-282.8"/>
<polygon fill="midnightblue" stroke="midnightblue" points="438.71,-279.81 428.62,-276.58 434.49,-285.4 438.71,-279.81"/>
</g>
<!-- Node9&#45;&gt;Node3 -->
<g id="edge13" class="edge">
<title>Node9&#45;&gt;Node3</title>
<path fill="none" stroke="midnightblue" d="M411.59,-246.42C413.98,-224.39 418.41,-180.43 420,-143 420.66,-127.56 420.66,-110.2 420.51,-96.58"/>
<polygon fill="midnightblue" stroke="midnightblue" points="424,-96.5 420.35,-86.55 417.01,-96.61 424,-96.5"/>
</g>
<!-- Node9&#45;&gt;Node4 -->
<g id="edge14" class="edge">
<title>Node9&#45;&gt;Node4</title>
<path fill="none" stroke="midnightblue" d="M442.9,-246.39C486.4,-226.84 564.27,-188.72 622,-143 639.76,-128.93 656.86,-109.71 668.9,-94.89"/>
<polygon fill="midnightblue" stroke="midnightblue" points="671.89,-96.75 675.38,-86.75 666.41,-92.4 671.89,-96.75"/>
</g>
<!-- Node9&#45;&gt;Node10 -->
<g id="edge15" class="edge">
<title>Node9&#45;&gt;Node10</title>
<path fill="none" stroke="midnightblue" d="M392.21,-246.4C380.92,-237.45 366.15,-225.74 353.61,-215.8"/>
<polygon fill="midnightblue" stroke="midnightblue" points="355.77,-213.05 345.76,-209.58 351.42,-218.53 355.77,-213.05"/>
</g>
<!-- Node10&#45;&gt;Node3 -->
<g id="edge16" class="edge">
<title>Node10&#45;&gt;Node3</title>
<path fill="none" stroke="midnightblue" d="M357.79,-179.31C372.79,-170.75 390.07,-158.49 401,-143 410.55,-129.46 415.3,-111.37 417.66,-96.91"/>
<polygon fill="midnightblue" stroke="midnightblue" points="421.17,-97.07 419.05,-86.69 414.24,-96.13 421.17,-97.07"/>
</g>
<!-- Node10&#45;&gt;Node4 -->
<g id="edge17" class="edge">
<title>Node10&#45;&gt;Node4</title>
<path fill="none" stroke="midnightblue" d="M399.75,-188.26C453.88,-182.3 528.98,-169.66 590,-143 617.77,-130.87 645.21,-109.52 663.59,-93.49"/>
<polygon fill="midnightblue" stroke="midnightblue" points="666.24,-95.81 671.37,-86.54 661.58,-90.59 666.24,-95.81"/>
</g>
<!-- Node11 -->
<g id="node11" class="node">
<title>Node11</title>
<g id="a_node11"><a xlink:href="../../d6/d4b/_r_t_c___h_a_l_8hpp.html" target="_top" xlink:title=" ">
<polygon fill="none" stroke="black" points="104,-123.5 104,-142.5 184,-142.5 184,-123.5 104,-123.5"/>
<text text-anchor="middle" x="144" y="-130.5" font-family="Helvetica,sans-Serif" font-size="10.00">RTC_HAL.hpp</text>
</a>
</g>
</g>
<!-- Node10&#45;&gt;Node11 -->
<g id="edge18" class="edge">
<title>Node10&#45;&gt;Node11</title>
<path fill="none" stroke="midnightblue" d="M284.39,-179.4C252.6,-169.12 210.03,-155.35 180.13,-145.68"/>
<polygon fill="midnightblue" stroke="midnightblue" points="181.1,-142.32 170.51,-142.57 178.94,-148.98 181.1,-142.32"/>
</g>
<!-- Node13 -->
<g id="node13" class="node">
<title>Node13</title>
<g id="a_node13"><a xlink:title=" ">
<polygon fill="none" stroke="#bfbfbf" points="202,-123.5 202,-142.5 252,-142.5 252,-123.5 202,-123.5"/>
<text text-anchor="middle" x="227" y="-130.5" font-family="Helvetica,sans-Serif" font-size="10.00">chrono</text>
</a>
</g>
</g>
<!-- Node10&#45;&gt;Node13 -->
<g id="edge22" class="edge">
<title>Node10&#45;&gt;Node13</title>
<path fill="none" stroke="midnightblue" d="M304.06,-179.4C287.87,-169.86 266.59,-157.32 250.5,-147.84"/>
<polygon fill="midnightblue" stroke="midnightblue" points="252.09,-144.72 241.7,-142.66 248.54,-150.75 252.09,-144.72"/>
</g>
<!-- Node14 -->
<g id="node14" class="node">
<title>Node14</title>
<g id="a_node14"><a xlink:title=" ">
<polygon fill="none" stroke="#bfbfbf" points="270,-123.5 270,-142.5 326,-142.5 326,-123.5 270,-123.5"/>
<text text-anchor="middle" x="298" y="-130.5" font-family="Helvetica,sans-Serif" font-size="10.00">iomanip</text>
</a>
</g>
</g>
<!-- Node10&#45;&gt;Node14 -->
<g id="edge23" class="edge">
<title>Node10&#45;&gt;Node14</title>
<path fill="none" stroke="midnightblue" d="M320.89,-179.4C316.71,-171.11 311.39,-160.55 306.93,-151.71"/>
<polygon fill="midnightblue" stroke="midnightblue" points="309.99,-150.01 302.37,-142.66 303.74,-153.16 309.99,-150.01"/>
</g>
<!-- Node15 -->
<g id="node15" class="node">
<title>Node15</title>
<g id="a_node15"><a xlink:title=" ">
<polygon fill="none" stroke="#bfbfbf" points="344,-123.5 344,-142.5 392,-142.5 392,-123.5 344,-123.5"/>
<text text-anchor="middle" x="368" y="-130.5" font-family="Helvetica,sans-Serif" font-size="10.00">thread</text>
</a>
</g>
</g>
<!-- Node10&#45;&gt;Node15 -->
<g id="edge24" class="edge">
<title>Node10&#45;&gt;Node15</title>
<path fill="none" stroke="midnightblue" d="M337.48,-179.4C343.17,-170.93 350.45,-160.1 356.48,-151.14"/>
<polygon fill="midnightblue" stroke="midnightblue" points="359.51,-152.91 362.18,-142.66 353.7,-149 359.51,-152.91"/>
</g>
<!-- Node11&#45;&gt;Node3 -->
<g id="edge19" class="edge">
<title>Node11&#45;&gt;Node3</title>
<path fill="none" stroke="midnightblue" d="M183.54,-123.48C227.37,-114.03 298.85,-98.62 351.76,-87.21"/>
<polygon fill="midnightblue" stroke="midnightblue" points="352.71,-90.59 361.75,-85.06 351.24,-83.74 352.71,-90.59"/>
</g>
<!-- Node11&#45;&gt;Node4 -->
<g id="edge20" class="edge">
<title>Node11&#45;&gt;Node4</title>
<path fill="none" stroke="midnightblue" d="M184.07,-124.37C187.09,-123.88 190.09,-123.42 193,-123 336.55,-102.5 504.76,-87.1 602.95,-78.98"/>
<polygon fill="midnightblue" stroke="midnightblue" points="603.43,-82.45 613.11,-78.14 602.85,-75.47 603.43,-82.45"/>
</g>
<!-- Node12 -->
<g id="node12" class="node">
<title>Node12</title>
<g id="a_node12"><a xlink:title=" ">
<polygon fill="none" stroke="#bfbfbf" points="122,-62 122,-81 166,-81 166,-62 122,-62"/>
<text text-anchor="middle" x="144" y="-69" font-family="Helvetica,sans-Serif" font-size="10.00">ctime</text>
</a>
</g>
</g>
<!-- Node11&#45;&gt;Node12 -->
<g id="edge21" class="edge">
<title>Node11&#45;&gt;Node12</title>
<path fill="none" stroke="midnightblue" d="M144,-123.48C144,-115.08 144,-101.98 144,-91.16"/>
<polygon fill="midnightblue" stroke="midnightblue" points="147.5,-91.01 144,-81.01 140.5,-91.01 147.5,-91.01"/>
</g>
<!-- Node16&#45;&gt;Node3 -->
<g id="edge26" class="edge">
<title>Node16&#45;&gt;Node3</title>
<path fill="none" stroke="midnightblue" d="M466.16,-458.49C329.7,-428.72 38,-354.36 38,-262.5 38,-262.5 38,-262.5 38,-193.5 38,-155.09 55.3,-143.16 88,-123 130.94,-96.53 267.51,-82.77 351.52,-76.63"/>
<polygon fill="midnightblue" stroke="midnightblue" points="352.02,-80.11 361.75,-75.91 351.52,-73.13 352.02,-80.11"/>
</g>
<!-- Node16&#45;&gt;Node4 -->
<g id="edge27" class="edge">
<title>Node16&#45;&gt;Node4</title>
<path fill="none" stroke="midnightblue" d="M562.91,-458.3C577.56,-449.59 594.75,-437.2 606,-422 681.65,-319.79 687.51,-158.15 686.79,-97.01"/>
<polygon fill="midnightblue" stroke="midnightblue" points="690.28,-96.73 686.59,-86.8 683.28,-96.87 690.28,-96.73"/>
</g>
<!-- Node17 -->
<g id="node17" class="node">
<title>Node17</title>
<g id="a_node17"><a xlink:href="../../d3/d2f/_p_w_m_base_8hpp.html" target="_top" xlink:title=" ">
<polygon fill="none" stroke="black" points="395.5,-386 395.5,-416 574.5,-416 574.5,-386 395.5,-386"/>
<text text-anchor="start" x="403.5" y="-404" font-family="Helvetica,sans-Serif" font-size="10.00">../../../Interfaces</text>
<text text-anchor="middle" x="485" y="-393" font-family="Helvetica,sans-Serif" font-size="10.00">/PWMBase/include/PWMBase.hpp</text>
</a>
</g>
</g>
<!-- Node16&#45;&gt;Node17 -->
<g id="edge28" class="edge">
<title>Node16&#45;&gt;Node17</title>
<path fill="none" stroke="midnightblue" d="M524.88,-458.23C518.04,-448.58 508.85,-435.63 501.02,-424.59"/>
<polygon fill="midnightblue" stroke="midnightblue" points="503.74,-422.38 495.1,-416.25 498.03,-426.43 503.74,-422.38"/>
</g>
<!-- Node18 -->
<g id="node18" class="node">
<title>Node18</title>
<g id="a_node18"><a xlink:href="../../d1/d9f/_p_w_m_2include_2_h_a_l_8hpp.html" target="_top" xlink:title=" ">
<polygon fill="none" stroke="black" points="524.5,-123.5 524.5,-142.5 581.5,-142.5 581.5,-123.5 524.5,-123.5"/>
<text text-anchor="middle" x="553" y="-130.5" font-family="Helvetica,sans-Serif" font-size="10.00">HAL.hpp</text>
</a>
</g>
</g>
<!-- Node16&#45;&gt;Node18 -->
<g id="edge32" class="edge">
<title>Node16&#45;&gt;Node18</title>
<path fill="none" stroke="midnightblue" d="M552.62,-458.37C563.01,-449.1 575.54,-436.11 583,-422 602.66,-384.82 603,-371.56 603,-329.5 603,-329.5 603,-329.5 603,-260.5 603,-218.99 579.43,-174.84 564.65,-151.25"/>
<polygon fill="midnightblue" stroke="midnightblue" points="567.51,-149.22 559.13,-142.73 561.63,-153.03 567.51,-149.22"/>
</g>
<!-- Node17&#45;&gt;Node3 -->
<g id="edge29" class="edge">
<title>Node17&#45;&gt;Node3</title>
<path fill="none" stroke="midnightblue" d="M438.92,-385.89C352.72,-356.69 169.12,-280.6 95,-143 90.78,-135.17 89.22,-129.75 95,-123 127.35,-85.24 266.12,-75.48 351.52,-73.11"/>
<polygon fill="midnightblue" stroke="midnightblue" points="351.76,-76.6 361.66,-72.85 351.58,-69.6 351.76,-76.6"/>
</g>
<!-- Node17&#45;&gt;Node4 -->
<g id="edge30" class="edge">
<title>Node17&#45;&gt;Node4</title>
<path fill="none" stroke="midnightblue" d="M526.13,-385.87C574.42,-366.36 648,-326.18 648,-262.5 648,-262.5 648,-262.5 648,-193.5 648,-161.55 651.96,-153.33 662,-123 665.03,-113.86 669.31,-104.22 673.42,-95.84"/>
<polygon fill="midnightblue" stroke="midnightblue" points="676.67,-97.19 678.09,-86.69 670.43,-94.01 676.67,-97.19"/>
</g>
<!-- Node17&#45;&gt;Node8 -->
<g id="edge31" class="edge">
<title>Node17&#45;&gt;Node8</title>
<path fill="none" stroke="midnightblue" d="M487.23,-385.73C488.66,-376.56 490.55,-364.41 492.22,-353.74"/>
<polygon fill="midnightblue" stroke="midnightblue" points="495.69,-354.17 493.78,-343.75 488.78,-353.09 495.69,-354.17"/>
</g>
<!-- Node18&#45;&gt;Node3 -->
<g id="edge33" class="edge">
<title>Node18&#45;&gt;Node3</title>
<path fill="none" stroke="midnightblue" d="M533.94,-123.48C514.92,-114.96 485.09,-101.62 460.72,-90.72"/>
<polygon fill="midnightblue" stroke="midnightblue" points="461.9,-87.41 451.35,-86.52 459.04,-93.8 461.9,-87.41"/>
</g>
<!-- Node18&#45;&gt;Node4 -->
<g id="edge34" class="edge">
<title>Node18&#45;&gt;Node4</title>
<path fill="none" stroke="midnightblue" d="M572.06,-123.48C591.08,-114.96 620.91,-101.62 645.28,-90.72"/>
<polygon fill="midnightblue" stroke="midnightblue" points="646.96,-93.8 654.65,-86.52 644.1,-87.41 646.96,-93.8"/>
</g>
</g>
</svg>
        <g id="navigator" transform="translate(0 0)" fill="#404254">
                <rect fill="#f2f5e9" fill-opacity="0.5" stroke="#606060" stroke-width=".5" x="0" y="0" width="60" height="60"/>
                <use id="zoomplus" xlink:href="#zoomPlus" x="17" y="9" onmousedown="handleZoom(evt,'in')"/>
                <use id="zoomminus" xlink:href="#zoomMin" x="42" y="9" onmousedown="handleZoom(evt,'out')"/>
                <use id="reset" xlink:href="#resetDef" x="30" y="36" onmousedown="handleReset()"/>
                <g id="arrowUp" xlink:href="#dirArrow" transform="translate(30 24)" onmousedown="handlePan(0,-1)">
                  <use xlink:href="#rim" fill="#404040">
                        <set attributeName="fill" to="#808080" begin="arrowUp.mouseover" end="arrowUp.mouseout"/>
                  </use>
                  <path fill="none" stroke="white" stroke-width="1.5" d="M0,-3.0v7 M-2.5,-0.5L0,-3.0L2.5,-0.5"/>
                </g>
                <g id="arrowRight" xlink:href="#dirArrow" transform="rotate(90) translate(36 -43)" onmousedown="handlePan(1,0)">
                  <use xlink:href="#rim" fill="#404040">
                        <set attributeName="fill" to="#808080" begin="arrowRight.mouseover" end="arrowRight.mouseout"/>
                  </use>
                  <path fill="none" stroke="white" stroke-width="1.5" d="M0,-3.0v7 M-2.5,-0.5L0,-3.0L2.5,-0.5"/>
                </g>
                <g id="arrowDown" xlink:href="#dirArrow" transform="rotate(180) translate(-30 -48)" onmousedown="handlePan(0,1)">
                  <use xlink:href="#rim" fill="#404040">
                        <set attributeName="fill" to="#808080" begin="arrowDown.mouseover" end="arrowDown.mouseout"/>
                  </use>
                  <path fill="none" stroke="white" stroke-width="1.5" d="M0,-3.0v7 M-2.5,-0.5L0,-3.0L2.5,-0.5"/>
                </g>
                <g id="arrowLeft" xlink:href="#dirArrow" transform="rotate(270) translate(-36 17)" onmousedown="handlePan(-1,0)">
                  <use xlink:href="#rim" fill="#404040">
                        <set attributeName="fill" to="#808080" begin="arrowLeft.mouseover" end="arrowLeft.mouseout"/>
                  </use>
                  <path fill="none" stroke="white" stroke-width="1.5" d="M0,-3.0v7 M-2.5,-0.5L0,-3.0L2.5,-0.5"/>
                </g>
        </g>
        <svg viewBox="0 0 15 15" width="100%" height="30px" preserveAspectRatio="xMaxYMin meet">
         <g id="arrow_out" transform="scale(0.3 0.3)">
          <a xlink:href="_m_g996_r_8cpp__incl_org.svg" target="_base">
           <rect id="button" ry="5" rx="5" y="6" x="6" height="38" width="38"
                fill="#f2f5e9" fill-opacity="0.5" stroke="#606060" stroke-width="1.0"/>
           <path id="arrow"
             d="M 11.500037,31.436501 C 11.940474,20.09759 22.043105,11.32322 32.158766,21.979434 L 37.068811,17.246167 C 37.068811,17.246167 37.088388,32 37.088388,32 L 22.160133,31.978069 C 22.160133,31.978069 26.997745,27.140456 26.997745,27.140456 C 18.528582,18.264221 13.291696,25.230495 11.500037,31.436501 z"
             style="fill:#404040;"/>
          </a>
         </g>
        </svg>
</svg>
