<?xml version="1.0" encoding="UTF-8" standalone="no"?>
<!DOCTYPE svg PUBLIC "-//W3C//DTD SVG 1.1//EN"
 "http://www.w3.org/Graphics/SVG/1.1/DTD/svg11.dtd">
<!-- Generated by graphviz version 2.43.0 (0)
 -->
<!-- Title: Components/Sensor/AM2320/include/AM2320_Temperature.hpp Pages: 1 -->
<svg width="348pt" height="106pt"
 viewBox="0.00 0.00 347.50 106.00" xmlns="http://www.w3.org/2000/svg" xmlns:xlink="http://www.w3.org/1999/xlink">
<g id="graph0" class="graph" transform="scale(1 1) rotate(0) translate(4 102)">
<title>Components/Sensor/AM2320/include/AM2320_Temperature.hpp</title>
<!-- Node1 -->
<g id="node1" class="node">
<title>Node1</title>
<g id="a_node1"><a xlink:title=" ">
<polygon fill="#bfbfbf" stroke="black" points="78.5,-67.5 78.5,-97.5 263.5,-97.5 263.5,-67.5 78.5,-67.5"/>
<text text-anchor="start" x="86.5" y="-85.5" font-family="Helvetica,sans-Serif" font-size="10.00">Components/Sensor/AM2320</text>
<text text-anchor="middle" x="171" y="-74.5" font-family="Helvetica,sans-Serif" font-size="10.00">/include/AM2320_Temperature.hpp</text>
</a>
</g>
</g>
<!-- Node2 -->
<g id="node2" class="node">
<title>Node2</title>
<g id="a_node2"><a xlink:href="../../d0/dc8/_a_m2320___temperature_8cpp.html" target="_top" xlink:title=" ">
<polygon fill="none" stroke="black" points="0,-0.5 0,-30.5 164,-30.5 164,-0.5 0,-0.5"/>
<text text-anchor="start" x="8" y="-18.5" font-family="Helvetica,sans-Serif" font-size="10.00">Components/Sensor/AM2320</text>
<text text-anchor="middle" x="82" y="-7.5" font-family="Helvetica,sans-Serif" font-size="10.00">/src/AM2320_Temperature.cpp</text>
</a>
</g>
</g>
<!-- Node1&#45;&gt;Node2 -->
<g id="edge1" class="edge">
<title>Node1&#45;&gt;Node2</title>
<path fill="none" stroke="midnightblue" d="M143.55,-61.45C129.86,-51.45 113.63,-39.6 101.27,-30.58"/>
<polygon fill="midnightblue" stroke="midnightblue" points="141.55,-64.32 151.69,-67.4 145.68,-58.67 141.55,-64.32"/>
</g>
<!-- Node3 -->
<g id="node3" class="node">
<title>Node3</title>
<g id="a_node3"><a xlink:href="../../d6/d80/_sensor_2_a_m2320_2test_2test_2simple__test_8cpp.html" target="_top" xlink:title=" ">
<polygon fill="none" stroke="black" points="182.5,-0.5 182.5,-30.5 339.5,-30.5 339.5,-0.5 182.5,-0.5"/>
<text text-anchor="start" x="190.5" y="-18.5" font-family="Helvetica,sans-Serif" font-size="10.00">Components/Sensor/AM2320</text>
<text text-anchor="middle" x="261" y="-7.5" font-family="Helvetica,sans-Serif" font-size="10.00">/test/test/simple_test.cpp</text>
</a>
</g>
</g>
<!-- Node1&#45;&gt;Node3 -->
<g id="edge2" class="edge">
<title>Node1&#45;&gt;Node3</title>
<path fill="none" stroke="midnightblue" d="M198.76,-61.45C212.61,-51.45 229.02,-39.6 241.51,-30.58"/>
<polygon fill="midnightblue" stroke="midnightblue" points="196.59,-58.7 190.53,-67.4 200.68,-64.38 196.59,-58.7"/>
</g>
</g>
</svg>
